<svg xmlns="http://www.w3.org/2000/svg" width="20" height="20" viewBox="0 0 20 20"><path d="M14.8 7c-.83 0-1.29.22-3.01.91-.14-.12-.28-.22-.44-.31.22-.99.64-1.47 1.1-1.78.64-.43.95-1.07.95-1.82 0-.98-.76-2-2.08-2C8.69 2 7.2 3.34 7.03 4.91l2.13 2.13C8.66 5.8 8.6 5.56 8.6 5.2c0-.94 1.12-1.6 2.72-1.6.46 0 .48.33.48.4 0 .28-.09.39-.25.49-.91.61-1.49 1.52-1.77 2.77l-.05.35 5.73 5.73c.17.04.35.06.54.06.98 0 2-.76 2-2.08C18 8.52 16.49 7 14.8 7zm1.2 4.8c-.28 0-.39-.09-.49-.25-.61-.91-1.52-1.49-2.77-1.77-.01-.17-.04-.34-.09-.5 1.52-.62 1.76-.68 2.14-.68.94 0 1.6 1.12 1.6 2.72.01.46-.32.48-.39.48zM1.87 3.99l2.67 2.67c-.17-.04-.35-.06-.54-.06-.98 0-2 .76-2 2.08C2 11.48 3.51 13 5.2 13c.83 0 1.29-.22 3.01-.91.14.12.28.22.44.31-.22.99-.64 1.47-1.1 1.78-.64.43-.95 1.07-.95 1.82 0 .98.76 2 2.08 2 2.63 0 4.12-1.34 4.29-2.91l3.04 3.04 1.06-1.06L2.93 2.93 1.87 3.99zm8.35 8.75c.12-.01.23-.04.34-.06l.28.28c.5 1.24.56 1.48.56 1.84 0 .94-1.12 1.6-2.72 1.6-.46 0-.48-.33-.48-.4 0-.28.09-.39.25-.49.91-.61 1.49-1.52 1.77-2.77zm-2.96-2.52c.01.17.04.34.09.5-1.53.61-1.76.68-2.15.68-.94 0-1.6-1.12-1.6-2.72 0-.46.33-.48.4-.48.28 0 .39.09.49.25.61.91 1.52 1.49 2.77 1.77z"/></svg>