<svg xmlns="http://www.w3.org/2000/svg" width="20" height="20" viewBox="0 0 20 20"><path d="M6.72 10.91a.493.493 0 0 1-.11-.55c.37-.82 1.42-2.98 2.89-4.45 3.45-3.45 6.38-3.58 7.6-3.42.22.03.39.2.42.42.15 1.21.03 4.15-3.42 7.6-1.47 1.47-3.63 2.52-4.45 2.89a.49.49 0 0 1-.55-.11l-2.38-2.38zM12.5 9c.82 0 1.5-.67 1.5-1.5S13.33 6 12.5 6c-.82 0-1.5.67-1.5 1.5S11.67 9 12.5 9zM7.04 5.29c-.46-.06-.92.1-1.25.43L2.82 8.69c-.26.26-.16.71.2.83l2.51.84c.48-1.18 1.53-3.29 3-4.88l-1.49-.19zm7.67 7.67c.06.46-.1.92-.43 1.25l-2.98 2.98c-.26.26-.71.16-.83-.2l-.84-2.51c1.18-.48 3.29-1.53 4.88-3l.2 1.48zm-7.87 3.38c.41-.41.66-.97.66-1.59 0-1.24-1.01-2.25-2.25-2.25-.62 0-1.18.25-1.59.66-.89.89-1.36 3.05-1.55 4.16-.06.34.24.63.57.57 1.11-.19 3.27-.66 4.16-1.55z"/></svg>