<svg xmlns="http://www.w3.org/2000/svg" width="20" height="20" viewBox="0 0 20 20"><path d="M18.25 7c-.41 0-.75.34-.75.75V9H16V2.75c0-.41-.34-.75-.75-.75s-.75.34-.75.75V4h-2V2.75c0-.41-.34-.75-.75-.75s-.75.34-.75.75V4H9V2.75C9 2.34 8.66 2 8.25 2s-.75.34-.75.75V4h-2V2.75c0-.41-.34-.75-.75-.75S4 2.34 4 2.75V9H2.5V7.75c0-.41-.34-.75-.75-.75S1 7.34 1 7.75v7.75c0 .83.67 1.5 1.5 1.5H8v-2c0-1.1.9-2 2-2s2 .9 2 2v2h5.5c.83 0 1.5-.67 1.5-1.5V7.75c0-.41-.34-.75-.75-.75zM9 10H7.5V7H9v3zm3.5 0H11V7h1.5v3z"/></svg>