<svg xmlns="http://www.w3.org/2000/svg" width="20" height="20" viewBox="0 0 20 20"><path d="M7.24 2.5c.16 0 .32.09.4.23L9.6 6h2.12c.41 0 .77.32.78.73.01.42-.33.77-.75.77H9.6l-1.96 3.27c-.09.14-.24.23-.4.23-.32 0-.54-.31-.45-.61L7.7 7.5H5.45s-.43.58-.64.85a.37.37 0 0 1-.3.15c-.26 0-.44-.24-.37-.49.15-.52.36-1.26.36-1.26l-.36-1.26c-.07-.25.11-.49.37-.49.12 0 .23.06.31.15l.63.85H7.7l-.91-2.89c-.09-.3.13-.61.45-.61zm5.52 15c.32 0 .54-.31.45-.61L12.3 14h2.25l.63.85c.07.1.19.15.31.15.25 0 .44-.24.37-.49l-.36-1.26.36-1.26a.385.385 0 0 0-.37-.49.42.42 0 0 0-.31.15l-.63.85H12.3l.91-2.89c.09-.3-.13-.61-.45-.61a.47.47 0 0 0-.4.23L10.4 12.5H8.28c-.41 0-.77.32-.78.73-.01.42.33.77.75.77h2.15l1.96 3.27c.09.14.24.23.4.23z"/></svg>