<svg xmlns="http://www.w3.org/2000/svg" width="20" height="20" viewBox="0 0 20 20"><path d="M10 7.5v1.67h1.5v1.5H10v1.67h1.5v1.5H10v1.67h3.5v-3.17H15v.17h1.5v-5H10zm5 3.17h-1.5v-1.5H15v1.5z" opacity=".3"/><path d="M5 15.5H3.5V14H5v1.5zm0-3.17H3.5v-1.5H5v1.5zm0-3.16H3.5v-1.5H5v1.5zM5 6H3.5V4.5H5V6zm3.5 9.5H7V14h1.5v1.5zm0-3.17H7v-1.5h1.5v1.5zm0-3.16H7v-1.5h1.5v1.5zM7 6V4.5h1.5V6H7zm11 6.5V6h-8V3H2v14h11.5v-1.5H10v-1.67h1.5v-1.5H10v-1.67h1.5v-1.5H10V7.5h6.5v5H18zm-3-3.33h-1.5v1.5H15v-1.5zm0 3.16h-1.5v1.5H15v-1.5zm3 3.17V14h-1.5v1.5H15V17h1.5v1.5H18V17h1.5v-1.5H18z"/></svg>