<svg xmlns="http://www.w3.org/2000/svg" width="20" height="20" viewBox="0 0 20 20"><path d="M10 5.39 5.5 8.82v6.68h9V8.82L10 5.39zM7 12.5c-.41 0-.75-.34-.75-.75S6.59 11 7 11s.75.34.75.75-.34.75-.75.75zm3 0c-.41 0-.75-.34-.75-.75S9.59 11 10 11s.75.34.75.75-.34.75-.75.75zm3 0c-.41 0-.75-.34-.75-.75s.34-.75.75-.75.75.34.75.75-.34.75-.75.75z" opacity=".3"/><path d="M10 3.5 1.75 9.8l.91 1.19L4 9.97V17h12V9.97l1.34 1.02.91-1.19L10 3.5zm4.5 12h-9V8.82L10 5.39l4.5 3.44v6.67zm-6.75-3.75c0 .41-.34.75-.75.75s-.75-.34-.75-.75S6.59 11 7 11s.75.34.75.75zm3 0c0 .41-.34.75-.75.75s-.75-.34-.75-.75.34-.75.75-.75.75.34.75.75zm3 0c0 .41-.34.75-.75.75s-.75-.34-.75-.75.34-.75.75-.75.75.34.75.75z"/></svg>