<svg xmlns="http://www.w3.org/2000/svg" width="20" height="20" viewBox="0 0 20 20"><path d="M15.28 12.28C15.28 15.81 10 20 10 20s-5.28-4.19-5.28-7.72C4.72 9.36 7.08 7 10 7s5.28 2.36 5.28 5.28zm1.06-9.62-1.06 1.06A7.496 7.496 0 0 0 9.95 1.5c-2.06 0-3.92.83-5.28 2.18L3.61 2.61A9 9 0 0 1 9.95 0c2.5 0 4.76 1.02 6.39 2.66zM6.09 5.09l1.06 1.06C7.87 5.44 8.86 5 9.95 5c1.11 0 2.12.46 2.85 1.2l1.06-1.06c-1-1.01-2.38-1.63-3.91-1.63-1.5-.01-2.87.6-3.86 1.58zm.13 7.19c0 1.71 2.05 4.15 3.78 5.74 1.73-1.59 3.78-4.03 3.78-5.74 0-2.08-1.7-3.78-3.78-3.78s-3.78 1.7-3.78 3.78zM10 11a1.25 1.25 0 1 0 0 2.5 1.25 1.25 0 0 0 0-2.5z"/></svg>