<svg xmlns="http://www.w3.org/2000/svg" width="20" height="20" viewBox="0 0 20 20"><path d="M10 18a1.498 1.498 0 0 1-1.06-2.56c.38-.38 1.9-1.05 2.97-1.5.41-.17.82.24.65.65-.45 1.07-1.12 2.59-1.5 2.97-.27.27-.65.44-1.06.44zm3-.75c0-.41.34-.75.75-.75h2.65c-.77-5.48-5.79-5.65-6.4-5.65-.61 0-5.63.17-6.4 5.65h2.65c.41 0 .75.34.75.75s-.34.75-.75.75h-3.2c-.59 0-1.05-.52-1-1.11C2.48 11.86 5.91 10 8.5 9.5V7c-3.01-.36-5.43-1.8-6.22-3.66C2.01 2.7 2.53 2 3.22 2h13.56c.69 0 1.21.7.94 1.34-.79 1.86-3.21 3.3-6.22 3.66v2.5c2.59.5 6.02 2.36 6.45 7.39.05.59-.41 1.11-1 1.11h-3.2c-.41 0-.75-.34-.75-.75z"/></svg>