<svg xmlns="http://www.w3.org/2000/svg" width="20" height="20" viewBox="0 0 20 20"><path d="M18.5 3h-17C.67 3 0 3.67 0 4.5v11c0 .83.67 1.5 1.5 1.5h17c.83 0 1.5-.67 1.5-1.5v-11c0-.83-.67-1.5-1.5-1.5zM7 7a2.5 2.5 0 0 1 0 5 2.5 2.5 0 0 1 0-5zm-5.36 8.5C2.93 13.97 4.85 13 7 13s4.07.97 5.36 2.5H1.64zm15.53-5.75c-.14.24-.44.32-.68.18l-.99-.56v1.13c0 .28-.22.5-.5.5s-.5-.22-.5-.5V9.37l-.98.57c-.24.14-.54.06-.68-.18a.493.493 0 0 1 .18-.68L14 8.5l-.98-.57a.493.493 0 0 1-.18-.68c.14-.24.44-.32.68-.18l.98.57V6.5c0-.28.22-.5.5-.5s.5.22.5.5v1.13l.98-.57c.24-.14.54-.06.68.18s.06.54-.18.68L16 8.5l.98.57c.24.14.32.44.19.68z"/></svg>