<svg xmlns="http://www.w3.org/2000/svg" xml:space="preserve" viewBox="0 0 30 30"><path d="M4.64 16.88c0 1.33.46 2.48 1.39 3.43.93.96 2.06 1.47 3.4 1.53.11 0 .17-.06.17-.17v-1.33c0-.12-.06-.19-.17-.19-.86-.04-1.58-.38-2.18-1.02s-.9-1.39-.9-2.25c0-.82.28-1.54.84-2.16.56-.61 1.26-.97 2.1-1.07h.53c.13 0 .2-.06.2-.18l.06-.57c.11-1.08.57-1.99 1.38-2.72s1.77-1.1 2.86-1.1c1.08 0 2.03.37 2.85 1.1.82.73 1.28 1.64 1.39 2.72l.08.57c0 .12.06.18.18.18h1.61c.89 0 1.66.32 2.31.96s.98 1.4.98 2.26c0 .86-.3 1.61-.9 2.25-.6.64-1.33.98-2.18 1.02-.13 0-.2.06-.2.19v1.33c0 .11.07.17.2.17.87-.02 1.67-.26 2.4-.71.73-.45 1.31-1.05 1.73-1.8.42-.75.63-1.57.63-2.44 0-.67-.13-1.31-.39-1.91a4.94 4.94 0 0 0-1.06-1.57 4.96 4.96 0 0 0-1.58-1.05c-.61-.26-1.25-.39-1.92-.39h-.32a5.885 5.885 0 0 0-2.11-3.29 5.763 5.763 0 0 0-3.68-1.28c-1.41 0-2.67.44-3.76 1.32s-1.79 2-2.1 3.36c-1.11.26-2.02.83-2.73 1.73-.76.91-1.11 1.93-1.11 3.08zm6.94.63c0 .25.08.46.24.64.15.15.35.23.61.23.24 0 .45-.08.62-.23l1.11-1.14v3.98c0 .24.08.44.23.61.16.17.35.25.59.25.23 0 .43-.08.6-.25.17-.17.25-.37.25-.61v-3.94l1.12 1.11c.4.31.81.31 1.22 0 .16-.15.24-.36.24-.62 0-.24-.08-.44-.24-.62l-2.59-2.57a.814.814 0 0 0-.6-.24c-.24 0-.44.08-.59.24l-2.58 2.57c-.15.16-.23.35-.23.59z"/></svg>