<svg xmlns="http://www.w3.org/2000/svg" xml:space="preserve" viewBox="0 0 30 30"><path d="M3.89 17.6c0-.99.31-1.88.93-2.65s1.41-1.27 2.38-1.49c.26-1.17.85-2.14 1.78-2.88.93-.75 2-1.12 3.22-1.12 1.18 0 2.24.36 3.16 1.09.93.73 1.53 1.66 1.8 2.8h.27c1.18 0 2.18.41 3.01 1.24s1.25 1.83 1.25 3c0 1.18-.42 2.18-1.25 3.01s-1.83 1.25-3.01 1.25H8.16c-.58 0-1.13-.11-1.65-.34s-.99-.51-1.37-.89c-.38-.38-.68-.84-.91-1.36s-.34-1.09-.34-1.66zm1.45 0c0 .76.28 1.42.82 1.96s1.21.82 1.99.82h9.28c.77 0 1.44-.27 1.99-.82.55-.55.83-1.2.83-1.96s-.27-1.42-.83-1.96c-.55-.54-1.21-.82-1.99-.82h-1.39c-.1 0-.15-.05-.15-.15l-.07-.49c-.1-.94-.5-1.73-1.19-2.35s-1.51-.93-2.45-.93c-.94 0-1.76.31-2.46.94-.7.62-1.09 1.41-1.18 2.34l-.07.42c0 .1-.05.15-.16.15l-.45.07c-.72.06-1.32.36-1.81.89-.46.53-.71 1.16-.71 1.89zm8.85-8.72c-.1.09-.08.16.07.21.43.19.79.37 1.08.55.11.03.19.02.22-.03.61-.57 1.31-.86 2.12-.86s1.5.27 2.1.81c.59.54.92 1.21.99 2l.09.64h1.42c.65 0 1.21.23 1.68.7s.7 1.02.7 1.66c0 .6-.21 1.12-.62 1.57s-.92.7-1.53.77c-.1 0-.15.05-.15.16v1.13c0 .11.05.16.15.16 1.01-.06 1.86-.46 2.55-1.19s1.04-1.6 1.04-2.6c0-1.06-.37-1.96-1.12-2.7-.75-.75-1.65-1.12-2.7-1.12h-.15c-.26-1-.81-1.82-1.65-2.47-.83-.65-1.77-.97-2.8-.97-1.4-.01-2.57.52-3.49 1.58z"/></svg>