<svg xmlns="http://www.w3.org/2000/svg" xml:space="preserve" viewBox="0 0 30 30"><path d="M1.58 16.89c0 .87.21 1.68.64 2.42.42.75 1 1.35 1.73 1.8.73.45 1.53.69 2.4.73.12 0 .18-.06.18-.17v-1.33c0-.12-.06-.19-.18-.19-.85-.04-1.58-.38-2.18-1.02s-.9-1.38-.9-2.25c0-.82.28-1.54.84-2.15s1.26-.96 2.09-1.06l.52-.03c.12 0 .19-.06.19-.18l.08-.54c.11-1.08.56-1.98 1.36-2.71s1.75-1.09 2.85-1.09c1.07 0 2.02.36 2.84 1.09a4.11 4.11 0 0 1 1.4 2.7l.07.58c0 .11.06.17.17.17h1.62c.88 0 1.65.32 2.29.96.65.64.97 1.39.97 2.26 0 .86-.3 1.61-.9 2.25-.6.63-1.33.97-2.18 1.02-.12 0-.18.06-.18.19v1.33c0 .11.06.17.18.17.87-.02 1.67-.26 2.4-.72s1.31-1.05 1.73-1.8.63-1.56.63-2.43c0-.74-.14-1.4-.41-2 .78-.95 1.16-2.05 1.16-3.3 0-.94-.23-1.82-.7-2.62s-1.1-1.44-1.9-1.9c-.8-.47-1.67-.7-2.61-.7-1.55 0-2.84.58-3.87 1.73-.82-.44-1.72-.66-2.69-.66-1.41 0-2.65.44-3.74 1.31s-1.78 1.99-2.09 3.34c-1.1.26-2.01.84-2.72 1.73-.74.91-1.09 1.93-1.09 3.07zm5.9.88c0 .38.14.71.42.98s.62.4 1.01.4c.4 0 .73-.13 1-.4s.4-.59.4-.98c0-.24-.12-.58-.35-1-.23-.43-.45-.76-.65-.99-.21-.22-.35-.37-.4-.42l-.36.4c-.27.29-.52.63-.74 1.03s-.33.73-.33.98zM9.97 4.66c0 .26.08.46.24.61l.65.66c.42.31.82.31 1.21 0a.98.98 0 0 0 .24-.64c0-.23-.08-.43-.24-.59l-.64-.65a.89.89 0 0 0-.61-.25c-.24 0-.45.08-.61.25-.16.17-.24.37-.24.61zm.48 17.07c0 .66.23 1.21.68 1.65s1 .67 1.65.67c.65 0 1.2-.23 1.66-.68.46-.46.68-1 .68-1.64 0-.54-.27-1.19-.81-1.97-.46-.61-.89-1.1-1.28-1.49-.08-.06-.17-.13-.26-.23l-.23.23c-.36.32-.78.82-1.27 1.47-.54.76-.82 1.42-.82 1.99zm1.48-6.62c0 .25.1.47.29.65.19.18.42.27.69.27.26 0 .48-.09.66-.27.18-.18.27-.4.27-.65 0-.41-.31-.95-.93-1.6l-.24.25c-.18.2-.35.43-.5.7-.17.27-.24.48-.24.65zm3.37-6.05c.66-.66 1.48-.99 2.47-.99.98 0 1.8.34 2.49 1.03.68.69 1.03 1.52 1.03 2.5 0 .59-.17 1.2-.52 1.84-.97-.96-2.13-1.44-3.47-1.44h-.33a6.086 6.086 0 0 0-1.67-2.94zm1.6-5.26c0 .24.09.44.26.61.17.17.37.25.6.25s.43-.08.58-.25c.16-.17.23-.37.23-.61V1.76c0-.24-.08-.43-.23-.59S18 .94 17.77.94s-.44.08-.61.23-.26.35-.26.59V3.8zm5.52 2.31c0 .24.08.44.25.59.17.16.36.24.56.24.17 0 .38-.08.61-.24l1.43-1.43c.18-.18.27-.39.27-.62 0-.24-.08-.45-.25-.61a.853.853 0 0 0-.61-.24c-.22 0-.41.08-.58.25l-1.43 1.43c-.17.17-.25.38-.25.63zm.8 11.78c0 .25.08.46.23.64l.65.58c.14.18.34.27.59.27.24 0 .44-.09.58-.27.18-.16.27-.36.27-.58 0-.22-.09-.41-.27-.58l-.61-.65a.888.888 0 0 0-.61-.24c-.24 0-.44.08-.6.24s-.23.36-.23.59zm1.45-6.29c0 .22.08.42.25.58.17.16.38.24.63.24h2.02c.24 0 .44-.08.6-.24.17-.16.25-.35.25-.59s-.08-.44-.25-.6-.37-.25-.6-.25h-2.02c-.24 0-.44.08-.62.25s-.26.38-.26.61z"/></svg>