<svg xmlns="http://www.w3.org/2000/svg" xml:space="preserve" viewBox="0 0 30 30"><path d="M2.32 14.85c0 .24.09.44.26.6.16.17.36.25.6.25h9.42c.23 0 .43-.08.59-.25.16-.17.24-.37.24-.6a.84.84 0 0 0-.23-.59.791.791 0 0 0-.59-.24H3.18c-.24 0-.44.08-.61.24-.17.16-.25.36-.25.59zM2.65 21c0 .24.08.44.25.6.16.17.36.25.6.25h9.43c.24 0 .44-.08.61-.25.17-.17.25-.37.25-.6s-.08-.43-.25-.59-.37-.24-.61-.24H3.51c-.24 0-.44.08-.6.24-.17.16-.26.36-.26.59zm1.37-3.1c0 .24.08.43.25.59.17.16.38.23.63.23h9.4c.24 0 .43-.08.59-.23.16-.16.23-.35.23-.59 0-.25-.08-.45-.23-.61a.791.791 0 0 0-.59-.24H4.9c-.25 0-.46.08-.63.24-.16.16-.25.36-.25.61zm2.43-6.35c0-.24.09-.44.26-.62.17-.16.38-.24.6-.24h2.03c.23 0 .42.08.58.25.16.17.23.37.23.61s-.08.44-.23.6c-.16.17-.35.25-.58.25H7.31c-.24 0-.44-.08-.61-.25a.816.816 0 0 1-.25-.6zm2.86-6.92c0-.22.08-.43.24-.61.19-.16.4-.24.63-.24.22 0 .42.08.59.24l1.42 1.47c.16.15.24.35.24.59s-.08.44-.24.6c-.16.16-.36.24-.6.24s-.44-.08-.59-.24L9.55 5.25a.894.894 0 0 1-.24-.62zm2.55 6.8v-.07c.02-.91.27-1.75.74-2.53.47-.77 1.11-1.38 1.9-1.83s1.65-.67 2.57-.67c.7 0 1.37.14 2.02.42.64.28 1.2.65 1.66 1.12.47.47.84 1.02 1.11 1.66.27.64.41 1.32.41 2.02 0 .94-.23 1.8-.69 2.6s-1.09 1.43-1.88 1.89a5.1 5.1 0 0 1-2.6.71h-.2c-.07 0-.13-.02-.18-.07a.25.25 0 0 1-.08-.18v-1.22c0-.13.07-.2.22-.2h.24c.96-.01 1.79-.35 2.47-1.05.68-.69 1.03-1.52 1.03-2.49 0-.96-.35-1.78-1.04-2.47-.69-.68-1.52-1.02-2.5-1.02-.94 0-1.76.32-2.44.98-.68.65-1.04 1.44-1.08 2.37 0 .06-.02.11-.07.17s-.13.09-.25.09h-1.14c-.15.01-.22-.07-.22-.23zm4.37 9.88v-1.99c0-.24.08-.44.24-.6s.36-.24.6-.24.45.08.61.24.24.36.24.6v1.99c0 .24-.08.45-.25.62-.17.17-.37.25-.6.25-.24 0-.44-.08-.6-.25s-.24-.37-.24-.62zm0-17.48V1.78c0-.24.08-.44.25-.6s.36-.25.6-.25c.23 0 .43.08.6.25s.25.37.25.6v2.04c0 .23-.08.42-.25.58-.17.15-.37.23-.6.23-.24 0-.44-.08-.6-.23a.723.723 0 0 1-.25-.57zm5.51 13.18c0-.23.07-.42.23-.56a.74.74 0 0 1 .57-.23c.24 0 .44.08.6.23l1.45 1.42c.16.17.24.38.24.61 0 .23-.08.43-.24.59-.4.31-.8.31-1.2 0l-1.42-1.43a.904.904 0 0 1-.23-.63zm0-10.93c0-.25.07-.45.23-.59l1.42-1.47c.18-.16.37-.24.59-.24.24 0 .44.08.6.25.17.17.25.37.25.6 0 .25-.08.46-.24.62l-1.45 1.43c-.18.16-.38.24-.6.24-.23 0-.41-.08-.57-.24s-.23-.36-.23-.6zM24 11.55c0-.23.08-.44.25-.62.16-.16.35-.24.56-.24h2.03c.23 0 .43.09.61.26.17.17.26.37.26.6 0 .23-.09.43-.26.6-.18.17-.38.25-.61.25h-2.03c-.23 0-.42-.08-.58-.25a.847.847 0 0 1-.23-.6z"/></svg>