<svg xmlns="http://www.w3.org/2000/svg" xml:space="preserve" viewBox="0 0 30 30"><path d="M1.49 16.92c0-1.17.36-2.19 1.08-3.09s1.64-1.48 2.74-1.74c.31-1.37 1.01-2.49 2.1-3.38 1.1-.88 2.35-1.32 3.77-1.32.99 0 1.9.22 2.72.66.5-.53 1.09-.95 1.76-1.25.67-.3 1.37-.45 2.09-.45.95 0 1.83.24 2.64.71s1.45 1.11 1.92 1.92c.47.81.71 1.69.71 2.64 0 1.23-.38 2.33-1.14 3.29.29.61.43 1.28.43 2.02 0 .88-.21 1.7-.64 2.45-.42.75-1 1.36-1.74 1.81-.73.46-1.54.7-2.42.72-.13 0-.2-.06-.2-.18v-1.34c0-.12.07-.18.2-.18.86-.04 1.58-.39 2.18-1.03.6-.64.9-1.4.9-2.26 0-.89-.32-1.65-.97-2.29s-1.41-.96-2.31-.96H15.7c-.12 0-.18-.06-.18-.17l-.08-.59c-.11-1.08-.58-1.99-1.4-2.72-.82-.73-1.78-1.1-2.86-1.1-1.1 0-2.05.37-2.86 1.1-.81.73-1.27 1.64-1.37 2.72l-.07.59c-.03.09-.11.13-.22.13l-.51.04c-.84.1-1.55.45-2.11 1.06s-.84 1.34-.84 2.18v.05h.03c.01.98.38 1.78 1.11 2.43.22.19.47.36.74.49v.02c.41.19.82.29 1.21.31.11 0 .17.06.17.17v1.34c0 .11-.06.17-.17.17-.52-.03-1.01-.13-1.48-.3v.02c-.83-.29-1.54-.77-2.11-1.43s-.95-1.44-1.11-2.31v-.04c-.01-.01-.01-.02-.01-.03-.07-.26-.09-.55-.09-.88zm5.5 7.17c0-.03.01-.07.02-.13.01-.05.02-.09.02-.12l.09-.59c.07-.24.2-.41.41-.53.2-.12.43-.14.68-.08.23.07.39.2.51.41.11.2.13.41.07.62l-.14.6c-.1.44-.35.66-.76.66-.03 0-.08 0-.15-.01s-.11-.01-.13-.01a.761.761 0 0 1-.46-.33.82.82 0 0 1-.16-.49zm.74-2.94c0-.24.08-.43.23-.59.16-.16.35-.23.59-.23s.43.08.59.23c.16.16.23.35.23.59 0 .23-.08.42-.23.58s-.35.23-.59.23c-.23 0-.42-.08-.57-.24a.752.752 0 0 1-.25-.57zm1.64 5.98c0-.04.01-.11.04-.23l.13-.58c.07-.23.21-.4.41-.51.21-.12.42-.14.63-.07.23.04.41.17.53.37.12.2.15.43.08.68l-.13.59c-.1.41-.37.61-.8.61-.05 0-.13-.01-.24-.04a.831.831 0 0 1-.49-.33.842.842 0 0 1-.16-.49zM9.9 4.62c0-.24.08-.44.25-.6.17-.16.38-.24.63-.24.24 0 .44.08.6.24l.63.66c.17.17.25.37.25.6 0 .24-.1.46-.3.64-.2.18-.4.26-.61.23a.875.875 0 0 1-.55-.27l-.65-.66a.857.857 0 0 1-.25-.6zm.26 19.61a.784.784 0 0 1 .82-.81c.24 0 .43.08.59.23.16.16.23.35.23.58 0 .24-.08.43-.23.59-.16.16-.35.23-.59.23-.22 0-.41-.08-.58-.25a.779.779 0 0 1-.24-.57zm.62-2.27c0-.09.01-.18.03-.26l.23-.9c.07-.23.21-.41.41-.53.21-.12.42-.15.64-.08.24.07.41.2.53.4.12.2.14.4.07.62l-.26.9c-.08.27-.22.46-.41.57s-.41.12-.64.06a.657.657 0 0 1-.45-.3c-.12-.18-.17-.33-.15-.48zm2.76 2.14c0-.03 0-.07.01-.13s.01-.09.01-.11l.09-.59c.07-.24.2-.41.41-.53.2-.12.43-.14.68-.08.23.07.4.21.51.41.12.21.14.42.07.63l-.14.6c-.1.43-.35.65-.76.65-.03 0-.08 0-.15-.01-.07-.01-.11-.01-.13-.01a.768.768 0 0 1-.45-.33.965.965 0 0 1-.15-.5zm.74-2.94c0-.24.08-.43.23-.59.16-.16.35-.23.59-.23s.43.08.59.23c.16.16.23.35.23.59a.784.784 0 0 1-.82.81c-.23 0-.43-.08-.58-.25a.741.741 0 0 1-.24-.56zm1.03-12.11c.84.76 1.4 1.74 1.7 2.93h.31c1.38 0 2.55.48 3.52 1.45.31-.55.47-1.16.47-1.82 0-.98-.35-1.81-1.04-2.5a3.458 3.458 0 0 0-2.51-1.03c-.96 0-1.78.32-2.45.97zm1.6-5.27V1.73c0-.24.08-.44.25-.61.17-.17.37-.26.6-.26.24 0 .44.08.6.25.16.17.24.38.24.62v2.05c0 .24-.08.45-.24.62-.16.17-.36.25-.6.25-.23 0-.43-.09-.6-.26a.822.822 0 0 1-.25-.61zm5.58 2.29c0-.24.08-.44.23-.6l1.44-1.45a.73.73 0 0 1 .58-.25c.24 0 .44.08.6.25.18.16.26.36.26.6s-.09.44-.26.6L23.9 6.68a.81.81 0 0 1-.63.26.778.778 0 0 1-.55-.26c-.16-.16-.23-.36-.23-.61zm.77 11.91c0-.24.08-.44.25-.61.17-.17.37-.25.6-.25.23 0 .43.09.61.26l.62.63c.18.17.26.38.26.61 0 .24-.09.44-.26.6-.14.17-.32.26-.54.26l-.02-.02c-.24 0-.44-.08-.62-.24l-.65-.64a.857.857 0 0 1-.25-.6zm1.47-6.37c0-.24.08-.44.25-.6.17-.16.37-.24.61-.24h2.06a.837.837 0 0 1 .86.84c0 .24-.08.44-.25.61-.17.17-.37.25-.61.25h-2.06a.77.77 0 0 1-.6-.27.727.727 0 0 1-.26-.59z"/></svg>