<svg xmlns="http://www.w3.org/2000/svg" xml:space="preserve" viewBox="0 0 30 30"><path d="M4.37 15.62c0-.24.08-.44.25-.61.18-.17.38-.25.6-.25h2.04c.23 0 .42.08.58.25.15.17.23.37.23.61s-.08.44-.23.6c-.15.17-.35.25-.58.25H5.23c-.23 0-.43-.08-.6-.25a.826.826 0 0 1-.26-.6zm2.86-6.91c0-.23.08-.43.23-.61.2-.17.41-.25.64-.25.21 0 .41.08.59.25l1.43 1.46c.16.15.24.35.24.59s-.08.44-.24.6c-.16.16-.36.24-.6.24s-.44-.08-.59-.24L7.47 9.32a.853.853 0 0 1-.24-.61zm.16 9.31c0-.22.08-.41.23-.55.16-.14.37-.22.64-.22h5.71c.27 0 .48.07.64.22.16.14.24.33.24.55 0 .27-.08.48-.23.64-.16.16-.37.24-.65.24H8.26c-.27 0-.48-.08-.64-.23s-.23-.38-.23-.65zm.99 2.95c0-.22.09-.42.28-.6a.849.849 0 0 1 1.23-.01c.16.18.24.38.24.61 0 .28-.08.49-.23.65s-.37.23-.64.23a.87.87 0 0 1-.61-.24.824.824 0 0 1-.27-.64zm1.41-5.06v-.07c.03-1.26.47-2.35 1.31-3.28.84-.93 1.87-1.49 3.1-1.69h.05c.19-.04.45-.06.76-.06s.57.02.76.06h.04c1.22.19 2.26.76 3.1 1.69.84.93 1.28 2.02 1.31 3.28v.07c0 .16-.08.24-.23.24h-1.13c-.12 0-.2-.03-.25-.09a.274.274 0 0 1-.07-.18c-.04-.93-.4-1.72-1.08-2.37-.68-.65-1.49-.97-2.44-.97s-1.76.32-2.44.97c-.68.65-1.04 1.44-1.08 2.37 0 .06-.03.12-.08.18s-.14.09-.26.09h-1.13c-.16 0-.24-.08-.24-.24zm1.01 5.06c0-.23.08-.43.24-.61.16-.17.37-.26.63-.26h3.83c.22 0 .42.09.6.27.18.18.28.38.28.6 0 .26-.09.48-.27.64s-.38.24-.61.24h-3.83c-.27 0-.48-.08-.64-.23-.16-.16-.23-.37-.23-.65zm3.34-13.08V5.86c0-.24.08-.44.25-.61S14.76 5 15 5s.43.08.6.25c.17.17.25.37.25.61v2.03c0 .23-.08.43-.25.58s-.37.24-.6.24-.44-.08-.6-.23-.26-.36-.26-.59zm1.36 10.13c0-.21.09-.39.27-.54s.38-.23.61-.23.43.08.61.23.27.33.27.54c0 .26-.09.48-.27.64-.18.16-.38.24-.61.24s-.44-.08-.61-.24a.838.838 0 0 1-.27-.64zm1.54 2.95c0-.23.08-.43.24-.61.16-.17.38-.26.64-.26h1.86c.26 0 .47.09.63.26.16.18.24.38.24.61 0 .28-.08.49-.23.65-.15.16-.37.23-.64.23h-1.86c-.27 0-.48-.08-.64-.23-.16-.16-.24-.37-.24-.65zm.88-2.95c0-.21.09-.39.27-.54s.38-.23.6-.23h3.07c.22 0 .4.07.54.22s.22.33.22.55c0 .27-.07.48-.21.64-.14.16-.32.24-.55.24h-3.07c-.23 0-.43-.08-.61-.24a.867.867 0 0 1-.26-.64zm1.74-7.87c0-.25.08-.45.23-.59l1.42-1.46c.18-.17.38-.25.59-.25.23 0 .43.08.6.25.17.17.25.37.25.61s-.08.45-.24.61l-1.46 1.42c-.18.16-.38.24-.6.24-.23 0-.41-.08-.56-.24a.807.807 0 0 1-.23-.59zm2.26 5.47c0-.23.08-.43.24-.61.17-.17.36-.25.57-.25h2.02c.23 0 .43.09.6.26.17.17.26.37.26.6 0 .23-.09.43-.26.6-.17.17-.37.25-.6.25h-2.02c-.23 0-.43-.08-.58-.25s-.23-.36-.23-.6z"/></svg>