<svg xmlns="http://www.w3.org/2000/svg" xml:space="preserve" viewBox="0 0 30 30"><path d="M.35 21.01c0 .24.09.44.27.6.17.17.37.25.61.25h5.88c.26 0 .48.09.68.28a.932.932 0 0 1 0 1.37c-.2.19-.42.29-.68.29-.26 0-.48-.1-.68-.3a.888.888 0 0 0-.61-.24c-.24 0-.44.08-.6.24-.16.16-.24.36-.24.6s.08.44.24.6c.53.53 1.16.8 1.89.8.74 0 1.37-.26 1.88-.78.52-.52.78-1.15.78-1.89s-.26-1.37-.78-1.89c-.52-.53-1.15-.79-1.88-.79H1.23c-.24 0-.44.09-.62.26s-.26.37-.26.6zm0-3.01c0 .22.09.41.27.57.17.17.37.25.61.25H12.2c.74 0 1.37-.26 1.89-.78.52-.52.78-1.15.78-1.89s-.26-1.36-.78-1.88c-.52-.51-1.15-.77-1.89-.77-.76 0-1.38.25-1.88.76-.16.16-.23.37-.23.61s.08.44.23.6c.15.15.35.23.6.23.24 0 .44-.08.62-.23.19-.19.41-.28.67-.28.26 0 .49.09.68.28.19.19.29.42.29.68 0 .27-.1.5-.29.69-.19.19-.42.29-.68.29H1.23a.87.87 0 0 0-.62.26c-.18.18-.26.38-.26.61zM3 15.65c0 .08.06.12.17.12H4.6c.07 0 .13-.05.2-.14.22-.54.57-.99 1.05-1.35.47-.35 1-.55 1.6-.6l.53-.07c.12 0 .19-.06.19-.17l.07-.52c.11-1.08.56-1.98 1.37-2.71s1.76-1.09 2.85-1.09c1.1 0 2.05.36 2.86 1.08s1.27 1.63 1.38 2.71l.07.58c0 .12.06.18.18.18h1.63c.9 0 1.67.31 2.3.94.63.63.95 1.39.95 2.27 0 .89-.32 1.66-.95 2.29-.63.63-1.4.95-2.3.95h-6.9c-.13 0-.19.06-.19.18v1.37c0 .11.06.17.19.17h6.9c.89 0 1.72-.22 2.48-.67.76-.44 1.36-1.05 1.8-1.81.44-.76.66-1.59.66-2.48 0-.74-.14-1.41-.42-2.03.76-.99 1.13-2.1 1.13-3.31 0-.94-.24-1.81-.71-2.62S22.41 7.47 21.6 7c-.81-.47-1.68-.71-2.62-.71-1.54 0-2.83.58-3.86 1.73-.8-.41-1.69-.61-2.67-.61-1.41 0-2.65.44-3.73 1.31s-1.77 1.99-2.06 3.34c-.85.2-1.6.61-2.25 1.23-.65.62-1.11 1.35-1.36 2.19v.04c-.04.07-.05.1-.05.13zm8.18-11.03c0 .23.09.43.27.6l.61.65c.16.16.37.24.61.24.25 0 .45-.08.61-.23.16-.15.24-.35.24-.6 0-.24-.07-.44-.23-.6l-.66-.65c-.16-.17-.35-.26-.59-.26s-.44.08-.61.25c-.17.17-.25.37-.25.6zm5.32 4.41c.72-.68 1.54-1.02 2.48-1.02.97 0 1.8.35 2.51 1.05.7.7 1.05 1.54 1.05 2.51 0 .65-.17 1.26-.52 1.83-.96-.96-2.11-1.43-3.46-1.43h-.34c-.23-1.09-.81-2.07-1.72-2.94zm1.62-5.24c0 .23.08.43.25.59.17.16.37.24.6.24.24 0 .44-.08.61-.24.17-.16.25-.35.25-.59V1.74c0-.24-.08-.44-.25-.61a.822.822 0 0 0-.61-.25c-.24 0-.44.08-.6.25s-.25.37-.25.61v2.05zm5.55 2.27c0 .24.08.44.23.6.17.17.37.25.61.26s.43-.08.57-.26l1.46-1.43c.17-.17.25-.37.25-.61 0-.23-.08-.43-.25-.6-.17-.17-.37-.25-.61-.25s-.44.07-.6.23L23.9 5.47c-.15.16-.23.35-.23.59zm.77 11.83c0 .23.08.43.25.6l.64.65c.2.16.41.24.62.24.19 0 .39-.08.59-.24.17-.17.25-.37.25-.6a.89.89 0 0 0-.25-.61l-.64-.65a.801.801 0 0 0-.58-.24c-.25 0-.46.08-.63.25-.17.16-.25.36-.25.6zm1.51-6.32c0 .24.08.43.25.59.15.18.34.26.57.26h2.02c.24 0 .44-.08.61-.25.17-.17.25-.37.25-.6 0-.23-.09-.43-.26-.6a.826.826 0 0 0-.6-.26h-2.02c-.24 0-.43.08-.59.25a.89.89 0 0 0-.23.61z"/></svg>