<svg xmlns="http://www.w3.org/2000/svg" xml:space="preserve" viewBox="0 0 30 30"><path d="M1.49 16.88c0 1.12.33 2.12 1 3s1.53 1.47 2.58 1.76l-.66 1.7c-.05.14 0 .22.14.22h2.13l-1.43 4.21h.29l4.36-5.66c.04-.04.04-.09.02-.14-.02-.05-.07-.07-.14-.07H7.59l2.49-4.65c.07-.14.03-.22-.14-.22H6.98c-.09 0-.17.05-.23.15l-1.07 2.88A3.14 3.14 0 0 1 3.9 18.9c-.47-.59-.7-1.26-.7-2.02 0-.84.28-1.57.84-2.18.56-.61 1.27-.97 2.11-1.07l.51-.03c.12 0 .19-.05.22-.14l.07-.59c.11-1.08.56-1.99 1.37-2.72s1.76-1.1 2.86-1.1c1.09 0 2.04.37 2.86 1.1s1.29 1.64 1.4 2.72l.08.59c0 .11.06.17.18.17h1.61c.89 0 1.66.32 2.31.96s.97 1.4.97 2.29c0 .87-.3 1.62-.9 2.26s-1.32.98-2.18 1.03c-.13 0-.2.06-.2.18v1.34c0 .11.07.17.2.17.88-.02 1.69-.26 2.42-.72.73-.45 1.31-1.06 1.74-1.81s.64-1.57.64-2.45c0-.73-.14-1.4-.43-2.02.76-.96 1.14-2.06 1.14-3.29 0-.95-.24-1.83-.71-2.64a5.201 5.201 0 0 0-1.92-1.92c-.81-.47-1.69-.71-2.64-.71-.72 0-1.42.15-2.1.45-.68.3-1.26.72-1.76 1.25-.81-.43-1.71-.65-2.72-.65-1.42 0-2.68.44-3.77 1.32s-1.8 2-2.1 3.37c-1.11.26-2.02.84-2.74 1.74-.71.92-1.07 1.95-1.07 3.1zm8.18 9.92c0 .15.05.31.16.47a.89.89 0 0 0 .71.38c.15 0 .28-.03.38-.08.21-.08.36-.27.43-.57l.27-1.03c.06-.25.03-.47-.08-.67s-.3-.32-.53-.37c-.21-.07-.41-.04-.62.07a.87.87 0 0 0-.42.52l-.25 1.04c-.03.14-.05.22-.05.24zM9.9 4.59c0 .23.08.43.25.6l.65.66c.16.16.34.24.55.26.21.03.41-.04.61-.23.2-.18.3-.39.3-.64 0-.23-.08-.43-.25-.6l-.63-.66a.814.814 0 0 0-.6-.24c-.25 0-.46.08-.63.24-.16.18-.25.38-.25.61zM11.01 22c-.01.16.04.32.14.47.1.15.26.26.48.32.21.07.42.05.62-.06s.34-.3.42-.56l.3-1.03c.07-.22.04-.43-.08-.63s-.3-.34-.54-.41a.755.755 0 0 0-.64.07c-.2.12-.34.29-.41.53l-.24 1.05c-.03.15-.05.23-.05.25zm2.83 1.68c0 .14.03.28.1.39.13.21.31.36.54.43.11.04.21.06.28.06.13 0 .23-.02.31-.08.2-.07.35-.27.45-.6l.25-1.01c.07-.24.05-.45-.07-.65a.78.78 0 0 0-.51-.39.777.777 0 0 0-.65.07c-.2.11-.34.28-.41.51l-.28 1.04c0 .08-.01.16-.01.23zm1.37-4.82a.85.85 0 0 0 .65.83c.17.06.37.04.61-.05.2-.09.34-.28.43-.57l.27-1c.06-.25.04-.47-.08-.67s-.29-.32-.53-.37a.79.79 0 0 0-.64.06c-.2.11-.33.28-.4.5l-.29 1.06c-.01.14-.02.21-.02.21zm.1-9.84c.67-.64 1.48-.97 2.45-.97.98 0 1.82.34 2.51 1.03.69.68 1.04 1.52 1.04 2.5 0 .66-.16 1.26-.47 1.81-.96-.96-2.13-1.44-3.52-1.44h-.31c-.29-1.19-.86-2.17-1.7-2.93zm1.6-5.27c0 .24.08.44.25.61s.37.25.6.25c.24 0 .44-.08.6-.25.16-.17.24-.37.24-.61V1.69c0-.24-.08-.45-.24-.61a.794.794 0 0 0-.6-.26c-.24 0-.44.08-.6.25s-.25.37-.25.61v2.07zm5.58 2.29c0 .24.08.44.23.6.14.16.32.24.55.26.23.02.44-.07.63-.26l1.44-1.44c.18-.16.26-.36.26-.6s-.09-.44-.26-.6a.76.76 0 0 0-.6-.26c-.23 0-.42.09-.58.26l-1.44 1.44c-.16.15-.23.35-.23.6zm.77 11.91c0 .23.08.43.25.6l.65.63c.18.17.39.25.62.25l.02.02c.22 0 .4-.09.54-.27a.76.76 0 0 0 .26-.6c0-.23-.09-.43-.26-.61l-.62-.62a.836.836 0 0 0-.61-.27c-.24 0-.44.09-.6.26a.88.88 0 0 0-.25.61zm1.47-6.37c0 .24.09.44.26.59.16.18.36.26.6.26h2.06c.24 0 .44-.08.61-.25.17-.17.25-.37.25-.6s-.08-.44-.25-.6a.853.853 0 0 0-.61-.24h-2.06c-.24 0-.45.08-.61.24-.17.16-.25.36-.25.6z"/></svg>