<svg xmlns="http://www.w3.org/2000/svg" xml:space="preserve" viewBox="0 0 30 30"><path d="M6.72 20.76c0-.05.01-.12.02-.21v-4.76c.28.49.66.89 1.15 1.19.49.3 1.03.45 1.61.45.59 0 1.13-.15 1.62-.45.49-.3.87-.69 1.15-1.19.27.49.66.89 1.15 1.19.49.3 1.03.45 1.62.45.58 0 1.12-.15 1.61-.45.49-.3.87-.69 1.15-1.19.28.49.67.89 1.15 1.19a3 3 0 0 0 1.6.45c.58 0 1.12-.15 1.61-.45.49-.3.88-.69 1.15-1.19v5.12c-.03.23-.13.43-.3.6-.17.17-.37.27-.6.3-.02 0-.05 0-.08.01s-.06.01-.08.01c-.01 0-.04 0-.07-.01-.03-.01-.06-.01-.08-.01H7.94c-.02 0-.04 0-.08.01-.03.01-.06.01-.07.01-.02 0-.05 0-.08-.01s-.06-.01-.07-.01a.993.993 0 0 1-.58-.28 1.13 1.13 0 0 1-.32-.56c-.01-.09-.02-.16-.02-.21zm5.51-11.09c0-.16.06-.3.17-.42l2.21-2.22.03-.02c.01 0 .01 0 .01-.01.01 0 .01 0 .01-.01.01 0 .01 0 .01-.01h.01c.01 0 .01 0 .01-.01s0-.01.01-.02h.02l.01-.01h.01l.01-.01h.01l.01-.01h.01c.01-.01.01-.01.02-.01h.01c0-.01.01-.01.02-.01.01-.01.01-.01.02-.01l.04-.02h.01c.01 0 .01 0 .01-.01h.07l.01-.01h.12c.01 0 .01 0 .02.01h.06c0 .01 0 .01.01.01h.02c.01.01.02.02.03.02l.02.01h.02l.01.01h.01l.01.01c.01 0 .01 0 .01.01h.04c.01.01.01.01.02.01 0 .01 0 .02.01.02l.01.01h.02l.01.01-.03.02.01.01.02.02 2.22 2.22c.12.12.18.26.18.42 0 .16-.06.3-.18.41-.11.12-.25.18-.41.18-.16 0-.3-.06-.41-.18l-1.23-1.22v6.9c0 .16-.06.29-.17.4-.11.11-.25.17-.41.17-.16 0-.3-.06-.42-.17a.523.523 0 0 1-.17-.4v-6.9l-1.22 1.22c-.12.12-.26.18-.42.18-.16 0-.3-.06-.41-.18a.6.6 0 0 1-.16-.41z"/></svg>