<svg xmlns="http://www.w3.org/2000/svg" xml:space="preserve" viewBox="0 0 30 30"><path d="M4.11 15.9c0-.26.09-.47.27-.62.14-.15.35-.23.62-.23h2.08c.24 0 .45.08.6.24.16.16.24.36.24.6s-.08.44-.24.61c-.16.17-.36.25-.6.25H5c-.24 0-.45-.08-.63-.25a.76.76 0 0 1-.26-.6zm.92 5.08c0-.23.09-.43.26-.61.16-.16.37-.23.61-.23h18.21c.24 0 .45.08.62.24.17.16.25.36.25.6s-.09.44-.26.61-.38.26-.61.26H5.91c-.24 0-.44-.09-.61-.26s-.27-.37-.27-.61zM7.08 8.81c0-.26.08-.45.23-.59.17-.18.38-.27.62-.27s.44.09.61.27l1.44 1.46c.18.16.26.36.26.6a.821.821 0 0 1-.84.85c-.22 0-.42-.08-.6-.24L7.31 9.42c-.15-.14-.23-.34-.23-.61zm2.6 7.09c0 .87.18 1.65.53 2.33.03.09.11.14.24.14h1.67c.07 0 .12-.02.14-.06.02-.04-.01-.1-.07-.16-.53-.65-.8-1.4-.8-2.25 0-.99.36-1.84 1.07-2.54.71-.7 1.56-1.05 2.55-1.05.99 0 1.84.35 2.55 1.05s1.05 1.55 1.05 2.54c0 .86-.27 1.61-.8 2.25-.04.06-.06.1-.06.12-.01.03 0 .06.03.07.02.02.06.03.1.03h1.7c.09 0 .16-.05.21-.14.38-.71.56-1.48.56-2.33 0-.96-.24-1.85-.72-2.67-.48-.82-1.13-1.47-1.95-1.95s-1.71-.72-2.67-.72-1.85.24-2.67.72c-.82.48-1.47 1.13-1.95 1.95-.48.82-.71 1.71-.71 2.67zm4.47-7.93V5.88c0-.24.08-.44.25-.62.17-.18.37-.26.61-.26s.44.09.62.26c.17.17.26.38.26.62v2.09c0 .24-.09.44-.26.62-.18.18-.38.26-.62.26s-.44-.09-.61-.26a.86.86 0 0 1-.25-.62zm5.62 2.31c0-.24.08-.44.24-.6l1.44-1.46c.17-.18.38-.27.62-.27.25 0 .46.08.62.25.17.17.25.37.25.61 0 .26-.08.46-.23.61l-1.51 1.47c-.16.15-.36.22-.59.22a.807.807 0 0 1-.61-.22.838.838 0 0 1-.23-.61zm2.33 5.62c0-.27.08-.47.24-.62.14-.15.34-.23.59-.23h2.09c.24 0 .45.08.62.24.17.16.26.36.26.6s-.09.44-.26.61a.86.86 0 0 1-.62.25h-2.09c-.23 0-.43-.08-.59-.25a.814.814 0 0 1-.24-.6z"/></svg>