<svg xmlns="http://www.w3.org/2000/svg" xml:space="preserve" viewBox="0 0 30 30"><path d="M4.64 16.9c0 1.33.46 2.47 1.39 3.43.93.96 2.06 1.47 3.4 1.53.11 0 .17-.06.17-.17v-1.34c0-.11-.06-.17-.17-.17-.86-.04-1.58-.38-2.18-1.02-.6-.64-.9-1.39-.9-2.26 0-.83.28-1.54.84-2.16.56-.61 1.26-.97 2.09-1.07l.53-.03c.13 0 .2-.06.2-.19l.06-.53c.11-1.08.56-1.99 1.37-2.71.81-.73 1.76-1.09 2.85-1.09s2.04.36 2.85 1.09c.81.73 1.27 1.63 1.39 2.71l.08.58c0 .11.06.17.18.17h1.61c.89 0 1.66.32 2.31.96.65.64.98 1.39.98 2.27 0 .87-.3 1.62-.9 2.26-.6.64-1.33.98-2.18 1.02-.13 0-.2.06-.2.17v1.34c0 .11.07.17.2.17.87-.02 1.67-.26 2.4-.71.73-.45 1.31-1.05 1.73-1.8.42-.75.63-1.57.63-2.44 0-.89-.22-1.72-.67-2.47-.44-.75-1.05-1.35-1.81-1.78S21.29 12 20.4 12h-.32c-.32-1.34-1.03-2.43-2.1-3.28s-2.3-1.28-3.68-1.28c-1.41 0-2.66.44-3.75 1.31a5.83 5.83 0 0 0-2.1 3.35c-1.11.26-2.02.83-2.73 1.73s-1.08 1.92-1.08 3.07zm5.45 7.2c.09.21.25.37.46.46.2.1.41.11.62.02.22-.09.36-.24.45-.45.1-.22.11-.43.02-.64-.08-.21-.24-.35-.45-.44-.2-.11-.4-.12-.61-.03a.85.85 0 0 0-.46.47c-.11.17-.11.37-.03.61zm.63-2.82c0 .16.05.31.15.45.1.15.26.25.46.32.19.11.4.12.62.01.22-.1.37-.3.44-.6l.9-3.38c.06-.25.04-.47-.08-.67a.722.722 0 0 0-.53-.36.843.843 0 0 0-.71.12c-.15.1-.26.25-.32.44L10.77 21c-.04.16-.05.25-.05.28zm1.86 5.59c0 .12.02.22.06.29.09.22.24.37.45.45.09.05.2.08.33.08.06 0 .16-.02.3-.06.22-.08.38-.23.47-.45.1-.22.1-.44 0-.66a.88.88 0 0 0-.45-.46c-.2-.09-.4-.09-.62 0a.81.81 0 0 0-.41.36c-.09.16-.13.31-.13.45zm.73-2.61c0 .37.21.61.63.73a.855.855 0 0 0 .62-.04c.21-.08.35-.27.42-.57l1.67-6.29c.06-.24.04-.45-.06-.65a.76.76 0 0 0-.49-.38c-.08-.02-.17-.03-.27-.03a.9.9 0 0 0-.48.15c-.16.1-.26.25-.3.44l-1.71 6.34c-.02.14-.03.24-.03.3zm3.43-.46c0 .12.02.23.08.32.08.19.23.34.44.44.11.04.23.07.35.07.06 0 .16-.02.3-.06.21-.08.37-.23.46-.44.07-.22.07-.43-.01-.63a.839.839 0 0 0-.42-.45c-.23-.11-.44-.12-.65-.03a.85.85 0 0 0-.46.47c-.06.1-.09.2-.09.31zm.73-2.57c0 .14.05.29.16.45.11.16.26.27.45.33.16.03.25.05.27.05.09 0 .22-.03.37-.1.2-.09.33-.27.4-.52l.9-3.34.03-.26c0-.16-.05-.31-.15-.46a.784.784 0 0 0-.45-.31c-.09-.02-.18-.03-.26-.03-.16 0-.32.05-.47.15s-.25.25-.31.45l-.9 3.36-.04.23z"/></svg>