<svg xmlns="http://www.w3.org/2000/svg" xml:space="preserve" viewBox="0 0 30 30"><path d="M4.14 14.76c0-.24.09-.44.27-.61.17-.17.38-.25.62-.25h2.06c.24 0 .44.08.6.25.17.17.25.37.25.61 0 .25-.08.46-.25.63-.17.17-.37.25-.6.25H5.03c-.25 0-.46-.08-.63-.25a.823.823 0 0 1-.26-.63zm2.92-7.02c0-.23.08-.44.24-.62.2-.16.41-.25.66-.25.21 0 .41.08.59.25L10 8.6c.17.16.25.36.25.6s-.08.44-.25.6a.8.8 0 0 1-.6.25c-.26 0-.46-.08-.61-.25l-1.5-1.44a.966.966 0 0 1-.23-.62zm2.61 7.02c0-.71.14-1.39.43-2.04.28-.65.67-1.22 1.14-1.69.48-.47 1.05-.85 1.7-1.13s1.34-.43 2.06-.43c.96 0 1.84.24 2.66.72.82.48 1.47 1.12 1.94 1.94.47.81.71 1.69.71 2.63 0 .15-.01.29-.03.42-.28-.17-.6-.25-.97-.25-.24 0-.48.05-.72.15.01-.07.01-.18.01-.32 0-.98-.35-1.81-1.06-2.5-.71-.69-1.56-1.04-2.55-1.04-.99 0-1.83.35-2.54 1.04s-1.05 1.52-1.05 2.5v.18c-.29.02-.57.1-.84.25-.01.01-.04.03-.1.07s-.12.09-.19.14-.14.11-.23.19-.18.16-.26.24c-.08-.32-.11-.68-.11-1.07zm.03 3.65v-.15c-.01-.09 0-.2.02-.33.05-.36.19-.7.42-1.02.13-.16.22-.27.27-.31a.21.21 0 0 1 .04-.06l.04-.04a.44.44 0 0 0 .12-.1l.08-.08c.03-.03.06-.04.07-.06.05-.05.1-.08.14-.1l.17-.11c.14-.09.31-.14.5-.14h.03c.1 0 .19.01.26.03.03.01.07.03.13.07v.01a.798.798 0 0 1 .47.71c0 .17-.05.31-.14.42-.06.09-.14.17-.22.23l-.06.03-.04.02-.06.04c-.04.03-.07.06-.1.08s-.06.06-.11.11c-.04.05-.08.09-.11.14-.03.04-.06.1-.09.15-.03.06-.05.12-.05.17v.15c.04.15.08.27.11.36.07.14.18.28.34.44.01.02.09.1.24.25.86.78 1.27 1.62 1.21 2.5-.02.3-.09.59-.21.87s-.26.51-.43.7c-.16.19-.29.33-.39.43-.1.09-.18.16-.25.21-.01.01-.03.02-.06.04s-.06.04-.07.04c-.08.04-.15.06-.22.07-.09.01-.15.02-.2.02-.3 0-.54-.1-.71-.3a.788.788 0 0 1-.18-.59c.02-.22.13-.4.33-.53l.01-.03c.01-.01.03-.03.05-.04.02-.02.04-.04.07-.06.03-.02.06-.05.08-.08a.7.7 0 0 0 .08-.1c.03-.04.06-.08.08-.12.03-.04.06-.09.08-.14.03-.05.05-.1.07-.15.02-.05.03-.1.05-.16.01-.06.02-.12.02-.17.02-.2-.03-.4-.15-.6-.05-.11-.12-.22-.22-.33-.07-.08-.12-.13-.15-.16-.09-.11-.14-.17-.15-.18-.02-.01-.04-.03-.07-.06s-.05-.04-.06-.05c-.15-.14-.26-.26-.34-.36-.12-.16-.21-.26-.24-.32-.19-.26-.32-.52-.39-.78-.04-.14-.07-.25-.08-.32 0-.02-.01-.05-.02-.08s-.01-.05-.01-.08zm3.88-.33c0-.06 0-.1.01-.14.02-.22.09-.43.2-.64.11-.21.22-.39.35-.53.13-.14.25-.27.38-.38s.23-.19.31-.25l.12-.07c.15-.09.32-.14.5-.14.11 0 .21.01.3.03.01 0 .02.01.05.02.03.02.05.03.06.04.01 0 .02 0 .03.01.01 0 .03.02.07.05.2.12.32.3.38.54v.12c0 .03-.01.07-.02.12s-.02.08-.02.09c-.07.23-.21.39-.42.5-.33.22-.51.45-.53.69a.81.81 0 0 0 0 .22c.02.12.08.25.17.39.11.16.19.27.24.32.16.16.25.25.28.27.12.11.28.28.47.51.54.65.79 1.32.74 2-.02.3-.09.59-.21.87s-.26.51-.43.7c-.16.18-.3.33-.4.43-.11.1-.19.17-.25.21l-.12.08c-.11.04-.17.06-.21.07-.11.01-.18.02-.2.02h-.03a.92.92 0 0 1-.19-.02c-.02 0-.05 0-.08-.01s-.06-.01-.07-.01c-.01 0-.02 0-.03-.01-.01-.01-.02-.01-.04-.02-.01-.01-.02-.01-.03-.01-.15-.11-.24-.17-.26-.21a.744.744 0 0 1 .15-1.13l.03-.04c.02-.02.05-.05.09-.08l.12-.12.13-.16.12-.19.09-.22.04-.24c.01-.4-.22-.82-.69-1.27-.19-.17-.33-.31-.44-.43-.55-.69-.8-1.34-.76-1.98zm.54-11.16V4.85c0-.24.09-.45.26-.62.17-.17.38-.25.61-.25.24 0 .45.08.62.25.17.17.25.38.25.62v2.07c0 .24-.08.43-.25.59s-.37.23-.61.23a.89.89 0 0 1-.61-.23.75.75 0 0 1-.27-.59zm3.36 11.01c.02-.22.09-.43.2-.64.11-.21.22-.39.35-.53.13-.14.25-.27.38-.38.12-.11.22-.19.3-.25l.13-.07c.02-.02.06-.04.1-.08.11-.04.24-.07.38-.07.34 0 .59.13.77.38.05.07.08.14.1.23.01.02.02.05.02.08v.11c0 .31-.15.55-.45.7-.32.21-.49.44-.52.69-.04.34.19.74.68 1.2.88.77 1.28 1.61 1.23 2.5-.02.3-.09.59-.21.87s-.27.51-.43.7c-.17.19-.3.33-.39.43s-.18.16-.25.21c-.16.1-.3.15-.41.16-.03.01-.08.01-.15.01-.3 0-.53-.1-.69-.3-.15-.17-.21-.37-.19-.59s.13-.4.32-.53c.03-.01.09-.06.18-.14s.18-.21.29-.38c.1-.18.16-.35.17-.53.02-.4-.22-.82-.7-1.27-.41-.36-.73-.75-.94-1.16-.24-.42-.33-.88-.27-1.35zm2.29-8.72c0-.25.08-.45.23-.6l1.46-1.48c.18-.17.38-.25.61-.25.24 0 .44.09.61.26s.26.38.26.61c0 .25-.09.46-.26.62L21.2 9.81c-.18.17-.38.25-.61.25-.23 0-.43-.08-.58-.25a.83.83 0 0 1-.24-.6zm2.3 5.55c0-.22.09-.42.26-.61.16-.17.35-.25.58-.25h2.06c.24 0 .45.09.62.26s.27.37.27.6c0 .24-.09.45-.26.62-.18.17-.38.26-.63.26h-2.06a.77.77 0 0 1-.6-.25.884.884 0 0 1-.24-.63z"/></svg>