<svg xmlns="http://www.w3.org/2000/svg" xml:space="preserve" viewBox="0 0 30 30"><path d="M9.8 14.62c0-.93.23-1.8.7-2.6s1.1-1.44 1.9-1.91 1.67-.7 2.6-.7c.94 0 1.81.23 2.61.7.8.47 1.43 1.1 1.9 1.9.47.8.7 1.67.7 2.61s-.23 1.81-.7 2.61c-.47.8-1.1 1.43-1.9 1.9-.8.47-1.67.7-2.61.7s-1.8-.23-2.6-.7-1.43-1.1-1.9-1.9c-.47-.8-.7-1.67-.7-2.61zm4.45-3.4c.87.11 1.6.49 2.19 1.15.59.66.89 1.44.89 2.33 0 .83-.26 1.56-.78 2.2s-1.18 1.04-1.98 1.21c.2.02.34.04.43.04.98 0 1.81-.35 2.5-1.04.69-.69 1.04-1.52 1.04-2.5 0-.96-.35-1.78-1.04-2.47a3.442 3.442 0 0 0-2.5-1.02c-.26.02-.51.05-.75.1z"/></svg>