<svg xmlns="http://www.w3.org/2000/svg" xml:space="preserve" viewBox="0 0 30 30"><path d="M3.74 14.44c0-1.52.3-2.98.89-4.37s1.4-2.58 2.4-3.59 2.2-1.81 3.59-2.4 2.84-.89 4.37-.89 2.98.3 4.37.89 2.59 1.4 3.6 2.4 1.81 2.2 2.4 3.59.89 2.84.89 4.37-.3 2.98-.89 4.37-1.4 2.59-2.4 3.6-2.2 1.81-3.6 2.4-2.85.89-4.37.89-2.98-.3-4.37-.89-2.58-1.4-3.59-2.4-1.81-2.2-2.4-3.6-.89-2.84-.89-4.37zm1.2 0c0 1.34.26 2.62.77 3.85s1.21 2.29 2.08 3.19 1.92 1.62 3.13 2.16 2.48.83 3.81.87c-1.71-2.32-2.56-5.68-2.56-10.06 0-1.87.23-3.67.69-5.41s1.11-3.29 1.95-4.64c-1.8.03-3.45.5-4.96 1.41s-2.7 2.13-3.58 3.65-1.33 3.19-1.33 4.98z"/></svg>