<svg xmlns="http://www.w3.org/2000/svg" xml:space="preserve" viewBox="0 0 30 30"><path d="M3.74 14.44c0-1.52.3-2.98.89-4.37s1.4-2.58 2.4-3.59 2.2-1.81 3.59-2.4 2.84-.89 4.37-.89 2.98.3 4.37.89 2.59 1.4 3.6 2.4 1.81 2.2 2.4 3.59.89 2.84.89 4.37-.3 2.98-.89 4.37-1.4 2.59-2.4 3.6-2.2 1.81-3.6 2.4-2.85.89-4.37.89-2.98-.3-4.37-.89-2.58-1.4-3.59-2.4-1.81-2.2-2.4-3.6-.89-2.84-.89-4.37zm1.2 0c0 1.37.27 2.67.8 3.91s1.25 2.31 2.15 3.21 1.97 1.61 3.21 2.15 2.54.8 3.9.8c.36 0 .76-.02 1.2-.07.93-.57 1.71-1.24 2.35-2.03s1.12-1.64 1.43-2.56.53-1.8.65-2.65.18-1.77.18-2.75c0-1.25-.15-2.46-.46-3.64s-.84-2.34-1.59-3.49-1.69-2.11-2.81-2.89c-.41-.02-.73-.03-.95-.03-1.36 0-2.66.27-3.9.8S8.79 6.44 7.89 7.34s-1.61 1.97-2.15 3.21-.8 2.54-.8 3.89z"/></svg>