<svg xmlns="http://www.w3.org/2000/svg" xml:space="preserve" viewBox="0 0 30 30"><path d="M3.74 14.44c0-1.53.3-3 .89-4.39s1.4-2.59 2.4-3.6 2.2-1.81 3.6-2.4 2.85-.89 4.37-.89c1.53 0 3 .3 4.39.89s2.59 1.4 3.6 2.4 1.81 2.2 2.4 3.6.89 2.85.89 4.39c0 1.52-.3 2.98-.89 4.37s-1.4 2.59-2.4 3.6-2.2 1.81-3.6 2.4-2.85.89-4.39.89c-1.52 0-2.98-.3-4.37-.89s-2.59-1.4-3.6-2.4-1.81-2.2-2.4-3.6-.89-2.84-.89-4.37zm3.97 0c0 4.76 1.66 8.02 4.97 9.79.73.19 1.51.28 2.33.28 1.37 0 2.67-.27 3.91-.8s2.31-1.25 3.22-2.15 1.62-1.97 2.15-3.22.8-2.55.8-3.9c0-1.82-.45-3.5-1.35-5.05s-2.13-2.77-3.68-3.68-3.23-1.35-5.05-1.35c-.68 0-1.3.05-1.85.16-1.63.94-2.95 2.27-3.95 3.99s-1.5 3.71-1.5 5.93z"/></svg>