<svg xmlns="http://www.w3.org/2000/svg" xml:space="preserve" viewBox="0 0 30 30"><path d="M3.74 14.44c0-1.52.3-2.98.89-4.37s1.4-2.58 2.4-3.59 2.2-1.81 3.59-2.4 2.84-.89 4.37-.89 2.98.3 4.37.89 2.59 1.4 3.6 2.4 1.81 2.2 2.4 3.59.89 2.84.89 4.37-.3 2.98-.89 4.37-1.4 2.59-2.4 3.6-2.2 1.81-3.6 2.4-2.85.89-4.37.89-2.98-.3-4.37-.89-2.58-1.4-3.59-2.4-1.81-2.2-2.4-3.6-.89-2.84-.89-4.37zM14.8 24.51h.19c1.37 0 2.67-.27 3.91-.8s2.31-1.25 3.21-2.15 1.61-1.97 2.15-3.21.8-2.54.8-3.91c0-1.36-.27-2.66-.8-3.9s-1.25-2.31-2.15-3.21-1.97-1.61-3.21-2.15-2.54-.8-3.91-.8h-.19v20.13z"/></svg>