<svg xmlns="http://www.w3.org/2000/svg" xml:space="preserve" viewBox="0 0 30 30"><path d="M7.74 14.86c0-.98.19-1.92.58-2.82.38-.9.9-1.67 1.55-2.32.65-.65 1.43-1.17 2.32-1.56.9-.39 1.84-.58 2.83-.58h1.17c.16.04.24.14.24.28l.05.9c.02.64.15 1.25.4 1.83s.58 1.08 1 1.5c.42.43.91.77 1.48 1.03s1.17.4 1.8.43l.85.07c.16 0 .24.08.24.23v1.01c.01 1.01-.19 1.98-.59 2.92h-2.05c.51-.74.83-1.59.97-2.53-1.68-.35-3.02-1.07-4.03-2.16s-1.59-2.37-1.75-3.83c-.97.05-1.85.35-2.66.9-.8.55-1.42 1.24-1.87 2.08-.44.84-.66 1.72-.66 2.63 0 1.07.28 2.04.83 2.92h-2.1c-.4-.94-.6-1.91-.6-2.93zm.25 6.03c0-.26.1-.49.3-.69.18-.18.41-.27.68-.27h3.22c.11 0 .2.02.28.08l2.35 2.22L17.21 20c.07-.05.17-.08.29-.08h3.3c.27 0 .5.09.69.28.19.19.29.42.29.68 0 .27-.1.5-.29.69-.19.19-.42.29-.69.29h-2.68l-3.13 2.84c-.12.09-.24.09-.34 0l-3.08-2.84h-2.6c-.27 0-.5-.1-.69-.29a.906.906 0 0 1-.29-.68z"/></svg>