<svg xmlns="http://www.w3.org/2000/svg" xml:space="preserve" viewBox="0 0 30 30"><path d="M7.09 19.39c0-.13 0-.23.01-.29v-.3c0-.03.01-.07.02-.12.01-.05.02-.08.02-.09v-.12l.08-.37c0-.01 0-.01.01-.02v-.02l.04-.14c.01-.01.01-.01.01-.02.01-.01.01-.02.01-.03v-.03c.04-.12.07-.22.1-.28 0-.01.01-.02.02-.03.01-.01.02-.06.05-.15.17-.38.38-.74.63-1.08l.06-.07c.01-.01.02-.02.03-.04.01-.02.02-.03.03-.04.01-.01.03-.03.07-.06a.21.21 0 0 1 .04-.06c.02-.02.03-.04.04-.06.04-.02.06-.05.07-.07.01-.01.03-.02.07-.06l.07-.07 7.6-8.33-.38 2.2 6.82-7.29-4.18 8.14 4.18-3.16-3.79 7.6 2.71-1.87-4.68 8.33c0 .01-.01.02-.02.04s-.02.04-.03.05c-.01.01-.01.02-.02.04s-.01.03-.02.05c-.01.01-.01.02-.02.05-.01.02-.02.04-.02.05a5.09 5.09 0 0 1-1.86 2.02c-.81.51-1.7.76-2.67.76-.92 0-1.77-.23-2.55-.68-.78-.46-1.4-1.07-1.86-1.86s-.69-1.6-.69-2.52zm1.2 0c0 1.08.38 1.99 1.14 2.75.76.76 1.68 1.14 2.75 1.14.82 0 1.56-.24 2.22-.71.66-.47 1.13-1.09 1.41-1.84.17-.43.25-.87.25-1.34 0-1.07-.38-1.99-1.13-2.75-.76-.76-1.67-1.13-2.75-1.13-1 0-1.87.33-2.6 1-.41.36-.72.78-.95 1.28-.23.51-.34 1.04-.34 1.6z"/></svg>