<svg xmlns="http://www.w3.org/2000/svg" xml:space="preserve" viewBox="0 0 30 30"><path d="M3.74 14.44c0-1.52.3-2.98.89-4.37s1.4-2.58 2.4-3.59 2.2-1.81 3.59-2.4 2.84-.89 4.37-.89 2.98.3 4.37.89 2.59 1.4 3.6 2.4 1.81 2.2 2.4 3.59.89 2.84.89 4.37-.3 2.98-.89 4.37-1.4 2.59-2.4 3.6-2.2 1.81-3.6 2.4-2.85.89-4.37.89-2.98-.3-4.37-.89-2.58-1.4-3.59-2.4-1.81-2.2-2.4-3.6-.89-2.84-.89-4.37zM15.01 4.39c1.23 3.54 1.85 6.89 1.85 10.05 0 3.93-.59 7.28-1.77 10.06 1.35-.01 2.64-.28 3.87-.81s2.3-1.25 3.19-2.15 1.6-1.97 2.12-3.21.79-2.54.79-3.9-.27-2.66-.8-3.9-1.25-2.31-2.15-3.21-1.97-1.61-3.21-2.15-2.54-.78-3.89-.78z"/></svg>