<svg xmlns="http://www.w3.org/2000/svg" xml:space="preserve" viewBox="0 0 30 30"><path d="M3.74 14.44c0-1.52.3-2.98.89-4.37s1.4-2.58 2.4-3.59 2.2-1.81 3.59-2.4 2.84-.89 4.37-.89 2.98.3 4.37.89 2.59 1.4 3.6 2.4 1.81 2.2 2.4 3.59.89 2.84.89 4.37-.3 2.98-.89 4.37-1.4 2.59-2.4 3.6-2.2 1.81-3.6 2.4-2.85.89-4.37.89-2.98-.3-4.37-.89-2.58-1.4-3.59-2.4-1.81-2.2-2.4-3.6-.89-2.84-.89-4.37zm12.64-9.96c1.64.9 2.99 2.2 4.04 3.9s1.57 3.72 1.57 6.06c0 4.9-1.72 8.2-5.16 9.89 2.35-.44 4.31-1.59 5.87-3.44s2.34-4 2.34-6.45c0-1.66-.38-3.21-1.14-4.66s-1.8-2.63-3.13-3.57-2.77-1.5-4.39-1.73z"/></svg>