<svg xmlns="http://www.w3.org/2000/svg" xml:space="preserve" viewBox="0 0 30 30"><path d="M4.07 16.91c0 1.33.46 2.48 1.39 3.43s2.06 1.47 3.4 1.53c.11 0 .17-.06.17-.17v-1.37c0-.12-.06-.18-.17-.18-.87-.07-1.6-.41-2.19-1.04-.59-.62-.89-1.36-.89-2.21 0-.83.28-1.54.84-2.16s1.26-.97 2.1-1.07l.53-.07c.13 0 .2-.06.2-.17l.07-.52c.11-1.08.56-1.99 1.37-2.71.81-.73 1.76-1.09 2.85-1.09s2.04.36 2.85 1.09c.81.72 1.28 1.63 1.39 2.72l.08.58c0 .12.06.18.18.18h1.61c.9 0 1.67.32 2.32.95.64.63.97 1.39.97 2.28 0 .85-.3 1.59-.89 2.21-.59.62-1.33.97-2.19 1.04-.13 0-.2.06-.2.18v1.37c0 .11.07.17.2.17 1.33-.04 2.46-.55 3.38-1.51.92-.96 1.38-2.11 1.38-3.45 0-.87-.22-1.68-.65-2.43.81-.73 1.34-1.6 1.58-2.62v-.13l.19-.79-.76-.21c-.81-.24-1.44-.7-1.89-1.35-.45-.66-.67-1.34-.67-2.03 0-.26.03-.52.08-.78l.2-.8-.85-.25-.15-.04a6.72 6.72 0 0 0-1.25-.14c-.38 0-.76.04-1.14.13-.39.09-.79.22-1.2.41-.42.19-.82.45-1.2.8-.38.35-.72.76-1 1.23-.74-.33-1.53-.49-2.36-.49-1.41 0-2.66.44-3.75 1.31s-1.77 1.99-2.07 3.36c-1.12.26-2.05.83-2.77 1.72-.73.91-1.09 1.94-1.09 3.09zm5.4 6.77c0 .15.05.3.15.45.1.15.25.26.45.33.22.07.43.06.64-.05s.34-.28.41-.51l.28-1.06c.07-.21.05-.41-.07-.62a.863.863 0 0 0-.51-.41c-.23-.06-.45-.03-.65.08s-.34.3-.42.53l-.23.99c-.03.16-.05.25-.05.27zm1.3-4.73c0 .11.03.23.1.36.07.17.25.3.53.38.24.06.46.04.66-.06.19-.1.33-.28.4-.52l.28-1.03c.07-.23.05-.45-.07-.64a.831.831 0 0 0-.51-.39.905.905 0 0 0-.67.07.82.82 0 0 0-.4.52l-.27 1.01c-.03.13-.05.23-.05.3zm1.25 7.85c0 .17.05.33.15.49.1.16.25.27.45.33.11.03.18.05.23.05.09 0 .21-.03.38-.1.2-.08.34-.27.43-.55l.3-1.05c.07-.21.05-.42-.07-.63a.861.861 0 0 0-1.18-.33c-.2.12-.34.29-.41.53l-.25 1.01c-.02.08-.03.17-.03.25zm1.33-4.77a.85.85 0 0 0 .61.78c.22.07.44.05.64-.06s.33-.28.4-.52l.27-1.04c.07-.21.05-.42-.06-.62a.831.831 0 0 0-.49-.41c-.24-.06-.47-.03-.68.08s-.35.3-.42.53l-.24 1-.03.26zm2.81 1.76c0 .38.21.62.64.75.09.02.17.03.24.03.15 0 .27-.02.37-.07.21-.08.36-.27.44-.57l.27-1.02c.06-.25.04-.47-.08-.67s-.29-.32-.53-.37c-.23-.07-.45-.05-.64.07s-.33.29-.4.51l-.27 1.04c0 .02-.01.07-.02.15-.02.07-.02.12-.02.15zm1.39-4.81a.822.822 0 0 0 .61.78c.14.03.22.05.23.05.09 0 .21-.03.38-.1.21-.08.35-.27.44-.55l.28-1.04c.06-.22.03-.43-.08-.63s-.3-.33-.53-.4c-.22-.07-.43-.05-.63.07s-.33.29-.4.52l-.26 1.06c-.03.09-.04.18-.04.24zm.03-10.17c.32-.56.76-1 1.33-1.31a3.73 3.73 0 0 1 1.81-.47h.21c-.01.09-.01.21-.01.38 0 .95.26 1.85.78 2.71.52.86 1.25 1.51 2.17 1.96-.22.43-.48.8-.78 1.1-.93-.81-2.02-1.21-3.25-1.21h-.32c-.25-1.19-.89-2.24-1.94-3.16z"/></svg>