<svg xmlns="http://www.w3.org/2000/svg" xml:space="preserve" viewBox="0 0 30 30"><path d="M4.09 16.89c0 1.11.33 2.1.99 2.97.66.87 1.52 1.47 2.58 1.79l-.65 1.7c-.04.14 0 .21.14.21h2.12l-1.29 4.18h.28l4.23-5.62c.04-.04.04-.09.02-.14-.03-.05-.07-.07-.14-.07h-2.18l2.47-4.64c.07-.14.03-.22-.13-.22H9.57c-.09 0-.16.05-.22.15l-1.07 2.88c-.71-.18-1.3-.57-1.78-1.17s-.71-1.27-.71-2.01c0-.83.28-1.55.85-2.17.57-.61 1.27-.97 2.1-1.07l.53-.07c.13 0 .2-.06.2-.18l.07-.51c.11-1.08.56-1.99 1.37-2.72.81-.73 1.76-1.1 2.85-1.1s2.04.37 2.86 1.1c.82.73 1.28 1.64 1.4 2.71l.07.57c0 .12.06.19.17.19h1.62c.91 0 1.68.32 2.33.95s.97 1.4.97 2.28c0 .85-.3 1.59-.9 2.21-.6.62-1.33.97-2.2 1.03-.12 0-.19.06-.19.19v1.36c0 .12.06.18.19.18 1.33-.04 2.46-.55 3.39-1.51.93-.97 1.39-2.12 1.39-3.45 0-.87-.22-1.68-.66-2.45.76-.74 1.27-1.61 1.51-2.62l.19-.68c.01-.01.01-.03.01-.07 0-.08-.05-.13-.15-.16l-.62-.17c-.57-.17-1.06-.45-1.46-.84-.4-.39-.68-.8-.85-1.22s-.25-.84-.24-1.26c0-.28.03-.56.1-.85l.11-.61c.02-.1-.02-.18-.14-.23l-.8-.24c-.47-.09-.88-.14-1.24-.14-.37-.01-.75.03-1.13.12-.38.08-.78.22-1.19.4-.41.18-.8.45-1.18.79-.38.34-.71.74-.99 1.2-.83-.31-1.62-.46-2.36-.46-1.41 0-2.67.44-3.76 1.32s-1.8 2-2.11 3.36c-1.11.26-2.02.84-2.74 1.74-.71.89-1.07 1.92-1.07 3.07zm7.88 10.21c0 .17.05.33.16.49.11.16.27.27.49.33.09.02.17.03.24.03.43 0 .7-.2.8-.61l.13-.59a.92.92 0 0 0-.08-.68.762.762 0 0 0-.53-.37.744.744 0 0 0-.63.07c-.21.12-.34.29-.41.51l-.13.59c-.03.12-.04.2-.04.23zm.79-2.9c0 .23.08.42.24.58.16.16.36.24.58.24.24 0 .43-.08.59-.23.16-.16.23-.35.23-.59a.784.784 0 0 0-.82-.81c-.24 0-.43.08-.59.23a.8.8 0 0 0-.23.58zm.62-2.27c-.01.15.03.31.14.47.1.16.25.26.45.3.23.06.44.04.64-.06s.33-.29.41-.56l.26-.9c.07-.22.05-.43-.07-.63a.867.867 0 0 0-.53-.4c-.22-.07-.43-.04-.64.08s-.34.3-.41.53l-.23.9c-.01.08-.02.17-.02.27zm2.76 2.15c0 .17.05.33.15.48.1.15.25.26.46.32.03 0 .08.01.14.02.06.01.11.02.14.02.41 0 .66-.22.76-.66l.14-.6c.07-.21.05-.42-.07-.63a.863.863 0 0 0-.51-.41c-.25-.06-.48-.04-.68.08s-.34.29-.41.53l-.09.59c0 .01 0 .05-.01.11-.01.07-.02.11-.02.15zm.74-2.96c0 .23.08.42.24.57.15.16.34.24.58.24.24 0 .43-.08.59-.23.16-.16.23-.35.23-.58 0-.24-.08-.43-.23-.59a.784.784 0 0 0-.59-.23c-.24 0-.43.08-.59.23s-.23.35-.23.59zm.71-12.35c.33-.56.78-.99 1.34-1.29s1.15-.45 1.76-.45h.22v.32c0 .64.11 1.26.34 1.86.23.6.56 1.15 1.02 1.66.45.51.99.91 1.61 1.21-.17.38-.42.72-.76 1.03-.91-.78-1.98-1.17-3.22-1.17h-.33c-.29-1.26-.95-2.32-1.98-3.17z"/></svg>