<svg xmlns="http://www.w3.org/2000/svg" xml:space="preserve" viewBox="0 0 30 30"><path d="M4.19 16.91c0 .87.21 1.68.64 2.43.42.75 1.01 1.35 1.74 1.8.73.46 1.54.7 2.43.72.12 0 .19-.06.19-.17v-1.34c0-.12-.06-.18-.19-.18-.86-.04-1.59-.39-2.19-1.03s-.91-1.39-.91-2.24c0-.85.28-1.59.85-2.21.57-.62 1.27-.97 2.11-1.04l.52-.07c.13 0 .2-.06.2-.17l.07-.52c.11-1.1.57-2.02 1.38-2.76s1.77-1.11 2.87-1.11c1.09 0 2.04.37 2.86 1.1.82.73 1.28 1.65 1.4 2.73l.08.58c0 .11.06.17.18.17h1.62c.9 0 1.67.32 2.32.97.65.65.97 1.42.97 2.32 0 .85-.3 1.6-.91 2.24-.61.64-1.33.98-2.18 1.03-.13 0-.2.06-.2.18v1.34c0 .11.07.17.2.17.88-.02 1.69-.26 2.42-.72.73-.45 1.31-1.05 1.73-1.8s.63-1.56.63-2.43c0-.73-.14-1.4-.42-2.02.81-.99 1.21-2.12 1.21-3.37 0-.96-.24-1.84-.71-2.65s-1.11-1.45-1.92-1.92c-.81-.47-1.69-.71-2.64-.71-.74 0-1.46.15-2.15.46-.68.34-1.27.76-1.77 1.31-.88-.43-1.78-.65-2.71-.65-1.42 0-2.68.44-3.78 1.32s-1.81 2-2.12 3.37c-1.12.29-2.04.88-2.76 1.78-.71.9-1.06 1.93-1.06 3.09zm5.33 7.07c0 .17.05.34.16.51.11.17.27.28.47.35.23.07.44.06.64-.04.19-.09.32-.28.39-.56l.14-.61c.05-.23.02-.44-.09-.63a.82.82 0 0 0-.52-.4c-.22-.07-.44-.04-.64.08s-.34.3-.4.53l-.14.59c0 .03-.01.09-.01.18zm.76-2.9c0 .21.08.4.25.57.16.17.34.25.56.25.24 0 .44-.08.6-.24.16-.16.24-.35.24-.59 0-.23-.08-.43-.24-.59a.814.814 0 0 0-.6-.24c-.23 0-.42.08-.58.23-.15.18-.23.38-.23.61zm.61-2.27c-.01.16.03.31.14.45.1.15.26.25.48.32a.8.8 0 0 0 .62-.07c.21-.11.34-.28.41-.51l.28-.9c.07-.24.05-.46-.07-.65a.913.913 0 0 0-.54-.39.737.737 0 0 0-.63.07.85.85 0 0 0-.41.5l-.24.92c0 .02-.01.06-.02.12-.01.05-.02.1-.02.14zm1.16 8.29c0 .18.05.34.15.5.1.16.26.27.48.33.08.02.17.03.25.03.43 0 .69-.2.79-.61l.14-.59c.06-.26.03-.48-.08-.68s-.29-.32-.52-.37a.744.744 0 0 0-.63.07c-.21.12-.34.29-.41.51l-.14.59c-.02.09-.03.16-.03.22zm.78-2.9c0 .22.08.41.25.58.16.16.35.24.57.24.24 0 .43-.08.59-.23.16-.16.23-.35.23-.59a.784.784 0 0 0-.82-.81c-.24 0-.43.08-.59.23a.8.8 0 0 0-.23.58zm.63-2.27c-.01.15.03.31.13.47s.25.26.45.3c.23.06.44.04.64-.06s.33-.29.41-.56l.27-.9c.07-.22.05-.43-.07-.63a.867.867 0 0 0-.53-.4.766.766 0 0 0-.64.08c-.21.12-.34.3-.41.53l-.23.9c-.01.08-.02.17-.02.27zm2.75 2.15c0 .16.05.32.15.48s.26.27.46.33c.03 0 .08.01.14.02s.1.02.14.02c.41 0 .66-.22.76-.66l.14-.6c.07-.21.05-.42-.07-.63a.809.809 0 0 0-.51-.41c-.25-.06-.48-.04-.68.08-.2.12-.34.29-.41.53l-.09.59c0 .02-.01.07-.02.12s-.01.09-.01.13zm.74-2.96c0 .22.08.42.25.57.15.16.34.24.57.24.24 0 .43-.08.59-.23.16-.16.23-.35.23-.58 0-.24-.08-.43-.23-.59a.784.784 0 0 0-.59-.23c-.24 0-.43.08-.59.23s-.23.35-.23.59zm.61-2.31c0 .17.05.33.16.48s.27.26.49.32c.02 0 .06.01.12.02s.11.02.14.02c.1 0 .22-.03.36-.09.21-.11.35-.29.41-.52l.24-.9c.06-.23.04-.44-.07-.63a.827.827 0 0 0-.51-.4.79.79 0 0 0-.64.06.82.82 0 0 0-.39.51l-.28.91c0 .02-.01.06-.02.12 0 .03-.01.07-.01.1zm.47-9.8c.69-.69 1.53-1.04 2.51-1.04.98 0 1.82.35 2.51 1.05.69.7 1.04 1.54 1.04 2.52 0 .67-.17 1.28-.51 1.85-.96-.96-2.14-1.44-3.54-1.44h-.32c-.28-1.18-.84-2.16-1.69-2.94z"/></svg>