<svg xmlns="http://www.w3.org/2000/svg" xml:space="preserve" viewBox="0 0 30 30"><path d="M4.1 16.91c0 1.33.46 2.48 1.39 3.43s2.06 1.47 3.4 1.53c.12 0 .18-.06.18-.17v-1.34c0-.11-.06-.17-.18-.17-.86-.04-1.58-.38-2.18-1.02s-.9-1.39-.9-2.26c0-.83.28-1.55.84-2.17.56-.61 1.26-.97 2.1-1.07l.53-.03c.13 0 .2-.06.2-.18l.07-.54c.11-1.08.56-1.99 1.37-2.72.81-.73 1.76-1.1 2.85-1.1 1.08 0 2.03.37 2.85 1.1.82.73 1.28 1.64 1.4 2.72l.08.58c0 .11.06.17.17.17h1.61c.89 0 1.66.32 2.31.96.65.64.98 1.4.98 2.27 0 .87-.3 1.62-.9 2.26-.6.64-1.33.98-2.18 1.02-.13 0-.2.06-.2.17v1.34c0 .11.07.17.2.17 1.33-.04 2.46-.55 3.38-1.51.93-.96 1.39-2.11 1.39-3.45 0-.86-.22-1.66-.65-2.41.79-.74 1.3-1.62 1.55-2.62l.13-.68c.02-.01.03-.03.03-.07 0-.07-.05-.13-.16-.16l-.56-.17c-.57-.17-1.05-.45-1.46-.85-.4-.4-.69-.81-.86-1.25-.17-.43-.25-.87-.25-1.32-.01-.24.02-.51.08-.79l.14-.58c.03-.09-.02-.16-.14-.22l-.8-.25c-.42-.12-.86-.19-1.31-.19-.35 0-.71.04-1.08.13s-.76.22-1.17.4c-.41.18-.8.45-1.19.8-.38.35-.72.75-1 1.22-.75-.32-1.54-.49-2.37-.49-1.41 0-2.67.44-3.76 1.31s-1.79 1.99-2.1 3.36c-1.11.26-2.02.83-2.74 1.73S4.1 15.76 4.1 16.91zm5.48 7.03c.09.21.24.36.46.45.19.1.4.11.62.02.22-.08.37-.23.45-.45.1-.22.11-.43.02-.65a.728.728 0 0 0-.45-.44.71.71 0 0 0-.62-.02.88.88 0 0 0-.47.46c-.09.17-.1.38-.01.63zm.62-2.83c0 .15.05.3.16.45s.26.26.46.32c.26.1.48.1.67 0 .19-.1.32-.29.4-.57l.88-3.21c.07-.25.04-.47-.08-.67-.12-.2-.3-.32-.54-.37a.737.737 0 0 0-.63.07c-.2.11-.33.28-.4.51l-.88 3.22c0 .02-.01.06-.02.12-.01.05-.02.1-.02.13zm1.87 5.6c0 .12.02.22.06.29.09.22.24.37.45.45.09.05.2.07.33.07.06 0 .16-.02.3-.06.23-.08.39-.23.48-.45.1-.22.1-.44 0-.66a.88.88 0 0 0-.45-.46c-.2-.09-.4-.09-.61 0-.19.08-.33.2-.42.36-.1.17-.14.32-.14.46zm.74-2.65c0 .38.21.64.64.78.09.03.17.05.23.05.11 0 .23-.03.35-.08.23-.08.39-.27.47-.57l1.65-6.12c.06-.24.04-.45-.07-.65a.856.856 0 0 0-.5-.39.777.777 0 0 0-.65.07c-.2.11-.34.28-.4.51l-1.68 6.17a.74.74 0 0 0-.04.23zm3.44-.42c0 .13.02.23.07.31.08.2.23.35.44.44.12.05.23.08.35.08.06 0 .16-.02.3-.06.22-.09.37-.23.45-.44.08-.22.08-.43 0-.63a.839.839 0 0 0-.42-.45.779.779 0 0 0-.65-.02c-.22.08-.37.24-.47.46a.57.57 0 0 0-.07.31zm.72-2.56c0 .16.05.32.15.46.1.14.25.25.45.31.17.02.26.03.27.03.41 0 .66-.2.77-.61l.87-3.17c.06-.24.04-.45-.07-.65a.856.856 0 0 0-.5-.39.751.751 0 0 0-.64.07c-.2.11-.33.28-.4.51L17 20.81c-.02.09-.03.18-.03.27zm.65-12.25c.31-.57.75-1.01 1.3-1.31.55-.3 1.14-.45 1.76-.44.11 0 .2.01.25.02v.31c0 .98.26 1.89.78 2.75.52.86 1.25 1.51 2.17 1.95-.19.44-.44.79-.75 1.07-.88-.79-1.96-1.18-3.25-1.18h-.32c-.26-1.25-.9-2.31-1.94-3.17z"/></svg>