<svg xmlns="http://www.w3.org/2000/svg" xml:space="preserve" viewBox="0 0 30 30"><path d="M4.25 16.89c0 1.33.46 2.48 1.39 3.43.93.96 2.06 1.47 3.4 1.54.12 0 .18-.06.18-.18v-1.33c0-.12-.06-.18-.18-.18-.86-.04-1.58-.38-2.18-1.02-.6-.64-.9-1.39-.9-2.26 0-.83.28-1.55.84-2.17.56-.61 1.26-.97 2.1-1.07l.52-.07c.13 0 .2-.06.2-.18l.08-.51c.11-1.08.56-1.99 1.37-2.71.81-.73 1.76-1.09 2.85-1.09s2.04.37 2.86 1.1 1.28 1.63 1.4 2.71l.07.58c0 .12.06.18.18.18h1.62c.91 0 1.68.32 2.32.95.64.63.96 1.39.96 2.29 0 .87-.3 1.62-.9 2.26-.6.64-1.33.98-2.18 1.02-.13 0-.19.06-.19.18v1.33c0 .12.06.18.19.18.88-.03 1.68-.27 2.41-.72.73-.45 1.31-1.05 1.73-1.8s.63-1.57.63-2.44c0-.74-.14-1.41-.43-2.01.79-.96 1.18-2.06 1.18-3.32 0-.94-.24-1.82-.71-2.62a5.201 5.201 0 0 0-1.92-1.92c-.81-.47-1.68-.71-2.62-.71-1.56 0-2.85.58-3.88 1.73-.82-.44-1.72-.66-2.71-.66-1.41 0-2.67.44-3.76 1.32s-1.8 2-2.11 3.36c-1.1.26-2.01.84-2.73 1.74-.72.89-1.08 1.92-1.08 3.07zm5.37 6.98c.09.22.24.37.46.46.2.1.41.11.62.02.22-.08.36-.23.45-.45.09-.22.09-.44.01-.65a.814.814 0 0 0-.44-.47c-.2-.08-.4-.08-.61.01a.88.88 0 0 0-.46.43c-.11.17-.12.39-.03.65zm.63-2.83c0 .16.05.31.15.46.1.15.26.25.46.31.22.07.44.05.65-.06s.35-.29.43-.55l.98-3.11c.07-.24.05-.47-.08-.67a.813.813 0 0 0-.55-.38.744.744 0 0 0-.62.06c-.2.11-.33.28-.4.5l-1 3.18-.02.26zm1.86 5.6c0 .07.02.17.06.29.09.22.25.38.46.45.08.05.19.08.33.08.06 0 .16-.02.3-.06.22-.08.38-.23.47-.45.1-.22.1-.44 0-.66-.1-.22-.25-.37-.45-.46s-.41-.09-.62-.01c-.19.08-.33.2-.42.36-.09.16-.13.31-.13.46zm.74-2.67c0 .18.05.33.15.48.1.14.26.24.48.28.02 0 .06.01.11.02s.1.02.13.02c.43-.03.7-.24.81-.62l1.76-6.07c.07-.24.05-.46-.06-.65a.856.856 0 0 0-.5-.39.814.814 0 0 0-.65.06c-.2.11-.33.28-.4.5l-1.8 6.07c0 .02 0 .06-.01.1-.01.04-.01.08-.01.11-.01.04-.01.07-.01.09zm3.44-.4c0 .1.02.21.05.32.08.21.23.36.46.44.09.04.21.07.36.07.12 0 .22-.02.29-.06.23-.09.38-.23.46-.43a.91.91 0 0 0 0-.65.898.898 0 0 0-.42-.48.86.86 0 0 0-.65.01c-.22.09-.37.23-.47.43-.05.11-.08.22-.08.35zm.72-2.54c0 .36.21.61.62.75.14.04.24.06.3.06.12 0 .23-.03.34-.08.17-.09.31-.27.4-.55l.98-3.11a.75.75 0 0 0-.06-.64.885.885 0 0 0-.51-.4.79.79 0 0 0-.64.06c-.19.11-.33.28-.4.5l-.98 3.13c-.04.16-.05.26-.05.28zm1.03-12.01c.69-.66 1.51-.99 2.48-.99s1.81.35 2.5 1.04c.69.69 1.04 1.53 1.04 2.5 0 .62-.17 1.23-.52 1.84-.98-.98-2.14-1.47-3.49-1.47h-.33c-.31-1.16-.87-2.13-1.68-2.92z"/></svg>