<svg xmlns="http://www.w3.org/2000/svg" xml:space="preserve" viewBox="0 0 30 30"><path d="M3.57 13.43c0-1.15.36-2.18 1.08-3.08s1.63-1.48 2.73-1.74C7.7 7.24 8.4 6.12 9.5 5.24s2.35-1.31 3.76-1.31c1.38 0 2.61.43 3.69 1.28s1.78 1.95 2.1 3.29h.33c.9 0 1.73.22 2.49.65.76.43 1.37 1.03 1.81 1.79.44.76.67 1.58.67 2.48 0 1.15-.35 2.18-1.06 3.08.64.55 1.4.84 2.26.87l.66.06c.12 0 .18.06.18.19v.77c.01 1.01-.24 1.95-.73 2.8-.49.86-1.17 1.53-2.02 2.03-.85.5-1.78.75-2.79.75-.77 0-1.5-.15-2.19-.44-.69-.29-1.28-.69-1.78-1.19-.49-.5-.89-1.09-1.18-1.78-.29-.69-.44-1.41-.44-2.17H8.37c-1.34-.06-2.47-.57-3.4-1.53s-1.4-2.1-1.4-3.43zm1.71 0c0 .87.3 1.62.9 2.26s1.33.98 2.19 1.02h11.19c.86-.04 1.59-.38 2.19-1.02.6-.64.9-1.39.9-2.26 0-.88-.32-1.63-.97-2.28-.65-.64-1.42-.97-2.31-.97h-1.62c-.11 0-.17-.06-.17-.17l-.07-.58c-.11-1.08-.58-1.99-1.4-2.71s-1.77-1.09-2.86-1.09c-1.1 0-2.05.36-2.86 1.09S9.13 8.35 9.03 9.43l-.07.58c0 .11-.07.17-.2.17h-.53c-.84.1-1.54.46-2.1 1.07s-.85 1.34-.85 2.18zm11.43 4.96c0 .79.2 1.52.6 2.17.4.65.91 1.15 1.54 1.5a3.98 3.98 0 0 0 3.81.07c.6-.3 1.12-.75 1.58-1.36s.75-1.31.86-2.1c-1.08-.22-1.98-.65-2.72-1.3-.84.65-1.78.99-2.82 1.01h-2.85z"/></svg>