<svg xmlns="http://www.w3.org/2000/svg" xml:space="preserve" viewBox="0 0 30 30"><path d="M3.06 20.98c0 .24.09.44.27.6.18.18.38.27.61.27h5.88c.26 0 .49.09.69.28.2.19.3.42.3.68 0 .26-.1.48-.3.68s-.43.3-.68.3c-.25 0-.48-.1-.68-.3-.19-.17-.39-.26-.62-.26-.23 0-.43.08-.59.25-.16.17-.24.37-.24.61s.08.44.24.6c.52.52 1.15.78 1.88.78.74 0 1.38-.26 1.89-.77.52-.52.78-1.14.78-1.88s-.26-1.38-.78-1.9-1.15-.79-1.89-.79H3.94a.86.86 0 0 0-.62.25.79.79 0 0 0-.26.6zm0-3.01c0 .23.09.42.27.58.15.16.35.24.61.24h10.99c.74 0 1.37-.26 1.89-.78.52-.52.78-1.15.78-1.88s-.26-1.36-.78-1.88c-.52-.52-1.15-.77-1.89-.77-.76 0-1.39.25-1.89.75-.15.17-.23.38-.23.63 0 .24.08.43.23.59s.35.23.6.23.45-.07.61-.23c.19-.19.42-.28.68-.28.26 0 .48.09.68.28.19.19.29.42.29.68s-.1.5-.29.69c-.19.19-.42.29-.68.29H3.94a.86.86 0 0 0-.62.25c-.18.18-.26.38-.26.61zm2.65-2.34c0 .08.06.12.17.12h1.43c.08 0 .15-.05.22-.14.23-.54.57-.99 1.05-1.35.47-.36 1-.56 1.59-.6l.52-.07c.12 0 .19-.06.19-.19l.07-.5c.11-1.08.57-1.99 1.38-2.71.81-.73 1.77-1.09 2.86-1.09s2.04.36 2.85 1.08c.81.72 1.27 1.63 1.39 2.72l.07.57c0 .12.06.18.18.18h1.63c.9 0 1.67.32 2.31.95.64.63.96 1.39.96 2.28 0 .89-.32 1.66-.96 2.29-.64.63-1.41.95-2.31.95H14.4c-.11 0-.17.06-.17.18v1.37c0 .12.06.18.17.18h6.91c.89 0 1.72-.22 2.48-.67.76-.44 1.36-1.05 1.8-1.81.44-.76.66-1.59.66-2.49 0-.74-.14-1.42-.42-2.02.76-1 1.14-2.11 1.14-3.33 0-.71-.14-1.39-.42-2.04s-.65-1.2-1.12-1.67c-.47-.47-1.03-.84-1.67-1.11s-1.34-.41-2.05-.41c-1.54 0-2.84.58-3.88 1.73-.78-.41-1.67-.61-2.65-.61-1.41 0-2.66.44-3.75 1.31s-1.77 1.99-2.07 3.35c-.85.2-1.6.61-2.26 1.23s-1.11 1.35-1.37 2.18v.04c-.01.05-.02.09-.02.1zM19.24 9c.72-.68 1.54-1.02 2.48-1.02.98 0 1.81.35 2.51 1.05s1.05 1.53 1.05 2.5c0 .61-.17 1.22-.51 1.85-.96-.96-2.11-1.43-3.47-1.43h-.33c-.24-1.07-.81-2.06-1.73-2.95z"/></svg>