<svg xmlns="http://www.w3.org/2000/svg" xml:space="preserve" viewBox="0 0 30 30"><path d="M4.23 16.89c0 1.33.47 2.48 1.4 3.44s2.07 1.47 3.4 1.53c.12 0 .18-.06.18-.17v-1.34c0-.11-.06-.17-.18-.17a3.15 3.15 0 0 1-2.19-1.03c-.6-.64-.9-1.39-.9-2.26 0-.83.28-1.55.85-2.17.57-.61 1.27-.97 2.1-1.07l.53-.04c.13 0 .2-.06.2-.18l.07-.54c.11-1.08.56-1.99 1.37-2.72.81-.73 1.76-1.1 2.85-1.1s2.04.37 2.86 1.1c.82.73 1.28 1.64 1.4 2.72l.08.57c0 .12.06.19.17.19h1.62c.91 0 1.68.32 2.33.95.64.63.97 1.4.97 2.28 0 .86-.3 1.61-.91 2.25-.61.64-1.34.99-2.19 1.04-.12 0-.19.06-.19.17v1.34c0 .11.06.17.19.17 1.34-.04 2.47-.55 3.4-1.51.93-.97 1.39-2.12 1.39-3.45 0-.71-.14-1.38-.43-2.01.79-.96 1.18-2.07 1.18-3.32 0-.95-.24-1.83-.71-2.64S23.96 7.47 23.15 7s-1.68-.7-2.62-.7c-1.55 0-2.85.58-3.89 1.73-.81-.43-1.71-.65-2.71-.65-1.41 0-2.67.44-3.76 1.32s-1.8 2-2.11 3.36c-1.11.26-2.02.84-2.74 1.74-.73.91-1.09 1.94-1.09 3.09zm5.49 7.72c0 .21.08.4.24.57.18.16.37.24.58.24.24 0 .43-.08.59-.23.16-.16.23-.35.23-.58 0-.24-.08-.43-.24-.59a.784.784 0 0 0-.59-.23.84.84 0 0 0-.59.23c-.14.15-.22.35-.22.59zm.86-3.63c0 .24.08.44.24.61.16.17.35.25.59.25.23 0 .43-.08.59-.25.16-.17.24-.37.24-.61 0-.23-.08-.42-.24-.58a.791.791 0 0 0-.59-.24c-.23 0-.43.08-.59.24-.16.16-.24.36-.24.58zm1.89 5.58c0 .22.08.41.24.57.17.17.36.25.58.25.24 0 .44-.08.6-.23.17-.16.25-.35.25-.59s-.08-.44-.25-.6a.816.816 0 0 0-.6-.25c-.22 0-.41.08-.58.25-.15.17-.24.37-.24.6zm.86-3.66c0 .22.08.42.25.6.16.16.35.24.57.24.24 0 .44-.08.61-.24s.25-.36.25-.6c0-.23-.08-.43-.25-.6s-.37-.25-.61-.25c-.23 0-.42.08-.58.25s-.24.37-.24.6zm.43-3.6c0 .23.08.42.24.58s.36.24.58.24c.24 0 .44-.08.6-.24.17-.16.25-.35.25-.59 0-.23-.08-.43-.25-.59s-.37-.24-.6-.24c-.22 0-.42.08-.58.24s-.24.37-.24.6zm2.37 5.31c0 .21.08.4.23.57.17.16.38.24.6.24.24 0 .43-.08.59-.23.16-.16.23-.35.23-.58 0-.24-.08-.43-.23-.59a.784.784 0 0 0-.59-.23.8.8 0 0 0-.83.82zm.85-3.63c0 .24.08.44.24.61.16.17.36.25.59.25.23 0 .43-.08.59-.25.16-.17.24-.37.24-.61 0-.23-.08-.42-.24-.58a.791.791 0 0 0-.59-.24c-.23 0-.43.08-.59.24s-.24.36-.24.58zm1.05-11.96c.68-.68 1.5-1.01 2.48-1.01s1.81.35 2.5 1.04 1.03 1.53 1.03 2.52c0 .59-.17 1.2-.51 1.84-.96-.96-2.13-1.44-3.5-1.44h-.31a5.877 5.877 0 0 0-1.69-2.95z"/></svg>