<svg xmlns="http://www.w3.org/2000/svg" xml:space="preserve" viewBox="0 0 30 30"><path d="M4.23 16.88c0 1.12.33 2.12 1 3s1.53 1.47 2.58 1.76l-.66 1.7c-.05.14 0 .22.14.22h2.13L8 27.77h.29l4.36-5.66c.04-.04.04-.09.02-.14-.02-.05-.07-.07-.14-.07h-2.19l2.49-4.65c.07-.14.03-.22-.14-.22H9.72c-.09 0-.17.05-.23.15l-1.07 2.88c-.72-.18-1.31-.56-1.78-1.16-.47-.59-.7-1.26-.7-2.02 0-.84.28-1.57.84-2.18.56-.61 1.27-.97 2.11-1.07l.51-.03c.12 0 .19-.05.22-.14l.08-.59c.11-1.08.56-1.99 1.37-2.72s1.76-1.1 2.86-1.1c1.09 0 2.04.37 2.86 1.1s1.29 1.64 1.4 2.72l.08.59c0 .11.06.17.18.17h1.61c.89 0 1.66.32 2.31.96s.97 1.4.97 2.29c0 .87-.3 1.62-.9 2.26s-1.32.98-2.18 1.03c-.13 0-.2.06-.2.18v1.34c0 .11.07.17.2.17.88-.02 1.69-.26 2.42-.72.73-.45 1.31-1.06 1.74-1.81s.64-1.57.64-2.45c0-.73-.14-1.4-.43-2.02.76-.96 1.14-2.06 1.14-3.29 0-.95-.24-1.83-.71-2.64a5.201 5.201 0 0 0-1.92-1.92c-.81-.47-1.69-.71-2.64-.71-.72 0-1.42.15-2.1.45-.68.3-1.26.72-1.76 1.25-.81-.43-1.71-.65-2.72-.65-1.42 0-2.68.44-3.77 1.32s-1.8 2-2.1 3.37c-1.11.26-2.02.84-2.74 1.74-.72.92-1.08 1.95-1.08 3.1zm9.59 6.08c0 .24.08.44.24.59.16.16.36.24.58.24.24 0 .44-.08.61-.24s.25-.36.25-.59c0-.24-.08-.44-.25-.61s-.37-.26-.61-.26c-.22 0-.41.09-.58.26s-.24.37-.24.61zm0-3.64c0 .24.08.43.24.58.16.16.36.24.58.24.24 0 .45-.08.61-.23s.25-.35.25-.59c0-.23-.08-.43-.25-.6s-.37-.25-.61-.25c-.23 0-.42.08-.58.25s-.24.37-.24.6zm0 7.31c0 .22.08.41.24.57.17.17.36.25.58.25.24 0 .44-.08.61-.24.17-.16.25-.35.25-.59s-.08-.44-.25-.61a.832.832 0 0 0-.61-.26c-.22 0-.41.09-.58.26-.16.18-.24.39-.24.62zm3.23-5.61c0 .24.08.44.25.6s.36.25.6.25c.23 0 .43-.08.59-.25.16-.17.24-.37.24-.6 0-.22-.08-.42-.24-.58a.791.791 0 0 0-.59-.24c-.23 0-.43.08-.6.24s-.25.35-.25.58zm0 3.64c0 .23.08.42.24.58.16.16.36.24.6.24s.43-.08.59-.24c.16-.16.23-.35.23-.59s-.08-.43-.23-.59a.784.784 0 0 0-.59-.23c-.24 0-.44.08-.6.23-.16.16-.24.36-.24.6zm1.01-15.64c.67-.64 1.48-.97 2.45-.97.98 0 1.82.34 2.51 1.03.69.68 1.04 1.52 1.04 2.5 0 .66-.16 1.26-.47 1.81-.96-.96-2.13-1.44-3.52-1.44h-.31c-.3-1.19-.87-2.17-1.7-2.93z"/></svg>