<svg xmlns="http://www.w3.org/2000/svg" xml:space="preserve" viewBox="0 0 30 30"><path d="M4.26 16.93c0 .66.12 1.28.38 1.88s.59 1.11 1.02 1.55c.43.43.94.79 1.53 1.05s1.21.42 1.87.45c.11 0 .17-.06.17-.17v-1.34c0-.11-.06-.17-.17-.17-.87-.06-1.6-.41-2.19-1.03a3.13 3.13 0 0 1-.89-2.22c0-.84.28-1.57.85-2.19.57-.62 1.26-.97 2.1-1.04l.53-.06c.13 0 .2-.06.2-.19l.06-.51c.11-1.09.56-1.99 1.37-2.71s1.76-1.08 2.86-1.08c1.09 0 2.05.36 2.85 1.07.81.72 1.27 1.61 1.38 2.69l.07.58c0 .12.06.18.19.18h1.6c.9 0 1.67.32 2.32.96s.97 1.4.97 2.29c0 .86-.3 1.6-.89 2.22-.59.62-1.33.97-2.19 1.03-.13 0-.2.06-.2.17v1.34c0 .11.07.17.2.17 1.34-.06 2.47-.57 3.39-1.51.92-.95 1.38-2.09 1.38-3.42 0-.72-.14-1.38-.42-1.99.78-.94 1.17-2.06 1.17-3.36 0-.94-.23-1.81-.7-2.62s-1.11-1.45-1.91-1.92-1.68-.71-2.62-.71c-1.56 0-2.85.58-3.88 1.73-.88-.43-1.78-.65-2.7-.65-1.41 0-2.66.44-3.75 1.32s-1.79 2-2.1 3.38c-1.1.26-2.01.83-2.73 1.73-.76.93-1.12 1.95-1.12 3.1zm5.49 6.68c0 .4.22.66.65.78.21.07.42.05.63-.06.21-.11.35-.28.41-.5l1.5-5.73a.78.78 0 0 0-.09-.63c-.12-.2-.3-.33-.54-.4-.22-.07-.43-.05-.63.07s-.33.29-.39.52l-1.5 5.7c-.03.11-.04.19-.04.25zm2.59 3.05c0 .12.03.24.08.37.1.21.27.35.51.43.02 0 .06 0 .1.01s.08.01.11.01h.09c.43 0 .68-.22.76-.66l2.3-8.74c.07-.22.05-.43-.06-.63a.835.835 0 0 0-.5-.4c-.24-.07-.47-.05-.68.07s-.33.29-.38.52l-2.31 8.75c-.01.1-.02.19-.02.27zm4.16-3.06c0 .16.05.31.16.47a.819.819 0 0 0 .68.35c.17 0 .33-.05.49-.14.16-.09.26-.24.32-.45l1.5-5.73c.08-.21.05-.41-.07-.62a.854.854 0 0 0-.52-.41.796.796 0 0 0-.66.07c-.2.12-.32.29-.36.52l-1.5 5.7c-.03.11-.04.19-.04.24zm1.53-14.52c.67-.67 1.49-1 2.48-1 .98 0 1.81.34 2.49 1.02.69.68 1.03 1.51 1.03 2.48 0 .63-.17 1.24-.52 1.85-.95-.95-2.11-1.43-3.49-1.43h-.31c-.28-1.17-.84-2.14-1.68-2.92z"/></svg>