<svg xmlns="http://www.w3.org/2000/svg" xml:space="preserve" viewBox="0 0 30 30"><path d="M4.07 16.93c0 1.33.47 2.47 1.4 3.43s2.07 1.47 3.4 1.51c.12 0 .18-.06.18-.17v-1.34c0-.11-.06-.17-.18-.17-.85-.04-1.58-.39-2.18-1.03-.61-.64-.91-1.39-.91-2.24 0-.85.28-1.58.85-2.2.57-.62 1.27-.96 2.1-1.03l.53-.07c.13 0 .2-.06.2-.17l.07-.52c.11-1.09.56-2.01 1.37-2.75s1.76-1.11 2.86-1.11c1.09 0 2.04.37 2.86 1.1.82.73 1.28 1.64 1.4 2.72l.08.57c0 .12.06.18.17.18h1.62c.91 0 1.68.32 2.33.97.65.64.97 1.41.97 2.31 0 .85-.3 1.6-.91 2.24-.61.64-1.33.98-2.18 1.03-.14 0-.21.06-.21.17v1.34c0 .11.07.17.21.17a4.71 4.71 0 0 0 2.41-.71c.73-.45 1.31-1.05 1.73-1.8s.63-1.56.63-2.43c0-.91-.22-1.74-.65-2.48.74-.66 1.24-1.52 1.52-2.58l.17-.72c.01-.01.02-.04.02-.08 0-.07-.05-.13-.16-.16l-.61-.17c-.44-.13-.83-.32-1.17-.57s-.61-.53-.81-.84c-.2-.31-.34-.62-.44-.95-.1-.32-.15-.64-.15-.95 0-.27.03-.56.1-.86l.11-.62c.02-.09-.02-.17-.14-.22l-.8-.24c-.44-.11-.85-.16-1.25-.16-.37 0-.74.04-1.12.13-.38.09-.77.22-1.18.41-.41.19-.8.45-1.18.8-.38.35-.71.75-.99 1.22-.81-.33-1.6-.5-2.38-.5-1.41 0-2.67.44-3.76 1.32s-1.8 2-2.11 3.37c-1.12.28-2.04.87-2.75 1.76-.71.9-1.07 1.93-1.07 3.09zm5.53 7.73c0 .23.08.42.24.58.16.16.36.24.58.24.24 0 .44-.08.6-.23.16-.16.24-.35.24-.59s-.08-.43-.24-.59c-.16-.16-.36-.23-.6-.23s-.42.07-.58.23c-.16.15-.24.35-.24.59zm.43-3.64c0 .24.08.44.24.6s.35.25.59.25.44-.08.6-.25c.16-.17.24-.37.24-.6 0-.22-.08-.42-.24-.58a.814.814 0 0 0-.6-.24c-.23 0-.43.08-.59.24s-.24.35-.24.58zm2.35 5.61c0 .22.08.41.24.57.17.17.36.25.58.25.24 0 .44-.08.61-.24.17-.16.25-.35.25-.59s-.08-.44-.25-.61a.832.832 0 0 0-.61-.26c-.22 0-.41.09-.58.26-.16.18-.24.39-.24.62zm.64-3.67c0 .24.08.43.25.59.16.16.35.24.57.24.24 0 .44-.08.61-.24.17-.16.26-.36.26-.59 0-.24-.09-.44-.26-.61a.848.848 0 0 0-.61-.26c-.22 0-.41.09-.58.26s-.24.37-.24.61zm.64-3.64c0 .24.08.43.24.58.16.16.36.24.58.24.24 0 .45-.08.61-.23s.25-.35.25-.59c0-.23-.08-.43-.25-.6s-.37-.25-.61-.25c-.22 0-.42.08-.58.25s-.24.37-.24.6zm2.39 5.34c0 .23.08.42.24.58.16.16.36.24.6.24.23 0 .43-.08.59-.24.16-.16.24-.35.24-.59s-.08-.43-.23-.59a.784.784 0 0 0-.59-.23c-.24 0-.44.08-.6.23-.17.16-.25.36-.25.6zm.42-3.64c0 .23.08.43.25.6.17.17.37.25.6.25s.43-.08.59-.25.24-.37.24-.6c0-.22-.08-.42-.24-.58s-.35-.24-.59-.24-.43.08-.6.25c-.17.16-.25.35-.25.57zm1.11-12.25c.31-.54.75-.96 1.3-1.26s1.12-.45 1.71-.46c.15 0 .26.01.33.02v.31c0 .97.26 1.88.78 2.74s1.25 1.51 2.17 1.96c-.16.36-.41.72-.76 1.07-.89-.79-1.96-1.18-3.23-1.18h-.31c-.27-1.23-.93-2.29-1.99-3.2z"/></svg>