<svg xmlns="http://www.w3.org/2000/svg" xml:space="preserve" viewBox="0 0 30 30"><path d="M3.58 13.45c0-1.15.36-2.18 1.08-3.07.72-.9 1.63-1.48 2.74-1.74.31-1.37 1.02-2.49 2.11-3.37s2.35-1.32 3.76-1.32c1.38 0 2.61.43 3.69 1.28s1.78 1.95 2.1 3.29h.33c.9 0 1.73.22 2.49.65s1.37 1.03 1.81 1.79c.44.76.67 1.58.67 2.48 0 .2-.01.4-.03.61.65.51 1.16 1.15 1.54 1.91s.56 1.57.56 2.43c0 .77-.15 1.5-.45 2.19-.3.69-.7 1.28-1.2 1.78-.5.49-1.1.89-1.79 1.18a5.537 5.537 0 0 1-4.33 0c-.69-.29-1.28-.69-1.78-1.19s-.89-1.09-1.19-1.78-.45-1.41-.45-2.16H8.38c-1.34-.06-2.47-.57-3.4-1.53-.93-.94-1.4-2.09-1.4-3.43zm1.71 0c0 .87.3 1.62.9 2.26.6.64 1.33.98 2.19 1.03h11.19c.86-.04 1.59-.39 2.19-1.03.61-.64.91-1.4.91-2.26 0-.88-.33-1.63-.98-2.27s-1.42-.96-2.32-.96h-1.62c-.11 0-.17-.06-.17-.17l-.07-.58c-.11-1.08-.58-1.99-1.4-2.72s-1.77-1.1-2.86-1.1c-1.09 0-2.05.37-2.85 1.1S9.14 8.39 9.04 9.47l-.08.58c0 .11-.07.17-.2.17h-.52c-.84.1-1.54.46-2.1 1.07-.57.61-.85 1.33-.85 2.16zm11.26 5.11c.06 1.12.52 2.07 1.37 2.83.85.76 1.82 1.14 2.91 1.14.6 0 1.17-.12 1.7-.35s.98-.55 1.34-.93c.36-.39.65-.83.85-1.33.21-.5.31-1 .31-1.52 0-.49-.1-.98-.3-1.47s-.48-.94-.85-1.35c-.39.82-.97 1.5-1.74 2.02s-1.63.79-2.57.83h-3.03c0 .01 0 .04.01.13z"/></svg>