<svg xmlns="http://www.w3.org/2000/svg" xml:space="preserve" viewBox="0 0 30 30"><path d="M4.29 16.93c0 .66.12 1.28.38 1.88s.59 1.11 1.02 1.55.94.79 1.52 1.05 1.21.42 1.87.45c.12 0 .18-.06.18-.17v-1.34c0-.11-.06-.17-.18-.17-.87-.06-1.6-.41-2.19-1.03A3.13 3.13 0 0 1 6 16.93c0-.84.28-1.57.85-2.18.57-.62 1.26-.97 2.1-1.04l.52-.06c.12 0 .19-.06.19-.18l.08-.52c.07-.71.3-1.36.69-1.94s.9-1.04 1.52-1.36 1.29-.49 2.02-.49c1.09 0 2.04.36 2.85 1.08.81.72 1.27 1.62 1.39 2.69l.07.58c0 .11.06.17.19.17h1.6c.9 0 1.67.32 2.32.96.64.64.97 1.4.97 2.29 0 .86-.3 1.6-.89 2.22-.59.62-1.33.97-2.19 1.03-.13 0-.2.06-.2.17v1.34c0 .11.07.17.2.17 1.34-.06 2.47-.57 3.38-1.51.88-.95 1.34-2.09 1.34-3.42 0-.64-.16-1.32-.47-2.06.79-.99 1.19-2.08 1.19-3.27 0-.95-.24-1.83-.71-2.63-.47-.81-1.11-1.44-1.91-1.91s-1.68-.7-2.62-.7c-1.59 0-2.88.58-3.87 1.73-.81-.43-1.7-.64-2.66-.64-1.41 0-2.66.44-3.75 1.32s-1.79 2-2.1 3.37c-1.12.26-2.03.83-2.74 1.72-.72.89-1.07 1.91-1.07 3.07zm7.65 4.62c-.02.14.02.21.14.21h2.17l-1.32 4.17h.29l4.18-5.58c.04-.04.05-.09.02-.14s-.07-.07-.14-.07H15.1l2.3-4.24c.07-.14.03-.22-.14-.22h-2.94c-.08 0-.14.05-.21.14l-2.17 5.73zM18 9.05c.67-.66 1.49-.99 2.47-.99.98 0 1.81.34 2.5 1.03.69.68 1.03 1.52 1.03 2.51 0 .59-.17 1.19-.52 1.8-.97-.93-2.12-1.4-3.45-1.4h-.31c-.28-1.19-.86-2.17-1.72-2.95z"/></svg>