<svg xmlns="http://www.w3.org/2000/svg" xml:space="preserve" viewBox="0 0 30 30"><path d="M4.22 16.89c0 1.33.46 2.48 1.39 3.44s2.06 1.47 3.41 1.53c.11 0 .17-.06.17-.17v-1.37c0-.13-.06-.19-.17-.19-.88-.06-1.61-.41-2.21-1.03-.6-.62-.9-1.36-.9-2.21 0-.84.28-1.58.85-2.2.57-.62 1.27-.97 2.11-1.04l.52-.07c.12 0 .19-.06.19-.19l.07-.5c.11-1.08.57-1.99 1.38-2.72s1.77-1.1 2.87-1.1c1.09 0 2.05.36 2.86 1.09.81.73 1.28 1.64 1.4 2.72l.06.57c0 .12.06.18.19.18h1.6c.91 0 1.68.32 2.32.95.64.63.97 1.4.97 2.28 0 .85-.3 1.59-.89 2.21-.59.62-1.33.97-2.19 1.03-.14 0-.21.06-.21.19v1.37c0 .11.07.17.21.17 1.33-.04 2.46-.55 3.39-1.51.93-.97 1.39-2.12 1.39-3.45 0-.74-.14-1.41-.43-2.01.79-.96 1.18-2.07 1.18-3.36 0-.94-.24-1.82-.71-2.63s-1.11-1.45-1.92-1.92c-.81-.47-1.68-.71-2.62-.71-1.52 0-2.83.58-3.93 1.75-.83-.38-1.72-.59-2.67-.59-1.41 0-2.67.44-3.76 1.31s-1.8 2-2.1 3.37c-1.11.26-2.02.84-2.74 1.74-.72.89-1.08 1.92-1.08 3.07zm5.93.88c0 .38.14.7.43.98.28.27.62.41 1.02.41s.73-.13 1-.4.41-.6.41-.98c0-.26-.12-.6-.35-1.02-.23-.42-.45-.76-.66-1-.02-.02-.08-.09-.18-.2-.1-.11-.17-.19-.21-.24l-.36.4c-.28.3-.53.65-.75 1.05-.23.4-.35.74-.35 1zm2.99 3.99c0 .63.23 1.18.69 1.64.46.46 1.01.69 1.65.69.64 0 1.2-.23 1.66-.69.46-.46.69-1.01.69-1.64 0-.27-.08-.59-.23-.97-.16-.38-.34-.72-.56-1.04-.46-.59-.89-1.09-1.29-1.49-.06-.04-.14-.13-.26-.24l-.59.58c-.44.42-.85.95-1.21 1.56-.37.62-.55 1.15-.55 1.6zm1.48-6.7c0 .27.09.49.28.67s.43.27.71.27c.26 0 .48-.09.66-.27s.27-.4.27-.67c0-.41-.31-.94-.93-1.61l-.25.26c-.19.2-.36.43-.51.7-.16.26-.23.48-.23.65zm3.39-6.04c.67-.66 1.5-.99 2.48-.99s1.81.34 2.49 1.02 1.03 1.51 1.03 2.48c0 .63-.17 1.25-.51 1.85-1-.96-2.17-1.44-3.51-1.44h-.29c-.28-1.18-.85-2.15-1.69-2.92z"/></svg>