<svg xmlns="http://www.w3.org/2000/svg" xml:space="preserve" viewBox="0 0 30 30"><path d="M4.19 16.88c0 1.12.33 2.12 1 3s1.53 1.47 2.58 1.76l-.66 1.7c-.05.14 0 .22.14.22h2.13l-1.43 4.21h.29l4.36-5.66c.04-.04.04-.09.02-.14-.02-.05-.07-.07-.14-.07h-2.19l2.49-4.65c.07-.14.03-.22-.14-.22H9.68c-.09 0-.17.05-.23.15l-1.07 2.88c-.72-.18-1.31-.56-1.78-1.16-.47-.59-.7-1.26-.7-2.02 0-.84.28-1.57.84-2.18.56-.61 1.26-.97 2.11-1.07l.51-.03c.12 0 .19-.05.22-.14l.07-.59c.11-1.08.56-1.99 1.37-2.72s1.76-1.1 2.86-1.1c1.09 0 2.04.37 2.86 1.1.82.73 1.29 1.64 1.4 2.72l.08.59c0 .11.06.17.18.17h1.61c.89 0 1.66.32 2.31.96s.97 1.4.97 2.29c0 .87-.3 1.62-.9 2.26s-1.32.98-2.18 1.03c-.13 0-.2.06-.2.18v1.34c0 .11.07.17.2.17.88-.02 1.69-.26 2.42-.72.73-.45 1.31-1.06 1.74-1.81s.64-1.57.64-2.45c0-.73-.14-1.4-.43-2.02.76-.96 1.14-2.06 1.14-3.29 0-.95-.24-1.83-.71-2.64a5.201 5.201 0 0 0-1.92-1.92c-.81-.47-1.69-.71-2.64-.71-.72 0-1.42.15-2.1.45-.68.3-1.26.72-1.76 1.25-.81-.43-1.71-.65-2.72-.65-1.42 0-2.68.44-3.77 1.32s-1.8 2-2.1 3.37c-1.11.26-2.02.84-2.74 1.74-.71.92-1.07 1.95-1.07 3.1zm7.88 10.22c0 .17.05.33.16.49.11.16.27.27.49.33.09.02.17.03.24.03.43 0 .7-.2.8-.61l.13-.59a.92.92 0 0 0-.08-.68.762.762 0 0 0-.53-.37.744.744 0 0 0-.63.07c-.21.12-.34.29-.41.51l-.13.59c-.03.12-.04.2-.04.23zm.79-2.9c0 .23.08.42.24.58.16.16.36.24.58.24.24 0 .43-.08.59-.23.16-.16.23-.35.23-.59a.784.784 0 0 0-.82-.81c-.24 0-.43.08-.59.23s-.23.35-.23.58zm.62-2.27c-.01.15.03.31.14.47.1.16.25.26.45.3.23.06.44.04.64-.06s.33-.29.41-.56l.26-.9c.07-.22.05-.43-.07-.63a.867.867 0 0 0-.53-.4c-.22-.07-.43-.04-.64.08s-.34.3-.41.53l-.22.9c-.02.08-.03.17-.03.27zm2.76 2.15c0 .17.05.33.15.48.1.15.25.26.46.32.03 0 .08.01.14.02.06.01.11.02.14.02.41 0 .66-.22.76-.66l.14-.6c.07-.21.05-.42-.07-.63a.863.863 0 0 0-.51-.41c-.25-.06-.48-.04-.68.08s-.34.29-.41.53l-.09.59c0 .01 0 .05-.01.11-.01.07-.02.11-.02.15zm.74-2.96c0 .23.08.42.24.57.15.16.34.24.58.24.24 0 .43-.08.59-.23.16-.16.23-.35.23-.58 0-.24-.08-.43-.23-.59a.784.784 0 0 0-.59-.23c-.24 0-.43.08-.59.23s-.23.35-.23.59zm1.04-12.1c.67-.64 1.48-.97 2.45-.97.98 0 1.82.34 2.51 1.03.69.68 1.04 1.52 1.04 2.5 0 .66-.16 1.26-.47 1.81-.96-.96-2.13-1.44-3.52-1.44h-.31c-.3-1.19-.87-2.17-1.7-2.93z"/></svg>