<svg xmlns="http://www.w3.org/2000/svg" xml:space="preserve" viewBox="0 0 30 30"><path d="M2.35 21.05c0 .24.08.43.25.59.17.16.38.23.63.23h9.4c.24 0 .43-.08.59-.23.16-.16.23-.35.23-.59 0-.25-.08-.45-.23-.61a.791.791 0 0 0-.59-.24h-9.4c-.25 0-.46.08-.63.24s-.25.36-.25.61zM4.98 18c0 .24.09.44.26.6.16.17.36.25.6.25h9.42c.23 0 .43-.08.59-.25.16-.17.24-.37.24-.6 0-.23-.08-.43-.23-.59s-.35-.24-.59-.24H5.85c-.24 0-.44.08-.61.24-.17.16-.26.36-.26.59zm1.04-2.34c0 .09.06.14.18.14h1.43c.09 0 .16-.05.22-.14.23-.54.57-.99 1.04-1.35.47-.36.99-.56 1.58-.6l.55-.07c.12 0 .18-.06.18-.17l.07-.52c.11-1.09.57-2 1.38-2.72.82-.73 1.77-1.09 2.87-1.09 1.09 0 2.04.36 2.84 1.08.8.72 1.27 1.62 1.41 2.71l.08.58c0 .11.06.17.18.17h1.61c.91 0 1.68.32 2.32.96.64.64.96 1.41.96 2.31 0 .88-.32 1.65-.97 2.29-.65.65-1.41.97-2.3.97h-6.91c-.11 0-.17.06-.17.17v1.34c0 .11.06.17.17.17h6.91c.9 0 1.73-.22 2.49-.66.76-.44 1.37-1.04 1.81-1.8.44-.76.67-1.59.67-2.49s-.22-1.72-.65-2.47c.72-.64 1.22-1.5 1.51-2.58l.18-.68c.01-.01.01-.03.01-.07 0-.08-.05-.13-.15-.16l-.62-.22c-.44-.13-.83-.32-1.16-.57-.34-.25-.6-.53-.8-.84-.2-.31-.34-.62-.44-.94-.1-.32-.15-.63-.15-.95 0-.24.04-.53.11-.87l.13-.61c.04-.09 0-.17-.13-.23l-.84-.25c-.44-.11-.85-.16-1.25-.16-.38 0-.75.04-1.13.13s-.77.22-1.18.41c-.41.18-.8.45-1.18.8-.38.35-.71.75-.99 1.22-.77-.32-1.57-.48-2.37-.48-1.41 0-2.66.44-3.75 1.32s-1.78 2-2.08 3.38c-.87.2-1.63.61-2.28 1.22a4.9 4.9 0 0 0-1.36 2.21v.03c-.02.01-.03.04-.03.08zm.73 8.49c0 .24.08.44.25.6.16.17.36.25.6.25h9.43c.24 0 .44-.08.61-.25.17-.17.25-.37.25-.6 0-.23-.08-.43-.25-.59a.853.853 0 0 0-.61-.24H7.6c-.24 0-.44.08-.6.24-.17.16-.25.36-.25.59zM19.33 8.78c.34-.55.79-.98 1.35-1.28.55-.3 1.12-.45 1.7-.44.11 0 .2 0 .25.01v.24c0 .97.26 1.9.79 2.79.53.88 1.25 1.55 2.17 1.98-.17.4-.43.76-.76 1.07-.88-.79-1.95-1.18-3.2-1.18h-.32c-.25-1.2-.91-2.26-1.98-3.19z"/></svg>