<svg xmlns="http://www.w3.org/2000/svg" xml:space="preserve" viewBox="0 0 30 30"><path d="M4.28 16.89c0 1.11.33 2.11.99 2.98s1.52 1.46 2.56 1.75l-.64 1.68c-.05.14 0 .22.14.22h2.12l-1.04 4.19h.28l3.97-5.62c.04-.04.04-.09.01-.14-.03-.05-.08-.07-.15-.07h-2.17l2.47-4.61c.07-.14.02-.22-.14-.22H9.74c-.09 0-.16.05-.23.14l-1.07 2.87c-.71-.17-1.3-.56-1.77-1.14s-.7-1.26-.7-2.02c0-.83.28-1.55.84-2.16s1.26-.96 2.1-1.06l.53-.04c.12 0 .18-.06.18-.18l.07-.53c.07-.71.3-1.35.69-1.94.39-.58.9-1.04 1.52-1.37s1.29-.5 2.01-.5c1.08 0 2.03.37 2.84 1.1.81.73 1.27 1.63 1.39 2.71l.08.56c0 .12.06.19.17.19h1.62c.89 0 1.65.32 2.3.96s.97 1.39.97 2.27c0 .86-.3 1.61-.9 2.25s-1.33.97-2.18 1.02c-.13 0-.2.06-.2.18v1.34c0 .11.07.17.2.17a4.62 4.62 0 0 0 2.4-.72c.73-.45 1.31-1.05 1.72-1.8s.63-1.56.63-2.43c0-.73-.14-1.4-.42-2.01.78-.93 1.17-2.03 1.17-3.31 0-.71-.14-1.38-.42-2.02-.28-.64-.65-1.2-1.12-1.67a5.27 5.27 0 0 0-1.67-1.12c-.64-.28-1.32-.42-2.02-.42-1.54 0-2.83.58-3.86 1.73-.81-.43-1.71-.65-2.7-.65-1.41 0-2.66.44-3.75 1.31s-1.79 1.99-2.1 3.35c-1.1.26-2.01.83-2.73 1.73s-1.05 1.9-1.05 3.05zm7.93 9.88c0 .16.05.32.15.46s.25.25.45.31l.25.03c.42 0 .68-.2.8-.6l2.43-8.89a.83.83 0 0 0-.07-.64.815.815 0 0 0-.49-.4.814.814 0 0 0-.65.06c-.2.11-.34.28-.4.5l-2.45 8.9c-.01.17-.02.26-.02.27zm4.14-3.03c0 .4.21.67.62.8l.26.03c.11 0 .23-.02.35-.08.2-.09.34-.27.42-.55l1.64-5.85a.79.79 0 0 0-.08-.64.827.827 0 0 0-.51-.4.814.814 0 0 0-1.04.56l-1.62 5.89c-.02.14-.04.22-.04.24zm1.67-14.7c.68-.64 1.5-.96 2.48-.96.97 0 1.8.34 2.48 1.02.69.68 1.03 1.51 1.03 2.48 0 .63-.17 1.25-.51 1.85-.96-.96-2.12-1.44-3.48-1.44h-.32a6.033 6.033 0 0 0-1.68-2.95z"/></svg>