<svg xmlns="http://www.w3.org/2000/svg" xml:space="preserve" viewBox="0 0 30 30"><path d="M4.3 16.89c0 .89.22 1.72.66 2.48s1.03 1.36 1.79 1.8 1.58.67 2.48.67h10.81c.89 0 1.72-.22 2.48-.67s1.36-1.05 1.8-1.8c.44-.76.67-1.59.67-2.48 0-.64-.14-1.3-.42-2 .76-.93 1.13-2.03 1.13-3.3a5.195 5.195 0 0 0-2.59-4.54c-.8-.47-1.68-.7-2.63-.7-1.49 0-2.78.58-3.87 1.74-.76-.43-1.66-.65-2.69-.65-1.41 0-2.65.43-3.73 1.3s-1.77 1.98-2.08 3.35c-1.12.25-2.03.82-2.74 1.72a4.85 4.85 0 0 0-1.07 3.08zm1.71 0c0-.83.28-1.55.83-2.16.56-.61 1.26-.96 2.1-1.06l.68-.03.07-.72c.14-1.08.61-1.99 1.41-2.71.8-.73 1.74-1.09 2.81-1.09 1.09 0 2.05.37 2.86 1.1s1.27 1.63 1.38 2.71l.1.75h1.78c.88 0 1.64.32 2.28.95s.96 1.39.96 2.26c0 .9-.32 1.67-.95 2.32s-1.4.97-2.28.97H9.23c-.87 0-1.62-.32-2.26-.97-.64-.66-.96-1.43-.96-2.32zm12.03-7.83c.69-.66 1.5-.99 2.44-.99.99 0 1.83.34 2.52 1.03.69.68 1.04 1.52 1.04 2.51 0 .62-.17 1.23-.52 1.84-.96-.97-2.12-1.45-3.49-1.45h-.31c-.27-1.11-.83-2.09-1.68-2.94z"/></svg>