<svg xmlns="http://www.w3.org/2000/svg" xml:space="preserve" viewBox="0 0 30 30"><path d="M4.07 16.93c0 1.33.47 2.47 1.4 3.43s2.07 1.47 3.4 1.51c.12 0 .18-.06.18-.17v-1.34c0-.11-.06-.17-.18-.17-.85-.04-1.58-.39-2.18-1.03s-.91-1.39-.91-2.23c0-.85.28-1.59.85-2.21.57-.62 1.27-.97 2.1-1.04l.53-.07c.13 0 .2-.06.2-.18l.07-.51c.11-1.1.56-2.02 1.37-2.75s1.76-1.1 2.86-1.1c1.09 0 2.04.37 2.86 1.1.82.73 1.29 1.64 1.4 2.72l.07.57c0 .12.06.19.17.19h1.62c.91 0 1.68.32 2.33.97.65.64.97 1.41.97 2.31 0 .55-.14 1.07-.41 1.56s-.65.89-1.13 1.2c-.48.31-1 .48-1.56.51-.13 0-.2.06-.2.17v1.34c0 .11.07.17.2.17.88-.02 1.69-.26 2.42-.71.73-.45 1.31-1.05 1.73-1.8.42-.75.63-1.56.63-2.43 0-.88-.23-1.72-.68-2.51.83-.74 1.36-1.62 1.58-2.62l.14-.68a.09.09 0 0 0 .03-.07c0-.06-.06-.11-.17-.16l-.55-.18c-.57-.17-1.07-.45-1.47-.85-.41-.4-.7-.81-.87-1.25-.17-.43-.26-.86-.26-1.29-.02-.21.01-.49.09-.82l.13-.58c.04-.1 0-.18-.13-.23l-.8-.24a4.958 4.958 0 0 0-2.41-.04c-.38.09-.78.22-1.19.41s-.81.46-1.2.81c-.39.35-.72.76-1 1.23-.81-.31-1.6-.46-2.35-.46-1.41 0-2.67.44-3.76 1.32s-1.8 2-2.11 3.37c-1.12.29-2.04.88-2.75 1.77-.71.87-1.06 1.9-1.06 3.06zm5.41 7.05c0 .17.05.34.16.51.11.17.27.28.47.35.23.07.44.06.64-.04s.32-.28.39-.56l.14-.61c.05-.23.02-.44-.09-.63a.82.82 0 0 0-.52-.4c-.23-.07-.44-.04-.64.08s-.34.3-.4.53l-.13.58c-.02.04-.02.1-.02.19zm.76-2.9c0 .21.08.4.25.57.16.17.34.25.56.25.24 0 .44-.08.6-.24.16-.16.24-.35.24-.59 0-.23-.08-.43-.24-.59a.814.814 0 0 0-.6-.24c-.23 0-.43.08-.58.23s-.23.38-.23.61zm.61-2.27c-.01.16.03.31.14.45.1.15.26.25.48.32a.8.8 0 0 0 .62-.07c.21-.11.34-.28.41-.51l.28-.9c.07-.24.05-.46-.07-.65a.913.913 0 0 0-.54-.39.737.737 0 0 0-.63.07.85.85 0 0 0-.41.5l-.24.92c0 .02-.01.06-.02.12-.02.05-.02.1-.02.14zm1.16 8.29c0 .18.05.34.15.5.1.16.26.27.48.33.08.02.17.03.25.03.43 0 .69-.2.79-.61l.14-.59c.06-.26.03-.48-.08-.68s-.29-.32-.52-.37a.744.744 0 0 0-.63.07c-.21.12-.34.29-.41.51l-.14.59c-.02.09-.03.16-.03.22zm.78-2.9c0 .22.08.41.25.58.16.16.35.24.57.24.24 0 .43-.08.59-.23.16-.16.23-.35.23-.59 0-.23-.08-.42-.23-.58s-.35-.23-.59-.23-.43.08-.59.23a.8.8 0 0 0-.23.58zm.63-2.27c-.01.15.03.31.13.47s.25.26.45.3c.23.06.44.04.64-.06.19-.1.33-.29.41-.56l.27-.9c.07-.22.05-.43-.07-.63a.867.867 0 0 0-.53-.4c-.22-.07-.43-.04-.64.08s-.34.3-.41.53l-.22.9c-.02.08-.03.17-.03.27zm2.75 2.15c0 .16.05.32.15.48s.26.27.46.33c.03 0 .08.01.14.02.06.01.1.02.14.02.41 0 .66-.22.76-.66l.14-.6c.07-.21.05-.42-.07-.63a.809.809 0 0 0-.51-.41c-.25-.06-.48-.04-.68.08s-.34.29-.41.53l-.09.59c0 .02-.01.07-.02.12 0 .05-.01.09-.01.13zm.74-2.96c0 .22.08.42.25.57.15.16.34.24.57.24.24 0 .43-.08.59-.23s.23-.35.23-.58c0-.24-.08-.43-.23-.59s-.35-.23-.59-.23-.43.08-.59.23-.23.35-.23.59zm.61-2.31c0 .17.05.33.16.48s.27.26.49.32c.02 0 .06.01.12.02s.11.02.14.02c.1 0 .22-.03.36-.09.21-.11.35-.29.41-.52l.24-.9c.06-.23.04-.44-.08-.63a.827.827 0 0 0-.51-.4c-.23-.07-.44-.05-.64.06s-.32.27-.39.51l-.28.91c0 .02-.01.06-.02.12.01.03 0 .07 0 .1zm.07-10.05c.32-.58.76-1.02 1.31-1.34.56-.32 1.13-.47 1.73-.46.09 0 .19.01.3.03v.31c-.01.98.25 1.9.77 2.76.53.86 1.27 1.5 2.22 1.94-.19.41-.46.78-.8 1.11-.92-.76-2-1.14-3.23-1.14h-.31c-.31-1.31-.97-2.38-1.99-3.21z"/></svg>