<svg xmlns="http://www.w3.org/2000/svg" xml:space="preserve" viewBox="0 0 30 30"><path d="M4.64 16.91c0-1.15.36-2.17 1.08-3.07a4.82 4.82 0 0 1 2.73-1.73c.31-1.36 1.02-2.48 2.11-3.36s2.34-1.31 3.75-1.31c1.38 0 2.6.43 3.68 1.28 1.08.85 1.78 1.95 2.1 3.29h.32c.89 0 1.72.22 2.48.65s1.37 1.03 1.81 1.78c.44.75.67 1.58.67 2.47 0 .88-.21 1.69-.63 2.44-.42.75-1 1.35-1.73 1.8-.73.45-1.53.69-2.4.71-.13 0-.2-.06-.2-.17v-1.33c0-.12.07-.18.2-.18.85-.04 1.58-.38 2.18-1.02s.9-1.39.9-2.26-.33-1.62-.98-2.26-1.42-.96-2.31-.96h-1.61c-.12 0-.18-.06-.18-.17l-.08-.58a4.076 4.076 0 0 0-1.39-2.71c-.82-.73-1.76-1.09-2.85-1.09s-2.05.36-2.85 1.09a4.02 4.02 0 0 0-1.36 2.71l-.07.53c0 .12-.07.19-.2.19l-.53.03c-.83.1-1.53.46-2.1 1.07s-.85 1.33-.85 2.16c0 .87.3 1.62.9 2.26s1.33.98 2.18 1.02c.11 0 .17.06.17.18v1.33c0 .11-.06.17-.17.17-1.34-.06-2.47-.57-3.4-1.53s-1.37-2.1-1.37-3.43zm5.35 6.69c0-.04.01-.11.04-.2l1.63-5.77a.837.837 0 0 1 1.02-.56c.24.04.42.17.54.37.12.2.15.42.08.67l-1.63 5.73c-.12.43-.4.64-.82.64-.04 0-.07-.01-.11-.02-.06-.02-.09-.03-.1-.03a.831.831 0 0 1-.49-.33.895.895 0 0 1-.16-.5zm2.62 2.81 2.44-8.77c.04-.19.14-.34.3-.44.16-.1.32-.15.49-.15.09 0 .18.01.27.03.22.06.38.19.49.39.11.2.13.41.07.64l-2.43 8.78c-.04.17-.13.31-.29.43-.16.12-.32.18-.51.18-.09 0-.18-.02-.25-.05-.2-.05-.37-.18-.52-.39-.11-.18-.13-.39-.06-.65zm4.13-2.79c0-.04.01-.11.04-.23l1.63-5.77a.83.83 0 0 1 .3-.44c.15-.1.3-.15.46-.15.08 0 .17.01.26.03.21.06.36.16.46.31.1.15.15.31.15.47 0 .03-.01.08-.02.14s-.02.1-.02.12l-1.63 5.73c-.04.19-.13.35-.28.46s-.32.17-.51.17l-.24-.05a.809.809 0 0 1-.46-.32.916.916 0 0 1-.14-.47z"/></svg>