<svg xmlns="http://www.w3.org/2000/svg" xml:space="preserve" viewBox="0 0 30 30"><path d="M11.01 12.23c0-.26.13-.59.38-1.01.25-.42.5-.77.73-1.04.06-.07.14-.17.23-.28s.15-.17.16-.18l.37.43c.28.31.53.66.76 1.07.23.41.35.74.35 1.01 0 .41-.14.77-.43 1.06-.28.29-.63.44-1.05.44-.41 0-.77-.15-1.06-.44-.29-.3-.44-.65-.44-1.06zm3.12 4.15c0-.29.08-.62.24-1.01.16-.38.36-.74.6-1.06.46-.61.89-1.12 1.31-1.53.04-.03.13-.11.26-.24l.25.24c.39.37.83.88 1.32 1.52.26.34.46.7.62 1.08s.24.71.24 1c0 .69-.23 1.26-.7 1.73s-1.05.7-1.73.7c-.68 0-1.25-.24-1.72-.71s-.69-1.05-.69-1.72zm1.52-6.9c0-.43.33-1 1-1.7l.25.28c.19.22.36.46.51.74.15.27.23.5.23.68 0 .28-.1.5-.29.69-.19.18-.42.28-.7.28-.29 0-.53-.09-.72-.28a.976.976 0 0 1-.28-.69z"/></svg>