<svg xmlns="http://www.w3.org/2000/svg" xml:space="preserve" viewBox="0 0 30 30"><path d="M4.63 16.91c0 1.11.33 2.1.99 2.97s1.51 1.47 2.56 1.79l-.65 1.68c-.03.14.02.22.14.22H9.8l-1.04 3.78h.28l3.97-5.22c.04-.04.04-.09.02-.14s-.07-.07-.14-.07h-2.18l2.48-4.64c.06-.14.02-.21-.14-.21h-2.94a.25.25 0 0 0-.22.14L8.8 20.08c-.71-.18-1.3-.57-1.77-1.16s-.7-1.26-.7-2.01c0-.83.28-1.55.84-2.16s1.26-.96 2.1-1.06l.52-.07c.13 0 .2-.06.2-.17l.07-.52c.1-1.08.55-1.99 1.36-2.72.81-.73 1.76-1.1 2.85-1.1s2.04.37 2.85 1.1c.82.73 1.28 1.64 1.4 2.72l.06.58c0 .12.06.18.19.18h1.61c.91 0 1.68.32 2.32.95.64.63.96 1.39.96 2.28 0 .85-.3 1.59-.89 2.21-.59.62-1.32.96-2.19 1.03-.13 0-.2.06-.2.19v1.37c0 .11.07.17.2.17.65-.02 1.27-.17 1.86-.44.59-.27 1.1-.63 1.52-1.07.42-.44.76-.96 1.01-1.57.25-.6.38-1.23.38-1.88 0-.9-.22-1.73-.67-2.49a4.96 4.96 0 0 0-4.29-2.46h-.32c-.33-1.33-1.03-2.42-2.11-3.26-1.08-.84-2.3-1.27-3.68-1.27-1.41 0-2.67.44-3.76 1.31s-1.79 1.99-2.1 3.36c-1.1.26-2.01.83-2.73 1.73s-1.06 1.91-1.06 3.06zm8.16 9.86a.822.822 0 0 0 .61.78c.14.03.22.05.25.05.09 0 .21-.03.38-.1.21-.09.35-.27.42-.52l.28-1.05c.06-.22.04-.43-.08-.63s-.29-.33-.53-.4a.776.776 0 0 0-.63.08c-.2.12-.34.29-.41.53l-.27 1c-.01.17-.02.26-.02.26zM14.13 22c0 .14.05.29.15.44.1.15.25.26.45.33.22.07.44.06.64-.05s.33-.28.4-.52l.3-1.04c.06-.22.03-.43-.08-.63-.12-.2-.3-.34-.53-.41-.23-.06-.44-.04-.65.08s-.34.29-.41.52l-.24 1.01c-.02.17-.03.26-.03.27zm2.82 1.65c0 .17.05.34.16.51.11.17.27.28.47.35.02 0 .06.01.12.02.05.01.09.02.12.02.13 0 .26-.02.38-.08.19-.07.33-.26.41-.57l.25-1.01c.07-.23.05-.45-.06-.66a.832.832 0 0 0-.5-.42.926.926 0 0 0-.68.08c-.2.12-.33.3-.37.53l-.27 1.03c-.02.06-.03.13-.03.2zm1.36-4.79c-.01.16.04.31.15.47.11.16.27.28.49.38.08.04.16.06.26.06.11 0 .22-.03.34-.08.21-.1.35-.29.44-.57l.29-1.03c.02-.13.03-.2.03-.22 0-.17-.05-.33-.16-.49s-.27-.27-.49-.33c-.02 0-.06-.01-.11-.02-.06-.03-.1-.03-.13-.03-.17 0-.33.05-.49.15-.16.1-.27.26-.33.48l-.27 1.01c-.01.08-.02.15-.02.22z"/></svg>