<svg xmlns="http://www.w3.org/2000/svg" xml:space="preserve" viewBox="0 0 30 30"><path d="M6.35 12.46c0-.94.3-1.77.9-2.5s1.37-1.21 2.31-1.43c.23-1.11.79-2.03 1.7-2.75a4.89 4.89 0 0 1 3.12-1.08c1.12 0 2.13.35 3 1.04.88.69 1.45 1.59 1.72 2.7h.28c.76 0 1.46.16 2.12.49s1.18.77 1.57 1.34c.39.57.59 1.18.59 1.84 0 1.12-.43 2.08-1.29 2.86 0 .35-.11.75-.32 1.2-.22.45-.5.86-.87 1.23-.36.37-.73.59-1.1.68-.12.62-.41 1.14-.86 1.57s-.99.71-1.63.85c.3.3.45.65.45 1.06 0 .49-.17.91-.52 1.26s-.77.52-1.27.52c-.49 0-.91-.17-1.26-.52s-.53-.77-.53-1.26c0-.06.01-.14.04-.26s.04-.21.04-.27h-.08c-.59 0-1.09-.21-1.51-.63a2.07 2.07 0 0 1-.63-1.51c0-.23.12-.58.37-1.06-.49-.26-.88-.67-1.17-1.26h-1.25a4.296 4.296 0 0 1-2.78-1.3 3.888 3.888 0 0 1-1.14-2.81z"/></svg>