<svg xmlns="http://www.w3.org/2000/svg" xml:space="preserve" viewBox="0 0 30 30"><path d="M9.91 19.56a5.101 5.101 0 0 1 2.24-4.22V5.42c0-.8.27-1.48.82-2.03s1.23-.84 2.03-.84c.81 0 1.49.28 2.04.83.55.56.83 1.23.83 2.03v9.92c.71.49 1.25 1.11 1.64 1.84s.58 1.53.58 2.38c0 .92-.23 1.78-.68 2.56s-1.07 1.4-1.85 1.85-1.63.68-2.56.68c-.92 0-1.77-.23-2.55-.68s-1.4-1.07-1.86-1.85-.68-1.63-.68-2.55zm1.76 0c0 .93.33 1.73.98 2.39.65.66 1.44.99 2.36.99.93 0 1.73-.33 2.4-1s1.01-1.46 1.01-2.37c0-.62-.16-1.2-.48-1.73-.32-.53-.76-.94-1.32-1.23l-.28-.14c-.1-.04-.15-.14-.15-.29V5.42c0-.32-.11-.59-.34-.81-.23-.21-.51-.32-.85-.32-.32 0-.6.11-.83.32-.23.21-.34.48-.34.81v10.74c0 .15-.05.25-.14.29l-.27.14c-.55.29-.98.7-1.29 1.23-.31.53-.46 1.1-.46 1.74z"/></svg>