<svg xmlns="http://www.w3.org/2000/svg" xml:space="preserve" viewBox="0 0 30 30"><path d="M3.74 14.47c0-2.04.51-3.93 1.52-5.66s2.38-3.1 4.11-4.11 3.61-1.51 5.64-1.51c1.52 0 2.98.3 4.37.89s2.58 1.4 3.59 2.4 1.81 2.2 2.4 3.6.89 2.85.89 4.39c0 1.52-.3 2.98-.89 4.37s-1.4 2.59-2.4 3.59-2.2 1.8-3.59 2.39-2.84.89-4.37.89c-1.53 0-3-.3-4.39-.89s-2.59-1.4-3.6-2.4-1.8-2.2-2.4-3.58-.88-2.84-.88-4.37zm2.48 0c0 2.37.86 4.43 2.59 6.18 1.73 1.73 3.79 2.59 6.2 2.59 1.58 0 3.05-.39 4.39-1.18s2.42-1.85 3.21-3.2 1.19-2.81 1.19-4.39-.4-3.05-1.19-4.4-1.86-2.42-3.21-3.21c-1.35-.79-2.81-1.18-4.39-1.18s-3.05.39-4.39 1.18c-1.35.79-2.42 1.86-3.22 3.21s-1.18 2.82-1.18 4.4zm5.62-4.23c.06-.22.19-.39.38-.5.2-.12.41-.15.64-.09s.4.19.51.38l.78 1.3V7.81c0-.23.08-.43.24-.59s.36-.24.59-.24.43.08.59.24.24.36.24.59v6.67c0 .23-.08.43-.24.59s-.36.24-.59.24c-.4 0-.66-.18-.79-.53l-2.26-3.91a.78.78 0 0 1-.09-.63z"/></svg>