<svg xmlns="http://www.w3.org/2000/svg" xml:space="preserve" viewBox="0 0 30 30"><path d="M7.39 22.61c-.12-.27-.09-.54.09-.81l1.4-2.67c.01-.04.05-.09.11-.15.04-.04.17-.14.38-.29.02-.01.25-.18.68-.5.48-.32 1.03-.72 1.68-1.19l1.8-2.98c.17-.27.41-.41.72-.41h.7c-.16.19-.31.39-.45.6-.14.21-.27.5-.38.85-.12.36-.18.71-.18 1.07 0 .36.09.77.28 1.25.19.47.48.94.88 1.39.27.31.44.62.5.93s.02.58-.1.83c-.12.25-.32.5-.59.74-.27.24-.56.45-.88.63-.32.18-.68.35-1.07.52-.39.17-.75.3-1.05.41-.31.1-.62.2-.93.29H8.16c-.16 0-.32-.05-.46-.14a.703.703 0 0 1-.31-.37zm2.75-14.87c0-.46.15-.88.45-1.24.3-.37.69-.6 1.16-.72.11-.56.4-1.02.85-1.38s.98-.54 1.56-.54c.56 0 1.06.17 1.5.52s.73.8.86 1.35h.14c.57 0 1.07.18 1.5.54.42.36.64.79.64 1.3 0 .56-.22 1.03-.65 1.43 0 .27-.12.59-.36.93-.24.35-.5.55-.78.61-.06.31-.21.57-.43.78-.23.22-.5.36-.82.43.15.16.22.34.22.54 0 .25-.09.46-.26.63a.89.89 0 0 1-.64.25c-.24 0-.45-.09-.63-.26a.817.817 0 0 1-.26-.62c0-.03.01-.08.02-.14s.02-.11.02-.13h-.03c-.29 0-.54-.11-.75-.32a1.03 1.03 0 0 1-.32-.75c0-.12.06-.3.18-.53-.24-.12-.43-.33-.57-.63h-.63a2.21 2.21 0 0 1-1.39-.65c-.38-.38-.58-.85-.58-1.4zm4.62 7.74c0-.16.02-.34.07-.54s.11-.35.16-.47.12-.27.21-.45.15-.31.19-.41h.38c.28 0 .49.11.66.32l.07.1 1.31 2.48 4.65 5.23.04.03c.21.27.24.56.08.88-.15.31-.4.46-.75.46H16.2c.17-.16.32-.29.44-.39.12-.11.27-.27.45-.49s.33-.43.42-.61.17-.42.23-.69c.06-.27.07-.53.01-.79-.06-.25-.18-.53-.38-.84-.19-.31-.46-.61-.81-.91-.34-.3-.64-.59-.88-.88-.24-.28-.43-.54-.56-.76-.13-.22-.23-.45-.29-.68-.04-.23-.07-.43-.07-.59z"/></svg>