<svg xmlns="http://www.w3.org/2000/svg" xml:space="preserve" viewBox="0 0 30 30"><path d="M4.97 13.5c0 .18.06.31.17.4.12.11.26.17.42.17h10.4c.18 0 .33.06.46.19.13.12.2.28.2.46s-.07.34-.2.47a.629.629 0 0 1-.93-.01.603.603 0 0 0-.4-.16c-.16 0-.3.05-.41.16-.11.11-.16.24-.16.39 0 .16.06.3.17.41.36.36.78.53 1.28.53.49 0 .91-.17 1.26-.52s.52-.77.52-1.27c0-.49-.17-.92-.52-1.27s-.77-.53-1.26-.53H5.56c-.16 0-.3.06-.42.17-.11.12-.17.25-.17.41zm0-2.02c0 .17.06.3.17.39.12.11.26.16.42.16h13.81c.49 0 .92-.18 1.27-.52.35-.35.52-.77.52-1.27 0-.49-.17-.91-.52-1.26s-.77-.52-1.27-.52c-.49 0-.91.17-1.27.51a.64.64 0 0 0-.16.41c0 .16.05.3.16.4.11.1.24.15.4.15.15 0 .29-.05.41-.16a.61.61 0 0 1 .45-.18c.17 0 .33.06.46.18s.2.27.2.45-.07.34-.2.47c-.13.13-.28.2-.46.2H5.56c-.16 0-.3.06-.42.17-.11.12-.17.26-.17.42zm13.07 7.9c-.02.32.01.62.12.91.1.29.27.56.5.81.23.25.55.44.98.59.42.15.92.22 1.49.22.58 0 1.09-.08 1.53-.23s.8-.34 1.05-.57c.25-.22.45-.49.61-.79.16-.3.27-.57.32-.82.05-.25.08-.49.08-.74 0-.67-.21-1.21-.64-1.61s-.98-.61-1.65-.61c-.69 0-1.18.14-1.45.43h-.02l.35-1.02h3.45l.39-1.88h-5.24l-1.45 4.46h2c.16-.34.53-.51 1.11-.51.32 0 .58.08.77.25.19.17.29.41.29.75s-.12.61-.35.82c-.23.21-.57.31-1 .31-.31 0-.56-.06-.73-.17-.21-.11-.33-.31-.36-.6h-2.15z"/></svg>