<svg xmlns="http://www.w3.org/2000/svg" xml:space="preserve" viewBox="0 0 30 30"><path d="M5.09 13.5c0 .18.06.31.17.4.12.11.26.17.42.17h10.4c.18 0 .33.06.46.19.13.12.2.28.2.46s-.07.34-.2.47a.629.629 0 0 1-.93-.01.603.603 0 0 0-.4-.16c-.16 0-.3.05-.41.16-.11.11-.16.24-.16.39 0 .16.06.3.17.41.36.36.78.53 1.27.53s.91-.17 1.26-.52.52-.77.52-1.27c0-.49-.17-.92-.52-1.27s-.77-.53-1.26-.53H5.68c-.16 0-.3.06-.42.17-.12.12-.17.25-.17.41zm0-2.02c0 .17.06.3.17.39.12.11.26.16.42.16h13.81c.49 0 .92-.18 1.27-.52.35-.35.52-.77.52-1.27 0-.49-.17-.91-.52-1.26s-.77-.52-1.27-.52c-.49 0-.91.17-1.27.51-.11.12-.16.27-.16.42 0 .16.05.3.16.4.11.1.24.15.4.15.15 0 .29-.05.41-.16a.61.61 0 0 1 .45-.18c.17 0 .33.06.46.18s.2.27.2.45-.07.34-.2.47c-.13.13-.28.2-.46.2H5.68c-.16 0-.3.06-.42.17a.53.53 0 0 0-.17.41zm13.09 8.28c.02.39.11.73.28 1.02.17.29.39.51.67.67.28.16.58.27.9.34s.67.11 1.04.11c.57 0 1.09-.11 1.55-.32.47-.21.84-.48 1.13-.81.29-.33.53-.7.73-1.13s.33-.84.41-1.23.12-.78.12-1.15c0-1.06-.27-1.87-.81-2.43-.54-.57-1.26-.85-2.17-.85-.93 0-1.72.28-2.36.85-.64.57-.97 1.32-.97 2.24 0 .66.21 1.2.63 1.62.42.42.96.63 1.63.63.36 0 .7-.07 1.05-.22.34-.14.58-.33.72-.54h.03c-.12.48-.31.88-.58 1.22-.27.34-.62.51-1.06.51-.29 0-.48-.03-.59-.1a.743.743 0 0 1-.24-.42h-2.11zm2.57-2.88c0-.31.1-.58.29-.81.19-.23.48-.34.86-.34.34 0 .6.09.77.26.18.17.27.43.27.76 0 .09-.02.2-.06.31s-.1.23-.18.36c-.08.12-.2.23-.37.31s-.35.12-.56.12-.39-.04-.54-.11a.7.7 0 0 1-.32-.29c-.07-.12-.11-.22-.14-.31s-.02-.18-.02-.26z"/></svg>