<svg xmlns="http://www.w3.org/2000/svg" xml:space="preserve" viewBox="0 0 30 30"><path d="M3.15 13.5c0 .18.06.31.17.4.12.11.26.17.42.17h10.4c.18 0 .33.06.46.19.13.12.2.28.2.46s-.07.34-.2.47a.629.629 0 0 1-.93-.01.584.584 0 0 0-.4-.16c-.16 0-.3.05-.41.16-.11.11-.16.24-.16.39 0 .16.06.3.17.41.36.36.78.53 1.27.53s.91-.17 1.26-.52.52-.77.52-1.27c0-.49-.17-.92-.52-1.27s-.77-.53-1.26-.53H3.75c-.16 0-.3.06-.42.17-.12.12-.18.25-.18.41zm0-2.02c0 .17.06.3.17.39.12.11.26.16.42.16h13.81c.49 0 .92-.18 1.27-.52.35-.35.52-.77.52-1.27 0-.49-.17-.91-.52-1.26s-.77-.52-1.27-.52c-.49 0-.91.17-1.27.51-.11.12-.16.27-.16.42 0 .16.05.3.16.4.11.1.24.15.4.15.15 0 .29-.05.41-.16a.61.61 0 0 1 .45-.18c.17 0 .33.06.46.18s.2.27.2.45-.07.34-.2.47c-.13.13-.28.2-.46.2H3.75c-.16 0-.3.06-.42.17-.12.11-.18.25-.18.41zM15.97 21.8h2.46l1.64-7.94h-2.45l-1.65 7.94zm4.19-2.92c0 .52.08.98.24 1.38s.38.72.66.95c.27.23.58.4.9.52s.68.17 1.05.17c.61 0 1.16-.12 1.64-.38.48-.25.86-.56 1.13-.93.27-.37.5-.79.68-1.25.18-.47.3-.89.37-1.27.06-.38.09-.73.09-1.05 0-.97-.27-1.72-.8-2.25s-1.24-.8-2.13-.8c-1.03 0-1.93.46-2.7 1.37-.75.92-1.13 2.1-1.13 3.54zm2.05.1c0-.16.01-.35.04-.59.03-.23.08-.51.16-.84.08-.32.18-.62.3-.9.12-.27.29-.5.52-.69.22-.19.47-.29.75-.29.27 0 .48.09.65.27.16.18.24.44.24.79 0 .96-.17 1.78-.5 2.45s-.75 1.01-1.23 1.01c-.62 0-.93-.4-.93-1.21z"/></svg>