<svg xmlns="http://www.w3.org/2000/svg" xml:space="preserve" viewBox="0 0 30 30"><path d="M5.01 13.5c0 .18.06.31.17.4.12.11.26.17.42.17H16c.17 0 .33.06.46.19.13.12.2.28.2.46s-.07.34-.2.47a.629.629 0 0 1-.93-.01.603.603 0 0 0-.4-.16c-.16 0-.3.05-.41.16-.11.11-.16.24-.16.39 0 .16.06.3.17.41.36.36.78.53 1.28.53s.91-.17 1.26-.52.52-.77.52-1.27c0-.49-.17-.92-.52-1.27s-.77-.53-1.26-.53H5.6c-.16 0-.3.06-.42.17-.11.12-.17.25-.17.41zm0-2.02c0 .17.06.3.17.39.12.11.26.16.42.16h13.81c.49 0 .92-.18 1.27-.52.35-.35.52-.77.52-1.27 0-.49-.17-.91-.52-1.26s-.77-.52-1.27-.52c-.49 0-.91.17-1.27.51-.11.12-.16.27-.16.42 0 .16.05.3.16.4.11.1.24.15.4.15.15 0 .29-.05.41-.16a.61.61 0 0 1 .45-.18c.17 0 .33.06.46.18s.2.27.2.45-.07.34-.2.47c-.13.13-.28.2-.46.2H5.6c-.16 0-.3.06-.42.17-.11.11-.17.25-.17.41zm13.26 7.42c0 .52.08.98.24 1.37s.38.71.66.94c.28.23.58.4.91.52.33.11.68.17 1.05.17.51 0 .98-.09 1.41-.26.43-.17.77-.4 1.05-.69.27-.29.51-.61.71-.95.2-.34.35-.7.45-1.08s.18-.72.23-1.03.07-.6.07-.86c0-.97-.27-1.72-.8-2.25s-1.24-.8-2.12-.8c-.49 0-.97.12-1.43.35s-.87.56-1.23.98c-.36.42-.65.94-.86 1.56-.23.62-.34 1.3-.34 2.03zm2.05.06c0-.15.01-.34.04-.58.03-.23.08-.51.16-.83.08-.32.18-.62.3-.89s.29-.5.52-.69c.22-.19.47-.29.75-.29.27 0 .49.09.65.26.16.17.23.44.23.79 0 .96-.17 1.78-.5 2.45s-.74 1.01-1.23 1.01c-.61 0-.92-.41-.92-1.23z"/></svg>