<svg xmlns="http://www.w3.org/2000/svg" xml:space="preserve" viewBox="0 0 30 30"><path d="M4.98 13.5c0 .18.06.31.17.4.12.11.26.17.42.17h10.4c.17 0 .33.06.46.19.13.12.2.28.2.46s-.07.34-.2.47a.629.629 0 0 1-.93-.01.584.584 0 0 0-.4-.16c-.16 0-.3.05-.41.16-.11.11-.16.24-.16.39 0 .16.06.3.17.41.36.36.78.53 1.27.53s.91-.17 1.26-.52.52-.77.52-1.27c0-.49-.17-.92-.52-1.27s-.77-.53-1.26-.53H5.57c-.16 0-.3.06-.42.17-.11.12-.17.25-.17.41zm0-2.02c0 .17.06.3.17.39.12.11.26.16.42.16h13.81c.49 0 .92-.18 1.27-.52.35-.35.52-.77.52-1.27 0-.49-.17-.91-.52-1.26s-.77-.52-1.27-.52c-.49 0-.91.17-1.27.51-.11.12-.16.27-.16.42 0 .16.05.3.16.4.11.1.24.15.4.15.15 0 .29-.05.41-.16a.61.61 0 0 1 .45-.18c.17 0 .33.06.46.18s.2.27.2.45-.07.34-.2.47c-.13.13-.28.2-.46.2H5.57c-.16 0-.3.06-.42.17-.11.11-.17.25-.17.41zm13 8.87h3.57l-.32 1.55h2.2l.36-1.55h1.01l.36-1.9h-1l.9-4.34h-2.22l-4.43 4.16-.43 2.08zm2.25-1.9 2.24-2.21h.03l-.49 2.21h-1.78z"/></svg>