<svg xmlns="http://www.w3.org/2000/svg" xml:space="preserve" viewBox="0 0 30 30"><path d="M3.07 13.5c0 .18.06.31.17.4.12.11.26.17.42.17h10.4c.17 0 .33.06.46.19.13.12.2.28.2.46s-.07.34-.2.47a.629.629 0 0 1-.93-.01.603.603 0 0 0-.4-.16c-.16 0-.3.05-.41.16-.11.11-.16.24-.16.39 0 .16.06.3.17.41.36.36.78.53 1.28.53s.91-.17 1.26-.52.52-.77.52-1.27c0-.49-.17-.92-.52-1.27s-.77-.53-1.26-.53H3.66c-.16 0-.3.06-.42.17-.11.12-.17.25-.17.41zm0-2.02c0 .17.06.3.17.39.12.11.26.16.42.16h13.81c.49 0 .92-.18 1.27-.52.35-.35.52-.77.52-1.27 0-.49-.17-.91-.52-1.26s-.77-.52-1.27-.52c-.49 0-.91.17-1.27.51-.11.12-.16.27-.16.42 0 .16.05.3.16.4.11.1.24.15.4.15.15 0 .29-.05.41-.16a.61.61 0 0 1 .45-.18c.17 0 .33.06.46.18s.2.27.2.45-.07.34-.2.47c-.13.13-.28.2-.46.2H3.66c-.16 0-.3.06-.42.17-.11.11-.17.25-.17.41zM15.96 21.9h2.47l1.65-7.99h-2.47l-1.65 7.99zm3.55 0h6.62l.4-1.9h-3.67v-.02c.2-.09.49-.22.86-.37.38-.15.69-.28.95-.38s.54-.25.86-.44c.32-.19.58-.38.77-.58s.36-.45.5-.75.21-.64.21-1c0-.56-.14-1.02-.43-1.4-.29-.38-.65-.64-1.08-.8-.43-.16-.92-.23-1.45-.23-.97 0-1.76.26-2.37.78-.61.52-.98 1.29-1.1 2.31h2.07c0-.38.11-.69.33-.95.22-.26.53-.38.93-.38.3 0 .52.08.67.24.15.16.22.34.22.55 0 .32-.11.58-.33.76-.22.18-.63.42-1.25.72-.04.01-.07.02-.08.04-.89.43-1.44.7-1.65.83-.79.47-1.34 1.06-1.65 1.74-.16.36-.27.77-.33 1.23z"/></svg>