<svg xmlns="http://www.w3.org/2000/svg" width="20" height="20" viewBox="0 0 20 20"><path d="M10.75 6.37c.64-.22 1.15-.73 1.37-1.37H15l-2.5 5.75c0 1.24 1.23 2.25 2.75 2.25S18 11.99 18 10.75L15.5 5H17V3.5h-4.88C11.81 2.63 10.98 2 10 2s-1.81.63-2.12 1.5H3V5h1.5L2 10.75C2 11.99 3.23 13 4.75 13s2.75-1.01 2.75-2.25L5 5h2.88c.22.64.73 1.15 1.37 1.37v9.13H2V17h16v-1.5h-7.25V6.37zm6.16 4.38h-3.32l1.66-3.82 1.66 3.82zm-10.5 0H3.09l1.66-3.82 1.66 3.82zM10 5c-.41 0-.75-.34-.75-.75s.34-.75.75-.75.75.34.75.75S10.41 5 10 5z"/></svg>