<svg xmlns="http://www.w3.org/2000/svg" width="20" height="20" viewBox="0 0 20 20"><path d="M13.25 3c-2.37 0-4.33 1.73-4.69 4H4.87l.66-.66c.29-.29.29-.77 0-1.06a.754.754 0 0 0-1.06 0L2.71 7.04a.996.996 0 0 0 0 1.41l1.76 1.76c.29.29.77.29 1.06 0 .29-.29.29-.77 0-1.06l-.66-.65h3.69c.74 0 1.36-.54 1.48-1.25a3.25 3.25 0 0 1 3.21-2.75c1.79 0 3.25 1.46 3.25 3.25a3.25 3.25 0 0 1-2.73 3.21c-.72.11-1.27.67-1.27 1.4v3.89c0 .41.34.75.75.75s.75-.34.75-.75v-3.81c2.27-.36 4-2.32 4-4.69C18 5.13 15.87 3 13.25 3"/></svg>