<svg xmlns="http://www.w3.org/2000/svg" width="20" height="20" viewBox="0 0 20 20"><path d="M17.07 17.07 2.93 2.93 1.87 3.99 3 5.12V8c1.1 0 2 .9 2 2s-.9 2-2 2v3.5c0 .83.67 1.5 1.5 1.5H8c0-1.1.9-2 2-2s2 .9 2 2h2.88l1.13 1.13 1.06-1.06zM10 13.5c-1.39 0-2.6.82-3.16 2H4.5v-2.34c1.18-.56 2-1.77 2-3.16a3.4 3.4 0 0 0-.66-2.03l6.19 6.19A3.4 3.4 0 0 0 10 13.5zm9-3.5c0 1.1-.9 2-2 2v2.88l-1.5-1.5V10.5H17c.28 0 .5-.22.5-.5s-.22-.5-.5-.5h-1.5v-5h-5V3c0-.28-.22-.5-.5-.5s-.5.22-.5.5v1.5H6.62L5.12 3H8c0-1.1.9-2 2-2s2 .9 2 2h3.5c.83 0 1.5.67 1.5 1.5V8c1.1 0 2 .9 2 2z"/></svg>