<svg xmlns="http://www.w3.org/2000/svg" width="20" height="20" viewBox="0 0 20 20"><path d="M10.5 3a5.51 5.51 0 0 0-5.37 4.3L3.2 10.2c-.52.77.04 1.8.96 1.8h.83v1.5c0 .83.67 1.5 1.5 1.5H8v2h5.5v-3.89C15 12.12 16 10.43 16 8.5 16 5.46 13.54 3 10.5 3zm-.25 9c-.35 0-.63-.28-.63-.63s.28-.62.63-.62.62.27.62.62c.01.35-.26.63-.62.63zm1.51-3.7c-.38.56-.74.73-.93 1.09-.08.14-.11.24-.11.71H9.8c0-.25-.04-.65.16-.99.24-.44.71-.7.98-1.08.29-.41.13-1.16-.68-1.16-.53 0-.79.4-.9.74l-.83-.36C8.76 6.58 9.36 6 10.25 6c.74 0 1.25.34 1.5.76.22.36.35 1.04.01 1.54z"/></svg>