<svg xmlns="http://www.w3.org/2000/svg" width="20" height="20" viewBox="0 0 20 20"><path d="M11.25 5h-7.5c-.41 0-.75.34-.75.75s.34.75.75.75h7.5c.41 0 .75-.34.75-.75S11.66 5 11.25 5zm-7.5 7.5h4.5c.41 0 .75-.34.75-.75S8.66 11 8.25 11h-4.5c-.41 0-.75.34-.75.75s.34.75.75.75zm7.5-4.5h-7.5c-.41 0-.75.34-.75.75s.34.75.75.75h7.5c.41 0 .75-.34.75-.75S11.66 8 11.25 8zm6-3H15c-.55 0-1 .45-1 1v5.21c-.52-.23-1.13-.29-1.77-.09-.79.25-1.43.9-1.64 1.7-.44 1.67.8 3.17 2.39 3.19 1.41.01 2.52-1.25 2.52-2.66V6.51h1.75a.77.77 0 0 0 .75-.76c0-.41-.34-.75-.75-.75z"/></svg>