<svg xmlns="http://www.w3.org/2000/svg" width="20" height="20" viewBox="0 0 20 20"><path d="M14 11.88V6H8.12l1.5 1.5h2.88v2.88l1.5 1.5zM4.5 17v-1.5H3V17h1.5zM3 13.88h1.5v-1.5H3v1.5zm0-3.13h1.5v-1.5H3v1.5zm12.5 0H17v-1.5h-1.5v1.5zm0-3.13H17v-1.5h-1.5v1.5zm0-4.62v1.5H17V3h-1.5zm-3.12 1.5h1.5V3h-1.5v1.5zm-3.13 0h1.5V3h-1.5v1.5zM6.12 17h1.5v-1.5h-1.5V17zm3.13 0h1.5v-1.5h-1.5V17zm7.82.07L2.93 2.93 1.87 3.99 4 6.12H3v1.5h1.5v-1L6 8.12V14h5.88l1.5 1.5h-1V17h1.5v-1l2.13 2.13 1.06-1.06zM7.62 4.5V3h-1.5v1l.5.5h1zM17 13.88v-1.5h-1.5v1l.5.5h1zm-6.62-1.38H7.5V9.62l2.88 2.88z"/></svg>