<svg xmlns="http://www.w3.org/2000/svg" width="20" height="20" viewBox="0 0 20 20"><path d="M10.34 6.06a.496.496 0 0 0-.68 0C8.23 7.45 8 9.14 8 10c0 .85.23 2.55 1.66 3.94.18.18.5.18.68 0C11.77 12.55 12 10.85 12 10c0-.85-.23-2.55-1.66-3.94z"/><path d="M9.15 5.19A5.42 5.42 0 0 0 6.5 4.5C3.46 4.5 1 6.96 1 10s2.46 5.5 5.5 5.5c.96 0 1.86-.25 2.65-.69C7.23 13.08 7 10.89 7 10c0-.89.23-3.08 2.15-4.81zm4.35-.69c-.96 0-1.86.25-2.65.69.42.38.77.77 1.04 1.18.49-.23 1.03-.37 1.61-.37 2.21 0 4 1.79 4 4s-1.79 4-4 4c-.58 0-1.12-.14-1.61-.36-.27.4-.62.8-1.04 1.18.79.43 1.69.69 2.65.69 3.04 0 5.5-2.46 5.5-5.5 0-3.05-2.46-5.51-5.5-5.51z"/></svg>