<svg xmlns="http://www.w3.org/2000/svg" width="20" height="20" viewBox="0 0 20 20"><path d="M14 3H6c-.55 0-1 .45-1 1v1c0 .55.45 1 1 1h8c.55 0 1-.45 1-1V4c0-.55-.45-1-1-1zm0 2H6V4h8v1zm2 12H4c-.55 0-1-.45-1-1v-1h14v1c0 .55-.45 1-1 1zm-1.74-9.39c-.16-.37-.52-.61-.92-.61H6.66c-.4 0-.76.24-.92.61L3 14h14l-2.74-6.39zM7.75 13h-.5c-.28 0-.5-.22-.5-.5s.22-.5.5-.5h.5c.28 0 .5.22.5.5s-.22.5-.5.5zm0-2h-.5c-.28 0-.5-.22-.5-.5s.22-.5.5-.5h.5c.28 0 .5.22.5.5s-.22.5-.5.5zm0-2h-.5c-.28 0-.5-.22-.5-.5s.22-.5.5-.5h.5c.28 0 .5.22.5.5s-.22.5-.5.5zm2.5 4h-.5c-.28 0-.5-.22-.5-.5s.22-.5.5-.5h.5c.28 0 .5.22.5.5s-.22.5-.5.5zm0-2h-.5c-.28 0-.5-.22-.5-.5s.22-.5.5-.5h.5c.28 0 .5.22.5.5s-.22.5-.5.5zm0-2h-.5c-.28 0-.5-.22-.5-.5s.22-.5.5-.5h.5c.28 0 .5.22.5.5s-.22.5-.5.5zm2.5 4h-.5c-.28 0-.5-.22-.5-.5s.22-.5.5-.5h.5c.28 0 .5.22.5.5s-.22.5-.5.5zm0-2h-.5c-.28 0-.5-.22-.5-.5s.22-.5.5-.5h.5c.28 0 .5.22.5.5s-.22.5-.5.5zm0-2h-.5c-.28 0-.5-.22-.5-.5s.22-.5.5-.5h.5c.28 0 .5.22.5.5s-.22.5-.5.5z"/></svg>