<svg xmlns="http://www.w3.org/2000/svg" width="20" height="20" viewBox="0 0 20 20"><path d="M14.91 7.07c-.01-.04-.01-.08-.02-.12-.06-.28-.15-.56-.26-.82-.02-.05-.04-.09-.06-.14-.11-.26-.25-.5-.4-.74-.03-.04-.05-.08-.08-.11a4.28 4.28 0 0 0-.55-.66l-.05-.05c-.2-.2-.42-.38-.66-.54-.02-.02-.04-.03-.06-.05-.24-.16-.49-.29-.75-.41-.04-.02-.09-.04-.13-.06-.26-.11-.53-.19-.81-.25l-.15-.03c-.29-.05-.59-.08-.89-.09H10c-.1 0-.21.01-.31.02-.06 0-.12 0-.18.01-.2.01-.39.04-.58.08-1.94.4-3.49 2-3.84 3.95-.31 1.72.26 3.3 1.33 4.4.36.38.58.88.58 1.41V16h1.28a1.98 1.98 0 0 0 3.44 0H13v-3.13c0-.52.21-1.02.58-1.4C14.45 10.57 15 9.35 15 8c0-.32-.04-.63-.09-.93zm-6.18-.34L10 8l1.27-1.27.71.71-1.48 1.47V11h-1V8.91L8.03 7.44l.7-.71zM12 15H8v-1h4v1zm0-2H8v-1h4v1z"/></svg>