<svg xmlns="http://www.w3.org/2000/svg" width="20" height="20" viewBox="0 0 20 20"><path d="M5.5 8.5v8h4.21c-.13-.48-.21-.98-.21-1.5 0-2.87 2.2-5.22 5-5.47V8.5h-9z" opacity=".3"/><path d="M5.5 16.5v-8h9v1.03c.16-.02.33-.03.5-.03.34 0 .68.04 1 .1V8.5c0-.83-.67-1.5-1.5-1.5H14V5c0-2.21-1.79-4-4-4S6 2.79 6 5v2h-.5C4.67 7 4 7.67 4 8.5v8c0 .83.67 1.5 1.5 1.5h4.89c-.3-.46-.53-.96-.68-1.5H5.5zM7.5 5a2.5 2.5 0 0 1 5 0v2h-5V5z"/><path d="M15 11c-2.21 0-4 1.79-4 4s1.79 4 4 4 4-1.79 4-4-1.79-4-4-4zm0 1c.83 0 1.5.67 1.5 1.5S15.83 15 15 15s-1.5-.67-1.5-1.5.67-1.5 1.5-1.5zm0 6c-1.09 0-2.03-.58-2.56-1.45.73-.5 1.61-.8 2.56-.8s1.83.3 2.56.8C17.03 17.42 16.09 18 15 18z"/></svg>