<svg xmlns="http://www.w3.org/2000/svg" width="20" height="20" viewBox="0 0 20 20"><path d="M3.5 8.25v7.25h5.05a5.988 5.988 0 0 1 2.99-7.97L8 4.88 3.5 8.25z" opacity=".3"/><path d="M3.5 15.5V8.25L8 4.88l3.54 2.66c.57-.26 1.19-.43 1.84-.5L8 3 2 7.5V17h7.54c-.4-.45-.73-.95-.99-1.5H3.5zM14 12c-.55 0-1 .45-1 1 0 .37.21.67.5.85V18h1v-4.15c.29-.18.5-.48.5-.85 0-.55-.45-1-1-1z"/><path d="M14 8c-2.76 0-5 2.24-5 5 0 1.38.56 2.63 1.46 3.54l.71-.71A4.025 4.025 0 0 1 10 13c0-2.21 1.79-4 4-4s4 1.79 4 4c0 1.18-.52 2.23-1.33 2.96l.67.74C18.35 15.78 19 14.47 19 13c0-2.76-2.24-5-5-5z"/><path d="M14 10a2.996 2.996 0 0 0-2.12 5.12l.71-.71c-.37-.36-.59-.86-.59-1.41 0-1.1.9-2 2-2s2 .9 2 2c0 .59-.26 1.11-.67 1.48l.67.74c.61-.55 1-1.34 1-2.22 0-1.66-1.34-3-3-3z"/></svg>