<svg xmlns="http://www.w3.org/2000/svg" width="20" height="20" viewBox="0 0 20 20"><path d="M9.4 10.69c.07-.18.1-.37.1-.57C9.5 8 6 8 6 8s.25.27.24 1.25l.01.88a1.62 1.62 0 0 0 2.71 1.2c.16.4.4 1.1.42 1.72-1.06.16-1.96.73-2.46 1.51A5.496 5.496 0 0 1 4.5 10c0-3.03 2.47-5.5 5.5-5.5v2l3.5-3.25L10 0v2c-4.42 0-8 3.58-8 8s3.58 8 8 8 8-3.58 8-8h-2.5c0 1.9-.97 3.57-2.43 4.56-.49-.77-1.36-1.33-2.39-1.5.11-.95.33-1.57.63-2.38.32.2.69.32 1.09.32C15 11 15 6.91 15 6c0 0-.5 1-2 1h-.6c-1.1 0-2 .9-2 2 0 .38.11.74.29 1.04.14-.15 1.05-1.09 1.81-1.54-.48.4-1.78 1.93-2.5 3.71-.58-1.13-1.49-2.04-1.75-2.21.44.17.99.58 1.15.69z"/></svg>