<svg xmlns="http://www.w3.org/2000/svg" width="20" height="20" viewBox="0 0 20 20"><path d="M11 5v3c0 .55.45 1 1 1h5c.55 0 1-.45 1-1V5c0-.55-.45-1-1-1h-5c-.55 0-1 .45-1 1zm1 11h5c.55 0 1-.45 1-1v-3c0-.55-.45-1-1-1h-5c-.55 0-1 .45-1 1v3c0 .55.45 1 1 1zm.5-3.5h4v2h-4v-2zM6.1 8.59c.29.29.77.29 1.06 0L9.15 6.6c.2-.2.2-.51 0-.71l-2-2a.754.754 0 0 0-1.06 0c-.29.31-.29.78 0 1.07l.53.53v.01h-.14c-2.74 0-5.19 2-5.45 4.73A5.245 5.245 0 0 0 6.25 16h2.5c.41 0 .75-.34.75-.75s-.34-.75-.75-.75H6.46c-2.03 0-3.85-1.52-3.96-3.55A3.755 3.755 0 0 1 6.25 7h.37v.01l-.52.52c-.29.3-.29.77 0 1.06z"/></svg>