<svg xmlns="http://www.w3.org/2000/svg" width="20" height="20" viewBox="0 0 20 20"><path d="M3.5 4.75a1.25 1.25 0 1 1 2.5 0 1.25 1.25 0 0 1-2.5 0zM10 2c-.74 0-1.45.1-2.13.29-.55.16-.74.84-.33 1.25.19.19.47.27.73.2A6.57 6.57 0 0 1 10 3.5c3.69 0 6.67 3.09 6.49 6.81-.16 3.33-2.86 6.03-6.18 6.18-3.72.18-6.81-2.8-6.81-6.49 0-.6.09-1.18.24-1.73a.76.76 0 0 0-.2-.73.747.747 0 0 0-1.25.33A7.88 7.88 0 0 0 2 10c0 4.48 3.69 8.1 8.19 8 4.24-.1 7.71-3.56 7.81-7.8.1-4.51-3.52-8.2-8-8.2zm0 13c2.76 0 5-2.24 5-5s-2.24-5-5-5-5 2.24-5 5 2.24 5 5 5zm1.5-7.5c.41 0 .75.34.75.75v3.5c0 .41-.34.75-.75.75s-.75-.34-.75-.75v-3.5c0-.41.34-.75.75-.75zm-3 0c.41 0 .75.34.75.75v3.5c0 .41-.34.75-.75.75s-.75-.34-.75-.75v-3.5c0-.41.34-.75.75-.75z"/></svg>