<svg xmlns="http://www.w3.org/2000/svg" width="20" height="20" viewBox="0 0 20 20"><path d="M10 2c-4.42 0-8 3.58-8 8s3.58 8 8 8 8-3.58 8-8-3.58-8-8-8zm-6.5 8c0-1.52.53-2.92 1.41-4.03L6.44 7.5h2.12L5.97 4.91A6.47 6.47 0 0 1 10 3.5c3.58 0 6.5 2.92 6.5 6.5 0 1.52-.53 2.92-1.41 4.03l-1.53-1.53h-2.12l2.59 2.59A6.47 6.47 0 0 1 10 16.5c-3.58 0-6.5-2.92-6.5-6.5z"/><path d="m10.5 10 1-1.5h-1l-.5.75-.5-.75h-1l1 1.5-1 1.5h1l.5-.75.5.75h1zM7 8.5l-.5.75L6 8.5H5L6 10l-1 1.5h1l.5-.75.5.75h1L7 10l1-1.5zm6.25 3 .5-.75.5.75h1l-1-1.5 1-1.5h-1l-.5.75-.5-.75h-1l1 1.5-1 1.5z"/></svg>