<svg xmlns="http://www.w3.org/2000/svg" width="20" height="20" viewBox="0 0 20 20"><path d="M6.22 7.28 4.5 6.5l1.72-.78L7 4l.78 1.72 1.72.78-1.72.78L7 9l-.78-1.72zM7 17l.78-1.72 1.72-.78-1.72-.78L7 12l-.78 1.72-1.72.78 1.72.78L7 17zm-2.5-5 .47-1.03L6 10.5l-1.03-.47L4.5 9l-.47 1.03L3 10.5l1.03.47L4.5 12zm11 4.85c0 .56-.6.92-1.09.65A8.602 8.602 0 0 1 10 10c0-2.2.83-4.24 2.2-5.8l-1.35-1.35a.5.5 0 0 1 .36-.85H15c.28 0 .5.22.5.5v3.79c0 .45-.54.67-.85.35l-1.38-1.38A7.304 7.304 0 0 0 11.5 10a7.05 7.05 0 0 0 3.61 6.16c.24.14.39.4.39.69z"/></svg>