<svg xmlns="http://www.w3.org/2000/svg" width="20" height="20" viewBox="0 0 20 20"><path d="M16.25 10.75c.41 0 .75-.34.75-.75s-.34-.75-.75-.75h-.75V4.5h.75c.41 0 .75-.34.75-.75S16.66 3 16.25 3H3.75c-.41 0-.75.34-.75.75s.34.75.75.75h.75v4.75h-.75c-.41 0-.75.34-.75.75s.34.75.75.75h.75v4.75h-.75c-.41 0-.75.34-.75.75s.34.75.75.75h12.5c.41 0 .75-.34.75-.75s-.34-.75-.75-.75h-.75v-4.75h.75zM10 13c-1.24 0-2.25-.99-2.25-2.21 0-.91.34-1.21 1.87-2.98.2-.23.55-.23.75 0 1.53 1.76 1.87 2.07 1.87 2.98.01 1.22-1 2.21-2.24 2.21z"/></svg>