<svg xmlns="http://www.w3.org/2000/svg" width="20" height="20" viewBox="0 0 20 20"><path d="m13.8 8.94-1.3.58-1.92-4.34c-.28-.63-1.02-.92-1.65-.64a1.25 1.25 0 0 0-.65 1.65l3.54 8-2.61.25c-.33.03-.61.25-.73.56-.17.45.05.96.5 1.13l3.88 1.5c.37.14.78.13 1.15-.03l4.82-2.13c.67-.3 1.03-1.04.84-1.75l-.92-3.59c-.16-.64-.72-1.1-1.38-1.13l-3.12-.15c-.16 0-.31.03-.45.09zM0 10c0-2.91 1.26-5.47 3.18-7H1.52A.52.52 0 0 1 1 2.55c-.03-.3.21-.55.5-.55h3c.28 0 .5.22.5.5v2.98c0 .26-.19.49-.45.52-.3.03-.55-.21-.55-.5V3.63C2.2 4.95 1 7.31 1 10s1.2 5.05 3 6.37v-1.84c0-.26.19-.49.45-.52.3-.04.55.2.55.49v3c0 .28-.22.5-.5.5H1.52a.52.52 0 0 1-.52-.45c-.03-.3.21-.55.5-.55h1.68C1.26 15.47 0 12.91 0 10z"/></svg>