<svg xmlns="http://www.w3.org/2000/svg" width="20" height="20" viewBox="0 0 20 20"><path d="M6.5 6H7c1.1 0 2-.9 2-2s-.9-2-2-2h-.5V1h-1v1H5c-1.1 0-2 .9-2 2s.9 2 2 2h.5v1H3v4h2.5v1H5c-1.1 0-2 .9-2 2s.9 2 2 2h.5v3h1v-3H7c1.1 0 2-.9 2-2s-.9-2-2-2h-.5v-1H9V7H6.5V6zM5 4.5c-.28 0-.5-.22-.5-.5s.22-.5.5-.5h2c.28 0 .5.22.5.5s-.22.5-.5.5H5zm2 9c.28 0 .5.22.5.5s-.22.5-.5.5H5c-.28 0-.5-.22-.5-.5s.22-.5.5-.5h2zm.5-5v1h-3v-1h3zm7-2.5h.5c1.1 0 2-.9 2-2s-.9-2-2-2h-.5V1h-1v1H13c-1.1 0-2 .9-2 2s.9 2 2 2h.5v1H11v4h2.5v1H13c-1.1 0-2 .9-2 2s.9 2 2 2h.5v3h1v-3h.5c1.1 0 2-.9 2-2s-.9-2-2-2h-.5v-1H17V7h-2.5V6zM13 4.5c-.28 0-.5-.22-.5-.5s.22-.5.5-.5h2c.28 0 .5.22.5.5s-.22.5-.5.5h-2zm2 9c.28 0 .5.22.5.5s-.22.5-.5.5h-2c-.28 0-.5-.22-.5-.5s.22-.5.5-.5h2zm.5-5v1h-3v-1h3z"/></svg>