<svg xmlns="http://www.w3.org/2000/svg" width="20" height="20" viewBox="0 0 20 20"><path d="M10.5 4.5v1.55l1 .73V6H13v1.5h-.51l1.01.74v1.48c.48-.14.98-.22 1.5-.22.9 0 1.75.22 2.5.61V4.5h-7zm4 3V6H16v1.5h-1.5z" opacity=".3"/><path d="M14.5 6H16v1.5h-1.5zM13 6h-1.5v.78l.99.72H13z"/><path d="M10.5 4.5h7v5.61c.56.29 1.07.67 1.5 1.13V3H9v1.96l1.5 1.09V4.5zm-4 .5L1 9v8h4.5v-4h2v4h2.38c-.18-.47-.31-.97-.36-1.5H9v-4H4v4H2.5V9.76l4-2.91 4 2.91v2.08c.4-.57.91-1.07 1.5-1.45V9L6.5 5z"/><path d="m6.5 6.85-4 2.91v5.74H4v-4h5v4h.53a4.07 4.07 0 0 1-.03-.5c0-1.18.37-2.26 1-3.16V9.76l-4-2.91z" opacity=".3"/><path d="M19 15c0-2.21-1.79-4-4-4s-4 1.79-4 4 1.79 4 4 4 4-1.79 4-4zm-4.5 2v-1.5H13v-1h1.5V13h1v1.5H17v1h-1.5V17h-1z"/></svg>