<svg xmlns="http://www.w3.org/2000/svg" width="20" height="20" viewBox="0 0 20 20"><circle cx="10" cy="11.5" r="1.25"/><path d="M15.5 9H15V7h.25c.41 0 .75-.34.75-.75s-.34-.75-.75-.75h-.5C14.11 3.48 12.24 2 10 2S5.89 3.48 5.25 5.5h-.5c-.41 0-.75.34-.75.75s.34.75.75.75H5v2h-.5C3.67 9 3 9.67 3 10.5v2c0 .83.67 1.5 1.5 1.5H5v2.5h-.25c-.41 0-.75.34-.75.75s.34.75.75.75h10.5c.41 0 .75-.34.75-.75s-.34-.75-.75-.75H15V14h.5c.83 0 1.5-.67 1.5-1.5v-2c0-.83-.67-1.5-1.5-1.5zM10 14.25c-1.52 0-2.75-1.23-2.75-2.75S8.48 8.75 10 8.75s2.75 1.23 2.75 2.75-1.23 2.75-2.75 2.75z"/></svg>