<svg xmlns="http://www.w3.org/2000/svg" width="20" height="20" viewBox="0 0 20 20"><path d="M5 13.21V14h4.05c-.06-.41-.15-1.17.38-2.14C7.38 11.72 5 12.7 5 13.21z" opacity=".3"/><path d="M9.43 11.86c.36-.68.67-.89.72-.93-2.3-.34-6.15.59-6.15 2.28V15h5.35c-.15-.32-.25-.66-.3-1H5v-.79c0-.5 2.33-1.49 4.43-1.35z"/><circle cx="9" cy="7.5" r="1.5" opacity=".3"/><path d="M9 5a2.5 2.5 0 0 0 0 5 2.5 2.5 0 0 0 0-5zm0 4c-.83 0-1.5-.67-1.5-1.5S8.17 6 9 6s1.5.67 1.5 1.5S9.83 9 9 9zm5.58 5.88c.26-.4.42-.87.42-1.38a2.5 2.5 0 0 0-5 0 2.5 2.5 0 0 0 2.5 2.5c.51 0 .98-.15 1.38-.42l1.48 1.48.71-.71-1.49-1.47zM12.5 15c-.83 0-1.5-.67-1.5-1.5s.67-1.5 1.5-1.5 1.5.67 1.5 1.5-.67 1.5-1.5 1.5z"/></svg>