<svg xmlns="http://www.w3.org/2000/svg" width="20" height="20" viewBox="0 0 20 20"><path d="M2.75 6c.41 0 .75.34.75.75V17.5h8.75c.41 0 .75.34.75.75s-.34.75-.75.75H3.5c-.83 0-1.5-.67-1.5-1.5V6.75c0-.41.34-.75.75-.75zM17 5.62v8.88c0 .83-.67 1.5-1.5 1.5h-9c-.83 0-1.5-.67-1.5-1.5v-12C5 1.67 5.67 1 6.5 1h5.88c.4 0 .78.16 1.06.44l3.12 3.12c.28.28.44.66.44 1.06zm-3.75 6.13c0-.41-.34-.75-.75-.75h-3c-.41 0-.75.34-.75.75s.34.75.75.75h3c.41 0 .75-.34.75-.75zM12.5 6.5h-.75v-.75c0-.41-.34-.75-.75-.75s-.75.34-.75.75v.75H9.5c-.41 0-.75.34-.75.75s.34.75.75.75h.75v.75c0 .41.34.75.75.75s.75-.34.75-.75V8h.75c.41 0 .75-.34.75-.75s-.34-.75-.75-.75z"/></svg>