<svg xmlns="http://www.w3.org/2000/svg" width="20" height="20" viewBox="0 0 20 20"><path d="m20 7.01-1.42 1.42C16.34 6.31 13.32 5 10 5S3.66 6.31 1.42 8.43L0 7.01C2.6 4.53 6.12 3 10 3s7.4 1.53 10 4.01zM3.54 10.54l1.42 1.42A7.478 7.478 0 0 1 10 10c1.94 0 3.71.75 5.04 1.96l1.42-1.42a9.484 9.484 0 0 0-12.92 0zm3.55 3.55L10 17l2.91-2.91C12.12 13.42 11.12 13 10 13s-2.12.42-2.91 1.09zM16.75 16h1.5v-1c0-.41-.34-.75-.75-.75s-.75.34-.75.75v1zM20 19c0 .55-.45 1-1 1h-3c-.55 0-1-.45-1-1v-2c0-.55.45-1 1-1v-1c0-.82.67-1.5 1.5-1.5s1.5.68 1.5 1.5v1c.55 0 1 .45 1 1v2z"/></svg>