<svg xmlns="http://www.w3.org/2000/svg" width="20" height="20" viewBox="0 0 20 20"><path d="M4.5 4.5H6V6c0 .55.45 1 1 1h6c.55 0 1-.45 1-1V4.5h1.5V9H17V4.5c0-.83-.67-1.5-1.5-1.5h-3.57c-.22-.86-1-1.5-1.93-1.5-.93 0-1.71.64-1.93 1.5H4.5C3.67 3 3 3.67 3 4.5v11c0 .83.67 1.5 1.5 1.5H9v-1.5H4.5v-11zM10 3a.749.749 0 1 1 .002 1.498A.749.749 0 0 1 10 3z"/><path d="m18.47 17.41-1.53-1.53c.51-.79.72-1.79.42-2.86a3.501 3.501 0 0 0-2.68-2.46 3.501 3.501 0 0 0-4.12 4.12 3.485 3.485 0 0 0 2.46 2.68c1.07.3 2.07.09 2.86-.42l1.53 1.53c.29.29.77.29 1.06 0s.29-.77 0-1.06zM14 16c-1.1 0-2-.9-2-2 0-.31.07-.61.2-.87.32-.67 1.01-1.13 1.8-1.13 1.1 0 2 .9 2 2s-.9 2-2 2z"/></svg>