<svg xmlns="http://www.w3.org/2000/svg" width="20" height="20" viewBox="0 0 20 20"><path d="M9.25 3.75C9.25 2.78 10.03 2 11 2s1.75.78 1.75 1.75S11.96 5.5 11 5.5s-1.75-.78-1.75-1.75zm2 14.25c.41 0 .75-.34.75-.75v-3.89c0-.27-.11-.52-.29-.71l-1.17-1.17.49-2.48c.74.98 1.82 1.68 3.07 1.91.42.08.83-.2.89-.62a.74.74 0 0 0-.64-.84c-2.46-.28-2.43-2.2-3.46-3.03-.57-.46-1.35-.57-2.03-.28L5.61 7.53c-.37.16-.61.52-.61.93v1.79c0 .42.35.76.77.75.41-.01.73-.37.73-.78V8.78l1.65-.7-1.77 9.02c-.09.47.26.9.73.9.37 0 .68-.27.75-.63l1.06-5.39 1.58 1.59v3.68c0 .41.34.75.75.75zm3.25 0c.28 0 .5-.22.5-.5V12h-1v5.5c0 .28.22.5.5.5zM4.23 18c.23 0 .44-.16.49-.39L6.03 12H5l-1.26 5.38c-.07.32.17.62.49.62z"/></svg>