<svg xmlns="http://www.w3.org/2000/svg" width="20" height="20" viewBox="0 0 20 20"><path d="M16.5 2h-10C5.67 2 5 2.67 5 3.5v10c0 .83.67 1.5 1.5 1.5h10c.83 0 1.5-.67 1.5-1.5v-10c0-.83-.67-1.5-1.5-1.5zm-3.09 9.62-.49-1.41h-2.83l-.5 1.41a.564.564 0 1 1-1.06-.38l2.12-5.65a.906.906 0 0 1 1.7 0l2.12 5.65a.56.56 0 0 1-.53.76c-.24 0-.45-.15-.53-.38z"/><path d="M2.75 5c-.41 0-.75.34-.75.75V16.5c0 .83.67 1.5 1.5 1.5h10.75c.41 0 .75-.34.75-.75s-.34-.75-.75-.75H3.5V5.75c0-.41-.34-.75-.75-.75zm8.72 1.3-1.02 2.89h2.1L11.53 6.3z"/></svg>