<svg xmlns="http://www.w3.org/2000/svg" width="20" height="20" viewBox="0 0 20 20"><path d="M16 3H4c-.55 0-1 .45-1 1v12c0 .55.45 1 1 1h12c.55 0 1-.45 1-1V4c0-.55-.45-1-1-1zM9.45 13.63c.57-.18 1.05-.78 1.15-1.22.1-.42-.08-.78-.15-1.2-.06-.34-.05-.64.06-.96.41.91 1.61 1.23 1.48 2.39-.14 1.26-1.58 1.77-2.54.99zM16 15.5c0 .28-.22.5-.5.5H14v-.5c0-.28-.22-.5-.5-.5h-.83c.81-.7 1.33-1.71 1.33-2.85 0-1.45-.87-2.19-1.48-2.59C10.16 8.01 10.8 6 10.8 6 5.42 8.74 5.99 11.74 6 12.15c.03.95.63 2.06 1.53 2.85H6.5c-.28 0-.5.22-.5.5v.5H4.5c-.28 0-.5-.22-.5-.5v-11c0-.28.22-.5.5-.5h11c.28 0 .5.22.5.5v11z"/></svg>