<svg xmlns="http://www.w3.org/2000/svg" width="20" height="20" viewBox="0 0 20 20"><path d="M10.58 3.42a.99.99 0 0 0-1.16 0L3 8h6.5v8.5c0 .28.22.5.5.5s.5-.22.5-.5V8H17l-6.42-4.58z"/><path d="M7.5 13H4.92l-.47-2.51a.499.499 0 0 0-.98.18L4 13.5v3c0 .28.22.5.5.5s.5-.22.5-.5V14h2v2.5c0 .28.22.5.5.5s.5-.22.5-.5v-3c0-.28-.22-.5-.5-.5zm8.63-2.91a.499.499 0 0 0-.58.4L15.08 13H12.5c-.28 0-.5.22-.5.5v3c0 .28.22.5.5.5s.5-.22.5-.5V14h2v2.5c0 .28.22.5.5.5s.5-.22.5-.5v-3l.53-2.82a.504.504 0 0 0-.4-.59z"/></svg>