<svg xmlns="http://www.w3.org/2000/svg" width="20" height="20" viewBox="0 0 20 20"><path d="M6.5 13.5h10v-10h-10v10zM10.87 5h1.25l2.63 7h-1.21l-.63-1.79h-2.83L9.46 12H8.24l2.63-7z" opacity=".3"/><path d="M11.53 6.3h-.06l-1.02 2.89h2.1z" opacity=".3"/><path d="M3.5 5H2v11.5c0 .83.67 1.5 1.5 1.5H15v-1.5H3.5V5z"/><path d="M16.5 2h-10C5.67 2 5 2.67 5 3.5v10c0 .83.67 1.5 1.5 1.5h10c.83 0 1.5-.67 1.5-1.5v-10c0-.83-.67-1.5-1.5-1.5zm0 11.5h-10v-10h10v10z"/><path d="M10.09 10.21h2.83l.62 1.79h1.21l-2.63-7h-1.25l-2.63 7h1.21l.64-1.79zm1.38-3.91h.06l1.02 2.89h-2.09l1.01-2.89z"/></svg>