<svg xmlns="http://www.w3.org/2000/svg" width="20" height="20" viewBox="0 0 20 20"><path d="M15.88 8 13 5.12c0-.77.11-1.17.21-1.52-.88.25-1.48.83-1.81 1.4H6.5c-1.65 0-3 1.35-3 3 0 1.46.99 5.26 1.63 7.5H7V14h4.5v1.5h1.86l1.19-4.27 1.95-.43V8h-.62zM11 7.5H7V6h4v1.5zM13.25 9c-.41 0-.75-.34-.75-.75s.34-.75.75-.75.75.34.75.75-.34.75-.75.75z" opacity=".3"/><path d="M13.21 3.61c-.1.34-.21.74-.21 1.51L15.88 8h.62v2.8l-1.95.43-1.19 4.27H11.5V14H7v1.5H5.13C4.49 13.26 3.5 9.46 3.5 8c0-1.65 1.35-3 3-3h4.9c.33-.57.93-1.15 1.81-1.39zM14 2c-2.17 0-3.35 1.5-3.35 1.5H6.5C4.05 3.5 2 5.47 2 8c0 2.33 2 9 2 9h4.5v-1.5H10V17h4.5l1.25-4.5L18 12V6.5h-1.5l-2-2c0-.36.5-.98.5-1.5 0-.55-.45-1-1-1zm-3 5.5H7V6h4v1.5zM13.25 9c-.41 0-.75-.34-.75-.75s.34-.75.75-.75.75.34.75.75-.34.75-.75.75z"/></svg>