<?xml version="1.0" encoding="UTF-8" standalone="no"?>
<svg
   height="1000"
   width="1000"
   version="1.1"
   viewBox="0 0 1000 1000"
   id="svg7"
   sodipodi:docname="clock_02_20.svg"
   xmlns:inkscape="http://www.inkscape.org/namespaces/inkscape"
   xmlns:sodipodi="http://sodipodi.sourceforge.net/DTD/sodipodi-0.dtd"
   xmlns="http://www.w3.org/2000/svg"
   xmlns:svg="http://www.w3.org/2000/svg">
  <defs
     id="defs11" />
  <sodipodi:namedview
     id="namedview9"
     pagecolor="#ffffff"
     bordercolor="#000000"
     borderopacity="0.25"
     inkscape:showpageshadow="2"
     inkscape:pageopacity="0.0"
     inkscape:pagecheckerboard="0"
     inkscape:deskcolor="#d1d1d1" />
  <g
     id="container">
    <g
       transform="translate(500,500) rotate(270)"
       id="g4">
      <path
         id="clock_02_20"
         style="color:#000000;fill:#ffffff;stroke-linecap:square;stroke-linejoin:round;-inkscape-stroke:none"
         d="M -8.3164063,-39.123047 A 40.004,40.004 0 0 0 -34.640625,-20 l -104.999995,181.86523 -20,34.64063 69.281245,40 20,-34.64063 L 0,80 l 35.359375,61.24414 20,34.64063 69.281255,-40 -20,-34.64063 L 34.640625,-20 A 40.004,40.004 0 0 0 -8.3164063,-39.123047 Z M 381,-161 c 0,-121.18799 -98.81201,-220 -220,-220 h -320 c -121.18799,0 -220,98.81201 -220,220 v 320 c 0,121.18799 98.81201,220 220,220 h 320 c 121.18799,0 220,-98.81201 220,-220 z m -80,0 v 320 c 0,78.25181 -61.74819,140 -140,140 h -320 c -78.25181,0 -140,-61.74819 -140,-140 v -320 c 0,-78.25181 61.74819,-140 140,-140 h 320 c 78.25181,0 140,61.74819 140,140 z" />
    </g>
  </g>
</svg>
