<svg xmlns="http://www.w3.org/2000/svg" width="1000" height="1000"><path d="M3.488-39.842A40.004 40.004 0 0 0-34.64 20l70 121.244 20 34.64 69.282-40-15.36-26.603 52.584 30.36 34.64 20 40-69.282-34.64-20L20-34.64a40.004 40.004 0 0 0-16.512-5.2ZM381-161c0-121.188-98.812-220-220-220h-320c-121.188 0-220 98.812-220 220v320c0 121.188 98.812 220 220 220h320c121.188 0 220-98.812 220-220zm-80 0v320c0 78.252-61.748 140-140 140h-320c-78.252 0-140-61.748-140-140v-320c0-78.252 61.748-140 140-140h320c78.252 0 140 61.748 140 140z" style="-inkscape-stroke:none" transform="rotate(-90 500 0)" stroke-linecap="square" stroke-linejoin="round"/></svg>