<svg xmlns="http://www.w3.org/2000/svg" width="1000" height="1000"><path d="M6.945-39.383A40.004 40.004 0 0 0-40 0v180h80v-30.719l30.36 52.584 20 34.64 69.28-40-20-34.64L34.64-20A40.004 40.004 0 0 0 6.946-39.383ZM381-161c0-121.188-98.812-220-220-220h-320c-121.188 0-220 98.812-220 220v320c0 121.188 98.812 220 220 220h320c121.188 0 220-98.812 220-220zm-80 0v320c0 78.252-61.748 140-140 140h-320c-78.252 0-140-61.748-140-140v-320c0-78.252 61.748-140 140-140h320c78.252 0 140 61.748 140 140z" style="-inkscape-stroke:none" transform="rotate(-90 500 0)" stroke-linecap="square" stroke-linejoin="round"/></svg>