<?xml version="1.0" encoding="UTF-8" standalone="no"?>
<svg
   height="1000"
   width="1000"
   version="1.1"
   viewBox="0 0 1000 1000"
   id="svg7"
   sodipodi:docname="clock_02_45.svg"
   xmlns:inkscape="http://www.inkscape.org/namespaces/inkscape"
   xmlns:sodipodi="http://sodipodi.sourceforge.net/DTD/sodipodi-0.dtd"
   xmlns="http://www.w3.org/2000/svg"
   xmlns:svg="http://www.w3.org/2000/svg">
  <defs
     id="defs11" />
  <sodipodi:namedview
     id="namedview9"
     pagecolor="#ffffff"
     bordercolor="#000000"
     borderopacity="0.25"
     inkscape:showpageshadow="2"
     inkscape:pageopacity="0.0"
     inkscape:pagecheckerboard="0"
     inkscape:deskcolor="#d1d1d1" />
  <g
     id="container">
    <g
       transform="translate(500,500) rotate(270)"
       id="g4">
      <path
         id="clock_02_45"
         style="color:#000000;fill:#ffffff;stroke-linecap:square;stroke-linejoin:round;-inkscape-stroke:none"
         d="m -40,-250 v 40 210 a 40.004,40.004 0 0 0 5.359375,20 l 70,121.24414 20,34.64063 69.281255,-40 -20,-34.64063 L 40,-10.71875 V -210 -250 Z m 421,89 c 0,-121.18799 -98.81201,-220 -220,-220 h -320 c -121.18799,0 -220,98.81201 -220,220 v 320 c 0,121.18799 98.81201,220 220,220 h 320 c 121.18799,0 220,-98.81201 220,-220 z m -80,0 v 320 c 0,78.25181 -61.74819,140 -140,140 h -320 c -78.25181,0 -140,-61.74819 -140,-140 v -320 c 0,-78.25181 61.74819,-140 140,-140 h 320 c 78.25181,0 140,61.74819 140,140 z" />
    </g>
  </g>
</svg>
