<svg xmlns="http://www.w3.org/2000/svg" width="20" height="20" viewBox="0 0 20 20"><path d="M6 15c-.55 0-1 .45-1 1h10c0-.55-.45-1-1-1h-4v-2h3c.55 0 1-.45 1-1H8.47A2.508 2.508 0 0 1 6 9.5c0-.93.51-1.73 1.26-2.16C7.1 7.1 7 6.81 7 6.5c0-.05.01-.11.02-.16A3.495 3.495 0 0 0 5 9.5c0 1.76 1.31 3.2 3 3.45V15H6z"/><path d="M8.15 5.04a1.498 1.498 0 0 1 1.02 2.8l.42 1.14c.09.26.38.39.64.3l.47-.17.15.41a.501.501 0 0 0 .94-.34l-.15-.41.46-.17c.26-.09.39-.38.3-.64l-1.5-4.11a.501.501 0 0 0-.64-.3l-.46.16-.15-.41c-.1-.26-.39-.4-.65-.3-.26.09-.39.38-.3.64l.15.41-.46.17c-.26.09-.39.38-.3.64l.06.18z"/><circle cx="8.5" cy="6.5" r=".75"/></svg>