<svg xmlns="http://www.w3.org/2000/svg" width="20" height="20" viewBox="0 0 20 20"><path d="M10 13.5c1.93 0 3.5-1.57 3.5-3.5S11.93 6.5 10 6.5 6.5 8.07 6.5 10s1.57 3.5 3.5 3.5zM10 8c1.1 0 2 .9 2 2s-.9 2-2 2-2-.9-2-2 .9-2 2-2z"/><path d="M18 5.68V4.09C14.49 3.06 11.23 3 10 3c-2 0-3.8.84-5.07 2.18 0-.03.22-1.47.75-3.18H4.09C3.06 5.51 3 8.77 3 10c0 2 .84 3.8 2.18 5.07-.03 0-1.47-.22-3.18-.75v1.59C5.51 16.94 8.77 17 10 17c2 0 3.8-.84 5.07-2.18-.01.03-.23 1.48-.76 3.18h1.59c1.03-3.51 1.09-6.77 1.09-8 0-2-.84-3.8-2.18-5.07.04 0 1.49.22 3.19.75zM15.5 10c0 3.03-2.47 5.5-5.5 5.5S4.5 13.03 4.5 10 6.97 4.5 10 4.5s5.5 2.47 5.5 5.5z"/></svg>