<svg xmlns="http://www.w3.org/2000/svg" width="20" height="20" viewBox="0 0 20 20"><path d="M6.47 10.67c.1-.24 1.26-3 3.02-4.76 3.86-3.86 7.08-3.56 7.95-3.36.2.88.5 4.09-3.36 7.95-1.76 1.76-4.52 2.92-4.76 3.02l-2.85-2.85zM12.5 9c.82 0 1.5-.67 1.5-1.5S13.33 6 12.5 6c-.82 0-1.5.67-1.5 1.5S11.67 9 12.5 9zM8.52 5.48 6.31 5.2 2.25 9.27l3.28 1.09c.48-1.18 1.52-3.29 2.99-4.88zm6 6 .28 2.21-4.07 4.07-1.09-3.28c1.18-.49 3.29-1.53 4.88-3zM5.25 12.5c-.62 0-1.18.25-1.59.66C2.44 14.38 2 18 2 18s3.62-.44 4.84-1.66c.41-.41.66-.97.66-1.59 0-1.24-1.01-2.25-2.25-2.25z"/></svg>