<svg xmlns="http://www.w3.org/2000/svg" width="20" height="20" viewBox="0 0 20 20"><path d="M10 3c-3.73 0-7 3-7 7 0 1.66.58 3.19 1.55 4.39l-1.3 1.3c-.29.29-.29.77 0 1.06.29.29.77.29 1.06 0l1.3-1.3C6.81 16.42 8.34 17 10 17c1.79 0 3.58-.68 4.95-2.05A6.973 6.973 0 0 0 17 10V4.5c0-.83-.67-1.5-1.5-1.5H10zm2.84 7.3-3.86 3.59c-.16.15-.4.14-.55-.01a.396.396 0 0 1-.03-.52l2.02-2.58-2.93-.18a.522.522 0 0 1-.32-.9l3.86-3.59c.16-.15.4-.14.55.01.14.14.15.37.03.52L9.58 9.22l2.93.18c.46.03.66.59.33.9z"/></svg>