<svg xmlns="http://www.w3.org/2000/svg" width="20" height="20" viewBox="0 0 20 20"><circle cx="8" cy="8" r="1.5" opacity=".3"/><path d="M8 13.5c-1.5 0-2.98.4-4.28 1.16-.14.08-.22.25-.22.42v.41h9v-.41c0-.18-.09-.34-.22-.42A8.488 8.488 0 0 0 8 13.5z" opacity=".3"/><path d="M8 11c1.66 0 3-1.34 3-3S9.66 5 8 5 5 6.34 5 8s1.34 3 3 3zm0-4.5c.83 0 1.5.67 1.5 1.5S8.83 9.5 8 9.5 6.5 8.83 6.5 8 7.17 6.5 8 6.5zm5.03 6.87C11.56 12.5 9.84 12 8 12s-3.56.5-5.03 1.37c-.61.35-.97 1.02-.97 1.72V17h12v-1.91c0-.7-.36-1.37-.97-1.72zm-.53 2.13h-9v-.41c0-.18.09-.34.22-.42C5.02 13.9 6.5 13.5 8 13.5s2.98.4 4.28 1.16c.14.08.22.25.22.42v.42zm2-7.5c0-1.39.64-2.61 1.63-3.44l-.97-1.17C13.84 4.49 13 6.15 13 8s.84 3.51 2.16 4.61l.97-1.17c-.99-.83-1.63-2.05-1.63-3.44z"/><path d="m18.04 6.85-.96-1.15C16.43 6.26 16 7.07 16 8s.43 1.74 1.09 2.29l.96-1.15c-.34-.27-.55-.68-.55-1.14s.21-.87.54-1.15z"/></svg>