<svg xmlns="http://www.w3.org/2000/svg" width="20" height="20" viewBox="0 0 20 20"><circle cx="8" cy="8" r="3"/><path d="M13.03 13.37C11.56 12.5 9.84 12 8 12s-3.56.5-5.03 1.37c-.61.35-.97 1.02-.97 1.72V17h12v-1.91c0-.7-.36-1.37-.97-1.72zm2.93-10.82c.24-.29.24-.7-.02-.96l-.07-.07c-.3-.3-.78-.26-1.05.07-3 3.65-1.76 7.99 0 10.14.27.33.75.37 1.05.07l.07-.07c.26-.26.26-.67.02-.96-1.42-1.76-2.4-5.27 0-8.22z"/><path d="M18.17 4.61c.19-.27.15-.64-.08-.88l-.07-.07a.704.704 0 0 0-1.07.09 4.999 4.999 0 0 0 0 5.81c.25.35.77.4 1.07.09l.07-.07c.23-.23.28-.61.08-.88-.95-1.3-.81-2.97 0-4.09z"/></svg>