<svg xmlns="http://www.w3.org/2000/svg" width="20" height="20" viewBox="0 0 20 20"><path d="M19.08 14.5c-.29 0-.55.17-.68.43-.16.34-.5.57-.9.57l-2.22-2.19C16.87 12.96 18 12.17 18 11c0-.44-4.96-5.08-6.22-6.24a.971.971 0 0 0-.67-.26H9.75c-.41 0-.75.34-.75.75s.34.75.75.75h1.16l1.22 1.14L9.1 9l-7.59-.48A1.41 1.41 0 0 0 0 9.94c0 .63.42 1.19 1.02 1.36l3.3.97-3.53 1.91C-.58 14.92-.06 17 1.5 17h5c1.93 0 3.5-1.57 3.5-3.5h3.33l2.05 2h-2.13c-.41 0-.75.34-.75.75s.34.75.75.75h4.25c1 0 1.86-.59 2.26-1.44.24-.49-.14-1.06-.68-1.06zm-12.58 1h-5l4.87-2.63 2.13.63c0 1.1-.9 2-2 2z"/></svg>