<svg xmlns="http://www.w3.org/2000/svg" width="20" height="20" viewBox="0 0 20 20"><path d="M7.19 8.99c.3-.84.97-1.51 1.81-1.81L7.84 4.41a6.032 6.032 0 0 0-3.43 3.43l2.78 1.15zm0 2.02-2.78 1.16a6.032 6.032 0 0 0 3.43 3.43L9 12.82c-.85-.31-1.51-.97-1.81-1.81zm5.62-2.03 2.78-1.15a5.986 5.986 0 0 0-3.43-3.42l-1.15 2.78c.84.3 1.5.96 1.8 1.79zm.01 2.02c-.3.84-.96 1.5-1.79 1.81l1.15 2.78a6.027 6.027 0 0 0 3.42-3.42L12.82 11z" opacity=".3"/><path d="M10 3c-3.87 0-7 3.13-7 7s3.13 7 7 7 7-3.13 7-7-3.13-7-7-7zm2.16 1.41c1.57.61 2.82 1.85 3.43 3.42l-2.78 1.15a2.99 2.99 0 0 0-1.79-1.79l1.14-2.78zm-4.32 0L9 7.18c-.85.3-1.51.96-1.82 1.81L4.41 7.84a6.032 6.032 0 0 1 3.43-3.43zm-.01 11.18a6.032 6.032 0 0 1-3.43-3.43l2.78-1.15c.3.84.97 1.51 1.81 1.81l-1.16 2.77zM8 10c0-1.1.9-2 2-2s2 .9 2 2-.9 2-2 2-2-.9-2-2zm4.17 5.59-1.15-2.78c.84-.3 1.5-.97 1.79-1.81l2.77 1.16a5.942 5.942 0 0 1-3.41 3.43z"/></svg>