<svg xmlns="http://www.w3.org/2000/svg" width="20" height="20" viewBox="0 0 20 20"><path d="M16.25 2c-.41 0-.75.34-.75.75v2.5c0 .41.34.75.75.75s.75-.34.75-.75v-2.5c0-.41-.34-.75-.75-.75z"/><circle cx="16.25" cy="7.75" r=".75"/><path d="m9.75 8.81 2.72-2.72c.29-.29.29-.77 0-1.06a.754.754 0 0 0-1.06 0L9.75 6.69V4.75C9.75 4.34 9.41 4 9 4s-.75.34-.75.75v1.94L6.59 5.03a.754.754 0 0 0-1.06 0c-.29.29-.29.77 0 1.06l2.72 2.72v1.44H6.81L4.09 7.53a.754.754 0 0 0-1.06 0c-.29.29-.29.77 0 1.06l1.66 1.66H2.75c-.41 0-.75.34-.75.75s.34.75.75.75h1.94l-1.66 1.66c-.29.29-.29.77 0 1.06.29.29.77.29 1.06 0l2.72-2.72h1.44v1.44l-2.72 2.72c-.29.29-.29.77 0 1.06.29.29.77.29 1.06 0l1.66-1.66v1.94c0 .41.34.75.75.75s.75-.34.75-.75v-1.94l1.66 1.66c.29.29.77.29 1.06 0 .29-.29.29-.77 0-1.06l-2.72-2.72v-1.44h1.44l2.72 2.72c.29.29.77.29 1.06 0 .29-.29.29-.77 0-1.06l-1.66-1.66h1.94c.41 0 .75-.34.75-.75s-.34-.75-.75-.75h-5.5V8.81z"/></svg>