<svg xmlns="http://www.w3.org/2000/svg" width="20" height="20" viewBox="0 0 20 20"><path d="M4 6.25v1.5c0 .41-.34.75-.75.75H2v3h1.25c.41 0 .75.34.75.75v1.5C4 14.99 5.01 16 6.25 16H8v-1.5H6.25c-.41 0-.75-.34-.75-.75v-1.5c0-1.16-.88-2.11-2-2.24v-.02c1.12-.12 2-1.08 2-2.24v-1.5c0-.41.34-.75.75-.75H8V4H6.25C5.01 4 4 5.01 4 6.25zM16.75 8.5c-.41 0-.75-.34-.75-.75v-1.5C16 5.01 14.99 4 13.75 4H12v1.5h1.75c.41 0 .75.34.75.75v1.5c0 1.16.88 2.11 2 2.24v.03c-1.12.12-2 1.08-2 2.24v1.5c0 .41-.34.75-.75.75H12V16h1.75c1.24 0 2.25-1.01 2.25-2.25v-1.5c0-.41.34-.75.75-.75H18v-3h-1.25z"/></svg>