<svg xmlns="http://www.w3.org/2000/svg" width="20" height="20" viewBox="0 0 20 20"><path d="M4 16h2v-1h1.53c-.91-.79-1.5-1.9-1.53-2.85-.01-.41-.58-3.41 4.8-6.15 0 0-.64 2.01 1.72 3.57.61.39 1.48 1.13 1.48 2.58 0 1.13-.52 2.14-1.33 2.85H14v1h2V4H4v12z" opacity=".3"/><path d="M10.51 10.25c-.11.32-.11.61-.06.96.07.42.24.78.15 1.2-.1.44-.58 1.04-1.15 1.22.96.79 2.4.28 2.54-.99.13-1.15-1.08-1.48-1.48-2.39z"/><path d="M3 3v14h14V3H3zm7 12c-1.66 0-2.97-1.74-3-2.88 0-.04 0-.08-.01-.14-.14-1.8 1.27-3.24 2.87-4.29.23.85.81 1.85 2.11 2.71.72.47 1.03 1 1.03 1.75 0 1.57-1.35 2.85-3 2.85zm6 1h-2v-1h-1.33c.81-.7 1.33-1.71 1.33-2.85 0-1.45-.87-2.19-1.48-2.59C10.16 8.01 10.8 6 10.8 6 5.42 8.74 5.99 11.74 6 12.15c.03.95.63 2.06 1.53 2.85H6v1H4V4h12v12z"/></svg>