<svg xmlns="http://www.w3.org/2000/svg" width="20" height="20" viewBox="0 0 20 20"><path d="M9 14.35c-.19 0-.35-.16-.35-.35s.16-.35.35-.35.35.16.35.35-.16.35-.35.35z" opacity=".3"/><path d="M15.12 13H18v2h-.88l-2-2zM13.5 8h-1c-.83 0-1.5-.67-1.5-1.5S11.67 5 12.5 5h.5V4h-.5a2.5 2.5 0 0 0 0 5h1c.83 0 1.5.67 1.5 1.5V12h1v-1.5A2.5 2.5 0 0 0 13.5 8zM6 13c-.98.16-2 .25-3 .25H2v1.5h1c1 0 2.02.09 3 .25v-2zm12-1v-1.5c0-1.88-1.16-3.5-2.8-4.17.49-.45.8-1.11.8-1.83A2.5 2.5 0 0 0 13.5 2v1c.83 0 1.5.67 1.5 1.5S14.33 6 13.5 6v1c1.93 0 3.5 1.57 3.5 3.5V12h1zM2.93 2.93 1.87 3.99 10.88 13H7v2h5.88l3.13 3.13 1.06-1.06L2.93 2.93zM9 14.35c-.19 0-.35-.16-.35-.35s.16-.35.35-.35.35.16.35.35-.16.35-.35.35z"/></svg>