<svg xmlns="http://www.w3.org/2000/svg" width="153.6" height="179.2"><path d="m140.1 154.7-.6.6q-11.3 11.3-25.9 17.5-15.4 6.4-31.7 6.4-16.5 0-31.7-6.4-14.8-6.3-25.9-17.5Q13 144.1 6.8 129.5q-4.2-10.3-5.4-18.9-.4-2.8 4.8-3.6 5.1-.8 5.6 2 .1.1.1.4 1.8 9 4.6 15.9 5 12.4 15.2 22.6 9.8 9.8 22.6 15.2 13.2 5.6 27.6 5.6 14.3 0 27.6-5.6 12.8-5.5 22.5-15.2l.6-.6q1-1 2.5-.6 1.2.3 3.3 2.2 3.6 3.7 1.7 5.8zM92.9 93.2l-6.6 6.6 6.3 6.3q2.1 2.1-.7 4.9-1.7 1.7-3.2 1.7-1 0-1.9-1l-6.2-6.1-6.6 6.6q-.5.5-1.5.5-1.5 0-3.1-1.6l-.2-.2q-1.8-1.5-1.8-2.9 0-.7.8-1.7l6.6-6.5-6.6-6.6q-1.6-1.6 1.4-4.5 1.8-1.8 3.1-1.8.6 0 1.3.5l6.5 6.6 6.5-6.5q1.8-1.7 4.8 1.3 2.7 2.7 1.1 4.4zm47.1 5.7q0 11.8-4.6 22.8-4.5 10.5-12.6 18.6-8 8-18.7 12.6t-22.8 4.6-22.8-4.6-18.7-12.6q-8.2-8.2-12.5-18.6-1.5-3.3-1.5-4h-.1q-.9-2.7 4.3-4.4 5-1.6 6 1.2 3.7 9.9 9.7 16.7h.1V97.1q.3-13.6 10.2-23.2 10.5-10.3 25.3-10.3 14.7 0 25.1 10.3t10.4 24.9q0 14.7-10.45 25.1T81.3 134.3q-5.8 0-11.2-1.6-2.8-1.1-1.3-6.1 1.6-5.1 4.4-4.3l1.4.3q1.4.3 3.3.6t3 .3q10.4 0 17.6-7.15t7.2-17.45q0-10.1-7.2-17.1-7.1-7.1-17.5-7.1-10.7 0-17.8 8-6.4 7.2-6.4 16V140q11 6.7 24.2 6.7 9.6 0 18.5-3.65t15.6-10.35 10.35-15.5 3.65-18.3q0-19.8-14.1-33.9-14-14-33.9-14-20 0-34 14-5.3 5.3-7.7 8.7l-.2.2q-.8 1.1-1.3 1.55t-2.15.95-3.85-.3q-2.1-.5-3.65-1.65T26.7 71.8v-68q0-1.5 1.05-2.65T30.5 0h87.7q3 0 3 5.5t-3 5.5H37.1v48.3h.1q4-4.2 10.2-8.4t10.8-6.1q10.9-4.6 23.1-4.6 12.1 0 22.8 4.6t18.7 12.6q8.1 8.1 12.6 18.6 4.6 11.2 4.6 22.9zm-3.1-58.1q.9.8.9 1.8t-.55 1.8-1.65 2.1q-2.6 2.6-3.9 2.6-.9 0-1.6-.7-10.6-9.1-20.7-13.3-12.8-5.6-27.6-5.6-13.3 0-26.2 4.9-2.7 1-4.5-3.7-.9-2.5-.8-3.8.3-1.6 1.6-2 13-5.7 29.9-5.7 16.4 0 31.6 6.4 13.7 5.8 23.5 15.2z"/></svg>