<svg xmlns="http://www.w3.org/2000/svg" width="166.4" height="179.2"><path d="M120.1 123.8q0-5.7-.55-10.7t-2.1-10.05-3.95-8.6-6.4-5.8T98 86.4q-.6.4-3.35 2.05T90.4 90.9t-4.05 2-4.9 1.7-4.65.5-4.65-.5-4.9-1.7-4.05-2-4.25-2.45-3.35-2.05q-5.1 0-9.1 2.25t-6.4 5.8-3.95 8.6-2.1 10.05-.55 10.7q0 7.3 4.2 12.15T48 140.8h57.6q6.1 0 10.3-4.85t4.2-12.15zm-17.3-59.4q0-10.8-7.65-18.4T76.8 38.4 58.45 46 50.8 64.4q0 10.7 7.65 18.3t18.35 7.6 18.35-7.6 7.65-18.3zm63.6 54v19.2q0 1.4-.9 2.3t-2.3.9h-9.6v22.4q0 6.6-4.7 11.3t-11.3 4.7H16q-6.6 0-11.3-4.7T0 163.2V16Q0 9.4 4.7 4.7T16 0h121.6q6.6 0 11.3 4.7t4.7 11.3v22.4h9.6q1.4 0 2.3.9t.9 2.3v19.2q0 1.4-.9 2.3t-2.3.9h-9.6v12.8h9.6q1.4 0 2.3.9t.9 2.3v19.2q0 1.4-.9 2.3t-2.3.9h-9.6v12.8h9.6q1.4 0 2.3.9t.9 2.3z"/></svg>