<svg xmlns="http://www.w3.org/2000/svg" width="179.2" height="179.2"><path d="M179.2 134.4v12.8q0 2.6-1.9 4.5t-4.5 1.9H6.4q-2.6 0-4.5-1.9T0 147.2v-12.8q0-2.6 1.9-4.5t4.5-1.9h166.4q2.6 0 4.5 1.9t1.9 4.5zm0-38.4v12.8q0 2.6-1.9 4.5t-4.5 1.9h-128q-2.6 0-4.5-1.9t-1.9-4.5V96q0-2.6 1.9-4.5t4.5-1.9h128q2.6 0 4.5 1.9t1.9 4.5zm0-38.4v12.8q0 2.6-1.9 4.5t-4.5 1.9H19.2q-2.6 0-4.5-1.9t-1.9-4.5V57.6q0-2.6 1.9-4.5t4.5-1.9h153.6q2.6 0 4.5 1.9t1.9 4.5zm0-38.4V32q0 2.6-1.9 4.5t-4.5 1.9H57.6q-2.6 0-4.5-1.9T51.2 32V19.2q0-2.6 1.9-4.5t4.5-1.9h115.2q2.6 0 4.5 1.9t1.9 4.5z"/></svg>