<svg xmlns="http://www.w3.org/2000/svg" width="179.2" height="179.2"><path d="M155.1 147.6q1.5-.6 2.6-.3t1.1 1.75-1.5 3.35q-1.3 1.6-4.4 4.35t-9.55 6.8-14.1 7.4-18.8 5.8-22.95 2.45q-11.9 0-23.8-3.1t-20.9-7.65-17.25-10.4-13.25-10.5-8.4-8.75q-.8-.9-1-1.65t.1-1.2.8-.7 1.15-.2 1.15.45q19.2 11.7 30 16.6 38.9 17.6 79.9 9 19-4 39.1-13.5zm20.7-11.5q1.1 1.6.25 6.95t-2.85 10.25q-3.4 8.3-8.5 12.4-1.7 1.4-2.6.9t0-2.4q2.1-4.5 4.45-12.15t.65-9.85q-.5-.7-1.55-1.15t-2.7-.6-2.95-.25-3.5 0-3.15.2-3.1.3-2.25.2q-.6.1-1.3.15t-1.1.1-.85.1-.7.05h-1l-.3-.05-.2-.15-.15-.3q-.6-1.6 4.7-4t10.3-3q4.6-.7 10.8-.1t7.6 2.4zm-39.4-44.3q0 3.1 1.35 6.4t3.2 5.8 3.75 4.6 3.3 3.2l1.3 1.1-22.7 22.4q-4-3.7-7.9-7.55t-5.8-5.85l-1.9-2q-1.1-1.1-2.5-3.3-3.8 5.9-9.75 10.25T86 133.2t-14 2.3-13.75-2.1-11.75-6.55-8.3-11.3-3.1-16.25q0-8.4 2.8-15.4t7.2-11.65 10.65-8.3T68 58.25t13-3.45 11.95-1.85 9.95-.65V39.6q0-6.5-2.1-9.7-3.4-5.3-12.1-5.3-.6 0-1.65.1T83 25.9t-5.6 2.95-5.6 5.95-4.8 9.6l-29.4-2.7q0-6 2.2-11.9t6.7-11.3T57.3 9t15.15-6.55T91.5 0q10 0 18.1 2.5t12.95 6.15 8.1 8.3 4.5 8.6 1.25 7.35v58.9zm-67.2 2.1q0 8.6 7 13.3 6.6 4.4 13.9 2.2 8.4-2.5 11.4-12.3 1.4-4.5 1.4-10.1V70.8Q97 71 91.8 72t-10.65 3.35-8.7 7.1T69.2 93.9z"/></svg>