<svg xmlns="http://www.w3.org/2000/svg" version="1.1" width="230.4" height="179.2"><path d="M1032 576q-59 2 -84 55q-17 34 -48 53.5t-68 19.5q-53 0 -90.5 -37.5t-37.5 -90.5q0 -56 36 -89l10 -8q34 -31 82 -31q37 0 68 19.5t48 53.5q25 53 84 55zM1600 704q0 56 -36 89l-10 8q-34 31 -82 31q-37 0 -68 -19.5t-48 -53.5q-25 -53 -84 -55q59 -2 84 -55 q17 -34 48 -53.5t68 -19.5q53 0 90.5 37.5t37.5 90.5zM1174 925q-17 -35 -55 -48t-73 4q-62 31 -134 31q-51 0 -99 -17q3 0 9.5 0.5t9.5 0.5q92 0 170.5 -50t118.5 -133q17 -36 3.5 -73.5t-49.5 -54.5q-18 -9 -39 -9q21 0 39 -9q36 -17 49.5 -54.5t-3.5 -73.5 q-40 -83 -118.5 -133t-170.5 -50h-6q-16 2 -44 4l-290 27l-239 -120q-14 -7 -29 -7q-40 0 -57 35l-160 320q-11 23 -4 47.5t29 37.5l209 119l148 267q17 155 91.5 291.5t195.5 236.5q31 25 70.5 21.5t64.5 -34.5t21.5 -70t-34.5 -65q-70 -59 -117 -128q123 84 267 101 q40 5 71.5 -19t35.5 -64q5 -40 -19 -71.5t-64 -35.5q-84 -10 -159 -55q46 10 99 10q115 0 218 -50q36 -18 49 -55.5t-5 -73.5zM2137 1085l160 -320q11 -23 4 -47.5t-29 -37.5l-209 -119l-148 -267q-17 -155 -91.5 -291.5t-195.5 -236.5q-26 -22 -61 -22q-45 0 -74 35 q-25 31 -21.5 70t34.5 65q70 59 117 128q-123 -84 -267 -101q-4 -1 -12 -1q-36 0 -63.5 24t-31.5 60q-5 40 19 71.5t64 35.5q84 10 159 55q-46 -10 -99 -10q-115 0 -218 50q-36 18 -49 55.5t5 73.5q17 35 55 48t73 -4q62 -31 134 -31q51 0 99 17q-3 0 -9.5 -0.5t-9.5 -0.5 q-92 0 -170.5 50t-118.5 133q-17 36 -3.5 73.5t49.5 54.5q18 9 39 9q-21 0 -39 9q-36 17 -49.5 54.5t3.5 73.5q40 83 118.5 133t170.5 50h6h1q14 -2 42 -4l291 -27l239 120q14 7 29 7q40 0 57 -35z" transform="scale(0.1 -0.1) translate(0 -1536)" /></svg>
