<svg xmlns="http://www.w3.org/2000/svg" width="140.8" height="179.2"><path d="M139.3 121.5q-3.9 12.5-12.3 25-12.9 19.6-25.7 19.6-4.9 0-14-3.2-8.6-3.2-15.1-3.2-6.1 0-14.2 3.3-8.1 3.4-13.2 3.4-15.2 0-30.1-25.9Q0 114.4 0 90.2q0-22.8 11.3-37.4 11.3-14.4 28.4-14.4 7.2 0 17.7 3 10.4 3 13.8 3 4.5 0 14.3-3.4 10.2-3.4 17.3-3.4 11.9 0 21.3 6.5 5.2 3.6 10.4 10-7.9 6.7-11.4 11.8-6.5 9.4-6.5 20.7 0 12.4 6.9 22.3t15.8 12.6zM101.7 4.2q0 6.1-2.9 13.6-3 7.5-9.3 13.8-5.4 5.4-10.8 7.2-3.7 1.1-10.4 1.7.3-14.9 7.8-25.7 7.4-10.7 25-14.8.1.3.25 1.1t.25 1.1q0 .4.05 1t.05 1z"/></svg>