<svg xmlns="http://www.w3.org/2000/svg" version="1.1" width="153.6" height="179.2"><path d="M1284 639q0 27 -18 45l-91 91q-18 18 -45 18t-45 -18l-189 -189v502q0 26 -19 45t-45 19h-128q-26 0 -45 -19t-19 -45v-502l-189 189q-19 19 -45 19t-45 -19l-91 -91q-18 -18 -18 -45t18 -45l362 -362l91 -91q18 -18 45 -18t45 18l91 91l362 362q18 18 18 45zM1536 640 q0 -209 -103 -385.5t-279.5 -279.5t-385.5 -103t-385.5 103t-279.5 279.5t-103 385.5t103 385.5t279.5 279.5t385.5 103t385.5 -103t279.5 -279.5t103 -385.5z" transform="scale(0.1 -0.1) translate(0 -1536)" /></svg>
