<svg xmlns="http://www.w3.org/2000/svg" width="153.6" height="179.2"><path d="M128.3 54.1 92.8 89.6l35.5 35.5 14.4-14.4q2.9-3.1 7-1.4 3.9 1.7 3.9 5.9V160q0 2.6-1.9 4.5t-4.5 1.9h-44.8q-4.2 0-5.9-4-1.7-3.9 1.4-6.9l14.4-14.4-35.5-35.5-35.5 35.5 14.4 14.4q3.1 3 1.4 6.9-1.7 4-5.9 4H6.4q-2.6 0-4.5-1.9T0 160v-44.8q0-4.2 4-5.9 3.9-1.7 6.9 1.4l14.4 14.4 35.5-35.5-35.5-35.5-14.4 14.4Q9 70.4 6.4 70.4q-1.2 0-2.4-.5-4-1.7-4-5.9V19.2q0-2.6 1.9-4.5t4.5-1.9h44.8q4.2 0 5.9 4 1.7 3.9-1.4 6.9L41.3 38.1l35.5 35.5 35.5-35.5-14.4-14.4q-3.1-3-1.4-6.9 1.7-4 5.9-4h44.8q2.6 0 4.5 1.9t1.9 4.5V64q0 4.2-3.9 5.9-1.3.5-2.5.5-2.6 0-4.5-1.9z"/></svg>