<svg xmlns="http://www.w3.org/2000/svg" width="179.2" height="179.2"><path d="M179.2 89.6q0 2.6-1.9 4.5l-25.6 25.6q-1.9 1.9-4.5 1.9t-4.5-1.9-1.9-4.5v-12.8h-38.4v38.4h12.8q2.6 0 4.5 1.9t1.9 4.5-1.9 4.5l-25.6 25.6q-1.9 1.9-4.5 1.9t-4.5-1.9l-25.6-25.6q-1.9-1.9-1.9-4.5t1.9-4.5 4.5-1.9h12.8v-38.4H38.4v12.8q0 2.6-1.9 4.5t-4.5 1.9-4.5-1.9L1.9 94.1Q0 92.2 0 89.6t1.9-4.5l25.6-25.6q1.9-1.9 4.5-1.9t4.5 1.9 1.9 4.5v12.8h38.4V38.4H64q-2.6 0-4.5-1.9T57.6 32t1.9-4.5L85.1 1.9Q87 0 89.6 0t4.5 1.9l25.6 25.6q1.9 1.9 1.9 4.5t-1.9 4.5-4.5 1.9h-12.8v38.4h38.4V64q0-2.6 1.9-4.5t4.5-1.9 4.5 1.9l25.6 25.6q1.9 1.9 1.9 4.5z"/></svg>