<svg xmlns="http://www.w3.org/2000/svg" width="153.6" height="179.2"><path d="M112 92.8q0 1.2-1 2.4l-31.9 31.9q-1.1.9-2.3.9t-2.3-.9l-32-32q-1.5-1.6-.7-3.5.8-2 3-2H64V54.4q0-1.4.9-2.3t2.3-.9h19.2q1.4 0 2.3.9t.9 2.3v35.2h19.2q1.4 0 2.3.9t.9 2.3zM76.8 35.2q-14.8 0-27.3 7.3T29.7 62.3t-7.3 27.3 7.3 27.3 19.8 19.8 27.3 7.3 27.3-7.3 19.8-19.8 7.3-27.3-7.3-27.3-19.8-19.8-27.3-7.3zm76.8 54.4q0 20.9-10.3 38.55t-27.95 27.95-38.55 10.3-38.55-10.3-27.95-27.95T0 89.6t10.3-38.55T38.25 23.1 76.8 12.8t38.55 10.3 27.95 27.95 10.3 38.55z"/></svg>