<svg xmlns="http://www.w3.org/2000/svg" width="179.2" height="179.2"><path d="M12.8 172.8q0 2.6-1.9 4.5t-4.5 1.9-4.5-1.9-1.9-4.5 1.9-4.5 4.5-1.9 4.5 1.9 1.9 4.5zM32 153.6q0 2.6-1.9 4.5t-4.5 1.9-4.5-1.9-1.9-4.5 1.9-4.5 4.5-1.9 4.5 1.9 1.9 4.5zm4.5-36.5 25.6 25.6-9 9-25.6-25.6zm33.9-1.9q0 2.6-1.9 4.5t-4.5 1.9-4.5-1.9-1.9-4.5 1.9-4.5 4.5-1.9 4.5 1.9 1.9 4.5zm70.7-32q0 5.9-1.15 10.85t-3.75 9.35-4.4 6.75-5.3 6.45q-3.1 3.5-4.55 5.4t-3.35 5-2.65 6.4-.75 7.4q0 15.9-11.25 27.15T76.8 179.2q-2.6 0-4.5-1.9t-1.9-4.5 1.9-4.5 4.5-1.9q10.6 0 18.1-7.5t7.5-18.1q0-5.7 1.15-10.55t3.7-9.1 4.35-6.65 5.2-6.3q4-4.6 5.95-7.2t3.75-7.45 1.8-10.35q0-18.5-13.15-31.65T83.5 38.4 51.85 51.55 38.7 83.2q0 2.6-1.9 4.5t-4.5 1.9-4.5-1.9-1.9-4.5q0-11.7 4.55-22.35t12.3-18.4 18.4-12.3T83.5 25.6t22.35 4.55 18.4 12.3 12.3 18.4 4.55 22.35zM89.6 96q0 2.6-1.9 4.5t-4.5 1.9-4.5-1.9-1.9-4.5 1.9-4.5 4.5-1.9 4.5 1.9 1.9 4.5zm28.8-12.8q0 2.6-1.9 4.5t-4.5 1.9-4.5-1.9-1.9-4.5q0-9.3-6.55-15.85T83.2 60.8q-9.2 0-15.8 6.55T60.8 83.2q0 2.6-1.9 4.5t-4.5 1.9-4.5-1.9-1.9-4.5q0-14.6 10.3-24.9T83.2 48t24.9 10.3 10.3 24.9zm39.4-28.9q1 2.5-.1 4.9t-3.6 3.4q-.9.4-2.3.4-1.9 0-3.55-1.1t-2.35-3q-6.8-17.8-22.4-29.5-2.1-1.6-2.5-4.2t1.2-4.7q1.7-2.1 4.3-2.5t4.7 1.2q18.3 13.7 26.6 35.1zm21-8.1q.9 2.5-.15 4.9t-3.55 3.4q-1.1.4-2.3.4-4.4 0-6-4.1-9.2-23.8-29.7-39.3-2.2-1.6-2.55-4.2t1.25-4.7Q137.4.4 140 .05t4.7 1.25q23.5 17.5 34.1 44.9z"/></svg>