<svg xmlns="http://www.w3.org/2000/svg" width="166.4" height="179.2"><path d="M148.2 105q4.6 2.6 5.95 7.75t-1.25 9.75l-6.4 11q-2.6 4.6-7.75 5.95T129 138.2l-26.6-15.3v30.7q0 5.2-3.8 9t-9 3.8H76.8q-5.2 0-9-3.8t-3.8-9v-30.7l-26.6 15.3q-4.6 2.6-9.75 1.25t-7.75-5.95l-6.4-11q-2.6-4.6-1.25-9.75T18.2 105l26.6-15.4-26.6-15.4q-4.6-2.6-5.95-7.75t1.25-9.75l6.4-11q2.6-4.6 7.75-5.95T37.4 41L64 56.3V25.6q0-5.2 3.8-9t9-3.8h12.8q5.2 0 9 3.8t3.8 9v30.7L129 41q4.6-2.6 9.75-1.25t7.75 5.95l6.4 11q2.6 4.6 1.25 9.75t-5.95 7.75l-26.6 15.4z"/></svg>