<svg xmlns="http://www.w3.org/2000/svg" version="1.1" width="230.4" height="179.2"><path d="M504 542h171l-1 265zM1530 641q0 87 -50.5 140t-146.5 53h-54v-388h52q91 0 145 57t54 138zM956 1018l1 -756q0 -14 -9.5 -24t-23.5 -10h-216q-14 0 -23.5 10t-9.5 24v62h-291l-55 -81q-10 -15 -28 -15h-267q-21 0 -30.5 18t3.5 35l556 757q9 14 27 14h332q14 0 24 -10 t10 -24zM1783 641q0 -193 -125.5 -303t-324.5 -110h-270q-14 0 -24 10t-10 24v756q0 14 10 24t24 10h268q200 0 326 -109t126 -302zM1939 640q0 -11 -0.5 -29t-8 -71.5t-21.5 -102t-44.5 -108t-73.5 -102.5h-51q38 45 66.5 104.5t41.5 112t21 98t9 72.5l1 27q0 8 -0.5 22.5 t-7.5 60t-20 91.5t-41 111.5t-66 124.5h43q41 -47 72 -107t45.5 -111.5t23 -96t10.5 -70.5zM2123 640q0 -11 -0.5 -29t-8 -71.5t-21.5 -102t-45 -108t-74 -102.5h-51q38 45 66.5 104.5t41.5 112t21 98t9 72.5l1 27q0 8 -0.5 22.5t-7.5 60t-19.5 91.5t-40.5 111.5t-66 124.5 h43q41 -47 72 -107t45.5 -111.5t23 -96t10.5 -70.5zM2304 640q0 -11 -0.5 -29t-8 -71.5t-21.5 -102t-44.5 -108t-73.5 -102.5h-51q38 45 66 104.5t41 112t21 98t9 72.5l1 27q0 8 -0.5 22.5t-7.5 60t-19.5 91.5t-40.5 111.5t-66 124.5h43q41 -47 72 -107t45.5 -111.5t23 -96 t9.5 -70.5z" transform="scale(0.1 -0.1) translate(0 -1536)" /></svg>
