<svg xmlns="http://www.w3.org/2000/svg" width="230.4" height="179.2"><path d="m172.8 44.8-38.4 70.4h76.8zm-128 0L6.4 115.2h76.8zm82.1-19.2q-1.4 4-4.55 7.15t-7.15 4.55v129.1H176q1.4 0 2.3.9t.9 2.3v6.4q0 1.4-.9 2.3t-2.3.9H41.6q-1.4 0-2.3-.9t-.9-2.3v-6.4q0-1.4.9-2.3t2.3-.9h60.8V37.3q-4-1.4-7.15-4.55T90.7 25.6H41.6q-1.4 0-2.3-.9t-.9-2.3V16q0-1.4.9-2.3t2.3-.9h49.1q2.1-5.7 7-9.25T108.8 0t11.1 3.55 7 9.25H176q1.4 0 2.3.9t.9 2.3v6.4q0 1.4-.9 2.3t-2.3.9h-49.1zm-18.1 1.6q3.3 0 5.65-2.35t2.35-5.65-2.35-5.65-5.65-2.35-5.65 2.35-2.35 5.65 2.35 5.65 5.65 2.35zm108.8 88q0 7.3-4.65 13.1t-11.75 9.1-14.45 4.95T172.8 144t-13.95-1.65-14.45-4.95-11.75-9.1-4.65-13.1q0-1.1 3.5-8.1t9.2-17.45 10.7-19.55 10.2-18.4 5.6-10q1.8-3.3 5.6-3.3t5.6 3.3q.4.7 5.6 10t10.2 18.4 10.7 19.55 9.2 17.45 3.5 8.1zm-128 0q0 7.3-4.65 13.1t-11.75 9.1-14.45 4.95T44.8 144t-13.95-1.65-14.45-4.95-11.75-9.1T0 115.2q0-1.1 3.5-8.1t9.2-17.45T23.4 70.1t10.2-18.4 5.6-10q1.8-3.3 5.6-3.3t5.6 3.3q.4.7 5.6 10t10.2 18.4 10.7 19.55 9.2 17.45 3.5 8.1z"/></svg>