<svg xmlns="http://www.w3.org/2000/svg" version="1.1" width="153.6" height="179.2"><path d="M1248 1408q119 0 203.5 -84.5t84.5 -203.5v-960q0 -119 -84.5 -203.5t-203.5 -84.5h-960q-119 0 -203.5 84.5t-84.5 203.5v960q0 119 84.5 203.5t203.5 84.5h960zM499 1041h-371v-787h382q117 0 197 57.5t80 170.5q0 158 -143 200q107 52 107 164q0 57 -19.5 96.5 t-56.5 60.5t-79 29.5t-97 8.5zM477 723h-176v184h163q119 0 119 -90q0 -94 -106 -94zM486 388h-185v217h189q124 0 124 -113q0 -104 -128 -104zM1136 356q-68 0 -104 38t-36 107h411q1 10 1 30q0 132 -74.5 220.5t-203.5 88.5q-128 0 -210 -86t-82 -216q0 -135 79 -217 t213 -82q205 0 267 191h-138q-11 -34 -47.5 -54t-75.5 -20zM1126 722q113 0 124 -122h-254q4 56 39 89t91 33zM964 988h319v-77h-319v77z" transform="scale(0.1 -0.1) translate(0 -1536)" /></svg>
