<svg xmlns="http://www.w3.org/2000/svg" width="204.8" height="179.2"><path d="M184.8 33.9h-51.1v12.4h51.1V33.9zm-25.2 42.6q-9 0-14.6 5.25T138.8 96h40.8q-1.8-19.5-20-19.5zm1.6 58.5q6.3 0 12.2-3.2t7.6-8.7h22.1q-10 30.7-42.7 30.7-21.4 0-34.05-13.2t-12.65-34.7q0-20.8 13.05-34.55T160.4 57.6q13.8 0 24.05 6.8t15.3 17.9 5.05 24.8q0 1.7-.2 4.7h-65.8q0 11.1 5.75 17.15T161.2 135zm-133.5-5h29.6q20.5 0 20.5-16.7 0-18-19.9-18H27.7V130zm0-53.7h28.1q7.8 0 12.35-3.65T72.7 61.3q0-14.4-19-14.4h-26v29.4zM0 25.4h59.4q8.7 0 15.5 1.4t12.65 4.75 9 9.65 3.15 15.4q0 18.1-17.2 26.3 11.4 3.2 17.2 11.5t5.8 20.4q0 7.5-2.45 13.65t-6.6 10.35-9.85 7.1-12.1 4.2-13.4 1.3H0v-126z"/></svg>