<svg xmlns="http://www.w3.org/2000/svg" width="204.8" height="179.2"><path d="M155.8 85.2q6.1 35.6 29.8 55.6 0 5.2-3.8 9t-9 3.8H128q0 10.6-7.5 18.1t-18.1 7.5-18.05-7.45-7.55-18.05zm-53.4 86q1.6 0 1.6-1.6t-1.6-1.6q-5.9 0-10.15-4.25T88 153.6q0-1.6-1.6-1.6t-1.6 1.6q0 7.3 5.15 12.45t12.45 5.15zm100.2-160q.8 1 .75 2.35t-1.05 2.25L15.1 178q-1 .8-2.35.7t-2.15-1.1L2.2 168q-.8-1-.75-2.35t1.05-2.15l18.6-16.1q-1.9-3.2-1.9-6.6 5-4.2 9.1-8.8t8.5-11.95 7.45-15.85 5-20.6 1.95-26q0-15.2 11.7-28.25T93.6 13.5q-.8-1.9-.8-3.9 0-4 2.8-6.8t6.8-2.8 6.8 2.8 2.8 6.8q0 2-.8 3.9 12.4 1.8 21.9 8.25t14.8 15.75l41.8-36.3q1-.8 2.35-.7t2.15 1.1z"/></svg>