<svg xmlns="http://www.w3.org/2000/svg" version="1.1" width="179.2" height="179.2"><path d="M912 -160q0 16 -16 16q-59 0 -101.5 42.5t-42.5 101.5q0 16 -16 16t-16 -16q0 -73 51.5 -124.5t124.5 -51.5q16 0 16 16zM1728 128q0 -52 -38 -90t-90 -38h-448q0 -106 -75 -181t-181 -75t-181 75t-75 181h-448q-52 0 -90 38t-38 90q50 42 91 88t85 119.5t74.5 158.5 t50 206t19.5 260q0 152 117 282.5t307 158.5q-8 19 -8 39q0 40 28 68t68 28t68 -28t28 -68q0 -20 -8 -39q190 -28 307 -158.5t117 -282.5q0 -139 19.5 -260t50 -206t74.5 -158.5t85 -119.5t91 -88z" transform="scale(0.1 -0.1) translate(0 -1536)" /></svg>
