<svg xmlns="http://www.w3.org/2000/svg" width="179.2" height="179.2"><path d="M91.2 169.6q0-1.6-1.6-1.6-5.9 0-10.15-4.25T75.2 153.6q0-1.6-1.6-1.6t-1.6 1.6q0 7.3 5.15 12.45t12.45 5.15q1.6 0 1.6-1.6zm81.6-28.8q0 5.2-3.8 9t-9 3.8h-44.8q0 10.6-7.5 18.1t-18.1 7.5-18.1-7.5-7.5-18.1H19.2q-5.2 0-9-3.8t-3.8-9q5-4.2 9.1-8.8t8.5-11.95 7.45-15.85 5-20.6 1.95-26q0-15.2 11.7-28.25T80.8 13.5q-.8-1.9-.8-3.9 0-4 2.8-6.8T89.6 0t6.8 2.8 2.8 6.8q0 2-.8 3.9 19 2.8 30.7 15.85t11.7 28.25q0 13.9 1.95 26t5 20.6 7.45 15.85 8.5 11.95 9.1 8.8z"/></svg>