<svg xmlns="http://www.w3.org/2000/svg" version="1.1" width="179.2" height="179.2"><path d="M1792 128v-384h-1792v384q45 0 85 14t59 27.5t47 37.5q30 27 51.5 38t56.5 11q24 0 44 -7t31 -15t33 -27q29 -25 47 -38t58 -27t86 -14q45 0 85 14.5t58 27t48 37.5q21 19 32.5 27t31 15t43.5 7q35 0 56.5 -11t51.5 -38q28 -24 47 -37.5t59 -27.5t85 -14t85 14t59 27.5 t47 37.5q30 27 51.5 38t56.5 11q34 0 55.5 -11t51.5 -38q28 -24 47 -37.5t59 -27.5t85 -14zM1792 448v-192q-24 0 -44 7t-31 15t-33 27q-29 25 -47 38t-58 27t-85 14q-46 0 -86 -14t-58 -27t-47 -38q-22 -19 -33 -27t-31 -15t-44 -7q-35 0 -56.5 11t-51.5 38q-29 25 -47 38 t-58 27t-86 14q-45 0 -85 -14.5t-58 -27t-48 -37.5q-21 -19 -32.5 -27t-31 -15t-43.5 -7q-35 0 -56.5 11t-51.5 38q-28 24 -47 37.5t-59 27.5t-85 14q-46 0 -86 -14t-58 -27t-47 -38q-30 -27 -51.5 -38t-56.5 -11v192q0 80 56 136t136 56h64v448h256v-448h256v448h256v-448 h256v448h256v-448h64q80 0 136 -56t56 -136zM512 1312q0 -77 -36 -118.5t-92 -41.5q-53 0 -90.5 37.5t-37.5 90.5q0 29 9.5 51t23.5 34t31 28t31 31.5t23.5 44.5t9.5 67q38 0 83 -74t45 -150zM1024 1312q0 -77 -36 -118.5t-92 -41.5q-53 0 -90.5 37.5t-37.5 90.5 q0 29 9.5 51t23.5 34t31 28t31 31.5t23.5 44.5t9.5 67q38 0 83 -74t45 -150zM1536 1312q0 -77 -36 -118.5t-92 -41.5q-53 0 -90.5 37.5t-37.5 90.5q0 29 9.5 51t23.5 34t31 28t31 31.5t23.5 44.5t9.5 67q38 0 83 -74t45 -150z" transform="scale(0.1 -0.1) translate(0 -1536)" /></svg>
