<svg xmlns="http://www.w3.org/2000/svg" width="140.8" height="179.2"><path d="M81.5 85.9q.8 6.3-5.05 10.1t-11.15.6q-3.9-1.7-5.35-5.8t-.05-8.2 5.2-5.8q3.6-1.8 7.25-1.2t6.4 3.55 2.75 6.75zm11.1-2.1q-1.4-10.7-11.3-16.4t-19.7-1.3q-6.3 2.8-10.05 8.85T48.1 87.9q.4 9.1 7.75 15.5T72.4 109q9.1-.8 15.2-8.4t5-16.8zm23.9-54.2q-2-2.7-5.6-4.45t-5.8-2.2T98 21.7q-29.1-4.7-56.6.2-4.3.7-6.6 1.2t-5.5 2.2-5 4.3q3 2.8 7.6 4.55t7.35 2.2T48 37.5q22.8 2.9 44.8.1 6.3-.8 8.95-1.2t7.25-2.15 7.5-4.65zm5.7 103.5q-.8 2.6-1.55 7.65t-1.4 8.4-2.85 7-5.8 5.65q-8.6 4.8-18.95 7.15t-20.2 2.2-20.15-1.85q-4.6-.8-8.15-1.8t-7.65-2.7-7.3-4.35-5.2-6.15q-2.5-9.6-5.7-29.2l.6-1.6 1.8-.9q22.3 14.8 50.65 14.8t50.75-14.8q2.1.6 2.4 2.3t-.5 4.5-.8 3.7zM140.3 37q-2.6 16.7-11.1 65.5-.5 3-2.7 5.6t-4.35 4-5.45 3.1q-25.2 12.6-61 8.8-24.8-2.7-39.4-13.9-1.5-1.2-2.55-2.65t-1.7-3.5-.9-3.4-.6-3.95-.55-3.5q-.9-5-2.65-15t-2.8-16.15T2.2 47.2 0 31.4q.3-2.6 1.75-4.85T4.9 22.8t4.5-3 4.6-2.25 4.8-1.85q12.5-4.6 31.3-6.4 37.9-3.7 67.6 5 15.5 4.6 21.5 12.2 1.6 2 1.65 5.1t-.55 5.4z"/></svg>