<svg xmlns="http://www.w3.org/2000/svg" width="140.8" height="179.2"><path d="M36.6 31.1q-6.4 0-11-4.55T21 15.5q0-6.4 4.6-10.95T36.6 0t10.95 4.55T52.1 15.5q0 6.5-4.55 11.05T36.6 31.1zm55.1 64.2q0 5-3 6.75t-6.35.65-4.75-3.4L40.9 55.5q-.7-1.2-1.4-1.55t-1.1-.15l-.3.3q-.7.8.4 2.1l12.2 13.9.1 35.4-16.1 45.7q-6.7 19.2-9.2 23.4-1.5 2.6-2.8 3.2-5 2.6-10.3.1-2.9-1.3-4.15-4.3t-.95-5.7q.2-1.7 19.7-61.8l.5-41.6L19 80.9l3.5 22.2q.4 2.4-.1 4.2t-1.4 2.75-1.9 1.6-1.7.75l-.7.2q-1.9.3-3.45-.3t-2.4-1.6-1.4-2.2-.75-1.95-.2-.95L3.9 75.7 25 37.6q2.3-3.4 11.3-3.4 7.5 0 10.7 4l42.4 52.1q.7.5 1.4 1.7l.3.3-.1.1q.7 1.3.7 2.9zm-40.3 15q4.3 11.3 8.85 22.5t6.95 16.8l2.4 5.5q3.6 9.3 4.2 12.5 1.1 7-3.6 9.7-3.5 2.2-6.6 1.6t-5.1-2.2-2.9-3.5h-.1q-.6-1.6-.8-2.5l-12.4-35.1zm82.4 59.2q3.1 4.9 3.1 5.7 0 .5-.3.7-.9.5-1.45-.05t-1.55-2.6-1.6-3.05q-11.4-17.2-42.3-66.1.3.1.7-.1t.7-.4l.3-.2q1.1-.9 1.1-1.7z"/></svg>