<svg xmlns="http://www.w3.org/2000/svg" version="1.1" width="140.8" height="179.2"><path d="M555 15q74 -32 140 -32q376 0 376 335q0 114 -41 180q-27 44 -61.5 74t-67.5 46.5t-80.5 25t-84 10.5t-94.5 2q-73 0 -101 -10q0 -53 -0.5 -159t-0.5 -158q0 -8 -1 -67.5t-0.5 -96.5t4.5 -83.5t12 -66.5zM541 761q42 -7 109 -7q82 0 143 13t110 44.5t74.5 89.5t25.5 142 q0 70 -29 122.5t-79 82t-108 43.5t-124 14q-50 0 -130 -13q0 -50 4 -151t4 -152q0 -27 -0.5 -80t-0.5 -79q0 -46 1 -69zM0 -128l2 94q15 4 85 16t106 27q7 12 12.5 27t8.5 33.5t5.5 32.5t3 37.5t0.5 34v35.5v30q0 982 -22 1025q-4 8 -22 14.5t-44.5 11t-49.5 7t-48.5 4.5 t-30.5 3l-4 83q98 2 340 11.5t373 9.5q23 0 68 -0.5t68 -0.5q70 0 136.5 -13t128.5 -42t108 -71t74 -104.5t28 -137.5q0 -52 -16.5 -95.5t-39 -72t-64.5 -57.5t-73 -45t-84 -40q154 -35 256.5 -134t102.5 -248q0 -100 -35 -179.5t-93.5 -130.5t-138 -85.5t-163.5 -48.5 t-176 -14q-44 0 -132 3t-132 3q-106 0 -307 -11t-231 -12z" transform="scale(0.1 -0.1) translate(0 -1536)" /></svg>
