<svg xmlns="http://www.w3.org/2000/svg" width="140.8" height="179.2"><path d="M55.5 152.1q7.4 3.2 14 3.2 37.6 0 37.6-33.5 0-11.4-4.1-18-2.7-4.4-6.15-7.4t-6.75-4.65-8.05-2.5-8.4-1.05-9.45-.2q-7.3 0-10.1 1 0 5.3-.05 15.9T54 120.7q0 .8-.1 6.75t-.05 9.65.45 8.35 1.2 6.65zm-1.4-74.6q4.2.7 10.9.7 8.2 0 14.3-1.3t11-4.45 7.45-8.95 2.55-14.2q0-7-2.9-12.25t-7.9-8.2-10.8-4.35-12.4-1.4q-5 0-13 1.3 0 5 .4 15.1t.4 15.2q0 2.7-.05 8T54 70.6q0 4.6.1 6.9zM0 166.4l.2-9.4q1.5-.4 8.5-1.6t10.6-2.7q.7-1.2 1.25-2.7t.85-3.35.55-3.25.3-3.75.05-3.4v-6.55q0-98.2-2.2-102.5-.4-.8-2.2-1.45t-4.45-1.1-4.95-.7-4.85-.45-3.05-.3l-.4-8.3q9.8-.2 34-1.15t37.3-.95q2.3 0 6.8.05t6.8.05q7 0 13.65 1.3t12.85 4.2 10.8 7.1 7.4 10.45 2.8 13.75q0 5.2-1.65 9.55t-3.9 7.2-6.45 5.75-7.3 4.5-8.4 4q15.4 3.5 25.65 13.4t10.25 24.8q0 10-3.5 17.95t-9.35 13.05-13.8 8.55-16.35 4.85-17.6 1.4q-4.4 0-13.2-.3t-13.2-.3q-10.6 0-30.7 1.1T0 166.4z"/></svg>