<svg xmlns="http://www.w3.org/2000/svg" width="179.2" height="179.2"><path d="M57.1 58.9q-1-2.5-3.4-3.5t-4.9 0Q38 59.8 29.7 68.1T17 87.2q-1 2.5 0 4.9t3.5 3.4q1.3.5 2.4.5 4.2 0 6-4 3.4-8.4 9.85-14.85T53.6 67.3q2.5-1.1 3.5-3.5t0-4.9zm94.2-35.6 4.6 4.6-24.4 24.3 6.8 6.8q1.9 1.9 1.9 4.55t-1.9 4.55l-6.4 6.4q8.9 16.1 8.9 34.3 0 14.3-5.55 27.35t-15 22.5-22.5 15-27.35 5.55-27.35-5.55-22.5-15-15-22.5T0 108.8t5.55-27.35 15-22.5 22.5-15T70.4 38.4q18.2 0 34.3 8.9l6.4-6.4q1.9-1.9 4.55-1.9t4.55 1.9l6.8 6.8zm.8-5.6q-1 1-2.2 1-1.3 0-2.3-1l-9.1-9q-.9-1-.9-2.3t.9-2.3q1-.9 2.3-.9t2.3.9l9 9.1q1 .9 1 2.25t-1 2.25zm23 23q-1.1.9-2.3.9t-2.3-.9l-9-9.1q-1-.9-1-2.25t1-2.25q.9-1 2.25-1t2.25 1l9.1 9q.9 1 .9 2.3t-.9 2.3zm4.1-18.3q0 1.4-.9 2.3t-2.3.9h-9.6q-1.4 0-2.3-.9t-.9-2.3.9-2.3 2.3-.9h9.6q1.4 0 2.3.9t.9 2.3zM160 3.2v9.6q0 1.4-.9 2.3t-2.3.9-2.3-.9-.9-2.3V3.2q0-1.4.9-2.3t2.3-.9 2.3.9.9 2.3zm15.1 5.5-9.1 9q-1 1-2.2 1-1.3 0-2.3-1-1-.9-1-2.25t1-2.25l9-9.1q1-.9 2.3-.9t2.3.9q.9 1 .9 2.3t-.9 2.3z"/></svg>