<svg xmlns="http://www.w3.org/2000/svg" width="166.4" height="179.2"><path d="M163.9 47.8q4 5.7 1.8 12.9l-27.5 90.6q-1.9 6.4-7.65 10.75t-12.25 4.35H26q-7.7 0-14.85-5.35T1.2 147.9q-2.4-6.7-.2-12.7 0-.4.3-2.7t.4-3.7q.1-.8-.3-2.15t-.3-1.95q.2-1.1.8-2.1t1.65-2.35 1.65-2.35q2.3-3.8 4.5-9.15t3-9.15q.3-1 .05-3t-.05-2.8q.3-1.1 1.7-2.8t1.7-2.3q2.1-3.6 4.2-9.2t2.5-9q.1-.9-.25-3.2t.05-2.8q.4-1.3 2.2-3.05T27 59.2q1.9-2.6 4.25-8.45T34 41.1q.1-.8-.3-2.55t-.2-2.65q.2-.8.9-1.8t1.8-2.3 1.7-2.1q.8-1.2 1.65-3.05t1.5-3.5 1.6-3.6 1.95-3.2T47.25 14t3.6-1.15 4.75.55l-.1.3q3.8-.9 5.1-.9h76.1q7.4 0 11.4 5.6t1.8 13L122.5 122q-3.6 11.9-7.15 15.35t-12.85 3.45H15.6q-2.7 0-3.8 1.5-1.1 1.6-.1 4.3 2.4 7 14.4 7h92.3q2.9 0 5.6-1.55t3.5-4.15l30-98.7q.7-2.2.5-5.7 3.8 1.5 5.9 4.3zM57.5 48q-.4 1.3.2 2.25t2 .95h60.8q1.3 0 2.55-.95T124.7 48l2.1-6.4q.4-1.3-.2-2.25t-2-.95H63.8q-1.3 0-2.55.95T59.6 41.6zm-8.3 25.6q-.4 1.3.2 2.25t2 .95h60.8q1.3 0 2.55-.95t1.65-2.25l2.1-6.4q.4-1.3-.2-2.25t-2-.95H55.5q-1.3 0-2.55.95T51.3 67.2z"/></svg>