<svg xmlns="http://www.w3.org/2000/svg" width="217.6" height="179.2"><path d="M19.2 118.4q-6.6 0-11.3 4.7t-4.7 11.3 4.7 11.3 11.3 4.7 11.3-4.7 4.7-11.3-4.7-11.3-11.3-4.7zm51.2 0q-6.6 0-11.3 4.7t-4.7 11.3 4.7 11.3 11.3 4.7 11.3-4.7 4.7-11.3-4.7-11.3-11.3-4.7zm0-51.2q-6.6 0-11.3 4.7t-4.7 11.3 4.7 11.3 11.3 4.7 11.3-4.7 4.7-11.3-4.7-11.3-11.3-4.7zm76.8 51.2q-6.6 0-11.3 4.7t-4.7 11.3 4.7 11.3 11.3 4.7 11.3-4.7 4.7-11.3-4.7-11.3-11.3-4.7zm51.2 0q-6.6 0-11.3 4.7t-4.7 11.3 4.7 11.3 11.3 4.7 11.3-4.7 4.7-11.3-4.7-11.3-11.3-4.7zm-51.2-51.2q-6.6 0-11.3 4.7t-4.7 11.3 4.7 11.3 11.3 4.7 11.3-4.7 4.7-11.3-4.7-11.3-11.3-4.7zm51.2 0q-6.6 0-11.3 4.7t-4.7 11.3 4.7 11.3 11.3 4.7 11.3-4.7 4.7-11.3-4.7-11.3-11.3-4.7zm0-51.2q-6.6 0-11.3 4.7T182.4 32t4.7 11.3 11.3 4.7 11.3-4.7 4.7-11.3-4.7-11.3-11.3-4.7zm-160 118.4q0 8-5.6 13.6t-13.6 5.6T5.6 148 0 134.4t5.6-13.6 13.6-5.6 13.6 5.6 5.6 13.6zm51.2 0q0 8-5.6 13.6t-13.6 5.6-13.6-5.6-5.6-13.6 5.6-13.6 13.6-5.6 13.6 5.6 5.6 13.6zM38.4 83.2q0 8-5.6 13.6t-13.6 5.6-13.6-5.6T0 83.2t5.6-13.6T19.2 64t13.6 5.6 5.6 13.6zm51.2 0q0 8-5.6 13.6t-13.6 5.6-13.6-5.6-5.6-13.6 5.6-13.6T70.4 64 84 69.6t5.6 13.6zM38.4 32q0 8-5.6 13.6t-13.6 5.6-13.6-5.6T0 32t5.6-13.6 13.6-5.6 13.6 5.6T38.4 32zm128 102.4q0 8-5.6 13.6t-13.6 5.6-13.6-5.6-5.6-13.6 5.6-13.6 13.6-5.6 13.6 5.6 5.6 13.6zM89.6 32q0 8-5.6 13.6t-13.6 5.6-13.6-5.6T51.2 32t5.6-13.6 13.6-5.6T84 18.4 89.6 32zm128 102.4q0 8-5.6 13.6t-13.6 5.6-13.6-5.6-5.6-13.6 5.6-13.6 13.6-5.6 13.6 5.6 5.6 13.6zm-51.2-51.2q0 8-5.6 13.6t-13.6 5.6-13.6-5.6-5.6-13.6 5.6-13.6 13.6-5.6 13.6 5.6 5.6 13.6zm51.2 0q0 8-5.6 13.6t-13.6 5.6-13.6-5.6-5.6-13.6 5.6-13.6 13.6-5.6 13.6 5.6 5.6 13.6zM166.4 32q0 8-5.6 13.6t-13.6 5.6-13.6-5.6T128 32t5.6-13.6 13.6-5.6 13.6 5.6 5.6 13.6zm51.2 0q0 8-5.6 13.6t-13.6 5.6-13.6-5.6-5.6-13.6 5.6-13.6 13.6-5.6 13.6 5.6 5.6 13.6z"/></svg>