<svg xmlns="http://www.w3.org/2000/svg" width="166.4" height="179.2"><path d="M163.2 96q0 2.6-1.9 4.5t-4.5 1.9h-22.4q0 17.1-6.7 29l20.8 20.9q1.9 1.9 1.9 4.5t-1.9 4.5q-1.8 1.9-4.5 1.9t-4.5-1.9l-19.8-19.7q-.5.5-1.5 1.3t-4.2 2.85-6.5 3.65-8.2 2.9-9.7 1.3V64H76.8v89.6q-5.1 0-10.15-1.35t-8.7-3.3-6.6-3.9T47 141.8l-1.5-1.4-18.3 20.7q-2 2.1-4.8 2.1-2.4 0-4.3-1.6-1.9-1.8-2.05-4.45t1.55-4.65l20.2-22.7Q32 118.4 32 102.4H9.6q-2.6 0-4.5-1.9T3.2 96t1.9-4.5 4.5-1.9H32V60.2L14.7 42.9q-1.9-1.9-1.9-4.5t1.9-4.5 4.5-1.9 4.5 1.9L41 51.2h84.4l17.3-17.3q1.9-1.9 4.5-1.9t4.5 1.9 1.9 4.5-1.9 4.5l-17.3 17.3v29.4h22.4q2.6 0 4.5 1.9t1.9 4.5zm-48-57.6h-64q0-13.3 9.35-22.65T83.2 6.4t22.65 9.35 9.35 22.65z"/></svg>