<svg xmlns="http://www.w3.org/2000/svg" width="153.6" height="179.2"><path d="M38.4 121.6q0-5.3-3.75-9.05t-9.05-3.75-9.05 3.75-3.75 9.05 3.75 9.05 9.05 3.75 9.05-3.75 3.75-9.05zm102.4 0q0-5.3-3.75-9.05T128 108.8t-9.05 3.75-3.75 9.05 3.75 9.05 9.05 3.75 9.05-3.75 3.75-9.05zM136.2 82 129 43.6q-.5-2.3-2.25-3.75t-4.05-1.45H30.9q-2.3 0-4.05 1.45T24.6 43.6L17.4 82q-.5 3 1.4 5.3t4.9 2.3h106.2q3 0 4.9-2.3t1.4-5.3zm-22.6-61.2q0-2-1.4-3.4t-3.4-1.4h-64q-2 0-3.4 1.4T40 20.8t1.4 3.4 3.4 1.4h64q2 0 3.4-1.4t1.4-3.4zm40 72.5v60.3h-12.8v12.8q0 5.3-3.75 9.05T128 179.2t-9.05-3.75-3.75-9.05v-12.8H38.4v12.8q0 5.3-3.75 9.05t-9.05 3.75-9.05-3.75-3.75-9.05v-12.8H0V93.3Q0 82.1 2.5 71l10.3-45.4q.9-7.8 9.75-13.7t23-8.9T76.8 0t31.25 3 23 8.9 9.75 13.7L151.3 71q2.3 10.2 2.3 22.3z"/></svg>