<svg xmlns="http://www.w3.org/2000/svg" version="1.1" width="179.2" height="179.2"><path d="M384 0q0 53 -37.5 90.5t-90.5 37.5t-90.5 -37.5t-37.5 -90.5t37.5 -90.5t90.5 -37.5t90.5 37.5t37.5 90.5zM768 0q0 53 -37.5 90.5t-90.5 37.5t-90.5 -37.5t-37.5 -90.5t37.5 -90.5t90.5 -37.5t90.5 37.5t37.5 90.5zM384 384q0 53 -37.5 90.5t-90.5 37.5t-90.5 -37.5 t-37.5 -90.5t37.5 -90.5t90.5 -37.5t90.5 37.5t37.5 90.5zM1152 0q0 53 -37.5 90.5t-90.5 37.5t-90.5 -37.5t-37.5 -90.5t37.5 -90.5t90.5 -37.5t90.5 37.5t37.5 90.5zM768 384q0 53 -37.5 90.5t-90.5 37.5t-90.5 -37.5t-37.5 -90.5t37.5 -90.5t90.5 -37.5t90.5 37.5 t37.5 90.5zM384 768q0 53 -37.5 90.5t-90.5 37.5t-90.5 -37.5t-37.5 -90.5t37.5 -90.5t90.5 -37.5t90.5 37.5t37.5 90.5zM1152 384q0 53 -37.5 90.5t-90.5 37.5t-90.5 -37.5t-37.5 -90.5t37.5 -90.5t90.5 -37.5t90.5 37.5t37.5 90.5zM768 768q0 53 -37.5 90.5t-90.5 37.5 t-90.5 -37.5t-37.5 -90.5t37.5 -90.5t90.5 -37.5t90.5 37.5t37.5 90.5zM1536 0v384q0 52 -38 90t-90 38t-90 -38t-38 -90v-384q0 -52 38 -90t90 -38t90 38t38 90zM1152 768q0 53 -37.5 90.5t-90.5 37.5t-90.5 -37.5t-37.5 -90.5t37.5 -90.5t90.5 -37.5t90.5 37.5t37.5 90.5z M1536 1088v256q0 26 -19 45t-45 19h-1280q-26 0 -45 -19t-19 -45v-256q0 -26 19 -45t45 -19h1280q26 0 45 19t19 45zM1536 768q0 53 -37.5 90.5t-90.5 37.5t-90.5 -37.5t-37.5 -90.5t37.5 -90.5t90.5 -37.5t90.5 37.5t37.5 90.5zM1664 1408v-1536q0 -52 -38 -90t-90 -38 h-1408q-52 0 -90 38t-38 90v1536q0 52 38 90t90 38h1408q52 0 90 -38t38 -90z" transform="scale(0.1 -0.1) translate(0 -1536)" /></svg>
