<svg xmlns="http://www.w3.org/2000/svg" width="166.4" height="179.2"><path d="M12.8 166.4h28.8v-28.8H12.8v28.8zm35.2 0h32v-28.8H48v28.8zm-35.2-35.2h28.8v-32H12.8v32zm35.2 0h32v-32H48v32zM12.8 92.8h28.8V64H12.8v28.8zm73.6 73.6h32v-28.8h-32v28.8zM48 92.8h32V64H48v28.8zm76.8 73.6h28.8v-28.8h-28.8v28.8zm-38.4-35.2h32v-32h-32v32zM51.2 44.8V16q0-1.3-.95-2.25T48 12.8h-6.4q-1.3 0-2.25.95T38.4 16v28.8q0 1.3.95 2.25t2.25.95H48q1.3 0 2.25-.95t.95-2.25zm73.6 86.4h28.8v-32h-28.8v32zM86.4 92.8h32V64h-32v28.8zm38.4 0h28.8V64h-28.8v28.8zm3.2-48V16q0-1.3-.95-2.25t-2.25-.95h-6.4q-1.3 0-2.25.95T115.2 16v28.8q0 1.3.95 2.25t2.25.95h6.4q1.3 0 2.25-.95t.95-2.25zm38.4-6.4v128q0 5.2-3.8 9t-9 3.8H12.8q-5.2 0-9-3.8t-3.8-9v-128q0-5.2 3.8-9t9-3.8h12.8V16q0-6.6 4.7-11.3T41.6 0H48q6.6 0 11.3 4.7T64 16v9.6h38.4V16q0-6.6 4.7-11.3T118.4 0h6.4q6.6 0 11.3 4.7t4.7 11.3v9.6h12.8q5.2 0 9 3.8t3.8 9z"/></svg>