<svg xmlns="http://www.w3.org/2000/svg" width="166.4" height="179.2"><path d="M12.8 166.4h140.8V64H12.8v102.4zM51.2 44.8V16q0-1.4-.9-2.3t-2.3-.9h-6.4q-1.4 0-2.3.9t-.9 2.3v28.8q0 1.4.9 2.3t2.3.9H48q1.4 0 2.3-.9t.9-2.3zm76.8 0V16q0-1.4-.9-2.3t-2.3-.9h-6.4q-1.4 0-2.3.9t-.9 2.3v28.8q0 1.4.9 2.3t2.3.9h6.4q1.4 0 2.3-.9t.9-2.3zm38.4-6.4v128q0 5.2-3.8 9t-9 3.8H12.8q-5.2 0-9-3.8t-3.8-9v-128q0-5.2 3.8-9t9-3.8h12.8V16q0-6.6 4.7-11.3T41.6 0H48q6.6 0 11.3 4.7T64 16v9.6h38.4V16q0-6.6 4.7-11.3T118.4 0h6.4q6.6 0 11.3 4.7t4.7 11.3v9.6h12.8q5.2 0 9 3.8t3.8 9z"/></svg>