<svg xmlns="http://www.w3.org/2000/svg" version="1.1" width="204.8" height="179.2"><path d="M480 448q0 66 -47 113t-113 47t-113 -47t-47 -113t47 -113t113 -47t113 47t47 113zM516 768h1016l-89 357q-2 8 -14 17.5t-21 9.5h-768q-9 0 -21 -9.5t-14 -17.5zM1888 448q0 66 -47 113t-113 47t-113 -47t-47 -113t47 -113t113 -47t113 47t47 113zM2048 544v-384 q0 -14 -9 -23t-23 -9h-96v-128q0 -80 -56 -136t-136 -56t-136 56t-56 136v128h-1024v-128q0 -80 -56 -136t-136 -56t-136 56t-56 136v128h-96q-14 0 -23 9t-9 23v384q0 93 65.5 158.5t158.5 65.5h28l105 419q23 94 104 157.5t179 63.5h768q98 0 179 -63.5t104 -157.5 l105 -419h28q93 0 158.5 -65.5t65.5 -158.5z" transform="scale(0.1 -0.1) translate(0 -1536)" /></svg>
