<svg xmlns="http://www.w3.org/2000/svg" width="166.4" height="179.2"><path d="M121.6 70.4q0-2.6-1.9-4.5t-4.5-1.9h-12.8V51.2q0-2.6-1.9-4.5T96 44.8t-4.5 1.9-1.9 4.5V64H76.8q-2.6 0-4.5 1.9t-1.9 4.5 1.9 4.5 4.5 1.9h12.8v12.8q0 2.6 1.9 4.5T96 96t4.5-1.9 1.9-4.5V76.8h12.8q2.6 0 4.5-1.9t1.9-4.5zM64 153.6q0 5.3-3.75 9.05t-9.05 3.75-9.05-3.75-3.75-9.05 3.75-9.05 9.05-3.75 9.05 3.75T64 153.6zm89.6 0q0 5.3-3.75 9.05t-9.05 3.75-9.05-3.75-3.75-9.05 3.75-9.05 9.05-3.75 9.05 3.75 3.75 9.05zm12.8-108.8V96q0 2.4-1.6 4.25t-4.1 2.15L56.3 114.6q.1.7.45 2.15t.6 2.65.25 2.2q0 1.6-2.4 6.4h92q2.6 0 4.5 1.9t1.9 4.5-1.9 4.5-4.5 1.9H44.8q-2.6 0-4.5-1.9t-1.9-4.5q0-1.4 1.1-3.95t2.95-5.95 2.05-3.8L26.8 38.4H6.4q-2.6 0-4.5-1.9T0 32t1.9-4.5 4.5-1.9H32q1.6 0 2.85.65t2 1.55 1.3 2.45.75 2.65.55 2.95.45 2.55H160q2.6 0 4.5 1.9t1.9 4.5z"/></svg>