<svg xmlns="http://www.w3.org/2000/svg" width="230.4" height="179.2"><path d="M11.9 68.2h8.9l-4.5-10.8zM74 120.8l7.4-7.9-7-7.9H58.1v4.9h14.2v5.5H58.1v5.4H74zm15.8-7.8 9.9 11v-21.7zm28.8-4.7q0-3.3-4-3.3h-8.4v6.9h8.3q4.1 0 4.1-3.6zm28.9-.4q0-2.9-4.2-2.9h-8.2v6.1h8.1q4.3 0 4.3-3.2zm-27.8-46.6q0-2.9-4.2-2.9h-8.2v6h8.1q4.3 0 4.3-3.1zm45.9 6.9h8.9l-4.4-10.8zM69.9 52.7v27.1h-6.6V58.6l-9.4 21.2h-5.7l-9.4-21.2v21.2H25.6l-2.5-6H9.6l-2.5 6h-7l11.6-27.1h9.6l11 25.7V52.7h10.6l8.5 18.4 7.7-18.4h10.8zm55.6 55.6q0 2-.55 3.5t-1.4 2.5-2.25 1.65-2.6 1-3.15.45-3.15.1-3.25-.05-2.95-.05v9.1H93.6l-8-9-8.3 9H51.7V99.4h26l8 8.9 8.2-8.9h20.7q10.9 0 10.9 8.9zM96.4 74.2v5.6H74.7V52.7h21.7v5.7H81.2v4.9H96v5.5H81.2v5.4h15.2zm134 55.9V153q0 5.5-3.85 9.45t-9.35 3.95h-204q-5.5 0-9.35-3.95T0 153V85.2h11.1l2.5-6.1h5.5l2.5 6.1h21.8v-4.6l1.9 4.6h11.3l2-4.7v4.7h54.1v-9.9l1-.1q1 0 1 1.4v8.6h27.9v-2.3q2.3 1.2 5.5 1.8t5.25.65 6.3-.05 5.15-.1l2.5-6.1h5.6l2.5 6.1h22.7v-5.8l3.4 5.8h18.2V47.4h-18v4.4l-2.5-4.4h-18.5v4.4l-2.3-4.4h-24.9q-6.9 0-10.9 2.2v-2.2h-17.2v2.2q-2.4-2.2-7.3-2.2H55.3L51 57.1l-4.3-9.7H26.9v4.4l-2.2-4.4H7.8L0 65.3V26.2q0-5.5 3.85-9.45t9.35-3.95h204q5.5 0 9.35 3.95t3.85 9.45V94h-12q-5.1 0-8.1 2.2V94h-17.7q-5.5 0-7.8 2.2V94h-31.6v2.2q-3.1-2.2-8.7-2.2h-20.9v2.2q-2.3-2.2-9.1-2.2H91.1l-5.4 5.8-5-5.8H45.8v37.8h34.3l5.5-5.9 5.2 5.9h21.1v-8.9h2.1q5.9 0 9-1.3v10.2h17.4v-9.9h.8q.8 0 1 .2t.2 1v8.7h52.9q5.7 0 8.8-2.4v2.4h16.8q6 0 9.5-1.7zm-75.8-23.4q0 2.3-1.2 4.3t-3.4 2.9q2.5.9 3.4 2.6t.9 4.6v5.4h-6.5V122q0-3.3-1.2-4.35t-4.6-1.05h-6.9v9.9h-6.5V99.4H144q4.8 0 7.7 1.5t2.9 5.8zM126.9 60q0 2.4-1.25 4.4t-3.35 2.9q2.6.9 3.45 2.55t.85 4.65v5.3h-6.5q0-.9.05-2.65t0-2.5-.3-1.85-.85-1.6-1.75-.85-2.95-.35h-7v9.8h-6.4V52.7l15.3.1q4.9 0 7.8 1.45t2.9 5.75zm52.9 60.9v5.6h-21.6V99.4h21.6v5.6h-15.1v4.9h14.8v5.5h-14.8v5.4zm-42.6-68.2v27.1h-6.6V52.7h6.6zm69.3 65.2q0 8.6-10.2 8.6h-12.6v-5.8h12.6q3.4 0 3.4-2.5 0-1.6-1.7-2.1t-4.15-.5-4.95-.35-4.2-2.25-1.7-5.5q0-3.9 2.6-6t6.6-2.1h13v5.7h-11.9q-3.6 0-3.6 2.5 0 1.6 1.75 2.05t4.2.4 4.9.25 4.2 2.15 1.75 5.45zm23.9-5V123q-2.4 3.5-8.8 3.5h-12.5v-5.8h12.5q3.3 0 3.3-2.5 0-1.3-1.25-1.9t-3.1-.55-4-.2-4-.8-3.1-2.4-1.25-4.85q0-3.9 2.65-6t6.65-2.1h12.9v5.7h-11.8q-3.6 0-3.6 2.5 0 2 2.9 2.2t6.85.5 5.65 2.6zm-16.5-60.1v27h-9.2l-12.2-20.3v20.3h-13.2l-2.6-6h-13.4l-2.5 6h-7.5q-12.9 0-12.9-13.3 0-13.8 13.3-13.8h6.3v5.9q-.7 0-2.8-.1t-2.85-.05-2.3.2-2.15.65-1.45 1.35-1.15 2.3-.3 3.35q0 3.8 1.35 5.8t4.95 2h2.9l9.2-21.3h9.7L186 78.4V52.8h9.9l11.4 18.8V52.8h6.6z"/></svg>