<svg xmlns="http://www.w3.org/2000/svg" version="1.1" width="230.4" height="179.2"><path d="M119 854h89l-45 108zM740 328l74 79l-70 79h-163v-49h142v-55h-142v-54h159zM898 406l99 -110v217zM1186 453q0 33 -40 33h-84v-69h83q41 0 41 36zM1475 457q0 29 -42 29h-82v-61h81q43 0 43 32zM1197 923q0 29 -42 29h-82v-60h81q43 0 43 31zM1656 854h89l-44 108z M699 1009v-271h-66v212l-94 -212h-57l-94 212v-212h-132l-25 60h-135l-25 -60h-70l116 271h96l110 -257v257h106l85 -184l77 184h108zM1255 453q0 -20 -5.5 -35t-14 -25t-22.5 -16.5t-26 -10t-31.5 -4.5t-31.5 -1t-32.5 0.5t-29.5 0.5v-91h-126l-80 90l-83 -90h-256v271h260 l80 -89l82 89h207q109 0 109 -89zM964 794v-56h-217v271h217v-57h-152v-49h148v-55h-148v-54h152zM2304 235v-229q0 -55 -38.5 -94.5t-93.5 -39.5h-2040q-55 0 -93.5 39.5t-38.5 94.5v678h111l25 61h55l25 -61h218v46l19 -46h113l20 47v-47h541v99l10 1q10 0 10 -14v-86h279 v23q23 -12 55 -18t52.5 -6.5t63 0.5t51.5 1l25 61h56l25 -61h227v58l34 -58h182v378h-180v-44l-25 44h-185v-44l-23 44h-249q-69 0 -109 -22v22h-172v-22q-24 22 -73 22h-628l-43 -97l-43 97h-198v-44l-22 44h-169l-78 -179v391q0 55 38.5 94.5t93.5 39.5h2040 q55 0 93.5 -39.5t38.5 -94.5v-678h-120q-51 0 -81 -22v22h-177q-55 0 -78 -22v22h-316v-22q-31 22 -87 22h-209v-22q-23 22 -91 22h-234l-54 -58l-50 58h-349v-378h343l55 59l52 -59h211v89h21q59 0 90 13v-102h174v99h8q8 0 10 -2t2 -10v-87h529q57 0 88 24v-24h168 q60 0 95 17zM1546 469q0 -23 -12 -43t-34 -29q25 -9 34 -26t9 -46v-54h-65v45q0 33 -12 43.5t-46 10.5h-69v-99h-65v271h154q48 0 77 -15t29 -58zM1269 936q0 -24 -12.5 -44t-33.5 -29q26 -9 34.5 -25.5t8.5 -46.5v-53h-65q0 9 0.5 26.5t0 25t-3 18.5t-8.5 16t-17.5 8.5 t-29.5 3.5h-70v-98h-64v271l153 -1q49 0 78 -14.5t29 -57.5zM1798 327v-56h-216v271h216v-56h-151v-49h148v-55h-148v-54zM1372 1009v-271h-66v271h66zM2065 357q0 -86 -102 -86h-126v58h126q34 0 34 25q0 16 -17 21t-41.5 5t-49.5 3.5t-42 22.5t-17 55q0 39 26 60t66 21 h130v-57h-119q-36 0 -36 -25q0 -16 17.5 -20.5t42 -4t49 -2.5t42 -21.5t17.5 -54.5zM2304 407v-101q-24 -35 -88 -35h-125v58h125q33 0 33 25q0 13 -12.5 19t-31 5.5t-40 2t-40 8t-31 24t-12.5 48.5q0 39 26.5 60t66.5 21h129v-57h-118q-36 0 -36 -25q0 -20 29 -22t68.5 -5 t56.5 -26zM2139 1008v-270h-92l-122 203v-203h-132l-26 60h-134l-25 -60h-75q-129 0 -129 133q0 138 133 138h63v-59q-7 0 -28 1t-28.5 0.5t-23 -2t-21.5 -6.5t-14.5 -13.5t-11.5 -23t-3 -33.5q0 -38 13.5 -58t49.5 -20h29l92 213h97l109 -256v256h99l114 -188v188h66z" transform="scale(0.1 -0.1) translate(0 -1536)" /></svg>
