<svg xmlns="http://www.w3.org/2000/svg" width="230.4" height="179.2"><path d="M85.8 124.1V54.8q-10.6 4.1-17.2 13.55T62 89.5t6.6 21.15 17.2 13.45zm50.4-34.6q0-11.7-6.6-21.15T112.4 54.8v69.4q10.6-4.1 17.2-13.55t6.6-21.15zm21.5 0q0 15.9-7.85 29.4t-21.35 21.35-29.4 7.85q-11.9 0-22.75-4.65t-18.7-12.5-12.5-18.7T40.5 89.5q0-15.9 7.85-29.4T69.7 38.75t29.4-7.85 29.4 7.85 21.35 21.35 7.85 29.4zm38.3.7q0-13.9-5.55-26.15T175.7 43.5t-21.35-13.1-25.25-4.8H99q-17.6 0-32.35 8.1t-23.5 23-8.75 33.5q0 17.1 8.7 31.75t23.6 23.15 32.3 8.5h30.1q12.9 0 25.15-5.05t21.45-13.5 14.75-20.25T196 90.2zm34.4-64.6v128q0 5.2-3.8 9t-9 3.8H12.8q-5.2 0-9-3.8t-3.8-9v-128q0-5.2 3.8-9t9-3.8h204.8q5.2 0 9 3.8t3.8 9z"/></svg>