<svg xmlns="http://www.w3.org/2000/svg" width="230.4" height="179.2"><path d="M195.1 99.8q0 2.6-1.55 4.45t-3.85 2.35q-.8.2-1.8.2h-15.3v-14h15.3q1 0 1.8.2 2.3.5 3.85 2.35t1.55 4.45zm-1.8-21.3q0 2.5-1.5 4.2t-3.8 2.1q-.3.1-1.5.1h-13.9V72h13.9q.3 0 .85.05t.65.05q2.3.4 3.8 2.15t1.5 4.25zM72.8 94.9V64.1H50v30.8q0 5.8-3.8 9.45T35.7 108q-10.8 0-22.9-5.9v11.2q5.3 1.5 12.1 2.3t10.9.9l4.2.1q32.8 0 32.8-21.7zm71.4 18.4V102q-9.9 5.2-20 5.9-10.8.8-16.9-4.1t-6.1-14.2 6.1-14.2 16.9-4.1q10.1.7 20 5.8V65.9q-4.8-1.2-10-1.95t-8-.95l-2.8-.2q-12.7-.6-21.85 1.4t-14.05 6-7.1 8.8-2.2 10.6 2.2 10.6 7.1 8.8 14.05 6 21.85 1.4q10.1-.4 20.8-3.1zm73.4-11.5q0-5.4-4.3-8.85T202.4 89v-.3q5.7-.8 8.9-4.15t3.2-7.95q0-5.5-4.1-8.8t-10.7-3.6q-.3 0-1.2-.05t-1.4-.05h-45.5v51h49.1q7.4 0 12.15-3.65t4.75-9.65zm12.8-76.2v128q0 5.2-3.8 9t-9 3.8H12.8q-5.2 0-9-3.8t-3.8-9v-128q0-5.2 3.8-9t9-3.8h204.8q5.2 0 9 3.8t3.8 9z"/></svg>