<svg xmlns="http://www.w3.org/2000/svg" version="1.1" width="230.4" height="179.2"><path d="M1951 538q0 -26 -15.5 -44.5t-38.5 -23.5q-8 -2 -18 -2h-153v140h153q10 0 18 -2q23 -5 38.5 -23.5t15.5 -44.5zM1933 751q0 -25 -15 -42t-38 -21q-3 -1 -15 -1h-139v129h139q3 0 8.5 -0.5t6.5 -0.5q23 -4 38 -21.5t15 -42.5zM728 587v308h-228v-308q0 -58 -38 -94.5 t-105 -36.5q-108 0 -229 59v-112q53 -15 121 -23t109 -9l42 -1q328 0 328 217zM1442 403v113q-99 -52 -200 -59q-108 -8 -169 41t-61 142t61 142t169 41q101 -7 200 -58v112q-48 12 -100 19.5t-80 9.5l-28 2q-127 6 -218.5 -14t-140.5 -60t-71 -88t-22 -106t22 -106t71 -88 t140.5 -60t218.5 -14q101 4 208 31zM2176 518q0 54 -43 88.5t-109 39.5v3q57 8 89 41.5t32 79.5q0 55 -41 88t-107 36q-3 0 -12 0.5t-14 0.5h-455v-510h491q74 0 121.5 36.5t47.5 96.5zM2304 1280v-1280q0 -52 -38 -90t-90 -38h-2048q-52 0 -90 38t-38 90v1280q0 52 38 90 t90 38h2048q52 0 90 -38t38 -90z" transform="scale(0.1 -0.1) translate(0 -1536)" /></svg>
