<svg xmlns="http://www.w3.org/2000/svg" version="1.1" width="230.4" height="179.2"><path d="M1119 1195q-128 85 -281 85q-103 0 -197.5 -40.5t-162.5 -108.5t-108.5 -162t-40.5 -197q0 -104 40.5 -198t108.5 -162t162 -108.5t198 -40.5q153 0 281 85q-131 107 -178 265.5t0.5 316.5t177.5 265zM1152 1171q-126 -99 -172 -249.5t-0.5 -300.5t172.5 -249 q127 99 172.5 249t-0.5 300.5t-172 249.5zM1185 1195q130 -107 177.5 -265.5t0.5 -317t-178 -264.5q128 -85 281 -85q104 0 198 40.5t162 108.5t108.5 162t40.5 198q0 103 -40.5 197t-108.5 162t-162.5 108.5t-197.5 40.5q-153 0 -281 -85zM1926 473h7v3h-17v-3h7v-17h3v17z M1955 456h4v20h-5l-6 -13l-6 13h-5v-20h3v15l6 -13h4l5 13v-15zM1947 16v-2h-2h-3v3h3h2v-1zM1947 7h3l-4 5h2l1 1q1 1 1 3t-1 3l-1 1h-3h-6v-13h3v5h1zM685 75q0 19 11 31t30 12q18 0 29 -12.5t11 -30.5q0 -19 -11 -31t-29 -12q-19 0 -30 12t-11 31zM1158 119q30 0 35 -32 h-70q5 32 35 32zM1514 75q0 19 11 31t29 12t29.5 -12.5t11.5 -30.5q0 -19 -11 -31t-30 -12q-18 0 -29 12t-11 31zM1786 75q0 18 11.5 30.5t29.5 12.5t29.5 -12.5t11.5 -30.5q0 -19 -11.5 -31t-29.5 -12t-29.5 12.5t-11.5 30.5zM1944 3q-2 0 -4 1q-1 0 -3 2t-2 3q-1 2 -1 4 q0 3 1 4q0 2 2 4l1 1q2 0 2 1q2 1 4 1q3 0 4 -1l4 -2l2 -4v-1q1 -2 1 -3l-1 -1v-3t-1 -1l-1 -2q-2 -2 -4 -2q-1 -1 -4 -1zM599 7h30v85q0 24 -14.5 38.5t-39.5 15.5q-32 0 -47 -24q-14 24 -45 24q-24 0 -39 -20v16h-30v-135h30v75q0 36 33 36q30 0 30 -36v-75h29v75 q0 36 33 36q30 0 30 -36v-75zM765 7h29v68v67h-29v-16q-17 20 -43 20q-29 0 -48 -20t-19 -51t19 -51t48 -20q28 0 43 20v-17zM943 48q0 34 -47 40l-14 2q-23 4 -23 14q0 15 25 15q23 0 43 -11l12 24q-22 14 -55 14q-26 0 -41 -12t-15 -32q0 -33 47 -39l13 -2q24 -4 24 -14 q0 -17 -31 -17q-25 0 -45 14l-13 -23q25 -17 58 -17q29 0 45.5 12t16.5 32zM1073 14l-8 25q-13 -7 -26 -7q-19 0 -19 22v61h48v27h-48v41h-30v-41h-28v-27h28v-61q0 -50 47 -50q21 0 36 10zM1159 146q-29 0 -48 -20t-19 -51q0 -32 19.5 -51.5t49.5 -19.5q33 0 55 19l-14 22 q-18 -15 -39 -15q-34 0 -41 33h101v12q0 32 -18 51.5t-46 19.5zM1318 146q-23 0 -35 -20v16h-30v-135h30v76q0 35 29 35q10 0 18 -4l9 28q-9 4 -21 4zM1348 75q0 -31 19.5 -51t52.5 -20q29 0 48 16l-14 24q-18 -13 -35 -12q-18 0 -29.5 12t-11.5 31t11.5 31t29.5 12 q19 0 35 -12l14 24q-20 16 -48 16q-33 0 -52.5 -20t-19.5 -51zM1593 7h30v68v67h-30v-16q-15 20 -42 20q-29 0 -48.5 -20t-19.5 -51t19.5 -51t48.5 -20q28 0 42 20v-17zM1726 146q-23 0 -35 -20v16h-29v-135h29v76q0 35 29 35q10 0 18 -4l9 28q-8 4 -21 4zM1866 7h29v68v122 h-29v-71q-15 20 -43 20t-47.5 -20.5t-19.5 -50.5t19.5 -50.5t47.5 -20.5q29 0 43 20v-17zM1944 27l-2 -1h-3q-2 -1 -4 -3q-3 -1 -3 -4q-1 -2 -1 -6q0 -3 1 -5q0 -2 3 -4q2 -2 4 -3t5 -1q4 0 6 1q0 1 2 2l2 1q1 1 3 4q1 2 1 5q0 4 -1 6q-1 1 -3 4q0 1 -2 2l-2 1q-1 0 -3 0.5 t-3 0.5zM2304 1280v-1280q0 -52 -38 -90t-90 -38h-2048q-52 0 -90 38t-38 90v1280q0 52 38 90t90 38h2048q52 0 90 -38t38 -90z" transform="scale(0.1 -0.1) translate(0 -1536)" /></svg>
