<svg xmlns="http://www.w3.org/2000/svg" width="230.4" height="179.2"><path d="M74.5 90.6q0 3.7-2.55 6.15T65.7 99.2q-2.9 0-4.65-1.6t-1.75-4.4q0-3.7 2.5-6.25T68 84.4q2.8 0 4.65 1.65t1.85 4.55zM153 75.7q0 4.2-2.2 5.7t-6.6 1.5l-3.2.1 1.7-10.7q.2-1.1 1.3-1.1h1.8q2.2 0 3.5.2t2.5 1.25 1.2 3.05zm35.1 14.9q0 3.6-2.55 6.1t-6.15 2.5q-2.9 0-4.7-1.6t-1.8-4.4q0-3.7 2.5-6.25t6.2-2.55q2.8 0 4.65 1.65t1.85 4.55zM51.3 73.5q0-5.9-3.85-8.55T37.4 62.3h-16q-1.9 0-2.1 1.9L12.8 105q-.1.6.3 1.1t1 .5h7.6q2 0 2.2-1.9l1.8-11q.1-.8.7-1.3t1.5-.65 1.7-.15 1.9.1 1.4.1q8.6 0 13.5-4.85t4.9-13.45zm30.9 31.2 4.1-26.1q.1-.6-.3-1.1t-1-.5h-7.6q-1.4 0-1.7 3.3-2.7-4-9.5-4-7.2 0-12.25 5.4T48.9 94.4q0 5.9 3.45 9.4t9.25 3.5q2.8 0 5.8-1.2t4.8-3.2q-.4 1.2-.4 2.1 0 1.6 1.3 1.6H80q1.9 0 2.2-1.9zm44.7-26.3q0-.5-.4-.95t-.9-.45h-7.7q-1.1 0-1.8 1l-10.6 15.6-4.4-15q-.5-1.6-2.2-1.6h-7.5q-.5 0-.9.45t-.4.95q0 .2 1.95 5.9t4.2 12.3 2.35 7q-8.2 11.2-8.2 12 0 1.3 1.3 1.3h7.7q1.1 0 1.8-1l25.5-36.8q.2-.2.2-.7zm38-4.9q0-5.9-3.85-8.55T151 62.3h-15.9q-2 0-2.2 1.9l-6.5 40.8q-.1.6.3 1.1t1 .5h8.2q1.2 0 1.6-1.3l1.8-11.6q.1-.8.7-1.3t1.5-.65 1.7-.15 1.9.1 1.4.1q8.6 0 13.5-4.85t4.9-13.45zm30.9 31.2 4.1-26.1q.1-.6-.3-1.1t-1-.5H191q-1.4 0-1.7 3.3-2.6-4-9.5-4-7.2 0-12.25 5.4t-5.05 12.7q0 5.9 3.45 9.4t9.25 3.5q2.9 0 5.9-1.2t4.7-3.2q0 .1-.2.9t-.2 1.2q0 1.6 1.3 1.6h6.9q1.9 0 2.2-1.9zm21.8-40.9v-.1q0-1.4-1.3-1.4h-7.4q-1.1 0-1.3 1.1l-6.5 41.6-.1.2q0 .5.4.95t1 .45h6.6q1.9 0 2.1-1.9zM39.2 77.2q-.5 3.5-2.6 4.6t-6 1.1l-3.3.1L29 72.3q.2-1.1 1.3-1.1h1.9q4 0 5.8 1.15t1.2 4.85zm191.2-51.6v128q0 5.2-3.8 9t-9 3.8H12.8q-5.2 0-9-3.8t-3.8-9v-128q0-5.2 3.8-9t9-3.8h204.8q5.2 0 9 3.8t3.8 9z"/></svg>