<svg xmlns="http://www.w3.org/2000/svg" width="204.8" height="179.2"><path d="M78.5 100.8h20.7q-1.4 15.8-9.85 24.85T67.9 134.7q-16.2 0-25.45-11.6T33.2 91.5q0-19.4 9.3-31.15T65.8 48.6q14.8 0 23.2 8.7T98.7 82H78.4q-.5-6.4-3.55-9.9t-8.15-3.5q-5.7 0-8.85 6.05T54.7 92.4q0 4.8.5 8.4t1.8 6.95 4 5.15 6.6 1.8q9.5 0 10.9-13.9zm71.2 0h20.6q-1.4 15.8-9.8 24.85t-21.4 9.05q-16.2 0-25.45-11.6t-9.25-31.6q0-19.4 9.3-31.15T137 48.6q14.8 0 23.2 8.7t9.7 24.7h-20.4q-.4-6.4-3.5-9.9t-8.1-3.5q-5.7 0-8.85 6.05T125.9 92.4q0 4.8.5 8.4t1.8 6.95 3.95 5.15 6.55 1.8q4.9 0 7.65-3.8t3.35-10.1zm35.9-11.9q0-20.7-1.55-30.7T178 42.1q-.6-.8-1.35-1.4t-2.15-1.5-1.6-1.1q-8.6-6.3-69.7-6.3-62.5 0-71 6.3-.5.4-1.75 1.15t-2.1 1.4-1.45 1.45q-4.5 6-6 15.95T19.4 88.9q0 20.8 1.5 30.75t6 16.05q.6.8 1.5 1.5t2.05 1.4 1.75 1.2q4.4 3.3 23.95 4.9t47.05 1.6q61 0 69.7-6.5.5-.4 1.7-1.1t2.05-1.4 1.35-1.6q4.6-6 6.1-15.9t1.5-30.9zm19.2-76.1v153.6H0V12.8h204.8z"/></svg>