<svg xmlns="http://www.w3.org/2000/svg" width="153.6" height="179.2"><path d="M89.6 54.4v44.8q0 1.4-.9 2.3t-2.3.9h-32q-1.4 0-2.3-.9t-.9-2.3v-6.4q0-1.4.9-2.3t2.3-.9h22.4V54.4q0-1.4.9-2.3t2.3-.9h6.4q1.4 0 2.3.9t.9 2.3zm41.6 35.2q0-14.8-7.3-27.3t-19.8-19.8-27.3-7.3-27.3 7.3-19.8 19.8-7.3 27.3 7.3 27.3 19.8 19.8 27.3 7.3 27.3-7.3 19.8-19.8 7.3-27.3zm22.4 0q0 20.9-10.3 38.55t-27.95 27.95-38.55 10.3-38.55-10.3-27.95-27.95T0 89.6t10.3-38.55T38.25 23.1 76.8 12.8t38.55 10.3 27.95 27.95 10.3 38.55z"/></svg>