<svg xmlns="http://www.w3.org/2000/svg" width="192" height="179.2"><path d="M128 86.4q0-1.4-.9-2.3L91.9 48.9q-.9-.9-2.3-.9t-2.3.9L52.2 84q-1 1.2-1 2.4 0 1.4.9 2.3t2.3.9h22.4v35.2q0 1.3.95 2.25T80 128h19.2q1.3 0 2.25-.95t.95-2.25V89.6h22.4q1.3 0 2.25-.95t.95-2.25zm64 28.8q0 15.9-11.25 27.15T153.6 153.6H44.8q-18.5 0-31.65-13.15T0 108.8q0-13 7-24t18.8-16.5q-.2-3-.2-4.3 0-21.2 15-36.2t36.2-15q15.6 0 28.55 8.7t18.85 23.1q7.1-6.2 16.6-6.2 10.6 0 18.1 7.5t7.5 18.1q0 7.6-4.1 13.8 13 3.1 21.35 13.55T192 115.2z"/></svg>