<svg xmlns="http://www.w3.org/2000/svg" width="179.2" height="179.2"><path d="m21.6 116.9 60.3 40.2v-35.9L48.5 98.9zm-6.2-14.4 19.3-12.9-19.3-12.9v25.8zm81.9 54.6 60.3-40.2-26.9-18-33.4 22.3v35.9zm-7.7-49.3 27.2-18.2-27.2-18.2-27.2 18.2zM48.5 80.3 81.9 58V22.1L21.6 62.3zm96 9.3 19.3 12.9V76.7zm-13.8-9.3 26.9-18-60.3-40.2V58zm48.5-18v54.6q0 4.1-3.4 6.4l-81.9 54.6q-2.1 1.3-4.3 1.3t-4.3-1.3L3.4 123.3Q0 121 0 116.9V62.3q0-4.1 3.4-6.4L85.3 1.3Q87.4 0 89.6 0t4.3 1.3l81.9 54.6q3.4 2.3 3.4 6.4z"/></svg>