<svg xmlns="http://www.w3.org/2000/svg" width="192" height="179.2"><path d="m61.7 139.9-5 5q-1 1-2.3 1t-2.3-1L5.5 98.3q-1-1-1-2.3t1-2.3l46.6-46.6q1-1 2.3-1t2.3 1l5 5q1 1 1 2.3t-1 2.3L22.4 96l39.3 39.3q1 1 1 2.3t-1 2.3zm59.1-106.7L83.5 162.3q-.4 1.3-1.55 1.95t-2.35.25l-6.2-1.7q-1.3-.4-1.95-1.55t-.25-2.45l37.3-129.1q.4-1.3 1.55-1.95t2.35-.25l6.2 1.7q1.3.4 1.95 1.55t.25 2.45zm65.7 65.1-46.6 46.6q-1 1-2.3 1t-2.3-1l-5-5q-1-1-1-2.3t1-2.3L169.6 96l-39.3-39.3q-1-1-1-2.3t1-2.3l5-5q1-1 2.3-1t2.3 1l46.6 46.6q1 1 1 2.3t-1 2.3z"/></svg>