<svg xmlns="http://www.w3.org/2000/svg" width="179.2" height="179.2"><path d="m158.4 129-21.8-11.1q-7.4 12-19.65 18.9t-26.35 6.9q-14.7 0-27.1-7.2t-19.6-19.6-7.2-27q0-11 4.25-20.95t11.5-17.2 17.2-11.5T90.6 36q13.1 0 24.75 6.05T134.6 58.9l21.5-12.5q-11-16.9-28.65-26.5T89.6 10.3q-16.1 0-30.8 6.3T33.5 33.5 16.6 58.8t-6.3 30.8 6.3 30.8 16.9 25.3 25.3 16.9 30.8 6.3q21.3 0 39.75-10.7T158.4 129zM103 89.3l69.3 35.2q-11.6 25.3-33.45 40T89.6 179.2q-18.2 0-34.8-7.1T26.2 153 7.1 124.4 0 89.6t7.1-34.8 19.1-28.6T54.8 7.1 89.6 0q26 0 47.05 13.35T170.2 50zm51.3.3h-3.9v16h-9.6V70.4h13.6q3.2 0 5.45 2t2.85 4.8.1 5.6-2.75 4.8-5.75 2z"/></svg>