<svg xmlns="http://www.w3.org/2000/svg" version="1.1" width="179.2" height="179.2"><path d="M1584 246l-218 111q-74 -120 -196.5 -189t-263.5 -69q-147 0 -271 72t-196 196t-72 270q0 110 42.5 209.5t115 172t172 115t209.5 42.5q131 0 247.5 -60.5t192.5 -168.5l215 125q-110 169 -286.5 265t-378.5 96q-161 0 -308 -63t-253 -169t-169 -253t-63 -308t63 -308 t169 -253t253 -169t308 -63q213 0 397.5 107t290.5 292zM1030 643l693 -352q-116 -253 -334.5 -400t-492.5 -147q-182 0 -348 71t-286 191t-191 286t-71 348t71 348t191 286t286 191t348 71q260 0 470.5 -133.5t335.5 -366.5zM1543 640h-39v-160h-96v352h136q32 0 54.5 -20 t28.5 -48t1 -56t-27.5 -48t-57.5 -20z" transform="scale(0.1 -0.1) translate(0 -1536)" /></svg>
