<svg xmlns="http://www.w3.org/2000/svg" width="153.6" height="179.2"><path d="M102.4 89.6q0-10.6-7.5-18.1T76.8 64t-18.1 7.5-7.5 18.1 7.5 18.1 18.1 7.5 18.1-7.5 7.5-18.1zm51.2-10.9v22.2q0 1.2-.8 2.3t-2 1.3l-18.5 2.8q-1.9 5.4-3.9 9.1 3.5 5 10.7 13.8 1 1.2 1 2.5t-.9 2.3q-2.7 3.7-9.9 10.8t-9.4 7.1q-1.2 0-2.6-.9l-13.8-10.8q-4.4 2.3-9.1 3.8-1.6 13.6-2.9 18.6-.7 2.8-3.6 2.8H65.7q-1.4 0-2.45-.85t-1.15-2.15L59.3 145q-4.9-1.6-9-3.7L36.2 152q-1 .9-2.5.9-1.4 0-2.5-1.1-12.6-11.4-16.5-16.8-.7-1-.7-2.3 0-1.2.8-2.3 1.5-2.1 5.1-6.65t5.4-7.05q-2.7-5-4.1-9.9l-18.3-2.7q-1.3-.2-2.1-1.25T0 100.5V78.3q0-1.2.8-2.3t1.9-1.3l18.6-2.8q1.4-4.6 3.9-9.2-4-5.7-10.7-13.8-1-1.2-1-2.4 0-1 .9-2.3 2.6-3.6 9.85-10.75t9.45-7.15q1.3 0 2.6 1L50.1 38q4.4-2.3 9.1-3.8 1.6-13.6 2.9-18.6.7-2.8 3.6-2.8h22.2q1.4 0 2.45.85t1.15 2.15l2.8 18.4q4.9 1.6 9 3.7l14.2-10.7q.9-.9 2.4-.9 1.3 0 2.5 1 12.9 11.9 16.5 17 .7.8.7 2.2 0 1.2-.8 2.3-1.5 2.1-5.1 6.65t-5.4 7.05q2.6 5 4.1 9.8l18.3 2.8q1.3.2 2.1 1.25t.8 2.35z"/></svg>