<svg xmlns="http://www.w3.org/2000/svg" width="179.2" height="179.2"><path d="M70.4 38.4q-15.3 0-28.6 5.2T20.65 57.7 12.8 76.8q0 8.2 5.3 15.8T33 105.8l9.7 5.6-3.5 8.4q3.4-2 6.2-3.9l4.4-3.1 5.3 1q7.8 1.4 15.3 1.4 15.3 0 28.6-5.2t21.15-14.1T128 76.8t-7.85-19.1T99 43.6t-28.6-5.2zm0-12.8q19.1 0 35.35 6.85T131.4 51.1t9.4 25.7-9.4 25.7-25.65 18.65T70.4 128q-8.6 0-17.6-1.6-12.4 8.8-27.8 12.8-3.6.9-8.6 1.6h-.3q-1.1 0-2.05-.8t-1.15-2.1q-.1-.3-.1-.65t.05-.65.2-.6l.25-.5.35-.55.4-.5.45-.5.4-.45q.5-.6 2.3-2.5t2.6-2.95 2.25-2.9 2.5-3.85 2.05-4.4q-12.4-7.2-19.5-17.7T0 76.8q0-13.9 9.4-25.7t25.65-18.65T70.4 25.6zm82.2 116.9q1 2.4 2.05 4.4t2.5 3.85 2.25 2.9 2.6 2.95 2.3 2.5q.1.1.4.45t.45.5.4.5.35.55l.25.5.2.6.05.65-.1.65q-.3 1.4-1.3 2.2t-2.2.7q-5-.7-8.6-1.6-15.4-4-27.8-12.8-9 1.6-17.6 1.6-27.1 0-47.2-13.2 5.8.4 8.8.4 16.1 0 30.9-4.5t26.4-12.9q12.5-9.2 19.2-21.2t6.7-25.4q0-7.7-2.3-15.2 12.9 7.1 20.4 17.8t7.5 23q0 12-7.1 22.45t-19.5 17.65z"/></svg>