<svg xmlns="http://www.w3.org/2000/svg" width="179.2" height="179.2"><path d="M89.6 38.4q-20.4 0-38.15 6.95T23.25 64.1 12.8 89.6q0 11.2 7.15 21.35T40.1 128.5l8.7 5-2.7 9.6q-2.4 9.1-7 17.2 15.2-6.3 27.5-17.1l4.3-3.8 5.7.6q6.9.8 13 .8 20.4 0 38.15-6.95t28.2-18.75 10.45-25.5-10.45-25.5-28.2-18.75T89.6 38.4zm89.6 51.2q0 17.4-12 32.15t-32.6 23.3-45 8.55q-7 0-14.5-.8-19.8 17.5-46 24.2-4.9 1.4-11.4 2.2h-.5q-1.5 0-2.7-1.05t-1.6-2.75v-.1q-.3-.4-.05-1.2t.2-1 .45-.95l.6-.9.7-.85.8-.9q.7-.8 3.1-3.45t3.45-3.8 3.1-3.95 3.25-5.1 2.7-5.9 2.6-7.6q-15.7-8.9-24.75-22T0 89.6q0-17.4 12-32.15t32.6-23.3 45-8.55 45 8.55 32.6 23.3 12 32.15z"/></svg>