<svg xmlns="http://www.w3.org/2000/svg" width="179.2" height="179.2"><path d="M13.8 12.8h19.7q-7 6.4-12.6 14.9-3.6 5.6-5.9 11.5t-3 12.55-.85 12 1.05 13.2 2.1 12.6 2.8 13.65q.4 1.9.6 2.8 5.1 23.8 8.1 32.9Q31.5 156 41 166.4H13.8q-4.8 0-8.2-3.4t-3.4-8.2V24.4q0-4.8 3.4-8.2t8.2-3.4zm120.8 0h30.8q4.8 0 8.2 3.4t3.4 8.2v130.4q0 4.8-3.4 8.2t-8.2 3.4h-17.8q21.2-21 19.6-56.5L120.3 120q-.2 4.5-1.2 8.2t-3.1 7.2-5.95 5.95-9.35 3.65q-12.3 2.6-19.9-4-3.2-2.7-5.3-6.1T70.35 122 63.9 96.2q-3.5-16.3-4.55-26.3T58.8 56t2.3-7.7q2-4.1 6.25-7.3t10.25-4.5q4.5-1.2 8.35-.65t6.7 1.7 5.4 3.5 4.3 4.8 3.45 5.65l46.8-10q-6.8-17.5-18-28.7z"/></svg>