<svg xmlns="http://www.w3.org/2000/svg" width="179.2" height="179.2"><path d="M169.6 38.4q4 0 6.8 2.8t2.8 6.8v121.6q0 4-2.8 6.8t-6.8 2.8h-96q-4 0-6.8-2.8t-2.8-6.8v-28.8H9.6q-4 0-6.8-2.8T0 131.2V64q0-4 2-8.8t4.8-7.6L47.6 6.8Q50.4 4 55.2 2T64 0h41.6q4 0 6.8 2.8t2.8 6.8v32.8q6.8-4 12.8-4h41.6zm-54.4 21.3L85.3 89.6h29.9V59.7zm-64-38.4L21.3 51.2h29.9V21.3zM70.8 86l31.6-31.6V12.8H64v41.6q0 4-2.8 6.8T54.4 64H12.8v64H64v-25.6q0-4 2-8.8t4.8-7.6zm95.6 80.4V51.2H128v41.6q0 4-2.8 6.8t-6.8 2.8H76.8v64h89.6z"/></svg>