<svg xmlns="http://www.w3.org/2000/svg" version="1.1" width="179.2" height="179.2"><path d="M605 303q153 0 257 104q14 18 3 36l-45 82q-6 13 -24 17q-16 2 -27 -11l-4 -3q-4 -4 -11.5 -10t-17.5 -13.5t-23.5 -14.5t-28.5 -13t-33.5 -9.5t-37.5 -3.5q-76 0 -125 50t-49 127q0 76 48 125.5t122 49.5q37 0 71.5 -14t50.5 -28l16 -14q11 -11 26 -10q16 2 24 14l53 78 q13 20 -2 39q-3 4 -11 12t-30 23.5t-48.5 28t-67.5 22.5t-86 10q-148 0 -246 -96.5t-98 -240.5q0 -146 97 -241.5t247 -95.5zM1235 303q153 0 257 104q14 18 4 36l-45 82q-8 14 -25 17q-16 2 -27 -11l-4 -3q-4 -4 -11.5 -10t-17.5 -13.5t-23.5 -14.5t-28.5 -13t-33.5 -9.5 t-37.5 -3.5q-76 0 -125 50t-49 127q0 76 48 125.5t122 49.5q37 0 71.5 -14t50.5 -28l16 -14q11 -11 26 -10q16 2 24 14l53 78q13 20 -2 39q-3 4 -11 12t-30 23.5t-48.5 28t-67.5 22.5t-86 10q-147 0 -245.5 -96.5t-98.5 -240.5q0 -146 97 -241.5t247 -95.5zM896 1376 q-150 0 -286 -58.5t-234.5 -157t-157 -234.5t-58.5 -286t58.5 -286t157 -234.5t234.5 -157t286 -58.5t286 58.5t234.5 157t157 234.5t58.5 286t-58.5 286t-157 234.5t-234.5 157t-286 58.5zM896 1536q182 0 348 -71t286 -191t191 -286t71 -348t-71 -348t-191 -286t-286 -191 t-348 -71t-348 71t-286 191t-191 286t-71 348t71 348t191 286t286 191t348 71z" transform="scale(0.1 -0.1) translate(0 -1536)" /></svg>
