<svg xmlns="http://www.w3.org/2000/svg" width="230.4" height="179.2"><path d="m64 163.2 38.4-19.2v-31.4L64 129v34.2zm-6.4-45.4L98 100.5 57.6 83.2l-40.4 17.3zm108.8 45.4 38.4-19.2v-31.4L166.4 129v34.2zm-6.4-45.4 40.4-17.3L160 83.2l-40.4 17.3zm-44.8-29.3L153.6 72V45.4l-38.4 16.4v26.7zm-6.4-37.9 44.1-18.9-44.1-18.9-44.1 18.9zm108.8 51.8V144q0 3.6-1.9 6.7t-5.2 4.7l-44.8 22.4q-2.5 1.4-5.7 1.4t-5.7-1.4l-44.8-22.4q-.4-.2-.7-.4-.2.2-.7.4l-44.8 22.4q-2.5 1.4-5.7 1.4t-5.7-1.4L7.1 155.4q-3.3-1.6-5.2-4.7T0 144v-41.6q0-3.8 2.15-7t5.65-4.8L51.2 72V32q0-3.8 2.15-7T59 20.2L103.8 1q2.3-1 5-1t5 1l44.8 19.2q3.5 1.6 5.65 4.8t2.15 7v40l43.4 18.6q3.6 1.6 5.7 4.8t2.1 7z"/></svg>