<svg xmlns="http://www.w3.org/2000/svg" version="1.1" width="230.4" height="179.2"><path d="M640 -96l384 192v314l-384 -164v-342zM576 358l404 173l-404 173l-404 -173zM1664 -96l384 192v314l-384 -164v-342zM1600 358l404 173l-404 173l-404 -173zM1152 651l384 165v266l-384 -164v-267zM1088 1030l441 189l-441 189l-441 -189zM2176 512v-416q0 -36 -19 -67 t-52 -47l-448 -224q-25 -14 -57 -14t-57 14l-448 224q-4 2 -7 4q-2 -2 -7 -4l-448 -224q-25 -14 -57 -14t-57 14l-448 224q-33 16 -52 47t-19 67v416q0 38 21.5 70t56.5 48l434 186v400q0 38 21.5 70t56.5 48l448 192q23 10 50 10t50 -10l448 -192q35 -16 56.5 -48t21.5 -70 v-400l434 -186q36 -16 57 -48t21 -70z" transform="scale(0.1 -0.1) translate(0 -1536)" /></svg>
