<svg xmlns="http://www.w3.org/2000/svg" width="153.6" height="179.2"><path d="M102.4 150q-4.2-24.1-14-49.8h-.2l-.2.1q-1.6.6-4.3 1.65t-10.1 4.9-13.7 8.2-13.1 11.45-10.3 14.8l-1.5-1.1q18.4 15 41.8 15 13.2 0 25.6-5.2zM83.9 89.3q-2.1-4.9-5.3-11.1-31.1 9.3-67.3 9.3-.1.7-.1 2.1 0 12.4 4.4 23.65T28 133.4q5-8.9 12.35-16.65T54.6 104.3t13.05-8.1 9.95-4.8l3.7-1.3q.4-.1 1.3-.35t1.3-.45zM73.2 68.1q-12-21.3-24.4-37.8Q35 36.8 25.4 48.9T12.6 76.1q30.2 0 60.6-8zm68.4 31.9q-21-6-40.9-2.9 8.7 23.9 12.8 46.9 11.1-7.5 18.5-18.95t9.6-25.05zM61.1 25.9q-.1 0-.2.1.1-.1.2-.1zm59 14.5Q101.6 24 76.8 24q-7.6 0-15.5 1.9 13.1 17 24.6 38.2 6.9-2.6 13-6.05t9.65-6.15 6.55-5.7 3.75-4.05zm22.3 48.5q-.3-23.2-14.9-41l-.1.1q-.9 1.2-1.9 2.45t-4.35 4.45-7.1 6.05-10 6.5T90.9 73.9q2.5 5.3 4.4 9.5.2.5.65 1.7t.75 1.7q3.6-.5 7.45-.7t7.35-.2 6.9.15 6.4.4 5.65.55 4.8.65 3.65.6 2.5.45zm11.2.7q0 20.9-10.3 38.55t-27.95 27.95-38.55 10.3-38.55-10.3-27.95-27.95T0 89.6t10.3-38.55T38.25 23.1 76.8 12.8t38.55 10.3 27.95 27.95 10.3 38.55z"/></svg>