<svg xmlns="http://www.w3.org/2000/svg" version="1.1" width="153.6" height="179.2"><path d="M1167 -50q-5 19 -24 5q-30 -22 -87 -39t-131 -17q-129 0 -193 49q-5 4 -13 4q-11 0 -26 -12q-7 -6 -7.5 -16t7.5 -20q34 -32 87.5 -46t102.5 -12.5t99 4.5q41 4 84.5 20.5t65 30t28.5 20.5q12 12 7 29zM1128 65q-19 47 -39 61q-23 15 -76 15q-47 0 -71 -10 q-29 -12 -78 -56q-26 -24 -12 -44q9 -8 17.5 -4.5t31.5 23.5q3 2 10.5 8.5t10.5 8.5t10 7t11.5 7t12.5 5t15 4.5t16.5 2.5t20.5 1q27 0 44.5 -7.5t23 -14.5t13.5 -22q10 -17 12.5 -20t12.5 1q23 12 14 34zM1483 346q0 22 -5 44.5t-16.5 45t-34 36.5t-52.5 14 q-33 0 -97 -41.5t-129 -83.5t-101 -42q-27 -1 -63.5 19t-76 49t-83.5 58t-100 49t-111 19q-115 -1 -197 -78.5t-84 -178.5q-2 -112 74 -164q29 -20 62.5 -28.5t103.5 -8.5q57 0 132 32.5t134 71t120 70.5t93 31q26 -1 65 -31.5t71.5 -67t68 -67.5t55.5 -32q35 -3 58.5 14 t55.5 63q28 41 42.5 101t14.5 106zM1536 506q0 -164 -62 -304.5t-166 -236t-242.5 -149.5t-290.5 -54t-293 57.5t-247.5 157t-170.5 241.5t-64 302q0 89 19.5 172.5t49 145.5t70.5 118.5t78.5 94t78.5 69.5t64.5 46.5t42.5 24.5q14 8 51 26.5t54.5 28.5t48 30t60.5 44 q36 28 58 72.5t30 125.5q129 -155 186 -193q44 -29 130 -68t129 -66q21 -13 39 -25t60.5 -46.5t76 -70.5t75 -95t69 -122t47 -148.5t19.5 -177.5z" transform="scale(0.1 -0.1) translate(0 -1536)" /></svg>
