<svg xmlns="http://www.w3.org/2000/svg" version="1.1" width="179.2" height="179.2"><path d="M69 741h1q16 126 58.5 241.5t115 217t167.5 176t223.5 117.5t276.5 43q231 0 414 -105.5t294 -303.5q104 -187 104 -442v-188h-1125q1 -111 53.5 -192.5t136.5 -122.5t189.5 -57t213 -3t208 46.5t173.5 84.5v-377q-92 -55 -229.5 -92t-312.5 -38t-316 53 q-189 73 -311.5 249t-124.5 372q-3 242 111 412t325 268q-48 -60 -78 -125.5t-46 -159.5h635q8 77 -8 140t-47 101.5t-70.5 66.5t-80.5 41t-75 20.5t-56 8.5l-22 1q-135 -5 -259.5 -44.5t-223.5 -104.5t-176 -140.5t-138 -163.5z" transform="scale(0.1 -0.1) translate(0 -1536)" /></svg>
