<svg xmlns="http://www.w3.org/2000/svg" width="179.2" height="179.2"><path d="M134.1 78.4q2.9-4.4-.65-12.95T121.3 51.2q-5.8-3.9-12.55-5.35t-11.8-.45-6.85 3.7q-1.2 2.3-.45 2.8t4.25 1q2.3.3 3.85.5t4.45.95 5.6 1.75q3.6 1.3 6.75 3.15t5.3 3.7 4 3.85 3.05 3.8 2.2 3.45 1.65 2.85 1.2 1.85 1.05.6 1.1-.95zm36.3 57.4q-5.2 12.7-14.85 22t-21.45 14.15-25.3 6.05-26.6-1.35-25.1-9.1-21-16.15-14.15-23.55T17.3 97.5q.1-4.1.85-8.45t1.25-6.4 2.4-8.05 2.3-7.3q-5.1 20.8.1 39.7t17.3 31.8 29.1 20.6 34.6 8.3 34.9-7.45T169 135.8q2-2.7 1.8-1.4 0 .4-.4 1.4zm-23.9-44.9q0 10.4-4.05 19.9t-10.85 16.4-16.2 10.95-19.8 4.05-19.8-4.05-16.2-10.95-10.85-16.4-4.05-19.9T48.75 71 59.6 54.6t16.2-10.95 19.8-4.05 19.8 4.05 16.2 10.95T142.45 71t4.05 19.9zm28.7-28.8q-6.5-14.7-18.05-25.1t-25.3-15.35-29.2-5.35-30.1 3.65T45 32.85 23 54 9.9 83.7t-1 37.3Q4 104.9 3.75 89.85T7.3 62.6t10.9-22.7 16.55-18.05 20.7-12.6 23.2-7.1 24.25-.9 23.6 5.4 21.6 12.45 17.8 19.7q3.3 5 6.2 12.1t3.1 11.2zM169 96.3q1.2-24.4-13.65-41.6t-39.65-24q-.8 0-1-.5t2.4-.8q12.5.4 23 5t17.3 12T169 63.25t5.85 19.9-.1 20.8-6.15 19.75-12.25 16.7-18.5 11.75T113 156.8q10.8-3 20.15-8t17.4-12.3 12.95-17.65T169 96.3z"/></svg>