<svg xmlns="http://www.w3.org/2000/svg" version="1.1" width="179.2" height="179.2"><path d="M1341 752q29 44 -6.5 129.5t-121.5 142.5q-58 39 -125.5 53.5t-118 4.5t-68.5 -37q-12 -23 -4.5 -28t42.5 -10q23 -3 38.5 -5t44.5 -9.5t56 -17.5q36 -13 67.5 -31.5t53 -37t40 -38.5t30.5 -38t22 -34.5t16.5 -28.5t12 -18.5t10.5 -6t11 9.5zM1704 178 q-52 -127 -148.5 -220t-214.5 -141.5t-253 -60.5t-266 13.5t-251 91t-210 161.5t-141.5 235.5t-46.5 303.5q1 41 8.5 84.5t12.5 64t24 80.5t23 73q-51 -208 1 -397t173 -318t291 -206t346 -83t349 74.5t289 244.5q20 27 18 14q0 -4 -4 -14zM1465 627q0 -104 -40.5 -199 t-108.5 -164t-162 -109.5t-198 -40.5t-198 40.5t-162 109.5t-108.5 164t-40.5 199t40.5 199t108.5 164t162 109.5t198 40.5t198 -40.5t162 -109.5t108.5 -164t40.5 -199zM1752 915q-65 147 -180.5 251t-253 153.5t-292 53.5t-301 -36.5t-275.5 -129t-220 -211.5t-131 -297 t-10 -373q-49 161 -51.5 311.5t35.5 272.5t109 227t165.5 180.5t207 126t232 71t242.5 9t236 -54t216 -124.5t178 -197q33 -50 62 -121t31 -112zM1690 573q12 244 -136.5 416t-396.5 240q-8 0 -10 5t24 8q125 -4 230 -50t173 -120t116 -168.5t58.5 -199t-1 -208 t-61.5 -197.5t-122.5 -167t-185 -117.5t-248.5 -46.5q108 30 201.5 80t174 123t129.5 176.5t55 225.5z" transform="scale(0.1 -0.1) translate(0 -1536)" /></svg>
