<svg xmlns="http://www.w3.org/2000/svg" width="179.2" height="179.2"><path d="M179.2 71v79.4q0 6.6-4.7 11.3t-11.3 4.7H16q-6.6 0-11.3-4.7T0 150.4V71q4.4 4.9 10.1 8.7 36.2 24.6 49.7 34.5 5.7 4.2 9.25 6.55t9.45 4.8 11 2.45h.2q5.1 0 11-2.45t9.45-4.8 9.25-6.55q17-12.3 49.8-34.5 5.7-3.9 10-8.7zm0-29.4q0 7.9-4.9 15.1T162.1 69q-37.6 26.1-46.8 32.5-1 .7-4.25 3.05t-5.4 3.8-5.2 3.25-5.75 2.7-5 .9h-.2q-2.3 0-5-.9t-5.75-2.7-5.2-3.25-5.4-3.8-4.25-3.05q-9.1-6.4-26.2-18.25T17.2 69Q11 64.8 5.5 57.45T0 43.8q0-7.8 4.15-13T16 25.6h147.2q6.5 0 11.25 4.7t4.75 11.3z"/></svg>