<svg xmlns="http://www.w3.org/2000/svg" version="1.1" width="179.2" height="179.2"><path d="M1474 623l39 -51q8 -11 6.5 -23.5t-11.5 -20.5q-43 -34 -126.5 -98.5t-146.5 -113t-67 -51.5q-39 -32 -60 -48t-60.5 -41t-76.5 -36.5t-74 -11.5h-1h-1q-37 0 -74 11.5t-76 36.5t-61 41.5t-60 47.5q-5 4 -65 50.5t-143.5 111t-122.5 94.5q-11 8 -12.5 20.5t6.5 23.5 l37 52q8 11 21.5 13t24.5 -7q94 -73 306 -236q5 -4 43.5 -35t60.5 -46.5t56.5 -32.5t58.5 -17h1h1q24 0 58.5 17t56.5 32.5t60.5 46.5t43.5 35q258 198 313 242q11 8 24 6.5t21 -12.5zM1664 -96v928q-90 83 -159 139q-91 74 -389 304q-3 2 -43 35t-61 48t-56 32.5t-59 17.5 h-1h-1q-24 0 -59 -17.5t-56 -32.5t-61 -48t-43 -35q-215 -166 -315.5 -245.5t-129.5 -104t-82 -74.5q-14 -12 -21 -19v-928q0 -13 9.5 -22.5t22.5 -9.5h1472q13 0 22.5 9.5t9.5 22.5zM1792 832v-928q0 -66 -47 -113t-113 -47h-1472q-66 0 -113 47t-47 113v928q0 56 41 94 q123 114 350 290.5t233 181.5q36 30 59 47.5t61.5 42t76 36.5t74.5 12h1h1q37 0 74.5 -12t76 -36.5t61.5 -42t59 -47.5q43 -36 156 -122t226 -177t201 -173q41 -38 41 -94z" transform="scale(0.1 -0.1) translate(0 -1536)" /></svg>
