<svg xmlns="http://www.w3.org/2000/svg" width="179.2" height="179.2"><path d="m147.4 91.3 3.9 5.1q.8 1.1.65 2.35t-1.15 2.05q-4.3 3.4-12.65 9.85t-14.65 11.3-6.7 5.15q-3.9 3.2-6 4.8t-6.05 4.1-7.65 3.65-7.4 1.15h-.2q-3.7 0-7.4-1.15T74.5 136t-6.1-4.15-6-4.75q-.5-.4-6.5-5.05t-14.35-11.1-12.25-9.45q-1.1-.8-1.25-2.05t.65-2.35l3.7-5.2q.8-1.1 2.15-1.3t2.45.7q9.4 7.3 30.6 23.6.5.4 4.35 3.5t6.05 4.65 5.65 3.25 5.85 1.7h.2q2.4 0 5.85-1.7t5.65-3.25 6.05-4.65 4.35-3.5q25.8-19.8 31.3-24.2 1.1-.8 2.4-.65t2.1 1.25zm19 71.9V70.4q-9-8.3-15.9-13.9-9.1-7.4-38.9-30.4-.3-.2-4.3-3.5t-6.1-4.8-5.6-3.25-5.9-1.75h-.2q-2.4 0-5.9 1.75T78 17.8t-6.1 4.8-4.3 3.5Q46.1 42.7 36.05 50.65T23.1 61.05t-8.2 7.45q-1.4 1.2-2.1 1.9v92.8q0 1.3.95 2.25t2.25.95h147.2q1.3 0 2.25-.95t.95-2.25zm12.8-92.8v92.8q0 6.6-4.7 11.3t-11.3 4.7H16q-6.6 0-11.3-4.7T0 163.2V70.4q0-5.6 4.1-9.4 12.3-11.4 35-29.05T62.4 13.8q3.6-3 5.9-4.75t6.15-4.2 7.6-3.65T89.5 0h.2q3.7 0 7.45 1.2t7.6 3.65 6.15 4.2 5.9 4.75q4.3 3.6 15.6 12.2T155 43.7 175.1 61q4.1 3.8 4.1 9.4z"/></svg>