<svg xmlns="http://www.w3.org/2000/svg" width="153.6" height="179.2"><path d="M124.8 12.8q11.9 0 20.35 8.45t8.45 20.35v96q0 11.9-8.45 20.35t-20.35 8.45h-96q-11.9 0-20.35-8.45T0 137.6v-96q0-11.9 8.45-20.35T28.8 12.8h96zm3.2 105.6V74.8q-3.1 3.5-6.4 5.5-3.4 2.2-13.25 8.5T93.2 98.7q-9.8 6.9-16.4 6.9-6.6 0-16.4-6.9-4.7-3.2-14.2-9.25T32 80.2q-1.2-.8-3.3-2.7t-3.1-2.7v43.6q0 4 2.8 6.8t6.8 2.8h83.2q4 0 6.8-2.8t2.8-6.8zm0-57.3q0-4.1-2.75-7t-6.85-2.9H35.2q-4 0-6.8 2.8t-2.8 6.8q0 3.7 3.05 7.65t6.75 6.45q4.7 3.2 13.75 8.9t12.95 8.3q.3.2 1.7 1.15t2.1 1.4 2.1 1.3 2.35 1.3 2.15.95 2.25.75 2.05.25 2.05-.25 2.25-.75 2.15-.95 2.35-1.3 2.1-1.3 2.1-1.4 1.7-1.15l26.7-17.4q3.5-2.3 6.65-6.25T128 61.1z"/></svg>