<svg xmlns="http://www.w3.org/2000/svg" version="1.1" width="153.6" height="179.2"><path d="M1248 1408q119 0 203.5 -84.5t84.5 -203.5v-960q0 -119 -84.5 -203.5t-203.5 -84.5h-960q-119 0 -203.5 84.5t-84.5 203.5v960q0 119 84.5 203.5t203.5 84.5h960zM1280 352v436q-31 -35 -64 -55q-34 -22 -132.5 -85t-151.5 -99q-98 -69 -164 -69v0v0q-66 0 -164 69 q-47 32 -142 92.5t-142 92.5q-12 8 -33 27t-31 27v-436q0 -40 28 -68t68 -28h832q40 0 68 28t28 68zM1280 925q0 41 -27.5 70t-68.5 29h-832q-40 0 -68 -28t-28 -68q0 -37 30.5 -76.5t67.5 -64.5q47 -32 137.5 -89t129.5 -83q3 -2 17 -11.5t21 -14t21 -13t23.5 -13 t21.5 -9.5t22.5 -7.5t20.5 -2.5t20.5 2.5t22.5 7.5t21.5 9.5t23.5 13t21 13t21 14t17 11.5l267 174q35 23 66.5 62.5t31.5 73.5z" transform="scale(0.1 -0.1) translate(0 -1536)" /></svg>
