<svg xmlns="http://www.w3.org/2000/svg" version="1.1" width="179.2" height="179.2"><path d="M1792 882v-978q0 -66 -47 -113t-113 -47h-1472q-66 0 -113 47t-47 113v978q0 15 11 24q8 7 39 34.5t41.5 36t45.5 37.5t70 55.5t96 73t143.5 107t192.5 140.5q5 4 52.5 40t71.5 52.5t64 35t69 18.5t69 -18.5t65 -35.5t71 -52t52 -40q110 -80 192.5 -140.5t143.5 -107 t96 -73t70 -55.5t45.5 -37.5t41.5 -36t39 -34.5q11 -9 11 -24zM1228 297q263 191 345 252q11 8 12.5 20.5t-6.5 23.5l-38 52q-8 11 -21 12.5t-24 -6.5q-231 -169 -343 -250q-5 -3 -52 -39t-71.5 -52.5t-64.5 -35t-69 -18.5t-69 18.5t-64.5 35t-71.5 52.5t-52 39 q-186 134 -343 250q-11 8 -24 6.5t-21 -12.5l-38 -52q-8 -11 -6.5 -23.5t12.5 -20.5q82 -61 345 -252q10 -8 50 -38t65 -47t64 -39.5t77.5 -33.5t75.5 -11t75.5 11t79 34.5t64.5 39.5t65 47.5t48 36.5z" transform="scale(0.1 -0.1) translate(0 -1536)" /></svg>
