<svg xmlns="http://www.w3.org/2000/svg" width="179.2" height="179.2"><path d="M166.4 150.4V73.6q-3.2 3.6-6.9 6.6-26.8 20.6-42.6 33.8-5.1 4.3-8.3 6.7t-8.65 4.85T89.7 128h-.2q-4.8 0-10.25-2.45t-8.65-4.85-8.3-6.7q-15.8-13.2-42.6-33.8-3.7-3-6.9-6.6v76.8q0 1.3.95 2.25t2.25.95h147.2q1.3 0 2.25-.95t.95-2.25zm0-105.1v-2.45l-.05-1.3-.3-1.25-.55-.9-.9-.75-1.4-.25H16q-1.3 0-2.25.95t-.95 2.25q0 16.8 14.7 28.4 19.3 15.2 40.1 31.7.6.5 3.5 2.95t4.6 3.75 4.45 3.15 5.05 2.75 4.3.9h.2q2 0 4.3-.9t5.05-2.75 4.45-3.15 4.6-3.75 3.5-2.95q20.8-16.5 40.1-31.7 5.4-4.3 10.05-11.55t4.65-13.15zm12.8-3.7v108.8q0 6.6-4.7 11.3t-11.3 4.7H16q-6.6 0-11.3-4.7T0 150.4V41.6Q0 35 4.7 30.3T16 25.6h147.2q6.6 0 11.3 4.7t4.7 11.3z"/></svg>