<svg xmlns="http://www.w3.org/2000/svg" width="153.6" height="179.2"><path d="M51.8 18.3v65.5q10.3.1 19.15-.15t12.55-.55l3.7-.3q6.8-.2 9.05-2.45t3.95-9.45l3.3-14.2h10.3l-1.4 32.2.7 31.9h-10.3l-2.9-12.7q-1.5-6.8-4.5-9.3T87 96.2q-8.7-.8-35.2-.8V151q0 7.8 4.35 11.55t13.35 3.75h35.7q3.5 0 5.95-.2t5.5-.75 5.4-1.8 4.85-3.2 4.6-5.05 3.9-7.3l9.3-21.6h8.9q-.6 3.7-3.15 25.2t-3.05 27.6q-14.6-.5-26.35-.8t-16.25-.4H37.6L0 179.2V169l12.7-2.5q6.7-1.3 9.15-3.7t2.55-7.9l.8-64.3q.3-40.2-.8-64.5-.2-6.1-2.55-8.4t-9.15-3.6L0 11.7V1.5l37.6 1.2h70.2q13.9 0 37.4-2.7-.6 6.8-1.4 19.45t-1.2 21.95l-.5 9.2h-9.3l-3.2-12.4q-3.1-12.1-7.4-17.95t-11.3-5.85H56.1q-2.8 0-3.55.85t-.75 3.05z"/></svg>