<svg xmlns="http://www.w3.org/2000/svg" version="1.1" width="179.2" height="179.2"><path d="M896 1472q-169 0 -323 -66t-265.5 -177.5t-177.5 -265.5t-66 -323t66 -323t177.5 -265.5t265.5 -177.5t323 -66t323 66t265.5 177.5t177.5 265.5t66 323t-66 323t-177.5 265.5t-265.5 177.5t-323 66zM896 1536q182 0 348 -71t286 -191t191 -286t71 -348t-71 -348 t-191 -286t-286 -191t-348 -71t-348 71t-286 191t-191 286t-71 348t71 348t191 286t286 191t348 71zM496 704q16 0 16 -16v-480q0 -16 -16 -16h-32q-16 0 -16 16v480q0 16 16 16h32zM896 640q53 0 90.5 -37.5t37.5 -90.5q0 -35 -17.5 -64t-46.5 -46v-114q0 -14 -9 -23 t-23 -9h-64q-14 0 -23 9t-9 23v114q-29 17 -46.5 46t-17.5 64q0 53 37.5 90.5t90.5 37.5zM896 1408q209 0 385.5 -103t279.5 -279.5t103 -385.5t-103 -385.5t-279.5 -279.5t-385.5 -103t-385.5 103t-279.5 279.5t-103 385.5t103 385.5t279.5 279.5t385.5 103zM544 928v-96 q0 -14 9 -23t23 -9h64q14 0 23 9t9 23v96q0 93 65.5 158.5t158.5 65.5t158.5 -65.5t65.5 -158.5v-96q0 -14 9 -23t23 -9h64q14 0 23 9t9 23v96q0 146 -103 249t-249 103t-249 -103t-103 -249zM1408 192v512q0 26 -19 45t-45 19h-896q-26 0 -45 -19t-19 -45v-512 q0 -26 19 -45t45 -19h896q26 0 45 19t19 45z" transform="scale(0.1 -0.1) translate(0 -1536)" /></svg>
