<svg xmlns="http://www.w3.org/2000/svg" width="179.2" height="179.2"><path d="m55.5 133.5 7.8-14.1q-8.7-6.3-13.6-15.9t-4.9-20.3q0-12.1 6.1-22.5Q28 72.4 12.8 96q16.7 25.8 42.7 37.5zm38.9-75.9q0-2-1.4-3.4t-3.4-1.4q-12.5 0-21.45 8.95T59.2 83.2q0 2 1.4 3.4T64 88t3.4-1.4 1.4-3.4q0-8.6 6.1-14.7t14.7-6.1q2 0 3.4-1.4t1.4-3.4zm36.3-19.1q0 .7-.1.9Q120 58.3 99 96.1t-31.5 56.6l-4.9 8.9q-1 1.6-2.8 1.6-1.2 0-13.4-7-1.6-1-1.6-2.8 0-1.2 4.4-8.7-14.3-6.5-26.35-17.3T2 102.9Q0 99.8 0 96t2-6.9Q17.3 65.6 40 52t49.6-13.6q8.9 0 18 1.7l5.4-9.7q1-1.6 2.8-1.6.5 0 1.8.6t3.1 1.55 3.3 1.85 3.15 1.85 1.95 1.15q1.6 1 1.6 2.7zm3.7 44.7q0 13.9-7.9 25.35T105.6 125l28-50.2q.8 4.5.8 8.4zM179.2 96q0 3.5-2 6.9-3.9 6.4-10.9 14.5-15 17.2-34.75 26.7t-41.95 9.5l7.4-13.2q21.2-1.8 39.25-13.7T166.4 96q-11.5-17.9-28.2-29.4l6.3-11.2q9.5 6.4 18.25 15.3t14.45 18.4q2 3.4 2 6.9z"/></svg>