<svg xmlns="http://www.w3.org/2000/svg" width="179.2" height="179.2"><path d="M28.8 38.4q6.6 0 11.3 4.7t4.7 11.3v108.8q0 6.6-4.7 11.3t-11.3 4.7H16q-6.6 0-11.3-4.7T0 163.2V54.4q0-6.6 4.7-11.3T16 38.4h12.8zm137.6 16.3q5.8 3.4 9.3 9.3t3.5 12.8v76.8q0 10.6-7.5 18.1t-18.1 7.5H67.2q-6.6 0-11.3-4.7t-4.7-11.3V9.6q0-4 2.8-6.8T60.8 0H128q4 0 8.8 2t7.6 4.8L159.6 22q2.8 2.8 4.8 7.6t2 8.8v16.3zm-73.6 98.9v-12.8q0-1.4-.9-2.3t-2.3-.9H76.8q-1.4 0-2.3.9t-.9 2.3v12.8q0 1.4.9 2.3t2.3.9h12.8q1.4 0 2.3-.9t.9-2.3zm0-25.6v-12.8q0-1.4-.9-2.3t-2.3-.9H76.8q-1.4 0-2.3.9t-.9 2.3V128q0 1.4.9 2.3t2.3.9h12.8q1.4 0 2.3-.9t.9-2.3zm0-25.6V89.6q0-1.4-.9-2.3t-2.3-.9H76.8q-1.4 0-2.3.9t-.9 2.3v12.8q0 1.4.9 2.3t2.3.9h12.8q1.4 0 2.3-.9t.9-2.3zm25.6 51.2v-12.8q0-1.4-.9-2.3t-2.3-.9h-12.8q-1.4 0-2.3.9t-.9 2.3v12.8q0 1.4.9 2.3t2.3.9h12.8q1.4 0 2.3-.9t.9-2.3zm0-25.6v-12.8q0-1.4-.9-2.3t-2.3-.9h-12.8q-1.4 0-2.3.9t-.9 2.3V128q0 1.4.9 2.3t2.3.9h12.8q1.4 0 2.3-.9t.9-2.3zm0-25.6V89.6q0-1.4-.9-2.3t-2.3-.9h-12.8q-1.4 0-2.3.9t-.9 2.3v12.8q0 1.4.9 2.3t2.3.9h12.8q1.4 0 2.3-.9t.9-2.3zm25.6 51.2v-12.8q0-1.4-.9-2.3t-2.3-.9H128q-1.4 0-2.3.9t-.9 2.3v12.8q0 1.4.9 2.3t2.3.9h12.8q1.4 0 2.3-.9t.9-2.3zm0-25.6v-12.8q0-1.4-.9-2.3t-2.3-.9H128q-1.4 0-2.3.9t-.9 2.3V128q0 1.4.9 2.3t2.3.9h12.8q1.4 0 2.3-.9t.9-2.3zm0-25.6V89.6q0-1.4-.9-2.3t-2.3-.9H128q-1.4 0-2.3.9t-.9 2.3v12.8q0 1.4.9 2.3t2.3.9h12.8q1.4 0 2.3-.9t.9-2.3zm9.6-38.4V38.4h-16q-4 0-6.8-2.8t-2.8-6.8v-16H64V64h89.6z"/></svg>