<svg xmlns="http://www.w3.org/2000/svg" version="1.1" width="179.2" height="179.2"><path d="M288 1152q66 0 113 -47t47 -113v-1088q0 -66 -47 -113t-113 -47h-128q-66 0 -113 47t-47 113v1088q0 66 47 113t113 47h128zM1664 989q58 -34 93 -93t35 -128v-768q0 -106 -75 -181t-181 -75h-864q-66 0 -113 47t-47 113v1536q0 40 28 68t68 28h672q40 0 88 -20t76 -48 l152 -152q28 -28 48 -76t20 -88v-163zM928 0v128q0 14 -9 23t-23 9h-128q-14 0 -23 -9t-9 -23v-128q0 -14 9 -23t23 -9h128q14 0 23 9t9 23zM928 256v128q0 14 -9 23t-23 9h-128q-14 0 -23 -9t-9 -23v-128q0 -14 9 -23t23 -9h128q14 0 23 9t9 23zM928 512v128q0 14 -9 23 t-23 9h-128q-14 0 -23 -9t-9 -23v-128q0 -14 9 -23t23 -9h128q14 0 23 9t9 23zM1184 0v128q0 14 -9 23t-23 9h-128q-14 0 -23 -9t-9 -23v-128q0 -14 9 -23t23 -9h128q14 0 23 9t9 23zM1184 256v128q0 14 -9 23t-23 9h-128q-14 0 -23 -9t-9 -23v-128q0 -14 9 -23t23 -9h128 q14 0 23 9t9 23zM1184 512v128q0 14 -9 23t-23 9h-128q-14 0 -23 -9t-9 -23v-128q0 -14 9 -23t23 -9h128q14 0 23 9t9 23zM1440 0v128q0 14 -9 23t-23 9h-128q-14 0 -23 -9t-9 -23v-128q0 -14 9 -23t23 -9h128q14 0 23 9t9 23zM1440 256v128q0 14 -9 23t-23 9h-128 q-14 0 -23 -9t-9 -23v-128q0 -14 9 -23t23 -9h128q14 0 23 9t9 23zM1440 512v128q0 14 -9 23t-23 9h-128q-14 0 -23 -9t-9 -23v-128q0 -14 9 -23t23 -9h128q14 0 23 9t9 23zM1536 896v256h-160q-40 0 -68 28t-28 68v160h-640v-512h896z" transform="scale(0.1 -0.1) translate(0 -1536)" /></svg>
