<svg xmlns="http://www.w3.org/2000/svg" version="1.1" width="153.6" height="179.2"><path d="M1468 1156q28 -28 48 -76t20 -88v-1152q0 -40 -28 -68t-68 -28h-1344q-40 0 -68 28t-28 68v1600q0 40 28 68t68 28h896q40 0 88 -20t76 -48zM1024 1400v-376h376q-10 29 -22 41l-313 313q-12 12 -41 22zM1408 -128v1024h-416q-40 0 -68 28t-28 68v416h-768v-1536h1280z M768 768q52 0 90 -38t38 -90v-384q0 -52 -38 -90t-90 -38h-384q-52 0 -90 38t-38 90v384q0 52 38 90t90 38h384zM1260 766q20 -8 20 -30v-576q0 -22 -20 -30q-8 -2 -12 -2q-14 0 -23 9l-265 266v90l265 266q9 9 23 9q4 0 12 -2z" transform="scale(0.1 -0.1) translate(0 -1536)" /></svg>
