<svg xmlns="http://www.w3.org/2000/svg" width="140.8" height="179.2"><path d="M51.2 19.2q0-2.6-1.9-4.5t-4.5-1.9-4.5 1.9-1.9 4.5 1.9 4.5 4.5 1.9 4.5-1.9 1.9-4.5zm89.6-3.2v32q0 1.6-1.2 2.5-.8.7-2 .7-.4 0-.7-.1l-44.8-9.6q-1.1-.2-1.8-1.1t-.7-2H64v10.2q11.1 2.3 18.35 11.1T89.6 80v80q0 2.6-1.9 4.5t-4.5 1.9H32q-2.6 0-4.5-1.9t-1.9-4.5V80q0-10.6 6.25-19.05T48 49.5V38.4h-3.2q-5.9 0-11.5 2.35t-9.15 5.3-6.6 6.65-4.05 5.35-1.4 2.45Q10.4 64 6.4 64q-1.6 0-2.9-.7-2.3-1.2-3.15-3.7t.35-4.9q.5-1 1.45-2.6t3.75-5.35 6.05-7 8.5-6.7T31.3 27.8q-2.5-4.2-2.5-8.6 0-6.6 4.7-11.3t11.3-4.7 11.3 4.7 4.7 11.3q0 3.3-1.4 6.4h30.2q0-1.1.7-2t1.8-1.1l44.8-9.6q.3-.1.7-.1 1.2 0 2 .7 1.2.9 1.2 2.5z"/></svg>