<svg xmlns="http://www.w3.org/2000/svg" version="1.1" width="179.2" height="179.2"><path d="M903 -256q-283 0 -504.5 150.5t-329.5 398.5q-58 131 -67 301t26 332.5t111 312t179 242.5l-11 -281q11 14 68 15.5t70 -15.5q42 81 160.5 138t234.5 59q-54 -45 -119.5 -148.5t-58.5 -163.5q25 -8 62.5 -13.5t63 -7.5t68 -4t50.5 -3q15 -5 9.5 -45.5t-30.5 -75.5 q-5 -7 -16.5 -18.5t-56.5 -35.5t-101 -34l15 -189l-139 67q-18 -43 -7.5 -81.5t36 -66.5t65.5 -41.5t81 -6.5q51 9 98 34.5t83.5 45t73.5 17.5q61 -4 89.5 -33t19.5 -65q-1 -2 -2.5 -5.5t-8.5 -12.5t-18 -15.5t-31.5 -10.5t-46.5 -1q-60 -95 -144.5 -135.5t-209.5 -29.5 q74 -61 162.5 -82.5t168.5 -6t154.5 52t128 87.5t80.5 104q43 91 39 192.5t-37.5 188.5t-78.5 125q87 -38 137 -79.5t77 -112.5q15 170 -57.5 343t-209.5 284q265 -77 412 -279.5t151 -517.5q2 -127 -40.5 -255t-123.5 -238t-189 -196t-247.5 -135.5t-288.5 -49.5z" transform="scale(0.1 -0.1) translate(0 -1536)" /></svg>
