<svg xmlns="http://www.w3.org/2000/svg" width="179.2" height="179.2"><path d="M83.2 100V80.8q-18.1 1.6-38.4 11.7V111q20.5-9.6 38.4-11zm0-41.8V38.5q-17.2.8-38.4 12.6V70q21.5-11.1 38.4-11.8zm83.2 46.3V86.1q-23.5 11.6-38.4 7.1V70.8q-2-.6-3.9-1.5-.5-.3-3.3-1.7t-3.45-1.7-3.15-1.5-3.45-1.55-3.25-1.3-3.6-1.25-3.5-.85-3.95-.75-3.95-.4-4.4-.2q-2.3 0-4.9.3v22.2h1.9q10.2 0 19.25 2.9t19.75 8.2q1.9.9 3.9 1.5V112q4.2 1.7 9.1 1.7 12 0 29.3-9.2zm0-42.7V42.9Q149.5 52 135.8 52q-4.5 0-7.8-.8v19.6q14.8 4.2 38.4-9zM32 25.6q0 3.5-1.75 6.4t-4.65 4.6v126.6q0 1.4-.9 2.3t-2.3.9H16q-1.4 0-2.3-.9t-.9-2.3V36.6Q9.9 34.9 8.15 32T6.4 25.6q0-5.3 3.75-9.05t9.05-3.75 9.05 3.75T32 25.6zM179.2 32v76.3q0 3.9-3.5 5.7-1 .5-1.7.9-21.8 11.6-36.9 11.6-8.8 0-15.8-3.5l-2.8-1.4q-6.4-3.3-9.9-4.8t-9.1-2.9-11.4-1.4q-10.2 0-23.55 4.4T41.7 127.1q-1.5.9-3.3.9-1.6 0-3.2-.8-3.2-1.9-3.2-5.6V47.4q0-3.5 3.1-5.5 3.5-2.1 7.85-4.25t11.4-5.2T69.6 27.5t15.5-1.9q11.2 0 20.9 3.1t20.9 8.6q3.8 1.9 8.9 1.9 12.2 0 31-11.2 2.2-1.2 3.1-1.7 3.1-1.6 6.2.2 3.1 2 3.1 5.5z"/></svg>