<svg xmlns="http://www.w3.org/2000/svg" width="192" height="179.2"><path d="M178.1 93.1q0-3.5-5.3-3.5H64q-4 0-8.55 2.15T48.3 97l-29.4 36.3q-1.8 2.4-1.8 4 0 3.5 5.3 3.5h108.8q4 0 8.6-2.2t7.1-5.3L176.3 97q1.8-2.2 1.8-3.9zM64 76.8h76.8v-16q0-4-2.8-6.8t-6.8-2.8H73.6q-4 0-6.8-2.8T64 41.6v-6.4q0-4-2.8-6.8t-6.8-2.8h-32q-4 0-6.8 2.8t-2.8 6.8v85.3L38.4 89q4.4-5.3 11.6-8.75t14-3.45zm126.9 16.3q0 6.2-4.6 12l-29.5 36.3q-4.3 5.3-11.6 8.75t-14 3.45H22.4q-9.2 0-15.8-6.6T0 131.2v-96Q0 26 6.6 19.4t15.8-6.6h32q9.2 0 15.8 6.6t6.6 15.8v3.2h54.4q9.2 0 15.8 6.6t6.6 15.8v16h19.2q5.4 0 9.9 2.45t6.7 7.05q1.5 3.2 1.5 6.8z"/></svg>