<svg xmlns="http://www.w3.org/2000/svg" version="1.1" width="166.4" height="179.2"><path d="M725 977l-170 -450q33 0 136.5 -2t160.5 -2q19 0 57 2q-87 253 -184 452zM0 -128l2 79q23 7 56 12.5t57 10.5t49.5 14.5t44.5 29t31 50.5l237 616l280 724h75h53q8 -14 11 -21l205 -480q33 -78 106 -257.5t114 -274.5q15 -34 58 -144.5t72 -168.5q20 -45 35 -57 q19 -15 88 -29.5t84 -20.5q6 -38 6 -57q0 -5 -0.5 -13.5t-0.5 -12.5q-63 0 -190 8t-191 8q-76 0 -215 -7t-178 -8q0 43 4 78l131 28q1 0 12.5 2.5t15.5 3.5t14.5 4.5t15 6.5t11 8t9 11t2.5 14q0 16 -31 96.5t-72 177.5t-42 100l-450 2q-26 -58 -76.5 -195.5t-50.5 -162.5 q0 -22 14 -37.5t43.5 -24.5t48.5 -13.5t57 -8.5t41 -4q1 -19 1 -58q0 -9 -2 -27q-58 0 -174.5 10t-174.5 10q-8 0 -26.5 -4t-21.5 -4q-80 -14 -188 -14z" transform="scale(0.1 -0.1) translate(0 -1536)" /></svg>
