<svg xmlns="http://www.w3.org/2000/svg" width="153.6" height="179.2"><path d="M0 12.8h153.6v153.6H0V12.8zm90.8 32-1.2 3.3 7.5 8.3L94 67.8l2.5 2.5 10.7-5.7 10.7 5.7 2.5-2.5-3.1-11.4 7.5-8.3-1.2-3.3h-9.5l-5.3-9.6h-3.2l-5.3 9.6h-9.5zM64.1 61.1q3.2 0 4.45 1.6T69.7 69l17.4-2.1q0-5.5-1.75-9.25t-5.05-5.6-6.9-2.55-8.5-.7q-13.3 0-19.9 5.75T38.4 72.8V80h-9.6v12.8h7.6q2 0 2 .8v38.2q0 1.4-.5 2t-1.8.7l-7.3.7v8.8h44.8v-8.6L58.7 134q-.6-.1-.85-.15t-.35-.25-.05-.4.1-.7.05-1V92.8h19.1L80.5 80H57.4q-.6 0-.2-.6t.4-.9v-8q0-2.7.15-4.05t.75-2.8 1.95-2 3.65-.55zm60.7 82.9v-8.6l-5.4-.9q-.7-.1-.95-.25t-.25-.3.1-.75.1-1.2V80H90.9l-2.3 10.1 8.3 2.2q2.3.7 2.3 2.7v37q0 1.4-.6 1.85t-2 .65l-7 .9v8.6h35.2z"/></svg>