<svg xmlns="http://www.w3.org/2000/svg" width="179.2" height="179.2"><path d="M64 100.8V78.4q0-1.6-1.6-1.6h-9.6q-1.6 0-1.6 1.6v22.4q0 1.6 1.6 1.6h9.6q1.6 0 1.6-1.6zm51.2 0V78.4q0-1.6-1.6-1.6H104q-1.6 0-1.6 1.6v22.4q0 1.6 1.6 1.6h9.6q1.6 0 1.6-1.6zm51.2 3.2v75.2h-64v-32q0-8-5.6-13.6T83.2 128t-13.6 5.6-5.6 13.6v32H0V104q0-1.6 1.6-1.6h9.6q1.6 0 1.6 1.6v11.2h12.8V52.8q0-1.6 1.6-1.6h9.6q1.6 0 1.6 1.6V64h12.8V52.8q0-1.6 1.6-1.6h9.6q1.6 0 1.6 1.6V64h12.8V52.8q0-.6.25-.95t.85-.5.95-.2 1.15 0 .9.05V12.1q-3.2-1.5-3.2-5 0-2.3 1.65-3.9t3.85-1.6 3.85 1.6 1.65 3.9q0 3.5-3.2 5v1.7q4.5-1 8.3-1 2.1 0 5.95.75t5.45.75q1.7 0 4.7-.75t3.7-.75q1.6 0 1.6 1.6v21q0 1.5-3.5 2.15t-6.2.65q-1.8 0-5.45-.75t-5.55-.75q-4 0-9 1.2v13.3q.1 0 .9-.05t1.15 0 .95.2.85.5.25.95V64h12.8V52.8q0-1.6 1.6-1.6h9.6q1.6 0 1.6 1.6V64H128V52.8q0-1.6 1.6-1.6h9.6q1.6 0 1.6 1.6v62.4h12.8V104q0-1.6 1.6-1.6h9.6q1.6 0 1.6 1.6z"/></svg>