<svg xmlns="http://www.w3.org/2000/svg" version="1.1" width="179.2" height="179.2"><path d="M640 528v224q0 16 -16 16h-96q-16 0 -16 -16v-224q0 -16 16 -16h96q16 0 16 16zM1152 528v224q0 16 -16 16h-96q-16 0 -16 -16v-224q0 -16 16 -16h96q16 0 16 16zM1664 496v-752h-640v320q0 80 -56 136t-136 56t-136 -56t-56 -136v-320h-640v752q0 16 16 16h96 q16 0 16 -16v-112h128v624q0 16 16 16h96q16 0 16 -16v-112h128v112q0 16 16 16h96q16 0 16 -16v-112h128v112q0 6 2.5 9.5t8.5 5t9.5 2t11.5 0t9 -0.5v391q-32 15 -32 50q0 23 16.5 39t38.5 16t38.5 -16t16.5 -39q0 -35 -32 -50v-17q45 10 83 10q21 0 59.5 -7.5t54.5 -7.5 q17 0 47 7.5t37 7.5q16 0 16 -16v-210q0 -15 -35 -21.5t-62 -6.5q-18 0 -54.5 7.5t-55.5 7.5q-40 0 -90 -12v-133q1 0 9 0.5t11.5 0t9.5 -2t8.5 -5t2.5 -9.5v-112h128v112q0 16 16 16h96q16 0 16 -16v-112h128v112q0 16 16 16h96q16 0 16 -16v-624h128v112q0 16 16 16h96 q16 0 16 -16z" transform="scale(0.1 -0.1) translate(0 -1536)" /></svg>
