<svg xmlns="http://www.w3.org/2000/svg" version="1.1" width="128.0" height="179.2"><path d="M1000 1102l37 194q5 23 -9 40t-35 17h-712q-23 0 -38.5 -17t-15.5 -37v-1101q0 -7 6 -1l291 352q23 26 38 33.5t48 7.5h239q22 0 37 14.5t18 29.5q24 130 37 191q4 21 -11.5 40t-36.5 19h-294q-29 0 -48 19t-19 48v42q0 29 19 47.5t48 18.5h346q18 0 35 13.5t20 29.5z M1227 1324q-15 -73 -53.5 -266.5t-69.5 -350t-35 -173.5q-6 -22 -9 -32.5t-14 -32.5t-24.5 -33t-38.5 -21t-58 -10h-271q-13 0 -22 -10q-8 -9 -426 -494q-22 -25 -58.5 -28.5t-48.5 5.5q-55 22 -55 98v1410q0 55 38 102.5t120 47.5h888q95 0 127 -53t10 -159zM1227 1324 l-158 -790q4 17 35 173.5t69.5 350t53.5 266.5z" transform="scale(0.1 -0.1) translate(0 -1536)" /></svg>
