<svg xmlns="http://www.w3.org/2000/svg" width="192" height="179.2"><path d="M83.2 108.8V96q0-1.4-.9-2.3t-2.3-.9H60.8V73.6q0-1.4-.9-2.3t-2.3-.9H44.8q-1.4 0-2.3.9t-.9 2.3v19.2H22.4q-1.4 0-2.3.9t-.9 2.3v12.8q0 1.4.9 2.3t2.3.9h19.2v19.2q0 1.4.9 2.3t2.3.9h12.8q1.4 0 2.3-.9t.9-2.3V112H80q1.4 0 2.3-.9t.9-2.3zm57.6 6.4q0-5.3-3.75-9.05T128 102.4t-9.05 3.75-3.75 9.05 3.75 9.05T128 128t9.05-3.75 3.75-9.05zm25.6-25.6q0-5.3-3.75-9.05t-9.05-3.75-9.05 3.75-3.75 9.05 3.75 9.05 9.05 3.75 9.05-3.75 3.75-9.05zm25.6 12.8q0 21.2-15 36.2t-36.2 15q-19.2 0-33.8-12.8H85q-14.6 12.8-33.8 12.8-21.2 0-36.2-15T0 102.4t15-36.2 36.2-15h89.6q21.2 0 36.2 15t15 36.2z"/></svg>