<svg xmlns="http://www.w3.org/2000/svg" width="102.4" height="179.2"><path d="M102 113.7v36.7q0 1.4-.9 2.3t-2.3.9H3.2q-1.4 0-2.3-.9t-.9-2.3v-15q0-1.3.95-2.25t2.25-.95h9.7V93.9H3.4q-1.4 0-2.3-.95T.2 90.7V77.6q0-1.4.9-2.3t2.3-.9h9.5V52.1q0-17.1 12.35-28.2T56.7 12.8q18.5 0 33.5 12.5.9.8 1 2.05t-.7 2.25L80.2 42.3q-.9 1.1-2.2 1.2-1.3.2-2.3-.7-.5-.5-2.6-1.9t-6.9-3.2-9.3-1.8q-8.5 0-13.7 4.7T38 52.9v21.5h30.5q1.3 0 2.25.9t.95 2.3v13.1q0 1.3-.95 2.25t-2.25.95H38v37.9h41.4v-18.1q0-1.3.9-2.25t2.3-.95h16.2q1.4 0 2.3.95t.9 2.25z"/></svg>