<svg xmlns="http://www.w3.org/2000/svg" width="153.6" height="179.2"><path d="M92.8 135.6V64h-32v71.6q0 2.5 1.8 3.85t4.6 1.35h19.2q2.8 0 4.6-1.35t1.8-3.85zM47.2 51.2h19.5L54.1 35.1Q51.5 32 47.2 32q-4 0-6.8 2.8t-2.8 6.8 2.8 6.8 6.8 2.8zm68.8-9.6q0-4-2.8-6.8t-6.8-2.8q-4.3 0-6.9 3.1L87 51.2h19.4q4 0 6.8-2.8t2.8-6.8zm37.6 25.6v32q0 1.4-.9 2.3t-2.3.9h-9.6V144q0 4-2.8 6.8t-6.8 2.8H22.4q-4 0-6.8-2.8t-2.8-6.8v-41.6H3.2q-1.4 0-2.3-.9T0 99.2v-32q0-1.4.9-2.3t2.3-.9h44q-9.3 0-15.85-6.55T24.8 41.6t6.55-15.85T47.2 19.2q10.7 0 16.8 7.7l12.8 16.5 12.8-16.5q6.1-7.7 16.8-7.7 9.3 0 15.85 6.55t6.55 15.85-6.55 15.85T106.4 64h44q1.4 0 2.3.9t.9 2.3z"/></svg>