<svg xmlns="http://www.w3.org/2000/svg" version="1.1" width="153.6" height="179.2"><path d="M582 228q0 -66 -93 -66q-107 0 -107 63q0 64 98 64q102 0 102 -61zM546 694q0 -85 -74 -85q-77 0 -77 84q0 90 77 90q36 0 55 -25.5t19 -63.5zM712 769v125q-78 -29 -135 -29q-50 29 -110 29q-86 0 -145 -57t-59 -143q0 -50 29.5 -102t73.5 -67v-3q-38 -17 -38 -85 q0 -53 41 -77v-3q-113 -37 -113 -139q0 -45 20 -78.5t54 -51t72 -25.5t81 -8q224 0 224 188q0 67 -48 99t-126 46q-27 5 -51.5 20.5t-24.5 39.5q0 44 49 52q77 15 122 70t45 134q0 24 -10 52q37 9 49 13zM771 350h137q-2 27 -2 82v387q0 46 2 69h-137q3 -23 3 -71v-392 q0 -50 -3 -75zM1280 366v121q-30 -21 -68 -21q-53 0 -53 82v225h52q9 0 26.5 -1t26.5 -1v117h-105q0 82 3 102h-140q4 -24 4 -55v-47h-60v-117q36 3 37 3q3 0 11 -0.5t12 -0.5v-2h-2v-217q0 -37 2.5 -64t11.5 -56.5t24.5 -48.5t43.5 -31t66 -12q64 0 108 24zM924 1072 q0 36 -24 63.5t-60 27.5t-60.5 -27t-24.5 -64q0 -36 25 -62.5t60 -26.5t59.5 27t24.5 62zM1536 1120v-960q0 -119 -84.5 -203.5t-203.5 -84.5h-960q-119 0 -203.5 84.5t-84.5 203.5v960q0 119 84.5 203.5t203.5 84.5h960q119 0 203.5 -84.5t84.5 -203.5z" transform="scale(0.1 -0.1) translate(0 -1536)" /></svg>
