<svg xmlns="http://www.w3.org/2000/svg" width="153.6" height="179.2"><path d="M58.2 130.8q0 6.6-9.3 6.6-10.7 0-10.7-6.3 0-6.4 9.8-6.4 10.2 0 10.2 6.1zm-3.6-46.6q0 8.5-7.4 8.5-7.7 0-7.7-8.4 0-9 7.7-9 3.6 0 5.5 2.55t1.9 6.35zm16.6-7.5V64.2q-7.8 2.9-13.5 2.9-5-2.9-11-2.9-8.6 0-14.5 5.7t-5.9 14.3q0 5 2.95 10.2t7.35 6.7v.3q-3.8 1.7-3.8 8.5 0 5.3 4.1 7.7v.3q-11.3 3.7-11.3 13.9 0 4.5 2 7.85t5.4 5.1 7.2 2.55 8.1.8q22.4 0 22.4-18.8 0-6.7-4.8-9.9t-12.6-4.6q-2.7-.5-5.15-2.05t-2.45-3.95q0-4.4 4.9-5.2 7.7-1.5 12.2-7t4.5-13.4q0-2.4-1-5.2 3.7-.9 4.9-1.3zm5.9 41.9h13.7q-.2-2.7-.2-8.2V71.7q0-4.6.2-6.9H77.1q.3 2.3.3 7.1v39.2q0 5-.3 7.5zM128 117v-12.1q-3 2.1-6.8 2.1-5.3 0-5.3-8.2V76.3h5.2q.9 0 2.65.1t2.65.1V64.8h-10.5q0-8.2.3-10.2h-14q.4 2.4.4 5.5v4.7h-6v11.7q3.6-.3 3.7-.3.3 0 1.1.05t1.2.05v.2h-.2v21.7q0 3.7.25 6.4t1.15 5.65 2.45 4.85 4.35 3.1 6.6 1.2q6.4 0 10.8-2.4zM92.4 46.4q0-3.6-2.4-6.35t-6-2.75-6.05 2.7-2.45 6.4q0 3.6 2.5 6.25t6 2.65 5.95-2.7 2.45-6.2zm61.2-4.8v96q0 11.9-8.45 20.35t-20.35 8.45h-96q-11.9 0-20.35-8.45T0 137.6v-96q0-11.9 8.45-20.35T28.8 12.8h96q11.9 0 20.35 8.45t8.45 20.35z"/></svg>