<svg xmlns="http://www.w3.org/2000/svg" version="1.1" width="179.2" height="179.2"><path d="M595 22q0 100 -165 100q-158 0 -158 -104q0 -101 172 -101q151 0 151 105zM536 777q0 61 -30 102t-89 41q-124 0 -124 -145q0 -135 124 -135q119 0 119 137zM805 1101v-202q-36 -12 -79 -22q16 -43 16 -84q0 -127 -73 -216.5t-197 -112.5q-40 -8 -59.5 -27t-19.5 -58 q0 -31 22.5 -51.5t58 -32t78.5 -22t86 -25.5t78.5 -37.5t58 -64t22.5 -98.5q0 -304 -363 -304q-69 0 -130 12.5t-116 41t-87.5 82t-32.5 127.5q0 165 182 225v4q-67 41 -67 126q0 109 63 137v4q-72 24 -119.5 108.5t-47.5 165.5q0 139 95 231.5t235 92.5q96 0 178 -47 q98 0 218 47zM1123 220h-222q4 45 4 134v609q0 94 -4 128h222q-4 -33 -4 -124v-613q0 -89 4 -134zM1724 442v-196q-71 -39 -174 -39q-62 0 -107 20t-70 50t-39.5 78t-18.5 92t-4 103v351h2v4q-7 0 -19 1t-18 1q-21 0 -59 -6v190h96v76q0 54 -6 89h227q-6 -41 -6 -165h171 v-190q-15 0 -43.5 2t-42.5 2h-85v-365q0 -131 87 -131q61 0 109 33zM1148 1389q0 -58 -39 -101.5t-96 -43.5q-58 0 -98 43.5t-40 101.5q0 59 39.5 103t98.5 44q58 0 96.5 -44.5t38.5 -102.5z" transform="scale(0.1 -0.1) translate(0 -1536)" /></svg>
