<svg xmlns="http://www.w3.org/2000/svg" width="179.2" height="179.2"><path d="M59.5 151.4q0-10-16.5-10-15.8 0-15.8 10.4 0 10.1 17.2 10.1 15.1 0 15.1-10.5zm-5.9-75.5q0-6.1-3-10.2t-8.9-4.1q-12.4 0-12.4 14.5 0 13.5 12.4 13.5 11.9 0 11.9-13.7zm26.9-32.4v20.2q-3.6 1.2-7.9 2.2 1.6 4.3 1.6 8.4 0 12.7-7.3 21.65T47.2 107.2q-4 .8-5.95 2.7t-1.95 5.8q0 3.1 2.25 5.15t5.8 3.2 7.85 2.2 8.6 2.55 7.85 3.75 5.8 6.4 2.25 9.85q0 30.4-36.3 30.4-6.9 0-13-1.25t-11.6-4.1-8.75-8.2T6.8 152.9q0-16.5 18.2-22.5v-.4q-6.7-4.1-6.7-12.6 0-10.9 6.3-13.7v-.4q-7.2-2.4-11.95-10.85T7.9 75.9q0-13.9 9.5-23.15t23.5-9.25q9.6 0 17.8 4.7 9.8 0 21.8-4.7zm31.8 88.1H90.1q.4-4.5.4-13.4V57.3q0-9.4-.4-12.8h22.2q-.4 3.3-.4 12.4v61.3q0 8.9.4 13.4zm60.1-22.2V129q-7.1 3.9-17.4 3.9-6.2 0-10.7-2t-7-5-3.95-7.8-1.85-9.2-.4-10.3V63.5h.2v-.4q-.7 0-1.9-.1t-1.8-.1q-2.1 0-5.9.6v-19h9.6v-7.6q0-5.4-.6-8.9h22.7q-.6 4.1-.6 16.5h17.1v19q-1.5 0-4.35-.2t-4.25-.2h-8.5v36.5q0 13.1 8.7 13.1 6.1 0 10.9-3.3zm-57.6-94.7q0 5.8-3.9 10.15t-9.6 4.35q-5.8 0-9.8-4.35t-4-10.15q0-5.9 3.95-10.3T101.3 0q5.8 0 9.65 4.45t3.85 10.25z"/></svg>