<svg xmlns="http://www.w3.org/2000/svg" version="1.1" width="153.6" height="179.2"><path d="M519 336q4 6 -3 13q-9 7 -14 2q-4 -6 3 -13q9 -7 14 -2zM491 377q-5 7 -12 4q-6 -4 0 -12q7 -8 12 -5q6 4 0 13zM450 417q2 4 -5 8q-7 2 -8 -2q-3 -5 4 -8q8 -2 9 2zM471 394q2 1 1.5 4.5t-3.5 5.5q-6 7 -10 3t1 -11q6 -6 11 -2zM557 319q2 7 -9 11q-9 3 -13 -4 q-2 -7 9 -11q9 -3 13 4zM599 316q0 8 -12 8q-10 0 -10 -8t11 -8t11 8zM638 323q-2 7 -13 5t-9 -9q2 -8 12 -6t10 10zM1280 640q0 212 -150 362t-362 150t-362 -150t-150 -362q0 -167 98 -300.5t252 -185.5q18 -3 26.5 5t8.5 20q0 52 -1 95q-6 -1 -15.5 -2.5t-35.5 -2t-48 4 t-43.5 20t-29.5 41.5q-23 59 -57 74q-2 1 -4.5 3.5l-8 8t-7 9.5t4 7.5t19.5 3.5q6 0 15 -2t30 -15.5t33 -35.5q16 -28 37.5 -42t43.5 -14t38 3.5t30 9.5q7 47 33 69q-49 6 -86 18.5t-73 39t-55.5 76t-19.5 119.5q0 79 53 137q-24 62 5 136q19 6 54.5 -7.5t60.5 -29.5l26 -16 q58 17 128 17t128 -17q11 7 28.5 18t55.5 26t57 9q29 -74 5 -136q53 -58 53 -137q0 -57 -14 -100.5t-35.5 -70t-53.5 -44.5t-62.5 -26t-68.5 -12q35 -31 35 -95q0 -40 -0.5 -89t-0.5 -51q0 -12 8.5 -20t26.5 -5q154 52 252 185.5t98 300.5zM1536 1120v-960 q0 -119 -84.5 -203.5t-203.5 -84.5h-960q-119 0 -203.5 84.5t-84.5 203.5v960q0 119 84.5 203.5t203.5 84.5h960q119 0 203.5 -84.5t84.5 -203.5z" transform="scale(0.1 -0.1) translate(0 -1536)" /></svg>
