<svg xmlns="http://www.w3.org/2000/svg" width="153.6" height="179.2"><path d="M76.8 12.8q20.9 0 38.55 10.3t27.95 27.95 10.3 38.55q0 25.1-14.65 45.15T101.1 162.5q-2.7.5-4-.7t-1.3-3q0-.3.05-7.65t.05-13.45q0-9.7-5.2-14.2 5.7-.6 10.25-1.8t9.4-3.9 8.1-6.65 5.3-10.5 2.05-15.05q0-11.9-7.9-20.6 3.7-9.1-.8-20.4-2.8-.9-8.1 1.1t-9.2 4.4L96 52.5q-9.3-2.6-19.2-2.6t-19.2 2.6q-1.6-1.1-4.25-2.7T45 45.95t-8.5-1.35Q32 55.9 35.7 65q-7.9 8.7-7.9 20.6 0 8.5 2.05 15t5.25 10.5 8.05 6.7 9.4 3.9 10.25 1.8q-3.9 3.6-4.9 10.3-2.1 1-4.5 1.5t-5.7.5-6.55-2.15-5.55-6.25q-1.9-3.2-4.85-5.2t-4.95-2.4l-2-.3q-2.1 0-2.9.45t-.5 1.15.9 1.4 1.3 1.2l.7.5q2.2 1 4.35 3.8t3.15 5.1l1 2.3q1.3 3.8 4.4 6.15t6.7 3 6.95.7 5.55-.35l2.3-.4q0 3.8.05 8.85t.05 5.45q0 1.8-1.3 3t-4 .7q-23.2-7.7-37.85-27.75T0 89.6q0-20.9 10.3-38.55T38.25 23.1 76.8 12.8zM29.1 123.1q.3-.7-.7-1.2-1-.3-1.3.2-.3.7.7 1.2.9.6 1.3-.2zm3.1 3.4q.7-.5-.2-1.6-1-.9-1.6-.3-.7.5.2 1.6 1 1 1.6.3zm3 4.5q.9-.7 0-1.9-.8-1.3-1.7-.6-.9.5 0 1.8t1.7.7zm4.2 4.2q.8-.8-.4-1.9-1.2-1.2-2-.3-.9.8.4 1.9 1.2 1.2 2 .3zm5.7 2.5q.3-1.1-1.3-1.6-1.5-.4-1.9.7t1.3 1.5q1.5.6 1.9-.6zm6.3.5q0-1.3-1.7-1.1-1.6 0-1.6 1.1 0 1.3 1.7 1.1 1.6 0 1.6-1.1zm5.8-1q-.2-1.1-1.8-.9-1.6.3-1.4 1.5t1.8.8 1.4-1.4z"/></svg>