<svg xmlns="http://www.w3.org/2000/svg" width="153.6" height="179.2"><path d="M86.6 51.5q0 2.7-1.3 9.4-1.1 5-3.15 15t-3.05 15q-.2 1.1-.45 1.25t-1.35.25q-2 .2-3.1.2-5.8 0-8.4-4.95T63.2 76.3q0-8.8 3.5-17.4T77 46.5q2.8-1.4 5.1-1.4 2.8 0 3.65 1.65t.85 4.75zm48.6 42.4q0-1.4-3.9-7.55t-5.2-6.65q-2.1-.8-3.4-.8-9.1 0-22.6 7.7l-.2-.2q.3-2.2 2.75-13.5t2.45-17.8q0-23.3-24.2-23.3-2.4 0-6.8.6-9.4 1.7-16.85 8.95T46.1 58t-3.7 18.9q0 14.6 8.05 22.5t22.75 7.9q2.5 0 2.5.3t-.1.5q-.4 3.4-2.6 11.7-1.4 5.2-5.15 10.1t-8.25 4.9q-4.2 0-4.2-4.7 0-2.4 1.05-4.75t2.5-3.95 2.95-2.85 2.6-2 1.1-.85q0-.3-.7-1-2.4-2.2-5.85-3.65t-6.55-1.45q-3.5 0-6.35 3.4t-4.1 7.5-1.25 7.5q0 8.8 5.15 14.2t13.85 5.4q8.2 0 15.5-5.3t11.75-12.6 6.55-15.3q.6-2.2 1.55-6.65t1.45-6.65q.3-1.2 1.4-1.8 11.8-6 22.7-6 4.8 0 12.7 1.8.1.1.4.1.5 0 .95-.45t.45-.85zm18.4-52.3v96q0 11.9-8.45 20.35t-20.35 8.45h-96q-11.9 0-20.35-8.45T0 137.6v-96q0-11.9 8.45-20.35T28.8 12.8h96q11.9 0 20.35 8.45t8.45 20.35z"/></svg>