<svg xmlns="http://www.w3.org/2000/svg" version="1.1" width="153.5" height="179.2"><path d="M744 1231q0 24 -2 38.5t-8.5 30t-21 23t-37.5 7.5q-39 0 -78 -23q-105 -58 -159 -190.5t-54 -269.5q0 -44 8.5 -85.5t26.5 -80.5t52.5 -62.5t81.5 -23.5q4 0 18 -0.5t20 0t16 3t15 8.5t7 16q16 77 48 231.5t48 231.5q19 91 19 146zM1498 575q0 -7 -7.5 -13.5t-15.5 -6.5 l-6 1q-22 3 -62 11t-72 12.5t-63 4.5q-167 0 -351 -93q-15 -8 -21 -27q-10 -36 -24.5 -105.5t-22.5 -100.5q-23 -91 -70 -179.5t-112.5 -164.5t-154.5 -123t-185 -47q-135 0 -214.5 83.5t-79.5 219.5q0 53 19.5 117t63 116.5t97.5 52.5q38 0 120 -33.5t83 -61.5 q0 -1 -16.5 -12.5t-39.5 -31t-46 -44.5t-39 -61t-16 -74q0 -33 16.5 -53t48.5 -20q45 0 85 31.5t66.5 78t48 105.5t32.5 107t16 90v9q0 2 -3.5 3.5t-8.5 1.5h-10t-10 -0.5t-6 -0.5q-227 0 -352 122.5t-125 348.5q0 108 34.5 221t96 210t156 167.5t204.5 89.5q52 9 106 9 q374 0 374 -360q0 -98 -38 -273t-43 -211l3 -3q101 57 182.5 88t167.5 31q22 0 53 -13q19 -7 80 -102.5t61 -116.5z" transform="scale(0.1 -0.1) translate(0 -1536)" /></svg>
