<svg xmlns="http://www.w3.org/2000/svg" version="1.1" width="153.6" height="179.2"><path d="M866 1021q0 -27 -13 -94q-11 -50 -31.5 -150t-30.5 -150q-2 -11 -4.5 -12.5t-13.5 -2.5q-20 -2 -31 -2q-58 0 -84 49.5t-26 113.5q0 88 35 174t103 124q28 14 51 14q28 0 36.5 -16.5t8.5 -47.5zM1352 597q0 14 -39 75.5t-52 66.5q-21 8 -34 8q-91 0 -226 -77l-2 2 q3 22 27.5 135t24.5 178q0 233 -242 233q-24 0 -68 -6q-94 -17 -168.5 -89.5t-111.5 -166.5t-37 -189q0 -146 80.5 -225t227.5 -79q25 0 25 -3t-1 -5q-4 -34 -26 -117q-14 -52 -51.5 -101t-82.5 -49q-42 0 -42 47q0 24 10.5 47.5t25 39.5t29.5 28.5t26 20t11 8.5q0 3 -7 10 q-24 22 -58.5 36.5t-65.5 14.5q-35 0 -63.5 -34t-41 -75t-12.5 -75q0 -88 51.5 -142t138.5 -54q82 0 155 53t117.5 126t65.5 153q6 22 15.5 66.5t14.5 66.5q3 12 14 18q118 60 227 60q48 0 127 -18q1 -1 4 -1q5 0 9.5 4.5t4.5 8.5zM1536 1120v-960q0 -119 -84.5 -203.5 t-203.5 -84.5h-960q-119 0 -203.5 84.5t-84.5 203.5v960q0 119 84.5 203.5t203.5 84.5h960q119 0 203.5 -84.5t84.5 -203.5z" transform="scale(0.1 -0.1) translate(0 -1536)" /></svg>
