<svg xmlns="http://www.w3.org/2000/svg" width="153.6" height="179.2"><path d="M91.7 90.5q0-3.3-.6-6.4H54.9v13.2h21.7q-1.2 7.6-7.45 12.05T54.9 113.8q-9.9 0-16.9-7.15T31 89.6t7-17.05 16.9-7.15q9.3 0 15.3 5.9l10.4-10.1q-10.8-10-25.7-10-16 0-27.2 11.25T16.5 89.6t11.2 27.15T54.9 128q16.5 0 26.65-10.5t10.15-27zm34.5 4.6h10.9v-11h-10.9v-11h-11v11h-11v11h11v11h11v-11zm27.4-5.5q0 20.9-10.3 38.55t-27.95 27.95-38.55 10.3-38.55-10.3-27.95-27.95T0 89.6t10.3-38.55T38.25 23.1 76.8 12.8t38.55 10.3 27.95 27.95 10.3 38.55z"/></svg>