<svg xmlns="http://www.w3.org/2000/svg" version="1.1" width="153.6" height="179.2"><path d="M917 631q0 26 -6 64h-362v-132h217q-3 -24 -16.5 -50t-37.5 -53t-66.5 -44.5t-96.5 -17.5q-99 0 -169 71t-70 171t70 171t169 71q92 0 153 -59l104 101q-108 100 -257 100q-160 0 -272 -112.5t-112 -271.5t112 -271.5t272 -112.5q165 0 266.5 105t101.5 270zM1262 585 h109v110h-109v110h-110v-110h-110v-110h110v-110h110v110zM1536 1120v-960q0 -119 -84.5 -203.5t-203.5 -84.5h-960q-119 0 -203.5 84.5t-84.5 203.5v960q0 119 84.5 203.5t203.5 84.5h960q119 0 203.5 -84.5t84.5 -203.5z" transform="scale(0.1 -0.1) translate(0 -1536)" /></svg>
