<svg xmlns="http://www.w3.org/2000/svg" version="1.1" width="230.4" height="179.2"><path d="M1437 623q0 -208 -87 -370.5t-248 -254t-369 -91.5q-149 0 -285 58t-234 156t-156 234t-58 285t58 285t156 234t234 156t285 58q286 0 491 -192l-199 -191q-117 113 -292 113q-123 0 -227.5 -62t-165.5 -168.5t-61 -232.5t61 -232.5t165.5 -168.5t227.5 -62 q83 0 152.5 23t114.5 57.5t78.5 78.5t49 83t21.5 74h-416v252h692q12 -63 12 -122zM2304 745v-210h-209v-209h-210v209h-209v210h209v209h210v-209h209z" transform="scale(0.1 -0.1) translate(0 -1536)" /></svg>
