<svg xmlns="http://www.w3.org/2000/svg" version="1.1" width="153.6" height="179.2"><path d="M917 631q0 33 -6 64h-362v-132h217q-12 -76 -74.5 -120.5t-142.5 -44.5q-99 0 -169 71.5t-70 170.5t70 170.5t169 71.5q93 0 153 -59l104 101q-108 100 -257 100q-160 0 -272 -112.5t-112 -271.5t112 -271.5t272 -112.5q165 0 266.5 105t101.5 270zM1262 585h109v110 h-109v110h-110v-110h-110v-110h110v-110h110v110zM1536 640q0 -209 -103 -385.5t-279.5 -279.5t-385.5 -103t-385.5 103t-279.5 279.5t-103 385.5t103 385.5t279.5 279.5t385.5 103t385.5 -103t279.5 -279.5t103 -385.5z" transform="scale(0.1 -0.1) translate(0 -1536)" /></svg>
