<svg xmlns="http://www.w3.org/2000/svg" version="1.1" width="179.2" height="179.2"><path d="M1073 -128h-177q-163 0 -226 141q-23 49 -23 102v5q-62 30 -98.5 88.5t-36.5 127.5q0 38 5 48h-261q-106 0 -181 75t-75 181t75 181t181 75h113l-44 17q-74 28 -119.5 93.5t-45.5 145.5q0 106 75 181t181 75q46 0 91 -17l628 -239h401q106 0 181 -75t75 -181v-668 q0 -88 -54 -157.5t-140 -90.5l-339 -85q-92 -23 -186 -23zM1024 583l-155 -71l-163 -74q-30 -14 -48 -41.5t-18 -60.5q0 -46 33 -79t79 -33q26 0 46 10l338 154q-49 10 -80.5 50t-31.5 90v55zM1344 272q0 46 -33 79t-79 33q-26 0 -46 -10l-290 -132q-28 -13 -37 -17 t-30.5 -17t-29.5 -23.5t-16 -29t-8 -40.5q0 -50 31.5 -82t81.5 -32q20 0 38 9l352 160q30 14 48 41.5t18 60.5zM1112 1024l-650 248q-24 8 -46 8q-53 0 -90.5 -37.5t-37.5 -90.5q0 -40 22.5 -73t59.5 -47l526 -200v-64h-640q-53 0 -90.5 -37.5t-37.5 -90.5t37.5 -90.5 t90.5 -37.5h535l233 106v198q0 63 46 106l111 102h-69zM1073 0q82 0 155 19l339 85q43 11 70 45.5t27 78.5v668q0 53 -37.5 90.5t-90.5 37.5h-308l-136 -126q-36 -33 -36 -82v-296q0 -46 33 -77t79 -31t79 35t33 81v208h32v-208q0 -70 -57 -114q52 -8 86.5 -48.5t34.5 -93.5 q0 -42 -23 -78t-61 -53l-310 -141h91z" transform="scale(0.1 -0.1) translate(0 -1536)" /></svg>
