<svg xmlns="http://www.w3.org/2000/svg" width="153.6" height="179.2"><path d="M128 160q0-2.6-1.9-4.5t-4.5-1.9-4.5 1.9-1.9 4.5 1.9 4.5 4.5 1.9 4.5-1.9 1.9-4.5zm12.8-76.4q0-18.9-16.7-18.9-2.6 0-5.6.5-1.6-3-5.25-4.75t-7.35-1.75-6.9 1.8q-5-5.3-11.9-5.3-2.5 0-5.55 1t-4.75 2.5V25.6q0-5.2-3.8-9t-9-3.8q-5.1 0-8.95 3.9t-3.85 8.9v57.6q-2 0-4.85-1.5t-5.5-3.3-6.8-3.3-8.45-1.5q-6.7 0-9.75 4.45T12.8 89.6q0 2.4 13.9 9 4.4 2.4 6.5 3.7 6.4 4 14.5 11.2 8.1 7.1 10.6 10.1 5.7 6.9 5.7 14v3.2h64v-3.2q0-7.2 3.2-16.7t6.4-19.35 3.2-17.95zm12.8-.5q0 13.3-6.9 32.2-5.9 16.4-5.9 22.3v28.8q0 5.3-3.75 9.05T128 179.2H64q-5.3 0-9.05-3.75t-3.75-9.05v-28.8q0-1-.45-2.15t-1.4-2.35-1.8-2.25-2.25-2.4-2.15-2.05-2.15-1.9-1.7-1.4q-7.4-6.5-12.9-10-2.1-1.3-6.2-3.3t-7.2-3.7-6.3-4.05-4.95-5.5T0 89.6q0-12.5 6.7-20.65t18.9-8.15q6.8 0 12.8 2.2V25.6q0-10.4 7.6-18T63.9 0Q74.4 0 82 7.55t7.6 18.05v16.9q6.2.4 11.9 3.7 2.1-.3 4.3-.3 10.1 0 17.8 6 13.9-.1 21.95 8.5t8.05 22.7z"/></svg>