<svg xmlns="http://www.w3.org/2000/svg" width="204.8" height="179.2"><path d="M115.1 0q6.1 0 11.6 2.8t9.1 7.7L193 88.6q11.8 15.9 11.8 35.9V160q0 8-5.6 13.6t-13.6 5.6h-38.4q-8 0-13.6-5.6T128 160v-17.7L99.4 128H44.8q-8 0-13.6-5.6t-5.6-13.6v-3.2q0-11.9 8.45-20.35T54.4 76.8h42l4.2-12.8H32q-10 0-17.35-6.75T6.5 40.6Q0 32.7 0 22.4v-3.2q0-8 5.6-13.6T19.2 0h95.9zM192 160v-35.5q0-15.7-9.3-28.4L125.4 18q-3.9-5.2-10.3-5.2H19.2q-2.6 0-4.5 1.9t-1.9 4.5q0 3.2.15 4.95t.95 4.05 2.5 4.3q1-3.1 3.55-5t5.65-1.9h83.2v3.2H25.6q-2.6 0-4.5 1.9t-1.9 4.5q0 4.4.3 5.8.8 4.4 4.4 7.3t8.1 2.9h73.1q4 0 6.8 2.8t2.8 6.8q0 1.5-.5 3L107.8 83q-1 2.9-3.5 4.75t-5.6 1.85H54.4q-6.6 0-11.3 4.7t-4.7 11.3v3.2q0 2.6 1.9 4.5t4.5 1.9h56.1q1.6 0 2.9.7l31.7 15.8q2.4 1.3 3.85 3.6t1.45 5V160q0 2.6 1.9 4.5t4.5 1.9h38.4q2.6 0 4.5-1.9t1.9-4.5z"/></svg>