<svg xmlns="http://www.w3.org/2000/svg" version="1.1" width="153.6" height="179.2"><path d="M1288 889q60 0 107 -23q141 -63 141 -226v-177q0 -94 -23 -186l-85 -339q-21 -86 -90.5 -140t-157.5 -54h-668q-106 0 -181 75t-75 181v401l-239 628q-17 45 -17 91q0 106 75 181t181 75q80 0 145.5 -45.5t93.5 -119.5l17 -44v113q0 106 75 181t181 75t181 -75t75 -181 v-261q27 5 48 5q69 0 127.5 -36.5t88.5 -98.5zM1072 896q-33 0 -60.5 -18t-41.5 -48l-74 -163l-71 -155h55q50 0 90 -31.5t50 -80.5l154 338q10 20 10 46q0 46 -33 79t-79 33zM1293 761q-22 0 -40.5 -8t-29 -16t-23.5 -29.5t-17 -30.5t-17 -37l-132 -290q-10 -20 -10 -46 q0 -46 33 -79t79 -33q33 0 60.5 18t41.5 48l160 352q9 18 9 38q0 50 -32 81.5t-82 31.5zM128 1120q0 -22 8 -46l248 -650v-69l102 111q43 46 106 46h198l106 233v535q0 53 -37.5 90.5t-90.5 37.5t-90.5 -37.5t-37.5 -90.5v-640h-64l-200 526q-14 37 -47 59.5t-73 22.5 q-53 0 -90.5 -37.5t-37.5 -90.5zM1180 -128q44 0 78.5 27t45.5 70l85 339q19 73 19 155v91l-141 -310q-17 -38 -53 -61t-78 -23q-53 0 -93.5 34.5t-48.5 86.5q-44 -57 -114 -57h-208v32h208q46 0 81 33t35 79t-31 79t-77 33h-296q-49 0 -82 -36l-126 -136v-308 q0 -53 37.5 -90.5t90.5 -37.5h668z" transform="scale(0.1 -0.1) translate(0 -1536)" /></svg>
