<svg xmlns="http://www.w3.org/2000/svg" width="153.6" height="179.2"><path d="M76.8 38.4q-5.3 0-9.05 3.75T64 51.2V64h-3.2v-9.3q0-4.8-3.2-8.15t-8-3.35q-4.6 0-7.9 3.3t-3.3 7.9v42.9l-3.2-3V77.1q0-4.8-3.2-8.15t-8-3.35q-4.6 0-7.9 3.3t-3.3 7.9v22.4q0 4.7 3.5 8.2l31 29.6q3.9 3.9 3.9 10.2 0 2.6 1.9 4.5t4.5 1.9h64q2.6 0 4.5-1.9t1.9-4.5v-2.5q0-4.1 1-7.7l10.8-43.6q1-3.6 1-7.7V61.1q0-4.8-3.2-8.15t-8-3.35q-4.6 0-7.9 3.3t-3.3 7.9V64h-3.2V51.5q0-4-2.5-7.25t-6.4-4.05q-1.4-.2-2.3-.2-4.6 0-7.9 3.3t-3.3 7.9V64h-3.2V51.8q0-5.1-3.25-8.95T78.1 38.5q-.5-.1-1.3-.1zm0-12.8q8.4 0 14.9 5 5.7-3.4 12.3-3.4 5.9 0 11.1 2.7t8.6 7.6q2.7-.7 5.9-.7 10 0 17 7.15t7 17.15v24.6q0 5.1-1.3 10.8l-10.9 43.6q-.6 2.4-.6 7.1 0 8-5.6 13.6t-13.6 5.6h-64q-8.4 0-13.8-5.85t-5.4-14.25L7.6 116.7Q0 109.4 0 99.2V76.8q0-9.9 7.05-16.95T24 52.8q1.1 0 1.6.1.6-9.5 7.55-16t16.45-6.5q5.2 0 9.8 2.1 7.2-6.9 17.4-6.9z"/></svg>