<svg xmlns="http://www.w3.org/2000/svg" width="230.4" height="179.2"><path d="M19.2 115.2q4 0 5.6-3.2t0-6.4-5.6-3.2-5.6 3.2 0 6.4 5.6 3.2zm147.3-5.8-3.85-5q-2.85-3.7-4.15-5.4t-3.8-4.9-4.25-5.3-4.05-4.7-4.5-4.9l-12.5 14q-8.3 9.4-20.85 9.2T88 92.6q-5.7-6.9-5.65-15.8t5.85-15.7l17.7-20.6q-2.2-1.1-5.1-1.65t-4.75-.6-5.65.05-4.9.1q-9.2 0-15.8 6.6L53.9 60.8H38.4v54.4q.5 0 2.1-.05t2.2 0 1.95.2 2.05.45 1.75.85T50.3 118L80 147.2q11.5 11.1 22.7 11.1 7.8 0 12.5-4.7 5.7 2 11.25-.8t7.25-8.5q7.4.6 12.7-4.4 2-1.8 3.6-4.55t1.4-5.05q1 1 4.3 1 4.3 0 7.7-2.1t4.95-5.3 1.2-7.15-3.05-7.35zm15.9 5.8h9.6V64h-9.3L167 46q-6.6-7.6-16.9-7.6h-16.7q-8.9 0-14.6 6.7L97.9 69.4q-2.8 3.3-2.8 7.5t2.7 7.5q4.3 5.1 11 5.2t11.1-4.9l19.3-21.8q2.5-2.3 5.35-2.15t4.7 2.7.85 5.65q1.6 1.9 5.6 6.3t6 6.8q2.9 3.6 8.25 10.55t6.45 8.45q5.2 6.6 6 14zm28.8 0q4 0 5.6-3.2t0-6.4-5.6-3.2-5.6 3.2 0 6.4 5.6 3.2zm19.2-57.6v64q0 2.6-1.9 4.5T224 128h-43.4q-2.7 6.5-8.2 10.65t-12.5 5.15q-3.3 4.8-8.05 8.15t-10.25 4.55q-4.2 5.3-10.45 8.15t-12.85 2.45q-6 3.4-12.6 3.95t-12.75-1.4-11.7-5.35-10.35-8.1L42.2 128H6.4q-2.6 0-4.5-1.9T0 121.6V54.4q0-2.6 1.9-4.5T6.4 48h42.1q1.4-1.4 4.7-4.8t4.75-4.8 4.4-4 5.05-3.75 5.1-2.55 6.2-1.95 6.8-.55h11.7q9.9 0 18.1 5.6 8.2-5.6 18.1-5.6h16.7q3.5 0 6.7.6t5.65 1.45 5.15 2.65 4.45 3.1 4.3 3.95 3.9 4.2 4.1 4.8 4.15 4.85H224q2.6 0 4.5 1.9t1.9 4.5z"/></svg>