<svg xmlns="http://www.w3.org/2000/svg" width="204.8" height="179.2"><path d="M45.9 179.2q-7.7 0-13.75-4.75T24.2 162.2l-10.1-40.1q-1.3-5.7-1.3-10.8 0-4.5-.5-6.7L.7 56.9Q0 54.2 0 51.2q0-9.3 6.2-16.1t15.5-7.8q1.7-8.5 8.25-13.9T45.2 8q8.3 0 14.8 5.15t8.5 13.25l8.3 34.8 10.3-42.8q2-8.1 8.5-13.25T110.4 0q8.9 0 15.55 5.75T134 20.2q9.2 1 15.2 7.9t6 16.2q0 2.4-.7 5.9l-12.3 51.2q1-.7 3.75-2.85t3.85-2.95 3.5-2.3 4.1-2.05 4.15-1.1 4.95-.55q10.5 0 18 7.4t7.5 17.9q0 6.2-2.85 11.8t-7.85 9.4l-50.7 38q-6.8 5.1-15.3 5.1H45.9zm64.5-166.4q-3.8 0-6.85 2.4t-3.95 6.2L83.2 89.6H70.5L56 29.4q-.9-3.8-3.95-6.2t-6.85-2.4q-4.8 0-8 3.3t-3.2 8q0 1.5.3 2.8l13.2 54.7h-2.6L35 48.8q-.9-3.7-4-6.25T24.1 40q-4.7 0-8 3.3t-3.3 7.9q0 1.4.3 2.6l11.6 47.8q.7 2.8.9 8.6t1 8.8l10 40.1q.8 3.2 3.4 5.25t5.9 2.05h69.4q4.2 0 7.6-2.6l50.7-37.9q5.6-4.3 5.6-11 0-5.2-3.75-8.85t-8.95-3.65q-4.3 0-7.7 2.6l-30.7 23v-22.7q0-.4 3.2-13.8t6.8-28.2 3.9-16.1q.4-1.8.4-2.9 0-4.7-3.2-8.1t-7.9-3.4q-3.9 0-6.95 2.4t-3.95 6.2l-11.6 48.2h-2.6l15-62.4q.3-1.4.3-2.8 0-4.8-3.15-8.2t-7.95-3.4z"/></svg>