<svg xmlns="http://www.w3.org/2000/svg" version="1.1" width="179.2" height="179.2"><path d="M880 1408q-46 0 -79 -33t-33 -79v-656h-32v528q0 46 -33 79t-79 33t-79 -33t-33 -79v-528v-256l-154 205q-38 51 -102 51q-53 0 -90.5 -37.5t-37.5 -90.5q0 -43 26 -77l384 -512q38 -51 102 -51h688q34 0 61 22t34 56l76 405q5 32 5 59v498q0 46 -33 79t-79 33t-79 -33 t-33 -79v-272h-32v528q0 46 -33 79t-79 33t-79 -33t-33 -79v-528h-32v656q0 46 -33 79t-79 33zM880 1536q68 0 125.5 -35.5t88.5 -96.5q19 4 42 4q99 0 169.5 -70.5t70.5 -169.5v-17q105 6 180.5 -64t75.5 -175v-498q0 -40 -8 -83l-76 -404q-14 -79 -76.5 -131t-143.5 -52 h-688q-60 0 -114.5 27.5t-90.5 74.5l-384 512q-51 68 -51 154q0 106 75 181t181 75q78 0 128 -34v434q0 99 70.5 169.5t169.5 70.5q23 0 42 -4q31 61 88.5 96.5t125.5 35.5z" transform="scale(0.1 -0.1) translate(0 -1536)" /></svg>
