<svg xmlns="http://www.w3.org/2000/svg" width="179.2" height="179.2"><path d="M107.3 166.4H89.6q-16.3 0-22.6-14.1-2.3-4.9-2.3-10.2v-.5q-6.2-3-9.85-8.85T51.2 120q0-3.8.5-4.8H25.6q-10.6 0-18.1-7.5T0 89.6t7.5-18.1T25.6 64h11.3l-4.4-1.7q-7.4-2.8-11.95-9.35T16 38.4q0-10.6 7.5-18.1t18.1-7.5q4.6 0 9.1 1.7l62.8 23.9h40.1q10.6 0 18.1 7.5t7.5 18.1v66.8q0 8.8-5.4 15.75t-14 9.05l-33.9 8.5q-9.2 2.3-18.6 2.3zm-4.9-71.1-15.5 7.1-16.3 7.4q-3 1.4-4.8 4.15T64 120q0 4.6 3.3 7.9t7.9 3.3q2.6 0 4.6-1l33.8-15.4q-4.9-1-8.05-5t-3.15-9v-5.5zm32 31.1q0-4.6-3.3-7.9t-7.9-3.3q-2.6 0-4.6 1l-29 13.2q-2.8 1.3-3.7 1.7t-3.05 1.7-2.95 2.35-1.6 2.9-.8 4.05q0 5 3.15 8.2t8.15 3.2q2 0 3.8-.9l35.2-16q3-1.4 4.8-4.15t1.8-6.05zm-23.2-75.2-65-24.8q-2.4-.8-4.6-.8-5.3 0-9.05 3.75T28.8 38.4q0 4 2.25 7.3T37 50.4l52.6 20v6.4h-64q-5.3 0-9.05 3.75T12.8 89.6t3.75 9.05 9.05 3.75h53.5l23.3-10.6V72q0-6.3 4.6-10.6l11.1-10.2h-6.9zm-3.9 102.4q8.2 0 15.5-1.9l33.9-8.5q4.3-1.1 7-4.55t2.7-7.85V64q0-5.3-3.75-9.05t-9.05-3.75h-30.8l-13.6 12.6q-3.6 3.3-3.6 8.2v29.6q0 4.6 3.3 7.7t7.9 3.1 7.9-3.5 3.3-8.1V80h3.2v20.8q0 7-5.7 11.4 5.2.8 8.65 4.85t3.45 9.35q0 4.2-2.3 7.8t-6.1 5.3l-31 14.1h9.1z"/></svg>