<svg xmlns="http://www.w3.org/2000/svg" version="1.1" width="179.2" height="179.2"><path d="M640 1408q-53 0 -90.5 -37.5t-37.5 -90.5v-512v-384l-151 202q-41 54 -107 54q-52 0 -89 -38t-37 -90q0 -43 26 -77l384 -512q38 -51 102 -51h718q22 0 39.5 13.5t22.5 34.5l92 368q24 96 24 194v217q0 41 -28 71t-68 30t-68 -28t-28 -68h-32v61q0 48 -32 81.5t-80 33.5 q-46 0 -79 -33t-33 -79v-64h-32v90q0 55 -37 94.5t-91 39.5q-53 0 -90.5 -37.5t-37.5 -90.5v-96h-32v570q0 55 -37 94.5t-91 39.5zM640 1536q107 0 181.5 -77.5t74.5 -184.5v-220q22 2 32 2q99 0 173 -69q47 21 99 21q113 0 184 -87q27 7 56 7q94 0 159 -67.5t65 -161.5 v-217q0 -116 -28 -225l-92 -368q-16 -64 -68 -104.5t-118 -40.5h-718q-60 0 -114.5 27.5t-90.5 74.5l-384 512q-51 68 -51 154q0 105 74.5 180.5t179.5 75.5q71 0 130 -35v547q0 106 75 181t181 75zM768 128v384h-32v-384h32zM1024 128v384h-32v-384h32zM1280 128v384h-32 v-384h32z" transform="scale(0.1 -0.1) translate(0 -1536)" /></svg>
