<svg xmlns="http://www.w3.org/2000/svg" width="153.6" height="179.2"><path d="M140.8 96q0-8.4-3.2-18.3t-6.4-19.4-3.2-16.7v-3.2H64v3.2q0 3.5-1.2 6.75t-3.7 6.25-4.6 5-5.4 4.9q-.9.8-1.4 1.2-8.1 7.2-14.5 11.2-2.2 1.4-6.8 3.8-.3.1-2.25 1.05t-3.6 1.85-3.55 2-3.05 2.15-1.15 1.85q0 7.1 3.05 11.55t9.75 4.45q4.3 0 8.45-1.5t6.8-3.3 5.5-3.3T51.2 96v57.6q0 5 3.85 8.9t8.95 3.9q5.2 0 9-3.8t3.8-9v-33.1q4.6 3.5 10.3 3.5 6.9 0 11.9-5.3 3.2 1.8 6.9 1.8t7.35-1.75 5.25-4.75q2.4.4 5.6.4 8.5 0 12.6-4.85T140.8 96zM128 19.2q0-2.6-1.9-4.5t-4.5-1.9-4.5 1.9-1.9 4.5 1.9 4.5 4.5 1.9 4.5-1.9 1.9-4.5zm25.6 76.4q0 14.2-7.75 23t-21.75 8.7l-.5-.1q-7.6 6.1-17.8 6.1-2.2 0-4.3-.3-5.4 3-11.9 3.7v16.9q0 10.5-7.6 18.05t-18.1 7.55q-10.3 0-17.9-7.6t-7.6-18v-37.4q-5.4 2.2-12.8 2.2-12.1 0-18.85-8.15T0 89.6q0-3.8 1.75-6.95t4.95-5.5T13 73.1t7.2-3.7 6.2-3.3q5.5-3.5 12.9-10 .3-.2 1.7-1.4t2.15-1.9 2.15-2.05 2.25-2.4 1.8-2.25 1.4-2.35.45-2.15V12.8q0-5.3 3.75-9.05T64 0h64q5.3 0 9.05 3.75t3.75 9.05v28.8q0 5.9 5.9 22.3 6.9 19 6.9 31.7z"/></svg>