<svg xmlns="http://www.w3.org/2000/svg" width="153.6" height="179.2"><path d="M104 121.6q0 3.3-2.35 5.65T96 129.6t-5.65-2.35T88 121.6t2.35-5.65T96 113.6t5.65 2.35 2.35 5.65zm25.6 0q0 3.3-2.35 5.65t-5.65 2.35-5.65-2.35-2.35-5.65 2.35-5.65 5.65-2.35 5.65 2.35 2.35 5.65zm11.2 16v-32q0-1.3-.95-2.25t-2.25-.95H16q-1.3 0-2.25.95t-.95 2.25v32q0 1.3.95 2.25t2.25.95h121.6q1.3 0 2.25-.95t.95-2.25zm-123-48h118l-15.7-48.2q-.4-1.3-1.6-2.15t-2.6-.85H37.7q-1.4 0-2.6.85t-1.6 2.15zm135.8 16v32q0 6.6-4.7 11.3t-11.3 4.7H16q-6.6 0-11.3-4.7T0 137.6v-32q0-2.5 1.6-7.5l19.7-60.6q1.7-5.3 6.3-8.6t10.1-3.3h78.2q5.5 0 10.1 3.3t6.3 8.6L152 98.1q1.6 5 1.6 7.5z"/></svg>