<svg xmlns="http://www.w3.org/2000/svg" width="166.4" height="179.2"><path d="M166.4 88.6q0 16.6-6 31.4l-2 4.9-18.5 3.3q-2.2 8.3-9.05 13.65t-15.65 5.35v3.2q0 1.4-.9 2.3t-2.3.9h-6.4q-1.4 0-2.3-.9t-.9-2.3V92.8q0-1.4.9-2.3t2.3-.9h6.4q1.4 0 2.3.9t.9 2.3V96q7.1 0 13 3.55t9.3 9.55l6.8-1.2q2.9-9.5 2.9-19.3 0-14.8-8.8-27.9t-23.65-20.9T83.2 32t-31.55 7.8T28 60.7t-8.8 27.9q0 9.8 2.9 19.3l6.8 1.2q3.4-6 9.3-9.55t13-3.55v-3.2q0-1.4.9-2.3t2.3-.9h6.4q1.4 0 2.3.9t.9 2.3v57.6q0 1.4-.9 2.3t-2.3.9h-6.4q-1.4 0-2.3-.9t-.9-2.3v-3.2q-8.8 0-15.65-5.35T26.5 128.2L8 124.9 6 120q-6-14.8-6-31.4 0-15.1 6.7-29.1t17.9-24.25T51.2 18.9t32-6.1 32 6.1 26.6 16.35 17.9 24.25 6.7 29.1z"/></svg>