<svg xmlns="http://www.w3.org/2000/svg" width="179.2" height="179.2"><path d="M168.2 166.4q-4.4 0-13.25-.35t-13.35-.35q-4.4 0-13.2.35t-13.2.35q-2.4 0-3.7-2.05t-1.3-4.55q0-3.1 1.7-4.6t3.9-1.7 5.1-.7 4.5-1.5q3.3-2.1 3.3-14l-.1-39.1q0-2.1-.1-3.1-1.3-.4-5-.4H56q-3.8 0-5.1.4-.1 1-.1 3.1l-.1 37.1q0 14.2 3.7 16.4 1.6 1 4.8 1.3t5.7.35 4.5 1.5 2 4.55q0 2.6-1.25 4.8t-3.65 2.2q-4.7 0-13.95-.35t-13.85-.35q-4.3 0-12.8.35t-12.7.35q-2.3 0-3.55-2.1t-1.25-4.5q0-3 1.55-4.5t3.6-1.75 4.75-.75 4.2-1.5q3.3-2.3 3.3-14.3l-.1-5.7V50q0-.3.05-2.6t0-3.65-.15-3.85-.35-4.2-.65-3.65-1.1-3.15-1.6-1.8q-1.5-1-4.5-1.2t-5.3-.2T8 24.3t-1.8-4.5q0-2.6 1.2-4.8t3.6-2.2q4.6 0 13.85.35t13.85.35q4.2 0 12.65-.35T64 12.8q2.5 0 3.75 2.2T69 19.8q0 3-1.7 4.35t-3.85 1.45-4.95.4-4.3 1.3q-3.5 2.1-3.5 16l.1 32q0 2.1.1 3.2 1.3.3 3.9.3h69.9q2.5 0 3.8-.3.1-1.1.1-3.2l.1-32q0-13.9-3.5-16-1.8-1.1-5.85-1.25t-6.6-1.3-2.55-4.95q0-2.6 1.25-4.8t3.75-2.2q4.4 0 13.2.35t13.2.35q4.3 0 12.9-.35t12.9-.35q2.5 0 3.75 2.2t1.25 4.8q0 3-1.75 4.4t-4 1.45-5.15.3-4.4 1.25q-3.5 2.3-3.5 16.1l.1 94.3q0 11.9 3.4 14 1.6 1 4.6 1.35t5.35.45 4.15 1.55 1.8 4.45q0 2.6-1.2 4.8t-3.6 2.2z"/></svg>