<svg xmlns="http://www.w3.org/2000/svg" width="140.8" height="179.2"><path d="M38.4 131.2v6.4q0 1.3-.95 2.25t-2.25.95h-6.4q-1.3 0-2.25-.95t-.95-2.25v-6.4q0-1.3.95-2.25t2.25-.95h6.4q1.3 0 2.25.95t.95 2.25zm0-25.6v6.4q0 1.3-.95 2.25t-2.25.95h-6.4q-1.3 0-2.25-.95T25.6 112v-6.4q0-1.3.95-2.25t2.25-.95h6.4q1.3 0 2.25.95t.95 2.25zm25.6 0v6.4q0 1.3-.95 2.25t-2.25.95h-6.4q-1.3 0-2.25-.95T51.2 112v-6.4q0-1.3.95-2.25t2.25-.95h6.4q1.3 0 2.25.95t.95 2.25zM38.4 80v6.4q0 1.3-.95 2.25t-2.25.95h-6.4q-1.3 0-2.25-.95t-.95-2.25V80q0-1.3.95-2.25t2.25-.95h6.4q1.3 0 2.25.95T38.4 80zm76.8 51.2v6.4q0 1.3-.95 2.25t-2.25.95h-6.4q-1.3 0-2.25-.95t-.95-2.25v-6.4q0-1.3.95-2.25t2.25-.95h6.4q1.3 0 2.25.95t.95 2.25zm-25.6-25.6v6.4q0 1.3-.95 2.25t-2.25.95H80q-1.3 0-2.25-.95T76.8 112v-6.4q0-1.3.95-2.25t2.25-.95h6.4q1.3 0 2.25.95t.95 2.25zM64 80v6.4q0 1.3-.95 2.25t-2.25.95h-6.4q-1.3 0-2.25-.95t-.95-2.25V80q0-1.3.95-2.25t2.25-.95h6.4q1.3 0 2.25.95T64 80zm51.2 25.6v6.4q0 1.3-.95 2.25t-2.25.95h-6.4q-1.3 0-2.25-.95t-.95-2.25v-6.4q0-1.3.95-2.25t2.25-.95h6.4q1.3 0 2.25.95t.95 2.25zM89.6 80v6.4q0 1.3-.95 2.25t-2.25.95H80q-1.3 0-2.25-.95t-.95-2.25V80q0-1.3.95-2.25T80 76.8h6.4q1.3 0 2.25.95T89.6 80zm25.6 0v6.4q0 1.3-.95 2.25t-2.25.95h-6.4q-1.3 0-2.25-.95t-.95-2.25V80q0-1.3.95-2.25t2.25-.95h6.4q1.3 0 2.25.95t.95 2.25zm-25.6 86.4H128V51.2h-25.6v3.2q0 4-2.8 6.8T92.8 64H48q-4 0-6.8-2.8t-2.8-6.8v-3.2H12.8v115.2h38.4V144q0-1.3.95-2.25t2.25-.95h32q1.3 0 2.25.95t.95 2.25v22.4zm0-118.4V16q0-1.3-.95-2.25t-2.25-.95H80q-1.3 0-2.25.95T76.8 16v9.6H64V16q0-1.3-.95-2.25t-2.25-.95h-6.4q-1.3 0-2.25.95T51.2 16v32q0 1.3.95 2.25t2.25.95h6.4q1.3 0 2.25-.95T64 48v-9.6h12.8V48q0 1.3.95 2.25t2.25.95h6.4q1.3 0 2.25-.95T89.6 48zm51.2-3.2v128q0 2.6-1.9 4.5t-4.5 1.9H6.4q-2.6 0-4.5-1.9T0 172.8v-128q0-2.6 1.9-4.5t4.5-1.9h32V9.6q0-4 2.8-6.8T48 0h44.8q4 0 6.8 2.8t2.8 6.8v28.8h32q2.6 0 4.5 1.9t1.9 4.5z"/></svg>