<svg xmlns="http://www.w3.org/2000/svg" version="1.1" width="153.6" height="179.2"><path d="M1504 -64q14 0 23 -9t9 -23v-128q0 -14 -9 -23t-23 -9h-1472q-14 0 -23 9t-9 23v128q0 14 9 23t23 9h1472zM130 0q3 55 16 107t30 95t46 87t53.5 76t64.5 69.5t66 60t70.5 55t66.5 47.5t65 43q-43 28 -65 43t-66.5 47.5t-70.5 55t-66 60t-64.5 69.5t-53.5 76t-46 87 t-30 95t-16 107h1276q-3 -55 -16 -107t-30 -95t-46 -87t-53.5 -76t-64.5 -69.5t-66 -60t-70.5 -55t-66.5 -47.5t-65 -43q43 -28 65 -43t66.5 -47.5t70.5 -55t66 -60t64.5 -69.5t53.5 -76t46 -87t30 -95t16 -107h-1276zM1504 1536q14 0 23 -9t9 -23v-128q0 -14 -9 -23t-23 -9 h-1472q-14 0 -23 9t-9 23v128q0 14 9 23t23 9h1472z" transform="scale(0.1 -0.1) translate(0 -1536)" /></svg>
