<svg xmlns="http://www.w3.org/2000/svg" width="153.6" height="179.2"><path d="M140.8 12.8q0 26.1-10.65 46.15T103.5 89.6q16 10.6 26.65 30.65t10.65 46.15h9.6q1.4 0 2.3.9t.9 2.3v6.4q0 1.4-.9 2.3t-2.3.9H3.2q-1.4 0-2.3-.9T0 176v-6.4q0-1.4.9-2.3t2.3-.9h9.6q0-26.1 10.65-46.15T50.1 89.6Q34.1 79 23.45 58.95T12.8 12.8H3.2q-1.4 0-2.3-.9T0 9.6V3.2Q0 1.8.9.9T3.2 0h147.2q1.4 0 2.3.9t.9 2.3v6.4q0 1.4-.9 2.3t-2.3.9h-9.6zm-12.8 0H25.6q0 20.6 8.5 38.4h85.4q8.5-17.8 8.5-38.4zm-5.7 121.6q-5.4-14.1-14.55-24.15T88.3 96h-23q-10.3 4.2-19.45 14.25T31.3 134.4h91z"/></svg>