<svg xmlns="http://www.w3.org/2000/svg" version="1.1" width="153.6" height="179.2"><path d="M1408 1408q0 -261 -106.5 -461.5t-266.5 -306.5q160 -106 266.5 -306.5t106.5 -461.5h96q14 0 23 -9t9 -23v-64q0 -14 -9 -23t-23 -9h-1472q-14 0 -23 9t-9 23v64q0 14 9 23t23 9h96q0 261 106.5 461.5t266.5 306.5q-160 106 -266.5 306.5t-106.5 461.5h-96q-14 0 -23 9 t-9 23v64q0 14 9 23t23 9h1472q14 0 23 -9t9 -23v-64q0 -14 -9 -23t-23 -9h-96zM1280 1408h-1024q0 -206 85 -384h854q85 178 85 384zM1223 192q-54 141 -145.5 241.5t-194.5 142.5h-230q-103 -42 -194.5 -142.5t-145.5 -241.5h910z" transform="scale(0.1 -0.1) translate(0 -1536)" /></svg>
