<svg xmlns="http://www.w3.org/2000/svg" version="1.1" width="153.6" height="179.2"><path d="M992 912v-496q0 -14 -9 -23t-23 -9h-160q-14 0 -23 9t-9 23v496q0 112 -80 192t-192 80h-272v-1152q0 -14 -9 -23t-23 -9h-160q-14 0 -23 9t-9 23v1344q0 14 9 23t23 9h464q135 0 249 -66.5t180.5 -180.5t66.5 -249zM1376 1376v-880q0 -135 -66.5 -249t-180.5 -180.5 t-249 -66.5h-464q-14 0 -23 9t-9 23v960q0 14 9 23t23 9h160q14 0 23 -9t9 -23v-768h272q112 0 192 80t80 192v880q0 14 9 23t23 9h160q14 0 23 -9t9 -23z" transform="scale(0.1 -0.1) translate(0 -1536)" /></svg>
