<svg xmlns="http://www.w3.org/2000/svg" width="179.2" height="179.2"><path d="M35.2 83.2q0 1.4-.9 2.3L5.5 114.3q-.9.9-2.3.9-1.3 0-2.25-.95T0 112V54.4q0-1.3.95-2.25t2.25-.95q1.4 0 2.3.9l28.8 28.8q.9.9.9 2.3zm144 48v19.2q0 1.3-.95 2.25t-2.25.95H3.2q-1.3 0-2.25-.95T0 150.4v-19.2q0-1.3.95-2.25T3.2 128H176q1.3 0 2.25.95t.95 2.25zm0-38.4V112q0 1.3-.95 2.25t-2.25.95H67.2q-1.3 0-2.25-.95T64 112V92.8q0-1.3.95-2.25t2.25-.95H176q1.3 0 2.25.95t.95 2.25zm0-38.4v19.2q0 1.3-.95 2.25t-2.25.95H67.2q-1.3 0-2.25-.95T64 73.6V54.4q0-1.3.95-2.25t2.25-.95H176q1.3 0 2.25.95t.95 2.25zm0-38.4v19.2q0 1.3-.95 2.25t-2.25.95H3.2q-1.3 0-2.25-.95T0 35.2V16q0-1.3.95-2.25t2.25-.95H176q1.3 0 2.25.95t.95 2.25z"/></svg>