<svg xmlns="http://www.w3.org/2000/svg" width="89.8" height="179.2"><path d="M89.8 47v10.2q0 1.4-.9 2.3t-2.3.9H69.8q-2.3 14.4-12.9 23.4t-27.6 11q16.7 17.8 45.9 53.6 1.4 1.6.4 3.4-.8 1.8-2.9 1.8H53.2q-1.6 0-2.5-1.2Q20.1 115.7.9 95.3q-.9-.9-.9-2.2V80.4q0-1.3.95-2.25t2.25-.95h11.2q13.2 0 21.25-4.3T45.9 60.4H3.2q-1.4 0-2.3-.9T0 57.2V47q0-1.4.9-2.3t2.3-.9h41.3q-5.7-11.3-26.8-11.3H3.2q-1.3 0-2.25-.95T0 29.3V16q0-1.4.9-2.3t2.3-.9h83.2q1.4 0 2.3.9t.9 2.3v10.2q0 1.4-.9 2.3t-2.3.9H63.1q4.7 6.1 6.4 14.4h17.1q1.4 0 2.3.9t.9 2.3z"/></svg>