<svg xmlns="http://www.w3.org/2000/svg" width="153.6" height="179.2"><path d="M102.4 89.6q0-10.6-7.5-18.1T76.8 64t-18.1 7.5-7.5 18.1 7.5 18.1 18.1 7.5 18.1-7.5 7.5-18.1zm13.8 0q0 16.4-11.5 27.9T76.8 129t-27.9-11.5-11.5-27.9 11.5-27.9 27.9-11.5 27.9 11.5 11.5 27.9zm10.8-41q0 3.8-2.7 6.5t-6.5 2.7-6.5-2.7-2.7-6.5 2.7-6.5 6.5-2.7 6.5 2.7 2.7 6.5zm-50.2-22q-.7 0-7.65-.05t-10.55 0-9.65.3-10.3 1-7.15 1.85q-5 2-8.8 5.8t-5.8 8.8q-1.1 2.9-1.85 7.15t-1 10.3-.3 9.65 0 10.55.05 7.65-.05 7.65 0 10.55.3 9.65 1 10.3 1.85 7.15q2 5 5.8 8.8t8.8 5.8q2.9 1.1 7.15 1.85t10.3 1 9.65.3 10.55 0 7.65-.05 7.65.05 10.55 0 9.65-.3 10.3-1 7.15-1.85q5-2 8.8-5.8t5.8-8.8q1.1-2.9 1.85-7.15t1-10.3.3-9.65 0-10.55-.05-7.65.05-7.65 0-10.55-.3-9.65-1-10.3-1.85-7.15q-2-5-5.8-8.8t-8.8-5.8q-2.9-1.1-7.15-1.85t-10.3-1-9.65-.3-10.55 0-7.65.05zm76.8 63q0 22.9-.5 31.7-1 20.8-12.4 32.2t-32.2 12.4q-8.8.5-31.7.5t-31.7-.5q-20.8-1-32.2-12.4T.5 121.3Q0 112.5 0 89.6t.5-31.7q1-20.8 12.4-32.2t32.2-12.4q8.8-.5 31.7-.5t31.7.5q20.8 1 32.2 12.4t12.4 32.2q.5 8.8.5 31.7z"/></svg>