<svg xmlns="http://www.w3.org/2000/svg" width="204.8" height="179.2"><path d="M146.3 83.2q0 3.5-2.5 6.05t-6.1 2.55H67.5q-3.6 0-6.1-2.55t-2.5-6.05 2.5-6.05 6.1-2.55h70.2q3.6 0 6.1 2.55t2.5 6.05zm21.4 0q0-8.6-2.3-17H67.2q-3.6 0-6.1-2.5t-2.5-6q0-3.6 2.5-6.1t6.1-2.5H158q-8.8-14.3-23.5-22.7t-32-8.4q-17.7 0-32.75 8.75T45.95 50.5 37.2 83.2q0 8.6 2.3 17h98.2q3.6 0 6.1 2.5t2.5 6q0 3.6-2.5 6.1t-6.1 2.5H46.9q8.8 14.3 23.55 22.7t32.05 8.4q13.2 0 25.3-5.15t20.8-13.9 13.9-20.8 5.2-25.35zm37.1-25.5q0 3.5-2.5 6t-6.1 2.5h-13.1q1.7 8.5 1.7 17 0 16.7-6.55 31.95t-17.55 26.3-26.25 17.6-31.95 6.55q-24.6 0-44.85-13.3t-30.15-35H8.6q-3.6 0-6.1-2.5T0 108.7q0-3.5 2.5-6t6.1-2.5h13.2q-1.7-8.5-1.7-17 0-16.7 6.55-31.95t17.55-26.3 26.25-17.6T102.5.8q24.5 0 44.75 13.3t30.15 35h18.8q3.6 0 6.1 2.5t2.5 6.1z"/></svg>