<svg xmlns="http://www.w3.org/2000/svg" version="1.1" width="102.4" height="179.2"><path d="M0 -126l17 85q22 7 61.5 16.5t72 19t59.5 23.5q28 35 41 101q1 7 62 289t114 543.5t52 296.5v25q-24 13 -54.5 18.5t-69.5 8t-58 5.5l19 103q33 -2 120 -6.5t149.5 -7t120.5 -2.5q48 0 98.5 2.5t121 7t98.5 6.5q-5 -39 -19 -89q-30 -10 -101.5 -28.5t-108.5 -33.5 q-8 -19 -14 -42.5t-9 -40t-7.5 -45.5t-6.5 -42q-27 -148 -87.5 -419.5t-77.5 -355.5q-2 -9 -13 -58t-20 -90t-16 -83.5t-6 -57.5l1 -18q17 -4 185 -31q-3 -44 -16 -99q-11 0 -32.5 -1.5t-32.5 -1.5q-29 0 -87 10t-86 10q-138 2 -206 2q-51 0 -143 -9t-121 -11z" transform="scale(0.1 -0.1) translate(0 -1536)" /></svg>
