<svg xmlns="http://www.w3.org/2000/svg" width="153.6" height="179.2"><path d="m107 107.3-16 16-15.1 15.2-3 3q-6.5 6.4-15.15 8.7t-17.15.2q-1.6 7-7.2 11.5t-12.9 4.5q-8.5 0-14.5-6.05T0 145.8q0-7.2 4.45-12.8t11.35-7.2q-2.2-8.6.1-17.3t8.8-15.2l1.2-1.2L41 107.3l-1.1 1.1q-3.7 3.7-3.7 8.9t3.7 9q3.7 3.7 8.9 3.7t8.9-3.7l3-3 15.1-15.2 16.1-16zM72.9 39.1l1.2 1.2-15.2 15.2-1.2-1.2q-3.7-3.7-8.9-3.7t-8.9 3.7-3.7 8.95 3.7 8.95l2.9 2.9L58 90.3l16 16-15.1 15.2-16.1-16-15.1-15.2-3-3q-6.8-6.7-9-15.95t.5-17.95q-7-1.5-11.5-7.1T.2 33.4q0-8.5 6-14.55t14.5-6.05q7.6 0 13.35 4.9T41 30q8.4-2 16.95.35T72.9 39.1zm80.7 106.7q0 8.5-6 14.55t-14.5 6.05q-7.4 0-13.1-4.7t-7.1-11.8q-8.6 2.8-17.95.6t-16.15-9l-1.1-1.2 15.1-15.2 1.2 1.2q3.7 3.7 8.9 3.7t8.9-3.7 3.7-8.9-3.7-8.9l-3-3-15.2-15.2-16-16 15.2-15.2 16 16L124 90.3l2.9 3q6.4 6.4 8.75 15.05t.25 17.15q7.6 1.1 12.65 6.85t5.05 13.45zm-.2-112.4q0 7.7-5.1 13.5t-12.7 6.9q2.6 8.5.3 17.65t-9 15.85l-1.2 1.2-15.1-15.2 1.2-1.2q3.7-3.7 3.7-8.9t-3.7-8.9-8.9-3.7-8.9 3.7l-3 3-15.2 15.2-16 16-15.2-15.2 16.1-16 15.2-15.2 2.9-3q6.7-6.7 15.9-8.95t17.8.35q1.1-7.5 6.85-12.6t13.55-5.1q8.5 0 14.5 6.05t6 14.55z"/></svg>