<svg xmlns="http://www.w3.org/2000/svg" version="1.1" width="153.6" height="179.2"><path d="M1070 463l-160 -160l-151 -152l-30 -30q-65 -64 -151.5 -87t-171.5 -2q-16 -70 -72 -115t-129 -45q-85 0 -145 60.5t-60 145.5q0 72 44.5 128t113.5 72q-22 86 1 173t88 152l12 12l151 -152l-11 -11q-37 -37 -37 -89t37 -90q37 -37 89 -37t89 37l30 30l151 152l161 160z M729 1145l12 -12l-152 -152l-12 12q-37 37 -89 37t-89 -37t-37 -89.5t37 -89.5l29 -29l152 -152l160 -160l-151 -152l-161 160l-151 152l-30 30q-68 67 -90 159.5t5 179.5q-70 15 -115 71t-45 129q0 85 60 145.5t145 60.5q76 0 133.5 -49t69.5 -123q84 20 169.5 -3.5 t149.5 -87.5zM1536 78q0 -85 -60 -145.5t-145 -60.5q-74 0 -131 47t-71 118q-86 -28 -179.5 -6t-161.5 90l-11 12l151 152l12 -12q37 -37 89 -37t89 37t37 89t-37 89l-30 30l-152 152l-160 160l152 152l160 -160l152 -152l29 -30q64 -64 87.5 -150.5t2.5 -171.5 q76 -11 126.5 -68.5t50.5 -134.5zM1534 1202q0 -77 -51 -135t-127 -69q26 -85 3 -176.5t-90 -158.5l-12 -12l-151 152l12 12q37 37 37 89t-37 89t-89 37t-89 -37l-30 -30l-152 -152l-160 -160l-152 152l161 160l152 152l29 30q67 67 159 89.5t178 -3.5q11 75 68.5 126 t135.5 51q85 0 145 -60.5t60 -145.5z" transform="scale(0.1 -0.1) translate(0 -1536)" /></svg>
