<svg xmlns="http://www.w3.org/2000/svg" width="192" height="179.2"><path d="M38.4 116.8v9.6q0 1.6-1.6 1.6h-9.6q-1.6 0-1.6-1.6v-9.6q0-1.6 1.6-1.6h9.6q1.6 0 1.6 1.6zm12.8-25.6v9.6q0 1.6-1.6 1.6H27.2q-1.6 0-1.6-1.6v-9.6q0-1.6 1.6-1.6h22.4q1.6 0 1.6 1.6zM38.4 65.6v9.6q0 1.6-1.6 1.6h-9.6q-1.6 0-1.6-1.6v-9.6q0-1.6 1.6-1.6h9.6q1.6 0 1.6 1.6zm102.4 51.2v9.6q0 1.6-1.6 1.6H52.8q-1.6 0-1.6-1.6v-9.6q0-1.6 1.6-1.6h86.4q1.6 0 1.6 1.6zm-64-25.6v9.6q0 1.6-1.6 1.6h-9.6q-1.6 0-1.6-1.6v-9.6q0-1.6 1.6-1.6h9.6q1.6 0 1.6 1.6zM64 65.6v9.6q0 1.6-1.6 1.6h-9.6q-1.6 0-1.6-1.6v-9.6q0-1.6 1.6-1.6h9.6q1.6 0 1.6 1.6zm38.4 25.6v9.6q0 1.6-1.6 1.6h-9.6q-1.6 0-1.6-1.6v-9.6q0-1.6 1.6-1.6h9.6q1.6 0 1.6 1.6zM89.6 65.6v9.6q0 1.6-1.6 1.6h-9.6q-1.6 0-1.6-1.6v-9.6q0-1.6 1.6-1.6H88q1.6 0 1.6 1.6zM128 91.2v9.6q0 1.6-1.6 1.6h-9.6q-1.6 0-1.6-1.6v-9.6q0-1.6 1.6-1.6h9.6q1.6 0 1.6 1.6zm38.4 25.6v9.6q0 1.6-1.6 1.6h-9.6q-1.6 0-1.6-1.6v-9.6q0-1.6 1.6-1.6h9.6q1.6 0 1.6 1.6zm-51.2-51.2v9.6q0 1.6-1.6 1.6H104q-1.6 0-1.6-1.6v-9.6q0-1.6 1.6-1.6h9.6q1.6 0 1.6 1.6zm25.6 0v9.6q0 1.6-1.6 1.6h-9.6q-1.6 0-1.6-1.6v-9.6q0-1.6 1.6-1.6h9.6q1.6 0 1.6 1.6zm25.6 0v35.2q0 1.6-1.6 1.6h-22.4q-1.6 0-1.6-1.6v-9.6q0-1.6 1.6-1.6h11.2v-24q0-1.6 1.6-1.6h9.6q1.6 0 1.6 1.6zm12.8 75.2V51.2H12.8v89.6h166.4zM192 51.2v89.6q0 5.3-3.75 9.05t-9.05 3.75H12.8q-5.3 0-9.05-3.75T0 140.8V51.2q0-5.3 3.75-9.05t9.05-3.75h166.4q5.3 0 9.05 3.75T192 51.2z"/></svg>