<svg xmlns="http://www.w3.org/2000/svg" width="179.2" height="179.2"><path d="m51.4 119.5 8.1-29.9H43.6l7.5 30q.1.1.1.3t.1.3q0-.1.05-.35t.05-.35zM63 76.8 66.5 64H37.3l3.2 12.8H63zm19.2 0h13.9L92.6 64h-7zm44.9 42.8 7.8-30h-16.2l8.1 29.9q0 .1.05.35t.15.35q0-.1.05-.3t.05-.3zm11.1-42.8 3.3-12.8h-29.7l3.4 12.8h23zm41 3.2v6.4q0 1.4-.9 2.3t-2.3.9h-21.3l-16.4 61.6q-.7 2.4-3.1 2.4h-15.9q-2.4 0-3.1-2.4L99.6 89.6H78.7L62 151.2q-.7 2.4-3.1 2.4H43q-1.1 0-1.95-.7T40 151.2L24 89.6H3.2q-1.4 0-2.3-.9T0 86.4V80q0-1.4.9-2.3t2.3-.9h17.5L17.4 64H3.2q-1.4 0-2.3-.9T0 60.8v-6.4q0-1.4.9-2.3t2.3-.9h10.9L5.2 16.8q-.5-1.5.5-2.8 1-1.2 2.6-1.2H22q2.6 0 3.1 2.4l9 36H70l9.7-36q.7-2.4 3.1-2.4h12.6q2.4 0 3.1 2.4l9.8 36h36.5l9.3-36q.5-2.4 3.1-2.4h13.7q1.6 0 2.6 1.2 1 1.3.5 2.8l-9.1 34.4H176q1.4 0 2.3.9t.9 2.3v6.4q0 1.4-.9 2.3t-2.3.9h-14.5l-3.4 12.8H176q1.4 0 2.3.9t.9 2.3z"/></svg>