<svg xmlns="http://www.w3.org/2000/svg" width="153.6" height="179.2"><path d="M65.4 107.8q-.1.3-1.25-.05T61 106.6l-2-.9q-4.4-2-8.7-4.9-.7-.5-4.1-3.15t-3.8-2.85q-6.7 10.3-13.4 18.1-8.1 9.5-10.5 11-.4.2-1.95.4t-1.85 0q.6-.4 8.2-9.2 2.1-2.4 8.55-11.5t7.85-11.8q1.7-3 5.1-9.85T48 74.2q-.8-.1-11 3.3-.8.2-2.75.75t-3.45.95-1.7.5q-.2.2-.2 1.05t-.1.95q-.5 1-3.1 1.5-2.3.7-4.7 0-1.8-.4-2.8-2.1-.4-.6-.5-2.3.6-.2 2.45-.5t2.95-.6q5.8-1.6 10.5-3.2 10-3.5 10.2-3.5 1-.2 4.3-1.95t4.4-2.15q.9-.3 2.15-.8t1.45-.55.6.05q.2 1.2-.1 3.3 0 .2-1.25 2.7t-2.65 5.35T51 80.3q-2.5 5-7.7 13.1l6.4 2.8q1.2.6 7.45 3.2t6.75 2.8q.4.1 1.05 2.55t.45 3.05zM44.9 59.2q.3 1.5-.4 2.8-1.2 2.3-5 3.8-3 1.2-6 1.2-2.6-.3-4.9-2.6-1.4-1.5-1.8-4.1l.1-.3q.3.3 1.95.5t2.65 0 5.8-1.6q3.6-1.2 5.5-1.4 1.7 0 2.1 1.7zm69.8 12.9 6.3 22.7-13.9-4.2zm-110.8 80 69.4-23.2V25.7L3.9 49v103.1zM128 120.4l10.2 3.1-18.1-65.7-10-3.1-21.6 53.6 10.2 3.1 4.5-11 21.1 6.5zM77.7 24.2 135 42.6v-38zm31.1 132.3 15.8 1.3-5.4 16-4-6.6q-13 8.3-27.6 10.8-5.8 1.2-9.1 1.2h-8.4q-7.9 0-19.95-3.9t-18.35-8.5q-.8-.7-.8-1.6 0-.8.5-1.35t1.3-.55q.4 0 1.8.75t3.05 1.65 2.05 1.1q7.3 3.7 15.95 6.15t15.75 2.45q9.5 0 16.7-1.45t15.7-5.05q1.5-.7 3.05-1.55t3.4-1.9 2.85-1.65zm44.8-107.9v107.9l-77.4-24.6q-1.4.6-37.5 12.75T1.9 156.8q-1.3 0-1.8-1.3 0-.1-.1-.3V47.4q.3-.9.4-1 .5-.6 2-1.1 10.7-3.6 14.9-5V1.9l55.8 19.8q.2 0 16.05-5.5t31.6-10.85T136.9 0q2 0 2 2.1v41.8z"/></svg>