<svg xmlns="http://www.w3.org/2000/svg" width="153.6" height="179.2"><path d="M143.2 105.2q0-17.3-23.4-23.9-3.5-1-5.3-1.65t-3.8-2.5-2.9-4.65q0-.2-.2-.85t-.3-1.2-.1-.75q0-3.6 2.45-5.95t6.05-2.35q5.4 0 7.1 1.5h-.1q2 1.5 3.9 5.1l9.3-7.1q-3.9-5.4-4.9-6.4-3.3-2.9-6.75-3.9t-8.55-1q-8 0-14.2 5.75T95.3 69.1q0 .7.2 2.3 1.6 9.6 6.45 14t14.85 7.3q2.9.8 4.9 1.55t4.5 2.15 3.85 3.45 1.35 4.65v.5q.1 5.8-4.05 9.3t-10.05 3.5q-9.7 0-16.7-14.4-2.3-4.7-5.15-12.15t-4.8-12.55-5.4-11.05-7.4-9.55-10.35-6.05-14.7-2.45q-10.1 0-19.2 5.6T19.2 70t-5 19.2v.1q.4 10.8 5.05 19.9t13.35 14.75 19.6 5.65q18.6 0 27.9-11 2-2.7 3.1-5.1l-6-10.9q-4.2 8-9.9 11.6t-14.6 3.6q-11.5 0-19.1-8.7T26 88.7q0-10.5 8.2-18.9t18.6-8.4q11.2 0 17 5.35T80.2 84q.8 2.1 2.55 6.85t2.85 7.65 3.15 7.45 3.85 7.4 4.55 6.25 5.55 5.35 6.6 3.3 8 1.35q10.7 0 18.3-6.95t7.6-17.45zm10.4-63.6v96q0 11.9-8.45 20.35t-20.35 8.45h-96q-11.9 0-20.35-8.45T0 137.6v-96q0-11.9 8.45-20.35T28.8 12.8h96q11.9 0 20.35 8.45t8.45 20.35z"/></svg>