<svg xmlns="http://www.w3.org/2000/svg" width="179.2" height="179.2"><path d="M129.2 70.4q0 .6 1 4.1 1 2.9 2.5 4.95t4.1 3.4 4.4 2 5.5 1.65q32.5 9.1 32.5 33.2 0 14.6-10.55 24.25t-25.45 9.65q-5.9 0-11.15-1.85t-9.15-4.55-7.7-7.45-6.3-8.75-5.35-10.35-4.35-10.3-3.95-10.65-3.55-9.5q-3.2-8.1-6.15-13.35T78.2 67.2t-10.4-6.4-14.2-2q-9.6 0-18.3 5.55T21.5 78.8t-5.1 18.5q0 16 10.65 27.95T53.4 137.2q17.7 0 25.8-9.5 5.6-6.3 8.3-11.6l8.4 15.2q-1.5 3.4-4.4 7l.1.1q-13.1 15.2-38.8 15.2-14.7 0-26.95-7.9T6.8 124.95 0 97.5Q0 87 4.35 76.9t11.6-17.65 17.2-12.15 20.45-4.6q8.7 0 15.9 1.9t12.35 5 9.5 8 7.25 9.9 5.85 11.7 5.05 12.45 5 13.05 5.5 12.7q9.6 20 23.3 20 8.1 0 13.85-4.85t5.75-12.85q0-4.2-1.9-7.2t-5.05-4.6-7.25-3.15-8.45-2.7-8.75-3.4-8.1-5.2-6.5-8.2T113 72.8q-.3-1.6-.3-3.3 0-11 8.75-19.2t19.85-7.8q7.8.3 12.05 1.45t9.05 5.35h-.1q1.2 1.1 2.3 2.45t2.6 3.6 1.9 2.75L156.2 68q-2.6-4.9-5.4-7v-.1q-2.3-2.1-9.7-2.1-4.9 0-8.4 3.3t-3.5 8.3z"/></svg>