<svg xmlns="http://www.w3.org/2000/svg" width="204.8" height="179.2"><path d="m189.3 39.2 15.5 127.2q-13.1 0-25.7-5.7-20-9.1-39.3-9.1-22.6 0-37.4 14.8-14.8-14.8-37.4-14.8-19.3 0-39.3 9.1-12.8 5.7-25.2 5.7H0L15.5 39.2q22.4-12.7 48.2-12.7 23.3 0 38.7 10.6 15.4-10.6 38.7-10.6 25.8 0 48.2 12.7zm-49.5 98.7q12.9 0 23.2 2.85t26 9.35L176.6 48q-17.1-7.8-36.8-7.8-22.4 0-37.4 14.1-15-14.1-37.4-14.1-19.7 0-36.8 7.8L15.8 150.1q10.5-4.3 16.55-6.5t14.85-3.95T65 137.9q20.2 0 37.4 10.8 17.2-10.8 37.4-10.8zm4-3.4-5.5-90.7q-21.1.4-35.9 15.5Q87.2 43.8 65 43.8q-17.6 0-33.6 6.6L20 144.5q12.4-5.1 22.85-7.6T65 134.4q20.9 0 37.4 10.2 17.2-10.7 37.4-10.2z"/></svg>