<svg xmlns="http://www.w3.org/2000/svg" width="153.6" height="179.2"><path d="M140.7 82.6q0-4.4-.7-11.35t-1.8-9.65q-1.2-3-1.7-4.4t-.9-3.65-.4-4.85q0-2.3.5-6.85t.5-6.75q0-3.7-1-5.5-.4-.1-1.3-.1-1.9 0-5.8.45t-5.9.45q-6 0-17.6-2.4t-17.5-2.4q-4.3 0-9.45 1.15t-8.5 2.35-8.95 3.4Q46.5 37.9 40 42.8q-9.6 7.3-15.95 18.95t-8.8 23.6-2.45 24.85q0 4 1.25 12t1.25 12.1q0 2.3-1.1 6.65t-1.1 6.55 1.2 3.65 3.4 1.45q2.4 0 7.25-1.1t7.35-1.1q5.7 0 16.95 1.55t16.95 1.55q18.1 0 28.4-3.6 12.9-4.5 23.55-15.25t16.6-24.55 5.95-27.5zm12.8-.2q0 16.5-7 32.75t-19.6 28.8T98.8 162q-12.4 4.4-32.6 4.4-5.7 0-17-1.45t-16.9-1.45q-2.4 0-7.25 1.45t-7.35 1.45q-7.3 0-12.35-5.55T.3 148q0-2.4 1.1-6.8t1.1-6.7q0-4-1.25-12.05T0 110.3q0-11.1 1.8-21.75T7.25 67.6 17.3 48.2t15-15.6q7.8-5.9 23.2-12 19.4-7.8 31.6-7.8 6 0 17.55 2.4T122 17.6q1.9 0 5.7-.5t5.8-.5q8.1 0 11.8 5.05T149 35.1q0 2.3-.5 6.8t-.5 6.8q0 1.3.2 2.5t.35 1.65.75 2.05.8 2q1.6 4 2.5 11.85t.9 13.65z"/></svg>