<svg xmlns="http://www.w3.org/2000/svg" width="179.2" height="179.2"><path d="M89.6 0q18.2 0 34.8 7.1T153 26.2t19.1 28.6 7.1 34.8-7.1 34.8T153 153t-28.6 19.1-34.8 7.1-34.8-7.1T26.2 153 7.1 124.4 0 89.6t7.1-34.8 19.1-28.6T54.8 7.1 89.6 0zm0 12.8q-19 0-36.1 9l19.4 19.4q8.2-2.8 16.7-2.8t16.7 2.8l19.4-19.4q-17.1-9-36.1-9zM21.8 125.7l19.4-19.4q-2.8-8.2-2.8-16.7t2.8-16.7L21.8 53.5q-9 17.1-9 36.1t9 36.1zm67.8 40.7q19 0 36.1-9L106.3 138q-8.2 2.8-16.7 2.8T72.9 138l-19.4 19.4q17.1 9 36.1 9zm0-38.4q15.9 0 27.15-11.25T128 89.6t-11.25-27.15T89.6 51.2 62.45 62.45 51.2 89.6t11.25 27.15T89.6 128zm48.4-21.7 19.4 19.4q9-17.1 9-36.1t-9-36.1L138 72.9q2.8 8.2 2.8 16.7t-2.8 16.7z"/></svg>