<svg xmlns="http://www.w3.org/2000/svg" width="102.4" height="179.2"><path d="M73.6 57.6q0 1.3-.95 2.25t-2.25.95-2.25-.95-.95-2.25q0-4.6-5.4-7.1T51.2 48q-1.3 0-2.25-.95T48 44.8t.95-2.25 2.25-.95q5 0 9.95 1.6t8.7 5.4 3.75 9zm16 0q0-7.2-3.45-13.4t-9-10.15-12.3-6.2T51.2 25.6t-13.65 2.25-12.3 6.2-9 10.15-3.45 13.4q0 10.1 6.8 18 1 1.1 3.05 3.3t3.05 3.3Q38.5 97.5 39.8 112h22.8q1.3-14.5 14.1-29.8 1-1.1 3.05-3.3t3.05-3.3q6.8-7.9 6.8-18zm12.8 0q0 15.5-10.3 26.8-4.5 4.9-7.45 8.7t-5.95 9.55-3.4 10.75q4.7 2.8 4.7 8.2 0 3.7-2.5 6.4 2.5 2.7 2.5 6.4 0 5.2-4.5 8.1 1.3 2.3 1.3 4.7 0 4.6-3.15 7.1t-7.75 2.5q-2 4.4-6 7t-8.7 2.6-8.7-2.6-6-7q-4.6 0-7.75-2.5t-3.15-7.1q0-2.4 1.3-4.7-4.5-2.9-4.5-8.1 0-3.7 2.5-6.4-2.5-2.7-2.5-6.4 0-5.4 4.7-8.2-.4-5-3.4-10.75t-5.95-9.55-7.45-8.7Q0 73.1 0 57.6q0-9.9 4.45-18.45t11.7-14.2 16.4-8.9T51.2 12.8t18.65 3.25 16.4 8.9 11.7 14.2 4.45 18.45z"/></svg>