<svg xmlns="http://www.w3.org/2000/svg" width="153.6" height="179.2"><path d="M23.7 141.4h23.1V72H23.7v69.4zm24.6-90.8q-.1-5.2-3.6-8.6t-9.3-3.4-9.45 3.4-3.65 8.6q0 5.1 3.55 8.55t9.25 3.45h.1q5.9 0 9.5-3.45t3.6-8.55zm58.5 90.8h23.1v-39.8q0-15.4-7.3-23.3t-19.3-7.9q-13.6 0-20.9 11.7h.2V72H59.5q.3 6.6 0 69.4h23.1v-38.8q0-3.8.7-5.6 1.5-3.5 4.5-5.95t7.4-2.45q11.6 0 11.6 15.7v37.1zm46.8-99.8v96q0 11.9-8.45 20.35t-20.35 8.45h-96q-11.9 0-20.35-8.45T0 137.6v-96q0-11.9 8.45-20.35T28.8 12.8h96q11.9 0 20.35 8.45t8.45 20.35z"/></svg>