<svg xmlns="http://www.w3.org/2000/svg" width="153.6" height="179.2"><path d="m33 153.5 20.2 21.4-3.4-23.6L28.2 130zm22.6 22.6L83 154.3l-1.1-24.5-30 21.5zm-31.1-63.8 22.7 21.3-4.8-32.7-24.5-20.4zm25 22.4 31.7-21.4-1.4-32.4-35.2 20zm34.8 1.1 9.5 8-.2-23.9-10.3-7.9q0 .1.1.85t0 1.2-.5.75l-7.8 5.2 8.5 7q.7.6.7 8.8zM13.8 60.6l25.6 20-6.8-46.5L4.7 16.8zm103.5 66.3 1.5-23.4-23 16.4.2 24zM41.7 81.4 79 62l-1.9-44.1-42.3 16.3zm85.3 36.5 2-23.3-22.6-14.2-.2 10.5 14.4 9.5q.6.4.4.9l-.7 11.9zm19.1-13.9 3-22.2-17.9 12.8-2 22.8zm-18.8 16.7-7.1-4.9-.8 11.7q0 .5-.4.8L95.6 147q-.7.5-1.4 0l-9.8-8.3.7 16.1q0 .5-.4.8L55.4 179q-.4.2-.6.2-.8-.2-.8-.3l-22.8-24.2q-.4-.4-5.9-27.7-.2-.7.5-1.1l6.1-3.7q-9.4-8.6-9.5-9.2l-7.2-35.1q-.2-.7.6-1.2l9.4-4.5q-13.3-10-13.5-10.8L2.1 14.8q-.2-1 .7-1.3L46.1 0q.5 0 .8.1l31.7 15.3q.6.4.6.9l2 46.3q0 .7-.6 1l-11.8 6.1 12.6 8.5q.5.2.5.8l.5 12.3 12.1-7.4q.5-.4 1.1 0l8.4 5.6.3-11q0-.6.5-.9L125.4 65q.6-.3 1.1 0L151 78.5q.4.4.5.7t-.65 6-1.75 12.45-1 7.05q0 .5-.4.7l-19.1 15.3q-.6.5-1.3 0z"/></svg>