<svg xmlns="http://www.w3.org/2000/svg" width="153.6" height="179.2"><path d="M66.3 41.1q-1.1.1-1.55 1.05t-.85.95q-.5.1-.5-.5 0-1.2 1.9-1.5h1zm8.7 1.4q-.4.1-1.15-.65t-1.75-.45q2.4-1.1 3.2.2.3.6-.3.9zM39.9 85.2q-.4-.1-.6.3t-.45 1.25-.55 1.35-1 1.3q-1 1.1-.1 1.2.4.1 1.25-.7t1.25-1.8q.1-.3.2-.7t.2-.6.15-.45.05-.4v-.3l-.1-.25-.3-.2zm85.5 35.9q0-1.8-5.5-4.2.4-1.5.75-2.75t.5-2.6.3-2.15.05-2.25-.1-1.95-.35-2.2-.4-2.05-.5-2.5-.55-2.65q-1-4.8-4.7-10.3t-7.2-7.5q2.4 2 5.7 8.3 8.7 16.2 5.4 27.8-1.1 4-5 4.2-3.1.4-3.85-1.85t-.8-8.35T108 97.4q-.9-3.9-1.95-6.9t-1.95-4.55-1.55-2.45-1.3-1.5-.75-.7q-1.4-6.2-3.1-10.3t-2.95-5.6-2.35-3.3-1.5-4q-.4-2.1.6-5.35t.45-4.95-4.45-2.5q-1.5-.3-4.45-1.8t-3.55-1.6q-.8-.1-1.1-2.6t.8-5.1 3.6-2.7q3.7-.3 5.1 3t.4 5.8q-1.1 1.9-.2 2.65t3 .05q1.3-.4 1.3-3.6v-3.7q-.5-3-1.35-5t-2.1-3.05-2.35-1.5-2.7-.75q-10.7.8-8.9 13.4 0 1.5-.1 1.5-.9-.9-2.95-1.05t-3.3.05-1.55-.5q.1-5.7-1.6-9t-4.5-3.4q-2.7-.1-4.15 2.75T54.9 35.1q-.1 1.5.35 3.7t1.3 3.75 1.55 1.35q1-.3 1.6-1.4.4-.9-.7-.8-.7 0-1.55-1.45t-.95-3.35q-.1-2.2.9-3.7t3.4-1.4q1.7 0 2.7 2.1t.95 3.9-.15 2.2q-2.2 1.5-3.1 2.9-.8 1.2-2.75 2.35T56.4 46.5q-1.3 1.4-1.55 2.7t.75 1.8q1.4.8 2.5 1.95t1.6 1.9 1.85 1.3 3.55.65q4.7.2 10.2-1.5.2-.1 2.3-.7t3.45-1.05 2.95-1.3 2.1-1.75q.9-1.4 2-.8.5.3.65.85t-.3 1.2-1.65.95q-2 .6-5.65 2.15T76.6 56.8q-4.4 1.9-7 2.3-2.5.5-7.9-.2-1-.2-.9.2t1.7 1.9q2.5 2.3 6.7 2.2 1.7-.1 3.6-.7t3.6-1.4 3.35-1.75 3-1.7 2.45-1.2 1.75-.25.85 1.1q0 .2-.1.45t-.4.5-.6.45-.85.5-.9.45-1 .5-.95.45Q80.2 62 76.25 65t-6.65 4.3-4.9.1q-2.1-1.1-6.3-7.3-2.2-3.1-2.5-2.2-.1.3-.1 1 0 2.5-1.5 5.65t-2.95 5.55-2.1 5.8 1.15 6.3q-2.3.6-6.25 9t-4.75 14.1q-.2 1.8-.15 6.9t-.55 5.9q-.8 2.4-2.9.3-3.2-3.1-3.6-9.4-.2-2.8.4-5.6.4-1.9-.1-1.8-.2.1-.4.5-3.6 6.5 1 16.6.5 1.2 2.5 2.8t2.4 2q2 2.3 10.4 9.05t9.3 7.65q1.6 1.5 1.75 3.8t-1.4 4.3-4.55 2.3q.8 1.5 2.9 4.45t2.8 5.4.7 7.05q4.6-2.4.7-9.2-.4-.8-1.05-1.6t-.95-1.2-.2-.6q.3-.5 1.3-.95t2 .25q4.6 5.2 16.6 3.6 13.3-1.5 17.7-8.7 2.3-3.8 3.4-3 1.2.6 1 5.2-.1 2.5-2.3 9.2-.9 2.3-.6 3.75t2.4 1.55q.3-1.9 1.45-7.7t1.35-9q.2-2.1-.65-7.35t-.75-9.7 2.3-7.05q1.5-1.8 5.1-1.8.1-3.7 3.45-5.3t7.25-1.05 6 2.25zM62.6 38.4q.3-1.7-.25-3t-1.15-1.5q-.9-.2-.9.7.2.5.5.6 1 0 .7 1.5-.3 2 .8 2 .3 0 .3-.3zm41.9 19.7q-.2-.8-.65-1.15t-1.3-.5-1.45-.55q-.5-.3-.95-.8t-.7-.8-.55-.65-.4-.4-.4.15q-1.4 1.6.7 4.35t3.9 3.15q.9.1 1.45-.8t.35-2zM86.7 36.8q0-1.1-.5-1.95t-1.1-1.25-.9-.3q-.6 0-.8.2t0 .4.5.3q1.4.4 1.8 3.1 0 .3.8-.2.2-.2.2-.3zm5.4-23.3q0-.2-.25-.5t-.9-.7-.95-.6q-1.5-1.5-2.4-1.5-.9.1-1.15.75t-.1 1.3-.05 1.25q-.1.4-.6 1.05t-.6.9.3.85q.4.3.8 0t1.1-.9 1.5-.9q.1-.1.9-.1t1.5-.2.9-.7zm56.5 134.1q2 1.2 3.1 2.45t1.2 2.4-.25 2.25-1.55 2.2-2.35 1.95-3 1.85-3.15 1.65-3.2 1.55-2.7 1.3q-3.8 1.9-8.55 5.6t-7.55 6.4q-1.7 1.6-6.8 1.95t-8.9-1.45q-1.8-.9-2.95-2.35t-1.65-2.55-2.2-1.95-4.7-.95q-4.4-.1-13-.1-1.9 0-5.7.15t-5.8.25q-4.4.1-7.95 1.5t-5.35 3-4.35 2.85-5.35 1.15q-2.9-.1-11.1-3.1t-14.6-4.3q-1.9-.4-5.1-.95t-5-.9-3.95-.95-3.35-1.45-1.7-1.95q-1-2.3.7-6.65T3.6 153q.1-1.6-.4-4t-1-4.25-.45-3.65 1.05-2.7q1.4-1.2 5.7-1.4t6-1.2q3-1.8 4.2-3.5t1.2-5.1q2.1 7.3-3.2 10.6-3.2 2-8.3 1.5-3.4-.3-4.3 1-1.3 1.5.5 5.7.2.6.8 1.8t.85 1.8.45 1.7.1 2.2q0 1.5-1.7 4.9t-1.4 4.8q.3 1.7 3.7 2.6 2 .6 8.45 1.85t9.95 2.05q2.4.6 7.4 2.2t8.25 2.3 5.55.4q4.3-.6 6.45-2.8t2.3-4.8-.75-5.85-1.9-5.2-2-3.65q-12.1-19-16.9-24.2-6.8-7.4-11.3-4-1.1.9-1.5-1.5-.3-1.6-.2-3.8.1-2.9 1-5.2t2.4-4.7 2.2-4.2q.8-2.1 2.65-7.2t2.95-7.8 3-6.1 3.9-5.4q11-14.3 12.4-19.5-1.2-11.2-1.6-31-.2-9 2.4-15.15T63.1 2.1Q67 0 73.5 0q5.3-.1 10.6 1.35T93 5.5q5.7 4.2 9.15 12.15t2.95 14.75q-.5 9.5 3 21.4 3.4 11.3 13.3 21.8 5.5 5.9 9.95 16.3t5.95 19.1q.8 4.9.5 8.45t-1.2 5.55-2 2.2q-1 .2-2.35 1.9t-2.7 3.55-4.05 3.35-6.1 1.4q-1.8-.1-3.15-.5t-2.25-1.35-1.35-1.55-1.15-2.05-.9-1.95q-2.2-3.7-4.1-3t-2.8 4.9.7 9.7q2 7 .1 19.5-1 6.5 1.8 10.05t7.3 3.3 8.5-3.55q5.9-4.9 8.95-6.65T141.4 160q5.3-1.8 7.7-3.65t1.85-3.45-2.5-2.85-5.15-2.35q-3.3-1.1-4.95-4.8t-1.5-7.25 1.55-4.75q.1 3.1.8 5.65t1.45 4.05 2.05 2.85 2.1 1.9 2.15 1.3 1.65.95z"/></svg>