<svg xmlns="http://www.w3.org/2000/svg" width="179.2" height="179.2"><path d="M38.4 118.4v6.4q0 1.3-.95 2.25t-2.25.95h-6.4q-1.3 0-2.25-.95t-.95-2.25v-6.4q0-1.3.95-2.25t2.25-.95h6.4q1.3 0 2.25.95t.95 2.25zm0-25.6v6.4q0 1.3-.95 2.25t-2.25.95h-6.4q-1.3 0-2.25-.95t-.95-2.25v-6.4q0-1.3.95-2.25t2.25-.95h6.4q1.3 0 2.25.95t.95 2.25zm0-25.6v6.4q0 1.3-.95 2.25t-2.25.95h-6.4q-1.3 0-2.25-.95t-.95-2.25v-6.4q0-1.3.95-2.25T28.8 64h6.4q1.3 0 2.25.95t.95 2.25zm115.2 51.2v6.4q0 1.3-.95 2.25t-2.25.95h-96q-1.3 0-2.25-.95t-.95-2.25v-6.4q0-1.3.95-2.25t2.25-.95h96q1.3 0 2.25.95t.95 2.25zm0-25.6v6.4q0 1.3-.95 2.25t-2.25.95h-96q-1.3 0-2.25-.95t-.95-2.25v-6.4q0-1.3.95-2.25t2.25-.95h96q1.3 0 2.25.95t.95 2.25zm0-25.6v6.4q0 1.3-.95 2.25t-2.25.95h-96q-1.3 0-2.25-.95t-.95-2.25v-6.4q0-1.3.95-2.25T54.4 64h96q1.3 0 2.25.95t.95 2.25zm12.8 70.4V54.4q0-1.3-.95-2.25t-2.25-.95H16q-1.3 0-2.25.95t-.95 2.25v83.2q0 1.3.95 2.25t2.25.95h147.2q1.3 0 2.25-.95t.95-2.25zm12.8-108.8v108.8q0 6.6-4.7 11.3t-11.3 4.7H16q-6.6 0-11.3-4.7T0 137.6V28.8q0-6.6 4.7-11.3T16 12.8h147.2q6.6 0 11.3 4.7t4.7 11.3z"/></svg>