<svg xmlns="http://www.w3.org/2000/svg" width="179.2" height="179.2"><path d="M38.4 140.8q0 8-5.6 13.6T19.2 160t-13.6-5.6T0 140.8t5.6-13.6 13.6-5.6 13.6 5.6 5.6 13.6zm0-51.2q0 8-5.6 13.6t-13.6 5.6-13.6-5.6T0 89.6 5.6 76t13.6-5.6T32.8 76t5.6 13.6zm140.8 41.6v19.2q0 1.3-.95 2.25t-2.25.95H54.4q-1.3 0-2.25-.95t-.95-2.25v-19.2q0-1.3.95-2.25t2.25-.95H176q1.3 0 2.25.95t.95 2.25zM38.4 38.4q0 8-5.6 13.6t-13.6 5.6T5.6 52 0 38.4t5.6-13.6 13.6-5.6 13.6 5.6 5.6 13.6zM179.2 80v19.2q0 1.3-.95 2.25t-2.25.95H54.4q-1.3 0-2.25-.95t-.95-2.25V80q0-1.3.95-2.25t2.25-.95H176q1.3 0 2.25.95t.95 2.25zm0-51.2V48q0 1.3-.95 2.25t-2.25.95H54.4q-1.3 0-2.25-.95T51.2 48V28.8q0-1.3.95-2.25t2.25-.95H176q1.3 0 2.25.95t.95 2.25z"/></svg>