<svg xmlns="http://www.w3.org/2000/svg" width="179.2" height="179.2"><path d="M33.5 135.6q-.2 0-.6-.2-8.6-5.7-16.85-14.5t-13.95-18Q0 99.9 0 96q0-.9.2-1.9t.4-1.8.7-1.8.85-1.6 1.05-1.7 1-1.5 1.2-1.55 1.1-1.45q18.4-25.1 45.2-36.5-11-19.8-11-21.1 0-1.9 1.7-2.9 11.6-6.4 12.8-6.4 1.8 0 2.8 1.6l12.4 22.9q9.2-1.9 19.2-1.9 26.6 0 49.75 13.75T177.2 89.1q2 3.1 2 6.9t-2 6.9q-9.1 14.2-21.85 25.35T127.5 145.8q11 19.8 11 21.1 0 2-1.7 2.9-11.6 6.4-12.7 6.4-1.9 0-2.9-1.6l-12.4-22.9-6.4-11.9-44.4-82 .7-.7q-5.8 2.4-9.9 4.7.3.5 12.7 23.4t24.3 44.9 11.9 22.3q0 .7-.9.9-1.3.3-7.2.3-5.7 0-6-.7L38 68.8q-3.9 2.8-8.2 6.8 2.4 4.3 21.4 39.35t19 35.45q0 1-1.1 1-1.4 0-8.25-2.2t-7.25-2.8L43 126.7 20.6 85.4q-4.4 5.3-7.8 10.6.2.3 1.8 2.5t2.3 3.4l17.6 32.7q0 1-1 1zm83-10.2 4.9 9.1q27.3-11.1 45-38.5-18-27.7-45.9-38.9 6.7 6.4 10.3 14.85t3.6 17.65q0 10.6-4.7 20.05t-13.2 15.75zM84.8 64q0 2 1.4 3.4t3.4 1.4q8.6 0 14.7 6.1t6.1 14.7q0 2 1.4 3.4t3.4 1.4 3.4-1.4 1.4-3.4q0-12.6-8.9-21.5t-21.5-8.9q-2 0-3.4 1.4T84.8 64zm36.6-6.5-.9-.4.7.7z"/></svg>