<svg xmlns="http://www.w3.org/2000/svg" version="1.1" width="179.2" height="179.2"><path d="M335 180q-2 0 -6 2q-86 57 -168.5 145t-139.5 180q-21 30 -21 69q0 9 2 19t4 18t7 18t8.5 16t10.5 17t10 15t12 15.5t11 14.5q184 251 452 365q-110 198 -110 211q0 19 17 29q116 64 128 64q18 0 28 -16l124 -229q92 19 192 19q266 0 497.5 -137.5t378.5 -369.5 q20 -31 20 -69t-20 -69q-91 -142 -218.5 -253.5t-278.5 -175.5q110 -198 110 -211q0 -20 -17 -29q-116 -64 -127 -64q-19 0 -29 16l-124 229l-64 119l-444 820l7 7q-58 -24 -99 -47q3 -5 127 -234t243 -449t119 -223q0 -7 -9 -9q-13 -3 -72 -3q-57 0 -60 7l-456 841 q-39 -28 -82 -68q24 -43 214 -393.5t190 -354.5q0 -10 -11 -10q-14 0 -82.5 22t-72.5 28l-106 197l-224 413q-44 -53 -78 -106q2 -3 18 -25t23 -34l176 -327q0 -10 -10 -10zM1165 282l49 -91q273 111 450 385q-180 277 -459 389q67 -64 103 -148.5t36 -176.5 q0 -106 -47 -200.5t-132 -157.5zM848 896q0 -20 14 -34t34 -14q86 0 147 -61t61 -147q0 -20 14 -34t34 -14t34 14t14 34q0 126 -89 215t-215 89q-20 0 -34 -14t-14 -34zM1214 961l-9 4l7 -7z" transform="scale(0.1 -0.1) translate(0 -1536)" /></svg>
