<svg xmlns="http://www.w3.org/2000/svg" version="1.1" width="153.6" height="179.2"><path d="M1536 704v-128q0 -201 -98.5 -362t-274 -251.5t-395.5 -90.5t-395.5 90.5t-274 251.5t-98.5 362v128q0 26 19 45t45 19h384q26 0 45 -19t19 -45v-128q0 -52 23.5 -90t53.5 -57t71 -30t64 -13t44 -2t44 2t64 13t71 30t53.5 57t23.5 90v128q0 26 19 45t45 19h384 q26 0 45 -19t19 -45zM512 1344v-384q0 -26 -19 -45t-45 -19h-384q-26 0 -45 19t-19 45v384q0 26 19 45t45 19h384q26 0 45 -19t19 -45zM1536 1344v-384q0 -26 -19 -45t-45 -19h-384q-26 0 -45 19t-19 45v384q0 26 19 45t45 19h384q26 0 45 -19t19 -45z" transform="scale(0.1 -0.1) translate(0 -1536)" /></svg>
