<svg xmlns="http://www.w3.org/2000/svg" width="179.2" height="179.2"><path d="M64 108.2v7q0 4.2-3.9 5.9-1.3.5-2.5.5-2.7 0-4.5-1.9L1.9 68.5Q0 66.6 0 64t1.9-4.5L53.1 8.3q2.9-3.1 7-1.4Q64 8.6 64 12.8v6.9L24.3 59.5q-1.9 1.9-1.9 4.5t1.9 4.5zm115.2 3.8q0 5.8-1.7 13.35t-3.85 13.8-4.8 12.5-4.05 9.05l-2 4q-.8 1.7-2.8 1.7-.6 0-.9-.1-2.5-.8-2.3-3.4 4.3-40-10.6-56.5-6.4-7.1-17.05-11.05T102.4 90.1v25.1q0 4.2-3.9 5.9-1.3.5-2.5.5-2.7 0-4.5-1.9L40.3 68.5q-1.9-1.9-1.9-4.5t1.9-4.5L91.5 8.3q2.9-3.1 7-1.4 3.9 1.7 3.9 5.9V39q41.1 2.8 59.9 22.1 16.9 17.3 16.9 50.9z"/></svg>