<svg xmlns="http://www.w3.org/2000/svg" width="179.2" height="179.2"><path d="M174.5 29.7q1 1 1 2.3t-1 2.3l-14.1 14.1q-2.8 2.8-6.8 2.8H19.2q-2.6 0-4.5-1.9t-1.9-4.5V19.2q0-2.6 1.9-4.5t4.5-1.9h57.6V6.4q0-2.6 1.9-4.5T83.2 0H96q2.6 0 4.5 1.9t1.9 4.5v6.4h51.2q4 0 6.8 2.8zm-97.7 91.9h25.6v51.2q0 2.6-1.9 4.5t-4.5 1.9H83.2q-2.6 0-4.5-1.9t-1.9-4.5v-51.2zM160 76.8q2.6 0 4.5 1.9t1.9 4.5v25.6q0 2.6-1.9 4.5t-4.5 1.9H25.6q-4 0-6.8-2.8L4.7 98.3q-1-1-1-2.3t1-2.3l14.1-14.1q2.8-2.8 6.8-2.8h51.2V57.6h25.6v19.2H160z"/></svg>