<svg xmlns="http://www.w3.org/2000/svg" width="153.6" height="179.2"><path d="M147.2 12.8q2.6 0 4.5 1.9t1.9 4.5v41.6q0 1.4-.9 2.3t-2.3.9H144q-1.4 0-2.3-.9t-.9-2.3V34.6l-38.2 38.3q12.6 15.6 12.6 35.9 0 11.7-4.55 22.35t-12.3 18.4-18.4 12.3-22.35 4.55-22.35-4.55-18.4-12.3-12.3-18.4T0 108.8t4.55-22.35 12.3-18.4 18.4-12.3T57.6 51.2q20.3 0 35.9 12.6l38.2-38.2h-26.1q-1.4 0-2.3-.9t-.9-2.3V16q0-1.4.9-2.3t2.3-.9h41.6zM57.6 153.6q18.5 0 31.65-13.15t13.15-31.65-13.15-31.65T57.6 64 25.95 77.15 12.8 108.8t13.15 31.65T57.6 153.6z"/></svg>