<svg xmlns="http://www.w3.org/2000/svg" version="1.1" width="128.0" height="179.2"><path d="M640 892q217 -24 364.5 -187.5t147.5 -384.5q0 -167 -87 -306t-236 -212t-319 -54q-133 15 -245.5 88t-182 188t-80.5 249q-12 155 52.5 292t186 224t271.5 103v132h-160q-14 0 -23 9t-9 23v64q0 14 9 23t23 9h160v165l-92 -92q-10 -9 -23 -9t-22 9l-46 46q-9 9 -9 22 t9 23l202 201q19 19 45 19t45 -19l202 -201q9 -10 9 -23t-9 -22l-46 -46q-9 -9 -22 -9t-23 9l-92 92v-165h160q14 0 23 -9t9 -23v-64q0 -14 -9 -23t-23 -9h-160v-132zM576 -128q185 0 316.5 131.5t131.5 316.5t-131.5 316.5t-316.5 131.5t-316.5 -131.5t-131.5 -316.5 t131.5 -316.5t316.5 -131.5z" transform="scale(0.1 -0.1) translate(0 -1536)" /></svg>
