<svg xmlns="http://www.w3.org/2000/svg" width="128" height="179.2"><path d="M64 64.4q21.7 2.4 36.45 18.75t14.75 38.45q0 16.7-8.7 30.6t-23.6 21.2-31.9 5.4q-13.3-1.5-24.55-8.8t-18.2-18.8T.2 126.3Q-1 110.8 5.45 97.1t18.6-22.4T51.2 64.4V51.2h-16q-1.4 0-2.3-.9T32 48v-6.4q0-1.4.9-2.3t2.3-.9h16V21.9L42 31.1q-1 .9-2.3.9t-2.2-.9l-4.6-4.6q-.9-.9-.9-2.2t.9-2.3L53.1 1.9Q55 0 57.6 0t4.5 1.9L82.3 22q.9 1 .9 2.3t-.9 2.2l-4.6 4.6q-.9.9-2.2.9t-2.3-.9L64 21.9v16.5h16q1.4 0 2.3.9t.9 2.3V48q0 1.4-.9 2.3t-2.3.9H64v13.2zm-6.4 102q18.5 0 31.65-13.15t13.15-31.65-13.15-31.65T57.6 76.8 25.95 89.95 12.8 121.6t13.15 31.65T57.6 166.4z"/></svg>