<svg xmlns="http://www.w3.org/2000/svg" width="179.2" height="179.2"><path d="M128 112V92.8q0-1.4-.9-2.3t-2.3-.9h-22.4V67.2q0-1.4-.9-2.3t-2.3-.9H80q-1.4 0-2.3.9t-.9 2.3v22.4H54.4q-1.4 0-2.3.9t-.9 2.3V112q0 1.4.9 2.3t2.3.9h22.4v22.4q0 1.4.9 2.3t2.3.9h19.2q1.4 0 2.3-.9t.9-2.3v-22.4h22.4q1.4 0 2.3-.9t.9-2.3zM64 38.4h51.2V25.6H64v12.8zm-38.4 0v128h-3.2q-9.2 0-15.8-6.6T0 144V60.8Q0 51.6 6.6 45t15.8-6.6h3.2zm118.4 0v128H35.2v-128h16v-16q0-4 2.8-6.8t6.8-2.8h57.6q4 0 6.8 2.8t2.8 6.8v16h16zm35.2 22.4V144q0 9.2-6.6 15.8t-15.8 6.6h-3.2v-128h3.2q9.2 0 15.8 6.6t6.6 15.8z"/></svg>