<svg xmlns="http://www.w3.org/2000/svg" version="1.1" width="192.0" height="179.2"><path d="M1334 302q-4 24 -27.5 34t-49.5 10.5t-48.5 12.5t-25.5 38q-5 47 33 139.5t75 181t32 127.5q-14 101 -117 103q-45 1 -75 -16l-3 -2l-5 -2.5t-4.5 -2t-5 -2t-5 -0.5t-6 1.5t-6 3.5t-6.5 5q-3 2 -9 8.5t-9 9t-8.5 7.5t-9.5 7.5t-9.5 5.5t-11 4.5t-11.5 2.5q-30 5 -48 -3 t-45 -31q-1 -1 -9 -8.5t-12.5 -11t-15 -10t-16.5 -5.5t-17 3q-54 27 -84 40q-41 18 -94 -5t-76 -65q-16 -28 -41 -98.5t-43.5 -132.5t-40 -134t-21.5 -73q-22 -69 18.5 -119t110.5 -46q30 2 50.5 15t38.5 46q7 13 79 199.5t77 194.5q6 11 21.5 18t29.5 0q27 -15 21 -53 q-2 -18 -51 -139.5t-50 -132.5q-6 -38 19.5 -56.5t60.5 -7t55 49.5q4 8 45.5 92t81.5 163.5t46 88.5q20 29 41 28q29 0 25 -38q-2 -16 -65.5 -147.5t-70.5 -159.5q-12 -53 13 -103t74 -74q17 -9 51 -15.5t71.5 -8t62.5 14t20 48.5zM383 86q3 -15 -5 -27.5t-23 -15.5 q-14 -3 -26.5 5t-15.5 23q-3 14 5 27t22 16t27 -5t16 -23zM953 -177q12 -17 8.5 -37.5t-20.5 -32.5t-37.5 -8t-32.5 21q-11 17 -7.5 37.5t20.5 32.5t37.5 8t31.5 -21zM177 635q-18 -27 -49.5 -33t-57.5 13q-26 18 -32 50t12 58q18 27 49.5 33t57.5 -12q26 -19 32 -50.5 t-12 -58.5zM1467 -42q19 -28 13 -61.5t-34 -52.5t-60.5 -13t-51.5 34t-13 61t33 53q28 19 60.5 13t52.5 -34zM1579 562q69 -113 42.5 -244.5t-134.5 -207.5q-90 -63 -199 -60q-20 -80 -84.5 -127t-143.5 -44.5t-140 57.5q-12 -9 -13 -10q-103 -71 -225 -48.5t-193 126.5 q-50 73 -53 164q-83 14 -142.5 70.5t-80.5 128t-2 152t81 138.5q-36 60 -38 128t24.5 125t79.5 98.5t121 50.5q32 85 99 148t146.5 91.5t168 17t159.5 -66.5q72 21 140 17.5t128.5 -36t104.5 -80t67.5 -115t17.5 -140.5q52 -16 87 -57t45.5 -89t-5.5 -99.5t-58 -87.5z M455 1222q14 -20 9.5 -44.5t-24.5 -38.5q-19 -14 -43.5 -9.5t-37.5 24.5q-14 20 -9.5 44.5t24.5 38.5q19 14 43.5 9.5t37.5 -24.5zM614 1503q4 -16 -5 -30.5t-26 -18.5t-31 5.5t-18 26.5q-3 17 6.5 31t25.5 18q17 4 31 -5.5t17 -26.5zM1800 555q4 -20 -6.5 -37t-30.5 -21 q-19 -4 -36 6.5t-21 30.5t6.5 37t30.5 22q20 4 36.5 -7.5t20.5 -30.5zM1136 1448q16 -27 8.5 -58.5t-35.5 -47.5q-27 -16 -57.5 -8.5t-46.5 34.5q-16 28 -8.5 59t34.5 48t58 9t47 -36zM1882 792q4 -15 -4 -27.5t-23 -16.5q-15 -3 -27.5 5.5t-15.5 22.5q-3 15 5 28t23 16 q14 3 26.5 -5t15.5 -23zM1691 1033q15 -22 10.5 -49t-26.5 -43q-22 -15 -49 -10t-42 27t-10 49t27 43t48.5 11t41.5 -28z" transform="scale(0.1 -0.1) translate(0 -1536)" /></svg>
