<svg xmlns="http://www.w3.org/2000/svg" version="1.1" width="128.0" height="179.2"><path d="M830 1220q145 -72 233.5 -210.5t88.5 -305.5q0 -221 -147.5 -384.5t-364.5 -187.5v-132h96q14 0 23 -9t9 -23v-64q0 -14 -9 -23t-23 -9h-96v-96q0 -14 -9 -23t-23 -9h-64q-14 0 -23 9t-9 23v96h-96q-14 0 -23 9t-9 23v64q0 14 9 23t23 9h96v132q-217 24 -364.5 187.5 t-147.5 384.5q0 167 88.5 305.5t233.5 210.5q-165 96 -228 273q-6 16 3.5 29.5t26.5 13.5h69q21 0 29 -20q44 -106 140 -171t214 -65t214 65t140 171q8 20 37 20h61q17 0 26.5 -13.5t3.5 -29.5q-63 -177 -228 -273zM576 256q185 0 316.5 131.5t131.5 316.5t-131.5 316.5 t-316.5 131.5t-316.5 -131.5t-131.5 -316.5t131.5 -316.5t316.5 -131.5z" transform="scale(0.1 -0.1) translate(0 -1536)" /></svg>
