<svg xmlns="http://www.w3.org/2000/svg" width="115.2" height="179.2"><path d="M115.2 70.4v12.8q0 22.1-14.75 38.45T64 140.4v13.2h25.6q2.6 0 4.5 1.9T96 160t-1.9 4.5-4.5 1.9h-64q-2.6 0-4.5-1.9t-1.9-4.5 1.9-4.5 4.5-1.9h25.6v-13.2q-21.7-2.4-36.45-18.75T0 83.2V70.4q0-2.6 1.9-4.5T6.4 64t4.5 1.9 1.9 4.5v12.8q0 18.5 13.15 31.65T57.6 128t31.65-13.15T102.4 83.2V70.4q0-2.6 1.9-4.5t4.5-1.9 4.5 1.9 1.9 4.5zM89.6 32v51.2q0 13.2-9.4 22.6t-22.6 9.4-22.6-9.4-9.4-22.6V32q0-13.2 9.4-22.6T57.6 0t22.6 9.4T89.6 32z"/></svg>