<svg xmlns="http://www.w3.org/2000/svg" width="140.8" height="179.2"><path d="M27.1 94.5 17 104.6q-4.2-10.3-4.2-21.4V70.4q0-2.6 1.9-4.5t4.5-1.9 4.5 1.9 1.9 4.5v12.8q0 5.3 1.5 11.3zm111.4-60.2-36.1 36.1v12.8q0 13.2-9.4 22.6t-22.6 9.4q-5.5 0-10.9-1.9l-9.6 9.6q9.7 5.1 20.5 5.1 18.5 0 31.65-13.15T115.2 83.2V70.4q0-2.6 1.9-4.5t4.5-1.9 4.5 1.9 1.9 4.5v12.8q0 22.1-14.75 38.45T76.8 140.4v13.2h25.6q2.6 0 4.5 1.9t1.9 4.5-1.9 4.5-4.5 1.9h-64q-2.6 0-4.5-1.9T32 160t1.9-4.5 4.5-1.9H64v-13.2q-12.5-1.3-23.5-8.1l-25.4 25.4q-1 1-2.3 1t-2.3-1l-8.2-8.2q-1-1-1-2.3t1-2.3L125.7 21.5q1-1 2.3-1t2.3 1l8.2 8.2q1 1 1 2.3t-1 2.3zm-38-13.2L38.4 83.2V32q0-13.2 9.4-22.6T70.4 0q10.2 0 18.45 5.9t11.65 15.2z"/></svg>