<svg xmlns="http://www.w3.org/2000/svg" width="230.4" height="179.2"><path d="M164.5 109.8q0-5.9-3.4-10.65t-8.7-6.85q-.7 4.5-2.3 9.2-.7 2.4-2.75 3.8t-4.45 1.4q-1.2 0-2.4-.3-3.1-1-4.5-3.85t-.4-5.85q2.3-7.1 2.3-14.3 0-12.3-6.1-22.75T115.2 43.1 92.4 37Q79 37 67.7 44.3T51 63.7q10.8 2.8 18.8 10.6 2.2 2.3 2.2 5.5t-2.2 5.4-5.4 2.2-5.5-2.2q-7.5-7.5-18-7.5-10.6 0-18.1 7.45t-7.5 18.05 7.5 18.05 18.1 7.45h104.6q7.9 0 13.45-5.55t5.55-13.35zm15.3 0q0 14.2-10.05 24.2t-24.25 10H40.9Q24 144 12 132.05T0 103.2q0-15.3 10-26.7t24.9-13.6Q41.1 44.5 57 33.1t35.4-11.4q23.5 0 40.85 15.85T152.9 76.5q11.6 2.5 19.25 11.85t7.65 21.45zm25 0q0 17.5-9.7 31.9-2.3 3.3-6.4 3.3-2.4 0-4.3-1.3-2.6-1.7-3.2-4.85t1.2-5.75q7.1-10.4 7.1-23.3t-7.1-23.3q-1.8-2.6-1.2-5.7t3.2-4.9 5.75-1.15T195.1 78q9.7 14.2 9.7 31.8zm25.6 0q0 24.4-13.4 44.3-2.3 3.4-6.4 3.4-2.3 0-4.2-1.3-2.6-1.8-3.25-4.9t1.15-5.7q10.8-16.4 10.8-35.8 0-19.5-10.8-35.7-1.8-2.6-1.15-5.75t3.25-4.85q2.6-1.8 5.7-1.2t4.9 3.3q13.4 19.8 13.4 44.2z"/></svg>