<svg xmlns="http://www.w3.org/2000/svg" width="153.6" height="179.2"><path d="M126.2 130.3q-5.4.9-11 .9-18.2 0-33.7-9T57 97.7 48 64q0-19.2 10.4-35.7-20.1 6-32.85 22.9T12.8 89.6q0 13 5.1 24.85t13.65 20.4 20.4 13.65 24.85 5.1q14.4 0 27.35-6.15t22.05-17.15zm20.3-8.5q-9.4 20.3-28.35 32.45T76.8 166.4q-15.6 0-29.8-6.1t-24.5-16.4-16.4-24.5T0 89.6q0-15.3 5.75-29.25t15.6-24.15T44.9 19.75t29-6.85q4.4-.2 6.1 3.9 1.8 4.1-1.5 7.2-8.6 7.8-13.15 18.15T60.8 64q0 14.8 7.3 27.3t19.8 19.8 27.3 7.3q11.8 0 22.8-5.1 4.1-1.8 7.2 1.3 1.4 1.4 1.75 3.4t-.45 3.8z"/></svg>