<svg xmlns="http://www.w3.org/2000/svg" version="1.1" width="230.4" height="179.2"><path d="M1774 700l18 -316q4 -69 -82 -128t-235 -93.5t-323 -34.5t-323 34.5t-235 93.5t-82 128l18 316l574 -181q22 -7 48 -7t48 7zM2304 1024q0 -23 -22 -31l-1120 -352q-4 -1 -10 -1t-10 1l-652 206q-43 -34 -71 -111.5t-34 -178.5q63 -36 63 -109q0 -69 -58 -107l58 -433 q2 -14 -8 -25q-9 -11 -24 -11h-192q-15 0 -24 11q-10 11 -8 25l58 433q-58 38 -58 107q0 73 65 111q11 207 98 330l-333 104q-22 8 -22 31t22 31l1120 352q4 1 10 1t10 -1l1120 -352q22 -8 22 -31z" transform="scale(0.1 -0.1) translate(0 -1536)" /></svg>
