<svg xmlns="http://www.w3.org/2000/svg" version="1.1" width="230.4" height="179.2"><path d="M2301 500q12 -103 -22 -198.5t-99 -163.5t-158.5 -106t-196.5 -31q-161 11 -279.5 125t-134.5 274q-12 111 27.5 210.5t118.5 170.5l-71 107q-96 -80 -151 -194t-55 -244q0 -27 -18.5 -46.5t-45.5 -19.5h-256h-69q-23 -164 -149 -274t-294 -110q-185 0 -316.5 131.5 t-131.5 316.5t131.5 316.5t316.5 131.5q76 0 152 -27l24 45q-123 110 -304 110h-64q-26 0 -45 19t-19 45t19 45t45 19h128q78 0 145 -13.5t116.5 -38.5t71.5 -39.5t51 -36.5h512h115l-85 128h-222q-30 0 -49 22.5t-14 52.5q4 23 23 38t43 15h253q33 0 53 -28l70 -105 l114 114q19 19 46 19h101q26 0 45 -19t19 -45v-128q0 -26 -19 -45t-45 -19h-179l115 -172q131 63 275 36q143 -26 244 -134.5t118 -253.5zM448 128q115 0 203 72.5t111 183.5h-314q-35 0 -55 31q-18 32 -1 63l147 277q-47 13 -91 13q-132 0 -226 -94t-94 -226t94 -226 t226 -94zM1856 128q132 0 226 94t94 226t-94 226t-226 94q-60 0 -121 -24l174 -260q15 -23 10 -49t-27 -40q-15 -11 -36 -11q-35 0 -53 29l-174 260q-93 -95 -93 -225q0 -132 94 -226t226 -94z" transform="scale(0.1 -0.1) translate(0 -1536)" /></svg>
