<svg xmlns="http://www.w3.org/2000/svg" width="230.4" height="179.2"><path d="M230.1 103.6q1.2 10.3-2.2 19.85T218 139.8t-15.85 10.6-19.65 3.1q-16.1-1.1-27.95-12.5t-13.45-27.4q-1.2-11.1 2.75-21.05T155.7 75.5l-7.1-10.7q-9.6 8-15.1 19.4t-5.5 24.4q0 2.7-1.85 4.65t-4.55 1.95H89.1q-2.3 16.4-14.9 27.4t-29.4 11q-18.5 0-31.65-13.15T0 108.8t13.15-31.65T44.8 64q7.6 0 15.2 2.7l2.4-4.5q-12.3-11-30.4-11h-6.4q-2.6 0-4.5-1.9t-1.9-4.5 1.9-4.5 4.5-1.9h12.8q7.8 0 14.5 1.35t11.65 3.85 7.15 3.95 5.1 3.65h62.7L131 38.4h-22.2q-3 0-4.9-2.25t-1.4-5.25q.4-2.3 2.3-3.8t4.3-1.5h25.3q3.3 0 5.3 2.8l7 10.5 11.4-11.4q1.9-1.9 4.6-1.9h10.1q2.6 0 4.5 1.9t1.9 4.5v12.8q0 2.6-1.9 4.5t-4.5 1.9h-17.9l11.5 17.2q13.1-6.3 27.5-3.6 14.3 2.6 24.4 13.45t11.8 25.35zM44.8 140.8q11.5 0 20.3-7.25t11.1-18.35H44.8q-3.5 0-5.5-3.1-1.8-3.2-.1-6.3l14.7-27.7q-4.7-1.3-9.1-1.3-13.2 0-22.6 9.4t-9.4 22.6 9.4 22.6 22.6 9.4zm140.8 0q13.2 0 22.6-9.4t9.4-22.6-9.4-22.6-22.6-9.4q-6 0-12.1 2.4l17.4 26q1.5 2.3 1 4.9t-2.7 4q-1.5 1.1-3.6 1.1-3.5 0-5.3-2.9l-17.4-26q-9.3 9.5-9.3 22.5 0 13.2 9.4 22.6t22.6 9.4z"/></svg>