<svg xmlns="http://www.w3.org/2000/svg" width="230.4" height="179.2"><path d="M230.4 76.8h-12.8v64h12.8v38.4H192v-12.8h-89.6v12.8H64v-38.4h12.8V128H38.4v12.8H0v-38.4h12.8v-64H0V0h38.4v12.8H128V0h38.4v38.4h-12.8v12.8H192V38.4h38.4v38.4zm-25.6-25.6V64h12.8V51.2h-12.8zm-64-38.4v12.8h12.8V12.8h-12.8zm-128 0v12.8h12.8V12.8H12.8zM25.6 128v-12.8H12.8V128h12.8zm128-12.8h-12.8V128h12.8v-12.8zm-115.2 0H128v-12.8h12.8v-64H128V25.6H38.4v12.8H25.6v64h12.8v12.8zm51.2 51.2v-12.8H76.8v12.8h12.8zm128 0v-12.8h-12.8v12.8h12.8zm-12.8-25.6v-64H192V64h-38.4v38.4h12.8v38.4H128V128H89.6v12.8h12.8v12.8H192v-12.8h12.8z"/></svg>