<svg xmlns="http://www.w3.org/2000/svg" width="230.4" height="179.2"><path d="M152.4 156.1q0 6.8-4.8 11.6t-11.6 4.8-11.65-4.8-4.85-11.6 4.85-11.65T136 139.6t11.6 4.85 4.8 11.65zm-74.9 0q0 6.8-4.85 11.6T61 172.5t-11.6-4.8-4.8-11.6 4.8-11.65T61 139.6t11.65 4.85 4.85 11.65zM0 6.7q5.7 6 11.05 10.45t12.1 8.2 13.6 6.3 16.6 4.55 20 3.15 25 1.85 30.4.95 37.25.25q13.9 0 24.45.5t18.1 1.65 12.4 2.75 7.1 3.95 2.4 5.15-1.95 6.4-5.65 7.65-8.95 9.1T202.3 90t-13.9 11.9q-18.5 15.7-28.6 24.7 2.9-5.1 7.65-10.9t9.4-10.55 9.45-9.85 8.3-9.15 5.4-8.05 1.3-7-4.55-5.55-11.65-4.1-20.4-2.35-30.4-.5q-16.8.2-31.4-.6t-25.6-2.3-20.45-4.1-15.95-5.15-12.25-6.25-9.15-6.65-6.8-7.15-5.05-6.95-4-6.8T0 6.7z"/></svg>