<svg xmlns="http://www.w3.org/2000/svg" version="1.1" width="179.2" height="179.2"><path d="M1493 1308q-165 110 -359 110q-155 0 -293 -73t-240 -200q-75 -93 -119.5 -218t-48.5 -266v-42q4 -141 48.5 -266t119.5 -218q102 -127 240 -200t293 -73q194 0 359 110q-121 -108 -274.5 -168t-322.5 -60q-29 0 -43 1q-175 8 -333 82t-272 193t-181 281t-67 339 q0 182 71 348t191 286t286 191t348 71h3q168 -1 320.5 -60.5t273.5 -167.5zM1792 640q0 -192 -77 -362.5t-213 -296.5q-104 -63 -222 -63q-137 0 -255 84q154 56 253.5 233t99.5 405q0 227 -99 404t-253 234q119 83 254 83q119 0 226 -65q135 -125 210.5 -295t75.5 -361z " transform="scale(0.1 -0.1) translate(0 -1536)" /></svg>
