<svg xmlns="http://www.w3.org/2000/svg" width="179.2" height="179.2"><path d="M149.3 22.8q-16.5-11-35.9-11-15.5 0-29.3 7.3t-24 20q-7.5 9.3-11.95 21.8T43.3 87.5v4.2q.4 14.1 4.85 26.6t11.95 21.8q10.2 12.7 24 20t29.3 7.3q19.4 0 35.9-11-12.1 10.8-27.45 16.8t-32.25 6q-2.9 0-4.3-.1-17.5-.8-33.3-8.2t-27.2-19.3-18.1-28.1T0 89.6q0-18.2 7.1-34.8t19.1-28.6T54.8 7.1 89.6 0h.3q16.8.1 32.05 6.05T149.3 22.8zm29.9 66.8q0 19.2-7.7 36.25t-21.3 29.65q-10.4 6.3-22.2 6.3-13.7 0-25.5-8.4 15.4-5.6 25.35-23.3t9.95-40.5q0-22.7-9.9-40.4t-25.3-23.4q11.9-8.3 25.4-8.3 11.9 0 22.6 6.5 13.5 12.5 21.05 29.5t7.55 36.1z"/></svg>