<svg xmlns="http://www.w3.org/2000/svg" width="140.8" height="179.2"><path d="M140.2 110.3q-3.2 8-7.6 13.8t-9.1 8.85-9.9 4.65-10.15 1.45-9.65-.85-8.65-2.2-6.95-2.75-4.6-2.25l-1.7-1q-11.3 22.8-28.95 35.95T4.5 179.2q-1.9 0-3.2-1.3T0 174.7t1.3-3.15 3.2-1.25q17.3-.1 32.25-10.75T61.9 130.1q-3.6 1.4-7.2 2.3t-8.3 1.3-9.1-.25-9.3-2.85-9.2-5.9-8.45-10-7.45-14.6q11.4-4.7 21.4-5.7t16.75.75 12.45 5.65 8.85 7.7 5.65 8.2q5.3-13.1 7.9-29.1-.7.1-1.8.25t-4.65.25-6.95-.05-8.15-1-8.85-2.3-8.4-4.25-7.5-6.5-5.45-9.45T21.3 51.8q7-2.8 13.35-3.65t11.25.1 9.2 3 7.35 5 5.6 6.1 4.2 6.3 2.75 5.6 1.6 3.95l.4 1.6q1.2-12.2 1.2-19.5-.8-.6-2.15-1.6t-4.9-4.45-6.35-7.15-5.4-9.3-3.3-11.25 1.2-12.7T64.3 0q7.3 2.5 12.75 6.15t8.45 7.65 4.8 8.5 2.05 8.9-.05 8.55T91 47.4t-1.9 6.2-1.7 4.2l-.7 1.5q.1.4.1 5t-.1 7.2q.3-.7 1-1.85t3.05-4.3 5.05-5.8 7.1-5.55 9.15-4.45 11.2-1.45 13.25 2.4q-.2 7.8-2.15 14.15t-5 10.45-6.95 7.15-8.15 4.55-8.45 2.4-8 .95-6.75-.1-4.65-.45l-1.7-.3q-2.3 14.7-7.3 28.3.6-.7 1.8-1.85t4.95-4.1 7.75-5.25 9.95-4.2 11.75-2 12.9 2.35 13.7 7.75z"/></svg>