<svg xmlns="http://www.w3.org/2000/svg" width="166.4" height="179.2"><path d="M78 47.2q0 6-1.9 11.35t-6.3 9.25-10.5 3.9q-7.6 0-13.8-5.75T36.3 52.4t-3-15.1q0-6 1.9-11.35t6.3-9.25T52 12.8q7.7 0 13.85 5.75T75 32.05t3 15.15zM43.8 95.5q0 8-4.2 13.9t-11.9 5.9q-7.6 0-14.15-5.55T3.5 96.4 0 81.2q0-8 4.2-13.95t11.9-5.95q7.6 0 14.15 5.55t10.05 13.4 3.5 15.25zm39.4-2.7q11.8 0 25.5 9.75t22.9 23.7 9.2 25.45q0 4.6-1.7 7.65t-4.85 4.5-6.45 2-7.6.55q-6.8 0-18.75-4.5t-18.25-4.5q-6.6 0-19.25 4.45T43.9 166.3q-18.3 0-18.3-14.6 0-8.6 5.6-19.15t13.95-19.25T63.9 98.7t19.3-5.9zm23.9-21.1q-6.1 0-10.5-3.9t-6.3-9.25-1.9-11.35q0-7.4 3-15.15t9.15-13.5 13.85-5.75q6.1 0 10.5 3.9t6.3 9.25 1.9 11.35q0 7.3-3 15.1t-9.2 13.55-13.8 5.75zm43.2-10.4q7.7 0 11.9 5.95t4.2 13.95q0 7.4-3.5 15.2t-10.05 13.35-14.15 5.55q-7.7 0-11.9-5.9t-4.2-13.9q0-7.4 3.5-15.25t10.05-13.4 14.15-5.55z"/></svg>