<svg xmlns="http://www.w3.org/2000/svg" width="140.8" height="179.2"><path d="M140.8 124q0 2.7-1 7.05t-2.1 6.85q-2.1 5-12.2 10.6-9.4 5.1-18.6 5.1-2.7 0-5.3-.35T95.85 152t-4.7-1.45-5.55-2.05-4.9-1.8q-9.8-3.5-17.5-8.3-12.7-7.9-26.4-21.6T15.2 90.4q-4.8-7.7-8.3-17.5-.3-.9-1.8-4.9t-2.05-5.55-1.45-4.7T.35 52 0 46.7q0-9.2 5.1-18.6Q10.7 18 15.7 15.9q2.5-1.1 6.85-2.1t7.05-1q1.4 0 2.1.3 1.8.6 5.3 7.6 1.1 1.9 3 5.4t3.5 6.35 3.1 5.35q.3.4 1.75 2.5t2.15 3.55.7 2.85q0 2-2.85 5t-6.2 5.5-6.2 5.3-2.85 4.6q0 .9.5 2.25t.85 2.05 1.4 2.4T37 75.7q7.6 13.7 17.4 23.5t23.5 17.4q.2.1 1.9 1.15t2.4 1.4 2.05.85 2.25.5q1.8 0 4.6-2.85t5.3-6.2 5.5-6.2 5-2.85q1.4 0 2.85.7t3.55 2.15 2.5 1.75q2.5 1.5 5.35 3.1t6.35 3.5 5.4 3q7 3.5 7.6 5.3.3.7.3 2.1z"/></svg>