<svg xmlns="http://www.w3.org/2000/svg" width="153.6" height="179.2"><path d="M104.6 102q0 6.4-3.8 10.9t-9.1 4.5q-4.3 0-7-1.5V88.2q2.8-1.7 7-1.7 5.3 0 9.1 4.55t3.8 10.95zM70.3 59.2q0 6.4-3.8 10.95t-9.1 4.55q-4.3 0-7-1.5V45.5q2.8-1.7 7-1.7 5.3 0 9.1 4.5t3.8 10.9zm56.2 43.1q0-13.4-8.8-22.9t-21.3-9.5q-2 0-3.9.3-2.3 7.8-7.8 13.6-8.7 9.5-21.1 10.1v63.6l21.1-4.1v-20.6q5.1 1.9 11.7 1.9 12.5 0 21.3-9.5t8.8-22.9zM92.2 59.6q0-13.4-8.85-22.9T62 27.2q-7.4 0-14.1 3.6H29.3v84l21.1-4.1V90.1Q55.9 92 62 92q12.5 0 21.35-9.5t8.85-22.9zm61.4-18v96q0 11.9-8.45 20.35t-20.35 8.45h-96q-11.9 0-20.35-8.45T0 137.6v-96q0-11.9 8.45-20.35T28.8 12.8h96q11.9 0 20.35 8.45t8.45 20.35z"/></svg>