<svg xmlns="http://www.w3.org/2000/svg" version="1.1" width="230.4" height="179.2"><path d="M2304 1536q-69 -46 -125 -92t-89 -81t-59.5 -71.5t-37.5 -57.5t-22 -44.5t-14 -29.5q-10 -18 -35.5 -136.5t-48.5 -164.5q-15 -29 -50 -60.5t-67.5 -50.5t-72.5 -41t-48 -28q-47 -31 -151 -231q-341 14 -630 -158q-92 -53 -303 -179q47 16 86 31t55 22l15 7 q71 27 163 64.5t133.5 53.5t108 34.5t142.5 31.5q186 31 465 -7q1 0 10 -3q11 -6 14 -17t-3 -22l-194 -345q-15 -29 -47 -22q-128 24 -354 24q-146 0 -402 -44.5t-392 -46.5q-82 -1 -149 13t-107 37t-61 40t-33 34l-1 1v2q0 6 6 6q138 0 371 55q192 366 374.5 524t383.5 158 q5 0 14.5 -0.5t38 -5t55 -12t61.5 -24.5t63 -39.5t54 -59t40 -82.5l102 177q2 4 21 42.5t44.5 86.5t61 109.5t84 133.5t100.5 137q66 82 128 141.5t121.5 96.5t92.5 53.5t88 39.5z" transform="scale(0.1 -0.1) translate(0 -1536)" /></svg>
