<svg xmlns="http://www.w3.org/2000/svg" width="203.8" height="179.2"><path d="M122.2 92.9q7.5-.3 14.35 2.05t11.8 5.85 10.1 9.45 8.4 10.8 7.55 12.05q3.3 5.6 7.85 10.9t7.55 8.05 9.9 8.85q-4.8 3-10.85 5.75t-13.85 5.9-11.4 4.75q-4.4-3.7-7.4-11.5t-4.35-16.45-3.3-18.05-4.25-16.85-7.25-12.3-12.25-4.85l-1 .2-.6.4q.4.5 1.3 1.4.6.5 2.8 2.35t2.55 2.2 1.9 1.8 1.8 2.05 1.15 2.1 1.05 2.75.45 3.1.4 4.05l.1 3.3q.1 2.6-.25 5.75t-.75 5.2-1.25 5.85-1.15 5.3q-3.5-.1-10.1.95t-9.8 1.05q-3.9 0-7.2-1-.2-1.6-.2-4.7 0-7.4.3-9.6.2-1.3 3.15-4.15t5.7-5.9 2.65-5.15q-2.4-.2-4.3 2.4-3.6 5.3-11.15 9.95T88.7 133.6q-2.5 0-7.55-6.3T70.5 113.35t-8.4-9.65q-.6-.4-2.7-3-48.2 11.2-51.3 11.2-1.6 0-2.8-1.1t-1.2-2.7q0-1.5.85-2.65T7.2 104l48.6-10.6Q55 92 55 90.9t.55-1.75 1.6-1.15 2-.7 2.3-.45 1.85-.45q.4-.1 1.55-.75T66.6 85q1.5 0 2.8 1.6t2 3.3q16.3-3.7 17.2-3.7 1.7 0 2.95 1.1t1.25 2.8q0 1.5-.85 2.6t-2.35 1.4l-18.2 4-.1 1.6q-.1 2.6 8.15 11.75t10.45 9.15q4.7 0 11.9-8t7.2-12.9q0-3.6-2.35-5.3t-5.1-1.85-5.1-1.15T94.1 88q0-1.6 1-3.4l-6.8-1.9q4.3-4.4 4.3-11.7 0-2.6-.5-5.8 8.2-1.6 14.4-1.6 4.4 0 7.15.15t4.85.85 3.1 1.35 2.05 2.45 1.55 3.35 1.7 4.75 2.4 6l5-2.5q-.3 4-2.3 6t-4.25 2.1-4 .65-1.65 2.05zm6-23.5q-.5-.5-1.35-1.55t-1.2-1.45-1.05-1.15-1-1.05l-.8-.8-.85-.75-.8-.5-.85-.45q-.7-.3-1.45-.5t-2.05-.25-2.2-.05h-7q-12.6 0-21.7 4.3 1.6-3 3.6-4.65t5.4-2.95 6.55-3.6 4.6-3.65 5-5.5 4.35-5.05q1.2.9 2.8 3.15t3.2 3.65 3.8 1.3l1.2-.1v7.6l2.2.1q24.7-9.5 37.1-19 2.8-2.1 5-3.9t4.25-3.75 3.3-3.1 2.95-3.4 2.4-3.1 2.45-3.7 2.3-3.8 2.7-4.75T194 1.7l.7-.9q-.2 5.3-4.3 13.9-7.9 16.5-20.5 26.4t-30.6 14.2q-1.4.3-4.2.75t-5 .95-3.9 1.4q.3 1.9 2.45 4.6t2.15 3.4q0 1.1-2.6 3zm-22.1 92.1q3.9-2.6 13.15-4.75t14.65-2.15q.9 0 2.25 1.55t2.8 4.25 2.6 5 2.4 5.1 1.45 3.3q-12.1 4.5-24.4 4.5-6.1 0-12.5-1.1zM82.2 96.8l4.8-1.2 10.9 17.7-7.3 4.8zm50.1 51.7q.3 1.5.3 1.6 0 .7-1.75 1.45t-4.6 1.3-5.4.95-5.35.75-3.2.45l-.7-4.3q2.1-.2 6.05-.85t7.2-1 6.05-.35h1.4zM86.6 85.7l-9.6 2-.6-1.7q1-.1 3.25-.7t3.45-.6q1.9 0 3.5 1zm19.5 63.4h3.1l1 8.3-4.1 1.2v-9.5zM195 .1V0v.1zm0 0-.1.5-.2.2.1-.3zm0 0 .1-.1z"/></svg>