<svg xmlns="http://www.w3.org/2000/svg" width="230.4" height="179.2"><path d="M230.4 0q-6.9 4.6-12.5 9.2t-8.9 8.1-5.95 7.15-3.75 5.75-2.2 4.45-1.4 2.95q-1 1.8-3.55 13.65T187.3 67.7q-1.5 2.9-5 6.05t-6.75 5.05-7.25 4.1-4.8 2.8q-4.7 3.1-15.1 23.1-34.1-1.4-63 15.8-9.2 5.3-30.3 17.9 4.7-1.6 8.6-3.1t5.5-2.2l1.5-.7q7.1-2.7 16.3-6.45t13.35-5.35 10.8-3.45 14.25-3.15q18.6-3.1 46.5.7.1 0 1 .3 1.1.6 1.4 1.7t-.3 2.2l-19.4 34.5q-1.5 2.9-4.7 2.2-12.8-2.4-35.4-2.4-14.6 0-40.2 4.45t-39.2 4.65q-8.2.1-14.9-1.3t-10.7-3.7-6.1-4T.1 154l-.1-.1v-.2q0-.6.6-.6 13.8 0 37.1-5.5Q56.9 111 75.15 95.2t38.35-15.8q.5 0 1.45.05t3.8.5 5.5 1.2 6.15 2.45 6.3 3.95 5.4 5.9 4 8.25L156.3 84q.2-.4 2.1-4.25t4.45-8.65 6.1-10.95 8.4-13.35 10.05-13.7q6.6-8.2 12.8-14.15t12.15-9.65 9.25-5.35T230.4 0z"/></svg>