<svg xmlns="http://www.w3.org/2000/svg" version="1.1" width="128.0" height="179.2"><path d="M0 939q0 108 37.5 203.5t103.5 166.5t152 123t185 78t202 26q158 0 294 -66.5t221 -193.5t85 -287q0 -96 -19 -188t-60 -177t-100 -149.5t-145 -103t-189 -38.5q-68 0 -135 32t-96 88q-10 -39 -28 -112.5t-23.5 -95t-20.5 -71t-26 -71t-32 -62.5t-46 -77.5t-62 -86.5 l-14 -5l-9 10q-15 157 -15 188q0 92 21.5 206.5t66.5 287.5t52 203q-32 65 -32 169q0 83 52 156t132 73q61 0 95 -40.5t34 -102.5q0 -66 -44 -191t-44 -187q0 -63 45 -104.5t109 -41.5q55 0 102 25t78.5 68t56 95t38 110.5t20 111t6.5 99.5q0 173 -109.5 269.5t-285.5 96.5 q-200 0 -334 -129.5t-134 -328.5q0 -44 12.5 -85t27 -65t27 -45.5t12.5 -30.5q0 -28 -15 -73t-37 -45q-2 0 -17 3q-51 15 -90.5 56t-61 94.5t-32.5 108t-11 106.5z" transform="scale(0.1 -0.1) translate(0 -1536)" /></svg>
