<svg xmlns="http://www.w3.org/2000/svg" width="166.4" height="179.2"><path d="M38.4 153.6H128V128H38.4v25.6zm0-64H128V51.2h-16q-4 0-6.8-2.8t-2.8-6.8v-16h-64v64zM153.6 96q0-2.6-1.9-4.5t-4.5-1.9-4.5 1.9-1.9 4.5 1.9 4.5 4.5 1.9 4.5-1.9 1.9-4.5zm12.8 0v41.6q0 1.3-.95 2.25t-2.25.95h-22.4v16q0 4-2.8 6.8t-6.8 2.8h-96q-4 0-6.8-2.8t-2.8-6.8v-16H3.2q-1.3 0-2.25-.95T0 137.6V96q0-7.9 5.65-13.55T19.2 76.8h6.4V22.4q0-4 2.8-6.8t6.8-2.8h67.2q4 0 8.8 2t7.6 4.8L134 34.8q2.8 2.8 4.8 7.6t2 8.8v25.6h6.4q7.9 0 13.55 5.65T166.4 96z"/></svg>