<svg xmlns="http://www.w3.org/2000/svg" width="166.4" height="179.2"><path d="M166.4 109.8q0 8.1-4.45 13.5t-12.35 5.4q-4.1 0-7.75-1.75t-5.9-3.8-5.65-3.8-7.1-1.75q-11 0-11 12.4 0 3.9 1.6 11.5t1.5 11.5v.5q-2.2 0-3.3.1-3.4.3-9.75 1.15T90.7 156.1t-9.8.5q-6.1 0-10.3-2.65t-4.2-8.35q0-3.7 1.75-7.1t3.8-5.65 3.8-5.9 1.75-7.75q0-7.9-5.4-12.35t-13.5-4.45q-8.4 0-14.3 4.55t-5.9 12.75q0 4.3 1.5 8.3t3.35 6.45 3.35 5.3 1.5 5.05q0 4.5-4.6 8.9-3.7 3.5-11.7 3.5-9.5 0-24.5-2.4-.9-.2-2.75-.4T1.8 154l-1.3-.2q-.1 0-.3-.1-.2 0-.2-.1V51.2q.2.1 1.75.35t3.4.5 2.15.35q15 2.4 24.5 2.4 8 0 11.7-3.5 4.6-4.4 4.6-8.9 0-2.2-1.5-5.05t-3.35-5.3-3.35-6.45-1.5-8.3q0-8.2 5.9-12.75T58.7 0q8 0 13.4 4.45t5.4 12.35q0 4.1-1.75 7.75t-3.8 5.9-3.8 5.65-1.75 7.1q0 5.7 4.2 8.35t10.3 2.65q6.4 0 18-1.5t16.3-1.7v.2q-.1.2-.35 1.75t-.5 3.4-.35 2.15q-2.4 15-2.4 24.5 0 8 3.5 11.7 4.4 4.6 8.9 4.6 2.2 0 5.05-1.5t5.3-3.35 6.45-3.35 8.3-1.5q8.2 0 12.75 5.9t4.55 14.3z"/></svg>