<svg xmlns="http://www.w3.org/2000/svg" width="179.2" height="179.2"><path d="M27 80.6q-.8-1.9-.8-5.2 0-2 1.1-4.9t2.4-4.5q-.1-2.2.75-5.3t2.25-4.3q0-13.9 9.25-28.85T63.7 6.6Q77.6 0 96.1 0q13.3 0 26.6 5.5 4.9 2.1 9 4.8t7.1 5.6 5.5 6.8 4.2 7.4 3.25 8.45 2.55 8.95 2.2 9.8l.1.5q5.5 8.3 5.5 15 0 1.4-.9 4t-.9 3.8q0 .1.15.35t.35.5.2.35q7.7 11.4 12.05 21.45t4.35 20.85q0 4.3-1.95 10t-5.55 5.7q-.9 0-1.95-.75t-1.9-1.75-1.9-2.6-1.6-2.65-1.35-2.6-.9-1.75q-.1-.1-.3-.1l-.5.4q-5.9 15.4-13.2 22.3 2 2 6.15 3.85t6.9 4.15 3.55 6.5q-.2.4-.4 1.6t-.7 1.8q-6.4 9.7-30.2 9.7-5.3 0-11.05-.9t-9.8-2-10.45-3q-1.5-.5-2.3-.7-1.4-.4-4.6-.45t-4-.15q-4.1 4.5-12.75 6.5t-16.85 2q-3.5 0-6.9-.15t-9.3-.9-10.1-2.05-7.45-4-3.25-6.4q0-4 1-5.95t4.1-4.85q1.1-.2 4.05-1.3t4.95-1.2q.4 0 1.4-.2.2-.2.2-.4l-.2-.3q-4.8-1.1-10.8-10.55t-7.3-15.65l-.5-.3q-.4 0-1.2 2-1.8 4.1-5.45 7.45T5.3 138.2h-.1q-.4 0-.6-.45t-.5-.55q-2.3-5.4-2.3-10 0-27.5 25.2-46.6z"/></svg>