<svg xmlns="http://www.w3.org/2000/svg" width="153.6" height="179.2"><path d="M89.6 137.6v-19.2q0-1.4-.9-2.3t-2.3-.9H67.2q-1.4 0-2.3.9t-.9 2.3v19.2q0 1.4.9 2.3t2.3.9h19.2q1.4 0 2.3-.9t.9-2.3zm25.6-67.2q0-8.8-5.55-16.3T95.8 42.5t-17-4.1q-24.3 0-37.1 21.3-1.5 2.4.8 4.2l13.2 10q.7.6 1.9.6 1.6 0 2.5-1.2 5.3-6.8 8.6-9.2 3.4-2.4 8.6-2.4 4.8 0 8.55 2.6t3.75 5.9q0 3.8-2 6.1t-6.8 4.5q-6.3 2.8-11.55 8.65T64 102v3.6q0 1.4.9 2.3t2.3.9h19.2q1.4 0 2.3-.9t.9-2.3q0-1.9 2.15-4.95t5.45-4.95q3.2-1.8 4.9-2.85t4.6-3.5 4.45-4.8 2.8-6.05 1.25-8.1zm38.4 19.2q0 20.9-10.3 38.55t-27.95 27.95-38.55 10.3-38.55-10.3-27.95-27.95T0 89.6t10.3-38.55T38.25 23.1 76.8 12.8t38.55 10.3 27.95 27.95 10.3 38.55z"/></svg>