<svg xmlns="http://www.w3.org/2000/svg" width="179.2" height="179.2"><path d="M125.5 78.7q0-31.8-10.5-47.45T82 15.6q-22.2 0-32.6 15.7T39 78.7q0 31.6 10.4 47.15T82 141.4q7.4 0 13.1-1.7-2.2-4.3-3.9-7.3t-4.4-6.5-5.35-5.65-6.3-3.6-7.75-1.45q-4.6 0-7.9 1.6l-4.9-9.7Q65.1 98 82.2 98q13.2 0 21.55 5.4t15.05 15.5q6.7-14.9 6.7-40.2zm39 63.2h11.7q.3 2.7-.2 6.7t-2.65 9.5-5.8 10.05-10.7 7.8-16.25 3.25q-7.1 0-13.05-1.9T117 171.7t-7.9-7.8-6.6-9.6Q92.8 157 82 157q-15 0-29.25-5.8t-25.3-15.85-17.8-24.9T2.9 78.7q0-17 6.75-31.95T27.5 21.7 52.85 5.8 82 0q12.1 0 23.85 3.6t21.7 10.6 17.6 16.45 11.95 21.9 4.3 26.15q0 19-8.05 34.75T131.5 139.9q4.7 7 9.35 10.65t10.45 3.65q6.1 0 9.4-3.75t3.8-8.55z"/></svg>