<svg xmlns="http://www.w3.org/2000/svg" version="1.1" width="179.2" height="179.2"><path d="M1255 749q0 318 -105 474.5t-330 156.5q-222 0 -326 -157t-104 -474q0 -316 104 -471.5t326 -155.5q74 0 131 17q-22 43 -39 73t-44 65t-53.5 56.5t-63 36t-77.5 14.5q-46 0 -79 -16l-49 97q105 91 276 91q132 0 215.5 -54t150.5 -155q67 149 67 402zM1645 117h117 q3 -27 -2 -67t-26.5 -95t-58 -100.5t-107 -78t-162.5 -32.5q-71 0 -130.5 19t-105.5 56t-79 78t-66 96q-97 -27 -205 -27q-150 0 -292.5 58t-253 158.5t-178 249t-67.5 317.5q0 170 67.5 319.5t178.5 250.5t253.5 159t291.5 58q121 0 238.5 -36t217 -106t176 -164.5 t119.5 -219t43 -261.5q0 -190 -80.5 -347.5t-218.5 -264.5q47 -70 93.5 -106.5t104.5 -36.5q61 0 94 37.5t38 85.5z" transform="scale(0.1 -0.1) translate(0 -1536)" /></svg>
