<svg xmlns="http://www.w3.org/2000/svg" version="1.1" width="217.6" height="179.2"><path d="M1143 -197q-6 1 -11 4q-13 8 -36 23t-86 65t-116.5 104.5t-112 140t-89.5 172.5q-17 3 -175 37q66 -213 235 -362t391 -184zM502 409l168 -28q-25 76 -41 167.5t-19 145.5l-4 53q-84 -82 -121 -224q5 -65 17 -114zM612 1018q-43 -64 -77 -148q44 46 74 68zM2049 584 q0 161 -62 307t-167.5 252t-250.5 168.5t-304 62.5q-147 0 -281 -52.5t-240 -148.5q-30 -58 -45 -160q60 51 143 83.5t158.5 43t143 13.5t108.5 -1l40 -3q33 -1 53 -15.5t24.5 -33t6.5 -37t-1 -28.5q-126 11 -227.5 0.5t-183 -43.5t-142.5 -71.5t-131 -98.5 q4 -36 11.5 -92.5t35.5 -178t62 -179.5q123 -6 247.5 14.5t214.5 53.5t162.5 67t109.5 59l37 24q22 16 39.5 20.5t30.5 -5t17 -34.5q14 -97 -39 -121q-208 -97 -467 -134q-135 -20 -317 -16q41 -96 110 -176.5t137 -127t130.5 -79t101.5 -43.5l39 -12q143 -23 263 15 q195 99 314 289t119 418zM2123 621q-14 -135 -40 -212q-70 -208 -181.5 -346.5t-318.5 -253.5q-48 -33 -82 -44q-72 -26 -163 -16q-36 -3 -73 -3q-283 0 -504.5 173t-295.5 442q-1 0 -4 0.5t-5 0.5q-6 -50 2.5 -112.5t26 -115t36 -98t31.5 -71.5l14 -26q8 -12 54 -82 q-71 38 -124.5 106.5t-78.5 140t-39.5 137t-17.5 107.5l-2 42q-5 2 -33.5 12.5t-48.5 18t-53 20.5t-57.5 25t-50 25.5t-42.5 27t-25 25.5q19 -10 50.5 -25.5t113 -45.5t145.5 -38l2 32q11 149 94 290q41 202 176 365q28 115 81 214q15 28 32 45t49 32q158 74 303.5 104 t302 11t306.5 -97q220 -115 333 -336t87 -474z" transform="scale(0.1 -0.1) translate(0 -1536)" /></svg>
