<svg xmlns="http://www.w3.org/2000/svg" version="1.1" width="179.2" height="179.2"><path d="M1095 369q16 -16 0 -31q-62 -62 -199 -62t-199 62q-16 15 0 31q6 6 15 6t15 -6q48 -49 169 -49q120 0 169 49q6 6 15 6t15 -6zM788 550q0 -37 -26 -63t-63 -26t-63.5 26t-26.5 63q0 38 26.5 64t63.5 26t63 -26.5t26 -63.5zM1183 550q0 -37 -26.5 -63t-63.5 -26t-63 26 t-26 63t26 63.5t63 26.5t63.5 -26t26.5 -64zM1434 670q0 49 -35 84t-85 35t-86 -36q-130 90 -311 96l63 283l200 -45q0 -37 26 -63t63 -26t63.5 26.5t26.5 63.5t-26.5 63.5t-63.5 26.5q-54 0 -80 -50l-221 49q-19 5 -25 -16l-69 -312q-180 -7 -309 -97q-35 37 -87 37 q-50 0 -85 -35t-35 -84q0 -35 18.5 -64t49.5 -44q-6 -27 -6 -56q0 -142 140 -243t337 -101q198 0 338 101t140 243q0 32 -7 57q30 15 48 43.5t18 63.5zM1792 640q0 -182 -71 -348t-191 -286t-286 -191t-348 -71t-348 71t-286 191t-191 286t-71 348t71 348t191 286t286 191 t348 71t348 -71t286 -191t191 -286t71 -348z" transform="scale(0.1 -0.1) translate(0 -1536)" /></svg>
