<svg xmlns="http://www.w3.org/2000/svg" version="1.1" width="179.2" height="179.2"><path d="M1792 690q0 -58 -29.5 -105.5t-79.5 -72.5q12 -46 12 -96q0 -155 -106.5 -287t-290.5 -208.5t-400 -76.5t-399.5 76.5t-290 208.5t-106.5 287q0 47 11 94q-51 25 -82 73.5t-31 106.5q0 82 58 140.5t141 58.5q85 0 145 -63q218 152 515 162l116 521q3 13 15 21t26 5 l369 -81q18 37 54 59.5t79 22.5q62 0 106 -43.5t44 -105.5t-44 -106t-106 -44t-105.5 43.5t-43.5 105.5l-334 74l-104 -472q300 -9 519 -160q58 61 143 61q83 0 141 -58.5t58 -140.5zM418 491q0 -62 43.5 -106t105.5 -44t106 44t44 106t-44 105.5t-106 43.5q-61 0 -105 -44 t-44 -105zM1228 136q11 11 11 26t-11 26q-10 10 -25 10t-26 -10q-41 -42 -121 -62t-160 -20t-160 20t-121 62q-11 10 -26 10t-25 -10q-11 -10 -11 -25.5t11 -26.5q43 -43 118.5 -68t122.5 -29.5t91 -4.5t91 4.5t122.5 29.5t118.5 68zM1225 341q62 0 105.5 44t43.5 106 q0 61 -44 105t-105 44q-62 0 -106 -43.5t-44 -105.5t44 -106t106 -44z" transform="scale(0.1 -0.1) translate(0 -1536)" /></svg>
