<svg xmlns="http://www.w3.org/2000/svg" width="179.2" height="179.2"><path d="M104.2 70.3q0-8.8-6-12.1-3.3-1.8-11.7-1.8H74.2v28.1h16.2q6.6 0 10.2-3.7t3.6-10.5zm5.2 28.5 20.5 37.3q.8 1.7-.1 3.1-.8 1.6-2.7 1.6h-15.2q-2 0-2.8-1.7l-19.4-36.5H74.2v35q0 1.4-.9 2.3t-2.3.9H57.6q-1.4 0-2.3-.9t-.9-2.3v-96q0-1.4.9-2.3t2.3-.9H87q12.8 0 19 2.4 8.5 3.1 13.4 10.9t4.9 18q0 9.2-4.25 16.55T108.5 97.2q.6 1 .9 1.6zM89.6 16q-15 0-28.6 5.85t-23.45 15.7T21.85 61 16 89.6t5.85 28.6 15.7 23.45T61 157.35t28.6 5.85 28.6-5.85 23.45-15.7 15.7-23.45 5.85-28.6-5.85-28.6-15.7-23.45-23.45-15.7T89.6 16zm89.6 73.6q0 18.2-7.1 34.8T153 153t-28.6 19.1-34.8 7.1-34.8-7.1T26.2 153 7.1 124.4 0 89.6t7.1-34.8 19.1-28.6T54.8 7.1 89.6 0t34.8 7.1T153 26.2t19.1 28.6 7.1 34.8z"/></svg>