<svg xmlns="http://www.w3.org/2000/svg" version="1.1" width="179.2" height="179.2"><path d="M19 662q8 217 116 406t305 318h5q0 -1 -1 -3q-8 -8 -28 -33.5t-52 -76.5t-60 -110.5t-44.5 -135.5t-14 -150.5t39 -157.5t108.5 -154q50 -50 102 -69.5t90.5 -11.5t69.5 23.5t47 32.5l16 16q39 51 53 116.5t6.5 122.5t-21 107t-26.5 80l-14 29q-10 25 -30.5 49.5t-43 41 t-43.5 29.5t-35 19l-13 6l104 115q39 -17 78 -52t59 -61l19 -27q1 48 -18.5 103.5t-40.5 87.5l-20 31l161 183l160 -181q-33 -46 -52.5 -102.5t-22.5 -90.5l-4 -33q22 37 61.5 72.5t67.5 52.5l28 17l103 -115q-44 -14 -85 -50t-60 -65l-19 -29q-31 -56 -48 -133.5t-7 -170 t57 -156.5q33 -45 77.5 -60.5t85 -5.5t76 26.5t57.5 33.5l21 16q60 53 96.5 115t48.5 121.5t10 121.5t-18 118t-37 107.5t-45.5 93t-45 72t-34.5 47.5l-13 17q-14 13 -7 13l10 -3q40 -29 62.5 -46t62 -50t64 -58t58.5 -65t55.5 -77t45.5 -88t38 -103t23.5 -117t10.5 -136 q3 -259 -108 -465t-312 -321t-456 -115q-185 0 -351 74t-283.5 198t-184 293t-60.5 353z" transform="scale(0.1 -0.1) translate(0 -1536)" /></svg>
