<svg xmlns="http://www.w3.org/2000/svg" width="153.6" height="179.2"><path d="M51.2 128q0-5.3-3.75-9.05t-9.05-3.75-9.05 3.75T25.6 128t3.75 9.05 9.05 3.75 9.05-3.75T51.2 128zm35.1 9.4Q85 114.1 68.65 97.75T29 80.1q-1.4-.1-2.4.9t-1 2.3v12.8q0 1.3.85 2.2t2.15 1Q44 100.4 55 111.4t12.1 26.4q.1 1.3 1 2.15t2.2.85h12.8q1.3 0 2.3-1t.9-2.4zm38.4.1q-.5-15.4-5.6-29.75t-13.95-26-20.5-20.5-26-13.95-29.75-5.6q-1.4-.1-2.3.9-1 1-1 2.3v12.8q0 1.3.9 2.2t2.2 1q20.4.7 37.8 11.15T94.35 99.9t11.15 37.8q.1 1.3 1 2.2t2.2.9h12.8q1.3 0 2.3-1 1.1-.9.9-2.3zm28.9-95.9v96q0 11.9-8.45 20.35t-20.35 8.45h-96q-11.9 0-20.35-8.45T0 137.6v-96q0-11.9 8.45-20.35T28.8 12.8h96q11.9 0 20.35 8.45t8.45 20.35z"/></svg>