<svg xmlns="http://www.w3.org/2000/svg" width="179.2" height="179.2"><path d="M94.9 89.3q0 2.6-1.65 4.5t-4.15 1.9q-2.6 0-4.5-1.65t-1.9-4.15q0-2.6 1.7-4.5t4.2-1.9 4.4 1.65 1.9 4.15zm1.5 5.8 35-58.1q-.9.8-6.75 6.25T112.1 54.9 98.45 67.6t-11.7 11.05-5.05 5.15l-34.9 58q.7-.7 6.7-6.2t12.6-11.65 13.6-12.7 11.7-11.1 5-5.05zm64.7-5.5q0 20.1-10.4 37.1-.3-.2-1.7-1.1t-2.65-1.65-1.65-.75q-1.3 0-1.3 1.3 0 1 5.9 4.4-7.4 11.2-18.45 19.05T106.7 159l-1.6-6.7q-.1-1-1.5-1-.5 0-.8.55t-.2.95l1.6 6.8q-7.2 1.5-14.6 1.5-19.9 0-37.2-10.5.1-.2 1.3-2.05t2.15-3.35.95-1.9q0-1.3-1.3-1.3-.6 0-1.7 1.45t-2.25 3.45-1.35 2.3q-11.3-7.5-19.2-18.75T20 106l6.9-1.5q1-.3 1-1.5 0-.5-.55-.8t-1.05-.2l-6.8 1.5q-1.4-7.2-1.4-13.9Q18.1 69 29 51.7q.2.1 1.85 1.2t3 1.9 1.75.8q1.3 0 1.3-1.2 0-.6-1.25-1.55T32.4 50.7l-2-1.2q7.7-11.2 18.9-18.9t24.4-10.7l1.5 6.7q.2 1 1.5 1 .5 0 .8-.55t.2-1.05l-1.5-6.6q7.1-1.3 13.4-1.3 20.4 0 37.9 10.9-3.9 5.6-3.9 6.5 0 1.3 1.2 1.3 1.1 0 4.8-6.4 11.1 7.5 18.75 18.6t10.75 24.1l-5.6 1.2q-1 .2-1 1.6 0 .5.55.8t.95.2l5.7-1.3q1.4 7.2 1.4 14zm8.5 0q0-16.3-6.35-31.1T146.2 33t-25.5-17.05T89.6 9.6t-31.1 6.35T33 33 15.95 58.5 9.6 89.6t6.35 31.1T33 146.2t25.5 17.05 31.1 6.35 31.1-6.35 25.5-17.05 17.05-25.5 6.35-31.1zm9.6 0q0 18.2-7.1 34.8T153 153t-28.6 19.1-34.8 7.1-34.8-7.1T26.2 153 7.1 124.4 0 89.6t7.1-34.8 19.1-28.6T54.8 7.1 89.6 0t34.8 7.1T153 26.2t19.1 28.6 7.1 34.8z"/></svg>