<svg xmlns="http://www.w3.org/2000/svg" width="153.6" height="179.2"><path d="M38.4 153.6h76.8v-38.4H38.4v38.4zm89.6 0h12.8V64q0-1.4-1-3.85t-2-3.45l-28.1-28.1q-1-1-3.4-2t-3.9-1v41.6q0 4-2.8 6.8t-6.8 2.8H35.2q-4 0-6.8-2.8t-2.8-6.8V25.6H12.8v128h12.8V112q0-4 2.8-6.8t6.8-2.8h83.2q4 0 6.8 2.8t2.8 6.8v41.6zM89.6 60.8v-32q0-1.3-.95-2.25t-2.25-.95H67.2q-1.3 0-2.25.95T64 28.8v32q0 1.3.95 2.25t2.25.95h19.2q1.3 0 2.25-.95t.95-2.25zm64 3.2v92.8q0 4-2.8 6.8t-6.8 2.8H9.6q-4 0-6.8-2.8T0 156.8V22.4q0-4 2.8-6.8t6.8-2.8h92.8q4 0 8.8 2t7.6 4.8l28 28q2.8 2.8 4.8 7.6t2 8.8z"/></svg>