<svg xmlns="http://www.w3.org/2000/svg" version="1.1" width="179.2" height="179.2"><path d="M128 128h1024v128h-1024v-128zM128 640h1024v128h-1024v-128zM1696 192q0 40 -28 68t-68 28t-68 -28t-28 -68t28 -68t68 -28t68 28t28 68zM128 1152h1024v128h-1024v-128zM1696 704q0 40 -28 68t-68 28t-68 -28t-28 -68t28 -68t68 -28t68 28t28 68zM1696 1216 q0 40 -28 68t-68 28t-68 -28t-28 -68t28 -68t68 -28t68 28t28 68zM1792 384v-384h-1792v384h1792zM1792 896v-384h-1792v384h1792zM1792 1408v-384h-1792v384h1792z" transform="scale(0.1 -0.1) translate(0 -1536)" /></svg>
