<svg xmlns="http://www.w3.org/2000/svg" width="166.4" height="179.2"><path d="M140.8 98.9v25.9q0 11.9-8.45 20.35T112 153.6H28.8q-11.9 0-20.35-8.45T0 124.8V41.6q0-11.9 8.45-20.35T28.8 12.8h25.5q1.3 0 2.25.95T57.5 16q0 2.7-2.6 3.2-7.7 2.6-13.3 6-1 .4-1.6.4H28.8q-6.6 0-11.3 4.7t-4.7 11.3v83.2q0 6.6 4.7 11.3t11.3 4.7H112q6.6 0 11.3-4.7t4.7-11.3v-21.4q0-1.9 1.8-2.9 2.8-1.3 5.4-3.7 1.6-1.6 3.5-.8 2.1.9 2.1 2.9zm23.7-49.6-38.4 38.4q-1.8 1.9-4.5 1.9-1.2 0-2.5-.5-3.9-1.7-3.9-5.9V64h-16q-32.3 0-43.8 13.1-11.9 13.7-7.4 47.3.3 2.3-2 3.4-.8.2-1.2.2-1.6 0-2.6-1.3-1-1.4-2.1-3.1t-3.95-6.85-4.95-9.95-3.85-11.4-1.75-12.2q0-4.9.35-9.1t1.4-9 2.8-8.8 4.7-8.15 6.85-7.4 9.45-6.15 12.45-4.85 15.95-3.05 19.65-1.1h16V6.4q0-4.2 3.9-5.9 1.3-.5 2.5-.5 2.6 0 4.5 1.9l38.4 38.4q1.9 1.9 1.9 4.5t-1.9 4.5z"/></svg>