<svg xmlns="http://www.w3.org/2000/svg" version="1.1" width="204.8" height="179.2"><path d="M1811 -19q19 19 45 19t45 -19l128 -128l-90 -90l-83 83l-83 -83q-18 -19 -45 -19t-45 19l-83 83l-83 -83q-19 -19 -45 -19t-45 19l-83 83l-83 -83q-19 -19 -45 -19t-45 19l-83 83l-83 -83q-19 -19 -45 -19t-45 19l-83 83l-83 -83q-19 -19 -45 -19t-45 19l-83 83l-83 -83 q-19 -19 -45 -19t-45 19l-83 83l-83 -83q-19 -19 -45 -19t-45 19l-128 128l90 90l83 -83l83 83q19 19 45 19t45 -19l83 -83l83 83q19 19 45 19t45 -19l83 -83l83 83q19 19 45 19t45 -19l83 -83l83 83q19 19 45 19t45 -19l83 -83l83 83q19 19 45 19t45 -19l83 -83l83 83 q19 19 45 19t45 -19l83 -83zM237 19q-19 -19 -45 -19t-45 19l-128 128l90 90l83 -82l83 82q19 19 45 19t45 -19l83 -82l64 64v293l-210 314q-17 26 -7 56.5t40 40.5l177 58v299h128v128h256v128h256v-128h256v-128h128v-299l177 -58q30 -10 40 -40.5t-7 -56.5l-210 -314 v-293l19 18q19 19 45 19t45 -19l83 -82l83 82q19 19 45 19t45 -19l128 -128l-90 -90l-83 83l-83 -83q-18 -19 -45 -19t-45 19l-83 83l-83 -83q-19 -19 -45 -19t-45 19l-83 83l-83 -83q-19 -19 -45 -19t-45 19l-83 83l-83 -83q-19 -19 -45 -19t-45 19l-83 83l-83 -83 q-19 -19 -45 -19t-45 19l-83 83l-83 -83q-19 -19 -45 -19t-45 19l-83 83zM640 1152v-128l384 128l384 -128v128h-128v128h-512v-128h-128z" transform="scale(0.1 -0.1) translate(0 -1536)" /></svg>
