<svg xmlns="http://www.w3.org/2000/svg" width="153.6" height="179.2"><path d="M0 0h153.6v139.2L76 173 0 139.2V0zm143.6 132.7V40.1H10v92.6l66.1 29.4zm0-102.6V10H10v20.1h133.6zM18.1 59.9v11.5h-3.7V59.9h3.7zm0 14.8v11.5h-3.7V74.7h3.7zm0 14.8V101h-3.7V89.5h3.7zm0 14.8v11.5h-3.7v-11.5h3.7zm0 14.8v11.5h-3.7v-11.5h3.7zm2.6 14.3 1.5-3.4 10.5 4.7-1.5 3.3zm13.6 6 1.5-3.4 10.5 4.6-1.5 3.4zm13.5 6 1.5-3.4 10.5 4.6-1.5 3.4zm13.6 5.9 1.5-3.3 10.4 4.6-1.5 3.4zm18.3 1.3 10.5-4.6 1.5 3.3-10.5 4.7zm13.5-6 10.5-4.6 1.5 3.4-10.5 4.6zm13.6-6 10.5-4.6 1.5 3.4-10.5 4.6zm13.5-5.9 10.5-4.7 1.5 3.4-10.5 4.6zm-94.4-120v3.6H14.5v-3.6h11.4zm16.2 0v3.6H30.6v-3.6h11.5zm16.2 0v3.6H46.8v-3.6h11.5zm16.1 0v3.6H63v-3.6h11.4zm16.2 0v3.6H79.2v-3.6h11.4zm16.2 0v3.6H95.3v-3.6h11.5zm16.2 0v3.6h-11.5v-3.6H123zm16.1 0v3.6h-11.4v-3.6h11.4zm-121 34v7.9h-3.7V45.1h11.5v3.6h-7.8zm24-3.6v3.6H30.6v-3.6h11.5zm16.2 0v3.6H46.8v-3.6h11.5zm16.1 0v3.6H63v-3.6h11.4zm16.2 0v3.6H79.2v-3.6h11.4zm16.2 0v3.6H95.3v-3.6h11.5zm16.2 0v3.6h-11.5v-3.6H123zm12.5 11.5v-7.9h-7.8v-3.6h11.5v11.5h-3.7zm0 14.8V59.9h3.7v11.5h-3.7zm0 14.8V74.7h3.7v11.5h-3.7zm0 14.8V89.5h3.7V101h-3.7zm0 14.8v-11.5h3.7v11.5h-3.7zm0 14.8v-11.5h3.7v11.5h-3.7zM76 127.1q-12.9 0-22.1-9.15T44.7 95.8q0-12.9 9.2-22.1T76 64.5q13 0 22.15 9.2t9.15 22.1q0 13-9.15 22.15T76 127.1zM59.5 89q0 3.6 1.95 5.65t4.95 2.5 6.4.7 6.4.2 4.95.9T86.1 102q0 4.9-11.2 4.9-9.7 0-12.3-5.1h-.3l-3.1 6.3q6.7 4.2 16.2 4.2 2.9 0 5.65-.5t5.55-1.6 4.55-3.3 1.75-5.3q0-4.6-2.75-6.95t-6.75-2.7-7.95-.3-6.7-.5T66 88.6q0-2.1 2.05-3.3t4.05-1.5 4.1-.3q3.4 0 7.05 1.1T88.4 88h.3l3-5.8q-.3-.1-2.1-.85t-2.25-.9-1.95-.7-2.2-.7-2-.45-2.4-.4-2.3-.1q-2.9 0-5.65.5t-5.4 1.65-4.3 3.4T59.5 89z"/></svg>