<svg xmlns="http://www.w3.org/2000/svg" width="166.4" height="179.2"><path d="M64 153.6q0 5.2-3.8 9t-9 3.8-9-3.8-3.8-9 3.8-9 9-3.8 9 3.8 3.8 9zm89.6 0q0 5.2-3.8 9t-9 3.8-9-3.8-3.8-9 3.8-9 9-3.8 9 3.8 3.8 9zm12.8-108.8V96q0 2.4-1.65 4.25t-4.05 2.15L56.3 114.6q1.3 6 1.3 7 0 1.6-2.4 6.4h92q2.6 0 4.5 1.9t1.9 4.5-1.9 4.5-4.5 1.9H44.8q-2.6 0-4.5-1.9t-1.9-4.5q0-1.1.8-3.15t1.6-3.6 2.15-4 1.55-2.95L26.8 38.4H6.4q-2.6 0-4.5-1.9T0 32t1.9-4.5 4.5-1.9H32q1.6 0 2.85.65t1.95 1.55 1.3 2.45.8 2.6.55 2.95.45 2.6H160q2.6 0 4.5 1.9t1.9 4.5z"/></svg>