<svg xmlns="http://www.w3.org/2000/svg" width="192" height="179.2"><path d="M143.3 24.9q1 1 1 2.3t-1 2.3L80.7 92.1q-1 1-2.3 1t-2.3-1l-8.2-8.2q-1-1-1-2.3t1-2.3l4.4-4.4q-7.2-9.1-8.15-20.7t4.65-21.5q-7.4-7.1-17.6-7.1-10.6 0-18.1 7.5t-7.5 18.1v128H0v-128q0-10.4 4.05-19.85T15 15 31.35 4.05 51.2 0q10.6 0 20.1 4.1t16.6 11.5q9.4-3.9 19.7-2.45t18.5 7.95l4.4-4.4q1-1 2.3-1t2.3 1zm-8.9 26.3q2.6 0 4.5 1.9t1.9 4.5-1.9 4.5-4.5 1.9-4.5-1.9-1.9-4.5 1.9-4.5 4.5-1.9zM160 64q-2.6 0-4.5-1.9t-1.9-4.5 1.9-4.5 4.5-1.9 4.5 1.9 1.9 4.5-1.9 4.5T160 64zm25.6-12.8q2.6 0 4.5 1.9t1.9 4.5-1.9 4.5-4.5 1.9-4.5-1.9-1.9-4.5 1.9-4.5 4.5-1.9zm-64 12.8q2.6 0 4.5 1.9t1.9 4.5-1.9 4.5-4.5 1.9-4.5-1.9-1.9-4.5 1.9-4.5 4.5-1.9zm19.2 6.4q0-2.6 1.9-4.5t4.5-1.9 4.5 1.9 1.9 4.5-1.9 4.5-4.5 1.9-4.5-1.9-1.9-4.5zm32-6.4q2.6 0 4.5 1.9t1.9 4.5-1.9 4.5-4.5 1.9-4.5-1.9-1.9-4.5 1.9-4.5 4.5-1.9zm-64 12.8q2.6 0 4.5 1.9t1.9 4.5-1.9 4.5-4.5 1.9-4.5-1.9-1.9-4.5 1.9-4.5 4.5-1.9zm25.6 12.8q-2.6 0-4.5-1.9t-1.9-4.5 1.9-4.5 4.5-1.9 4.5 1.9 1.9 4.5-1.9 4.5-4.5 1.9zM160 76.8q2.6 0 4.5 1.9t1.9 4.5-1.9 4.5-4.5 1.9-4.5-1.9-1.9-4.5 1.9-4.5 4.5-1.9zm-38.4 25.6q-2.6 0-4.5-1.9t-1.9-4.5 1.9-4.5 4.5-1.9 4.5 1.9T128 96t-1.9 4.5-4.5 1.9zm25.6-12.8q2.6 0 4.5 1.9t1.9 4.5-1.9 4.5-4.5 1.9-4.5-1.9-1.9-4.5 1.9-4.5 4.5-1.9zm-38.4 12.8q2.6 0 4.5 1.9t1.9 4.5-1.9 4.5-4.5 1.9-4.5-1.9-1.9-4.5 1.9-4.5 4.5-1.9zm25.6 0q2.6 0 4.5 1.9t1.9 4.5-1.9 4.5-4.5 1.9-4.5-1.9-1.9-4.5 1.9-4.5 4.5-1.9zm-12.8 12.8q2.6 0 4.5 1.9t1.9 4.5-1.9 4.5-4.5 1.9-4.5-1.9-1.9-4.5 1.9-4.5 4.5-1.9zM108.8 128q2.6 0 4.5 1.9t1.9 4.5-1.9 4.5-4.5 1.9-4.5-1.9-1.9-4.5 1.9-4.5 4.5-1.9z"/></svg>