<svg xmlns="http://www.w3.org/2000/svg" version="1.1" width="179.2" height="179.2"><path d="M256 96v-192q0 -14 -9 -23t-23 -9h-192q-14 0 -23 9t-9 23v192q0 14 9 23t23 9h192q14 0 23 -9t9 -23zM640 224v-320q0 -14 -9 -23t-23 -9h-192q-14 0 -23 9t-9 23v320q0 14 9 23t23 9h192q14 0 23 -9t9 -23zM1024 480v-576q0 -14 -9 -23t-23 -9h-192q-14 0 -23 9t-9 23 v576q0 14 9 23t23 9h192q14 0 23 -9t9 -23zM1408 864v-960q0 -14 -9 -23t-23 -9h-192q-14 0 -23 9t-9 23v960q0 14 9 23t23 9h192q14 0 23 -9t9 -23zM1792 1376v-1472q0 -14 -9 -23t-23 -9h-192q-14 0 -23 9t-9 23v1472q0 14 9 23t23 9h192q14 0 23 -9t9 -23z" transform="scale(0.1 -0.1) translate(0 -1536)" /></svg>
