<svg xmlns="http://www.w3.org/2000/svg" width="179.2" height="179.2"><path d="M87.3 74q0 8.3-6.35 14.25T65.7 94.2t-15.25-5.95T44.1 74q0-8.4 6.35-14.3t15.25-5.9 15.25 5.9T87.3 74zm50.2 0q0 8.3-6.3 14.25t-15.3 5.95q-8.9 0-15.25-5.95T94.3 74q0-8.4 6.35-14.3t15.25-5.9q9 0 15.3 5.9t6.3 14.3zM160 92V25.3q0-8.7-3.2-12.35T145.7 9.3H34.5q-8.3 0-11.25 3.4T20.3 25.3v67.3q4.3 2.3 8.85 4t8.1 2.8 8.1 1.85 7.1 1.1 7 .4 5.85.05 5.65-.2 4.45-.2q6.8-.1 9.5 2.7.6.6 1 .9 2.6 2.5 6.1 5.1.7-9.1 11.8-8.7.5 0 3.65.15t4.3.2 4.55.1 5.3-.1 5.45-.45 6.1-.85 6.2-1.35 6.7-1.95 6.75-2.7T160 92zm16.3-.5q-12.1 14.9-37.2 25.2 8.4 28.5-2.3 46.5-6.6 11.3-18.3 14.8-10.4 3.2-18.2-1.5-8.6-5.1-8.2-16.4l-.1-32.6v-.1q-.8-.2-2.45-.6t-2.35-.5l-.1 33.8q.4 11.4-8.3 16.4-7.9 4.7-18.3 1.5-11.7-3.6-18.2-15-10.5-18-2.2-46.3Q15 106.4 2.9 91.5q-2.5-3.7-.4-6.3t6 .1q.4.2 1.15.7t1.05.8V17.4q0-7.2 4.7-12.3T26.8 0h125.7q6.7 0 11.4 5.1t4.7 12.3v69.4l2.1-1.5q3.9-2.7 6-.1t-.4 6.3z"/></svg>