<svg xmlns="http://www.w3.org/2000/svg" version="1.1" width="179.2" height="179.2"><path d="M873 796q0 -83 -63.5 -142.5t-152.5 -59.5t-152.5 59.5t-63.5 142.5q0 84 63.5 143t152.5 59t152.5 -59t63.5 -143zM1375 796q0 -83 -63 -142.5t-153 -59.5q-89 0 -152.5 59.5t-63.5 142.5q0 84 63.5 143t152.5 59q90 0 153 -59t63 -143zM1600 616v667q0 87 -32 123.5 t-111 36.5h-1112q-83 0 -112.5 -34t-29.5 -126v-673q43 -23 88.5 -40t81 -28t81 -18.5t71 -11t70 -4t58.5 -0.5t56.5 2t44.5 2q68 1 95 -27q6 -6 10 -9q26 -25 61 -51q7 91 118 87q5 0 36.5 -1.5t43 -2t45.5 -1t53 1t54.5 4.5t61 8.5t62 13.5t67 19.5t67.5 27t72 34.5z M1763 621q-121 -149 -372 -252q84 -285 -23 -465q-66 -113 -183 -148q-104 -32 -182 15q-86 51 -82 164l-1 326v1q-8 2 -24.5 6t-23.5 5l-1 -338q4 -114 -83 -164q-79 -47 -183 -15q-117 36 -182 150q-105 180 -22 463q-251 103 -372 252q-25 37 -4 63t60 -1q4 -2 11.5 -7 t10.5 -8v694q0 72 47 123t114 51h1257q67 0 114 -51t47 -123v-694l21 15q39 27 60 1t-4 -63z" transform="scale(0.1 -0.1) translate(0 -1536)" /></svg>
