<svg xmlns="http://www.w3.org/2000/svg" version="1.1" width="166.4" height="179.2"><path d="M848 1408q134 1 240.5 -68.5t163.5 -192.5q27 -58 27 -179q0 -47 -9 -191q14 -7 28 -7q18 0 51 13.5t51 13.5q29 0 56 -18t27 -46q0 -32 -31.5 -54t-69 -31.5t-69 -29t-31.5 -47.5q0 -15 12 -43q37 -82 102.5 -150t144.5 -101q28 -12 80 -23q28 -6 28 -35 q0 -70 -219 -103q-7 -11 -11 -39t-14 -46.5t-33 -18.5q-20 0 -62 6.5t-64 6.5q-37 0 -62 -5q-32 -5 -63 -22.5t-58 -38t-58 -40.5t-76 -33.5t-99 -13.5q-52 0 -96.5 13.5t-75 33.5t-57.5 40.5t-58 38t-62 22.5q-26 5 -63 5q-24 0 -65.5 -7.5t-58.5 -7.5q-25 0 -35 18.5 t-14 47.5t-11 40q-219 33 -219 103q0 29 28 35q52 11 80 23q78 32 144.5 101t102.5 150q12 28 12 43q0 28 -31.5 47.5t-69.5 29.5t-69.5 31.5t-31.5 52.5q0 27 26 45.5t55 18.5q15 0 48 -13t53 -13q18 0 32 7q-9 142 -9 190q0 122 27 180q64 137 172 198t264 63z" transform="scale(0.1 -0.1) translate(0 -1536)" /></svg>
