<svg xmlns="http://www.w3.org/2000/svg" width="166.4" height="179.2"><path d="M84.8 12.8q13.4-.1 24.05 6.85T125.2 38.9q2.7 5.8 2.7 17.9 0 4.7-.9 19.1 1.4.7 2.8.7 1.8 0 5.1-1.35t5.1-1.35q2.9 0 5.6 1.8t2.7 4.6q0 3.2-3.15 5.4t-6.9 3.15-6.9 2.9-3.15 4.75q0 1.5 1.2 4.3 3.7 8.2 10.25 15t14.45 10.1q2.8 1.2 8 2.3 2.8.6 2.8 3.5 0 7-21.9 10.3-.7 1.1-1.1 3.9t-1.4 4.65-3.3 1.85q-2 0-6.2-.65t-6.4-.65q-3.7 0-6.2.5-3.2.5-6.3 2.25t-5.8 3.8-5.8 4.05-7.6 3.35-9.9 1.35q-5.2 0-9.65-1.35t-7.5-3.35-5.75-4.05-5.8-3.8-6.2-2.25q-2.6-.5-6.3-.5-2.4 0-6.55.75t-5.85.75q-2.5 0-3.5-1.85T24.5 146t-1.1-4q-21.9-3.3-21.9-10.3 0-2.9 2.8-3.5 5.2-1.1 8-2.3 7.8-3.2 14.45-10.1t10.25-15q1.2-2.8 1.2-4.3 0-2.8-3.15-4.75T28.1 88.8t-6.95-3.15T18 80.4q0-2.7 2.6-4.55T26.1 74q1.5 0 4.8 1.3t5.3 1.3q1.8 0 3.2-.7-.9-14.2-.9-19 0-12.2 2.7-18 6.4-13.7 17.2-19.8t26.4-6.3z"/></svg>