<svg xmlns="http://www.w3.org/2000/svg" width="166.4" height="179.2"><path d="m156.6 111.7-16.7 3.3 18.6 10.7q2.3 1.3 2.95 3.85t-.65 4.85q-1.4 2.3-3.9 2.95t-4.8-.65l-18.6-10.6 5.5 16q1.3 3.8-1.2 6.35t-6.05 2.05-4.85-4.2l-10.2-30-27.1-15.6V132l20.8 23.8q1.6 1.8 1.7 3.9t-1.1 3.65-2.85 2.5-3.7.55-3.65-2.2l-11.2-12.8v21.4q0 2.6-1.9 4.5t-4.5 1.9-4.5-1.9-1.9-4.5v-21.4l-11.2 12.8q-1.6 1.8-3.65 2.2t-3.7-.55-2.85-2.5-1.1-3.65 1.7-3.9L76.8 132v-31.3l-27.1 15.6-10.2 30q-1.3 3.7-4.85 4.2t-6.05-2.05-1.2-6.35l5.5-16-18.6 10.6q-2.3 1.3-4.8.65t-3.9-2.95q-1.3-2.3-.65-4.85t2.95-3.85L26.5 115l-16.7-3.3q-2.9-.6-4.2-2.9t-.85-4.65 2.55-4 5-1.05l31 6.2 27.1-15.7-27.1-15.7-31 6.2q-.4.1-1.3.1-2.7 0-4.4-1.8t-1.9-4 1.1-4.3 4-2.6l16.7-3.3L7.9 53.5q-2.3-1.3-2.95-3.85t.65-4.85 3.9-3 4.8.7l18.6 10.6-5.5-16q-1.3-3.8 1.2-6.35t6.05-2.05 4.85 4.2l10.2 30 27.1 15.6V47.2L56 23.4q-1.6-1.8-1.7-3.9t1.1-3.65 2.85-2.5 3.7-.55T65.6 15l11.2 12.8V6.4q0-2.6 1.9-4.5T83.2 0t4.5 1.9 1.9 4.5v21.4L100.8 15q1.6-1.8 3.65-2.2t3.7.55 2.85 2.5 1.1 3.65-1.7 3.9L89.6 47.2v31.3l27.1-15.6 10.2-30q1.3-3.7 4.85-4.2t6.05 2.05 1.2 6.35l-5.5 16 18.6-10.6q2.3-1.3 4.8-.65t3.9 2.95q1.3 2.3.65 4.85t-2.95 3.85l-18.6 10.7 16.7 3.3q2.7.5 4 2.6t1.1 4.3-1.9 4-4.4 1.8q-.9 0-1.3-.1l-31-6.2L96 89.6l27.1 15.7 31-6.2q2.9-.6 5 1.05t2.55 4-.85 4.65-4.2 2.9z"/></svg>