<svg xmlns="http://www.w3.org/2000/svg" version="1.1" width="179.2" height="179.2"><path d="M1216 -32v-192q0 -14 -9 -23t-23 -9h-256q-14 0 -23 9t-9 23v192q0 14 9 23t23 9h256q14 0 23 -9t9 -23zM736 96q0 -12 -10 -24l-319 -319q-10 -9 -23 -9q-12 0 -23 9l-320 320q-15 16 -7 35q8 20 30 20h192v1376q0 14 9 23t23 9h192q14 0 23 -9t9 -23v-1376h192 q14 0 23 -9t9 -23zM1408 480v-192q0 -14 -9 -23t-23 -9h-448q-14 0 -23 9t-9 23v192q0 14 9 23t23 9h448q14 0 23 -9t9 -23zM1600 992v-192q0 -14 -9 -23t-23 -9h-640q-14 0 -23 9t-9 23v192q0 14 9 23t23 9h640q14 0 23 -9t9 -23zM1792 1504v-192q0 -14 -9 -23t-23 -9h-832 q-14 0 -23 9t-9 23v192q0 14 9 23t23 9h832q14 0 23 -9t9 -23z" transform="scale(0.1 -0.1) translate(0 -1536)" /></svg>
