<svg xmlns="http://www.w3.org/2000/svg" width="166.4" height="179.2"><path d="M119.1 143.2h17.7l-7.2-21.8-1.2-4.7q-.2-1.6-.2-2h-.4l-.3 2q0 .1-.35 1.8t-.75 2.9zm-45.5.8q0 1.2-1 2.4l-31.9 31.9q-1 .9-2.3.9-1.2 0-2.3-.9l-32-32q-1.5-1.6-.7-3.5.8-2 3-2h19.2V3.2q0-1.4.9-2.3t2.3-.9H48q1.4 0 2.3.9t.9 2.3v137.6h19.2q1.4 0 2.3.9t.9 2.3zm92.5 24.6v10.6h-28.8v-10.6h7.5l-4.7-14.4h-24.3l-4.7 14.4h7.5v10.6H89.9v-10.6h7l23-66.2h16.2l23 66.2h7zm-8.9-115.1v23.3H98.8v-9l36.9-52.9q1.2-1.8 2.1-2.7l1.1-.9V11q-.2 0-.65.05t-.75.05q-1.2.3-3 .3h-23.2v11.5h-12V0H156v8.9l-36.9 53q-.6.8-2.1 2.6l-1.1 1v.3l1.4-.3q.9-.1 3-.1h24.8V53.5h12.1z"/></svg>