<svg xmlns="http://www.w3.org/2000/svg" width="153.6" height="179.2"><path d="M134.6 28.9q0-6.3-4.4-11.6T119.9 12q-5.2 0-8.3 3.7t-3.1 9.4 3.65 9.5 10.45 3.8q5 0 8.5-2.7t3.5-6.8zM73.6 144q0 1.2-1 2.4l-31.9 31.9q-1 .9-2.3.9-1.2 0-2.3-.9l-32-32q-1.5-1.6-.7-3.5.8-2 3-2h19.2V3.2q0-1.4.9-2.3t2.3-.9H48q1.4 0 2.3.9t.9 2.3v137.6h19.2q1.4 0 2.3.9t.9 2.3zm72 23.8v11.4H98.7v-11.4h16.7v-43.2q0-.7.05-1.9t.05-1.7v-1.6h-.2l-.7 1.2q-.8 1.3-2.6 3.1l-6.2 5.8-8.2-8.6 19.2-18.5h12.3v65.4h16.5zm3-133.1q0 6.2-1.3 12.15t-4.1 11.4-6.8 9.55-9.85 6.55-12.75 2.45q-6.2 0-10.8-1.6-2.4-.8-4.2-1.5l3.9-11.3q1.5.7 3.1 1.1 3.7 1.3 7.5 1.3 8.4 0 13.45-5.85t6.65-14.55h-.2q-2.1 2.3-6.15 3.7t-8.45 1.4q-10.6 0-17.3-7.15T94.6 25.1q0-10.5 7.2-17.8T119.9 0q12.3 0 20.5 9.45t8.2 25.25z"/></svg>