<svg xmlns="http://www.w3.org/2000/svg" width="179.2" height="179.2"><path d="M121.6 156.8V176q0 1.4-.9 2.3t-2.3.9H92.8q-1.4 0-2.3-.9t-.9-2.3v-19.2q0-1.4.9-2.3t2.3-.9h25.6q1.4 0 2.3.9t.9 2.3zm-48-12.8q0 1.2-1 2.4l-31.9 31.9q-1 .9-2.3.9-1.2 0-2.3-.9l-32-32q-1.5-1.6-.7-3.5.8-2 3-2h19.2V3.2q0-1.4.9-2.3t2.3-.9H48q1.4 0 2.3.9t.9 2.3v137.6h19.2q1.4 0 2.3.9t.9 2.3zm67.2-38.4v19.2q0 1.4-.9 2.3t-2.3.9H92.8q-1.4 0-2.3-.9t-.9-2.3v-19.2q0-1.4.9-2.3t2.3-.9h44.8q1.4 0 2.3.9t.9 2.3zM160 54.4v19.2q0 1.4-.9 2.3t-2.3.9h-64q-1.4 0-2.3-.9t-.9-2.3V54.4q0-1.4.9-2.3t2.3-.9h64q1.4 0 2.3.9t.9 2.3zm19.2-51.2v19.2q0 1.4-.9 2.3t-2.3.9H92.8q-1.4 0-2.3-.9t-.9-2.3V3.2q0-1.4.9-2.3t2.3-.9H176q1.4 0 2.3.9t.9 2.3z"/></svg>