<svg xmlns="http://www.w3.org/2000/svg" version="1.1" width="230.4" height="179.2"><path d="M784 164l16 241l-16 523q-1 10 -7.5 17t-16.5 7q-9 0 -16 -7t-7 -17l-14 -523l14 -241q1 -10 7.5 -16.5t15.5 -6.5q22 0 24 23zM1080 193l11 211l-12 586q0 16 -13 24q-8 5 -16 5t-16 -5q-13 -8 -13 -24l-1 -6l-10 -579q0 -1 11 -236v-1q0 -10 6 -17q9 -11 23 -11 q11 0 20 9q9 7 9 20zM35 533l20 -128l-20 -126q-2 -9 -9 -9t-9 9l-17 126l17 128q2 9 9 9t9 -9zM121 612l26 -207l-26 -203q-2 -9 -10 -9q-9 0 -9 10l-23 202l23 207q0 9 9 9q8 0 10 -9zM401 159zM213 650l25 -245l-25 -237q0 -11 -11 -11q-10 0 -12 11l-21 237l21 245 q2 12 12 12q11 0 11 -12zM307 657l23 -252l-23 -244q-2 -13 -14 -13q-13 0 -13 13l-21 244l21 252q0 13 13 13q12 0 14 -13zM401 639l21 -234l-21 -246q-2 -16 -16 -16q-6 0 -10.5 4.5t-4.5 11.5l-20 246l20 234q0 6 4.5 10.5t10.5 4.5q14 0 16 -15zM784 164zM495 785 l21 -380l-21 -246q0 -7 -5 -12.5t-12 -5.5q-16 0 -18 18l-18 246l18 380q2 18 18 18q7 0 12 -5.5t5 -12.5zM589 871l19 -468l-19 -244q0 -8 -5.5 -13.5t-13.5 -5.5q-18 0 -20 19l-16 244l16 468q2 19 20 19q8 0 13.5 -5.5t5.5 -13.5zM687 911l18 -506l-18 -242 q-2 -21 -22 -21q-19 0 -21 21l-16 242l16 506q0 9 6.5 15.5t14.5 6.5q9 0 15 -6.5t7 -15.5zM1079 169v0v0v0zM881 915l15 -510l-15 -239q0 -10 -7.5 -17.5t-17.5 -7.5t-17 7t-8 18l-14 239l14 510q0 11 7.5 18t17.5 7t17.5 -7t7.5 -18zM980 896l14 -492l-14 -236 q0 -11 -8 -19t-19 -8t-19 8t-9 19l-12 236l12 492q1 12 9 20t19 8t18.5 -8t8.5 -20zM1192 404l-14 -231v0q0 -13 -9 -22t-22 -9t-22 9t-10 22l-6 114l-6 117l12 636v3q2 15 12 24q9 7 20 7q8 0 15 -5q14 -8 16 -26zM2304 423q0 -117 -83 -199.5t-200 -82.5h-786 q-13 2 -22 11t-9 22v899q0 23 28 33q85 34 181 34q195 0 338 -131.5t160 -323.5q53 22 110 22q117 0 200 -83t83 -201z" transform="scale(0.1 -0.1) translate(0 -1536)" /></svg>
