<svg xmlns="http://www.w3.org/2000/svg" width="217.6" height="179.2"><path d="M62 112q-11 6.4-26.8 6.4H22.4V112H16q-1.3 0-2.25-2.35T12.8 104q0-2.4.7-4.9-5.8-.2-9.65-1.05T0 96t3.85-2.05 9.65-1.05q-.7-2.5-.7-4.9 0-3.3.95-5.65T16 80h6.4v-6.4h12.8Q51 73.6 62 80h111.3q4.2.7 10.65 1.8t8.05 1.4q8.9 1.5 15 4.05t8.35 4.75 2.25 4-2.25 4-8.35 4.75-15 4.05q-1.6.3-8.05 1.4T173.3 112H62zm111.9-25.2q5.3 3.6 5.3 9.2t-5.3 9.2l8.1 3q6.8-4.8 6.8-12.2T182 83.8zM62.5 113.6H164q-21.7 3.8-45.6 8-5.7 0-11.3 2.4t-8.3 4.8l-2.8 2.4L67.2 160q-2.6 2.6-7.05 4.5t-8.95 1.9h-9.6L32.3 120h2.9q15.7 0 27.3-6.4zM35.2 72h-2.9l9.3-46.4h9.6q4.6 0 9 1.9t7 4.5L96 60.8q.4.4 1.1 1.05t3.05 2.3 4.85 2.9 6.15 2.3 7.25 1.05l45.6 8H62.5Q50.9 72 35.2 72z"/></svg>