<svg xmlns="http://www.w3.org/2000/svg" version="1.1" width="179.2" height="179.2"><path d="M526 142q0 -53 -37.5 -90.5t-90.5 -37.5q-52 0 -90 38t-38 90q0 53 37.5 90.5t90.5 37.5t90.5 -37.5t37.5 -90.5zM1024 -64q0 -53 -37.5 -90.5t-90.5 -37.5t-90.5 37.5t-37.5 90.5t37.5 90.5t90.5 37.5t90.5 -37.5t37.5 -90.5zM320 640q0 -53 -37.5 -90.5t-90.5 -37.5 t-90.5 37.5t-37.5 90.5t37.5 90.5t90.5 37.5t90.5 -37.5t37.5 -90.5zM1522 142q0 -52 -38 -90t-90 -38q-53 0 -90.5 37.5t-37.5 90.5t37.5 90.5t90.5 37.5t90.5 -37.5t37.5 -90.5zM558 1138q0 -66 -47 -113t-113 -47t-113 47t-47 113t47 113t113 47t113 -47t47 -113z M1728 640q0 -53 -37.5 -90.5t-90.5 -37.5t-90.5 37.5t-37.5 90.5t37.5 90.5t90.5 37.5t90.5 -37.5t37.5 -90.5zM1088 1344q0 -80 -56 -136t-136 -56t-136 56t-56 136t56 136t136 56t136 -56t56 -136zM1618 1138q0 -93 -66 -158.5t-158 -65.5q-93 0 -158.5 65.5t-65.5 158.5 q0 92 65.5 158t158.5 66q92 0 158 -66t66 -158z" transform="scale(0.1 -0.1) translate(0 -1536)" /></svg>
