<svg xmlns="http://www.w3.org/2000/svg" width="179.2" height="179.2"><path d="M158.2 58.2q0 10.1-7.15 17.25T133.8 82.6t-17.25-7.15-7.15-17.25 7.15-17.25 17.25-7.15 17.25 7.15 7.15 17.25zm-77 74.2q0-10.4-7.3-17.7t-17.7-7.3q-2.7 0-5.4.6l10.4 4.2q7.7 3.1 10.95 10.65T72.3 138q-3.1 7.7-10.7 10.9t-15.2.1q-2.1-.8-6.2-2.45t-6.1-2.45q3.2 6 9.1 9.65t13 3.65q10.4 0 17.7-7.3t7.3-17.7zm83-74.1q0-12.6-8.95-21.55T133.7 27.8q-12.7 0-21.65 8.95T103.1 58.3q0 12.7 8.95 21.6t21.65 8.9q12.6 0 21.55-8.9t8.95-21.6zm15 0q0 18.9-13.35 32.2t-32.15 13.3L90 135.7q-1.2 12.9-10.9 21.8t-22.9 8.9q-12.1 0-21.4-7.6T23 139.6l-23-9.2V87.5l38.9 15.7q7.9-4.8 17.3-4.8 1.3 0 3.5.2l28.4-40.7q.2-18.7 13.55-31.9t32.05-13.2q18.8 0 32.15 13.35T179.2 58.3z"/></svg>