<svg xmlns="http://www.w3.org/2000/svg" width="153.6" height="179.2"><path d="M124.2 64.7q0-8-5.7-13.65t-13.7-5.65-13.65 5.7-5.65 13.6q0 8 5.65 13.65T104.8 84t13.7-5.65 5.7-13.65zm-61 58.8q0 8.3-5.8 14.05t-14 5.75q-5.6 0-10.3-2.9t-7.2-7.7q5.2 2 9.8 4 6 2.4 12-.15t8.5-8.65q2.4-6-.15-12t-8.65-8.4l-8.2-3.3q2.2-.5 4.2-.5 8.2 0 14 5.75t5.8 14.05zm90.4-81.9v96q0 11.9-8.45 20.35t-20.35 8.45h-96q-11.9 0-20.35-8.45T0 137.6v-15.3l17.2 6.9q2 9.2 9.35 15.2t16.85 6q10.4 0 18.1-7t8.7-17.3l34.5-25.2q15 0 25.55-10.55T140.8 64.9q0-15-10.55-25.55T104.7 28.8q-14.8 0-25.3 10.45T68.7 64.5L46.2 96.7q-.9-.1-2.8-.1-7.5 0-13.7 3.7L0 88.4V41.6q0-11.9 8.45-20.35T28.8 12.8h96q11.9 0 20.35 8.45t8.45 20.35zm-24.7 23.3q0 10-7.1 17.05T104.7 89t-17.05-7.05T80.6 64.9t7.05-17.1 17.05-7.1q10.1 0 17.15 7.05t7.05 17.15z"/></svg>