<svg xmlns="http://www.w3.org/2000/svg" width="140.8" height="179.2"><path d="M128 70.4q0-2.6-1.9-4.5t-4.5-1.9-4.5 1.9-1.9 4.5 1.9 4.5 4.5 1.9 4.5-1.9 1.9-4.5zm12.8 0q0 6.2-3.55 11.1t-9.25 7V128q0 15.9-13.15 27.15T83.2 166.4t-31.65-11.25T38.4 128v-13.2Q22 112.8 11 102T0 76.8V25.6q0-2.6 1.9-4.5t4.5-1.9q.6 0 1.6.2 1.7-3 4.7-4.8t6.5-1.8q5.3 0 9.05 3.75T32 25.6t-3.75 9.05-9.05 3.75q-3.3 0-6.4-1.8v40.2q0 10.6 9.4 18.1t22.6 7.5 22.6-7.5 9.4-18.1V36.6q-3.1 1.8-6.4 1.8-5.3 0-9.05-3.75T57.6 25.6t3.75-9.05 9.05-3.75q3.5 0 6.5 1.8t4.7 4.8q1-.2 1.6-.2 2.6 0 4.5 1.9t1.9 4.5v51.2q0 14.4-11 25.2t-27.4 12.8V128q0 10.6 9.4 18.1t22.6 7.5 22.6-7.5 9.4-18.1V88.5q-5.7-2.1-9.25-7t-3.55-11.1q0-8 5.6-13.6t13.6-5.6 13.6 5.6 5.6 13.6z"/></svg>