<svg xmlns="http://www.w3.org/2000/svg" width="179.2" height="179.2"><path d="M176 89.6q1.4 0 2.3.9t.9 2.3v6.4q0 1.4-.9 2.3t-2.3.9H3.2q-1.4 0-2.3-.9T0 99.2v-6.4q0-1.4.9-2.3t2.3-.9H176zM48.3 83.2q-2.8-3.5-5.1-8-4.8-9.8-4.8-18.8 0-18.1 13.4-30.9 13.3-12.7 39.3-12.7 5 0 16.7 1.9 6.6 1.2 17.7 4.8 1 3.8 2.1 11.8 1.4 12.3 1.4 18.3 0 1.8-.5 4.5l-1.2.3-8.4-.6-1.4-.2q-5-14.9-10.3-20.5-8.8-9.1-21-9.1-11.4 0-18.2 5.9-6.7 5.8-6.7 14.6 0 7.3 6.6 14t27.9 12.9q6.9 2 17.3 6.6 5.8 2.8 9.5 5.2H48.3zM99 108.8h41.1q.7 3.9.7 9.2 0 11.1-4.1 21.2-2.3 5.6-7.1 10.4-3.7 3.5-10.9 8.1-8 4.8-15.3 6.6-8 2.1-20.3 2.1-11.4 0-19.5-2.3l-14-4q-5.7-1.6-7.2-2.8-.8-.8-.8-2.2v-1.3q0-10.8-.2-15.6-.1-3 0-6.8l.2-3.7v-4.4l10.2-.2q1.5 3.4 3 7.1t2.25 5.6 1.25 2.7q3.5 5.7 8 9.4 4.3 3.6 10.5 5.7 5.9 2.2 13.2 2.2 6.4 0 13.9-2.7 7.7-2.6 12.2-8.6 4.7-6.1 4.7-12.9 0-8.4-8.1-15.7-3.4-2.9-13.7-7.1z"/></svg>