<svg xmlns="http://www.w3.org/2000/svg" version="1.1" width="153.6" height="179.2"><path d="M866 697l90 27v62q0 79 -58 135t-138 56t-138 -55.5t-58 -134.5v-283q0 -20 -14 -33.5t-33 -13.5t-32.5 13.5t-13.5 33.5v120h-151v-122q0 -82 57.5 -139t139.5 -57q81 0 138.5 56.5t57.5 136.5v280q0 19 13.5 33t33.5 14q19 0 32.5 -14t13.5 -33v-54zM1199 502v122h-150 v-126q0 -20 -13.5 -33.5t-33.5 -13.5q-19 0 -32.5 14t-13.5 33v123l-90 -26l-60 28v-123q0 -80 58 -137t139 -57t138.5 57t57.5 139zM1536 640q0 -209 -103 -385.5t-279.5 -279.5t-385.5 -103t-385.5 103t-279.5 279.5t-103 385.5t103 385.5t279.5 279.5t385.5 103 t385.5 -103t279.5 -279.5t103 -385.5z" transform="scale(0.1 -0.1) translate(0 -1536)" /></svg>
