<svg xmlns="http://www.w3.org/2000/svg" version="1.1" width="179.2" height="179.2"><path d="M1473 607q7 118 -33 226.5t-113 189t-177 131t-221 57.5q-116 7 -225.5 -32t-192 -110.5t-135 -175t-59.5 -220.5q-7 -118 33 -226.5t113 -189t177.5 -131t221.5 -57.5q155 -9 293 59t224 195.5t94 283.5zM1792 1536l-349 -348q120 -117 180.5 -272t50.5 -321 q-11 -183 -102 -339t-241 -255.5t-332 -124.5l-999 -132l347 347q-120 116 -180.5 271.5t-50.5 321.5q11 184 102 340t241.5 255.5t332.5 124.5q167 22 500 66t500 66z" transform="scale(0.1 -0.1) translate(0 -1536)" /></svg>
