<svg xmlns="http://www.w3.org/2000/svg" width="153.6" height="179.2"><path d="M89.7 136.9v16.7H64.9L49 128.4l-2.4-4.2q-.8-.9-1.1-2.1h-.3q-.1.3-.25.65t-.35.8-.3.65q-1 2-2.5 4.4l-15.5 25H.5v-16.7h12.8L33 107.8 14.5 80.6H.8V63.8h27.6l13.9 22.8q.2.4 2.3 4.2.8.9 1.1 2.1h.3q.3-.9 1.1-2.1l2.5-4.2 14-22.8h25.7v16.8H76.8l-18.4 26.7 20.4 29.6h10.9zM153.4 69v20.6H102l-.3-2.7q-.4-2.8-.4-4.6 0-6.4 2.6-11.7t6.5-8.65 8.4-6.5 8.4-5.45 6.5-5.4 2.6-6.4q0-3.8-2.95-6.25t-7.05-2.45q-5.1 0-9.7 3.9-1.4 1.1-3.6 3.8L102.5 28q2.6-3.7 6.3-6.6 8.3-6.5 18.8-6.5 11 0 17.8 5.95t6.8 15.85q0 5.6-2.45 10.3t-6.2 7.65-8.15 5.85-8.2 5.05-6.55 5.15-3.05 6.3h23.2v-8h12.6z"/></svg>