<svg xmlns="http://www.w3.org/2000/svg" width="166.4" height="179.2"><path d="M51.2 137.6v-19.2q0-1.4-.9-2.3t-2.3-.9H16q-1.4 0-2.3.9t-.9 2.3v19.2q0 1.4.9 2.3t2.3.9h32q1.4 0 2.3-.9t.9-2.3zm0-38.4V80q0-1.4-.9-2.3t-2.3-.9H16q-1.4 0-2.3.9t-.9 2.3v19.2q0 1.4.9 2.3t2.3.9h32q1.4 0 2.3-.9t.9-2.3zm51.2 38.4v-19.2q0-1.4-.9-2.3t-2.3-.9h-32q-1.4 0-2.3.9t-.9 2.3v19.2q0 1.4.9 2.3t2.3.9h32q1.4 0 2.3-.9t.9-2.3zM51.2 60.8V41.6q0-1.4-.9-2.3t-2.3-.9H16q-1.4 0-2.3.9t-.9 2.3v19.2q0 1.4.9 2.3t2.3.9h32q1.4 0 2.3-.9t.9-2.3zm51.2 38.4V80q0-1.4-.9-2.3t-2.3-.9h-32q-1.4 0-2.3.9T64 80v19.2q0 1.4.9 2.3t2.3.9h32q1.4 0 2.3-.9t.9-2.3zm51.2 38.4v-19.2q0-1.4-.9-2.3t-2.3-.9h-32q-1.4 0-2.3.9t-.9 2.3v19.2q0 1.4.9 2.3t2.3.9h32q1.4 0 2.3-.9t.9-2.3zm-51.2-76.8V41.6q0-1.4-.9-2.3t-2.3-.9h-32q-1.4 0-2.3.9t-.9 2.3v19.2q0 1.4.9 2.3t2.3.9h32q1.4 0 2.3-.9t.9-2.3zm51.2 38.4V80q0-1.4-.9-2.3t-2.3-.9h-32q-1.4 0-2.3.9t-.9 2.3v19.2q0 1.4.9 2.3t2.3.9h32q1.4 0 2.3-.9t.9-2.3zm0-38.4V41.6q0-1.4-.9-2.3t-2.3-.9h-32q-1.4 0-2.3.9t-.9 2.3v19.2q0 1.4.9 2.3t2.3.9h32q1.4 0 2.3-.9t.9-2.3zm12.8-32v108.8q0 6.6-4.7 11.3t-11.3 4.7H16q-6.6 0-11.3-4.7T0 137.6V28.8q0-6.6 4.7-11.3T16 12.8h134.4q6.6 0 11.3 4.7t4.7 11.3z"/></svg>