<svg xmlns="http://www.w3.org/2000/svg" version="1.1" width="192.0" height="179.2"><path d="M448 1088q0 53 -37.5 90.5t-90.5 37.5t-90.5 -37.5t-37.5 -90.5t37.5 -90.5t90.5 -37.5t90.5 37.5t37.5 90.5zM1515 512q0 -53 -37 -90l-491 -492q-39 -37 -91 -37q-53 0 -90 37l-715 716q-38 37 -64.5 101t-26.5 117v416q0 52 38 90t90 38h416q53 0 117 -26.5t102 -64.5 l715 -714q37 -39 37 -91zM1899 512q0 -53 -37 -90l-491 -492q-39 -37 -91 -37q-36 0 -59 14t-53 45l470 470q37 37 37 90q0 52 -37 91l-715 714q-38 38 -102 64.5t-117 26.5h224q53 0 117 -26.5t102 -64.5l715 -714q37 -39 37 -91z" transform="scale(0.1 -0.1) translate(0 -1536)" /></svg>
