<svg xmlns="http://www.w3.org/2000/svg" width="153.6" height="179.2"><path d="m8.1 12.9 5.4 2.7q1.2.5 21.1.5 4.4 0 13.2-.2t13.2-.2q7 0 24.65-.1t30.45-.05 24.7.45q3.3.1 5.6-3.1l4.2-.1q.4 0 1.4.05t1.4.05q.2 11.2.2 33.6 0 8-.5 10.9-3.9 1.4-6.8 1.8-2.5-4.4-5.4-12.8-.3-.9-1.1-4.75t-1.5-7.35-.7-3.6q-1-1.3-2.7-1.9-.5-.2-6.6-.2-3 0-9.3-.1t-10.3-.1-9.4.2-9.6.7q-.9 8.1-.8 13.6l.1 15.2v-5.2q0 5.5.1 15.4t.15 18 .05 15.3q0 1.6-.25 7.15t0 9.15 1.25 6.9q4 2.1 12.4 4.25t12 3.75q.5 4 .5 5 0 1.4-.3 2.9l-3.4.1q-7.6.2-21.8-.8T69 139q-5 0-15.1.9t-15.2.9q-.3-5.1-.3-5.2v-.9q1.7-2.7 6.15-4.3t9.85-2.9 7.8-2.7q.7-1.6 1.15-7.4t.6-14.55.15-15.5T64.05 72 64 63.1q0-.7-.25-2.15t-.25-2.25q0-.7.05-4.4t.1-7.3 0-7.65-.3-6.75-.65-3.2q-1.1-1.2-16.2-1.2-4.1 0-16.3 1.35T16.4 32q-1.9 1.2-3.4 7.15T9.85 50.3 5.6 55.7Q1.4 53.1 0 51.3V13zM131 141.1q1.2 0 4.2 1.95t5.75 4.15 5.95 4.9 3.6 3q2.6 2.1 2.6 4.9t-2.6 4.9q-.4.3-3.6 3t-5.95 4.9-5.75 4.15-4.2 1.95q-1.3 0-2.05-1.05t-1-2.85-.25-3.35.15-3.3.15-1.95H25.6q0 .2.15 1.95t.15 3.3-.25 3.35-1 2.85-2.05 1.05q-1.2 0-4.2-1.95t-5.75-4.15-5.95-4.9-3.6-3Q.5 162.8.5 160t2.6-4.9q.4-.3 3.6-3t5.95-4.9 5.75-4.15 4.2-1.95q1.3 0 2.05 1.05t1 2.85.25 3.35-.15 3.3-.15 1.95H128q0-.2-.15-1.95t-.15-3.3.25-3.35 1-2.85 2.05-1.05z"/></svg>