<svg xmlns="http://www.w3.org/2000/svg" width="102.4" height="179.2"><path d="M64 134.4q0 8-5.6 13.6t-13.6 5.6-13.6-5.6-5.6-13.6q0-6 3.5-11t9.3-7.1V76.8h12.8v39.5q5.8 2.1 9.3 7.1t3.5 11zm12.8 0q0-7.7-3.4-14.4T64 108.8V32q0-8-5.6-13.6t-13.6-5.6-13.6 5.6T25.6 32v76.8q-6 4.5-9.4 11.2t-3.4 14.4q0 13.3 9.35 22.65t22.65 9.35 22.65-9.35 9.35-22.65zm12.8 0q0 18.5-13.15 31.65T44.8 179.2t-31.65-13.15T0 134.4q0-18.2 12.8-31.3V32q0-13.3 9.35-22.65T44.8 0t22.65 9.35T76.8 32v71.1q12.8 13.1 12.8 31.3zm12.8-57.6v12.8H83.2V76.8h19.2zm0-25.6V64H83.2V51.2h19.2zm0-25.6v12.8H83.2V25.6h19.2z"/></svg>