<svg xmlns="http://www.w3.org/2000/svg" width="166.4" height="179.2"><path d="M25.6 134.4q0-2.6-1.9-4.5t-4.5-1.9q-2.7 0-4.55 1.9t-1.85 4.5q0 2.7 1.85 4.55t4.55 1.85q2.6 0 4.5-1.85t1.9-4.55zm16-51.2v64q0 2.6-1.9 4.5t-4.5 1.9H6.4q-2.6 0-4.5-1.9T0 147.2v-64q0-2.6 1.9-4.5t4.5-1.9h28.8q2.6 0 4.5 1.9t1.9 4.5zm118.4 0q0 8.6-5.5 14.9 1.5 4.4 1.5 7.6.3 7.6-4.3 13.7 1.7 5.6 0 11.7-1.5 5.7-5.4 9.4.9 11.2-4.9 18.1-6.4 7.6-19.7 7.8h-12.9q-6.6 0-14.4-1.55t-12.15-2.9T70.2 158q-12.3-4.3-15.8-4.4-2.6-.1-4.5-1.95T48 147.2V83.1q0-2.5 1.8-4.35t4.3-2.05q2.4-.2 7.6-5.9t10.1-12.1q6.8-8.7 10.1-12 1.8-1.8 3.1-4.8t1.75-4.85T88.1 31q.7-3.9 1.25-6.1t1.95-5.2 3.4-5q1.9-1.9 4.5-1.9 4.6 0 8.25 1.05t6 2.6 4 4.05 2.4 4.5 1.2 5 .5 4.5.05 3.9q0 3.8-.95 7.6t-1.9 6-2.75 5.6q-.3.6-1 1.8t-1.1 2.2-.8 2.4h27.7q7.8 0 13.5 5.7t5.7 13.5z"/></svg>