<svg xmlns="http://www.w3.org/2000/svg" width="153.6" height="179.2"><path d="M25.6 44.8q0-2.6-1.9-4.5t-4.5-1.9-4.5 1.9-1.9 4.5 1.9 4.5 4.5 1.9 4.5-1.9 1.9-4.5zm115.2 57.6q0-3.5-2.15-8.1t-5.35-4.7q1.5-1.7 2.5-4.75t1-5.55q0-6.9-5.3-11.9 1.8-3.1 1.8-6.9 0-3.7-1.75-7.35t-4.75-5.25q.5-3 .5-5.6 0-8.5-4.9-12.6t-13.6-4.1H96q-13.1 0-34.2 7.3-.5.2-2.9 1.05t-3.55 1.25-3.5 1.15-3.8 1.1-3.3.65-3.15.3h-3.2v64h3.2q1.6 0 3.55.9t4 2.7 3.85 3.55 4 4.4 3.45 4.25 3.15 4.1 2.3 3q5.5 6.8 7.7 9.1 4.1 4.3 5.95 10.95t3.05 12.55 3.8 8.5q9.6 0 12.8-4.7t3.2-14.5q0-5.9-4.8-16.05t-4.8-15.95H128q5 0 8.9-3.85t3.9-8.95zm12.8.1q0 10.3-7.6 17.9t-18 7.6h-17.6q4.8 9.9 4.8 19.2 0 11.8-3.5 18.6-3.5 6.9-10.2 10.15t-15.1 3.25q-5.1 0-9-3.7-3.4-3.3-5.4-8.2t-2.55-9.05-1.75-8.45-3.1-6.4q-4.8-5-10.7-12.7-10.1-13.1-13.7-15.5H12.8q-5.3 0-9.05-3.75T0 102.4v-64q0-5.3 3.75-9.05t9.05-3.75h28.8q2.2 0 13.8-4 12.8-4.4 22.3-6.6t20-2.2h11.2q14 0 22.65 7.9t8.55 21.6v.5q6 7.7 6 17.8 0 2.2-.3 4.3 3.8 6.7 3.8 14.4 0 3.6-.9 6.9 4.9 7.3 4.9 16.3z"/></svg>