<svg xmlns="http://www.w3.org/2000/svg" width="166.4" height="179.2"><path d="M25.6 57.6q0 2.6-1.9 4.5T19.2 64q-2.7 0-4.55-1.9t-1.85-4.5q0-2.7 1.85-4.55t4.55-1.85q2.6 0 4.5 1.85t1.9 4.55zm16 51.2v-64q0-2.6-1.9-4.5t-4.5-1.9H6.4q-2.6 0-4.5 1.9T0 44.8v64q0 2.6 1.9 4.5t4.5 1.9h28.8q2.6 0 4.5-1.9t1.9-4.5zm112.9-14.9q5.5 6.1 5.5 14.9-.1 7.8-5.75 13.5T140.8 128h-27.7q.4 1.4.8 2.4t1.1 2.2 1 1.8q1.8 3.7 2.7 5.7t1.9 5.85 1 7.65q0 2.4-.05 3.9t-.5 4.5-1.2 5-2.4 4.5-4 4.05-6 2.6-8.25 1.05q-2.6 0-4.5-1.9-2-2-3.4-5t-1.95-5.2-1.25-6.1q-.9-4.2-1.35-6.05T85 150.1t-3.1-4.8q-3.3-3.3-10.1-12-4.9-6.4-10.1-12.1t-7.6-5.9q-2.5-.2-4.3-2.05T48 108.9V44.8q0-2.6 1.9-4.45t4.5-1.95q3.5-.1 15.8-4.4 7.7-2.6 12.05-3.95t12.15-2.9 14.4-1.55h12.9q13.3.2 19.7 7.8 5.8 6.9 4.9 18.1 3.9 3.7 5.4 9.4 1.7 6.1 0 11.7 4.6 6.1 4.3 13.7 0 3.2-1.5 7.6z"/></svg>