<svg xmlns="http://www.w3.org/2000/svg" width="153.6" height="179.2"><path d="m109.7 107.9-14.6 14.6q-1 1-2.3 1t-2.3-1l-13.7-13.7-13.7 13.7q-1 1-2.3 1t-2.3-1l-14.6-14.6q-1-1-1-2.3t1-2.3l13.7-13.7-13.7-13.7q-1-1-1-2.3t1-2.3l14.6-14.6q1-1 2.3-1t2.3 1l13.7 13.7 13.7-13.7q1-1 2.3-1t2.3 1l14.6 14.6q1 1 1 2.3t-1 2.3L96 89.6l13.7 13.7q1 1 1 2.3t-1 2.3zm21.5-18.3q0-14.8-7.3-27.3t-19.8-19.8-27.3-7.3-27.3 7.3-19.8 19.8-7.3 27.3 7.3 27.3 19.8 19.8 27.3 7.3 27.3-7.3 19.8-19.8 7.3-27.3zm22.4 0q0 20.9-10.3 38.55t-27.95 27.95-38.55 10.3-38.55-10.3-27.95-27.95T0 89.6t10.3-38.55T38.25 23.1 76.8 12.8t38.55 10.3 27.95 27.95 10.3 38.55z"/></svg>