<svg xmlns="http://www.w3.org/2000/svg" version="1.1" width="179.2" height="179.2"><path d="M1175 215l146 146q10 10 10 23t-10 23l-233 233l233 233q10 10 10 23t-10 23l-146 146q-10 10 -23 10t-23 -10l-233 -233l-233 233q-10 10 -23 10t-23 -10l-146 -146q-10 -10 -10 -23t10 -23l233 -233l-233 -233q-10 -10 -10 -23t10 -23l146 -146q10 -10 23 -10t23 10 l233 233l233 -233q10 -10 23 -10t23 10zM1792 1248v-1216q0 -66 -47 -113t-113 -47h-1472q-66 0 -113 47t-47 113v1216q0 66 47 113t113 47h1472q66 0 113 -47t47 -113z" transform="scale(0.1 -0.1) translate(0 -1536)" /></svg>
