<svg xmlns="http://www.w3.org/2000/svg" width="197.3" height="179.2"><path d="M85.7 54.4v11.7q0 1.3-.95 2.2t-2.25.9H52.7v81.2q0 1.3-.9 2.25t-2.2.95H36.1q-1.3 0-2.25-.9t-.95-2.3V69.2H3.2q-1.3 0-2.25-.9T0 66.1V54.4q0-1.4.9-2.3t2.3-.9h79.3q1.3 0 2.25.95t.95 2.25zm103.8-.3 7.7 96.1q.1 1.3-.8 2.4-1 1-2.3 1h-13.4q-1.2 0-2.1-.85t-1-2.05L173 91.9l-18.9 42.5q-.8 1.9-2.9 1.9h-12q-2 0-2.9-1.9l-18.8-42.7-4.5 59q-.1 1.2-1 2.05t-2.1.85H96.4q-1.3 0-2.3-1-.9-1-.9-2.4l7.8-96.1q.1-1.2 1-2.05t2.1-.85h14.2q2 0 2.9 1.9l22 52q1 2.4 2 5.1.3-.7.95-2.45t1.05-2.65l22.1-52q.9-1.9 2.9-1.9h14.1q1.3 0 2.2.85t1 2.05z"/></svg>