<svg xmlns="http://www.w3.org/2000/svg" version="1.1" width="197.3" height="179.2"><path d="M857 992v-117q0 -13 -9.5 -22t-22.5 -9h-298v-812q0 -13 -9 -22.5t-22 -9.5h-135q-13 0 -22.5 9t-9.5 23v812h-297q-13 0 -22.5 9t-9.5 22v117q0 14 9 23t23 9h793q13 0 22.5 -9.5t9.5 -22.5zM1895 995l77 -961q1 -13 -8 -24q-10 -10 -23 -10h-134q-12 0 -21 8.5 t-10 20.5l-46 588l-189 -425q-8 -19 -29 -19h-120q-20 0 -29 19l-188 427l-45 -590q-1 -12 -10 -20.5t-21 -8.5h-135q-13 0 -23 10q-9 10 -9 24l78 961q1 12 10 20.5t21 8.5h142q20 0 29 -19l220 -520q10 -24 20 -51q3 7 9.5 24.5t10.5 26.5l221 520q9 19 29 19h141 q13 0 22 -8.5t10 -20.5z" transform="scale(0.1 -0.1) translate(0 -1536)" /></svg>
