<svg xmlns="http://www.w3.org/2000/svg" width="153.6" height="179.2"><path d="M102.4 3.2q0-1.4.9-2.3t2.3-.9h28.8q2.6 0 4.5 1.9t1.9 4.5v28.8q0 1.4-.9 2.3t-2.3.9h-6.4q-1.4 0-2.3-.9t-.9-2.3V21.8l-25.4 25.5q12.6 15.8 12.6 35.9 0 22.1-14.75 38.45T64 140.4v13.2h9.6q1.4 0 2.3.9t.9 2.3v6.4q0 1.4-.9 2.3t-2.3.9H64v9.6q0 1.4-.9 2.3t-2.3.9h-6.4q-1.4 0-2.3-.9t-.9-2.3v-9.6h-9.6q-1.4 0-2.3-.9t-.9-2.3v-6.4q0-1.4.9-2.3t2.3-.9h9.6v-13.2q-14.9-1.6-27.05-10.3T5.5 107.75.2 78.6q1.6-20.4 16-35.35T50.9 26q11.8-1.4 22.8 1.9t19.8 10.3L119 12.8h-13.4q-1.4 0-2.3-.9t-.9-2.3V3.2zM57.6 128q18.5 0 31.65-13.15T102.4 83.2 89.25 51.55 57.6 38.4 25.95 51.55 12.8 83.2t13.15 31.65T57.6 128z"/></svg>