<svg xmlns="http://www.w3.org/2000/svg" width="179.2" height="179.2"><path d="M128 3.2q0-1.4.9-2.3t2.3-.9H160q2.6 0 4.5 1.9t1.9 4.5v28.8q0 1.4-.9 2.3t-2.3.9h-6.4q-1.4 0-2.3-.9t-.9-2.3V21.8l-25.4 25.5q12.6 15.8 12.6 35.9 0 22.1-14.75 38.45T89.6 140.4v13.2h9.6q1.4 0 2.3.9t.9 2.3v6.4q0 1.4-.9 2.3t-2.3.9h-9.6v9.6q0 1.4-.9 2.3t-2.3.9H80q-1.4 0-2.3-.9t-.9-2.3v-9.6h-9.6q-1.4 0-2.3-.9t-.9-2.3v-6.4q0-1.4.9-2.3t2.3-.9h9.6v-13.2q-21.7-2.4-36.45-18.75T25.6 83.2q0-20.1 12.6-35.9L33 42 22.9 53.1q-.9 1-2.2 1.05t-2.3-.75L13.6 49q-1-.8-1.05-2.15t.85-2.35L23.9 33 12.8 21.8v13.4q0 1.4-.9 2.3t-2.3.9H3.2q-1.4 0-2.3-.9T0 35.2V6.4q0-2.6 1.9-4.5T6.4 0h28.8q1.4 0 2.3.9t.9 2.3v6.4q0 1.4-.9 2.3t-2.3.9H21.9l10.6 10.7 8.6-9.4q.9-1 2.2-1.05t2.3.75l4.8 4.4q1 .8 1.05 2.15t-.85 2.35l-9 9.9 5.7 5.6q15.8-12.6 35.9-12.6t35.9 12.6l25.5-25.4h-13.4q-1.4 0-2.3-.9t-.9-2.3V3.2zM83.2 128q18.5 0 31.65-13.15T128 83.2t-13.15-31.65T83.2 38.4 51.55 51.55 38.4 83.2t13.15 31.65T83.2 128z"/></svg>