<svg xmlns="http://www.w3.org/2000/svg" width="115.2" height="179.2"><path d="M115.2 83.2q0 19.1-9.45 35.3T80.1 144.15t-35.3 9.45h-16q-1.4 0-2.3-.9t-.9-2.3V89.3L4.1 95.9q-.3.1-.9.1-1 0-1.9-.6-1.3-1-1.3-2.6V80q0-2.3 2.3-3.1l23.3-7.1v-9.3L4.1 67.1q-.3.1-.9.1-1 0-1.9-.6Q0 65.6 0 64V51.2q0-2.3 2.3-3.1L25.6 41V16q0-1.4.9-2.3t2.3-.9h16q1.4 0 2.3.9T48 16v18.1l37.5-11.6q1.5-.5 2.8.5t1.3 2.6v12.8q0 2.3-2.3 3.1L48 53.6v9.3l37.5-11.6q1.5-.5 2.8.5t1.3 2.6v12.8q0 2.3-2.3 3.1L48 82.4v48.7q18.8-1.3 31.8-15.1t13-32.8q0-1.4.9-2.3T96 80h16q1.4 0 2.3.9t.9 2.3z"/></svg>