<svg xmlns="http://www.w3.org/2000/svg" version="1.1" width="179.2" height="179.2"><path d="M448 224v-192q0 -14 -9 -23t-23 -9h-192q-14 0 -23 9t-9 23v192q0 14 9 23t23 9h192q14 0 23 -9t9 -23zM256 608v-192q0 -14 -9 -23t-23 -9h-192q-14 0 -23 9t-9 23v192q0 14 9 23t23 9h192q14 0 23 -9t9 -23zM832 224v-192q0 -14 -9 -23t-23 -9h-192q-14 0 -23 9t-9 23 v192q0 14 9 23t23 9h192q14 0 23 -9t9 -23zM640 608v-192q0 -14 -9 -23t-23 -9h-192q-14 0 -23 9t-9 23v192q0 14 9 23t23 9h192q14 0 23 -9t9 -23zM66 768q-28 0 -47 19t-19 46v129h514v-129q0 -27 -19 -46t-46 -19h-383zM1216 224v-192q0 -14 -9 -23t-23 -9h-192 q-14 0 -23 9t-9 23v192q0 14 9 23t23 9h192q14 0 23 -9t9 -23zM1024 608v-192q0 -14 -9 -23t-23 -9h-192q-14 0 -23 9t-9 23v192q0 14 9 23t23 9h192q14 0 23 -9t9 -23zM1600 224v-192q0 -14 -9 -23t-23 -9h-192q-14 0 -23 9t-9 23v192q0 14 9 23t23 9h192q14 0 23 -9t9 -23 zM1408 608v-192q0 -14 -9 -23t-23 -9h-192q-14 0 -23 9t-9 23v192q0 14 9 23t23 9h192q14 0 23 -9t9 -23zM1792 1016v-13h-514v10q0 104 -382 102q-382 -1 -382 -102v-10h-514v13q0 17 8.5 43t34 64t65.5 75.5t110.5 76t160 67.5t224 47.5t293.5 18.5t293 -18.5t224 -47.5 t160.5 -67.5t110.5 -76t65.5 -75.5t34 -64t8.5 -43zM1792 608v-192q0 -14 -9 -23t-23 -9h-192q-14 0 -23 9t-9 23v192q0 14 9 23t23 9h192q14 0 23 -9t9 -23zM1792 962v-129q0 -27 -19 -46t-46 -19h-384q-27 0 -46 19t-19 46v129h514z" transform="scale(0.1 -0.1) translate(0 -1536)" /></svg>
