<svg xmlns="http://www.w3.org/2000/svg" version="1.1" width="153.6" height="179.2"><path d="M1136 75l-62 183q-44 -22 -103 -22q-36 -1 -62 10.5t-38.5 31.5t-17.5 40.5t-5 43.5v398h257v194h-256v326h-188q-8 0 -9 -10q-5 -44 -17.5 -87t-39 -95t-77 -95t-118.5 -68v-165h130v-418q0 -57 21.5 -115t65 -111t121 -85.5t176.5 -30.5q69 1 136.5 25t85.5 50z M1536 1120v-960q0 -119 -84.5 -203.5t-203.5 -84.5h-960q-119 0 -203.5 84.5t-84.5 203.5v960q0 119 84.5 203.5t203.5 84.5h960q119 0 203.5 -84.5t84.5 -203.5z" transform="scale(0.1 -0.1) translate(0 -1536)" /></svg>
