<svg xmlns="http://www.w3.org/2000/svg" width="166.4" height="179.2"><path d="M89.6 82.8v58q0 10.4-7.6 18t-18 7.6-18-7.6-7.6-18q0-2.6 1.9-4.5t4.5-1.9 4.5 1.9 1.9 4.5q0 5 3.9 8.9t8.9 3.9 8.9-3.9 3.9-8.9v-58q3.3-1.1 6.4-1.1t6.4 1.1zm76.8 2.7q0 1.3-.95 2.25t-2.25.95q-1.1 0-2.3-1-4.9-4.6-9.3-6.9t-10.2-2.3q-6.8 0-12.8 3.7t-10.3 9.7q-.7 1-1.75 2.8t-1.45 2.4q-1.1 1.7-2.8 1.7-1.8 0-2.9-1.7-.4-.6-1.45-2.4t-1.75-2.8q-4.3-6-10.25-9.7T83.2 78.5t-12.75 3.7-10.25 9.7q-.7 1-1.75 2.8T57 97.1q-1.1 1.7-2.9 1.7-1.7 0-2.8-1.7-.4-.6-1.45-2.4t-1.75-2.8q-4.3-6-10.3-9.7T25 78.5q-5.8 0-10.2 2.3t-9.3 6.9q-1.2 1-2.3 1-1.3 0-2.25-.95T0 85.5q0-.5.1-.7 4.5-18.3 17.25-31.95t29.8-20.45 36.05-6.8q14 0 27.45 4t24.65 11.35 19.45 18.7T166.3 84.8q.1.2.1.7zM89.6 12.8v9.8q-4.2-.2-6.4-.2t-6.4.2v-9.8q0-2.6 1.9-4.5t4.5-1.9 4.5 1.9 1.9 4.5z"/></svg>