<svg xmlns="http://www.w3.org/2000/svg" width="153.6" height="179.2"><path d="M4.8 22.3q-3.7-.2-4.5-.4L0 13.1q1.3-.1 4-.1 6 0 11.2.4 13.2.7 16.6.7 8.6 0 16.8-.3 11.6-.4 14.6-.5 5.6 0 8.6-.2l-.1 1.4.2 6.4v.9q-6 .9-12.4.9-6 0-7.9 2.5-1.3 1.4-1.3 13.2 0 1.3.05 3.25t.05 2.55l.1 22.9 1.4 28q.6 12.4 5.1 20.2 3.5 5.9 9.6 9.2 8.8 4.7 17.7 4.7 10.4 0 19.1-2.8 5.6-1.8 9.9-5.1 4.8-3.6 6.5-6.4 3.6-5.6 5.3-11.4 2.1-7.3 2.1-22.9 0-7.9-.35-12.8t-1.1-12.25-1.35-15.95l-.4-5.9q-.5-6.7-2.4-8.8-3.4-3.5-7.7-3.4l-10 .2-1.4-.3.2-8.6h8.4l20.5 1q7.6.3 19.6-1l1.8.2q.6 3.8.6 5.1 0 .7-.4 3.1-4.5 1.2-8.4 1.3-7.3 1.1-7.9 1.7-1.5 1.5-1.5 4.1 0 .7.15 2.7t.15 3.1q.8 1.9 2.2 39.6.6 19.5-1.5 30.4-1.5 7.6-4.1 12.2-3.8 6.5-11.2 12.3-7.5 5.7-18.2 8.9-10.9 3.3-25.5 3.3-16.7 0-28.4-4.6-11.9-4.7-17.9-12.2-6.1-7.6-8.3-19.5-1.6-8-1.6-23.7V47.5q0-18.8-1.7-21.3-2.5-3.6-14.7-3.9zm148.8 140.9v-6.4q0-1.4-.9-2.3t-2.3-.9H3.2q-1.4 0-2.3.9t-.9 2.3v6.4q0 1.4.9 2.3t2.3.9h147.2q1.4 0 2.3-.9t.9-2.3z"/></svg>