<svg xmlns="http://www.w3.org/2000/svg" version="1.1" width="179.2" height="179.2"><path d="M1374 879q-6 26 -28.5 39.5t-48.5 7.5q-261 -62 -401 -62t-401 62q-26 6 -48.5 -7.5t-28.5 -39.5t7.5 -48.5t39.5 -28.5q194 -46 303 -58q-2 -158 -15.5 -269t-26.5 -155.5t-41 -115.5l-9 -21q-10 -25 1 -49t36 -34q9 -4 23 -4q44 0 60 41l8 20q54 139 71 259h42 q17 -120 71 -259l8 -20q16 -41 60 -41q14 0 23 4q25 10 36 34t1 49l-9 21q-28 71 -41 115.5t-26.5 155.5t-15.5 269q109 12 303 58q26 6 39.5 28.5t7.5 48.5zM1024 1024q0 53 -37.5 90.5t-90.5 37.5t-90.5 -37.5t-37.5 -90.5t37.5 -90.5t90.5 -37.5t90.5 37.5t37.5 90.5z M1600 640q0 -143 -55.5 -273.5t-150 -225t-225 -150t-273.5 -55.5t-273.5 55.5t-225 150t-150 225t-55.5 273.5t55.5 273.5t150 225t225 150t273.5 55.5t273.5 -55.5t225 -150t150 -225t55.5 -273.5zM896 1408q-156 0 -298 -61t-245 -164t-164 -245t-61 -298t61 -298 t164 -245t245 -164t298 -61t298 61t245 164t164 245t61 298t-61 298t-164 245t-245 164t-298 61zM1792 640q0 -182 -71 -348t-191 -286t-286 -191t-348 -71t-348 71t-286 191t-191 286t-71 348t71 348t191 286t286 191t348 71t348 -71t286 -191t191 -286t71 -348z" transform="scale(0.1 -0.1) translate(0 -1536)" /></svg>
