<svg xmlns="http://www.w3.org/2000/svg" width="166.4" height="179.2"><path d="M128 147.2q0-2.6-1.9-4.5t-4.5-1.9-4.5 1.9-1.9 4.5 1.9 4.5 4.5 1.9 4.5-1.9 1.9-4.5zm25.6 0q0-2.6-1.9-4.5t-4.5-1.9-4.5 1.9-1.9 4.5 1.9 4.5 4.5 1.9 4.5-1.9 1.9-4.5zm12.8-22.4v32q0 4-2.8 6.8t-6.8 2.8H9.6q-4 0-6.8-2.8T0 156.8v-32q0-4 2.8-6.8t6.8-2.8h42.7q2.1 5.6 7.05 9.2T70.4 128H96q6.1 0 11.05-3.6t7.05-9.2h42.7q4 0 6.8 2.8t2.8 6.8zM133.9 60q-1.7 4-5.9 4h-25.6v44.8q0 2.6-1.9 4.5t-4.5 1.9H70.4q-2.6 0-4.5-1.9t-1.9-4.5V64H38.4q-4.2 0-5.9-4-1.7-3.9 1.4-6.9L78.7 8.3q1.8-1.9 4.5-1.9t4.5 1.9l44.8 44.8q3.1 3 1.4 6.9z"/></svg>