<svg xmlns="http://www.w3.org/2000/svg" version="1.1" width="230.4" height="179.2"><path d="M2288 731q16 -8 16 -27t-16 -27l-320 -192q-8 -5 -16 -5q-9 0 -16 4q-16 10 -16 28v128h-858q37 -58 83 -165q16 -37 24.5 -55t24 -49t27 -47t27 -34t31.5 -26t33 -8h96v96q0 14 9 23t23 9h320q14 0 23 -9t9 -23v-320q0 -14 -9 -23t-23 -9h-320q-14 0 -23 9t-9 23v96h-96 q-32 0 -61 10t-51 23.5t-45 40.5t-37 46t-33.5 57t-28.5 57.5t-28 60.5q-23 53 -37 81.5t-36 65t-44.5 53.5t-46.5 17h-360q-22 -84 -91 -138t-157 -54q-106 0 -181 75t-75 181t75 181t181 75q88 0 157 -54t91 -138h104q24 0 46.5 17t44.5 53.5t36 65t37 81.5q19 41 28 60.5 t28.5 57.5t33.5 57t37 46t45 40.5t51 23.5t61 10h107q21 57 70 92.5t111 35.5q80 0 136 -56t56 -136t-56 -136t-136 -56q-62 0 -111 35.5t-70 92.5h-107q-17 0 -33 -8t-31.5 -26t-27 -34t-27 -47t-24 -49t-24.5 -55q-46 -107 -83 -165h1114v128q0 18 16 28t32 -1z" transform="scale(0.1 -0.1) translate(0 -1536)" /></svg>
