<svg xmlns="http://www.w3.org/2000/svg" width="230.4" height="179.2"><path d="M228.8 80.5q1.6.8 1.6 2.7t-1.6 2.7l-32 19.2q-.8.5-1.6.5-.9 0-1.6-.4-1.6-1-1.6-2.8V89.6h-85.8q3.7 5.8 8.3 16.5 1.6 3.7 2.45 5.5t2.4 4.9 2.7 4.7 2.7 3.4 3.15 2.6 3.3.8h9.6v-9.6q0-1.4.9-2.3t2.3-.9h32q1.4 0 2.3.9t.9 2.3v32q0 1.4-.9 2.3t-2.3.9h-32q-1.4 0-2.3-.9t-.9-2.3v-9.6h-9.6q-3.2 0-6.1-1t-5.1-2.35-4.5-4.05-3.7-4.6-3.35-5.7-2.85-5.75-2.8-6.05q-2.3-5.3-3.7-8.15t-3.6-6.5-4.45-5.35-4.65-1.7h-36q-2.2 8.4-9.1 13.8t-15.7 5.4q-10.6 0-18.1-7.5T0 83.2t7.5-18.1 18.1-7.5q8.8 0 15.7 5.4t9.1 13.8h10.4q2.4 0 4.65-1.7t4.45-5.35 3.6-6.5 3.7-8.15q1.9-4.1 2.8-6.05t2.85-5.75 3.35-5.7 3.7-4.6 4.5-4.05 5.1-2.35 6.1-1h10.7q2.1-5.7 7-9.25t11.1-3.55q8 0 13.6 5.6t5.6 13.6-5.6 13.6-13.6 5.6q-6.2 0-11.1-3.55t-7-9.25h-10.7q-1.7 0-3.3.8t-3.15 2.6-2.7 3.4-2.7 4.7-2.4 4.9-2.45 5.5Q84.3 71 80.6 76.8H192V64q0-1.8 1.6-2.8t3.2.1z"/></svg>