<svg xmlns="http://www.w3.org/2000/svg" width="179.2" height="179.2"><path d="M152.3 133.9q-2.2-15.5-8.75-25.75T125.1 96.3q-6.7 7.4-15.95 11.55T89.6 112t-19.55-4.15T54.1 96.3q-11.9 1.6-18.45 11.85T26.9 133.9q10.6 15 27.1 23.75t35.6 8.75 35.6-8.75 27.1-23.75zM128 64q0-15.9-11.25-27.15T89.6 25.6 62.45 36.85 51.2 64t11.25 27.15T89.6 102.4t27.15-11.25T128 64zm51.2 25.6q0 18.2-7.1 34.75t-19.05 28.6-28.55 19.15-34.9 7.1q-18.2 0-34.8-7.1T26.2 153 7.1 124.4 0 89.6t7.1-34.8 19.1-28.6T54.8 7.1 89.6 0t34.8 7.1T153 26.2t19.1 28.6 7.1 34.8z"/></svg>