<svg xmlns="http://www.w3.org/2000/svg" width="153.6" height="179.2"><path d="m57.6 153.6 9.6-44.8L57.6 96l-12.8-6.4zm25.6 0 12.8-64L83.2 96l-9.6 12.8zm16-101q-.2-.4-.4-.6-1-.8-9.6-.8-7 0-16.7 1.9-.7.2-2.1.2t-2.1-.2q-9.7-1.9-16.7-1.9-8.6 0-9.6.8-.2.2-.4.6.2 1.8.4 2.7.2.3.75.65T43.5 57q.2.4.75 2.05t.7 2.05.75 1.7.85 1.7.9 1.4 1.2 1.35 1.4.95 1.75.8 2.05.4 2.45.2q3.6 0 5.9-1.25t3.25-3 1.45-3.45 1.15-2.95 1.75-1.25H71q1.1 0 1.75 1.25t1.15 2.95 1.45 3.45 3.25 3 5.9 1.25q1.3 0 2.45-.2T89 69t1.75-.8 1.4-.95 1.2-1.35.9-1.4.85-1.7.75-1.7.7-2.05.75-2.05q.2-.7.75-1.05t.75-.65q.2-.9.4-2.7zm41.6 87.9q0 12.1-7.3 19t-19.4 6.9H26.7q-12.1 0-19.4-6.9t-7.3-19q0-6.1.45-11.8t1.9-12.55T6.1 103.8t6.35-10.35T21.8 86l-9-22h21.4Q32 57.6 32 51.2q0-1.2.2-3.2-19.4-4-19.4-9.6 0-5.7 21-9.9 1.7-6.2 5.15-13.4T46 3.7Q49.2 0 53.6 0q3 0 8.4 3.1t8.4 3.1 8.4-3.1T87.2 0q4.4 0 7.6 3.7 3.6 4.2 7.05 11.4T107 28.5q21 4.2 21 9.9 0 5.6-19.4 9.6.7 8.1-2 16H128l-8.2 22.5q6.3 3.3 10.75 9.65t6.55 14.35 2.9 15.15.8 14.85z"/></svg>