<svg xmlns="http://www.w3.org/2000/svg" version="1.1" width="204.8" height="179.2"><path d="M704 640q-159 0 -271.5 112.5t-112.5 271.5t112.5 271.5t271.5 112.5t271.5 -112.5t112.5 -271.5t-112.5 -271.5t-271.5 -112.5zM1781 320l249 -249q9 -9 9 -23q0 -13 -9 -22l-136 -136q-9 -9 -22 -9q-14 0 -23 9l-249 249l-249 -249q-9 -9 -23 -9q-13 0 -22 9l-136 136 q-9 9 -9 22q0 14 9 23l249 249l-249 249q-9 9 -9 23q0 13 9 22l136 136q9 9 22 9q14 0 23 -9l249 -249l249 249q9 9 23 9q13 0 22 -9l136 -136q9 -9 9 -22q0 -14 -9 -23zM1283 320l-181 -181q-37 -37 -37 -91q0 -53 37 -90l83 -83q-21 -3 -44 -3h-874q-121 0 -194 69 t-73 190q0 53 3.5 103.5t14 109t26.5 108.5t43 97.5t62 81t85.5 53.5t111.5 20q19 0 39 -17q154 -122 319 -122t319 122q20 17 39 17q28 0 57 -6q-28 -27 -41 -50t-13 -56q0 -54 37 -91z" transform="scale(0.1 -0.1) translate(0 -1536)" /></svg>
