<svg xmlns="http://www.w3.org/2000/svg" width="153.6" height="179.2"><path d="M120.1 78.4q4.7 1.4 8.95 3.8t8.9 7.3 7.95 11.55 5.5 17.2 2.2 23.65q0 15.4-10 26.35t-24.1 10.95H34.1q-14.1 0-24.1-10.95T0 141.9q0-13.1 2.2-23.65t5.5-17.2 7.95-11.55 8.9-7.3 8.95-3.8q-7.9-12.5-7.9-27.2 0-10.4 4.05-19.85T40.6 15 56.95 4.05 76.8 0t19.85 4.05T113 15t10.95 16.35T128 51.2q0 14.7-7.9 27.2zM76.8 12.8q-15.9 0-27.15 11.25T38.4 51.2t11.25 27.15T76.8 89.6t27.15-11.25T115.2 51.2t-11.25-27.15T76.8 12.8zm42.7 153.6q8.8 0 15.05-7.15t6.25-17.35q0-23.9-7.85-37.7T110.4 89.7q-14.5 12.7-33.6 12.7T43.2 89.7q-14.7.7-22.55 14.5t-7.85 37.7q0 10.2 6.25 17.35t15.05 7.15h85.4z"/></svg>