<svg xmlns="http://www.w3.org/2000/svg" version="1.1" width="204.8" height="179.2"><path d="M1024 405q0 -64 -37 -106.5t-91 -42.5h-512q-54 0 -91 42.5t-37 106.5t9 117.5t29.5 103t60.5 78t97 28.5q6 -4 30 -18t37.5 -21.5t35.5 -17.5t43 -14.5t42 -4.5t42 4.5t43 14.5t35.5 17.5t37.5 21.5t30 18q57 0 97 -28.5t60.5 -78t29.5 -103t9 -117.5zM867 925 q0 -94 -66.5 -160.5t-160.5 -66.5t-160.5 66.5t-66.5 160.5t66.5 160.5t160.5 66.5t160.5 -66.5t66.5 -160.5zM1792 480v-64q0 -14 -9 -23t-23 -9h-576q-14 0 -23 9t-9 23v64q0 14 9 23t23 9h576q14 0 23 -9t9 -23zM1792 732v-56q0 -15 -10.5 -25.5t-25.5 -10.5h-568 q-15 0 -25.5 10.5t-10.5 25.5v56q0 15 10.5 25.5t25.5 10.5h568q15 0 25.5 -10.5t10.5 -25.5zM1792 992v-64q0 -14 -9 -23t-23 -9h-576q-14 0 -23 9t-9 23v64q0 14 9 23t23 9h576q14 0 23 -9t9 -23zM1920 32v1216q0 13 -9.5 22.5t-22.5 9.5h-1728q-13 0 -22.5 -9.5 t-9.5 -22.5v-1216q0 -13 9.5 -22.5t22.5 -9.5h352v96q0 14 9 23t23 9h64q14 0 23 -9t9 -23v-96h768v96q0 14 9 23t23 9h64q14 0 23 -9t9 -23v-96h352q13 0 22.5 9.5t9.5 22.5zM2048 1248v-1216q0 -66 -47 -113t-113 -47h-1728q-66 0 -113 47t-47 113v1216q0 66 47 113 t113 47h1728q66 0 113 -47t47 -113z" transform="scale(0.1 -0.1) translate(0 -1536)" /></svg>
