<svg xmlns="http://www.w3.org/2000/svg" version="1.1" width="128.0" height="179.2"><path d="M1152 960q0 -221 -147.5 -384.5t-364.5 -187.5v-260h224q14 0 23 -9t9 -23v-64q0 -14 -9 -23t-23 -9h-224v-224q0 -14 -9 -23t-23 -9h-64q-14 0 -23 9t-9 23v224h-224q-14 0 -23 9t-9 23v64q0 14 9 23t23 9h224v260q-150 16 -271.5 103t-186 224t-52.5 292 q11 134 80.5 249t182 188t245.5 88q170 19 319 -54t236 -212t87 -306zM128 960q0 -185 131.5 -316.5t316.5 -131.5t316.5 131.5t131.5 316.5t-131.5 316.5t-316.5 131.5t-316.5 -131.5t-131.5 -316.5z" transform="scale(0.1 -0.1) translate(0 -1536)" /></svg>
