<svg xmlns="http://www.w3.org/2000/svg" version="1.1" width="153.6" height="179.2"><path d="M1050 495q0 78 -28 147q-41 -25 -85 -34q22 -50 22 -114q0 -117 -77 -198.5t-193 -81.5t-193.5 81.5t-77.5 198.5q0 115 78 199.5t193 84.5q53 0 98 -19q4 43 27 87q-60 21 -125 21q-154 0 -257.5 -108.5t-103.5 -263.5t103.5 -261t257.5 -106t257.5 106.5t103.5 260.5z M872 850q2 -24 2 -71q0 -63 -5 -123t-20.5 -132.5t-40.5 -130t-68.5 -106t-100.5 -70.5q21 -3 42 -3h10q219 139 219 411q0 116 -38 225zM872 850q-4 80 -44 171.5t-98 130.5q92 -156 142 -302zM1207 955q0 102 -51 174q-41 -86 -124 -109q-69 -19 -109 -53.5t-40 -99.5 q0 -40 24 -77q74 17 140.5 67t95.5 115q-4 -52 -74.5 -111.5t-138.5 -97.5q52 -52 110 -52q51 0 90 37t60 90q17 42 17 117zM1536 1120v-960q0 -119 -84.5 -203.5t-203.5 -84.5h-960q-119 0 -203.5 84.5t-84.5 203.5v960q0 119 84.5 203.5t203.5 84.5h960q119 0 203.5 -84.5 t84.5 -203.5z" transform="scale(0.1 -0.1) translate(0 -1536)" /></svg>
