<svg xmlns="http://www.w3.org/2000/svg" width="128" height="179.2"><path d="M105 110.6q0 21.5-14.7 37.4-14.8 16.1-37.8 16.1-23.2 0-37.8-16.1Q0 132.1 0 110.6q0-14.7 6.8-27.05T25.7 63.9t26.8-7.3q9.6 0 18.2 3.1-3.2 6.2-3.9 12.6-6.6-2.8-14.3-2.8-16.7 0-28.05 12.3T13.1 110.9q0 17 11.25 28.85T52.5 151.6t28.1-11.85 11.2-28.85q0-8.9-3.2-16.6 6.6-1.3 12.3-4.9 4.1 9.8 4.1 21.2zM84.6 91.7q0 19.2-7.95 34.5T52.8 151.5l-1.4.1q-2.9 0-6.2-.5 8.3-3.2 14.65-10.25t9.95-15.45 5.85-18.9 3-19.25.75-17.85q0-6.9-.3-10.3 5.5 16 5.5 32.6zm-5.5-32.8v.2q-7.3-21.4-20.6-44 8.8 5.9 14.25 18.65T79.1 58.9zm24.4 20.3q-8.3 0-16-7.5 21.8-12 29-24.7 1.9-3.7 2.1-5.6-4.2 9.4-13.95 16.65T84.2 67.8q-3.5-5.4-3.5-11.3 0-3.7 1.7-7.9t4.3-6.8q4.6-4.4 15.7-7.4 5.9-1.6 10.6-5.85t7.4-10.05q7.4 10.5 7.4 25.3 0 10.9-2.4 17-3.2 7.7-8.85 13.05T103.5 79.2z"/></svg>