<svg xmlns="http://www.w3.org/2000/svg" width="192" height="179.2"><path d="M191.7 52q2.3 6.4-15 29.4-2.4 3.2-6.5 8.5-4 5.1-5.5 7.2t-3.05 4.95-1.2 4.2 1.3 3.45T165 114t5.7 5.3q.4.2.5.4 14.1 13.1 19.1 22.1.3.5.65 1.25t.7 2.65-.05 3.4-2.5 2.75-5.9 1.25l-25.6.4q-2.4.5-5.6-.5t-5.2-2.2l-2-1.2q-3-2.1-7-6.4t-6.85-7.75-6.1-5.8-5.65-1.55q-.3.1-.8.35t-1.7 1.45-2.15 2.95-1.7 5.2-.65 7.75q0 1.5-.35 2.75t-.75 1.85l-.4.5q-1.8 1.9-5.3 2.2H93.9q-7.1.4-14.6-1.65t-13.15-5.3-10.3-6.6-7.05-5.75l-2.5-2.4q-1-1-2.75-3t-7.15-9.1-10.6-15.1-12.25-21.1T.5 55.9q-.6-1.6-.6-2.7t.3-1.6l.4-.6q1.5-1.9 5.7-1.9l27.4-.2q1.2.2 2.3.65t1.6.85l.5.3q1.6 1.1 2.4 3.2 2 5 4.6 10.35t4.1 8.15l1.6 2.9q2.9 6 5.6 10.4t4.85 6.85 4.15 3.85 3.4 1.4 2.7-.5q.2-.1.5-.5t1.2-2.2 1.35-4.7.95-8.1 0-12.5q-.2-4-.9-7.3t-1.4-4.6l-.6-1.2q-2.5-3.4-8.5-4.3-1.3-.2.5-2.4 1.6-1.9 3.8-3 5.3-2.6 23.9-2.4 8.2.1 13.5 1.3 2 .5 3.35 1.35t2.05 2.4 1.05 3.2.35 4.55-.1 5.5-.25 7.05-.15 8.25q0 1.1-.1 4.2t-.05 4.8.35 4.05 1.15 3.9 2.25 2.45q.8.2 1.7.4t2.6-1.1 3.8-3.45 5.2-6.7 6.8-10.75q6-10.4 10.7-22.5.4-1 1-1.75t1.1-1.05l.4-.3.5-.25 1.3-.3 2-.05 28.8-.2q3.9-.5 6.4.25t3.1 1.65z"/></svg>