<svg xmlns="http://www.w3.org/2000/svg" width="140.8" height="179.2"><path d="M61.7 168.9q0-1.1-1.3-5.8t-3.1-10.7-2-6.9q-.1-.4-.5-2.65t-.85-3.6-1.35-2.15q-1.5-1.4-5.1-1.4-2.3 0-7 .55t-7.1.55q-3.4 0-4.7-1.1-.6-.5-1.1-1.55t-.75-2-.65-2.4-.5-1.85Q22 115.1 22 102.4t3.7-25.5q.1-.4.5-1.85t.65-2.4.75-2 1.1-1.55Q30 68 33.4 68q2.4 0 7.1.55t7 .55q3.6 0 5.1-1.4.9-.8 1.35-2.15t.85-3.6.5-2.65q.2-.9 2-6.9t3.1-10.7 1.3-5.8q0-2.2-4.35-5.25T49.8 26.4q-2-.8-4.5-.8-3.4 0-9.8 1.8-5.7 1.7-9.65 4.05t-7.1 6.6-4.6 7T9.6 54.5q-.6 1.2-.9 1.9Q3.8 67.1 1.9 78T0 102.4t1.9 24.4 6.8 21.6q5.6 12.2 8.3 16.1 6.3 9.1 17.9 12.7l.6.2q6.4 1.8 9.8 1.8 2.5 0 4.5-.8 3.2-1.2 7.55-4.25t4.35-5.25zm15.9-91.3q-2.6 0-4.5-1.9t-1.9-4.55 1.9-4.55q3.7-3.7 3.7-9 0-5.2-3.7-9.1-1.9-1.9-1.9-4.5t1.9-4.5 4.5-1.9 4.5 1.9q7.5 7.5 7.5 18.1t-7.5 18.1q-2.1 1.9-4.5 1.9zm18.1 18.1q-2.7 0-4.5-1.9-1.9-1.9-1.9-4.5t1.9-4.5q11.2-11.4 11.2-27.2T91.2 30.4q-1.9-1.9-1.9-4.5t1.9-4.5 4.5-1.9 4.5 1.9q15 15 15 36.2t-15 36.2q-1.8 1.9-4.5 1.9zm18.1 18.1q-2.7 0-4.5-1.9-1.9-1.9-1.9-4.5t1.9-4.5q9-9.1 13.85-20.8T128 57.6t-4.85-24.5-13.85-20.8q-1.9-1.9-1.9-4.5t1.9-4.5 4.5-1.9 4.5 1.9q10.9 10.9 16.7 24.9t5.8 29.4T135 87t-16.7 24.9q-1.8 1.9-4.5 1.9z"/></svg>