<svg xmlns="http://www.w3.org/2000/svg" version="1.1" width="204.8" height="179.2"><path d="M580 1075q0 41 -25 66t-66 25q-43 0 -76 -25.5t-33 -65.5q0 -39 33 -64.5t76 -25.5q41 0 66 24.5t25 65.5zM1323 568q0 28 -25.5 50t-65.5 22q-27 0 -49.5 -22.5t-22.5 -49.5q0 -28 22.5 -50.5t49.5 -22.5q40 0 65.5 22t25.5 51zM1087 1075q0 41 -24.5 66t-65.5 25 q-43 0 -76 -25.5t-33 -65.5q0 -39 33 -64.5t76 -25.5q41 0 65.5 24.5t24.5 65.5zM1722 568q0 28 -26 50t-65 22q-27 0 -49.5 -22.5t-22.5 -49.5q0 -28 22.5 -50.5t49.5 -22.5q39 0 65 22t26 51zM1456 965q-31 4 -70 4q-169 0 -311 -77t-223.5 -208.5t-81.5 -287.5 q0 -78 23 -152q-35 -3 -68 -3q-26 0 -50 1.5t-55 6.5t-44.5 7t-54.5 10.5t-50 10.5l-253 -127l72 218q-290 203 -290 490q0 169 97.5 311t264 223.5t363.5 81.5q176 0 332.5 -66t262 -182.5t136.5 -260.5zM2048 404q0 -117 -68.5 -223.5t-185.5 -193.5l55 -181l-199 109 q-150 -37 -218 -37q-169 0 -311 70.5t-223.5 191.5t-81.5 264t81.5 264t223.5 191.5t311 70.5q161 0 303 -70.5t227.5 -192t85.5 -263.5z" transform="scale(0.1 -0.1) translate(0 -1536)" /></svg>
