<svg xmlns="http://www.w3.org/2000/svg" width="153.6" height="179.2"><path d="M98.5 97.4q1.3 0 9.75 4.4t8.95 5.3q.2.5.2 1.5 0 3.3-1.7 7.6-1.6 3.9-7.1 6.55t-10.2 2.65q-5.7 0-19-6.2-9.8-4.5-17-11.8T47.6 88.9q-7.2-10.7-7.1-19.4v-.8q.3-9.1 7.4-15.8 2.4-2.2 5.2-2.2.6 0 1.8.15t1.9.15q1.9 0 2.65.65T61 54.4q.8 2 3.3 8.8t2.5 7.5q0 2.1-3.45 5.75T59.9 81.1q0 .7.5 1.5 3.4 7.3 10.2 13.7 5.6 5.3 15.1 10.1 1.2.7 2.2.7 1.5 0 5.4-4.85t5.2-4.85zm-20.3 53q12.7 0 24.35-5T122.6 132t13.4-20.05 5-24.35-5-24.35-13.4-20.05-20.05-13.4-24.35-5-24.35 5T33.8 43.2 20.4 63.25t-5 24.35q0 20.3 12 36.8l-7.9 23.3 24.2-7.7q15.8 10.4 34.5 10.4zm0-138.2q15.3 0 29.25 6t24.05 16.1 16.1 24.05 6 29.25-6 29.25-16.1 24.05-24.05 16.1-29.25 6q-19.5 0-36.5-9.4L0 167l13.6-40.5Q2.8 108.7 2.8 87.6q0-15.3 6-29.25T24.9 34.3t24.05-16.1 29.25-6z"/></svg>