<svg xmlns="http://www.w3.org/2000/svg" width="153.6" height="179.2"><path d="M143.8 81.3q3.4 3.5 2.9 8.2l-4.4 55.1q-.4 4.2-3.45 7t-7.15 2.8q-.6 0-.9-.1-4.4-.3-7.25-3.65T121 142.9l3.5-42.9-14.3.8q5.5 11.3 5.5 24 0 21.6-14.8 37.2l-13.7-13.7q9.1-10.1 9.1-23.5 0-14.5-10.25-24.8T61.3 89.7q-13.4 0-23.6 9.2L24 85.1Q36 73.7 52.4 71l26.4-30-14.9-8.7-18.1 16.1q-3.3 3-7.7 2.75t-7.3-3.55-2.65-7.7 3.45-7.3l23.9-21.3q2.6-2.3 6-2.65t6.4 1.45l48.8 28.3q3.6 2.1 4.8 6.8 1.7 6.7-2.6 11.7L98.4 80.1l37.1-2q4.9-.3 8.3 3.2zM124 35.6q-7.4 0-12.6-5.2t-5.2-12.6 5.2-12.6T124 0t12.65 5.2 5.25 12.6-5.25 12.6T124 35.6zM61.3 159.8q10.6 0 19.6-6.1l13.9 13.9q-14.6 11.6-33.5 11.6-14.8 0-27.35-7.3T14.1 152.1t-7.3-27.3q0-18.8 11.6-33.6l13.9 13.9q-6 8.8-6 19.7 0 14.5 10.25 24.75T61.3 159.8z"/></svg>