<svg xmlns="http://www.w3.org/2000/svg" version="1.1" width="153.6" height="179.2"><path d="M1438 723q34 -35 29 -82l-44 -551q-4 -42 -34.5 -70t-71.5 -28q-6 0 -9 1q-44 3 -72.5 36.5t-25.5 77.5l35 429l-143 -8q55 -113 55 -240q0 -216 -148 -372l-137 137q91 101 91 235q0 145 -102.5 248t-247.5 103q-134 0 -236 -92l-137 138q120 114 284 141l264 300 l-149 87l-181 -161q-33 -30 -77 -27.5t-73 35.5t-26.5 77t34.5 73l239 213q26 23 60 26.5t64 -14.5l488 -283q36 -21 48 -68q17 -67 -26 -117l-205 -232l371 20q49 3 83 -32zM1240 1180q-74 0 -126 52t-52 126t52 126t126 52t126.5 -52t52.5 -126t-52.5 -126t-126.5 -52z M613 -62q106 0 196 61l139 -139q-146 -116 -335 -116q-148 0 -273.5 73t-198.5 198t-73 273q0 188 116 336l139 -139q-60 -88 -60 -197q0 -145 102.5 -247.5t247.5 -102.5z" transform="scale(0.1 -0.1) translate(0 -1536)" /></svg>
