<svg xmlns="http://www.w3.org/2000/svg" version="1.1" width="204.8" height="179.2"><path d="M1024 13q-20 0 -93 73.5t-73 93.5q0 32 62.5 54t103.5 22t103.5 -22t62.5 -54q0 -20 -73 -93.5t-93 -73.5zM1294 284q-2 0 -40 25t-101.5 50t-128.5 25t-128.5 -25t-101 -50t-40.5 -25q-18 0 -93.5 75t-75.5 93q0 13 10 23q78 77 196 121t233 44t233 -44t196 -121 q10 -10 10 -23q0 -18 -75.5 -93t-93.5 -75zM1567 556q-11 0 -23 8q-136 105 -252 154.5t-268 49.5q-85 0 -170.5 -22t-149 -53t-113.5 -62t-79 -53t-31 -22q-17 0 -92 75t-75 93q0 12 10 22q132 132 320 205t380 73t380 -73t320 -205q10 -10 10 -22q0 -18 -75 -93t-92 -75z M1838 827q-11 0 -22 9q-179 157 -371.5 236.5t-420.5 79.5t-420.5 -79.5t-371.5 -236.5q-11 -9 -22 -9q-17 0 -92.5 75t-75.5 93q0 13 10 23q187 186 445 288t527 102t527 -102t445 -288q10 -10 10 -23q0 -18 -75.5 -93t-92.5 -75z" transform="scale(0.1 -0.1) translate(0 -1536)" /></svg>
