<svg xmlns="http://www.w3.org/2000/svg" width="204.8" height="179.2"><path d="M102.4 152.3q-2 0-9.3-7.35t-7.3-9.35q0-3.2 6.25-5.4t10.35-2.2 10.35 2.2 6.25 5.4q0 2-7.3 9.35t-9.3 7.35zm27-27.1q-.2 0-4-2.5t-10.15-5-12.85-2.5-12.85 2.5-10.1 5-4.05 2.5q-1.8 0-9.35-7.5t-7.55-9.3q0-1.3 1-2.3 7.8-7.7 19.6-12.1t23.3-4.4 23.3 4.4 19.6 12.1q1 1 1 2.3 0 1.8-7.55 9.3t-9.35 7.5zM156.7 98q-1.1 0-2.3-.8-13.6-10.5-25.2-15.45t-26.8-4.95q-8.5 0-17.05 2.2t-14.9 5.3-11.35 6.2-7.9 5.3-3.1 2.2q-1.7 0-9.2-7.5t-7.5-9.3q0-1.2 1-2.2 13.2-13.2 32-20.5t38-7.3 38 7.3 32 20.5q1 1 1 2.2 0 1.8-7.5 9.3t-9.2 7.5zm27.1-27.1q-1.1 0-2.2-.9-17.9-15.7-37.15-23.65T102.4 38.4t-42.05 7.95T23.2 70q-1.1.9-2.2.9-1.7 0-9.25-7.5T4.2 54.1q0-1.3 1-2.3Q23.9 33.2 49.7 23t52.7-10.2T155.1 23t44.5 28.8q1 1 1 2.3 0 1.8-7.55 9.3t-9.25 7.5z"/></svg>