<svg xmlns="http://www.w3.org/2000/svg" width="230.4" height="179.2"><path d="m149.4 163.9-29.5-69.5q-2.5 4.9-15.85 30.55T84.2 163.9q-.1.1-2.75.05t-2.65-.15q-8.2-19.3-25.55-58.7T27.3 45.5q-2.1-5-6.65-10.75T10.3 24.7.1 20.4q0-.5-.05-2.4T0 15.3h58.3v5q-3.9.2-7.95 1.6t-6.65 4.3-1 6.4q2.6 5.9 21.65 49.9t23.55 54q3.1-6.1 14-26.65T115 85.1q-1.9-3.9-12.6-28.1T88.8 27.5q-3.8-6.9-20.1-7.1v-5l51.3.1v4.7q-6 .2-9.35 2.5t-1.25 6.9q3.3 7 8.7 18.95t8.6 18.75q11-21.4 17.3-36.3 2.4-5.5-1-7.95t-12.9-2.65q.1-.7.1-2.5v-2.4q6.4 0 17.05-.05t18-.1 9.25-.05v4.9q-6.2.2-11.9 3.3t-9 8.1l-21.3 44.2q1.3 3.3 12.75 29t12.15 27.4l44.1-101.7q-1.4-3.8-4.95-6.25t-6.5-3.15-5.55-.8v-5l46 .4.1.2-.1 4.4q-13.9.4-20.1 14.5-52.6 121.6-55.9 129.1h-4.9z"/></svg>