<svg xmlns="http://www.w3.org/2000/svg" width="179.2" height="179.2"><path d="M12.7 89.6q0-16.3 6.7-31.3l36.7 100.5q-19.6-9.5-31.5-28.1T12.7 89.6zm128.8-3.9q0 1.9-.25 3.85t-1 4.95-1.15 4.4-1.75 5.9-1.75 5.8l-7.6 25.6-27.8-82.6q4.6-.3 8.8-.8 1.9-.2 2.6-1.85t-.25-3.1-2.85-1.35l-20.5 1q-7.5-.1-20.2-1-1.2-.1-2.05.5t-1.15 1.5-.15 1.85.9 1.65 1.95.8l8 .8 12 32.8-16.8 50.4-28-83.2q4.6-.3 8.8-.8 1.9-.2 2.6-1.85t-.25-3.1-2.85-1.35l-20.5 1q-.7 0-2.3-.05t-2.6-.05q10.5-16 27.45-25.35T89.6 12.7q14.7 0 28.05 5.3t23.85 14.9h-1q-5.5 0-9.2 4.05t-3.7 9.55q0 1.2.2 2.4t.4 2.15.8 2.3.9 2.1 1.2 2.25 1.25 2.1 1.45 2.4 1.4 2.3q6.3 10.7 6.3 21.2zM90.9 96.3l23.7 64.7q.1.6.5 1.1-12.6 4.4-25.5 4.4-11.2 0-21.7-3.2zM157 52.7q9.5 17.4 9.5 36.9 0 20.9-10.4 38.55T128.2 156l23.5-67.8q5.9-16.9 5.9-27.6 0-4.2-.6-7.9zM89.6 0q18.2 0 34.8 7.1T153 26.2t19.1 28.6 7.1 34.8-7.1 34.8T153 153t-28.6 19.1-34.8 7.1-34.8-7.1T26.2 153 7.1 124.4 0 89.6t7.1-34.8 19.1-28.6T54.8 7.1 89.6 0zm0 175.1q17.3 0 33.15-6.8t27.3-18.25 18.25-27.3 6.8-33.15-6.8-33.15-18.25-27.3-27.3-18.25T89.6 4.1t-33.15 6.8-27.3 18.25-18.25 27.3T4.1 89.6t6.8 33.15 18.25 27.3 27.3 18.25 33.15 6.8z"/></svg>