<svg xmlns="http://www.w3.org/2000/svg" version="1.1" width="179.2" height="179.2"><path d="M384 704h160v224h-160v-224zM1221 372v92q-104 -36 -243 -38q-135 -1 -259.5 46.5t-220.5 122.5l1 -96q88 -80 212 -128.5t272 -47.5q129 0 238 49zM640 704h640v224h-640v-224zM1792 736q0 -187 -99 -352q89 -102 89 -229q0 -157 -129.5 -268t-313.5 -111 q-122 0 -225 52.5t-161 140.5q-19 -1 -57 -1t-57 1q-58 -88 -161 -140.5t-225 -52.5q-184 0 -313.5 111t-129.5 268q0 127 89 229q-99 165 -99 352q0 209 120 385.5t326.5 279.5t449.5 103t449.5 -103t326.5 -279.5t120 -385.5z" transform="scale(0.1 -0.1) translate(0 -1536)" /></svg>
