<svg xmlns="http://www.w3.org/2000/svg" width="179.2" height="179.2"><path d="m94.8 102.8 16.3 32.9H106l-17.5-35-17.1 35h-4.9l17.9-37.4-7.8-3.3 2.1-4.9 24 10.2-2.1 5zM56.3 43.6l30.4 13-13 30.4-30.4-13zm34.4 18.5 24 10.3-10.3 23.9-23.9-10.2zm28.1 15 19.1 8.1-8.2 19-19-8.1zM168 89.6q0-15.9-6.2-30.4t-16.75-25.05T120 17.4t-30.4-6.2-30.4 6.2-25.05 16.75T17.4 59.2t-6.2 30.4 6.2 30.4 16.75 25.05T59.2 161.8t30.4 6.2 30.4-6.2 25.05-16.75T161.8 120t6.2-30.4zm11.2 0q0 18.2-7.1 34.8T153 153t-28.6 19.1-34.8 7.1-34.8-7.1T26.2 153 7.1 124.4 0 89.6t7.1-34.8 19.1-28.6T54.8 7.1 89.6 0t34.8 7.1T153 26.2t19.1 28.6 7.1 34.8z"/></svg>