<svg xmlns="http://www.w3.org/2000/svg" width="153.6" height="179.2"><path d="M51.5 91.1v12.8H26.3V91.1h25.2zm0-25.5v12.7H26.3V65.6h25.2zm75.8 51.1v12.8H93.2v-12.8h34.1zm0-25.6v12.8H60.1V91.1h67.2zm0-25.5v12.7H60.1V65.6h67.2zm13.5 86v-124q0-.8-.6-1.4t-1.4-.6h-3.2L97.8 51.2l-21-17.1-21 17.1L18 25.6h-3.2q-.8 0-1.4.6t-.6 1.4v124q0 .8.6 1.4t1.4.6h124q.8 0 1.4-.6t.6-1.4zm-85.5-111 18.5-15H33.2zm43 0 22.1-15H79.8zm55.3-13v124q0 6.2-4.3 10.5t-10.5 4.3h-124q-6.2 0-10.5-4.3T0 151.6v-124q0-6.2 4.3-10.5t10.5-4.3h124q6.2 0 10.5 4.3t4.3 10.5z"/></svg>