<svg xmlns="http://www.w3.org/2000/svg" width="153.6" height="179.2"><path d="M68.5 76.5q0-.1-12.6-22.2-2.1-3.4-5.2-3.4H32.3q-1.8 0-2.6 1.1-.7 1.2.1 2.9l12.5 21.6v.1l-19.6 34.6q-.9 1.4 0 2.8.8 1.3 2.4 1.3h18.5q3.1 0 5-3.6zm62.4-49.7q-.7-1.2-2.4-1.2h-18.7q-3 0-4.9 3.5L63.8 102q.1.2 26.2 48.1 2 3.5 5.2 3.5h18.4q1.8 0 2.5-1.2.8-1.3-.1-2.8L90 102v-.1l40.9-72.3q.8-1.6 0-2.8zm22.7 14.8v96q0 11.9-8.45 20.35t-20.35 8.45h-96q-11.9 0-20.35-8.45T0 137.6v-96q0-11.9 8.45-20.35T28.8 12.8h96q11.9 0 20.35 8.45t8.45 20.35z"/></svg>