<svg xmlns="http://www.w3.org/2000/svg" version="1.1" width="166.4" height="179.2"><path d="M339 1318h691l-26 -72h-665q-110 0 -188.5 -79t-78.5 -189v-771q0 -95 60.5 -169.5t153.5 -93.5q23 -5 98 -5v-72h-45q-140 0 -239.5 100t-99.5 240v771q0 140 99.5 240t239.5 100zM1190 1536h247l-482 -1294q-23 -61 -40.5 -103.5t-45 -98t-54 -93.5t-64.5 -78.5 t-79.5 -65t-95.5 -41t-116 -18.5v195q163 26 220 182q20 52 20 105q0 54 -20 106l-285 733h228l187 -585zM1664 978v-1111h-795q37 55 45 73h678v1038q0 85 -49.5 155t-129.5 99l25 67q101 -34 163.5 -123.5t62.5 -197.5z" transform="scale(0.1 -0.1) translate(0 -1536)" /></svg>
