<svg xmlns="http://www.w3.org/2000/svg" width="153.6" height="179.2"><path d="M91.9 130.3v-15.7q0-5-2.9-5-1.7 0-3.3 1.6v22.4q1.6 1.6 3.3 1.6 2.9 0 2.9-4.9zm18.4-12.2h6.6v-3.4q0-5.1-3.3-5.1t-3.3 5.1v3.4zM53.2 91.5v7h-8v42.3h-7.4V98.5H30v-7h23.2zm20.1 12.6v36.7h-6.7v-4q-3.9 4.5-7.6 4.5-3.3 0-4.2-2.8-.6-1.7-.6-5.4v-29h6.6v27q0 2.4.1 2.6.1 1.5 1.5 1.5 2 0 4.2-3.1v-28h6.7zm25.2 11.1v14.6q0 5.2-.7 7.3-1.2 4.2-5.3 4.2-3.5 0-6.8-4.1v3.6H79V91.5h6.7v16.1q3.2-4 6.8-4 4.1 0 5.3 4.2.7 2.1.7 7.4zm25.1 12.9v.9q0 2.9-.2 4.3-.3 2.2-1.5 4-2.7 4-8 4-5.2 0-8.1-3.8-2.1-2.7-2.1-8.6V116q0-5.9 2-8.6 2.9-3.8 8-3.8t7.8 3.8q2.1 2.9 2.1 8.6v7.6h-13.3v6.5q0 5.1 3.4 5.1 2.4 0 3-2.6 0-.1.05-.7t.05-1.65v-2.15h6.8zM78.5 45.7v15.6q0 5.1-3.2 5.1t-3.2-5.1V45.7q0-5.2 3.2-5.2t3.2 5.2zm53.3 71.3q0-17.7-1.9-26-1-4.4-4.3-7.35T118 80.2q-13.6-1.5-41.2-1.5-27.5 0-41.1 1.5-4.4.5-7.65 3.45T23.8 91q-2 8.7-2 26 0 17.6 2 26 1 4.3 4.25 7.3t7.55 3.5q13.7 1.5 41.2 1.5t41.2-1.5q4.3-.5 7.55-3.5t4.25-7.3q2-8.4 2-26zM56.3 51.9l9-29.6h-7.5l-5.1 19.5-5.3-19.5h-7.8q.7 2.3 2.3 6.9l2.4 6.9q3.5 10.3 4.6 15.8V72h7.4V51.9zM85.2 60V47q0-5.8-2.1-8.7-2.9-3.8-7.8-3.8-5.1 0-7.8 3.8-2.1 2.9-2.1 8.7v13q0 5.8 2.1 8.7 2.7 3.8 7.8 3.8 4.9 0 7.8-3.8 2.1-2.7 2.1-8.7zm18.1 12h6.7V35h-6.7v28.3q-2.2 3.1-4.2 3.1-1.5 0-1.6-1.6-.1-.2-.1-2.6V35h-6.7v29.3q0 3.7.6 5.5 1.1 2.7 4.3 2.7 3.6 0 7.7-4.5v4zm50.3-30.4v96q0 11.9-8.45 20.35t-20.35 8.45h-96q-11.9 0-20.35-8.45T0 137.6v-96q0-11.9 8.45-20.35T28.8 12.8h96q11.9 0 20.35 8.45t8.45 20.35z"/></svg>