<svg xmlns="http://www.w3.org/2000/svg" width="153.6" height="179.2"><path d="M97.1 124.4v21.1q0 6.7-3.9 6.7-2.3 0-4.5-2.2v-30.1q2.2-2.2 4.5-2.2 3.9 0 3.9 6.7zm33.8.1v4.6h-9v-4.6q0-6.8 4.5-6.8t4.5 6.8zm-96.6-21.8H45v-9.4H13.8v9.4h10.5v56.9h10v-56.9zm28.8 56.9H72v-49.4h-8.9V148q-3 4.2-5.7 4.2-1.8 0-2.1-2.1-.1-.3-.1-3.5v-36.4h-8.9v39.1q0 4.9.8 7.3 1.2 3.7 5.8 3.7 4.8 0 10.2-6.1v5.4zm42.9-14.8v-19.7q0-7.3-.9-9.9-1.7-5.6-7.1-5.6-5 0-9.3 5.4V93.3h-8.9v66.3h8.9v-4.8q4.5 5.5 9.3 5.5 5.4 0 7.1-5.5.9-2.7.9-10zm33.8-1v-1.3h-9.1q0 5.1-.2 6.1-.7 3.6-4 3.6-4.6 0-4.6-6.9v-8.7h17.9v-10.3q0-7.9-2.7-11.6-3.9-5.1-10.6-5.1-6.8 0-10.7 5.1-2.8 3.7-2.8 11.6v17.3q0 7.9 2.9 11.6 3.9 5.1 10.8 5.1 7.2 0 10.8-5.3 1.8-2.7 2.1-5.4.2-.9.2-5.8zM79 52.5v-21q0-6.9-4.3-6.9t-4.3 6.9v21q0 7 4.3 7t4.3-7zm71.9 75.1q0 23.4-2.6 35-1.4 5.9-5.8 9.9t-10.2 4.6q-18.4 2.1-55.5 2.1t-55.5-2.1q-5.8-.6-10.25-4.6t-5.75-9.9q-2.6-11.2-2.6-35 0-23.4 2.6-35 1.4-5.9 5.8-9.9T21.4 78q18.3-2 55.4-2t55.5 2q5.8.7 10.25 4.7t5.75 9.9q2.6 11.2 2.6 35zM51.1 0h10.2L49.2 39.9V67h-10V39.9q-1.4-7.4-6.1-21.2Q29.4 8.4 26.6 0h10.6l7.1 26.3zm37 33.3v17.5q0 8.1-2.8 11.8-3.8 5.1-10.6 5.1-6.7 0-10.5-5.1-2.8-3.8-2.8-11.8V33.3q0-8 2.8-11.7 3.8-5.1 10.5-5.1 6.8 0 10.6 5.1 2.8 3.7 2.8 11.7zm33.5-16.2V67h-9.1v-5.5q-5.3 6.2-10.3 6.2-4.6 0-5.9-3.7-.8-2.4-.8-7.5V17.1h9.1v36.7q0 3.3.1 3.5.3 2.2 2.1 2.2 2.7 0 5.7-4.3V17.1h9.1z"/></svg>