<svg xmlns="http://www.w3.org/2000/svg" width="20" height="20" viewBox="0 0 20 20"><path d="M16 11.5c0-.28-.22-.5-.5-.5h-1.54a5.3 5.3 0 0 0-.22-1.08l1.28-.74c.24-.14.32-.44.18-.68a.493.493 0 0 0-.68-.18L13.33 9c-.24-.4-.54-.74-.87-1.03.07-.39.13-1.19-.48-1.99l.89-.89c.2-.2.2-.51 0-.71-.2-.2-.51-.2-.71 0l-.94.94c-.41-.23-1.35-.61-2.43 0l-.94-.93c-.2-.2-.51-.2-.71 0-.2.2-.2.51 0 .71l.89.89c-.62.79-.56 1.59-.48 1.98-.34.29-.64.63-.88 1.03l-1.18-.68a.505.505 0 0 0-.69.18c-.13.24-.05.54.19.68l1.28.74c-.11.34-.18.7-.22 1.08H4.5c-.28 0-.5.22-.5.5s.22.5.5.5h1.54c.04.38.11.74.22 1.08l-1.28.74c-.24.14-.32.44-.18.68.14.24.44.32.68.18L6.67 14c.72 1.21 1.94 2 3.33 2s2.61-.8 3.33-2l1.19.69c.24.14.54.06.68-.18s.06-.54-.18-.68l-1.28-.74c.11-.34.18-.7.22-1.08h1.54c.28-.01.5-.23.5-.51zm-6 2c-.28 0-.5-.22-.5-.5v-3c0-.28.22-.5.5-.5s.5.22.5.5v3c0 .28-.22.5-.5.5z"/></svg>