<svg xmlns="http://www.w3.org/2000/svg" width="20" height="20" viewBox="0 0 20 20"><path d="m5.41 14.59-1.06 1.06A7.94 7.94 0 0 1 2 10c0-2.21.9-4.21 2.34-5.66L5.4 5.4C4.23 6.58 3.5 8.21 3.5 10s.73 3.42 1.91 4.59zM16.5 10c0 1.79-.73 3.42-1.91 4.59l1.06 1.06A7.94 7.94 0 0 0 18 10c0-2.21-.9-4.21-2.34-5.66L14.6 5.4a6.527 6.527 0 0 1 1.9 4.6zm-3 0c0 .96-.39 1.84-1.03 2.47l1.06 1.06c.91-.9 1.47-2.15 1.47-3.53s-.56-2.63-1.46-3.54l-1.06 1.06c.63.64 1.02 1.52 1.02 2.48zm-7 0c0-.96.39-1.84 1.03-2.47L6.46 6.46a5.022 5.022 0 0 0 0 7.08l1.06-1.06A3.534 3.534 0 0 1 6.5 10zM10 8.25c-.97 0-1.75.78-1.75 1.75s.78 1.75 1.75 1.75 1.75-.78 1.75-1.75-.78-1.75-1.75-1.75z"/></svg>