<svg xmlns="http://www.w3.org/2000/svg" width="20" height="20" viewBox="0 0 20 20"><path d="M6.71 8.84c-.13.36-.21.75-.21 1.16 0 .96.39 1.84 1.03 2.47l-1.06 1.06C5.56 12.63 5 11.38 5 10c0-.83.22-1.61.58-2.3L4.47 6.59c-.61 1-.97 2.16-.97 3.41 0 1.79.73 3.42 1.91 4.59l-1.06 1.06A7.94 7.94 0 0 1 2 10c0-1.67.51-3.21 1.38-4.5L1.87 3.99l1.06-1.06 14.14 14.14-1.06 1.06-9.3-9.29zm7.88-3.43 1.06-1.06A7.94 7.94 0 0 1 18 10c0 1.67-.51 3.22-1.38 4.5l-1.09-1.09c.61-.99.97-2.16.97-3.41 0-1.79-.73-3.42-1.91-4.59zm-2.12 2.12 1.06-1.06C14.44 7.37 15 8.62 15 10c0 .83-.2 1.62-.57 2.31l-1.14-1.14c.13-.37.2-.76.2-1.18.01-.95-.38-1.83-1.02-2.46z"/></svg>