<svg xmlns="http://www.w3.org/2000/svg" width="20" height="20" viewBox="0 0 20 20"><path d="M12 3.75c0-.97.78-1.75 1.75-1.75s1.75.78 1.75 1.75-.79 1.75-1.75 1.75S12 4.72 12 3.75zm3.53 4.41a.497.497 0 0 0-.63.32l-.23.69a3.506 3.506 0 0 1-2.47-2.55l-.24-.97a1.503 1.503 0 0 0-2.21-.95L6.83 6.38c-.89.5-1.13 1.7-.37 2.43l3.1 2.94L8 15.8l-5.19-1.87a.501.501 0 0 0-.34.94l10.38 3.73c.67.26 1.39.4 2.15.4.84 0 1.63-.17 2.36-.48.32-.14.4-.56.15-.81a.507.507 0 0 0-.55-.11c-.6.26-1.26.4-1.96.4-.6 0-1.14-.1-1.67-.29l-.35-.12 1.9-5.83c-.34-.04-.67-.11-.98-.2l-1.85 5.7-2.62-.94 1.68-4.37c.14-.37.05-.79-.23-1.07L8.74 8.74 10.9 7.5a5.019 5.019 0 0 0 3.89 3.23c.24.04.47-.12.54-.34l.52-1.6a.5.5 0 0 0-.32-.63z"/></svg>