<svg xmlns="http://www.w3.org/2000/svg" width="20" height="20" viewBox="0 0 20 20"><path d="m16.57 13.59-1.63-1.55C15.31 10.33 13.96 9 12.5 9c-1.18 0-2.5.96-2.5 2.5 0 .54.17 1.03.45 1.44.14.2.13.48-.05.65-.21.21-.57.2-.75-.05-.41-.57-.65-1.28-.65-2.04 0-1.36.78-2.52 1.91-3.1-.48-.25-1-.4-1.55-.4C6.44 8 6 10.79 6 11.47a2.24 2.24 0 0 1-1.98-2.53C4.17 7.82 5.19 7 6.33 7h2.08c.82 0 1.55-.61 1.59-1.42C10.04 4.72 9.36 4 8.5 4h-1c-.28 0-.5.22-.5.5s.22.5.5.5h1c.28 0 .5.22.5.5s-.22.5-.5.5H6.38C4.63 6 3.1 7.33 3 9.07c-.1 1.79 1.26 3.27 3 3.4 0 .6.34 3.53 3.36 3.53h6.24c1.26 0 1.87-1.55.97-2.41zM14.25 15c-.41 0-.75-.34-.75-.75s.34-.75.75-.75.75.34.75.75-.34.75-.75.75z"/></svg>