<svg xmlns="http://www.w3.org/2000/svg" width="20" height="20" viewBox="0 0 20 20"><path d="M12 18.2c0-.38.29-.7.67-.75 2.5-.3 4.49-2.3 4.79-4.8.05-.37.36-.65.74-.65.45 0 .8.4.74.85a7.008 7.008 0 0 1-6.12 6.1c-.43.05-.82-.3-.82-.75zm3.16-6.2c-.35 0-.65.24-.73.58-.22.91-.94 1.63-1.85 1.85a.749.749 0 1 0 .34 1.46 4.035 4.035 0 0 0 2.98-2.98c.1-.46-.26-.91-.74-.91zM15.29.44l3.18 3.18c.59.59.59 1.54 0 2.12l-2.83 2.83c-.59.59-1.54.59-2.12 0l-1.24-1.24-.71.71 1.24 1.24c.59.59.59 1.54 0 2.12l-1.41 1.41c-.59.59-1.54.59-2.12 0l-1.24-1.24-.71.71 1.24 1.24c.59.59.59 1.54 0 2.12l-2.83 2.83c-.59.59-1.54.59-2.12 0L.44 15.29a1.49 1.49 0 0 1 0-2.12l2.83-2.83a1.49 1.49 0 0 1 2.12 0l1.24 1.24.71-.71L6.1 9.63a1.49 1.49 0 0 1 0-2.12L7.51 6.1a1.49 1.49 0 0 1 2.12 0l1.24 1.24.71-.71-1.24-1.24a1.49 1.49 0 0 1 0-2.12L13.17.44a1.49 1.49 0 0 1 2.12 0zM2.56 13.17 1.5 14.23l3.18 3.18 1.06-1.06-3.18-3.18zm1.77-1.77-1.06 1.06 3.18 3.18 1.06-1.06-3.18-3.18zm8.13-8.13L11.4 4.33l3.18 3.18 1.06-1.06-3.18-3.18zm1.77-1.77-1.06 1.06 3.18 3.18 1.06-1.06-3.18-3.18z"/></svg>