<svg xmlns="http://www.w3.org/2000/svg" width="20" height="20" viewBox="0 0 20 20"><path d="M5 4.5c0 .28.22.5.5.5h9c.28 0 .5-.22.5-.5s-.22-.5-.5-.5h-9c-.28 0-.5.22-.5.5zM5.5 16H9c.28 0 .5-.22.5-.5S9.28 15 9 15H5.5c-.28 0-.5.22-.5.5s.22.5.5.5zm0-2.75H9c.28 0 .5-.22.5-.5s-.22-.5-.5-.5H5.5c-.28 0-.5.22-.5.5s.22.5.5.5zm0-5.5h9c.28 0 .5-.22.5-.5s-.22-.5-.5-.5h-9c-.28 0-.5.22-.5.5s.22.5.5.5zm0 2.75h9c.28 0 .5-.22.5-.5s-.22-.5-.5-.5h-9c-.28 0-.5.22-.5.5s.22.5.5.5zm6.67 4.09-.35-.35c-.2-.2-.51-.2-.71 0-.2.2-.2.51 0 .71l.71.71c.2.2.51.2.71 0l2.12-2.12c.2-.2.2-.51 0-.71-.2-.2-.51-.2-.71 0l-1.77 1.76z"/></svg>