<svg xmlns="http://www.w3.org/2000/svg" width="20" height="20" viewBox="0 0 20 20"><path d="M10 4.5c1.1 0 2 .9 2 2 0 .92-.62 1.68-1.46 1.92l1.62 1.62c.93.45 2.07.12 2.6-.79.55-.96.22-2.18-.73-2.73-.01-.01-.03-.01-.04-.02.01-.01.03-.01.04-.02a1.997 1.997 0 1 0-2-3.46c-.01.01-.02.02-.03.02V3c0-1.1-.9-2-2-2s-2 .9-2 2v.04c-.01 0-.02-.01-.03-.02a2 2 0 0 0-2.46.37l2.57 2.57c.24-.84 1-1.46 1.92-1.46zm-5.76 6.61c-.65-.12-1.24.48-1.13 1.13C3.7 15.51 6.57 18 10 18c0-3.44-2.5-6.3-5.76-6.89zm12.01 3.02c.3-.59.52-1.22.64-1.9.12-.65-.48-1.24-1.13-1.13-.67.12-1.3.34-1.89.64l2.38 2.39z"/><path d="M2.4 3.46c-.29.29-.29.77 0 1.06l2.8 2.8c-.31.59-.32 1.31.04 1.93.54.93 1.71 1.26 2.66.77l.12.12c.07.99.86 1.78 1.85 1.85l1.66 1.66C10.58 14.85 10 16.35 10 18c1.64 0 3.15-.57 4.35-1.53l1.13 1.13c.29.29.77.29 1.06 0 .29-.29.29-.77 0-1.06L3.46 3.46a.754.754 0 0 0-1.06 0z"/></svg>