<svg xmlns="http://www.w3.org/2000/svg" width="20" height="20" viewBox="0 0 20 20"><path d="M7.5 5c-2.76 0-5 2.24-5 5s2.24 5 5 5 5-2.24 5-5-2.24-5-5-5zM10 8.75H8.25V13h-1.5V8.75H5V7.5h5v1.25z" opacity=".3"/><path d="M15.06 4.94 13 4l2.06-.94L16 1l.94 2.06L19 4l-2.06.94L16 7l-.94-2.06zM16 19l.94-2.06L19 16l-2.06-.94L16 13l-.94 2.06L13 16l2.06.94L16 19zM2.5 10c0 2.76 2.24 5 5 5s5-2.24 5-5-2.24-5-5-5-5 2.24-5 5zm5-6.5a6.5 6.5 0 1 1 0 13 6.5 6.5 0 0 1 0-13zm2.5 4H5v1.25h1.75V13h1.5V8.75H10V7.5z"/></svg>