<svg xmlns="http://www.w3.org/2000/svg" width="20" height="20" viewBox="0 0 20 20"><path d="M7.49 19.25c0 .41-.34.75-.75.75s-.75-.34-.75-.75.34-.75.75-.75.75.34.75.75zm5.77-.75c-.41 0-.75.34-.75.75s.34.75.75.75.75-.34.75-.75-.34-.75-.75-.75zm-1.01-14c.96 0 1.75-.78 1.75-1.75S13.22 1 12.25 1s-1.75.78-1.75 1.75.79 1.75 1.75 1.75zm4.75 12c0 .12-.04.24-.13.34-.41.45-1.29 1.16-2.61 1.16H5.74c-1.25 0-2.13-.62-2.61-1.16A.533.533 0 0 1 3 16.5c0-.26.2-.5.5-.5.14 0 .28.06.38.17.46.51 1.12.83 1.86.83H6l2-3-1.23-3.23c-.17-.44-.12-.93.13-1.33L8.73 6.5H6.8L5.7 8.22a.76.76 0 0 1-1.09.21.777.777 0 0 1-.2-1.06L5.7 5.45c.19-.28.5-.45.84-.45h3.96c.68 0 1.11.43 1.3.76l.75 1.27a4 4 0 0 0 2.83 1.92c.36.06.62.37.62.73 0 .46-.41.82-.87.75a5.506 5.506 0 0 1-3.77-2.48L10 10.13l3.06 2.07c.27.19.44.5.44.83V17h.76c.74 0 1.4-.32 1.86-.83a.5.5 0 0 1 .38-.17c.3 0 .5.24.5.5zm-5-3.1-3-1.65.57 2c.08.28.03.59-.13.84L7.8 17H12v-3.6z"/></svg>