<svg xmlns="http://www.w3.org/2000/svg" width="20" height="20" viewBox="0 0 20 20"><path d="M3 11.5c0 1.12.74 2.05 1.75 2.37v2.63h-1c-.41 0-.75.34-.75.75s.34.75.75.75h3.5c.41 0 .75-.34.75-.75s-.34-.75-.75-.75h-1v-2.63A2.488 2.488 0 0 0 8 11.5V6c0-.55-.45-1-1-1H4c-.55 0-1 .45-1 1v5.5zm3.5-5V9h-2V6.5h2zm10.56 1.12-.61-.25c-.58-.22-.95-.77-.95-1.39V3c0-.55-.45-1-1-1h-2c-.55 0-1 .45-1 1v2.98c0 .61-.37 1.16-.94 1.39l-.62.25c-.57.23-.94.78-.94 1.4v7.48c0 .83.67 1.5 1.5 1.5h6c.83 0 1.5-.67 1.5-1.5V9.02c0-.62-.37-1.17-.94-1.4zM14 3.5v1h-1v-1h1zm-2.89 5.27A2.998 2.998 0 0 0 13 6h1c.01 1.23.74 2.31 1.88 2.77l.61.25V10h-6v-.98l.62-.25zm-.61 7.73V15h6v1.5h-6z"/></svg>