<svg xmlns="http://www.w3.org/2000/svg" width="20" height="20" viewBox="0 0 20 20"><path d="M10 4c-3.31 0-6 2.69-6 6s2.69 6 6 6 6-2.69 6-6-2.69-6-6-6zm4 7.5h-2.99l1.19-1.19c-.61-.5-1.36-.81-2.2-.81-1.39 0-2.58.82-3.15 1.99l-.96-.32C6.59 9.6 8.17 8.5 10 8.5c1.12 0 2.13.41 2.91 1.09L14 8.5v3z" opacity=".3"/><path d="M10 3c-3.87 0-7 3.13-7 7s3.13 7 7 7 7-3.13 7-7-3.13-7-7-7zm0 13c-3.31 0-6-2.69-6-6s2.69-6 6-6 6 2.69 6 6-2.69 6-6 6z"/><path d="M10 8.5c-1.83 0-3.41 1.1-4.11 2.68l.96.32c.57-1.18 1.76-2 3.15-2 .84 0 1.59.31 2.19.81L11 11.5h3v-3l-1.09 1.09A4.398 4.398 0 0 0 10 8.5z"/></svg>