<svg xmlns="http://www.w3.org/2000/svg" width="20" height="20" viewBox="0 0 20 20"><path d="M5 9h3c.55 0 1-.45 1-1V5c0-.55-.45-1-1-1H5c-.55 0-1 .45-1 1v3c0 .55.45 1 1 1zm-.06-4.06h3.12v3.12H4.94V4.94zM5 16h3c.55 0 1-.45 1-1v-3c0-.55-.45-1-1-1H5c-.55 0-1 .45-1 1v3c0 .55.45 1 1 1zm-.06-4.06h3.12v3.12H4.94v-3.12zM11 5v3c0 .55.45 1 1 1h3c.55 0 1-.45 1-1V5c0-.55-.45-1-1-1h-3c-.55 0-1 .45-1 1zm4.06 3.06h-3.12V4.94h3.12v3.12zM15 15h1v1h-1zm0-2h1v1h-1zm0-2h1v1h-1zm-3 1h1v1h-1zm-1-1h1v1h-1zm2 2h1v1h-1zm1 1h1v1h-1zm-1-3h1v1h-1zm1 1h1v1h-1zm-3 1h1v1h-1zm1 1h1v1h-1zm-1 1h1v1h-1zm2 0h1v1h-1z"/></svg>