<svg xmlns="http://www.w3.org/2000/svg" width="20" height="20" viewBox="0 0 20 20"><path d="M13 10.88V9h-1.88l-1-1H13V6h-3v1.88l-1-1V6h-.88l-1.5-1.5h7.88v7.88l-1.5-1.5zM3.5 15.5V5.62L5 7.12V10h2.88l1 1H5v3h4v-2.88l1 1V14h1.88l1.5 1.5H3.5z" opacity=".3"/><path d="M16.12 14H18v-1.5h-2v-1.75h2v-1.5h-2V7.5h2V6h-2V4.5c0-.83-.67-1.5-1.5-1.5H5.12l1.5 1.5h7.88v7.88L16.12 14zm-8-8H9v.88L8.12 6zM13 8h-2.88L10 7.88V6h3v2zm-1.88 1H13v1.88L11.12 9zm-8.9-6.78L1.16 3.28l.88.88c-.03.11-.04.22-.04.34v11c0 .83.67 1.5 1.5 1.5h11c.12 0 .23-.01.34-.04l1.88 1.88 1.06-1.06L2.22 2.22zM3.5 15.5V5.62L5 7.12V10h2.88l1 1H5v3h4v-2.88l1 1V14h1.88l1.5 1.5H3.5z"/></svg>