<svg xmlns="http://www.w3.org/2000/svg" width="20" height="20" viewBox="0 0 20 20"><path d="M6.24 7.74c-1.57 1.57-1.63 4.06-.23 5.72 1.15-2.11 2.9-3.87 5.04-4.97a11.948 11.948 0 0 0-3.8 5.98c.61.34 1.29.53 2 .53 1.14 0 2.2-.44 3.01-1.24 1.63-1.63 2.39-6.09 2.65-8.66-2.57.25-7.03 1.01-8.67 2.64z" opacity=".3"/><path d="M5.54 7.04a5.245 5.245 0 0 0 0 7.42A5.208 5.208 0 0 0 9.25 16c1.34 0 2.69-.51 3.71-1.54C15.57 11.85 16 4 16 4s-7.85.43-10.46 3.04zm6.72 6.72c-.8.8-1.87 1.24-3.01 1.24-.71 0-1.39-.19-2.01-.52a12.06 12.06 0 0 1 3.8-5.98C8.91 9.6 7.15 11.36 6 13.47c-1.4-1.67-1.33-4.16.23-5.72 1.63-1.63 6.09-2.39 8.66-2.65-.24 2.56-1 7.02-2.63 8.66z"/></svg>