<svg xmlns="http://www.w3.org/2000/svg" width="20" height="20" viewBox="0 0 20 20"><path d="M16.5 3.5c-1.17-.04-3.5.32-6.3 3.12-1.02 1.02-1.83 2.44-2.3 3.35l2.12 2.12c.91-.46 2.34-1.27 3.36-2.3C16.18 7 16.54 4.67 16.5 3.5zm-4 5.5c-.83 0-1.5-.67-1.5-1.5 0-.82.67-1.5 1.5-1.5s1.5.68 1.5 1.5c0 .83-.68 1.5-1.5 1.5zM7.99 6.92l-1.13-.14-1.84 1.83 1.62.54c.33-.63.79-1.44 1.35-2.23zm2.86 6.44.54 1.62 1.83-1.83-.14-1.14c-.79.56-1.6 1.02-2.23 1.35zm-5.07 1.92c-.44.44-1.87.81-1.87.81s.37-1.43.81-1.87c.29-.29.77-.29 1.06 0s.29.77 0 1.06z" opacity=".3"/><path d="m14.45 10.86.26 2.1c.06.46-.1.92-.43 1.25l-3.55 3.55-1.41-4.24-2.83-2.83-4.24-1.42L5.8 5.72c.33-.33.79-.49 1.25-.43l2.1.26C13.92.78 17.8 2.2 17.8 2.2s1.42 3.88-3.35 8.66zM10.2 6.62C9.18 7.64 8.37 9.06 7.9 9.97l2.12 2.12c.91-.46 2.34-1.27 3.36-2.3C16.18 7 16.54 4.67 16.5 3.5c-1.17-.04-3.5.32-6.3 3.12zm3.8.88c0-.82-.68-1.5-1.5-1.5-.83 0-1.5.68-1.5 1.5S11.67 9 12.5 9c.82 0 1.5-.67 1.5-1.5zm-6.01-.58-1.13-.14-1.84 1.83 1.62.54c.33-.63.79-1.44 1.35-2.23zm2.86 6.44.54 1.62 1.83-1.83-.14-1.14c-.79.56-1.6 1.02-2.23 1.35zm-5.6-.86c-.62 0-1.18.25-1.59.66C2.44 14.38 2 18 2 18s3.62-.44 4.84-1.66c.41-.41.66-.97.66-1.59 0-1.24-1.01-2.25-2.25-2.25zm.53 2.78c-.44.44-1.87.81-1.87.81s.37-1.43.81-1.87c.29-.29.77-.29 1.06 0s.29.77 0 1.06z"/></svg>