<svg xmlns="http://www.w3.org/2000/svg" width="20" height="20" viewBox="0 0 20 20"><path d="M4.5 4.5H6V6c0 .55.45 1 1 1h6c.55 0 1-.45 1-1V4.5h1.5V9H17V4.5c0-.83-.67-1.5-1.5-1.5h-3.57c-.22-.86-1-1.5-1.93-1.5-.93 0-1.71.64-1.93 1.5H4.5C3.67 3 3 3.67 3 4.5v11c0 .83.67 1.5 1.5 1.5H9v-1.5H4.5v-11zM10 3a.749.749 0 1 1 .002 1.498A.749.749 0 0 1 10 3z"/><path d="m17.65 13.65-2.12-2.12c-.29-.29-.77-.29-1.06 0s-.29.77 0 1.06l.66.66h-3.38c-.41 0-.75.34-.75.75s.34.75.75.75h3.38l-.66.66c-.29.29-.29.77 0 1.06s.77.29 1.06 0l2.12-2.12c.19-.19.19-.51 0-.7z"/></svg>