<svg xmlns="http://www.w3.org/2000/svg" width="20" height="20" viewBox="0 0 20 20"><path d="M2.31 5.27C3.58 2.76 6.55 1 10 1c2.93 0 5.51 1.27 7 3.19V2.5c0-.28.22-.5.5-.5s.5.22.5.5v3c0 .28-.22.5-.5.5h-3c-.28 0-.5-.22-.5-.5s.22-.5.5-.5h1.86c-1.3-1.82-3.71-3-6.36-3-2.98 0-5.67 1.5-6.8 3.72-.08.17-.25.28-.44.28-.38 0-.62-.4-.45-.73zM12.66 11H11V6.25a1.25 1.25 0 0 0-2.5 0V15l-2.12-.71c-.54-.18-1.13-.04-1.54.36L4.5 15l3.56 3.56c.28.28.66.44 1.06.44h5.27c.73 0 1.36-.53 1.48-1.25l.61-3.65c.11-.65-.22-1.29-.81-1.59L12.66 11z"/></svg>