<svg xmlns="http://www.w3.org/2000/svg" width="20" height="20" viewBox="0 0 20 20"><path d="M14.5 12.38V10.5h-1.88l-1-1h5.88v1h-2v2.88l-1-1zM6 13.5c-1.93 0-3.5-1.57-3.5-3.5 0-1.45.89-2.7 2.15-3.23L5.88 8C4.83 8.06 4 8.93 4 10c0 1.1.9 2 2 2 1.07 0 1.94-.83 2-1.88l1.24 1.24c-.46.91-1.37 2.14-3.24 2.14z" opacity=".3"/><path d="M2.93 2.93 1.87 3.99l1.66 1.66a5.002 5.002 0 1 0 6.82 6.82l5.66 5.66 1.06-1.06L2.93 2.93zM6 13.5c-1.93 0-3.5-1.57-3.5-3.5 0-1.45.89-2.7 2.15-3.23L5.88 8C4.83 8.06 4 8.93 4 10c0 1.1.9 2 2 2 1.07 0 1.94-.83 2-1.88l1.24 1.24c-.46.91-1.37 2.14-3.24 2.14zm8.5-1.12V10.5h-1.88l1.88 1.88zm2.5 2.5V12h2V8h-8.88l1.5 1.5h5.88v1h-2v2.88l1.5 1.5z"/></svg>