<svg xmlns="http://www.w3.org/2000/svg" width="20" height="20" viewBox="0 0 20 20"><path d="M16.44 15.38c.51-.79.72-1.79.42-2.86a3.501 3.501 0 0 0-2.68-2.46 3.501 3.501 0 0 0-4.12 4.12 3.485 3.485 0 0 0 2.46 2.68c1.07.3 2.07.09 2.86-.42l2.03 2.03c.29.29.77.29 1.06 0 .29-.29.29-.77 0-1.06l-2.03-2.03zm-2.94.12c-1.1 0-2-.9-2-2s.9-2 2-2 2 .9 2 2-.9 2-2 2zm4.91-13.05c.33.23.41.69.19 1.02l-3.49 5.29c-.5-.17-1.04-.26-1.61-.26l3.85-5.85a.76.76 0 0 1 1.06-.2zM13.5 8.5c-.58 0-1.13.1-1.65.28l-.78-1.1-2.67 4.2a.999.999 0 0 1-1.61.1l-1.6-1.92-2.54 4.13c-.23.37-.72.47-1.07.22a.744.744 0 0 1-.2-1l2.9-4.72a.984.984 0 0 1 1.61-.12L7.5 10.5l2.7-4.25a1 1 0 0 1 1.66-.04L13.5 8.5z"/></svg>