<svg xmlns="http://www.w3.org/2000/svg" width="20" height="20" viewBox="0 0 20 20"><circle cx="15.5" cy="2.75" r="2.5"/><path d="M14.15 6.5h-8.4c-.41 0-.75-.34-.75-.75S5.34 5 5.75 5h6.45c-.33-.49-.9-1.55-.62-3H3.5C2.67 2 2 2.67 2 3.5v13.29c0 .45.54.67.85.35L5 15h11.5c.83 0 1.5-.67 1.5-1.5V5.85c-.69.56-1.55.9-2.5.9-.47 0-.92-.1-1.35-.25zm-2.9 5.5h-5.5c-.41 0-.75-.34-.75-.75s.34-.75.75-.75h5.5c.41 0 .75.34.75.75s-.34.75-.75.75zm3-2.75h-8.5c-.41 0-.75-.34-.75-.75s.34-.75.75-.75h8.5c.41 0 .75.34.75.75s-.34.75-.75.75z"/></svg>