<svg xmlns="http://www.w3.org/2000/svg" width="20" height="20" viewBox="0 0 20 20"><path d="M9.26 9.56a.85.85 0 0 1 1.36-.04c.18.22.2.47.17.68-.04.27-.2.5-.43.63 0 0-3.89 2.36-4.06 2.15-.16-.2 2.96-3.42 2.96-3.42zM18 8.2c0 2-.8 2.4-1.2 2.4-.19 0-.35-.08-.5-.21-.38 2.65-1.89 4.25-4.26 4.79.08.35.39.62.76.62h.46c.18 0 .33.12.38.29.14.42.53.82.82 1.06.2.17.19.47-.02.62-.27.19-.72.39-1.43.43a.404.404 0 0 1-.36-.18c-.11-.17-.26-.45-.26-.82 0-.24.03-.45.08-.64-.62-.13-1.11-.62-1.24-1.25a9.653 9.653 0 0 1-3.19-.12c-.02.07-.04.14-.04.21 0 .44.36.8.8.8h.46c.18 0 .33.12.38.29.14.42.53.82.82 1.06.2.17.19.47-.02.62-.27.19-.72.39-1.43.43a.404.404 0 0 1-.36-.18 1.5 1.5 0 0 1-.25-.82c0-.24.03-.45.08-.64-.73-.15-1.28-.8-1.28-1.57 0-.15.03-.29.06-.42-1.97-.69-3.22-2.22-3.57-4.59-.15.13-.31.21-.5.21C2.8 10.6 2 10.2 2 8.2c0-1.81 1.36-3.6 2.4-3.6.34 0 .39.39.4.68a6.377 6.377 0 0 1 4.44-2.63c.16-.77.86-1.25 1.56-1.25v.8s.26-.4.8-.4.8.4.8.4c-.39 0-.68.28-.76.62 1.46.39 2.71 1.27 3.57 2.46.01-.29.06-.68.4-.68C16.64 4.6 18 6.39 18 8.2zM4.4 9c0 .65.08 1.23.2 1.77.15-.55.37-1.07.67-1.54C5.1 8.85 5 8.44 5 8c0-1.66 1.34-3 3-3 .77 0 1.47.3 2 .78.53-.48 1.23-.78 2-.78 1.66 0 3 1.34 3 3 0 .44-.1.85-.27 1.23.3.47.53.99.67 1.55.12-.54.2-1.12.2-1.78 0-3.09-2.51-5.6-5.6-5.6S4.4 5.91 4.4 9zm10.38 3.44c0-.08.02-.15.02-.24 0-.8-.21-1.56-.56-2.22C13.69 10.6 12.9 11 12 11c-.22 0-.43-.02-.63-.07.11-.19.18-.4.21-.62.01-.05.01-.1.01-.16.13.03.27.04.4.04 1.21 0 2.2-.99 2.2-2.2S13.21 5.8 12 5.8c-.53 0-1.05.2-1.46.57l-.54.49-.54-.49C9.05 6 8.53 5.8 8 5.8c-1.21 0-2.2.99-2.2 2.2a2.2 2.2 0 0 0 1.79 2.16l-.61.66c-.48-.17-.89-.47-1.22-.84-.35.67-.56 1.42-.56 2.22 0 .07.01.12.01.19.89 1.46 2.5 2.21 4.79 2.21 2.3 0 3.9-.73 4.78-2.16zM13.2 8c0 .77-.54 1.4-1.2 1.4s-1.2-.63-1.2-1.4.54-1.4 1.2-1.4 1.2.63 1.2 1.4zm-.6-.7c0-.17-.13-.3-.3-.3-.17 0-.3.13-.3.3s.13.3.3.3c.17 0 .3-.13.3-.3zM9.2 8c0 .77-.54 1.4-1.2 1.4S6.8 8.77 6.8 8 7.34 6.6 8 6.6s1.2.63 1.2 1.4zm-.6-.7c0-.17-.13-.3-.3-.3-.17 0-.3.13-.3.3s.13.3.3.3c.17 0 .3-.13.3-.3z"/></svg>