<svg xmlns="http://www.w3.org/2000/svg" width="20" height="20" viewBox="0 0 20 20"><path d="M6.75 14H6v-3h3.36c.65-.31 1.37-.5 2.14-.5h5c.17 0 .33.03.5.05V3H3v14h3.75c-.15-.48-.25-.97-.25-1.5s.1-1.02.25-1.5zM11 6h3v3h-3V6zM6 6h3v3H6V6z"/><path d="M9.5 15.5c0-1.1.9-2 2-2h1.75V12H11.5C9.57 12 8 13.57 8 15.5S9.57 19 11.5 19h1.75v-1.5H11.5c-1.1 0-2-.9-2-2zm7-3.5h-1.75v1.5h1.75c1.1 0 2 .9 2 2s-.9 2-2 2h-1.75V19h1.75c1.93 0 3.5-1.57 3.5-3.5S18.43 12 16.5 12z"/><path d="M11.75 14.75h4.5v1.5h-4.5z"/></svg>