<svg xmlns="http://www.w3.org/2000/svg" width="20" height="20" viewBox="0 0 20 20"><path d="m16.5 6.5-2-2c0-.36.5-.98.5-1.5 0-.55-.45-1-1-1-2.17 0-3.35 1.5-3.35 1.5H6.5C4.05 3.5 2 5.47 2 8c0 1.74 1.12 5.92 1.68 7.91.19.64.78 1.09 1.45 1.09H7c.83 0 1.5-.67 1.5-1.5H10c0 .83.67 1.5 1.5 1.5h1.86c.67 0 1.26-.45 1.45-1.1l.94-3.4 1.47-.33c.46-.1.78-.51.78-.98V7.5c0-.55-.45-1-1-1h-.5zm-6.25 1h-2.5c-.41 0-.75-.34-.75-.75S7.34 6 7.75 6h2.5c.41 0 .75.34.75.75s-.34.75-.75.75zm3 1.5c-.41 0-.75-.34-.75-.75s.34-.75.75-.75.75.34.75.75-.34.75-.75.75z"/></svg>