<svg xmlns="http://www.w3.org/2000/svg" width="1000" height="1000" viewBox="0 0 1000 1000"><path d="M0-210a30 30 0 0 0-30 30V-8.04l-130.98 226.866A30 30 0 0 0-150 259.81a30 30 0 0 0 40.98-10.983L25.98 15A30.003 30.003 0 0 0 30 0v-180a30 30 0 0 0-30-30Zm371 49c0-115.821-94.179-210-210-210h-320c-115.821 0-210 94.179-210 210v320c0 115.821 94.179 210 210 210h320c115.821 0 210-94.179 210-210zm-60 0v320c0 83.619-66.381 150-150 150h-320c-83.619 0-150-66.381-150-150v-320c0-83.619 66.381-150 150-150h320c83.619 0 150 66.381 150 150z" style="-inkscape-stroke:none" transform="rotate(-90 500 0)"/></svg>