<svg xmlns="http://www.w3.org/2000/svg" width="1000" height="1000" viewBox="0 0 1000 1000"><path d="M-229.912-164.744A30 30 0 0 0-259.81-150a30 30 0 0 0 10.983 40.98L-15 25.98A30.003 30.003 0 0 0 0 30h180a30 30 0 0 0 30-30 30 30 0 0 0-30-30H8.04l-226.866-130.98a30 30 0 0 0-11.086-3.764zM371-161c0-115.821-94.179-210-210-210h-320c-115.821 0-210 94.179-210 210v320c0 115.821 94.179 210 210 210h320c115.821 0 210-94.179 210-210zm-60 0v320c0 83.619-66.381 150-150 150h-320c-83.619 0-150-66.381-150-150v-320c0-83.619 66.381-150 150-150h320c83.619 0 150 66.381 150 150z" style="-inkscape-stroke:none" transform="rotate(-90 500 0)"/></svg>