<svg xmlns="http://www.w3.org/2000/svg" width="1000" height="1000"><path d="M-151.969-119.744A30 30 0 0 0-181.865-105a30 30 0 0 0 10.98 40.98L-21.96 21.96l130.98 226.866A30 30 0 0 0 150 259.81a30 30 0 0 0 10.98-40.983L25.98-15A30.003 30.003 0 0 0 15-25.98l-155.885-90a30 30 0 0 0-11.084-3.764zM371-161c0-115.821-94.179-210-210-210h-320c-115.821 0-210 94.179-210 210v320c0 115.821 94.179 210 210 210h320c115.821 0 210-94.179 210-210zm-60 0v320c0 83.619-66.381 150-150 150h-320c-83.619 0-150-66.381-150-150v-320c0-83.619 66.381-150 150-150h320c83.619 0 150 66.381 150 150z" style="-inkscape-stroke:none" transform="rotate(-90 500 0)" stroke-linecap="round" stroke-linejoin="round"/></svg>