<svg xmlns="http://www.w3.org/2000/svg" width="1000" height="1000"><path d="M-138.916-263.57A30 30 0 0 0-150-259.81a30 30 0 0 0-10.98 40.983l120 207.846-129.905 75a30 30 0 0 0-10.98 40.98 30 30 0 0 0 40.98 10.98L15 25.98A30.003 30.003 0 0 0 25.98-15l-135-233.826a30 30 0 0 0-29.896-14.744zM371-161c0-115.821-94.179-210-210-210h-320c-115.821 0-210 94.179-210 210v320c0 115.821 94.179 210 210 210h320c115.821 0 210-94.179 210-210zm-60 0v320c0 83.619-66.381 150-150 150h-320c-83.619 0-150-66.381-150-150v-320c0-83.619 66.381-150 150-150h320c83.619 0 150 66.381 150 150z" style="-inkscape-stroke:none" transform="rotate(-90 500 0)"/></svg>