<svg xmlns="http://www.w3.org/2000/svg" width="1000" height="1000"><path d="M151.969-119.744a30 30 0 0 0-11.084 3.764L-15-25.98A30.003 30.003 0 0 0-25.98-15l-135 233.826A30 30 0 0 0-150 259.81a30 30 0 0 0 40.98-10.983L21.96 21.961l148.925-85.98A30 30 0 0 0 181.865-105a30 30 0 0 0-29.896-14.744ZM371-161c0-115.821-94.179-210-210-210h-320c-115.821 0-210 94.179-210 210v320c0 115.821 94.179 210 210 210h320c115.821 0 210-94.179 210-210zm-60 0v320c0 83.619-66.381 150-150 150h-320c-83.619 0-150-66.381-150-150v-320c0-83.619 66.381-150 150-150h320c83.619 0 150 66.381 150 150z" style="-inkscape-stroke:none" transform="rotate(-90 500 0)"/></svg>