<?xml version="1.0" encoding="UTF-8" standalone="no"?>
<svg
   height="1000"
   width="1000"
   version="1.1"
   viewBox="0 0 1000 1000"
   id="svg7"
   sodipodi:docname="rect_clock_10_35.svg"
   xmlns:inkscape="http://www.inkscape.org/namespaces/inkscape"
   xmlns:sodipodi="http://sodipodi.sourceforge.net/DTD/sodipodi-0.dtd"
   xmlns="http://www.w3.org/2000/svg"
   xmlns:svg="http://www.w3.org/2000/svg">
  <defs
     id="defs11" />
  <sodipodi:namedview
     id="namedview9"
     pagecolor="#505050"
     bordercolor="#ffffff"
     borderopacity="1"
     inkscape:showpageshadow="0"
     inkscape:pageopacity="0"
     inkscape:pagecheckerboard="1"
     inkscape:deskcolor="#505050" />
  <g
     id="container">
    <g
       transform="translate(500,500) rotate(270)"
       id="g4">
      <path
         id="clock_10_35"
         style="color:#000000;fill:#000000;stroke-linecap:round;stroke-linejoin:round;-inkscape-stroke:none"
         d="m 93.916016,-185.62891 a 30,30 0 0 0 -29.896485,14.74414 l -75,129.904301 L -218.82617,-160.98047 A 30,30 0 0 0 -259.80859,-150 a 30,30 0 0 0 10.98242,40.98047 L -15,25.980469 A 30.003,30.003 0 0 0 25.980469,15 L 115.98047,-140.88477 A 30,30 0 0 0 105,-181.86523 30,30 0 0 0 93.916016,-185.62891 Z M 371,-161 c 0,-115.82097 -94.17903,-210 -210,-210 h -320 c -115.82097,0 -210,94.17903 -210,210 v 320 c 0,115.82097 94.17903,210 210,210 h 320 c 115.82097,0 210,-94.17903 210,-210 z m -60,0 v 320 c 0,83.61883 -66.38117,150 -150,150 h -320 c -83.61883,0 -150,-66.38117 -150,-150 v -320 c 0,-83.61883 66.38117,-150 150,-150 h 320 c 83.61883,0 150,66.38117 150,150 z" />
    </g>
  </g>
</svg>
