<svg xmlns="http://www.w3.org/2000/svg" width="20" height="20" viewBox="0 0 20 20"><path d="M3.5 5.5h2v2h-2zm3.5 7h2v2H7zM7 9h2v2H7zm-3.5 3.5h2v2h-2zm3.5-7h2v2H7zM3.5 9h2v2h-2zm7 3.5h2v2h-2zM14 9h2v2h-2zm0-3.5h2v2h-2zm0 7h2v2h-2zm-3.5-7h2v2h-2zm0 3.5h2v2h-2z" opacity=".3"/><path d="M2 4v12h15.5V4H2zm3.5 10.5h-2v-2h2v2zm0-3.5h-2V9h2v2zm0-3.5h-2v-2h2v2zm3.5 7H7v-2h2v2zM9 11H7V9h2v2zm0-3.5H7v-2h2v2zm3.5 7h-2v-2h2v2zm0-3.5h-2V9h2v2zm0-3.5h-2v-2h2v2zm3.5 7h-2v-2h2v2zm0-3.5h-2V9h2v2zm0-3.5h-2v-2h2v2z"/></svg>