<svg xmlns="http://www.w3.org/2000/svg" width="16" height="16" viewBox="0 0 16 16"><path d="M6 11.5A5.5 5.5 0 0 1 11.5 6H2v5.5A2.5 2.5 0 0 0 4.5 14h2.1a5.47 5.47 0 0 1-.6-2.5Zm8-7A2.5 2.5 0 0 0 11.5 2h-7A2.5 2.5 0 0 0 2 4.5V5h12v-.5ZM11.5 16a4.5 4.5 0 1 0 0-9 4.5 4.5 0 0 0 0 9Zm-.74-6.545a.45.45 0 0 1 .26.079l2.296 1.506a.499.499 0 0 1 .229.426.535.535 0 0 1-.091.3.46.46 0 0 1-.13.128l-2.296 1.567a.545.545 0 0 1-.13.063.453.453 0 0 1-.323-.018.57.57 0 0 1-.158-.111.504.504 0 0 1-.145-.357V9.962a.51.51 0 0 1 .3-.466.435.435 0 0 1 .189-.042Z"/></svg>