<svg xmlns="http://www.w3.org/2000/svg" width="28" height="28"><path d="M6 6.01v-.25a3.75 3.75 0 0 1 3.75-3.75h10.5A5.75 5.75 0 0 1 26 7.76v6.99c0 .664-.173 1.288-.476 1.829a4.716 4.716 0 0 0-1.452-.508c.27-.371.428-.828.428-1.321V7.76a4.25 4.25 0 0 0-4.25-4.25H9.75A2.25 2.25 0 0 0 7.5 5.76v.25h10.75A3.75 3.75 0 0 1 22 9.76V16h-1.5V9.76a2.25 2.25 0 0 0-2.25-2.25H5.75A2.25 2.25 0 0 0 3.5 9.76v8.99A2.25 2.25 0 0 0 5.75 21h1a.75.75 0 0 1 .75.75v2.486l4.046-3.082A.75.75 0 0 1 12 21h1.007c.027.528.14 1.032.326 1.5h-1.08l-4.245 3.235c-.823.627-2.008.04-2.008-.994V22.5h-.25A3.75 3.75 0 0 1 2 18.75V9.76a3.75 3.75 0 0 1 3.75-3.75H6ZM17.75 18.5a2.25 2.25 0 0 0 0 4.5h.5a.75.75 0 0 1 0 1.5h-.5a3.75 3.75 0 1 1 0-7.5h.5a.75.75 0 0 1 0 1.5h-.5ZM17 20.75a.75.75 0 0 1 .75-.75h5.5a.75.75 0 0 1 0 1.5h-5.5a.75.75 0 0 1-.75-.75ZM23.25 23a2.25 2.25 0 0 0 0-4.5h-.5a.75.75 0 0 1 0-1.5h.5a3.75 3.75 0 1 1 0 7.5h-.5a.75.75 0 0 1 0-1.5h.5Z"/></svg>