<svg xmlns="http://www.w3.org/2000/svg" width="24" height="24"><path d="M17.5 12a5.5 5.5 0 1 1 0 11 5.5 5.5 0 0 1 0-11Zm-5.477 1.999a6.47 6.47 0 0 0-1.023 3.5c0 1.645.61 3.146 1.617 4.291-.802.14-1.675.21-2.617.21-2.89 0-5.128-.656-6.69-2a3.75 3.75 0 0 1-1.306-2.843v-.908A2.25 2.25 0 0 1 4.254 14h7.769Zm5.477 0-.09.008a.5.5 0 0 0-.402.402l-.008.09v2.5h-2.502l-.09.009a.5.5 0 0 0-.402.402l-.008.09.008.09a.5.5 0 0 0 .402.401l.09.009 2.503-.001v2.504l.008.09a.5.5 0 0 0 .403.402l.09.008.09-.008a.5.5 0 0 0 .401-.402l.009-.09L18 17.999h2.504l.09-.008a.5.5 0 0 0 .402-.402l.008-.09-.008-.09a.5.5 0 0 0-.402-.401l-.09-.008L18 16.998v-2.5l-.008-.09a.5.5 0 0 0-.402-.402l-.09-.008ZM10 2a.75.75 0 0 1 .744.648l.007.102-.001.749h3.5a2.25 2.25 0 0 1 2.25 2.25v4.505c0 .301-.059.589-.166.851a6.46 6.46 0 0 0-2.993 1.4h-7.59a2.25 2.25 0 0 1-2.25-2.25V5.75A2.25 2.25 0 0 1 5.75 3.5l3.499-.001V2.75a.75.75 0 0 1 .551-.723l.098-.02L10 2ZM7.75 6.5a1.25 1.25 0 1 0 0 2.498 1.25 1.25 0 0 0 0-2.498Zm4.492 0a1.25 1.25 0 1 0 0 2.498 1.25 1.25 0 0 0 0-2.498Z"/></svg>