<svg xmlns="http://www.w3.org/2000/svg" width="16" height="16"><path d="M3.5 3.88a.614.614 0 0 1 1.126-.34.75.75 0 0 0 1.248-.833A2.113 2.113 0 0 0 2 3.88c0 1.055.773 1.93 1.784 2.089A.75.75 0 0 0 4 6h3.337c.895-.63 1.986-1 3.163-1 .542 0 1.065.078 1.56.224a.75.75 0 0 0-.75-.724h-7.1a.757.757 0 0 0-.095-.006.614.614 0 0 1-.614-.614ZM4.75 7h1.507a5.496 5.496 0 0 0-.882 1.5H4.75a.75.75 0 0 1 0-1.5Zm-2 2.5h2.34a5.53 5.53 0 0 0-.068 1.5H2.75a.75.75 0 0 1 0-1.5ZM4.745 12h.462c.152.538.384 1.043.683 1.5H4.745a.75.75 0 0 1 0-1.5ZM7.75 2a.75.75 0 1 0 0 1.5h5.5a.75.75 0 0 0 0-1.5h-5.5ZM15 10.5a4.5 4.5 0 1 1-9 0 4.5 4.5 0 0 1 9 0Zm-4-2a.5.5 0 0 0-1 0V10H8.5a.5.5 0 0 0 0 1H10v1.5a.5.5 0 1 0 1 0V11h1.5a.5.5 0 0 0 0-1H11V8.5Z"/></svg>