<svg xmlns="http://www.w3.org/2000/svg" width="48" height="48" viewBox="0 0 48 48"><path d="M12.5 18c0-6.351 5.149-11.5 11.5-11.5S35.5 11.649 35.5 18v2h-5.25A2.25 2.25 0 0 0 28 22.25v7.5A2.25 2.25 0 0 0 30.25 32h3.5A4.25 4.25 0 0 0 38 27.75v-6.5c0-.042-.002-.084-.006-.125.004-.041.006-.083.006-.125v-3c0-7.732-6.268-14-14-14s-14 6.268-14 14v14a8.25 8.25 0 0 0 8.25 8.25h.907a5 5 0 1 0 0-2.5h-.907A5.75 5.75 0 0 1 12.5 32v-.376a4.234 4.234 0 0 0 1.75.376h3.5A2.25 2.25 0 0 0 20 29.75v-7.5A2.25 2.25 0 0 0 17.75 20H12.5v-2Zm0 4.5h5v7h-3.25a1.75 1.75 0 0 1-1.75-1.75V22.5Zm9 16.5a2.5 2.5 0 1 1 5 0 2.5 2.5 0 0 1-5 0Zm9-16.5h5v5.25a1.75 1.75 0 0 1-1.75 1.75H30.5v-7Z"/></svg>