<svg xmlns="http://www.w3.org/2000/svg" width="12" height="12"><path d="M7.99 6.5H4.012c.06 1.326.353 2.477.762 3.295C5.264 10.775 5.755 11 6 11s.737-.225 1.227-1.205c.409-.818.702-1.97.762-3.295Zm-3.978-1c.06-1.326.353-2.477.762-3.295C5.264 1.225 5.755 1 6 1s.737.225 1.227 1.205c.409.818.702 1.97.762 3.295H4.012Zm-1.001 0H1.025a5.004 5.004 0 0 1 3.062-4.12c-.604 1-1.008 2.465-1.076 4.12Zm0 1H1.025a5.004 5.004 0 0 0 3.062 4.12c-.604-1-1.008-2.465-1.076-4.12Zm5.98 0h1.985a5.004 5.004 0 0 1-3.061 4.12c.603-1 1.007-2.465 1.075-4.12Zm1.985-1H8.99c-.068-1.655-.472-3.12-1.075-4.12a5.004 5.004 0 0 1 3.061 4.12Z"/></svg>