<svg xmlns="http://www.w3.org/2000/svg" width="48" height="48"><path d="M22 4a8 8 0 0 0-8 8v12a8 8 0 0 0 8.35 7.992 12.88 12.88 0 0 1 .94-2.644A5.5 5.5 0 0 1 16.5 24V12a5.5 5.5 0 1 1 11 0v12c0 .131-.005.261-.014.39A12.98 12.98 0 0 1 30 22.996V12a8 8 0 0 0-8-8Zm.002 31.25c.032 1.684.384 3.29.998 4.759v2.741a1.25 1.25 0 1 1-2.5 0v-5.08C13.473 36.923 8 30.976 8 23.75a1.25 1.25 0 1 1 2.5 0c0 6.351 5.149 11.5 11.5 11.5h.002ZM35 46c-6.075 0-11-4.925-11-11s4.925-11 11-11 11 4.925 11 11-4.925 11-11 11Zm0-2a9 9 0 0 0 7.032-14.618l-12.65 12.65A8.962 8.962 0 0 0 35 44Zm-7.032-3.382 12.65-12.65a9 9 0 0 0-12.65 12.65Z"/></svg>