<svg xmlns="http://www.w3.org/2000/svg" width="48" height="48"><path d="M18.5 18.26c1.373-.936 2.6-1.256 3.665-1.196a3.971 3.971 0 0 1 1.803.54 3.5 3.5 0 0 1 .632.477l.047.049.018.018.008.009.003.003.002.002.001.002a1.25 1.25 0 0 1-.326 1.93l-.001.002-.012.006a7.55 7.55 0 0 0-.395.253c-.285.195-.705.504-1.21.944-1.009.88-2.357 2.28-3.655 4.328-.059.094-.12.186-.183.277l-.111.228C17.656 27.784 15.863 29 13.819 29h-3.042a5.25 5.25 0 0 1-4.814-3.155l-1.36-3.128A7.25 7.25 0 0 1 4 19.824V7.25a1.25 1.25 0 1 1 2.5 0v9a.75.75 0 0 0 1.5 0V5.75a1.25 1.25 0 1 1 2.5 0v9.5a.75.75 0 0 0 1.5 0v-11a1.25 1.25 0 1 1 2.5 0v11a.75.75 0 0 0 1.5 0v-9.5a1.25 1.25 0 1 1 2.5 0v12.51ZM30 44.87c-7.988 0-14.517-6.243-14.975-14.116 2.099-.368 4.062-1.67 5.405-3.634.06-.08.11-.16.15-.25l.05-.1c.025-.035.047-.07.07-.105.022-.035.045-.07.07-.105 1.21-1.9 2.45-3.17 3.28-3.89.45-.38.81-.65 1.03-.8l.082-.052a8.88 8.88 0 0 0 .188-.123c.01-.008.018-.015.03-.015.84-.48 1.41-1.3 1.58-2.27.17-.96-.11-1.93-.75-2.67-.03-.03-.09-.1-.09-.1l-.04-.05-.07-.07a5.146 5.146 0 0 0-1.01-.77l-.029-.016A14.974 14.974 0 0 1 30 14.87c8.284 0 15 6.716 15 15 0 8.284-6.716 15-15 15Zm0-8.5a6.469 6.469 0 0 1-5.453-2.932 1.25 1.25 0 1 0-2.095 1.364A8.969 8.969 0 0 0 30 38.87a8.969 8.969 0 0 0 7.547-4.068 1.25 1.25 0 1 0-2.095-1.364A6.469 6.469 0 0 1 30 36.37Zm6-9.5a2 2 0 1 0-4 0 2 2 0 0 0 4 0Zm-10 2a2 2 0 1 0 0-4 2 2 0 0 0 0 4Z"/></svg>