<svg xmlns="http://www.w3.org/2000/svg" width="24" height="24"><path d="M6.238 3c.967 0 1.75.784 1.75 1.75v14.5A1.75 1.75 0 0 1 6.238 21h-2.5a1.75 1.75 0 0 1-1.75-1.75V4.75a1.75 1.75 0 0 1 1.607-1.743L3.738 3h2.5Zm14.026 0c.967 0 1.75.784 1.75 1.75v14.5a1.75 1.75 0 0 1-1.75 1.75h-2.5a1.75 1.75 0 0 1-1.75-1.75V4.75c0-.966.784-1.75 1.75-1.75h2.5Zm-7.026 0c.967 0 1.75.784 1.75 1.75v14.5a1.75 1.75 0 0 1-1.75 1.75h-2.5a1.75 1.75 0 0 1-1.75-1.75V4.75c0-.966.784-1.75 1.75-1.75h2.5Zm-7 1.5h-2.5l-.057.007a.25.25 0 0 0-.193.244v14.5c0 .138.112.25.25.25h2.5a.25.25 0 0 0 .25-.25V4.75a.25.25 0 0 0-.25-.25Zm14.026 0h-2.5a.25.25 0 0 0-.25.25v14.5c0 .139.112.25.25.25h2.5a.25.25 0 0 0 .25-.25V4.75a.25.25 0 0 0-.25-.25Zm-7.026 0h-2.5a.25.25 0 0 0-.25.25v14.5c0 .138.112.25.25.25h2.5a.25.25 0 0 0 .25-.25V4.75a.25.25 0 0 0-.25-.25Z"/></svg>