<svg xmlns="http://www.w3.org/2000/svg" width="16" height="16" viewBox="0 0 16 16"><path d="M2.946 3.936a3.25 3.25 0 0 1 4.595.012l.454.453.447-.448a3.252 3.252 0 0 1 4.6.012 3.25 3.25 0 0 1 .013 4.594l-4.683 4.68a.5.5 0 0 1-.707 0L2.958 8.53a3.25 3.25 0 0 1-.012-4.595Zm5.073 8.242 4.327-4.325a2.25 2.25 0 0 0-.01-3.181 2.252 2.252 0 0 0-3.187-.012l-.25.252a.504.504 0 0 1-.045.052L7.707 6.11l1.647 1.647a.5.5 0 0 1 0 .707l-1.5 1.5a.5.5 0 0 1-.708-.707L8.293 8.11 6.646 6.464a.5.5 0 0 1 0-.707l.645-.645-.457-.457a2.25 2.25 0 0 0-3.181-.012 2.25 2.25 0 0 0 .012 3.181l4.354 4.354Z"/></svg>