<svg xmlns="http://www.w3.org/2000/svg" width="32" height="32"><path d="M16 11a5 5 0 1 0 0 10 5 5 0 0 0 0-10Zm-3 5a3 3 0 1 1 6 0 3 3 0 0 1-6 0Zm-.16 13.628c1.035.247 2.096.372 3.16.372a13.643 13.643 0 0 0 3.156-.375 1.478 1.478 0 0 0 1.13-1.276l.234-2.13a1.471 1.471 0 0 1 2.066-1.2l1.955.856a1.472 1.472 0 0 0 1.671-.345 14.245 14.245 0 0 0 3.156-5.443 1.478 1.478 0 0 0-.535-1.627l-1.729-1.275a1.481 1.481 0 0 1 .003-2.396l1.72-1.27a1.474 1.474 0 0 0 .537-1.63 14.199 14.199 0 0 0-3.157-5.443 1.48 1.48 0 0 0-1.674-.345l-1.946.856a1.483 1.483 0 0 1-2.067-1.2l-.236-2.12a1.476 1.476 0 0 0-1.147-1.283 15.123 15.123 0 0 0-3.127-.363 15.395 15.395 0 0 0-3.146.363 1.469 1.469 0 0 0-1.147 1.28l-.237 2.122a1.493 1.493 0 0 1-2.073 1.206l-1.946-.857a1.493 1.493 0 0 0-1.67.35 14.245 14.245 0 0 0-3.16 5.446 1.478 1.478 0 0 0 .536 1.625l1.725 1.272a1.488 1.488 0 0 1 0 2.397L3.167 18.47a1.477 1.477 0 0 0-.535 1.63 14.253 14.253 0 0 0 3.16 5.45 1.458 1.458 0 0 0 1.077.465c.203 0 .404-.042.591-.123l1.955-.859a1.485 1.485 0 0 1 2.065 1.2l.235 2.126a1.476 1.476 0 0 0 1.125 1.27Zm5.501-1.866a11.638 11.638 0 0 1-4.677 0l-.195-1.74a3.48 3.48 0 0 0-1.14-2.208 3.534 3.534 0 0 0-3.718-.6l-1.606.7a12.237 12.237 0 0 1-2.348-4.05l1.424-1.052a3.488 3.488 0 0 0 0-5.616L4.66 12.147a12.243 12.243 0 0 1 2.348-4.046l1.6.7a3.45 3.45 0 0 0 1.4.294 3.5 3.5 0 0 0 3.467-3.108l.194-1.747c.774-.15 1.56-.23 2.347-.24.782.01 1.562.09 2.33.24l.186 1.74a3.48 3.48 0 0 0 1.137 2.216 3.525 3.525 0 0 0 3.727.6l1.6-.7a12.212 12.212 0 0 1 2.35 4.047l-1.423 1.046a3.48 3.48 0 0 0 0 5.62l1.422 1.05A12.273 12.273 0 0 1 25 23.901l-1.6-.7a3.473 3.473 0 0 0-4.866 2.81l-.193 1.75Z"/></svg>