<svg xmlns="http://www.w3.org/2000/svg" width="24" height="24" viewBox="0 0 24 24"><path d="M4 5.25A2.25 2.25 0 0 1 6.25 3h9.5A2.25 2.25 0 0 1 18 5.25V14h4v3.75A3.25 3.25 0 0 1 18.75 21h-6.772A6.47 6.47 0 0 0 13 17.5c0-2.01-.913-3.808-2.346-5h3.096a.75.75 0 0 0 0-1.5h-5.5c-.16 0-.307.05-.429.134A6.53 6.53 0 0 0 4 11.498V5.25ZM18 19.5h.75a1.75 1.75 0 0 0 1.75-1.75V15.5H18v4ZM7.5 7.75c0 .414.336.75.75.75h5.5a.75.75 0 0 0 0-1.5h-5.5a.75.75 0 0 0-.75.75ZM12 17.5a5.5 5.5 0 1 1-11 0 5.5 5.5 0 0 1 11 0Zm-7 1.999a.5.5 0 0 0 .777.416l3.002-1.999a.5.5 0 0 0 0-.832l-3.002-2a.5.5 0 0 0-.777.417v3.998Z"/></svg>