<svg xmlns="http://www.w3.org/2000/svg" width="20" height="20"><path d="M6.53 4.008a4 4 0 1 1-.144 3.708 1.493 1.493 0 0 1-.884.288h-.5v.255c0 .19.072.363.19.494a.749.749 0 0 1 1.31.498.75.75 0 0 1-.822.746 1.739 1.739 0 0 1-1.678-1.738V4.507a.5.5 0 0 1 .5-.5h2l.028.001Zm.472 2.111a3 3 0 1 0 0-.238v.238Zm-1-.257v-.855h-1v1.997h.5a.5.5 0 0 0 .5-.5v-.366a4.078 4.078 0 0 1 0-.276ZM3 13c0-1.113.903-2 2.009-2H15a2 2 0 0 1 2 2c0 1.691-.833 2.966-2.135 3.797C13.583 17.614 11.855 18 10 18c-1.855 0-3.583-.386-4.865-1.203C3.833 15.967 3 14.69 3 13Zm2.009-1C4.448 12 4 12.447 4 13c0 1.309.622 2.284 1.673 2.953C6.743 16.636 8.265 17 10 17c1.735 0 3.257-.364 4.327-1.047C15.377 15.283 16 14.31 16 13a1 1 0 0 0-1-1H5.009Z"/></svg>