<svg xmlns="http://www.w3.org/2000/svg" width="20" height="20" viewBox="0 0 20 20"><path d="M2.44 11.2a1.5 1.5 0 0 0 0 2.122l4.242 4.242a1.5 1.5 0 0 0 2.121 0l.72-.72a5.46 5.46 0 0 1-.369-1.045l-1.058 1.058a.5.5 0 0 1-.707 0l-4.243-4.242a.5.5 0 0 1 0-.707l1.69-1.69 4.165 4.164c.01-.429.067-.846.17-1.245L5.543 9.51l6.364-6.364a.5.5 0 0 1 .707 0l4.242 4.243a.5.5 0 0 1 0 .707L15.8 9.154a5.46 5.46 0 0 1 1.045.37l.72-.72a1.5 1.5 0 0 0 0-2.122l-4.242-4.243a1.5 1.5 0 0 0-2.122 0L2.44 11.2ZM14.5 19a4.5 4.5 0 1 0 0-9 4.5 4.5 0 0 0 0 9Z"/></svg>