<svg xmlns="http://www.w3.org/2000/svg" width="16" height="16"><path d="M4.75 3a.75.75 0 0 0-.75.75v1.5c0 .414.336.75.75.75h5.5a.75.75 0 0 0 .75-.75v-1.5a.75.75 0 0 0-.75-.75h-5.5ZM5 5V4h5v1H5ZM2 2.75C2 1.784 2.784 1 3.75 1h7.5c.966 0 1.75.784 1.75 1.75v10.5A1.75 1.75 0 0 1 11.25 15h-7.5A1.75 1.75 0 0 1 2 13.25V2.75ZM3.75 2a.75.75 0 0 0-.75.75v10.5c0 .414.336.75.75.75h7.5a.75.75 0 0 0 .75-.75V2.75a.75.75 0 0 0-.75-.75h-7.5Zm10.875 2H14v2h.625A.375.375 0 0 0 15 5.625v-1.25A.375.375 0 0 0 14.625 4ZM14 7h.625c.207 0 .375.168.375.375v1.25a.375.375 0 0 1-.375.375H14V7Zm.625 3H14v2h.625a.375.375 0 0 0 .375-.375v-1.25a.375.375 0 0 0-.375-.375Z"/></svg>