<svg xmlns="http://www.w3.org/2000/svg" width="48" height="48" viewBox="0 0 48 48"><path d="M17.5 22a2.5 2.5 0 1 0 0-5 2.5 2.5 0 0 0 0 5ZM33 19.5a2.5 2.5 0 1 1-5 0 2.5 2.5 0 0 1 5 0ZM18.452 34.681A11.718 11.718 0 0 0 24 36a11.718 11.718 0 0 0 9.816-5.1 1.249 1.249 0 1 0-2.13-1.307A9.212 9.212 0 0 1 24 33.5a9.22 9.22 0 0 1-7.687-3.907 1.248 1.248 0 1 0-2.13 1.307 11.718 11.718 0 0 0 4.269 3.781ZM24 4C12.954 4 4 12.954 4 24s8.954 20 20 20 20-8.954 20-20S35.046 4 24 4ZM6.5 24c0-9.665 7.835-17.5 17.5-17.5S41.5 14.335 41.5 24 33.665 41.5 24 41.5 6.5 33.665 6.5 24Z"/></svg>