<svg xmlns="http://www.w3.org/2000/svg" width="28" height="28" viewBox="0 0 28 28"><path d="m8.352 4.011.058-.007L8.5 4l.075.003.126.017.111.03.111.044.098.052.104.074.082.073 5.5 5.5a1 1 0 0 1-1.32 1.497l-.094-.083L9.5 7.415V23a1 1 0 0 1-1.993.117L7.5 23V7.415l-3.793 3.792a1 1 0 0 1-1.32.083l-.094-.083a1 1 0 0 1-.083-1.32l.083-.094 5.5-5.5a1.01 1.01 0 0 1 .112-.097l.11-.071.114-.054.105-.035.118-.025ZM19.5 4a1 1 0 0 1 .993.883L20.5 5v15.585l3.793-3.792.094-.083a1 1 0 0 1 1.403 1.403l-.083.094-5.5 5.5-.044.041-.068.056-.11.071-.114.054-.105.035-.117.025-.09.01h-.118l-.06-.006-.114-.02-.109-.033-.081-.034-.098-.052-.096-.067a1.01 1.01 0 0 1-.09-.08l-5.5-5.5-.083-.094a1 1 0 0 1 0-1.226l.083-.094.094-.083a1 1 0 0 1 1.226 0l.094.083 3.793 3.792V5l.007-.117A1 1 0 0 1 19.5 4Z"/></svg>