<svg xmlns="http://www.w3.org/2000/svg" width="20" height="20"><path d="M9.496 3H9.25C8.56 3 8 3.56 8 4.25v1.5a1.25 1.25 0 0 0 2.5 0h-1a.5.5 0 1 1 0-1H11a.5.5 0 0 1 .5.5v.5a2.25 2.25 0 1 1-4.5 0v-1.5A2.25 2.25 0 0 1 9.25 2h.25c.029 0 1.117 0 1.648 1.02a.5.5 0 1 1-.887.461.86.86 0 0 0-.479-.418A.968.968 0 0 0 9.496 3ZM4.75 13a.75.75 0 0 1 .742.64l.008.11v2.5a.75.75 0 0 1-1.492.11L4 16.25v-2.5a.75.75 0 0 1 .75-.75Zm3-2a.75.75 0 0 1 .742.64l.008.11v4.5a.75.75 0 0 1-1.492.11L7 16.25v-4.5a.75.75 0 0 1 .75-.75Zm3-2a.75.75 0 0 1 .742.64l.008.11v6.5a.75.75 0 0 1-1.492.11L10 16.25v-6.5a.75.75 0 0 1 .75-.75Zm3-2a.75.75 0 0 1 .742.64l.008.11v8.499a.75.75 0 0 1-1.492.11L13 16.25v-8.5a.75.75 0 0 1 .75-.75Zm3-2a.743.743 0 0 1 .741.626l.01.11-.015 10.515a.743.743 0 0 1-1.477.124l-.009-.11.015-10.515A.743.743 0 0 1 16.75 5ZM4.958 2.706c0-.681-.875-.96-1.27-.406L1.129 5.894A.7.7 0 0 0 1.7 7h2.26v.499a.5.5 0 1 0 1 0V7h.543a.5.5 0 0 0 0-1h-.544V2.706Zm-1 .939V6H2.281l1.677-2.355Z"/></svg>