<svg xmlns="http://www.w3.org/2000/svg" width="48" height="48" viewBox="0 0 48 48"><path d="M15 19.25c0-.69.56-1.25 1.25-1.25h15.5a1.25 1.25 0 1 1 0 2.5h-15.5c-.69 0-1.25-.56-1.25-1.25ZM17.25 2.5a1.25 1.25 0 1 0 0 2.5H18v2h-3.75A6.25 6.25 0 0 0 8 13.25v22.5a6.25 6.25 0 0 0 6.026 6.246 1.257 1.257 0 0 0-.026.254v1.5a1.25 1.25 0 1 0 2.5 0v-1.5c0-.086-.009-.17-.025-.25h14.55c-.016.08-.025.164-.025.25v1.5a1.25 1.25 0 1 0 2.5 0v-1.5c0-.086-.009-.17-.025-.25h.275A6.25 6.25 0 0 0 40 35.75v-22.5A6.25 6.25 0 0 0 33.75 7H29.5V5h1.25a1.25 1.25 0 1 0 0-2.5h-13.5ZM27 5v2h-6.5V5H27ZM14.25 9.5h19.5a3.75 3.75 0 0 1 3.75 3.75v22.5a3.75 3.75 0 0 1-3.75 3.75h-19.5a3.75 3.75 0 0 1-3.75-3.75v-22.5a3.75 3.75 0 0 1 3.75-3.75Z"/></svg>