<svg xmlns="http://www.w3.org/2000/svg" width="24" height="24" viewBox="0 0 24 24"><path d="M6.25 3A3.25 3.25 0 0 0 3 6.25v11.5A3.25 3.25 0 0 0 6.25 21h6.922A3.738 3.738 0 0 1 13 19.875v-.103A2.772 2.772 0 0 1 15.773 17h.277A3.5 3.5 0 1 1 21 12.05v-5.8A3.25 3.25 0 0 0 17.75 3H6.25Zm11.03 6.28-6.754 6.747a.75.75 0 0 1-1.06 0L6.72 13.28a.75.75 0 0 1 1.06-1.06l2.217 2.216 6.223-6.217a.75.75 0 1 1 1.06 1.062ZM21 14.5a2.5 2.5 0 1 1-5 0 2.5 2.5 0 0 1 5 0Zm2 5.375C23 21.431 21.714 23 18.5 23S14 21.437 14 19.875v-.103c0-.98.794-1.772 1.773-1.772h5.454c.98 0 1.773.793 1.773 1.772v.103Z"/></svg>