<svg xmlns="http://www.w3.org/2000/svg" width="24" height="24" viewBox="0 0 24 24"><path d="M23 6.5a5.5 5.5 0 1 1-11 0 5.5 5.5 0 0 1 11 0Zm-2.146-2.354a.5.5 0 0 0-.708 0L16.5 7.793l-1.646-1.647a.5.5 0 0 0-.708.708l2 2a.5.5 0 0 0 .708 0l4-4a.5.5 0 0 0 0-.708ZM17.5 13a6.478 6.478 0 0 0 4.499-1.809v4.56a2.25 2.25 0 0 1-2.096 2.246l-.154.005h-4.25V20.5h1.751a.75.75 0 0 1 .102 1.493L17.25 22H6.75a.75.75 0 0 1-.102-1.493l.102-.007h1.749v-2.498H4.25a2.25 2.25 0 0 1-2.245-2.096L2 15.752V5.25a2.25 2.25 0 0 1 2.096-2.245L4.25 3h7.772A6.5 6.5 0 0 0 17.5 13Zm-3.502 5.002h-4l.001 2.498h4l-.001-2.498Z"/></svg>