<svg xmlns="http://www.w3.org/2000/svg" width="24" height="24"><path d="M18 17.5v1.25A2.25 2.25 0 0 1 15.75 21h-7.5A2.25 2.25 0 0 1 6 18.75v-1.251l-1.75.001A2.25 2.25 0 0 1 2 15.25V9.254a3.25 3.25 0 0 1 3.25-3.25l.749-.001L6 5.25A2.25 2.25 0 0 1 8.25 3h7.502a2.25 2.25 0 0 1 2.25 2.25v.753h.75a3.254 3.254 0 0 1 3.252 3.25l.003 5.997a2.249 2.249 0 0 1-2.248 2.25H18Zm-2.25-4h-7.5a.75.75 0 0 0-.75.75v4.5c0 .414.336.75.75.75h7.5a.75.75 0 0 0 .75-.75v-4.5a.75.75 0 0 0-.75-.75Zm.002-9H8.25a.75.75 0 0 0-.75.75l-.001.753h9.003V5.25a.75.75 0 0 0-.75-.75Z"/></svg>