<svg xmlns="http://www.w3.org/2000/svg" width="24" height="24" viewBox="0 0 24 24"><path d="M14 4.253a1 1 0 0 1 2 0v6.746a.5.5 0 0 0 1 0V6a1 1 0 0 1 2 0v8.755c0 2.179-1.168 4.508-1.914 5.787-.556.955-1.58 1.459-2.623 1.459h-2.168a3.25 3.25 0 0 1-2.907-1.797l-.133-.266A11.245 11.245 0 0 0 7.693 17.6l-2.212-2.552-2.191-1.704A.75.75 0 0 1 3 12.75c0-.485.26-.845.592-1.06.296-.191.65-.273.962-.31.636-.075 1.41.002 2.089.134A4.7 4.7 0 0 1 8 12.019V4.253a1 1 0 0 1 2 0V10.5a.5.5 0 0 0 1 0V3a1 1 0 0 1 2 0v7.5a.5.5 0 0 0 1 0V4.253Z"/></svg>