<svg xmlns="http://www.w3.org/2000/svg" width="24" height="24"><path d="M9.998 5.715 7.233 13.5h5.53L9.998 5.715Zm3.575 10.067L13.295 15H6.7l-1.244 3.504a.75.75 0 0 1-1.414-.502L9.16 3.592c.28-.79 1.396-.79 1.676 0l3.912 11.015-1.175 1.175Zm-8.588 4.592c-.525.117-1.162-.123-1.631-.38-.209-.113-.487.072-.388.288.242.529.731 1.133 1.71 1.255.98.121 1.766-.347 2.55-.815.583-.348 1.165-.696 1.826-.799.086-.013.144.088.105.166-.242.484-.356 1.37.218 1.818.848.662 3.237.292 3.828.088a.982.982 0 0 0 .148-.027l1.83-.457a2.684 2.684 0 0 0 1.248-.707l5.903-5.902a2.286 2.286 0 0 0-3.233-3.232l-5.902 5.902a2.684 2.684 0 0 0-.706 1.247l-.428 1.712c-.355.17-.71.202-1.133.105-.126-.03-.18-.175-.127-.293.43-.962-.19-1.776-1.03-2.113-.955-.385-2.226.515-3.292 1.268-.592.42-1.12.793-1.496.876Z"/></svg>