<svg xmlns="http://www.w3.org/2000/svg" width="20" height="20" viewBox="0 0 20 20"><path d="M15.752 6.01c.18 0 .344.063.473.168a4.979 4.979 0 0 1 1.746 4.407 5.46 5.46 0 0 0-1.469-.494l.003-.091c0-1.081-.49-2.048-1.26-2.69a.75.75 0 0 1 .508-1.3Zm-5.377 7.49a5.47 5.47 0 0 0-.353 1.5H8.563l1.22 1.22a.75.75 0 0 1 .072.976l-.072.084a.75.75 0 0 1-.977.073l-.084-.073-2.5-2.5a.75.75 0 0 1-.073-.976l.073-.084 2.5-2.5a.75.75 0 0 1 1.133.976l-.072.084-1.22 1.22h1.812Zm-.153-10.78a.75.75 0 0 1 .977-.073l.084.073 2.5 2.5.072.084a.75.75 0 0 1 .008.882l-.08.094-2.5 2.5-.084.073a.75.75 0 0 1-.883.007l-.094-.08-.072-.084a.75.75 0 0 1-.008-.882l.08-.094 1.219-1.22H7a3.5 3.5 0 0 0-3.495 3.308L3.5 10c0 1.083.492 2.051 1.265 2.693a.75.75 0 0 1-1.01 1.107 5 5 0 0 1 3.029-8.796L7 5h4.441l-1.219-1.22-.072-.084a.75.75 0 0 1 .072-.976ZM20 15.5a4.5 4.5 0 1 1-9 0 4.5 4.5 0 0 1 9 0Zm-3.952-2.661a.62.62 0 0 0-.68.233c-.213.303-.58.726-1.092.98a.5.5 0 1 0 .448.895 3.66 3.66 0 0 0 .776-.529V17.5a.5.5 0 0 0 1 0v-4.076c0-.349-.267-.533-.452-.585Z"/></svg>