<svg xmlns="http://www.w3.org/2000/svg" width="16" height="16"><path d="M11.752 2.043a1.72 1.72 0 0 0-2.6.195A2.088 2.088 0 0 0 7.308 5.77l.876.876-.831.832 1.183 1.184.832-.832.877.877a2.088 2.088 0 0 0 3.532-1.843 1.72 1.72 0 0 0 .195-2.6l-.519-.519.454-.454a.837.837 0 0 0-1.183-1.184l-.454.454-.519-.518Zm.282 3.733a.5.5 0 0 1-.708 0l-1.103-1.103a.5.5 0 0 1 .707-.707l1.104 1.103a.5.5 0 0 1 0 .707ZM2.817 7.31a2.088 2.088 0 0 1 2.953 0l2.937 2.937a2.088 2.088 0 0 1-1.843 3.531 1.72 1.72 0 0 1-2.6.195l-.519-.518-.469.47a.837.837 0 1 1-1.184-1.184l.47-.47-.52-.518a1.72 1.72 0 0 1 .196-2.6 2.085 2.085 0 0 1 .58-1.843Zm2.598 4.379-1.103-1.103a.5.5 0 0 0-.707.707l1.103 1.103a.5.5 0 0 0 .707-.707Z"/></svg>