<svg xmlns="http://www.w3.org/2000/svg" width="24" height="24" viewBox="0 0 24 24"><path d="M17.5 12a5.5 5.5 0 1 1 0 11 5.5 5.5 0 0 1 0-11Zm-2.476 3.024a.5.5 0 0 0 0 .707l1.769 1.77-1.767 1.766a.5.5 0 1 0 .707.708l1.767-1.767 1.77 1.769a.5.5 0 1 0 .707-.707l-1.769-1.77 1.771-1.77a.5.5 0 0 0-.707-.707l-1.771 1.77-1.77-1.77a.5.5 0 0 0-.707 0ZM11.019 17H3l-.117.007A1 1 0 0 0 3 19h8.174a6.52 6.52 0 0 1-.155-2Zm.48-2H3a1 1 0 0 1-.117-1.993L3 13h9.81a6.49 6.49 0 0 0-1.312 2ZM3 11a1 1 0 0 1-.117-1.993L3 9h18a1 1 0 0 1 .117 1.993L21 11H3Zm18-6H3l-.117.007A1 1 0 0 0 3 7h18l.117-.007A1 1 0 0 0 21 5Z"/></svg>