<svg xmlns="http://www.w3.org/2000/svg" width="20" height="20"><path d="M3 6a3 3 0 0 1 3-3h8a3 3 0 0 1 3 3v3.6a5.502 5.502 0 0 0-7.776 3.342 4.226 4.226 0 0 1-1.25-.39 3.196 3.196 0 0 1-.487-.296 1.97 1.97 0 0 1-.133-.11l-.003-.002a.5.5 0 0 0-.705.71h.001l.001.001.002.002.005.005.015.014a2.93 2.93 0 0 0 .218.18c.146.11.359.251.639.391.38.19.881.376 1.503.477A5.477 5.477 0 0 0 9.6 17H6a3 3 0 0 1-3-3V6Zm4.5 3a1 1 0 1 0 0-2 1 1 0 0 0 0 2Zm6-1a1 1 0 1 0-2 0 1 1 0 0 0 2 0Zm5.5 6.5a4.5 4.5 0 1 1-9 0 4.5 4.5 0 0 1 9 0Zm-4-2a.5.5 0 0 0-1 0V14h-1.5a.5.5 0 0 0 0 1H14v1.5a.5.5 0 0 0 1 0V15h1.5a.5.5 0 0 0 0-1H15v-1.5Z"/></svg>