<svg xmlns="http://www.w3.org/2000/svg" width="20" height="20"><path d="M18 4.5a1.5 1.5 0 0 1-1 1.415v3.353a6.33 6.33 0 0 1-.85-.729A1.605 1.605 0 0 0 15 8.063V7.5a.5.5 0 0 0-.5-.5h-9a.5.5 0 0 0-.5.5v3a.5.5 0 0 0 .5.5h4.583a1.52 1.52 0 0 0-.083.5V13v-.5a.5.5 0 0 0-.5-.5h-4a.5.5 0 0 0-.5.5V17H3.5a.5.5 0 0 1-.5-.5V5.915A1.5 1.5 0 0 1 3.5 3h13A1.5 1.5 0 0 1 18 4.5Zm-15 0a.5.5 0 0 0 .5.5h13a.5.5 0 0 0 0-1h-13a.5.5 0 0 0-.5.5ZM14 8v.405a1.57 1.57 0 0 0-.15.134c-.538.55-1.457 1.29-2.49 1.435a1.575 1.575 0 0 0-.137.026H6V8h8Zm-5 5H6v4h3v-4Zm9.501-2.035c-1.37-.193-2.486-1.134-3.066-1.726a.624.624 0 0 0-.87 0c-.58.592-1.695 1.533-3.066 1.726-.274.038-.499.259-.499.535V14c0 3.468 3.182 4.727 3.87 4.959a.4.4 0 0 0 .26 0C15.818 18.727 19 17.469 19 14v-2.5c0-.276-.225-.497-.499-.535Z"/></svg>