<svg xmlns="http://www.w3.org/2000/svg" width="24" height="24"><path d="M3 6.25A3.25 3.25 0 0 1 6.25 3h11.5A3.25 3.25 0 0 1 21 6.25v11.5A3.25 3.25 0 0 1 17.75 21H6.25A3.25 3.25 0 0 1 3 17.75V6.25ZM6.25 4.5A1.75 1.75 0 0 0 4.5 6.25v11.5c0 .966.784 1.75 1.75 1.75h11.5a1.75 1.75 0 0 0 1.75-1.75V6.25a1.75 1.75 0 0 0-1.75-1.75H6.25ZM6 8.25c0-.966.784-1.75 1.75-1.75h8.5c.966 0 1.75.784 1.75 1.75v1.5a1.75 1.75 0 0 1-1.75 1.75h-8.5A1.75 1.75 0 0 1 6 9.75v-1.5ZM7.75 8a.25.25 0 0 0-.25.25v1.5c0 .138.112.25.25.25h8.5a.25.25 0 0 0 .25-.25v-1.5a.25.25 0 0 0-.25-.25h-8.5Zm-1 5a.75.75 0 0 0 0 1.5h4.5a.75.75 0 0 0 0-1.5h-4.5ZM6 16.75a.75.75 0 0 1 .75-.75h4.5a.75.75 0 0 1 0 1.5h-4.5a.75.75 0 0 1-.75-.75ZM15.25 13a1.75 1.75 0 0 0-1.75 1.75v1c0 .966.784 1.75 1.75 1.75h1A1.75 1.75 0 0 0 18 15.75v-1A1.75 1.75 0 0 0 16.25 13h-1ZM15 14.75a.25.25 0 0 1 .25-.25h1a.25.25 0 0 1 .25.25v1a.25.25 0 0 1-.25.25h-1a.25.25 0 0 1-.25-.25v-1Z"/></svg>