<svg xmlns="http://www.w3.org/2000/svg" width="20" height="20"><path d="M13.577 2.38a3 3 0 0 0-2.154 0L7.962 3.71A1.5 1.5 0 0 0 7 5.11v1.101a4.001 4.001 0 0 1 1 0v-1.1a.5.5 0 0 1 .32-.467l3.462-1.331a2 2 0 0 1 1.436 0l3.461 1.331a.5.5 0 0 1 .32.467v7.78a.5.5 0 0 1-.32.466l-2.68 1.031v.503c0 .204-.024.404-.072.596l3.111-1.196a1.5 1.5 0 0 0 .962-1.4V5.11a1.5 1.5 0 0 0-.962-1.4l-3.461-1.33Zm2.514 2.915a.5.5 0 0 0-.646-.287l-2.766 1.064a.5.5 0 0 1-.359 0L9.554 5.008a.5.5 0 1 0-.359.933l2.766 1.064a1.5 1.5 0 0 0 1.077 0l2.766-1.064a.5.5 0 0 0 .287-.646Zm-5 5a.5.5 0 0 0-.646-.287L7.5 11.141l-2.946-1.133a.5.5 0 0 0-.359.934L7 12.02v2.49a.5.5 0 1 0 1 0v-2.49l2.804-1.079a.5.5 0 0 0 .287-.646ZM8.577 7.38a3 3 0 0 0-2.154 0L2.962 8.71A1.5 1.5 0 0 0 2 10.11v4.78a1.5 1.5 0 0 0 .962 1.4l3.46 1.332a3 3 0 0 0 2.155 0l3.461-1.331a1.5 1.5 0 0 0 .961-1.4v-4.78a1.5 1.5 0 0 0-.961-1.4L8.577 7.38Zm-1.795.933a2 2 0 0 1 1.436 0l3.461 1.331a.5.5 0 0 1 .32.467v4.78a.5.5 0 0 1-.32.466L8.218 16.69a2 2 0 0 1-1.436 0L3.32 15.357a.5.5 0 0 1-.32-.465v-4.78a.5.5 0 0 1 .32-.467l3.462-1.331Z"/></svg>