<svg xmlns="http://www.w3.org/2000/svg" width="24" height="24"><path d="M13.378 3.026A9.004 9.004 0 1 1 5.475 17.13a.675.675 0 0 1 .329-1.019c3.391-1.214 5.208-2.62 6.262-4.633 1.11-2.118 1.396-4.438.62-7.619a.675.675 0 0 1 .692-.834Zm1.011 1.637.065.39c.417 2.705.065 4.976-1.06 7.122-1.141 2.18-3 3.704-6.015 4.94a7.504 7.504 0 1 0 7.677-12.283l-.332-.092-.335-.077Zm-3.395-1.01L11 3.75V9a2 2 0 1 1-1.499-1.937l-.001-2.3L6 5.829V10a2 2 0 1 1-1.499-1.937L4.5 5.273a.75.75 0 0 1 .43-.679l.102-.039 5-1.521a.75.75 0 0 1 .943.525l.019.094Z"/></svg>