<svg xmlns="http://www.w3.org/2000/svg" width="24" height="24"><path d="M21 8.5v3.522A6.5 6.5 0 0 0 12.022 21H6.25A3.25 3.25 0 0 1 3 17.75V8.5h18ZM17.75 3A3.25 3.25 0 0 1 21 6.25V7H3v-.75A3.25 3.25 0 0 1 6.25 3h11.5Zm-.25 20a5.5 5.5 0 1 0 0-11 5.5 5.5 0 0 0 0 11Zm-.904-8a.55.55 0 0 1 .317.097l2.807 1.84a.609.609 0 0 1 .28.52.654.654 0 0 1-.112.368.565.565 0 0 1-.159.157l-2.806 1.915a.664.664 0 0 1-.159.077.553.553 0 0 1-.395-.023.695.695 0 0 1-.192-.135.724.724 0 0 1-.13-.2.615.615 0 0 1-.047-.237v-3.758a.622.622 0 0 1 .366-.57.532.532 0 0 1 .23-.05Z"/></svg>