<svg xmlns="http://www.w3.org/2000/svg" width="24" height="24"><path d="M4 4a2 2 0 0 1 2-2h6.172a2 2 0 0 1 1.415.586l5.827 5.828A2 2 0 0 1 20 9.828V20a2 2 0 0 1-2 2h-2.05c.418-.41.734-.924.905-1.5H18a.5.5 0 0 0 .5-.5V10H14a2 2 0 0 1-2-2V3.5H6a.5.5 0 0 0-.5.5v10.627c-.235.164-.45.357-.638.572A2.002 2.002 0 0 0 4 14.228V4Zm9.5.62V8a.5.5 0 0 0 .5.5h3.38L13.5 4.62ZM4 15.939c0-.562-.433-.864-.742-.951-.309-.087-.804-.056-1.11.371-.318.443-.76.939-1.28 1.247a.75.75 0 0 0 .764 1.29c.323-.19.613-.42.868-.662v4.017a.75.75 0 0 0 1.5 0v-5.312ZM5 17.5a2.5 2.5 0 0 1 5 0v2a2.5 2.5 0 1 1-5 0v-2Zm2.5-1a1 1 0 0 0-1 1v2a1 1 0 1 0 2 0v-2a1 1 0 0 0-1-1Zm6-1.5a2.5 2.5 0 0 0-2.5 2.5v2a2.5 2.5 0 0 0 5 0v-2a2.5 2.5 0 0 0-2.5-2.5Zm-1 2.5a1 1 0 1 1 2 0v2a1 1 0 1 1-2 0v-2Z"/></svg>