<svg xmlns="http://www.w3.org/2000/svg" width="24" height="24"><path d="M9.005 15a1 1 0 1 0 0-2 1 1 0 0 0 0 2ZM16 14a1 1 0 1 1-2 0 1 1 0 0 1 2 0Zm-5.25 1.5a.75.75 0 0 0 0 1.5h2.5a.75.75 0 0 0 0-1.5h-2.5ZM3 5.25A2.25 2.25 0 0 1 5.25 3h13.5A2.25 2.25 0 0 1 21 5.25v13.5a.75.75 0 0 1-.75.75H18.5v.75A1.75 1.75 0 0 1 16.75 22h-1.5a1.75 1.75 0 0 1-1.75-1.75v-.75h-3v.75A1.75 1.75 0 0 1 8.75 22h-1.5a1.75 1.75 0 0 1-1.75-1.75v-.75H3.75a.75.75 0 0 1-.75-.75V5.25Zm6 15v-.75H7v.75c0 .138.112.25.25.25h1.5a.25.25 0 0 0 .25-.25ZM7 18h10v-6H7v6Zm8 1.5v.75c0 .138.112.25.25.25h1.5a.25.25 0 0 0 .25-.25v-.75h-2Zm4.5-1.5V5.25a.75.75 0 0 0-.75-.75H5.25a.75.75 0 0 0-.75.75V18h1v-6.75a.75.75 0 0 1 .018-.163l.739-3.325A2.25 2.25 0 0 1 8.453 6h7.094a2.25 2.25 0 0 1 2.196 1.762l.74 3.325a.748.748 0 0 1 .017.163V18h1ZM8.453 7.5a.75.75 0 0 0-.732.587L7.185 10.5h9.63l-.536-2.413a.75.75 0 0 0-.732-.587H8.453Z"/></svg>