<svg xmlns="http://www.w3.org/2000/svg" width="32" height="32" viewBox="0 0 32 32"><path d="M16.81 4.3a1.25 1.25 0 0 0-1.62 0l-9.75 8.288a1.25 1.25 0 0 0-.44.953V26.5a.5.5 0 0 0 .5.5h5a.5.5 0 0 0 .5-.5v-7a2.5 2.5 0 0 1 2.5-2.5h5.004a2.5 2.5 0 0 1 2.5 2.5v7a.5.5 0 0 0 .5.5H26.5a.5.5 0 0 0 .5-.5V13.54a1.25 1.25 0 0 0-.44-.952l-9.75-8.287Zm-2.915-1.523a3.25 3.25 0 0 1 4.21 0l9.75 8.287A3.25 3.25 0 0 1 29 13.54V26.5a2.5 2.5 0 0 1-2.5 2.5h-4.996a2.5 2.5 0 0 1-2.5-2.5v-7a.5.5 0 0 0-.5-.5H13.5a.5.5 0 0 0-.5.5v7a2.5 2.5 0 0 1-2.5 2.5h-5A2.5 2.5 0 0 1 3 26.5V13.54a3.25 3.25 0 0 1 1.145-2.476l9.75-8.287Z"/></svg>