<svg xmlns="http://www.w3.org/2000/svg" width="24" height="24"><path d="M15.8 3a3.25 3.25 0 0 1 3.152 2.46L19.337 7h.913a.75.75 0 0 1 .743.648L21 7.75a.75.75 0 0 1-.648.743l-.102.007h-.536l.208.826a2.249 2.249 0 0 1 1.082 1.924v8.497a1.75 1.75 0 0 1-1.75 1.75H17.75a1.75 1.75 0 0 1-1.75-1.75l-.001-1.247H8.004v1.247a1.75 1.75 0 0 1-1.75 1.75H4.75A1.75 1.75 0 0 1 3 19.747V11.25c0-.815.433-1.529 1.082-1.923l.207-.827H3.75a.75.75 0 0 1-.743-.648L3 7.75a.75.75 0 0 1 .648-.743L3.75 7h.913l.386-1.538A3.25 3.25 0 0 1 8.202 3h7.597ZM6.503 18.5H4.499l.001 1.247c0 .138.112.25.25.25h1.504a.25.25 0 0 0 .25-.25V18.5Zm13 0h-2.005l.001 1.247c0 .138.112.25.25.25h1.504a.25.25 0 0 0 .25-.25V18.5Zm-.75-8H5.25a.75.75 0 0 0-.75.75V17h15.004v-5.75a.75.75 0 0 0-.75-.75ZM10.25 14h3.502a.75.75 0 0 1 .101 1.493l-.101.007H10.25a.75.75 0 0 1-.102-1.493L10.25 14h3.502-3.502ZM17 12a1 1 0 1 1 0 2 1 1 0 0 1 0-2ZM7 12a1 1 0 1 1 0 2 1 1 0 0 1 0-2Zm8.8-7.5H8.201a1.75 1.75 0 0 0-1.698 1.326L5.711 9h12.582l-.796-3.176A1.75 1.75 0 0 0 15.799 4.5Z"/></svg>