<svg xmlns="http://www.w3.org/2000/svg" width="16" height="16"><path d="M4.5 2A2.5 2.5 0 0 0 2 4.5v1.793l-.646-.647a.5.5 0 1 0-.708.708l1.5 1.5a.5.5 0 0 0 .708 0l1.5-1.5a.5.5 0 1 0-.708-.708L3 6.293V4.5A1.5 1.5 0 0 1 4.5 3h7A1.5 1.5 0 0 1 13 4.5V5H5.118c.255.284.382.642.382 1H13v5.5a1.5 1.5 0 0 1-1.5 1.5h-7A1.5 1.5 0 0 1 3 11.5v-2a.5.5 0 0 0-1 0v2A2.5 2.5 0 0 0 4.5 14h7a2.5 2.5 0 0 0 2.5-2.5v-7A2.5 2.5 0 0 0 11.5 2h-7Zm.748 6.997a.748.748 0 1 0 0-1.497.748.748 0 0 0 0 1.497Zm.749 1.752a.748.748 0 1 1-1.497 0 .748.748 0 0 1 1.497 0ZM8 8.996A.748.748 0 1 0 8 7.5a.748.748 0 0 0 0 1.497Zm.749 1.752a.748.748 0 1 1-1.497 0 .748.748 0 0 1 1.497 0Zm2-1.752a.748.748 0 1 0 0-1.497.748.748 0 0 0 0 1.497Z"/></svg>