<svg xmlns="http://www.w3.org/2000/svg" width="28" height="28"><path d="M10.06 18.701a1.628 1.628 0 0 0 2.43-.676l.77-2.34a3.823 3.823 0 0 1 2.416-2.418l2.238-.727a1.61 1.61 0 0 0 .786-.595 1.62 1.62 0 0 0-.849-2.489l-2.215-.72a3.82 3.82 0 0 1-2.42-2.414l-.727-2.237a1.622 1.622 0 0 0-.594-.785 1.655 1.655 0 0 0-1.879 0 1.627 1.627 0 0 0-.6.8L8.68 6.365a3.817 3.817 0 0 1-2.359 2.37l-2.24.726a1.626 1.626 0 0 0 .02 3.073l2.216.72a3.856 3.856 0 0 1 1.816 1.286c.266.343.471.728.606 1.14l.728 2.234c.112.318.32.593.595.787Zm-3.273-6.873-2.22-.72s-.085-.038-.085-.108a.143.143 0 0 1 .084-.115L6.8 10.16a5.339 5.339 0 0 0 3.32-3.375l.721-2.219s.043-.084.114-.084c.071 0 .113.084.113.084l.723 2.223a5.323 5.323 0 0 0 3.377 3.372l2.27.735a.134.134 0 0 1 .078.11.146.146 0 0 1-.083.113l-2.225.722a5.321 5.321 0 0 0-3.374 3.374l-.715 2.2a.11.11 0 0 1-.115.093c-.104 0-.118-.075-.118-.075l-.723-2.22a5.319 5.319 0 0 0-3.376-3.385Zm13.017 12.954A1.2 1.2 0 0 0 20.5 25a1.2 1.2 0 0 0 .692-.216 1.21 1.21 0 0 0 .446-.6l.372-1.143a1.609 1.609 0 0 1 1.017-1.02l1.166-.378A1.213 1.213 0 0 0 25 20.505a1.2 1.2 0 0 0-.844-1.146l-1.144-.37a1.609 1.609 0 0 1-1.02-1.018l-.38-1.163a1.2 1.2 0 0 0-2.274.016l-.374 1.146a1.61 1.61 0 0 1-.993 1.017l-1.166.378a1.213 1.213 0 0 0-.807 1.139 1.2 1.2 0 0 0 .823 1.138l1.144.372a1.606 1.606 0 0 1 1.02 1.023l.379 1.163a1.2 1.2 0 0 0 .44.582Zm-1.371-4.194-.27-.088.283-.096a3.12 3.12 0 0 0 1.943-1.974l.088-.27.089.272a3.114 3.114 0 0 0 1.974 1.975l.293.1-.271.087a3.122 3.122 0 0 0-1.974 1.977l-.088.27-.088-.272a3.115 3.115 0 0 0-1.98-1.98Z"/></svg>