<svg xmlns="http://www.w3.org/2000/svg" width="32" height="32"><path d="m28.377 6.623-2.883 2.884a11.566 11.566 0 0 0-3.002-3.002l2.884-2.883a2.122 2.122 0 0 1 3.001 3.001ZM7.707 19.707a1 1 0 1 0-1.414-1.414l-3 3a1 1 0 1 0 1.414 1.414l3-3Zm3 1.586a1 1 0 0 1 0 1.414l-3 3a1 1 0 0 1-1.414-1.414l3-3a1 1 0 0 1 1.414 0Zm3 4.414a1 1 0 0 0-1.414-1.414l-3 3a1 1 0 1 0 1.414 1.414l3-3ZM8.237 9.622a2.13 2.13 0 0 0-2.978 3.047l14.096 14.096a2.13 2.13 0 0 0 3.024-3.002l-.01-.011L8.273 9.656l-.036-.034Zm1.097-1.027-.026-.025c3.926-3.542 9.982-3.423 13.764.359 3.781 3.781 3.901 9.838.36 13.764l-.002-.002L9.334 8.595Z"/></svg>