<svg xmlns="http://www.w3.org/2000/svg" width="20" height="20"><path d="M4 5c0-1.007.875-1.755 1.9-2.223A10.177 10.177 0 0 1 10 2a10.177 10.177 0 0 1 4.1.777C15.125 3.245 16 3.993 16 5v3.06a2.048 2.048 0 0 0-1 .002V6.7c-.28.206-.582.382-.9.525A10.177 10.177 0 0 1 10 8a10.177 10.177 0 0 1-4.1-.777A4.924 4.924 0 0 1 5 6.7V15c0 .374.356.875 1.318 1.313A9.2 9.2 0 0 0 10 17h.004c0 .356.098.701.272 1.002-.092 0-.184 0-.276-.002a10.177 10.177 0 0 1-4.1-.777C4.875 16.755 4 16.007 4 15V5Zm1 0c0 .374.356.875 1.318 1.313A9.2 9.2 0 0 0 10 7a9.2 9.2 0 0 0 3.682-.687C14.644 5.875 15 5.373 15 5c0-.374-.356-.875-1.318-1.313A9.2 9.2 0 0 0 10 3a9.2 9.2 0 0 0-3.682.687C5.356 4.125 5 4.626 5 5Zm9.603 4.554-3.496 6.998A1 1 0 0 0 12.002 18h6.996a1 1 0 0 0 .895-1.448l-3.5-6.999a1 1 0 0 0-1.79 0Zm1.395 1.941v3.002a.5.5 0 1 1-1 0v-3.002a.5.5 0 1 1 1 0Zm-.5 5.504a.5.5 0 1 1 0-1 .5.5 0 0 1 0 1Z"/></svg>