<svg xmlns="http://www.w3.org/2000/svg" width="20" height="20" viewBox="0 0 20 20"><path d="M6.32 14.6c.098-.213.219-.414.36-.6h6.643c.142.186.265.387.367.6.2.44.305.917.31 1.4H6a3.41 3.41 0 0 1 .32-1.4Zm-1.125 3.244c.23.104.472.156.727.156h8.156a1.884 1.884 0 0 0 1.344-.578c.177-.182.318-.388.422-.617.104-.23.156-.472.156-.727 0-.411-.044-.81-.133-1.195a6.004 6.004 0 0 0-.375-1.117 5.058 5.058 0 0 0-.601-1.008 5.376 5.376 0 0 0-.829-.86l-1.82-1.515a.497.497 0 0 1 0-.766l1.82-1.523a5.307 5.307 0 0 0 1.446-1.867A5.45 5.45 0 0 0 16 3.922a1.884 1.884 0 0 0-.578-1.344 2.166 2.166 0 0 0-.617-.422A1.736 1.736 0 0 0 14.078 2H5.922a1.884 1.884 0 0 0-1.344.578 2.167 2.167 0 0 0-.422.617c-.104.23-.156.472-.156.727.005.823.172 1.591.5 2.305a5.345 5.345 0 0 0 1.438 1.867l1.82 1.523a.498.498 0 0 1 0 .766l-1.82 1.515a5.65 5.65 0 0 0-.829.868 5.354 5.354 0 0 0-.984 2.125A5.604 5.604 0 0 0 4 16.078a1.884 1.884 0 0 0 .578 1.344c.182.177.388.318.617.422Zm9.211-.914a.96.96 0 0 1-.367.07H5.961a1.043 1.043 0 0 1-.375-.078 1.04 1.04 0 0 1-.305-.203.87.87 0 0 1-.21-.305A.981.981 0 0 1 5 16.04a4.448 4.448 0 0 1 .414-1.86 4.31 4.31 0 0 1 1.164-1.507l1.82-1.524a1.52 1.52 0 0 0 .399-.515 1.511 1.511 0 0 0 0-1.273 1.434 1.434 0 0 0-.399-.516l-1.82-1.516a4.02 4.02 0 0 1-.672-.695 4.888 4.888 0 0 1-.492-.813 4.06 4.06 0 0 1-.312-.906A4.488 4.488 0 0 1 5 3.961c.005-.14.031-.266.078-.375.047-.11.115-.211.203-.305a.868.868 0 0 1 .305-.21A.981.981 0 0 1 5.96 3h8.078c.14.01.266.036.375.078a.88.88 0 0 1 .305.203.948.948 0 0 1 .281.68 4.429 4.429 0 0 1-.414 1.867 4.329 4.329 0 0 1-1.164 1.5l-1.82 1.516a1.43 1.43 0 0 0-.399.515 1.512 1.512 0 0 0 0 1.274c.094.198.227.37.399.515l1.82 1.524c.51.427.9.93 1.172 1.508.27.578.406 1.198.406 1.86a1.33 1.33 0 0 1-.078.374.87.87 0 0 1-.203.305.95.95 0 0 1-.313.21Z"/></svg>