<svg xmlns="http://www.w3.org/2000/svg" width="24" height="24" viewBox="0 0 24 24"><path d="M11.005 11.08c0-1.574-.795-3.867-2.359-6.719-.269-.49-.97-.483-1.27-.02-.42.646-1.044 1.308-1.877 1.981l-.37.29-.354.268-.49.378c-1.729 1.377-2.41 2.602-2.26 4.411.131 1.6 1.099 2.746 2.762 3.27-.587.684-1.359 1.223-2.324 1.622a.75.75 0 1 0 .574 1.387c1.833-.76 3.149-1.976 3.912-3.634.285-.62.514-1.23.684-1.833l.043-.156.102-.412.068-.33.042-.237.066-.477a8.8 8.8 0 0 0 .056-1.12l-.004-.024a.75.75 0 0 1 1.5.023c.023 1.46-.274 2.95-.886 4.464l-.025.088a.454.454 0 0 0 .634.495l.114-.057c.073-.041.138-.087.196-.137.722-.624 1.466-1.945 1.466-3.52ZM17 6h-5.25l-.102.007a.75.75 0 0 0 .102 1.494H17l.145.006A1.5 1.5 0 0 1 18.5 9.001v6l-.007.144A1.5 1.5 0 0 1 17 16.5H7.75c-.406.028-.75.321-.75.75 0 .415.336.75.75.75H17l.176-.005A3 3 0 0 0 20 15v-1l1 .018.135-.009a1 1 0 0 0 .866-.991v-2l-.008-.121a1 1 0 0 0-.992-.879L20 10V9l-.005-.176A3 3 0 0 0 17 6.001Z"/></svg>