<svg xmlns="http://www.w3.org/2000/svg" width="28" height="28" viewBox="0 0 28 28"><path d="M18.171 6.829a3.157 3.157 0 0 1 .761 1.238l.498 1.53a.605.605 0 0 0 1.14 0l.498-1.53a3.15 3.15 0 0 1 1.998-1.996l1.53-.497a.605.605 0 0 0 0-1.14l-.03-.008-1.531-.497a3.154 3.154 0 0 1-1.998-1.996L20.54.403a.604.604 0 0 0-1.14 0l-.498 1.53-.013.038a3.152 3.152 0 0 1-1.955 1.958l-1.53.497a.605.605 0 0 0 0 1.14l1.53.497c.467.156.89.418 1.237.766Zm8.65 3.529.918.298.019.004a.362.362 0 0 1 0 .684l-.919.299a1.892 1.892 0 0 0-1.198 1.197l-.299.918a.363.363 0 0 1-.684 0l-.299-.918a1.891 1.891 0 0 0-1.198-1.202l-.919-.298a.362.362 0 0 1 0-.684l.919-.299a1.892 1.892 0 0 0 1.18-1.197l.299-.918a.363.363 0 0 1 .684 0l.298.918a1.89 1.89 0 0 0 1.199 1.197ZM14 2c1.198 0 2.356.176 3.448.503a2.13 2.13 0 0 1-.839.496l-1.52.5a2.06 2.06 0 0 0-.118.045c-.32-.029-.644-.044-.971-.044C8.201 3.5 3.5 8.201 3.5 14c0 1.884.496 3.65 1.363 5.178a.75.75 0 0 1 .07.575l-1.318 4.634 4.634-1.318a.75.75 0 0 1 .576.07A10.449 10.449 0 0 0 14 24.5c5.499 0 10.01-4.227 10.463-9.61a1.371 1.371 0 0 0 1.523-.31C25.684 20.938 20.433 26 14 26a11.95 11.95 0 0 1-5.637-1.404l-4.77 1.357a1.25 1.25 0 0 1-1.544-1.544l1.356-4.77A11.95 11.95 0 0 1 2 14C2 7.373 7.373 2 14 2Z"/></svg>