<svg xmlns="http://www.w3.org/2000/svg" width="28" height="28"><path d="M19.75 25H8.25a.75.75 0 0 1-.102-1.493l.102-.007H10v-2.498H4.25A2.25 2.25 0 0 1 2 18.752v-4.251h1.5v4.251c0 .415.336.75.75.75l12.999-.002.028.002h6.472a.75.75 0 0 0 .75-.75v-4.251h1.5v4.251a2.25 2.25 0 0 1-2.25 2.25h-5.751V23.5h1.752a.75.75 0 0 1 .743.649l.007.101a.75.75 0 0 1-.648.744L19.75 25Zm-3.252-3.998H11.5V23.5h4.999l-.001-2.498ZM2 5.25V11h1.5V5.25a.75.75 0 0 1 .75-.75h19.499a.75.75 0 0 1 .75.75V11h1.5V5.25A2.25 2.25 0 0 0 23.749 3H4.25A2.25 2.25 0 0 0 2 5.25Zm9.196 1.222a.75.75 0 0 0-1.384-.02L7.402 12H2.75a.75.75 0 0 0 0 1.5h5.144a.75.75 0 0 0 .688-.45l1.89-4.351 3.332 8.33a.75.75 0 0 0 1.376.039l2.843-6.094 1.056 2.112a.75.75 0 0 0 .671.414h5.5a.75.75 0 0 0 0-1.5h-5.037l-1.542-3.085a.75.75 0 0 0-1.35.018l-2.768 5.93-3.357-8.391Z"/></svg>