<svg xmlns="http://www.w3.org/2000/svg" width="24" height="24"><path d="M10.788 3.102c.495-1.003 1.926-1.003 2.421 0l2.358 4.778 5.273.766c1.107.16 1.549 1.522.748 2.303l-3.816 3.719.901 5.25c.19 1.104-.968 1.945-1.959 1.424l-3.956-2.08a6.545 6.545 0 0 0 .24-1.569l4.145 2.18-.862-5.03a1.35 1.35 0 0 1 .388-1.194l3.654-3.562-5.05-.734a1.35 1.35 0 0 1-1.016-.739L11.998 4.04 9.74 8.614a1.35 1.35 0 0 1-1.016.739l-5.05.734 1.158 1.129a6.46 6.46 0 0 0-1.517.616l-.906-.883c-.801-.781-.359-2.142.748-2.303L8.43 7.88l2.358-4.778ZM12 17.5a5.5 5.5 0 1 1-11 0 5.5 5.5 0 0 1 11 0ZM3.5 17a.5.5 0 0 0 0 1h4.793l-1.647 1.646a.5.5 0 1 0 .708.707l2.5-2.5a.5.5 0 0 0 0-.707l-2.5-2.5a.5.5 0 1 0-.708.707L8.293 17H3.5Z"/></svg>