<svg xmlns="http://www.w3.org/2000/svg" width="24" height="24"><path d="M18.497 4.627 18.5 6.75V15h-1V4.25A2.25 2.25 0 0 0 15.25 2h-9A2.25 2.25 0 0 0 4 4.25v4.129c-.603.404-1 1.09-1 1.871v8.5A3.25 3.25 0 0 0 6.25 22h2.367c.046.003.092.004.139.004h6.494c.068 0 .135-.001.202-.004h2.298A3.25 3.25 0 0 0 21 18.75v-1.5c0-.78-.397-1.467-1-1.871V6.75a2.25 2.25 0 0 0-1.503-2.123ZM5.5 8V4.25a.75.75 0 0 1 .75-.75h9a.75.75 0 0 1 .75.75V15h-.096a.75.75 0 0 1-.55-.24l-5.61-6.04A2.25 2.25 0 0 0 8.097 8H5.5Zm-1 2.25a.75.75 0 0 1 .75-.75h2.846a.75.75 0 0 1 .55.24l5.61 6.041a2.25 2.25 0 0 0 1.648.719h2.846a.75.75 0 0 1 .75.75v1.5a1.75 1.75 0 0 1-1.75 1.75H6.25a1.75 1.75 0 0 1-1.75-1.75v-8.5Z"/></svg>