<svg xmlns="http://www.w3.org/2000/svg" width="12" height="12" viewBox="0 0 12 12"><path d="M6.003 1c-.534 0-.88.357-1.065.65a2.015 2.015 0 0 0-.303.884c-.025.424.04.842.303 1.158.275.33.672.438 1.065.438.403 0 .797-.123 1.068-.45.261-.316.332-.731.303-1.152a2.06 2.06 0 0 0-.304-.869C6.888 1.369 6.543 1 6.003 1Zm-.37 1.592c.004-.063.05-.248.15-.409.103-.162.182-.183.22-.183.032 0 .113.02.22.19.103.166.15.353.153.408.02.284-.04.402-.075.444-.025.03-.092.088-.298.088-.222 0-.28-.058-.297-.078-.028-.034-.091-.15-.073-.46ZM10 10V6.5A1.5 1.5 0 0 0 8.5 5h-5A1.5 1.5 0 0 0 2 6.5V10h-.5a.5.5 0 0 0 0 1h9a.5.5 0 0 0 0-1H10ZM3.5 6h5a.5.5 0 0 1 .5.5v.786l-.867.676a.25.25 0 0 1-.299.006l-1.109-.79a1.25 1.25 0 0 0-1.45 0l-1.11.79a.25.25 0 0 1-.299-.006L3 7.286V6.5a.5.5 0 0 1 .5-.5ZM3 8.554l.251.196a1.25 1.25 0 0 0 1.494.033l1.11-.79a.25.25 0 0 1 .29 0l1.11.79a1.25 1.25 0 0 0 1.493-.033L9 8.554V10H3V8.554Z"/></svg>