<svg xmlns="http://www.w3.org/2000/svg" width="32" height="32"><path d="M28.832 18.472a1.483 1.483 0 0 1 .537 1.634 14.269 14.269 0 0 1-3.156 5.443 1.478 1.478 0 0 1-1.671.347l-1.955-.858a1.501 1.501 0 0 0-.68-.128 1.474 1.474 0 0 0-.66.2 1.472 1.472 0 0 0-.727 1.124l-.235 2.13a1.48 1.48 0 0 1-1.13 1.276c-2.076.495-4.24.495-6.316 0a1.484 1.484 0 0 1-1.125-1.27l-.235-2.126a1.483 1.483 0 0 0-.485-.94 1.5 1.5 0 0 0-1.58-.255l-1.955.859a1.477 1.477 0 0 1-1.668-.343 14.267 14.267 0 0 1-3.16-5.45 1.484 1.484 0 0 1 .536-1.632l1.725-1.275a1.488 1.488 0 0 0 0-2.4l-1.725-1.273a1.48 1.48 0 0 1-.536-1.623A14.249 14.249 0 0 1 5.79 6.467c.14-.151.31-.271.5-.351a1.5 1.5 0 0 1 1.17 0l1.947.858a1.493 1.493 0 0 0 2.073-1.206l.236-2.122a1.482 1.482 0 0 1 1.148-1.281 15.462 15.462 0 0 1 3.146-.362c1.052.012 2.1.133 3.127.362a1.476 1.476 0 0 1 1.147 1.284l.236 2.12a1.483 1.483 0 0 0 2.067 1.2l1.946-.857a1.483 1.483 0 0 1 1.674.346 14.231 14.231 0 0 1 3.157 5.44 1.476 1.476 0 0 1-.537 1.63l-1.72 1.273a1.48 1.48 0 0 0-.004 2.395l1.729 1.276ZM16 20a4 4 0 1 0 0-8 4 4 0 0 0 0 8Z"/></svg>