<svg xmlns="http://www.w3.org/2000/svg" width="32" height="32" viewBox="0 0 32 32"><path d="M15 16a7 7 0 1 0 0-14 7 7 0 0 0 0 14Zm-8.5 2A3.5 3.5 0 0 0 3 21.5v.5c0 2.393 1.523 4.417 3.685 5.793C8.859 29.177 11.802 30 15 30c.744 0 1.475-.045 2.185-.13A8.98 8.98 0 0 1 14 23c0-1.85.558-3.57 1.516-5H6.5Zm24 5a7.5 7.5 0 1 1-15 0 7.5 7.5 0 0 1 15 0Zm-8.212-4.862-.94 2.828h-2.994c-.731 0-1.03.938-.434 1.361l2.406 1.707-.929 2.792c-.228.687.555 1.267 1.146.848L23 25.931l2.457 1.743c.591.42 1.374-.16 1.146-.848l-.93-2.792 2.407-1.707c.597-.423.297-1.361-.434-1.361h-2.994l-.94-2.828c-.228-.684-1.196-.684-1.424 0Z"/></svg>