<svg xmlns="http://www.w3.org/2000/svg" width="24" height="24"><path d="M23 6.5a5.5 5.5 0 1 1-11 0 5.5 5.5 0 0 1 11 0ZM17.5 3a.5.5 0 0 0-.5.5v4a.5.5 0 0 0 1 0v-4a.5.5 0 0 0-.5-.5Zm0 7.125a.625.625 0 1 0 0-1.25.625.625 0 0 0 0 1.25Zm0 2.875a6.478 6.478 0 0 0 4.5-1.81v5.56a3.25 3.25 0 0 1-3.066 3.245L18.75 20H5.25a3.25 3.25 0 0 1-3.245-3.066L2 16.75V8.608l9.652 5.056a.75.75 0 0 0 .696 0l2.417-1.266A6.477 6.477 0 0 0 17.5 13ZM5.25 4h6.248A6.479 6.479 0 0 0 11 6.5c0 1.993.897 3.776 2.308 4.968L12 12.153l-9.984-5.23a3.25 3.25 0 0 1 3.048-2.918L5.25 4Z"/></svg>