<svg xmlns="http://www.w3.org/2000/svg" width="28" height="28"><path d="M13.47 2.22a.75.75 0 0 1 1.06 0c.523.523 2.494 2.614 4.34 5.316 1.823 2.669 3.63 6.082 3.63 9.214 0 3.041-.917 5.374-2.49 6.947C18.442 25.267 16.299 26 14 26c-2.298 0-4.441-.733-6.01-2.303C6.417 22.124 5.5 19.79 5.5 16.75c0-3.132 1.807-6.545 3.63-9.214 1.846-2.702 3.817-4.793 4.34-5.316ZM14 3.836a41.012 41.012 0 0 0-3.63 4.546C8.567 11.018 7 14.105 7 16.75c0 2.736.818 4.654 2.05 5.886C10.286 23.872 12.018 24.5 14 24.5c1.982 0 3.714-.628 4.95-1.864 1.232-1.232 2.05-3.15 2.05-5.886 0-2.645-1.568-5.732-3.37-8.368A41.012 41.012 0 0 0 14 3.836Z"/></svg>