<svg xmlns="http://www.w3.org/2000/svg" width="24" height="24" viewBox="0 0 24 24"><path d="m12.496 3.002 7.556.001.12.014.088.02.104.034.09.04.063.036.063.042.064.05.063.058.094.11.072.11.053.114.036.105.015.065.01.053.01.148v7.504a1 1 0 0 1-1.993.117l-.007-.117v-5.09L6.412 19H11.5a1 1 0 0 1 .993.884L12.5 20a1 1 0 0 1-.884.994L11.5 21H3.939l-.096-.01-.077-.015-.077-.022-.07-.026-.09-.042-.089-.053-.091-.07.032.027a1.006 1.006 0 0 1-.166-.166l-.051-.07-.04-.064-.032-.064-.034-.082-.025-.08-.024-.111-.007-.061-.004-.09v-7.503a1 1 0 0 1 1.993-.117l.007.117v5.088L17.582 5.002h-5.086a1 1 0 0 1-.994-.883l-.006-.117a1 1 0 0 1 1-1Z"/></svg>