<svg xmlns="http://www.w3.org/2000/svg" width="16" height="16"><path d="M3.75 1A1.75 1.75 0 0 0 2 2.75v10.5c0 .966.784 1.75 1.75 1.75h7.5A1.75 1.75 0 0 0 13 13.25V2.75A1.75 1.75 0 0 0 11.25 1h-7.5ZM4 3.75A.75.75 0 0 1 4.75 3h5.5a.75.75 0 0 1 .75.75v.5a.75.75 0 0 1-.75.75h-5.5A.75.75 0 0 1 4 4.25v-.5ZM14 4h.625c.207 0 .375.168.375.375v1.25a.375.375 0 0 1-.375.375H14V4Zm.625 3H14v2h.625A.375.375 0 0 0 15 8.625v-1.25A.375.375 0 0 0 14.625 7ZM14 10h.625c.207 0 .375.168.375.375v1.25a.375.375 0 0 1-.375.375H14v-2Z"/></svg>