<svg xmlns="http://www.w3.org/2000/svg" width="16" height="16"><path d="M11.691 1.038A.5.5 0 0 1 12 1.5V4h2.5a.5.5 0 0 1 .354.854l-2 2A.5.5 0 0 1 12.5 7H9.707l-.74.741A1.001 1.001 0 0 1 8 9a1 1 0 0 1-1-1l.001-.046a1 1 0 0 1 1.258-.92L9 6.293V3.5a.5.5 0 0 1 .146-.354l2-2a.5.5 0 0 1 .545-.108ZM12.293 6l1-1H11.5a.5.5 0 0 1-.5-.5V2.707l-1 1V6h2.293Zm1.652 1.176a6 6 0 1 1-5.122-5.12l-.383.383a1.5 1.5 0 0 0-.354.562L8 3a5 5 0 1 0 5 4.914 1.5 1.5 0 0 0 .56-.353l.384-.385ZM8 4.5A3.5 3.5 0 1 0 11.5 8h-1A2.5 2.5 0 1 1 8 5.5v-1Z"/></svg>