<svg xmlns="http://www.w3.org/2000/svg" width="28" height="28"><path d="M9.069 23.273A10.452 10.452 0 0 0 14 24.5c5.799 0 10.5-4.701 10.5-10.5S19.799 3.5 14 3.5 3.5 8.201 3.5 14c0 1.785.445 3.464 1.229 4.934a1.5 1.5 0 0 1 .12 1.116l-1.234 4.337 4.338-1.233a1.5 1.5 0 0 1 1.116.119ZM14 26a11.95 11.95 0 0 1-5.637-1.404l-4.77 1.357a1.25 1.25 0 0 1-1.544-1.544l1.356-4.77A11.95 11.95 0 0 1 2 14C2 7.373 7.373 2 14 2s12 5.373 12 12-5.373 12-12 12ZM9.5 11.75a.75.75 0 0 1 .75-.75h7.5a.75.75 0 0 1 0 1.5h-7.5a.75.75 0 0 1-.75-.75Zm0 4.5a.75.75 0 0 1 .75-.75h4.5a.75.75 0 0 1 0 1.5h-4.5a.75.75 0 0 1-.75-.75Z"/></svg>