<svg xmlns="http://www.w3.org/2000/svg" width="16" height="16"><path d="M2 4.5A2.5 2.5 0 0 1 4.5 2H5v3H2v-.5ZM6 5V2h4v3H6ZM5 6H2v4h3V6Zm1 0v4h2V7.5c0-.563.186-1.082.5-1.5H6Zm2 8v-3H6v3h2Zm-6-3h3v3h-.5A2.5 2.5 0 0 1 2 11.5V11Zm12-6v-.5A2.5 2.5 0 0 0 11.5 2H11v3h3Zm-3.5 1A1.5 1.5 0 0 0 9 7.5v7a1.5 1.5 0 0 0 1.5 1.5h4a1.5 1.5 0 0 0 1.5-1.5v-7A1.5 1.5 0 0 0 14.5 6h-4Zm-.5 4.5a.5.5 0 0 1 .5-.5h1a.5.5 0 0 1 0 1h-1a.5.5 0 0 1-.5-.5Zm4.5-.5a.5.5 0 0 1 0 1h-1a.5.5 0 0 1 0-1h1ZM10 12.5a.5.5 0 0 1 .5-.5h1a.5.5 0 0 1 0 1h-1a.5.5 0 0 1-.5-.5Zm4.5-.5a.5.5 0 0 1 0 1h-1a.5.5 0 0 1 0-1h1ZM10 14.5a.5.5 0 0 1 .5-.5h1a.5.5 0 0 1 0 1h-1a.5.5 0 0 1-.5-.5Zm4.5-.5a.5.5 0 0 1 0 1h-1a.5.5 0 0 1 0-1h1ZM10 7.5a.5.5 0 0 1 .5-.5h4a.5.5 0 0 1 .5.5v1a.5.5 0 0 1-.5.5h-4a.5.5 0 0 1-.5-.5v-1Z"/></svg>