<svg xmlns="http://www.w3.org/2000/svg" width="16" height="16" viewBox="0 0 16 16"><path d="M6.766 1.5a1.5 1.5 0 0 1 2.32.248l.18.278-4.24 4.24-.278-.18a1.5 1.5 0 0 1-.248-2.32L6.766 1.5Zm-.88 5.32 3.935-3.934 1.232 1.912a.5.5 0 0 0 .15.149l1.91 1.232-3.934 3.935-1.232-1.912a.5.5 0 0 0-.15-.149l-1.91-1.232Zm3.847 4.154.18.278a1.5 1.5 0 0 0 2.321.248L14.5 9.234a1.5 1.5 0 0 0-.248-2.321l-.278-.18-4.24 4.24ZM5.878 8.005l-4.439 4.438a1.5 1.5 0 1 0 2.122 2.122l4.437-4.438-.833-1.292-1.287-.83ZM10 13a.5.5 0 0 0 0 1H8.5a.5.5 0 0 0 0 1h6a.5.5 0 0 0 0-1H13a.5.5 0 0 0 0-1h-3Z"/></svg>