<svg xmlns="http://www.w3.org/2000/svg" width="48" height="48" viewBox="0 0 48 48"><path d="M38.146 4.042c3.359-.39 6.206 2.45 5.823 5.81l-2.665 23.387c-.4 3.516-4.672 5.03-7.198 2.553l-2.843-2.787-9.465 9.46a5.25 5.25 0 0 1-7.427-.004l-8.833-8.849a5.25 5.25 0 0 1 .004-7.42l9.451-9.453-2.748-2.751c-2.511-2.514-1.013-6.815 2.515-7.226l23.386-2.72Zm3.339 5.526a2.75 2.75 0 0 0-3.05-3.043l-23.386 2.72c-1.453.17-2.07 1.94-1.036 2.976l3.632 3.635a1.25 1.25 0 0 1 0 1.768L7.309 27.959a2.75 2.75 0 0 0-.001 3.887l8.833 8.849a2.75 2.75 0 0 0 3.89.002l10.34-10.335a1.25 1.25 0 0 1 1.759-.009l3.726 3.654c1.04 1.02 2.799.396 2.964-1.051l2.665-23.388Z"/></svg>