<svg xmlns="http://www.w3.org/2000/svg" width="20" height="20"><path d="M9 2a4 4 0 1 0 0 8 4 4 0 0 0 0-8ZM6 6a3 3 0 1 1 6 0 3 3 0 0 1-6 0Zm-1.991 5A2.001 2.001 0 0 0 2 13c0 1.691.833 2.966 2.135 3.797C5.417 17.614 7.145 18 9 18c.112 0 .224-.001.335-.004a3.476 3.476 0 0 1-.3-.996H9c-1.735 0-3.257-.364-4.327-1.047C3.623 15.283 3 14.31 3 13c0-.553.448-1 1.009-1H14a1 1 0 0 1 1 1h1a2 2 0 0 0-2-2H4.009Zm8.491 3a2.5 2.5 0 0 0 0 5h.5a.5.5 0 0 0 0-1h-.5a1.5 1.5 0 0 1 0-3h.5a.5.5 0 0 0 0-1h-.5Zm3.5 0a.5.5 0 0 0 0 1h.5a1.5 1.5 0 0 1 0 3H16a.5.5 0 0 0 0 1h.5a2.5 2.5 0 0 0 0-5H16Zm-4 2.5a.5.5 0 0 1 .5-.5h4a.5.5 0 0 1 0 1h-4a.5.5 0 0 1-.5-.5Z"/></svg>