<svg xmlns="http://www.w3.org/2000/svg" width="16" height="16"><path d="m9.454 3.918.303 1.514a1.5 1.5 0 0 0 1.202 1.181l.673.123a2 2 0 0 0 2.307-1.518l.07-.306c.259-1.12-.15-2.38-1.298-2.906A11.22 11.22 0 0 0 8.003 1a11.47 11.47 0 0 0-4.688 1.006c-1.155.524-1.572 1.79-1.312 2.918l.068.294a2 2 0 0 0 2.307 1.518l.673-.123a1.5 1.5 0 0 0 1.203-1.181l.302-1.514a8.82 8.82 0 0 1 .27-.05c.346-.06.783-.118 1.18-.118.395 0 .832.057 1.179.118.1.017.19.034.269.05ZM7.502 9a.5.5 0 0 1 .5.5V11h.993a.5.5 0 0 1 0 1H7.502a.5.5 0 0 1-.5-.5v-2a.5.5 0 0 1 .5-.5ZM8 7a4 4 0 1 0 0 8 4 4 0 0 0 0-8Zm-3 4a3 3 0 1 1 6 0 3 3 0 0 1-6 0Z"/></svg>