<svg xmlns="http://www.w3.org/2000/svg" width="20" height="20" viewBox="0 0 20 20"><path d="M10.28 2.22A.75.75 0 0 0 9 2.75v5.674L6.223 6.168a.75.75 0 1 0-.946 1.164L8.561 10l-3.284 2.668a.75.75 0 0 0 .946 1.164L9 11.576v5.674a.75.75 0 0 0 1.28.53l4-4a.75.75 0 0 0-.057-1.112L10.939 10l3.284-2.668a.75.75 0 0 0 .057-1.112l-4-4Zm.22 13.22v-3.864l2.132 1.732-2.132 2.131Zm2.132-8.748L10.5 8.424V4.561l2.132 2.131Zm5.622-.014a.75.75 0 0 0-1.355.644c.385.81.601 1.718.601 2.678s-.216 1.867-.601 2.678a.75.75 0 0 0 1.355.644A7.723 7.723 0 0 0 19 10a7.723 7.723 0 0 0-.746-3.322ZM15.253 7.81a.75.75 0 0 1 .955.461c.19.543.292 1.125.292 1.73s-.102 1.187-.292 1.73a.75.75 0 0 1-1.416-.494c.135-.386.208-.802.208-1.236 0-.434-.073-.85-.208-1.236a.75.75 0 0 1 .461-.955Z"/></svg>