<svg xmlns="http://www.w3.org/2000/svg" width="24" height="24"><path d="M11.31 15.498a6.477 6.477 0 0 1 .71-1.5H6.25A2.25 2.25 0 0 0 4 16.248v.577c0 .893.319 1.757.898 2.436 1.413 1.654 3.491 2.552 6.192 2.713l.451-1.48c-2.502-.08-4.319-.822-5.502-2.207a2.25 2.25 0 0 1-.539-1.462v-.578a.75.75 0 0 1 .75-.749h5.06ZM11.999 2a5.001 5.001 0 1 1 0 10.002 5.001 5.001 0 0 1 0-10.002Zm0 1.5a3.5 3.5 0 1 0 0 7.002 3.5 3.5 0 0 0 0-7.002ZM23 17.5a5.501 5.501 0 0 1-8.168 4.813l-2.187.665a.5.5 0 0 1-.624-.624l.666-2.187A5.501 5.501 0 1 1 23 17.498ZM15.498 16a.5.5 0 1 0 0 1H19.5a.5.5 0 1 0 0-1h-4Zm-.5 2.5a.5.5 0 0 0 .5.5h2a.5.5 0 1 0 0-1h-2a.5.5 0 0 0-.5.5Z"/></svg>