<svg xmlns="http://www.w3.org/2000/svg" width="16" height="16"><path d="M12.354 3.646a.5.5 0 0 0-.708.708l.65.65C9.972 5.076 8.516 6.4 7.2 7.596l-.036.033C5.777 8.89 4.534 10 2.5 10a.5.5 0 0 0 0 1c2.444 0 3.946-1.366 5.3-2.597l.036-.033c1.338-1.217 2.542-2.292 4.453-2.366l-.643.642a.5.5 0 0 0 .708.708l1.5-1.5a.5.5 0 0 0 0-.708l-1.5-1.5ZM2.5 5c1.829 0 3.13.765 4.237 1.666l-.246.224c-.175.16-.343.311-.507.455C5 6.565 3.951 6 2.5 6a.5.5 0 0 1 0-1Zm9.796 5.997c-1.723-.055-2.968-.796-4.033-1.663l.246-.224c.175-.16.343-.311.507-.455.936.742 1.93 1.289 3.273 1.341l-.643-.642a.5.5 0 0 1 .708-.708l1.5 1.5a.5.5 0 0 1 0 .708l-1.5 1.5a.5.5 0 0 1-.708-.708l.65-.65Z"/></svg>