<svg xmlns="http://www.w3.org/2000/svg" width="24" height="24"><path d="M6.25 3A3.25 3.25 0 0 0 3 6.25v11.5A3.25 3.25 0 0 0 6.25 21h11.5c.644 0 1.245-.188 1.75-.51v-1.658a1.742 1.742 0 0 1-.509.152 1.745 1.745 0 0 1-1.241.516H6.25a1.75 1.75 0 0 1-1.75-1.75V6.25c0-.966.784-1.75 1.75-1.75h11.5c.966 0 1.75.784 1.75 1.75v8.159l.657-.526a1.748 1.748 0 0 1 .843-.365V6.25A3.25 3.25 0 0 0 17.75 3H6.25Zm11.03 6.28a.75.75 0 1 0-1.06-1.06l-6.223 6.216L7.78 12.22a.75.75 0 0 0-1.06 1.06l2.745 2.746a.75.75 0 0 0 1.06 0l6.754-6.745ZM21 14.544a.75.75 0 0 0-.218.121l-2.5 2a.75.75 0 1 0 .936 1.172L20.5 16.81v4.439a.75.75 0 0 0 1.5 0v-6a.75.75 0 0 0-1-.707Z"/></svg>