<svg xmlns="http://www.w3.org/2000/svg" width="20" height="20" viewBox="0 0 20 20"><path d="M2.753 2.933a.75.75 0 0 1 .814-.68l3.043.272c2.157.205 4.224.452 5.922.732 1.66.273 3.073.594 3.844.983.197.1.412.233.578.415.176.192.352.506.28.9-.067.356-.304.59-.487.729a3.001 3.001 0 0 1-.695.369c-1.02.404-2.952.79-5.984 1.169-1.442.18-2.489.357-3.214.522.205.045.43.089.674.132.992.174 2.241.323 3.568.437a31.21 31.21 0 0 1 3.016.398c.171.033.338.067.5.102l-1.283 1.283a31.608 31.608 0 0 0-2.36-.289c-1.353-.116-2.65-.27-3.7-.454-.525-.092-1-.194-1.396-.307-.376-.106-.75-.241-1.021-.426a1.186 1.186 0 0 1-.43-.49.934.934 0 0 1 .059-.873c.13-.213.32-.352.472-.442a3.23 3.23 0 0 1 .559-.251c.807-.287 2.222-.562 4.37-.83 2.695-.338 4.377-.666 5.295-.962-.638-.21-1.623-.427-2.89-.635-1.65-.273-3.679-.515-5.816-.718l-3.038-.272a.75.75 0 0 1-.68-.814Zm10.124 8.231a1.75 1.75 0 0 0-.312 1.558c-.328.044-.678.087-1.051.13-2.124.243-3.409.55-4.117.859-.296.128-.442.236-.508.3.026.037.073.094.156.17.15.138.369.29.65.45.56.316 1.282.61 1.979.838l2.637.814a.75.75 0 1 1-.443 1.433l-2.655-.819c-.754-.247-1.58-.578-2.257-.96a5.082 5.082 0 0 1-.924-.65c-.255-.233-.513-.544-.62-.935-.12-.441-.016-.88.274-1.244.261-.328.656-.574 1.113-.773.92-.4 2.387-.727 4.545-.974a49.053 49.053 0 0 0 1.534-.197ZM16.78 9.72a.75.75 0 0 0-1.06 0l-2 2a.75.75 0 1 0 1.06 1.06l.72-.72v4.38l-.72-.72a.75.75 0 1 0-1.06 1.06l2 2a.75.75 0 0 0 1.06 0l2-2a.75.75 0 1 0-1.06-1.06l-.72.72v-4.38l.72.72a.75.75 0 1 0 1.06-1.06l-2-2Z"/></svg>