<svg xmlns="http://www.w3.org/2000/svg" width="24" height="24" viewBox="0 0 24 24"><path d="M5 4h3v2.708A2.5 2.5 0 0 0 4.708 10H2V7a3 3 0 0 1 3-3ZM2 14.5v-3h4.94l-1.72 1.72a.75.75 0 1 0 1.06 1.06L8 12.56v4.94H5a3 3 0 0 1-3-3Zm7.5 3h7a3 3 0 0 0 3-3v-3h-8.94l1.72 1.72a.75.75 0 1 1-1.06 1.06L9.5 12.56v4.94Zm3.292-7.5H19.5V7a3 3 0 0 0-3-3h-7v2.708A2.5 2.5 0 0 1 12.792 10ZM10.5 10h-1V9a1 1 0 1 1 1 1ZM7 10h1V8.992A1 1 0 1 0 7 10Zm.5 10a3 3 0 0 1-2.599-1.5H16.5a4 4 0 0 0 4-4V6.901A2.999 2.999 0 0 1 22 9.5v5a5.5 5.5 0 0 1-5.5 5.5h-9Z"/></svg>