<svg xmlns="http://www.w3.org/2000/svg" width="24" height="24"><path d="M7 5v2H5.5A1.5 1.5 0 0 0 4 8.5V18a4 4 0 0 0 4 4h4.81a6.518 6.518 0 0 1-1.078-1.5H8A2.5 2.5 0 0 1 5.5 18V8.5H13v4.31a6.52 6.52 0 0 1 1.5-1.078V8.5h4v2.576a6.452 6.452 0 0 1 1.5.422V8.5A1.5 1.5 0 0 0 18.5 7H17V5a3 3 0 0 0-5-2.236A3 3 0 0 0 7 5Zm3-1.5A1.5 1.5 0 0 1 11.5 5v2h-3V5A1.5 1.5 0 0 1 10 3.5ZM15.5 7H13V5c0-.334-.055-.656-.156-.956A1.5 1.5 0 0 1 15.5 5v2ZM23 17.5a5.5 5.5 0 1 1-11 0 5.5 5.5 0 0 1 11 0Zm-6.087-2.403a.552.552 0 0 0-.547-.045.601.601 0 0 0-.19.133.622.622 0 0 0-.177.437v3.757c0 .082.016.16.047.236a.724.724 0 0 0 .13.2.696.696 0 0 0 .194.137.553.553 0 0 0 .439.006.664.664 0 0 0 .114-.061l2.806-1.915a.565.565 0 0 0 .2-.227.654.654 0 0 0 .07-.297.609.609 0 0 0-.074-.298.595.595 0 0 0-.205-.223l-2.807-1.84Z"/></svg>