<svg xmlns="http://www.w3.org/2000/svg" width="16" height="16"><path d="M14.146 14.853a.498.498 0 1 0 .708-.708l-13-12.999a.5.5 0 0 0-.708.707l2.242 2.242A2 2 0 0 0 2 5.999v5a2 2 0 0 0 2 2h8c.093 0 .184-.006.273-.02l1.873 1.874ZM11.292 12H4a1 1 0 0 1-1-1V6a1 1 0 0 1 1-1h.292l1.263 1.263a3 3 0 0 0 4.183 4.183L11.292 12ZM6.277 6.984l2.739 2.739a2 2 0 0 1-2.738-2.738ZM12.001 4h-.691l-.585-1.17A1.5 1.5 0 0 0 9.382 2H6.618a1.5 1.5 0 0 0-1.342.83l-.108.216.745.745.258-.515A.5.5 0 0 1 6.618 3h2.764a.5.5 0 0 1 .447.276l.724 1.447a.5.5 0 0 0 .447.276h1a1 1 0 0 1 1 1v4.878l.857.857c.09-.228.144-.475.144-.734V6a2 2 0 0 0-2-2Zm-1.113 4.766c.065-.246.111-.5.111-.767a3 3 0 0 0-3-3c-.267 0-.52.046-.767.111l.902.902a1.989 1.989 0 0 1 1.851 1.851l.903.903Z"/></svg>