<svg xmlns="http://www.w3.org/2000/svg" width="24" height="24"><path d="M10.25 3.5h3.5a.75.75 0 0 1 .75.75V6h-5V4.25a.75.75 0 0 1 .75-.75ZM8 4.25V6H6.25A3.25 3.25 0 0 0 3 9.25v7.5A3.25 3.25 0 0 0 6.25 20h11.5A3.25 3.25 0 0 0 21 16.75v-7.5A3.25 3.25 0 0 0 17.75 6H16V4.25A2.25 2.25 0 0 0 13.75 2h-3.5A2.25 2.25 0 0 0 8 4.25Zm11.5 5v1.5a1.75 1.75 0 0 1-1.75 1.75H14V12a1 1 0 0 0-1-1h-2a1 1 0 0 0-1 1v.5H6.25a1.75 1.75 0 0 1-1.75-1.75v-1.5c0-.966.784-1.75 1.75-1.75h11.5c.966 0 1.75.784 1.75 1.75Zm0 4.24v3.26a1.75 1.75 0 0 1-1.75 1.75H6.25a1.75 1.75 0 0 1-1.75-1.75v-3.26c.505.322 1.106.51 1.75.51H10a1 1 0 0 0 1 1h2a1 1 0 0 0 1-1h3.75c.644 0 1.245-.188 1.75-.51Z"/></svg>