<svg xmlns="http://www.w3.org/2000/svg" width="24" height="24"><path d="M5.5 2.75a.75.75 0 0 0-1.5 0c0 1.27.928 1.917 1.506 2.32l.064.044c.68.476.93.705.93 1.136a.75.75 0 0 0 1.5 0c0-1.27-.928-1.917-1.506-2.32l-.064-.044C5.75 3.41 5.5 3.18 5.5 2.75ZM3 9.821A1.82 1.82 0 0 1 4.821 8H17.18A1.82 1.82 0 0 1 19 9.821v.679h.75a3.25 3.25 0 0 1 0 6.5h-1.331A8.003 8.003 0 0 1 3 14V9.821Zm14.5 0a.321.321 0 0 0-.321-.321H4.82a.321.321 0 0 0-.321.321V14a6.5 6.5 0 1 0 13 0V9.821ZM19.75 12H19v2a8.04 8.04 0 0 1-.14 1.5h.89a1.75 1.75 0 1 0 0-3.5Zm-11-10a.75.75 0 0 1 .75.75c0 .431.25.66.93 1.136l.064.044C11.072 4.333 12 4.98 12 6.25a.75.75 0 0 1-1.5 0c0-.431-.25-.66-.93-1.136l-.064-.044C8.928 4.667 8 4.02 8 2.75A.75.75 0 0 1 8.75 2Zm4.75.75a.75.75 0 0 0-1.5 0c0 1.27.928 1.917 1.506 2.32l.064.044c.68.476.93.705.93 1.136a.75.75 0 0 0 1.5 0c0-1.27-.928-1.917-1.506-2.32l-.064-.044c-.68-.476-.93-.705-.93-1.136Z"/></svg>