<svg xmlns="http://www.w3.org/2000/svg" width="16" height="16"><path d="M12.034 5.778a.5.5 0 0 0 0-.708l-1.103-1.103a.5.5 0 1 0-.707.707l1.103 1.104a.5.5 0 0 0 .707 0Zm-5.883 5.176a.5.5 0 1 1-.707.707L4.34 10.558a.5.5 0 1 1 .707-.707l1.103 1.103Zm8.112-9.2a1.337 1.337 0 0 0-1.891 0l-.49.491-.166-.164a1.669 1.669 0 0 0-2.541.215 2.036 2.036 0 0 0-1.829 3.439l.523.523-1.612 1.611-.523-.523a2.036 2.036 0 0 0-3.439 1.83 1.669 1.669 0 0 0-.215 2.542l.165.164-.506.505a1.337 1.337 0 0 0 1.891 1.891l.506-.505.165.165a1.669 1.669 0 0 0 2.541-.216 2.036 2.036 0 0 0 1.829-3.439l-.523-.523L9.76 8.15l.523.523a2.036 2.036 0 0 0 3.439-1.83 1.669 1.669 0 0 0 .215-2.542l-.165-.164.49-.49a1.337 1.337 0 0 0 0-1.891ZM13.065 3.43l-.477-.477.49-.49a.337.337 0 0 1 .478.477l-.491.49ZM9.053 7.442 7.44 9.053l-.477-.477 1.612-1.611.477.477Zm-5.624 5.623-.506.506a.337.337 0 0 1-.477-.477l.506-.505.477.476Zm6.635-10.277a.669.669 0 0 1 .945 0l2.22 2.22a.669.669 0 0 1-.264 1.109.5.5 0 0 0-.3.683 1.037 1.037 0 0 1-1.675 1.165L8.053 5.028a1.036 1.036 0 0 1 1.164-1.676.5.5 0 0 0 .684-.3.664.664 0 0 1 .163-.264ZM3.56 8.053a1.036 1.036 0 0 1 1.466 0l2.937 2.938A1.036 1.036 0 0 1 6.8 12.666a.5.5 0 0 0-.684.3.669.669 0 0 1-1.108.265l-2.22-2.221a.669.669 0 0 1 .263-1.11.5.5 0 0 0 .3-.683 1.037 1.037 0 0 1 .21-1.165Z"/></svg>