<svg xmlns="http://www.w3.org/2000/svg" width="48" height="48"><path d="M37 8a1.5 1.5 0 0 1 1.398.957c.55 1.413 1.39 2.452 2.22 3.127.876.712 1.602.916 1.882.916a1.5 1.5 0 0 1 0 3c-1.22 0-2.597-.632-3.774-1.588a9.994 9.994 0 0 1-1.728-1.82c-1.658 2.211-4.026 3.401-6.498 3.401-2.473 0-4.842-1.19-6.5-3.403-1.658 2.213-4.027 3.404-6.5 3.404-2.471 0-4.84-1.19-6.498-3.4a9.971 9.971 0 0 1-1.729 1.82C8.096 15.372 6.72 16 5.5 16a1.5 1.5 0 0 1 0-3c.281 0 1.007-.204 1.882-.914.83-.674 1.67-1.712 2.22-3.128a1.5 1.5 0 0 1 2.796 0c1.097 2.824 3.191 4.036 5.102 4.036 1.91 0 4.005-1.212 5.102-4.036a1.5 1.5 0 0 1 2.796 0c1.097 2.824 3.191 4.036 5.102 4.035 1.91 0 4.005-1.212 5.102-4.036A1.5 1.5 0 0 1 37 8Zm0 12a1.5 1.5 0 0 1 1.398.957c.55 1.413 1.39 2.452 2.22 3.127.876.712 1.602.916 1.882.916a1.5 1.5 0 0 1 0 3c-1.22 0-2.597-.631-3.774-1.588a9.994 9.994 0 0 1-1.728-1.82c-1.658 2.211-4.026 3.401-6.498 3.402-2.473 0-4.842-1.191-6.5-3.404-1.658 2.213-4.027 3.404-6.5 3.404-2.471 0-4.84-1.19-6.498-3.4a9.971 9.971 0 0 1-1.729 1.82C8.096 27.372 6.72 28 5.5 28a1.5 1.5 0 0 1 0-3c.281 0 1.007-.204 1.882-.914.83-.674 1.67-1.712 2.22-3.127a1.5 1.5 0 0 1 2.796-.001c1.097 2.824 3.191 4.036 5.102 4.036 1.91 0 4.005-1.212 5.102-4.036a1.5 1.5 0 0 1 2.796 0c1.097 2.824 3.191 4.036 5.102 4.036 1.91 0 4.005-1.213 5.102-4.037A1.5 1.5 0 0 1 37 20Zm1.398 12.957c.55 1.413 1.39 2.452 2.22 3.127.876.712 1.602.916 1.882.916a1.5 1.5 0 0 1 0 3c-1.22 0-2.597-.632-3.774-1.588a9.994 9.994 0 0 1-1.728-1.82c-1.658 2.211-4.026 3.401-6.498 3.401-2.473 0-4.842-1.19-6.5-3.403-1.658 2.213-4.027 3.404-6.5 3.404-2.471 0-4.84-1.19-6.498-3.4a9.971 9.971 0 0 1-1.729 1.82C8.096 39.372 6.72 40 5.5 40a1.5 1.5 0 0 1 0-3c.281 0 1.007-.204 1.882-.914.83-.674 1.67-1.712 2.22-3.127a1.5 1.5 0 0 1 2.796-.001c1.097 2.824 3.191 4.036 5.102 4.036 1.91 0 4.005-1.212 5.102-4.036a1.5 1.5 0 0 1 2.796 0c1.097 2.824 3.191 4.036 5.102 4.035 1.91 0 4.005-1.212 5.102-4.036a1.5 1.5 0 0 1 2.796 0Z"/></svg>