<svg xmlns="http://www.w3.org/2000/svg" width="32" height="32"><path d="M21.775 7.837a3.485 3.485 0 0 0-1.647-1.168l-1.684-.546a.665.665 0 0 1 0-1.254l1.684-.547a3.47 3.47 0 0 0 2.15-2.154l.014-.042.547-1.682a.665.665 0 0 1 1.255 0l.547 1.682a3.466 3.466 0 0 0 2.198 2.196l1.683.547.034.008a.665.665 0 0 1 0 1.254l-1.684.547a3.47 3.47 0 0 0-2.197 2.196l-.548 1.682a.664.664 0 0 1-1.255 0l-.547-1.682a3.464 3.464 0 0 0-.55-1.037ZM18.63 3.224 18 3.44A2.17 2.17 0 0 0 16.56 5H14a1 1 0 1 1 0-2h4a.99.99 0 0 1 .63.224ZM14 27a1 1 0 1 0 0 2h4a1 1 0 1 0 0-2h-4ZM4 19a1 1 0 0 1-1-1v-4a1 1 0 1 1 2 0v4a1 1 0 0 1-1 1ZM9 4a1 1 0 0 0-1-1h-.25A4.75 4.75 0 0 0 3 7.75V8a1 1 0 0 0 2 0v-.25A2.75 2.75 0 0 1 7.75 5H8a1 1 0 0 0 1-1ZM8 29a1 1 0 1 0 0-2h-.25A2.75 2.75 0 0 1 5 24.25V24a1 1 0 1 0-2 0v.25A4.75 4.75 0 0 0 7.75 29H8Zm16 0a1 1 0 1 1 0-2h.25A2.75 2.75 0 0 0 27 24.25V24a1 1 0 1 1 2 0v.25A4.75 4.75 0 0 1 24.25 29H24Zm6.821-16.642.918.298.019.004a.362.362 0 0 1 0 .684l-.919.299a1.892 1.892 0 0 0-1.198 1.197l-.299.918a.363.363 0 0 1-.684 0l-.299-.918a1.891 1.891 0 0 0-1.198-1.202l-.919-.298a.362.362 0 0 1 0-.684l.919-.299a1.892 1.892 0 0 0 1.18-1.197l.299-.918a.363.363 0 0 1 .684 0l.298.918a1.89 1.89 0 0 0 1.199 1.197Z"/></svg>