<svg xmlns="http://www.w3.org/2000/svg" width="24" height="24"><path d="M18.25 14.5a3.75 3.75 0 0 1 .202 7.495l-.199.005-1 .005a.75.75 0 0 1-.108-1.493l.102-.007 1.003-.005a2.25 2.25 0 0 0 .154-4.495L18.25 16h-1a.75.75 0 0 1-.102-1.493l.102-.007h1Zm-4.5 0a.75.75 0 0 1 .102 1.493L13.75 16h-1a2.25 2.25 0 0 0-.154 4.495l.154.005h1a.75.75 0 0 1 .102 1.493L13.75 22h-1a3.75 3.75 0 0 1-.2-7.495l.2-.005h1ZM8.207 4c.46 0 .908.141 1.284.402l.156.12L12.022 6.5h7.728a2.25 2.25 0 0 1 2.229 1.938l.016.158.005.154v6.585a4.77 4.77 0 0 0-1.5-1.27V8.75a.75.75 0 0 0-.648-.743L19.75 8h-7.729L9.647 9.979a2.25 2.25 0 0 1-1.244.512l-.196.009-4.707-.001v7.251c0 .38.282.694.648.743l.102.007h3.757c.027.528.14 1.033.326 1.501L4.25 20a2.25 2.25 0 0 1-2.245-2.096L2 17.75V6.25a2.25 2.25 0 0 1 2.096-2.245L4.25 4h3.957ZM18.25 17.5a.75.75 0 0 1 .102 1.493L18.25 19h-5.5a.75.75 0 0 1-.102-1.493l.102-.007h5.5ZM8.207 5.5H4.25a.75.75 0 0 0-.743.648L3.5 6.25v2.749L8.207 9a.75.75 0 0 0 .395-.113l.085-.06 1.891-1.578-1.89-1.575a.75.75 0 0 0-.377-.167L8.207 5.5Z"/></svg>