<svg xmlns="http://www.w3.org/2000/svg" width="20" height="20"><path d="M9.998 2a6.17 6.17 0 0 1 2.5.524A1.5 1.5 0 0 0 13.998 4h.627l-1.286 1.826A1.475 1.475 0 0 0 11.999 5H9.454l-.18.016-.044.008a1.5 1.5 0 0 0-.33 2.852l-.578.694-.094.131-.02.034C7.63 9.705 8.305 11 9.498 11h2.546l.179-.016.044-.008a1.5 1.5 0 0 0 1.088-2.117c.191.09.407.141.643.141H16v2.408l.953 2.587.026.085.015.086.005.089c0 .315-.195.59-.522.707l-.113.033-.115.01H3.752a.75.75 0 0 1-.26-.047c-.287-.105-.475-.372-.482-.716l.004-.117.034-.13.951-2.584L4 7.793l.005-.225C4.127 4.451 6.77 2 9.998 2Zm2.452 14.002a2.501 2.501 0 0 1-4.9 0h4.9ZM13.998 2h3.5a.5.5 0 0 1 .452.714l-.042.073L14.958 7h2.54a.5.5 0 0 1 .09.992l-.09.008h-3.5a.5.5 0 0 1-.452-.714l.042-.073L16.538 3h-2.54a.5.5 0 0 1-.09-.992l.09-.008ZM9.499 6h2.5a.5.5 0 0 1 .432.753l-.048.067L10.567 9h1.432a.5.5 0 0 1 .09.992l-.09.008h-2.5a.5.5 0 0 1-.432-.753l.048-.067L10.93 7H9.5a.5.5 0 0 1-.09-.992L9.5 6Z"/></svg>