<svg xmlns="http://www.w3.org/2000/svg" width="16" height="16"><path d="M4.522 2a.5.5 0 0 1 .17.038l3.846 1.603A.75.75 0 0 1 9 4.333V13.5a.5.5 0 0 1-.692.461L4.462 12.36A.75.75 0 0 1 4 11.666V2.5a.5.5 0 0 1 .5-.5h.022ZM7.2 2h4.05a.75.75 0 0 1 .75.75v3.047a.75.75 0 0 1-.039.237l-.871 2.615a1.75 1.75 0 0 0-.09.553v2.048a.75.75 0 0 1-.75.75H10V4.333a1.75 1.75 0 0 0-1.077-1.615L7.2 2ZM10 13h.25A1.75 1.75 0 0 0 12 11.25V9.202c0-.08.013-.16.039-.237l.871-2.615c.06-.178.09-.365.09-.553V2.75A1.75 1.75 0 0 0 11.25 1H4.567A1.502 1.502 0 0 0 3 2.5v9.166a1.75 1.75 0 0 0 1.077 1.616l3.846 1.602A1.5 1.5 0 0 0 10 13.5V13Z"/></svg>