<svg xmlns="http://www.w3.org/2000/svg" width="28" height="28" viewBox="0 0 28 28"><path d="M5.185 2a2.25 2.25 0 0 0-2.248 2.15l-.866 19.5A2.25 2.25 0 0 0 4.318 26h3.864a2.25 2.25 0 0 0 2.248-2.35l-.867-19.5A2.25 2.25 0 0 0 7.315 2h-2.13Zm-.75 2.217a.75.75 0 0 1 .75-.717h2.13a.75.75 0 0 1 .75.717l.866 19.5a.75.75 0 0 1-.749.783H4.318a.75.75 0 0 1-.749-.783l.867-19.5ZM10.528 26c.396-.412.683-.927.818-1.5H13v-6.75c0-.69.56-1.25 1.25-1.25h7c.69 0 1.25.56 1.25 1.25v6.75h.75c.69 0 1.25-.56 1.25-1.25V8.442l-6.746 6.114A.75.75 0 0 1 16.5 14V8.442l-5.523 5.005-.086-1.946 5.856-5.307A.75.75 0 0 1 18 6.75v5.558l6.747-6.114A.75.75 0 0 1 26 6.75v16.5A2.75 2.75 0 0 1 23.25 26H10.527Zm3.973-1.5H21V18h-6.5v6.5Z"/></svg>