<svg xmlns="http://www.w3.org/2000/svg" width="16" height="16"><path d="m13.561 4.354-2.915-2.915A1.5 1.5 0 0 0 9.586 1H6a2 2 0 0 0-2 2v5.829c.42.129.777.41 1 .788V3a1 1 0 0 1 1-1h3v2.5A1.5 1.5 0 0 0 10.5 6H13v7a1 1 0 0 1-1 1h-.828a1.734 1.734 0 0 1-.81 1H12a2 2 0 0 0 2-2V5.414a1.5 1.5 0 0 0-.439-1.06ZM10.5 5a.5.5 0 0 1-.5-.5V2.207L12.793 5H10.5Zm-1 8H9v-1h.5a.5.5 0 0 0 0-1H9v-.5a.5.5 0 0 0-1 0v.5H7v-.5a.5.5 0 0 0-1 0v.5h-.5a.5.5 0 0 0 0 1h.509l.006 1H5.5a.5.5 0 0 0 0 1h.521v.5a.5.5 0 0 0 1 0V14H8v.5a.5.5 0 0 0 1 0V14h.5a.5.5 0 0 0 0-1ZM8 13h-.985l-.006-1H8v1Zm-4.146-2.146A.5.5 0 0 0 3.5 10h-2a.5.5 0 0 0-.5.5v4a.5.5 0 0 0 1 0V13h1a.5.5 0 0 0 0-1H2v-1h1.5a.5.5 0 0 0 .354-.146Z"/></svg>