<svg xmlns="http://www.w3.org/2000/svg" width="24" height="24"><path d="M9.5 9.5v4.018c.25-.036.506-.018.75.054v-.822a1.75 1.75 0 1 1 3.5 0v.822c.244-.072.5-.09.75-.054V9.5h-5ZM8 9.5v5H3.75a.75.75 0 0 1-.75-.75V9.5h5ZM9.5 8h5V3h-5v5ZM16 9.5v5h4.25a.75.75 0 0 0 .75-.75V9.5h-5ZM21 8h-5V3h1.75A3.25 3.25 0 0 1 21 6.25V8ZM8 8H3V6.25A3.25 3.25 0 0 1 6.25 3H8v5ZM3.75 19.5a.75.75 0 0 0 0 1.5h16.5a.75.75 0 0 0 0-1.5H3.75Zm5.44-4.748a.75.75 0 0 1 1.058-.063l1.002.89V12.75a.75.75 0 0 1 1.5 0v2.83l1.002-.89a.75.75 0 0 1 .996 1.12l-2.25 2a.75.75 0 0 1-.996 0l-2.25-2a.75.75 0 0 1-.063-1.058Z"/></svg>