<svg xmlns="http://www.w3.org/2000/svg" width="48" height="48"><path d="M13.25 16a1.25 1.25 0 1 0 0 2.5h9.5a1.25 1.25 0 1 0 0-2.5h-9.5ZM12 23.75c0-.69.56-1.25 1.25-1.25h17.5a1.25 1.25 0 0 1 1.174 1.68c-.196.206-.38.424-.549.653a1.244 1.244 0 0 1-.625.167h-17.5c-.69 0-1.25-.56-1.25-1.25ZM26.228 37.5H8.75a2.25 2.25 0 0 1-2.25-2.25v-22.5a2.25 2.25 0 0 1 2.25-2.25h30.5a2.25 2.25 0 0 1 2.25 2.25v10.888A6.985 6.985 0 0 1 44 29V12.75A4.75 4.75 0 0 0 39.25 8H8.75A4.75 4.75 0 0 0 4 12.75v22.5A4.75 4.75 0 0 0 8.75 40h17.266a7.826 7.826 0 0 1-.016-.5v-.502c0-.522.08-1.025.228-1.498ZM12 30.25c0-.69.56-1.25 1.25-1.25h13.5a1.25 1.25 0 1 1 0 2.5h-13.5c-.69 0-1.25-.56-1.25-1.25ZM42 29a5 5 0 1 1-10 0 5 5 0 0 1 10 0Zm4 10.5c0 3.5-3.15 6.5-9 6.5s-9-3-9-6.5v-.502A2.998 2.998 0 0 1 31 36h12c1.657 0 3 1.34 3 2.998v.502Z"/></svg>