<svg xmlns="http://www.w3.org/2000/svg" width="16" height="16"><path d="M8 1a.5.5 0 0 1 .5.5v1a.5.5 0 0 1-1 0v-1A.5.5 0 0 1 8 1Zm0 10a3 3 0 1 0 0-6 3 3 0 0 0 0 6Zm6.5-2.5a.5.5 0 0 0 0-1h-1a.5.5 0 0 0 0 1h1ZM8 13a.5.5 0 0 1 .5.5v1a.5.5 0 0 1-1 0v-1A.5.5 0 0 1 8 13ZM2.5 8.5a.5.5 0 0 0 0-1h-1a.5.5 0 0 0 0 1h1Zm.646-5.354a.5.5 0 0 1 .708 0l1 1a.5.5 0 1 1-.708.708l-1-1a.5.5 0 0 1 0-.708Zm.708 9.708a.5.5 0 1 1-.708-.707l1-1a.5.5 0 0 1 .708.707l-1 1Zm9-9.708a.5.5 0 0 0-.708 0l-1 1a.5.5 0 0 0 .708.708l1-1a.5.5 0 0 0 0-.708Zm-.708 9.708a.5.5 0 0 0 .708-.707l-1-1a.5.5 0 0 0-.708.707l1 1Z"/></svg>