<svg xmlns="http://www.w3.org/2000/svg" width="16" height="16" viewBox="0 0 16 16"><path d="M8.364 5.346a1.621 1.621 0 0 1 2.293.004c.632.632.637 1.659.004 2.293a1.621 1.621 0 0 1-2.293-.004 1.621 1.621 0 0 1-.004-2.293Zm1.585.71a.621.621 0 0 0-.878-.003.621.621 0 0 0 .004.878.621.621 0 0 0 .878.004.621.621 0 0 0-.004-.878ZM13.778 3.5a1.947 1.947 0 0 0-1.272-1.272A4.84 4.84 0 0 0 7.63 3.422l-.629.63a2.377 2.377 0 0 0-2.62.502l-.786.785a.5.5 0 0 0 0 .708l.85.85a1.5 1.5 0 0 0 .39 1.441l.167.167-.773.462a.5.5 0 0 0-.097.783l2.123 2.123a.5.5 0 0 0 .783-.097l.462-.772.167.166c.39.391.943.521 1.442.39l.85.85a.5.5 0 0 0 .707 0l.785-.785a2.377 2.377 0 0 0 .503-2.62l.629-.63A4.84 4.84 0 0 0 13.778 3.5Zm-1.572-.318a.946.946 0 0 1 .618.619 3.84 3.84 0 0 1-.947 3.867l-2.795 2.795a.5.5 0 0 1-.707 0L5.543 7.631a.5.5 0 0 1 0-.707L8.338 4.13a3.84 3.84 0 0 1 3.868-.947Zm-1.064 6.635c.037.393-.095.8-.397 1.101l-.432.432-.352-.352 1.181-1.181ZM5.088 5.261a1.374 1.374 0 0 1 1.101-.397l-1.18 1.18-.353-.351.432-.432Zm1.684 5.014-.262.437-1.216-1.216.438-.262 1.04 1.04Zm-1.923 1.59a.5.5 0 1 0-.707-.708l-1.32 1.32a.5.5 0 1 0 .707.708l1.32-1.32Zm-1.062-1.769a.5.5 0 0 1 0 .707l-.53.53a.5.5 0 1 1-.706-.708l.53-.529a.5.5 0 0 1 .706 0Zm2.123 2.83a.5.5 0 1 0-.707-.707l-.53.53a.5.5 0 1 0 .708.707l.53-.53Z"/></svg>