<svg xmlns="http://www.w3.org/2000/svg" width="48" height="48"><path d="M29.625 42v-.008a3.878 3.878 0 0 0 4.044-3.052L34.735 34h5.015A4.25 4.25 0 0 0 44 29.75V18.155a4.155 4.155 0 0 0-4-4.152V14H28.5v-3.75A4.25 4.25 0 0 0 24.25 6h-16A4.25 4.25 0 0 0 4 10.25v25.5A6.25 6.25 0 0 0 10.25 42h19.375ZM28.5 16.5h7.534a4.159 4.159 0 0 0-.25.779l-4.558 21.133a1.378 1.378 0 0 1-2.726-.29V16.5Zm-15.5-1a1.5 1.5 0 1 1-3 0 1.5 1.5 0 0 1 3 0ZM11.25 22h10.5a1.25 1.25 0 1 1 0 2.5h-10.5a1.25 1.25 0 1 1 0-2.5ZM10 31.25c0-.69.56-1.25 1.25-1.25h10.5a1.25 1.25 0 1 1 0 2.5h-10.5c-.69 0-1.25-.56-1.25-1.25Z"/></svg>