<svg xmlns="http://www.w3.org/2000/svg" width="32" height="32"><path d="M26.5 16c0-5.799-4.701-10.5-10.5-10.5S5.5 10.201 5.5 16 10.201 26.5 16 26.5c1.19 0 2.333-.198 3.399-.562.95-.325 2.101.317 2.101 1.428 0 .582-.35 1.132-.925 1.34-1.43.514-2.97.794-4.575.794-7.456 0-13.5-6.044-13.5-13.5S8.544 2.5 16 2.5 29.5 8.544 29.5 16c0 .087.002.184.005.288C29.583 19.52 27.476 22.5 24 22.5c-1.689 0-3.2-.761-4.208-1.958C18.71 21.744 17.191 22.5 15.5 22.5c-3.354 0-6-2.952-6-6.5s2.646-6.5 6-6.5c1.14 0 2.204.345 3.108.939A1.5 1.5 0 0 1 21.5 11v6a2.5 2.5 0 0 0 2.5 2.5c1.161 0 2.11-.794 2.376-1.88A10.59 10.59 0 0 0 26.5 16Zm-11 3.5c1.463 0 3-1.365 3-3.5s-1.537-3.5-3-3.5-3 1.365-3 3.5 1.537 3.5 3 3.5Z"/></svg>