<svg xmlns="http://www.w3.org/2000/svg" width="48" height="48" viewBox="0 0 48 48"><path d="M37.903 33.01c-4.971 8.608-15.98 11.558-24.589 6.588a17.934 17.934 0 0 1-5.821-5.368 1.35 1.35 0 0 1 .656-2.036c6.78-2.427 10.412-5.24 12.52-9.262 2.218-4.235 2.791-8.873 1.24-15.232a1.35 1.35 0 0 1 1.383-1.668c2.802.15 5.54.956 8.022 2.389 8.61 4.97 11.56 15.979 6.589 24.588Zm-15.02-8.918C20.58 28.49 16.771 31.523 10.457 34a15.473 15.473 0 0 0 4.107 3.434c7.414 4.28 16.893 1.74 21.173-5.674 4.28-7.413 1.74-16.893-5.673-21.173a15.477 15.477 0 0 0-4.907-1.818l-.468-.08c1.193 5.967.591 10.829-1.806 15.404Z"/></svg>