<svg xmlns="http://www.w3.org/2000/svg" width="28" height="28" viewBox="0 0 28 28"><path d="M25 9.5v5.656c-.501-.228-.993-.577-1.484-1.069a2 2 0 0 0-2.83-.002C19.683 15.09 18.676 15.5 17.6 15.5a2 2 0 0 0-2 2v3.001c0 1.677.386 3.202 1.213 4.499H6.25A3.25 3.25 0 0 1 3 21.75V9.5h22Zm-2.545 5.647c.791.793 1.638 1.329 2.545 1.612a5.31 5.31 0 0 0 1.6.241.5.5 0 0 1 .5.5v3.001c0 3.219-1.642 5.406-4.842 6.473a.499.499 0 0 1-.316 0C18.74 25.907 17.1 23.72 17.1 20.501V17.5a.5.5 0 0 1 .5-.5c1.529 0 2.904-.611 4.147-1.854a.498.498 0 0 1 .708 0ZM21.75 3A3.25 3.25 0 0 1 25 6.25V8H3V6.25A3.25 3.25 0 0 1 6.25 3h15.5Z"/></svg>