<svg xmlns="http://www.w3.org/2000/svg" width="24" height="24"><path d="M10 5.75A.75.75 0 0 0 9.25 5H7l-.25.006A5 5 0 0 0 7 15h2.25l.11-.008a.75.75 0 0 0-.11-1.492H7l-.206-.006A3.5 3.5 0 0 1 7 6.5h2.25l.11-.008A.75.75 0 0 0 10 5.75ZM21.997 10a5 5 0 0 0-5-5h-2.25l-.11.008a.75.75 0 0 0 .11 1.492h2.25l.206.006a3.5 3.5 0 0 1 3.293 3.588c.518.126 1.01.38 1.428.76a5.03 5.03 0 0 0 .073-.855Zm-5-.75H7l-.102.006A.75.75 0 0 0 7 10.75h9.999l.101-.006A.75.75 0 0 0 17 9.25Zm1.1 2.419-5.901 5.902a2.685 2.685 0 0 0-.707 1.247l-.457 1.83c-.2.797.522 1.518 1.318 1.319l1.83-.458a2.685 2.685 0 0 0 1.248-.706L21.33 14.9a2.285 2.285 0 0 0-3.233-3.232Z"/></svg>