<svg xmlns="http://www.w3.org/2000/svg" width="28" height="28"><path d="M25 24.25a.75.75 0 0 1-.75.75H3.75a.75.75 0 0 1 0-1.5h20.5a.75.75 0 0 1 .75.75Zm-7.442-6.163a1.744 1.744 0 0 0-.558-.419V11h-6v6.668a1.745 1.745 0 0 0-.832.832H4a1 1 0 0 1-1-1V6.75A3.75 3.75 0 0 1 6.75 3h14.5A3.75 3.75 0 0 1 25 6.75V17.5a1 1 0 0 1-1 1h-6.168a1.752 1.752 0 0 0-.274-.413ZM18.5 17h5v-6h-5v6Zm0-7.5h5V6.75a2.25 2.25 0 0 0-2.25-2.25H18.5v5Zm-1.5-5h-6v5h6v-5Zm-10.25 0A2.25 2.25 0 0 0 4.5 6.75V9.5h5v-5H6.75ZM4.5 11v6h5v-6h-5Zm7.748 7.69 1.002.89V16a.75.75 0 0 1 1.5 0v3.58l1.002-.89a.75.75 0 0 1 .996 1.12l-2.25 2a.75.75 0 0 1-.996 0l-2.25-2a.75.75 0 0 1 .996-1.12Z"/></svg>