<svg xmlns="http://www.w3.org/2000/svg" width="24" height="24"><path d="M11 17.5a6.47 6.47 0 0 1 1.022-3.5h-6.77a2.249 2.249 0 0 0-2.248 2.248v.92c0 .572.178 1.13.51 1.596C5.056 20.928 7.58 22 11 22c.6 0 1.172-.033 1.717-.099A6.477 6.477 0 0 1 11 17.5Zm0-15.496a5 5 0 1 1 0 10 5 5 0 0 1 0-10ZM23 17.5a5.5 5.5 0 1 1-11 0 5.5 5.5 0 0 1 11 0Zm-4.945-3.08a.577.577 0 0 0-1.11 0l-.557 1.788h-1.803c-.566 0-.8.754-.343 1.1l1.458 1.105-.557 1.787c-.175.561.441 1.028.899.681l1.458-1.104 1.458 1.104c.458.347 1.074-.12.899-.68l-.557-1.788 1.458-1.104c.458-.347.223-1.101-.343-1.101h-1.803l-.557-1.787Z"/></svg>