<svg xmlns="http://www.w3.org/2000/svg" width="20" height="20"><path d="M14.284 3.241 13.19 4.335a6.5 6.5 0 1 0 1.406 10.261.75.75 0 0 1 1.06 1.06 8 8 0 1 1-1.372-12.415Zm-3.296 3.296 1.163-1.163a5.102 5.102 0 0 0-5.757 8.232 5.1 5.1 0 0 0 7.212 0 .75.75 0 1 0-1.06-1.06 3.6 3.6 0 1 1-1.558-6.009ZM15.78 4.22a.75.75 0 0 1 0 1.06l-4.33 4.331a1.5 1.5 0 1 1-1.06-1.06l4.33-4.331a.75.75 0 0 1 1.06 0Zm1.47 9.03a.75.75 0 1 1-1.5 0 .75.75 0 0 1 1.5 0ZM16.5 7.5a.75.75 0 1 0 0-1.5.75.75 0 0 0 0 1.5Zm1.5 3.75a.75.75 0 1 1-1.5 0 .75.75 0 0 1 1.5 0Zm-.75-1.75a.75.75 0 1 0 0-1.5.75.75 0 0 0 0 1.5ZM15 11.25a.75.75 0 1 1-1.5 0 .75.75 0 0 1 1.5 0Zm-.75-1.75a.75.75 0 1 0 0-1.5.75.75 0 0 0 0 1.5Z"/></svg>