<svg xmlns="http://www.w3.org/2000/svg" width="16" height="16" viewBox="0 0 16 16"><path d="M6 9a.749.749 0 1 1-1.498 0A.749.749 0 0 1 6 9Zm4.749.749a.749.749 0 1 0 0-1.498.749.749 0 0 0 0 1.498ZM3.034 6.074 3.044 6H2.5a.5.5 0 0 1 0-1h.673l.162-1.256A2 2 0 0 1 5.32 2h5.36a2 2 0 0 1 1.984 1.747L12.823 5h.677a.5.5 0 0 1 0 1h-.549l.01.072A1.5 1.5 0 0 1 14 7.5v3a1.5 1.5 0 0 1-1.5 1.5h-.003v1.25a.75.75 0 1 1-1.5 0V12H5v1.25a.75.75 0 0 1-1.5 0V12A1.5 1.5 0 0 1 2 10.5v-3a1.5 1.5 0 0 1 1.034-1.426Zm1.293-2.202L4.052 6h7.891l-.272-2.127A1 1 0 0 0 10.68 3H5.32a1 1 0 0 0-.992.872ZM12.5 11a.5.5 0 0 0 .5-.5v-3a.5.5 0 0 0-.5-.5h-9a.5.5 0 0 0-.5.5v3a.5.5 0 0 0 .5.5h9Z"/></svg>