<svg xmlns="http://www.w3.org/2000/svg" width="24" height="24"><path d="M3 17h7.522l-2 2H3a1 1 0 0 1-.117-1.993L3 17Zm0-2h7.848a1.75 1.75 0 0 1-.775-2H3l-.117.007A1 1 0 0 0 3 15Zm0-8h18l.117-.007A1 1 0 0 0 21 5H3l-.117.007A1 1 0 0 0 3 7Zm9.72 9.216a.75.75 0 1 1 1.06 1.06l-4.5 4.5a.75.75 0 1 1-1.06-1.06l4.5-4.5ZM3 9h10a1 1 0 0 1 .117 1.993L13 11H3a1 1 0 0 1-.117-1.993L3 9Zm13.5-1a.75.75 0 0 1 .744.658l.14 1.13a3.25 3.25 0 0 0 2.828 2.829l1.13.139a.75.75 0 0 1 0 1.488l-1.13.14a3.25 3.25 0 0 0-2.829 2.828l-.139 1.13a.75.75 0 0 1-1.488 0l-.14-1.13a3.25 3.25 0 0 0-2.828-2.829l-1.13-.139a.75.75 0 0 1 0-1.488l1.13-.14a3.25 3.25 0 0 0 2.829-2.828l.139-1.13A.75.75 0 0 1 16.5 8Z"/></svg>