<svg xmlns="http://www.w3.org/2000/svg" width="24" height="24" viewBox="0 0 24 24"><path d="m18.5 6.75-.003-2.123A2.25 2.25 0 0 1 20 6.75v7.5a3.24 3.24 0 0 0-1.25-.25h-.25V6.75ZM4 4.25v3A3.24 3.24 0 0 1 5.25 7h2.846a3.25 3.25 0 0 1 2.381 1.039L16.014 14H17.5V4.25A2.25 2.25 0 0 0 15.25 2h-9A2.25 2.25 0 0 0 4 4.25ZM5.25 8A2.25 2.25 0 0 0 3 10.25v8.5A3.25 3.25 0 0 0 6.25 22h11.5A3.25 3.25 0 0 0 21 18.75v-1.5A2.25 2.25 0 0 0 18.75 15h-2.846a.75.75 0 0 1-.55-.24l-5.61-6.04A2.25 2.25 0 0 0 8.097 8H5.25Z"/></svg>