<svg xmlns="http://www.w3.org/2000/svg" width="16" height="16" viewBox="0 0 16 16"><path d="M11.914 1.556a4.179 4.179 0 0 0-5.694 1.52l-.152.263a.5.5 0 0 0 .183.684l2.648 1.522L7.27 8.392c-1.45.189-2.68 1.13-3.46 2.394a1.5 1.5 0 0 1 1.753.992.546.546 0 0 0 .192.29.41.41 0 0 0 .235.075.397.397 0 0 0 .228-.067.462.462 0 0 0 .171-.247 1.5 1.5 0 0 1 2.837 0c.05.143.118.211.171.247.062.042.14.067.229.066a.41.41 0 0 0 .234-.074.546.546 0 0 0 .192-.29 1.5 1.5 0 0 1 1.753-.992c-.766-1.244-1.969-2.174-3.389-2.384l1.349-2.36 2.84 1.632a.5.5 0 0 0 .681-.182l.153-.264a4.141 4.141 0 0 0-1.526-5.672Zm-7.3 10.537a.5.5 0 0 0-.96.038c-.125.512-.358.78-.613.935-.273.165-.628.233-1.041.233a.5.5 0 1 0 0 1c.504 0 1.066-.08 1.558-.377.244-.148.459-.341.636-.585.961 1.08 2.68 1.074 3.615-.019.951 1.113 2.716 1.1 3.666-.04a2.796 2.796 0 0 0 2.142 1.021.5.5 0 0 0 0-1c-.716 0-1.429-.468-1.664-1.201a.5.5 0 0 0-.95-.005c-.465 1.401-2.27 1.377-2.722.06a.5.5 0 0 0-.945 0c-.453 1.317-2.257 1.341-2.721-.06Z"/></svg>