<svg xmlns="http://www.w3.org/2000/svg" width="32" height="32"><path d="M22.15 3.237c-1.93-1.93-5.185-1.403-6.406 1.04l-3.175 6.35a1.5 1.5 0 0 1-.868.752L6.72 13.04a2 2 0 0 0-.782 3.312l4.149 4.149L4 26.586v1.415h1.414l6.086-6.086 4.149 4.149a2 2 0 0 0 3.311-.782l1.661-4.983a1.5 1.5 0 0 1 .752-.867l6.351-3.175c2.442-1.222 2.97-4.476 1.04-6.407L22.15 3.237ZM17.533 5.17a2 2 0 0 1 3.203-.52l6.614 6.614a2 2 0 0 1-.52 3.203l-6.351 3.175a3.5 3.5 0 0 0-1.755 2.024l-1.661 4.982-9.712-9.711 4.983-1.661a3.5 3.5 0 0 0 2.024-1.755l3.175-6.351Z"/></svg>