<svg xmlns="http://www.w3.org/2000/svg" width="24" height="24"><path d="M20 3a1 1 0 0 1 1 1v5a1 1 0 1 1-2 0V6.414l-5.793 5.793a1 1 0 0 1-1.414 0L10 10.414l-5.293 5.293a1 1 0 0 1-1.414-1.414l6-6a1 1 0 0 1 1.414 0l1.793 1.793L17.586 5H15a1 1 0 1 1 0-2h5Zm-5.722 10.976a2 2 0 0 1-1.44 2.496l-.585.144a5.729 5.729 0 0 0 .006 1.807l.54.13a2 2 0 0 1 1.45 2.51l-.187.632c.44.386.94.699 1.485.922l.493-.52a2 2 0 0 1 2.899.001l.499.525a5.282 5.282 0 0 0 1.483-.913l-.199-.686a2 2 0 0 1 1.442-2.496l.583-.144a5.729 5.729 0 0 0-.006-1.808l-.539-.13a2 2 0 0 1-1.45-2.51l.186-.63a5.28 5.28 0 0 0-1.484-.922l-.493.518a2 2 0 0 1-2.9 0l-.498-.525a5.3 5.3 0 0 0-1.483.912l.198.687ZM17.5 19c-.8 0-1.45-.672-1.45-1.5S16.7 16 17.5 16c.8 0 1.45.672 1.45 1.5S18.3 19 17.5 19Z"/></svg>