<svg xmlns="http://www.w3.org/2000/svg" width="28" height="28"><path d="M20.841 2.655a2.25 2.25 0 0 0-3.182 0L13.5 6.815v-.561a2.25 2.25 0 0 0-2.25-2.25h-7A2.25 2.25 0 0 0 2 6.254v18c0 .966.784 1.75 1.75 1.75h18a2.25 2.25 0 0 0 2.25-2.25V16.75a2.25 2.25 0 0 0-2.25-2.25h-.556l4.155-4.155a2.25 2.25 0 0 0 0-3.182l-4.508-4.508ZM17.306 14.5H13.5v-3.806l3.806 3.806ZM18.72 3.716a.75.75 0 0 1 1.06 0l4.508 4.508a.75.75 0 0 1 0 1.06l-4.508 4.508a.75.75 0 0 1-1.06 0l-4.508-4.508a.75.75 0 0 1 0-1.06l4.508-4.508ZM12 6.254V14.5H3.5V6.254a.75.75 0 0 1 .75-.75h7a.75.75 0 0 1 .75.75Zm-8.5 17.5V16H12v8.504H4.25a.75.75 0 0 1-.75-.75ZM13.5 16h8.25a.75.75 0 0 1 .75.75v7.004a.75.75 0 0 1-.75.75H13.5V16Z"/></svg>