<svg xmlns="http://www.w3.org/2000/svg" width="16" height="16" viewBox="0 0 16 16"><path d="M4.5 9.003a.5.5 0 0 0-.5.5v2a.5.5 0 0 0 1 0v-.166h.333a1.167 1.167 0 0 0 0-2.334H4.5Zm.833 1.334H5v-.334h.333a.167.167 0 0 1 0 .334Zm4.668-.835a.5.5 0 0 1 .5-.499h.998a.5.5 0 0 1 0 1h-.5v.335h.5a.5.5 0 1 1 0 1H11v.164a.5.5 0 0 1-1 .002V9.502Zm-2.503-.499a.5.5 0 0 0-.5.5v2a.5.5 0 0 0 .5.5H8a1.5 1.5 0 0 0 0-3h-.502Zm.5 2v-1H8a.5.5 0 0 1 0 1h-.002ZM3 3.502v3.582A1.5 1.5 0 0 0 2 8.5v4.003a1.5 1.5 0 0 0 1.5 1.5h9a1.5 1.5 0 0 0 1.5-1.5V8.499a1.5 1.5 0 0 0-1-1.415v-1.67a1.5 1.5 0 0 0-.44-1.063l-1.916-1.91a1.5 1.5 0 0 0-1.06-.439H4.5a1.5 1.5 0 0 0-1.5 1.5Zm1.5-.5H9V4.5A1.5 1.5 0 0 0 10.5 6H12v.999H4V3.502a.5.5 0 0 1 .5-.5Zm5.5.208L11.794 5H10.5a.5.5 0 0 1-.5-.5V3.21ZM3.5 8h9a.5.5 0 0 1 .5.5v4.003a.5.5 0 0 1-.5.5h-9a.5.5 0 0 1-.5-.5V8.499a.5.5 0 0 1 .5-.5Z"/></svg>