<svg xmlns="http://www.w3.org/2000/svg" width="32" height="32" viewBox="0 0 32 32"><path d="M7 8.5a3.5 3.5 0 1 1 7 0 3.5 3.5 0 0 1-7 0ZM10.5 3a5.5 5.5 0 1 0 0 11 5.5 5.5 0 0 0 0-11ZM21 10a2 2 0 1 1 4 0 2 2 0 0 1-4 0Zm2-4a4 4 0 1 0 0 8 4 4 0 0 0 0-8Zm-7 10c.387 0 .757.073 1.096.207A9.045 9.045 0 0 0 15.516 18H5a1 1 0 0 0-1 1v.19a2.913 2.913 0 0 0 .085.498c.09.348.273.818.641 1.291C5.431 21.883 6.98 23 10.5 23c1.5 0 2.643-.203 3.514-.506a9.116 9.116 0 0 0 .12 2.057c-1.006.283-2.205.449-3.634.449-3.98 0-6.18-1.29-7.351-2.792a5.564 5.564 0 0 1-1-2.017 4.905 4.905 0 0 1-.146-.898 2.494 2.494 0 0 1-.002-.067v-.023L2 19.195V19a3 3 0 0 1 3-3h11Zm14.5 7a7.5 7.5 0 1 1-15 0 7.5 7.5 0 0 1 15 0Zm-8.212-4.862-.94 2.828h-2.994c-.731 0-1.03.938-.434 1.361l2.406 1.707-.929 2.792c-.228.687.555 1.267 1.146.848L23 25.931l2.457 1.743c.591.42 1.374-.16 1.146-.848l-.93-2.792 2.407-1.707c.597-.423.297-1.361-.434-1.361h-2.994l-.94-2.828c-.228-.684-1.196-.684-1.424 0Z"/></svg>