<svg xmlns="http://www.w3.org/2000/svg" width="28" height="28"><path d="M14 7.5a6.5 6.5 0 1 1-13 0 6.5 6.5 0 0 1 13 0Zm-6-4a.5.5 0 0 0-1 0V7H3.5a.5.5 0 0 0 0 1H7v3.5a.5.5 0 0 0 1 0V8h3.5a.5.5 0 0 0 0-1H8V3.5Zm13.25 1h-6.874A7.486 7.486 0 0 0 13.5 3h7.749A3.75 3.75 0 0 1 25 6.75v8.507a3.75 3.75 0 0 1-1.098 2.652l-5.993 5.993A3.75 3.75 0 0 1 15.257 25H6.75A3.75 3.75 0 0 1 3 21.25V13.5a7.51 7.51 0 0 0 1.5.876v6.874a2.25 2.25 0 0 0 2.25 2.25H15v-4.75A3.75 3.75 0 0 1 18.75 15h4.75V6.75a2.25 2.25 0 0 0-2.25-2.25ZM16.5 23.126c.124-.083.241-.178.348-.285l5.993-5.993c.107-.107.202-.224.285-.348H18.75a2.25 2.25 0 0 0-2.25 2.25v4.376Z"/></svg>