<svg xmlns="http://www.w3.org/2000/svg" width="20" height="20"><path d="M7.146 16.354a.5.5 0 0 0 .708 0L9.5 14.707V18.5a.5.5 0 0 0 1 0v-3.793l1.646 1.647a.5.5 0 0 0 .708-.708l-2.5-2.5a.5.5 0 0 0-.708 0l-2.5 2.5a.5.5 0 0 0 0 .708Zm9.208-8.5a.5.5 0 0 0-.708-.708l-2.5 2.5a.5.5 0 0 0 0 .708l2.5 2.5a.5.5 0 0 0 .708-.708L14.707 10.5H18.5a.5.5 0 0 0 0-1h-3.793l1.647-1.646Zm-12.708 0a.5.5 0 1 1 .708-.708l2.5 2.5a.5.5 0 0 1 0 .708l-2.5 2.5a.5.5 0 0 1-.708-.708L5.293 10.5H1.5a.5.5 0 0 1 0-1h3.793L3.646 7.854Zm4.208-4.208a.5.5 0 1 0-.708.708l2.5 2.5a.5.5 0 0 0 .708 0l2.5-2.5a.5.5 0 0 0-.708-.708L10.5 5.293V1.5a.5.5 0 0 0-1 0v3.793L7.854 3.646Z"/></svg>