<svg xmlns="http://www.w3.org/2000/svg" width="16" height="16" viewBox="0 0 16 16"><path d="M12 10.793V13a1 1 0 0 1-1 1H3a1 1 0 0 1-1-1V8.875l4.763 2.565a.5.5 0 0 0 .474 0l1.411-.76c-.39-.14-.76-.322-1.104-.541L7 10.432 2 7.74V7a1 1 0 0 1 1-1h2.022a5.57 5.57 0 0 1 0-1H3a2 2 0 0 0-2 2v6a2 2 0 0 0 2 2h8a2 2 0 0 0 2-2v-2.6a5.467 5.467 0 0 1-1 .393ZM6.635 4.92a2 2 0 0 0 1.43-2.478l-.156-.557c.254-.195.53-.362.822-.497l.337.358a2 2 0 0 0 2.91.001l.325-.344c.297.14.577.315.834.518l-.126.423a2 2 0 0 0 1.456 2.519l.35.082a4.698 4.698 0 0 1 .01 1.017l-.461.118a2 2 0 0 0-1.43 2.478l.155.556c-.254.196-.53.363-.822.498l-.337-.358a2 2 0 0 0-2.91-.002l-.324.344a4.32 4.32 0 0 1-.835-.517l.126-.423a2 2 0 0 0-1.456-2.52l-.35-.082a4.701 4.701 0 0 1-.01-1.016l.462-.118Zm4.865.58a1 1 0 1 0-2 0 1 1 0 0 0 2 0Z"/></svg>