<svg xmlns="http://www.w3.org/2000/svg" width="16" height="16"><path d="M2.587 7.314a1.988 1.988 0 0 0 0 2.822l3.175 3.16a5.465 5.465 0 0 1-.722-2.13L3.296 9.43a.994.994 0 0 1 0-1.41l4.74-4.717c.187-.186.44-.29.704-.292l3.25-.013a1 1 0 0 1 1.008 1.004l-.012 1.59c.357.182.691.4.998.652L14 4.009A2 2 0 0 0 11.987 2l-3.25.014a2.01 2.01 0 0 0-1.41.584l-4.74 4.716ZM10.5 15a4.5 4.5 0 1 0 0-9 4.5 4.5 0 0 0 0 9Zm-.625-1.995a.624.624 0 1 1 1.25 0 .624.624 0 0 1-1.25 0ZM8.647 9.458c-.011-1.137.805-1.955 1.853-1.955 1.031 0 1.853.846 1.853 1.95 0 .586-.214.908-.727 1.319l-.277.214c-.246.194-.329.3-.346.448l-.011.156A.5.5 0 0 1 10 11.5c0-.57.21-.884.716-1.288l.278-.215c.288-.23.36-.342.36-.544 0-.558-.382-.95-.854-.95-.494 0-.859.366-.853.945a.5.5 0 0 1-1 .01Z"/></svg>