<svg xmlns="http://www.w3.org/2000/svg" width="24" height="24" viewBox="0 0 24 24"><path d="M13 11.75h6.715c.34-.347.78-.595 1.275-.698A9.5 9.5 0 0 0 11.5 2 9.5 9.5 0 0 0 2 11.5c0 5.079 3.986 9.227 9 9.487v-1.502a8 8 0 0 1 .25-15.981V10c0 .966.784 1.75 1.75 1.75Zm0-1.5a.25.25 0 0 1-.25-.25V3.597a8.006 8.006 0 0 1 6.653 6.653H13ZM21.5 12a1.5 1.5 0 0 0-1.5 1.5v8a1.5 1.5 0 0 0 3 0v-8a1.5 1.5 0 0 0-1.5-1.5Zm-8 6a1.5 1.5 0 0 0-1.5 1.5v2a1.5 1.5 0 0 0 3 0v-2a1.5 1.5 0 0 0-1.5-1.5Zm2.5-1.5a1.5 1.5 0 0 1 3 0v5a1.5 1.5 0 0 1-3 0v-5Z"/></svg>