<svg xmlns="http://www.w3.org/2000/svg" width="16" height="16"><path d="M7.572 11.982a2.207 2.207 0 0 0-.52 1.953C4.488 13.573 3 11.764 3 10v-.5A1.5 1.5 0 0 1 4.5 8h6.023c.02.483.22.951.582 1.305l.518.506a2.01 2.01 0 0 1-.712 1.121l-.785-.186a2.066 2.066 0 0 0-2.01.628l-.544.608ZM8 1.5A2.75 2.75 0 1 1 8 7a2.75 2.75 0 0 1 0-5.5Zm3.584 6.081.283-.75c.258-.68 1.062-1.016 1.74-.727l.388.166c.473.202.865.568.947 1.06.457 2.725-1.908 6.601-4.63 7.59-.492.178-1.024.04-1.445-.246l-.346-.235a1.184 1.184 0 0 1-.204-1.79l.545-.607a1.066 1.066 0 0 1 1.034-.323l1.225.29c.971-.607 1.492-1.46 1.562-2.56l-.878-.86a.937.937 0 0 1-.221-1.008Z"/></svg>