<svg xmlns="http://www.w3.org/2000/svg" width="32" height="32"><path d="M23.374 7.045c-1.28-1.445-2.936-2.144-4.616-2.097-1.678.046-3.47.842-4.999 2.562L8.384 14H17a1 1 0 0 1 0 2H6a1 1 0 0 1-1-1V4a1 1 0 1 1 2 0v8.535l5.24-6.327.011-.012c1.85-2.09 4.15-3.183 6.451-3.248 2.303-.064 4.518.907 6.169 2.77 3.333 3.764 2.303 8.666-.011 11.194l-.007.008-5.578 5.834-.003.004-5.434 5.618-.003.004-.31.318a1 1 0 0 1-1.432-1.398l.307-.314.004-.003 5.426-5.611.004-.004 5.558-5.814c1.754-1.925 2.506-5.659-.018-8.509Z"/></svg>