<svg xmlns="http://www.w3.org/2000/svg" width="20" height="20"><path d="M16.75 3a.75.75 0 0 1 .75.75v4.5a.75.75 0 0 1-1.5 0V5.56l-4.22 4.22a.75.75 0 0 1-1.06 0L9 8.06l-4.72 4.72a.75.75 0 0 1-1.06-1.06l5.25-5.25a.75.75 0 0 1 1.06 0l1.72 1.72 3.69-3.69h-2.69a.75.75 0 0 1 0-1.5h4.5Zm-4.685 8.442a2 2 0 0 1-1.43 2.478l-.461.118a4.735 4.735 0 0 0 .01 1.016l.35.083a2 2 0 0 1 1.455 2.519l-.126.423c.257.203.537.377.835.517l.325-.344a2 2 0 0 1 2.909.002l.337.358c.293-.135.568-.302.822-.498l-.156-.556a2 2 0 0 1 1.43-2.478l.461-.118a4.731 4.731 0 0 0-.01-1.017l-.349-.082a2 2 0 0 1-1.456-2.52l.126-.421a4.318 4.318 0 0 0-.835-.519l-.324.344a2 2 0 0 1-2.91-.001l-.337-.358a4.316 4.316 0 0 0-.822.497l.156.557ZM14.5 15.5a1 1 0 1 1 0-2 1 1 0 0 1 0 2Z"/></svg>