<svg xmlns="http://www.w3.org/2000/svg" width="20" height="20" viewBox="0 0 20 20"><path d="M10 18c.085 0 .17-.001.254-.004a5.504 5.504 0 0 1-.698-1.083c-.536-.207-1.098-.793-1.578-1.821A9.254 9.254 0 0 1 7.42 13.5h1.672a5.41 5.41 0 0 1 .284-1h-2.17A14.87 14.87 0 0 1 7 10c0-.883.073-1.725.206-2.5h5.588c.092.541.156 1.115.186 1.713.32-.092.651-.155.992-.188a15.538 15.538 0 0 0-.165-1.525h2.733c.251.656.406 1.36.448 2.094a5.47 5.47 0 0 1 1.008.66A8 8 0 1 0 10 18Zm0-15c.657 0 1.407.59 2.022 1.908.217.466.406 1.002.559 1.592H7.419c.153-.59.342-1.126.56-1.592C8.592 3.59 9.342 3 10 3ZM7.072 4.485A10.502 10.502 0 0 0 6.389 6.5H3.936a7.022 7.022 0 0 1 3.778-3.118c-.241.33-.456.704-.642 1.103ZM6.192 7.5A15.97 15.97 0 0 0 6 10c0 .87.067 1.712.193 2.5H3.46A6.984 6.984 0 0 1 3 10c0-.88.163-1.724.46-2.5h2.733Zm.197 6c.176.743.407 1.422.683 2.015.186.399.401.773.642 1.103A7.022 7.022 0 0 1 3.936 13.5H6.39Zm5.897-10.118A7.021 7.021 0 0 1 16.064 6.5H13.61a10.504 10.504 0 0 0-.683-2.015 6.635 6.635 0 0 0-.642-1.103ZM19 14.5a4.5 4.5 0 1 1-9 0 4.5 4.5 0 0 1 9 0ZM14.5 12a.5.5 0 0 0-.5.5v2a.5.5 0 0 0 .5.5H16a.5.5 0 0 0 0-1h-1v-1.5a.5.5 0 0 0-.5-.5Z"/></svg>