<svg xmlns="http://www.w3.org/2000/svg" width="24" height="24"><path d="M17.754 14a2.249 2.249 0 0 1 2.25 2.248v.918a2.75 2.75 0 0 1-.514 1.6C17.946 20.928 15.42 22 12 22c-.163 0-.323-.002-.482-.007h.008c.116-.006.368-.02.613-.135a1.5 1.5 0 0 0 .725-1.984 1.63 1.63 0 0 0-.381-.498 10.504 10.504 0 0 0-.374-.325l-.61-.516V16c0-.711-.15-1.388-.417-2h6.672ZM12 2.003a5 5 0 1 1 0 10 5 5 0 0 1 0-10ZM6.503 12a4 4 0 0 0-4 4v3l-.95.8c-.307.26-.46.39-.507.491a.5.5 0 0 0 .241.662c.101.047.303.047.706.047h9.02c.402 0 .603 0 .704-.047a.5.5 0 0 0 .242-.662c-.047-.101-.2-.231-.508-.49L10.502 19v-3a4 4 0 0 0-4-4Zm1.5 10c-.219.583-.808 1-1.5 1-.693 0-1.282-.417-1.5-1h3Z"/></svg>