<svg xmlns="http://www.w3.org/2000/svg" width="20" height="20"><path d="M4.5 3A2.5 2.5 0 0 0 2 5.5v9A2.5 2.5 0 0 0 4.5 17H8v-1H4.5A1.5 1.5 0 0 1 3 14.5v-7h4.071a1.5 1.5 0 0 0 1.087-.466L9.619 5.5H15.5A1.5 1.5 0 0 1 17 7v4c.35 0 .687.06 1 .17V7a2.5 2.5 0 0 0-2.5-2.5H9.667l-1.6-1.2a1.5 1.5 0 0 0-.9-.3H4.5ZM3 5.5A1.5 1.5 0 0 1 4.5 4h2.667a.5.5 0 0 1 .3.1l1.227.92-1.26 1.325a.5.5 0 0 1-.363.155H3v-1Zm9 5a.5.5 0 0 1 .5-.5h3a.5.5 0 0 1 .5.5V12h1a2 2 0 0 1 2 2v3a2 2 0 0 1-2 2h-6a2 2 0 0 1-2-2v-3a2 2 0 0 1 2-2h1v-1.5Zm3 .5h-2v1h2v-1Z"/></svg>