<svg xmlns="http://www.w3.org/2000/svg" width="28" height="28" viewBox="0 0 28 28"><path d="M3.28 2.22a.75.75 0 1 0-1.06 1.06l5.289 5.29C6.482 8.212 5.326 8 4 8a1 1 0 1 0 0 2c3.146 0 5.084 1.41 6.939 3.279l.593-.637.024-.026.707.708C9.937 15.839 7.893 18 4 18a1 1 0 1 0 0 2c4.813 0 7.392-2.788 9.675-5.257l.003-.004.708.708-.024.026c-.216.234-.438.473-.666.715 1.27 1.273 2.717 2.472 4.605 3.174l1.962 1.962a1 1 0 0 0 1.413 1.413l3.043 3.044a.75.75 0 0 0 1.061-1.061L3.28 2.22Zm11.077 8.955 1.417 1.417c1.567-1.437 3.29-2.479 5.803-2.583l-1.284 1.284a1 1 0 0 0 1.414 1.414l3-3a1 1 0 0 0 0-1.414l-3-3a1 1 0 1 0-1.414 1.414l1.3 1.3c-3.24.108-5.439 1.506-7.236 3.168Zm6.788 6.788 2.653 2.653.91-.909a1 1 0 0 0 0-1.414l-3-3a1 1 0 0 0-1.415 1.414l1.284 1.284a9.422 9.422 0 0 1-.432-.027Z"/></svg>