<svg xmlns="http://www.w3.org/2000/svg" width="16" height="16" viewBox="0 0 16 16"><path d="M2 4.25a.75.75 0 0 1 .75-.75h1.789c.835 0 1.625.38 2.147 1.032l1.499 1.874a2.25 2.25 0 0 0 1.757.844H11.5a.72.72 0 0 1 .005 0h.222l-1.572-2.043a.75.75 0 0 1 1.19-.914l2.5 3.25a.75.75 0 0 1 0 .914l-2.5 3.25a.75.75 0 0 1-1.19-.914l1.572-2.043H9.71c-.38 0-.739.173-.976.47l-1.499 1.873A3.75 3.75 0 0 1 4.308 12.5H2.75a.75.75 0 0 1 0-1.5h1.558c.684 0 1.33-.31 1.757-.844l1.499-1.874a2.75 2.75 0 0 1 .203-.227 3.76 3.76 0 0 1-.753-.712l-1.5-1.874A1.25 1.25 0 0 0 4.54 5H2.75A.75.75 0 0 1 2 4.25Z"/></svg>