<svg xmlns="http://www.w3.org/2000/svg" width="28" height="28" viewBox="0 0 28 28"><path d="M11.75 12.5a.75.75 0 0 0 0 1.5h4.5a.75.75 0 0 0 0-1.5h-4.5ZM3 5.25A2.25 2.25 0 0 1 5.25 3h17.5A2.25 2.25 0 0 1 25 5.25v2c0 .78-.397 1.467-1 1.871V20.25A4.75 4.75 0 0 1 19.25 25H8.75A4.75 4.75 0 0 1 4 20.25V9.121A2.248 2.248 0 0 1 3 7.25v-2ZM5.5 9.5v10.75a3.25 3.25 0 0 0 3.25 3.25h10.5a3.25 3.25 0 0 0 3.25-3.25V9.5h-17Zm-.25-5a.75.75 0 0 0-.75.75v2c0 .414.336.75.75.75h17.5a.75.75 0 0 0 .75-.75v-2a.75.75 0 0 0-.75-.75H5.25Z"/></svg>