<svg xmlns="http://www.w3.org/2000/svg" width="20" height="20" viewBox="0 0 20 20"><path d="M2.75 3a.75.75 0 0 0 0 1.5h14.5a.75.75 0 0 0 0-1.5H2.75Zm0 6a.75.75 0 0 0 0 1.5h7.14A5.531 5.531 0 0 1 11.336 9H2.75Zm0 3h6.457A5.5 5.5 0 0 0 9 13.5H2.75a.75.75 0 0 1 0-1.5Zm0 3h6.457c.152.538.384 1.043.682 1.5H2.75a.75.75 0 0 1 0-1.5Zm0-9a.75.75 0 0 0 0 1.5h14.5a.75.75 0 0 0 0-1.5H2.75ZM19 13.5a4.5 4.5 0 1 1-9 0 4.5 4.5 0 0 1 9 0ZM14.5 11a.5.5 0 0 0-.5.5v2a.5.5 0 0 0 1 0v-2a.5.5 0 0 0-.5-.5Zm0 5.125a.625.625 0 1 0 0-1.25.625.625 0 0 0 0 1.25Z"/></svg>