<svg xmlns="http://www.w3.org/2000/svg" width="28" height="28" viewBox="0 0 28 28"><path d="M6.385 2.351a.75.75 0 0 0-1.27.798L11.3 13H2.75a.75.75 0 0 0-.75.75V14c0 6.628 5.373 12 12 12s12-5.372 12-12v-.25a.75.75 0 0 0-.75-.75h-7.178L11.385 2.351a.75.75 0 0 0-1.27.798L16.3 13h-3.228L6.385 2.351Zm10.879 12.183.054-.034h7.17a10.42 10.42 0 0 1-.423 2.5H3.935a10.475 10.475 0 0 1-.423-2.5h8.73l.022.034.054-.034h4.924l.022.034ZM23.49 18.5a10.501 10.501 0 0 1-9.49 6 10.501 10.501 0 0 1-9.49-6h18.98Z"/></svg>