<svg xmlns="http://www.w3.org/2000/svg" width="24" height="24" viewBox="0 0 24 24"><path d="M1 8.574V4.428a1.5 1.5 0 0 1 .83-1.342l3.5-1.75a1.5 1.5 0 0 1 1.34 0l3.5 1.75A1.5 1.5 0 0 1 11 4.428v4.146a1.5 1.5 0 0 1-.83 1.341l-3.5 1.75a1.5 1.5 0 0 1-1.34 0l-3.5-1.75A1.5 1.5 0 0 1 1 8.574Zm1.553-4.047a.5.5 0 0 0 .223.67L5.5 6.56V9.5a.5.5 0 1 0 1 0V6.56l2.724-1.362a.5.5 0 1 0-.448-.895L6 5.692 3.224 4.303a.5.5 0 0 0-.671.224Zm9-1.527A2.5 2.5 0 0 1 12 4.428v4.145a2.5 2.5 0 0 1-1.382 2.236l-3.5 1.75a2.5 2.5 0 0 1-2.236 0L2 11.12v6.131a2.25 2.25 0 0 0 2.04 2.24 3 3 0 0 0 5.919.01h2.082a3 3 0 0 0 5.918 0h1.791A2.25 2.25 0 0 0 22 17.25v-5.412a2.25 2.25 0 0 0-.217-.963l-1.699-3.588A2.25 2.25 0 0 0 18.051 6H16.5v-.75A2.25 2.25 0 0 0 14.25 3h-2.697Zm7.697 12.5h1.25V17h-1.25a.75.75 0 1 1 0-1.5Zm-.521-7.57L20.183 11H16.5V7.5h1.55a.75.75 0 0 1 .679.43ZM8.5 19a1.5 1.5 0 1 1-3 0 1.5 1.5 0 0 1 3 0Zm6.5-1.5a1.5 1.5 0 1 1 0 3 1.5 1.5 0 0 1 0-3Z"/></svg>