<svg xmlns="http://www.w3.org/2000/svg" width="24" height="24"><path d="M13 16.5a5.5 5.5 0 1 1-11 0 5.5 5.5 0 0 1 11 0ZM8.528 13H7.096a.5.5 0 0 0-.468.325l-1.125 3a.5.5 0 0 0 .468.675h.779l-.773 2.319a.518.518 0 0 0 .926.446l2.625-4.039A.47.47 0 0 0 9.134 15H8.5l.497-1.324A.5.5 0 0 0 8.528 13Zm8.096-6.462L19.587 9.5l-5.69-.001-.23-.004a6.25 6.25 0 0 1-6.02-6.246.75.75 0 1 0-1.5 0l.004.246A7.75 7.75 0 0 0 13.897 11h5.69l-2.963 2.962-.072.084a.75.75 0 0 0 1.133.977l4.242-4.243.073-.084a.75.75 0 0 0-.073-.976l-4.242-4.243-.084-.073a.75.75 0 0 0-.977 1.134Z"/></svg>