<svg xmlns="http://www.w3.org/2000/svg" width="48" height="48"><path d="M14 12a8 8 0 1 1 16 0v10.996a12.98 12.98 0 0 0-2.514 1.394c.01-.129.014-.259.014-.39V12a5.5 5.5 0 1 0-11 0v12a5.5 5.5 0 0 0 6.79 5.348 12.907 12.907 0 0 0-.94 2.645A8 8 0 0 1 14 24V11.999Zm9 28.009a12.948 12.948 0 0 1-.998-4.759H22c-6.351 0-11.5-5.149-11.5-11.5a1.25 1.25 0 1 0-2.5 0c0 7.225 5.473 13.172 12.5 13.92v5.08a1.25 1.25 0 1 0 2.5 0v-2.741ZM46 35c0 6.075-4.925 11-11 11s-11-4.925-11-11 4.925-11 11-11 11 4.925 11 11Zm-13.983-6a1 1 0 0 0-.95.638l-1.706 4.396H28a1 1 0 1 0 0 2h2.045a1 1 0 0 0 .932-.638l.974-2.508 2.605 7.442a1 1 0 0 0 1.88.021l2.195-5.853.475.95a1 1 0 0 0 .877.552l2 .034a1 1 0 1 0 .034-2l-1.394-.024-1.229-2.457a1 1 0 0 0-1.83.096l-2.032 5.416-2.588-7.395a1 1 0 0 0-.927-.67Z"/></svg>