<svg xmlns="http://www.w3.org/2000/svg" width="20" height="20" viewBox="0 0 20 20"><path d="M4.5 2A1.5 1.5 0 0 0 3 3.5v13A1.5 1.5 0 0 0 4.5 18h7a1.5 1.5 0 0 0 1.5-1.5V15a.5.5 0 0 0-.5-.5c-.413 0-.677-.102-.856-.236-.183-.137-.322-.342-.424-.623-.214-.588-.22-1.367-.22-2.141a.5.5 0 0 0-.147-.354l-.286-.287-1.213-1.213c-.467-.467-.604-.78-.63-.955-.02-.14.022-.234.122-.33.214-.205.367-.344.54-.386.103-.026.338-.044.76.378l3 3a.5.5 0 0 0 .708-.707L13 9.793V6.707l2.56 2.56a1.5 1.5 0 0 1 .44 1.061V17.5a.5.5 0 0 0 1 0v-7.172a2.5 2.5 0 0 0-.732-1.767L13 5.293V3.5A1.5 1.5 0 0 0 11.5 2h-7ZM12 5.5v3.293l-1.146-1.147c-.579-.578-1.154-.777-1.705-.643a1.517 1.517 0 0 0-.313.115A3.001 3.001 0 0 0 5 10a3 3 0 0 0 5.007 2.23c.017.578.075 1.21.273 1.753.148.407.384.796.764 1.08l.006.006A1.5 1.5 0 0 0 10 16.5v.5H6v-.5A1.5 1.5 0 0 0 4.5 15H4V5h.5A1.5 1.5 0 0 0 6 3.5V3h4v.5A1.5 1.5 0 0 0 11.5 5h.5v.5Zm0 11v.009a.5.5 0 0 1-.5.491H11v-.5a.5.5 0 0 1 .5-.5h.5v.5ZM6 10a2 2 0 0 1 1.874-1.996c-.124.23-.187.51-.139.833.071.482.378.983.911 1.516l.907.907A2 2 0 0 1 6 10ZM5 3v.5a.5.5 0 0 1-.5.5H4v-.5a.5.5 0 0 1 .5-.5H5ZM4 16h.5a.5.5 0 0 1 .5.5v.5h-.5a.5.5 0 0 1-.5-.5V16Zm8-12h-.5a.5.5 0 0 1-.5-.5V3h.5a.5.5 0 0 1 .5.5V4Z"/></svg>