<svg xmlns="http://www.w3.org/2000/svg" width="28" height="28"><path d="M21.78 5.72a.75.75 0 1 0-1.06 1.06l1.72 1.72h-.19c-4.68 0-7.312 2.564-9.728 4.919l-.045.044C10.03 15.846 7.79 18 3.75 18a.75.75 0 0 0 0 1.5c4.68 0 7.312-2.564 9.728-4.919l.045-.044C15.97 12.154 18.21 10 22.25 10h.19l-1.72 1.72a.75.75 0 1 0 1.06 1.06l3-3a.75.75 0 0 0 0-1.06l-3-3ZM3.75 8.5c3.919 0 6.401 1.798 8.524 3.765-.135.13-.27.261-.401.39l-.094.092-.584.565C9.187 11.463 7.08 10 3.75 10a.75.75 0 0 1 0-1.5Zm18.5 11c-3.919 0-6.401-1.798-8.524-3.765.135-.13.27-.261.401-.39l.094-.092.584-.565C16.813 16.537 18.919 18 22.25 18h.19l-1.72-1.72a.75.75 0 1 1 1.06-1.06l3 3a.75.75 0 0 1 0 1.06l-3 3a.75.75 0 1 1-1.06-1.06l1.72-1.72h-.19Z"/></svg>