<svg xmlns="http://www.w3.org/2000/svg" width="20" height="20" viewBox="0 0 20 20"><path d="M18 5.5a4.5 4.5 0 1 1-9 0 4.5 4.5 0 0 1 9 0Zm-4-2a.5.5 0 0 0-1 0V5h-1.5a.5.5 0 0 0 0 1H13v1.5a.5.5 0 0 0 1 0V6h1.5a.5.5 0 0 0 0-1H14V3.5ZM6 5h2.022a5.48 5.48 0 0 1 .185-1H6a3 3 0 0 0-3 3v8a3 3 0 0 0 3 3h8a3 3 0 0 0 3-3V9.743a5.507 5.507 0 0 1-1 .657v.6h-3.5a.5.5 0 0 0-.5.5v.011l-.004.06a2.57 2.57 0 0 1-.256.955 1.694 1.694 0 0 1-.572.667c-.26.174-.63.307-1.168.307-.538 0-.907-.133-1.168-.307a1.694 1.694 0 0 1-.572-.667A2.572 2.572 0 0 1 8 11.511V11.5a.5.5 0 0 0-.5-.5H4V7a2 2 0 0 1 2-2Zm-2 7h3.05c.047.264.137.616.315.974.186.371.473.758.912 1.051.443.295 1.01.475 1.723.475.713 0 1.28-.18 1.723-.475.44-.293.726-.68.912-1.051.178-.358.268-.71.315-.974H16v3a2 2 0 0 1-2 2H6a2 2 0 0 1-2-2v-3Z"/></svg>