<svg xmlns="http://www.w3.org/2000/svg" width="24" height="24"><path d="M12 6.5a5.5 5.5 0 1 0-11 0 5.5 5.5 0 0 0 11 0Zm-8-3v.551a3.5 3.5 0 1 1-.187 4.691C3.55 8.427 3.811 8 4.221 8c.176 0 .339.085.46.213A2.5 2.5 0 1 0 4.5 5h1a.5.5 0 0 1 0 1h-2a.5.5 0 0 1-.5-.5v-2a.5.5 0 0 1 1 0Zm14.75 2h-5.826a6.451 6.451 0 0 0-.422-1.5h6.248A3.25 3.25 0 0 1 22 7.25v11.5A3.25 3.25 0 0 1 18.75 22H7.25A3.25 3.25 0 0 1 4 18.75v-6.248c.474.198.977.34 1.5.422v5.826c0 .208.036.408.103.594l5.823-5.701a2.25 2.25 0 0 1 3.02-.116l.128.116 5.822 5.702c.067-.186.104-.386.104-.595V7.25a1.75 1.75 0 0 0-1.75-1.75Zm.58 14.901-5.805-5.686a.75.75 0 0 0-.966-.071l-.084.07-5.807 5.687c.182.064.378.099.582.099h11.5c.203 0 .399-.035.58-.099ZM16.253 7.5a2.252 2.252 0 1 1 0 4.504 2.252 2.252 0 0 1 0-4.504Zm0 1.5a.752.752 0 1 0 0 1.504.752.752 0 0 0 0-1.504Z"/></svg>