<svg xmlns="http://www.w3.org/2000/svg" width="20" height="20" viewBox="0 0 20 20"><path d="M2.854 2.146a.5.5 0 1 0-.708.708l1.811 1.81A8.218 8.218 0 0 0 2 10a8.228 8.228 0 0 0 2.604 6.015.725.725 0 0 0 1.01-.025c.316-.316.277-.819-.027-1.11A6.73 6.73 0 0 1 3.5 10c0-1.62.57-3.107 1.522-4.27l.712.71A5.726 5.726 0 0 0 4.5 10c0 1.691.73 3.213 1.893 4.264a.713.713 0 0 0 .983-.037c.328-.328.267-.844-.041-1.134A4.238 4.238 0 0 1 6 10c0-.93.298-1.789.804-2.489l1.842 1.842a1.5 1.5 0 0 0 2 2l6.5 6.5a.5.5 0 0 0 .708-.707l-1.811-1.81-1.065-1.066-.712-.71-1.07-1.072-1.842-1.841-2-2L7.4 6.693l-.942-.942-.82-.82-.944-.944-1.841-1.842Zm13.794 12.38A8.212 8.212 0 0 0 18 10c0-2.283-.928-4.35-2.426-5.843a.726.726 0 0 0-1.027.01c-.31.31-.28.8.01 1.095A6.727 6.727 0 0 1 16.5 10a6.718 6.718 0 0 1-.94 3.438l1.088 1.089Zm-1.822-1.822A5.73 5.73 0 0 0 15.5 10a5.733 5.733 0 0 0-1.706-4.087.714.714 0 0 0-1.008.016c-.319.318-.272.816.014 1.111A4.235 4.235 0 0 1 14 10c0 .557-.107 1.09-.302 1.577l1.128 1.127Z"/></svg>