<svg xmlns="http://www.w3.org/2000/svg" width="24" height="24"><path d="M8 2H5a3 3 0 0 0-3 3v3h2.708A2.5 2.5 0 0 1 8 4.708V2ZM2 9.5V14a3 3 0 0 0 3 3h3v-6.44l-1.72 1.72a.75.75 0 0 1-1.06-1.06L6.94 9.5H2ZM9.5 17H11v-.5a2.5 2.5 0 0 1 2.5-2.5h8c.171 0 .338.017.5.05V9.5H10.56l1.72 1.72a.75.75 0 1 1-1.06 1.06L9.5 10.56V17ZM22 8h-9.208A2.5 2.5 0 0 0 9.5 4.708V2H19a3 3 0 0 1 3 3v3ZM10.5 8h-1V7a1 1 0 1 1 1 1ZM8 8H7a1 1 0 1 1 1-1.008V8Zm4 8.5a1.5 1.5 0 0 1 1.5-1.5h8a1.5 1.5 0 0 1 1.5 1.5v4a1.5 1.5 0 0 1-1.5 1.5h-8a1.5 1.5 0 0 1-1.5-1.5v-4Zm10 .5a1 1 0 0 1-1-1h-1a2 2 0 0 0 2 2v-1Zm0 2a2 2 0 0 0-2 2h1a1 1 0 0 1 1-1v-1Zm-8-3a1 1 0 0 1-1 1v1a2 2 0 0 0 2-2h-1Zm1 5a2 2 0 0 0-2-2v1a1 1 0 0 1 1 1h1Zm4.25-2.5a1.75 1.75 0 1 0-3.5 0 1.75 1.75 0 0 0 3.5 0Z"/></svg>