<svg xmlns="http://www.w3.org/2000/svg" width="24" height="24"><path d="M4.75 4A2.75 2.75 0 0 0 2 6.75v10.5A2.75 2.75 0 0 0 4.75 20h8.252a4.008 4.008 0 0 1-.002-.125v-.103A2.772 2.772 0 0 1 15.773 17h.277A3.49 3.49 0 0 1 15 14.5c0-.744.232-1.433.627-2H6.75a.75.75 0 0 1 0-1.5h9a.75.75 0 0 1 .741.634A3.501 3.501 0 0 1 21.965 14H22V6.75A2.75 2.75 0 0 0 19.25 4H4.75ZM6 8.75A.75.75 0 0 1 6.75 8h4.5a.75.75 0 0 1 0 1.5h-4.5A.75.75 0 0 1 6 8.75Zm.75 6.75a.75.75 0 0 1 0-1.5h6.5a.75.75 0 0 1 0 1.5h-6.5Zm14.25-1a2.5 2.5 0 1 1-5 0 2.5 2.5 0 0 1 5 0Zm2 5.375C23 21.431 21.714 23 18.5 23S14 21.437 14 19.875v-.103c0-.98.794-1.772 1.773-1.772h5.454c.98 0 1.773.793 1.773 1.772v.103Z"/></svg>