<svg xmlns="http://www.w3.org/2000/svg" width="20" height="20"><path d="M4 5a2 2 0 0 1 2-2h7a2 2 0 0 1 2 2v7h3v2a3 3 0 0 1-3 3H9.938a2 2 0 0 0 .062-.496V12.5a2 2 0 0 0-1.106-1.789L7.47 10h4.03a.5.5 0 0 0 0-1h-4a.5.5 0 0 0-.382.823l-1.224-.612a2 2 0 0 0-1.788 0L4 9.264V5Zm11 11a2 2 0 0 0 2-2v-1h-2v3ZM7.5 6a.5.5 0 0 0 0 1h4a.5.5 0 0 0 0-1h-4Zm.947 5.606-3-1.5a1 1 0 0 0-.894 0l-3 1.5A1 1 0 0 0 1 12.5v4.004a1 1 0 0 0 .553.894l3 1.5a1 1 0 0 0 .894 0l3-1.5A1 1 0 0 0 9 16.504V12.5a1 1 0 0 0-.553-.894ZM2.04 12.732a.5.5 0 0 1 .657-.263L5 13.456l2.303-.987a.5.5 0 0 1 .394.92l-2.197.94V17a.5.5 0 1 1-1 0v-2.67l-2.197-.942a.5.5 0 0 1-.263-.656Z"/></svg>