<svg xmlns="http://www.w3.org/2000/svg" width="48" height="48" viewBox="0 0 48 48"><path d="M4 24C4 12.954 12.954 4 24 4c10.478 0 19.074 8.057 19.93 18.314a5.981 5.981 0 0 0-6.173 1.472l-5.137 5.218a1.244 1.244 0 0 0-.933.589A9.212 9.212 0 0 1 24 33.5a9.22 9.22 0 0 1-7.687-3.907 1.248 1.248 0 1 0-2.13 1.307A11.718 11.718 0 0 0 24 36a11.72 11.72 0 0 0 1.854-.124l-1.608 1.633a4.999 4.999 0 0 0-1.277 2.253l-.839 3.235c-.08.305-.121.608-.13.904C11.893 42.898 4 34.371 4 24Zm13.5-2a2.5 2.5 0 1 0 0-5 2.5 2.5 0 0 0 0 5ZM33 19.5a2.5 2.5 0 1 0-5 0 2.5 2.5 0 0 0 5 0Zm11.834 5.668a3.981 3.981 0 0 0-5.652.022L25.671 38.913a3 3 0 0 0-.767 1.351l-.838 3.234c-.383 1.477.961 2.82 2.437 2.438l3.235-.839a3 3 0 0 0 1.351-.766L44.812 30.82a3.981 3.981 0 0 0 .022-5.651Z"/></svg>