<svg xmlns="http://www.w3.org/2000/svg" width="24" height="24"><path d="M15.854 6.146a2.844 2.844 0 0 1 .685 1.114l.448 1.377a.543.543 0 0 0 1.026 0l.448-1.377a2.837 2.837 0 0 1 1.798-1.796l1.378-.448a.544.544 0 0 0 0-1.025l-.028-.007-1.378-.448a2.84 2.84 0 0 1-1.798-1.796L17.986.363a.544.544 0 0 0-1.027 0l-.448 1.377-.011.034a2.835 2.835 0 0 1-1.759 1.762l-1.378.448a.544.544 0 0 0 0 1.025l1.378.448c.42.14.8.376 1.113.689Zm7.163 3.819.766.248.015.004a.303.303 0 0 1 .147.46.302.302 0 0 1-.147.11l-.765.248a1.578 1.578 0 0 0-1 .998l-.248.765a.302.302 0 0 1-.57 0l-.249-.764a1.575 1.575 0 0 0-.999-1.002l-.765-.249a.303.303 0 0 1-.147-.46.302.302 0 0 1 .147-.11l.765-.248a1.576 1.576 0 0 0 .984-.999l.249-.764a.302.302 0 0 1 .57 0l.249.764a1.575 1.575 0 0 0 .998.999ZM10.122 4.003h1.959a1.546 1.546 0 0 1 .95-.962l1.391-.453.05-.017a2.249 2.249 0 0 0-.547-.068h-3.803a2.25 2.25 0 0 0-1.917 1.073L7.33 5H5.25A3.25 3.25 0 0 0 2 8.25v9.5A3.25 3.25 0 0 0 5.25 21h13.5A3.25 3.25 0 0 0 22 17.75v-3.852c-.406.164-.89.118-1.252-.137a1.304 1.304 0 0 1-.248-.229v4.218a1.75 1.75 0 0 1-1.75 1.75H5.25a1.75 1.75 0 0 1-1.75-1.75v-9.5c0-.966.784-1.75 1.75-1.75h2.5a.75.75 0 0 0 .64-.358l1.093-1.781.065-.09a.75.75 0 0 1 .574-.268ZM16.5 12.5a4.5 4.5 0 1 0-9 0 4.5 4.5 0 0 0 9 0Zm-7.5 0a3 3 0 1 1 6 0 3 3 0 0 1-6 0Z"/></svg>