<svg xmlns="http://www.w3.org/2000/svg" width="32" height="32"><path d="M27 7c0-2.761-4.925-5-11-5S5 4.239 5 7v18c0 2.761 4.925 5 11 5 .42 0 .834-.01 1.242-.032a9.037 9.037 0 0 1-1.54-1.97c-2.694-.035-5.036-.548-6.653-1.283C7.193 25.87 7 25.115 7 25V9.876C8.99 11.16 12.28 12 16 12c3.72 0 7.01-.84 9-2.124v4.748a8.939 8.939 0 0 1 2 .582V7Zm-2 0c0 .114-.193.871-2.05 1.715C21.276 9.477 18.82 10 16 10c-2.82 0-5.275-.523-6.95-1.285C7.192 7.87 7 7.115 7 7c0-.114.193-.871 2.05-1.715C10.724 4.523 13.18 4 16 4c2.82 0 5.275.523 6.95 1.285C24.808 6.13 25 6.885 25 7Zm6 16.5a7.5 7.5 0 1 0-15 0 7.5 7.5 0 0 0 15 0Zm-12.25-1h7.69l-2.72-2.72a.75.75 0 1 1 1.06-1.06l4 4a.75.75 0 0 1 0 1.06l-4 4a.75.75 0 1 1-1.06-1.06L26.44 24h-7.69a.75.75 0 0 1 0-1.5Z"/></svg>