<svg xmlns="http://www.w3.org/2000/svg" width="48" height="48"><path d="M17.25 4A3.25 3.25 0 0 0 14 7.25v6a.75.75 0 0 1-.75.75h-6A3.25 3.25 0 0 0 4 17.25v6a3.25 3.25 0 0 0 3.25 3.25h16a3.25 3.25 0 0 0 3.25-3.25v-6a.75.75 0 0 1 .75-.75h6a3.25 3.25 0 0 0 3.25-3.25v-6A3.25 3.25 0 0 0 33.25 4h-16Zm16 10H26.5V6.5h6.75a.75.75 0 0 1 .75.75v6a.75.75 0 0 1-.75.75ZM24 14h-7.5V7.25a.75.75 0 0 1 .75-.75H24V14Zm-10 2.5V24H7.25a.75.75 0 0 1-.75-.75v-6a.75.75 0 0 1 .75-.75H14Zm2.5 0H24v6.75a.75.75 0 0 1-.75.75H16.5v-7.5Zm18.25 5h6A3.25 3.25 0 0 1 44 24.75v16A3.25 3.25 0 0 1 40.75 44h-27.5A3.25 3.25 0 0 1 10 40.75v-6a3.25 3.25 0 0 1 3.25-3.25h17.5a.75.75 0 0 0 .75-.75v-6a3.25 3.25 0 0 1 3.25-3.25Zm-3.25 20V34h-8v7.5h8Zm10-7.5H34v7.5h6.75a.75.75 0 0 0 .75-.75V34ZM34 31.5h7.5v-6.75a.75.75 0 0 0-.75-.75h-6a.75.75 0 0 0-.75.75v6.75ZM21 34h-7.75a.75.75 0 0 0-.75.75v6c0 .414.336.75.75.75H21V34Z"/></svg>