<svg xmlns="http://www.w3.org/2000/svg" width="24" height="24" viewBox="0 0 24 24"><path d="M3.28 2.22a.75.75 0 1 0-1.06 1.06l2.203 2.203c-3.393 3.93-3.224 9.872.506 13.601a1 1 0 0 0 1.414-1.414 8.004 8.004 0 0 1-.501-10.768l1.52 1.52a5.922 5.922 0 0 0 .533 7.763A1 1 0 0 0 9.31 14.77a3.922 3.922 0 0 1-.513-4.913l1.835 1.836a1.503 1.503 0 0 0 1.45 1.889c.134 0 .264-.018.388-.051l8.25 8.25a.75.75 0 1 0 1.06-1.061L3.28 2.22Zm15.748 13.626 1.462 1.462c2.414-3.861 1.942-9.012-1.415-12.37a1 1 0 1 0-1.415 1.415 8.006 8.006 0 0 1 1.368 9.493Zm-3.098-3.098 1.591 1.591a5.922 5.922 0 0 0-1.253-6.527 1 1 0 1 0-1.414 1.414 3.917 3.917 0 0 1 1.076 3.522Z"/></svg>