<svg xmlns="http://www.w3.org/2000/svg" width="16" height="16"><path d="M10 .5a.5.5 0 0 1 .5-.5h4a.5.5 0 0 1 .5.5v5a.5.5 0 0 1-.5.5H13v8.5a.5.5 0 0 1-1 0V6h-1.5a.5.5 0 0 1-.5-.5v-5ZM5.319 2H9v1H5.319a1 1 0 0 0-.992.872L4.052 6h5.033A1.5 1.5 0 0 0 10.5 7h-7a.5.5 0 0 0-.5.5v3a.5.5 0 0 0 .5.5H11v1H5v1.25a.75.75 0 0 1-1.5 0V12A1.5 1.5 0 0 1 2 10.5v-3a1.5 1.5 0 0 1 1.034-1.426L3.044 6H2.5a.5.5 0 0 1 0-1h.673l.162-1.256A2 2 0 0 1 5.32 2Zm5.43 6.251c.088 0 .172.015.251.043v1.412A.748.748 0 0 1 10 9c0-.414.335-.749.749-.749ZM6 9a.749.749 0 1 1-1.498 0A.749.749 0 0 1 6 9Z"/></svg>