<svg xmlns="http://www.w3.org/2000/svg" width="48" height="48"><path d="M35.75 8.5a3.75 3.75 0 0 1 3.75 3.75V24H29.25A5.25 5.25 0 0 0 24 29.25V39.5H12.25a3.75 3.75 0 0 1-3.75-3.75v-7.885a1.25 1.25 0 1 0-2.5 0v7.885A6.25 6.25 0 0 0 12.25 42h23.5A6.252 6.252 0 0 0 42 35.75v-23.5A6.25 6.25 0 0 0 35.75 6h-7.885a1.25 1.25 0 1 0 0 2.5h7.885ZM21 7.25C21 6.56 20.44 6 19.75 6H7.25C6.56 6 6 6.56 6 7.25v12.5a1.25 1.25 0 1 0 2.5 0v-9.482l10.366 10.366a1.25 1.25 0 0 0 1.768-1.768L10.268 8.5h9.482c.69 0 1.25-.56 1.25-1.25Z"/></svg>