<svg xmlns="http://www.w3.org/2000/svg" width="24" height="24"><path d="M10.11 17.24a7.007 7.007 0 0 0 3.414 4.837l-2.473.82a2 2 0 0 1-2.322-.831l-.431-.684a2 2 0 0 1 .224-2.424l1.588-1.718ZM17 10a6 6 0 1 1 0 12 6 6 0 0 1 0-12ZM7 1c.214 0 .425.01.634.033l-.351.115c-.387.107-.8.292-1.184.537C3.995 3.03 3.367 5.82 4.7 7.92c1.335 2.102 4.126 2.711 6.233 1.365.344-.22.655-.484.933-.783l1.128-1.21A6 6 0 1 1 7 1Zm5.797.648.107.13.091.133.648 1.02a2 2 0 0 1-.114 2.307l-.11.129-2.289 2.457c-.213.23-.458.441-.737.62-1.641 1.048-3.812.575-4.85-1.059-1.036-1.633-.546-3.808 1.095-4.858.304-.194.627-.337.958-.429l3.085-1.015a2 2 0 0 1 2.116.565ZM10.35 3.06a.75.75 0 0 0-.26.944l.054.097.261.39.069.087a.75.75 0 0 0 1.233-.825l-.055-.097-.261-.39-.069-.087a.75.75 0 0 0-.972-.119Z"/></svg>