<svg xmlns="http://www.w3.org/2000/svg" width="28" height="28" viewBox="0 0 28 28"><path d="M3 6.75A3.75 3.75 0 0 1 6.75 3h14.5A3.75 3.75 0 0 1 25 6.75v11.583A4.736 4.736 0 0 0 23.25 18h-5.5a4.73 4.73 0 0 0-2.124.5H11v5h2.059c.085.535.259 1.04.507 1.5H6.75A3.75 3.75 0 0 1 3 21.25V6.75ZM4.5 18.5v2.75a2.25 2.25 0 0 0 2.25 2.25H9.5v-5h-5Zm5-1.5v-6h-5v6h5Zm7.5 0v-6h-6v6h6Zm6.5 0v-6h-5v6h5Zm0-10.25a2.25 2.25 0 0 0-2.25-2.25H18.5v5h5V6.75ZM17 4.5h-6v5h6v-5Zm-7.5 0H6.75A2.25 2.25 0 0 0 4.5 6.75V9.5h5v-5Zm8.25 16a2.25 2.25 0 0 0 0 4.5h.5a.75.75 0 0 1 0 1.5h-.5a3.75 3.75 0 1 1 0-7.5h.5a.75.75 0 0 1 0 1.5h-.5ZM17 22.75a.75.75 0 0 1 .75-.75h5.5a.75.75 0 0 1 0 1.5h-5.5a.75.75 0 0 1-.75-.75ZM23.25 25a2.25 2.25 0 0 0 0-4.5h-.5a.75.75 0 0 1 0-1.5h.5a3.75 3.75 0 1 1 0 7.5h-.5a.75.75 0 0 1 0-1.5h.5Z"/></svg>