<svg xmlns="http://www.w3.org/2000/svg" width="24" height="24"><path d="M18.5 20a.5.5 0 0 1-.5.5h-5.732A6.518 6.518 0 0 1 11.19 22H18a2 2 0 0 0 2-2V9.828a2 2 0 0 0-.586-1.414l-5.829-5.828a.491.491 0 0 0-.049-.04.63.63 0 0 1-.036-.03 2.072 2.072 0 0 0-.219-.18.652.652 0 0 0-.08-.044l-.048-.024-.05-.029c-.054-.031-.109-.063-.166-.087a1.977 1.977 0 0 0-.624-.138.56.56 0 0 1-.059-.007.605.605 0 0 0-.082-.007H6a2 2 0 0 0-2 2v7.498a6.451 6.451 0 0 1 1.5-.422V4a.5.5 0 0 1 .5-.5h6V8a2 2 0 0 0 2 2h4.5v10Zm-5-15.379L17.378 8.5H14a.5.5 0 0 1-.5-.5V4.621ZM12 17.5a5.5 5.5 0 1 1-11 0 5.5 5.5 0 0 1 11 0ZM6.5 14a.5.5 0 0 0-.5.5v4a.5.5 0 0 0 1 0v-4a.5.5 0 0 0-.5-.5Zm0 7.125a.625.625 0 1 0 0-1.25.625.625 0 0 0 0 1.25Z"/></svg>