<svg xmlns="http://www.w3.org/2000/svg" width="28" height="28"><path d="M6.4 2A2.4 2.4 0 0 0 4 4.4v9.198c.466-.238.97-.412 1.5-.51V4.4a.9.9 0 0 1 .9-.9H14v6.499a2 2 0 0 0 2 2h6.5v11.597a.9.9 0 0 1-.9.9H11v1.5h10.6a2.4 2.4 0 0 0 2.4-2.4v-12.02a2.75 2.75 0 0 0-.805-1.943l-6.931-6.93A2.4 2.4 0 0 0 14.567 2H6.4Zm15.54 8.499H16a.5.5 0 0 1-.5-.5V4.06l6.44 6.439ZM5.5 14.109A4.495 4.495 0 0 0 2 18.498a4.495 4.495 0 0 0 4.5 4.5 4.5 4.5 0 1 0-1-8.887Zm-.035 11.698 1.036-.81 2.367 1.853A.7.7 0 0 0 10 26.299v-3.56a5.478 5.478 0 0 1-3.5 1.258A5.46 5.46 0 0 1 3 22.74v3.559a.7.7 0 0 0 1.131.55l1.334-1.042Z"/></svg>