<svg xmlns="http://www.w3.org/2000/svg" width="24" height="24"><path d="M22.19 4.971c-.343-.955-.863-1.586-1.552-1.924-.61-.299-1.234-.298-1.592-.297H19c-.808 0-1.466.278-1.965.721-.478.425-.765.96-.94 1.428a5.65 5.65 0 0 0-.302 1.258 5.841 5.841 0 0 0-.042.534v.097c-.001.498-.002 1.47.35 2.364.187.478.486.968.963 1.36.482.398 1.093.65 1.826.732.59.066 2.433.028 3.271-1.824a1 1 0 0 0-1.822-.825c-.156.345-.38.5-.602.581a1.476 1.476 0 0 1-.626.08c-.392-.043-.626-.164-.776-.287a1.3 1.3 0 0 1-.373-.547c-.201-.514-.212-1.139-.212-1.669v-.012l.003-.066a3.936 3.936 0 0 1 .215-1.074c.106-.282.241-.497.396-.635.134-.119.32-.216.636-.216.408 0 .599.015.758.093.106.052.333.201.552.806a1 1 0 1 0 1.88-.678Zm-7.676 1.742c.196-.365.311-.81.311-1.338 0-.533-.102-1.01-.321-1.414a2.188 2.188 0 0 0-.867-.88c-.594-.333-1.232-.331-1.451-.33H10a1 1 0 0 0-1 1v6.5a1 1 0 0 0 1 1h2.375c.299 0 .963-.04 1.587-.375a2.4 2.4 0 0 0 .909-.84c.25-.4.38-.875.38-1.41 0-.554-.121-1.046-.374-1.46a2.232 2.232 0 0 0-.363-.453Zm-1.852-1.887a.19.19 0 0 1 .082.085c.028.052.081.185.081.464 0 .229-.046.344-.075.395a.313.313 0 0 1-.119.12.984.984 0 0 1-.462.11H11V4.75h1.163c.222 0 .39.015.5.076ZM12.174 8h.201c.251 0 .495.013.67.1.065.031.1.065.124.106.026.043.081.16.081.42 0 .206-.047.305-.074.349a.406.406 0 0 1-.161.139c-.196.105-.47.136-.64.136H11V8h1.173ZM5.03 2.75a1 1 0 0 1 .928.666l2.306 6.5a1 1 0 1 1-1.885.668l-.19-.535H3.65l-.217.562a1 1 0 1 1-1.865-.722l2.516-6.5a1 1 0 0 1 .947-.639Zm-.055 3.876-.551 1.422H5.48l-.505-1.422Zm10.506 5.984-4.299 5.159-1.726-1.726a1 1 0 0 0-1.414 1.414l2.5 2.5a1 1 0 0 0 1.476-.067l5-6a1 1 0 0 0-1.537-1.28Z"/></svg>