<svg xmlns="http://www.w3.org/2000/svg" width="20" height="20"><path d="M2 10a8 8 0 1 1 16 0 8 8 0 0 1-16 0Zm8-7c-.085 0-.17.002-.255.005.118.222.253.504.373.823.28.746.527 1.817.085 2.758-.404.86-1.097 1.084-1.632 1.222l-.097.025c-.506.13-.755.194-.93.46-.17.257-.129.574.037 1.113l.038.124c.067.211.144.457.184.688.05.286.06.636-.113.97-.18.343-.414.574-.69.724a2.4 2.4 0 0 1-.747.235l-.088.015c-.407.072-.645.113-.867.351-.177.19-.278.508-.336.941-.024.178-.038.355-.053.534l-.007.095a4.53 4.53 0 0 1-.079.605l-.004.02A6.982 6.982 0 0 0 10 17c1.35 0 2.612-.383 3.682-1.045a3.562 3.562 0 0 1-.275-.307c-.27-.34-.609-.909-.492-1.57.056-.313.226-.581.397-.794.175-.216.386-.417.576-.592l.128-.117c.146-.133.273-.25.382-.363.147-.154.191-.237.2-.263.068-.226-.013-.404-.126-.492-.094-.073-.295-.142-.61.058a4.845 4.845 0 0 1-.323.191 1.116 1.116 0 0 1-.336.122.605.605 0 0 1-.544-.177.734.734 0 0 1-.178-.375 2.576 2.576 0 0 1-.03-.276l-.005-.066a6.745 6.745 0 0 0-.02-.238 5.08 5.08 0 0 0-.143-.825c-.127-.491-.44-.888-.764-1.3a24.33 24.33 0 0 1-.142-.181c-.16-.206-.363-.478-.436-.77a.904.904 0 0 1 .025-.547 1.01 1.01 0 0 1 .351-.448c.428-.32 1.128-1.013 1.743-1.652.303-.314.577-.607.775-.822l.005-.006A6.968 6.968 0 0 0 10 3Z"/></svg>