<svg xmlns="http://www.w3.org/2000/svg" width="20" height="20" viewBox="0 0 20 20"><path d="M9 2a4 4 0 1 0 0 8 4 4 0 0 0 0-8ZM6 6a3 3 0 1 1 6 0 3 3 0 0 1-6 0Zm-1.991 5A2.001 2.001 0 0 0 2 13c0 1.691.833 2.966 2.135 3.797C5.417 17.614 7.145 18 9 18c.41 0 .816-.019 1.21-.057a5.501 5.501 0 0 1-.618-.958C9.398 16.995 9.2 17 9 17c-1.735 0-3.257-.364-4.327-1.047C3.623 15.283 3 14.31 3 13c0-.553.448-1 1.009-1h5.59c.184-.358.405-.693.658-1H4.01ZM14.5 19a4.5 4.5 0 1 0 0-9 4.5 4.5 0 0 0 0 9Zm-.896-6.396-.897.896h1.543A2.75 2.75 0 0 1 17 16.25v.25a.5.5 0 0 1-1 0v-.25a1.75 1.75 0 0 0-1.75-1.75h-1.543l.897.896a.5.5 0 0 1-.708.708l-1.752-1.753a.499.499 0 0 1 .002-.705l1.75-1.75a.5.5 0 0 1 .708.708Z"/></svg>