<svg xmlns="http://www.w3.org/2000/svg" width="24" height="24"><path d="M12 2c5.523 0 10 4.477 10 10 0 .263-.01.523-.03.78a6.5 6.5 0 0 0-9.19 9.19 9.96 9.96 0 0 1-5.425-1.112l-4.29 1.117A.85.85 0 0 1 2.03 20.94l1.116-4.289A9.959 9.959 0 0 1 2 12C2 6.477 6.477 2 12 2Zm2.278 11.976a2 2 0 0 1-1.441 2.496l-.584.144a5.729 5.729 0 0 0 .006 1.807l.54.13a2 2 0 0 1 1.45 2.51l-.187.632c.44.386.94.699 1.484.922l.494-.52a2 2 0 0 1 2.899.001l.498.525a5.281 5.281 0 0 0 1.483-.913l-.198-.686a2 2 0 0 1 1.441-2.496l.584-.144a5.716 5.716 0 0 0-.006-1.808l-.54-.13a2 2 0 0 1-1.45-2.51l.187-.63a5.28 5.28 0 0 0-1.484-.922l-.493.518a2 2 0 0 1-2.9 0l-.498-.525a5.28 5.28 0 0 0-1.483.912l.198.687ZM17.5 16c.8 0 1.45.672 1.45 1.5S18.3 19 17.5 19c-.8 0-1.45-.672-1.45-1.5S16.7 16 17.5 16Z"/></svg>