<svg xmlns="http://www.w3.org/2000/svg" width="24" height="24" viewBox="0 0 24 24"><path d="M7 5v2H5.5A1.5 1.5 0 0 0 4 8.5V18a4 4 0 0 0 4 4h4.168a1.755 1.755 0 0 1 0-1.5H8A2.5 2.5 0 0 1 5.5 18V8.5h7.51v2.832A3.487 3.487 0 0 1 14.5 11h.01V8.5h3.99v5.525l1.5-1.5V8.5A1.5 1.5 0 0 0 18.5 7H17V5a3 3 0 0 0-5-2.236A3 3 0 0 0 7 5Zm4.5 0v2h-3V5a1.5 1.5 0 1 1 3 0Zm4 2H13V5c0-.334-.055-.656-.156-.956A1.5 1.5 0 0 1 15.5 5v2Zm-1 10a2.5 2.5 0 1 0 0-5 2.5 2.5 0 0 0 0 5Zm0-3.5a1 1 0 1 1 0 2 1 1 0 0 1 0-2Zm6 9.5a2.5 2.5 0 1 0 0-5 2.5 2.5 0 0 0 0 5Zm0-3.5a1 1 0 1 1 0 2 1 1 0 0 1 0-2Zm1.28-5.22a.75.75 0 1 0-1.06-1.06l-7.5 7.5a.75.75 0 1 0 1.06 1.06l7.5-7.5Z"/></svg>