<svg xmlns="http://www.w3.org/2000/svg" width="24" height="24"><path d="M18 2a.75.75 0 0 1 .475.169l.075.07 3.273 3.53.03.038c.102.136.148.29.148.44l-.002 1.92c0 .994-.378 1.9-1 2.58V21.25a.75.75 0 0 1-.648.743l-.102.007H3.752a.75.75 0 0 1-.744-.648l-.006-.102L3 10.748a3.818 3.818 0 0 1-.993-2.353L2 8.167V6.29a.728.728 0 0 1 .096-.408l.065-.095.04-.046L5.45 2.24a.75.75 0 0 1 .446-.233L6 2h12Zm-2.918 8.442-.012.018A3.827 3.827 0 0 1 12 12a3.827 3.827 0 0 1-3.084-1.556A3.825 3.825 0 0 1 5.834 12c-.469 0-.918-.084-1.334-.238l.001 8.738H6v-6.748a.75.75 0 0 1 .649-.743L6.75 13h4.496a.75.75 0 0 1 .743.648l.007.102v6.748h7.502v-8.737a3.827 3.827 0 0 1-4.416-1.32Zm-4.587 4.059H7.5v5.998h2.995v-5.998Zm6.76-1.5a.75.75 0 0 1 .743.648l.007.102v3.502a.75.75 0 0 1-.648.743l-.102.007h-3.501a.75.75 0 0 1-.743-.648l-.007-.102v-3.502a.75.75 0 0 1 .648-.743l.102-.007h3.501Zm-.75 1.5h-2.002v2.002h2.001v-2.002Zm-8.34-7.499H3.501v1.165l.007.17.028.232.033.156.05.172.054.148.04.094c.031.068.066.134.103.198l.103.162.054.074.129.156.142.144.096.085.042.034c.315.25.695.422 1.112.483l.18.019.16.005a2.332 2.332 0 0 0 2.327-2.173l.006-.16V7.003Zm6.165 0H9.666v1.165c0 1.18.878 2.157 2.017 2.311l.156.016.16.005a2.332 2.332 0 0 0 2.327-2.173l.006-.16V7.003Zm6.167 0h-4.665l.001 1.165c0 1.18.878 2.157 2.016 2.311l.157.016.16.005c.564 0 1.081-.2 1.485-.534l.09-.078.116-.113.146-.17c.054-.069.104-.14.15-.216l.104-.186.063-.138.058-.155.03-.096.038-.152.028-.157.018-.167.006-.17V7.002ZM9.062 3.499H6.327L4.47 5.502h3.977l.616-2.003Zm4.307 0h-2.738l-.616 2.003h3.97l-.616-2.003Zm4.303 0h-2.734l.616 2.003h3.976l-1.858-2.003Z"/></svg>