<svg xmlns="http://www.w3.org/2000/svg" width="20" height="20"><path d="M3 10a7 7 0 1 1 14 0 7 7 0 0 1-14 0Zm7-8a8 8 0 1 0 0 16 8 8 0 0 0 0-16ZM8.4 7.302a.5.5 0 0 1-.799-.602l.001-.001.05-.063a3.466 3.466 0 0 1 .585-.54c.4-.29 1-.596 1.763-.596A2.5 2.5 0 0 1 12.5 8c0 .787-.326 1.348-.78 1.783-.354.34-.808.619-1.221.872l-.234.144c-.495.31-.928.614-1.245 1.023A2.425 2.425 0 0 0 8.534 13H12a.5.5 0 0 1 0 1H8a.5.5 0 0 1-.5-.5c0-.982.284-1.715.73-2.29.433-.56 1-.943 1.505-1.259.092-.058.182-.113.269-.166.412-.254.755-.465 1.025-.724.296-.284.47-.598.47-1.06A1.5 1.5 0 0 0 10 6.5a1.99 1.99 0 0 0-1.173.404 2.469 2.469 0 0 0-.423.395l-.003.003Z"/></svg>