<svg xmlns="http://www.w3.org/2000/svg" width="24" height="24" viewBox="0 0 24 24"><path d="M18.251 3a2.249 2.249 0 0 0-2.249 2.25v5.924a6.515 6.515 0 0 1 4.498.558V5.25A2.25 2.25 0 0 0 18.251 3Zm-4.25 6.25v2.772A6.495 6.495 0 0 0 11 17.5a6.47 6.47 0 0 0 1.012 3.485 2.249 2.249 0 0 1-2.51-2.234V9.249a2.25 2.25 0 1 1 4.498 0Zm-10.999 4a2.25 2.25 0 1 1 4.498 0v5.5a2.25 2.25 0 1 1-4.498 0v-5.5ZM23 17.5a5.5 5.5 0 1 1-11 0 5.5 5.5 0 0 1 11 0Zm-4.945-3.08a.577.577 0 0 0-1.11 0l-.557 1.788h-1.803c-.566 0-.8.754-.343 1.1l1.458 1.105-.557 1.787c-.175.561.441 1.028.899.681l1.458-1.104 1.458 1.104c.458.347 1.074-.12.899-.68l-.557-1.788 1.458-1.104c.458-.347.223-1.101-.343-1.101h-1.803l-.557-1.787Z"/></svg>