<svg xmlns="http://www.w3.org/2000/svg" width="16" height="16" viewBox="0 0 16 16"><path d="M8 5a.75.75 0 1 0 0-1.5A.75.75 0 0 0 8 5Zm.736-3.545a1.167 1.167 0 0 0-1.472 0L2.262 5.52C1.654 6.016 2.004 7 2.788 7H3v4.2c-.594.303-1 .92-1 1.633v.667a.5.5 0 0 0 .5.5h2.837a3.477 3.477 0 0 1-.302-1H3v-.167c0-.46.373-.833.833-.833h1.202A3.49 3.49 0 0 1 6 10.05V7h1.5v2.145A3.5 3.5 0 0 1 8.5 9V7H10v2h1V7h1v2h.5c.17 0 .337.012.5.035V7.001h.212c.784 0 1.134-.985.525-1.48l-5-4.066Zm-.84.776a.167.167 0 0 1 .21 0L12.741 6H3.258l4.638-3.77ZM5 11H4V7h1v4Zm3.5-1a2.5 2.5 0 1 0 0 5H9a.5.5 0 0 0 0-1h-.5a1.5 1.5 0 0 1 0-3H9a.5.5 0 0 0 0-1h-.5Zm3.5 0a.5.5 0 1 0 0 1h.5a1.5 1.5 0 1 1 0 3H12a.5.5 0 1 0 0 1h.5a2.5 2.5 0 0 0 0-5H12Zm-4 2.5a.5.5 0 0 1 .5-.5h4a.5.5 0 1 1 0 1h-4a.5.5 0 0 1-.5-.5Z"/></svg>