<svg xmlns="http://www.w3.org/2000/svg" width="16" height="16" viewBox="0 0 16 16"><path d="M3.5 2a.5.5 0 0 0-.447.276l-2 4a.5.5 0 0 0 .059.54l4.907 6.039A3.3 3.3 0 0 1 6 12.5c0-.355.074-.693.208-.999L2.55 7h2.583l1.285 4.115c.209-.312.485-.575.809-.767L6.18 7h1.49a3.01 3.01 0 0 1 .594-1H6.14l.75-3h2.22l.53 2.125a3 3 0 0 1 1.001-.122L10.141 3h2.05l1.5 3h-.955c.258.289.462.627.593 1h.12l-.085.105a2.997 2.997 0 0 1 .077 1.492l1.447-1.782a.5.5 0 0 0 .06-.539l-2-4A.5.5 0 0 0 12.5 2h-9ZM2.309 6l1.5-3h2.05l-.75 3h-2.8ZM12.5 8a2 2 0 1 1-4 0 2 2 0 0 1 4 0Zm1.5 4.5c0 1.245-1 2.5-3.5 2.5S7 13.75 7 12.5A1.5 1.5 0 0 1 8.5 11h4a1.5 1.5 0 0 1 1.5 1.5Z"/></svg>