<svg xmlns="http://www.w3.org/2000/svg" width="24" height="24"><path d="M6.75 12a.75.75 0 0 0-.748.818C6.282 15.892 8.552 18.5 12 18.5c3.448 0 5.717-2.608 5.998-5.682A.75.75 0 0 0 17.25 12H6.749ZM12 17c-2.257 0-3.871-1.48-4.368-3.5h8.736C15.872 15.52 14.258 17 12 17Zm3.25-8.25c-.408 0-.71.287-.758.61a.75.75 0 1 1-1.484-.22c.162-1.09 1.123-1.89 2.242-1.89s2.08.8 2.242 1.89a.75.75 0 1 1-1.484.22c-.048-.323-.35-.61-.758-.61Zm-7.258.61c.048-.323.35-.61.758-.61.409 0 .71.287.758.61a.75.75 0 1 0 1.484-.22c-.161-1.09-1.123-1.89-2.242-1.89s-2.08.8-2.242 1.89a.75.75 0 0 0 1.484.22ZM12 2C6.477 2 2 6.477 2 12s4.477 10 10 10 10-4.477 10-10S17.523 2 12 2ZM3.5 12a8.5 8.5 0 1 1 17 0 8.5 8.5 0 0 1-17 0Z"/></svg>