<svg xmlns="http://www.w3.org/2000/svg" width="12" height="12" viewBox="0 0 12 12"><g clip-path="url(#a)"><path d="M2 6a4 4 0 1 1 8 0c0 1.174-.589 1.47-.792 1.481-.108.006-.252-.032-.394-.218C8.662 7.065 8.5 6.675 8.5 6V3.75a.75.75 0 0 0-1.402-.37A2.553 2.553 0 0 0 5.75 3C4.15 3 3 4.429 3 6s1.15 3 2.75 3c.75 0 1.403-.315 1.883-.811.42.54 1.022.826 1.66.79C10.588 8.906 11.5 7.63 11.5 6a5.5 5.5 0 1 0-4.05 5.307.75.75 0 0 0-.394-1.448A4.006 4.006 0 0 1 2 6Zm5 0c0 .914-.64 1.5-1.25 1.5S4.5 6.914 4.5 6s.64-1.5 1.25-1.5S7 5.086 7 6Z"/></g><defs><clipPath id="a"><path d="M0 0h12v12H0z"/></clipPath></defs></svg>