<svg xmlns="http://www.w3.org/2000/svg" width="16" height="16" viewBox="0 0 16 16"><path d="M8 2a5.997 5.997 0 0 1 5.198 3 2.862 2.862 0 0 0-2.096.84l-.734.735a.75.75 0 1 0-1.043 1.043l-2.558 2.557a2.512 2.512 0 0 1-.63-.508.5.5 0 1 0-.746.667c.196.218.42.412.664.576-.296.364-.51.788-.623 1.245l-.282 1.126A6 6 0 0 1 8 2ZM6.25 7.75a.75.75 0 1 0 0-1.5.75.75 0 0 0 0 1.5Zm.73 3.627 4.83-4.83a1.87 1.87 0 1 1 2.644 2.646l-4.83 4.829a2.197 2.197 0 0 1-1.02.578l-1.498.374a.89.89 0 0 1-1.079-1.078l.375-1.498a2.18 2.18 0 0 1 .578-1.02Z"/></svg>