<svg xmlns="http://www.w3.org/2000/svg" width="16" height="16"><path d="M1.463 2.442A1.5 1.5 0 0 1 2.963 1h1.075a1.5 1.5 0 0 1 1.498 1.442l.424 11A1.5 1.5 0 0 1 4.46 15H2.54a1.5 1.5 0 0 1-1.5-1.558l.423-11ZM2.963 2a.5.5 0 0 0-.5.48l-.424 11a.5.5 0 0 0 .5.52h1.922a.5.5 0 0 0 .5-.52l-.424-11a.5.5 0 0 0-.5-.48H2.963ZM13.5 15a1.5 1.5 0 0 0 1.5-1.5v-9a.5.5 0 0 0-.854-.354L11 7.293V4.5a.5.5 0 0 0-.832-.374L6.72 7.191l.05 1.294L10 5.613V8.5a.5.5 0 0 0 .854.354L14 5.707V13.5a.5.5 0 0 1-.5.5H13v-3a1 1 0 0 0-1-1H9a1 1 0 0 0-1 1v3H6.91a2.49 2.49 0 0 1-.45 1h7.04ZM9 14v-3h3v3H9Z"/></svg>