<svg xmlns="http://www.w3.org/2000/svg" width="16" height="16"><path d="M14.561 4.439A1.5 1.5 0 0 0 13.5 4H2V3a.997.997 0 0 0-1-1H.5a.5.5 0 1 0 0 1H1v10.5a.5.5 0 1 0 1 0V12h4v1.5a.5.5 0 0 0 .5.5h6a.5.5 0 0 0 .5-.5V12h.5a1.503 1.503 0 0 0 1.5-1.5v-5c0-.398-.158-.779-.439-1.061ZM4 9.5a.498.498 0 0 1-.5.5.498.498 0 0 1-.5-.5v-3a.5.5 0 1 1 1 0v3Zm2.5.5a.498.498 0 0 1-.5-.5v-3a.5.5 0 1 1 1 0v3a.498.498 0 0 1-.5.5ZM9 13H7v-1h2v1Zm.5-3a.498.498 0 0 1-.5-.5v-3a.5.5 0 1 1 1 0v3a.498.498 0 0 1-.5.5Zm2.5 3h-2v-1h2v1Zm1-3.5a.5.5 0 1 1-1 0v-3a.498.498 0 0 1 .5-.5.498.498 0 0 1 .5.5v3Z"/></svg>