<svg xmlns="http://www.w3.org/2000/svg" width="24" height="24"><path d="M19.75 6.5a2.25 2.25 0 0 1 2.229 1.938l.016.158.005.154v3.06A6.5 6.5 0 0 0 12.023 20H4.25a2.25 2.25 0 0 1-2.245-2.096L2 17.75v-7.251l6.207.001.196-.009a2.25 2.25 0 0 0 1.088-.393l.156-.12L13.821 6.5h5.929ZM8.207 4c.46 0 .908.141 1.284.402l.156.12 2.103 1.751-3.063 2.553-.085.061a.75.75 0 0 1-.29.106L8.206 9 2 8.999V6.25a2.25 2.25 0 0 1 2.096-2.245L4.25 4h3.957ZM23 16.5a5.5 5.5 0 1 1-11 0 5.5 5.5 0 0 1 11 0Zm-6-1.793V19.5a.5.5 0 0 0 1 0v-4.793l1.646 1.647a.5.5 0 0 0 .708-.708l-2.5-2.5a.5.5 0 0 0-.708 0l-2.5 2.5a.5.5 0 0 0 .708.708L17 14.707Z"/></svg>