<svg xmlns="http://www.w3.org/2000/svg" width="16" height="16" viewBox="0 0 16 16"><path d="M7 4.5v5a2.5 2.5 0 0 1-5 0V9a.5.5 0 0 1 1 0v.5a1.5 1.5 0 1 0 3 0v-5a.5.5 0 0 1 1 0Zm3.676 3.033C9.633 7.142 9 6.86 9 6.25 9 5.328 9.808 5 10.5 5s1.5.327 1.5 1.25a.5.5 0 0 0 1 0 2.28 2.28 0 0 0-1.567-2.146 3.223 3.223 0 0 0-1.866 0A2.281 2.281 0 0 0 8 6.25c0 1.347 1.289 1.83 2.324 2.218C11.359 8.857 12 9.142 12 9.75c0 .923-.808 1.25-1.5 1.25S9 10.674 9 9.75a.5.5 0 0 0-1 0A2.28 2.28 0 0 0 10.5 12 2.28 2.28 0 0 0 13 9.75c0-1.35-1.289-1.83-2.324-2.218Z"/></svg>