<svg xmlns="http://www.w3.org/2000/svg" width="24" height="24" viewBox="0 0 24 24"><path d="M16 6a4 4 0 0 0-8 0v2H5.5A1.5 1.5 0 0 0 4 9.5v11A1.5 1.5 0 0 0 5.5 22H11v-.19c0-.463.184-.909.513-1.237l3.52-3.52A4.5 4.5 0 0 1 20 12.027V9.5A1.5 1.5 0 0 0 18.501 8H16V6Zm-1.5 2h-5V6a2.5 2.5 0 0 1 5 0v2Zm-4 7a1.5 1.5 0 1 1 3 0 1.5 1.5 0 0 1-3 0ZM23 16.5a3.5 3.5 0 0 1-3.5 3.5H18v1a.5.5 0 0 1-.5.5h-1v1a.5.5 0 0 1-.5.5h-1v.5a.5.5 0 0 1-.5.5h-1.75a.75.75 0 0 1-.75-.75v-1.44a.75.75 0 0 1 .22-.53l3.75-3.75a.75.75 0 0 1 .15-.116A3.5 3.5 0 1 1 23 16.5Zm-3 .5a1 1 0 1 0 0-2 1 1 0 0 0 0 2Z"/></svg>