<svg xmlns="http://www.w3.org/2000/svg" width="20" height="20"><path d="M16.5 3a.5.5 0 0 1 .5.5v4a.5.5 0 0 1-1 0V4.707l-4.647 4.647a.5.5 0 0 1-.707 0L9 7.707l-5.146 5.147a.5.5 0 0 1-.708-.708l5.5-5.5a.5.5 0 0 1 .708 0L11 8.293 15.293 4H12.5a.5.5 0 0 1 0-1h4Zm-4.435 8.442a2 2 0 0 1-1.43 2.478l-.461.118a4.735 4.735 0 0 0 .01 1.016l.35.083a2 2 0 0 1 1.455 2.519l-.126.423c.257.203.537.377.835.517l.325-.344a2 2 0 0 1 2.909.002l.337.358c.293-.135.568-.302.822-.498l-.156-.556a2 2 0 0 1 1.43-2.478l.461-.118a4.731 4.731 0 0 0-.01-1.017l-.349-.082a2 2 0 0 1-1.456-2.52l.126-.421a4.318 4.318 0 0 0-.835-.519l-.324.344a2 2 0 0 1-2.91-.001l-.337-.358a4.316 4.316 0 0 0-.822.497l.156.557ZM14.5 15.5a1 1 0 1 1 0-2 1 1 0 0 1 0 2Z"/></svg>