<svg xmlns="http://www.w3.org/2000/svg" width="20" height="20"><path d="M16 3.991a2 2 0 0 1-2.647 1.893l-1.284 1.943c.108.104.21.216.302.334-.34.1-.661.244-.957.425A2 2 0 1 0 9.5 11.937v1.021a3 3 0 0 1-1.91-1.173l-1.635.787a2 2 0 1 1-.452-.892l1.633-.787a2.999 2.999 0 0 1 .637-2.902l-.935-1.174a2 2 0 1 1 .775-.632l.944 1.185C8.984 7.134 9.476 7 10 7c.442 0 .862.096 1.24.268l1.278-1.934A2 2 0 1 1 16 3.991Zm-1 0a1 1 0 1 0-2 0 1 1 0 0 0 2 0ZM6 6a1 1 0 1 0 0-2 1 1 0 0 0 0 2Zm-1 7a1 1 0 1 0-2 0 1 1 0 0 0 2 0Zm5.5-1a3 3 0 0 1 6 0v2l1.32 1.119a.5.5 0 0 1-.324.881H9.503a.5.5 0 0 1-.323-.881L10.5 14v-2Zm3 6a1.501 1.501 0 0 1-1.415-1h2.829a1.5 1.5 0 0 1-1.415 1Z"/></svg>