<svg xmlns="http://www.w3.org/2000/svg" width="24" height="24" viewBox="0 0 24 24"><path d="M22.002 12.002C22.002 6.478 17.524 2 12 2 6.476 2 2 6.478 2 12.002c0 5.523 4.477 10.001 10.001 10.001 5.524 0 10.002-4.478 10.002-10.001Zm-14.25-2a1.25 1.25 0 1 1 2.498 0 1.25 1.25 0 0 1-2.499 0Zm6 0a1.25 1.25 0 1 1 2.498 0 1.25 1.25 0 0 1-2.499 0Zm-3.616 5.106c.483.29 1.155.455 1.864.455.71 0 1.381-.165 1.864-.455a.75.75 0 1 1 .772 1.286c-.767.46-1.72.67-2.636.67-.916 0-1.869-.21-2.636-.67a.75.75 0 1 1 .772-1.286Z"/></svg>