<svg xmlns="http://www.w3.org/2000/svg" width="16" height="16" viewBox="0 0 16 16"><path d="M10 1a2 2 0 0 0-2 2v3a2 2 0 1 0 4 0V3a2 2 0 0 0-2-2Zm0 6a1 1 0 0 1-1-1V3a1 1 0 1 1 2 0v3a1 1 0 0 1-1 1Zm-8.5 3a.5.5 0 0 0-.5.5v4a.5.5 0 0 0 1 0V13h1.5a.5.5 0 0 0 0-1H2v-1h2.5a.5.5 0 0 0 0-1h-3Zm5 0a.5.5 0 0 0-.5.5v4a.5.5 0 0 0 1 0v-1h1.25a1.75 1.75 0 1 0 0-3.5H6.5Zm1.75 2.5H7V11h1.25a.75.75 0 0 1 0 1.5Zm2.75-1a1.5 1.5 0 0 1 1.5-1.5h2a.5.5 0 0 1 0 1h-2a.5.5 0 0 0 0 1h1a1.5 1.5 0 0 1 0 3h-2a.5.5 0 0 1 0-1h2a.5.5 0 0 0 0-1h-1a1.5 1.5 0 0 1-1.5-1.5ZM5 4a1 1 0 1 0-.921-1.39c-.086.204-.258.39-.48.39-.33 0-.608-.275-.51-.591A2 2 0 1 1 6.323 4.5a2 2 0 1 1-3.234 2.091c-.098-.316.18-.591.51-.591.222 0 .393.186.48.39A1 1 0 1 0 4.999 5a.5.5 0 1 1 0-1Z"/></svg>