<svg xmlns="http://www.w3.org/2000/svg" width="24" height="24"><path d="M17.5 12a5.5 5.5 0 1 1 0 11 5.5 5.5 0 0 1 0-11Zm-13-2.628v8.378a1.75 1.75 0 0 0 1.607 1.744l.143.006h5.064c.172.534.412 1.038.709 1.501L6.25 21a3.25 3.25 0 0 1-3.245-3.066L3 17.75V9.372a2.247 2.247 0 0 0 1.5 0Zm10.593 5.594-.07.058-.057.07a.5.5 0 0 0 0 .568l.058.07 1.77 1.769-1.768 1.766-.057.07a.5.5 0 0 0 0 .568l.058.07.069.057a.5.5 0 0 0 .568 0l.07-.057 1.766-1.767 1.77 1.769.069.058a.5.5 0 0 0 .568 0l.07-.058.058-.07a.5.5 0 0 0 0-.568l-.058-.07-1.77-1.768 1.772-1.77.058-.069a.5.5 0 0 0 0-.569l-.058-.069-.069-.058a.5.5 0 0 0-.569 0l-.069.058-1.771 1.77-1.77-1.77-.07-.058a.5.5 0 0 0-.492-.043l-.076.043Zm-2.286-1.963c-.426.444-.79.95-1.076 1.5H8.748a.75.75 0 0 1-.102-1.493l.102-.007h4.059ZM17.75 3a3.25 3.25 0 0 1 3.245 3.066L21 6.25v5.772a6.47 6.47 0 0 0-1.5-.708V6.25a1.75 1.75 0 0 0-1.606-1.744L17.75 4.5H6.25c-.6 0-1.13.302-1.445.763a2.234 2.234 0 0 0-1.581-.201 3.253 3.253 0 0 1 2.842-2.057L6.25 3h11.5Zm-2.498 6.496a.75.75 0 0 1 .102 1.493l-.102.007H8.748a.75.75 0 0 1-.102-1.493l.102-.007h6.504ZM3.75 6a1.25 1.25 0 1 1 0 2.5 1.25 1.25 0 0 1 0-2.5Z"/></svg>