<svg xmlns="http://www.w3.org/2000/svg" width="16" height="16"><path d="M2.75 2a.5.5 0 0 0-.485.379l-.25 1a.5.5 0 1 0 .97.242L3.14 3h2.723l-1.4 8h-.736a.5.5 0 0 0 0 1h2.295a5.571 5.571 0 0 1 0-1h-.544l1.4-8H9.86l-.095.379a.5.5 0 1 0 .97.242l.25-1A.5.5 0 0 0 10.5 2H2.75ZM1.5 13h4.707c.099.349.23.683.393 1H1.5a.5.5 0 0 1 0-1ZM16 11.5a4.5 4.5 0 1 1-9 0 4.5 4.5 0 0 1 9 0Zm-2.646-1.146a.5.5 0 0 0-.708-.708L11.5 10.793l-1.146-1.147a.5.5 0 0 0-.708.708l1.147 1.146-1.147 1.146a.5.5 0 0 0 .708.708l1.146-1.147 1.146 1.147a.5.5 0 0 0 .708-.708L12.207 11.5l1.147-1.146Z"/></svg>