<svg xmlns="http://www.w3.org/2000/svg" width="20" height="20" viewBox="0 0 20 20"><path d="M10 6.5V2H5.5A1.5 1.5 0 0 0 4 3.5v5.55c.162-.033.329-.05.5-.05h2c.818 0 1.544.393 2 1h5a.5.5 0 0 1 0 1H8.95l.008.042A2.5 2.5 0 0 1 10.5 12h3a.5.5 0 0 1 0 1h-2.55c.033.162.05.329.05.5v.5h2.5a.5.5 0 0 1 0 1H11v2.5c0 .171-.017.338-.05.5h3.55a1.5 1.5 0 0 0 1.5-1.5V8h-4.5A1.5 1.5 0 0 1 10 6.5Zm1 0V2.25L15.75 7H11.5a.5.5 0 0 1-.5-.5ZM3 12v-.5A1.5 1.5 0 0 1 4.5 10h2A1.5 1.5 0 0 1 8 11.5v.5h.5a1.5 1.5 0 0 1 1.5 1.5V15H8v-.5a.5.5 0 0 0-1 0v.5H4v-.5a.5.5 0 0 0-1 0v.5H1v-1.5A1.5 1.5 0 0 1 2.5 12H3Zm4-.5a.5.5 0 0 0-.5-.5h-2a.5.5 0 0 0-.5.5v.5h3v-.5ZM8 16h2v1.5A1.5 1.5 0 0 1 8.5 19h-6A1.5 1.5 0 0 1 1 17.5V16h2v.5a.5.5 0 0 0 1 0V16h3v.5a.5.5 0 0 0 1 0V16Z"/></svg>