<svg xmlns="http://www.w3.org/2000/svg" width="20" height="20"><path d="M14.5 10a4.5 4.5 0 1 1 0-9 4.5 4.5 0 0 1 0 9Zm1.604-7.104a.5.5 0 0 0-.708.708l.897.896H14.75A2.75 2.75 0 0 0 12 7.25v.25a.5.5 0 0 0 1 0v-.25c0-.966.784-1.75 1.75-1.75h1.543l-.897.896a.5.5 0 0 0 .708.708l1.752-1.753a.5.5 0 0 0-.002-.705l-1.75-1.75ZM4 3h5.6a5.5 5.5 0 0 0 4.4 7.978V11a2 2 0 0 1-2 2H4a2 2 0 0 1-2-2V5a2 2 0 0 1 2-2Zm11 7.978a5.489 5.489 0 0 0 1-.185V11a4 4 0 0 1-4 4H6a2 2 0 0 1-1.732-1H12a3 3 0 0 0 3-3v-.022Zm3-1.235a5.507 5.507 0 0 1-1 .657v.6a5 5 0 0 1-5 5H6.268A2 2 0 0 0 8 17h4a6 6 0 0 0 6-6V9.743Z"/></svg>