<svg xmlns="http://www.w3.org/2000/svg" width="20" height="20" viewBox="0 0 20 20"><path d="M1 5.5A4.5 4.5 0 0 1 5.502 1 4.5 4.5 0 1 1 1 5.5Zm6.399.896-.897.897V5.75A2.75 2.75 0 0 0 3.751 3h-.25a.5.5 0 1 0 0 1h.25c.967 0 1.75.784 1.75 1.75v1.543l-.896-.897a.5.5 0 0 0-.707.708L5.65 8.856a.499.499 0 0 0 .706-.002l1.75-1.75a.5.5 0 1 0-.707-.708ZM11 5.5a5.501 5.501 0 0 1-8.006 4.899V16a2 2 0 0 0 2 2h8.003A2 2 0 0 0 15 16V4a2 2 0 0 0-2-2H9.742A5.476 5.476 0 0 1 11 5.5Zm5 .5h.5a.5.5 0 0 1 .5.5V8a.5.5 0 0 1-.5.5H16V6Zm0 3.5h.5a.5.5 0 0 1 .5.5v1.5a.5.5 0 0 1-.5.5H16V9.5Zm0 3.5h.5a.5.5 0 0 1 .5.5V15a.5.5 0 0 1-.5.5H16V13Z"/></svg>