<svg xmlns="http://www.w3.org/2000/svg" width="20" height="20" viewBox="0 0 20 20"><path d="M2 10.533V4.5A2.5 2.5 0 0 1 4.5 2h6.057a2.487 2.487 0 0 1 2.029 1.121A2.486 2.486 0 0 1 13 4.5V7h2.5a2.502 2.502 0 0 1 2.292 1.5c.134.307.208.645.208 1v6a2.5 2.5 0 0 1-2.5 2.5h-6a2.492 2.492 0 0 1-1.908-.885A2.494 2.494 0 0 1 7 15.5V13H4.5a2.486 2.486 0 0 1-2.086-1.121 2.488 2.488 0 0 1-.413-1.322v-.024ZM12 8H9.5A1.5 1.5 0 0 0 8 9.5V12h2.5a1.5 1.5 0 0 0 1.5-1.5V8ZM3 9.557v.943c0 .232.052.451.146.647l8-8A1.494 1.494 0 0 0 10.5 3h-.943L3 9.557ZM8.143 3H6.557L3 6.557v1.586L8.143 3ZM3 5.143 5.143 3H4.5A1.5 1.5 0 0 0 3 4.5v.643Zm8.854-1.29L8.499 7.21A2.492 2.492 0 0 1 9.5 7h.793L12 5.293V4.5c0-.232-.053-.45-.146-.647ZM7.209 8.5l-3.356 3.355c.196.094.415.146.647.146h.793L7 10.293V9.5c0-.356.074-.695.209-1.001ZM8 13.707v1.586L10.293 13H8.707L8 13.707Zm5-3.414L15.293 8h-1.586L13 8.707v1.586Zm3.404-1.99-8.1 8.101a1.5 1.5 0 0 0 1.002.584l7.682-7.683a1.499 1.499 0 0 0-.584-1.002ZM17 10.707 10.707 17h1.586L17 12.293v-1.586Zm0 3L13.707 17h1.586L17 15.293v-1.586Z"/></svg>