<svg xmlns="http://www.w3.org/2000/svg" width="24" height="24" viewBox="0 0 24 24"><path d="M7.25 8a.75.75 0 0 1 .75.75v2.75h2V8.75a.75.75 0 0 1 1.5 0v6.5a.75.75 0 0 1-1.5 0V13H8v2.25a.75.75 0 0 1-1.5 0v-6.5A.75.75 0 0 1 7.25 8Zm6.5 0a.75.75 0 0 0-.75.75v6.5c0 .414.336.75.75.75h1A3.25 3.25 0 0 0 18 12.75v-1.5A3.25 3.25 0 0 0 14.75 8h-1Zm.75 6.5v-5h.25c.966 0 1.75.784 1.75 1.75v1.5a1.75 1.75 0 0 1-1.75 1.75h-.25ZM3 6.25A3.25 3.25 0 0 1 6.25 3h11.5A3.25 3.25 0 0 1 21 6.25v11.5A3.25 3.25 0 0 1 17.75 21H6.25A3.25 3.25 0 0 1 3 17.75V6.25ZM6.25 4.5A1.75 1.75 0 0 0 4.5 6.25v11.5c0 .966.784 1.75 1.75 1.75h11.5a1.75 1.75 0 0 0 1.75-1.75V6.25a1.75 1.75 0 0 0-1.75-1.75H6.25Z"/></svg>