<svg xmlns="http://www.w3.org/2000/svg" width="24" height="24"><path d="M3 5.75A2.75 2.75 0 0 1 5.75 3h12.5A2.75 2.75 0 0 1 21 5.75v4.988a5.002 5.002 0 0 1-1.5-.894V5.75c0-.69-.56-1.25-1.25-1.25H5.75c-.69 0-1.25.56-1.25 1.25v12.5c0 .69.56 1.25 1.25 1.25h7.244a6.67 6.67 0 0 0 1.188 1.5H5.75A2.75 2.75 0 0 1 3 18.25V5.75Zm15.355 4.397C19.595 11.389 20.969 12 22.5 12a.5.5 0 0 1 .492.41l.008.09v3.001c0 3.219-1.641 5.406-4.842 6.473a.499.499 0 0 1-.316 0c-3.104-1.034-4.741-3.123-4.837-6.183l-.005-.29V12.5a.5.5 0 0 1 .5-.5c1.53 0 2.904-.611 4.147-1.854a.5.5 0 0 1 .708 0Zm-2.39 3.692-.069.057-.057.07a.5.5 0 0 0 0 .568l.057.07L17.293 16l-1.397 1.396-.057.07a.5.5 0 0 0 0 .568l.057.07.07.057a.5.5 0 0 0 .568 0l.07-.057L18 16.707l1.396 1.397.07.057a.5.5 0 0 0 .568 0l.07-.057.057-.07a.5.5 0 0 0 0-.568l-.057-.07L18.707 16l1.397-1.396.057-.07a.5.5 0 0 0 0-.568l-.057-.07-.07-.057a.5.5 0 0 0-.568 0l-.07.057L18 15.293l-1.396-1.397-.07-.057a.5.5 0 0 0-.492-.044l-.076.044Z"/></svg>