<svg xmlns="http://www.w3.org/2000/svg" width="20" height="20"><path d="M13.999 7.5a1.5 1.5 0 1 1-3 0 1.5 1.5 0 0 1 3 0Zm-1 0a.5.5 0 1 0-1 0 .5.5 0 0 0 1 0ZM3 6a3 3 0 0 1 3-3h7.999a3 3 0 0 1 3 3v3.002a2.87 2.87 0 0 0-1 .229V6a2 2 0 0 0-2-2h-8a2 2 0 0 0-2 2v7.999c0 .372.103.721.28 1.02l4.669-4.588a1.5 1.5 0 0 1 2.102 0l1.745 1.715-.707.707-1.738-1.709a.5.5 0 0 0-.701 0l-4.661 4.58A1.99 1.99 0 0 0 6 16h3.474c-.016.05-.03.103-.043.155L9.22 17H6a3 3 0 0 1-3-3V6Zm7.979 9.376 4.829-4.83a1.87 1.87 0 1 1 2.644 2.646l-4.829 4.828a2.197 2.197 0 0 1-1.02.578l-1.498.375a.89.89 0 0 1-1.078-1.079l.374-1.498c.097-.386.296-.739.578-1.02Z"/></svg>