<svg xmlns="http://www.w3.org/2000/svg" width="20" height="20"><path d="M13.494 3.25a.75.75 0 0 1 .698.504l3.652 10.5a.75.75 0 0 1-1.417.492l-.781-2.246H11.06l-.86 2.266a.75.75 0 1 1-1.402-.532l3.984-10.5a.75.75 0 0 1 .712-.484ZM11.63 11h3.494l-1.671-4.805L11.63 11ZM4.902 8.937c-.458.018-.85.124-1.068.234a.75.75 0 0 1-.671-1.342c.447-.224 1.056-.367 1.681-.39.63-.025 1.346.069 1.99.39 1.42.71 1.416 2.125 1.414 2.628V14.5a.75.75 0 0 1-1.498.056c-.871.538-1.89.85-2.945.57-2.077-.555-2.801-3.365-.723-4.75.774-.516 1.702-.652 2.526-.61.379.02.753.077 1.105.162-.055-.31-.196-.58-.55-.757-.357-.179-.807-.251-1.261-.234Zm1.846 2.562a4.512 4.512 0 0 0-1.216-.235c-.629-.032-1.201.082-1.618.36-.924.616-.646 1.805.278 2.052.75.2 1.668-.183 2.556-.996V11.5Z"/></svg>