<svg xmlns="http://www.w3.org/2000/svg" width="28" height="28"><path d="M9.5 4a4.5 4.5 0 1 0 0 9 4.5 4.5 0 0 0 0-9Zm-3 4.5a3 3 0 1 1 6 0 3 3 0 0 1-6 0ZM20 6a3.5 3.5 0 1 0 0 7 3.5 3.5 0 0 0 0-7Zm-2 3.5a2 2 0 1 1 4 0 2 2 0 0 1-4 0ZM4.25 15A2.25 2.25 0 0 0 2 17.25v.531a2.202 2.202 0 0 0 .017.242c.017.153.049.363.11.612a5.11 5.11 0 0 0 .867 1.815C4.008 21.803 5.942 23 9.5 23c1.531 0 2.762-.222 3.747-.582a7.49 7.49 0 0 1-.236-1.518c-.836.355-1.97.6-3.511.6-3.192 0-4.633-1.053-5.306-1.95a3.588 3.588 0 0 1-.61-1.279 3.032 3.032 0 0 1-.083-.508l-.001-.018v-.495a.75.75 0 0 1 .75-.75h9.905a7.532 7.532 0 0 1 1.168-1.426A2.254 2.254 0 0 0 14.75 15H4.25Zm12.546 1.698a2 2 0 0 1-1.441 2.497l-1.024.253a6.804 6.804 0 0 0 .008 2.152l.976.235a2 2 0 0 1 1.45 2.51l-.324 1.098c.518.46 1.11.835 1.753 1.1l.843-.886a2 2 0 0 1 2.899 0l.85.895a6.204 6.204 0 0 0 1.751-1.09l-.335-1.16a2 2 0 0 1 1.441-2.495l1.026-.254a6.807 6.807 0 0 0-.008-2.152l-.977-.235a2 2 0 0 1-1.45-2.51l.324-1.1a6.208 6.208 0 0 0-1.753-1.1l-.843.888a2 2 0 0 1-2.9 0l-.849-.895a6.203 6.203 0 0 0-1.752 1.09l.335 1.16ZM20.5 22a1.5 1.5 0 1 1 0-3 1.5 1.5 0 0 1 0 3Z"/></svg>