<svg xmlns="http://www.w3.org/2000/svg" width="16" height="16" viewBox="0 0 16 16"><path d="M2 4.25A2.25 2.25 0 0 1 4.25 2h3.5A2.25 2.25 0 0 1 10 4.25v3.5a2.25 2.25 0 0 1-1.5 2.122V4.25a.75.75 0 0 0-.75-.75h-3.5a.75.75 0 0 0-.75.75v3.5c0 .414.336.75.75.75H5V10h-.75A2.25 2.25 0 0 1 2 7.75v-3.5Zm4 7.5A2.25 2.25 0 0 0 8.25 14h3.5A2.25 2.25 0 0 0 14 11.75v-3.5A2.25 2.25 0 0 0 11.75 6H11v1.5h.75a.75.75 0 0 1 .75.75v3.5a.75.75 0 0 1-.75.75h-3.5a.75.75 0 0 1-.75-.75V6.128A2.25 2.25 0 0 0 6 8.25v3.5Z"/></svg>