<svg xmlns="http://www.w3.org/2000/svg" width="48" height="48"><path d="M46 13c0 6.075-4.925 11-11 11s-11-4.925-11-11S28.925 2 35 2s11 4.925 11 11Zm-4.293-4.707a1 1 0 0 0-1.414 0L33 15.586l-3.293-3.293a1 1 0 0 0-1.414 1.414l4 4a1 1 0 0 0 1.414 0l8-8a1 1 0 0 0 0-1.414ZM35 26c3.493 0 6.664-1.378 9-3.62v6.37A7.25 7.25 0 0 1 36.75 36H26.397l-10.85 7.658C14.057 44.71 12 43.644 12 41.82V36h-.75A7.25 7.25 0 0 1 4 28.75v-15.5A7.25 7.25 0 0 1 11.25 6h12.794A12.94 12.94 0 0 0 22 13c0 7.18 5.82 13 13 13Z"/></svg>