<svg xmlns="http://www.w3.org/2000/svg" width="28" height="28"><path d="M3 6.75A3.75 3.75 0 0 1 6.75 3h14.5A3.75 3.75 0 0 1 25 6.75v14.5A3.75 3.75 0 0 1 21.25 25H6.75A3.75 3.75 0 0 1 3 21.25V6.75ZM6.75 4.5A2.25 2.25 0 0 0 4.5 6.75v14.5c0 .361.085.702.236 1.005l7.866-7.688a2 2 0 0 1 2.796 0l7.866 7.688a2.26 2.26 0 0 0 .236-1.005V6.75a2.25 2.25 0 0 0-2.25-2.25H6.75Zm15.434 18.797L14.35 15.64a.5.5 0 0 0-.699 0l-7.835 7.657c.285.13.601.203.935.203h14.5c.333 0 .65-.073.934-.203ZM18.5 11a1 1 0 1 1 0-2 1 1 0 0 1 0 2Zm0 1.5a2.5 2.5 0 1 0 0-5 2.5 2.5 0 0 0 0 5Z"/></svg>