<svg xmlns="http://www.w3.org/2000/svg" width="16" height="16" viewBox="0 0 16 16"><path d="M12 10.793V13a1 1 0 0 1-1 1H3a1 1 0 0 1-1-1V8.876l4.763 2.564a.5.5 0 0 0 .474 0l1.411-.76a5.485 5.485 0 0 1-1.104-.54L7 10.431 2 7.74V7a1 1 0 0 1 1-1h2.022a5.57 5.57 0 0 1 0-1H3a2 2 0 0 0-2 2v6a2 2 0 0 0 2 2h8a2 2 0 0 0 2-2v-2.6a5.467 5.467 0 0 1-1 .393ZM6 5.5a4.5 4.5 0 1 0 9 0 4.5 4.5 0 0 0-9 0Zm5.396-2.604a.5.5 0 0 1 .708 0l1.75 1.75a.5.5 0 0 1 .002.705l-1.752 1.753a.5.5 0 0 1-.708-.708l.897-.896H10.75A1.75 1.75 0 0 0 9 7.25v.25a.5.5 0 0 1-1 0v-.25a2.75 2.75 0 0 1 2.75-2.75h1.543l-.897-.896a.5.5 0 0 1 0-.708Z"/></svg>