<svg xmlns="http://www.w3.org/2000/svg" width="16" height="16" viewBox="0 0 16 16"><path d="M6.332 5A1.75 1.75 0 1 1 4.75 4h4.5a1.75 1.75 0 0 1 1.586 1.01 5.59 5.59 0 0 0-1.256.067.747.747 0 0 0-.948.248 5.48 5.48 0 0 0-1.127.561A1.776 1.776 0 0 1 7.668 5H6.332ZM4 5.75a.75.75 0 1 0 1.5 0 .75.75 0 0 0-1.5 0Zm8-3.25v2.707c.349.099.683.23 1 .393V2.5A1.5 1.5 0 0 0 11.5 1h-9A1.5 1.5 0 0 0 1 2.5V9a1.5 1.5 0 0 0 1.5 1.5H5c0-.341.031-.676.09-1H2.5A.5.5 0 0 1 2 9V2.5a.5.5 0 0 1 .5-.5h9a.5.5 0 0 1 .5.5ZM10.5 15a4.5 4.5 0 1 1 0-9 4.5 4.5 0 0 1 0 9Zm.896-6.396.897.896H10.75A2.75 2.75 0 0 0 8 12.25v.25a.5.5 0 0 0 1 0v-.25c0-.966.784-1.75 1.75-1.75h1.543l-.897.896a.5.5 0 0 0 .708.708l1.752-1.753a.499.499 0 0 0-.002-.705l-1.75-1.75a.5.5 0 0 0-.708.708Z"/></svg>