<svg xmlns="http://www.w3.org/2000/svg" width="16" height="16" viewBox="0 0 16 16"><path d="M5.5 7H5v1h.5a.498.498 0 0 0 .5-.5.5.5 0 0 0-.5-.5Zm4.25 2H9v1h.75a.5.5 0 1 0 0-1Zm.104-1.146A.5.5 0 0 0 9.5 7H9v1h.5c.133 0 .26-.053.354-.146ZM12.25 3h-9.5C1.785 3 1 3.785 1 4.75v7.5c0 .965.785 1.75 1.75 1.75h9.5c.965 0 1.75-.785 1.75-1.75v-7.5C14 3.785 13.215 3 12.25 3Zm-5.034 7.685a.498.498 0 0 1-.464.315c-.476 0-.59-.459-.7-.9C5.962 9.745 5.776 9 5.5 9H5v1.5a.5.5 0 1 1-1 0v-4a.5.5 0 0 1 .5-.5h1a1.497 1.497 0 0 1 1.453 1.824 1.503 1.503 0 0 1-.432.764c.237.393.406.823.5 1.272.027.108.048.204.073.277a.495.495 0 0 1 .12.547l.002.001Zm3.941-.664A1.496 1.496 0 0 1 9.75 11H8.5a.5.5 0 0 1-.5-.5v-4a.5.5 0 0 1 .5-.5h1a1.5 1.5 0 0 1 1.227 2.361 1.494 1.494 0 0 1 .429 1.659l.001.001Z"/></svg>