<svg xmlns="http://www.w3.org/2000/svg" width="28" height="28" viewBox="0 0 28 28"><path d="M9 12.25A3.25 3.25 0 0 1 12.25 9h3.5A3.25 3.25 0 0 1 19 12.25 1.75 1.75 0 0 1 17.25 14h-6.5A1.75 1.75 0 0 1 9 12.25Zm3.25-1.75a1.75 1.75 0 0 0-1.75 1.75c0 .138.112.25.25.25h6.5a.25.25 0 0 0 .25-.25 1.75 1.75 0 0 0-1.75-1.75h-3.5ZM14 2a5.001 5.001 0 0 0-4.936 4.198A9.748 9.748 0 0 0 4 14.75v7.5A3.75 3.75 0 0 0 7.75 26h12.5A3.75 3.75 0 0 0 24 22.25v-7.5a9.748 9.748 0 0 0-5.064-8.552A5.001 5.001 0 0 0 14 2Zm-.25 3c-1.003 0-1.97.151-2.88.432a3.5 3.5 0 0 1 6.26 0A9.748 9.748 0 0 0 14.25 5h-.5Zm0 1.5h.5a8.25 8.25 0 0 1 8.25 8.25V16h-17v-1.25a8.25 8.25 0 0 1 8.25-8.25ZM9 17.5v1.75a.75.75 0 0 0 1.5 0V17.5h12v4.75a2.25 2.25 0 0 1-2.25 2.25H7.75a2.25 2.25 0 0 1-2.25-2.25V17.5H9Z"/></svg>