<svg xmlns="http://www.w3.org/2000/svg" width="16" height="16"><path d="m12.309 13.016 1.837 1.838a.5.5 0 0 0 .708-.708l-13-13a.5.5 0 1 0-.708.708L2.414 3.12A2.496 2.496 0 0 0 2 4.5v5A2.5 2.5 0 0 0 4.5 12h5c.51 0 .983-.152 1.379-.414l.717.717A3.485 3.485 0 0 1 9.5 13H5c.456.607 1.182 1 2 1h2.5a4.48 4.48 0 0 0 2.809-.984Zm-2.162-2.162A1.494 1.494 0 0 1 9.5 11h-5c-.232 0-.45-.053-.647-.146l2.645-2.645a.71.71 0 0 1 1.001-.003l.003.003 2.645 2.645ZM6.402 7.109a1.704 1.704 0 0 0-.611.393l-2.645 2.645A1.494 1.494 0 0 1 3 9.5v-5c0-.232.052-.45.146-.647L6.402 7.11ZM11 4.5v4.379l.975.975c.017-.116.025-.234.025-.354v-5A2.5 2.5 0 0 0 9.5 2h-5c-.12 0-.238.008-.354.025L5.121 3H9.5A1.5 1.5 0 0 1 11 4.5Zm1.797 6.176.764.764A4.483 4.483 0 0 0 14 9.5V6c0-.818-.393-1.544-1-2v5.5c0 .413-.072.809-.203 1.176ZM10 5a1 1 0 1 1-2 0 1 1 0 0 1 2 0Z"/></svg>