<svg xmlns="http://www.w3.org/2000/svg" width="24" height="24" viewBox="0 0 24 24"><path d="M6.238 3c.967 0 1.75.784 1.75 1.75v14.5A1.75 1.75 0 0 1 6.238 21h-2.5a1.75 1.75 0 0 1-1.75-1.75V4.75a1.75 1.75 0 0 1 1.607-1.743L3.738 3h2.5Zm14.026 0c.967 0 1.75.784 1.75 1.75v6.516a3.287 3.287 0 0 0-3.62.696l-2.38 2.38V4.75c0-.967.784-1.75 1.75-1.75h2.5ZM18.65 21l3.365-3.365v1.616a1.75 1.75 0 0 1-1.75 1.75H18.65Zm-6.158-3.135 2.497-2.497V4.75A1.75 1.75 0 0 0 13.238 3h-2.5a1.75 1.75 0 0 0-1.75 1.75v14.5c0 .966.784 1.75 1.75 1.75h.428l.356-1.423c.162-.648.497-1.24.97-1.712Zm6.61-5.195L13.2 18.572a2.685 2.685 0 0 0-.707 1.247l-.457 1.831c-.2.796.522 1.517 1.318 1.318l1.83-.457a2.684 2.684 0 0 0 1.248-.707l5.902-5.902a2.286 2.286 0 0 0-3.232-3.232Z"/></svg>