<svg xmlns="http://www.w3.org/2000/svg" width="24" height="24"><path d="M3.5 12a8.5 8.5 0 1 1 17 0 8.5 8.5 0 0 1-17 0ZM12 2C6.477 2 2 6.477 2 12s4.477 10 10 10 10-4.477 10-10S17.523 2 12 2Zm-1.649 6.95-.001.003a.75.75 0 0 1-1.199-.902l.001-.001a3.66 3.66 0 0 1 .228-.263c.137-.143.336-.33.593-.518.512-.373 1.289-.769 2.276-.769a3.25 3.25 0 0 1 3.25 3.25c0 1.028-.43 1.747-1.034 2.28-.461.408-1.053.727-1.568 1.004l-.286.154c-.616.34-1.13.665-1.5 1.116a2.58 2.58 0 0 0-.546 1.196h4.185a.75.75 0 0 1 0 1.5h-5a.75.75 0 0 1-.75-.75c0-1.254.364-2.183.952-2.898.566-.69 1.303-1.13 1.937-1.478l.343-.187c.514-.278.92-.498 1.24-.78.333-.295.528-.623.527-1.157A1.75 1.75 0 0 0 12.25 8c-.574 0-1.046.23-1.393.481a2.962 2.962 0 0 0-.505.47Z"/></svg>