<svg xmlns="http://www.w3.org/2000/svg" width="20" height="20"><path d="M2 4.5A1.5 1.5 0 0 1 3.5 3h13A1.5 1.5 0 0 1 18 4.5v4a1.5 1.5 0 0 1-1.5 1.5h-13A1.5 1.5 0 0 1 2 8.5v-4ZM3.5 4a.5.5 0 0 0-.5.5v4a.5.5 0 0 0 .5.5h13a.5.5 0 0 0 .5-.5v-4a.5.5 0 0 0-.5-.5h-13ZM2 13.5A1.5 1.5 0 0 1 3.5 12h4A1.5 1.5 0 0 1 9 13.5v2A1.5 1.5 0 0 1 7.5 17h-4A1.5 1.5 0 0 1 2 15.5v-2Zm1.5-.5a.5.5 0 0 0-.5.5v2a.5.5 0 0 0 .5.5h4a.5.5 0 0 0 .5-.5v-2a.5.5 0 0 0-.5-.5h-4Zm9-1a1.5 1.5 0 0 0-1.5 1.5v2a1.5 1.5 0 0 0 1.5 1.5h4a1.5 1.5 0 0 0 1.5-1.5v-2a1.5 1.5 0 0 0-1.5-1.5h-4Zm-.5 1.5a.5.5 0 0 1 .5-.5h4a.5.5 0 0 1 .5.5v2a.5.5 0 0 1-.5.5h-4a.5.5 0 0 1-.5-.5v-2Z"/></svg>