<svg xmlns="http://www.w3.org/2000/svg" width="16" height="16"><path d="M13 7a6 6 0 1 0-5.746 5.995A4.472 4.472 0 0 1 7.027 12H7a5 5 0 1 1 5-5v.027c.345.039.678.116.995.227C12.998 7.17 13 7.085 13 7Zm-5.888 3.498c.084-.368.212-.719.38-1.046a2.493 2.493 0 0 1-2.356-.785.5.5 0 0 0-.745.666 3.493 3.493 0 0 0 2.72 1.165ZM6 6a.75.75 0 1 1-1.5 0A.75.75 0 0 1 6 6Zm2.75.75a.75.75 0 1 0 0-1.5.75.75 0 0 0 0 1.5ZM15 11.5a3.5 3.5 0 1 1-7 0 3.5 3.5 0 0 1 7 0Zm-3-2a.5.5 0 0 0-1 0V11H9.5a.5.5 0 0 0 0 1H11v1.5a.5.5 0 0 0 1 0V12h1.5a.5.5 0 0 0 0-1H12V9.5Z"/></svg>