<svg xmlns="http://www.w3.org/2000/svg" width="32" height="32"><path d="M8 7.5A1.5 1.5 0 0 1 9.5 6h12A1.5 1.5 0 0 1 23 7.5v3a1.5 1.5 0 0 1-1.5 1.5h-12A1.5 1.5 0 0 1 8 10.5v-3Zm2 .5v2h11V8H10ZM4 5.25A3.25 3.25 0 0 1 7.25 2h16.5A3.25 3.25 0 0 1 27 5.25v21.5A3.25 3.25 0 0 1 23.75 30H7.25A3.25 3.25 0 0 1 4 26.75V5.25ZM7.25 4C6.56 4 6 4.56 6 5.25v21.5c0 .69.56 1.25 1.25 1.25h16.5c.69 0 1.25-.56 1.25-1.25V5.25C25 4.56 24.44 4 23.75 4H7.25Zm22 4H28v4h1.25a.75.75 0 0 0 .75-.75v-2.5a.75.75 0 0 0-.75-.75ZM28 14h1.25a.75.75 0 0 1 .75.75v2.5a.75.75 0 0 1-.75.75H28v-4Zm1.25 6H28v4h1.25a.75.75 0 0 0 .75-.75v-2.5a.75.75 0 0 0-.75-.75Z"/></svg>