<svg xmlns="http://www.w3.org/2000/svg" width="16" height="16" viewBox="0 0 16 16"><path d="M4.75 1A1.75 1.75 0 0 0 3 2.75v10.5c0 .966.784 1.75 1.75 1.75h2.507a5.507 5.507 0 0 1-.657-1H4.75a.75.75 0 0 1-.75-.75V2.75A.75.75 0 0 1 4.75 2h6.5a.75.75 0 0 1 .75.75v3.272a5.5 5.5 0 0 1 1 .185V2.75A1.75 1.75 0 0 0 11.25 1h-6.5ZM7 8a1 1 0 1 1-2 0 1 1 0 0 1 2 0Zm9 3.5a4.5 4.5 0 1 1-9 0 4.5 4.5 0 0 1 9 0Zm-6.853-.354-.003.003a.498.498 0 0 0-.144.348v.006a.498.498 0 0 0 .146.35l2 2a.5.5 0 0 0 .708-.707L10.707 12H13.5a.5.5 0 0 0 0-1h-2.793l1.147-1.146a.5.5 0 0 0-.708-.708l-2 2Z"/></svg>