<svg xmlns="http://www.w3.org/2000/svg" width="48" height="48" viewBox="0 0 48 48"><path d="M6 12.25A6.25 6.25 0 0 1 12.25 6h23.5A6.25 6.25 0 0 1 42 12.25v23.5A6.25 6.25 0 0 1 35.75 42h-23.5A6.25 6.25 0 0 1 6 35.75v-23.5Zm6.25-3.75a3.75 3.75 0 0 0-3.75 3.75V23h31V12.25a3.75 3.75 0 0 0-3.75-3.75h-23.5ZM8.5 29.947l3.1-4.447H8.5v4.447ZM10.813 31h6.505l1.72-5.5h-4.39L10.814 31ZM8.5 33.5v2.25a3.75 3.75 0 0 0 3.75 3.75h2.41l1.876-6H8.5Zm10.656 0-1.877 6h13.442l-1.877-6h-9.688Zm12.308 0 1.877 6h2.409a3.75 3.75 0 0 0 3.75-3.75V33.5h-8.036Zm5.723-2.5-3.835-5.5h-4.39l1.72 5.5h6.505Zm-9.125 0-1.72-5.5h-4.684l-1.72 5.5h8.124ZM39.5 29.946V25.5h-3.1l3.1 4.446Z"/></svg>