<svg xmlns="http://www.w3.org/2000/svg" width="20" height="20"><path d="M3.551 2.442c.854-.478 1.943-.59 2.984-.326.507.128.94.457 1.2.91l.898 1.566a2.5 2.5 0 0 1-.829 3.354l-.79.502c-.327.207-.447.524-.372.775.268.898.861 1.894 1.513 2.576.194.204.55.252.898.049l.437-.255a2.5 2.5 0 0 1 3.44.938l.805 1.435c.263.47.306 1.031.12 1.536-.371 1.003-1.086 1.812-1.965 2.217-.893.411-1.938.394-2.884-.237-1.498-.998-3.303-2.678-4.938-5.48-1.656-2.84-2.073-5.257-2.026-7.059.03-1.153.64-2.015 1.509-2.501Zm8.949-.443a.5.5 0 0 0-.5.5v7a.5.5 0 1 0 1 0V7h1.5a2.5 2.5 0 0 0 0-5h-2Zm2 4H13V3h1.5a1.5 1.5 0 0 1 0 3Z"/></svg>