<svg xmlns="http://www.w3.org/2000/svg" width="28" height="28" viewBox="0 0 28 28"><path d="M5 9.5a4.5 4.5 0 1 1 9 0 4.5 4.5 0 0 1-9 0Zm4.5-3a3 3 0 1 0 0 6 3 3 0 0 0 0-6Zm7 4a3.5 3.5 0 1 1 7 0 3.5 3.5 0 0 1-7 0Zm3.5-2a2 2 0 1 0 0 4 2 2 0 0 0 0-4ZM2 18.25A2.25 2.25 0 0 1 4.25 16h10.5c.088 0 .175.005.26.015L13.525 17.5H4.25a.75.75 0 0 0-.75.75v.513l.009.1c.01.094.03.235.074.408a3.6 3.6 0 0 0 .61 1.279c.674.897 2.115 1.95 5.307 1.95 1.724 0 2.937-.307 3.794-.73l1.106 1.105C13.276 23.543 11.698 24 9.5 24c-3.558 0-5.492-1.197-6.506-2.55a5.088 5.088 0 0 1-.866-1.815 4.529 4.529 0 0 1-.125-.797A2.202 2.202 0 0 1 2 18.781v-.531Zm15.783-1.472a.75.75 0 0 0-1.06-1.06L13.22 19.22a.75.75 0 0 0 0 1.06l3.502 3.503a.75.75 0 0 0 1.06-1.06l-2.22-2.223h8.878l-2.222 2.222a.75.75 0 0 0 1.06 1.061l3.503-3.503a.75.75 0 0 0 0-1.06l-3.502-3.503a.75.75 0 0 0-1.06 1.06L24.438 19H15.56l2.222-2.222Z"/></svg>