<svg xmlns="http://www.w3.org/2000/svg" width="28" height="28" viewBox="0 0 28 28"><path d="M3 6.75A3.75 3.75 0 0 1 6.75 3h14.5A3.75 3.75 0 0 1 25 6.75v7.75a7.486 7.486 0 0 0-1.5-.876V11h-5v2.27a7.45 7.45 0 0 0-1.5.595V11h-6v6h2.865a7.45 7.45 0 0 0-.595 1.5H11v5h2.624c.234.535.529 1.038.875 1.5H6.75A3.75 3.75 0 0 1 3 21.25V6.75ZM4.5 18.5v2.75a2.25 2.25 0 0 0 2.25 2.25H9.5v-5h-5Zm5-1.5v-6h-5v6h5Zm14-10.25a2.25 2.25 0 0 0-2.25-2.25H18.5v5h5V6.75ZM17 4.5h-6v5h6v-5Zm-7.5 0H6.75A2.25 2.25 0 0 0 4.5 6.75V9.5h5v-5Zm7.296 12.198a2 2 0 0 1-1.441 2.496l-1.024.254a6.803 6.803 0 0 0 .008 2.152l.976.235a2 2 0 0 1 1.45 2.51l-.324 1.098a6.23 6.23 0 0 0 1.753 1.1l.843-.886a2 2 0 0 1 2.899 0l.85.895a6.206 6.206 0 0 0 1.751-1.09l-.335-1.16a2 2 0 0 1 1.441-2.496l1.026-.253a6.807 6.807 0 0 0-.008-2.152l-.977-.235a2 2 0 0 1-1.45-2.51l.324-1.1a6.208 6.208 0 0 0-1.753-1.1l-.843.888a2 2 0 0 1-2.9 0l-.849-.895a6.202 6.202 0 0 0-1.752 1.09l.335 1.16ZM20.5 22a1.5 1.5 0 1 1 0-3 1.5 1.5 0 0 1 0 3Z"/></svg>