<svg xmlns="http://www.w3.org/2000/svg" width="16" height="16" viewBox="0 0 16 16"><path d="M11.5 2A2.5 2.5 0 0 1 14 4.5v.55a2.512 2.512 0 0 0-.5-.05H13v-.5A1.5 1.5 0 0 0 11.5 3h-7A1.5 1.5 0 0 0 3 4.5V5h7.5c-.818 0-1.544.393-2 1H3v5.5A1.5 1.5 0 0 0 4.5 13H8v.5c0 .171.017.338.05.5H4.5A2.5 2.5 0 0 1 2 11.5v-7A2.5 2.5 0 0 1 4.5 2h7Zm-.75 4A1.75 1.75 0 0 0 9 7.75v5.5c0 .966.784 1.75 1.75 1.75h2.5A1.75 1.75 0 0 0 15 13.25v-5.5A1.75 1.75 0 0 0 13.25 6h-2.5Zm.25 6.5a.5.5 0 0 1 .5-.5h1a.5.5 0 0 1 0 1h-1a.5.5 0 0 1-.5-.5Z"/></svg>