<svg xmlns="http://www.w3.org/2000/svg" width="16" height="16"><path d="M7 2H4a2 2 0 0 0-2 2v1.337A3.486 3.486 0 0 1 3.5 5h4A3.5 3.5 0 0 1 11 8.5v4c0 .537-.12 1.045-.337 1.5H12a2 2 0 0 0 2-2V5H8.5A1.5 1.5 0 0 1 7 3.5V2Zm7 2a2 2 0 0 0-2-2H8v1.5a.5.5 0 0 0 .5.5H14ZM1 8.5A2.5 2.5 0 0 1 3.5 6h4A2.5 2.5 0 0 1 10 8.5v4c0 .51-.152.983-.414 1.379L6.56 10.854a1.5 1.5 0 0 0-2.122 0l-3.025 3.025A2.488 2.488 0 0 1 1 12.5v-4Zm7 .25a.75.75 0 1 0-1.5 0 .75.75 0 0 0 1.5 0Zm-5.879 5.836c.396.262.87.414 1.379.414h4c.51 0 .983-.152 1.379-.414L5.854 11.56a.5.5 0 0 0-.708 0l-3.025 3.025Z"/></svg>