<svg xmlns="http://www.w3.org/2000/svg" width="32" height="32" viewBox="0 0 32 32"><path d="M5.25 5C4.56 5 4 5.56 4 6.25V24.5A2.5 2.5 0 0 0 6.5 27h10.948a3.033 3.033 0 0 1-.181-1.037V6.25c0-.69-.56-1.25-1.25-1.25H5.25ZM20 28.985V29H6.5A4.5 4.5 0 0 1 2 24.5V6.25A3.25 3.25 0 0 1 5.25 3h10.767a3.25 3.25 0 0 1 3.25 3.25V8H27v.001L27.09 8A2.91 2.91 0 0 1 30 10.91v8.84A3.25 3.25 0 0 1 26.75 23h-2.812l-.647 3.513A3.037 3.037 0 0 1 20 28.985ZM24.326 10h-5.06v15.963a1.037 1.037 0 0 0 2.058.188l2.904-15.768c.025-.131.057-.26.098-.383Zm-.02 11h2.444c.69 0 1.25-.56 1.25-1.25v-8.84a.91.91 0 0 0-1.805-.165L24.306 21ZM8 9a1 1 0 1 1-2 0 1 1 0 0 1 2 0Zm-1 6a1 1 0 1 0 0 2h7a1 1 0 1 0 0-2H7Zm-1 7a1 1 0 0 1 1-1h7a1 1 0 1 1 0 2H7a1 1 0 0 1-1-1Z"/></svg>