<svg xmlns="http://www.w3.org/2000/svg" width="24" height="24" viewBox="0 0 24 24"><path d="m14.298 2.985 6.717 6.718a3.25 3.25 0 0 1 0 4.596l-6.717 6.717a3.25 3.25 0 0 1-4.596 0L2.984 14.3a3.25 3.25 0 0 1 0-4.596l6.718-6.718a3.25 3.25 0 0 1 4.596 0Zm-.707 4.236-.084-.073a.75.75 0 0 0-.883-.007l-.094.08-.072.084a.75.75 0 0 0-.008.883l.08.094.719.718h-1.5l-.167.006a2.75 2.75 0 0 0-2.577 2.57L9 11.752V15l.007.101a.75.75 0 0 0 1.486 0L10.5 15v-3.25l.006-.128a1.25 1.25 0 0 1 1.116-1.116l.128-.006h1.5l-.72.72-.072.084a.75.75 0 0 0 1.049 1.05l.084-.073 2-2 .072-.084a.75.75 0 0 0 .008-.883l-.08-.094-2-2-.084-.073.084.073Z"/></svg>