<svg xmlns="http://www.w3.org/2000/svg" width="24" height="24" viewBox="0 0 24 24"><path d="M12 1.996a7.49 7.49 0 0 1 7.496 7.25l.004.25v4.097l1.38 3.156a1.249 1.249 0 0 1-1.145 1.75L15 18.502a3 3 0 0 1-5.995.177L9 18.499H4.275a1.251 1.251 0 0 1-1.147-1.747L4.5 13.594V9.496c0-4.155 3.352-7.5 7.5-7.5ZM13.5 18.5l-3 .002a1.5 1.5 0 0 0 2.993.145l.006-.147ZM12 3.496c-3.32 0-6 2.674-6 6v4.41L4.656 17h14.697L18 13.907V9.509l-.004-.225A5.988 5.988 0 0 0 12 3.496Zm9 4.754h2a.75.75 0 0 1 .102 1.493L23 9.75h-2a.75.75 0 0 1-.102-1.493L21 8.25Zm-20 0h2a.75.75 0 0 1 .102 1.493L3 9.75H1a.75.75 0 0 1-.102-1.493L1 8.25Zm21.6-5.7a.75.75 0 0 1-.066.977l-.084.073-2 1.5a.75.75 0 0 1-.984-1.127l.084-.073 2-1.5a.75.75 0 0 1 1.05.15ZM2.45 2.4l2 1.5a.75.75 0 1 1-.9 1.2l-2-1.5a.75.75 0 1 1 .9-1.2Z"/></svg>