<svg xmlns="http://www.w3.org/2000/svg" width="20" height="20" viewBox="0 0 20 20"><path d="M9 13c.07 0 .14-.002.21-.007A5.514 5.514 0 0 1 12 9.6V5a3 3 0 1 0-6 0v5a3 3 0 0 0 3 3Zm-4.5-3A4.5 4.5 0 0 0 9 14.5c0 .819.179 1.596.5 2.294v.706a.5.5 0 0 1-1 0v-2.022A5.5 5.5 0 0 1 3.5 10a.5.5 0 0 1 1 0Zm7.565 1.442a2 2 0 0 1-1.43 2.478l-.462.118a4.735 4.735 0 0 0 .01 1.016l.35.083a2 2 0 0 1 1.456 2.519l-.127.423c.258.203.537.377.835.517l.325-.344a2 2 0 0 1 2.91.002l.337.358c.292-.135.568-.302.822-.498l-.156-.556a2 2 0 0 1 1.43-2.478l.46-.118a4.7 4.7 0 0 0-.01-1.017l-.348-.082a2 2 0 0 1-1.456-2.52l.126-.421a4.318 4.318 0 0 0-.835-.519l-.325.344a2 2 0 0 1-2.91-.001l-.337-.358a4.31 4.31 0 0 0-.821.497l.156.557Zm2.434 4.058a1 1 0 1 1 0-2 1 1 0 0 1 0 2Z"/></svg>