<svg xmlns="http://www.w3.org/2000/svg" width="20" height="20" viewBox="0 0 20 20"><path d="M10 18a8 8 0 1 0-7.996-7.746 5.484 5.484 0 0 1 2.05-1.062 6.001 6.001 0 0 1 8.127-4.783.5.5 0 0 1-.363.932 5.002 5.002 0 0 0-6.72 3.673 5.475 5.475 0 0 1 3.573.99c.06-.169.151-.331.275-.477.072-.084.203-.204.343-.328.15-.132.343-.296.56-.479.436-.364.982-.81 1.514-1.24.533-.432 1.055-.85 1.443-1.16l.275-.219.369-.293a.5.5 0 0 1 .746.637l-.11.196a323.588 323.588 0 0 1-.686 1.206l-.23.402-.298.518-.422.727c-.2.345-.395.675-.567.963a30.112 30.112 0 0 1-.492.793 4.28 4.28 0 0 1-.074.108 1.494 1.494 0 0 1-.932.613c.393.757.615 1.617.615 2.529 0 1.328-.47 2.546-1.254 3.496.084.003.17.004.254.004Zm5.59-10.182a6.001 6.001 0 0 1-1.347 6.425.5.5 0 1 1-.707-.707 5.001 5.001 0 0 0 1.123-5.354.5.5 0 0 1 .932-.364ZM8 18.242a4.5 4.5 0 1 1-5-7.483 4.5 4.5 0 0 1 5 7.483Zm-2.146-6.096A.5.5 0 0 0 5 12.5V14H3.5a.5.5 0 0 0 0 1H5v1.5a.5.5 0 0 0 1 0V15h1.5a.5.5 0 0 0 0-1H6v-1.5a.5.5 0 0 0-.146-.354Z"/></svg>