<svg xmlns="http://www.w3.org/2000/svg" width="20" height="20"><path d="M16.04 4c.26 0 .507.052.741.156.235.104.443.248.625.43.183.182.326.39.43.625.104.234.159.484.164.75V11c0 .354-.088.688-.266 1a1.914 1.914 0 0 1-.734.734V14.5a1.505 1.505 0 0 1-.922 1.383c-.187.083-.38.122-.578.117h-4a.48.48 0 0 1-.352-.148L10 14.703l-1.148 1.149A.48.48 0 0 1 8.5 16h-4a1.505 1.505 0 0 1-1.383-.922A1.322 1.322 0 0 1 3 14.5v-1.766A1.93 1.93 0 0 1 2.273 12 2.06 2.06 0 0 1 2 11V5.96c0-.26.052-.507.156-.741a2.06 2.06 0 0 1 .43-.625 2.06 2.06 0 0 1 .625-.43A1.92 1.92 0 0 1 3.96 4h12.078ZM17 6a.95.95 0 0 0-.078-.383 1.103 1.103 0 0 0-.211-.32.922.922 0 0 0-.32-.219A1.006 1.006 0 0 0 16 5H4a.97.97 0 0 0-.703.29 1.09 1.09 0 0 0-.219.32A.847.847 0 0 0 3 6v5c0 .14.026.27.078.39.052.12.123.227.211.32a.852.852 0 0 0 .313.212c.12.047.252.073.398.078h12a.969.969 0 0 0 .703-.29c.089-.088.162-.194.219-.32A.847.847 0 0 0 17 11V6Zm-2 0a.95.95 0 0 1 .383.078c.12.052.226.123.32.211a.922.922 0 0 1 .219.32c.052.125.078.256.078.391v3a.969.969 0 0 1-.29.703 1.088 1.088 0 0 1-.32.219A.847.847 0 0 1 15 11H5a.969.969 0 0 1-.39-.078 1.103 1.103 0 0 1-.32-.211.851.851 0 0 1-.212-.313A1.205 1.205 0 0 1 4 10V7a.97.97 0 0 1 .29-.703 1.09 1.09 0 0 1 .32-.219A.847.847 0 0 1 5 6h10ZM7.5 7H5v3h2.5V7Zm4 3V7h-3v3h3Zm1 0H15V7h-2.5v3Zm3.5 3H4v1.5c0 .135.05.253.148.352A.48.48 0 0 0 4.5 15h3.797l1.351-1.352A.48.48 0 0 1 10 13.5a.48.48 0 0 1 .352.148L11.71 15h3.79a.48.48 0 0 0 .352-.148A.48.48 0 0 0 16 14.5V13Z"/></svg>