<svg xmlns="http://www.w3.org/2000/svg" width="48" height="48" viewBox="0 0 48 48"><path d="M22.687 4.3a1.25 1.25 0 0 1 1.627.001l5.247 4.5a1.25 1.25 0 0 1-1.628 1.898l-3.183-2.73v9.781a1.25 1.25 0 1 1-2.5 0V7.966l-3.188 2.73a1.25 1.25 0 1 1-1.626-1.9L22.687 4.3Zm2.063 35.73 3.184-2.726a1.25 1.25 0 1 1 1.626 1.9l-5.251 4.495a1.25 1.25 0 0 1-1.627 0l-5.247-4.5a1.25 1.25 0 0 1 1.628-1.898l3.187 2.734V30.25a1.25 1.25 0 1 1 2.5 0v9.78ZM7 23.75c0-.69.56-1.25 1.25-1.25h31.5a1.25 1.25 0 1 1 0 2.5H8.25C7.56 25 7 24.44 7 23.75Z"/></svg>