<svg xmlns="http://www.w3.org/2000/svg" width="28" height="28"><path d="M4.25 15h8a.75.75 0 0 1 .743.648l.007.102v8a.75.75 0 0 1-1.493.102l-.007-.102v-6.19l-7.97 7.97a.75.75 0 0 1-1.133-.976l.073-.084 7.968-7.97H4.25a.75.75 0 0 1-.743-.648L3.5 15.75a.75.75 0 0 1 .648-.743L4.25 15h8-8ZM25.53 2.47a.75.75 0 0 1 .073.976l-.073.084-7.97 7.97h6.19a.75.75 0 0 1 .743.648l.007.102a.75.75 0 0 1-.648.743L23.75 13h-8a.75.75 0 0 1-.743-.648L15 12.25v-8a.75.75 0 0 1 1.493-.102l.007.102v6.188l7.97-7.968a.75.75 0 0 1 1.06 0Z"/></svg>