<svg xmlns="http://www.w3.org/2000/svg" width="20" height="20"><path d="M4 4a2 2 0 0 1 2-2h8a2 2 0 0 1 2 2v9.883l-2.495 2.52-.934-.953a1.5 1.5 0 1 0-2.142 2.1l.441.45H6a2 2 0 0 1-2-2V4Zm5 5.5a.5.5 0 0 0 .5.5h4a.5.5 0 0 0 0-1h-4a.5.5 0 0 0-.5.5ZM9.5 5a.5.5 0 0 0 0 1h4a.5.5 0 0 0 0-1h-4ZM9 13.5a.5.5 0 0 0 .5.5h4a.5.5 0 0 0 0-1h-4a.5.5 0 0 0-.5.5Zm-2-3a1 1 0 1 0 0-2 1 1 0 0 0 0 2Zm1-5a1 1 0 1 0-2 0 1 1 0 0 0 2 0Zm-1 9a1 1 0 1 0 0-2 1 1 0 0 0 0 2Zm10.855.352a.5.5 0 0 0-.71-.704l-3.643 3.68-1.645-1.678a.5.5 0 1 0-.714.7l1.929 1.968a.6.6 0 0 0 .855.002l3.928-3.968Z"/></svg>