<svg xmlns="http://www.w3.org/2000/svg" width="28" height="28"><path d="M6 6.01v-.25a3.75 3.75 0 0 1 3.75-3.75h10.5A5.75 5.75 0 0 1 26 7.76v6.99a3.75 3.75 0 0 1-3.75 3.75H22v.25a3.75 3.75 0 0 1-3.75 3.75h-5.997l-4.245 3.235c-.823.627-2.008.04-2.008-.994V22.5h-.25A3.75 3.75 0 0 1 2 18.75V9.76a3.75 3.75 0 0 1 3.75-3.75H6Zm1.5-.25v.25h10.75A3.75 3.75 0 0 1 22 9.76V17h.25a2.25 2.25 0 0 0 2.25-2.25V7.76a4.25 4.25 0 0 0-4.25-4.25H9.75A2.25 2.25 0 0 0 7.5 5.76Zm-4 4v8.99A2.25 2.25 0 0 0 5.75 21h1a.75.75 0 0 1 .75.75v2.486l4.046-3.082A.75.75 0 0 1 12 21h6.25a2.25 2.25 0 0 0 2.25-2.25V9.76a2.25 2.25 0 0 0-2.25-2.25H5.75A2.25 2.25 0 0 0 3.5 9.76Z"/></svg>