<svg xmlns="http://www.w3.org/2000/svg" width="20" height="20" viewBox="0 0 20 20"><path d="M2.484 3.191C2.18 3.634 2 4.171 2 4.75v1.5a.75.75 0 0 0 1.5 0v-1.5c0-.161.03-.315.086-.457L5.75 6.457v.293a.75.75 0 0 0 1 .707l2.5 2.5V13.5H9A.75.75 0 0 0 9 15h2a.75.75 0 0 0 0-1.5h-.25v-2.043l4.957 4.957a1.246 1.246 0 0 1-.457.086h-1.5a.75.75 0 0 0 0 1.5h1.5a2.74 2.74 0 0 0 1.559-.484l.337.338a.5.5 0 0 0 .708-.708l-.338-.337-1.102-1.102L5.949 5.242 4.293 3.586 3.191 2.484l-.337-.338a.5.5 0 1 0-.708.708l.338.337ZM18 15.25c0 .195-.02.386-.06.57l-1.44-1.441v-.629a.75.75 0 0 1 1.5 0v1.5ZM10.75 6.5v2.129l-1.5-1.5V6.5h-.629L7.121 5H13.5a.75.75 0 0 1 .75.75v1a.75.75 0 0 1-1.5 0V6.5h-2Zm-4.5-3h-.629l-1.44-1.44c.183-.04.374-.06.569-.06h1.5a.75.75 0 0 1 0 1.5Zm-1.5 13c-.69 0-1.25-.56-1.25-1.25v-1.5a.75.75 0 0 0-1.5 0v1.5A2.75 2.75 0 0 0 4.75 18h1.5a.75.75 0 0 0 0-1.5h-1.5ZM16.5 4.75c0-.69-.56-1.25-1.25-1.25h-1.5a.75.75 0 0 1 0-1.5h1.5A2.75 2.75 0 0 1 18 4.75v1.5a.75.75 0 0 1-1.5 0v-1.5Z"/></svg>