<svg xmlns="http://www.w3.org/2000/svg" width="16" height="16"><path d="M4.83 3.31a4.414 4.414 0 0 1 3.168-1.309 4.55 4.55 0 0 1 3.184 1.284 4.318 4.318 0 0 1 1.32 3.102c0 1.293-.585 2.443-1.619 3.438L10.577 11H8.5V7.5a.5.5 0 1 0-1 0V11H5.466l-.23-.963C4.154 8.907 3.556 7.819 3.5 6.582v-.038c.04-1.296.533-2.423 1.331-3.233ZM7.5 4.5v1a.5.5 0 0 0 1 0v-1a.5.5 0 0 0-1 0Zm3.078.795a.5.5 0 0 0-.707 0l-.707.707a.5.5 0 1 0 .707.707l.707-.707a.5.5 0 0 0 0-.707Zm-4.477 0a.5.5 0 0 0-.707.707l.707.707a.5.5 0 0 0 .707-.707L6.1 5.294ZM5.704 12l.234.978.007.022c.1.297.292.544.534.717.251.18.558.282.883.282l1.384-.004.021-.002a1.51 1.51 0 0 0 .84-.345c.231-.194.406-.46.48-.774l.229-.874H5.704Z"/></svg>