<svg xmlns="http://www.w3.org/2000/svg" width="48" height="48" viewBox="0 0 48 48"><path d="M8.25 5A4.25 4.25 0 0 0 4 9.25v9.048a3.46 3.46 0 0 1 .25-.008H6.5V9.25c0-.966.784-1.75 1.75-1.75h31.5c.967 0 1.75.784 1.75 1.75v9.04h2.25c.084 0 .167.002.25.008V9.25A4.25 4.25 0 0 0 39.75 5H8.25ZM4 32.75v-6.969c.083.006.166.009.25.009H6.5v6.96c0 .967.784 1.75 1.75 1.75h31.5a1.75 1.75 0 0 0 1.75-1.75v-6.96h2.25c.084 0 .167-.003.25-.009v6.969A4.25 4.25 0 0 1 39.75 37H31v3.5h2.75a1.25 1.25 0 1 1 0 2.5h-19.5a1.25 1.25 0 1 1 0-2.5H17V37H8.25A4.25 4.25 0 0 1 4 32.75ZM28.5 37h-9v3.5h9V37Zm-9.56-26.132a1.25 1.25 0 0 0-2.367-.038L12.943 21H5.25a1.25 1.25 0 1 0 0 2.5h8.574c.528 0 1-.332 1.177-.83l2.685-7.523L22.81 31.13a1.25 1.25 0 0 0 2.323.148l5.81-12.45 1.648 3.907c.196.463.65.764 1.152.764h9.007a1.25 1.25 0 1 0 0-2.5h-8.178l-2.42-5.736a1.25 1.25 0 0 0-2.285-.043l-5.65 12.11-5.277-16.463Z"/></svg>