<svg xmlns="http://www.w3.org/2000/svg" width="20" height="20" viewBox="0 0 20 20"><path d="M7.904 1.777C6.875 2.245 6 2.993 6 4v3.014a9.162 9.162 0 0 1 1 0V5.698c.271.202.58.378.904.525C8.978 6.711 10.427 7 12 7s3.022-.289 4.096-.777A4.92 4.92 0 0 0 17 5.698V14c0 .374-.356.875-1.318 1.313-.916.416-2.218.687-3.682.687v.5c0 .173-.018.34-.051.5H12c1.573 0 3.022-.289 4.096-.777C17.125 15.755 18 15.007 18 14V4c0-1.007-.875-1.755-1.904-2.223C15.022 1.289 13.573 1 12 1s-3.022.289-4.096.777Zm.414 3.536C7.356 4.875 7 4.373 7 4c0-.374.356-.875 1.318-1.313C9.234 2.271 10.536 2 12 2s2.766.27 3.682.687C16.644 3.125 17 3.627 17 4c0 .374-.356.875-1.318 1.313C14.766 5.729 13.464 6 12 6s-2.766-.27-3.682-.687ZM7 8.015c.303.019.597.054.88.105.4.071.777.173 1.12.3 1.206.45 2 1.213 2 2.08 0 1.38-2.015 2.5-4.5 2.5S2 11.88 2 10.5c0-1.287 1.75-2.347 4-2.485a8.161 8.161 0 0 1 1 0Zm3.926 8.94c-.385 1.163-2.22 2.044-4.426 2.044C4.015 19 2 17.88 2 16.5v-3.945c.255.23.54.425.832.588.99.55 2.288.858 3.668.858 1.38 0 2.679-.309 3.668-.858.293-.163.578-.36.833-.59v3.407L11 16.5c0 .156-.025.308-.074.455Z"/></svg>