<svg xmlns="http://www.w3.org/2000/svg" width="32" height="32"><path d="M4 5a3 3 0 0 1 3-3h11.75A3.25 3.25 0 0 1 22 5.25V13h2.75A3.25 3.25 0 0 1 28 16.25V29a1 1 0 0 1-1 1h-4v-4.5a1.5 1.5 0 0 0-1.5-1.5h-11A1.5 1.5 0 0 0 9 25.5V30H5a1 1 0 0 1-1-1V5Zm17 21v4h-4v-4h4Zm-6 0v4h-4v-4h4ZM12 8.5a1.5 1.5 0 1 0-3 0 1.5 1.5 0 0 0 3 0Zm0 5a1.5 1.5 0 1 0-3 0 1.5 1.5 0 0 0 3 0ZM10.5 20a1.5 1.5 0 1 0 0-3 1.5 1.5 0 0 0 0 3ZM17 8.5a1.5 1.5 0 1 0-3 0 1.5 1.5 0 0 0 3 0ZM15.5 15a1.5 1.5 0 1 0 0-3 1.5 1.5 0 0 0 0 3Zm1.5 3.5a1.5 1.5 0 1 0-3 0 1.5 1.5 0 0 0 3 0Zm3.5 1.5a1.5 1.5 0 1 0 0-3 1.5 1.5 0 0 0 0 3Z"/></svg>