<svg xmlns="http://www.w3.org/2000/svg" width="24" height="24"><path d="m11.405 9.465-8.707 8.713a2.27 2.27 0 0 0 3.211 3.21l8.706-8.713-3.21-3.21Zm5.447 5.542L16.75 15a.75.75 0 0 0-.743.648L16 15.75v.75h-.75a.75.75 0 0 0-.743.648l-.007.102c0 .38.282.694.648.743l.102.007H16v.75c0 .38.282.694.648.743l.102.007a.75.75 0 0 0 .743-.648l.007-.102V18h.75a.75.75 0 0 0 .743-.648L19 17.25a.75.75 0 0 0-.648-.743l-.102-.007h-.75v-.75a.75.75 0 0 0-.648-.743L16.75 15l.102.007Zm-3.538-7.442-.136.126-.712.713 3.21 3.21.712-.714a2.251 2.251 0 0 0-.001-3.182l-.157-.146a2.25 2.25 0 0 0-2.916-.007ZM6.852 5.007 6.75 5a.75.75 0 0 0-.743.648L6 5.75v.75h-.75a.75.75 0 0 0-.743.648L4.5 7.25c0 .38.282.693.648.743L5.25 8H6v.75c0 .38.282.693.648.743l.102.007a.75.75 0 0 0 .743-.648L7.5 8.75V8h.75a.75.75 0 0 0 .743-.648L9 7.25a.75.75 0 0 0-.648-.743L8.25 6.5H7.5v-.75a.75.75 0 0 0-.648-.743L6.75 5l.102.007Zm12-2L18.75 3a.75.75 0 0 0-.743.648L18 3.75v.75h-.75a.75.75 0 0 0-.743.648l-.007.102c0 .38.282.693.648.743L17.25 6H18v.75c0 .38.282.693.648.743l.102.007a.75.75 0 0 0 .743-.648l.007-.102V6h.75a.75.75 0 0 0 .743-.648L21 5.25a.75.75 0 0 0-.648-.743L20.25 4.5h-.75v-.75a.75.75 0 0 0-.648-.743L18.75 3l.102.007Z"/></svg>