<svg xmlns="http://www.w3.org/2000/svg" width="48" height="48"><path d="M22 24a5.973 5.973 0 0 0-1.126-3.5h6.252A6 6 0 1 0 32 18H16a6 6 0 1 0 6 6Zm-2.5 0a3.5 3.5 0 1 1-7 0 3.5 3.5 0 0 1 7 0Zm9 0a3.5 3.5 0 1 1 7 0 3.5 3.5 0 0 1-7 0ZM8.25 8A4.25 4.25 0 0 0 4 12.25v23.5A4.25 4.25 0 0 0 8.25 40h31.5A4.25 4.25 0 0 0 44 35.75v-23.5A4.25 4.25 0 0 0 39.75 8H8.25ZM6.5 12.25c0-.966.784-1.75 1.75-1.75h31.5c.967 0 1.75.784 1.75 1.75v23.5a1.75 1.75 0 0 1-1.75 1.75H8.25a1.75 1.75 0 0 1-1.75-1.75v-23.5Z"/></svg>