<svg xmlns="http://www.w3.org/2000/svg" width="28" height="28" viewBox="0 0 28 28"><path d="M9.309 3.25A.75.75 0 0 0 8 3.75v9.364a14.886 14.886 0 0 0-1.617-2.78A10.784 10.784 0 0 0 4.849 8.65a6.859 6.859 0 0 0-.645-.5 2.587 2.587 0 0 0-.044-.029l-.015-.009-.005-.003-.002-.001h-.001A.752.752 0 0 0 3 8.75v12.5A3.75 3.75 0 0 0 6.75 25h14.5A3.75 3.75 0 0 0 25 21.25V8.75a.75.75 0 0 0-1.136-.643l-.002.001-.002.001-.005.003-.015.01a3.007 3.007 0 0 0-.192.13c-.123.09-.293.22-.497.398-.408.357-.953.903-1.534 1.683A14.886 14.886 0 0 0 20 13.114V3.75a.75.75 0 0 0-1.309-.5l-.002.002-.003.004-.012.013-.04.047-.147.174c-.125.15-.302.372-.516.657a25.586 25.586 0 0 0-1.619 2.443A25.522 25.522 0 0 0 14 11.896a25.522 25.522 0 0 0-2.352-5.306 25.586 25.586 0 0 0-1.619-2.443 18.426 18.426 0 0 0-.703-.878l-.012-.013-.003-.004-.001-.001-.001-.001Z"/></svg>