<svg xmlns="http://www.w3.org/2000/svg" width="24" height="24"><path d="M6.25 3A3.25 3.25 0 0 0 3 6.25v11.5A3.25 3.25 0 0 0 6.25 21h2.76a3.3 3.3 0 0 1-.01-.25V19.5H6.25a1.75 1.75 0 0 1-1.75-1.75V8.5h15V9h1.25a3.3 3.3 0 0 1 .25.01V6.25A3.25 3.25 0 0 0 17.75 3H6.25ZM19.5 7h-15v-.75c0-.966.784-1.75 1.75-1.75h11.5c.966 0 1.75.784 1.75 1.75V7Zm-7.25 8.5h3.25v-3.25A2.25 2.25 0 0 1 17.75 10h3A2.25 2.25 0 0 1 23 12.25v7.5A3.25 3.25 0 0 1 19.75 23h-7.5A2.25 2.25 0 0 1 10 20.75v-3a2.25 2.25 0 0 1 2.25-2.25ZM17 12.25v3.25h4.5v-3.25a.75.75 0 0 0-.75-.75h-3a.75.75 0 0 0-.75.75Zm-1.5 9.25V17h-3.25a.75.75 0 0 0-.75.75v3c0 .414.336.75.75.75h3.25ZM17 17v4.5h2.75a1.75 1.75 0 0 0 1.75-1.75V17H17Z"/></svg>