<svg xmlns="http://www.w3.org/2000/svg" width="16" height="16" viewBox="0 0 16 16"><path d="M8.808 2.101a.9.9 0 0 0-1.614 0L5.673 5.183l-3.401.495a.9.9 0 0 0-.5 1.535l2.462 2.399-.581 3.387a.9.9 0 0 0 1.306.949l.91-.479a5.486 5.486 0 0 1-.461-.887l-.735.387.345-2.016a5.576 5.576 0 0 1 .138-1.76.9.9 0 0 0-.186-.26L2.616 6.637l3.253-.473a.9.9 0 0 0 .677-.492l1.455-2.947L9.2 5.154a5.498 5.498 0 0 1 1.041-.149L8.808 2.101ZM6 10.5a4.5 4.5 0 1 0 9 0 4.5 4.5 0 0 0-9 0Zm1 0a3.5 3.5 0 0 1 5.596-2.803l-4.9 4.9A3.485 3.485 0 0 1 7 10.499Zm3.5 3.5a3.487 3.487 0 0 1-2.096-.696l4.9-4.9A3.5 3.5 0 0 1 10.5 14Z"/></svg>