<svg xmlns="http://www.w3.org/2000/svg" width="28" height="28"><path d="M3 6.75A3.75 3.75 0 0 1 6.75 3H9.5v6.5H3V6.75ZM3 11v6h6.5v-6H3Zm0 7.5v2.75A3.75 3.75 0 0 0 6.75 25H9.5v-6.5H3Zm8 6.5h3.5a7.466 7.466 0 0 1-1.5-4.5c0-.693.094-1.363.27-2H11V25Zm14-14v3.5a7.466 7.466 0 0 0-4.5-1.5c-.693 0-1.363.094-2 .27V11H25Zm-8 0v2.865A7.535 7.535 0 0 0 13.865 17H11v-6h6Zm8-1.5V6.75A3.75 3.75 0 0 0 21.25 3H18.5v6.5H25ZM17 3h-6v6.5h6V3Zm-.204 13.698a2 2 0 0 1-1.441 2.496l-1.024.254a6.803 6.803 0 0 0 .008 2.152l.976.235a2 2 0 0 1 1.45 2.51l-.324 1.098a6.23 6.23 0 0 0 1.753 1.1l.843-.886a2 2 0 0 1 2.899 0l.85.895a6.206 6.206 0 0 0 1.751-1.09l-.335-1.16a2 2 0 0 1 1.441-2.496l1.026-.253a6.807 6.807 0 0 0-.008-2.152l-.977-.235a2 2 0 0 1-1.45-2.51l.324-1.1a6.208 6.208 0 0 0-1.753-1.1l-.843.888a2 2 0 0 1-2.9 0l-.849-.895a6.202 6.202 0 0 0-1.752 1.09l.335 1.16ZM20.5 22a1.5 1.5 0 1 1 0-3 1.5 1.5 0 0 1 0 3Z"/></svg>