<svg xmlns="http://www.w3.org/2000/svg" width="24" height="24"><path d="M17.5 12a5.5 5.5 0 1 1 0 11 5.5 5.5 0 0 1 0-11Zm-13-2.628v8.378a1.75 1.75 0 0 0 1.607 1.744l.143.006h5.064c.172.534.412 1.038.709 1.501L6.25 21a3.25 3.25 0 0 1-3.245-3.066L3 17.75V9.372a2.247 2.247 0 0 0 1.5 0Zm12.22 5.217-.07.057-2.515 2.517-.041.05-.044.077-.023.059-.019.085-.002.11.015.086.029.08.034.061.05.066 2.516 2.517a.5.5 0 0 0 .765-.638l-.058-.07L15.711 18h4.79a.5.5 0 0 0 .491-.41L21 17.5a.5.5 0 0 0-.41-.492L20.5 17h-4.789l1.646-1.646a.5.5 0 0 0 .058-.638l-.058-.07a.5.5 0 0 0-.638-.057Zm-3.913-1.586c-.426.444-.79.95-1.076 1.5H8.748a.75.75 0 0 1-.102-1.493l.102-.007h4.059ZM17.75 3a3.25 3.25 0 0 1 3.245 3.066L21 6.25v5.772a6.47 6.47 0 0 0-1.5-.708V6.25a1.75 1.75 0 0 0-1.606-1.744L17.75 4.5H6.25c-.6 0-1.13.302-1.445.763a2.234 2.234 0 0 0-1.581-.201 3.253 3.253 0 0 1 2.842-2.057L6.25 3h11.5Zm-2.498 6.496a.75.75 0 0 1 .102 1.493l-.102.007H8.748a.75.75 0 0 1-.102-1.493l.102-.007h6.504ZM3.75 6a1.25 1.25 0 1 1 0 2.5 1.25 1.25 0 0 1 0-2.5Z"/></svg>