<svg xmlns="http://www.w3.org/2000/svg" width="20" height="20"><path d="M11.854 18.854a.498.498 0 0 1-.708 0l-2-2a.499.499 0 0 1 0-.708l2-2a.498.498 0 0 1 .817.162.5.5 0 0 1-.109.546L10.707 16h5.586l-1.147-1.146a.498.498 0 0 1 .162-.817.5.5 0 0 1 .546.109l2 2a.498.498 0 0 1 0 .708l-2 2a.498.498 0 0 1-.817-.162.5.5 0 0 1 .109-.546L16.293 17h-5.586l1.147 1.146a.498.498 0 0 1 0 .708ZM10 8c3.314 0 6-1.343 6-3s-2.686-3-6-3-6 1.343-6 3 2.686 3 6 3Zm-1.561 9.561a1.5 1.5 0 0 1 0-2.122l2-2a1.494 1.494 0 0 1 1.635-.325 1.494 1.494 0 0 1 .89 1.054 1.5 1.5 0 0 1-.05.832h1.172a1.5 1.5 0 0 1 1.414-2c.17.002.34.032.5.091V7.12c-.194.183-.402.35-.623.5-.22.148-.45.281-.687.4a8.15 8.15 0 0 1-1.011.418c-1.188.383-2.43.573-3.679.562a11.64 11.64 0 0 1-3.679-.566 8.148 8.148 0 0 1-1.011-.418 6.232 6.232 0 0 1-.687-.4A4.93 4.93 0 0 1 4 7.12V15c0 1.453 2.07 2.658 4.813 2.934l-.374-.373Z"/></svg>