<svg xmlns="http://www.w3.org/2000/svg" width="28" height="28" viewBox="0 0 28 28"><path d="M24.85 3.15a3.932 3.932 0 0 0-5.561 0L4.502 17.937c-.44.44-.76.986-.927 1.586l-1.547 5.525a.75.75 0 0 0 .924.924l5.524-1.547a3.626 3.626 0 0 0 1.587-.928l2.002-2.002a7.579 7.579 0 0 1 .022-2.143l-3.084 3.085a2.126 2.126 0 0 1-.93.544l-4.241 1.187 1.187-4.24a2.13 2.13 0 0 1 .544-.93L17.75 6.81l3.44 3.44-2.838 2.837a7.549 7.549 0 0 1 2.143-.022L24.85 8.71a3.932 3.932 0 0 0 0-5.56Zm-4.5 1.06a2.432 2.432 0 1 1 3.439 3.44l-1.54 1.54-3.439-3.44 1.54-1.54ZM19.5 27a6.5 6.5 0 1 0 0-13 6.5 6.5 0 0 0 0 13Zm0-1.5a4.978 4.978 0 0 1-2.965-.974l6.991-6.991A5 5 0 0 1 19.5 25.5Zm2.965-9.026-6.991 6.991a5 5 0 0 1 6.991-6.991Z"/></svg>