<svg xmlns="http://www.w3.org/2000/svg" width="20" height="20"><path d="M14.5 9c.138 0 .274.005.41.015.058-.16.09-.334.09-.515v-4A1.5 1.5 0 0 0 13.5 3h-3v-.5A.48.48 0 0 0 10 2c-.276 0-.5.23-.5.5V3h-3A1.5 1.5 0 0 0 5 4.5v4A1.5 1.5 0 0 0 6.5 10h4.837c.895-.63 1.986-1 3.163-1ZM7 6.5a1 1 0 1 1 2 0 1 1 0 0 1-2 0Zm4 0a1 1 0 1 1 2 0 1 1 0 0 1-2 0Zm-2 8c0-1.105.326-2.135.887-2.997H5.31a1.81 1.81 0 0 0-1.809 1.81v.689h.005c.034.78.248 1.757 1.123 2.555C5.584 17.43 7.234 18 10 18c.086 0 .172 0 .256-.002A5.477 5.477 0 0 1 9 14.5Zm10 0a4.5 4.5 0 1 1-9 0 4.5 4.5 0 0 1 9 0Zm-4-2a.5.5 0 0 0-1 0V14h-1.5a.5.5 0 0 0 0 1H14v1.5a.5.5 0 0 0 1 0V15h1.5a.5.5 0 0 0 0-1H15v-1.5Z"/></svg>