<svg xmlns="http://www.w3.org/2000/svg" width="28" height="28" viewBox="0 0 28 28"><path d="m3.28 2.22 22.5 22.5a.75.75 0 0 1-1.06 1.06l-1.542-1.541A4.23 4.23 0 0 1 20.75 25H7.25A4.25 4.25 0 0 1 3 20.75V7.25c0-.903.281-1.74.761-2.428L2.22 3.28a.75.75 0 1 1 1.06-1.06Zm18.81 20.932L4.849 5.909A2.738 2.738 0 0 0 4.5 7.25v13.5a2.75 2.75 0 0 0 2.75 2.75h13.5c.487 0 .944-.127 1.34-.348ZM6.29 3.109 7.683 4.5h4.068a.75.75 0 0 0 0-1.5h-4.5c-.33 0-.651.038-.96.109Zm18.601 18.6L23.5 20.32v-4.07a.75.75 0 0 1 1.5 0v4.5c0 .33-.038.651-.109.96ZM15.501 3.75a.75.75 0 0 1 .75-.75h7.999a.75.75 0 0 1 .75.75v8a.75.75 0 0 1-1.5 0V5.56l-6.22 6.22a.75.75 0 1 1-1.06-1.06l6.22-6.22h-6.19a.75.75 0 0 1-.75-.75Z"/></svg>