<svg xmlns="http://www.w3.org/2000/svg" width="20" height="20" viewBox="0 0 20 20"><path d="M5.646 9.146a.5.5 0 0 1 .708 0l2 2a.5.5 0 0 1 0 .708l-2 2a.5.5 0 0 1-.708-.708L7.293 11.5 5.646 9.854a.5.5 0 0 1 0-.708ZM14.5 13h-5a.5.5 0 0 0 0 1h5a.5.5 0 0 0 0-1ZM2.996 5.5a2.5 2.5 0 0 1 2.5-2.5h9a2.5 2.5 0 0 1 2.5 2.5V6H17v1h-.003v7.5a2.5 2.5 0 0 1-2.5 2.5h-9a2.5 2.5 0 0 1-2.5-2.5v-9Zm13 .5v-.5a1.5 1.5 0 0 0-1.5-1.5h-9a1.5 1.5 0 0 0-1.5 1.5V6h12Zm-12 1v7.5a1.5 1.5 0 0 0 1.5 1.5h9a1.5 1.5 0 0 0 1.5-1.5V7h-12Z"/></svg>