<svg xmlns="http://www.w3.org/2000/svg" width="24" height="24"><path d="m10.95 2.054-.005-.007-.013.01C5.912 2.59 2 6.837 2 12c0 2.312.785 4.441 2.103 6.135v.002h.002a9.987 9.987 0 0 0 6.92 3.816c.047-.476.163-.974.337-1.477a8.478 8.478 0 0 1-5.631-2.736v-.001c.055-.24.08-.518.1-.76l.009-.118c.018-.22.035-.432.063-.646.07-.527.19-.879.377-1.078.24-.257.486-.3 1.001-.391l.093-.017c.264-.046.617-.117.957-.302.363-.198.67-.5.901-.945.233-.448.216-.91.152-1.275a6.996 6.996 0 0 0-.23-.863 23.777 23.777 0 0 1-.046-.148c-.205-.668-.23-.993-.061-1.25.184-.28.436-.344 1.092-.514l.085-.021c.666-.172 1.568-.46 2.09-1.573.566-1.205.247-2.564-.1-3.486a8.876 8.876 0 0 0-.373-.85c.053-.002.106-.002.159-.002a8.46 8.46 0 0 1 4.535 1.31c-.192.255-.449.591-.736.95-.63.787-1.34 1.597-1.824 1.96a1.387 1.387 0 0 0-.486.648 1.458 1.458 0 0 0-.055.734c.07.416.291.806.487 1.104.163.249.355.5.516.712l.11.143c.093.125.17.228.227.317.029.043.05.078.064.104.014.025.019.038.02.039.04.11.083.29.133.54l.022.106c.444-.198.925-.35 1.44-.445a5.174 5.174 0 0 0-.188-.72c-.11-.297-.349-.616-.521-.844a43.824 43.824 0 0 0-.13-.17 10.698 10.698 0 0 1-.439-.605c-.155-.236-.23-.399-.255-.498.65-.502 1.448-1.436 2.05-2.187.296-.37.56-.715.757-.979a8.478 8.478 0 0 1 2.76 5.818c.58.046 1.08.122 1.51.211C21.863 6.342 17.439 2 12 2c-.354 0-.705.018-1.05.054ZM4.436 15.881a8.503 8.503 0 0 1 5.796-12.197 7.615 7.615 0 0 1 .579 1.196c.314.835.44 1.691.146 2.32-.225.478-.545.613-1.108.758l-.162.04c-.532.129-1.371.331-1.893 1.123-.601.912-.305 1.911-.12 2.515l.06.192c.08.255.14.45.172.636.038.217.01.296-.004.325-.1.193-.2.272-.288.32-.11.06-.254.1-.502.143-.04.008-.084.015-.13.022-.463.076-1.199.197-1.798.84-.486.52-.663 1.21-.748 1.767Zm7.571 6.324c.06-.965.495-2.142 1.233-3.251.239-.406.534-.817.886-1.218a8.895 8.895 0 0 1 4.496-2.75.5.5 0 0 0-.243-.971 9.896 9.896 0 0 0-5.005 3.061c-.267.305-.51.622-.726.943A3.56 3.56 0 0 1 12.5 17c0-.917.467-1.913 1.207-2.703a5.326 5.326 0 0 1 3.195-1.634c2.8-.37 4.538-.06 5.563.227a.75.75 0 0 1 .211 1.348c-.057.038-.149.13-.26.34a4.94 4.94 0 0 0-.32.825c-.087.284-.17.591-.26.925l-.058.212c-.111.41-.234.85-.382 1.286-.292.862-.704 1.782-1.397 2.488-.719.733-1.695 1.19-2.999 1.19-1.329 0-2.257-.539-2.85-1.159-.404.74-.614 1.437-.646 1.951a.75.75 0 0 1-1.497-.091Z"/></svg>