<svg xmlns="http://www.w3.org/2000/svg" width="32" height="32" viewBox="0 0 32 32"><path d="M16 2c7.732 0 14 6.268 14 14s-6.268 14-14 14S2 23.732 2 16 8.268 2 16 2Zm1.5 20a1.5 1.5 0 1 0-3 0 1.5 1.5 0 0 0 3 0ZM14 12c0-.537.18-1.041.497-1.398.301-.339.774-.602 1.503-.602 1.308 0 2.382 1.348 2.03 2.758-.18.722-.61 1.135-1.257 1.756l-.178.17C15.866 15.39 15 16.328 15 18a1 1 0 1 0 2 0c0-.827.353-1.267.985-1.877l.191-.182c.614-.58 1.466-1.385 1.794-2.699C20.618 10.652 18.692 8 16 8c-1.271 0-2.298.487-2.997 1.273C12.32 10.041 12 11.037 12 12a1 1 0 1 0 2 0Z"/></svg>