<svg xmlns="http://www.w3.org/2000/svg" width="24" height="24" viewBox="0 0 24 24"><path d="M15.986 4a2.25 2.25 0 0 0-2.236-2h-3.5a2.25 2.25 0 0 0-2.236 2H6.25A2.25 2.25 0 0 0 4 6.25v3.85a5.46 5.46 0 0 1 1.5-.51V6.25a.75.75 0 0 1 .75-.75h2.129c.404.603 1.091 1 1.871 1h3.5c.78 0 1.467-.397 1.871-1h2.129a.75.75 0 0 1 .75.75v13.5a.75.75 0 0 1-.75.75h-3.918a1.755 1.755 0 0 1 0 1.5h3.918A2.25 2.25 0 0 0 20 19.75V6.25A2.25 2.25 0 0 0 17.75 4h-1.764Zm.009.096L16 4.25c0-.052-.002-.103-.005-.154ZM10.25 3.5h3.5a.75.75 0 0 1 0 1.5h-3.5a.75.75 0 0 1 0-1.5Zm-.3 14.39a4.5 4.5 0 1 0-1.145.976l2.915 2.914a.75.75 0 1 0 1.06-1.06l-2.83-2.83ZM6.5 18a3 3 0 1 1 0-6 3 3 0 0 1 0 6Z"/></svg>