<svg xmlns="http://www.w3.org/2000/svg" width="24" height="24"><path d="m11.25 13.75-.085-.073a.75.75 0 0 0-.976.073l-.69.69V7.75l-.007-.102A.75.75 0 0 0 8.75 7l-.102.006A.75.75 0 0 0 8 7.75v6.691l-.69-.69-.084-.074a.75.75 0 0 0-.976 1.133l1.969 1.971.084.073a.75.75 0 0 0 .977-.073l1.97-1.97.073-.085a.75.75 0 0 0-.072-.976ZM1.999 12c0 5.523 4.477 10 10 10s10-4.477 10-10-4.477-10-10-10-10 4.477-10 10Zm18.5 0a8.5 8.5 0 1 1-17 0 8.5 8.5 0 0 1 17 0Zm-2.75 1.75-.084-.073a.75.75 0 0 0-.976.073l-.69.69V7.75l-.007-.102a.75.75 0 0 0-.743-.649l-.102.007a.75.75 0 0 0-.648.743v6.692l-.69-.69-.083-.074a.75.75 0 0 0-.977 1.133l1.969 1.971.084.073a.75.75 0 0 0 .977-.073l1.97-1.97.073-.085a.75.75 0 0 0-.072-.976Z"/></svg>