<svg xmlns="http://www.w3.org/2000/svg" width="48" height="48" viewBox="0 0 48 48"><path d="M24 6c-5.738 0-10.45 4.393-10.955 10h-.295a7.75 7.75 0 0 0 0 15.5h7.336C20.829 25.027 26.328 20 33 20c3.993 0 7.566 1.8 9.95 4.633A7.75 7.75 0 0 0 35.25 16h-.295C34.45 10.393 29.738 6 24 6Zm-2 27c0 6.075 4.925 11 11 11s11-4.925 11-11-4.925-11-11-11-11 4.925-11 11Zm8.647-7.093A7 7 0 0 1 38 27.601V27a1 1 0 1 1 2 0v3a1 1 0 0 1-1 1h-3a1 1 0 1 1 0-2h.57a5 5 0 0 0-7.106-.035 1 1 0 0 1-1.414-1.415 7 7 0 0 1 2.597-1.643Zm4.706 14.186A7 7 0 0 1 28 38.399V39a1 1 0 1 1-2 0v-3a1 1 0 0 1 1-1h3a1 1 0 1 1 0 2h-.57a4.996 4.996 0 0 0 5.25 1.21 5 5 0 0 0 1.856-1.175 1 1 0 0 1 1.414 1.415 7 7 0 0 1-2.597 1.643Z"/></svg>