<svg xmlns="http://www.w3.org/2000/svg" width="32" height="32" viewBox="0 0 32 32"><path d="M8.25 5.5A1.75 1.75 0 0 0 6.5 7.25v.5a1.25 1.25 0 1 1-2.5 0v-.5a4.25 4.25 0 0 1 8.5 0v4.25H22V7.25a1.75 1.75 0 1 0-3.5 0v.5a1.25 1.25 0 1 1-2.5 0v-.5a4.25 4.25 0 0 1 8.5 0v11.417A10.055 10.055 0 0 1 22 19v-5h-9.5v1.98a14.122 14.122 0 0 0-2.5-.439V7.25A1.75 1.75 0 0 0 8.25 5.5ZM3.386 18.893h.002l.001-.002.003-.003.007-.007.02-.018.055-.05a6.488 6.488 0 0 1 .828-.59 8.463 8.463 0 0 1 2.421-.967c2.138-.502 5.152-.407 8.938 1.594 3.348 1.77 6.23 1.832 8.255 1.48a10.722 10.722 0 0 0 2.38-.697 7.658 7.658 0 0 0 .754-.374l.027-.017v.001a1.25 1.25 0 0 1 1.349 2.105l-.003.001-.003.002-.007.005-.022.013a4.624 4.624 0 0 1-.294.169c-.193.104-.467.242-.815.392-.696.299-1.695.647-2.938.863-2.5.435-5.955.327-9.851-1.733-3.293-1.74-5.691-1.724-7.198-1.37a5.967 5.967 0 0 0-1.705.677 3.993 3.993 0 0 0-.477.335l-.008.007a1.25 1.25 0 0 1-1.719-1.816Zm0 6h.002l.001-.002.003-.003.007-.007.02-.018.055-.05a6.488 6.488 0 0 1 .828-.59 8.463 8.463 0 0 1 2.421-.967c2.138-.502 5.152-.407 8.938 1.594 3.348 1.77 6.23 1.832 8.255 1.48a10.722 10.722 0 0 0 2.38-.697 7.658 7.658 0 0 0 .754-.374l.027-.017v.001a1.25 1.25 0 0 1 1.349 2.105l-.003.001-.003.002-.007.005-.022.013a4.624 4.624 0 0 1-.294.169c-.193.104-.467.242-.815.392-.696.299-1.695.647-2.938.863-2.5.435-5.955.327-9.851-1.733-3.293-1.74-5.691-1.724-7.198-1.37a5.967 5.967 0 0 0-1.705.677 3.993 3.993 0 0 0-.477.335l-.008.007a1.25 1.25 0 0 1-1.719-1.816Z"/></svg>