<svg xmlns="http://www.w3.org/2000/svg" width="28" height="28"><path d="M14 14.5a1.25 1.25 0 1 0 0-2.5 1.25 1.25 0 0 0 0 2.5Zm11 7.25V9.5H3v12.25A3.25 3.25 0 0 0 6.25 25h6v-3.573a1.75 1.75 0 0 1-1.663-2.985l2.25-2a1.75 1.75 0 0 1 2.326 0l2.25 2a1.75 1.75 0 0 1-1.663 2.985V25h6A3.25 3.25 0 0 0 25 21.75Zm-8.75-8.5a2.25 2.25 0 1 1-4.5 0 2.25 2.25 0 0 1 4.5 0Zm8.75-7A3.25 3.25 0 0 0 21.75 3H6.25A3.25 3.25 0 0 0 3 6.25V8h22V6.25Zm-9.248 14.06a.75.75 0 0 0 .996-1.12l-2.25-2a.75.75 0 0 0-.996 0l-2.25 2a.75.75 0 0 0 .996 1.12l1.002-.89v5.83a.75.75 0 0 0 1.5 0v-5.83l1.002.89Z"/></svg>