<svg xmlns="http://www.w3.org/2000/svg" width="20" height="20"><path d="M16 6v3.207a5.479 5.479 0 0 0-1-.185V6a.5.5 0 0 0-1 0v3.022a5.5 5.5 0 0 0-1 .185V4.5a.5.5 0 0 0-1 0v4a.5.5 0 0 1-1 0v-5a.5.5 0 0 0-1 0v5a.5.5 0 0 1-1 0v-4a.5.5 0 0 0-1 0v6a.499.499 0 0 1-.854.373l-.008-.008c-.22-.22-.434-.434-.716-.575-.697-.349-2.223-.575-2.407.498.176.137.356.272.537.408.514.385 1.034.775 1.476 1.235l1.328 1.384c.754.785 1.319 1.687 1.858 2.623.07.123.162.23.268.317l.008.018-.3.986a2.159 2.159 0 0 1-.842-.822c-.5-.866-1.015-1.703-1.713-2.43l-1.328-1.383c-.442-.46-.965-.848-1.483-1.232-.2-.149-.4-.296-.592-.447A.603.603 0 0 1 3 10.97c0-.754.536-1.575 1.217-1.79.91-.306 1.796-.213 2.652.215l.131.07V4.5a1.5 1.5 0 0 1 2.053-1.395 1.5 1.5 0 0 1 2.894 0A1.5 1.5 0 0 1 14 4.5v.085A1.5 1.5 0 0 1 16 6Zm3 8.5a4.5 4.5 0 0 1-6.681 3.937l-1.79.544a.41.41 0 0 1-.51-.51l.544-1.789A4.5 4.5 0 1 1 19 14.5ZM12.5 13a.5.5 0 0 0 0 1h4a.5.5 0 0 0 0-1h-4Zm-.5 2.5a.5.5 0 0 0 .5.5h2a.5.5 0 0 0 0-1h-2a.5.5 0 0 0-.5.5Z"/></svg>