<svg xmlns="http://www.w3.org/2000/svg" width="20" height="20" viewBox="0 0 20 20"><path d="M19 15.75v.5A1.752 1.752 0 0 1 17.25 18H2.75A1.752 1.752 0 0 1 1 16.25v-.5a.75.75 0 1 1 1.5 0v.5a.25.25 0 0 0 .25.25h14.5a.25.25 0 0 0 .25-.25v-.5a.75.75 0 1 1 1.5 0ZM3.833 10.376a4.168 4.168 0 0 1 2.527-.61c.37.02.74.074 1.1.162a.968.968 0 0 0-.55-.757 2.642 2.642 0 0 0-1.261-.234 2.81 2.81 0 0 0-1.068.234.75.75 0 1 1-.671-1.342 4.254 4.254 0 0 1 1.69-.391 4.144 4.144 0 0 1 1.99.391A2.689 2.689 0 0 1 9 10.457V14.5a.75.75 0 1 1-1.5.056 3.727 3.727 0 0 1-2.945.569 2.61 2.61 0 0 1-.722-4.749Zm1.111 3.3a2.924 2.924 0 0 0 2.556-1V11.5a4.5 4.5 0 0 0-1.216-.235 2.68 2.68 0 0 0-1.619.361 1.112 1.112 0 0 0 .279 2.05ZM11 14.5V4a.75.75 0 1 1 1.5 0v4.657A2.707 2.707 0 0 1 14.25 8a3.279 3.279 0 0 1 3 3.5 3.279 3.279 0 0 1-3 3.5 2.713 2.713 0 0 1-1.75-.657v.157a.75.75 0 1 1-1.5 0Zm1.75-3a1.8 1.8 0 0 0 1.5 2 1.8 1.8 0 0 0 1.5-2 1.8 1.8 0 0 0-1.5-2 1.8 1.8 0 0 0-1.5 2Z"/></svg>