<svg xmlns="http://www.w3.org/2000/svg" width="16" height="16"><path d="M8.999 7.999a1 1 0 1 1-2 0 1 1 0 0 1 2 0Zm-1-3.5a3.5 3.5 0 0 0-.953 6.868c.092-.116.19-.227.296-.333l.538-.538a2.5 2.5 0 1 1 2.616-2.616l.863-.863A3.501 3.501 0 0 0 7.999 4.5Zm4.638 1.627A5.001 5.001 0 0 0 3 7.999a5.002 5.002 0 0 0 3.365 4.727 3.905 3.905 0 0 0-.017.063l-.227.91a6 6 0 1 1 7.54-7.692 2.57 2.57 0 0 0-1.025.119Zm-4.332 5.359 3.18-3.18.851-.851a1.559 1.559 0 0 1 2.207 0c.61.61.61 1.597 0 2.207l-4.288 4.287a2.776 2.776 0 0 1-1.29.73l-1.21.303a.61.61 0 0 1-.74-.739l.078-.311.225-.9.02-.075a2.78 2.78 0 0 1 .71-1.214l.257-.257Z"/></svg>