<svg xmlns="http://www.w3.org/2000/svg" width="48" height="48" viewBox="0 0 48 48"><path d="M7.5 10.5c-.46 0-.9.077-1.311.22A6.253 6.253 0 0 1 12.25 6h23.5A6.25 6.25 0 0 1 42 12.25v11.794c-.78-.5-1.618-.919-2.5-1.244V12.25a3.75 3.75 0 0 0-3.75-3.75h-23.5a3.75 3.75 0 0 0-3.427 2.224A3.993 3.993 0 0 0 7.5 10.5Zm15.3 29c.325.882.744 1.72 1.244 2.5H12.25A6.25 6.25 0 0 1 6 35.75V18.21a4.01 4.01 0 0 0 2.5.165V35.75a3.75 3.75 0 0 0 3.75 3.75H22.8Zm.94-11a13.044 13.044 0 0 1 1.88-2.5h-8.37a1.25 1.25 0 1 0 0 2.5h6.49ZM7.5 12A2.496 2.496 0 0 0 5 14.5 2.496 2.496 0 0 0 7.5 17a2.5 2.5 0 0 0 0-5Zm9.75 7a1.25 1.25 0 1 0 0 2.5h13.5a1.25 1.25 0 1 0 0-2.5h-13.5ZM46 35c0 6.075-4.925 11-11 11s-11-4.925-11-11 4.925-11 11-11 11 4.925 11 11Zm-12.293-5.707a1 1 0 0 0-1.414 0l-5 5a1 1 0 0 0 0 1.414l5 5a1 1 0 0 0 1.414-1.414L30.414 36H42a1 1 0 1 0 0-2H30.414l3.293-3.293a1 1 0 0 0 0-1.414Z"/></svg>