<svg xmlns="http://www.w3.org/2000/svg" width="24" height="24"><path d="M22 12c0 5.523-4.477 10-10 10S2 17.523 2 12 6.477 2 12 2s10 4.477 10 10ZM10.351 8.95l.02-.022a2.962 2.962 0 0 1 .486-.447c.346-.252.818-.481 1.392-.481.967 0 1.75.783 1.75 1.75 0 .534-.194.862-.527 1.157-.32.282-.726.502-1.24.78l-.343.187c-.634.348-1.37.788-1.937 1.478C9.364 14.067 9 14.996 9 16.25c0 .414.336.75.75.75h5a.75.75 0 0 0 0-1.5h-4.185c.099-.52.3-.897.546-1.196.37-.45.884-.777 1.5-1.116l.286-.154c.515-.277 1.107-.596 1.568-1.003.604-.534 1.035-1.253 1.034-2.281a3.25 3.25 0 0 0-3.25-3.25c-.987 0-1.764.396-2.276.769a4.459 4.459 0 0 0-.753.696 2.145 2.145 0 0 0-.067.083v.002H9.15a.75.75 0 0 0 1.199.903l.001-.002Zm-.001.003.002-.003Z"/></svg>