<svg xmlns="http://www.w3.org/2000/svg" width="24" height="24"><path d="M18.5 20a.5.5 0 0 1-.5.5h-5v1c0 .171-.017.338-.05.5H18a2 2 0 0 0 2-2V9.828a2 2 0 0 0-.586-1.414l-5.829-5.828a.491.491 0 0 0-.049-.04.63.63 0 0 1-.036-.03 2.072 2.072 0 0 0-.219-.18.652.652 0 0 0-.08-.044l-.048-.024-.05-.029c-.054-.031-.109-.063-.166-.087a1.977 1.977 0 0 0-.624-.138.56.56 0 0 1-.059-.007.605.605 0 0 0-.082-.007H6a2 2 0 0 0-2 2v7h1.5V4a.5.5 0 0 1 .5-.5h6V8a2 2 0 0 0 2 2h4.5v10Zm-5-15.379L17.378 8.5H14a.5.5 0 0 1-.5-.5V4.621ZM5 12h3v2H5v-2Zm-2.5 0H4v2.5a.5.5 0 0 0 .5.5h4a.5.5 0 0 0 .5-.5V12h.379a1.5 1.5 0 0 1 1.06.44l1.122 1.12A1.5 1.5 0 0 1 12 14.622V21.5a1.5 1.5 0 0 1-1.5 1.5H10v-5.5a.5.5 0 0 0-.5-.5h-6a.5.5 0 0 0-.5.5V23h-.5A1.5 1.5 0 0 1 1 21.5v-8A1.5 1.5 0 0 1 2.5 12ZM9 18v5H4v-5h5Z"/></svg>