<svg xmlns="http://www.w3.org/2000/svg" width="16" height="16"><path d="M8.06 10.452c.041.14.096.324.143.448l.001-.001a.763.763 0 0 1 .301.601.749.749 0 0 1-.75.75c-.73 0-.939-.701-1.14-1.379C6.201 9.496 5.82 8.75 5.001 8.75h-.75v2.75c0 .2-.078.388-.22.53a.77.77 0 0 1-1.061 0 .743.743 0 0 1-.22-.53v-7a.749.749 0 0 1 .75-.75h2.25c.669.001 1.297.26 1.768.732a2.485 2.485 0 0 1 .344 3.097c-.198.312-.46.575-.77.771.454.631.778 1.335.966 2.098l.001.004ZM6.455 6.957c.187-.186.294-.443.294-.707a1.006 1.006 0 0 0-1.001-.999H4.25v2h1.5c.263-.001.52-.107.706-.294Zm7.195.918c.229.202.421.445.563.716h.001c.187.356.286.758.286 1.16a2.49 2.49 0 0 1-.732 1.768 2.49 2.49 0 0 1-1.768.732H9.5a.749.749 0 0 1-.75-.75v-7a.749.749 0 0 1 .75-.75h2.25c.669.001 1.297.26 1.768.732.471.473.732 1.1.732 1.768a2.486 2.486 0 0 1-.6 1.624Zm-3.4-2.624v2h1.5a1.006 1.006 0 0 0 1-1 1.003 1.003 0 0 0-1.001-1H10.25Zm2.456 5.206c.187-.186.294-.443.294-.707a1.006 1.006 0 0 0-1.001-.999H10.25v2h1.749c.264-.001.521-.107.707-.294Z"/></svg>