<svg xmlns="http://www.w3.org/2000/svg" width="20" height="20"><path d="M6 2a.5.5 0 0 1 .466.318l3.5 8.956a.5.5 0 0 1-.931.364l-1.03-2.635H4.008l-1.042 2.68a.5.5 0 1 1-.932-.363l3.5-9.001A.5.5 0 0 1 6 2Zm.002 1.877L4.397 8.003h3.217L6.002 3.877ZM11.5 2a.5.5 0 0 1 .5.5v3.523h.004c.225-.406.534-.723.926-.953.397-.23.84-.345 1.332-.345.888 0 1.605.331 2.15.994.546.662.818 1.544.818 2.643 0 .142-.004.28-.013.414l-.044-.044a2.487 2.487 0 0 0-1.154-.656c-.04-.665-.217-1.202-.533-1.614-.36-.468-.852-.703-1.474-.703-.6 0-1.09.241-1.474.724-.291.367-.47.823-.538 1.366v1.03c.053.43.176.804.367 1.123L11 11.37V2.5a.5.5 0 0 1 .5-.5ZM9.44 16.466a1.5 1.5 0 0 1 0-2.122l4.904-4.904a1.5 1.5 0 0 1 2.122-.001l2.095 2.095a1.5 1.5 0 0 1 0 2.122L14.215 18h2.531a.5.5 0 1 1 0 1h-4.092v-.001a1.495 1.495 0 0 1-1.12-.438l-2.096-2.095Zm5.611-6.319-3.598 3.598 2.802 2.803 3.598-3.599a.5.5 0 0 0 .001-.708l-2.095-2.095a.5.5 0 0 0-.708.001Zm-1.503 7.108-2.802-2.802-.598.598a.5.5 0 0 0-.002.708l2.095 2.095a.5.5 0 0 0 .709-.001l.598-.598Z"/></svg>