<svg xmlns="http://www.w3.org/2000/svg" width="20" height="20" viewBox="0 0 20 20"><path d="M10 2a.75.75 0 0 1 .53.22l1.5 1.5a.75.75 0 0 1-1.06 1.06l-.22-.22v1.69a.75.75 0 0 1-1.5 0V4.56l-.22.22a.75.75 0 0 1-1.06-1.06l1.5-1.5A.75.75 0 0 1 10 2Zm2 8a2 2 0 1 1-4 0 2 2 0 0 1 4 0Zm-9.78-.53a.75.75 0 0 0 0 1.06l1.5 1.5a.75.75 0 0 0 1.06-1.06l-.22-.22h1.69a.75.75 0 0 0 0-1.5H4.56l.22-.22a.75.75 0 0 0-1.06-1.06l-1.5 1.5ZM10 18a.75.75 0 0 0 .53-.22l1.5-1.5a.75.75 0 1 0-1.06-1.06l-.22.22v-1.69a.75.75 0 0 0-1.5 0v1.69l-.22-.22a.75.75 0 0 0-1.06 1.06l1.5 1.5c.14.141.331.22.53.22Zm7.78-8.53a.75.75 0 0 1 0 1.06l-1.5 1.5a.75.75 0 1 1-1.06-1.06l.22-.22h-1.69a.75.75 0 0 1 0-1.5h1.69l-.22-.22a.75.75 0 0 1 1.06-1.06l1.5 1.5Z"/></svg>