<svg xmlns="http://www.w3.org/2000/svg" width="24" height="24"><path d="M12 5.5a4.5 4.5 0 0 0-4.495 4.285.75.75 0 0 1-.75.715H6.5a3 3 0 1 0 0 6h6.355l-.365.365A3.67 3.67 0 0 0 11.717 18H6.5a4.5 4.5 0 0 1-.42-8.98 6.001 6.001 0 0 1 11.84 0 4.48 4.48 0 0 1 2.433 1 3.27 3.27 0 0 0-1.701.71 2.99 2.99 0 0 0-1.152-.23h-.256a.75.75 0 0 1-.749-.715A4.5 4.5 0 0 0 12 5.5Zm7.1 6.17-5.903 5.902a2.686 2.686 0 0 0-.706 1.247l-.458 1.831a1.087 1.087 0 0 0 1.319 1.318l1.83-.457a2.685 2.685 0 0 0 1.248-.707l5.902-5.902A2.286 2.286 0 0 0 19.1 11.67Z"/></svg>