<svg xmlns="http://www.w3.org/2000/svg" width="48" height="48" viewBox="0 0 48 48"><path d="M21.606 5.855a3.778 3.778 0 0 1 4.788 0l13.175 10.742A3.91 3.91 0 0 1 41 19.628v19.485C41 41.26 39.288 43 37.175 43h-26.35C8.713 43 7 41.26 7 39.113V19.628a3.91 3.91 0 0 1 1.431-3.031L21.606 5.855ZM19.25 24.5a2.25 2.25 0 1 0-4.5 0 2.25 2.25 0 0 0 4.5 0Zm7 0a2.25 2.25 0 1 0-4.5 0 2.25 2.25 0 0 0 4.5 0Zm7 0a2.25 2.25 0 1 0-4.5 0 2.25 2.25 0 0 0 4.5 0Zm-7 7a2.25 2.25 0 1 0-4.5 0 2.25 2.25 0 0 0 4.5 0Zm-7 0a2.25 2.25 0 1 0-4.5 0 2.25 2.25 0 0 0 4.5 0Zm14 0a2.25 2.25 0 1 0-4.5 0 2.25 2.25 0 0 0 4.5 0Z"/></svg>