<svg xmlns="http://www.w3.org/2000/svg" width="20" height="20" viewBox="0 0 20 20"><path d="M10 18c.225 0 .448-.01.668-.027a2.003 2.003 0 0 1-1.559-1.319c-.392-.305-.783-.817-1.13-1.562a9.254 9.254 0 0 1-.56-1.592H9v-1H7.206A14.87 14.87 0 0 1 7 10c0-.883.073-1.725.206-2.5h5.588c.133.775.206 1.617.206 2.5h1c0-.87-.067-1.712-.193-2.5h2.733c.297.776.46 1.62.46 2.5h1a8 8 0 1 0-8 8Zm0-15c.657 0 1.407.59 2.022 1.908.217.466.406 1.002.559 1.592H7.419c.153-.59.342-1.126.56-1.592C8.592 3.59 9.342 3 10 3ZM7.072 4.485A10.502 10.502 0 0 0 6.389 6.5H3.936a7.022 7.022 0 0 1 3.778-3.118c-.241.33-.456.704-.642 1.103ZM6.192 7.5A15.97 15.97 0 0 0 6 10c0 .87.067 1.712.193 2.5H3.46A6.984 6.984 0 0 1 3 10c0-.88.163-1.724.46-2.5h2.733Zm.197 6c.176.743.407 1.422.683 2.015.186.399.401.773.642 1.103A7.022 7.022 0 0 1 3.936 13.5H6.39Zm5.897-10.118A7.021 7.021 0 0 1 16.064 6.5H13.61a10.504 10.504 0 0 0-.683-2.015 6.635 6.635 0 0 0-.642-1.103ZM10 12a1 1 0 0 1 1-1h7a1 1 0 0 1 1 1v4a1 1 0 0 1-1 1h-2v1h.5a.5.5 0 0 1 0 1h-4a.5.5 0 0 1 0-1h.5v-1h-2a1 1 0 0 1-1-1v-4Z"/></svg>