<svg xmlns="http://www.w3.org/2000/svg" width="28" height="28"><path d="M14 2a.75.75 0 0 1 .75.75v1.496a.75.75 0 0 1-1.5 0V2.75A.75.75 0 0 1 14 2Zm0 18a6 6 0 1 0 0-12 6 6 0 0 0 0 12Zm0-1.5a4.5 4.5 0 1 1-.001-9 4.5 4.5 0 0 1 0 9Zm11.25-3.75a.75.75 0 0 0 0-1.5h-1.497a.75.75 0 0 0 0 1.5h1.496ZM14 23.004a.75.75 0 0 1 .75.75v1.496a.75.75 0 0 1-1.5 0v-1.496a.75.75 0 0 1 .75-.75ZM4.25 14.75a.75.75 0 0 0 0-1.5h-1.5a.75.75 0 0 0 0 1.5h1.5Zm.969-9.531a.75.75 0 0 1 1.06 0l1.5 1.5a.75.75 0 0 1-1.06 1.06l-1.5-1.5a.75.75 0 0 1 0-1.06Zm1.06 17.56a.75.75 0 0 1-1.06-1.06l1.5-1.5a.75.75 0 0 1 1.06 1.06l-1.5 1.5Zm16.5-17.56a.75.75 0 0 0-1.06 0l-1.5 1.5a.75.75 0 0 0 1.06 1.06l1.5-1.5a.75.75 0 0 0 0-1.06Zm-1.052 17.569a.75.75 0 1 0 1.06-1.06l-1.508-1.509a.75.75 0 1 0-1.06 1.06l1.508 1.509Z"/></svg>