<svg xmlns="http://www.w3.org/2000/svg" width="16" height="16"><path d="M4.5 2A2.5 2.5 0 0 0 2 4.5v5A2.5 2.5 0 0 0 4.5 12h5A2.5 2.5 0 0 0 12 9.5v-5A2.5 2.5 0 0 0 9.5 2h-5ZM7 6.5a1.5 1.5 0 1 1 0-3 1.5 1.5 0 0 1 0 3Zm-1.75.625h3.5c.621 0 1.125.504 1.125 1.125v.25c0 .4-.171.886-.64 1.263-.464.372-1.184.612-2.237.612-1.055 0-1.774-.245-2.236-.62-.466-.378-.637-.862-.637-1.255v-.25c0-.622.504-1.125 1.125-1.125ZM4.5 13c.456.607 1.182 1 2 1h3A4.5 4.5 0 0 0 14 9.5v-3c0-.818-.393-1.544-1-2v5A3.5 3.5 0 0 1 9.5 13h-5Z"/></svg>