<svg xmlns="http://www.w3.org/2000/svg" width="48" height="48" viewBox="0 0 48 48"><path d="M4 15.232 11.232 8h3.536L4 18.768v-3.536Zm0 12.536v-3.536L20.232 8h3.536L4 27.768Zm.1 8.9a4.265 4.265 0 0 1-.1-.918v-2.518L16.082 21.15c.137.95.44 1.845.88 2.656L4.099 36.668Zm26.196-11.732c-.302.385-.638.74-1.004 1.064h1.458c.605 0 1.186.102 1.727.29L44 14.769V12.25c0-.315-.034-.623-.1-.918L30.297 24.936Zm.366-9.366a7.96 7.96 0 0 1 1.09 2.446l9.673-9.673A4.236 4.236 0 0 0 39.75 8h-1.518l-7.57 7.57ZM32.768 8l-4.962 4.962a7.945 7.945 0 0 0-2.656-.88L29.232 8h3.536Zm-23 32H8.25a4.237 4.237 0 0 1-1.675-.343L12 34.232v3.536L9.768 40ZM36 31.25v.518l8-8v-3.536l-8.593 8.593A5.22 5.22 0 0 1 36 31.25Zm.768 8.75H36v-2.768l8-8v3.536L36.768 40ZM17.25 30.5a.75.75 0 0 0-.75.75V40H14v-8.75A3.25 3.25 0 0 1 17.25 28h13.5A3.25 3.25 0 0 1 34 31.25V40h-2.5v-8.75a.75.75 0 0 0-.75-.75h-13.5ZM27.5 20a3.5 3.5 0 1 0-7 0 3.5 3.5 0 0 0 7 0Zm2.5 0a6 6 0 1 1-12 0 6 6 0 0 1 12 0Z"/></svg>