<svg xmlns="http://www.w3.org/2000/svg" width="28" height="28"><path d="M3.168 6.062A2.75 2.75 0 1 1 3 11.397v9.353A4.25 4.25 0 0 0 7.25 25h7.25a7.466 7.466 0 0 1-1.5-4.5c0-1.47.423-2.842 1.155-4H9.75a.75.75 0 0 1 0-1.5h5.65a7.473 7.473 0 0 1 5.1-2c1.688 0 3.247.558 4.5 1.5V7.25A4.25 4.25 0 0 0 20.75 3H7.25a4.252 4.252 0 0 0-4.082 3.062ZM9.75 11h8.5a.75.75 0 0 1 0 1.5h-8.5a.75.75 0 0 1 0-1.5ZM3 7.168a1.75 1.75 0 1 0 1.5 3.163A1.75 1.75 0 0 0 3 7.168ZM27 20.5a6.5 6.5 0 1 1-13 0 6.5 6.5 0 0 1 13 0Zm-6-4a.5.5 0 0 0-1 0V20h-3.5a.5.5 0 0 0 0 1H20v3.5a.5.5 0 0 0 1 0V21h3.5a.5.5 0 0 0 0-1H21v-3.5Z"/></svg>