<svg xmlns="http://www.w3.org/2000/svg" width="48" height="48"><path d="M8.25 8A4.25 4.25 0 0 0 4 12.25v23.5A4.25 4.25 0 0 0 8.25 40H31v-3.668a9.46 9.46 0 0 1-2-5.832c0-.686.073-1.355.21-2h-2.96a1.25 1.25 0 1 1 0-2.5h3.881a9.53 9.53 0 0 1 5.32-4.5H26.25a1.25 1.25 0 1 1 0-2.5h9.5a1.25 1.25 0 0 1 .816 2.197A9.546 9.546 0 0 1 38.5 21c2.05 0 3.948.65 5.5 1.753V12.25A4.25 4.25 0 0 0 39.75 8H8.25ZM19 20a3 3 0 1 1-6 0 3 3 0 0 1 6 0Zm-8 6.5a1.5 1.5 0 0 1 1.5-1.5h7a1.5 1.5 0 0 1 1.5 1.5v.5s0 4-5 4-5-4-5-4v-.5ZM38.5 38a7.48 7.48 0 0 0 5.5-2.4 7.473 7.473 0 0 0 2-5.1c0-1.97-.759-3.76-2-5.1a7.48 7.48 0 0 0-5.5-2.4 7.488 7.488 0 0 0-6 3 7.471 7.471 0 0 0-1.5 4.5 7.5 7.5 0 0 0 7.5 7.5Zm3.59 1.299A9.483 9.483 0 0 0 44 38.247v6.71a1.04 1.04 0 0 1-1.652.842L38.5 43l-3.848 2.8A1.04 1.04 0 0 1 33 44.958v-6.71A9.472 9.472 0 0 0 38.442 40h.058l.058-.001a9.472 9.472 0 0 0 3.532-.701Z"/></svg>