<svg xmlns="http://www.w3.org/2000/svg" width="48" height="48" viewBox="0 0 48 48"><path d="M6.5 24c0-9.665 7.835-17.5 17.5-17.5S41.5 14.335 41.5 24v4h-5.25c-.69 0-1.25.56-1.25 1.25v13.5c0 .69.56 1.25 1.25 1.25h2A5.75 5.75 0 0 0 44 38.25V24c0-11.046-8.954-20-20-20S4 12.954 4 24v14.25A5.75 5.75 0 0 0 9.75 44h2c.69 0 1.25-.56 1.25-1.25v-13.5c0-.69-.56-1.25-1.25-1.25H6.5v-4Zm31 6.5h4v7.75a3.25 3.25 0 0 1-3.25 3.25h-.75v-11Zm-31 0h4v11h-.75a3.25 3.25 0 0 1-3.25-3.25V30.5Zm16.25-7.25v21.5a1.25 1.25 0 1 0 2.5 0v-21.5a1.25 1.25 0 1 0-2.5 0ZM18.25 28c.69 0 1.25.56 1.25 1.25v9.5a1.25 1.25 0 1 1-2.5 0v-9.5c0-.69.56-1.25 1.25-1.25ZM31 29.25a1.25 1.25 0 1 0-2.5 0v9.5a1.25 1.25 0 1 0 2.5 0v-9.5Z"/></svg>