<svg xmlns="http://www.w3.org/2000/svg" width="32" height="32" viewBox="0 0 32 32"><path d="M15 2a6 6 0 0 0-6 6v8a6.001 6.001 0 0 0 5.063 5.927c.08-.677.237-1.332.46-1.955A4 4 0 0 1 11 16V8a4 4 0 0 1 8 0v6.935a8.94 8.94 0 0 1 2-.712V8a6 6 0 0 0-6-6ZM7 16a8.001 8.001 0 0 0 7.049 7.944A8.958 8.958 0 0 0 16 28.657V29a1 1 0 1 1-2 0v-3l.001-.05C8.947 25.45 5 21.187 5 16a1 1 0 1 1 2 0Zm16 14.5a7.5 7.5 0 1 0 0-15 7.5 7.5 0 0 0 0 15Zm-1.587-11.25a.75.75 0 0 1 .695.502L23.5 23.73l1.042-2.978a.75.75 0 0 1 1.411-.013l.569 1.531h.728a.75.75 0 0 1 0 1.5H26a.75.75 0 0 1-.703-.489l-.026-.07-1.063 3.037a.75.75 0 0 1-1.416 0l-1.429-4.082-.437 1.126a.75.75 0 0 1-.699.478H18.75a.75.75 0 0 1 0-1.5h.964l.987-2.541a.75.75 0 0 1 .712-.479Z"/></svg>