<svg xmlns="http://www.w3.org/2000/svg" width="24" height="24"><path d="M4 4.25A2.25 2.25 0 0 1 6.25 2h11.5A2.25 2.25 0 0 1 20 4.25v7.248a6.452 6.452 0 0 0-1.5-.422V4.25a.75.75 0 0 0-.75-.75H6.25a.75.75 0 0 0-.75.75v15.5c0 .414.336.75.75.75h5.482A6.518 6.518 0 0 0 12.81 22H6.25A2.25 2.25 0 0 1 4 19.75V4.25ZM16.25 11c.11 0 .216.024.311.067a6.472 6.472 0 0 0-3.215 1.433H7.75a.75.75 0 0 1 0-1.5h8.5Zm-8.5-4.5a.75.75 0 0 0 0 1.5h8.5a.75.75 0 0 0 0-1.5h-8.5ZM23 17.5a5.5 5.5 0 1 0-11 0 5.5 5.5 0 0 0 11 0Zm-5 .5.001 2.503a.5.5 0 1 1-1 0V18h-2.505a.5.5 0 0 1 0-1H17v-2.5a.5.5 0 1 1 1 0V17h2.497a.5.5 0 0 1 0 1H18Z"/></svg>