<svg xmlns="http://www.w3.org/2000/svg" width="24" height="24" viewBox="0 0 24 24"><path d="M18.5 20a.5.5 0 0 1-.5.5h-4.229a4.986 4.986 0 0 1-.77 1.5H18a2 2 0 0 0 2-2V9.828a2 2 0 0 0-.586-1.414l-5.829-5.828a.491.491 0 0 0-.049-.04.63.63 0 0 1-.036-.03 2.072 2.072 0 0 0-.219-.18.652.652 0 0 0-.08-.044l-.048-.024-.05-.029c-.054-.031-.109-.063-.166-.087a1.977 1.977 0 0 0-.624-.138.56.56 0 0 1-.059-.007.605.605 0 0 0-.082-.007H6a2 2 0 0 0-2 2v10h1.5V4a.5.5 0 0 1 .5-.5h6V8a2 2 0 0 0 2 2h4.5v10Zm-5-15.379L17.378 8.5H14a.5.5 0 0 1-.5-.5V4.621ZM5.75 15.75A.75.75 0 0 0 5 15l-.2.005A4 4 0 0 0 5 23l.102-.007A.75.75 0 0 0 5 21.5l-.164-.005A2.5 2.5 0 0 1 5 16.5l.102-.007a.75.75 0 0 0 .648-.743ZM13 19a4 4 0 0 0-4-4l-.102.007A.75.75 0 0 0 9 16.5l.164.005A2.5 2.5 0 0 1 9 21.5l-.102.007A.75.75 0 0 0 9 23l.2-.005A4 4 0 0 0 13 19Zm-4.25-.75h-3.5l-.102.007a.75.75 0 0 0 .102 1.493h3.5l.102-.007a.75.75 0 0 0-.102-1.493Z"/></svg>