<svg xmlns="http://www.w3.org/2000/svg" width="16" height="16"><path d="M4.713 1C3.767 1 3 1.768 3 2.714v8.572C3 12.233 3.767 13 4.713 13h5.574c.946 0 1.713-.768 1.713-1.714V2.714C12 1.768 11.233 1 10.287 1H4.713ZM9.5 10.007a.5.5 0 0 1-.41.492l-.09.008H6a.5.5 0 0 1-.09-.992L6 9.507h3a.5.5 0 0 1 .5.5Zm-.41-2.515L9 7.5H6a.5.5 0 0 1-.09-.992L6 6.5h3a.5.5 0 0 1 .09.992Zm.41-3.5a.5.5 0 0 1-.41.493L9 4.493H6a.5.5 0 0 1-.09-.992L6 3.493h3a.5.5 0 0 1 .5.5ZM13 5a1 1 0 0 1 1 1v5.21A3.79 3.79 0 0 1 10.21 15H6a1 1 0 0 1-1-1h5a3 3 0 0 0 3-3V5Z"/></svg>