<svg xmlns="http://www.w3.org/2000/svg" width="16" height="16"><path d="M10.682 3.536a1.803 1.803 0 0 0-1.15.145 9.336 9.336 0 0 0-.221.114c-.25.133-.515.205-.776.205H7.46c-.262 0-.527-.072-.776-.205a10 10 0 0 0-.221-.114 1.803 1.803 0 0 0-1.15-.145l-.826.158a1.996 1.996 0 0 0-1.403 1.053c-.957 1.876-1.68 3.413-1.96 4.723-.288 1.352-.112 2.509.754 3.563.575.7 1.563.558 2.077-.025.396-.45.847-.97 1.287-1.482A1.507 1.507 0 0 1 6.384 11H9.61c.439 0 .856.192 1.143.526.44.512.89 1.033 1.286 1.482.514.583 1.502.724 2.077.025.867-1.054 1.042-2.211.754-3.563-.279-1.31-1.002-2.847-1.96-4.723a1.996 1.996 0 0 0-1.402-1.053l-.826-.158ZM8 7.5A.75.75 0 1 1 8 6a.75.75 0 0 1 0 1.5Z"/></svg>