<svg xmlns="http://www.w3.org/2000/svg" width="20" height="20"><path d="M10 6a2 2 0 1 0 0-4 2 2 0 0 0 0 4ZM5.472 4.15a1.761 1.761 0 0 0-2.317.88c-.4.882-.008 1.917.877 2.31l2.671 1.19A.5.5 0 0 1 7 8.987v1.865a.5.5 0 0 1-.036.187l-1.84 4.555a1.75 1.75 0 0 0 3.244 1.311l1.398-3.459a.25.25 0 0 1 .463 0l1.398 3.459a1.75 1.75 0 0 0 3.245-1.311l-1.836-4.544a.5.5 0 0 1-.036-.187V8.987a.5.5 0 0 1 .297-.457l2.671-1.19a1.74 1.74 0 0 0 .877-2.31 1.761 1.761 0 0 0-2.317-.88l-1.276.569a1.04 1.04 0 0 0-.52.524 3 3 0 0 1-5.463 0 1.042 1.042 0 0 0-.52-.524L5.471 4.15Z"/></svg>