<svg xmlns="http://www.w3.org/2000/svg" width="32" height="32" viewBox="0 0 32 32"><path d="M28.634 3.366a1.25 1.25 0 0 1 0 1.768l-.98.979a1.25 1.25 0 1 1-1.767-1.768l.98-.979a1.25 1.25 0 0 1 1.767 0Zm-4.896 4.896a1.25 1.25 0 0 1 0 1.768l-1.958 1.958a1.25 1.25 0 1 1-1.768-1.768l1.958-1.958a1.25 1.25 0 0 1 1.768 0Zm-5.875 5.875a1.25 1.25 0 0 1 0 1.768l-1.958 1.958a1.25 1.25 0 1 1-1.768-1.768l1.958-1.958a1.25 1.25 0 0 1 1.768 0Zm-5.875 5.875a1.25 1.25 0 0 1 0 1.768l-1.958 1.958a1.25 1.25 0 0 1-1.768-1.768l1.958-1.958a1.25 1.25 0 0 1 1.768 0Zm-5.875 5.875a1.25 1.25 0 0 1 0 1.768l-.98.979a1.25 1.25 0 0 1-1.767-1.768l.98-.98a1.25 1.25 0 0 1 1.767 0Z"/></svg>