<svg xmlns="http://www.w3.org/2000/svg" width="48" height="48"><path d="M7 10a1 1 0 1 1 0-2 1 1 0 0 1 0 2Zm0 3a4 4 0 1 0 0-8 4 4 0 0 0 0 8Zm15.5-7a8.5 8.5 0 0 0-8.5 8.5 1.5 1.5 0 0 0 3 0 5.5 5.5 0 1 1 5.5 5.5h-17a1.5 1.5 0 0 0 0 3h17a8.5 8.5 0 0 0 0-17Zm14.904 12a6.5 6.5 0 0 0-6.306 4.924l-.053.212a1.5 1.5 0 1 0 2.91.728l.053-.213A3.5 3.5 0 0 1 37.404 21h.096a3.5 3.5 0 1 1 0 7h-32a1.5 1.5 0 0 0 0 3H30a3 3 0 1 1-2.77 4.154l-.095-.23a1.5 1.5 0 1 0-2.77 1.153l.097.23A6 6 0 1 0 35.197 31H37.5a6.5 6.5 0 1 0 0-13h-.096ZM17 39a1 1 0 1 0-2 0 1 1 0 0 0 2 0Zm3 0a4 4 0 1 1-8 0 4 4 0 0 1 8 0Zm19-28a1 1 0 1 0-2 0 1 1 0 0 0 2 0Zm3 0a4 4 0 1 1-8 0 4 4 0 0 1 8 0Z"/></svg>