<svg xmlns="http://www.w3.org/2000/svg" width="48" height="48"><path d="M21.102 4.209a20.157 20.157 0 0 1 5.796 0 1.25 1.25 0 1 1-.36 2.474 17.655 17.655 0 0 0-5.077 0 1.25 1.25 0 0 1-.36-2.474ZM5.625 20.044a1.25 1.25 0 0 1 1.058 1.417 17.655 17.655 0 0 0 0 5.078 1.25 1.25 0 0 1-2.474.36 20.157 20.157 0 0 1 0-5.797 1.25 1.25 0 0 1 1.416-1.058Zm36.75 0a1.25 1.25 0 0 1 1.416 1.058 20.16 20.16 0 0 1 0 5.796 1.25 1.25 0 1 1-2.474-.36 17.655 17.655 0 0 0 0-5.077 1.25 1.25 0 0 1 1.058-1.417Zm-22.33 22.33a1.25 1.25 0 0 1 1.416-1.057 17.655 17.655 0 0 0 5.078 0 1.25 1.25 0 0 1 .36 2.474 20.16 20.16 0 0 1-5.797 0 1.25 1.25 0 0 1-1.058-1.416Zm15.9-34.418a20.154 20.154 0 0 1 4.099 4.099 1.25 1.25 0 1 1-2.003 1.495 17.669 17.669 0 0 0-3.591-3.59 1.25 1.25 0 0 1 1.495-2.004Zm-22.14.254a1.25 1.25 0 0 1-.255 1.75 17.669 17.669 0 0 0-3.59 3.59 1.25 1.25 0 1 1-2.004-1.495 20.157 20.157 0 0 1 4.099-4.1 1.25 1.25 0 0 1 1.75.255ZM39.79 34.196a1.25 1.25 0 0 1 .254 1.75 20.145 20.145 0 0 1-4.099 4.098 1.25 1.25 0 1 1-1.495-2.004 17.669 17.669 0 0 0 3.59-3.59 1.25 1.25 0 0 1 1.75-.254Zm-31.58 0a1.25 1.25 0 0 1 1.75.254 17.669 17.669 0 0 0 3.59 3.59 1.25 1.25 0 0 1-1.495 2.004 20.15 20.15 0 0 1-4.099-4.099 1.25 1.25 0 0 1 .254-1.75Zm24.566-16.411a5.091 5.091 0 0 0-7.66-.095l-1.118 1.246-1.118-1.246a5.091 5.091 0 0 0-7.66 6.707l7.828 9.166a1.25 1.25 0 0 0 1.9 0l7.828-9.166a5.091 5.091 0 0 0 0-6.612Z"/></svg>