<svg xmlns="http://www.w3.org/2000/svg" width="24" height="24"><path d="m12.952 5.898.084-.098 2.354-2.357c.18-.273.505-.443.86-.443.324 0 .62.14.806.368l.005.007.046.064L19.465 5.8l.085.098.005.008a1 1 0 0 1 .01 1.177l-.006.008-.099.117-.106.091-.007.006a1 1 0 0 1-1.177.01l-.009-.007-.11-.093-.801-.801v13.69l-.008.108-.002.01c-.072.463-.51.778-.99.778s-.918-.315-.99-.779l-.002-.01-.008-.108V6.414l-.8.8-.097.085-.008.006a1 1 0 0 1-1.399-1.4l.006-.007ZM4 6.492a2.5 2.5 0 0 1 2.5-2.5h4a1 1 0 1 1 0 2h-4a.5.5 0 0 0-.5.5v11a.5.5 0 0 0 .5.5h6a1 1 0 1 1 0 2h-6a2.5 2.5 0 0 1-2.5-2.5v-11Z"/></svg>