<svg xmlns="http://www.w3.org/2000/svg" width="28" height="28" viewBox="0 0 28 28"><path d="M3.28 2.22a.75.75 0 1 0-1.06 1.06l3.526 3.527A9.704 9.704 0 0 0 4.25 12c0 4.028 2.767 8.409 8.23 13.188l.377.328a1.75 1.75 0 0 0 2.283.002c1.854-1.593 3.412-3.141 4.67-4.647l4.91 4.91a.75.75 0 0 0 1.06-1.061L3.28 2.22Zm11.356 13.476a3.75 3.75 0 0 1-4.332-4.332l4.332 4.332ZM7.722 4.54l4.283 4.284a3.75 3.75 0 0 1 5.17 5.17l4.435 4.435c1.424-2.239 2.14-4.38 2.14-6.429A9.75 9.75 0 0 0 14 2.25a9.711 9.711 0 0 0-6.278 2.29Z"/></svg>