<svg xmlns="http://www.w3.org/2000/svg" width="24" height="24" viewBox="0 0 24 24"><path d="M17.5 12a5.5 5.5 0 1 1 0 11 5.5 5.5 0 0 1 0-11Zm.25-9a3.25 3.25 0 0 1 3.245 3.066L21 6.25v5.772A6.47 6.47 0 0 0 17.5 11c-1.845 0-3.51.769-4.693 2.003h-4.06l-.1.007a.75.75 0 0 0 0 1.486l.1.007h2.984A6.472 6.472 0 0 0 11 17.5c0 1.29.374 2.49 1.022 3.501L6.25 21a3.25 3.25 0 0 1-3.245-3.066L3 17.75V9.372a2.25 2.25 0 1 0 .224-4.31 3.253 3.253 0 0 1 2.831-2.056L6.25 3h11.5Zm-2.657 11.966-.07.058-.057.07a.5.5 0 0 0 0 .568l.058.07 1.77 1.769-1.768 1.766-.057.07a.5.5 0 0 0 0 .568l.058.07.069.057a.5.5 0 0 0 .568 0l.07-.057 1.766-1.767 1.77 1.769.069.058a.5.5 0 0 0 .568 0l.07-.058.058-.07a.5.5 0 0 0 0-.568l-.058-.07-1.77-1.768 1.772-1.77.058-.069a.5.5 0 0 0 0-.569l-.058-.069-.069-.058a.5.5 0 0 0-.569 0l-.069.058-1.771 1.77-1.77-1.77-.07-.058a.5.5 0 0 0-.492-.043l-.076.043Zm.16-5.47H8.747l-.102.007a.75.75 0 0 0 0 1.486l.102.007h6.504l.102-.007a.75.75 0 0 0-.102-1.493ZM3.75 6a1.25 1.25 0 1 1 0 2.5 1.25 1.25 0 0 1 0-2.5Z"/></svg>