<svg xmlns="http://www.w3.org/2000/svg" width="16" height="16" viewBox="0 0 16 16"><path d="M10.5 8c.786 0 1.512-.26 2.096-.697l2.55 2.55a.5.5 0 1 0 .708-.707l-2.55-2.55A3.5 3.5 0 1 0 10.5 8Zm0-1a2.5 2.5 0 1 1 0-5 2.5 2.5 0 0 1 0 5Zm3.435 3.056L12.879 9H2.75a.75.75 0 0 0 0 1.5h10.5a.75.75 0 0 0 .685-.444ZM7.145 7.5A4.497 4.497 0 0 1 6.257 6H2.75a.75.75 0 0 0 0 1.5h4.396ZM6.257 3C6.09 3.47 6 3.974 6 4.5H2.75a.75.75 0 0 1 0-1.5h3.506ZM2.75 12a.75.75 0 0 0 0 1.5h10.5a.75.75 0 0 0 0-1.5H2.75Z"/></svg>