<svg xmlns="http://www.w3.org/2000/svg" width="24" height="24"><path d="M18.25 3A2.25 2.25 0 0 0 16 5.25v5.924A6.517 6.517 0 0 1 17.498 11h.002V5.25a.75.75 0 0 1 1.498 0v5.924c.528.124 1.03.313 1.5.557V5.25A2.25 2.25 0 0 0 18.25 3Zm-4.252 6.25v2.772a6.534 6.534 0 0 0-1.5 1.324V9.25a.75.75 0 0 0-1.498 0v8.095a6.749 6.749 0 0 0 0 .312v1.095c0 .224.098.425.255.563.173.597.43 1.158.755 1.671a2.249 2.249 0 0 1-2.51-2.234V9.249a2.25 2.25 0 1 1 4.498 0ZM3 13.25a2.25 2.25 0 1 1 4.498 0v5.5a2.25 2.25 0 1 1-4.498 0v-5.5Zm2.998 0a.75.75 0 0 0-1.498 0v5.5a.75.75 0 0 0 1.498 0v-5.5ZM23 17.5a5.5 5.5 0 1 0-11 0 5.5 5.5 0 0 0 11 0Zm-5 .5.001 2.503a.5.5 0 1 1-1 0V18h-2.505a.5.5 0 0 1 0-1H17v-2.5a.5.5 0 1 1 1 0V17h2.497a.5.5 0 0 1 0 1H18Z"/></svg>