<svg xmlns="http://www.w3.org/2000/svg" width="28" height="28" viewBox="0 0 28 28"><path d="M15.866 3.734a2.75 2.75 0 0 0-3.732 0l-7.929 7.324A3.75 3.75 0 0 0 3 13.813v8.437A2.75 2.75 0 0 0 5.75 25h6.516a18.151 18.151 0 0 1-1.588-2.159c-.6-.974-1.178-2.191-1.178-3.37C9.5 16.992 11.523 15 14 15s4.5 1.993 4.5 4.47c0 1.18-.578 2.397-1.178 3.371-.508.825-1.1 1.583-1.588 2.159h6.516A2.75 2.75 0 0 0 25 22.25v-8.437a3.75 3.75 0 0 0-1.205-2.755l-7.929-7.324Zm-2.714 1.102a1.25 1.25 0 0 1 1.696 0l3.604 3.33c-1.645.149-3.076.76-4.342 1.3-.28.12-.554.236-.82.343-1.014.41-1.92.697-2.841.696-.777 0-1.612-.205-2.562-.806l5.265-4.863ZM17.5 19.47c0 1.78-1.804 4.07-2.822 5.221a.9.9 0 0 1-1.356 0c-1.018-1.15-2.822-3.441-2.822-5.22C10.5 17.553 12.067 16 14 16s3.5 1.554 3.5 3.47Zm-1.75 0c0-.958-.784-1.735-1.75-1.735s-1.75.777-1.75 1.735c0 .959.784 1.735 1.75 1.735s1.75-.776 1.75-1.735Z"/></svg>