<svg xmlns="http://www.w3.org/2000/svg" width="48" height="48" viewBox="0 0 48 48"><path d="M24 13.08c6.03 0 10.92 4.89 10.92 10.92 0 .683-.064 1.351-.184 2h8.014a1.25 1.25 0 1 1 0 2.5H5.25a1.25 1.25 0 0 1 0-2.5h8.013a10.983 10.983 0 0 1-.183-2c0-6.03 4.89-10.92 10.92-10.92ZM15.82 26h16.36a8.42 8.42 0 1 0-16.36 0ZM11.504 9.804l.102.091 2.148 2.148a1.25 1.25 0 0 1-1.666 1.859l-.102-.091-2.148-2.148a1.25 1.25 0 0 1 1.666-1.859Zm26.639.091a1.25 1.25 0 0 1 .091 1.666l-.091.102-2.148 2.148a1.25 1.25 0 0 1-1.859-1.666l.091-.102 2.148-2.148a1.25 1.25 0 0 1 1.768 0ZM24 3.997c.648 0 1.18.492 1.244 1.122l.006.128v3.038a1.25 1.25 0 0 1-2.493.127l-.007-.127V5.247c0-.69.56-1.25 1.25-1.25ZM21.25 38a1.25 1.25 0 1 0 0 2.5h5.5a1.25 1.25 0 0 0 0-2.5h-5.5ZM12 33.25c0-.69.56-1.25 1.25-1.25h21.5a1.25 1.25 0 1 1 0 2.5h-21.5c-.69 0-1.25-.56-1.25-1.25Z"/></svg>