<svg xmlns="http://www.w3.org/2000/svg" width="24" height="24" viewBox="0 0 24 24"><path d="M3 6.25A3.25 3.25 0 0 1 6.25 3h11.5A3.25 3.25 0 0 1 21 6.25v11.5A3.25 3.25 0 0 1 17.75 21H6.25A3.25 3.25 0 0 1 3 17.75V6.25Zm16.5 0a1.75 1.75 0 0 0-1.75-1.75H6.25A1.75 1.75 0 0 0 4.5 6.25V8h15V6.25Zm0 11.5V9.5h-15v8.25c0 .966.784 1.75 1.75 1.75h11.5a1.75 1.75 0 0 0 1.75-1.75ZM8 7.25a1 1 0 1 0 0-2 1 1 0 0 0 0 2Zm5-1a1 1 0 1 1-2 0 1 1 0 0 1 2 0Zm3 1a1 1 0 1 0 0-2 1 1 0 0 0 0 2ZM7.5 16.5v-4h9v4h-9ZM7.25 11C6.56 11 6 11.56 6 12.25v4.5c0 .69.56 1.25 1.25 1.25h9.5c.69 0 1.25-.56 1.25-1.25v-4.5c0-.69-.56-1.25-1.25-1.25h-9.5Z"/></svg>