<svg xmlns="http://www.w3.org/2000/svg" width="32" height="32" viewBox="0 0 32 32"><path d="M17 13a2 2 0 1 1 4 0 2 2 0 0 1-4 0ZM3 7.5A4.5 4.5 0 0 1 7.5 3h17A4.5 4.5 0 0 1 29 7.5v17a4.5 4.5 0 0 1-4.5 4.5h-17A4.5 4.5 0 0 1 3 24.5v-17ZM7.5 5A2.5 2.5 0 0 0 5 7.5V8h3V5h-.5ZM10 5v3h12V5H10Zm14 0v3h3v-.5A2.5 2.5 0 0 0 24.5 5H24Zm3 5h-3v12h3V10Zm0 14h-3v3h.5a2.5 2.5 0 0 0 2.5-2.5V24Zm-5 3v-3H10v3h12ZM8 27v-3H5v.5A2.5 2.5 0 0 0 7.5 27H8Zm-3-5h3V10H5v12Zm5-1.535 4.232-4.233a2.5 2.5 0 0 1 3.536 0L22 20.465V10H10v10.465ZM20.707 22l-4.353-4.354a.5.5 0 0 0-.708 0L11.293 22h9.414Z"/></svg>