<svg xmlns="http://www.w3.org/2000/svg" width="24" height="24"><path d="M8.25 13.75a3.75 3.75 0 0 1 7.446-.64 2.197 2.197 0 0 1-.638.417c-.534.23-1.416.368-2.937-.012-1.697-.424-2.84-.172-3.64.324a3.466 3.466 0 0 0-.223.15 3.81 3.81 0 0 1-.008-.239ZM6.25 3A3.25 3.25 0 0 0 3 6.25v11.5A3.25 3.25 0 0 0 6.25 21h11.5A3.25 3.25 0 0 0 21 17.75V6.25A3.25 3.25 0 0 0 17.75 3H6.25ZM8 7.25a1 1 0 1 1 0-2 1 1 0 0 1 0 2Zm4-1a.75.75 0 0 1 .75-.75h3.5a.75.75 0 0 1 0 1.5h-3.5a.75.75 0 0 1-.75-.75Zm0 2.25A5.25 5.25 0 1 1 12 19a5.25 5.25 0 0 1 0-10.5Z"/></svg>