<svg xmlns="http://www.w3.org/2000/svg" width="24" height="24"><path d="M21 6.25A3.25 3.25 0 0 0 17.75 3H6.25A3.25 3.25 0 0 0 3 6.25v11.5A3.25 3.25 0 0 0 6.25 21h6.922A3.738 3.738 0 0 1 13 19.875v-.103c0-.092.005-.182.013-.272H6.25a1.75 1.75 0 0 1-1.75-1.75V8.5h15v2.645a3.5 3.5 0 0 1 1.5.905v-5.8ZM6.25 4.5h11.5c.966 0 1.75.784 1.75 1.75V7h-15v-.75c0-.966.784-1.75 1.75-1.75ZM21 14.5a2.5 2.5 0 1 1-5 0 2.5 2.5 0 0 1 5 0Zm2 5.375C23 21.431 21.714 23 18.5 23S14 21.437 14 19.875v-.103c0-.98.794-1.772 1.773-1.772h5.454c.98 0 1.773.793 1.773 1.772v.103Z"/></svg>