<svg xmlns="http://www.w3.org/2000/svg" width="24" height="24"><path d="M6.25 3A3.25 3.25 0 0 0 3 6.25v11.5A3.25 3.25 0 0 0 6.25 21h5.772a6.471 6.471 0 0 1-.709-1.5H6.25a1.75 1.75 0 0 1-1.75-1.75V15.5h6.813a6.471 6.471 0 0 1 .709-1.5H10v-4h9.5v1.313a6.471 6.471 0 0 1 1.5.709V6.25A3.25 3.25 0 0 0 17.75 3H6.25ZM4.5 6.25c0-.966.784-1.75 1.75-1.75H14v4H4.5V6.25Zm0 3.75h4v4h-4v-4Zm15-1.5h-4v-4h2.25c.966 0 1.75.784 1.75 1.75V8.5Zm-2 14.5a5.5 5.5 0 1 0 0-11 5.5 5.5 0 0 0 0 11Zm-2-3h4a.5.5 0 0 1 0 1h-4a.5.5 0 0 1 0-1Zm3.39-5.812a.5.5 0 0 1-.078.702L16.8 16.5l2.012 1.61a.5.5 0 1 1-.624.78l-2.5-2a.5.5 0 0 1 0-.78l2.5-2a.5.5 0 0 1 .702.078Z"/></svg>