<svg xmlns="http://www.w3.org/2000/svg" width="12" height="12" viewBox="0 0 12 12"><path d="M6 1a5 5 0 1 0 0 10A5 5 0 0 0 6 1Zm.5 7.5a.5.5 0 1 1-1 0 .5.5 0 0 1 1 0ZM5 4.753a.5.5 0 0 1-1 0c0-.589.272-1.046.67-1.343.384-.285.87-.412 1.33-.412.46 0 .945.127 1.33.412.398.296.67.754.67 1.342 0 .429-.135.755-.367 1.006-.183.198-.418.333-.58.425l-.051.03c-.187.11-.296.185-.37.282-.064.082-.132.22-.132.504a.5.5 0 0 1-1 0c0-.465.12-.827.338-1.112.206-.27.472-.428.66-.538l.028-.016c.197-.114.298-.173.372-.254.05-.053.102-.132.102-.327a.63.63 0 0 0-.267-.54C6.555 4.08 6.29 3.999 6 3.999s-.554.082-.733.215a.632.632 0 0 0-.267.54Z"/></svg>