<svg xmlns="http://www.w3.org/2000/svg" width="20" height="20" viewBox="0 0 20 20"><path d="M3 5.5A2.5 2.5 0 0 1 5.5 3h9A2.5 2.5 0 0 1 17 5.5v4.1a5.465 5.465 0 0 0-1-.393V7H4v7.5A1.5 1.5 0 0 0 5.5 16h3.707c.099.349.23.683.393 1H5.5A2.5 2.5 0 0 1 3 14.5v-9ZM14.5 4h-9A1.5 1.5 0 0 0 4 5.5V6h12v-.5A1.5 1.5 0 0 0 14.5 4Zm0 15a4.5 4.5 0 1 0 0-9 4.5 4.5 0 0 0 0 9Zm2.354-4.854a.5.5 0 1 1-.708.708L15 13.707V16.5a.5.5 0 0 1-1 0v-2.793l-1.146 1.147a.5.5 0 1 1-.708-.707l2-2a.5.5 0 0 1 .351-.147h.006a.498.498 0 0 1 .348.144l.003.003 2 2Z"/></svg>