<svg xmlns="http://www.w3.org/2000/svg" width="16" height="16"><path d="M7.75 2a.75.75 0 0 0 0 1.5H9.5v.751c0 .385-.097.679-.227.855-.111.151-.263.247-.515.247a.75.75 0 0 0 0 1.5 2.08 2.08 0 0 0 1.724-.859c.367-.5.518-1.132.518-1.743V2.75a.75.75 0 0 0-.75-.75h-2.5ZM6.698 4.725a.75.75 0 0 0-1.396 0l-3.254 8.25a.75.75 0 1 0 1.395.55l.799-2.024h3.513l.797 2.024a.75.75 0 0 0 1.396-.55l-3.25-8.25Zm.466 5.276h-2.33L6 7.045l1.164 2.956ZM12.75 2a.75.75 0 0 1 .75.75v2.248h.25a.75.75 0 0 1 0 1.5h-.25v3.751a.75.75 0 0 1-1.5 0V2.75a.75.75 0 0 1 .75-.75Z"/></svg>