<svg xmlns="http://www.w3.org/2000/svg" width="24" height="24" viewBox="0 0 24 24"><path d="M8.5 12.75v4c.003.426.078.849.22 1.25H3.5A1.5 1.5 0 0 1 2 16.5v-13A1.5 1.5 0 0 1 3.5 2h6A1.5 1.5 0 0 1 11 3.5V7h1.5A1.5 1.5 0 0 1 14 8.5V9h-1.75a3.75 3.75 0 0 0-3.75 3.75Zm-.333-7.624A.75.75 0 0 0 7.75 5a.76.76 0 0 0-.75.75.75.75 0 1 0 1.167-.624Zm0 3A.75.75 0 0 0 7.75 8a.76.76 0 0 0-.75.75.75.75 0 1 0 1.167-.624Zm-3.334 4.248a.75.75 0 0 0 .417.126.76.76 0 0 0 .75-.75.75.75 0 1 0-1.167.624Zm0-3a.75.75 0 0 0 .417.126.76.76 0 0 0 .75-.75.75.75 0 1 0-1.167.624Zm0-3a.75.75 0 0 0 .417.126.76.76 0 0 0 .75-.75.75.75 0 1 0-1.167.624Zm2.5 6a.75.75 0 0 0 .417.126.76.76 0 0 0 .75-.75.75.75 0 1 0-1.167.624Zm2.167.376A2.75 2.75 0 0 1 12.25 10h7A2.75 2.75 0 0 1 22 12.75v4a2.75 2.75 0 0 1-2.75 2.75H18v1h1.25a.75.75 0 0 1 0 1.5h-7a.75.75 0 0 1 0-1.5h1.25v-1h-1.25a2.75 2.75 0 0 1-2.75-2.75v-4ZM15 19.5v1h1.5v-1H15Zm-2.75-8c-.69 0-1.25.56-1.25 1.25v4c0 .69.56 1.25 1.25 1.25h7c.69 0 1.25-.56 1.25-1.25v-4c0-.69-.56-1.25-1.25-1.25h-7Z"/></svg>