<svg xmlns="http://www.w3.org/2000/svg" width="32" height="32"><path d="M16 5a6 6 0 0 0-4.88 9.491 5.498 5.498 0 0 0-2.123.38 8 8 0 1 1 14.584-1.312 5.582 5.582 0 0 0-.533-.13l-1.444-.28A6 6 0 0 0 16 5Zm-.998 6a1 1 0 1 1 2 0v4a1 1 0 0 0 .81.982l4.57.884a2 2 0 0 1 1.548 2.494l-1.52 5.525a1 1 0 0 1-.882.732l-4.76.387s-.006-.002-.014-.008a.166.166 0 0 1-.057-.078c-.782-2.153-2.68-4.735-7.591-6.555a2 2 0 0 1 2.672-1.213l1.837.772A1 1 0 0 0 15.002 18v-7Zm1-3a3 3 0 0 0-3 3v5.495l-.449-.189a4 4 0 0 0-5.41 2.642l-.09.332a1.51 1.51 0 0 0 .963 1.817c4.74 1.653 6.227 3.924 6.801 5.503.3.824 1.116 1.48 2.113 1.398l4.76-.388a3 3 0 0 0 2.649-2.194l1.52-5.526a4 4 0 0 0-3.097-4.988l-3.76-.727V11a3 3 0 0 0-3-3Z"/></svg>