<svg xmlns="http://www.w3.org/2000/svg" width="16" height="16"><path d="M3.252 1c-.69 0-1.25.56-1.25 1.25L2 10.75c0 .69.56 1.25 1.25 1.25H5v-1.565a2.5 2.5 0 0 1 .799-1.832l.652-.605A.5.5 0 1 1 7 7.488l1.64-1.522a2 2 0 0 1 2.359-.267A1.25 1.25 0 0 0 9.75 4.5h-.497a.25.25 0 0 1-.25-.25l.002-1.999c0-.69-.56-1.251-1.25-1.251H3.252ZM4.5 4a.5.5 0 1 1 0-1 .5.5 0 0 1 0 1ZM5 5.5a.5.5 0 1 1-1 0 .5.5 0 0 1 1 0ZM4.5 8a.5.5 0 1 1 0-1 .5.5 0 0 1 0 1ZM7 3.5a.5.5 0 1 1-1 0 .5.5 0 0 1 1 0ZM6.5 6a.5.5 0 1 1 0-1 .5.5 0 0 1 0 1Zm4.18.7a1 1 0 0 0-1.36 0L6.48 9.337a1.5 1.5 0 0 0-.48 1.1V14a1 1 0 0 0 1 1h1.5a1 1 0 0 0 1-1v-1h1v1a1 1 0 0 0 1 1H13a1 1 0 0 0 1-1v-3.564a1.5 1.5 0 0 0-.48-1.1L10.68 6.7Zm-3.52 3.37L10 7.432l2.84 2.638a.5.5 0 0 1 .16.366V14h-1.5v-1a1 1 0 0 0-1-1h-1a1 1 0 0 0-1 1v1H7v-3.564a.5.5 0 0 1 .16-.366Z"/></svg>