<svg xmlns="http://www.w3.org/2000/svg" width="24" height="24" viewBox="0 0 24 24"><path d="M19.75 4A2.25 2.25 0 0 1 22 6.25v5.508a4.468 4.468 0 0 0-1.5-.646V6.25a.75.75 0 0 0-.75-.75H4.25a.75.75 0 0 0-.75.75v11.505c0 .414.336.75.75.75H16v1.5H4.25A2.25 2.25 0 0 1 2 17.755V6.25A2.25 2.25 0 0 1 4.25 4h15.5Zm-6.498 8.996h2.508c-.301.45-.524.956-.648 1.5h-1.86a.75.75 0 0 1-.102-1.493l.102-.007ZM9.75 12.5a.75.75 0 0 1 .75.75v.493l-.008.108c-.163 1.113-1.094 1.65-2.492 1.65s-2.33-.537-2.492-1.65l-.008-.11v-.491a.75.75 0 0 1 .75-.75h3.5ZM8 8.502a1.5 1.5 0 1 1 0 3 1.5 1.5 0 0 1 0-3Zm5.252.998h4.498a.75.75 0 0 1 .102 1.493L17.75 11h-4.498a.75.75 0 0 1-.102-1.493l.102-.007Zm9.748 6a3.5 3.5 0 1 1-7 0 3.5 3.5 0 0 1 7 0Zm-6 3.742v3.044a.71.71 0 0 0 1.212.502L19.5 21.5l1.288 1.288A.71.71 0 0 0 22 22.286v-3.044a4.48 4.48 0 0 1-2.5.758 4.48 4.48 0 0 1-2.5-.758Z"/></svg>