<svg xmlns="http://www.w3.org/2000/svg" width="20" height="20" viewBox="0 0 20 20"><path d="M4 4a2 2 0 0 1 2-2h8a2 2 0 0 1 2 2v5.207A5.5 5.5 0 0 0 9.207 16H5a1 1 0 0 0 1 1h3.6c.183.358.404.693.657 1H6a2 2 0 0 1-2-2V4Zm2.75 0a.75.75 0 0 0-.75.75v.5c0 .414.336.75.75.75h6.5a.75.75 0 0 0 .75-.75v-.5a.75.75 0 0 0-.75-.75h-6.5ZM19 14.5a4.5 4.5 0 1 1-9 0 4.5 4.5 0 0 1 9 0Zm-2.646-1.146a.5.5 0 0 0-.708-.708L14.5 13.793l-1.146-1.147a.5.5 0 0 0-.708.708l1.147 1.146-1.147 1.146a.5.5 0 0 0 .708.708l1.146-1.147 1.146 1.147a.5.5 0 0 0 .708-.708L15.207 14.5l1.147-1.146Z"/></svg>