<svg xmlns="http://www.w3.org/2000/svg" width="16" height="16" viewBox="0 0 16 16"><path d="M3.5 3A2.5 2.5 0 0 0 1 5.5v5A2.5 2.5 0 0 0 3.5 13h4.538A3.286 3.286 0 0 1 8 12.5a2.5 2.5 0 0 1 2.273-2.49A2.99 2.99 0 0 1 9.5 8h-5a.5.5 0 0 1 0-1h5.17A3.001 3.001 0 0 1 15 6.341V5.5A2.5 2.5 0 0 0 12.5 3h-9Zm1 2h3a.5.5 0 0 1 0 1h-3a.5.5 0 0 1 0-1Zm0 4h4a.5.5 0 0 1 0 1h-4a.5.5 0 0 1 0-1Zm10-1a2 2 0 1 1-4 0 2 2 0 0 1 4 0Zm1.5 4.5c0 1.245-1 2.5-3.5 2.5S9 13.75 9 12.5a1.5 1.5 0 0 1 1.5-1.5h4a1.5 1.5 0 0 1 1.5 1.5Z"/></svg>