<svg xmlns="http://www.w3.org/2000/svg" width="28" height="28" viewBox="0 0 28 28"><path d="m3.28 2.22 22.5 22.5a.75.75 0 0 1-1.06 1.06l-3.317-3.316.082.482c.204 1.184-1.04 2.087-2.103 1.528L14 21.644l-5.382 2.83c-1.064.56-2.307-.344-2.104-1.529l1.028-5.992-4.354-4.245c-.861-.838-.386-2.3.803-2.473l4.526-.657L2.22 3.28a.75.75 0 1 1 1.06-1.06Zm16.286 18.407L9.84 10.9l-5.533.804 4.3 4.192c.342.333.498.813.417 1.283L8.01 23.1l5.316-2.795a1.45 1.45 0 0 1 1.35 0l5.315 2.794-.424-2.472Zm-8.72-12.963 1.12 1.12L14 4.663l2.657 5.385c.212.428.62.725 1.092.793l5.943.864-4.3 4.192a1.456 1.456 0 0 0-.147.167l1.28 1.28-.067-.391 4.354-4.245c.86-.838.385-2.3-.804-2.473l-6.017-.874L15.3 3.908c-.532-1.077-2.069-1.077-2.6 0l-1.854 3.756Z"/></svg>