<svg xmlns="http://www.w3.org/2000/svg" width="28" height="28" viewBox="0 0 28 28"><path d="M27 7.5a6.5 6.5 0 1 1-13 0 6.5 6.5 0 0 1 13 0Zm-9.146-3.354a.5.5 0 0 0-.708.708L19.793 7.5l-2.647 2.646a.5.5 0 0 0 .708.708L20.5 8.207l2.646 2.647a.5.5 0 0 0 .708-.708L21.207 7.5l2.647-2.646a.5.5 0 0 0-.708-.708L20.5 6.793l-2.646-2.647ZM23.5 19.75v-5.374A7.486 7.486 0 0 0 25 13.5v6.249a3.25 3.25 0 0 1-3.066 3.245L21.75 23H6.25a3.25 3.25 0 0 1-3.245-3.066L3 19.75V8.25a3.25 3.25 0 0 1 3.066-3.245L6.25 5h7.177a7.45 7.45 0 0 0-.36 1.5H6.25a1.75 1.75 0 0 0-1.744 1.606L4.5 8.25v.964l9.5 4.94 1.706-.886c.44.366.922.683 1.44.942l-2.8 1.455a.75.75 0 0 1-.58.047l-.112-.047-9.154-4.76v8.845a1.75 1.75 0 0 0 1.606 1.744l.144.006h15.5a1.75 1.75 0 0 0 1.744-1.607l.006-.143Z"/></svg>