<svg xmlns="http://www.w3.org/2000/svg" width="24" height="24" viewBox="0 0 24 24"><path d="M5.22 5.22a.75.75 0 0 0 1.06 1.06L7 5.56v3.69a.75.75 0 0 0 1.5 0V5.56l.72.72a.75.75 0 1 0 1.06-1.06l-2-2a.75.75 0 0 0-1.06 0l-2 2Zm7.75 15.727-9.496-3.753a.75.75 0 0 1-.104-1.345l.105-.05 9.5-3.747a.75.75 0 0 1 .643 1.352l-.092.043-2.526.997v4.113l2.52.995a.75.75 0 0 1 .454.876l-.031.097a.75.75 0 0 1-.876.453l-.098-.03Zm-7.178-4.45L9.5 17.964v-2.928l-3.708 1.46ZM14.72 6.28a.75.75 0 0 1 0-1.06l2-2a.75.75 0 0 1 1.06 0l2 2a.75.75 0 0 1-1.06 1.06L18 5.56v14.69a.75.75 0 0 1-1.5 0V5.56l-.72.72a.75.75 0 0 1-1.06 0Z"/></svg>