<svg xmlns="http://www.w3.org/2000/svg" width="20" height="20" viewBox="0 0 20 20"><path d="M13.86 3a2.5 2.5 0 0 1 2.452 2.01l.197.99h.741a.75.75 0 0 1 .743.648L18 6.75a.75.75 0 0 1-.648.743l-.102.007h-.441l.112.56A1.5 1.5 0 0 1 18 9.5v5a1.5 1.5 0 0 1-1.5 1.5H16v1a1 1 0 1 1-2 0v-1H6v1a1 1 0 1 1-2 0v-1h-.5A1.5 1.5 0 0 1 2 14.5v-5a1.5 1.5 0 0 1 1.079-1.44l.111-.56h-.44a.75.75 0 0 1 0-1.5h.74l.198-.99A2.5 2.5 0 0 1 6.14 3h7.72Zm2.64 6h-13a.5.5 0 0 0-.5.5v5a.5.5 0 0 0 .5.5h13a.5.5 0 0 0 .5-.5v-5a.5.5 0 0 0-.5-.5ZM6 11a1 1 0 1 1 0 2 1 1 0 0 1 0-2Zm8 0a1 1 0 1 1 0 2 1 1 0 0 1 0-2Zm-.14-7H6.14a1.5 1.5 0 0 0-1.471 1.206L4.109 8H15.89l-.559-2.794A1.5 1.5 0 0 0 13.861 4Z"/></svg>