<svg xmlns="http://www.w3.org/2000/svg" width="24" height="24"><path d="M13.871 3.195a9.033 9.033 0 0 0-3.742 0 .75.75 0 0 0 .31 1.467 7.534 7.534 0 0 1 3.122 0 .75.75 0 1 0 .31-1.467ZM8.135 4.67a.75.75 0 0 0-1.038-.22A9.033 9.033 0 0 0 6 5.292V4.25a.75.75 0 0 0-1.5 0v3c0 .414.336.75.75.75h3a.75.75 0 0 0 0-1.5H6.9a7.536 7.536 0 0 1 1.015-.791.75.75 0 0 0 .22-1.038ZM4.5 12v-.75a.75.75 0 0 0-1.5 0V12c0 .64.067 1.267.195 1.871a.75.75 0 1 0 1.467-.31A7.534 7.534 0 0 1 4.5 12Zm11.365-7.329a.75.75 0 0 0 .22 1.038 7.546 7.546 0 0 1 2.206 2.206.75.75 0 1 0 1.258-.818 9.043 9.043 0 0 0-2.646-2.646.75.75 0 0 0-1.038.22Zm3.473 5.768a.75.75 0 1 1 1.467-.31 9.035 9.035 0 0 1 0 3.742.75.75 0 0 1-1.467-.31 7.538 7.538 0 0 0 0-3.122ZM4.67 15.865a.75.75 0 0 0-.22 1.038 9.043 9.043 0 0 0 2.646 2.646.75.75 0 0 0 .818-1.258 7.546 7.546 0 0 1-2.206-2.206.75.75 0 0 0-1.038-.22Zm13.62.22a.75.75 0 1 1 1.258.818 9.043 9.043 0 0 1-2.646 2.646.75.75 0 0 1-.818-1.258 7.548 7.548 0 0 0 2.206-2.206Zm-3.841 3.831a.75.75 0 0 0-.89-.578 7.538 7.538 0 0 1-3.12 0 .75.75 0 1 0-.311 1.467 9.035 9.035 0 0 0 3.742 0 .75.75 0 0 0 .579-.889Z"/></svg>