<svg xmlns="http://www.w3.org/2000/svg" width="48" height="48" viewBox="0 0 48 48"><path d="m37.605 39.373 4.261 4.26a1.25 1.25 0 0 0 1.768-1.767l-37.5-37.5a1.25 1.25 0 1 0-1.768 1.768l9.812 9.812C11.758 14.761 8.94 14 5.5 14a1.5 1.5 0 0 0 0 3c5.781 0 9.446 2.45 12.904 5.622.374-.362.753-.734 1.14-1.115l.098-.097 1.414 1.414-.024.024-.085.084C16.621 27.195 12.703 31 5.5 31a1.5 1.5 0 0 0 0 3c8.49 0 13.192-4.634 17.468-8.848l.085-.084.125-.123 1.414 1.415-.135.133-.176.173-.831.817c2.083 1.924 4.386 3.742 7.232 4.966l4.945 4.946a1.5 1.5 0 0 0 1.978 1.978Zm-1.445-8.516 5.052 5.052 2.349-2.348a1.5 1.5 0 0 0 0-2.122l-5.5-5.5a1.5 1.5 0 0 0-2.122 2.122L38.88 31h-.38c-.82 0-1.6-.05-2.34-.143ZM24.704 19.4l2.13 2.13C29.95 18.907 33.402 17 38.5 17h.379l-2.94 2.94a1.5 1.5 0 0 0 2.122 2.12l5.5-5.5a1.5 1.5 0 0 0 0-2.12l-5.5-5.5a1.5 1.5 0 0 0-2.122 2.12L38.88 14h-.38c-6.17 0-10.338 2.446-13.796 5.4Z"/></svg>