<svg xmlns="http://www.w3.org/2000/svg" width="20" height="20" viewBox="0 0 20 20"><path d="M4.035 3c-.33 0-.746.142-1.164.605a.5.5 0 1 1-.742-.67C2.71 2.29 3.389 2 4.035 2c.635 0 1.202.28 1.563.699.361.42.542 1.025.275 1.613a1.715 1.715 0 0 1-.59.688c.27.19.469.421.59.69.267.587.086 1.193-.275 1.613-.36.419-.929.699-1.563.699-.647 0-1.324-.29-1.907-.938a.5.5 0 0 1 .744-.669c.417.464.834.607 1.163.607.342 0 .634-.153.805-.351.17-.198.192-.395.123-.549-.077-.169-.337-.446-1.074-.615a.5.5 0 0 1 0-.975c.738-.168.997-.445 1.074-.613.07-.153.047-.35-.123-.548A1.07 1.07 0 0 0 4.035 3Zm12.468 2.001a.5.5 0 0 1 .492.41l.008.09v11a.5.5 0 0 1-.992.09l-.008-.09v-11a.5.5 0 0 1 .5-.5Zm-9 5.999a.5.5 0 0 1 .492.41l.008.09v5a.5.5 0 0 1-.992.09l-.008-.09v-5a.5.5 0 0 1 .5-.5ZM4.5 13a.5.5 0 0 1 .492.41L5 13.5v3a.5.5 0 0 1-.992.09L4 16.5v-3a.5.5 0 0 1 .5-.5Zm6-4.002a.5.5 0 0 1 .492.41l.008.09V16.5a.5.5 0 0 1-.992.09L10 16.5V9.498a.5.5 0 0 1 .5-.5Zm3-1.996a.5.5 0 0 1 .492.41l.008.09V16.5a.5.5 0 0 1-.992.09L13 16.5V7.502a.5.5 0 0 1 .5-.5ZM9.25 3h.246c.01 0 .134.006.286.063.169.063.355.18.478.418a.5.5 0 0 0 .887-.462C10.617 2 9.53 2 9.501 2H9.25A2.25 2.25 0 0 0 7 4.25v1.5a2.25 2.25 0 0 0 4.5 0v-.5a.5.5 0 0 0-.5-.5H9.5a.5.5 0 1 0 0 1h1a1.25 1.25 0 0 1-2.5 0v-1.5C8 3.56 8.56 3 9.25 3Z"/></svg>