<svg xmlns="http://www.w3.org/2000/svg" width="28" height="28"><path d="M20.5 14a6.5 6.5 0 1 0 0-13 6.5 6.5 0 0 0 0 13Zm0-1.5a4.978 4.978 0 0 1-2.965-.974l6.991-6.991A5 5 0 0 1 20.5 12.5Zm2.965-9.026-6.991 6.991a5 5 0 0 1 6.991-6.992ZM25 13.5a7.467 7.467 0 0 1-4.5 1.5 7.47 7.47 0 0 1-3.355-.79l-2.799 1.455a.75.75 0 0 1-.692 0L3 10.124v9.626l.005.184A3.25 3.25 0 0 0 6.25 23h15.5l.185-.005A3.25 3.25 0 0 0 25 19.75V13.5ZM13.427 5H6.25l-.184.005A3.25 3.25 0 0 0 3 8.25v.184l11 5.72 1.706-.886A7.484 7.484 0 0 1 13 7.5c0-.877.15-1.718.427-2.5Z"/></svg>