<svg xmlns="http://www.w3.org/2000/svg" width="20" height="20"><path d="M4.97 18h9.28c.947 0 1.715-.768 1.715-1.716v-7.61c1.61-.064 2.573-1.85 1.713-3.238l-.502-.81a2.12 2.12 0 0 0-1.802-1.004h-1.435v-.636A.986.986 0 0 0 12.953 2a2.445 2.445 0 0 0-2.444 2.446v3.456c-1.278.126-2.243.73-2.952 1.582-.782.94-1.243 2.165-1.517 3.342-.276 1.182-.373 2.358-.403 3.232-.012.374-.012.696-.008.942H4.97a1.971 1.971 0 0 1-1.44-3.317l.92-.987a3.589 3.589 0 0 0-.086-4.984l-.903-.903a.5.5 0 1 0-.707.707l.903.903a2.587 2.587 0 0 1 .062 3.595l-.92.987A2.973 2.973 0 0 0 4.97 18Zm7.97-15v1.122a.5.5 0 0 0 .5.5h1.934c.388 0 .748.2.952.53l.503.811a1.122 1.122 0 0 1-.953 1.713h-.41a.5.5 0 0 0-.5.5v8.108c0 .395-.32.716-.716.716h-.716v-.716a2.932 2.932 0 0 0-2.93-2.933H9.59a.5.5 0 0 0 0 1h1.013c1.067 0 1.932.865 1.932 1.933V17H6.629c-.005-.234-.005-.544.007-.909.028-.836.12-1.94.377-3.038.257-1.104.67-2.159 1.312-2.93.627-.751 1.478-1.245 2.684-1.245a.5.5 0 0 0 .5-.5V4.446c0-.794.639-1.439 1.43-1.446Z"/></svg>