<svg xmlns="http://www.w3.org/2000/svg" width="24" height="24" viewBox="0 0 24 24"><path d="M12 1c-.95 0-1.585.682-1.937 1.282-.361.619-.563 1.374-.563 1.968 0 .494.063 1.174.432 1.746C10.342 6.63 11.038 7 12 7s1.658-.37 2.068-1.004c.37-.572.432-1.252.432-1.746 0-.594-.202-1.35-.563-1.968C13.586 1.682 12.95 1 12 1Zm-1 3.25c0-.31.121-.805.358-1.21.248-.424.487-.54.642-.54.155 0 .394.116.642.54.237.405.358.9.358 1.21 0 .41-.062.73-.193.932-.09.14-.27.318-.807.318-.538 0-.717-.178-.807-.318C11.063 4.98 11 4.66 11 4.25Zm9.5 6v8.25h.75a.75.75 0 0 1 0 1.5H2.75a.75.75 0 0 1 0-1.5h.75v-8.25A2.25 2.25 0 0 1 5.75 8h12.5a2.25 2.25 0 0 1 2.25 2.25Zm-15.5 0v2.091l2.447 1.58a1.25 1.25 0 0 0 1.356 0l1.747-1.128a2.75 2.75 0 0 1 2.9-.05l2.009 1.199a1.25 1.25 0 0 0 1.359-.05L19 12.36v-2.11a.75.75 0 0 0-.75-.75H5.75a.75.75 0 0 0-.75.75Zm12.68 4.87a2.75 2.75 0 0 1-2.99.11l-2.008-1.2a1.25 1.25 0 0 0-1.319.023l-1.747 1.128a2.75 2.75 0 0 1-2.982 0L5 14.126V18.5h14v-4.307l-1.32.926Z"/></svg>