<svg xmlns="http://www.w3.org/2000/svg" width="16" height="16"><path d="M9.5 5h3.25L9 1.25V4.5a.5.5 0 0 0 .5.5Zm0 1A1.5 1.5 0 0 1 8 4.5V1H4.5A1.5 1.5 0 0 0 3 2.5v4.777a.054.054 0 0 0 .008-.004.052.052 0 0 1 .01-.004c.048-.312.193-.6.419-.827A1.487 1.487 0 0 1 4.5 6.001c.399 0 .776.155 1.059.438.229.228.375.517.423.831a4.522 4.522 0 0 1 1.689 1.061 4.524 4.524 0 0 1 1.06 1.688c.312.048.6.193.828.42.284.283.441.66.441 1.062 0 .399-.155.775-.437 1.059a1.485 1.485 0 0 1-.832.424 4.498 4.498 0 0 1-1.061 1.688 2.39 2.39 0 0 1-.281.23c-.045.032-.09.065-.133.099h4.243a1.5 1.5 0 0 0 1.5-1.5V6H9.5Zm-4.293 4.793a.996.996 0 0 0-1.09-.217.998.998 0 0 0-.324 1.631.997.997 0 0 0 1.263.125 1.004 1.004 0 0 0 .425-1.027 1.003 1.003 0 0 0-.274-.512ZM8.5 11a.5.5 0 1 1 0 1h-.551A3.487 3.487 0 0 1 5 14.949v.551a.5.5 0 1 1-1 0v-.551A3.487 3.487 0 0 1 1.051 12H.5a.5.5 0 1 1 0-1h.551A3.487 3.487 0 0 1 4 8.051V7.5a.5.5 0 1 1 1 0v.551A3.487 3.487 0 0 1 7.949 11H8.5Zm-2.232 2.268a2.51 2.51 0 0 0 .542-.811 2.508 2.508 0 0 0-.379-2.543 2.503 2.503 0 0 0-3.111-.618 2.501 2.501 0 0 0-.209 4.283 2.5 2.5 0 0 0 3.157-.311Z"/></svg>