<svg xmlns="http://www.w3.org/2000/svg" width="28" height="28" viewBox="0 0 28 28"><path d="M10.5 4.75V7h7V4.75a.75.75 0 0 0-.75-.75h-5.5a.75.75 0 0 0-.75.75Zm8.5 0V7h2.25A3.75 3.75 0 0 1 25 10.75v2A2.25 2.25 0 0 1 22.75 15H16.5a1.5 1.5 0 0 0-1.5-1.5h-2a1.5 1.5 0 0 0-1.5 1.5H5.25a2.25 2.25 0 0 1-2.246-2.116V10.75A3.75 3.75 0 0 1 6.754 7H9V4.75a2.25 2.25 0 0 1 2.25-2.25h5.5A2.25 2.25 0 0 1 19 4.75ZM3.004 15.753v4.497A3.75 3.75 0 0 0 6.754 24H21.25A3.75 3.75 0 0 0 25 20.25v-4.5a3.733 3.733 0 0 1-2.25.75H16.5v.5a1.5 1.5 0 0 1-1.5 1.5h-2a1.5 1.5 0 0 1-1.5-1.5v-.5H5.25c-.842 0-1.62-.278-2.246-.747Z"/></svg>