<svg xmlns="http://www.w3.org/2000/svg" width="24" height="24"><path d="M10.019 6.002a6.632 6.632 0 0 0 .058 1.5H3.75a.25.25 0 0 0-.25.25v12.494c0 .138.112.25.25.25h7.498l-.001-10.167a6.56 6.56 0 0 0 1.5 1.479v8.69h7.498a.25.25 0 0 0 .25-.25v-8.62a6.535 6.535 0 0 0 1.501-1.656V20.25a1.75 1.75 0 0 1-1.75 1.75h-8.998l-.001-.003H3.75A1.75 1.75 0 0 1 2 20.246V7.751c0-.966.784-1.75 1.75-1.75h6.269Zm6.22 11.498a.75.75 0 0 1 .101 1.493l-.1.007h-1.5a.75.75 0 0 1-.102-1.493l.102-.007h1.5Zm-6.996 0a.75.75 0 0 1 .102 1.493L9.243 19H7.74a.75.75 0 0 1-.102-1.493l.102-.007h1.502ZM16.5 1a5.5 5.5 0 1 1 0 11 5.5 5.5 0 0 1 0-11Zm.292 2.545-.076.044-.07.057-.057.07a.5.5 0 0 0 0 .568l.057.07 1.646 1.645L13.494 6l-.09.008a.5.5 0 0 0-.402.402l-.008.09.008.09a.5.5 0 0 0 .402.402l.09.008 4.8-.001-1.648 1.647-.057.07a.5.5 0 0 0 .695.695l.07-.057 2.53-2.533.036-.05.042-.08.026-.083.01-.064v-.088l-.01-.064-.026-.083-.041-.08-.038-.05-2.53-2.533-.069-.057a.5.5 0 0 0-.492-.044Z"/></svg>