<svg xmlns="http://www.w3.org/2000/svg" width="28" height="28"><path d="M12.701 3.908c.532-1.078 2.069-1.078 2.6 0l2.692 5.452 6.017.875c1.19.173 1.664 1.634.804 2.473l-1.06 1.033a7.5 7.5 0 0 0-10.587 8.342l-4.547 2.39c-1.064.56-2.307-.343-2.104-1.528l1.028-5.993-4.355-4.244c-.86-.839-.385-2.3.804-2.473l6.017-.875 2.691-5.452ZM27 20.5a6.5 6.5 0 1 1-13 0 6.5 6.5 0 0 1 13 0Zm-9.146-3.354a.5.5 0 0 0-.708.707l2.647 2.646-2.647 2.647a.5.5 0 0 0 .708.707l2.646-2.646 2.646 2.646a.5.5 0 0 0 .708-.707L21.207 20.5l2.647-2.647a.5.5 0 0 0-.708-.707L20.5 19.792l-2.646-2.646Z"/></svg>