<svg xmlns="http://www.w3.org/2000/svg" width="24" height="24" viewBox="0 0 24 24"><path d="M19.49 5.57a5.999 5.999 0 0 1-1.893 8.962c-.649.351-1.43.135-1.952-.386l-5.79-5.791c-.522-.522-.738-1.303-.388-1.952A5.999 5.999 0 0 1 18.43 4.51l2.29-2.29a.75.75 0 1 1 1.061 1.06l-2.29 2.29Zm-2.017 7.263a4.5 4.5 0 1 0-6.306-6.306c-.266.349-.186.833.125 1.143l5.037 5.038c.31.31.795.391 1.144.125ZM3.28 21.78l2.29-2.29a5.999 5.999 0 0 0 8.962-1.893c.351-.649.135-1.43-.387-1.952l-5.79-5.79c-.522-.522-1.303-.738-1.952-.388A5.999 5.999 0 0 0 4.51 18.43l-2.29 2.29a.75.75 0 1 0 1.06 1.061Zm4.39-10.488 5.038 5.038c.31.31.39.794.125 1.143a4.5 4.5 0 1 1-6.306-6.306c.349-.266.833-.186 1.143.125Z"/></svg>