<svg xmlns="http://www.w3.org/2000/svg" width="20" height="20"><path d="M6 2a2 2 0 0 0-2 2v5.05c.162-.033.329-.05.5-.05H5V4a1 1 0 0 1 1-1h4v3.5A1.5 1.5 0 0 0 11.5 8H15v8a1 1 0 0 1-1 1h-3.268A2 2 0 0 1 9 18h5a2 2 0 0 0 2-2V7.414a1.5 1.5 0 0 0-.44-1.06l-3.914-3.915A1.5 1.5 0 0 0 10.586 2H6Zm8.793 5H11.5a.5.5 0 0 1-.5-.5V3.207L14.793 7ZM4.5 10A1.5 1.5 0 0 0 3 11.5v.5h-.5A1.5 1.5 0 0 0 1 13.5V16a1 1 0 0 0 1 1h1v.5A1.5 1.5 0 0 0 4.5 19h2A1.5 1.5 0 0 0 8 17.5V17h1a1 1 0 0 0 1-1v-2.5A1.5 1.5 0 0 0 8.5 12H8v-.5A1.5 1.5 0 0 0 6.5 10h-2ZM7 12H4v-.5a.5.5 0 0 1 .5-.5h2a.5.5 0 0 1 .5.5v.5Zm-2.5 4h2a.5.5 0 0 1 .5.5v1a.5.5 0 0 1-.5.5h-2a.5.5 0 0 1-.5-.5v-1a.5.5 0 0 1 .5-.5Z"/></svg>