<svg xmlns="http://www.w3.org/2000/svg" width="24" height="24"><path d="M20.162 4.898c.406.49.755 1.029 1.036 1.606a2.75 2.75 0 0 1-3.789 1.148l2.753-2.754Zm-1.06-1.06L16.348 6.59a2.75 2.75 0 0 1 1.147-3.789 8.01 8.01 0 0 1 1.607 1.036ZM22 10c0-.615-.07-1.214-.201-1.79a4.237 4.237 0 0 1-3.05 1.29 4.23 4.23 0 0 1-2.427-.761l-.761.761 5.032 5.032A7.963 7.963 0 0 0 22 10Zm-7.5-4.75c0-1.196.494-2.277 1.29-3.05a8.025 8.025 0 0 0-6.323 1.207L14.5 8.439l.761-.761A4.23 4.23 0 0 1 14.5 5.25Zm0 5.31 5.126 5.127A7.99 7.99 0 0 1 16 17.748a9.712 9.712 0 0 0-2.346-6.342l.846-.845Zm-1.906-.214A9.712 9.712 0 0 0 6.252 8a7.99 7.99 0 0 1 2.06-3.626L13.44 9.5l-.845.846ZM4.25 9A2.25 2.25 0 0 0 2 11.25v2A8.75 8.75 0 0 0 10.75 22h2A2.25 2.25 0 0 0 15 19.75v-2A8.75 8.75 0 0 0 6.25 9h-2Zm2.47 4.72a.75.75 0 0 1 1.06 0l2.5 2.5a.75.75 0 1 1-1.06 1.06l-2.5-2.5a.75.75 0 0 1 0-1.06Z"/></svg>