<svg xmlns="http://www.w3.org/2000/svg" width="24" height="24" viewBox="0 0 24 24"><path d="m8.066 18.943 6.5-14.5a.75.75 0 0 1 1.404.518l-.036.096-6.5 14.5a.75.75 0 0 1-1.404-.518l.036-.096 6.5-14.5-6.5 14.5ZM2.22 11.47l4.25-4.25a.75.75 0 0 1 1.133.976l-.073.085L3.81 12l3.72 3.719a.75.75 0 0 1-.976 1.133l-.084-.073-4.25-4.25a.75.75 0 0 1-.073-.976l.073-.084 4.25-4.25-4.25 4.25Zm14.25-4.25a.75.75 0 0 1 .976-.073l.084.073 4.25 4.25a.75.75 0 0 1 .073.976l-.073.085-4.25 4.25a.75.75 0 0 1-1.133-.977l.073-.084L20.19 12l-3.72-3.72a.75.75 0 0 1 0-1.06Z"/></svg>