<svg xmlns="http://www.w3.org/2000/svg" width="24" height="24" viewBox="0 0 24 24"><path d="M11 6.501a5.5 5.5 0 0 1 5-5.478v5.77l-1.646-1.646a.5.5 0 0 0-.708.708l2.5 2.5a.5.5 0 0 0 .708 0l2.5-2.5a.5.5 0 0 0-.708-.708L17 6.794v-5.77A5.5 5.5 0 1 1 11 6.5Zm8.5 3a.5.5 0 0 0-.5-.5h-5a.5.5 0 0 0 0 1h5a.5.5 0 0 0 .5-.5Zm-13.25-5.5h4.248a6.45 6.45 0 0 0-.422 1.5H6.25a1.75 1.75 0 0 0-1.75 1.75v.75h5.674c.125.528.314 1.03.558 1.5H4.5v4.5h4.558c.382 0 .692.31.692.692v.058a2.25 2.25 0 0 0 4.5 0v-.058c0-.382.31-.692.692-.692H19.5v-1.732A6.521 6.521 0 0 0 21 11.19v7.56A3.25 3.25 0 0 1 17.75 22H6.25A3.25 3.25 0 0 1 3 18.751v-11.5a3.25 3.25 0 0 1 3.25-3.25Z"/></svg>