<svg xmlns="http://www.w3.org/2000/svg" width="20" height="20" viewBox="0 0 20 20"><path d="M5.854 3.354a.5.5 0 1 0-.708-.708L3.5 4.293l-.646-.647a.5.5 0 1 0-.708.708l1 1a.5.5 0 0 0 .708 0l2-2ZM8.75 3.5a.75.75 0 0 0 0 1.5h8.5a.75.75 0 0 0 0-1.5h-8.5Zm0 5a.75.75 0 0 0 0 1.5h8.5a.75.75 0 0 0 0-1.5h-8.5Zm1.272 6.5a5.47 5.47 0 0 1 .353-1.5H8.75a.75.75 0 0 0 0 1.5h1.272ZM5.854 8.854a.5.5 0 1 0-.708-.708L3.5 9.793l-.646-.647a.5.5 0 1 0-.708.708l1 1a.5.5 0 0 0 .708 0l2-2Zm0 4.292a.5.5 0 0 1 0 .708l-2 2a.5.5 0 0 1-.708 0l-1-1a.5.5 0 0 1 .708-.708l.646.647 1.646-1.647a.5.5 0 0 1 .708 0ZM20 15.5a4.5 4.5 0 1 1-9 0 4.5 4.5 0 0 1 9 0Zm-4-2a.5.5 0 0 0-1 0V15h-1.5a.5.5 0 0 0 0 1H15v1.5a.5.5 0 0 0 1 0V16h1.5a.5.5 0 0 0 0-1H16v-1.5Z"/></svg>