<svg xmlns="http://www.w3.org/2000/svg" width="32" height="32" viewBox="0 0 32 32"><path d="M24 6.5V8h1a5 5 0 0 1 5 5v7.5a3.5 3.5 0 0 1-3.5 3.5H25v1.5a3.5 3.5 0 0 1-3.5 3.5h-11A3.5 3.5 0 0 1 7 25.5V24H5.5A3.5 3.5 0 0 1 2 20.5V13a5 5 0 0 1 5-5h1V6.5A3.5 3.5 0 0 1 11.5 3h9A3.5 3.5 0 0 1 24 6.5Zm-14 0V8h12V6.5A1.5 1.5 0 0 0 20.5 5h-9A1.5 1.5 0 0 0 10 6.5Zm-1 19a1.5 1.5 0 0 0 1.5 1.5h11a1.5 1.5 0 0 0 1.5-1.5v-6a1.5 1.5 0 0 0-1.5-1.5h-11A1.5 1.5 0 0 0 9 19.5v6ZM25 22h1.5a1.5 1.5 0 0 0 1.5-1.5V13a3 3 0 0 0-3-3H7a3 3 0 0 0-3 3v7.5A1.5 1.5 0 0 0 5.5 22H7v-2.5a3.5 3.5 0 0 1 3.5-3.5h11a3.5 3.5 0 0 1 3.5 3.5V22Z"/></svg>