<svg xmlns="http://www.w3.org/2000/svg" width="24" height="24"><path d="M9 10.99a1 1 0 1 0 0-2 1 1 0 0 0 0 2Zm5 1.998a1 1 0 1 1-2 0 1 1 0 0 1 2 0Zm-5 3.998a1 1 0 1 0 0-2 1 1 0 0 0 0 2ZM5 4.66c0-1.497 1.23-2.805 2.82-2.648A20.782 20.782 0 0 1 21.262 8.84c1.07 1.193.737 2.964-.479 3.845-1.582 1.148-3.94 2.857-5.283 3.833-.002.437-.002.721-.001 1.092v.628a1.75 1.75 0 0 1-2.056 1.724c-.204.826-.932 1.527-1.944 1.527-.7 0-1.262-.335-1.609-.815l-1.325.957c-1.488 1.074-3.57.011-3.569-1.826L5 4.661Zm2.673-1.155c-.609-.06-1.174.443-1.174 1.155v.52a17.547 17.547 0 0 1 12.985 6.594l.419-.304c.578-.42.652-1.173.242-1.63A19.282 19.282 0 0 0 7.673 3.506Zm-1.177 16.3a.75.75 0 0 0 1.19.608l2.128-1.534a.75.75 0 0 1 1.188.61c0 .27.209.5.497.5a.497.497 0 0 0 .502-.5v-1.252a.75.75 0 0 1 1.5 0c0 .14.111.25.248.25a.25.25 0 0 0 .25-.25v-.622c-.001-.47-.002-.808.005-1.489a.75.75 0 0 1 .308-.6c.902-.656 2.496-1.812 3.956-2.87a16.04 16.04 0 0 0-11.77-5.974l-.002 13.123Z"/></svg>