<svg xmlns="http://www.w3.org/2000/svg" width="24" height="24" viewBox="0 0 24 24"><path d="M9.49 4.402A2.25 2.25 0 0 0 8.208 4H4.25l-.154.005A2.25 2.25 0 0 0 2 6.25v11.5l.005.154A2.25 2.25 0 0 0 4.25 20l7.773.001a6.469 6.469 0 0 1-.71-1.5L4.25 18.5l-.102-.007a.75.75 0 0 1-.648-.743v-7.251l4.707.001.196-.009a2.25 2.25 0 0 0 1.244-.512L12.021 8h7.729l.102.007a.75.75 0 0 1 .648.743l.001 1.983a6.516 6.516 0 0 1 1.5 1.077L22 8.75l-.005-.154-.017-.158A2.25 2.25 0 0 0 19.75 6.5h-7.728L9.647 4.521l-.156-.119ZM4.25 5.5h3.957l.104.007a.75.75 0 0 1 .376.167l1.891 1.575-1.89 1.577-.086.061A.75.75 0 0 1 8.207 9L3.5 8.999V6.25l.007-.102A.75.75 0 0 1 4.25 5.5ZM17.5 22a5.5 5.5 0 1 1 0-11 5.5 5.5 0 0 1 0 11Zm3-5a.5.5 0 0 0 0-1h-4.793l1.647-1.646a.5.5 0 0 0-.708-.708l-2.5 2.5a.5.5 0 0 0 0 .708l2.5 2.5a.5.5 0 0 0 .708-.708L15.707 17H20.5Z"/></svg>