<svg xmlns="http://www.w3.org/2000/svg" width="24" height="24" viewBox="0 0 24 24"><path d="M17.75 3A3.25 3.25 0 0 1 21 6.25v11.5A3.25 3.25 0 0 1 17.75 21H6.25A3.25 3.25 0 0 1 3 17.75V6.25A3.25 3.25 0 0 1 6.25 3h11.5Zm-10 4a.75.75 0 0 0-.743.648L7 7.75v8.5l.007.102a.75.75 0 0 0 1.486 0l.007-.102v-8.5l-.007-.102A.75.75 0 0 0 7.75 7Zm8.5 0a.75.75 0 0 0-.743.648l-.007.102v8.5l.007.102a.75.75 0 0 0 1.486 0L17 16.25v-8.5l-.007-.102A.75.75 0 0 0 16.25 7ZM12 7a.75.75 0 0 0-.743.648l-.007.102v8.5l.007.102a.75.75 0 0 0 1.486 0l.007-.102v-8.5l-.007-.102A.75.75 0 0 0 12 7Z"/></svg>