<svg xmlns="http://www.w3.org/2000/svg" width="20" height="20"><path d="M8.334 4.711a2.12 2.12 0 0 0-1.351-.17l-.894.17a2.369 2.369 0 0 0-1.666 1.245c-1.11 2.165-1.944 3.932-2.27 5.437-.335 1.544-.146 2.86.82 4.061.655.813 1.8.65 2.399-.026.468-.527.997-1.136 1.513-1.732A2.01 2.01 0 0 1 8.404 13h3.186a2.01 2.01 0 0 1 1.52.697c.515.595 1.044 1.204 1.512 1.732.599.676 1.744.838 2.399.025.966-1.2 1.155-2.517.82-4.06-.326-1.506-1.16-3.273-2.27-5.438a2.369 2.369 0 0 0-1.666-1.245l-.894-.17a2.12 2.12 0 0 0-1.351.17l-.057.029c-.328.167-.673.26-1.015.26H9.406c-.342 0-.687-.093-1.015-.26l-.057-.029Zm-1.165.813c.263-.05.512-.022.716.08l.052.027c.444.226.945.369 1.469.369h1.182c.524 0 1.025-.143 1.469-.37l.052-.025c.204-.103.453-.13.716-.081l.894.17c.414.078.77.344.962.718 1.119 2.182 1.889 3.836 2.183 5.193.286 1.319.114 2.308-.622 3.222-.18.225-.587.26-.871-.062-.464-.523-.991-1.128-1.505-1.723A3.01 3.01 0 0 0 11.59 12H8.404a3.01 3.01 0 0 0-2.276 1.042c-.514.595-1.04 1.2-1.505 1.723-.284.321-.69.287-.87.062-.737-.914-.91-1.903-.623-3.222.294-1.357 1.064-3.011 2.183-5.193.192-.374.548-.64.962-.718l.894-.17ZM10 8.5A.75.75 0 1 0 10 7a.75.75 0 0 0 0 1.5Z"/></svg>