<svg xmlns="http://www.w3.org/2000/svg" width="20" height="20" viewBox="0 0 20 20"><path d="m3.573 17.24-.002.003A.501.501 0 0 0 4 18h1.707l.016-.034c.261-.54.548-1.133.787-1.71.302-.729.49-1.348.49-1.756a.5.5 0 0 1 1 0c0 .627-.265 1.412-.566 2.138-.19.458-.409.927-.617 1.362h1.188c.204-.386.423-.8.607-1.21.243-.541.385-.989.385-1.29a.5.5 0 0 1 1 0c0 .533-.227 1.152-.473 1.699-.12.27-.256.541-.39.801H13v-1.085a1.5 1.5 0 0 1-1.56-2.476l2-2a1.5 1.5 0 0 1 1.559-.354V11h-10v.5a12.566 12.566 0 0 1-1.215 5.336 7.573 7.573 0 0 1-.201.387l-.01.017ZM4.999 10h10V9a2 2 0 0 0-2-2h-1V4a2 2 0 1 0-4 0v3h-1a2 2 0 0 0-2 2v1ZM15 14.707V18.5a.5.5 0 0 1-1 0v-3.793l-1.146 1.147a.5.5 0 0 1-.708-.708l2-2a.5.5 0 0 1 .708 0l2 2a.5.5 0 0 1-.708.708L15 14.707Z"/></svg>