<svg xmlns="http://www.w3.org/2000/svg" width="48" height="48"><path d="M24.844 3.87c.427-1.165 1.735-2.37 3.383-1.881 1.651.489 2.726 1.668 3.364 3.097.623 1.396.857 3.075.87 4.764.023 2.72-.525 5.71-1.24 8.15h5.04c3.463 0 5.977 3.292 5.066 6.632L37.993 36.85a9.25 9.25 0 0 1-11.079 6.56l-14.07-3.37a7.25 7.25 0 0 1-5.295-5.107L6.315 30.5c-.759-2.727.79-5.417 3.205-6.525 6.324-2.902 9.707-7.127 12.357-12.526.84-1.71 1.455-3.409 2.289-5.715.21-.58.433-1.198.678-1.864Zm2.583.544a.65.65 0 0 0-.236.317c-.231.63-.447 1.225-.652 1.793-.84 2.325-1.512 4.182-2.417 6.027-2.831 5.766-6.578 10.493-13.56 13.696-1.46.67-2.222 2.203-1.838 3.582l1.233 4.433a4.75 4.75 0 0 0 3.47 3.346l14.07 3.37a6.75 6.75 0 0 0 8.084-4.787l3.334-12.217a2.75 2.75 0 0 0-2.653-3.474H29.5a1.25 1.25 0 0 1-1.175-1.677c.884-2.432 1.662-5.935 1.637-8.953-.012-1.511-.226-2.806-.654-3.765-.414-.926-.996-1.484-1.791-1.72-.013-.003-.017-.003-.022-.002a.195.195 0 0 0-.068.03Z"/></svg>