<svg xmlns="http://www.w3.org/2000/svg" width="24" height="24" viewBox="0 0 24 24"><path d="m14.712 2.289-.087-.078a1 1 0 0 0-1.327.078l-.078.087a.999.999 0 0 0 .078 1.326l1.299 1.297H8.999l-.24.004A6.997 6.997 0 0 0 2 11.993a6.94 6.94 0 0 0 1.189 3.899.999.999 0 0 0 1.626-1.163l-.135-.218A4.997 4.997 0 0 1 9 6.998h5.595l-1.297 1.297-.078.087a.999.999 0 0 0 1.492 1.326l3.006-3.003.077-.087a.999.999 0 0 0-.078-1.326l-3.005-3.003Zm6.075 5.771A.999.999 0 0 0 19 8.677c0 .209.064.402.172.561.435.658.72 1.424.803 2.25a6.48 6.48 0 0 1 1.982 1.281 6.958 6.958 0 0 0-1.17-4.712v.003ZM9.415 16.99h1.605a6.599 6.599 0 0 0 .151 1.998H9.405l1.304 1.303.077.087a1 1 0 0 1-1.397 1.41l-.095-.084L6.29 18.7l-.077-.087a1 1 0 0 1-.006-1.231l.083-.095 3.005-3.003.088-.078c.36-.284.87-.286 1.232-.006l.095.084.077.087a1 1 0 0 1 .006 1.231l-.083.095-1.294 1.292ZM23 17.5a5.5 5.5 0 1 1-11 0 5.5 5.5 0 0 1 11 0Zm-4.885-3.487a.5.5 0 0 0-.562.263 4.782 4.782 0 0 1-.613.828c-.334.373-.744.739-1.164.949a.5.5 0 1 0 .448.894c.489-.244.926-.616 1.276-.977v4.53a.5.5 0 0 0 1 0v-6a.5.5 0 0 0-.385-.487Z"/></svg>