<svg xmlns="http://www.w3.org/2000/svg" width="20" height="20"><path d="M15.245 16.498a.75.75 0 0 1 .101 1.493l-.101.007H4.75a.75.75 0 0 1-.102-1.493l.102-.007h10.495ZM10.004 2a.75.75 0 0 1 .743.648l.007.102-.001 10.193 2.966-2.97a.75.75 0 0 1 .977-.074l.084.072a.75.75 0 0 1 .073.977l-.072.084-4.243 4.25-.07.063-.092.059-.036.021-.091.038-.12.03-.07.008-.06.002a.726.726 0 0 1-.15-.016l-.082-.023a.735.735 0 0 1-.257-.146l-4.29-4.285a.75.75 0 0 1 .976-1.134l.084.073 2.973 2.967V2.75a.75.75 0 0 1 .75-.75Z"/></svg>