<svg xmlns="http://www.w3.org/2000/svg" width="16" height="16"><path d="M8.694 2.04A.5.5 0 0 1 9 2.5v11a.5.5 0 0 1-.85.357l-2.927-2.875H3.5a1.5 1.5 0 0 1-1.5-1.5v-2.99a1.5 1.5 0 0 1 1.5-1.5h1.724l2.927-2.85a.5.5 0 0 1 .543-.103ZM8 3.684 5.777 5.851a.5.5 0 0 1-.35.142H3.5a.5.5 0 0 0-.5.5v2.989a.5.5 0 0 0 .5.5h1.928a.5.5 0 0 1 .35.143L8 12.308V3.685Zm2.111 1.504a.5.5 0 0 1 .703-.08l.002.001.002.002.005.004.015.013.046.04c.036.034.085.08.142.142.113.123.26.302.405.54.291.48.573 1.193.573 2.148 0 .954-.282 1.668-.573 2.148a3.394 3.394 0 0 1-.405.541 2.495 2.495 0 0 1-.202.196l-.008.007h-.001s-.447.243-.703-.078a.5.5 0 0 1 .075-.7l.002-.002-.001.001.002-.001h-.001l.018-.016c.018-.017.048-.045.085-.085a2.4 2.4 0 0 0 .284-.382c.21-.345.428-.882.428-1.63 0-.747-.218-1.283-.428-1.627a2.382 2.382 0 0 0-.368-.465.5.5 0 0 1-.096-.717Zm.079.7h-.002Z"/></svg>