<svg xmlns="http://www.w3.org/2000/svg" width="12" height="12"><g clip-path="url(#a)"><path d="M6 7.75a1.75 1.75 0 1 0 0-3.5 1.75 1.75 0 0 0 0 3.5Zm.75-5.68a4.004 4.004 0 0 1 3.18 3.18h1.32a.75.75 0 0 1 0 1.5H9.93a4.004 4.004 0 0 1-3.183 3.18.759.759 0 0 1 .003.07v1.25a.75.75 0 0 1-1.5 0V10a.82.82 0 0 1 .003-.07A4.004 4.004 0 0 1 2.07 6.747.759.759 0 0 1 2 6.75H.75a.75.75 0 0 1 0-1.5H2a.82.82 0 0 1 .07.003A4.004 4.004 0 0 1 5.25 2.07V.75a.75.75 0 0 1 1.5 0v1.32ZM8.5 6a2.5 2.5 0 1 0-5 0 2.5 2.5 0 0 0 5 0Z"/></g><defs><clipPath id="a"><path d="M0 0h12v12H0z"/></clipPath></defs></svg>