<svg xmlns="http://www.w3.org/2000/svg" width="20" height="20"><path d="M3.5 4A1.5 1.5 0 0 0 2 5.5v2A1.5 1.5 0 0 0 3.5 9h2A1.5 1.5 0 0 0 7 7.5v-2A1.5 1.5 0 0 0 5.5 4h-2ZM3 5.5a.5.5 0 0 1 .5-.5h2a.5.5 0 0 1 .5.5v2a.5.5 0 0 1-.5.5h-2a.5.5 0 0 1-.5-.5v-2ZM9.5 5a.5.5 0 0 0 0 1h8a.5.5 0 0 0 0-1h-8Zm0 2a.5.5 0 0 0 0 1h6a.5.5 0 0 0 0-1h-6Zm-6 4A1.5 1.5 0 0 0 2 12.5v2A1.5 1.5 0 0 0 3.5 16h2A1.5 1.5 0 0 0 7 14.5v-2A1.5 1.5 0 0 0 5.5 11h-2ZM3 12.5a.5.5 0 0 1 .5-.5h2a.5.5 0 0 1 .5.5v2a.5.5 0 0 1-.5.5h-2a.5.5 0 0 1-.5-.5v-2Zm6.5-.5a.5.5 0 0 0 0 1h8a.5.5 0 0 0 0-1h-8Zm0 2a.5.5 0 0 0 0 1h6a.5.5 0 0 0 0-1h-6Z"/></svg>