<svg xmlns="http://www.w3.org/2000/svg" width="20" height="20" viewBox="0 0 20 20"><path d="M7 11a1 1 0 1 0 0-2 1 1 0 0 0 0 2Zm3 0a1 1 0 1 0 0-2 1 1 0 0 0 0 2Zm4-1a1 1 0 1 1-2 0 1 1 0 0 1 2 0Zm-7 4a1 1 0 1 0 0-2 1 1 0 0 0 0 2Zm4-1a1 1 0 1 1-2 0 1 1 0 0 1 2 0Zm2 1a1 1 0 1 0 0-2 1 1 0 0 0 0 2ZM8.998 2.384a1.5 1.5 0 0 1 2.005 0l5.5 4.943A1.5 1.5 0 0 1 17 8.443V15.5a1.5 1.5 0 0 1-1.5 1.5h-11A1.5 1.5 0 0 1 3 15.5V8.443c0-.425.18-.831.498-1.116l5.5-4.943Zm1.336.744a.5.5 0 0 0-.668 0l-5.5 4.943A.5.5 0 0 0 4 8.443V15.5a.5.5 0 0 0 .5.5h11a.5.5 0 0 0 .5-.5V8.443a.5.5 0 0 0-.166-.372l-5.5-4.943Z"/></svg>