<svg xmlns="http://www.w3.org/2000/svg" width="20" height="20"><path d="M14.284 3.241 13.19 4.335A6.503 6.503 0 0 0 3.577 11H2.062a8.003 8.003 0 0 1 12.221-7.759ZM10 17v-.5a6.48 6.48 0 0 0 4.596-1.904.75.75 0 0 1 1.06 1.06 7.977 7.977 0 0 1-5.826 2.342c.11-.312.17-.648.17-.998Zm0-2.5v.6c1.305 0 2.61-.498 3.606-1.494a.75.75 0 1 0-1.06-1.06 3.592 3.592 0 0 1-2.856 1.04c.194.254.31.57.31.914ZM6.5 11h.041a3.6 3.6 0 0 1 4.447-4.463l1.163-1.163A5.102 5.102 0 0 0 4.998 11H6.5Zm9.28-6.78a.75.75 0 0 1 0 1.06l-4.33 4.331a1.5 1.5 0 1 1-1.06-1.06l4.33-4.331a.75.75 0 0 1 1.06 0Zm1.47 9.03a.75.75 0 1 1-1.5 0 .75.75 0 0 1 1.5 0ZM16.5 7.5a.75.75 0 1 0 0-1.5.75.75 0 0 0 0 1.5Zm1.5 3.75a.75.75 0 1 1-1.5 0 .75.75 0 0 1 1.5 0Zm-.75-1.75a.75.75 0 1 0 0-1.5.75.75 0 0 0 0 1.5ZM15 11.25a.75.75 0 1 1-1.5 0 .75.75 0 0 1 1.5 0Zm-.75-1.75a.75.75 0 1 0 0-1.5.75.75 0 0 0 0 1.5ZM1.5 12a.5.5 0 0 0-.5.5v4a.5.5 0 0 0 .5.5h5a.5.5 0 0 0 .5-.5v-4a.5.5 0 0 0-.5-.5h-5Zm7 2a.5.5 0 0 1 .5.5V17a2 2 0 0 1-2 2H3.5a.5.5 0 0 1 0-1H7a1 1 0 0 0 1-1v-2.5a.5.5 0 0 1 .5-.5Z"/></svg>