<svg xmlns="http://www.w3.org/2000/svg" width="28" height="28" viewBox="0 0 28 28"><path d="M2.004 8.75A3.75 3.75 0 0 1 5.754 5H22.25A3.75 3.75 0 0 1 26 8.75v6.652a7.534 7.534 0 0 0-1.5-1.247V11H3.505v8.25a2.25 2.25 0 0 0 2.25 2.25h7.312c.07.519.191 1.02.36 1.5H5.755a3.75 3.75 0 0 1-3.75-3.75V8.75Zm3.75-2.25a2.25 2.25 0 0 0-2.25 2.25v.75H24.5v-.75a2.25 2.25 0 0 0-2.25-2.25H5.755ZM27 20.5a6.5 6.5 0 1 1-13 0 6.5 6.5 0 0 1 13 0Zm-6.5-4a.5.5 0 0 0-.5.5v3.5a.5.5 0 0 0 .5.5h3a.5.5 0 0 0 0-1H21v-3a.5.5 0 0 0-.5-.5Z"/></svg>