<svg xmlns="http://www.w3.org/2000/svg" width="20" height="20" viewBox="0 0 20 20"><path d="M7.085 4H5.5a.5.5 0 0 0-.5.5v12a.5.5 0 0 0 .5.5h4.1c.183.358.404.693.657 1H5.5A1.5 1.5 0 0 1 4 16.5v-12A1.5 1.5 0 0 1 5.5 3h1.585A1.5 1.5 0 0 1 8.5 2h3a1.5 1.5 0 0 1 1.415 1H14.5A1.5 1.5 0 0 1 16 4.5v4.707a5.48 5.48 0 0 0-1-.185V4.5a.5.5 0 0 0-.5-.5h-1.585A1.5 1.5 0 0 1 11.5 5h-3a1.5 1.5 0 0 1-1.415-1Zm.665 7h2.507a5.503 5.503 0 0 0-.657 1H7.75a.249.249 0 0 0-.176.071.15.15 0 0 0-.048.125c.049.455.18.886.499 1.206.202.203.514.395 1.007.504a5.564 5.564 0 0 0-.016 1.016c-.747-.13-1.301-.414-1.7-.814-.55-.552-.724-1.247-.784-1.806C6.452 11.55 7.086 11 7.75 11ZM8 3.5a.5.5 0 0 0 .5.5h3a.5.5 0 0 0 0-1h-3a.5.5 0 0 0-.5.5ZM9 8a1 1 0 1 1 2 0 1 1 0 0 1-2 0Zm1-2a2 2 0 1 0 0 4 2 2 0 0 0 0-4Zm9 8.5a4.5 4.5 0 1 1-9 0 4.5 4.5 0 0 1 9 0Zm-4-2a.5.5 0 0 0-1 0V14h-1.5a.5.5 0 0 0 0 1H14v1.5a.5.5 0 0 0 1 0V15h1.5a.5.5 0 0 0 0-1H15v-1.5Z"/></svg>