<svg xmlns="http://www.w3.org/2000/svg" width="48" height="48"><path d="M44 24.25c0 .69-.56 1.25-1.25 1.25H40v6.25A4.25 4.25 0 0 1 35.75 36h-5.5A4.25 4.25 0 0 1 26 31.75V25.5h-4v10.25A4.25 4.25 0 0 1 17.75 40h-5.5A4.25 4.25 0 0 1 8 35.75V25.5H5.25a1.25 1.25 0 1 1 0-2.5H8V12.25A4.25 4.25 0 0 1 12.25 8h5.5A4.25 4.25 0 0 1 22 12.25V23h4v-6.75A4.25 4.25 0 0 1 30.25 12h5.5A4.25 4.25 0 0 1 40 16.25V23h2.75c.69 0 1.25.56 1.25 1.25Zm-6.5-8a1.75 1.75 0 0 0-1.75-1.75h-5.5a1.75 1.75 0 0 0-1.75 1.75v15.5c0 .967.784 1.75 1.75 1.75h5.5a1.75 1.75 0 0 0 1.75-1.75v-15.5ZM17.75 10.5h-5.5a1.75 1.75 0 0 0-1.75 1.75v23.5c0 .967.784 1.75 1.75 1.75h5.5a1.75 1.75 0 0 0 1.75-1.75v-23.5a1.75 1.75 0 0 0-1.75-1.75Z"/></svg>