<svg xmlns="http://www.w3.org/2000/svg" width="24" height="24"><path d="M5.5 2.75a.75.75 0 0 0-1.5 0c0 1.27.928 1.917 1.506 2.32l.064.044c.68.476.93.705.93 1.136a.75.75 0 0 0 1.5 0c0-1.27-.928-1.917-1.506-2.32l-.064-.044C5.75 3.41 5.5 3.18 5.5 2.75ZM4.821 8A1.821 1.821 0 0 0 3 9.821V14a8 8 0 0 0 15.419 3h1.331a3.25 3.25 0 0 0 0-6.5H19v-.679A1.821 1.821 0 0 0 17.179 8H4.82Zm14.929 7.5h-.89A8.04 8.04 0 0 0 19 14v-2h.75a1.75 1.75 0 1 1 0 3.5ZM8.75 2a.75.75 0 0 1 .75.75c0 .431.25.66.93 1.136l.064.044C11.072 4.333 12 4.98 12 6.25a.75.75 0 0 1-1.5 0c0-.431-.25-.66-.93-1.136l-.064-.044C8.928 4.667 8 4.02 8 2.75A.75.75 0 0 1 8.75 2Zm4.75.75a.75.75 0 0 0-1.5 0c0 1.27.928 1.917 1.506 2.32l.064.044c.68.476.93.705.93 1.136a.75.75 0 0 0 1.5 0c0-1.27-.928-1.917-1.506-2.32l-.064-.044c-.68-.476-.93-.705-.93-1.136Z"/></svg>