<svg xmlns="http://www.w3.org/2000/svg" width="28" height="28"><path d="M3.28 2.22a.75.75 0 1 0-1.06 1.06l3.793 3.793a3.751 3.751 0 0 0-3.01 3.677v2.134A2.25 2.25 0 0 0 5.25 15h6.25a1.5 1.5 0 0 1 1.018-1.421l3.903 3.903A1.5 1.5 0 0 1 15 18.5h-2a1.5 1.5 0 0 1-1.5-1.5v-.5H5.25c-.842 0-1.62-.278-2.246-.747v4.497A3.75 3.75 0 0 0 6.754 24H21.25c.5 0 .977-.098 1.414-.275l2.055 2.055a.75.75 0 0 0 1.061-1.06L3.28 2.22ZM9 5.818 18.182 15h4.568A2.25 2.25 0 0 0 25 12.75v-2A3.75 3.75 0 0 0 21.25 7H19V4.75a2.25 2.25 0 0 0-2.25-2.25h-5.5A2.25 2.25 0 0 0 9 4.75v1.068ZM19.682 16.5l5.077 5.077A3.74 3.74 0 0 0 25 20.25v-4.5a3.733 3.733 0 0 1-2.25.75h-3.068ZM10.5 4.75a.75.75 0 0 1 .75-.75h5.5a.75.75 0 0 1 .75.75V7h-7V4.75Z"/></svg>