<svg xmlns="http://www.w3.org/2000/svg" width="28" height="28"><path d="M6.778 9.492a.75.75 0 1 0 0-1.5.75.75 0 0 0 0 1.5Zm.003 9.016a.75.75 0 0 0 0 1.5h5a.75.75 0 1 0 0-1.5h-5Zm-.75-4.516a.75.75 0 0 1 .75-.75h5a.75.75 0 1 1 0 1.5h-5a.75.75 0 0 1-.75-.75Zm11.073 11H5.25A3.25 3.25 0 0 1 2 21.742V5.75A2.75 2.75 0 0 1 4.75 3h8.906a2.75 2.75 0 0 1 2.75 2.75v2.238h7.04c1.315-.055 2.679.84 2.679 2.518v6.705a2.75 2.75 0 0 1-2.75 2.75h-2.864l-.66 3.075c-.319 1.481-1.34 1.956-2.747 1.956ZM4.75 4.5c-.69 0-1.25.56-1.25 1.25v15.992c0 .967.784 1.75 1.75 1.75h9.834a2.66 2.66 0 0 1-.178-.981V5.75c0-.69-.56-1.25-1.25-1.25H4.75Zm11.656 18.01c0 1.2 1.726 1.383 1.978.21l2.737-12.745c.038-.174.088-.336.15-.487h-4.865v13.023Zm6.182-12.22-1.755 8.17h2.542c.69 0 1.25-.559 1.25-1.25v-6.704c0-.629-.484-.989-.984-1.018h-.138a.973.973 0 0 0-.915.802Z"/></svg>