<svg xmlns="http://www.w3.org/2000/svg" width="16" height="16" viewBox="0 0 16 16"><path d="M15 5.5a4.5 4.5 0 1 1-9 0 4.5 4.5 0 0 1 9 0Zm-2.854-1.854L9.5 6.293l-.646-.647a.5.5 0 1 0-.708.708l1 1a.5.5 0 0 0 .708 0l3-3a.5.5 0 0 0-.708-.708ZM14 9.743A5.477 5.477 0 0 1 10.5 11c-.345 0-.682-.032-1.008-.092-.324.38-.8.592-1.492.592-.897 0-1.432-.356-1.74-.974a2.547 2.547 0 0 1-.228-.718A2.098 2.098 0 0 1 6 9.5a.5.5 0 0 0-.5-.5H3V5.5A1.5 1.5 0 0 1 4.5 4h.707c.099-.349.23-.683.393-1H4.5A2.5 2.5 0 0 0 2 5.5v7A2.5 2.5 0 0 0 4.5 15h7a2.5 2.5 0 0 0 2.5-2.5V9.743Z"/></svg>