<svg xmlns="http://www.w3.org/2000/svg" width="28" height="28" viewBox="0 0 28 28"><path d="M25.151 3.007a.75.75 0 1 1 .198 1.487L17.5 5.54v3.71c0 .644-.187 1.245-.51 1.75h2.26A3.75 3.75 0 0 1 23 14.75v7.5A2.75 2.75 0 0 1 20.25 25H7.75A2.75 2.75 0 0 1 5 22.25v-7.5A3.75 3.75 0 0 1 8.75 11h5.5A1.75 1.75 0 0 0 16 9.25V5.74L2.85 7.494a.75.75 0 0 1-.199-1.487l13.35-1.78V3.75a.75.75 0 0 1 1.5 0v.277l7.65-1.02Zm-3.65 11.743a2.25 2.25 0 0 0-2.25-2.25H8.75a2.25 2.25 0 0 0-2.25 2.25v3.75h15v-3.75ZM6.5 20v2.25c0 .69.559 1.25 1.25 1.25h12.5c.69 0 1.25-.56 1.25-1.25V20h-15Z"/></svg>