<svg xmlns="http://www.w3.org/2000/svg" width="20" height="20"><path d="M13.585 9H17V8h-4v1.119A1.5 1.5 0 0 1 13.585 9Zm-2.25 3L12 10.404V8H8v4h3.335Zm-1.218 2.923L10.918 13H8v4h3.502a1.5 1.5 0 0 1-1.385-2.077ZM7 12V8H3v4h4Zm-4 1h4v4H5.5A2.5 2.5 0 0 1 3 14.5V13Zm10-6h4V5.5A2.5 2.5 0 0 0 14.5 3H13v4Zm-1-4v4H8V3h4ZM7 3v4H3V5.5A2.5 2.5 0 0 1 5.5 3H7Zm5.61 13a.5.5 0 0 1 .485.621l-.434 1.738c-.121.483.462.827.826.487l4.873-4.548A.75.75 0 0 0 17.848 13h-.404a.5.5 0 0 1-.474-.658l.561-1.684a.5.5 0 0 0-.474-.658h-3.473a.5.5 0 0 0-.462.308l-2.083 5a.5.5 0 0 0 .462.692h1.11Z"/></svg>