<svg xmlns="http://www.w3.org/2000/svg" width="20" height="20"><path d="M7.5 2a.5.5 0 0 0 0 1h4a.5.5 0 0 0 0-1h-4Zm7.656 1.929a.5.5 0 1 0-.707.707l1.414 1.414a.5.5 0 1 0 .707-.707L15.156 3.93ZM9.5 6a.5.5 0 0 0-.5.5v5a.5.5 0 0 0 1 0v-5a.5.5 0 0 0-.5-.5Zm0 12c.882 0 1.727-.163 2.504-.461l.006-.064a1.496 1.496 0 0 1 .447-1.253 6 6 0 1 1 2.96-6.221L15.5 10a3.7 3.7 0 0 1 .946.124A7.001 7.001 0 0 0 2.5 11a7 7 0 0 0 7 7Zm4.344-5.287.003-.003.022-.02a3.367 3.367 0 0 1 .47-.334c.322-.189.732-.356 1.161-.356.893 0 1.5.62 1.5 1.25 0 .276-.166.58-.51.837-.34.254-.799.413-1.24.413a.5.5 0 0 0 0 1c.441 0 .9.16 1.24.413.344.257.51.561.51.837 0 .63-.607 1.25-1.5 1.25-.429 0-.84-.167-1.161-.356a3.367 3.367 0 0 1-.47-.334l-.022-.02-.003-.003a.5.5 0 0 0-.688.726l.002.002.004.003.011.011.039.034a4.351 4.351 0 0 0 .62.443c.402.236.992.494 1.668.494 1.316 0 2.5-.947 2.5-2.25 0-.69-.407-1.262-.912-1.638a2.93 2.93 0 0 0-.16-.112 2.93 2.93 0 0 0 .16-.112c.505-.376.912-.947.912-1.638 0-1.303-1.184-2.25-2.5-2.25-.676 0-1.265.258-1.667.494a4.351 4.351 0 0 0-.621.443l-.039.034-.011.01-.004.004-.001.001-.001.001a.5.5 0 0 0 .688.726Z"/></svg>