<svg xmlns="http://www.w3.org/2000/svg" width="24" height="24"><path d="M14.754 10c.966 0 1.75.784 1.75 1.75v4.749a4.501 4.501 0 0 1-9.002 0V11.75c0-.966.783-1.75 1.75-1.75h5.502Zm0 1.5H9.252a.25.25 0 0 0-.25.25v4.749a3.001 3.001 0 0 0 6.002 0V11.75a.25.25 0 0 0-.25-.25ZM3.75 10h3.381a2.738 2.738 0 0 0-.618 1.5H3.75a.25.25 0 0 0-.25.25v3.249a2.501 2.501 0 0 0 3.082 2.433c.085.504.24.985.453 1.432A4.001 4.001 0 0 1 2 14.999V11.75c0-.966.784-1.75 1.75-1.75Zm13.125 0h3.375c.966 0 1.75.784 1.75 1.75V15a4 4 0 0 1-5.03 3.866c.214-.448.369-.929.455-1.433A2.5 2.5 0 0 0 20.5 15v-3.25a.25.25 0 0 0-.25-.25h-2.757a2.738 2.738 0 0 0-.618-1.5ZM12 3a3 3 0 1 1 0 6 3 3 0 0 1 0-6Zm6.5 1a2.5 2.5 0 1 1 0 5 2.5 2.5 0 0 1 0-5Zm-13 0a2.5 2.5 0 1 1 0 5 2.5 2.5 0 0 1 0-5Zm6.5.5a1.5 1.5 0 1 0 0 3 1.5 1.5 0 0 0 0-3Zm6.5 1a1 1 0 1 0 0 2 1 1 0 0 0 0-2Zm-13 0a1 1 0 1 0 0 2 1 1 0 0 0 0-2Z"/></svg>