<svg xmlns="http://www.w3.org/2000/svg" width="16" height="16" viewBox="0 0 16 16"><path d="M2 4a2 2 0 0 1 2-2h5a2 2 0 0 1 2 2v1h1a2 2 0 0 1 2 2v5a2 2 0 0 1-2 2H7a2 2 0 0 1-2-2v-1H4a2 2 0 0 1-2-2V4Zm1 2.557v1.586L8.143 3H6.557L3 6.557ZM5.143 3H4a1 1 0 0 0-1 1v1.143L5.143 3Zm4.307.107L7.557 5h1.736L10 4.293V4a1 1 0 0 0-.55-.893ZM5 7.557 3.107 9.45A1 1 0 0 0 4 10h.293L5 9.293V7.557ZM11.707 13H12a1 1 0 0 0 1-1v-.293L11.707 13ZM13 10.293V8.707L8.707 13h1.586L13 10.293Zm0-3V7a1 1 0 0 0-.454-.838L11 7.707V9c0 .108-.009.215-.025.318L13 7.293Zm-3.682 3.682A2.01 2.01 0 0 1 9 11H7.707l-1.545 1.546A1 1 0 0 0 7 13h.293l2.025-2.025ZM6 7v3h3a1 1 0 0 0 1-1V6H7a1 1 0 0 0-1 1Z"/></svg>