<svg xmlns="http://www.w3.org/2000/svg" width="24" height="24"><path d="M13.7 2.33a3.75 3.75 0 0 1 2.6 0l4.307 1.592a1.75 1.75 0 0 1 1.143 1.641v9.292a5.503 5.503 0 0 0-5.63-3.843 2.745 2.745 0 0 0-1.167-.829l-4.306-1.592a4.75 4.75 0 0 0-2.397-.235V5.563a1.75 1.75 0 0 1 1.143-1.641L13.7 2.33Zm-2.395 3.924a.75.75 0 0 0 .464.954l2.659.919c.37.128.774.128 1.144 0l2.65-.919a.75.75 0 0 0-.49-1.417l-2.65.918a.25.25 0 0 1-.164 0l-2.659-.919a.75.75 0 0 0-.954.464Zm3.566 4.99a1.744 1.744 0 0 0-.264-.123L10.3 9.529a3.75 3.75 0 0 0-2.6 0l-4.307 1.592a1.75 1.75 0 0 0-1.143 1.641v5.67a1.75 1.75 0 0 0 1.143 1.642L7.7 21.666a3.75 3.75 0 0 0 2.6 0l2.639-.976A5.488 5.488 0 0 1 11 16.5c0-.512.07-1.007.2-1.478l-1.45.503v2.7a.75.75 0 0 1-1.5 0v-2.7l-2.48-.857a.75.75 0 0 1 .49-1.418l2.74.948 2.732-.947a.761.761 0 0 1 .355-.034 5.51 5.51 0 0 1 2.784-1.972Zm5.297 7.862a4.5 4.5 0 1 0-1.06 1.06l2.612 2.613a.75.75 0 0 0 1.06-1.06l-2.612-2.613ZM19.5 16.5a3 3 0 1 1-6 0 3 3 0 0 1 6 0Z"/></svg>