<svg xmlns="http://www.w3.org/2000/svg" width="28" height="28"><path d="M15.866 3.734a2.75 2.75 0 0 0-3.732 0l-7.929 7.324A3.75 3.75 0 0 0 3 13.813v8.437A2.75 2.75 0 0 0 5.75 25h16.5A2.75 2.75 0 0 0 25 22.25v-8.437a3.75 3.75 0 0 0-1.205-2.755l-7.929-7.324ZM21.754 23.5l-.102-.017a75.636 75.636 0 0 1-2.144-.395 68.932 68.932 0 0 1-5.081-1.201c-1.853-.521-3.66-1.146-4.991-1.848-.667-.353-1.176-.705-1.508-1.044-.333-.34-.428-.603-.428-.795 0-.251.083-.428.244-.586.182-.18.487-.354.946-.504.925-.303 2.21-.431 3.62-.527l.757-.05c1.135-.072 2.298-.146 3.246-.315.583-.105 1.148-.255 1.608-.498.466-.245.905-.634 1.057-1.238.158-.635-.052-1.201-.377-1.65-.315-.434-.774-.817-1.258-1.157-.627-.44-1.425-.893-2.205-1.335-.4-.228-.797-.452-1.162-.671-1.159-.694-2.03-1.338-2.407-1.972-.17-.286-.217-.535-.17-.783.049-.265.223-.625.681-1.084a.764.764 0 0 0 .034-.035l1.038-.96a1.25 1.25 0 0 1 1.696 0l7.929 7.325a2.25 2.25 0 0 1 .723 1.653v8.437c0 .69-.56 1.25-1.25 1.25h-.496ZM9.977 7.769c.07.244.173.476.303.694.596 1.003 1.796 1.816 2.925 2.493.44.263.875.51 1.291.745.732.415 1.412.8 1.984 1.201.439.309.738.578.906.81.158.218.155.333.136.406-.01.041-.05.143-.302.276-.257.136-.645.253-1.171.347-.856.153-1.907.22-3.038.293-.264.016-.533.034-.804.052-1.385.095-2.854.228-3.985.599-.569.186-1.117.453-1.53.86A2.26 2.26 0 0 0 6 18.2c0 .73.372 1.349.856 1.844.485.496 1.145.933 1.88 1.321 1.471.777 3.4 1.435 5.284 1.966.206.057.41.114.615.169H5.75c-.69 0-1.25-.56-1.25-1.25v-8.437c0-.628.262-1.227.723-1.653l4.754-4.391Z"/></svg>