<svg xmlns="http://www.w3.org/2000/svg" width="28" height="28" viewBox="0 0 28 28"><path d="M3.5 14C3.5 8.201 8.201 3.5 14 3.5S24.5 8.201 24.5 14v2.5h-2.75a.75.75 0 0 0-.75.75v8c0 .414.336.75.75.75H23a3 3 0 0 0 3-3v-9c0-6.627-5.373-12-12-12S2 7.373 2 14v9a3 3 0 0 0 3 3h1.25a.75.75 0 0 0 .75-.75v-8a.75.75 0 0 0-.75-.75H3.5V14Zm11.25-.25a.75.75 0 0 0-1.5 0v12.5a.75.75 0 0 0 1.5 0v-12.5Zm-4.5 2.5A.75.75 0 0 1 11 17v5.25a.75.75 0 0 1-1.5 0V17a.75.75 0 0 1 .75-.75Zm8.25.75a.75.75 0 0 0-1.5 0v5.25a.75.75 0 0 0 1.5 0V17Z"/></svg>