<svg xmlns="http://www.w3.org/2000/svg" width="16" height="16" viewBox="0 0 16 16"><path d="M5.465 9.83a.921.921 0 0 0 1.07-.001.98.98 0 0 0 .341-.459l.347-1.067a1.698 1.698 0 0 1 1.078-1.079l1.086-.353a.923.923 0 0 0-.037-1.75l-1.069-.346a1.7 1.7 0 0 1-1.08-1.078l-.353-1.084a.917.917 0 0 0-.869-.61.92.92 0 0 0-.875.624l-.356 1.09A1.71 1.71 0 0 1 3.7 4.775l-1.084.351a.923.923 0 0 0 .013 1.745l1.067.347a1.712 1.712 0 0 1 1.081 1.083l.352 1.08c.063.18.181.337.337.448Zm5.07 4.021a.806.806 0 0 0 .464.148.813.813 0 0 0 .759-.55l.248-.762a1.066 1.066 0 0 1 .68-.68l.772-.252a.8.8 0 0 0-.023-1.521l-.764-.249a1.076 1.076 0 0 1-.68-.678l-.252-.774a.8.8 0 0 0-1.518.011l-.247.762a1.073 1.073 0 0 1-.664.679l-.776.253a.8.8 0 0 0-.388 1.221c.099.14.239.245.4.3l.763.247a1.075 1.075 0 0 1 .68.683l.253.774a.8.8 0 0 0 .292.388Z"/></svg>