<svg xmlns="http://www.w3.org/2000/svg" width="20" height="20"><path d="M7.999 2c-.37 0-.731.036-1.08.106a.5.5 0 0 0-.394.396l-.262 1.354a.417.417 0 0 1-.545.315l-1.307-.45a.5.5 0 0 0-.538.141A5.495 5.495 0 0 0 2.786 5.74a.5.5 0 0 0 .146.538l1.045.907a.417.417 0 0 1 0 .63l-1.045.907a.5.5 0 0 0-.146.537 5.5 5.5 0 0 0 1.087 1.878.5.5 0 0 0 .538.142l1.307-.45a.417.417 0 0 1 .545.314l.262 1.355a.5.5 0 0 0 .393.396 5.525 5.525 0 0 0 2.17-.002.5.5 0 0 0 .393-.395l.262-1.354a.417.417 0 0 1 .545-.315l1.3.45a.5.5 0 0 0 .538-.143 5.495 5.495 0 0 0 1.087-1.882.5.5 0 0 0-.146-.537l-1.039-.902a.417.417 0 0 1 0-.629l1.04-.902a.5.5 0 0 0 .145-.537 5.496 5.496 0 0 0-1.087-1.881.5.5 0 0 0-.538-.143l-1.3.45a.417.417 0 0 1-.545-.316l-.262-1.353a.5.5 0 0 0-.392-.395A5.524 5.524 0 0 0 7.999 2ZM6.5 7.5a1.5 1.5 0 1 1 3 0 1.5 1.5 0 0 1-3 0Zm4.663 4.947a.459.459 0 0 1 .526-.152l.8.276a.455.455 0 0 0 .594-.343l.16-.83a.459.459 0 0 1 .396-.38 3.554 3.554 0 0 1 .719 0c.202.02.356.18.395.38l.16.83a.455.455 0 0 0 .595.343l.8-.276a.46.46 0 0 1 .526.152c.14.194.261.403.36.623a.459.459 0 0 1-.13.532l-.64.555a.455.455 0 0 0 0 .686l.64.555a.459.459 0 0 1 .13.532c-.099.22-.22.429-.36.623a.46.46 0 0 1-.526.152l-.8-.276a.455.455 0 0 0-.594.343l-.16.83a.459.459 0 0 1-.396.38 3.554 3.554 0 0 1-.719 0 .459.459 0 0 1-.395-.38l-.161-.83a.455.455 0 0 0-.595-.343l-.799.276a.46.46 0 0 1-.526-.152 3.493 3.493 0 0 1-.36-.623.459.459 0 0 1 .13-.532l.64-.555a.455.455 0 0 0 0-.686l-.64-.555a.459.459 0 0 1-.13-.532c.099-.22.22-.429.36-.623ZM15 14.5a1 1 0 1 0-2 0 1 1 0 0 0 2 0Z"/></svg>