<svg xmlns="http://www.w3.org/2000/svg" width="20" height="20"><path d="M9.354 6.396a.5.5 0 0 1 0 .708l-1.75 1.75a.5.5 0 0 1-.691.015l-.75-.685a.5.5 0 1 1 .674-.738l.397.362 1.412-1.412a.5.5 0 0 1 .708 0Zm0 5.708a.5.5 0 0 0-.708-.708l-1.412 1.412-.397-.362a.5.5 0 0 0-.674.738l.75.685a.5.5 0 0 0 .69-.015l1.75-1.75ZM11 7a.5.5 0 0 0 0 1h2.5a.5.5 0 0 0 0-1H11ZM3 6a3 3 0 0 1 3-3h8a3 3 0 0 1 3 3v3.601a5.499 5.499 0 0 0-1-.393V6a2 2 0 0 0-2-2H6a2 2 0 0 0-2 2v8a2 2 0 0 0 2 2h3.208c.098.346.23.68.393 1H6a3 3 0 0 1-3-3V6Zm7.634 7.92a2 2 0 0 0 1.43-2.478l-.156-.557c.255-.197.53-.364.822-.5l.337.358a2 2 0 0 0 2.91 0l.322-.343c.298.14.578.313.835.518l-.126.422a2.001 2.001 0 0 0 1.456 2.519l.35.082a4.595 4.595 0 0 1 .01 1.017l-.46.118a1.998 1.998 0 0 0-1.432 2.478l.156.556c-.254.197-.53.365-.822.5l-.337-.358a1.999 1.999 0 0 0-2.909 0l-.32.348a4.355 4.355 0 0 1-.836-.518l.126-.423a2 2 0 0 0-1.456-2.52l-.349-.082a4.622 4.622 0 0 1-.01-1.016l.46-.121Zm4.865.58a1 1 0 1 0-2 0 1 1 0 0 0 2 0Z"/></svg>