<svg xmlns="http://www.w3.org/2000/svg" width="24" height="24"><path d="M7 8.06V12a4 4 0 0 0 4.175 3.996 6.46 6.46 0 0 1 1.229-2.531l.713.713a5.5 5.5 0 0 0 7.717 7.697.75.75 0 0 0 .946-1.155L3.28 2.22a.75.75 0 1 0-1.06 1.06L7 8.06Zm11.145 11.145-.177.47a.5.5 0 0 1-.942-.017l-.786-2.357 1.905 1.904Zm-2.35-2.348-.33.829A.5.5 0 0 1 15 18h-1a.5.5 0 0 1 0-1h.662l.364-.913.77.77Zm-.254-4.498 7.1 7.1a5.5 5.5 0 0 0-7.1-7.1ZM7.41 4.23l7.366 7.366c.074-.034.148-.067.223-.098V6a4 4 0 0 0-7.588-1.77ZM11 17.5c0 1.096.271 2.129.75 3.035v.715a.75.75 0 0 1-1.493.102l-.007-.102v-2.268a6.75 6.75 0 0 1-6.246-6.496L4 12.25v-.5a.75.75 0 0 1 1.493-.102l.007.102v.5a5.25 5.25 0 0 0 5.034 5.246l.216.004H11Z"/></svg>