<svg xmlns="http://www.w3.org/2000/svg" width="16" height="16"><path d="M10 8h.5a.5.5 0 1 0 0-1H10V5.5c0-.552-.185-1.071-.513-1.503L9.5 4h1a.5.5 0 1 0 0-1h-1a.5.5 0 0 0-.5.507l.002.007A2.473 2.473 0 0 0 7.5 3H7v-.5A1.497 1.497 0 0 1 8.5 1h3A1.5 1.5 0 0 1 13 2.494V8.5c0 .827-.674 1.5-1.5 1.5H10V8Zm3.998.415.977 2.927a.498.498 0 0 1-.07.45H14.9a.501.501 0 0 1-.4.208h-3.252l-.324-.975-.007-.013-.006-.012h.588c1.377 0 2.5-1.122 2.5-2.5v-.085Zm-3.998 3 .976 2.927v.001a.498.498 0 0 1-.07.45H10.9a.501.501 0 0 1-.4.208h-9a.504.504 0 0 1-.495-.425.501.501 0 0 1 .02-.234L2 11.419v.081C2 12.878 3.122 14 4.5 14h3c1.378 0 2.5-1.122 2.5-2.5v-.085ZM7.5 13h-3c-.827 0-1.5-.673-1.5-1.5v-6A1.497 1.497 0 0 1 4.5 4h3A1.5 1.5 0 0 1 9 5.494V11.5c0 .827-.673 1.5-1.5 1.5Zm-2-7a.5.5 0 1 0 0 1h1a.5.5 0 1 0 0-1h-1Zm0 4a.5.5 0 1 0 0 1h1a.5.5 0 1 0 0-1h-1Z"/></svg>