<svg xmlns="http://www.w3.org/2000/svg" width="24" height="24"><path d="M19.754 11a.75.75 0 0 1 .743.648l.007.102v7a3.25 3.25 0 0 1-3.066 3.246l-.184.005h-11a3.25 3.25 0 0 1-3.245-3.066l-.005-.184V11.75a.75.75 0 0 1 1.493-.102l.007.102v7a1.75 1.75 0 0 0 1.606 1.745l.144.006h11a1.75 1.75 0 0 0 1.744-1.607l.006-.143V11.75a.75.75 0 0 1 .75-.75ZM6.219 7.216l4.997-4.996a.75.75 0 0 1 .976-.073l.084.072 5.005 4.997a.75.75 0 0 1-.976 1.134l-.084-.073-3.723-3.716v11.694a.75.75 0 0 1-.647.743l-.102.007a.75.75 0 0 1-.743-.648l-.007-.102-.001-11.697L7.28 8.277a.75.75 0 0 1-.977.073l-.084-.073a.75.75 0 0 1-.072-.977l.072-.084 4.997-4.996-4.997 4.996Z"/></svg>