<svg xmlns="http://www.w3.org/2000/svg" width="20" height="20"><path d="M10 7a2.5 2.5 0 1 0 0-5 2.5 2.5 0 0 0 0 5ZM8 8a2 2 0 0 0-2 2v.5a.5.5 0 0 0 .5.5h7a.5.5 0 0 0 .5-.5V10a2 2 0 0 0-2-2H8Zm-2.5 5.75a.75.75 0 1 1-1.5 0 .75.75 0 0 1 1.5 0Zm-.75 3.75a.75.75 0 1 0 0-1.5.75.75 0 0 0 0 1.5Zm8.051-3.58c-.186.304-.301.766-.301 1.33 0 .564.115 1.026.301 1.33.174.282.4.42.699.42.3 0 .525-.138.699-.42.186-.304.301-.766.301-1.33 0-.564-.115-1.026-.301-1.33-.174-.282-.4-.42-.699-.42-.3 0-.525.138-.699.42Zm-.852-.523c.326-.531.85-.897 1.551-.897.7 0 1.225.366 1.551.897.314.512.449 1.175.449 1.853 0 .678-.135 1.341-.449 1.853-.326.531-.85.897-1.551.897-.7 0-1.225-.366-1.551-.897-.314-.512-.449-1.175-.449-1.853 0-.678.135-1.341.449-1.853Zm-4.134.507c.453-.367.823-.431 1.071-.395a.728.728 0 0 1 .541.36c.096.174.092.35.007.486-.086.138-.324.342-.912.403a.5.5 0 0 0 .015.996c.586.044.817.241.898.37.082.13.09.309-.01.492a.752.752 0 0 1-.546.378c-.247.039-.613-.02-1.064-.386a.5.5 0 1 0-.63.777c.623.505 1.268.689 1.85.596a1.752 1.752 0 0 0 1.27-.888c.24-.443.284-1.014-.024-1.502a1.505 1.505 0 0 0-.307-.35c.122-.105.226-.224.308-.357.305-.488.265-1.056.02-1.499a1.728 1.728 0 0 0-1.274-.866c-.58-.083-1.222.105-1.843.608a.5.5 0 0 0 .63.777Z"/></svg>