<svg xmlns="http://www.w3.org/2000/svg" width="24" height="24" viewBox="0 0 24 24"><path d="M16.088 6.412a2.844 2.844 0 0 0-1.347-.955l-1.378-.448a.544.544 0 0 1 0-1.025l1.378-.448A2.839 2.839 0 0 0 16.5 1.774l.011-.034.448-1.377a.544.544 0 0 1 1.027 0l.447 1.377a2.835 2.835 0 0 0 1.799 1.796l1.377.448.028.007a.544.544 0 0 1 0 1.025l-1.378.448a2.839 2.839 0 0 0-1.798 1.796l-.448 1.377a.544.544 0 0 1-1.026 0l-.448-1.377a2.837 2.837 0 0 0-.45-.848Zm7.695 3.801-.766-.248a1.577 1.577 0 0 1-.998-.999l-.25-.764a.302.302 0 0 0-.57 0l-.248.764a1.576 1.576 0 0 1-.984.999l-.765.248a.302.302 0 0 0 0 .57l.765.249a1.578 1.578 0 0 1 1 1.002l.248.764a.302.302 0 0 0 .57 0l.249-.764a1.576 1.576 0 0 1 .999-.999l.765-.248a.302.302 0 0 0 0-.57l-.015-.004ZM12.28 3.57a1.65 1.65 0 0 1 .767-.57H10.75a.75.75 0 0 0 0 1.5H12v-.031a1.6 1.6 0 0 1 .28-.9ZM3.75 10a.75.75 0 0 1 .75.75v2.5a.75.75 0 0 1-1.5 0v-2.5a.75.75 0 0 1 .75-.75ZM14 20.25a.75.75 0 0 1-.75.75h-2.5a.75.75 0 0 1 0-1.5h2.5a.75.75 0 0 1 .75.75ZM6.25 3a.75.75 0 0 1 0 1.5h-.5c-.69 0-1.25.56-1.25 1.25v.5a.75.75 0 0 1-1.5 0v-.5A2.75 2.75 0 0 1 5.75 3h.5Zm0 18a.75.75 0 0 0 0-1.5h-.5c-.69 0-1.25-.56-1.25-1.25v-.5a.75.75 0 0 0-1.5 0v.5A2.75 2.75 0 0 0 5.75 21h.5ZM17 20.25c0 .414.336.75.75.75h.5A2.75 2.75 0 0 0 21 18.25v-.5a.75.75 0 0 0-1.5 0v.5c0 .69-.56 1.25-1.25 1.25h-.5a.75.75 0 0 0-.75.75Z"/></svg>