<svg xmlns="http://www.w3.org/2000/svg" width="24" height="24" viewBox="0 0 24 24"><path d="M5.75 3h12.5A2.75 2.75 0 0 1 21 5.75v12.5A2.75 2.75 0 0 1 18.25 21H5.75A2.75 2.75 0 0 1 3 18.25V5.75A2.75 2.75 0 0 1 5.75 3ZM5 5.75v.543L6.293 5H5.75a.75.75 0 0 0-.75.75Zm0 1.957v2.586L10.293 5H7.707L5 7.707ZM11.707 5 5 11.707v2.586L14.293 5h-2.586Zm4 0L5 15.707v2.543l.001.042 13.29-13.29A.762.762 0 0 0 18.25 5h-2.543ZM19 5.708 5.71 18.998a.275.275 0 0 0 .041.002h2.543L19 8.293V5.75l-.001-.042Zm.001 4L9.707 19h2.586L19 12.293V9.707Zm0 4L13.707 19h2.586L19 16.293v-2.586Zm0 4L17.707 19h.543a.75.75 0 0 0 .75-.75v-.543Z"/></svg>