<svg xmlns="http://www.w3.org/2000/svg" width="16" height="16" viewBox="0 0 16 16"><path d="M13 10.4c-.75.384-1.6.6-2.5.6-.65 0-1.273-.113-1.852-.32l-1.41.76a.5.5 0 0 1-.475 0L1 8.337V13a2 2 0 0 0 2 2h8a2 2 0 0 0 2-2v-2.6ZM5.022 5H3a2 2 0 0 0-2 2v.201l6 3.231.544-.293A5.496 5.496 0 0 1 5.022 5Zm5.478 5a4.5 4.5 0 1 0 0-9 4.5 4.5 0 0 0 0 9ZM9.354 3.646a.5.5 0 0 1 0 .708L8.207 5.5l1.147 1.146a.5.5 0 0 1-.708.708l-1.5-1.5a.5.5 0 0 1 0-.708l1.5-1.5a.5.5 0 0 1 .708 0Zm2.5.708L11.207 5H13a1 1 0 0 1 1 1v.5a.5.5 0 0 1-1 0V6h-1.793l.647.646a.5.5 0 0 1-.708.708l-1.5-1.5a.5.5 0 0 1 0-.708l1.5-1.5a.5.5 0 0 1 .708.708Z"/></svg>