<svg xmlns="http://www.w3.org/2000/svg" width="16" height="16" viewBox="0 0 16 16"><path d="M8.5 1.5a.5.5 0 0 0-1 0v1a.5.5 0 0 0 1 0v-1ZM11 8a3 3 0 1 1-6 0 3 3 0 0 1 6 0ZM8 6v4a2 2 0 1 0 0-4Zm7 2a.5.5 0 0 1-.5.5h-1a.5.5 0 0 1 0-1h1a.5.5 0 0 1 .5.5Zm-6.5 5.5a.5.5 0 0 0-1 0v1a.5.5 0 0 0 1 0v-1ZM3 8a.5.5 0 0 1-.5.5h-1a.5.5 0 0 1 0-1h1A.5.5 0 0 1 3 8Zm.854-4.853a.5.5 0 0 0-.708.707l1 1a.5.5 0 1 0 .708-.707l-1-1Zm-.708 9.707a.5.5 0 0 0 .708 0l1-1a.5.5 0 1 0-.708-.707l-1 1a.5.5 0 0 0 0 .707Zm9-9.707a.5.5 0 0 1 .708.707l-1 1a.5.5 0 0 1-.708-.707l1-1Zm.708 9.707a.5.5 0 0 1-.708 0l-1-1a.5.5 0 0 1 .708-.707l1 1a.5.5 0 0 1 0 .707Z"/></svg>