<svg xmlns="http://www.w3.org/2000/svg" width="16" height="16"><path d="M13.218 4.246 7.087 6.238a.502.502 0 0 1-.24.079L4.741 7H13.5a.5.5 0 0 1 .5.5v5a2.5 2.5 0 0 1-2.5 2.5h-7A2.5 2.5 0 0 1 2 12.5v-5c0-.106.033-.205.09-.287l-.195-.602A2.5 2.5 0 0 1 3.5 3.461l6.657-2.163a2.5 2.5 0 0 1 3.15 1.605l.232.713a.5.5 0 0 1-.321.63Zm-3.744.165 1.285-2.226a1.508 1.508 0 0 0-.293.064l-1.245.404-1.308 2.265 1.56-.507Zm2.295-1.979a.515.515 0 0 1-.02.037l-.854 1.48 1.538-.5-.077-.237a1.494 1.494 0 0 0-.587-.78Zm-3.97.683-1.56.507L4.93 5.887l1.56-.507L7.8 3.115ZM2.923 6.54l.587-.19 1.307-2.266-1.008.328a1.5 1.5 0 0 0-.963 1.89l.077.238Z"/></svg>