<svg xmlns="http://www.w3.org/2000/svg" width="16" height="16"><path d="M3.75 2A1.75 1.75 0 0 0 2 3.75v1c0 .49.201.932.525 1.25C2.201 6.318 2 6.76 2 7.25v1.5c0 .49.201.932.525 1.25-.324.318-.525.76-.525 1.25v1c0 .966.784 1.75 1.75 1.75h8.5A1.75 1.75 0 0 0 14 12.25v-1c0-.49-.201-.932-.525-1.25.324-.318.525-.76.525-1.25v-1.5c0-.49-.201-.932-.525-1.25.324-.318.525-.76.525-1.25v-1A1.75 1.75 0 0 0 12.25 2h-8.5ZM3 11.25a.75.75 0 0 1 .75-.75H5V13H3.75a.75.75 0 0 1-.75-.75v-1ZM6 13v-2.5h6.25a.75.75 0 0 1 .75.75v1a.75.75 0 0 1-.75.75H6Zm0-3.5v-3h6.25a.75.75 0 0 1 .75.75v1.5a.75.75 0 0 1-.75.75H6Zm0-4V3h6.25a.75.75 0 0 1 .75.75v1a.75.75 0 0 1-.75.75H6ZM5 3v2.5H3.75A.75.75 0 0 1 3 4.75v-1A.75.75 0 0 1 3.75 3H5Zm0 3.5v3H3.75A.75.75 0 0 1 3 8.75v-1.5a.75.75 0 0 1 .75-.75H5Z"/></svg>