<svg xmlns="http://www.w3.org/2000/svg" width="28" height="28"><path d="M15.612 8.623a20.69 20.69 0 0 1-.934 1.143.894.894 0 0 1-1.356 0 20.69 20.69 0 0 1-.988-1.215c-.277-.37-.557-.773-.811-1.191-.575-.944-1.023-1.966-1.023-2.86a3.5 3.5 0 1 1 7 0c0 .894-.448 1.916-1.023 2.86l-.006.01c-.27.442-.567.867-.86 1.253Zm-.895-2.526a1.75 1.75 0 1 0-1.434-3.193 1.75 1.75 0 0 0 1.434 3.193Zm-7.07 7.443 4.04-4.189a17.186 17.186 0 0 1-.88-1.249L4.05 15.108A3.75 3.75 0 0 0 3 17.71v4.539A2.75 2.75 0 0 0 5.75 25h16.5A2.75 2.75 0 0 0 25 22.25v-4.54a3.75 3.75 0 0 0-1.05-2.602l-6.757-7.006a16.97 16.97 0 0 1-.88 1.249l2.707 2.806c-1.705.13-3.225.745-4.58 1.292-.306.124-.605.244-.895.355-1.076.41-2.047.702-3.021.701-.89 0-1.83-.245-2.878-.965Z"/></svg>