<svg xmlns="http://www.w3.org/2000/svg" width="24" height="24"><path d="M7 6.25c0-.414.334-.75.747-.75h6.006c.413 0 .747.336.747.75s-.334.75-.747.75H7.747A.748.748 0 0 1 7 6.25Zm.747 8.25a.748.748 0 0 0-.747.75c0 .414.334.75.747.75h6.006a.748.748 0 0 0 .747-.75.748.748 0 0 0-.747-.75H7.747ZM7 10.75c0-.414.334-.75.747-.75h6.006c.413 0 .747.336.747.75s-.334.75-.747.75H7.747A.748.748 0 0 1 7 10.75Zm-3-6.5A2.25 2.25 0 0 1 6.25 2h9a2.25 2.25 0 0 1 2.25 2.25v13a2.25 2.25 0 0 1-2.25 2.25h-9A2.25 2.25 0 0 1 4 17.25v-13Zm1.504-.077a.759.759 0 0 0-.004.077v13c0 .414.336.75.75.75h9a.75.75 0 0 0 .75-.75v-13a.75.75 0 0 0-.75-.75h-9a.75.75 0 0 0-.746.673ZM8.75 22a2.25 2.25 0 0 1-2.122-1.5h8.622a3.25 3.25 0 0 0 3.25-3.25V8.937l.84.84c.423.423.66.995.66 1.592v5.881A4.75 4.75 0 0 1 15.25 22h-6.5Z"/></svg>