<svg xmlns="http://www.w3.org/2000/svg" width="24" height="24" viewBox="0 0 24 24"><path d="m12.815 11.95-7.532 1.255a.5.5 0 0 0-.386.318L2.3 20.481c-.248.64.421 1.25 1.035.942l11.964-5.982A1.75 1.75 0 0 1 15.75 12h5.5c.151 0 .298.02.437.055a.75.75 0 0 0-.352-.973l-18-9c-.614-.307-1.283.303-1.035.942l2.598 6.958a.5.5 0 0 0 .386.318l7.532 1.255a.2.2 0 0 1 0 .395Zm2.935 2.55h.75v2.695c0 .348-.09.69-.263.991l-.464.814h5.453l-.463-.811a2 2 0 0 1-.263-.992V14.5h.75a.75.75 0 0 0 0-1.5h-5.5a.75.75 0 0 0 0 1.5Zm-.548 5.5-1.003 1.757A1.5 1.5 0 0 0 15.502 24h5.995a1.5 1.5 0 0 0 1.302-2.243L21.797 20h-6.595Z"/></svg>