<svg xmlns="http://www.w3.org/2000/svg" width="16" height="16" viewBox="0 0 16 16"><path d="M2 10c0 1.803 1.555 3.653 4.222 3.957a5.501 5.501 0 0 1-.72-1.157C3.882 12.333 3 11.128 3 10v-.5a.5.5 0 0 1 .5-.5h1.707c.099-.349.23-.683.393-1H3.5A1.5 1.5 0 0 0 2 9.5v.5Zm7.75-5.75c0 .285-.043.56-.124.82a5.46 5.46 0 0 0-1.385.414 1.75 1.75 0 1 0-.836.47 5.53 5.53 0 0 0-1.078.963A2.751 2.751 0 1 1 9.75 4.25Zm.75 3.625a.625.625 0 1 0 0 1.25.625.625 0 0 0 0-1.25Zm0 5.125a.5.5 0 0 0 .5-.5v-2a.5.5 0 0 0-1 0v2a.5.5 0 0 0 .5.5Zm0-7a4.5 4.5 0 1 0 0 9 4.5 4.5 0 0 0 0-9Zm0 1a3.5 3.5 0 1 1 0 7 3.5 3.5 0 0 1 0-7Z"/></svg>