<svg xmlns="http://www.w3.org/2000/svg" width="24" height="24"><path d="M3.5 2A1.5 1.5 0 0 0 2 3.5v13A1.5 1.5 0 0 0 3.5 18H9v-3.316c0-.763.316-1.49.874-2.01L14 8.821V8.5A1.5 1.5 0 0 0 12.5 7H11V3.5A1.5 1.5 0 0 0 9.5 2h-6ZM6 5.75a.75.75 0 1 1-1.5 0 .75.75 0 0 1 1.5 0ZM5.25 9.5a.75.75 0 1 1 0-1.5.75.75 0 0 1 0 1.5ZM6 11.75a.75.75 0 1 1-1.5 0 .75.75 0 0 1 1.5 0ZM7.75 6.5a.75.75 0 1 1 0-1.5.75.75 0 0 1 0 1.5Zm.75 2.25a.75.75 0 1 1-1.5 0 .75.75 0 0 1 1.5 0Zm-.75 3.75a.75.75 0 1 1 0-1.5.75.75 0 0 1 0 1.5Zm9.444-3.061a1.75 1.75 0 0 0-2.388 0l-4.25 3.966a1.75 1.75 0 0 0-.556 1.28V20.5a1.5 1.5 0 0 0 1.5 1.5h2a1.5 1.5 0 0 0 1.5-1.5V18h2v2.5a1.5 1.5 0 0 0 1.5 1.5h2a1.5 1.5 0 0 0 1.5-1.5v-5.815a1.75 1.75 0 0 0-.556-1.28l-4.25-3.966Zm-1.365 1.096a.25.25 0 0 1 .342 0l4.25 3.967a.25.25 0 0 1 .079.183V20.5h-2V18a1.5 1.5 0 0 0-1.5-1.5h-2a1.5 1.5 0 0 0-1.5 1.5v2.5h-2v-5.815a.25.25 0 0 1 .08-.183l4.25-3.967ZM9.25 2h-5.5Z"/></svg>