<svg xmlns="http://www.w3.org/2000/svg" width="20" height="20"><path d="M2.854 2.146a.5.5 0 1 0-.708.708L4.89 5.598 2.362 8.523A1.494 1.494 0 0 0 2 9.5v3A2.5 2.5 0 0 0 4.5 15h2A2.5 2.5 0 0 0 9 12.5V11h1.293l.707.707v.793a2.5 2.5 0 0 0 2.5 2.5h.793l2.853 2.854a.5.5 0 0 0 .708-.708l-15-15ZM7.293 8H4.136l1.463-1.693L7.293 8Zm9.48 6.652-5.678-5.678A1.5 1.5 0 0 1 12.5 8h3.357L13.57 5.347A1 1 0 0 0 12.813 5H12a.5.5 0 0 1 0-1h.813a2 2 0 0 1 1.514.694l3.205 3.718c.288.273.468.66.468 1.088v3c0 .916-.492 1.716-1.227 2.152ZM6.32 4.198l.804.804A.996.996 0 0 1 7.186 5H8a.5.5 0 0 0 0-1h-.814a2 2 0 0 0-.867.198Z"/></svg>