<svg xmlns="http://www.w3.org/2000/svg" width="32" height="32" viewBox="0 0 32 32"><path d="M21.775 7.837a3.485 3.485 0 0 0-1.647-1.168l-1.684-.546a.665.665 0 0 1 0-1.254l1.684-.547a3.47 3.47 0 0 0 2.15-2.154l.014-.042.547-1.682a.665.665 0 0 1 1.255 0l.547 1.682a3.466 3.466 0 0 0 2.198 2.196l1.683.547.034.008a.665.665 0 0 1 0 1.254l-1.684.547a3.47 3.47 0 0 0-2.197 2.196l-.548 1.682a.664.664 0 0 1-1.255 0l-.547-1.682a3.464 3.464 0 0 0-.55-1.037Zm-3.258-4.574L18 3.44a2.17 2.17 0 0 0-1.5 2.06h-2.25a1.25 1.25 0 1 1 0-2.5h3.5c.29 0 .555.098.767.263ZM14.25 26.5a1.25 1.25 0 1 0 0 2.5h3.5a1.25 1.25 0 1 0 0-2.5h-3.5ZM3 17.75a1.25 1.25 0 1 0 2.5 0v-3.5a1.25 1.25 0 1 0-2.5 0v3.5Zm6-13.5C9 3.56 8.44 3 7.75 3A4.75 4.75 0 0 0 3 7.75a1.25 1.25 0 1 0 2.5 0A2.25 2.25 0 0 1 7.75 5.5C8.44 5.5 9 4.94 9 4.25ZM7.75 29a1.25 1.25 0 1 0 0-2.5 2.25 2.25 0 0 1-2.25-2.25 1.25 1.25 0 1 0-2.5 0A4.75 4.75 0 0 0 7.75 29Zm16.5 0a1.25 1.25 0 1 1 0-2.5 2.25 2.25 0 0 0 2.25-2.25 1.25 1.25 0 1 1 2.5 0A4.75 4.75 0 0 1 24.25 29Zm6.571-16.642.918.298.019.004a.362.362 0 0 1 0 .684l-.919.299a1.892 1.892 0 0 0-1.198 1.197l-.299.918a.363.363 0 0 1-.684 0l-.299-.918a1.891 1.891 0 0 0-1.198-1.202l-.919-.298a.362.362 0 0 1 0-.684l.919-.299a1.892 1.892 0 0 0 1.18-1.197l.299-.918a.363.363 0 0 1 .684 0l.298.918a1.89 1.89 0 0 0 1.199 1.197Z"/></svg>