<svg xmlns="http://www.w3.org/2000/svg" width="24" height="24"><path d="M12.525 4H5.25l-.184.005A3.25 3.25 0 0 0 2 7.25v9.5l.005.184A3.25 3.25 0 0 0 5.25 20h13.5l.184-.005A3.25 3.25 0 0 0 22 16.75V9.332a1.743 1.743 0 0 1-.75.168h-.75v7.25l-.006.143A1.75 1.75 0 0 1 18.75 18.5H5.25l-.144-.006A1.75 1.75 0 0 1 3.5 16.75V9.374l8.15 4.29.097.042a.75.75 0 0 0 .602-.042L20.26 9.5h-3.22L12 12.152 3.5 7.68v-.43l.006-.144A1.75 1.75 0 0 1 5.25 5.5h6.768a1.745 1.745 0 0 1 .508-1.5Zm8.725-2a.75.75 0 1 1 0 1.5h-7.5a.747.747 0 0 1-.75-.75.75.75 0 0 1 .75-.75h7.5Zm0 2.5a.75.75 0 1 1 0 1.5h-7.5a.75.75 0 0 1 0-1.5h7.5ZM13 7.75a.75.75 0 0 1 .75-.75h7.5a.75.75 0 0 1 0 1.5h-7.5a.75.75 0 0 1-.75-.75Z"/></svg>