<svg xmlns="http://www.w3.org/2000/svg" width="24" height="24"><path d="M8.75 2a.75.75 0 0 0-.75.75V5H5.75a.75.75 0 0 0-.75.75v4.764l-1.46.535a.75.75 0 0 0-.423 1.02l2.335 5.019a1.749 1.749 0 0 1 1.924.581l-2.554-5.492 6.587-2.412a1.75 1.75 0 0 1 1.19-.005l6.775 2.418-2.622 5.345a1.749 1.749 0 0 1 1.871-.408l2.468-5.031a.75.75 0 0 0-.421-1.037L19 10.451V5.75a.75.75 0 0 0-.75-.75H16V2.75a.75.75 0 0 0-.75-.75h-6.5Zm5.75 3h-5V3.5h5V5Zm3 1.5v3.416l-4.397-1.569a3.25 3.25 0 0 0-2.21.01L6.5 9.964V6.5h11Zm1.227 12.064-.003-.01a.75.75 0 0 0-1.441-.023v.002l-.004.009-.02.058a3.854 3.854 0 0 1-.517.95c-.387.515-.939.95-1.742.95s-1.356-.435-1.743-.95a3.851 3.851 0 0 1-.538-1.009l-.003-.009a.75.75 0 0 0-1.435.001v.001l-.004.01a3.36 3.36 0 0 1-.115.29c-.089.198-.227.46-.42.716-.385.515-.936.95-1.742.95-.806 0-1.358-.435-1.744-.95a3.834 3.834 0 0 1-.535-1.007l-.003-.011a.75.75 0 0 0-1.441.02l-.003.009-.018.054a3.301 3.301 0 0 1-.504.922c-.384.49-.996.963-2.002.963a.75.75 0 0 0 0 1.5c1.574 0 2.587-.777 3.183-1.537L6 20.374l.056.076C6.608 21.185 7.556 22 9 22s2.392-.815 2.943-1.55l.057-.078.058.079C12.61 21.185 13.558 22 15 22c1.442 0 2.39-.815 2.942-1.55l.055-.075c.021.03.043.058.066.087.595.761 1.61 1.538 3.187 1.538a.75.75 0 0 0 0-1.5c-1.012 0-1.623-.473-2.005-.962a3.267 3.267 0 0 1-.518-.974Z"/></svg>