<svg xmlns="http://www.w3.org/2000/svg" width="24" height="24" viewBox="0 0 24 24"><path d="M13.5 4a8.5 8.5 0 1 1-4.822 15.5H1.752a.75.75 0 0 1-.102-1.493L1.752 18l5.268.001a8.514 8.514 0 0 1-1.022-1.5L3.747 16.5a.75.75 0 0 1-.102-1.493L3.747 15l1.627.001A8.499 8.499 0 0 1 5 12.5c0-2.098.76-4.018 2.019-5.5H2.75a.75.75 0 0 1-.102-1.493L2.75 5.5h5.927A8.46 8.46 0 0 1 13.5 4Zm0 1.5a7 7 0 1 0 0 14 7 7 0 0 0 0-14Zm.003 1.502a5.501 5.501 0 1 1 0 11.003 5.501 5.501 0 0 1 0-11.003Zm1.151 7.714a2.495 2.495 0 0 1-2.297.006l-1.096 1.096c.64.433 1.411.687 2.242.687.834 0 1.608-.255 2.249-.691l-1.098-1.098Zm-5.152-2.213c0 .836.256 1.613.695 2.255l1.093-1.091a2.488 2.488 0 0 1-.29-1.168c0-.417.103-.81.284-1.155l-1.091-1.09a3.983 3.983 0 0 0-.691 2.25Zm7.316-2.242-1.095 1.095a2.492 2.492 0 0 1-.007 2.298l1.098 1.098c.436-.641.69-1.415.69-2.249 0-.83-.253-1.603-.686-2.242ZM13.5 11.5a1 1 0 1 0 0 1.998 1 1 0 0 0 0-1.998Zm.003-2.998a3.99 3.99 0 0 0-2.25.691l1.09 1.09a2.502 2.502 0 0 1 2.323.005l1.092-1.091a3.983 3.983 0 0 0-2.255-.695Z"/></svg>