<svg xmlns="http://www.w3.org/2000/svg" width="20" height="20" viewBox="0 0 20 20"><path d="M3 4.5A1.5 1.5 0 0 1 4.5 3h11A1.5 1.5 0 0 1 17 4.5v7a1.5 1.5 0 0 1-1.5 1.5H10v-1h5.5a.5.5 0 0 0 .5-.5v-7a.5.5 0 0 0-.5-.5h-11a.5.5 0 0 0-.5.5V6H3V4.5ZM10 15h7.5a.5.5 0 0 0 0-1H10v1Zm-5 0a.5.5 0 0 0 0 1h1a.5.5 0 0 0 0-1H5ZM2 8.5A1.5 1.5 0 0 1 3.5 7h4A1.5 1.5 0 0 1 9 8.5v8A1.5 1.5 0 0 1 7.5 18h-4A1.5 1.5 0 0 1 2 16.5v-8ZM3.5 8a.5.5 0 0 0-.5.5v8a.5.5 0 0 0 .5.5h4a.5.5 0 0 0 .5-.5v-8a.5.5 0 0 0-.5-.5h-4Z"/></svg>