<svg xmlns="http://www.w3.org/2000/svg" width="24" height="24"><path d="m21.49 4.982-2.01 2.01a9.048 9.048 0 0 0-2.47-2.47l2.01-2.01a1.747 1.747 0 1 1 2.47 2.47ZM5.28 13.72a.75.75 0 0 1 0 1.06l-2 2a.75.75 0 0 1-1.06-1.06l2-2a.75.75 0 0 1 1.06 0Zm2.5 3.56a.75.75 0 1 0-1.06-1.06l-2 2a.75.75 0 1 0 1.06 1.06l2-2Zm2.5 2.5a.75.75 0 1 0-1.06-1.06l-2 2a.75.75 0 1 0 1.06 1.06l2-2ZM3.736 7.263a1.749 1.749 0 0 1 2.473 0l10.56 10.559a1.749 1.749 0 1 1-2.474 2.473L3.736 9.736a1.749 1.749 0 0 1 0-2.473Zm3.18-.707a2.761 2.761 0 0 0-.43-.352 8 8 0 0 1 11.316 11.304 2.767 2.767 0 0 0-.327-.393L6.916 6.555Z"/></svg>