<svg xmlns="http://www.w3.org/2000/svg" width="28" height="28"><path d="M6.75 3A3.75 3.75 0 0 0 3 6.75V9.5h6.5V3H6.75ZM3 17v-6h6.5v6H3Zm0 4.25V18.5h6.5V25H6.75A3.75 3.75 0 0 1 3 21.25ZM17 25h-6v-6.5h4.263l-1.117 2.358A1.5 1.5 0 0 0 15.502 23H17v2Zm8-12v-2h-6.5v2.034c.103-.022.21-.034.318-.034H25Zm-8 1.834V11h-6v6h4.974L17 14.834Zm8-8.084V9.5h-6.5V3h2.75A3.75 3.75 0 0 1 25 6.75ZM11 3h6v6.5h-6V3Zm7.817 11h6.328a.5.5 0 0 1 .436.745L23.751 18h1.514a.75.75 0 0 1 .569 1.24l-6.416 7.452c-.522.606-1.499.052-1.246-.707L19.5 22h-4a.5.5 0 0 1-.451-.714l3.316-7a.5.5 0 0 1 .452-.286Z"/></svg>