<svg xmlns="http://www.w3.org/2000/svg" width="24" height="24"><path d="M10.25 2h3.5a2.25 2.25 0 0 1 2.236 2h1.764A2.25 2.25 0 0 1 20 6.25V13h-2.26l-.99-1.65a1.75 1.75 0 0 0-3.065.117l-.511 1.022-1.245-4.233a1.75 1.75 0 0 0-3.244-.289L6.168 13H4V6.25A2.25 2.25 0 0 1 6.25 4h1.764a2.25 2.25 0 0 1 2.236-2Zm3.5 1.5h-3.5a.75.75 0 0 0 0 1.5h3.5a.75.75 0 0 0 0-1.5Zm3 13H20v3.25A2.25 2.25 0 0 1 17.75 22H6.25A2.25 2.25 0 0 1 4 19.75V16.5h3.25a1.75 1.75 0 0 0 1.565-.967l1.011-2.022 1.245 4.233a1.75 1.75 0 0 0 3.244.289l1.085-2.17c.33.4.823.637 1.35.637Zm-5.78-7.962a.75.75 0 0 0-1.39-.123L6.785 14H2.75a.75.75 0 0 0 0 1.5h4.5a.75.75 0 0 0 .67-.415l2.148-4.295 1.963 6.672a.75.75 0 0 0 1.39.123l1.889-3.778.797 1.329a.75.75 0 0 0 .643.364h4.5a.75.75 0 0 0 0-1.5h-4.075l-1.282-2.136a.75.75 0 0 0-1.314.05l-1.647 3.296-1.963-6.672Z"/></svg>