<svg xmlns="http://www.w3.org/2000/svg" width="20" height="20" viewBox="0 0 20 20"><path d="M6.854 3.146v.002l.003.002.008.008.029.03c.024.025.06.062.103.11.088.094.212.233.362.411.3.357.703.873 1.123 1.519.538.827 1.11 1.878 1.518 3.082.409-1.204.98-2.255 1.518-3.082a15.58 15.58 0 0 1 1.123-1.519 11.715 11.715 0 0 1 .465-.521l.029-.03.008-.008.002-.002v-.001A.501.501 0 0 1 14 3.5v5.106c.251-.522.525-.947.794-1.29.376-.478.74-.792 1.018-.99a3.236 3.236 0 0 1 .45-.267l.033-.015.011-.005.005-.002h.002l.001-.001A.5.5 0 0 1 17 6.5V14a3 3 0 0 1-3 3H6a3 3 0 0 1-3-3V6.5a.5.5 0 0 1 .686-.464h.001l.002.001.005.002.011.005a1.34 1.34 0 0 1 .14.068c.086.046.204.116.343.215.279.197.642.511 1.018.99.27.342.543.767.794 1.29V3.5a.5.5 0 0 1 .854-.354ZM4 7.468V14a2 2 0 0 0 2 2h8a2 2 0 0 0 2-2V7.468c-.13.126-.273.28-.42.466-.62.79-1.34 2.198-1.582 4.616A.5.5 0 0 1 13 12.5V4.86c-.199.26-.419.567-.643.913-.79 1.214-1.624 2.891-1.86 4.789a.5.5 0 0 1-.993 0c-.237-1.898-1.071-3.575-1.86-4.79A14.788 14.788 0 0 0 7 4.86v7.64a.5.5 0 0 1-.998.05c-.241-2.418-.961-3.825-1.583-4.616A4.495 4.495 0 0 0 4 7.468Z"/></svg>