<svg xmlns="http://www.w3.org/2000/svg" width="16" height="16"><path d="M5 1a2 2 0 0 0-2 2v6.156a1.702 1.702 0 0 1 .718.59c.088-.089.182-.171.282-.246V3a1 1 0 0 1 1-1h3v2.5A1.5 1.5 0 0 0 9.5 6H12v7.5c0 .528-.164 1.018-.443 1.421A2.001 2.001 0 0 0 13 13V5.414a1.5 1.5 0 0 0-.44-1.06L9.648 1.439A1.5 1.5 0 0 0 8.586 1H5Zm6.793 4H9.5a.5.5 0 0 1-.5-.5V2.207L11.793 5ZM3 10.654a.616.616 0 0 0-.199-.45.725.725 0 0 0-.306-.168c-.152-.041-.502-.07-.725.225-.197.26-.51.571-.977.784a.5.5 0 0 0 .414.91A3.52 3.52 0 0 0 2 11.458V14.5a.5.5 0 0 0 1 0v-3.846Zm1 .846a1.5 1.5 0 0 1 3 0v2a1.5 1.5 0 0 1-3 0v-2Zm1.5-.5a.5.5 0 0 0-.5.5v2a.5.5 0 0 0 1 0v-2a.5.5 0 0 0-.5-.5Zm4-1A1.5 1.5 0 0 0 8 11.5v2a1.5 1.5 0 0 0 3 0v-2A1.5 1.5 0 0 0 9.5 10ZM9 11.5a.5.5 0 0 1 1 0v2a.5.5 0 0 1-1 0v-2Z"/></svg>