<svg xmlns="http://www.w3.org/2000/svg" width="24" height="24" viewBox="0 0 24 24"><path d="M2 6.75A2.75 2.75 0 0 1 4.75 4h14.5A2.75 2.75 0 0 1 22 6.75v6.06a6.518 6.518 0 0 0-1.5-1.078V6.75c0-.69-.56-1.25-1.25-1.25H4.75c-.69 0-1.25.56-1.25 1.25v10.5c0 .69.56 1.25 1.25 1.25h6.326c.081.523.224 1.026.422 1.5H4.75A2.75 2.75 0 0 1 2 17.25V6.75ZM23 17.5a5.5 5.5 0 1 0-11 0 5.5 5.5 0 0 0 11 0Zm-5 .5.001 2.503a.5.5 0 1 1-1 0V18h-2.505a.5.5 0 1 1 0-1H17v-2.5a.5.5 0 1 1 1 0V17h2.503a.5.5 0 1 1 0 1h-2.502Z"/></svg>