<svg xmlns="http://www.w3.org/2000/svg" width="24" height="24" viewBox="0 0 24 24"><path d="M8.397 11.235a.75.75 0 0 0-.294-1.471c-.903.18-1.585.812-1.948 1.659-.36.838-.413 1.886-.132 3.008a.75.75 0 1 0 1.455-.363c-.22-.878-.148-1.58.055-2.054.2-.466.518-.71.864-.78ZM5.471 3.419A5.181 5.181 0 0 0 6.89 7.302a5.12 5.12 0 0 0-3.66 4.216 10.46 10.46 0 0 0 1.37 6.796l.35.59a.757.757 0 0 0 .043.063l1.416 1.906a3.462 3.462 0 0 0 5.275.336.437.437 0 0 1 .63 0 3.462 3.462 0 0 0 5.275-.336l1.416-1.907a.743.743 0 0 0 .042-.063l.351-.59a10.46 10.46 0 0 0 1.373-6.795 5.12 5.12 0 0 0-6.11-4.306l-1.901.394h-.003c.03-.78.152-1.62.391-2.338.29-.868.692-1.39 1.14-1.576a.75.75 0 1 0-.578-1.385c-1.052.439-1.65 1.48-1.985 2.486l-.046.142a5.22 5.22 0 0 0-.943-1.29 5.181 5.181 0 0 0-3.98-1.51A1.367 1.367 0 0 0 5.47 3.418Zm1.493.207a3.68 3.68 0 0 1 2.712 1.08 3.68 3.68 0 0 1 1.08 2.712 3.72 3.72 0 0 1-.543-.025l-.617-.128a3.675 3.675 0 0 1-1.552-.927 3.68 3.68 0 0 1-1.08-2.712ZM9.033 8.68l.202.042c.24.068.484.119.73.152l.97.2a5.25 5.25 0 0 0 2.13 0l1.902-.394a3.62 3.62 0 0 1 4.32 3.045 8.96 8.96 0 0 1-1.177 5.821l-.331.557-1.393 1.876a1.962 1.962 0 0 1-2.99.19 1.936 1.936 0 0 0-2.792 0 1.962 1.962 0 0 1-2.99-.19l-1.393-1.876-.331-.557a8.96 8.96 0 0 1-1.176-5.821A3.62 3.62 0 0 1 9.033 8.68Z"/></svg>