<svg xmlns="http://www.w3.org/2000/svg" width="24" height="24"><path d="m21.904 13.202-.192.816a2.75 2.75 0 0 1-2.955 2.107l-1.754-.178A2.75 2.75 0 0 1 14.6 13.83l-.39-1.686a.25.25 0 0 0-.113-.157c-.321-.197-1.033-.32-2.098-.32-.786 0-1.385.067-1.786.189-.14.043-.238.085-.3.116l-.091.048-.014.04-.409 1.77a2.75 2.75 0 0 1-2.401 2.118l-1.746.177A2.75 2.75 0 0 1 2.3 14.03l-.195-.817a3.75 3.75 0 0 1 1.13-3.651C5.134 7.839 8.064 7 12 7c3.942 0 6.875.842 8.775 2.57a3.75 3.75 0 0 1 1.173 3.41l-.045.222Zm-1.427-.514a2.25 2.25 0 0 0-.71-2.009C18.185 9.241 15.604 8.5 12 8.5c-3.598 0-6.177.739-7.76 2.172a2.25 2.25 0 0 0-.677 2.19l.195.818a1.25 1.25 0 0 0 1.342.953l1.746-.178a1.25 1.25 0 0 0 1.091-.962l.423-1.82.043-.136c.375-.998 1.59-1.37 3.597-1.37 1.317 0 2.265.164 2.88.54.401.245.687.642.792 1.1l.39 1.685c.12.522.559.909 1.091.963l1.755.178a1.25 1.25 0 0 0 1.343-.958l.192-.816.033-.171Z"/></svg>