<svg xmlns="http://www.w3.org/2000/svg" width="20" height="20"><path d="M14.59 9.451c.472.473.88 1.045 1.192 1.653a.75.75 0 0 1-1.336.683 5.123 5.123 0 0 0-.917-1.275 4.943 4.943 0 0 0-7.904 1.26.75.75 0 1 1-1.339-.677A6.443 6.443 0 0 1 14.59 9.451Zm-1.635 2.39c.363.363.661.808.87 1.282a.75.75 0 0 1-1.375.602 2.728 2.728 0 0 0-.556-.824 2.63 2.63 0 0 0-3.72 0 2.648 2.648 0 0 0-.547.814.75.75 0 1 1-1.374-.601c.208-.477.497-.91.86-1.273a4.13 4.13 0 0 1 5.842 0Zm-2.034 2.04a1.242 1.242 0 1 1-1.757 1.758 1.242 1.242 0 0 1 1.757-1.757Z"/></svg>