<svg xmlns="http://www.w3.org/2000/svg" width="24" height="24"><path d="M21 7.511a3.247 3.247 0 0 1 1.5 2.739v6c0 2.9-2.35 5.25-5.25 5.25h-9A3.247 3.247 0 0 1 5.511 20H17.25A3.75 3.75 0 0 0 21 16.25V7.511ZM5.25 4h11.5a3.25 3.25 0 0 1 3.245 3.066L20 7.25v8.5a3.25 3.25 0 0 1-3.066 3.245L16.75 19H5.25a3.25 3.25 0 0 1-3.245-3.066L2 15.75v-8.5a3.25 3.25 0 0 1 3.066-3.245L5.25 4ZM18.5 8.899l-7.15 3.765a.75.75 0 0 1-.603.042l-.096-.042L3.5 8.9v6.85a1.75 1.75 0 0 0 1.606 1.744l.144.006h11.5a1.75 1.75 0 0 0 1.744-1.607l.006-.143V8.899ZM16.75 5.5H5.25a1.75 1.75 0 0 0-1.744 1.606l-.004.1L11 11.152l7.5-3.947A1.75 1.75 0 0 0 16.75 5.5Z"/></svg>