<svg xmlns="http://www.w3.org/2000/svg" width="16" height="16" viewBox="0 0 16 16"><path d="M6.5 2A2.5 2.5 0 0 0 4 4.5V8a2.5 2.5 0 0 0 1.021 2.016A5.504 5.504 0 0 1 9 5.207V4.5A2.5 2.5 0 0 0 6.5 2ZM3 8a3.5 3.5 0 0 0 2.042 3.183c.05.401.143.79.274 1.16A4.502 4.502 0 0 1 2 8a.5.5 0 0 1 1 0Zm12 2.5a4.5 4.5 0 1 1-9 0 4.5 4.5 0 0 1 9 0Zm-5.556-2a.5.5 0 0 0-.475.303l-.584 1.364H8a.5.5 0 1 0 0 1h.714a.5.5 0 0 0 .46-.303l.212-.496.643 1.8a.5.5 0 0 0 .935.018l.672-1.673.209.39a.5.5 0 0 0 .44.264H13a.5.5 0 0 0 0-1h-.415l-.573-1.07a.5.5 0 0 0-.905.05l-.58 1.443L9.9 8.832a.5.5 0 0 0-.455-.332Z"/></svg>