<svg xmlns="http://www.w3.org/2000/svg" width="20" height="20" viewBox="0 0 20 20"><path d="M17.854 4.354a.5.5 0 0 0-.708-.708L15.5 5.293l-.646-.647a.5.5 0 0 0-.708.708l1 1a.5.5 0 0 0 .708 0l2-2ZM2.5 5a.5.5 0 0 0 0 1h9a.5.5 0 0 0 0-1h-9Zm0 5a.5.5 0 0 0 0 1h9a.5.5 0 0 0 0-1h-9ZM2 15.5a.5.5 0 0 1 .5-.5h9a.5.5 0 0 1 0 1h-9a.5.5 0 0 1-.5-.5Zm15.854-5.646a.5.5 0 0 0-.708-.708L15.5 10.793l-.646-.647a.5.5 0 0 0-.708.708l1 1a.5.5 0 0 0 .708 0l2-2Zm0 4.292a.5.5 0 0 1 0 .708l-2 2a.5.5 0 0 1-.708 0l-1-1a.5.5 0 0 1 .708-.708l.646.647 1.646-1.647a.5.5 0 0 1 .708 0Z"/></svg>