<svg xmlns="http://www.w3.org/2000/svg" width="16" height="16"><path d="M8 2.5a.5.5 0 0 0-1 0v1a1.49 1.49 0 0 0-.561.354L3.853 6.439a1.5 1.5 0 0 0 0 2.122l2.086 2.085a1.5 1.5 0 0 0 2.122 0l2.585-2.585a1.5 1.5 0 0 0 0-2.122L8.56 3.854A1.494 1.494 0 0 0 8 3.5v-1ZM7 4.707V5.5a.5.5 0 1 0 1 0v-.793l1.939 1.94c.1.099.148.23.146.36A.502.502 0 0 0 10 7H4.707L7 4.707ZM4.707 8h4.586l-1.94 1.94a.5.5 0 0 1-.707 0L4.707 8Zm4.061 3.354a2.5 2.5 0 0 1-3.536 0L3.147 9.268a2.542 2.542 0 0 1-.051-.052A2 2 0 0 0 2 11v1a2 2 0 0 0 2 2h8a2 2 0 0 0 1.977-1.697 2.5 2.5 0 0 1-3.97-2.19l-1.239 1.24ZM12.5 8a.5.5 0 0 0-.388.185l-.002.002-.002.003-.01.012-.034.043a10.074 10.074 0 0 0-.48.665c-.132.198-.27.424-.378.646-.098.203-.206.47-.206.73a1.5 1.5 0 0 0 3 0c0-.26-.108-.527-.206-.73a5.751 5.751 0 0 0-.377-.646 10.33 10.33 0 0 0-.48-.665l-.035-.043-.01-.012-.002-.003-.002-.002A.5.5 0 0 0 12.5 8Zm0 1.339.083.123c.119.18.23.365.31.53.04.082.07.152.087.209.018.056.02.082.02.085a.5.5 0 1 1-1 0c0-.003.002-.029.02-.085.018-.057.046-.127.086-.21a4.816 4.816 0 0 1 .394-.652Z"/></svg>