<svg xmlns="http://www.w3.org/2000/svg" width="16" height="16"><path d="M8.5 1a2.5 2.5 0 0 0 0 5H9a.5.5 0 0 0 0-1h-.5a1.5 1.5 0 1 1 0-3H9a.5.5 0 0 0 0-1h-.5ZM12 1a.5.5 0 0 0 0 1h.5a1.5 1.5 0 0 1 0 3H12a.5.5 0 0 0 0 1h.5a2.5 2.5 0 0 0 0-5H12ZM8 3.5a.5.5 0 0 1 .5-.5h4a.5.5 0 0 1 0 1h-4a.5.5 0 0 1-.5-.5Zm-3 0c0-.537.12-1.045.337-1.5H3.5A2.5 2.5 0 0 0 1 4.5v5A2.5 2.5 0 0 0 3.5 12H4v1.942a.98.98 0 0 0 1.625.738L8.688 12H12.5A2.5 2.5 0 0 0 15 9.5V5.95A3.49 3.49 0 0 1 12.5 7h-4A3.5 3.5 0 0 1 5 3.5Z"/></svg>