<svg xmlns="http://www.w3.org/2000/svg" width="28" height="28" viewBox="0 0 28 28"><path d="M14 9.5a4.5 4.5 0 1 1-9 0 4.5 4.5 0 0 1 9 0Zm1.01 6.515-2.497 2.498a1.75 1.75 0 0 0 0 2.475l1.892 1.892C13.303 23.534 11.735 24 9.5 24 2 24 2 18.75 2 18.75v-.5A2.25 2.25 0 0 1 4.25 16h10.5c.088 0 .175.005.26.015ZM20 14a3.5 3.5 0 1 0 0-7 3.5 3.5 0 0 0 0 7Zm-2.217 2.778a.75.75 0 0 0-1.06-1.06L13.22 19.22a.75.75 0 0 0 0 1.06l3.502 3.503a.75.75 0 0 0 1.06-1.06l-2.22-2.223h8.878l-2.222 2.222a.75.75 0 0 0 1.06 1.061l3.503-3.503a.75.75 0 0 0 0-1.06l-3.502-3.503a.75.75 0 0 0-1.06 1.06L24.438 19H15.56l2.222-2.222Z"/></svg>