<svg xmlns="http://www.w3.org/2000/svg" width="24" height="24" viewBox="0 0 24 24"><path d="M7.486 9.673a1 1 0 0 1-1.973-.33c-.03.19 0-.001 0-.001V9.34l.001-.003.001-.005.002-.013a1.825 1.825 0 0 1 .028-.132A3.288 3.288 0 0 1 6.1 8.024c.504-.671 1.38-1.274 2.751-1.274 1.127 0 2.144.356 2.798 1.188.644.817.775 1.89.587 2.981-.175 1.018-.738 1.647-1.408 2.053-.443.269-.998.466-1.433.62-.124.045-.24.086-.339.124-.528.202-.878.394-1.117.675a1.624 1.624 0 0 0-.316.609h3.628a1 1 0 0 1 0 2H6.5a1 1 0 0 1-1-1c0-1.252.315-2.199.914-2.904.578-.681 1.327-1.02 1.928-1.248.206-.079.386-.144.548-.201.374-.134.647-.231.901-.385.265-.16.413-.331.473-.681.13-.758-.014-1.186-.187-1.406-.162-.206-.504-.425-1.227-.425-.701 0-1 .273-1.152.475a1.288 1.288 0 0 0-.211.436l-.002.012Zm0-.004.002-.01v.006l-.002.004Zm0 .004v-.004.006-.002Zm7.221 2.62a1 1 0 1 0-1.414 1.414l.793.793-.793.793a1 1 0 0 0 1.414 1.414l.793-.793.793.793a1 1 0 1 0 1.414-1.414l-.793-.793.793-.793a1 1 0 0 0-1.414-1.414l-.793.793-.793-.793Z"/></svg>