<svg xmlns="http://www.w3.org/2000/svg" width="48" height="48" viewBox="0 0 48 48"><path d="M32.206 6.025a6.907 6.907 0 1 1 9.768 9.767l-6.45 6.452a13.07 13.07 0 0 0-3.315-.22l7.998-8a4.407 4.407 0 1 0-6.233-6.231L9.805 31.964a3.515 3.515 0 0 0-.917 1.61l-1.904 7.442 7.443-1.902a3.507 3.507 0 0 0 1.611-.918l3.986-3.986a13.15 13.15 0 0 0 .221 3.314l-2.439 2.44a6.006 6.006 0 0 1-2.76 1.572L5.56 43.961a1.25 1.25 0 0 1-1.521-1.521l2.427-9.485a6.007 6.007 0 0 1 1.572-2.758L32.206 6.025ZM33 46c6.075 0 11-4.925 11-11 0-6.076-4.925-11-11-11s-11 4.924-11 11c0 6.075 4.925 11 11 11Zm0-2.5a8.462 8.462 0 0 1-5.062-1.671L39.83 29.938A8.5 8.5 0 0 1 33 43.5Zm5.062-15.33L26.17 40.061a8.5 8.5 0 0 1 11.89-11.89Z"/></svg>