<svg xmlns="http://www.w3.org/2000/svg" width="48" height="48" viewBox="0 0 48 48"><path d="M8.5 12.25a3.75 3.75 0 0 1 3.75-3.75h7.885a1.25 1.25 0 1 0 0-2.5H12.25A6.25 6.25 0 0 0 6 12.25v23.5A6.25 6.25 0 0 0 12.25 42h23.5A6.25 6.25 0 0 0 42 35.75v-7.885a1.25 1.25 0 1 0-2.5 0v7.885a3.75 3.75 0 0 1-3.75 3.75H24V29.25c0-2.9-2.35-5.25-5.25-5.25H8.5V12.25Zm0 14.25h10.25a2.75 2.75 0 0 1 2.75 2.75V39.5h-9.25a3.75 3.75 0 0 1-3.75-3.75V26.5ZM27 7.25c0-.69.56-1.25 1.25-1.25h12.5c.69 0 1.25.56 1.25 1.25v12.5a1.25 1.25 0 1 1-2.5 0v-9.482L29.134 20.634a1.25 1.25 0 0 1-1.768-1.768L37.732 8.5H28.25c-.69 0-1.25-.56-1.25-1.25Z"/></svg>