<svg xmlns="http://www.w3.org/2000/svg" width="48" height="48"><path d="m33.732 35.5 8.134 8.134a1.25 1.25 0 0 0 1.768-1.768l-37.5-37.5a1.25 1.25 0 1 0-1.768 1.768l9.845 9.844A10.932 10.932 0 0 0 13.044 20h-.295a7.75 7.75 0 0 0 0 15.5h20.982Zm-2.5-2.5H12.75a5.25 5.25 0 1 1 0-10.5h1.5c.69 0 1.25-.56 1.25-1.25V21a8.48 8.48 0 0 1 .597-3.135L31.232 33Zm9.268-5.25a5.25 5.25 0 0 1-2.801 4.645l1.822 1.823A7.75 7.75 0 0 0 35.25 20h-.295C34.45 14.393 29.738 10 24 10c-2.45 0-4.713.8-6.541 2.155l1.793 1.793A8.5 8.5 0 0 1 32.5 21v.25c0 .69.56 1.25 1.25 1.25h1.5c2.9 0 5.25 2.35 5.25 5.25Z"/></svg>