<svg xmlns="http://www.w3.org/2000/svg" width="16" height="16"><path d="M10.266 3H9.75l-.102.007A.75.75 0 0 0 9.75 4.5h.516l.153.005a2.239 2.239 0 0 1 1.978 1.568 5.46 5.46 0 0 1 1.6.525A3.741 3.741 0 0 0 10.267 3ZM6.563 9.073a5.46 5.46 0 0 0-.473 1.432h-.338a3.752 3.752 0 0 1-.199-7.5l.2-.005h.497a.75.75 0 0 1 .102 1.493L6.25 4.5h-.498A2.252 2.252 0 0 0 5.598 9l.154.005h.498c.112 0 .218.024.313.068Zm4.017-2.996A5.484 5.484 0 0 0 7.725 7.5H5.75a.75.75 0 0 1-.102-1.493L5.75 6h4.5c.119 0 .23.028.33.077ZM11.5 16a4.5 4.5 0 1 0 0-9 4.5 4.5 0 0 0 0 9Zm1.854-6.354a.5.5 0 0 1 0 .708L12.207 11.5l1.147 1.146a.5.5 0 0 1-.708.708L11.5 12.207l-1.146 1.147a.5.5 0 0 1-.708-.708l1.147-1.146-1.147-1.146a.5.5 0 0 1 .708-.708l1.146 1.147 1.146-1.147a.5.5 0 0 1 .708 0Z"/></svg>