<svg xmlns="http://www.w3.org/2000/svg" width="28" height="28" viewBox="0 0 28 28"><path d="M6 12.5a2.5 2.5 0 1 1 5 0 2.5 2.5 0 0 1-5 0Zm2.5-1a1 1 0 1 0 0 2 1 1 0 0 0 0-2Zm0 5.5a2.5 2.5 0 1 0 0 5 2.5 2.5 0 0 0 0-5Zm-1 2.5a1 1 0 1 1 2 0 1 1 0 0 1-2 0Zm5.5-7.25a.75.75 0 0 1 .75-.75h7.5a.75.75 0 0 1 0 1.5h-7.5a.75.75 0 0 1-.75-.75Zm.75 6.25a.75.75 0 0 0 0 1.5h7.5a.75.75 0 0 0 0-1.5h-7.5ZM6 7.25a.75.75 0 0 1 .75-.75h14.5a.75.75 0 0 1 0 1.5H6.75A.75.75 0 0 1 6 7.25ZM6.75 3A3.75 3.75 0 0 0 3 6.75v14.5A3.75 3.75 0 0 0 6.75 25h14.5A3.75 3.75 0 0 0 25 21.25V6.75A3.75 3.75 0 0 0 21.25 3H6.75ZM4.5 6.75A2.25 2.25 0 0 1 6.75 4.5h14.5a2.25 2.25 0 0 1 2.25 2.25v14.5a2.25 2.25 0 0 1-2.25 2.25H6.75a2.25 2.25 0 0 1-2.25-2.25V6.75Z"/></svg>