<svg xmlns="http://www.w3.org/2000/svg" width="20" height="20" viewBox="0 0 20 20"><path d="M9 2a4 4 0 1 0 0 8 4 4 0 0 0 0-8Zm-4.991 9A2.001 2.001 0 0 0 2 13c0 1.691.833 2.966 2.135 3.797C5.417 17.614 7.145 18 9 18c.41 0 .816-.019 1.21-.057A5.477 5.477 0 0 1 9 14.5c0-1.33.472-2.55 1.257-3.5H4.01ZM10 14.5a4.5 4.5 0 1 0 9 0 4.5 4.5 0 0 0-9 0Zm6.5-3a.5.5 0 0 1 .5.5v1.5a.5.5 0 0 1-.5.5H15a.5.5 0 0 1 0-1h.468a1.999 1.999 0 0 0-2.383.336.5.5 0 0 1-.706-.707A3.001 3.001 0 0 1 16 12.152V12a.5.5 0 0 1 .5-.5Zm-.876 5.532A2.999 2.999 0 0 1 13 16.848V17a.5.5 0 0 1-1 0v-1.5a.5.5 0 0 1 .5-.5H14a.5.5 0 0 1 0 1h-.468a1.999 1.999 0 0 0 2.383-.336.5.5 0 0 1 .706.707c-.284.285-.624.51-.997.66Z"/></svg>