<svg xmlns="http://www.w3.org/2000/svg" width="24" height="24"><path d="M5.5 8a2.5 2.5 0 1 1 5 0 2.5 2.5 0 0 1-5 0ZM8 4a4 4 0 1 0 0 8 4 4 0 0 0 0-8Zm7.5 5a1.5 1.5 0 1 1 3 0 1.5 1.5 0 0 1-3 0ZM17 6a3 3 0 1 0 0 6 3 3 0 0 0 0-6Zm-2.752 13.038c.703.285 1.604.462 2.753.462 2.282 0 3.586-.697 4.297-1.558.345-.418.52-.84.61-1.163a2.728 2.728 0 0 0 .093-.573v-.027A2.179 2.179 0 0 0 19.822 14H14.18c-.028 0-.055 0-.082.002.394.41.68.925.816 1.498h4.908c.372 0 .674.299.679.669a1.236 1.236 0 0 1-.04.212 1.6 1.6 0 0 1-.32.605c-.35.426-1.172 1.014-3.14 1.014-.98 0-1.676-.146-2.17-.345-.108.4-.286.883-.583 1.383ZM4.25 14A2.25 2.25 0 0 0 2 16.25v.278a2.073 2.073 0 0 0 .014.208 4.487 4.487 0 0 0 .778 2.07C3.61 19.974 5.172 21 8 21c2.828 0 4.39-1.025 5.208-2.195a4.484 4.484 0 0 0 .778-2.07 2.992 2.992 0 0 0 .014-.207v-.278A2.25 2.25 0 0 0 11.75 14h-7.5Zm-.75 2.507v-.257a.75.75 0 0 1 .75-.75h7.5a.75.75 0 0 1 .75.75v.257l-.007.08a2.986 2.986 0 0 1-.514 1.358C11.486 18.65 10.422 19.5 8 19.5s-3.486-.85-3.98-1.555a2.986 2.986 0 0 1-.513-1.358 1.527 1.527 0 0 1-.007-.08Z"/></svg>