<svg xmlns="http://www.w3.org/2000/svg" width="16" height="16"><path d="M8.999 7a2.5 2.5 0 0 0-2.5 2.5v.5H5.5a1.5 1.5 0 0 0 0 3h7a1.5 1.5 0 0 0 0-3h-1l-.001-.5a2.5 2.5 0 0 0-2.5-2.5ZM5.535 9a3.5 3.5 0 0 1 6.928 0h.037a2.5 2.5 0 0 1 0 5h-7a2.5 2.5 0 0 1 0-5h.035Zm3.252-6.18a.5.5 0 1 0-.883-.47l-.426.803a.5.5 0 0 0 .883.47l.426-.804Zm-3.772-.747a.5.5 0 1 0-.957.293l.267.87a.5.5 0 0 0 .956-.293l-.266-.87ZM6 4c.916 0 1.735.41 2.285 1.056a4.439 4.439 0 0 0-1.107.328A2 2 0 0 0 4.386 8.18a3.489 3.489 0 0 0-.9.456A3 3 0 0 1 6 4Zm-4.18.214a.5.5 0 1 0-.47.883l.803.426a.5.5 0 0 0 .47-.883l-.804-.426Zm.416 4.463a.5.5 0 0 0-.293-.956l-.87.266a.5.5 0 1 0 .293.956l.87-.266Z"/></svg>