<svg xmlns="http://www.w3.org/2000/svg" width="48" height="48" viewBox="0 0 48 48"><path d="m24.629 6.17 14.762 8.593A5.25 5.25 0 0 1 42 19.3v15.45A4.25 4.25 0 0 1 37.75 39h-27.5A4.25 4.25 0 0 1 6 34.75V19.3a5.25 5.25 0 0 1 2.609-4.537L23.37 6.17a1.25 1.25 0 0 1 1.258 0ZM39.5 20.232l-14.874 8.6a1.25 1.25 0 0 1-1.12.066l-.132-.066L8.5 20.233V34.75c0 .967.784 1.75 1.75 1.75h27.5a1.75 1.75 0 0 0 1.75-1.75V20.232ZM24 8.696 9.867 16.923a2.75 2.75 0 0 0-.824.736L24 26.306l14.957-8.647a2.747 2.747 0 0 0-.824-.736L24 8.696Z"/></svg>