<svg xmlns="http://www.w3.org/2000/svg" width="16" height="16" viewBox="0 0 16 16"><path d="M12 1.5a.5.5 0 0 1 1 0V4h2.5a.5.5 0 0 1 0 1H13v2.5a.5.5 0 0 1-1 0V5H9.5a.5.5 0 0 1 0-1H12V1.5Zm-7.235.956C3.41 2.87 2.523 4.002 2.714 5.258a12.432 12.432 0 0 0 1.554 4.385 12.732 12.732 0 0 0 3.024 3.529c.992.797 2.418.6 3.455-.368a.981.981 0 0 0 .089-1.34l-.792-.962a1 1 0 0 0-1.072-.318l-1.673.526a.5.5 0 0 1-.482-.103l-.04-.036a7.342 7.342 0 0 1-.42-.432 7.203 7.203 0 0 1-.876-1.194 7.265 7.265 0 0 1-.76-1.936l-.012-.052a.501.501 0 0 1 .152-.47l1.292-1.185a1 1 0 0 0 .26-1.088l-.434-1.16a.988.988 0 0 0-1.214-.598ZM6.83 6.039l-1.072.984a6.619 6.619 0 0 0 .59 1.422 6.267 6.267 0 0 0 .936 1.222l1.389-.437a2 2 0 0 1 2.144.636l.792.962a1.981 1.981 0 0 1-.179 2.708c-1.29 1.202-3.276 1.61-4.764.415a13.73 13.73 0 0 1-3.262-3.805 13.432 13.432 0 0 1-1.678-4.738C1.439 3.523 2.79 2.014 4.473 1.5a1.988 1.988 0 0 1 2.443 1.203l.434 1.16a2 2 0 0 1-.52 2.176Z"/></svg>