<svg xmlns="http://www.w3.org/2000/svg" width="48" height="48" viewBox="0 0 48 48"><path d="M7 24c0-9.389 7.611-17 17-17s17 7.611 17 17c0 5.136-2.635 7.012-4.516 7.031C34.64 31.051 32 29.276 32 24v-8.5a1.5 1.5 0 0 0-3 0v1.04C27.432 14.973 25.35 14 23 14c-5.142 0-9 4.66-9 10s3.858 10 9 10c3.057 0 5.66-1.647 7.27-4.106 1.347 2.66 3.64 4.164 6.246 4.137C40.635 33.988 44 30.115 44 24c0-11.046-8.954-20-20-20S4 12.954 4 24s8.954 20 20 20c2.47 0 4.839-.449 7.027-1.27a1.5 1.5 0 1 0-1.054-2.808A16.96 16.96 0 0 1 24 41c-9.389 0-17-7.611-17-17Zm22 0c0 4.048-2.857 7-6 7s-6-2.952-6-7 2.857-7 6-7 6 2.952 6 7Z"/></svg>