<svg xmlns="http://www.w3.org/2000/svg" width="20" height="20" viewBox="0 0 20 20"><path d="M5.703 8.748a.75.75 0 0 0 .799-.701 1.027 1.027 0 0 1 .148-.388c.109-.168.338-.409.952-.409.58 0 .861.186 1.003.38.158.216.266.61.157 1.243a.78.78 0 0 1-.402.597c-.204.126-.423.206-.719.314-.127.047-.269.099-.43.162-.474.185-1.057.456-1.504.997-.461.558-.704 1.308-.704 2.307a.75.75 0 0 0 .75.75H9.5a.75.75 0 0 0 0-1.5H6.58c.069-.285.175-.47.283-.6.195-.238.478-.395.894-.557a12.6 12.6 0 0 1 .27-.101c.343-.125.776-.282 1.123-.497.523-.324.954-.82 1.09-1.618.15-.867.057-1.723-.424-2.382-.497-.68-1.294-.995-2.214-.995-1.135 0-1.831.51-2.21 1.091a2.527 2.527 0 0 0-.386 1.09l-.001.011v.006c0 .003-.01.143 0 .002a.75.75 0 0 0 .698.798Zm6.578 1.472a.75.75 0 1 0-1.06 1.06l.72.72-.72.72a.75.75 0 0 0 1.06 1.06l.72-.72.719.72a.75.75 0 1 0 1.06-1.06l-.72-.72.72-.72a.75.75 0 0 0-1.06-1.06l-.72.72-.719-.72Z"/></svg>