<svg xmlns="http://www.w3.org/2000/svg" width="24" height="24"><path d="M18.75 20H5.25a3.25 3.25 0 0 1-3.245-3.066L2 16.75V6.25a2.25 2.25 0 0 1 2.096-2.245L4.25 4h12.5a2.25 2.25 0 0 1 2.245 2.096L19 6.25V7h.75a2.25 2.25 0 0 1 2.245 2.096L22 9.25v7.5a3.25 3.25 0 0 1-3.066 3.245L18.75 20H5.25h13.5Zm-13.5-1.5h13.5a1.75 1.75 0 0 0 1.744-1.607l.006-.143v-7.5a.75.75 0 0 0-.648-.743L19.75 8.5H19v7.75a.75.75 0 0 1-.648.743L18.25 17a.75.75 0 0 1-.743-.648l-.007-.102v-10a.75.75 0 0 0-.648-.743L16.75 5.5H4.25a.75.75 0 0 0-.743.648L3.5 6.25v10.5a1.75 1.75 0 0 0 1.606 1.744l.144.006h13.5-13.5Zm6.996-4h3.006a.75.75 0 0 1 .102 1.493l-.102.007h-3.006a.75.75 0 0 1-.102-1.493l.102-.007h3.006-3.006Zm-3.003-3.495a.75.75 0 0 1 .75.75v3.495a.75.75 0 0 1-.75.75H5.748a.75.75 0 0 1-.75-.75v-3.495a.75.75 0 0 1 .75-.75h3.495Zm-.75 1.5H6.498V14.5h1.995v-1.995Zm3.753-1.5h3.006a.75.75 0 0 1 .102 1.493l-.102.007h-3.006a.75.75 0 0 1-.102-1.494l.102-.006h3.006-3.006ZM5.748 7.502h9.504a.75.75 0 0 1 .102 1.494l-.102.006H5.748a.75.75 0 0 1-.102-1.493l.102-.007h9.504-9.504Z"/></svg>