<svg xmlns="http://www.w3.org/2000/svg" width="24" height="24" viewBox="0 0 24 24"><path d="M17.5 12a5.5 5.5 0 1 0 0-11 5.5 5.5 0 0 0 0 11Zm-1.646-7.146L14.207 6.5l1.647 1.646a.5.5 0 0 1-.708.708l-2-2a.5.5 0 0 1 0-.708l2-2a.5.5 0 0 1 .708.708Zm3-.708a.5.5 0 0 1 0 .708L17.707 6H20a1.5 1.5 0 0 1 1.5 1.5V8a.5.5 0 0 1-1 0v-.5A.5.5 0 0 0 20 7h-2.293l1.147 1.146a.5.5 0 0 1-.708.708l-2-2a.5.5 0 0 1 0-.708l2-2a.5.5 0 0 1 .708 0ZM20.5 16.75v-4.482A6.518 6.518 0 0 0 22 11.19v5.56a3.25 3.25 0 0 1-3.066 3.245L18.75 20H5.25a3.25 3.25 0 0 1-3.245-3.066L2 16.75v-9.5a3.25 3.25 0 0 1 3.066-3.245L5.25 4h6.248a6.451 6.451 0 0 0-.422 1.5H5.25a1.75 1.75 0 0 0-1.744 1.606L3.5 7.25v.429l8.5 4.473 1.305-.687c.439.371.927.685 1.454.93l-2.41 1.269a.75.75 0 0 1-.602.042l-.096-.042L3.5 9.374v7.376a1.75 1.75 0 0 0 1.606 1.744l.144.006h13.5a1.75 1.75 0 0 0 1.744-1.607l.006-.143Z"/></svg>