<svg xmlns="http://www.w3.org/2000/svg" width="20" height="20" viewBox="0 0 20 20"><path d="M8.998 2.388a1.5 1.5 0 0 1 2.005 0l5.5 4.942A1.5 1.5 0 0 1 17 8.445v.956a2.98 2.98 0 0 0-1-.36v-.596a.5.5 0 0 0-.166-.371l-5.5-4.942a.5.5 0 0 0-.668 0l-5.5 4.942A.5.5 0 0 0 4 8.445V15.5a.5.5 0 0 0 .5.5H7a.5.5 0 0 0 .5-.5V12A1.5 1.5 0 0 1 9 10.5h2a1.5 1.5 0 0 1 1.5 1.5v2.207a2.51 2.51 0 0 0-1 .792v-3a.5.5 0 0 0-.5-.5H9a.5.5 0 0 0-.5.5v3.5A1.5 1.5 0 0 1 7 17H4.5A1.5 1.5 0 0 1 3 15.5V8.446c0-.425.18-.83.498-1.115l5.5-4.942ZM17.5 12a2 2 0 1 1-4 0 2 2 0 0 1 4 0Zm1.5 4.5c0 1.246-1 2.5-3.5 2.5S12 17.75 12 16.5a1.5 1.5 0 0 1 1.5-1.5h4a1.5 1.5 0 0 1 1.5 1.5Z"/></svg>