<svg xmlns="http://www.w3.org/2000/svg" width="24" height="24" viewBox="0 0 24 24"><path d="M13.209 3.102c-.495-1.003-1.926-1.003-2.421 0L8.43 7.88l-5.273.766c-1.107.16-1.55 1.522-.748 2.303l3.815 3.719-.9 5.25c-.19 1.104.968 1.945 1.959 1.424l2.942-1.547.304-1.218c.162-.648.496-1.24.968-1.712l5.896-5.903a3.282 3.282 0 0 1 4.381-.237c.53-.792.073-1.933-.934-2.079l-5.273-.766-2.358-4.778ZM18.1 11.67l-5.896 5.902a2.686 2.686 0 0 0-.706 1.248l-.457 1.83a1.086 1.086 0 0 0 1.317 1.319l1.829-.458a2.682 2.682 0 0 0 1.246-.706l5.896-5.903a2.287 2.287 0 0 0 0-3.232 2.281 2.281 0 0 0-3.229 0Z"/></svg>