<svg xmlns="http://www.w3.org/2000/svg" width="48" height="48"><path d="M16 12V8.25A4.25 4.25 0 0 1 20.25 4h7.5A4.25 4.25 0 0 1 32 8.25V12h3.75A6.25 6.25 0 0 1 42 18.25v15.5A6.25 6.25 0 0 1 35.75 40h-23.5A6.25 6.25 0 0 1 6 33.75v-15.5A6.25 6.25 0 0 1 12.25 12H16Zm2.5-3.75V12h11V8.25a1.75 1.75 0 0 0-1.75-1.75h-7.5a1.75 1.75 0 0 0-1.75 1.75Zm21 10a3.75 3.75 0 0 0-3.75-3.75h-23.5a3.75 3.75 0 0 0-3.75 3.75v3.5a3.75 3.75 0 0 0 3.75 3.75H20V25a2 2 0 0 1 2-2h4a2 2 0 0 1 2 2v.5h7.75a3.75 3.75 0 0 0 3.75-3.75v-3.5ZM12.25 28a6.222 6.222 0 0 1-3.75-1.25v7a3.75 3.75 0 0 0 3.75 3.75h23.5a3.75 3.75 0 0 0 3.75-3.75v-7A6.222 6.222 0 0 1 35.75 28H28v1a2 2 0 0 1-2 2h-4a2 2 0 0 1-2-2v-1h-7.75Z"/></svg>