<svg xmlns="http://www.w3.org/2000/svg" width="24" height="24"><path d="M6.5 8.25a.75.75 0 0 1 .75-.75h2.5a.75.75 0 0 1 .75.75v2.5a.75.75 0 0 1-.75.75h-.5v2.69l1.56 1.56h2.69v-.5a.75.75 0 0 1 .75-.75h2.5a.75.75 0 0 1 .75.75v2.5a.75.75 0 0 1-.75.75h-2.5a.75.75 0 0 1-.75-.75v-.5h-2.69l-1.78 1.78a.75.75 0 0 1-1.06 0l-2-2a.75.75 0 0 1 0-1.06l1.78-1.78V11.5h-.5a.75.75 0 0 1-.75-.75v-2.5Zm12.914.164-5.829-5.828a.491.491 0 0 0-.049-.04.63.63 0 0 1-.036-.03 2.072 2.072 0 0 0-.219-.18.652.652 0 0 0-.08-.044l-.048-.024-.05-.029c-.054-.031-.109-.063-.166-.087a1.977 1.977 0 0 0-.624-.138.56.56 0 0 1-.059-.007.605.605 0 0 0-.082-.007H6a2 2 0 0 0-2 2v16a2 2 0 0 0 2 2h12a2 2 0 0 0 2-2V9.828a2 2 0 0 0-.586-1.414ZM18.5 20a.5.5 0 0 1-.5.5H6a.5.5 0 0 1-.5-.5V4a.5.5 0 0 1 .5-.5h6V8a2 2 0 0 0 2 2h4.5v10Zm-5-15.379L17.378 8.5H14a.5.5 0 0 1-.5-.5V4.621Z"/></svg>