<svg xmlns="http://www.w3.org/2000/svg" width="32" height="32"><path d="M13.81 2.17a14.098 14.098 0 0 1 4.38 0 1 1 0 0 1-.31 1.976 12.098 12.098 0 0 0-3.76 0 1 1 0 1 1-.31-1.976ZM3.313 12.978a1 1 0 0 1 .833 1.143 12.098 12.098 0 0 0 0 3.758 1 1 0 1 1-1.976.31 14.098 14.098 0 0 1 0-4.379 1 1 0 0 1 1.143-.832Zm25.373 0a1 1 0 0 1 1.144.832 14.099 14.099 0 0 1 0 4.38 1 1 0 1 1-1.976-.31 12.1 12.1 0 0 0 0-3.76 1 1 0 0 1 .832-1.142ZM12.979 28.686a1 1 0 0 1 1.143-.832 12.1 12.1 0 0 0 3.758 0 1 1 0 1 1 .31 1.976 14.099 14.099 0 0 1-4.379 0 1 1 0 0 1-.832-1.143ZM24.23 4.673a14.1 14.1 0 0 1 3.096 3.096 1 1 0 0 1-1.616 1.178 12.101 12.101 0 0 0-2.658-2.658 1 1 0 1 1 1.178-1.616Zm-15.065.22a1 1 0 0 1-.22 1.396A12.096 12.096 0 0 0 6.29 8.947a1 1 0 1 1-1.616-1.178A14.096 14.096 0 0 1 7.77 4.673a1 1 0 0 1 1.397.22Zm17.942 17.94a1 1 0 0 1 .22 1.398 14.095 14.095 0 0 1-3.097 3.096 1 1 0 1 1-1.178-1.616 12.109 12.109 0 0 0 2.658-2.658 1 1 0 0 1 1.397-.22Zm-22.216 0a1 1 0 0 1 1.397.22 12.104 12.104 0 0 0 2.658 2.658 1 1 0 1 1-1.178 1.616 14.091 14.091 0 0 1-3.096-3.096 1 1 0 0 1 .22-1.397ZM18.11 12.607a1.627 1.627 0 0 1 2.533 2.042l-4.64 5.755-4.641-5.755a1.627 1.627 0 1 1 2.532-2.042l1.33 1.649a1 1 0 0 0 1.557 0l1.33-1.65Zm4.09-1.256a3.627 3.627 0 0 0-5.646 0l-.551.684-.552-.684a3.627 3.627 0 0 0-5.646 4.553l5.419 6.72a1 1 0 0 0 1.557 0l5.419-6.72a3.627 3.627 0 0 0 0-4.553Z"/></svg>