<svg xmlns="http://www.w3.org/2000/svg" width="28" height="28" viewBox="0 0 28 28"><path d="M22.74 6.327a5.501 5.501 0 0 1-.495 7.212L20.3 15.483a.75.75 0 0 1-1.06 0l-6.718-6.717a.75.75 0 0 1 0-1.06l1.945-1.945a5.501 5.501 0 0 1 7.212-.495l3.044-3.044a.75.75 0 0 1 1.061 1.06L22.74 6.327Zm-2.97 7.566 1.414-1.415a4 4 0 1 0-5.657-5.657l-1.414 1.415 5.657 5.656Zm-6.993-2.678a.75.75 0 0 1 0 1.06l-2.126 2.127 2.947 2.947 2.125-2.126a.75.75 0 0 1 1.06 1.061l-2.125 2.126.827.826a.75.75 0 0 1 0 1.061l-1.944 1.945a5.501 5.501 0 0 1-7.212.494l-3.045 3.045a.75.75 0 0 1-1.06-1.06l3.044-3.046a5.501 5.501 0 0 1 .495-7.212l1.944-1.944a.75.75 0 0 1 1.06 0l.823.822 2.127-2.126a.75.75 0 0 1 1.06 0ZM6.83 21.188a4 4 0 0 0 5.65-.007l1.414-1.414-5.657-5.657-1.414 1.414a4 4 0 0 0-.006 5.65l.006.007.007.006Z"/></svg>