<svg xmlns="http://www.w3.org/2000/svg" width="20" height="20"><path d="M3.25 5a.25.25 0 0 0-.25.25v.25a.5.5 0 0 1-1 0v-.25C2 4.56 2.56 4 3.25 4h.25a.5.5 0 0 1 0 1h-.25ZM5 4.5a.5.5 0 0 1 .5-.5h1a.5.5 0 0 1 0 1h-1a.5.5 0 0 1-.5-.5Zm3 0a.5.5 0 0 1 .5-.5h.25C9.44 4 10 4.56 10 5.25v.25a.5.5 0 0 1-1 0v-.25A.25.25 0 0 0 8.75 5H8.5a.5.5 0 0 1-.5-.5Zm6.854 1.354-.153.152A3.5 3.5 0 0 1 14.5 13a.5.5 0 0 1 0-1 2.5 2.5 0 0 0 .216-4.99l.138.136a.5.5 0 0 1-.708.708l-1-1a.5.5 0 0 1 0-.708l1-1a.5.5 0 0 1 .708.708ZM3.5 9A1.5 1.5 0 0 0 2 10.5v4A1.5 1.5 0 0 0 3.5 16h8a1.5 1.5 0 0 0 1.5-1.5v-4A1.5 1.5 0 0 0 11.5 9h-2a.5.5 0 0 0 .5-.5v-1a.5.5 0 0 0-1 0v1a.5.5 0 0 0 .5.5h-6ZM3 7.5a.5.5 0 0 0-1 0v1a.5.5 0 0 0 1 0v-1Z"/></svg>