<svg xmlns="http://www.w3.org/2000/svg" width="24" height="24" viewBox="0 0 24 24"><path d="M7.75 8A2.75 2.75 0 0 0 5 10.75v2.5A2.75 2.75 0 0 0 7.75 16h.5a.75.75 0 0 0 0-1.5h-.5c-.69 0-1.25-.56-1.25-1.25v-2.5c0-.69.56-1.25 1.25-1.25h.5a.75.75 0 0 0 0-1.5h-.5Zm3.75.75a.75.75 0 0 0-1.5 0V11h-.25a.75.75 0 0 0 0 1.5H10V14a2 2 0 0 0 2 2h.25a.75.75 0 0 0 0-1.5H12a.5.5 0 0 1-.5-.5v-1.5h.75a.75.75 0 0 0 0-1.5h-.75V8.75Zm8 0a.75.75 0 0 0-1.5 0v6.5a.75.75 0 0 0 1.5 0v-6.5Zm-4 4.25a.5.5 0 0 1 .5-.5h.25a.75.75 0 0 0 0-1.5H16a2 2 0 0 0-2 2v2.25a.75.75 0 0 0 1.5 0V13ZM5.25 4A3.25 3.25 0 0 0 2 7.25v9.5A3.25 3.25 0 0 0 5.25 20h13.5A3.25 3.25 0 0 0 22 16.75v-9.5A3.25 3.25 0 0 0 18.75 4H5.25ZM3.5 7.25c0-.966.784-1.75 1.75-1.75h13.5c.966 0 1.75.784 1.75 1.75v9.5a1.75 1.75 0 0 1-1.75 1.75H5.25a1.75 1.75 0 0 1-1.75-1.75v-9.5Z"/></svg>