<svg xmlns="http://www.w3.org/2000/svg" width="24" height="24" viewBox="0 0 24 24"><path d="M4.499 18.75a1.25 1.25 0 1 0-2.499 0 1.25 1.25 0 0 0 2.499 0Zm7.52-.75H6.75l-.102.007A.75.75 0 0 0 6.75 19.5h5.564a6.465 6.465 0 0 1-.295-1.5Zm1.79-5H6.75a.75.75 0 0 1-.102-1.493l.102-.007h9.244A6.51 6.51 0 0 0 13.81 13Zm-9.31-.75a1.25 1.25 0 1 0-2.499 0 1.25 1.25 0 0 0 2.499 0Zm0-6.5A1.25 1.25 0 1 0 2 5.75a1.25 1.25 0 0 0 2.499 0ZM21.25 5H6.75l-.102.007A.75.75 0 0 0 6.75 6.5h14.5l.102-.007A.75.75 0 0 0 21.25 5ZM24 17.5a5.5 5.5 0 1 0-11 0 5.5 5.5 0 0 0 11 0Zm-5 .5.001 2.503a.5.5 0 1 1-1 0V18h-2.505a.5.5 0 0 1 0-1H18v-2.501a.5.5 0 1 1 1 0v2.5h2.497a.5.5 0 0 1 0 1H19Z"/></svg>