<svg xmlns="http://www.w3.org/2000/svg" width="20" height="20" viewBox="0 0 20 20"><path d="M11.996 3.006c0-.873-1.04-1.327-1.68-.733L6.444 5.866a.5.5 0 0 1-.34.134H3.496a1.5 1.5 0 0 0-1.5 1.5v5a1.5 1.5 0 0 0 1.5 1.5h2.608a.5.5 0 0 1 .34.133l3.872 3.594c.64.593 1.68.14 1.68-.733V3.006ZM7.124 6.599l3.872-3.593v13.988L7.124 13.4a1.5 1.5 0 0 0-1.02-.4H3.496a.5.5 0 0 1-.5-.5v-5a.5.5 0 0 1 .5-.5h2.608a1.5 1.5 0 0 0 1.02-.4Zm8.132-1.972a.5.5 0 0 1 .706.04 8 8 0 0 1 0 10.666.5.5 0 0 1-.745-.667 7 7 0 0 0 0-9.333.5.5 0 0 1 .039-.706Zm-1.176 8.306a.5.5 0 0 1-.183-.683 4.498 4.498 0 0 0 0-4.5.5.5 0 1 1 .865-.5 5.498 5.498 0 0 1 .001 5.5.5.5 0 0 1-.683.183Z"/></svg>