<svg xmlns="http://www.w3.org/2000/svg" width="24" height="24"><path d="M9.5 21h2.522a6.52 6.52 0 0 1-.848-5H9.5v5ZM21 9.5v2.522a6.52 6.52 0 0 0-5-.848V9.5h5Zm-6.5 0v2.232a6.53 6.53 0 0 0-2.768 2.768H9.5v-5h5ZM21 8V6.25A3.25 3.25 0 0 0 17.75 3H16v5h5Zm-6.5-5h-5v5h5V3ZM8 3H6.25A3.25 3.25 0 0 0 3 6.25V8h5V3ZM3 9.5v5h5v-5H3ZM3 16v1.75A3.25 3.25 0 0 0 6.25 21H8v-5H3Zm11.278-2.025a2 2 0 0 1-1.441 2.497l-.584.144a5.729 5.729 0 0 0 .006 1.807l.54.13a2 2 0 0 1 1.45 2.51l-.187.632c.44.386.94.699 1.484.921l.494-.518a2 2 0 0 1 2.899 0l.498.525a5.281 5.281 0 0 0 1.483-.913l-.198-.686a2 2 0 0 1 1.441-2.496l.584-.144a5.716 5.716 0 0 0-.006-1.808l-.54-.13a2 2 0 0 1-1.45-2.51l.187-.63a5.278 5.278 0 0 0-1.484-.923l-.493.519a2 2 0 0 1-2.9 0l-.498-.525c-.544.22-1.044.53-1.483.912l.198.686ZM17.5 19c-.8 0-1.45-.672-1.45-1.5 0-.829.65-1.5 1.45-1.5.8 0 1.45.671 1.45 1.5 0 .828-.65 1.5-1.45 1.5Z"/></svg>