<svg xmlns="http://www.w3.org/2000/svg" width="20" height="20"><path d="M14.5 7a2.5 2.5 0 1 0 0-5 2.5 2.5 0 0 0 0 5Zm-3.163-4H4.5A2.5 2.5 0 0 0 2 5.5v7A2.5 2.5 0 0 0 4.5 15h9a2.5 2.5 0 0 0 2.5-2.5V7.663c-.31.148-.647.251-1 .302V12.5a1.5 1.5 0 0 1-1.5 1.5h-9A1.5 1.5 0 0 1 3 12.5V6.963l5.746 2.968.082.038a.5.5 0 0 0 .426-.038l4.104-2.121a3.494 3.494 0 0 1-1.071-.599L9 8.92 3 5.802V5.5A1.5 1.5 0 0 1 4.5 4h6.535c.05-.353.154-.69.302-1ZM6.5 17a2.496 2.496 0 0 1-2-1h9a3.5 3.5 0 0 0 3.5-3.5v-5c.607.456 1 1.182 1 2v3a4.5 4.5 0 0 1-4.5 4.5h-7Z"/></svg>