<svg xmlns="http://www.w3.org/2000/svg" width="20" height="20" viewBox="0 0 20 20"><path d="M15.848 1.143a.492.492 0 0 0-.702.001.508.508 0 0 0 .008.712 6.571 6.571 0 0 1 1.855 5.567.508.508 0 0 0 .42.574.492.492 0 0 0 .563-.42 7.594 7.594 0 0 0-2.144-6.434ZM4.626 3.033a1.6 1.6 0 0 1 3.042-.626 1.6 1.6 0 0 1 2.588.699l.088.27a1.6 1.6 0 0 1 2.546.734l1.066 3.23.584 1.704a8.5 8.5 0 0 1 .38 3.9l-.27 1.988a2.5 2.5 0 0 1-1.513 1.97l-2.158.901c-.972.406-2.068.148-2.804-.557-3.11-2.982-5.879-3.97-6.64-4.199-.358-.108-.664-.52-.474-.972.15-.356.51-.98 1.281-1.321.593-.263 1.361-.33 2.35-.068L2.765 5.101a1.613 1.613 0 0 1 1.027-2.028c.28-.091.566-.1.833-.04Zm2.151 3.645.555 1.679a.5.5 0 1 1-.95.314l-.568-1.72-.952-2.519-.004-.01a.607.607 0 0 0-.756-.398.613.613 0 0 0-.386.764l2.257 6.548a.5.5 0 0 1-.67.622c-1.332-.57-2.113-.486-2.556-.29-.294.13-.49.333-.616.52 1.134.388 3.8 1.522 6.736 4.336.474.454 1.153.596 1.727.357l2.157-.902a1.5 1.5 0 0 0 .908-1.181l.27-1.988a7.5 7.5 0 0 0-.335-3.442l-.585-1.707-.002-.005-1.067-3.234V4.42a.6.6 0 0 0-1.162.29l.855 2.633a.5.5 0 0 1-.95.312l-.005.001L9.847 5.1a1.626 1.626 0 0 1-.036-.13l-.506-1.554a.6.6 0 0 0-1.141.37l.603 1.856c.012.037.02.075.023.112l.527 1.592a.5.5 0 1 1-.95.314L6.794 2.91a.6.6 0 0 0-1.139.378l1.102 3.33.023.06-.003.001Zm7.467-3.608a.5.5 0 0 1 .686.173l.296.495c.498.834.766 1.785.775 2.757a.5.5 0 1 1-1 .009 4.471 4.471 0 0 0-.633-2.253l-.296-.495a.5.5 0 0 1 .172-.686Z"/></svg>