<svg xmlns="http://www.w3.org/2000/svg" width="16" height="16" viewBox="0 0 16 16"><path d="M1.001 3a2 2 0 0 1 2-2h4a2 2 0 0 1 2 2v3a2 2 0 0 1-2 2h-4a2 2 0 0 1-2-2V3Zm5.5 2h-3a.5.5 0 0 0 0 1h3a.5.5 0 0 0 0-1Zm-3-2a.5.5 0 0 0 0 1h3a.5.5 0 0 0 0-1h-3ZM3 12.5V9h1v3.5c0 .232.052.45.146.647l3.652-3.652a1.7 1.7 0 0 1 2.404 0l3.652 3.652A1.49 1.49 0 0 0 14 12.5v-7A1.5 1.5 0 0 0 12.5 4H10V3h2.5A2.5 2.5 0 0 1 15 5.5v7a2.5 2.5 0 0 1-2.5 2.5h-7A2.5 2.5 0 0 1 3 12.5Zm10.147 1.354-3.652-3.652a.7.7 0 0 0-.99 0l-3.652 3.652c.196.094.415.146.647.146h7c.232 0 .45-.053.647-.146ZM12.5 6.502a1.002 1.002 0 1 1-2.004 0 1.002 1.002 0 0 1 2.004 0Z"/></svg>