<svg xmlns="http://www.w3.org/2000/svg" width="16" height="16" viewBox="0 0 16 16"><path d="M1 3.5A1.5 1.5 0 0 1 2.5 2h11A1.5 1.5 0 0 1 15 3.5v3A1.5 1.5 0 0 1 13.5 8h-11A1.5 1.5 0 0 1 1 6.5v-3ZM2.5 3a.5.5 0 0 0-.5.5v3a.5.5 0 0 0 .5.5h11a.5.5 0 0 0 .5-.5v-3a.5.5 0 0 0-.5-.5h-11ZM1 11.5A1.5 1.5 0 0 1 2.5 10h3A1.5 1.5 0 0 1 7 11.5v1A1.5 1.5 0 0 1 5.5 14h-3A1.5 1.5 0 0 1 1 12.5v-1Zm1.5-.5a.5.5 0 0 0-.5.5v1a.5.5 0 0 0 .5.5h3a.5.5 0 0 0 .5-.5v-1a.5.5 0 0 0-.5-.5h-3Zm8-1A1.5 1.5 0 0 0 9 11.5v1a1.5 1.5 0 0 0 1.5 1.5h3a1.5 1.5 0 0 0 1.5-1.5v-1a1.5 1.5 0 0 0-1.5-1.5h-3Zm-.5 1.5a.5.5 0 0 1 .5-.5h3a.5.5 0 0 1 .5.5v1a.5.5 0 0 1-.5.5h-3a.5.5 0 0 1-.5-.5v-1Z"/></svg>