<svg xmlns="http://www.w3.org/2000/svg" width="24" height="24"><path d="M15.5 2.05A6.554 6.554 0 0 0 8.95 8.6c0 .387.05.76.11 1.104a.275.275 0 0 1-.07.244l-6.235 6.236a2.75 2.75 0 0 0-.806 1.944V20.3c0 .966.784 1.75 1.75 1.75h2.5a1.75 1.75 0 0 0 1.75-1.75v-1.25H9.7c.69 0 1.25-.56 1.25-1.25v-1.75h.331c.103-.159.23-.3.378-.417l-1.645-1.646a1.75 1.75 0 0 1 0-2.474l2-2A1.75 1.75 0 0 1 14.983 11H17a6 6 0 0 1 3.795 1.352A6.517 6.517 0 0 0 22.049 8.5c0-3.631-2.953-6.45-6.55-6.45Zm1.5 3.7a1.25 1.25 0 1 1 0 2.5 1.25 1.25 0 0 1 0-2.5Zm-3.22 5.53a.75.75 0 1 0-1.06-1.06l-2 2a.75.75 0 0 0 0 1.06l2 2a.75.75 0 1 0 1.06-1.06l-.72-.72H17a3.5 3.5 0 1 1-3.5 3.5.75.75 0 0 0-1.5 0 5 5 0 1 0 5-5h-3.94l.72-.72Z"/></svg>