<svg xmlns="http://www.w3.org/2000/svg" width="16" height="16" viewBox="0 0 16 16"><path d="m8.24 2.23.3.46-2.79 2.79-.46-.3a.492.492 0 0 1-.08-.77l2.26-2.26c.23-.23.6-.19.77.08Zm-.018 4.853L6.61 6.04 9.1 3.55l1.12 1.73c.12.18.27.33.45.45l.438.284a5.486 5.486 0 0 1 2.39.36L11.2 4.89a.536.536 0 0 1-.15-.15L9.08 1.69h.01c-.52-.8-1.65-.92-2.32-.25L4.5 3.7c-.68.68-.56 1.8.25 2.32l1.42.92-4.58 4.59c-.78.78-.78 2.05 0 2.83.78.78 2.05.78 2.83 0l1.702-1.702a5.522 5.522 0 0 1-.12-1.31L3.7 13.65a.996.996 0 1 1-1.41-1.41l4.74-4.73.42.268.772-.695ZM7 11.5a4.5 4.5 0 1 0 9 0 4.5 4.5 0 0 0-9 0Zm1 0a3.5 3.5 0 0 1 5.596-2.803l-4.9 4.9A3.484 3.484 0 0 1 8 11.5Zm3.5 3.5c-.786 0-1.512-.26-2.096-.697l4.9-4.9A3.5 3.5 0 0 1 11.5 15Z"/></svg>