<svg xmlns="http://www.w3.org/2000/svg" width="48" height="48" viewBox="0 0 48 48"><path d="M8 8.25A4.25 4.25 0 0 1 12.25 4h15.5A4.25 4.25 0 0 1 32 8.25V19h3.75A4.25 4.25 0 0 1 40 23.25v19.5c0 .69-.56 1.25-1.25 1.25H34v-6.75A2.25 2.25 0 0 0 31.75 35h-15.5A2.25 2.25 0 0 0 14 37.25V44H9.25C8.56 44 8 43.44 8 42.75V8.25ZM16.5 44h6.25v-6.5H16.5V44Zm8.75 0h6.25v-6.5h-6.25V44ZM18 14a2 2 0 1 0-4 0 2 2 0 0 0 4 0Zm-2 9a2 2 0 1 0 0-4 2 2 0 0 0 0 4Zm2 5a2 2 0 1 0-4 0 2 2 0 0 0 4 0Zm6-12a2 2 0 1 0 0-4 2 2 0 0 0 0 4Zm2 5a2 2 0 1 0-4 0 2 2 0 0 0 4 0Zm-2 9a2 2 0 1 0 0-4 2 2 0 0 0 0 4Zm10-2a2 2 0 1 0-4 0 2 2 0 0 0 4 0Z"/></svg>