<svg xmlns="http://www.w3.org/2000/svg" width="16" height="16"><path d="M6 1a2 2 0 0 0-2 2v2.207a5.48 5.48 0 0 1 1-.185V3a1 1 0 0 1 1-1h3v2.5A1.5 1.5 0 0 0 10.5 6H13v7a1 1 0 0 1-1 1H9.741c-.313.38-.676.716-1.08 1H12a2 2 0 0 0 2-2V5.414a1.5 1.5 0 0 0-.439-1.06l-2.914-2.915A1.5 1.5 0 0 0 9.586 1H6Zm6.792 4H10.5a.5.5 0 0 1-.5-.5V2.207L12.793 5ZM1.634 9.92a2 2 0 0 0 1.43-2.478l-.155-.557c.254-.195.529-.362.821-.497l.338.358a2 2 0 0 0 2.91.001l.324-.344c.298.14.578.315.835.518l-.126.423a2 2 0 0 0 1.456 2.519l.349.082a4.7 4.7 0 0 1 .01 1.017l-.46.118a2 2 0 0 0-1.431 2.477l.156.557a4.35 4.35 0 0 1-.822.498l-.337-.358a2 2 0 0 0-2.91-.002l-.325.344a4.322 4.322 0 0 1-.835-.518l.127-.422a2 2 0 0 0-1.456-2.52l-.35-.082a4.7 4.7 0 0 1-.01-1.016l.461-.118Zm4.865.58a1 1 0 1 0-2 0 1 1 0 0 0 2 0Z"/></svg>