<svg xmlns="http://www.w3.org/2000/svg" width="32" height="32" viewBox="0 0 32 32"><path d="M7 10.5a3.5 3.5 0 1 1 7 0 3.5 3.5 0 0 1-7 0ZM10.5 5a5.5 5.5 0 1 0 0 11 5.5 5.5 0 0 0 0-11ZM21 12a2 2 0 1 1 4 0 2 2 0 0 1-4 0Zm2-4a4 4 0 1 0 0 8 4 4 0 0 0 0-8ZM2 21a3 3 0 0 1 3-3h11a3 3 0 0 1 3 3v.226a2.763 2.763 0 0 1-.02.279c-.02.173-.057.408-.13.686a5.564 5.564 0 0 1-.999 2.017C16.681 25.71 14.48 27 10.5 27s-6.18-1.29-7.351-2.792a5.564 5.564 0 0 1-1-2.017 4.905 4.905 0 0 1-.146-.898 2.494 2.494 0 0 1-.002-.067v-.023L2 21.195V21Zm2 .178v.012a2.913 2.913 0 0 0 .085.498c.09.348.273.818.641 1.291C5.431 23.883 6.98 25 10.5 25s5.07-1.117 5.774-2.02a3.57 3.57 0 0 0 .64-1.292A2.919 2.919 0 0 0 17 21.19l.001-.012V21a1 1 0 0 0-1-1H5a1 1 0 0 0-1 1v.178Zm15.477 3.314c.93.316 2.087.508 3.523.508 3.201 0 5.02-.953 6.013-2.125.483-.57.73-1.148.855-1.592a3.683 3.683 0 0 0 .129-.729l.001-.036.001-.022v-.038A2.457 2.457 0 0 0 27.541 18h-8.189c.5.559.863 1.243 1.035 2h7.154c.25 0 .452.199.458.446a1.67 1.67 0 0 1-.056.294c-.062.22-.19.528-.457.843C26.98 22.182 25.799 23 23 23c-1.165 0-2.049-.142-2.721-.35a7.04 7.04 0 0 1-.802 1.842Z"/></svg>