<svg xmlns="http://www.w3.org/2000/svg" width="32" height="32"><path d="M21.488 7.511a3.485 3.485 0 0 1 .837 1.363l.548 1.682a.664.664 0 0 0 1.254 0l.548-1.682a3.466 3.466 0 0 1 2.197-2.196l1.684-.547a.665.665 0 0 0 0-1.254l-.034-.008-1.683-.547a3.47 3.47 0 0 1-2.198-2.196L24.094.444a.665.665 0 0 0-1.255 0l-.547 1.682-.014.042a3.466 3.466 0 0 1-2.15 2.154l-1.684.547a.665.665 0 0 0 0 1.254l1.684.546c.513.171.979.46 1.36.842Zm9.333 4.846.918.299.019.004a.362.362 0 0 1 0 .684l-.919.299a1.892 1.892 0 0 0-1.198 1.197l-.299.918a.363.363 0 0 1-.684 0l-.299-.918a1.891 1.891 0 0 0-1.198-1.202l-.919-.298a.362.362 0 0 1 0-.684l.919-.299a1.892 1.892 0 0 0 1.18-1.197l.299-.918a.363.363 0 0 1 .684 0l.298.918a1.89 1.89 0 0 0 1.199 1.197ZM17.098 4H6.5A4.502 4.502 0 0 0 2 8.5v15A4.5 4.5 0 0 0 6.5 28h19a4.5 4.5 0 0 0 4.5-4.5v-6.262a1.887 1.887 0 0 1-2-.05V23.5a2.5 2.5 0 0 1-2.5 2.5h-19A2.5 2.5 0 0 1 4 23.5v-15A2.5 2.5 0 0 1 6.5 6h10.07a2.176 2.176 0 0 1-.07-.505A2.178 2.178 0 0 1 17.098 4ZM9 9a1 1 0 0 0 0 2h6a1 1 0 1 0 0-2H9ZM8 20a1 1 0 0 1 1-1h8a1 1 0 1 1 0 2H9a1 1 0 0 1-1-1Zm1-6a1 1 0 1 0 0 2h11a1 1 0 1 0 0-2H9Z"/></svg>