<svg xmlns="http://www.w3.org/2000/svg" width="16" height="16" viewBox="0 0 16 16"><path d="M2 10c0 1.803 1.555 3.653 4.222 3.957A5.477 5.477 0 0 1 5 10.5c0-.9.216-1.75.6-2.5H3.5A1.5 1.5 0 0 0 2 9.5v.5Zm4.327-3.083A5.493 5.493 0 0 1 9.626 5.07a2.75 2.75 0 1 0-3.299 1.848ZM10.5 15a4.5 4.5 0 1 0 0-9 4.5 4.5 0 0 0 0 9Zm-.896-6.396-.897.896h1.543A2.75 2.75 0 0 1 13 12.25v.25a.5.5 0 0 1-1 0v-.25a1.75 1.75 0 0 0-1.75-1.75H8.707l.897.896a.5.5 0 0 1-.708.708L7.144 10.35a.498.498 0 0 1 .002-.705l1.75-1.75a.5.5 0 1 1 .708.708Z"/></svg>