<svg xmlns="http://www.w3.org/2000/svg" width="24" height="24"><path d="M7.94 4.182 4.681 7.439a1.5 1.5 0 0 0 0 2.121l3.924 3.924a3.468 3.468 0 0 0-.577 1.544L3.62 10.621a3 3 0 0 1 0-4.243l3.26-3.257a3 3 0 0 1 4.242 0l3.446 3.445c-.075.058-.147.12-.214.185a2.734 2.734 0 0 0-1.407.315L10.06 4.182a1.5 1.5 0 0 0-2.122 0Zm6.825 3.64a1.824 1.824 0 0 0-.515-.072c-1.096 0-1.746.9-1.746 1.75v3.672A3.067 3.067 0 0 0 11.496 13C10.098 13 9 14.031 9 15.5c0 .242.117.469.313.61l1.718 1.229.954.832a11.25 11.25 0 0 1 1.71 1.87l.6.824A2.75 2.75 0 0 0 16.52 22h1.638c.931 0 1.824-.474 2.305-1.312.302-.526.676-1.217.977-1.902.286-.65.56-1.413.56-2.037v-6C22 9.896 21.342 9 20.25 9c-.11 0-.215.01-.317.027-.192-.682-.792-1.276-1.683-1.276-.182 0-.355.025-.514.072A1.701 1.701 0 0 0 16.25 7a1.7 1.7 0 0 0-1.485.822Zm1.666.748a.27.27 0 0 1 .069.178v.665a1.656 1.656 0 0 0 0 .1v3.736a.75.75 0 0 0 1.5 0V9.448a.218.218 0 0 1 .058-.123.247.247 0 0 1 .192-.075c.095 0 .147.033.18.07.043.046.07.114.07.18v4.25a.75.75 0 0 0 1.5 0v-3c0-.066.026-.133.07-.18.034-.038.086-.07.18-.07s.146.032.18.07c.044.047.07.114.07.18v6c0 .28-.149.785-.433 1.433-.27.615-.615 1.254-.905 1.758a1.143 1.143 0 0 1-1.004.559H16.52c-.4 0-.776-.192-1.011-.516l-.598-.824a12.752 12.752 0 0 0-1.939-2.12l-.982-.856a.783.783 0 0 0-.056-.044l-1.383-.99c.124-.409.476-.65.946-.65.637 0 1.09.4 1.242.534l.03.027a.75.75 0 0 0 1.236-.572V9.5c0-.067.027-.135.07-.18.032-.037.082-.07.176-.07.095 0 .147.034.18.07.043.046.07.114.07.18v3.75a.75.75 0 0 0 1.5 0V8.748a.27.27 0 0 1 .07-.178c.034-.038.086-.07.18-.07s.146.032.18.07ZM4.25 14a.75.75 0 0 1 .75.75v.747h.746a.75.75 0 0 1 0 1.5H5v.756a.75.75 0 0 1-1.5 0v-.756h-.75a.75.75 0 0 1 0-1.5h.751v-.748a.75.75 0 0 1 .75-.75Zm4 3.5a.75.75 0 0 1 .75.75v.747h.746a.75.75 0 0 1 0 1.5H9v.756a.75.75 0 0 1-1.5 0v-.756h-.75a.75.75 0 0 1 0-1.5h.751v-.747a.75.75 0 0 1 .75-.75Z"/></svg>