<svg xmlns="http://www.w3.org/2000/svg" width="20" height="20" viewBox="0 0 20 20"><path d="M8.7 2.48a3.5 3.5 0 0 1 2.6 0l5.757 2.304c.57.227.943.779.943 1.392v5.859a3.538 3.538 0 0 0-.5-.036h-4a3.5 3.5 0 0 0-2.735 5.685 3.5 3.5 0 0 1-2.065-.166l-5.757-2.303A1.5 1.5 0 0 1 2 13.822V6.176a1.5 1.5 0 0 1 .943-1.392L8.7 2.48ZM5.703 6.043a.5.5 0 1 0-.406.914L9.5 8.824V13.5a.5.5 0 0 0 1 0V8.824l4.203-1.868a.5.5 0 1 0-.406-.914L10 7.952l-4.297-1.91ZM13.5 13a2.5 2.5 0 0 0 0 5h.5a.5.5 0 0 0 0-1h-.5a1.5 1.5 0 0 1 0-3h.5a.5.5 0 0 0 0-1h-.5Zm3.5 0a.5.5 0 1 0 0 1h.5a1.5 1.5 0 0 1 0 3H17a.5.5 0 1 0 0 1h.5a2.5 2.5 0 0 0 0-5H17Zm-4 2.5a.5.5 0 0 1 .5-.5h4a.5.5 0 1 1 0 1h-4a.5.5 0 0 1-.5-.5Z"/></svg>