<svg xmlns="http://www.w3.org/2000/svg" width="24" height="24" viewBox="0 0 24 24"><path d="M15 6v5.498a6.494 6.494 0 0 0-1.532.903c.021-.13.032-.264.032-.401V6a2.5 2.5 0 0 0-5 0v6a2.5 2.5 0 0 0 3.303 2.368 6.46 6.46 0 0 0-.628 1.628A4 4 0 0 1 7 12V6a4 4 0 1 1 8 0Zm-4 11.5c0 1.096.271 2.129.75 3.035v.715a.75.75 0 0 1-1.493.102l-.007-.102v-2.268a6.75 6.75 0 0 1-6.246-6.496L4 12.25v-.5a.75.75 0 0 1 1.493-.102l.007.102v.5a5.25 5.25 0 0 0 5.034 5.246l.216.004H11Zm12 0a5.5 5.5 0 1 1-11 0 5.5 5.5 0 0 1 11 0Zm-9.5 0c0 .834.255 1.608.691 2.248l5.557-5.557A4 4 0 0 0 13.5 17.5Zm4 4a4 4 0 0 0 3.309-6.248l-5.557 5.557a3.98 3.98 0 0 0 2.248.691Z"/></svg>