<svg xmlns="http://www.w3.org/2000/svg" width="24" height="24" viewBox="0 0 24 24"><path d="M12 2v6a2 2 0 0 0 2 2h6v10a2 2 0 0 1-2 2h-7.104a2.74 2.74 0 0 0 .093-.5H11a2 2 0 0 0 2-2V16a2.501 2.501 0 0 0-2.007-2.451A2.75 2.75 0 0 0 8.25 11h-3.5c-.26 0-.512.036-.75.104V4a2 2 0 0 1 2-2h6Zm1.5.5V8a.5.5 0 0 0 .5.5h5.5l-6-6ZM3 13.75c0-.966.784-1.75 1.75-1.75h3.5c.966 0 1.75.784 1.75 1.75v.75h.5A1.5 1.5 0 0 1 12 16v3.5a1 1 0 0 1-1 1h-1v.75A1.75 1.75 0 0 1 8.25 23h-3.5A1.75 1.75 0 0 1 3 21.25v-.75H2a1 1 0 0 1-1-1V16a1.5 1.5 0 0 1 1.5-1.5H3v-.75Zm5.5 0a.25.25 0 0 0-.25-.25h-3.5a.25.25 0 0 0-.25.25v.75h4v-.75Zm-4 5.5v2c0 .138.112.25.25.25h3.5a.25.25 0 0 0 .25-.25v-2a.25.25 0 0 0-.25-.25h-3.5a.25.25 0 0 0-.25.25Z"/></svg>