<svg xmlns="http://www.w3.org/2000/svg" width="48" height="48"><path d="M24 4c-5.523 0-10 4.477-10 10s4.477 10 10 10 10-4.477 10-10S29.523 4 24 4Zm-7.5 10a7.5 7.5 0 1 1 15 0 7.5 7.5 0 0 1-15 0Zm-4.25 14A4.25 4.25 0 0 0 8 32.249V33c0 3.755 1.942 6.567 4.92 8.38C15.85 43.163 19.786 44 24 44c.532 0 1.06-.013 1.58-.04a13.05 13.05 0 0 1-1.841-2.461c-3.824-.034-7.163-.82-9.519-2.254-2.36-1.437-3.72-3.5-3.72-6.245v-.751a1.75 1.75 0 0 1 1.75-1.749H22.8c.325-.882.744-1.72 1.244-2.5H12.25ZM46 35c0 6.075-4.925 11-11 11s-11-4.925-11-11 4.925-11 11-11 11 4.925 11 11Zm-9.81-6.599a1.236 1.236 0 0 0-2.38 0l-1.194 3.83h-3.862c-1.213 0-1.716 1.617-.736 2.36l3.125 2.366-1.194 3.83c-.374 1.201.945 2.2 1.926 1.458L35 39.878l3.125 2.367c.98.743 2.3-.257 1.925-1.458l-1.193-3.83 3.125-2.367c.98-.742.477-2.36-.736-2.36h-3.862l-1.194-3.829Z"/></svg>