<svg xmlns="http://www.w3.org/2000/svg" width="16" height="16"><path d="M13.973 7.722c.018.173.027.354.027.545 0 1.297-.452 2.169-.89 2.715a3.603 3.603 0 0 1-.603.596 2.61 2.61 0 0 1-.236.162l-.009.005a.5.5 0 0 0-.262.44V13.5a.5.5 0 0 1-.5.5H11a1 1 0 0 0-1-1H8a1 1 0 0 0-1 1h-.5a.5.5 0 0 1-.5-.5v-.603a.5.5 0 0 0-.45-.498 2.855 2.855 0 0 1-.464-.143 3.16 3.16 0 0 1-1.063-.707c-.443-.45-.714-1.042-.86-1.453-.143-.409-.471-.779-.94-.911A.307.307 0 0 1 2 8.89v-.794a.29.29 0 0 1 .21-.279c.485-.139.809-.531.946-.945.112-.34.31-.776.632-1.103a4.818 4.818 0 0 1 1.262-.906c.039-.02.07-.034.09-.043l.02-.01.004-.001a.5.5 0 0 0 .303-.46V2.675a7.2 7.2 0 0 0 .7.527c.317.208.687.405 1.074.51.114-.328.27-.64.464-.928h-.006c-.279-.029-.62-.18-.985-.419a7.02 7.02 0 0 1-.94-.757.774.774 0 0 0-.827-.15.76.76 0 0 0-.48.704v1.877a6.09 6.09 0 0 0-1.39 1.028c-.477.482-.736 1.084-.87 1.491-.056.167-.168.268-.272.297A1.29 1.29 0 0 0 1 8.095v.795c0 .585.389 1.098.951 1.257a.43.43 0 0 1 .27.281c.166.472.498 1.223 1.09 1.823A4.158 4.158 0 0 0 5 13.287v.213A1.5 1.5 0 0 0 6.5 15H7a1 1 0 0 0 1-1h2a1 1 0 0 0 1 1h.5a1.5 1.5 0 0 0 1.5-1.5v-1.043a4.61 4.61 0 0 0 .89-.85c.562-.7 1.11-1.788 1.11-3.34 0-.65-.092-1.232-.27-1.752a4.01 4.01 0 0 1-.757 1.207Zm-.182-3.847a3.001 3.001 0 0 1-.91 3.502c-.417.329-.988.304-1.478.1l-2.39-.989c-.49-.203-.912-.589-.974-1.116a3.001 3.001 0 0 1 5.752-1.497Zm-1.53 2.717a2.001 2.001 0 1 0-3.228-1.337c.002.02.01.057.066.116a.87.87 0 0 0 .297.193l2.39.99a.84.84 0 0 0 .347.073c.08-.002.113-.023.128-.035ZM5.75 7.5a.75.75 0 1 0 0-1.5.75.75 0 0 0 0 1.5Z"/></svg>