<svg xmlns="http://www.w3.org/2000/svg" width="24" height="24"><path d="M12 1.998c5.27 0 9.59 4.077 9.973 9.25a3.293 3.293 0 0 0-1.529-.238A8.503 8.503 0 0 0 3.498 12a8.502 8.502 0 0 0 7.799 8.473l-.234.934a2.12 2.12 0 0 0-.064.545A10 10 0 0 1 2 12C1.999 6.476 6.477 1.998 12 1.998Zm0 14.503a4.486 4.486 0 0 0 2.984-1.13l-2.494 2.493a3.751 3.751 0 0 0-.12.126 5.999 5.999 0 0 1-5.087-2.279.75.75 0 1 1 1.178-.928A4.492 4.492 0 0 0 12 16.5Zm-3-7.75a1.25 1.25 0 1 1 0 2.498A1.25 1.25 0 0 1 9 8.75Zm6 0a1.25 1.25 0 1 1 0 2.498 1.25 1.25 0 0 1 0-2.499Zm4.1 3.918-5.903 5.902a2.686 2.686 0 0 0-.706 1.247l-.458 1.831a1.087 1.087 0 0 0 1.319 1.318l1.83-.457a2.686 2.686 0 0 0 1.248-.707l5.902-5.902a2.286 2.286 0 0 0-3.232-3.232Z"/></svg>