<svg xmlns="http://www.w3.org/2000/svg" width="28" height="28"><path d="M6.25 3h15.5A3.25 3.25 0 0 1 25 6.25v15.5A3.25 3.25 0 0 1 21.75 25H6.25A3.25 3.25 0 0 1 3 21.75V6.25A3.25 3.25 0 0 1 6.25 3ZM5 6.25v.689L6.939 5H6.25C5.56 5 5 5.56 5 6.25Zm0 2.81v2.879L11.939 5h-2.88L5 9.06ZM14.06 5 5 14.06v2.879L16.939 5h-2.88Zm5 0L5 19.06v2.69c0 .06.004.119.012.176L21.926 5.012A1.261 1.261 0 0 0 21.75 5h-2.69Zm3.928 1.072L6.072 22.988c.058.008.118.012.178.012h2.689L23 8.939V6.25c0-.06-.004-.12-.012-.178ZM23 11.06 11.06 23h2.879L23 13.939v-2.88Zm0 5L16.06 23h2.879L23 18.939v-2.88Zm0 5L21.06 23h.69c.69 0 1.25-.56 1.25-1.25v-.69Z"/></svg>