<svg xmlns="http://www.w3.org/2000/svg" width="24" height="24" viewBox="0 0 24 24"><path d="m20.878 2.826.153.144.145.153a3.579 3.579 0 0 1-.145 4.908L9.063 19.999a2.25 2.25 0 0 1-1 .58l-5.115 1.395a.75.75 0 0 1-.92-.921l1.394-5.116a2.25 2.25 0 0 1 .58-.999L15.97 2.97a3.579 3.579 0 0 1 4.908-.144ZM15.001 6.06l-9.938 9.938a.75.75 0 0 0-.193.333l-1.05 3.85 3.85-1.05a.75.75 0 0 0 .332-.194L17.94 9l-2.939-2.94ZM6.526 11l-1.5 1.5H2.75a.75.75 0 0 1 0-1.5h3.775Zm4-4-1.5 1.5H2.75a.75.75 0 1 1 0-1.5h7.775Zm6.505-2.97-.97.97L19 7.94l.97-.97a2.078 2.078 0 1 0-2.939-2.94ZM14.526 3l-1.5 1.5H2.75a.75.75 0 1 1 0-1.5h11.775Z"/></svg>