<svg xmlns="http://www.w3.org/2000/svg" width="20" height="20" viewBox="0 0 20 20"><path d="M7.987 4.18a12.213 12.213 0 0 0-.669 2.32h5.364a12.21 12.21 0 0 0-.67-2.32c-.301-.733-.648-1.294-1.008-1.663C10.646 2.149 10.307 2 10 2c-.307 0-.646.149-1.004.517-.36.37-.707.93-1.009 1.663Zm-.096-1.899c-.314.426-.59.941-.828 1.518-.32.78-.58 1.694-.762 2.701H2.804a8.02 8.02 0 0 1 5.087-4.219Zm4.219 0c.313.426.59.941.827 1.518.32.78.58 1.694.762 2.701h3.497a8.02 8.02 0 0 0-5.087-4.219ZM17.602 7.5H13.85c.098.795.15 1.634.15 2.5 0 .866-.052 1.705-.15 2.5h3.752A7.993 7.993 0 0 0 18 10a8.01 8.01 0 0 0-.398-2.5Zm-.406 6h-3.497c-.182 1.007-.441 1.922-.762 2.7a7.189 7.189 0 0 1-.827 1.519 8.02 8.02 0 0 0 5.086-4.219ZM10 18c.307 0 .646-.149 1.004-.517.36-.37.707-.93 1.008-1.663a12.21 12.21 0 0 0 .67-2.32H7.318c.168.873.397 1.657.67 2.32.301.733.648 1.294 1.008 1.663.358.368.697.517 1.004.517Zm-2.11-.281A8.02 8.02 0 0 1 2.805 13.5h3.497c.182 1.007.441 1.922.762 2.7.237.578.514 1.093.828 1.519ZM2.399 12.5H6.15A20.524 20.524 0 0 1 6 10c0-.866.052-1.705.15-2.5H2.398A7.993 7.993 0 0 0 2 10c0 .873.14 1.713.398 2.5ZM7 10c0-.875.056-1.715.158-2.5h5.684c.102.785.158 1.625.158 2.5s-.056 1.714-.158 2.5H7.158A19.438 19.438 0 0 1 7 10Z"/></svg>