<svg xmlns="http://www.w3.org/2000/svg" width="48" height="48"><path d="M14.527 13.062a1.75 1.75 0 0 1 1.285-.562h2.938a1.25 1.25 0 1 0 0-2.5h-2.938a4.25 4.25 0 0 0-3.12 1.364L5.46 19.182c-.287.263-.54.563-.75.892a4.25 4.25 0 0 0-.71 2.35V29.5a6.5 6.5 0 0 0 6.5 6.5h5a6.5 6.5 0 0 0 6.5-6.5v-5h4v5a6.5 6.5 0 0 0 6.5 6.5h5a6.5 6.5 0 0 0 6.5-6.5v-7.075a4.25 4.25 0 0 0-.71-2.35 4.524 4.524 0 0 0-.75-.893l-7.232-7.818A4.25 4.25 0 0 0 32.188 10H29.25a1.25 1.25 0 1 0 0 2.5h2.938c.488 0 .954.204 1.285.562L38.041 18H30.5a4.5 4.5 0 0 0-4.473 4h-4.055a4.5 4.5 0 0 0-4.472-4H9.959l4.568-4.938Z"/></svg>