<svg xmlns="http://www.w3.org/2000/svg" width="20" height="20"><path d="M10 2a4 4 0 1 0 0 8 4 4 0 0 0 0-8ZM7 6a3 3 0 1 1 6 0 3 3 0 0 1-6 0Zm3 12a12.8 12.8 0 0 1-.373-.005 1.477 1.477 0 0 0 1.295-1.03c1.35-.108 2.53-.453 3.405-1.012C15.377 15.283 16 14.31 16 13a1 1 0 0 0-1-1H9.373a3.975 3.975 0 0 0-.409-1H15a2 2 0 0 1 2 2c0 1.691-.833 2.966-2.135 3.797C13.583 17.614 11.855 18 10 18Zm-7.503-5a3 3 0 0 1 6 0v2l1.32 1.119a.5.5 0 0 1-.323.881H1.501a.5.5 0 0 1-.323-.881L2.498 15v-2Zm3 6a1.501 1.501 0 0 1-1.414-1h2.829a1.5 1.5 0 0 1-1.415 1Z"/></svg>