<svg xmlns="http://www.w3.org/2000/svg" width="32" height="32" viewBox="0 0 32 32"><path d="M4.018 2.951a1 1 0 0 0-2 0v4a3 3 0 0 0 3 3h.461l6.554 12.952a2 2 0 0 0 1.111.98v.006a17.468 17.468 0 0 0-.128 1.959c0 .86.193 1.822.624 2.606.429.78 1.196 1.535 2.344 1.549h.032c1.148-.014 1.915-.768 2.344-1.549.431-.784.624-1.746.624-2.606a17.468 17.468 0 0 0-.128-1.967 2 2 0 0 0 1.104-.977L26.52 9.95h.498a3 3 0 0 0 3-3v-4a1 1 0 1 0-2 0v4a1 1 0 0 1-1 1h-22a1 1 0 0 1-1-1v-4ZM16.855 24l.015.125c.066.555.114 1.19.114 1.723 0 .6-.14 1.214-.377 1.643-.226.412-.442.506-.607.512-.165-.006-.381-.1-.607-.512-.236-.429-.377-1.044-.377-1.643 0-.533.048-1.168.114-1.723l.015-.125h1.71ZM24.28 9.95 18.176 22h-4.358L7.721 9.95h16.558Z"/></svg>