<svg xmlns="http://www.w3.org/2000/svg" width="20" height="20"><path d="M10 2v4.5A1.5 1.5 0 0 0 11.5 8H16v8.5a1.5 1.5 0 0 1-1.5 1.5H9.743A5.5 5.5 0 0 0 4 9.207V3.5A1.5 1.5 0 0 1 5.5 2H10Zm1 .25V6.5a.5.5 0 0 0 .5.5h4.25L11 2.25ZM10 14.5a4.5 4.5 0 1 1-9 0 4.5 4.5 0 0 1 9 0Zm-5.646-1.146a.5.5 0 0 0-.708-.708l-1.5 1.5a.5.5 0 0 0 0 .708l1.5 1.5a.5.5 0 0 0 .708-.708L3.207 14.5l1.147-1.146Zm2.292-.708a.5.5 0 0 0 0 .708L7.793 14.5l-1.147 1.146a.5.5 0 0 0 .708.708l1.5-1.5a.5.5 0 0 0 0-.708l-1.5-1.5a.5.5 0 0 0-.708 0Z"/></svg>