<svg xmlns="http://www.w3.org/2000/svg" width="24" height="24"><path d="M2 6.25A3.25 3.25 0 0 1 5.25 3h13.5A3.25 3.25 0 0 1 22 6.25V12h-1.5V6.25a1.75 1.75 0 0 0-1.75-1.75H5.25A1.75 1.75 0 0 0 3.5 6.25v9.5c0 .966.784 1.75 1.75 1.75H11V19H5.25A3.25 3.25 0 0 1 2 15.75v-9.5ZM14 13a2 2 0 0 0-2 2v5a2 2 0 0 0 2 2h7a2 2 0 0 0 2-2v-5a2 2 0 0 0-2-2h-7ZM5.22 6.22a.75.75 0 0 1 1.06 0L9.5 9.44V7.75a.75.75 0 0 1 1.5 0v3.5a.75.75 0 0 1-.75.75h-3.5a.75.75 0 0 1 0-1.5h1.69L5.22 7.28a.75.75 0 0 1 0-1.06Z"/></svg>