<svg xmlns="http://www.w3.org/2000/svg" width="24" height="24" viewBox="0 0 24 24"><path d="M17.5 12a5.5 5.5 0 1 1 0 11 5.5 5.5 0 0 1 0-11Zm2.646 3.146-4.092 4.093L14.9 17.7a.5.5 0 0 0-.8.6l1.5 2a.5.5 0 0 0 .754.053l4.5-4.5a.5.5 0 0 0-.707-.707ZM11.02 17H3l-.117.007A1 1 0 0 0 3 19h8.174a6.52 6.52 0 0 1-.155-2Zm.48-2H3a1 1 0 0 1-.117-1.993L3 13h9.81a6.49 6.49 0 0 0-1.312 2ZM3 11a1 1 0 0 1-.117-1.993L3 9h18a1 1 0 0 1 .117 1.993L21 11H3Zm18-6H3l-.117.007A1 1 0 0 0 3 7h18l.117-.007A1 1 0 0 0 21 5Z"/></svg>