<svg xmlns="http://www.w3.org/2000/svg" width="20" height="20" viewBox="0 0 20 20"><path d="M5.5 3A2.5 2.5 0 0 0 3 5.5v9A2.5 2.5 0 0 0 5.5 17h4.1a5.465 5.465 0 0 1-.393-1H5.5A1.5 1.5 0 0 1 4 14.5V7h12v2.207c.349.099.683.23 1 .393V5.5A2.5 2.5 0 0 0 14.5 3h-9ZM4 5.5A1.5 1.5 0 0 1 5.5 4h9A1.5 1.5 0 0 1 16 5.5V6H4v-.5Zm15 9a4.5 4.5 0 1 1-9 0 4.5 4.5 0 0 1 9 0Zm-4.854 2.353.003.003a.499.499 0 0 0 .348.144h.006a.5.5 0 0 0 .35-.146l2-2a.5.5 0 0 0-.707-.708L15 15.293V12.5a.5.5 0 0 0-1 0v2.793l-1.146-1.147a.5.5 0 0 0-.708.708l2 2Z"/></svg>