<svg xmlns="http://www.w3.org/2000/svg" width="20" height="20" viewBox="0 0 20 20"><path d="M4.5 5A1.5 1.5 0 0 0 3 6.5v6A1.5 1.5 0 0 0 4.5 14h6.55a7.682 7.682 0 0 1-.044-.603v-.008l-.004-.255v-2.259c0-.693.54-1.375 1.35-1.375.743 0 1.454-.303 2.172-1.073A1.34 1.34 0 0 1 15.496 8h.01c.364.002.716.153.972.427.174.187.348.346.522.48V6.5A1.5 1.5 0 0 0 15.5 5h-11Zm-2 10h8.737c.094.348.218.682.371 1H2.5a.5.5 0 0 1 0-1Zm13.001 3a.329.329 0 0 1-.11-.02c-.691-.246-1.28-.573-1.761-.979L13.628 17a4.346 4.346 0 0 1-.876-.999L12.75 16c-.462-.728-.712-1.608-.745-2.635l-.004-.24v-2.25c0-.207.157-.375.35-.375 1.07 0 2.033-.458 2.903-1.39A.337.337 0 0 1 15.5 9c.089 0 .178.037.246.11.87.932 1.832 1.39 2.903 1.39.193 0 .35.168.35.375v2.25l-.004.24c-.033 1.027-.283 1.907-.745 2.635v.001c-.238.373-.53.706-.878.999v.001c-.483.405-1.07.733-1.762.98a.33.33 0 0 1-.11.019Z"/></svg>