<svg xmlns="http://www.w3.org/2000/svg" width="20" height="20" viewBox="0 0 20 20"><path d="M17 5.5A2.5 2.5 0 0 0 14.5 3h-9A2.5 2.5 0 0 0 3 5.5v9A2.5 2.5 0 0 0 5.5 17h1.25A2.25 2.25 0 0 1 11 15.968a2.25 2.25 0 0 1 4 0 2.25 2.25 0 0 1 1.988-1.218c.008-.082.012-.166.012-.25v-9ZM6 6.75c0-.414.316-.75.706-.75h6.588c.39 0 .706.336.706.75s-.316.75-.706.75H6.706C6.316 7.5 6 7.164 6 6.75Zm0 3c0-.414.316-.75.706-.75h3.588c.39 0 .706.336.706.75s-.316.75-.706.75H6.706c-.39 0-.706-.336-.706-.75ZM6.706 12h6.588c.39 0 .706.336.706.75s-.316.75-.706.75H6.706c-.39 0-.706-.336-.706-.75s.316-.75.706-.75Zm3.544 5a1.25 1.25 0 1 1-2.5 0 1.25 1.25 0 0 1 2.5 0ZM13 18.25a1.25 1.25 0 1 0 0-2.5 1.25 1.25 0 0 0 0 2.5Zm4 0a1.25 1.25 0 1 0 0-2.5 1.25 1.25 0 0 0 0 2.5Z"/></svg>