<svg xmlns="http://www.w3.org/2000/svg" width="20" height="20"><path d="M10 2a4 4 0 1 0 0 8 4 4 0 0 0 0-8ZM7 6a3 3 0 1 1 6 0 3 3 0 0 1-6 0Zm-1.991 5A2.001 2.001 0 0 0 3 13c0 1.691.833 2.966 2.135 3.797C6.183 17.465 7.53 17.845 9 17.96v-1.003c-1.318-.114-2.468-.457-3.327-1.005C4.623 15.283 4 14.31 4 13c0-.553.448-1 1.009-1h11.723A2 2 0 0 0 15 11H5.009ZM19 14.5v3a1.5 1.5 0 0 1-1.5 1.5h-6a1.5 1.5 0 0 1-1.5-1.5v-3a1.5 1.5 0 0 1 1.5-1.5h6a1.5 1.5 0 0 1 1.5 1.5Zm-1 3v-1a1.5 1.5 0 0 0-1.5 1.5h1a.5.5 0 0 1 .5-.5Zm0-3a.5.5 0 0 1-.5-.5h-1a1.5 1.5 0 0 0 1.5 1.5v-1Zm-6.5-.5a.5.5 0 0 1-.5.5v1a1.5 1.5 0 0 0 1.5-1.5h-1Zm-.5 3.5a.5.5 0 0 1 .5.5h1a1.5 1.5 0 0 0-1.5-1.5v1Zm3.5-3a1.5 1.5 0 1 0 0 3 1.5 1.5 0 0 0 0-3Z"/></svg>