<svg xmlns="http://www.w3.org/2000/svg" width="28" height="28" viewBox="0 0 28 28"><path d="M11 13.25a.75.75 0 0 1 .75-.75h4.5a.75.75 0 0 1 0 1.5h-4.5a.75.75 0 0 1-.75-.75ZM5.25 3A2.25 2.25 0 0 0 3 5.25v2c0 .78.397 1.467 1 1.871V20.25A4.75 4.75 0 0 0 8.75 25h5.75a7.486 7.486 0 0 1-.876-1.5H8.75a3.25 3.25 0 0 1-3.25-3.25V9.5h17v3.77a7.45 7.45 0 0 1 1.5.595V9.121c.603-.404 1-1.09 1-1.871v-2A2.25 2.25 0 0 0 22.75 3H5.25ZM4.5 5.25a.75.75 0 0 1 .75-.75h17.5a.75.75 0 0 1 .75.75v2a.75.75 0 0 1-.75.75H5.25a.75.75 0 0 1-.75-.75v-2Zm10.855 13.944a2 2 0 0 0 1.441-2.496l-.334-1.159a6.202 6.202 0 0 1 1.751-1.09l.85.894a2 2 0 0 0 2.899 0l.843-.886c.644.265 1.235.64 1.753 1.1l-.324 1.098a2 2 0 0 0 1.45 2.51l.977.236a6.807 6.807 0 0 1 .008 2.152l-1.026.253a2 2 0 0 0-1.44 2.496l.334 1.16a6.206 6.206 0 0 1-1.751 1.09l-.85-.894a2 2 0 0 0-2.9 0l-.842.885a6.207 6.207 0 0 1-1.753-1.1l.324-1.098a2 2 0 0 0-1.45-2.51l-.976-.235a6.796 6.796 0 0 1-.008-2.152l1.024-.254ZM22 20.5a1.5 1.5 0 1 0-3 0 1.5 1.5 0 0 0 3 0Z"/></svg>