<svg xmlns="http://www.w3.org/2000/svg" width="24" height="24" viewBox="0 0 24 24"><path d="M7.5 11.5v-2h9v1.75h-.75c-.41 0-.798.09-1.147.25H7.5ZM18 8.75v2.5h1.25c.665 0 1.274.236 1.75.629V6.732A2 2 0 0 0 20 3H4a2 2 0 0 0-1 3.732V20.25c0 .414.336.75.75.75H6v-5.25a.75.75 0 0 1 .75-.75h4c.23 0 .437.104.574.268A2.503 2.503 0 0 1 13 14.05V14c0-.353.066-.69.188-1H6.75a.75.75 0 0 1-.75-.75v-3.5A.75.75 0 0 1 6.75 8h10.5a.75.75 0 0 1 .75.75ZM3.5 5a.5.5 0 0 1 .5-.5h16a.5.5 0 0 1 0 1H4a.5.5 0 0 1-.5-.5ZM10 16.5V21H7.5v-4.5H10Zm4-1.5h-.5a1.5 1.5 0 0 0-1.5 1.5V18h2.5v-.25a.75.75 0 0 1 1.5 0V18h3v-.25a.75.75 0 0 1 1.5 0V18H23v-1.5a1.5 1.5 0 0 0-1.5-1.5H21v-1a1.75 1.75 0 0 0-1.75-1.75h-3.5A1.75 1.75 0 0 0 14 14v1Zm1.5-1a.25.25 0 0 1 .25-.25h3.5a.25.25 0 0 1 .25.25v1h-4v-1ZM12 21.5v-2h2.5v.75a.75.75 0 0 0 1.5 0v-.75h3v.75a.75.75 0 0 0 1.5 0v-.75H23v2a1.5 1.5 0 0 1-1.5 1.5h-8a1.5 1.5 0 0 1-1.5-1.5Z"/></svg>