<svg xmlns="http://www.w3.org/2000/svg" width="24" height="24" viewBox="0 0 24 24"><path d="M10.591 2.513a3.75 3.75 0 0 1 2.818 0l7.498 3.04A1.75 1.75 0 0 1 22 7.175v5.635a6.52 6.52 0 0 0-1.5-1.077v-3.96l-7.75 2.992v2.298a6.492 6.492 0 0 0-1.5 2.645v-4.944L3.5 7.75v9.078a.25.25 0 0 0 .156.231l7.499 3.04c.031.013.063.025.095.036l.189.076c.059.024.118.044.179.06.248.526.565 1.014.94 1.451a3.75 3.75 0 0 1-1.967-.233l-7.498-3.04A1.75 1.75 0 0 1 2 16.827V7.176a1.75 1.75 0 0 1 1.093-1.622l7.498-3.04Zm2.254 1.39a2.25 2.25 0 0 0-1.69 0L9.24 4.68l7.527 2.927 2.67-1.03-6.593-2.673ZM4.59 6.564l7.411 2.883 2.69-1.04L7.216 5.5 4.59 6.564ZM23 17.501a5.5 5.5 0 1 0-11 0 5.5 5.5 0 0 0 11 0Zm-5.458-3.498.086.015.063.02.068.035.047.032 2.548 2.542.057.07a.5.5 0 0 1-.695.695l-.07-.057L18 15.707v5.294l-.008.09a.5.5 0 0 1-.402.402l-.09.008-.09-.008a.5.5 0 0 1-.402-.402L17 21l-.001-5.292-1.645 1.646-.07.057a.5.5 0 0 1-.568 0l-.07-.057-.057-.07a.5.5 0 0 1 0-.568l.057-.07 2.513-2.512.056-.045.074-.042.083-.03.06-.012.056-.005.054.002Z"/></svg>