<svg xmlns="http://www.w3.org/2000/svg" width="16" height="16"><path d="M2.5 2a.5.5 0 0 0 0 1h11a.5.5 0 0 0 0-1h-11Zm9 12a2.5 2.5 0 0 0 2.5-2.5v-5a.5.5 0 0 0-.5-.5H11a1.495 1.495 0 0 1-1 1.415V10H6V7.415A1.495 1.495 0 0 1 5 6H2.5a.5.5 0 0 0-.5.5v5A2.5 2.5 0 0 0 4.5 14h7ZM3 10V7h2v3H3Zm8-3h2v3h-2V7Zm-1 6H6v-2h4v2Zm-5 0h-.5A1.5 1.5 0 0 1 3 11.5V11h2v2Zm6 0v-2h2v.5a1.5 1.5 0 0 1-1.5 1.5H11ZM9.854 6.354a.5.5 0 0 1-.708 0L8.5 5.707V7.5a.5.5 0 0 1-1 0V5.707l-.646.647a.5.5 0 1 1-.708-.708l1.5-1.5a.5.5 0 0 1 .708 0l1.5 1.5a.5.5 0 0 1 0 .708Z"/></svg>