<svg xmlns="http://www.w3.org/2000/svg" width="20" height="20"><path d="M6 3a3 3 0 0 0-3 3v8a3 3 0 0 0 3 3h3.6a5.465 5.465 0 0 1-.393-1H6a2 2 0 0 1-2-2V6a2 2 0 0 1 2-2h8a2 2 0 0 1 2 2v3.207c.349.099.683.23 1 .393V6a3 3 0 0 0-3-3H6Zm3.354 4.104a.5.5 0 0 0-.708-.708L7.234 7.808l-.397-.362a.5.5 0 0 0-.674.738l.75.685a.5.5 0 0 0 .69-.016l1.75-1.75Zm0 4.292a.5.5 0 0 1 0 .708l-1.75 1.75a.5.5 0 0 1-.691.015l-.75-.685a.5.5 0 0 1 .674-.738l.397.363 1.412-1.413a.5.5 0 0 1 .708 0ZM10.5 7.5A.5.5 0 0 1 11 7h2.5a.5.5 0 0 1 0 1H11a.5.5 0 0 1-.5-.5Zm8.5 7a4.5 4.5 0 1 1-9 0 4.5 4.5 0 0 1 9 0Zm-4-2a.5.5 0 0 0-1 0V14h-1.5a.5.5 0 0 0 0 1H14v1.5a.5.5 0 0 0 1 0V15h1.5a.5.5 0 0 0 0-1H15v-1.5Z"/></svg>