<svg xmlns="http://www.w3.org/2000/svg" width="48" height="48" viewBox="0 0 48 48"><path d="M23 10.25A6.25 6.25 0 0 1 29.25 4h1.5a1.25 1.25 0 1 1 0 2.5h-1.5a3.75 3.75 0 1 0 0 7.5h1.5a1.25 1.25 0 1 1 0 2.5h-1.5A6.25 6.25 0 0 1 23 10.25Zm22 0A6.25 6.25 0 0 0 38.75 4h-1.5a1.25 1.25 0 1 0 0 2.5h1.5a3.75 3.75 0 1 1 0 7.5h-1.5a1.25 1.25 0 1 0 0 2.5h1.5A6.25 6.25 0 0 0 45 10.25Zm-17 0c0-.69.56-1.25 1.25-1.25h9.5a1.25 1.25 0 1 1 0 2.5h-9.5c-.69 0-1.25-.56-1.25-1.25Zm-7 0c0-1.555.417-3.009 1.142-4.25H11.25A7.25 7.25 0 0 0 4 13.25v15.5A7.25 7.25 0 0 0 11.25 36H12v5.82c0 1.824 2.057 2.89 3.547 1.838L26.398 36H36.75A7.25 7.25 0 0 0 44 28.75V16.69a7.817 7.817 0 0 1-5 1.81H29c-4.418 0-8-3.694-8-8.25Z"/></svg>