<svg xmlns="http://www.w3.org/2000/svg" width="16" height="16" viewBox="0 0 16 16"><path d="M9 1v3.5A1.5 1.5 0 0 0 10.5 6H14v7.5a1.5 1.5 0 0 1-1.5 1.5H8.662A5.5 5.5 0 0 0 4 5.207V2.5A1.5 1.5 0 0 1 5.5 1H9Zm1 .25V4.5a.5.5 0 0 0 .5.5h3.25L10 1.25ZM1.634 9.92a2 2 0 0 0 1.43-2.478l-.155-.557c.254-.195.529-.362.821-.497l.338.358a2 2 0 0 0 2.91.001l.324-.344c.298.14.578.315.835.518l-.126.423a2 2 0 0 0 1.456 2.519l.349.082a4.7 4.7 0 0 1 .01 1.017l-.46.118a2 2 0 0 0-1.431 2.477l.156.557a4.35 4.35 0 0 1-.822.498l-.337-.358a2 2 0 0 0-2.91-.002l-.325.344a4.322 4.322 0 0 1-.835-.518l.127-.422a2 2 0 0 0-1.456-2.52l-.35-.082a4.7 4.7 0 0 1-.01-1.016l.461-.118Zm4.865.58a1 1 0 1 0-2 0 1 1 0 0 0 2 0Z"/></svg>