<svg xmlns="http://www.w3.org/2000/svg" width="16" height="16"><path d="M9 9h1V8H9v1Zm3.25-6h-9.5A1.75 1.75 0 0 0 1 4.75v7.5c0 .966.784 1.75 1.75 1.75h9.5A1.75 1.75 0 0 0 14 12.25v-7.5A1.75 1.75 0 0 0 12.25 3ZM4.146 9.854A.5.5 0 0 0 5 9.5a.5.5 0 1 1 1 0A1.503 1.503 0 0 1 4.5 11 1.503 1.503 0 0 1 3 9.5v-2A1.503 1.503 0 0 1 4.5 6 1.503 1.503 0 0 1 6 7.5a.498.498 0 0 1-.5.5.498.498 0 0 1-.5-.5.5.5 0 1 0-1 0v2c0 .133.053.26.146.354ZM11.5 9a.498.498 0 0 1 .5.5.5.5 0 0 1-.5.5H11v.5a.498.498 0 0 1-.5.5.498.498 0 0 1-.5-.5V10H9v.5a.498.498 0 0 1-.5.5.498.498 0 0 1-.5-.5V10h-.5a.498.498 0 0 1-.5-.5.5.5 0 0 1 .5-.5H8V8h-.5a.498.498 0 0 1-.5-.5.5.5 0 0 1 .5-.5H8v-.5a.5.5 0 1 1 1 0V7h1v-.5a.5.5 0 1 1 1 0V7h.5a.498.498 0 0 1 .5.5.5.5 0 0 1-.5.5H11v1h.5Z"/></svg>