<svg xmlns="http://www.w3.org/2000/svg" width="24" height="24" viewBox="0 0 24 24"><path d="M3 6.25A3.25 3.25 0 0 1 6.25 3h11.5A3.25 3.25 0 0 1 21 6.25v5.658a1.405 1.405 0 0 0-.988-.791 5.078 5.078 0 0 0-.512-.085V8.5h-15v9.25c0 .966.784 1.75 1.75 1.75h5.676l-.186.186A2.517 2.517 0 0 0 11.044 21H6.25A3.25 3.25 0 0 1 3 17.75V6.25Zm16.5 0a1.75 1.75 0 0 0-1.75-1.75H6.25A1.75 1.75 0 0 0 4.5 6.25V7h15v-.75ZM12.075 21a1.52 1.52 0 0 1 .372-.607l2.73-2.73a4.074 4.074 0 0 1 4.622-5.57.414.414 0 0 1 .332.417.49.49 0 0 1-.147.346l-1.905 1.904a1.527 1.527 0 0 0 2.16 2.16l1.905-1.904c.255-.255.685-.168.762.185a4.075 4.075 0 0 1-5.57 4.622l-2.729 2.73A1.527 1.527 0 0 1 12.075 21Zm5.499 0h.146a5.378 5.378 0 0 1-.116-.03l-.03.03Z"/></svg>