<svg xmlns="http://www.w3.org/2000/svg" width="24" height="24" viewBox="0 0 24 24"><path d="M20.495 4a.45.45 0 0 0-.497-.497L7.937 4.843a.45.45 0 0 0-.269.766l1.798 1.797a.75.75 0 0 1 0 1.061l-5.834 5.834a.45.45 0 0 0 0 .636l5.429 5.43a.45.45 0 0 0 .636 0l5.834-5.834a.75.75 0 0 1 1.061 0l1.798 1.797a.45.45 0 0 0 .765-.268L20.495 4Zm-.663-1.988a1.95 1.95 0 0 1 2.154 2.154l-1.34 12.061c-.18 1.625-2.161 2.32-3.317 1.164l-1.267-1.267-5.304 5.303a1.95 1.95 0 0 1-2.758 0l-5.429-5.429a1.95 1.95 0 0 1 0-2.758l5.304-5.303-1.268-1.268c-1.156-1.156-.461-3.136 1.164-3.317l12.061-1.34Z"/></svg>