<svg xmlns="http://www.w3.org/2000/svg" width="28" height="28" viewBox="0 0 28 28"><path d="M22.75 24H5.25a3.25 3.25 0 0 1-3.245-3.066L2 20.75V6.25a2.25 2.25 0 0 1 2.096-2.245L4.25 4h15.5a2.25 2.25 0 0 1 2.245 2.096L22 6.25V7h1.75a2.25 2.25 0 0 1 2.245 2.096L26 9.25v11.5a3.25 3.25 0 0 1-3.066 3.245L22.75 24H5.25h17.5Zm-17.5-1.5h17.5a1.75 1.75 0 0 0 1.744-1.607l.006-.143V9.25a.75.75 0 0 0-.648-.743L23.75 8.5H22v10.75a.75.75 0 0 1-.648.743L21.25 20a.75.75 0 0 1-.743-.648l-.007-.102v-13a.75.75 0 0 0-.648-.743L19.75 5.5H4.25a.75.75 0 0 0-.743.648L3.5 6.25v14.5a1.75 1.75 0 0 0 1.606 1.744l.144.006h17.5-17.5Zm4.996-9.496c.69 0 1.25.56 1.25 1.25v3.496c0 .69-.56 1.25-1.25 1.25H6.75c-.69 0-1.25-.56-1.25-1.25v-3.496c0-.69.56-1.25 1.25-1.25h3.496ZM14.25 17.5h3.496a.75.75 0 0 1 .102 1.493l-.102.007H14.25a.75.75 0 0 1-.102-1.493l.102-.007h3.496-3.496Zm-4.253-2.996H7V17.5h2.997v-2.996Zm4.253-1.5h3.496a.75.75 0 0 1 .102 1.493l-.102.007H14.25a.75.75 0 0 1-.102-1.494l.102-.006h3.496-3.496ZM6.246 8.497h11.5a.75.75 0 0 1 .102 1.493l-.102.007h-11.5a.75.75 0 0 1-.101-1.493l.101-.007h11.5-11.5Z"/></svg>