<svg xmlns="http://www.w3.org/2000/svg" width="24" height="24" viewBox="0 0 24 24"><path d="M3.75 5a.75.75 0 0 0 0 1.5h16.5a.75.75 0 0 0 0-1.5H3.75Zm0 4a.75.75 0 0 0 0 1.5h16.5a.75.75 0 0 0 0-1.5H3.75ZM3 13.75a.75.75 0 0 1 .75-.75h9.06a6.52 6.52 0 0 0-1.078 1.5H3.75a.75.75 0 0 1-.75-.75Zm8 3.75c0-.168.006-.335.019-.5H3.75a.75.75 0 0 0 0 1.5h7.326a6.554 6.554 0 0 1-.076-1Zm12 0a5.5 5.5 0 1 1-11 0 5.5 5.5 0 0 1 11 0ZM18.529 14h-1.433a.5.5 0 0 0-.468.324l-1.125 3a.5.5 0 0 0 .469.676h.778l-.773 2.318a.518.518 0 0 0 .926.446l2.625-4.038a.47.47 0 0 0-.393-.726H18.5l.497-1.324a.5.5 0 0 0-.468-.676Z"/></svg>