<svg xmlns="http://www.w3.org/2000/svg" width="20" height="20"><path d="M5 3a3 3 0 0 0-3 3v7a3 3 0 0 0 3 3h4.386l.055-.059.942-.941H8.5V8H17v1.123a4.013 4.013 0 0 1 1 .409V6a3 3 0 0 0-3-3H5Zm12 4H8.5V4H15a2 2 0 0 1 2 2v1ZM5 4h2.5v11H5a2 2 0 0 1-2-2V6a2 2 0 0 1 2-2Zm5.5 15a.48.48 0 0 1-.352-.148A.48.48 0 0 1 10 18.5V17a.48.48 0 0 1 .148-.352l2.938-2.937a3.739 3.739 0 0 1-.086-.774c0-.406.08-.786.242-1.14.162-.354.38-.667.656-.938.277-.27.594-.479.954-.625A3.234 3.234 0 0 1 16 10c.417 0 .807.078 1.172.234.364.157.682.37.953.641a3.003 3.003 0 0 1 .016 4.227 2.866 2.866 0 0 1-2.078.898c-.183 0-.362-.013-.54-.04a2.66 2.66 0 0 1-.523-.132v.195c0 .073.003.149.008.227 0 .094-.005.185-.016.273a.65.65 0 0 1-.07.235.492.492 0 0 1-.156.172.457.457 0 0 1-.266.07H14c0 .245-.005.432-.016.563a.454.454 0 0 1-.117.296.468.468 0 0 1-.305.118c-.135.01-.322.018-.562.023v.266c0 .088-.005.174-.016.257a.864.864 0 0 1-.062.235.368.368 0 0 1-.149.172.569.569 0 0 1-.273.07h-2Zm7-6.75a.723.723 0 0 0-.219-.531.723.723 0 0 0-.531-.219.723.723 0 0 0-.531.219.723.723 0 0 0-.219.531c0 .208.073.385.219.531a.723.723 0 0 0 .531.219.723.723 0 0 0 .531-.219.723.723 0 0 0 .219-.531Z"/></svg>