<svg xmlns="http://www.w3.org/2000/svg" width="16" height="16"><path d="M5 1a2 2 0 0 0-2 2v9.998a2 2 0 0 0 2 2h1.046l.25-1H5a1 1 0 0 1-1-1V3a1 1 0 0 1 1-1h3v2.5A1.5 1.5 0 0 0 9.498 6h2.5v1.44a2.535 2.535 0 0 1 1-.405V5.413a1.5 1.5 0 0 0-.44-1.06L9.645 1.439A1.5 1.5 0 0 0 8.585 1H5Zm6.791 4H9.5a.5.5 0 0 1-.5-.5V2.206l2.792 2.792Zm1.207 3.06a1.56 1.56 0 0 0-.662.394L8.05 12.74a2.777 2.777 0 0 0-.722 1.257l-.009.033-.302 1.211a.61.61 0 0 0 .738.74l1.211-.303a2.776 2.776 0 0 0 1.29-.73l4.288-4.288a1.56 1.56 0 0 0-1.545-2.6Z"/></svg>