<svg xmlns="http://www.w3.org/2000/svg" width="16" height="16"><path d="M6.294 1.6 1.535 6.326a1.99 1.99 0 0 0 0 2.829l3.31 3.288c.207.205.447.357.704.454a5.5 5.5 0 0 1 7.428-7.31l.018-2.574A2.007 2.007 0 0 0 10.974 1l-3.264.014a2.02 2.02 0 0 0-1.416.585Zm4.058 3.058a.774.774 0 0 1-1.089 0 .761.761 0 0 1 0-1.082.774.774 0 0 1 1.09 0c.3.3.3.784 0 1.082ZM10.5 15a4.5 4.5 0 1 0 0-9 4.5 4.5 0 0 0 0 9Zm1.854-6.354a.5.5 0 0 1 0 .708L11.207 10.5l1.147 1.146a.5.5 0 0 1-.708.708L10.5 11.207l-1.146 1.147a.5.5 0 0 1-.708-.708L9.793 10.5 8.646 9.354a.5.5 0 1 1 .708-.708L10.5 9.793l1.146-1.147a.5.5 0 0 1 .708 0Z"/></svg>