<svg xmlns="http://www.w3.org/2000/svg" width="24" height="24" viewBox="0 0 24 24"><path d="M17.5 12a5.5 5.5 0 1 1 0 11 5.5 5.5 0 0 1 0-11Zm-6.423 4.498a6.475 6.475 0 0 0 1.555 5.309c-.208.125-.42.19-.63.19-1.197 0-2.401-2.094-3.038-5.204l-.058-.294h2.17Zm-3.704 0c.365 2.083.983 3.855 1.792 5.094A10.03 10.03 0 0 1 3.067 16.5h4.306ZM17.5 14l-.09.008a.5.5 0 0 0-.402.402L17 14.5V17h-2.502l-.09.008a.5.5 0 0 0-.402.402l-.008.09.008.09a.5.5 0 0 0 .402.402l.09.008H17v2.503l.008.09a.5.5 0 0 0 .402.402l.09.008.09-.008a.5.5 0 0 0 .402-.402l.008-.09V18l2.504.001.09-.008a.5.5 0 0 0 .402-.402l.008-.09-.008-.09a.5.5 0 0 0-.403-.402l-.09-.008H18v-2.5l-.008-.09a.5.5 0 0 0-.402-.403L17.5 14ZM7.07 10a28.205 28.205 0 0 0 .033 4.42l.057.58H2.458a10.048 10.048 0 0 1-.258-5h4.87Zm8.356 0c.034.428.056.868.068 1.316a6.523 6.523 0 0 0-3.995 3.683L8.676 15a25.973 25.973 0 0 1-.132-4.512l.033-.489h6.85Zm6.377 0a10.047 10.047 0 0 1 .17 2.784 6.48 6.48 0 0 0-4.988-1.763 12.513 12.513 0 0 0-.013-.365L16.933 10h4.87Zm-6.965-7.594a10.027 10.027 0 0 1 6.536 6.093h-4.591c-.296-2.265-.878-4.231-1.675-5.647l-.162-.276-.108-.17Zm-5.673 0c-.88 1.35-1.535 3.329-1.883 5.654l-.061.44H2.63a10.03 10.03 0 0 1 6.11-5.96l.303-.1.122-.036ZM12.002 2c1.318 0 2.645 2.542 3.213 6.183l.047.315H8.741C9.28 4.69 10.645 2 12 2Z"/></svg>