<svg xmlns="http://www.w3.org/2000/svg" width="24" height="24"><path d="M3 6.25A3.25 3.25 0 0 1 6.25 3h11.5A3.25 3.25 0 0 1 21 6.25V11h-1.5v-1h-4v1.243c-.23.149-.418.361-.54.619L14 13.905V10h-4v4h3.956l-.705 1.5H10v4h2.38c.268.302.66.5 1.118.5h1.723l-.25 1H6.25A3.25 3.25 0 0 1 3 17.75V6.25ZM6.25 4.5A1.75 1.75 0 0 0 4.5 6.25V8.5h4v-4H6.25ZM4.5 10v4h4v-4h-4Zm11-1.5h4V6.25a1.75 1.75 0 0 0-1.75-1.75H15.5v4Zm-1.5-4h-4v4h4v-4Zm-9.5 11v2.25c0 .966.784 1.75 1.75 1.75H8.5v-4h-4ZM16.317 12h4.827a.5.5 0 0 1 .436.745L19.75 16h1.495a.75.75 0 0 1 .565 1.244l-4.824 5.508c-.505.576-1.443.085-1.258-.657L16.5 19h-3.002a.5.5 0 0 1-.453-.713l2.82-6a.5.5 0 0 1 .453-.287Z"/></svg>