<svg xmlns="http://www.w3.org/2000/svg" width="48" height="48" viewBox="0 0 48 48"><path d="M14 6a5 5 0 0 0-5 5v8.05c0 .767-.068 1.34-.376 1.846-.293.483-.946 1.13-2.598 1.68a1.5 1.5 0 0 0 0 2.847c1.648.55 2.266 1.182 2.558 1.727.334.624.416 1.43.416 2.733V37a5 5 0 0 0 5 5h.5a1.5 1.5 0 0 0 0-3H14a2 2 0 0 1-2-2v-7.117c0-1.28-.043-2.79-.772-4.15a5.493 5.493 0 0 0-1.457-1.724 5.665 5.665 0 0 0 1.417-1.556c.755-1.243.812-2.52.812-3.403V11a2 2 0 0 1 2-2h.5a1.5 1.5 0 0 0 0-3H14Zm20 0a5 5 0 0 1 5 5v8.05c0 .767.069 1.34.376 1.846.293.483.946 1.13 2.598 1.68a1.5 1.5 0 0 1 0 2.847c-1.648.55-2.266 1.182-2.558 1.727-.334.624-.416 1.43-.416 2.733V37a5 5 0 0 1-5 5h-.5a1.5 1.5 0 0 1 0-3h.5a2 2 0 0 0 2-2v-7.117c0-1.28.043-2.79.772-4.15a5.492 5.492 0 0 1 1.457-1.724 5.664 5.664 0 0 1-1.417-1.556C36.057 21.21 36 19.933 36 19.05V11a2 2 0 0 0-2-2h-.5a1.5 1.5 0 0 1 0-3h.5Z"/></svg>