<svg xmlns="http://www.w3.org/2000/svg" width="16" height="16"><path d="M1 4.5A2.5 2.5 0 0 1 3.5 2h7A2.5 2.5 0 0 1 13 4.5v2H6V11h2.383l-1 1H3.5A2.5 2.5 0 0 1 1 9.5v-5Zm5 1h6v-1A1.5 1.5 0 0 0 10.5 3H6v2.5ZM7.5 16a.48.48 0 0 1-.352-.148A.48.48 0 0 1 7 15.5V14a.48.48 0 0 1 .148-.352l2.938-2.937A3.739 3.739 0 0 1 10 9.937c0-.406.08-.786.242-1.14.162-.354.38-.667.656-.938.277-.27.594-.479.954-.625A3.25 3.25 0 0 1 13 7c.417 0 .807.078 1.172.234.364.157.682.37.953.641.27.27.484.589.64.953.157.365.235.755.235 1.172 0 .401-.075.781-.227 1.14-.15.36-.361.68-.632.962a2.866 2.866 0 0 1-2.078.898c-.183 0-.363-.013-.54-.04a2.66 2.66 0 0 1-.523-.132v.195c0 .073.003.149.008.227 0 .094-.005.185-.016.273a.65.65 0 0 1-.07.235.492.492 0 0 1-.156.172.457.457 0 0 1-.266.07H11c0 .245-.005.432-.016.563a.454.454 0 0 1-.117.296.468.468 0 0 1-.305.118c-.135.01-.322.018-.562.023v.266c0 .088-.005.174-.016.257a.864.864 0 0 1-.062.235.367.367 0 0 1-.149.172.569.569 0 0 1-.273.07h-2Zm7-6.75a.723.723 0 0 0-.219-.531.723.723 0 0 0-.531-.219.723.723 0 0 0-.531.219.723.723 0 0 0-.219.531c0 .208.073.385.219.531a.723.723 0 0 0 .531.219.723.723 0 0 0 .531-.219.723.723 0 0 0 .219-.531Z"/></svg>