<svg xmlns="http://www.w3.org/2000/svg" width="16" height="16"><path d="M10.75 4.5a2.75 2.75 0 1 0-5.5 0 2.75 2.75 0 0 0 5.5 0Zm-4.5 0a1.75 1.75 0 1 1 3.5 0 1.75 1.75 0 0 1-3.5 0Zm.801 8.674 1.079 1.075-.13.001c-3.14 0-5-2.029-5-4v-.5a1.5 1.5 0 0 1 1.5-1.5h4.18c-.083.055-.162.12-.236.193l-.81.807H4.5a.5.5 0 0 0-.5.5v.5c0 1.25 1.082 2.593 3.051 2.924Zm.096-1.317a.5.5 0 0 1 0-.708L9.15 9.151a.5.5 0 1 1 .706.708L8.71 11.002h4.581l-1.145-1.144a.5.5 0 1 1 .707-.707l2 1.999a.5.5 0 0 1 0 .707l-2 1.997a.5.5 0 1 1-.706-.708l1.146-1.144H8.709l1.147 1.144a.5.5 0 0 1-.706.708l-2.003-1.997Z"/></svg>