<svg xmlns="http://www.w3.org/2000/svg" width="20" height="20"><path d="M12.5 3a2.5 2.5 0 0 0 0 5h.5a.5.5 0 0 0 0-1h-.5a1.5 1.5 0 0 1 0-3h.5a.5.5 0 0 0 0-1h-.5ZM16 3a.5.5 0 0 0 0 1h.5a1.5 1.5 0 0 1 0 3H16a.5.5 0 0 0 0 1h.5a2.5 2.5 0 0 0 0-5H16Zm-4 2.5a.5.5 0 0 1 .5-.5h4a.5.5 0 0 1 0 1h-4a.5.5 0 0 1-.5-.5Zm-2 5.42L13.263 9h1.971l-4.98 2.931a.5.5 0 0 1-.426.038l-.082-.038L3 7.963V14.5A1.5 1.5 0 0 0 4.5 16h11a1.5 1.5 0 0 0 1.5-1.5V8.965c.353-.051.69-.154 1-.302V14.5a2.5 2.5 0 0 1-2.5 2.5h-11A2.5 2.5 0 0 1 2 14.5v-8A2.5 2.5 0 0 1 4.5 4h4.837c-.148.31-.251.647-.302 1H4.5A1.5 1.5 0 0 0 3 6.5v.302l7 4.118Z"/></svg>