<svg xmlns="http://www.w3.org/2000/svg" width="28" height="28"><path d="M10 6a4 4 0 1 1 7.947.653 3.001 3.001 0 0 1 1.037 5.097A3 3 0 0 1 17 17h-2.25v5.69l4.47-4.47a.75.75 0 1 1 1.06 1.06l-5.53 5.53v1.44a.75.75 0 0 1-1.5 0v-1.44l-5.53-5.53a.75.75 0 1 1 1.06-1.06l4.47 4.47V17H11a3 3 0 0 1-1.984-5.25 3.001 3.001 0 0 1 1.037-5.097A4.015 4.015 0 0 1 10 6Zm1 5a.75.75 0 0 1 0 1.5 1.5 1.5 0 0 0 0 3h6a1.5 1.5 0 0 0 0-3 .75.75 0 0 1 0-1.5 1.5 1.5 0 0 0 0-3 .75.75 0 0 1-.691-1.039 2.5 2.5 0 1 0-4.617 0A.75.75 0 0 1 10.998 8 1.5 1.5 0 0 0 11 11Z"/></svg>