<svg xmlns="http://www.w3.org/2000/svg" width="24" height="24" viewBox="0 0 24 24"><path d="M13.75 2h-3.5a2.25 2.25 0 0 0-2.236 2H6.25A2.25 2.25 0 0 0 4 6.25v3.85a5.5 5.5 0 0 1 7.25 7.675l2.237 2.238A1.75 1.75 0 0 1 13.832 22h3.918A2.25 2.25 0 0 0 20 19.75V6.25A2.25 2.25 0 0 0 17.75 4h-1.764a2.25 2.25 0 0 0-2.236-2Zm-3.5 1.5h3.5a.75.75 0 0 1 0 1.5h-3.5a.75.75 0 0 1 0-1.5Zm-.3 14.39a4.5 4.5 0 1 0-1.145.976l2.915 2.914a.75.75 0 1 0 1.06-1.06l-2.83-2.83ZM6.5 18a3 3 0 1 1 0-6 3 3 0 0 1 0 6Z"/></svg>