<svg xmlns="http://www.w3.org/2000/svg" width="28" height="28"><path d="M22.993 6.008A3.243 3.243 0 0 1 24.5 8.75v10.5c0 2.9-2.35 5.25-5.25 5.25H8.75a3.247 3.247 0 0 1-2.744-1.508l.122.006.122.002h13A3.75 3.75 0 0 0 23 19.25v-13a4.32 4.32 0 0 0-.007-.242ZM6 14.5a2.5 2.5 0 1 1 5 0 2.5 2.5 0 0 1-5 0Zm2.5-1a1 1 0 1 0 0 2 1 1 0 0 0 0-2Z"/><path d="M13 14.25a.75.75 0 0 1 .75-.75h5a.75.75 0 0 1 0 1.5h-5a.75.75 0 0 1-.75-.75Zm-7-5a.75.75 0 0 1 .75-.75h12a.75.75 0 0 1 0 1.5h-12A.75.75 0 0 1 6 9.25Z"/><path d="M18.75 3A3.25 3.25 0 0 1 22 6.25v12.5A3.25 3.25 0 0 1 18.75 22H6.25A3.25 3.25 0 0 1 3 18.75V6.25A3.25 3.25 0 0 1 6.25 3h12.5Zm0 17.5a1.749 1.749 0 0 0 1.75-1.75V6.25a1.75 1.75 0 0 0-1.75-1.75H6.25A1.75 1.75 0 0 0 4.5 6.25v12.5a1.747 1.747 0 0 0 1.75 1.75h12.5Z"/></svg>