<svg xmlns="http://www.w3.org/2000/svg" width="20" height="20" viewBox="0 0 20 20"><path d="M8.5 8.5a1 1 0 1 1-1.54-.842l-1.217-.73a.5.5 0 0 1 .514-.857l2.502 1.5a.5.5 0 0 1-.259.93Zm5 0a1 1 0 1 1-2 0 .5.5 0 0 1-.256-.929l2.498-1.5a.5.5 0 0 1 .515.858l-1.216.73a1 1 0 0 1 .459.841Zm.062 4.89a.5.5 0 0 1-.7-.075l-.003-.003a1.942 1.942 0 0 0-.137-.137 3.075 3.075 0 0 0-.507-.37c-.461-.27-1.187-.555-2.213-.555s-1.753.284-2.216.556a3.088 3.088 0 0 0-.508.37 1.92 1.92 0 0 0-.138.137l-.003.003a.5.5 0 0 1-.777-.63l.39.314-.39-.313v-.001l.002-.001.002-.002.005-.006.014-.018.049-.054c.04-.043.098-.102.174-.17.152-.138.375-.315.674-.491.6-.353 1.5-.694 2.722-.694 1.221 0 2.12.34 2.72.694.3.176.522.353.673.49a2.877 2.877 0 0 1 .222.226l.015.017.005.006.002.003c0 .001.001.002-.389.314l.39-.312a.5.5 0 0 1-.078.702ZM10 2a8 8 0 1 0 0 16 8 8 0 0 0 0-16Zm-7 8a7 7 0 1 1 14 0 7 7 0 0 1-14 0Z"/></svg>