<svg xmlns="http://www.w3.org/2000/svg" width="24" height="24" viewBox="0 0 24 24"><path d="M12.004 1.95a1 1 0 0 1 1.094-.896A10.94 10.94 0 0 1 18 2.78V2.5a1 1 0 1 1 2 0V5a1 1 0 0 1-1 1h-2.5a1 1 0 0 1-.29-1.957 8.936 8.936 0 0 0-3.31-.999 1 1 0 0 1-.896-1.093ZM6 21.5v-.279a10.94 10.94 0 0 0 4.9 1.725 1 1 0 1 0 .198-1.99 8.938 8.938 0 0 1-3.308-.999A1 1 0 0 0 7.5 18H5a1 1 0 0 0-1 1v2.5a1 1 0 1 0 2 0ZM16.952 8.303a1 1 0 1 0-1.905-.606 13.22 13.22 0 0 0-.324 1.343c-.565.013-1.12 0-1.652-.037a1 1 0 0 0-.143 1.995c.46.032.934.048 1.417.047a25.577 25.577 0 0 0-.24 1.697c-1.263.716-2.142 1.684-2.637 2.701-.624 1.283-.7 2.856.24 3.882.675.737 1.704.759 2.499.59.322-.07.654-.177.988-.321a1 1 0 0 0 1.746-.93 16.121 16.121 0 0 0-.041-.115 8.404 8.404 0 0 0 2.735-4.06c.285.251.507.549.658.864.284.594.334 1.27.098 1.91-.233.633-.78 1.313-1.839 1.843a1 1 0 1 0 .895 1.788c1.44-.72 2.385-1.757 2.82-2.94a4.436 4.436 0 0 0-.17-3.464 4.752 4.752 0 0 0-2.103-2.164A9.02 9.02 0 0 0 20 12a1 1 0 0 0-1.974-.23 5.981 5.981 0 0 0-1.796.138c.047-.305.102-.626.166-.964a20.135 20.135 0 0 0 2.842-.473 1 1 0 1 0-.476-1.942c-.623.152-1.286.272-1.964.358.047-.209.099-.409.154-.584Zm-3.685 8.015c.165-.34.414-.697.758-1.038.02.348.053.671.098.973.083.56.207 1.049.341 1.478a3.412 3.412 0 0 1-.674.227c-.43.091-.588.018-.614.006l-.004-.001c-.162-.194-.329-.774.095-1.645Zm4.498-2.563a6.363 6.363 0 0 1-1.568 2.73 7.76 7.76 0 0 1-.096-.524 10.305 10.305 0 0 1-.087-1.905 6.47 6.47 0 0 1 .1-.036l1.65-.264ZM3.08 5.621a6.342 6.342 0 0 1 4.456-.331h.003c.638.188 1.153.484 1.547.881.394.398.624.852.755 1.29.202.678.18 1.422.168 1.838a5.73 5.73 0 0 0-.005.201v5.503a1 1 0 0 1-1.96.282 8.566 8.566 0 0 1-.08.039c-.964.462-2.397.92-3.877.507-1.632-.457-2.453-1.81-2.572-3.136-.114-1.28.41-2.736 1.682-3.448 1.529-.855 3.116-.839 4.262-.64.196.034.382.073.555.116a2.45 2.45 0 0 0-.09-.689 1.046 1.046 0 0 0-.258-.454c-.121-.122-.325-.263-.69-.37a4.342 4.342 0 0 0-3.048.222 1 1 0 0 1-.848-1.811Zm4.037 4.956c-.884-.153-1.956-.137-2.943.416-.424.237-.729.83-.667 1.523.058.647.421 1.193 1.119 1.389.79.22 1.681-.005 2.473-.385.367-.176.68-.37.905-.523V10.8a6.321 6.321 0 0 0-.887-.222Z"/></svg>