<svg xmlns="http://www.w3.org/2000/svg" width="32" height="32"><path d="M8.222 4.36a14 14 0 1 1 15.556 23.28A14 14 0 0 1 8.222 4.36ZM8.3 20.6c-.8 1.07-.55 3.11-.39 4.24a11.92 11.92 0 0 0 14.49 1.28 3.75 3.75 0 0 1-1.9-2.42c-.36-1.79.83-2.91 1.73-3.74.9-.83 1.11-1.14 1-1.52-.247.032-.49.082-.73.15a2.13 2.13 0 0 1-2.08-.17 1.68 1.68 0 0 1-.42-1.59 4 4 0 0 0-1.07-2.93c-.67-.95-1.68-2.39-.3-3.64a21.74 21.74 0 0 0 3.76-4.4A11.92 11.92 0 0 0 16 4h-.37l.05.18.059.107c.834 1.52 1.738 3.166 1.191 5.443-.436 1.823-2.139 2.4-3.405 2.828l-.035.012a4.45 4.45 0 0 0-1.23.53c-.5.67-.36 1.34-.1 2.34a3.642 3.642 0 0 1-.16 3.11 2.62 2.62 0 0 1-2 1.13 2 2 0 0 0-1.7.92Z"/></svg>