<svg xmlns="http://www.w3.org/2000/svg" width="28" height="28" viewBox="0 0 28 28"><path d="M11.5 4c1.005 0 1.904.456 2.5 1.173A3.243 3.243 0 0 1 16.5 4h7.75c.966 0 1.75.784 1.75 1.75v16.5A1.75 1.75 0 0 1 24.25 24H16.5a3.244 3.244 0 0 1-2.5-1.173A3.244 3.244 0 0 1 11.5 24H3.75A1.75 1.75 0 0 1 2 22.25V5.75C2 4.784 2.784 4 3.75 4h7.75Zm1.75 16.75V7.25A1.75 1.75 0 0 0 11.5 5.5H3.75a.25.25 0 0 0-.25.25v16.5c0 .138.112.25.25.25h7.75a1.75 1.75 0 0 0 1.75-1.75Zm1.5-13.5v13.5c0 .966.784 1.75 1.75 1.75h7.75a.25.25 0 0 0 .25-.25V5.75a.25.25 0 0 0-.25-.25H16.5a1.75 1.75 0 0 0-1.75 1.75Z"/></svg>