<svg xmlns="http://www.w3.org/2000/svg" width="48" height="48" viewBox="0 0 48 48"><path d="M46 13c0-6.075-4.925-11-11-11S24 6.925 24 13s4.925 11 11 11 11-4.925 11-11Zm-4.293-4.707a1 1 0 0 1 0 1.414l-8 8a1 1 0 0 1-1.414 0l-4-4a1 1 0 0 1 1.414-1.414L33 15.586l7.293-7.293a1 1 0 0 1 1.414 0ZM41.5 28.75v-4.49a13.044 13.044 0 0 0 2.5-1.88v6.37A7.25 7.25 0 0 1 36.75 36H26.397l-10.85 7.658C14.057 44.71 12 43.644 12 41.82V36h-.75A7.25 7.25 0 0 1 4 28.75v-15.5A7.25 7.25 0 0 1 11.25 6h12.794c-.5.78-.919 1.618-1.244 2.5H11.25a4.75 4.75 0 0 0-4.75 4.75v15.5a4.75 4.75 0 0 0 4.75 4.75h3.25v7.838L25.603 33.5H36.75a4.75 4.75 0 0 0 4.75-4.75Z"/></svg>