<svg xmlns="http://www.w3.org/2000/svg" width="24" height="24"><path d="M13.923 2.785a2.75 2.75 0 0 0-3.846 0l-7.1 6.944A3.25 3.25 0 0 0 2 12.052v6.698A2.25 2.25 0 0 0 4.25 21h6.04a24.383 24.383 0 0 1-1.035-1.5H4.25a.75.75 0 0 1-.75-.75v-6.698c0-.47.19-.922.526-1.251l.932-.911c1.161.775 2.275 1.115 3.37 1.152 1.202.041 2.319-.285 3.361-.678.438-.165.845-.332 1.242-.497.604-.25 1.189-.491 1.836-.702 1.002-.327 2.012-.523 3.1-.424l2.107 2.06c.336.33.526.78.526 1.251v6.698a.75.75 0 0 1-.75.75h-5.005A24.387 24.387 0 0 1 13.71 21h6.04A2.25 2.25 0 0 0 22 18.75v-6.698a3.25 3.25 0 0 0-.977-2.323l-7.1-6.944Zm-2.797 1.072a1.25 1.25 0 0 1 1.748 0l3.49 3.413c-.728.084-1.413.257-2.062.469-.681.222-1.384.51-2.04.78-.388.16-.76.313-1.101.442-.983.37-1.878.613-2.782.582-.716-.025-1.477-.222-2.32-.73l5.067-4.956Zm.138 16.774a.92.92 0 0 0 .79.369.92.92 0 0 0 .682-.369c.247-.325.531-.715.814-1.131.733-1.082 1.45-2.347 1.45-3.157C15 14.686 13.657 13 12 13s-3 1.686-3 3.343c0 .81.717 2.075 1.45 3.157.283.416.567.806.814 1.131ZM13.5 16a1.5 1.5 0 1 1-3 0 1.5 1.5 0 0 1 3 0Z"/></svg>