<svg xmlns="http://www.w3.org/2000/svg" width="20" height="20"><path d="M4 2a2 2 0 0 0-2 2v10a2 2 0 0 0 2 2h5.476c.152-.501.426-.958.798-1.33l1.845-1.846A.498.498 0 0 1 12 12.5v-7a.5.5 0 0 1 1 0v6.444l2.103-2.103c.266-.266.571-.47.897-.609V4a2 2 0 0 0-2-2H4Zm5 7a.5.5 0 0 1 .5.5v3a.5.5 0 0 1-1 0v-3A.5.5 0 0 1 9 9ZM5 7.5a.5.5 0 0 1 1 0v5a.5.5 0 0 1-1 0v-5Zm5.98 7.877 4.83-4.83a1.87 1.87 0 1 1 2.645 2.646l-4.83 4.829a2.197 2.197 0 0 1-1.02.578l-1.498.374a.89.89 0 0 1-1.079-1.078l.375-1.498a2.18 2.18 0 0 1 .578-1.02Z"/></svg>