<svg xmlns="http://www.w3.org/2000/svg" width="32" height="32"><path d="M9 2a4 4 0 0 0-4 4v20a4 4 0 0 0 4 4h6.017a3.254 3.254 0 0 1-1.43-2H9a2 2 0 0 1-2-2V6a2 2 0 0 1 2-2h14a2 2 0 0 1 2 2v9.5h.5c.537 0 1.045.12 1.5.337V6a4 4 0 0 0-4-4H9Zm10.5 13.5H23V7.25C23 6.56 22.44 6 21.75 6h-11.5C9.56 6 9 6.56 9 7.25v17.5c0 .69.56 1.25 1.25 1.25h3.25v-3.75a3.75 3.75 0 0 1 2.512-3.54A3.5 3.5 0 0 1 19.5 15.5Zm0 1.5a2 2 0 0 0-2 2v1h-.25A2.25 2.25 0 0 0 15 22.25v5c0 .966.784 1.75 1.75 1.75h.75a2 2 0 0 0 2 2h6a2 2 0 0 0 2-2h.75A1.75 1.75 0 0 0 30 27.25v-5A2.25 2.25 0 0 0 27.75 20h-.25v-1a2 2 0 0 0-2-2h-6Zm-.5 3v-1a.5.5 0 0 1 .5-.5h6a.5.5 0 0 1 .5.5v1h-7Zm0 6.5a.5.5 0 0 1 .5-.5h6a.5.5 0 0 1 .5.5V29a.5.5 0 0 1-.5.5h-6a.5.5 0 0 1-.5-.5v-2.5Z"/></svg>