<svg xmlns="http://www.w3.org/2000/svg" width="20" height="20"><path d="M11 7c2.465 0 3.863 1.574 4.066 3.474h.062c1.586 0 2.872 1.237 2.872 2.763C18 14.763 16.714 16 15.128 16H6.872C5.286 16 4 14.763 4 13.237c0-1.526 1.286-2.763 2.872-2.763h.062C7.139 8.561 8.535 7 11 7Zm0 1c-1.65 0-3.087 1.27-3.087 3.025 0 .278-.254.496-.545.496h-.55C5.814 11.521 5 12.3 5 13.261 5 14.22 5.814 15 6.818 15h8.364C16.186 15 17 14.221 17 13.26c0-.96-.814-1.739-1.818-1.739h-.55c-.29 0-.545-.218-.545-.496C14.087 9.248 12.65 8 11 8ZM8.392 4c1.456 0 2.726.828 3.353 2.045a6.055 6.055 0 0 0-1.284-.022A2.647 2.647 0 0 0 8.375 5a2.67 2.67 0 0 0-2.62 2.225l-.037.21a1 1 0 0 1-.986.83h-.258C3.66 8.265 3 8.933 3 9.757c0 .57.315 1.065.778 1.316-.214.272-.39.576-.52.902a2.622 2.622 0 0 1 1.2-4.856l.221-.005A3.77 3.77 0 0 1 8.392 4Z"/></svg>