<svg xmlns="http://www.w3.org/2000/svg" width="24" height="24" viewBox="0 0 24 24"><path d="M8 2.75A.75.75 0 0 1 8.75 2h1.5a.75.75 0 0 1 .75.75V3h1.25a.75.75 0 0 1 .75.75v1.785c.008 0 .017 0 .025.002A8.25 8.25 0 0 1 16.994 20.5h3.256a.75.75 0 0 1 0 1.5H3.75a.75.75 0 0 1 0-1.5h8.527A6.75 6.75 0 0 0 13 7.042v5.208a.75.75 0 0 1-.75.75h-.75v1a2 2 0 1 1-4 0v-1h-.75a.75.75 0 0 1-.75-.75v-8.5A.75.75 0 0 1 6.75 3H8v-.25ZM9 13v1a.5.5 0 0 0 1 0v-1H9Zm-3.25 4.5a.75.75 0 0 0 0 1.5h7.5a.75.75 0 0 0 0-1.5h-7.5Z"/></svg>