<svg xmlns="http://www.w3.org/2000/svg" width="32" height="32"><path d="M6.5 4A4.5 4.5 0 0 0 2 8.5v15A4.5 4.5 0 0 0 6.5 28h19a4.5 4.5 0 0 0 4.5-4.5v-15A4.5 4.5 0 0 0 25.5 4h-19ZM9 16c0 1.787 1.24 3 2.5 3a2.17 2.17 0 0 0 1.274-.421 1 1 0 1 1 1.164 1.626A4.17 4.17 0 0 1 11.5 21C8.893 21 7 18.632 7 16s1.893-5 4.5-5c.95 0 1.822.326 2.536.867a1 1 0 1 1-1.208 1.594A2.183 2.183 0 0 0 11.5 13C10.24 13 9 14.213 9 16Zm12.5-3c-1.26 0-2.5 1.213-2.5 3s1.24 3 2.5 3a2.17 2.17 0 0 0 1.274-.421 1 1 0 1 1 1.164 1.626A4.17 4.17 0 0 1 21.5 21c-2.607 0-4.5-2.368-4.5-5s1.893-5 4.5-5c.95 0 1.822.326 2.536.867a1 1 0 1 1-1.208 1.594A2.183 2.183 0 0 0 21.5 13Z"/></svg>