<svg xmlns="http://www.w3.org/2000/svg" width="16" height="16" viewBox="0 0 16 16"><path d="M2 4a2 2 0 0 1 2-2h8a2 2 0 0 1 2 2v2h-2.073l-.585-1.17a1.5 1.5 0 0 0-2.684 0l-.506 1.012-.76-1.9a1.5 1.5 0 0 0-2.734-.113L3.573 6H2V4Zm9 5h3v.997a2 2 0 0 1-2 2h-1.997v1.01h1.5a.5.5 0 1 1 0 1l-6.997.001a.5.5 0 0 1 0-1h1.499v-1.01H4a2 2 0 0 1-2-2V9h2.5a1.5 1.5 0 0 0 1.342-.83l.006-.012.76 1.9a1.5 1.5 0 0 0 2.734.113l.741-1.484A1.5 1.5 0 0 0 11 9Zm-1.997 4.008v-1.01H7.005v1.01h1.998ZM6.464 4.314a.5.5 0 0 0-.911-.038L4.19 7H2.485a.5.5 0 0 0 0 1H4.5a.5.5 0 0 0 .447-.276L5.95 5.719l1.587 3.967a.5.5 0 0 0 .911.038L10 6.618l.553 1.106A.5.5 0 0 0 11 8h2.5a.5.5 0 0 0 0-1h-2.191l-.862-1.724a.5.5 0 0 0-.894 0L8.05 8.281 6.464 4.314Z"/></svg>