<svg xmlns="http://www.w3.org/2000/svg" width="24" height="24" viewBox="0 0 24 24"><path d="M8.78 1.22a.75.75 0 0 0-1.06 1.06l.72.72H6.25A3.25 3.25 0 0 0 3 6.25v2.19l-.72-.72a.75.75 0 0 0-1.06 1.06l2 2a.75.75 0 0 0 1.06 0l2-2a.75.75 0 0 0-1.06-1.06l-.72.72V6.25c0-.966.784-1.75 1.75-1.75h2.19l-.72.72a.75.75 0 0 0 1.06 1.06l2-2a.75.75 0 0 0 0-1.06l-2-2ZM14.5 8H9.502V6.973l1.985-1.986A1.75 1.75 0 0 0 11.832 3H14.5v5ZM3 11.832V14.5h5v-5H6.975l-1.988 1.987A1.75 1.75 0 0 1 3 11.832ZM14.5 14.5v-5h-5v5h5Zm1.5 0v-5h5v5h-5ZM16 8h5V6.25A3.25 3.25 0 0 0 17.75 3H16v5Zm-1.5 13v-5h-5v5h5ZM8 16H3v1.75A3.25 3.25 0 0 0 6.25 21H8v-5Zm8 0h5v1.75A3.25 3.25 0 0 1 17.75 21H16v-5Z"/></svg>