<svg xmlns="http://www.w3.org/2000/svg" width="20" height="20" viewBox="0 0 20 20"><path d="M6 2a2 2 0 0 0-2 2v5.401a2.98 2.98 0 0 1 1-.36V4a1 1 0 0 1 1-1h4v3.5A1.5 1.5 0 0 0 11.5 8H15v8a1 1 0 0 1-1 1h-4v1h4a2 2 0 0 0 2-2V7.414a1.5 1.5 0 0 0-.44-1.06l-3.914-3.915A1.5 1.5 0 0 0 10.586 2H6Zm8.793 5H11.5a.5.5 0 0 1-.5-.5V3.207L14.793 7ZM3.5 12v1H3a1 1 0 0 0-1 1v4a1 1 0 0 0 1 1h5a1 1 0 0 0 1-1v-4a1 1 0 0 0-1-1h-.5v-1a2 2 0 1 0-4 0Zm1 1v-1a1 1 0 1 1 2 0v1h-2Zm1 2.25a.75.75 0 1 1 0 1.5.75.75 0 0 1 0-1.5Z"/></svg>