<svg xmlns="http://www.w3.org/2000/svg" width="16" height="16"><path d="M9.437 1.942a.6.6 0 0 0-.83.018L1.991 8.576a.6.6 0 0 0 0 .849l.926.926a.07.07 0 0 0 .024.003c.03 0 .07-.011.108-.036a1.9 1.9 0 0 1 2.635 2.635.205.205 0 0 0-.036.108c0 .013.002.02.003.023l.904.905a.6.6 0 0 0 .862-.013l6.599-7.012a.6.6 0 0 0-.032-.853l-.886-.813h-.003a.111.111 0 0 0-.043 0 .278.278 0 0 0-.147.083 1.9 1.9 0 1 1-2.8-2.568.277.277 0 0 0 .069-.154.11.11 0 0 0-.004-.045l-.733-.672Zm-1.395-.548a1.4 1.4 0 0 1 1.936-.042l.733.673c.219.2.28.473.26.706-.021.23-.122.455-.278.624a1.1 1.1 0 1 0 1.622 1.487c.155-.17.37-.29.597-.331a.842.842 0 0 1 .726.197l.887.813a1.4 1.4 0 0 1 .073 1.991L8 14.524a1.4 1.4 0 0 1-2.01.03l-.904-.904c-.347-.347-.263-.847-.067-1.14a1.1 1.1 0 0 0-1.525-1.525c-.295.195-.794.279-1.141-.069l-.926-.926a1.4 1.4 0 0 1 0-1.98l6.616-6.616Z"/></svg>