<svg xmlns="http://www.w3.org/2000/svg" width="20" height="20" viewBox="0 0 20 20"><path d="M10 5.5a4.5 4.5 0 1 1-9 0 4.5 4.5 0 0 1 9 0Zm-4-2a.5.5 0 0 0-1 0V5H3.5a.5.5 0 0 0 0 1H5v1.5a.5.5 0 0 0 1 0V6h1.5a.5.5 0 0 0 0-1H6V3.5ZM5.5 11a5.5 5.5 0 0 0 4.9-8H14a3 3 0 0 1 3 3v8c0 .65-.206 1.25-.557 1.742l-5.39-5.308a1.5 1.5 0 0 0-2.105 0l-5.39 5.308A2.986 2.986 0 0 1 3 14v-3.6c.75.384 1.6.6 2.5.6Zm7-3a.5.5 0 1 0 0-1 .5.5 0 0 0 0 1Zm0 1a1.5 1.5 0 1 0 0-3 1.5 1.5 0 0 0 0 3Zm-8.235 7.448C4.755 16.796 5.354 17 6 17h8c.646 0 1.245-.204 1.735-.552l-5.384-5.3a.5.5 0 0 0-.702 0l-5.384 5.3Z"/></svg>