<svg xmlns="http://www.w3.org/2000/svg" width="16" height="16" viewBox="0 0 16 16"><path d="M5.961 2.308a.5.5 0 0 0-.923 0L3.376 6.297a.517.517 0 0 0-.009.021l-.829 1.99a.5.5 0 1 0 .924.384L4.167 7h2.666l.705 1.692a.5.5 0 0 0 .923-.385l-.813-1.95a.497.497 0 0 0-.04-.096L5.961 2.308ZM5.5 3.8 6.416 6H4.583L5.5 3.8Zm-.147 6.346a.5.5 0 1 0-.706.708l.646.646H2.5a.5.5 0 0 0 0 1h2.792l-.646.647a.5.5 0 1 0 .708.706l1.5-1.5a.5.5 0 0 0 0-.708l-1.5-1.499ZM10.5 9a.5.5 0 0 0 .461-.308l2.5-6a.5.5 0 1 0-.922-.384L10.498 7.2 8.462 2.308a.5.5 0 1 0-.923.385l2.5 6A.5.5 0 0 0 10.5 9Zm.854 4.853a.5.5 0 0 1-.707 0l-1.5-1.498a.5.5 0 0 1 0-.707l1.5-1.501a.5.5 0 1 1 .707.706l-.646.647H13.5a.5.5 0 0 1 0 1h-2.793l.646.646a.5.5 0 0 1 0 .707Z"/></svg>