<svg xmlns="http://www.w3.org/2000/svg" width="16" height="16" viewBox="0 0 16 16"><path d="M8 2a.5.5 0 0 1 .5.5v1a.5.5 0 0 1-1 0v-1A.5.5 0 0 1 8 2Zm0 9a3 3 0 1 0 0-6 3 3 0 0 0 0 6Zm0-1a2 2 0 1 1 0-4 2 2 0 0 1 0 4Zm5.5-1.5a.5.5 0 0 0 0-1h-1a.5.5 0 0 0 0 1h1ZM8 12a.5.5 0 0 1 .5.5v1a.5.5 0 0 1-1 0v-1A.5.5 0 0 1 8 12ZM3.5 8.5a.5.5 0 0 0 0-1h-1a.5.5 0 0 0 0 1h1Zm.146-4.853a.5.5 0 0 1 .708 0l.5.5a.5.5 0 1 1-.708.707l-.5-.5a.5.5 0 0 1 0-.707Zm.708 8.707a.5.5 0 1 1-.708-.707l.5-.5a.5.5 0 1 1 .708.707l-.5.5Zm8-8.707a.5.5 0 0 0-.708 0l-.5.5a.5.5 0 0 0 .708.707l.5-.5a.5.5 0 0 0 0-.707Zm-1.208 8.207.5.5a.5.5 0 0 0 .708-.707l-.5-.5a.5.5 0 0 0-.708.707Z"/></svg>