<svg xmlns="http://www.w3.org/2000/svg" width="16" height="16" viewBox="0 0 16 16"><path d="M2 11.5V6h12v5.5a2.5 2.5 0 0 1-2.5 2.5h-7A2.5 2.5 0 0 1 2 11.5Zm8.003-3.252a.748.748 0 1 0 1.497 0 .748.748 0 0 0-1.497 0Zm0 2.5a.748.748 0 1 0 1.497 0 .748.748 0 0 0-1.497 0Zm-2.752-2.5a.748.748 0 1 0 1.497 0 .748.748 0 0 0-1.497 0Zm0 2.5a.748.748 0 1 0 1.497 0 .748.748 0 0 0-1.497 0Zm-2.748-2.5a.748.748 0 1 0 1.497 0 .748.748 0 0 0-1.497 0ZM2 4.5A2.5 2.5 0 0 1 4.5 2h7A2.5 2.5 0 0 1 14 4.5V5H2v-.5Z"/></svg>