<svg xmlns="http://www.w3.org/2000/svg" width="16" height="16"><path d="M3.75 2A1.75 1.75 0 0 0 2 3.75v1c0 .966.784 1.75 1.75 1.75h.418A1.743 1.743 0 0 0 4 7.25v1.5c0 .966.784 1.75 1.75 1.75h.418a1.743 1.743 0 0 0-.168.75v1c0 .966.784 1.75 1.75 1.75h4.5A1.75 1.75 0 0 0 14 12.25v-1c0-.49-.201-.932-.525-1.25.324-.318.525-.76.525-1.25v-1.5c0-.49-.201-.932-.525-1.25.324-.318.525-.76.525-1.25v-1A1.75 1.75 0 0 0 12.25 2h-8.5Zm8.5 7.5H8v-3h4.25a.75.75 0 0 1 .75.75v1.5a.75.75 0 0 1-.75.75ZM7 6.5v3H5.75A.75.75 0 0 1 5 8.75v-1.5a.75.75 0 0 1 .75-.75H7Zm0 4.75a.75.75 0 0 1 .75-.75H9V13H7.75a.75.75 0 0 1-.75-.75v-1ZM10 13v-2.5h2.25a.75.75 0 0 1 .75.75v1a.75.75 0 0 1-.75.75H10ZM6 5.5V3h6.25a.75.75 0 0 1 .75.75v1a.75.75 0 0 1-.75.75H6Zm-1 0H3.75A.75.75 0 0 1 3 4.75v-1A.75.75 0 0 1 3.75 3H5v2.5Z"/></svg>