<svg xmlns="http://www.w3.org/2000/svg" width="24" height="24" viewBox="0 0 24 24"><path d="M12 8a5.25 5.25 0 1 0 0 10.5A5.25 5.25 0 0 0 12 8Zm-3.75 5.25a3.75 3.75 0 0 1 7.495-.186 2.21 2.21 0 0 1-.687.463c-.534.23-1.416.368-2.937-.012-1.697-.424-2.84-.172-3.64.324a3.41 3.41 0 0 0-.166.11 3.77 3.77 0 0 1-.065-.699Zm.75-7a1 1 0 1 1-2 0 1 1 0 0 1 2 0Zm3.75-.75a.75.75 0 0 0 0 1.5h3.5a.75.75 0 0 0 0-1.5h-3.5ZM6.25 3A3.25 3.25 0 0 0 3 6.25v11.5A3.25 3.25 0 0 0 6.25 21h11.5A3.25 3.25 0 0 0 21 17.75V6.25A3.25 3.25 0 0 0 17.75 3H6.25ZM4.5 6.25c0-.966.784-1.75 1.75-1.75h11.5c.966 0 1.75.784 1.75 1.75v11.5a1.75 1.75 0 0 1-1.75 1.75H6.25a1.75 1.75 0 0 1-1.75-1.75V6.25Z"/></svg>