<svg xmlns="http://www.w3.org/2000/svg" width="24" height="24"><path d="M7.994 9.436a.75.75 0 0 1 .07 1.058l-.661.756h2.862a.75.75 0 0 1 0 1.5H7.403l.661.756a.75.75 0 0 1-1.128.988l-1.75-2a.75.75 0 0 1 0-.988l1.75-2a.75.75 0 0 1 1.058-.07Zm7.956 1.058a.75.75 0 0 1 1.13-.988l1.75 2a.75.75 0 0 1 0 .988l-1.75 2a.75.75 0 0 1-1.13-.988l.662-.756H13.75a.75.75 0 0 1 0-1.5h2.862l-.662-.756ZM2 6.25A2.25 2.25 0 0 1 4.25 4h15.5A2.25 2.25 0 0 1 22 6.25v11.5A2.25 2.25 0 0 1 19.75 20H4.25A2.25 2.25 0 0 1 2 17.75V6.25Zm2.25-.75a.75.75 0 0 0-.75.75v11.5c0 .414.336.75.75.75h15.5a.75.75 0 0 0 .75-.75V6.25a.75.75 0 0 0-.75-.75H4.25Z"/></svg>