<svg xmlns="http://www.w3.org/2000/svg" width="48" height="48" viewBox="0 0 48 48"><path d="M22 4c-5.523 0-10 4.477-10 10s4.477 10 10 10 10-4.477 10-10S27.523 4 22 4ZM10.25 28A4.25 4.25 0 0 0 6 32.249V33c0 3.755 1.942 6.567 4.92 8.38C13.85 43.163 17.786 44 22 44c1.172 0 2.322-.065 3.435-.196A12.953 12.953 0 0 1 22 35c0-2.577.75-4.98 2.044-7H10.25ZM46 35c0 6.075-4.925 11-11 11s-11-4.925-11-11 4.925-11 11-11 11 4.925 11 11Zm-14.293-3.293a1 1 0 0 0-1.414-1.414l-3 3a1 1 0 0 0 0 1.414l3 3a1 1 0 0 0 1.414-1.414L30.414 35H36a4 4 0 0 1 4 4 1 1 0 1 0 2 0 6 6 0 0 0-6-6h-5.586l1.293-1.293Z"/></svg>