<svg xmlns="http://www.w3.org/2000/svg" width="32" height="32" viewBox="0 0 32 32"><path d="M17 2v7a3 3 0 0 0 3 3h7v15a3 3 0 0 1-3 3h-8.843A9 9 0 0 0 5 15.204V5a3 3 0 0 1 3-3h9Zm2 .117V9a1 1 0 0 0 1 1h6.883a3 3 0 0 0-.762-1.293L20.293 2.88A3 3 0 0 0 19 2.117ZM17 23a7.5 7.5 0 1 0-15 0 7.5 7.5 0 0 0 15 0Zm-2.75 0h-3a.75.75 0 0 1 0-1.5h.849a2.999 2.999 0 0 0-4.4-.899c-.23.172-.534.231-.79.104-.493-.247-.635-.89-.204-1.232a4.5 4.5 0 0 1 6.795 1.463V19.75a.75.75 0 0 1 1.5 0v2.5a.75.75 0 0 1-.75.75Zm-2.174 2.576c.335.335.338.886-.054 1.151A4.5 4.5 0 0 1 5.5 25.063v1.187a.75.75 0 0 1-1.5 0v-2.5a.75.75 0 0 1 .75-.75h3a.75.75 0 0 1 0 1.5h-.849a2.999 2.999 0 0 0 4.22 1.024c.3-.192.704-.2.955.052Z"/></svg>