<svg xmlns="http://www.w3.org/2000/svg" width="24" height="24" viewBox="0 0 24 24"><path d="M10.788 3.102c.495-1.003 1.926-1.003 2.421 0l2.358 4.778 5.273.766c1.107.16 1.549 1.522.748 2.303l-.906.882a6.5 6.5 0 0 0-9.442 7.43l-3.957 2.081c-.99.52-2.148-.32-1.96-1.423l.901-5.251-3.815-3.72c-.801-.78-.359-2.141.748-2.302L8.43 7.88l2.358-4.778ZM22.998 17.5a5.5 5.5 0 1 1-11 0 5.5 5.5 0 0 1 11 0Zm-9.5 0c0 .833.255 1.607.691 2.248l5.557-5.557a4 4 0 0 0-6.248 3.309Zm4 4a4 4 0 0 0 3.309-6.249l-5.557 5.557c.64.437 1.415.692 2.248.692Z"/></svg>