<svg xmlns="http://www.w3.org/2000/svg" width="28" height="28"><path d="M15.083 6.283A1.75 1.75 0 0 1 15.168 5H6.25l-.184.005A3.25 3.25 0 0 0 3 8.25v.184l11 5.72 7.027-3.654H16.75a1.75 1.75 0 0 1-.902-3.25 1.756 1.756 0 0 1-.765-.967Zm9.196 4.217-9.933 5.165a.75.75 0 0 1-.692 0L3 10.124v9.626l.005.184A3.25 3.25 0 0 0 6.25 23h15.5l.185-.005A3.25 3.25 0 0 0 25 19.75V10.5h-.721ZM16 2.75a.75.75 0 0 1 .75-.75h8.5a.75.75 0 1 1 0 1.5h-8.5a.75.75 0 0 1-.75-.75ZM16.75 5a.75.75 0 0 0 0 1.5h8.5a.75.75 0 0 0 0-1.5h-8.5ZM16 8.75a.75.75 0 0 1 .75-.75h8.5a.75.75 0 0 1 0 1.5h-8.5a.75.75 0 0 1-.75-.75Z"/></svg>