<svg xmlns="http://www.w3.org/2000/svg" width="24" height="24" viewBox="0 0 24 24"><path d="M17.5 12a5.5 5.5 0 1 1 0 11 5.5 5.5 0 0 1 0-11ZM3 19h8.174c.17.721.46 1.396.849 2.001L3 21a1 1 0 0 1-.117-1.993L3 19Zm12.093-4.034-.07.058-.057.07a.5.5 0 0 0 0 .568l.058.07 1.77 1.769-1.768 1.766-.057.07a.5.5 0 0 0 0 .568l.057.07.07.057a.5.5 0 0 0 .568 0l.07-.057 1.766-1.767 1.77 1.769.069.058a.5.5 0 0 0 .568 0l.07-.058.057-.07a.5.5 0 0 0 0-.568l-.057-.07-1.77-1.768 1.772-1.77.058-.069a.5.5 0 0 0 0-.569l-.058-.069-.069-.058a.5.5 0 0 0-.569 0l-.069.058-1.772 1.77-1.77-1.77-.068-.058a.5.5 0 0 0-.493-.043l-.076.043ZM16.001 3A1 1 0 0 1 17 4.048l-.012.113-.245 1.5a1 1 0 0 1-1.986-.206l.012-.116.055-.339h-3.392l-1.76 11H10a1 1 0 0 1 .993.883L11 17a1 1 0 0 1-.883.993L10 18H7a1 1 0 0 1-.117-1.993L7 16h.647l1.76-11h-3.56l-.112.665A1 1 0 0 1 3.75 5.45l.012-.116.251-1.5a1 1 0 0 1 .866-.828L4.999 3h11.002Z"/></svg>