<svg xmlns="http://www.w3.org/2000/svg" width="24" height="24" viewBox="0 0 24 24"><path d="M10.5 4a3 3 0 1 1-6 0 3 3 0 0 1 6 0ZM3.768 8C2.79 8 2 8.791 2 9.768v.36c0 .207 0 1.408.7 2.575.548.91 1.477 1.727 2.975 2.093A2.769 2.769 0 0 1 8.268 13h1.086A3.99 3.99 0 0 1 8 10c0-.729.195-1.412.535-2H3.768Zm11.697 0A3.98 3.98 0 0 1 16 10c0 .426-.066.837-.19 1.222A6.513 6.513 0 0 1 17.5 11c1.501 0 2.883.509 3.984 1.364.516-1.051.516-2.049.516-2.237v-.36C22 8.792 21.209 8 20.232 8h-4.767Zm-3.443 6A6.47 6.47 0 0 0 11 17.5a6.47 6.47 0 0 0 1.022 3.5H12c-2.614 0-4.058-1.063-4.8-2.297-.7-1.167-.7-2.367-.7-2.576v-.36c0-.976.791-1.767 1.768-1.767h3.754ZM16.5 7a3 3 0 1 0 0-6 3 3 0 0 0 0 6Zm1 5a5.5 5.5 0 1 1 0 11 5.5 5.5 0 0 1 0-11Zm.501 8.503V18h2.496a.5.5 0 0 0 0-1H18v-2.5a.5.5 0 1 0-1 0V17h-2.504a.5.5 0 0 0 0 1H17v2.503a.5.5 0 1 0 1 0ZM9.004 10.154A3 3 0 1 0 12.019 7H12a3 3 0 0 0-3 3l.004.154ZM12.019 7H12Z"/></svg>