<svg xmlns="http://www.w3.org/2000/svg" width="48" height="48" viewBox="0 0 48 48"><path d="M12.5 6A6.5 6.5 0 0 0 6 12.5v5.343a1.5 1.5 0 0 0 3 0V12.5A3.5 3.5 0 0 1 12.5 9h5.343a1.5 1.5 0 0 0 0-3H12.5Zm17.657 0a1.5 1.5 0 0 0 0 3H35.5a3.5 3.5 0 0 1 3.5 3.5v5.343a1.5 1.5 0 0 0 3 0V12.5A6.5 6.5 0 0 0 35.5 6h-5.343ZM9 30.157a1.5 1.5 0 0 0-3 0V35.5a6.5 6.5 0 0 0 6.5 6.5h5.343a1.5 1.5 0 0 0 0-3H12.5A3.5 3.5 0 0 1 9 35.5v-5.343Zm33 0a1.5 1.5 0 0 0-3 0V35.5a3.5 3.5 0 0 1-3.5 3.5h-5.343a1.5 1.5 0 0 0 0 3H35.5a6.5 6.5 0 0 0 6.5-6.5v-5.343ZM14.5 22.5a1.5 1.5 0 0 0 0 3h19a1.5 1.5 0 0 0 0-3h-19Z"/></svg>