<svg xmlns="http://www.w3.org/2000/svg" width="20" height="20"><path d="M8.162 2.212a8.021 8.021 0 0 1 3.676 0 .5.5 0 0 1-.229.974 7.021 7.021 0 0 0-3.218 0 .5.5 0 0 1-.229-.974Zm-1.68 1.144a.5.5 0 0 1-.163.689 7.04 7.04 0 0 0-2.274 2.274.5.5 0 1 1-.85-.526 8.039 8.039 0 0 1 2.598-2.599.5.5 0 0 1 .688.162Zm7.037 0a.5.5 0 0 1 .688-.162 8.04 8.04 0 0 1 2.599 2.599.5.5 0 0 1-.85.526 7.04 7.04 0 0 0-2.275-2.274.5.5 0 0 1-.162-.689ZM2.813 7.79a.5.5 0 0 1 .373.601 7.021 7.021 0 0 0 0 3.218.5.5 0 0 1-.974.229 8.021 8.021 0 0 1 0-3.676.5.5 0 0 1 .601-.372Zm14.374 0a.5.5 0 0 1 .6.372 8.026 8.026 0 0 1 0 3.676.5.5 0 0 1-.973-.229 7.02 7.02 0 0 0 0-3.218.5.5 0 0 1 .373-.601Zm-13.83 5.729a.5.5 0 0 1 .688.162 7.04 7.04 0 0 0 2.274 2.275.5.5 0 1 1-.526.85 8.04 8.04 0 0 1-2.599-2.599.5.5 0 0 1 .162-.688Zm13.577.73a.5.5 0 1 0-.868-.497l-.002.004-.014.023a6.272 6.272 0 0 1-.322.465 7.796 7.796 0 0 1-1.153 1.212C13.559 14.664 12.2 14 10.5 14c-1.521 0-2.487.9-2.487 2s.966 2 2.487 2c1.673 0 3.018-.57 4.033-1.258l.114.111a8.622 8.622 0 0 1 1.325 1.723c.029.05.05.09.063.114l.015.028.003.006a.5.5 0 1 0 .894-.448s-.13-.235-.001-.002l-.002-.003-.006-.012a3.367 3.367 0 0 0-.098-.179 9.61 9.61 0 0 0-1.487-1.934l-.021-.022a8.76 8.76 0 0 0 1.19-1.274 7.206 7.206 0 0 0 .403-.586l.006-.01a.9.9 0 0 1 .003-.006ZM10.5 15c1.3 0 2.376.463 3.229 1.072A6.06 6.06 0 0 1 10.5 17c-1.128 0-1.487-.6-1.487-1s.359-1 1.487-1Z"/></svg>