<svg xmlns="http://www.w3.org/2000/svg" width="16" height="16" viewBox="0 0 16 16"><path d="M2.5 6.55a.998.998 0 1 1 0-1.996.998.998 0 0 1 0 1.996Zm-.325-2.97a2.013 2.013 0 0 1 1.06.113A1.499 1.499 0 0 1 4.5 3h7A1.5 1.5 0 0 1 13 4.5v7a1.5 1.5 0 0 1-1.5 1.5h-7A1.5 1.5 0 0 1 3 11.5V7.487a2.002 2.002 0 0 1-1 0V11.5A2.5 2.5 0 0 0 4.5 14h7a2.5 2.5 0 0 0 2.5-2.5v-7A2.5 2.5 0 0 0 11.5 2h-7a2.5 2.5 0 0 0-2.325 1.58ZM6 6a.5.5 0 0 0 0 1h4a.5.5 0 1 0 0-1H6Zm0 3a.5.5 0 0 0 0 1h2.614a.5.5 0 0 0 0-1H6Z"/></svg>