<svg xmlns="http://www.w3.org/2000/svg" width="24" height="24"><path d="M21 6.25A3.25 3.25 0 0 0 17.75 3H6.25A3.25 3.25 0 0 0 3 6.25V7h18v-.75Zm0 5.772V8.5H3v9.25A3.25 3.25 0 0 0 6.25 21h5.772A6.5 6.5 0 0 1 21 12.022Zm2 5.478a5.5 5.5 0 1 0-11 0 5.5 5.5 0 0 0 11 0Zm-6.125 2.875a.625.625 0 1 1 1.25 0 .625.625 0 0 1-1.25 0Zm-1.228-4.547c-.011-1.136.805-1.954 1.853-1.954 1.031 0 1.853.846 1.853 1.95 0 .509-.15.841-.528 1.292l-.134.155-.266.29-.101.116-.085.104c-.18.232-.239.387-.239.59a.5.5 0 1 1-1 0c0-.517.151-.853.535-1.31l.136-.157.265-.29.1-.113.093-.116c.17-.22.224-.37.224-.561 0-.558-.38-.95-.853-.95-.494 0-.859.366-.853.945a.5.5 0 1 1-1 .01Z"/></svg>