<svg xmlns="http://www.w3.org/2000/svg" width="20" height="20"><path d="M10 2v4.5A1.5 1.5 0 0 0 11.5 8H16v8.5a1.5 1.5 0 0 1-1.5 1.5H11v-6a2 2 0 0 0-2-2H4V3.5A1.5 1.5 0 0 1 5.5 2H10Zm1 .25V6.5a.5.5 0 0 0 .5.5h4.25L11 2.25ZM3.5 11a.5.5 0 0 1 0 1h-1a.5.5 0 0 0-.5.5v5a.5.5 0 0 0 .5.5h1a.5.5 0 0 1 0 1h-1A1.5 1.5 0 0 1 1 17.5v-5A1.5 1.5 0 0 1 2.5 11h1Zm4 7a.5.5 0 0 0 0 1h1a1.5 1.5 0 0 0 1.5-1.5v-5A1.5 1.5 0 0 0 8.5 11h-1a.5.5 0 0 0 0 1h1a.5.5 0 0 1 .5.5v5a.5.5 0 0 1-.5.5h-1Zm-1.501-3.5a.5.5 0 0 0-1 0l.001 3a.5.5 0 1 0 1 0v-3Zm.001-2a.5.5 0 1 1-1 0 .5.5 0 0 1 1 0Z"/></svg>