<svg xmlns="http://www.w3.org/2000/svg" width="24" height="24"><path d="m14.712 2.289-.087-.078a1 1 0 0 0-1.327.078l-.078.087a.999.999 0 0 0 .078 1.326l1.299 1.297H8.999l-.24.004A6.997 6.997 0 0 0 2 11.993a6.94 6.94 0 0 0 1.189 3.899.999.999 0 0 0 1.626-1.163l-.135-.218A4.997 4.997 0 0 1 9 6.998h5.595l-1.297 1.297-.078.087a.999.999 0 0 0 1.492 1.326l3.006-3.003.077-.087a.999.999 0 0 0-.078-1.326l-3.005-3.003Zm6.075 5.771A.999.999 0 0 0 19 8.677c0 .209.064.402.172.561a4.997 4.997 0 0 1-4.17 7.75H9.414l1.294-1.29.083-.096a1 1 0 0 0-.006-1.23l-.077-.088-.095-.084a1.001 1.001 0 0 0-1.232.006l-.088.078-3.005 3.003-.083.095a1 1 0 0 0 .006 1.231l.077.087 3.005 3.003.095.084a1 1 0 0 0 1.397-1.41l-.077-.087-1.304-1.303H15l.24-.003a6.997 6.997 0 0 0 5.546-10.927v.003Z"/></svg>