<svg xmlns="http://www.w3.org/2000/svg" width="28" height="28"><path d="M5.25 4A3.25 3.25 0 0 0 2 7.25v10.5A3.25 3.25 0 0 0 5.25 21h12.264a2.486 2.486 0 0 1-.014-.262v-4.167c0-.818.393-1.544 1-2V13a2.5 2.5 0 0 1 2.5-2.5h4c.354 0 .691.074.997.207V7.25A3.25 3.25 0 0 0 22.747 4H5.25Zm1.496 19h11.658L19 24.06v.44H6.746a.75.75 0 0 1 0-1.5Zm13.754.667V26a1 1 0 0 0 1 1h3a1 1 0 0 0 1-1v-2.333l1.372-2.439a1 1 0 0 0 .128-.49v-4.167a1 1 0 0 0-1-1V13a1 1 0 0 0-1-1h-4a1 1 0 0 0-1 1v2.571a1 1 0 0 0-1 1v4.167a1 1 0 0 0 .128.49l1.372 2.439Zm1-10.167h3v2.071h-3V13.5Z"/></svg>