<svg xmlns="http://www.w3.org/2000/svg" width="24" height="24"><path d="m10.945 2.047.005.007A10.14 10.14 0 0 1 12 2c5.523 0 10 4.477 10 10s-4.477 10-10 10a9.983 9.983 0 0 1-7.895-3.862h-.003v-.003A9.957 9.957 0 0 1 2 12c0-5.162 3.911-9.41 8.932-9.944l.013-.009ZM12 3.5l-.16.001c.123.245.255.533.374.85.347.923.666 2.282.1 3.487-.522 1.113-1.424 1.4-2.09 1.573l-.084.021c-.657.17-.91.235-1.093.514-.17.257-.144.582.061 1.25l.046.148c.082.258.18.57.23.863.064.364.082.827-.152 1.275a2.187 2.187 0 0 1-.9.945c-.341.185-.694.256-.958.302l-.093.017c-.515.09-.761.134-1 .39-.187.2-.307.553-.377 1.079-.029.214-.046.427-.064.646l-.01.117c-.02.242-.044.521-.099.76v.002a8.478 8.478 0 0 0 6.27 2.76c1.576 0 3.053-.43 4.319-1.178a4.47 4.47 0 0 1-.31-.35c-.34-.428-.786-1.164-.631-2.033.074-.418.298-.768.515-1.036a7.12 7.12 0 0 1 .72-.74l.158-.146c.179-.163.33-.301.46-.437.172-.18.21-.262.212-.267.068-.224-.015-.384-.106-.454a.304.304 0 0 0-.19-.061c-.084 0-.22.024-.401.14a.912.912 0 0 1-.836.085 1.025 1.025 0 0 1-.486-.432c-.144-.237-.225-.546-.278-.772-.04-.174-.08-.372-.115-.553l-.04-.206a4.094 4.094 0 0 0-.135-.54s-.005-.013-.019-.037a1.507 1.507 0 0 0-.064-.105 6.233 6.233 0 0 0-.227-.317l-.11-.143c-.16-.212-.353-.463-.516-.712-.196-.298-.417-.688-.487-1.104a1.458 1.458 0 0 1 .055-.734c.094-.264.265-.482.486-.649.484-.362 1.194-1.172 1.824-1.959.288-.359.544-.695.736-.95A8.46 8.46 0 0 0 12 3.5Zm5.727 2.22c-.197.263-.461.608-.757.978-.602.751-1.4 1.685-2.05 2.187.026.1.1.262.255.498.131.2.281.396.44.604l.129.17c.172.229.411.548.52.844a5.3 5.3 0 0 1 .198.762l.049.246c.025.13.049.253.074.37.602-.172 1.202-.068 1.67.294.609.47.863 1.286.625 2.074-.11.362-.364.66-.563.869a11.53 11.53 0 0 1-.556.53l-.132.12c-.23.212-.423.4-.568.579-.148.184-.195.299-.205.356-.04.219.067.51.328.838a3.138 3.138 0 0 0 .374.392A8.48 8.48 0 0 0 20.5 12a8.478 8.478 0 0 0-2.773-6.28ZM3.5 12c0 1.398.338 2.718.936 3.881.085-.557.262-1.248.748-1.768.6-.642 1.335-.763 1.798-.839l.13-.021c.248-.044.391-.083.502-.143.088-.049.188-.128.288-.321.015-.028.042-.107.004-.325a5.235 5.235 0 0 0-.172-.636c-.02-.06-.04-.125-.06-.192-.185-.604-.48-1.602.12-2.515.522-.792 1.36-.994 1.893-1.123l.162-.04c.563-.145.883-.28 1.108-.758.295-.629.168-1.485-.146-2.32a7.615 7.615 0 0 0-.58-1.196A8.503 8.503 0 0 0 3.502 12Z"/></svg>