<svg xmlns="http://www.w3.org/2000/svg" width="24" height="24" viewBox="0 0 24 24"><path d="M10.998 13.996v1.5H4.25a.749.749 0 0 0-.749.748v.578c0 .536.191 1.054.54 1.461 1.253 1.468 3.22 2.214 5.958 2.214 1.106 0 2.086-.122 2.945-.363l1.17 1.192c-1.18.448-2.554.671-4.115.671-3.146 0-5.533-.905-7.1-2.74A3.75 3.75 0 0 1 2 16.823v-.578a2.25 2.25 0 0 1 2.25-2.248h6.748ZM15 7a5 5 0 1 0-10.001.001 5 5 0 0 0 10.001 0ZM6.497 7a3.5 3.5 0 1 1 7.001 0 3.5 3.5 0 0 1-7 0Zm10.074 15.4-4-4.072a1.993 1.993 0 0 1-.573-1.398v-2.936A2 2 0 0 1 14 11.998l2.918-.002a2.01 2.01 0 0 1 1.41.576l4.076 4.015a1.99 1.99 0 0 1 .013 2.828l-2.994 2.997a2.009 2.009 0 0 1-2.852-.012Zm-1.576-6.404a1 1 0 1 0 0-2 1 1 0 0 0 0 2Z"/></svg>