<svg xmlns="http://www.w3.org/2000/svg" width="32" height="32" viewBox="0 0 32 32"><path d="m22.586 24 5.707 5.707a1 1 0 0 0 1.414-1.414l-26-26a1 1 0 0 0-1.414 1.414L6.715 8.13l-3.872 4.517A3.5 3.5 0 0 0 2 14.925V19.5A4.5 4.5 0 0 0 6.5 24h4a4.5 4.5 0 0 0 4.5-4.5V17h.586L17 18.415V19.5a4.5 4.5 0 0 0 4.5 4.5h1.086Zm-12-12H6.032l2.101-2.452L10.586 12Zm16.616 11.667-9.799-9.799A3.5 3.5 0 0 1 20.5 12h5.469l-2.98-3.476A1.5 1.5 0 0 0 21.85 8H20a1 1 0 1 1 0-2h1.85a3.5 3.5 0 0 1 2.658 1.222l4.65 5.425A3.5 3.5 0 0 1 30 14.925V19.5a4.501 4.501 0 0 1-2.798 4.167ZM9.582 6.047 11.534 8H12a1 1 0 1 0 0-2h-1.85a3.5 3.5 0 0 0-.569.047Z"/></svg>