<svg xmlns="http://www.w3.org/2000/svg" width="20" height="20"><path d="M10 6.5V2H5.5A1.5 1.5 0 0 0 4 3.5V13h3.5c.744 0 1.433.232 2 .627V9.5a.5.5 0 0 1 1 0v5.196c.317.527.5 1.144.5 1.804 0 .537-.12 1.045-.337 1.5H14.5a1.5 1.5 0 0 0 1.5-1.5V8h-4.5A1.5 1.5 0 0 1 10 6.5Zm2.5 4.5a.5.5 0 0 1 .5.5v4a.5.5 0 0 1-1 0v-4a.5.5 0 0 1 .5-.5ZM11 6.5V2.25L15.75 7H11.5a.5.5 0 0 1-.5-.5ZM3.5 14a2.5 2.5 0 0 0 0 5H4a.5.5 0 0 0 0-1h-.5a1.5 1.5 0 0 1 0-3H4a.5.5 0 0 0 0-1h-.5ZM7 14a.5.5 0 0 0 0 1h.5a1.5 1.5 0 0 1 0 3H7a.5.5 0 0 0 0 1h.5a2.5 2.5 0 0 0 0-5H7Zm-4 2.5a.5.5 0 0 1 .5-.5h4a.5.5 0 0 1 0 1h-4a.5.5 0 0 1-.5-.5Z"/></svg>