<svg xmlns="http://www.w3.org/2000/svg" width="24" height="24"><path d="M11 21.5v-1.058a8.5 8.5 0 1 0-7.452-9.347 3.503 3.503 0 0 0-1.47 2.164A10.098 10.098 0 0 1 2 12C2 6.477 6.477 2 12 2s10 4.477 10 10-4.477 10-10 10c-.351 0-.698-.018-1.04-.053.026-.145.04-.295.04-.447Zm.993-14.852a.75.75 0 0 0-1.493.102v6l.007.102a.75.75 0 0 0 .743.648h4l.102-.007A.75.75 0 0 0 15.25 12H12V6.75l-.007-.102ZM3 15v-1a2.5 2.5 0 0 1 5 0v1h.5a1.5 1.5 0 0 1 1.5 1.5v5A1.5 1.5 0 0 1 8.5 23h-6A1.5 1.5 0 0 1 1 21.5v-5A1.5 1.5 0 0 1 2.5 15H3Zm1.5-1v1h2v-1a1 1 0 1 0-2 0Zm2 5a1 1 0 1 0-2 0 1 1 0 0 0 2 0Z"/></svg>