<svg xmlns="http://www.w3.org/2000/svg" width="48" height="48"><path d="M31.833 13.112a5.36 5.36 0 0 0-2.544-1.805l-2.603-.845a1.028 1.028 0 0 1 0-1.937l2.602-.845a5.362 5.362 0 0 0 3.323-3.33l.022-.064.845-2.6a1.027 1.027 0 0 1 1.94 0l.845 2.6A5.356 5.356 0 0 0 39.66 7.68l2.602.845.052.013a1.028 1.028 0 0 1 0 1.937l-2.602.845a5.361 5.361 0 0 0-3.397 3.394l-.846 2.6a1.027 1.027 0 0 1-1.563.497 1.027 1.027 0 0 1-.375-.497l-.846-2.6a5.354 5.354 0 0 0-.852-1.602Zm14.776 6.872-1.378-.448a2.839 2.839 0 0 1-1.797-1.796l-.448-1.377a.544.544 0 0 0-1.027 0l-.448 1.377a2.835 2.835 0 0 1-1.77 1.796l-1.378.448a.545.545 0 0 0 0 1.025l1.378.448c.151.05.298.113.438.188l.003.015a2.837 2.837 0 0 1 1.357 1.61l.448 1.377a.545.545 0 0 0 1.01.039v-.01a.504.504 0 0 0 .016-.039l.448-1.377a2.837 2.837 0 0 1 1.798-1.796l1.378-.448a.545.545 0 0 0 0-1.025l-.028-.007ZM24 4c2.094 0 4.113.322 6.01.919a3.38 3.38 0 0 1-1.37.902l-2.504.808c-.7-.085-1.413-.129-2.136-.129-9.665 0-17.5 7.835-17.5 17.5 0 3.188.851 6.173 2.338 8.745.17.293.213.642.12.968l-2.116 7.442 7.44-2.116a1.25 1.25 0 0 1 .968.12A17.414 17.414 0 0 0 24 41.5c8.74 0 15.985-6.408 17.29-14.782a2.55 2.55 0 0 0 2.541-.106C42.551 36.423 34.161 44 24 44a19.92 19.92 0 0 1-9.534-2.414l-8.235 2.342c-1.319.375-2.537-.844-2.162-2.162l2.342-8.238A19.917 19.917 0 0 1 4 24C4 12.954 12.954 4 24 4Z"/></svg>