<svg xmlns="http://www.w3.org/2000/svg" width="16" height="16" viewBox="0 0 16 16"><path d="M1 5.5A2.5 2.5 0 0 1 3.5 3h9A2.5 2.5 0 0 1 15 5.5v4a2.5 2.5 0 0 1-2.5 2.5h-9A2.5 2.5 0 0 1 1 9.5v-4Zm4.146.646-.646.647-.646-.647a.5.5 0 1 0-.708.708l.647.646-.647.646a.5.5 0 1 0 .708.708l.646-.647.646.647a.5.5 0 1 0 .708-.708L5.207 7.5l.647-.646a.5.5 0 1 0-.708-.708Zm4 0-.646.647-.646-.647a.5.5 0 1 0-.708.708l.647.646-.647.646a.5.5 0 1 0 .708.708l.646-.647.646.647a.5.5 0 1 0 .708-.708L9.207 7.5l.647-.646a.5.5 0 0 0-.708-.708ZM11 8.5a.5.5 0 0 0 .5.5h1a.5.5 0 0 0 0-1h-1a.5.5 0 0 0-.5.5Z"/></svg>