<svg xmlns="http://www.w3.org/2000/svg" width="24" height="24" viewBox="0 0 24 24"><path d="M12.92 3.315C13.726 2.6 15 3.171 15 4.25v15.495c0 1.079-1.274 1.651-2.08.934l-4.492-3.993a.75.75 0 0 0-.498-.19H4.25A2.25 2.25 0 0 1 2 14.246V9.748a2.25 2.25 0 0 1 2.25-2.25h3.68a.75.75 0 0 0 .498-.19l4.491-3.993Zm.58 1.491L9.425 8.43a2.25 2.25 0 0 1-1.495.568H4.25a.75.75 0 0 0-.75.75v4.498c0 .414.336.75.75.75h3.68a2.25 2.25 0 0 1 1.495.569l4.075 3.623V4.806Zm2.72 4.413a.75.75 0 0 1 1.06 0L19 10.94l1.72-1.72a.75.75 0 1 1 1.06 1.06L20.06 12l1.72 1.72a.75.75 0 0 1-1.06 1.06L19 13.06l-1.72 1.72a.75.75 0 1 1-1.06-1.06L17.94 12l-1.72-1.72a.75.75 0 0 1 0-1.06Z"/></svg>