<svg xmlns="http://www.w3.org/2000/svg" width="16" height="16" viewBox="0 0 16 16"><path d="M15 5.5a4.5 4.5 0 1 1-9 0 4.5 4.5 0 0 1 9 0Zm-2.146-1.854a.5.5 0 0 0-.708 0L9.5 6.293l-.646-.647a.5.5 0 1 0-.708.708l1 1a.5.5 0 0 0 .708 0l3-3a.5.5 0 0 0 0-.708ZM12 13v-2.207c.349-.099.683-.23 1-.393V13a2 2 0 0 1-2 2H3a2 2 0 0 1-2-2V7a2 2 0 0 1 2-2h2.022a5.57 5.57 0 0 0 0 1H3a1 1 0 0 0-1 1v.74l5 2.692.544-.293c.344.22.714.402 1.104.542l-1.41.76a.5.5 0 0 1-.475 0L2 8.875V13a1 1 0 0 0 1 1h8a1 1 0 0 0 1-1Z"/></svg>