<svg xmlns="http://www.w3.org/2000/svg" width="24" height="24"><path d="M5.5 4.25a.75.75 0 0 1 .75-.75H12V8a2 2 0 0 0 2 2h4.5v9.75a.75.75 0 0 1-.75.75H13V22h4.75A2.25 2.25 0 0 0 20 19.75V9.664c0-.464-.184-.909-.513-1.237l-5.914-5.914A1.75 1.75 0 0 0 12.336 2H6.25A2.25 2.25 0 0 0 4 4.25v8.018c.294-.17.636-.268 1-.268h.5V4.25ZM17.44 8.5H14a.5.5 0 0 1-.5-.5V4.56l3.94 3.94ZM4 16v-1.5A1.5 1.5 0 0 1 5.5 13h2A1.5 1.5 0 0 1 9 14.5V16h1.5a1.5 1.5 0 0 1 1.5 1.5V19H9v-.5a.5.5 0 0 0-1 0v.5H5v-.5a.5.5 0 0 0-1 0v.5H1v-1.5A1.5 1.5 0 0 1 2.5 16H4Zm1-1.5V16h3v-1.5a.5.5 0 0 0-.5-.5h-2a.5.5 0 0 0-.5.5ZM9 20h3v1.5a1.5 1.5 0 0 1-1.5 1.5h-8A1.5 1.5 0 0 1 1 21.5V20h3v.5a.5.5 0 0 0 1 0V20h3v.5a.5.5 0 0 0 1 0V20Z"/></svg>