<svg xmlns="http://www.w3.org/2000/svg" width="16" height="16"><path d="M3 3.5A1.5 1.5 0 0 1 4.5 2h4A1.5 1.5 0 0 1 10 3.5v3.511a2.75 2.75 0 0 0-2.305 4.566A2.312 2.312 0 0 0 6.005 14H3.5a.5.5 0 0 1-.5-.5v-10ZM5.5 5a.5.5 0 1 0 0-1 .5.5 0 0 0 0 1Zm0 2.5a.5.5 0 1 0 0-1 .5.5 0 0 0 0 1Zm0 2.5a.5.5 0 1 0 0-1 .5.5 0 0 0 0 1Zm2-5a.5.5 0 1 0 0-1 .5.5 0 0 0 0 1Zm0 2.5a.5.5 0 1 0 0-1 .5.5 0 0 0 0 1Zm4 2.25a1.75 1.75 0 1 1-3.5 0 1.75 1.75 0 0 1 3.5 0Zm1.5 4.063c0 1.09-.857 2.187-3 2.187s-3-1.094-3-2.188c0-.724.576-1.312 1.286-1.312h3.428c.71 0 1.286.588 1.286 1.313Zm.477 1.687h.023c1.786 0 2.5-.941 2.5-1.875 0-.621-.48-1.125-1.071-1.125h-1.333c.256.375.404.829.404 1.313 0 .582-.166 1.173-.523 1.687ZM15 10.25a1.25 1.25 0 1 1-2.5 0 1.25 1.25 0 0 1 2.5 0Z"/></svg>