<svg xmlns="http://www.w3.org/2000/svg" width="24" height="24" viewBox="0 0 24 24"><path d="M15.5 12a1.5 1.5 0 0 1 1.5 1.5v.5c0 1.971-1.86 4-5 4-3.14 0-5-2.029-5-4v-.5A1.5 1.5 0 0 1 8.5 12h7ZM12 5.5a2.75 2.75 0 1 1 0 5.5 2.75 2.75 0 0 1 0-5.5ZM6.25 3A3.25 3.25 0 0 0 3 6.25v11.5A3.25 3.25 0 0 0 6.25 21h11.5A3.25 3.25 0 0 0 21 17.75V6.25A3.25 3.25 0 0 0 17.75 3H6.25ZM4.5 6.25c0-.966.784-1.75 1.75-1.75h11.5c.966 0 1.75.784 1.75 1.75v11.5a1.75 1.75 0 0 1-1.75 1.75H6.25a1.75 1.75 0 0 1-1.75-1.75V6.25Z"/></svg>