<svg xmlns="http://www.w3.org/2000/svg" width="16" height="16" viewBox="0 0 16 16"><path d="M6.5 9.25a.75.75 0 1 1-1.5 0 .75.75 0 0 1 1.5 0Zm3.75.75a.75.75 0 1 0 0-1.5.75.75 0 0 0 0 1.5ZM7 10.5a.5.5 0 0 1 .5-.5h1a.5.5 0 0 1 0 1h-1a.5.5 0 0 1-.5-.5ZM2.7 1A1.7 1.7 0 0 0 1 2.7v9A1.3 1.3 0 0 0 2.3 13H3v.7A1.3 1.3 0 0 0 4.3 15h1.4A1.3 1.3 0 0 0 7 13.7V13h2v.7a1.3 1.3 0 0 0 1.3 1.3h1.4a1.3 1.3 0 0 0 1.3-1.3V13h.7a1.3 1.3 0 0 0 1.3-1.3v-9A1.7 1.7 0 0 0 13.3 1H2.7ZM10 13.7V13h2v.7a.3.3 0 0 1-.3.3h-1.4a.3.3 0 0 1-.3-.3ZM6 13v.7a.3.3 0 0 1-.3.3H4.3a.3.3 0 0 1-.3-.3V13h2ZM2 2.7a.7.7 0 0 1 .7-.7h10.6a.7.7 0 0 1 .7.7v9a.3.3 0 0 1-.3.3H13V7.76a2.1 2.1 0 0 0-.108-.664l-.735-2.207A1.3 1.3 0 0 0 10.923 4H5.077a1.3 1.3 0 0 0-1.234.889l-.735 2.207A2.1 2.1 0 0 0 3 7.76V12h-.7a.3.3 0 0 1-.3-.3v-9ZM4 12V8h8v4H4Zm.194-5 .598-1.795A.3.3 0 0 1 5.077 5h5.846a.3.3 0 0 1 .285.205L11.806 7H4.194Z"/></svg>