<svg xmlns="http://www.w3.org/2000/svg" width="24" height="24" viewBox="0 0 24 24"><path d="M6 4a1.5 1.5 0 1 1 3 0 1.5 1.5 0 0 1-3 0Zm1.5-3a3 3 0 1 0 0 6 3 3 0 0 0 0-6ZM2 9.768C2 8.79 2.791 8 3.768 8h4.767a3.974 3.974 0 0 0-.504 1.5H3.768a.268.268 0 0 0-.268.268v.357c0 .142.003 1 .487 1.805.389.648 1.147 1.36 2.75 1.531-.48.32-.856.786-1.062 1.335-1.498-.366-2.427-1.183-2.974-2.093C2 11.536 2 10.336 2 10.127v-.36ZM15.97 9.5a3.974 3.974 0 0 0-.505-1.5h4.767C21.21 8 22 8.791 22 9.768v.36c0 .187 0 1.185-.516 2.236a6.5 6.5 0 0 0-1.29-.782 3.732 3.732 0 0 0 .306-1.457v-.357a.268.268 0 0 0-.268-.268H15.97Zm-1.551 2.275a3 3 0 1 0-4.837-3.55 3 3 0 0 0 4.837 3.55ZM12.022 14H8.268c-.977 0-1.768.791-1.768 1.768v.36c0 .207 0 1.408.7 2.575C7.943 19.937 9.387 21 12 21h.022a6.473 6.473 0 0 1-.719-1.532c-1.649-.16-2.422-.882-2.816-1.538C8.003 17.125 8 16.267 8 16.125v-.357c0-.148.12-.268.268-.268h3.045a6.471 6.471 0 0 1 .709-1.5ZM16.5 2.5a1.5 1.5 0 1 0 0 3 1.5 1.5 0 0 0 0-3Zm-3 1.5a3 3 0 1 1 6 0 3 3 0 0 1-6 0Zm-3 6a1.5 1.5 0 1 1 3 0 1.5 1.5 0 0 1-3 0Zm7 2a5.5 5.5 0 1 1 0 11 5.5 5.5 0 0 1 0-11Zm.501 8.503V18h2.496a.5.5 0 0 0 0-1H18v-2.5a.5.5 0 1 0-1 0V17h-2.504a.5.5 0 0 0 0 1H17v2.503a.5.5 0 1 0 1 0Z"/></svg>