<svg xmlns="http://www.w3.org/2000/svg" width="28" height="28"><path d="M17.5 3A3.5 3.5 0 0 0 14 6.5v5a3.5 3.5 0 1 0 7 0v-5A3.5 3.5 0 0 0 17.5 3Zm0 10.5a2 2 0 0 1-2-2v-5a2 2 0 1 1 4 0v5a2 2 0 0 1-2 2Zm.5 6.35a2.35 2.35 0 0 1 2.35-2.35h1.15a2 2 0 0 1 2 2 .75.75 0 0 1-1.5 0 .5.5 0 0 0-.5-.5h-1.15a.85.85 0 0 0-.85.85V20a1 1 0 0 0 1 1h.5a2.5 2.5 0 0 1 2.5 2.5v.15A2.35 2.35 0 0 1 21.15 26h-.65a2.5 2.5 0 0 1-2.5-2.5.75.75 0 0 1 1.5 0 1 1 0 0 0 1 1h.65c.47 0 .85-.38.85-.85v-.15a1 1 0 0 0-1-1h-.5A2.5 2.5 0 0 1 18 20v-.15ZM5.75 17.5a.75.75 0 0 0-.75.75v7a.75.75 0 0 0 1.5 0V22.5h1.75a.75.75 0 0 0 0-1.5H6.5v-2h2.75a.75.75 0 0 0 0-1.5h-3.5Zm5.75.75a.75.75 0 0 1 .75-.75h2.25a2.5 2.5 0 0 1 0 5H13v2.75a.75.75 0 0 1-1.5 0v-7ZM13 21h1.5a1 1 0 1 0 0-2H13v2ZM9.625 4.5h-.25c-.732 0-1.366.42-1.675 1.031-.13.259-.37.469-.66.469-.544 0-.975-.483-.757-.981A3.376 3.376 0 0 1 9.375 3h.25a3.375 3.375 0 0 1 2.121 6 3.375 3.375 0 0 1-2.121 6h-.25c-1.382 0-2.57-.83-3.092-2.019-.218-.498.213-.981.757-.981.29 0 .53.21.66.469A1.875 1.875 0 0 0 9.375 13.5h.25a1.875 1.875 0 0 0 0-3.75H9.5a.75.75 0 0 1 0-1.5h.125a1.875 1.875 0 1 0 0-3.75Z"/></svg>