<svg xmlns="http://www.w3.org/2000/svg" width="20" height="20"><path d="M2.038 8.5a6.5 6.5 0 1 1 3.721 5.877l-2.487.697a1 1 0 0 1-1.204-1.32l.796-2.082A6.472 6.472 0 0 1 2.038 8.5Zm3.514-2.012a1.896 1.896 0 0 0 .007 2.68l2.746 2.747a.292.292 0 0 0 .412 0l2.732-2.73a1.896 1.896 0 0 0-.007-2.68 1.897 1.897 0 0 0-2.684-.007l-.261.261-.265-.264a1.896 1.896 0 0 0-2.68-.007ZM11.5 18a6.485 6.485 0 0 1-4.927-2.26 7.456 7.456 0 0 0 1.76.257A5.475 5.475 0 0 0 11.5 17c.902 0 1.752-.217 2.502-.6l.174-.09 2.86.801-.969-2.536.128-.21c.51-.834.805-1.814.805-2.865a5.474 5.474 0 0 0-.964-3.11 7.51 7.51 0 0 0-.235-1.763A6.484 6.484 0 0 1 18 11.5c0 1.151-.3 2.233-.825 3.172l.795 2.082a1 1 0 0 1-1.204 1.32l-2.487-.697c-.843.4-1.786.623-2.78.623Z"/></svg>