<svg xmlns="http://www.w3.org/2000/svg" width="20" height="20" viewBox="0 0 20 20"><path d="M2.854 2.146a.5.5 0 1 0-.708.708L7.303 8.01a3.523 3.523 0 0 0-.71.12A2.5 2.5 0 1 0 4 11.95v.934a2.122 2.122 0 0 0 2.12 2.127h6.514c.47 0 .904-.153 1.256-.412l3.255 3.256a.5.5 0 0 0 .708-.708l-15-15Zm10.314 11.729c-.159.086-.34.135-.533.135h-1.626v-.1c0-1.127-1.02-1.91-2.122-1.91H7.5a.5.5 0 0 0 0 1h1.387c.69 0 1.122.464 1.122.91v.1H6.122A1.124 1.124 0 0 1 5 12.883v-1.33a2.546 2.546 0 0 1 2.54-2.551h.755l4.873 4.873Zm-7.51-5.33a3.554 3.554 0 0 0-1.604 2.387 1.5 1.5 0 1 1 1.603-2.387Zm10.716 3.48c-.44.442-1.025.65-1.602.626l.897.897a3.15 3.15 0 0 0 1.413-5.261l-4.22-4.213a1.513 1.513 0 0 0-2.143 0 1.521 1.521 0 0 0 0 2.147l1.342 1.33a3.524 3.524 0 0 0-.307.492 3.554 3.554 0 0 0-.538-.041h-1.093l1 1h.093c.238 0 .469.033.686.094l.423.119.172-.404c.111-.26.265-.567.472-.788l.503-.482-2.045-2.026a.521.521 0 0 1 0-.735.513.513 0 0 1 .728 0v.001l4.22 4.212a2.15 2.15 0 0 1-.001 3.032Z"/></svg>