<svg xmlns="http://www.w3.org/2000/svg" width="20" height="20" viewBox="0 0 20 20"><path d="M11.854 8.854a.5.5 0 1 0-.708-.708l-3 3a.5.5 0 1 0 .708.707l3-3Zm6.15-4.628c-.007-1.268-1.06-2.242-2.302-2.226-5.622.072-9.125 2.154-11.182 4.957-2.039 2.778-2.607 6.198-2.51 8.888.043 1.18 1.001 2.083 2.153 2.136 5.523.256 9.026-1.733 11.124-4.563 2.076-2.8 2.731-6.358 2.716-9.192ZM15.713 3c.713-.009 1.286.544 1.29 1.23.004.898-.062 1.863-.222 2.845l-3.847-3.847A19.29 19.29 0 0 1 15.714 3Zm-3.959.463 4.79 4.79c-.385 1.599-1.04 3.192-2.06 4.57-1.318 1.775-3.266 3.222-6.11 3.847a.496.496 0 0 0-.021-.024l-4.93-4.929c.356-1.443.961-2.886 1.902-4.169 1.337-1.82 3.377-3.352 6.43-4.085Zm-8.569 9.43 3.985 3.985c-.905.115-1.89.154-2.962.105-.66-.031-1.176-.542-1.2-1.175-.032-.91.016-1.901.177-2.915Z"/></svg>