<svg xmlns="http://www.w3.org/2000/svg" width="48" height="48" viewBox="0 0 48 48"><path d="m28 29.768 13.866 13.866a1.25 1.25 0 0 0 1.768-1.768l-37.5-37.5a1.25 1.25 0 1 0-1.768 1.768L18.233 20 8.038 30.197a6.007 6.007 0 0 0-1.572 2.758L4.039 42.44a1.25 1.25 0 0 0 1.52 1.521l9.487-2.425a6.007 6.007 0 0 0 2.76-1.572l10.195-10.196Zm-1.767-1.767L16.038 38.196a3.507 3.507 0 0 1-1.611.918l-7.443 1.903 1.904-7.442c.156-.61.473-1.166.917-1.61l10.196-10.197 6.232 6.233Zm13.974-13.976-10.44 10.44 1.769 1.768 6.435-6.436.88.939a1.75 1.75 0 0 1-.039 2.434l-3.446 3.446a1.25 1.25 0 0 0 1.768 1.768l3.446-3.446a4.25 4.25 0 0 0 .095-5.912l-.935-.998 2.234-2.235a6.907 6.907 0 0 0-9.768-9.767l-10.438 10.44 1.768 1.767 10.438-10.44a4.407 4.407 0 0 1 6.233 6.232Z"/></svg>