<svg xmlns="http://www.w3.org/2000/svg" width="24" height="24"><path d="M22.144 3.302c-.328-.547-.665-.921-.913-1.128a.75.75 0 0 0-.96 1.152c.126.106.352.357.586.747.402.67.643 1.475.643 2.427s-.241 1.758-.643 2.427c-.234.39-.46.641-.587.747a.75.75 0 0 0 .96 1.152c.249-.207.585-.58.914-1.128C22.68 8.805 23 7.736 23 6.5s-.321-2.305-.857-3.198Z"/><path d="M19.875 4.396a3.075 3.075 0 0 0-.674-.746.75.75 0 0 0-.9 1.2c.061.046.19.175.326.379.233.35.373.77.373 1.271 0 .5-.14.92-.373 1.271a1.681 1.681 0 0 1-.326.379l-.084.073A.75.75 0 0 0 19.2 9.35c.188-.141.434-.388.674-.746A3.734 3.734 0 0 0 20.5 6.5c0-.812-.234-1.517-.625-2.104ZM17 3.75a.75.75 0 0 0-1.314-.494L14.16 5h-1.41a.75.75 0 0 0-.75.75v1.5c0 .414.336.75.75.75h1.41l1.526 1.744A.75.75 0 0 0 17 9.25v-5.5Z"/><path d="M11.951 4.001H3.758a1.75 1.75 0 0 0-1.75 1.75v12.495c0 .967.783 1.75 1.75 1.75h7.497v.003h8.998a1.75 1.75 0 0 0 1.75-1.75v-6.77c-.045.04-.089.08-.132.115-.396.33-.895.456-1.368.389v6.265a.25.25 0 0 1-.25.25h-7.498V9H12a.998.998 0 0 1-.745-.333v9.83H3.758a.25.25 0 0 1-.25-.25V5.75a.25.25 0 0 1 .25-.25H11V5a1 1 0 0 1 .95-1Z"/><path d="M16.247 15.5h-1.5l-.102.007A.75.75 0 0 0 14.746 17h1.5l.102-.007a.75.75 0 0 0-.101-1.493Zm-8.498 0h1.502a.75.75 0 0 1 .101 1.493L9.251 17H7.749a.75.75 0 0 1-.102-1.493l.102-.007Z"/></svg>