<svg xmlns="http://www.w3.org/2000/svg" width="28" height="28" viewBox="0 0 28 28"><path d="M12.134 3.734a2.75 2.75 0 0 1 3.732 0l7.929 7.324A3.75 3.75 0 0 1 25 13.813v8.437A2.75 2.75 0 0 1 22.25 25h-.458l-.07-.019a80.664 80.664 0 0 1-2.146-.61 74.786 74.786 0 0 1-5.085-1.713c-1.853-.707-3.668-1.515-5.006-2.357-.671-.421-1.19-.831-1.533-1.216-.348-.39-.452-.683-.452-.885 0-.251.083-.428.244-.586.182-.18.487-.354.946-.504.925-.303 2.21-.431 3.62-.527l.757-.05c1.135-.072 2.298-.146 3.246-.315.583-.105 1.148-.255 1.608-.498.466-.245.905-.634 1.057-1.238.173-.695-.135-1.284-.523-1.713-.382-.423-.93-.795-1.514-1.13-.787-.452-1.78-.91-2.762-1.364a87.744 87.744 0 0 1-1.362-.638c-1.439-.695-2.601-1.362-3.176-2.042-.27-.318-.348-.569-.337-.777.012-.213.128-.54.576-.988a.757.757 0 0 0 .067-.075l2.187-2.021Zm-4.2 3.88-3.729 3.444A3.75 3.75 0 0 0 3 13.813v8.437A2.75 2.75 0 0 0 5.75 25h10.843a67.258 67.258 0 0 1-2.637-.94c-1.884-.72-3.806-1.569-5.27-2.489-.73-.459-1.38-.956-1.854-1.488C6.363 19.556 6 18.92 6 18.2c0-.67.257-1.227.692-1.655.413-.407.961-.674 1.53-.86 1.13-.371 2.6-.504 3.985-.599l.804-.053c1.131-.072 2.182-.139 3.038-.292.526-.094.914-.21 1.171-.347.252-.133.292-.235.302-.276v-.001c.005-.017.03-.11-.18-.342-.22-.244-.602-.523-1.148-.836-.73-.419-1.614-.827-2.558-1.262-.48-.22-.974-.45-1.471-.69-1.4-.675-2.858-1.464-3.67-2.423a3.047 3.047 0 0 1-.561-.95Z"/></svg>