<svg xmlns="http://www.w3.org/2000/svg" width="20" height="20"><path d="m14.878.282.348 1.071a2.205 2.205 0 0 0 1.399 1.397l1.071.348.021.006a.423.423 0 0 1 0 .798l-1.071.348a2.208 2.208 0 0 0-1.399 1.397l-.348 1.07a.423.423 0 0 1-.798 0l-.349-1.07a2.23 2.23 0 0 0-.532-.867 2.224 2.224 0 0 0-.866-.536l-1.071-.348a.423.423 0 0 1 0-.798l1.071-.348a2.208 2.208 0 0 0 1.377-1.397l.348-1.07a.423.423 0 0 1 .799 0Zm4.905 7.931-.766-.248a1.577 1.577 0 0 1-.998-.999l-.25-.764a.302.302 0 0 0-.57 0l-.248.764a1.576 1.576 0 0 1-.984.999l-.765.248a.303.303 0 0 0 0 .57l.765.249a1.578 1.578 0 0 1 1 1.002l.248.764a.302.302 0 0 0 .57 0l.249-.764a1.576 1.576 0 0 1 .999-.999l.765-.248a.303.303 0 0 0 0-.57l-.015-.004ZM10 3.5a1.46 1.46 0 0 1 .105-.5H9.25a.75.75 0 0 0 0 1.5h1.178a1.427 1.427 0 0 1-.428-1Zm-6.25 8a.75.75 0 0 1-.75-.75v-1.5a.75.75 0 0 1 1.5 0v1.5a.75.75 0 0 1-.75.75Zm5.5 4a.75.75 0 0 0 0 1.5h1.5a.75.75 0 0 0 0-1.5h-1.5ZM5.25 3a.75.75 0 0 1 0 1.5.75.75 0 0 0-.75.75.75.75 0 0 1-1.5 0A2.25 2.25 0 0 1 5.25 3ZM6 16.25a.75.75 0 0 1-.75.75A2.25 2.25 0 0 1 3 14.75a.75.75 0 0 1 1.5 0c0 .414.336.75.75.75a.75.75 0 0 1 .75.75Zm8 0c0 .414.336.75.75.75A2.25 2.25 0 0 0 17 14.75a.75.75 0 0 0-1.5 0 .75.75 0 0 1-.75.75.75.75 0 0 0-.75.75Z"/></svg>