<svg xmlns="http://www.w3.org/2000/svg" width="16" height="16" viewBox="0 0 16 16"><path d="M12.684 1.01c.193.045.33.21.33.402v3.294a.42.42 0 0 1-.428.412.42.42 0 0 1-.428-.412V2.58a3.107 3.107 0 0 1-.664.435.436.436 0 0 1-.574-.184.405.405 0 0 1 .191-.552c.354-.17.63-.432.82-.661a2.896 2.896 0 0 0 .271-.388.44.44 0 0 1 .482-.22Zm-1.53 6.046a.401.401 0 0 1 0-.582l.002-.001V6.47l.004-.002.008-.008a.95.95 0 0 1 .103-.084 2.201 2.201 0 0 1 1.313-.435h.007c.32.004.668.084.947.283.295.21.485.536.485.951 0 .452-.207.767-.488.992-.214.173-.49.303-.714.409-.036.016-.07.033-.103.049-.267.128-.469.24-.61.39a.762.762 0 0 0-.147.22h1.635a.42.42 0 0 1 .427.411.42.42 0 0 1-.428.412h-2.138a.42.42 0 0 1-.428-.412c0-.51.17-.893.446-1.184.259-.275.592-.445.86-.574.043-.02.085-.04.124-.06.231-.11.4-.19.529-.293.12-.097.18-.193.18-.36 0-.148-.057-.23-.14-.289a.816.816 0 0 0-.448-.122 1.32 1.32 0 0 0-.818.289l-.005.005a.44.44 0 0 1-.602-.003Zm.94 5.885a.42.42 0 0 1 .427-.412c.294 0 .456-.08.537-.15a.303.303 0 0 0 .11-.246c-.006-.16-.158-.427-.647-.427-.353 0-.535.084-.618.137a.352.352 0 0 0-.076.062l-.003.004.01-.018v.001l-.002.002-.002.004-.003.006-.005.008.002-.003a.436.436 0 0 1-.563.165.405.405 0 0 1-.191-.552v-.002l.002-.003.003-.006.008-.013a.876.876 0 0 1 .088-.12c.057-.067.14-.146.258-.22.238-.153.59-.276 1.092-.276.88 0 1.477.556 1.502 1.22.012.303-.1.606-.339.84.239.232.351.535.34.838-.026.664-.622 1.22-1.503 1.22-.502 0-.854-.122-1.092-.275a1.19 1.19 0 0 1-.326-.308.601.601 0 0 1-.02-.033l-.008-.013-.003-.005-.001-.003v-.001l-.002-.001a.405.405 0 0 1 .192-.553.436.436 0 0 1 .563.165l.003.004c.01.01.033.035.076.063.083.053.265.137.618.137.489 0 .641-.268.648-.428a.303.303 0 0 0-.11-.245c-.082-.072-.244-.151-.538-.151a.42.42 0 0 1-.427-.412ZM2.75 3a.75.75 0 0 0 0 1.5h5.5a.75.75 0 0 0 0-1.5h-5.5Zm0 4a.75.75 0 0 0 0 1.5h5.5a.75.75 0 0 0 0-1.5h-5.5Zm0 4a.75.75 0 0 0 0 1.5h5.5a.75.75 0 0 0 0-1.5h-5.5Z"/></svg>