<svg xmlns="http://www.w3.org/2000/svg" width="32" height="32" viewBox="0 0 32 32"><path d="M12.93 5.362c-.743-.372-1.558-.431-2.3-.29l-1.653.317a3.993 3.993 0 0 0-2.805 2.104c-1.914 3.753-3.361 6.827-3.92 9.448-.576 2.703-.225 5.017 1.508 7.124 1.15 1.4 3.127 1.117 4.155-.05a336.08 336.08 0 0 0 2.573-2.963A3.014 3.014 0 0 1 12.773 20h2.45c.159-.7.4-1.37.712-2h-3.162a5.02 5.02 0 0 0-3.802 1.748 333.3 333.3 0 0 1-2.557 2.945.9.9 0 0 1-.621.311.57.57 0 0 1-.488-.209c-1.267-1.54-1.574-3.196-1.097-5.437.495-2.323 1.813-5.167 3.745-8.956a1.993 1.993 0 0 1 1.4-1.049l1.652-.316c.386-.074.743-.03 1.028.113.128.064.261.133.397.206.75.4 1.601.645 2.493.645h2.148c.892 0 1.743-.246 2.493-.645.136-.073.269-.142.397-.206.285-.143.642-.187 1.028-.113l1.652.316a1.993 1.993 0 0 1 1.4 1.049c.943 1.85 1.74 3.475 2.366 4.923a8.96 8.96 0 0 1 2.637 1.22c-.738-2.062-1.862-4.386-3.221-7.052a3.993 3.993 0 0 0-2.806-2.104l-1.652-.316c-.743-.142-1.558-.083-2.3.289-.146.073-.293.15-.442.229a3.31 3.31 0 0 1-1.552.41h-2.148a3.31 3.31 0 0 1-1.552-.41c-.149-.08-.296-.156-.441-.229ZM16 13a1.5 1.5 0 1 0 0-3 1.5 1.5 0 0 0 0 3Zm15.5 9a7.5 7.5 0 1 0-15 0 7.5 7.5 0 0 0 15 0Zm-6.75-4.25v5.5a.75.75 0 0 1-1.5 0v-5.5a.75.75 0 0 1 1.5 0ZM25 26a1 1 0 1 1-2 0 1 1 0 0 1 2 0Z"/></svg>