<svg xmlns="http://www.w3.org/2000/svg" width="32" height="32"><path d="M14.037 5.65c.86-1.533 3.066-1.533 3.926 0l2.606 4.651-1.601-.283a1.25 1.25 0 1 0-.436 2.462l4.25.75a1.25 1.25 0 0 0 1.404-.835l1.25-3.75a1.25 1.25 0 0 0-2.372-.791l-.373 1.12-2.547-4.546c-1.814-3.237-6.474-3.237-8.288 0L9.651 8.363a1.25 1.25 0 1 0 2.18 1.222l2.206-3.935Zm12.048 9.382a1.25 1.25 0 0 0-2.18 1.222l3.303 5.896c.84 1.5-.244 3.35-1.963 3.35h-6.327l.792-.95a1.25 1.25 0 0 0-1.92-1.601l-2.5 3a1.25 1.25 0 0 0 0 1.6l2.5 3a1.25 1.25 0 0 0 1.92-1.6L18.92 28h6.325c3.63 0 5.918-3.905 4.144-7.072l-3.304-5.896ZM11.748 25.5H6.753c-1.72 0-2.803-1.85-1.963-3.35l3.548-6.33.809 1.518a1.25 1.25 0 0 0 2.206-1.176l-2-3.75a1.25 1.25 0 0 0-1.308-.645l-4.5.75a1.25 1.25 0 1 0 .41 2.466l2.19-.365-3.536 6.31C.835 24.094 3.123 28 6.753 28h4.995a1.25 1.25 0 1 0 0-2.5Z"/></svg>