<svg xmlns="http://www.w3.org/2000/svg" width="24" height="24" viewBox="0 0 24 24"><path d="M17.5 12a5.5 5.5 0 1 1 0 11 5.5 5.5 0 0 1 0-11Zm-2.646 5.147a.5.5 0 1 0-.707.707l2 2a.5.5 0 0 0 .707 0l4-4a.5.5 0 1 0-.707-.707L16.5 18.793l-1.646-1.646ZM12.023 14a6.47 6.47 0 0 0-.709 1.5H4.253a.749.749 0 0 0-.75.75v.577c0 .535.192 1.053.54 1.46 1.253 1.469 3.22 2.214 5.957 2.214.597 0 1.157-.035 1.68-.106.246.495.553.954.912 1.367-.795.16-1.66.24-2.592.24-3.146 0-5.532-.906-7.098-2.74a3.75 3.75 0 0 1-.898-2.435v-.578A2.249 2.249 0 0 1 4.253 14h7.77ZM10 2.005a5 5 0 1 1 0 10 5 5 0 0 1 0-10Zm0 1.5a3.5 3.5 0 1 0 0 7 3.5 3.5 0 0 0 0-7Z"/></svg>