<svg xmlns="http://www.w3.org/2000/svg" width="28" height="28" viewBox="0 0 28 28"><path d="M10.207 4c.46 0 .908.141 1.284.402l.156.12L14.022 6.5h9.728a2.25 2.25 0 0 1 2.229 1.938l.016.158.005.154v5.65a7.535 7.535 0 0 0-1.5-1.245V8.75a.75.75 0 0 0-.648-.743L23.75 8h-9.729l-2.374 1.979a2.25 2.25 0 0 1-1.244.512l-.196.009-6.707-.001V21.75c0 .38.282.694.648.743l.102.007h9.374c.234.535.529 1.038.875 1.5H4.25a2.25 2.25 0 0 1-2.245-2.096L2 21.75V6.25a2.25 2.25 0 0 1 2.096-2.245L4.25 4h5.957Zm0 1.5H4.25a.75.75 0 0 0-.743.648L3.5 6.25v2.749L10.207 9a.75.75 0 0 0 .395-.113l.085-.06 1.891-1.578-1.89-1.575a.75.75 0 0 0-.377-.167l-.104-.007ZM20.5 26a6.5 6.5 0 1 1 0-13 6.5 6.5 0 0 1 0 13Zm4-6a.5.5 0 0 0 0-1h-6.793l2.147-2.146a.5.5 0 0 0-.708-.708l-3 3a.5.5 0 0 0-.146.351v.006c0 .127.05.254.146.35l3 3a.5.5 0 0 0 .708-.707L17.707 20H24.5Z"/></svg>