<svg xmlns="http://www.w3.org/2000/svg" width="32" height="32" viewBox="0 0 32 32"><path d="M7.427 10.515C7.046 8.003 8.82 5.741 11.53 4.911a1.976 1.976 0 0 1 2.429 1.197l.869 2.32a2 2 0 0 1-.521 2.175l-2.585 2.371a1.003 1.003 0 0 0-.304.94l.023.104.064.261c.057.22.143.53.264.9.24.735.623 1.723 1.193 2.71.57.987 1.234 1.813 1.75 2.388a14.718 14.718 0 0 0 .842.864l.08.074a1 1 0 0 0 .964.205l3.346-1.053a2 2 0 0 1 2.144.637l1.583 1.922c.66.8.582 1.976-.177 2.683-2.074 1.933-4.926 2.33-6.91.734a25.464 25.464 0 0 1-6.048-7.057 24.865 24.865 0 0 1-3.109-8.77Zm6.086 3.53 2.146-1.968a4 4 0 0 0 1.042-4.35l-.87-2.32a3.976 3.976 0 0 0-4.886-2.408C7.58 4.029 4.878 7.046 5.45 10.815a26.88 26.88 0 0 0 3.357 9.477 27.461 27.461 0 0 0 6.523 7.61c2.975 2.39 6.949 1.575 9.528-.83a3.962 3.962 0 0 0 .357-5.417l-1.583-1.922a4 4 0 0 0-4.289-1.274l-2.777.874a13.15 13.15 0 0 1-.365-.391 12.537 12.537 0 0 1-1.507-2.053 12.544 12.544 0 0 1-1.025-2.332 13.09 13.09 0 0 1-.156-.512Z"/></svg>