<svg xmlns="http://www.w3.org/2000/svg" width="20" height="20" viewBox="0 0 20 20"><path d="M2.993 4.086v-.003L3 4.058a1.495 1.495 0 0 1 .244-.507C3.439 3.29 3.796 3 4.5 3c.638 0 1.04.209 1.266.497.232.294.354.762.241 1.418-.066.386-.26.616-.563.81-.248.16-.526.273-.859.408-.133.054-.274.112-.426.177-.492.212-1.048.495-1.471 1.001C2.253 7.831 2 8.532 2 9.5a.5.5 0 0 0 .5.5h4a.5.5 0 0 0 0-1H3.031c.066-.49.229-.813.424-1.047.267-.32.64-.527 1.1-.725.102-.044.213-.089.329-.136.36-.146.768-.311 1.1-.525.483-.31.885-.76 1.009-1.482.145-.844.016-1.626-.441-2.207C6.089 2.291 5.362 2 4.5 2c-1.045 0-1.689.46-2.056.95a2.495 2.495 0 0 0-.43.933l-.005.022-.001.007v.005S2 4 2.006 3.917a.5.5 0 0 0 .986.17ZM13 4.5a2.5 2.5 0 0 1 5 0v3a2.5 2.5 0 0 1-5 0v-3Zm4 3v-3a1.5 1.5 0 0 0-3 0v3a1.5 1.5 0 0 0 3 0Zm-14 5a.5.5 0 0 1 .5-.5h3a.5.5 0 0 1 0 1H4v2h1.5a.5.5 0 0 1 0 1H4v1.5a.5.5 0 0 1-1 0v-5Zm5 0a.5.5 0 0 1 .5-.5H10a2 2 0 1 1 0 4H9v1.5a.5.5 0 0 1-1 0v-5ZM9 15h1a1 1 0 1 0 0-2H9v2Zm5.75-3a1.75 1.75 0 1 0 0 3.5h.5a.75.75 0 0 1 0 1.5h-.764a.486.486 0 0 1-.486-.486V16.5a.5.5 0 0 0-1 0v.014c0 .82.665 1.486 1.486 1.486h.764a1.75 1.75 0 1 0 0-3.5h-.5a.75.75 0 0 1 0-1.5h.764c.269 0 .486.217.486.486v.014a.5.5 0 0 0 1 0v-.014c0-.82-.665-1.486-1.486-1.486h-.764ZM9 2.5a.5.5 0 0 0-1 0v4a.5.5 0 0 0 .5.5H11v2.5a.5.5 0 0 0 1 0v-7a.5.5 0 0 0-1 0V6H9V2.5Z"/></svg>