<svg xmlns="http://www.w3.org/2000/svg" width="28" height="28"><path d="M22.993 6.008A3.243 3.243 0 0 1 24.5 8.75v10.5c0 2.9-2.35 5.25-5.25 5.25H8.75a3.247 3.247 0 0 1-2.744-1.508l.122.006.122.002h13A3.75 3.75 0 0 0 23 19.25v-13a4.32 4.32 0 0 0-.007-.242ZM18.75 3A3.25 3.25 0 0 1 22 6.25v12.5A3.25 3.25 0 0 1 18.75 22H6.25A3.25 3.25 0 0 1 3 18.75V6.25A3.25 3.25 0 0 1 6.25 3h12.5Zm.581 17.401-6.306-6.178a.75.75 0 0 0-.966-.07l-.084.07-6.307 6.178c.182.064.378.099.582.099h12.5c.204 0 .4-.035.581-.099l-6.306-6.178 6.306 6.178ZM18.75 4.5H6.25A1.75 1.75 0 0 0 4.5 6.25v12.5c0 .208.036.408.103.593l6.322-6.191a2.25 2.25 0 0 1 3.02-.117l.13.117 6.322 6.192a1.75 1.75 0 0 0 .103-.594V6.25a1.75 1.75 0 0 0-1.75-1.75ZM16 7.751a1.25 1.25 0 1 1 0 2.499 1.25 1.25 0 0 1 0-2.499Z"/></svg>