<svg xmlns="http://www.w3.org/2000/svg" width="24" height="24"><path d="M5.25 2h5a.75.75 0 0 1 0 1.5h-5A1.75 1.75 0 0 0 3.5 5.25v3.126A4.264 4.264 0 0 0 2 9.51V5.25A3.25 3.25 0 0 1 5.25 2Zm10.374 18.5A4.264 4.264 0 0 1 14.49 22h4.261A3.25 3.25 0 0 0 22 18.75v-5a.75.75 0 0 0-1.5 0v5a1.75 1.75 0 0 1-1.75 1.75h-3.126ZM21.25 11a.75.75 0 0 0 .75-.75v-5A3.25 3.25 0 0 0 18.75 2h-5a.75.75 0 0 0 0 1.5h5c.966 0 1.75.784 1.75 1.75v5c0 .414.336.75.75.75Zm-16-2A3.25 3.25 0 0 0 2 12.25v6.5A3.25 3.25 0 0 0 5.25 22h6.5A3.25 3.25 0 0 0 15 18.75v-6.5A3.25 3.25 0 0 0 11.75 9h-6.5ZM3.5 12.25c0-.966.784-1.75 1.75-1.75H6V13H3.5v-.75ZM6 14.5V17H3.5v-2.5H6ZM7.5 17v-2.5h2V17h-2Zm3.5 0v-2.5h2.5V17H11Zm-3.5 1.5h2v2h-2v-2Zm3.5 0h2.5v.25a1.75 1.75 0 0 1-1.75 1.75H11v-2Zm0-8h.75c.966 0 1.75.784 1.75 1.75V13H11v-2.5ZM9.5 13h-2v-2.5h2V13ZM6 18.5v2h-.75a1.75 1.75 0 0 1-1.75-1.75v-.25H6Z"/></svg>