<svg xmlns="http://www.w3.org/2000/svg" width="28" height="28" viewBox="0 0 28 28"><path d="M2 8.75a1.75 1.75 0 1 0 3.5 0 1.75 1.75 0 0 0-3.5 0Zm1 2.646v9.354A4.25 4.25 0 0 0 7.25 25h13.5A4.25 4.25 0 0 0 25 20.75V7.25A4.25 4.25 0 0 0 20.75 3H7.25a4.252 4.252 0 0 0-4.082 3.062 2.76 2.76 0 0 1 1.55.113A2.75 2.75 0 0 1 7.25 4.5h13.5a2.75 2.75 0 0 1 2.75 2.75v13.5a2.75 2.75 0 0 1-2.75 2.75H7.25a2.75 2.75 0 0 1-2.75-2.75v-9.354a2.753 2.753 0 0 1-1.5 0ZM9.75 11a.75.75 0 0 0 0 1.5h8.5a.75.75 0 0 0 0-1.5h-8.5ZM9 15.75a.75.75 0 0 1 .75-.75h5.75a.75.75 0 0 1 0 1.5H9.75a.75.75 0 0 1-.75-.75Z"/></svg>