<svg xmlns="http://www.w3.org/2000/svg" width="24" height="24" viewBox="0 0 24 24"><path d="M9.75 3a.75.75 0 0 1 .75.75V5h2V3.75a.75.75 0 0 1 1.5 0V5h2.75a.75.75 0 0 1 .696.471l.812 2.029h.992A2.75 2.75 0 0 1 22 10.25v5.5a2.75 2.75 0 0 1-2.75 2.75h-.992l-.812 2.029a.75.75 0 0 1-.696.471h-7.5a.75.75 0 0 1-.548-.238L5.74 17.588A2.75 2.75 0 0 1 5 15.712V12.5H3.5v3.75a.75.75 0 0 1-1.5 0v-8.5a.75.75 0 0 1 1.5 0V11H5V7.75A2.75 2.75 0 0 1 7.75 5H9V3.75A.75.75 0 0 1 9.75 3Zm.75 6.75a.75.75 0 0 0-1.5 0v2.5A2.75 2.75 0 0 0 11.75 15h6.5a.75.75 0 0 0 0-1.5H14V9.75a.75.75 0 0 0-1.5 0v3.75h-.75c-.69 0-1.25-.56-1.25-1.25v-2.5Z"/></svg>