<svg xmlns="http://www.w3.org/2000/svg" width="20" height="20"><path d="M2.997 3.496a.5.5 0 0 1 .5-.5h.438c.727 0 1.145.473 1.387.945.165.323.284.717.383 1.059H16a1 1 0 0 1 .962 1.272l-1.496 5.275A2 2 0 0 1 13.542 13H8.463a2 2 0 0 1-1.93-1.473l-.642-2.355a.513.513 0 0 1-.01-.032L4.85 5.643l-.1-.337c-.1-.346-.188-.652-.32-.909-.159-.31-.305-.4-.496-.4h-.438a.5.5 0 0 1-.5-.5ZM6.845 8.87l.653 2.396a1 1 0 0 0 .965.736h5.08a1 1 0 0 0 .961-.727L16 6H6l.845 2.869ZM10 15.499a1.5 1.5 0 1 1-3 0 1.5 1.5 0 0 1 3 0Zm-1 0a.5.5 0 1 0-1 0 .5.5 0 0 0 1 0Zm6 0a1.5 1.5 0 1 1-3 0 1.5 1.5 0 0 1 3 0Zm-1 0a.5.5 0 1 0-1 0 .5.5 0 0 0 1 0Z"/></svg>