<svg xmlns="http://www.w3.org/2000/svg" width="32" height="32" viewBox="0 0 32 32"><path d="M4 9a5 5 0 0 1 5-5h14.004a5 5 0 0 1 5 5v5.003L28 13.999a9.99 9.99 0 0 0-2.5-1.37V10h-19v13A2.5 2.5 0 0 0 9 25.5h3.63A9.992 9.992 0 0 0 14 28l.003.004H9a5 5 0 0 1-5-5V9Zm12.003 3.998v.999a10.062 10.062 0 0 0-2 1.998v-1.997h-3.995V22H12c0 .684.069 1.353.2 2H9.009a1 1 0 0 1-1-1V12.998a1 1 0 0 1 1-1h5.994a1 1 0 0 1 1 1Zm.674 15.572.046-.156a4 4 0 0 0-2.895-5.02 8.535 8.535 0 0 1 .07-2.746 4 4 0 0 0 2.88-4.987 8.533 8.533 0 0 1 2.344-1.435 4 4 0 0 0 5.794-.003l.112-.118a7.97 7.97 0 0 1 2.295 1.326l-.046.155a4 4 0 0 0 2.895 5.02 8.53 8.53 0 0 1-.07 2.747 4 4 0 0 0-2.88 4.987 8.533 8.533 0 0 1-2.344 1.435 4 4 0 0 0-5.794.003l-.112.117a7.97 7.97 0 0 1-2.295-1.325Zm4.17-4.571c1.066.616 2.447.22 3.084-.884.638-1.103.29-2.498-.777-3.113-1.067-.616-2.448-.22-3.085.883-.638 1.104-.29 2.498.777 3.114Z"/></svg>