<svg xmlns="http://www.w3.org/2000/svg" width="24" height="24"><path d="M10.129 3.195a9.033 9.033 0 0 1 3.742 0 .75.75 0 1 1-.31 1.467 7.534 7.534 0 0 0-3.122 0 .75.75 0 0 1-.31-1.467Zm5.736 1.476a.75.75 0 0 1 1.038-.22 9.03 9.03 0 0 1 1.097.84V4.25a.75.75 0 0 1 1.5 0v3a.75.75 0 0 1-.75.75h-3a.75.75 0 0 1 0-1.5h1.35a7.537 7.537 0 0 0-1.015-.791.75.75 0 0 1-.22-1.038ZM19.5 12v-.75a.75.75 0 0 1 1.5 0V12c0 .64-.067 1.267-.195 1.871a.75.75 0 0 1-1.467-.31A7.538 7.538 0 0 0 19.5 12ZM8.135 4.671a.75.75 0 0 1-.22 1.038A7.545 7.545 0 0 0 5.71 7.915a.75.75 0 1 1-1.257-.818 9.044 9.044 0 0 1 2.645-2.646.75.75 0 0 1 1.038.22ZM4.662 10.44a.75.75 0 0 0-1.467-.31 9.033 9.033 0 0 0 0 3.742.75.75 0 1 0 1.467-.31 7.534 7.534 0 0 1 0-3.122Zm14.667 5.426a.75.75 0 0 1 .22 1.038 9.043 9.043 0 0 1-2.646 2.646.75.75 0 0 1-.818-1.258 7.548 7.548 0 0 0 2.206-2.206.75.75 0 0 1 1.038-.22Zm-13.62.22a.75.75 0 1 0-1.257.818 9.043 9.043 0 0 0 2.645 2.646.75.75 0 0 0 .818-1.258 7.546 7.546 0 0 1-2.206-2.206Zm3.841 3.831a.75.75 0 0 1 .89-.578 7.538 7.538 0 0 0 3.12 0 .75.75 0 1 1 .311 1.467 9.035 9.035 0 0 1-3.742 0 .75.75 0 0 1-.579-.889Z"/></svg>