<svg xmlns="http://www.w3.org/2000/svg" width="16" height="16"><path d="M5 2a2 2 0 0 0-2 2v2.005c0 .53-.008.794-.09.997-.062.156-.194.331-.634.55a.5.5 0 0 0 0 .895c.44.22.572.395.635.551.081.204.089.47.089 1.002v2a2 2 0 0 0 2 2 .5.5 0 0 0 0-1 1 1 0 0 1-1-1V9.941c0-.449 0-.91-.16-1.314A1.688 1.688 0 0 0 3.4 8c.196-.18.342-.384.44-.626C4 6.971 4 6.51 4 6.063V4a1 1 0 0 1 1-1 .5.5 0 0 0 0-1Zm6 0a2 2 0 0 1 2 2v2.005c0 .53.008.794.09.997.062.156.194.331.634.55a.5.5 0 0 1 0 .895c-.44.22-.572.395-.635.551-.081.204-.089.47-.089 1.002v2a2 2 0 0 1-2 2 .5.5 0 0 1 0-1 1 1 0 0 0 1-1V9.941c0-.449 0-.91.16-1.314A1.69 1.69 0 0 1 12.6 8a1.687 1.687 0 0 1-.44-.626C12 6.971 12 6.51 12 6.063V4a1 1 0 0 0-1-1 .5.5 0 0 1 0-1Z"/></svg>