<svg xmlns="http://www.w3.org/2000/svg" width="16" height="16" viewBox="0 0 16 16"><path d="m13.294 14.001.852.853a.5.5 0 0 0 .708-.708l-13-13a.5.5 0 1 0-.708.708l3.169 3.168-2.295.775A1.5 1.5 0 0 0 1 7.217v1.566a1.5 1.5 0 0 0 1.018 1.42L4 10.877V12a3 3 0 0 0 5.872.868l3.146 1.067c.092.031.184.053.276.066Zm-1.556-1.556L2.339 9.257A.5.5 0 0 1 2 8.783V7.218a.5.5 0 0 1 .34-.474l2.764-.933 6.634 6.634Zm-2.814.101A2 2 0 0 1 5 12v-.785l3.924 1.332ZM14 3.504v8.376l.964.964c.024-.105.036-.215.036-.328V3.503a1.5 1.5 0 0 0-1.98-1.421L6.43 4.308l.788.789 6.122-2.068a.5.5 0 0 1 .66.474Z"/></svg>