<svg xmlns="http://www.w3.org/2000/svg" width="48" height="48"><path d="M7.262 3.244c-1.787-.893-3.765.812-3.146 2.711L8.13 18.26a2 2 0 0 0 1.573 1.352l15.86 2.643c.835.14.835 1.34 0 1.48L9.704 26.378a2 2 0 0 0-1.573 1.352L4.116 40.042c-.62 1.9 1.359 3.605 3.146 2.712l24.74-12.366v-.897A3.25 3.25 0 0 1 32.25 23h11.5c.084 0 .167.003.249.01a2.225 2.225 0 0 0-1.244-2.024L7.262 3.244ZM31 26.25c0-.69.56-1.25 1.25-1.25h11.5a1.25 1.25 0 0 1 0 2.5H42v6.274a5 5 0 0 0 .772 2.669L43.754 38h-11.51l.984-1.56A5 5 0 0 0 34 33.772V27.5h-1.75c-.69 0-1.25-.56-1.25-1.25ZM30.982 40l-1.514 2.4c-1.26 1.997.175 4.6 2.537 4.6h11.988c2.363 0 3.798-2.603 2.538-4.6L45.016 40H30.982Z"/></svg>