<svg xmlns="http://www.w3.org/2000/svg" width="20" height="20"><path d="M8.5 2a1.5 1.5 0 0 0-1.415 1H5.5A1.5 1.5 0 0 0 4 4.5v12A1.5 1.5 0 0 0 5.5 18h3.837a3.476 3.476 0 0 1-.302-1H5.5a.5.5 0 0 1-.5-.5v-12a.5.5 0 0 1 .5-.5h1.585A1.5 1.5 0 0 0 8.5 5h3a1.5 1.5 0 0 0 1.415-1H14.5a.5.5 0 0 1 .5.5V10h1V4.5A1.5 1.5 0 0 0 14.5 3h-1.585A1.5 1.5 0 0 0 11.5 2h-3ZM8 3.5a.5.5 0 0 1 .5-.5h3a.5.5 0 0 1 0 1h-3a.5.5 0 0 1-.5-.5Zm4 7.5a2 2 0 0 0-2 2v4a2 2 0 0 0 2 2h5a2 2 0 0 0 2-2v-4a2 2 0 0 0-2-2h-5Zm0 5.5a.5.5 0 0 1 .5-.5h4a.5.5 0 1 1 0 1h-4a.5.5 0 0 1-.5-.5Zm0-3a.5.5 0 0 1 .5-.5h4a.5.5 0 1 1 0 1h-4a.5.5 0 0 1-.5-.5Z"/></svg>