<svg xmlns="http://www.w3.org/2000/svg" width="16" height="16" viewBox="0 0 16 16"><path d="M4 2a2 2 0 0 0-2 2v5a2 2 0 0 0 2 2h1v1a2 2 0 0 0 2 2h5a2 2 0 0 0 2-2V7a2 2 0 0 0-2-2h-1V4a2 2 0 0 0-2-2H4Zm1.143 1L3 5.143V4a1 1 0 0 1 1-1h1.143ZM3 6.557 6.557 3h1.586L3 8.143V6.557Zm6.45-3.45A1 1 0 0 1 10 4v.293L4.293 10H4a1 1 0 0 1-.893-.55L9.45 3.107Zm.55 2.6V6h1.293L6 11.293V10h-.293L10 5.707Zm-3.838 6.839 6.384-6.384A1 1 0 0 1 13 7v.293L7.293 13H7a1 1 0 0 1-.838-.454ZM13 8.707v1.586L10.293 13H8.707L13 8.707Zm0 3V12a1 1 0 0 1-1 1h-.293L13 11.707Z"/></svg>