<svg xmlns="http://www.w3.org/2000/svg" width="28" height="28" viewBox="0 0 28 28"><path d="M14 5a8.96 8.96 0 0 0-5.658 2H10a1 1 0 1 1 0 2H6a1 1 0 0 1-1-1.013V4a1 1 0 0 1 2 0v1.514A10.957 10.957 0 0 1 14 3c6.075 0 11 4.925 11 11 0 .165-.004.329-.01.491a7.48 7.48 0 0 0-2.008-1.07A9 9 0 0 0 14 5Zm-.58 17.982a7.48 7.48 0 0 0 1.071 2.007A11.38 11.38 0 0 1 14 25C7.925 25 3 20.075 3 14c0-.37.018-.737.054-1.099a1 1 0 1 1 1.99.198 9 9 0 0 0 8.376 9.883ZM15.4 15a7.511 7.511 0 0 1 2.038-1.348A1 1 0 0 0 16.5 13H15V8a1 1 0 1 0-2 0v6a1 1 0 0 0 1 1h1.4ZM27 20.5a6.5 6.5 0 1 1-13 0 6.5 6.5 0 0 1 13 0Zm-9.146-3.354a.5.5 0 0 0-.708.708l2.647 2.646-2.647 2.646a.5.5 0 0 0 .708.708l2.646-2.647 2.646 2.647a.5.5 0 0 0 .708-.708L21.207 20.5l2.647-2.646a.5.5 0 0 0-.708-.708L20.5 19.793l-2.646-2.647Z"/></svg>