<svg xmlns="http://www.w3.org/2000/svg" width="16" height="16"><path d="M12.44 1.56a1.914 1.914 0 0 0-2.707 0L2.338 8.955a1.649 1.649 0 0 0-.398.644l-.914 2.743a.5.5 0 0 0 .632.632l2.743-.914a1.65 1.65 0 0 0 .644-.398l.065-.064a5.525 5.525 0 0 1-.106-1.309l-.666.666a.648.648 0 0 1-.253.156l-1.794.598.598-1.794a.649.649 0 0 1 .156-.253l7.395-7.394a.914.914 0 1 1 1.293 1.293L10.29 5.004a5.595 5.595 0 0 1 1.31.106l.841-.842a1.914 1.914 0 0 0 0-2.708ZM15 10.5a4.5 4.5 0 1 1-9 0 4.5 4.5 0 0 1 9 0Zm-2.646-1.146a.5.5 0 0 0-.708-.708L10.5 9.793 9.354 8.646a.5.5 0 1 0-.708.708L9.793 10.5l-1.147 1.146a.5.5 0 0 0 .708.708l1.146-1.147 1.146 1.147a.5.5 0 0 0 .708-.708L11.207 10.5l1.147-1.146Z"/></svg>