<svg xmlns="http://www.w3.org/2000/svg" width="16" height="16" viewBox="0 0 16 16"><path d="M11.5 2A2.5 2.5 0 0 1 14 4.5v1.917a2.564 2.564 0 0 1-.534-.21 3.722 3.722 0 0 1-.985-.779 1.334 1.334 0 0 0-.98-.428H13v-.5A1.5 1.5 0 0 0 11.5 3h-7A1.5 1.5 0 0 0 3 4.5V5h8.502c-.357 0-.713.142-.979.427A4.167 4.167 0 0 1 9.875 6H3v5.5A1.5 1.5 0 0 0 4.5 13h3.108a5.36 5.36 0 0 0 .629 1H4.5A2.5 2.5 0 0 1 2 11.5v-7A2.5 2.5 0 0 1 4.5 2h7Zm1.502 5.094c.321.168.654.283.998.347h.002c.212.04.428.059.65.059.168 0 .31.129.342.3l.007.075v2.25c0 2.415-1.149 4.056-3.39 4.856a.329.329 0 0 1-.22 0c-.692-.247-1.28-.575-1.762-.98L9.628 14a4.344 4.344 0 0 1-.877-.999V13c-.463-.728-.713-1.608-.746-2.635L8 10.125v-2.25c0-.207.157-.375.35-.375 1.07 0 2.033-.458 2.903-1.39a.334.334 0 0 1 .495 0A4.717 4.717 0 0 0 13 7.092l.002.002Z"/></svg>