<svg xmlns="http://www.w3.org/2000/svg" width="48" height="48"><path d="M16 17.768V24a8 8 0 0 0 12.704 6.472l2.356 2.356A11.45 11.45 0 0 1 24 35.25c-6.351 0-11.5-5.149-11.5-11.5a1.25 1.25 0 1 0-2.5 0c0 7.225 5.473 13.172 12.5 13.92v5.08a1.25 1.25 0 1 0 2.5 0v-5.035c2.963-.21 5.67-1.34 7.84-3.108l8.776 8.777a1.25 1.25 0 1 0 1.768-1.768l-37-37a1.25 1.25 0 0 0-1.768 1.768L16 17.768Zm18.258 11.186 1.842 1.843A13.936 13.936 0 0 0 38 23.75a1.25 1.25 0 1 0-2.5 0 11.45 11.45 0 0 1-1.242 5.204ZM16.09 10.788l15.56 15.559A8.01 8.01 0 0 0 31.999 24V12a8 8 0 0 0-15.909-1.212Z"/></svg>