<svg xmlns="http://www.w3.org/2000/svg" width="20" height="20"><path d="m14.878.282.348 1.071a2.205 2.205 0 0 0 1.399 1.397l1.071.348.021.006a.423.423 0 0 1 0 .798l-1.071.348a2.208 2.208 0 0 0-1.399 1.397l-.348 1.07a.423.423 0 0 1-.798 0l-.349-1.07a2.23 2.23 0 0 0-.532-.867 2.224 2.224 0 0 0-.866-.536l-1.071-.348a.423.423 0 0 1 0-.798l1.071-.348a2.208 2.208 0 0 0 1.377-1.397l.348-1.07a.423.423 0 0 1 .799 0Zm4.905 7.931-.766-.248a1.577 1.577 0 0 1-.998-.999l-.25-.764a.302.302 0 0 0-.57 0l-.248.764a1.576 1.576 0 0 1-.984.999l-.765.248a.303.303 0 0 0 0 .57l.765.249a1.578 1.578 0 0 1 1 1.002l.032.1.215.662v.002a.302.302 0 0 0 .571 0l.249-.764a1.576 1.576 0 0 1 .999-.999l.765-.248a.303.303 0 0 0 0-.57l-.015-.004Zm-2.48 3.773a1.3 1.3 0 0 1-.53-.21 7 7 0 1 1-6.683-8.775 1.423 1.423 0 0 1 .884-.854l.193-.063a8 8 0 1 0 6.587 9.893c-.148.03-.3.032-.45.009Zm-4.636.61a4.011 4.011 0 0 1-5.512-.169.5.5 0 1 0-.71.705 5.011 5.011 0 0 0 7.087.023l.023-.023.057-.07a.5.5 0 0 0-.767-.635l-.178.17ZM13.5 8.5a1 1 0 1 0-2 0 1 1 0 0 0 2 0Zm-5 0a1 1 0 1 0-2 0 1 1 0 0 0 2 0Z"/></svg>