<svg xmlns="http://www.w3.org/2000/svg" width="28" height="28"><path d="M3.28 2.22a.75.75 0 1 0-1.06 1.06l5.724 5.725H5.25A3.25 3.25 0 0 0 2 12.255v3.492a3.25 3.25 0 0 0 3.25 3.25h3.012c.444 0 .872.17 1.196.473l4.937 4.626c.799.748 2.105.182 2.105-.912v-5.623l8.22 8.22a.75.75 0 0 0 1.06-1.061L3.28 2.22ZM15 16.06v6.547l-4.516-4.231a3.25 3.25 0 0 0-2.222-.879H5.25a1.75 1.75 0 0 1-1.75-1.75v-3.492c0-.966.784-1.75 1.75-1.75h3.011c.35 0 .693-.056 1.02-.164L15 16.061Zm-4.378-8.62 1.061 1.061L15 5.391v6.427l1.5 1.5V4.814c0-1.094-1.307-1.66-2.105-.912L10.622 7.44Zm9.55 9.55 1.137 1.137A9.464 9.464 0 0 0 22.25 14a9.46 9.46 0 0 0-1.897-5.697.75.75 0 1 0-1.2.9A7.96 7.96 0 0 1 20.75 14a7.976 7.976 0 0 1-.578 2.99Zm2.803 2.803 1.095 1.096a13.191 13.191 0 0 0 1.93-6.89 13.2 13.2 0 0 0-3.298-8.747.75.75 0 0 0-1.126.99A11.702 11.702 0 0 1 24.5 14a11.69 11.69 0 0 1-1.525 5.793Z"/></svg>