<svg xmlns="http://www.w3.org/2000/svg" width="28" height="28"><path d="M3.5 14C3.5 8.201 8.201 3.5 14 3.5S24.5 8.201 24.5 14 19.799 24.5 14 24.5 3.5 19.799 3.5 14ZM14 2C7.373 2 2 7.373 2 14s5.373 12 12 12 12-5.373 12-12S20.627 2 14 2ZM8.083 9.698c-.388-1.01.604-2.003 1.615-1.615l4.995 1.92a5.75 5.75 0 0 1 3.305 3.304l1.919 4.995c.388 1.01-.605 2.003-1.615 1.615l-4.995-1.92a5.75 5.75 0 0 1-3.305-3.304L8.083 9.698Zm1.602-.013 1.717 4.47a4.25 4.25 0 0 0 2.443 2.443l4.47 1.717-1.717-4.47a4.25 4.25 0 0 0-2.443-2.443l-4.47-1.717Z"/></svg>