<svg xmlns="http://www.w3.org/2000/svg" width="24" height="24"><path d="M10.248 10.912c.473-.398 1.077-.733 1.752-.733s1.28.335 1.752.733a4.603 4.603 0 0 1 .675.71l.036.05a.748.748 0 0 0 1.241-.001 4.605 4.605 0 0 1 .71-.758c.473-.4 1.077-.734 1.753-.734.675 0 1.279.335 1.751.733.231.195.414.391.538.538l.173.22A.75.75 0 0 0 22 11.25C22 6.575 17.953 2 12 2S2 6.575 2 11.25a.75.75 0 0 0 1.37.42l.174-.22c.124-.147.307-.343.538-.537.472-.4 1.076-.734 1.751-.734.676 0 1.28.335 1.752.733a4.606 4.606 0 0 1 .71.759.752.752 0 0 0 1.242 0l.036-.05a4.61 4.61 0 0 1 .675-.71ZM12 11.18c-.236 0-.49.082-.75.24V19a1.5 1.5 0 1 1-3 0v-.25a.75.75 0 0 0-1.5 0V19a3 3 0 1 0 6 0v-7.582c-.26-.157-.514-.24-.75-.24Z"/></svg>