<svg xmlns="http://www.w3.org/2000/svg" width="16" height="16"><path d="M6 7a2 2 0 1 1 4 0 2 2 0 0 1-4 0Zm2-1a1 1 0 1 0 0 2 1 1 0 0 0 0-2Zm-2.305 4c-.331 0-.69.238-.72.657-.023.315.005.922.46 1.453.461.54 1.269.89 2.565.89s2.104-.35 2.566-.89c.454-.531.482-1.138.46-1.453-.03-.42-.39-.657-.721-.657h-4.61Zm.499 1.46a.932.932 0 0 1-.21-.46h4.032a.933.933 0 0 1-.21.46c-.204.237-.678.54-1.806.54-1.128 0-1.602-.303-1.806-.54ZM10.914 2h.586A1.5 1.5 0 0 1 13 3.5v10a1.5 1.5 0 0 1-1.5 1.5h-7A1.5 1.5 0 0 1 3 13.5v-10A1.5 1.5 0 0 1 4.5 2h.585A1.5 1.5 0 0 1 6.5 1h3a1.5 1.5 0 0 1 1.415 1ZM5.086 3H4.5a.5.5 0 0 0-.5.5v10a.5.5 0 0 0 .5.5h7a.5.5 0 0 0 .5-.5v-10a.5.5 0 0 0-.5-.5h-.585A1.5 1.5 0 0 1 9.5 4h-3a1.5 1.5 0 0 1-1.415-1ZM6 2.5a.5.5 0 0 0 .5.5h3a.5.5 0 0 0 0-1h-3a.5.5 0 0 0-.5.5Z"/></svg>