<svg xmlns="http://www.w3.org/2000/svg" width="20" height="20"><path d="M18 7a5 5 0 0 0-9.925-.866c-.427 1.493-.833 2.282-1.045 2.63l-1.884 1.883a.5.5 0 0 0 .354.853h.389l-2.003 2.003a2 2 0 0 0-1.146 3.55c.076.062.145.131.207.207a2 2 0 0 0 3.55-1.157L8.5 14.102v.4a.5.5 0 0 0 .854.353l1.871-1.872c.345-.212 1.154-.631 2.709-1.07.236-.044.467-.105.69-.182.131-.034.256-.08.37-.144A5.001 5.001 0 0 0 18 7Zm-9.5 5.687-2.784 2.785A.746.746 0 0 0 5.5 16a1 1 0 0 1-1.777.63 2.427 2.427 0 0 0-.353-.353A1 1 0 0 1 4 14.5a.724.724 0 0 0 .513-.21l2.79-2.79H8.5v1.187ZM13 3a4 4 0 0 1 1.574 7.678.488.488 0 0 0-.055.028.57.57 0 0 1-.149.057l-.01.002a3.971 3.971 0 0 1-.676.179c-1.716.482-2.625.958-3.04 1.222a.493.493 0 0 0-.086.069L9.5 13.293v-2.234a.5.5 0 0 0-.146-.354l-.06-.059a.5.5 0 0 0-.353-.146H6.707l1.07-1.07a.5.5 0 0 0 .07-.087c.263-.417.727-1.307 1.197-2.96a.5.5 0 0 0 .012-.054 3.967 3.967 0 0 1 .232-.822A4.001 4.001 0 0 1 13 3Z"/></svg>