<svg xmlns="http://www.w3.org/2000/svg" width="20" height="20"><path d="M4 5a2 2 0 0 1 2-2h7a2 2 0 0 1 2 2v7h3v2a3 3 0 0 1-3 3h-3.879l-1.56-1.56A4.482 4.482 0 0 0 10 13.5 4.491 4.491 0 0 0 8.329 10H11.5a.5.5 0 0 0 0-1h-4a.5.5 0 0 0-.447.275A4.491 4.491 0 0 0 5.5 9c-.526 0-1.03.09-1.5.256V5Zm11 11a2 2 0 0 0 2-2v-1h-2v3ZM7.5 6a.5.5 0 0 0 0 1h4a.5.5 0 0 0 0-1h-4Zm-2 11c.786 0 1.512-.26 2.096-.697l2.55 2.55a.5.5 0 1 0 .708-.707l-2.55-2.55A3.5 3.5 0 1 0 5.5 17Zm0-1a2.5 2.5 0 1 1 0-5 2.5 2.5 0 0 1 0 5Z"/></svg>