<svg xmlns="http://www.w3.org/2000/svg" width="20" height="20"><path d="M18 5.5a4.5 4.5 0 1 1-9 0 4.5 4.5 0 0 1 9 0Zm-2.646-1.146a.5.5 0 0 0-.708-.708L13.5 4.793l-1.146-1.147a.5.5 0 0 0-.708.708L12.793 5.5l-1.147 1.146a.5.5 0 0 0 .708.708L13.5 6.207l1.146 1.147a.5.5 0 0 0 .708-.708L14.207 5.5l1.147-1.146ZM17 9.743a5.507 5.507 0 0 1-1 .657v.6h-3.5a.5.5 0 0 0-.5.5 2 2 0 1 1-4 0 .5.5 0 0 0-.5-.5H4V8h4.6a5.463 5.463 0 0 1-.393-1H4a2 2 0 0 1 2-2h2.022a5.48 5.48 0 0 1 .185-1H6a3 3 0 0 0-3 3v8a3 3 0 0 0 3 3h8a3 3 0 0 0 3-3V9.743ZM16 15a2 2 0 0 1-2 2H6a2 2 0 0 1-2-2v-3h3.041a3 3 0 0 0 5.918 0H16v3Z"/></svg>