<svg xmlns="http://www.w3.org/2000/svg" width="20" height="20" viewBox="0 0 20 20"><path d="M6.75 6.5a.75.75 0 1 0 0-1.5.75.75 0 0 0 0 1.5Zm.75 2.25a.75.75 0 1 1-1.5 0 .75.75 0 0 1 1.5 0Zm-.75 3.75a.75.75 0 1 0 0-1.5.75.75 0 0 0 0 1.5Zm3.75-6.75a.75.75 0 1 1-1.5 0 .75.75 0 0 1 1.5 0ZM9.75 9.5a.75.75 0 1 0 0-1.5.75.75 0 0 0 0 1.5ZM9.006 17H5V3.5a.5.5 0 0 1 .5-.5h6a.5.5 0 0 1 .5.5v5a.5.5 0 0 0 .5.5h2a.5.5 0 0 1 .5.5v1.668c.091.13.172.269.24.414.219-.198.476-.354.76-.454V9.5A1.5 1.5 0 0 0 14.5 8H13V3.5A1.5 1.5 0 0 0 11.5 2h-6A1.5 1.5 0 0 0 4 3.5v14a.5.5 0 0 0 .5.5h4.744a2.966 2.966 0 0 1-.238-1Zm5.494-4.25a1.75 1.75 0 1 1-3.5 0 1.75 1.75 0 0 1 3.5 0Zm1.5 4.063c0 1.09-.857 2.187-3 2.187s-3-1.094-3-2.188c0-.724.576-1.312 1.286-1.312h3.428c.71 0 1.286.588 1.286 1.313Zm.477 1.687h.023c1.786 0 2.5-.941 2.5-1.875 0-.621-.48-1.125-1.071-1.125h-1.333c.256.375.404.829.404 1.313 0 .582-.166 1.173-.523 1.687ZM18 13.25a1.25 1.25 0 1 1-2.5 0 1.25 1.25 0 0 1 2.5 0Z"/></svg>