<svg xmlns="http://www.w3.org/2000/svg" width="24" height="24" viewBox="0 0 24 24"><path d="M9.5 13.75a.25.25 0 0 1 .25-.25h4.5a.25.25 0 0 1 .25.25v2.5a.25.25 0 0 1-.25.25h-4.5a.25.25 0 0 1-.25-.25v-2.5ZM10.25 2h3.5a2.25 2.25 0 0 1 2.236 2h1.764A2.25 2.25 0 0 1 20 6.25v13.5A2.25 2.25 0 0 1 17.75 22H6.25A2.25 2.25 0 0 1 4 19.75V6.25A2.25 2.25 0 0 1 6.25 4h1.764a2.25 2.25 0 0 1 2.236-2Zm3.5 1.5h-3.5a.75.75 0 0 0 0 1.5h3.5a.75.75 0 0 0 0-1.5ZM8 9.75c0 .414.336.75.75.75h6.5a.75.75 0 0 0 0-1.5h-6.5a.75.75 0 0 0-.75.75ZM9.75 12A1.75 1.75 0 0 0 8 13.75v2.5c0 .966.784 1.75 1.75 1.75h4.5A1.75 1.75 0 0 0 16 16.25v-2.5A1.75 1.75 0 0 0 14.25 12h-4.5Z"/></svg>