<svg xmlns="http://www.w3.org/2000/svg" width="28" height="28"><path d="M4.844 10.537C7.142 6.925 10.15 5 14.25 5c3.948 0 7.367 1.701 9.05 4H19a1 1 0 1 0 0 2h6a1 1 0 0 0 1-1V4a1 1 0 1 0-2 0v2.747C21.723 4.442 18.115 3 14.25 3 9.35 3 5.755 5.38 3.156 9.463a1 1 0 0 0 1.688 1.074ZM20.238 13c-1.659 0-2.86.74-3.59 1.947-.684 1.133-.91 2.597-.91 4.053s.226 2.92.91 4.053C17.378 24.26 18.58 25 20.238 25c1.66 0 2.86-.74 3.59-1.947.685-1.133.91-2.597.91-4.053s-.225-2.92-.91-4.053c-.73-1.207-1.93-1.947-3.59-1.947Zm-2.5 6c0-1.305.212-2.341.622-3.018.364-.602.912-.982 1.878-.982.966 0 1.515.38 1.879.982.41.677.621 1.713.621 3.018 0 1.305-.212 2.341-.621 3.018-.364.602-.913.982-1.879.982s-1.514-.38-1.878-.982c-.41-.677-.622-1.713-.622-3.018Zm-5.74-1.554c-.348.287-.98.554-1.998.554a1 1 0 1 0 0 2c1.018 0 1.65.267 1.998.554.34.279.455.605.44.896-.026.526-.63 1.55-2.688 1.55a3.84 3.84 0 0 1-1.927-.493 3.144 3.144 0 0 1-.57-.417 1 1 0 1 0-1.497 1.327v.002l.002.002.003.003.008.008.02.022.063.063c.05.05.12.116.21.191.178.151.435.344.768.535A5.84 5.84 0 0 0 9.75 25c2.692 0 4.588-1.476 4.686-3.45.048-.959-.367-1.883-1.168-2.541l-.01-.009.01-.009c.8-.658 1.216-1.582 1.168-2.54C14.338 14.475 12.442 13 9.75 13a5.84 5.84 0 0 0-2.92.757c-.333.19-.59.384-.768.535a3.88 3.88 0 0 0-.273.254l-.02.022-.008.008-.003.003-.001.002-.001.001a1 1 0 1 0 1.497 1.328 3.144 3.144 0 0 1 .57-.417A3.84 3.84 0 0 1 9.75 15c2.058 0 2.662 1.024 2.689 1.55.014.291-.101.617-.441.896Z"/></svg>