<svg xmlns="http://www.w3.org/2000/svg" width="16" height="16"><path d="M5.5 2A1.5 1.5 0 0 0 4 3.5V6a2 2 0 0 0-2 2v4.5A1.5 1.5 0 0 0 3.5 14h6a2.489 2.489 0 0 1-.5-1.5v-5c0-.563.186-1.082.5-1.5H5V3.5a.5.5 0 0 1 .5-.5h5a.5.5 0 0 1 .5.5v1.55c.162-.033.329-.05.5-.05h.5V3.5A1.5 1.5 0 0 0 10.5 2h-5Zm-1 7a.5.5 0 1 1 0-1 .5.5 0 0 1 0 1Zm0 2a.5.5 0 1 1 0-1 .5.5 0 0 1 0 1ZM7 8.5a.5.5 0 1 1-1 0 .5.5 0 0 1 1 0ZM6.5 11a.5.5 0 1 1 0-1 .5.5 0 0 1 0 1ZM10 7.5A1.5 1.5 0 0 1 11.5 6h1A1.5 1.5 0 0 1 14 7.5v5a1.5 1.5 0 0 1-1.5 1.5h-1a1.5 1.5 0 0 1-1.5-1.5v-5Z"/></svg>