<svg xmlns="http://www.w3.org/2000/svg" width="48" height="48" viewBox="0 0 48 48"><path d="M17.456 31.51a2.673 2.673 0 0 0 3.08.008c.405-.288.723-.682.917-1.139l1.236-3.769a6.159 6.159 0 0 1 3.9-3.9l3.631-1.183a2.67 2.67 0 0 0 0-5.036l-3.7-1.193a6.176 6.176 0 0 1-3.895-3.888l-1.179-3.629a2.663 2.663 0 0 0-.976-1.291 2.713 2.713 0 0 0-3.085 0 2.68 2.68 0 0 0-.987 1.32l-1.193 3.667a6.166 6.166 0 0 1-3.796 3.818l-3.627 1.178a2.67 2.67 0 0 0 .03 5.047l3.587 1.165a6.185 6.185 0 0 1 3.902 3.91l1.18 3.623c.183.521.524.973.975 1.292Zm15.419 9.132a1.95 1.95 0 0 0 1.124.359l.005.003a1.946 1.946 0 0 0 1.844-1.328l.569-1.75a2.382 2.382 0 0 1 1.499-1.502l1.79-.582a1.946 1.946 0 0 0 .94-2.958 1.961 1.961 0 0 0-1.005-.73l-1.757-.569a2.375 2.375 0 0 1-1.5-1.5l-.582-1.789a1.944 1.944 0 0 0-3.679.03l-.572 1.757a2.377 2.377 0 0 1-1.46 1.495l-1.79.582a1.943 1.943 0 0 0 .029 3.677l1.752.57a2.368 2.368 0 0 1 1.5 1.506l.582 1.788c.134.38.382.709.71.941Z"/></svg>