<svg xmlns="http://www.w3.org/2000/svg" width="28" height="28" viewBox="0 0 28 28"><path d="M8.5 6.5a4.5 4.5 0 1 1 9 0v7.124a7.513 7.513 0 0 0-4.35 5.373L13 19a4.5 4.5 0 0 1-4.5-4.5v-8ZM13.016 21H13a6.5 6.5 0 0 1-6.5-6.5v-.75a.75.75 0 1 0-1.5 0v.75a8 8 0 0 0 7.25 7.965v2.785a.75.75 0 0 0 1.5 0v-1.477A7.457 7.457 0 0 1 13.016 21Zm7.484 6a6.5 6.5 0 1 0 0-13 6.5 6.5 0 0 0 0 13Zm0-1.5a4.978 4.978 0 0 1-2.965-.974l6.991-6.991A5 5 0 0 1 20.5 25.5Zm2.965-9.026-6.991 6.991a5 5 0 0 1 6.991-6.991Z"/></svg>