<svg xmlns="http://www.w3.org/2000/svg" width="24" height="24"><path d="M10.25 11a.75.75 0 0 0 0 1.5h3.096a6.512 6.512 0 0 1 1.154-.768.75.75 0 0 0-.75-.732h-3.5Zm-2.5 8.5h3.563c.173.534.412 1.037.709 1.5H7.75A3.75 3.75 0 0 1 4 17.25V8.621A2.248 2.248 0 0 1 3 6.75v-1.5A2.25 2.25 0 0 1 5.25 3h13.5A2.25 2.25 0 0 1 21 5.25v1.5c0 .78-.397 1.467-1 1.871v2.877a6.452 6.452 0 0 0-1.5-.422V9h-13v8.25a2.25 2.25 0 0 0 2.25 2.25Zm-2.5-15a.75.75 0 0 0-.75.75v1.5c0 .414.336.75.75.75h13.5a.75.75 0 0 0 .75-.75v-1.5a.75.75 0 0 0-.75-.75H5.25ZM23 17.5a5.5 5.5 0 1 1-11 0 5.5 5.5 0 0 1 11 0Zm-6.646-2.146a.5.5 0 0 0-.708-.708l-1.5 1.5a.5.5 0 0 0 0 .708l1.5 1.5a.5.5 0 0 0 .708-.708L15.707 17h2.043A2.25 2.25 0 0 1 20 19.25v.25a.5.5 0 0 0 1 0v-.25A3.25 3.25 0 0 0 17.75 16h-2.043l.647-.646Z"/></svg>