<svg xmlns="http://www.w3.org/2000/svg" width="28" height="28"><path d="M13.56 2.142a.75.75 0 0 1 .878 0c.643.464 2.088 1.312 3.897 2.041 1.81.73 3.922 1.317 5.913 1.317a.75.75 0 0 1 .75.75v7.752c0 .322-.02.641-.057.958a4.02 4.02 0 0 0-1.443-1.426V6.977c-2.014-.124-4.032-.72-5.724-1.403-1.589-.64-2.934-1.375-3.775-1.918-.84.543-2.186 1.278-3.774 1.918-1.693.683-3.71 1.28-5.725 1.403v7.025c0 2.47 1.408 4.923 3.391 6.882C9.83 22.8 12.193 24.118 14 24.474a7.497 7.497 0 0 0 1-.276V25c0 .257.032.506.093.744-.33.1-.652.177-.966.232l-.128.022-.129-.022c-2.205-.385-4.9-1.917-7.033-4.024C4.703 19.843 3 17.029 3 14.002V6.25a.75.75 0 0 1 .75-.75c1.991 0 4.103-.587 5.914-1.317 1.808-.73 3.253-1.577 3.896-2.04ZM18.5 18v-1a3 3 0 1 1 6 0v1h.5a2 2 0 0 1 2 2v5a2 2 0 0 1-2 2h-7a2 2 0 0 1-2-2v-5a2 2 0 0 1 2-2h.5Zm1.5-1v1h3v-1a1.5 1.5 0 0 0-3 0Zm3 5.5a1.5 1.5 0 1 0-3 0 1.5 1.5 0 0 0 3 0Z"/></svg>