<svg xmlns="http://www.w3.org/2000/svg" width="48" height="48" viewBox="0 0 48 48"><path d="M11.5 15.25a1.25 1.25 0 0 0-2.321-.643l-.003.004-.015.025a15.272 15.272 0 0 1-.337.514c-.238.347-.582.823-1.005 1.334-.874 1.054-1.976 2.123-3.086 2.628a1.25 1.25 0 0 0 1.035 2.276c1.25-.568 2.36-1.535 3.232-2.465V32.75a1.25 1.25 0 0 0 2.5 0v-17.5Zm8.531 4.73a1.25 1.25 0 0 0 1.448-.998v-.003l.014-.056a3.314 3.314 0 0 1 .59-1.14c.474-.589 1.37-1.283 3.167-1.283 1.595 0 2.599.522 3.166 1.242.58.736.884 1.906.602 3.546-.165.964-.648 1.539-1.408 2.026-.619.398-1.316.681-2.147 1.019-.332.135-.686.279-1.064.442-1.232.53-2.62 1.238-3.679 2.503-1.087 1.3-1.72 3.053-1.72 5.472A1.25 1.25 0 0 0 20.25 34h10a1.25 1.25 0 0 0 0-2.5h-8.672c.164-1.224.571-2.033 1.06-2.618.667-.798 1.6-1.316 2.75-1.811.255-.11.532-.223.821-.34.903-.366 1.921-.779 2.753-1.313 1.204-.774 2.21-1.898 2.52-3.706.363-2.11.042-4.065-1.102-5.517C29.224 14.728 27.405 14 25.25 14c-2.578 0-4.182 1.056-5.115 2.217a5.81 5.81 0 0 0-.885 1.535 5.16 5.16 0 0 0-.224.745l-.003.02-.002.007v.005s.14-.787-.001.002a1.25 1.25 0 0 0 1.011 1.45Zm16.103 4.386a1.25 1.25 0 1 0-1.768 1.768L37.232 29l-2.866 2.866a1.25 1.25 0 0 0 1.768 1.768L39 30.768l2.866 2.866a1.25 1.25 0 0 0 1.768-1.768L40.768 29l2.866-2.866a1.25 1.25 0 0 0-1.768-1.768L39 27.232l-2.866-2.866ZM16.5 32.75a1.25 1.25 0 1 1-2.5 0 1.25 1.25 0 0 1 2.5 0Z"/></svg>