<svg xmlns="http://www.w3.org/2000/svg" width="24" height="24"><path d="M12 7.5a5.5 5.5 0 1 0 11 0 5.5 5.5 0 0 0-11 0ZM20.5 4a.5.5 0 0 1 .5.5v2a.5.5 0 0 1-.5.5h-2a.5.5 0 0 1 0-1h1a2.496 2.496 0 0 0-2-1c-.833 0-1.572.407-2.027 1.036a.5.5 0 0 1-.81-.586A3.496 3.496 0 0 1 17.5 4c.98 0 1.865.403 2.5 1.05V4.5a.5.5 0 0 1 .5-.5ZM15 9.95v.55a.5.5 0 0 1-1 0v-2a.5.5 0 0 1 .5-.5h2a.5.5 0 0 1 0 1h-1c.456.608 1.183 1 2 1 .766 0 1.452-.344 1.911-.888a.5.5 0 1 1 .764.645A3.493 3.493 0 0 1 17.5 11 3.49 3.49 0 0 1 15 9.95ZM7.5 12.5h5.846a6.536 6.536 0 0 1-1.324-1.5H7.5a.75.75 0 0 0 0 1.5Zm3.5-5c0-.516.06-1.018.174-1.5H4.5a.75.75 0 0 0 0 1.5H11Zm2.5 8.5a.75.75 0 0 1 0 1.5h-3a.75.75 0 0 1 0-1.5h3Z"/></svg>