<svg xmlns="http://www.w3.org/2000/svg" width="48" height="48" viewBox="0 0 48 48"><path d="M14.25 6.004a4.75 4.75 0 0 0-4.75 4.75v8.225c0 .873-.019 1.527-.31 2.119-.258.526-.832 1.18-2.362 1.73a1.25 1.25 0 0 0 .003 2.354c1.52.54 2.07 1.18 2.335 1.789.314.725.334 1.625.334 3.005v7.278a4.75 4.75 0 0 0 4.75 4.75h.5a1.25 1.25 0 1 0 0-2.5h-.5a2.25 2.25 0 0 1-2.25-2.25v-7.402c0-1.215.001-2.625-.54-3.875a4.957 4.957 0 0 0-1.542-1.97c.692-.526 1.185-1.132 1.516-1.807.567-1.153.567-2.347.566-3.15v-8.296a2.25 2.25 0 0 1 2.25-2.25h.5a1.25 1.25 0 1 0 0-2.5h-.5Zm19.5 0a4.75 4.75 0 0 1 4.75 4.75v8.225c0 .873.019 1.527.31 2.119.258.526.832 1.18 2.362 1.73a1.25 1.25 0 0 1-.003 2.354c-1.52.54-2.07 1.18-2.335 1.789-.314.725-.334 1.625-.334 3.005v7.278a4.75 4.75 0 0 1-4.75 4.75h-.5a1.25 1.25 0 1 1 0-2.5h.5a2.25 2.25 0 0 0 2.25-2.25v-7.402c0-1.215-.001-2.625.54-3.875a4.957 4.957 0 0 1 1.542-1.97c-.692-.526-1.185-1.132-1.516-1.807-.567-1.153-.567-2.347-.566-3.15v-8.296a2.25 2.25 0 0 0-2.25-2.25h-.5a1.25 1.25 0 1 1 0-2.5h.5Z"/></svg>