<svg xmlns="http://www.w3.org/2000/svg" width="28" height="28" viewBox="0 0 28 28"><path d="M6.5 8.5a2 2 0 0 1 2-2H11a2 2 0 0 1 2 2V11a2 2 0 0 1-2 2H8.5a2 2 0 0 1-2-2V8.5Zm2-.5a.5.5 0 0 0-.5.5V11a.5.5 0 0 0 .5.5H11a.5.5 0 0 0 .5-.5V8.5A.5.5 0 0 0 11 8H8.5Zm0 7a2 2 0 0 0-2 2v2.5a2 2 0 0 0 2 2H11a2 2 0 0 0 2-2V17a2 2 0 0 0-2-2H8.5ZM8 17a.5.5 0 0 1 .5-.5H11a.5.5 0 0 1 .5.5v2.5a.5.5 0 0 1-.5.5H8.5a.5.5 0 0 1-.5-.5V17Zm7-8.5a2 2 0 0 1 2-2h2.5a2 2 0 0 1 2 2V11a2 2 0 0 1-2 2H17a2 2 0 0 1-2-2V8.5Zm2-.5a.5.5 0 0 0-.5.5V11a.5.5 0 0 0 .5.5h2.5a.5.5 0 0 0 .5-.5V8.5a.5.5 0 0 0-.5-.5H17Zm0 7a2 2 0 0 0-2 2v2.5a2 2 0 0 0 2 2h2.5a2 2 0 0 0 2-2V17a2 2 0 0 0-2-2H17Zm-.5 2a.5.5 0 0 1 .5-.5h2.5a.5.5 0 0 1 .5.5v2.5a.5.5 0 0 1-.5.5H17a.5.5 0 0 1-.5-.5V17ZM3 6.75A3.75 3.75 0 0 1 6.75 3h14.5A3.75 3.75 0 0 1 25 6.75v14.5A3.75 3.75 0 0 1 21.25 25H6.75A3.75 3.75 0 0 1 3 21.25V6.75ZM6.75 4.5A2.25 2.25 0 0 0 4.5 6.75v14.5a2.25 2.25 0 0 0 2.25 2.25h14.5a2.25 2.25 0 0 0 2.25-2.25V6.75a2.25 2.25 0 0 0-2.25-2.25H6.75Z"/></svg>