<svg xmlns="http://www.w3.org/2000/svg" width="24" height="24" viewBox="0 0 24 24"><path d="M12.896 3.62v-.002l-.002-.002-.002-.004-.006-.01a1.031 1.031 0 0 0-.056-.081 1.727 1.727 0 0 0-.134-.161 2.134 2.134 0 0 0-.514-.397c-.476-.266-1.155-.425-2.068-.258-1.091.2-1.63.97-1.875 1.597A3.6 3.6 0 0 0 8 5.459V6.75a2.5 2.5 0 0 0 2.5 2.5h.25a2.5 2.5 0 0 0 2.5-2.5v-.5a.75.75 0 0 0-.75-.75h-1.25a.75.75 0 0 0 0 1.5h.469a1 1 0 0 1-.969.75h-.25a1 1 0 0 1-1-1V5.501l.002-.034a2.1 2.1 0 0 1 .134-.62c.13-.332.341-.591.75-.666.597-.11.917.01 1.064.091a.64.64 0 0 1 .17.134.75.75 0 0 0 1.277-.786ZM4 2.75a.75.75 0 0 0-.745.667l-.25 2.25a.75.75 0 0 0 .88.82l1.006-.182a.728.728 0 1 1 .13 1.445h-.218a.75.75 0 0 1-.624-.334l-.055-.082a.75.75 0 0 0-1.248.832l.055.082A2.25 2.25 0 0 0 4.803 9.25h.219a2.228 2.228 0 1 0-.399-4.421l-.016.003.064-.582h1.83a.75.75 0 0 0 0-1.5H4ZM21 7a1 1 0 0 0-2 0v13a1 1 0 0 0 2 0V7Zm-4 2.995A.998.998 0 0 0 16 9c-.552 0-1 .446-1 .995v10.01c0 .55.448.995 1 .995s1-.446 1-.995V9.995ZM13 13a1 1 0 1 0-2 0v7a1 1 0 1 0 2 0v-7Zm-4 2.994A.997.997 0 0 0 8 15c-.552 0-1 .445-1 .994v4.012c0 .549.448.994 1 .994s1-.445 1-.994v-4.012Zm-4 2.99A.992.992 0 0 0 4 18c-.552 0-1 .44-1 .984v1.032c0 .544.448.984 1 .984s1-.44 1-.984v-1.032Z"/></svg>