<svg xmlns="http://www.w3.org/2000/svg" width="24" height="24"><path d="M11.617 2.076a1 1 0 0 1 1.09.217l5 5a1 1 0 0 1-.082 1.488L13.6 12l4.024 3.22a1 1 0 0 1 .082 1.487l-5 5A1 1 0 0 1 11 21v-6.92l-3.375 2.7a1 1 0 0 1-1.25-1.56L10.4 12 6.375 8.78a1 1 0 0 1 1.25-1.56L11 9.92V3a1 1 0 0 1 .617-.924ZM13 14.081v4.505l2.503-2.503L13 14.081Zm0-4.162 2.503-2.002L13 5.414V9.92Zm5.5-.785a1 1 0 0 1 1.366.365c.442.765.634 1.627.634 2.501 0 .874-.192 1.736-.634 2.5a1 1 0 1 1-1.732-1c.239-.413.366-.917.366-1.5s-.127-1.087-.366-1.5a1 1 0 0 1 .365-1.366Zm3.285-2.084a1 1 0 0 0-1.57 1.239A5.97 5.97 0 0 1 21.5 12a5.97 5.97 0 0 1-1.285 3.711 1 1 0 0 0 1.57 1.239A7.97 7.97 0 0 0 23.5 12a7.97 7.97 0 0 0-1.715-4.95Z"/></svg>