<svg xmlns="http://www.w3.org/2000/svg" width="28" height="28" viewBox="0 0 28 28"><path d="m15.302 3.908 2.69 5.452 6.018.875c1.19.173 1.664 1.634.804 2.473l-4.355 4.244 1.028 5.993c.204 1.185-1.04 2.088-2.103 1.529L14 21.644l-5.381 2.83c-1.064.559-2.307-.344-2.104-1.529l1.028-5.993-4.355-4.244c-.86-.839-.385-2.3.804-2.473l6.017-.875L12.7 3.908c.532-1.078 2.069-1.078 2.6 0Zm1.7 6.587v11.032l2.99 1.572-1.015-5.92c-.081-.47.075-.95.417-1.283l4.3-4.191-5.943-.864a1.449 1.449 0 0 1-.749-.346Z"/></svg>