<svg xmlns="http://www.w3.org/2000/svg" width="16" height="16" viewBox="0 0 16 16"><path d="M4 3a1 1 0 0 0-1 1v8a1 1 0 0 0 1 1V9.5A1.5 1.5 0 0 1 5.5 8h5A1.5 1.5 0 0 1 12 9.5V13a1 1 0 0 0 1-1V5.621a1 1 0 0 0-.293-.707l-1.621-1.621A1 1 0 0 0 10.379 3H10v1.5A1.5 1.5 0 0 1 8.5 6h-2A1.5 1.5 0 0 1 5 4.5V3H4Zm2 0v1.5a.5.5 0 0 0 .5.5h2a.5.5 0 0 0 .5-.5V3H6Zm5 10V9.5a.5.5 0 0 0-.5-.5h-5a.5.5 0 0 0-.5.5V13h6ZM2 4a2 2 0 0 1 2-2h6.379a2 2 0 0 1 1.414.586l1.621 1.621A2 2 0 0 1 14 5.621V12a2 2 0 0 1-2 2H4a2 2 0 0 1-2-2V4Z"/></svg>