<svg xmlns="http://www.w3.org/2000/svg" width="28" height="28" viewBox="0 0 28 28"><path d="M16.693 2.311A12.974 12.974 0 0 0 14.013 2c-.924.01-1.823.115-2.704.311a.923.923 0 0 0-.716.8l-.209 1.877a1.707 1.707 0 0 1-2.371 1.376l-1.72-.757a.92.92 0 0 0-1.043.214 12.059 12.059 0 0 0-2.709 4.667.924.924 0 0 0 .334 1.017l1.527 1.125a1.701 1.701 0 0 1 0 2.74l-1.527 1.128a.924.924 0 0 0-.334 1.016 12.064 12.064 0 0 0 2.707 4.672.92.92 0 0 0 1.043.215l1.728-.759a1.694 1.694 0 0 1 1.526.086c.466.27.777.745.838 1.281l.208 1.877a.923.923 0 0 0 .702.796 11.67 11.67 0 0 0 5.413 0 .923.923 0 0 0 .702-.796l.208-1.88a1.693 1.693 0 0 1 2.366-1.37l1.727.759a.92.92 0 0 0 1.043-.215 12.065 12.065 0 0 0 2.707-4.667.924.924 0 0 0-.334-1.017L23.6 15.37a1.701 1.701 0 0 1-.001-2.74l1.525-1.127a.924.924 0 0 0 .333-1.016 12.057 12.057 0 0 0-2.708-4.667.92.92 0 0 0-1.043-.214l-1.72.757a1.666 1.666 0 0 1-.68.144 1.701 1.701 0 0 1-1.688-1.518l-.21-1.879a.922.922 0 0 0-.714-.799ZM14 18a4 4 0 1 1 0-8 4 4 0 0 1 0 8Z"/></svg>