<svg xmlns="http://www.w3.org/2000/svg" width="48" height="48"><path d="M26.5 19a2.5 2.5 0 1 1 5 0 2.5 2.5 0 0 1-5 0ZM6 12.25A6.25 6.25 0 0 1 12.25 6h23.5A6.25 6.25 0 0 1 42 12.25v23.5A6.25 6.25 0 0 1 35.75 42h-23.5A6.25 6.25 0 0 1 6 35.75v-23.5ZM8.508 12H12V8.508A3.75 3.75 0 0 0 8.508 12ZM14.5 8.5V12h19V8.5h-19Zm21.5.008V12h3.492A3.75 3.75 0 0 0 36 8.508Zm3.5 5.992H36v19h3.5v-19ZM39.492 36H36v3.492A3.75 3.75 0 0 0 39.492 36ZM33.5 39.5V36h-19v3.5h19ZM12 39.492V36H8.508A3.75 3.75 0 0 0 12 39.492ZM8.5 33.5H12v-19H8.5v19Zm6-1.553 6.848-6.849a3.75 3.75 0 0 1 5.304 0l6.848 6.849V14.5h-19v17.447ZM31.518 33.5l-6.634-6.634a1.25 1.25 0 0 0-1.768 0L16.482 33.5h15.036Z"/></svg>