<svg xmlns="http://www.w3.org/2000/svg" width="24" height="24"><path d="M23 6.5a5.5 5.5 0 1 1-11 0 5.5 5.5 0 0 1 11 0Zm-5-3a.5.5 0 0 0-1 0v4.793l-1.646-1.647a.5.5 0 0 0-.708.708l2.5 2.5a.5.5 0 0 0 .708 0l2.5-2.5a.5.5 0 0 0-.708-.708L18 8.293V3.5Zm2.499 12.252v-3.484a6.516 6.516 0 0 0 1.5-1.077v4.56a2.25 2.25 0 0 1-2.096 2.246l-.154.005h-4.25V20.5h1.751a.75.75 0 0 1 .102 1.493L17.25 22H6.75a.75.75 0 0 1-.102-1.493l.102-.007h1.749v-2.498H4.25a2.25 2.25 0 0 1-2.245-2.096L2 15.752V5.25a2.25 2.25 0 0 1 2.096-2.245L4.25 3h7.772a6.468 6.468 0 0 0-.708 1.5H4.25a.75.75 0 0 0-.743.648L3.5 5.25v10.502c0 .38.282.693.648.743l.102.007h15.499a.75.75 0 0 0 .743-.648l.007-.102Zm-6.501 2.25h-4l.001 2.498h4l-.001-2.498Z"/></svg>