<svg xmlns="http://www.w3.org/2000/svg" width="20" height="20"><path d="M6 5a1 1 0 0 1 1-1h6a1 1 0 0 1 1 1v1a1 1 0 0 1-1 1H7a1 1 0 0 1-1-1V5Zm1 0v1h6V5H7ZM4 4v12a2 2 0 0 0 2 2h4.257a5.503 5.503 0 0 1-.657-1H6a1 1 0 0 1-1-1h4.207a5.48 5.48 0 0 1-.185-1H5V4a1 1 0 0 1 1-1h8a1 1 0 0 1 1 1v5.022a5.5 5.5 0 0 1 1 .185V4a2 2 0 0 0-2-2H6a2 2 0 0 0-2 2Zm15 10.5a4.5 4.5 0 1 1-9 0 4.5 4.5 0 0 1 9 0Zm-2.646-1.146a.5.5 0 0 0-.708-.708L14.5 13.793l-1.146-1.147a.5.5 0 0 0-.708.708l1.147 1.146-1.147 1.146a.5.5 0 0 0 .708.708l1.146-1.147 1.146 1.147a.5.5 0 0 0 .708-.708L15.207 14.5l1.147-1.146Z"/></svg>