<svg xmlns="http://www.w3.org/2000/svg" width="16" height="16"><path d="M12.001 4.75v-1a.75.75 0 0 0-.75-.75h-6.5a.75.75 0 0 0-.75.75v1a.75.75 0 0 0 1.5 0V4.5h1.75v7h-.25a.75.75 0 0 0 0 1.5h2a.75.75 0 0 0 0-1.5h-.25v-7h1.75v.25a.75.75 0 0 0 1.5 0ZM4.249 6.689a.75.75 0 0 0-1.06.062l-2 2.25a.748.748 0 0 0 0 .996l2 2.25a.747.747 0 0 0 1.06.063.749.749 0 0 0 .062-1.059L2.754 9.499 4.31 7.747a.75.75 0 0 0-.062-1.058Zm8.563.063 2 2.25v.001a.748.748 0 0 1 0 .996l-2 2.25a.75.75 0 1 1-1.121-.996l1.557-1.752-1.557-1.752a.749.749 0 1 1 1.121-.997Z"/></svg>