<svg xmlns="http://www.w3.org/2000/svg" width="24" height="24"><path d="M7.424 2.83A1.25 1.25 0 0 1 8.602 2h6.453a1.25 1.25 0 0 1 1.186 1.645L14.79 8h3.958c1.104 0 1.666 1.327.898 2.12l-.958.988a6.533 6.533 0 0 0-2.037-.053L18.158 9.5h-4.41a.75.75 0 0 1-.71-.987l1.67-5.013h-5.93l-3.262 9.156a.25.25 0 0 0 .234.334l2.502.01a.75.75 0 0 1 .729.914l-1.473 6.578 3.524-3.637a6.574 6.574 0 0 0 .117 2.035l-2.564 2.646c-1.054 1.088-2.872.106-2.541-1.372l1.27-5.668-1.57-.006a1.75 1.75 0 0 1-1.641-2.337l3.321-9.322ZM23 17.5a5.5 5.5 0 1 1-11 0 5.5 5.5 0 0 1 11 0Zm-2.146-2.354a.5.5 0 0 0-.708 0L16.5 18.793l-1.646-1.647a.5.5 0 0 0-.708.708l2 2a.5.5 0 0 0 .708 0l4-4a.5.5 0 0 0 0-.708Z"/></svg>