<svg xmlns="http://www.w3.org/2000/svg" width="16" height="16"><path d="M4 4.5a1.5 1.5 0 1 1 3 0 1.5 1.5 0 0 1-3 0ZM5.5 2a2.5 2.5 0 1 0 0 5 2.5 2.5 0 0 0 0-5Zm5 3a1 1 0 1 1 2 0 1 1 0 0 1-2 0Zm-.578 1.23A5.5 5.5 0 0 1 11.5 6a5.5 5.5 0 0 1 1.578.23 2 2 0 1 0-3.155 0ZM3 8h4.257A5.508 5.508 0 0 0 6.6 9H3a.5.5 0 0 0-.5.5v.097l.004.048a1.853 1.853 0 0 0 .338.857c.326.449 1.036.998 2.658.998.177 0 .344-.007.5-.019v.019c0 .334.03.66.087.977a7.291 7.291 0 0 1-.587.023c-1.878 0-2.918-.654-3.467-1.409a2.853 2.853 0 0 1-.523-1.342 1.908 1.908 0 0 1-.01-.137V9.5A1.5 1.5 0 0 1 3 8Zm13 3.5a4.5 4.5 0 1 1-9 0 4.5 4.5 0 0 1 9 0Zm-4-2a.5.5 0 0 0-1 0V11H9.5a.5.5 0 0 0 0 1H11v1.5a.5.5 0 0 0 1 0V12h1.5a.5.5 0 0 0 0-1H12V9.5Z"/></svg>