<svg xmlns="http://www.w3.org/2000/svg" width="20" height="20" viewBox="0 0 20 20"><path d="M2 3.5A1.5 1.5 0 0 1 3.5 2h1A1.5 1.5 0 0 1 6 3.5v1A1.5 1.5 0 0 1 4.5 6h-1A1.5 1.5 0 0 1 2 4.5v-1ZM3.5 3a.5.5 0 0 0-.5.5v1a.5.5 0 0 0 .5.5h1a.5.5 0 0 0 .5-.5v-1a.5.5 0 0 0-.5-.5h-1ZM2 9.5A1.5 1.5 0 0 1 3.5 8h1A1.5 1.5 0 0 1 6 9.5v1A1.5 1.5 0 0 1 4.5 12h-1A1.5 1.5 0 0 1 2 10.5v-1ZM3.5 9a.5.5 0 0 0-.5.5v1a.5.5 0 0 0 .5.5h1a.5.5 0 0 0 .5-.5v-1a.5.5 0 0 0-.5-.5h-1ZM2 15.5A1.5 1.5 0 0 1 3.5 14h1A1.5 1.5 0 0 1 6 15.5v1A1.5 1.5 0 0 1 4.5 18h-1A1.5 1.5 0 0 1 2 16.5v-1Zm1.5-.5a.5.5 0 0 0-.5.5v1a.5.5 0 0 0 .5.5h1a.5.5 0 0 0 .5-.5v-1a.5.5 0 0 0-.5-.5h-1ZM8 4.5a.5.5 0 0 1 .5-.5h9a.5.5 0 0 1 0 1h-9a.5.5 0 0 1-.5-.5Zm0 6a.5.5 0 0 1 .5-.5h9a.5.5 0 0 1 0 1h-9a.5.5 0 0 1-.5-.5Zm0 6a.5.5 0 0 1 .5-.5h9a.5.5 0 0 1 0 1h-9a.5.5 0 0 1-.5-.5Z"/></svg>