<svg xmlns="http://www.w3.org/2000/svg" width="24" height="24" viewBox="0 0 24 24"><path d="M21.78 4.78a.75.75 0 0 0-1.06-1.06l-1.97 1.97-.47-.47a.75.75 0 1 0-1.06 1.06l1 1a.75.75 0 0 0 1.06 0l2.5-2.5ZM2.75 18.007h11.5a.75.75 0 0 1 .102 1.493l-.102.007H2.75a.75.75 0 0 1-.102-1.493l.102-.007Zm0-6.507h11.5a.75.75 0 0 1 .102 1.493L14.25 13H2.75a.75.75 0 0 1-.102-1.493l.102-.007Zm0-6.5h11.5a.75.75 0 0 1 .102 1.493l-.102.007H2.75a.75.75 0 0 1-.102-1.493L2.75 5Zm19.03 11.72a.75.75 0 0 1 0 1.06l-2.5 2.5a.75.75 0 0 1-1.06 0l-1-1a.75.75 0 1 1 1.06-1.06l.47.47 1.97-1.97a.75.75 0 0 1 1.06 0Z"/></svg>