<svg xmlns="http://www.w3.org/2000/svg" width="20" height="20" viewBox="0 0 20 20"><path d="m8.46 1.897.99.39a1.5 1.5 0 0 0 1.099 0l.99-.39a2.418 2.418 0 0 1 3.102 1.285l.424.975a1.5 1.5 0 0 0 .777.777l.975.424a2.418 2.418 0 0 1 1.285 3.103l-.39.99a1.5 1.5 0 0 0 0 1.098l.39.99a2.418 2.418 0 0 1-1.285 3.102l-.975.424a1.499 1.499 0 0 0-.777.777l-.424.975a2.418 2.418 0 0 1-3.103 1.285l-.99-.39a1.5 1.5 0 0 0-1.098 0l-.99.39a2.418 2.418 0 0 1-3.102-1.285l-.424-.975a1.5 1.5 0 0 0-.777-.777l-.975-.424a2.418 2.418 0 0 1-1.285-3.103l.39-.99a1.5 1.5 0 0 0 0-1.098l-.39-.99a2.418 2.418 0 0 1 1.285-3.102l.975-.424a1.5 1.5 0 0 0 .777-.777l.424-.975a2.418 2.418 0 0 1 3.103-1.285Zm4.166 5.77-3.648 4.104-1.625-1.625a.5.5 0 0 0-.707.707l2 2a.5.5 0 0 0 .727-.021l4-4.5a.5.5 0 0 0-.747-.665Z"/></svg>