<svg xmlns="http://www.w3.org/2000/svg" width="24" height="24" viewBox="0 0 24 24"><path d="M4.387 16.21a1 1 0 0 1 1.226 0l.094.083.084.094a1 1 0 0 1 0 1.226l-.084.094-.293.293h13.172l-.293-.293a1 1 0 0 1-.083-1.32l.083-.094a1 1 0 0 1 1.32-.083l.094.083 2 2a1 1 0 0 1 .084 1.32l-.084.094-2 2a1 1 0 0 1-1.497-1.32l.083-.094.292-.293H5.415l.292.293.084.094a1 1 0 0 1-1.404 1.403l-.094-.083-2-2-.083-.094a1 1 0 0 1 0-1.226l.083-.094 2-2 .094-.083ZM8.12 2.417l.064.103.053.116 4.304 11a1 1 0 0 1-1.813.835l-.05-.107-1.11-2.839H5.041l-1.11 2.84a1 1 0 0 1-1.185.602l-.111-.036a1 1 0 0 1-.603-1.184l.036-.111 4.304-11c.3-.767 1.31-.84 1.746-.22Zm11.972.113a1 1 0 0 1 1.85.724l-.036.11-4.304 11-.053.116c-.371.694-1.385.694-1.757 0l-.053-.115-4.304-11-.036-.111a1 1 0 0 1 .497-1.136L12 2.069l.11-.036a1 1 0 0 1 1.137.497l.049.106 3.372 8.621 3.374-8.621.048-.106ZM7.304 5.743l-1.48 3.782h2.96l-1.48-3.782Z"/></svg>