<svg xmlns="http://www.w3.org/2000/svg" width="16" height="16"><path d="M7 1a6 6 0 0 1 5.996 6.207A2.5 2.5 0 0 0 9.54 9.053 2 2 0 0 0 8 11v1.917A6 6 0 1 1 7 1Zm2.12 4.164L6.25 8.042 4.854 6.646a.5.5 0 1 0-.708.708l1.75 1.75a.5.5 0 0 0 .708 0L9.828 5.87a.5.5 0 0 0-.708-.706ZM10.43 10a1.53 1.53 0 0 1 .071-.002v-.494a1.5 1.5 0 1 1 3 0v.494h.003c.025 0 .05 0 .075.002H14a1 1 0 0 1 1 1v.39c.003.035.004.071.004.108V13.5c0 .037-.001.073-.004.109V14a1 1 0 0 1-1 1h-4a1 1 0 0 1-1-1v-3a1 1 0 0 1 1-1h.43ZM12 9.004a.5.5 0 0 0-.5.5v.494h1v-.494a.5.5 0 0 0-.5-.5Zm.5 3.496a.5.5 0 1 0-1 0 .5.5 0 0 0 1 0Z"/></svg>