<svg xmlns="http://www.w3.org/2000/svg" width="24" height="24" viewBox="0 0 24 24"><path d="M16.088 6.412a2.844 2.844 0 0 0-1.347-.955l-1.378-.448a.544.544 0 0 1 0-1.025l1.378-.448A2.839 2.839 0 0 0 16.5 1.774l.011-.034.448-1.377a.544.544 0 0 1 1.027 0l.447 1.377a2.835 2.835 0 0 0 1.799 1.796l1.377.448.028.007a.544.544 0 0 1 0 1.025l-1.378.448a2.839 2.839 0 0 0-1.798 1.796l-.448 1.377a.544.544 0 0 1-1.026 0l-.448-1.377a2.837 2.837 0 0 0-.45-.848Zm7.695 3.801-.766-.248a1.577 1.577 0 0 1-.998-.999l-.25-.764a.302.302 0 0 0-.57 0l-.248.764a1.576 1.576 0 0 1-.984.999l-.765.248a.302.302 0 0 0 0 .57l.765.249a1.578 1.578 0 0 1 1 1.002l.248.764a.302.302 0 0 0 .57 0l.249-.764a1.576 1.576 0 0 1 .999-.999l.765-.248a.302.302 0 0 0 0-.57l-.015-.004ZM10.25 3.002c.966 0 1.75.783 1.75 1.75v4.5a1.75 1.75 0 0 1-1.75 1.75h-5.5A1.75 1.75 0 0 1 3 9.252v-4.5c0-.967.784-1.75 1.75-1.75h5.5Zm.25 6.25v-4.5a.25.25 0 0 0-.25-.25h-5.5a.25.25 0 0 0-.25.25v4.5c0 .138.112.25.25.25h5.5a.25.25 0 0 0 .25-.25Zm-3.262 3.732c.966 0 1.75.783 1.75 1.75v4.514a1.75 1.75 0 0 1-1.75 1.75H4.75A1.75 1.75 0 0 1 3 19.248v-4.514c0-.967.784-1.75 1.75-1.75h2.488Zm.25 6.264v-4.514a.25.25 0 0 0-.25-.25H4.75a.25.25 0 0 0-.25.25v4.514c0 .138.112.25.25.25h2.488a.25.25 0 0 0 .25-.25Zm11.764-6.25c.966 0 1.75.784 1.75 1.75v4.5a1.75 1.75 0 0 1-1.75 1.75h-6.5a1.75 1.75 0 0 1-1.75-1.75v-4.5l.005-.143a1.75 1.75 0 0 1 1.745-1.607h6.5Zm.25 6.25v-4.5a.25.25 0 0 0-.25-.25h-6.5a.25.25 0 0 0-.244.193l-.006.057v4.5c0 .138.112.25.25.25h6.5a.25.25 0 0 0 .25-.25Z"/></svg>