<svg xmlns="http://www.w3.org/2000/svg" width="24" height="24" viewBox="0 0 24 24"><path d="M5.959 3.416a1 1 0 0 0-1.875-.027l-2.516 6.5a1 1 0 0 0 1.865.722l.218-.563h2.54l.19.536a1 1 0 1 0 1.884-.668l-2.306-6.5ZM5.48 8.048H4.425l.55-1.423.506 1.423ZM9 3.75a1 1 0 0 1 1-1h2.185c.219 0 .857-.002 1.451.33.332.185.644.469.867.88.219.406.321.882.321 1.415 0 .528-.115.973-.311 1.338.133.127.256.277.363.452.252.415.373.907.373 1.46 0 .536-.129 1.012-.38 1.412a2.4 2.4 0 0 1-.908.838c-.624.336-1.288.375-1.587.375H10a1 1 0 0 1-1-1v-6.5ZM12.168 6a.976.976 0 0 0 .462-.11.313.313 0 0 0 .119-.12c.028-.051.075-.166.075-.395 0-.279-.053-.412-.081-.464a.19.19 0 0 0-.082-.085c-.11-.061-.277-.076-.5-.076H11V6h1.169Zm.005 2H11v1.25h1.375c.17 0 .444-.03.64-.136a.406.406 0 0 0 .16-.14c.028-.043.075-.142.075-.349 0-.26-.055-.376-.08-.42a.276.276 0 0 0-.125-.106c-.175-.086-.42-.099-.67-.099h-.201Zm8.464-4.953c.69.338 1.208.969 1.553 1.924a1 1 0 1 1-1.882.678c-.218-.605-.445-.754-.552-.806-.159-.078-.35-.093-.757-.093-.316 0-.502.097-.636.216-.155.138-.29.353-.396.635a3.625 3.625 0 0 0-.19.804 3.81 3.81 0 0 0-.027.336v.012c0 .53.01 1.155.211 1.669a1.3 1.3 0 0 0 .373.547c.15.123.384.244.776.287.118.013.375.013.626-.08.221-.082.446-.236.602-.58a1 1 0 1 1 1.822.824c-.838 1.852-2.68 1.89-3.271 1.824-.733-.082-1.344-.334-1.826-.732a3.292 3.292 0 0 1-.963-1.36c-.306-.778-.366-1.632-.35-2.46a5.831 5.831 0 0 1 .042-.534c.041-.33.125-.788.302-1.259.175-.467.462-1.003.94-1.428.499-.443 1.157-.72 1.965-.72h.046c.358-.002.982-.003 1.592.296Zm-2.75 11.881a.608.608 0 0 0-.176.278 1 1 0 0 1-1.923-.549 2.6 2.6 0 0 1 .776-1.229c.467-.412 1.113-.678 1.935-.678 1.707 0 2.75 1.263 2.75 2.477 0 .424-.079 1.113-.543 1.718.044.05.086.104.126.16.274.385.417.85.417 1.372 0 .901-.307 1.648-.902 2.15-.564.476-1.259.623-1.848.623-.538 0-1.115-.089-1.628-.414-.533-.336-.872-.848-1.072-1.455a1 1 0 0 1 1.9-.625c.092.279.19.358.241.39.07.045.222.104.56.104.285 0 .465-.074.557-.152.062-.052.192-.192.192-.62 0-.144-.034-.195-.046-.212a.414.414 0 0 0-.167-.12c-.233-.11-.567-.146-.828-.146a1 1 0 1 1 0-2c.667 0 .853-.199.906-.265.087-.11.135-.29.135-.508 0-.086-.124-.477-.75-.477-.365 0-.532.108-.612.178Zm-7.138.595c0-.408.35-.773.736-.773.332 0 .577.156.684.32.077.12.17.373-.1.832-.127.217-.326.422-.62.655-.147.116-.306.23-.483.355l-.073.051c-.152.107-.319.225-.48.346-.762.574-1.664 1.424-1.664 2.941a1 1 0 0 0 1 1H13.2a1 1 0 0 0 0-2h-1.995c.114-.11.25-.222.411-.343.134-.101.273-.199.426-.307l.078-.055c.18-.127.376-.267.568-.419.383-.302.799-.688 1.106-1.21.598-1.018.599-2.094.051-2.936-.517-.795-1.43-1.23-2.36-1.23-1.633 0-2.736 1.408-2.736 2.773a1 1 0 1 0 2 0Zm-5.726 1.269a5.349 5.349 0 0 1-.219.154 1 1 0 0 1-1.11-1.664c.724-.483 1.241-1.244 1.351-1.746a1 1 0 0 1 1.978.214v6.5a1 1 0 1 1-2 0v-3.458Z"/></svg>