<svg xmlns="http://www.w3.org/2000/svg" width="12" height="12"><path d="M1.974 6.659a.5.5 0 0 1-.948-.317c-.01.03 0-.001 0-.001a1.633 1.633 0 0 1 .062-.162c.04-.095.099-.226.18-.381.165-.31.422-.723.801-1.136C2.834 3.827 4.087 3 6 3c1.913 0 3.166.827 3.931 1.662a5.479 5.479 0 0 1 .98 1.517l.046.113c.003.008.013.06.023.11L11 6.5s.084.333-.342.474a.5.5 0 0 1-.632-.314v-.003l-.006-.016a3.678 3.678 0 0 0-.172-.376 4.477 4.477 0 0 0-.654-.927C8.584 4.673 7.587 4 6 4s-2.584.673-3.194 1.338a4.477 4.477 0 0 0-.795 1.225 2.209 2.209 0 0 0-.03.078l-.007.018ZM6 5a2 2 0 1 0 0 4 2 2 0 0 0 0-4ZM5 7a1 1 0 1 1 2 0 1 1 0 0 1-2 0Z"/></svg>