<svg xmlns="http://www.w3.org/2000/svg" width="20" height="20" viewBox="0 0 20 20"><path d="M3.5 5.5a1 1 0 1 0 0 2 1 1 0 0 0 0-2Zm0-1c-.103 0-.203.008-.302.023A2.5 2.5 0 0 1 5.5 3h9A2.5 2.5 0 0 1 17 5.5v9a2.5 2.5 0 0 1-2.5 2.5h-9A2.5 2.5 0 0 1 3 14.5V8.437a2.004 2.004 0 0 0 1 0V14.5A1.5 1.5 0 0 0 5.5 16h9a1.5 1.5 0 0 0 1.5-1.5v-9A1.5 1.5 0 0 0 14.5 4h-9c-.513 0-.966.258-1.237.65A1.994 1.994 0 0 0 3.5 4.5Zm3.5 4a.5.5 0 0 1 .5-.5h5a.5.5 0 0 1 0 1h-5a.5.5 0 0 1-.5-.5Zm.5 2.5a.5.5 0 0 0 0 1h3a.5.5 0 0 0 0-1h-3Z"/></svg>