<svg xmlns="http://www.w3.org/2000/svg" width="48" height="48"><path d="M24 4v11.25A3.75 3.75 0 0 0 27.75 19H40v21a3 3 0 0 1-3 3H20.402A6.001 6.001 0 0 0 24 37.538v-1.551l-.004-.308v-.014C23.817 29.192 18.515 24 12 24c-1.402 0-2.749.24-4 .683V7a3 3 0 0 1 3-3h13Zm2.5.464V15.25c0 .69.56 1.25 1.25 1.25h11.712L26.5 4.464ZM21.996 35.72C21.848 30.327 17.43 26 12 26 6.477 26 2 30.477 2 36s4.477 10 10 10c1.15 0 2.274-.194 3.337-.57a1 1 0 0 0-.668-1.886A8 8 0 1 1 20 36l.001 1.475-.006.174A2 2 0 0 1 16 37.5V32l-.007-.117a1 1 0 0 0-1.979-.04A4.185 4.185 0 0 0 11.5 31C8.985 31 7 33.25 7 35.967c0 2.717 1.985 4.966 4.5 4.966 1.203 0 2.285-.515 3.085-1.349A4 4 0 0 0 22 37.525V36l-.004-.28ZM11.5 33l.15.005c1.274.091 2.333 1.34 2.35 2.924l-.005.221c-.08 1.576-1.194 2.783-2.495 2.783-1.35 0-2.5-1.302-2.5-2.966C9 34.302 10.15 33 11.5 33Z"/></svg>