<svg xmlns="http://www.w3.org/2000/svg" width="16" height="16"><path d="M10.044 1.498a.75.75 0 0 1 .958-.454c.214.09.001 0 .001 0h.001l.003.001.005.003.015.005a2.147 2.147 0 0 1 .19.08c.118.056.28.138.47.253.379.23.876.596 1.37 1.143C14.057 3.636 15 5.44 15 8.249a.75.75 0 0 1-1.5 0c0-2.44-.807-3.885-1.556-4.715a4.686 4.686 0 0 0-1.036-.865 3.338 3.338 0 0 0-.401-.209l-.014-.005a.75.75 0 0 1-.45-.957ZM7.198 3.475a.75.75 0 0 0-1.395 0l-3.75 9.5a.75.75 0 0 0 1.395.55l.898-2.275h4.308l.898 2.275a.75.75 0 1 0 1.396-.55l-3.75-9.5Zm.864 6.275H4.938L6.5 5.793 8.062 9.75Zm2.668-6.076a.75.75 0 0 0-.962 1.15l.006.006.034.03c.031.03.08.075.139.136.12.123.28.304.44.53.327.463.613 1.063.613 1.724a.75.75 0 0 0 1.5 0c0-1.088-.464-1.989-.887-2.588a5.943 5.943 0 0 0-.853-.962l-.02-.017-.006-.005-.002-.002-.001-.001Zm-.962 1.15.001.002Z"/></svg>