<svg xmlns="http://www.w3.org/2000/svg" width="28" height="28"><path d="M23.75 6.5a2.25 2.25 0 0 1 2.229 1.938l.016.158.005.154v5.652a7.5 7.5 0 0 0-11.5 9.6L4.25 24a2.25 2.25 0 0 1-2.245-2.096L2 21.75V10.499l8.207.001.196-.009a2.25 2.25 0 0 0 1.088-.393l.156-.12L15.821 6.5h7.929ZM10.207 4c.46 0 .908.141 1.284.402l.156.12 2.103 1.751-3.063 2.553-.085.061a.75.75 0 0 1-.29.106L10.206 9 2 8.999V6.25a2.25 2.25 0 0 1 2.096-2.245L4.25 4h5.957ZM27 19.5a6.5 6.5 0 1 1-13 0 6.5 6.5 0 0 1 13 0Zm-7-2.793V23.5a.5.5 0 0 0 1 0v-6.793l2.146 2.147a.5.5 0 0 0 .708-.708l-3-3a.5.5 0 0 0-.351-.146h-.006a.499.499 0 0 0-.35.146l-3 3a.5.5 0 0 0 .707.708L20 16.707Z"/></svg>