<svg xmlns="http://www.w3.org/2000/svg" width="28" height="28"><path d="M6.25 4A4.25 4.25 0 0 0 2 8.25v11.5A4.25 4.25 0 0 0 6.25 24h15.5A4.25 4.25 0 0 0 26 19.75V8.25A4.25 4.25 0 0 0 21.75 4H6.25Zm4.801 5.742c.622.093 1.226.319 1.668.672a.75.75 0 1 1-.938 1.172c-.183-.147-.516-.296-.95-.36a2.817 2.817 0 0 0-1.307.108 2.035 2.035 0 0 0-1.048.79C8.206 12.523 8 13.118 8 14c0 .882.206 1.477.476 1.876.27.397.636.648 1.048.79.42.143.883.17 1.308.108.433-.065.766-.213.95-.36a.75.75 0 0 1 .937 1.172c-.442.353-1.046.58-1.668.672a4.316 4.316 0 0 1-2.013-.174 3.534 3.534 0 0 1-1.803-1.366c-.472-.695-.735-1.6-.735-2.718 0-1.118.263-2.023.735-2.718a3.533 3.533 0 0 1 1.803-1.366 4.315 4.315 0 0 1 2.013-.174Zm10.167.672a.75.75 0 1 1-.936 1.172c-.183-.147-.517-.296-.95-.36a2.817 2.817 0 0 0-1.308.108 2.035 2.035 0 0 0-1.048.79c-.27.399-.476.994-.476 1.876 0 .882.206 1.477.476 1.876.27.397.637.648 1.049.79.419.143.882.17 1.306.108.434-.065.768-.213.95-.36a.75.75 0 0 1 .938 1.172c-.443.353-1.046.58-1.668.672a4.316 4.316 0 0 1-2.013-.174 3.534 3.534 0 0 1-1.803-1.366C15.263 16.023 15 15.118 15 14c0-1.118.263-2.023.735-2.718a3.533 3.533 0 0 1 1.803-1.366 4.315 4.315 0 0 1 2.013-.174c.622.093 1.226.319 1.668.672Z"/></svg>