<svg xmlns="http://www.w3.org/2000/svg" width="20" height="20"><path d="M6.75 3.5a2.25 2.25 0 1 0 0 4.5 2.25 2.25 0 0 0 0-4.5ZM3.5 5.75a3.25 3.25 0 1 1 6.5 0 3.25 3.25 0 0 1-6.5 0Zm0 4.25a2 2 0 0 0-2 2v.084a1.717 1.717 0 0 0 .012.175 3.948 3.948 0 0 0 .67 1.806C2.883 15.08 4.237 16 6.75 16c2.513 0 3.867-.92 4.568-1.934a3.948 3.948 0 0 0 .67-1.807 2.512 2.512 0 0 0 .012-.175V12a2 2 0 0 0-2-2H3.5Zm-1 2.061V12a1 1 0 0 1 1-1H10a1 1 0 0 1 1 1v.078l-.007.083a2.946 2.946 0 0 1-.498 1.336C10.008 14.201 8.987 15 6.75 15s-3.258-.799-3.745-1.503a2.948 2.948 0 0 1-.498-1.336 1.608 1.608 0 0 1-.006-.083l-.001-.017ZM14.5 5a1.5 1.5 0 1 0 0 3 1.5 1.5 0 0 0 0-3ZM12 6.5a2.5 2.5 0 1 1 5 0 2.5 2.5 0 0 1-5 0Zm3.584 5.082.283-.75c.258-.681 1.062-1.017 1.74-.728l.388.166c.473.202.864.568.947 1.06.457 2.725-1.908 6.601-4.63 7.59-.492.178-1.023.04-1.445-.246l-.346-.235a1.184 1.184 0 0 1-.204-1.79l.545-.607a1.066 1.066 0 0 1 1.034-.323l1.225.29c.971-.607 1.492-1.46 1.562-2.56l-.878-.859a.937.937 0 0 1-.221-1.008Z"/></svg>