<svg xmlns="http://www.w3.org/2000/svg" width="16" height="16"><path d="M6 1.002a2 2 0 0 0-2 2v2.205a5.48 5.48 0 0 1 1-.185v-2.02a1 1 0 0 1 1-1h3v2.5a1.5 1.5 0 0 0 1.5 1.5H13v6.996a1 1 0 0 1-1 1H9.744c-.313.38-.675.716-1.078 1H12a2 2 0 0 0 2-2v-7.58a1.5 1.5 0 0 0-.44-1.06l-2.918-2.917a1.5 1.5 0 0 0-1.06-.44H6Zm4 3.5v-2.29l2.791 2.79H10.5a.5.5 0 0 1-.5-.5Zm0 5.998a4.5 4.5 0 1 1-9 0 4.5 4.5 0 0 1 9 0ZM5.5 8a.5.5 0 0 0-.5.5v2a.5.5 0 0 0 1 0v-2a.5.5 0 0 0-.5-.5Zm0 5.125a.625.625 0 1 0 0-1.25.625.625 0 0 0 0 1.25Z"/></svg>