<svg xmlns="http://www.w3.org/2000/svg" width="28" height="28"><path d="M5.25 5.5A3.25 3.25 0 0 0 2 8.75v5.65a7.534 7.534 0 0 1 1.5-1.245V8.75C3.5 7.784 4.284 7 5.25 7h10.502c.967 0 1.75.784 1.75 1.75v10.5a1.75 1.75 0 0 1-1.75 1.75h-.902a7.444 7.444 0 0 1-.474 1.5h1.376a3.25 3.25 0 0 0 3.25-3.25v-1.58l4.541 3.112a1.25 1.25 0 0 0 1.957-1.03V8.247a1.25 1.25 0 0 0-1.956-1.03l-4.542 3.11V8.75a3.25 3.25 0 0 0-3.25-3.25H5.25Zm13.752 10.352v-3.707L24 8.723v10.554l-4.998-3.425ZM14.001 19.5a6.5 6.5 0 0 1-9.648 5.688l-2.716.791a.5.5 0 0 1-.62-.62l.794-2.713a6.5 6.5 0 1 1 12.19-3.146ZM5 18a.5.5 0 0 0 0 1h5a.5.5 0 1 0 0-1H5Zm-.5 2.5a.5.5 0 0 0 .5.5h2.5a.5.5 0 0 0 0-1H5a.5.5 0 0 0-.5.5Z"/></svg>