<svg xmlns="http://www.w3.org/2000/svg" width="16" height="16"><path d="M8.5 2a.5.5 0 0 0 0 1h1.116l.533 2H6V3.5a.5.5 0 0 0-.5-.5h-2a.5.5 0 0 0 0 1H5v1.2a.5.5 0 0 0 .023.15L4.46 7.035a3 3 0 1 0 2.532 3.162l3.494-3.93.268 1.003a3 3 0 1 0 .966-.257L10.483 2.37A.5.5 0 0 0 10 2H8.5ZM4 8c.046 0 .092.002.138.005l-.612 1.837A.5.5 0 0 0 4 10.5h1.937A2 2 0 1 1 4 8Zm.694 1.5.393-1.18c.415.27.723.688.85 1.18H4.694Zm.716-2.149L5.86 6h3.527l-2.59 2.913A3.01 3.01 0 0 0 5.41 7.351Zm5.608.906.499 1.872a.5.5 0 0 0 .966-.258l-.499-1.87L12 8a2 2 0 1 1-.982.257Z"/></svg>