<svg xmlns="http://www.w3.org/2000/svg" width="20" height="20" viewBox="0 0 20 20"><path d="M1.796 2.098a.5.5 0 1 0-.6.8L3.198 4.4a.5.5 0 1 0 .6-.8L1.796 2.098ZM1 7a.5.5 0 0 0 0 1h1.5a.5.5 0 0 0 0-1H1Zm8.998-5c3.149 0 5.744 2.334 5.984 5.355l.014.222.004.225-.001 3.596.925 2.222a1 1 0 0 1 .053.167l.016.086.008.131a1 1 0 0 1-.749.963l-.116.027-.135.01H12.5l-.005.16a2.5 2.5 0 0 1-4.99 0l-.005-.16H3.999a.992.992 0 0 1-.26-.034l-.124-.043a1 1 0 0 1-.603-1.052l.021-.127.043-.128.923-2.22L4 7.793l.004-.224C4.127 4.45 6.771 2 9.998 2ZM11.5 15.004h-3l.007.141a1.5 1.5 0 0 0 1.349 1.348L10 16.5a1.5 1.5 0 0 0 1.493-1.356l.007-.14ZM9.998 3c-2.623 0-4.77 1.923-4.98 4.385l-.014.212L5 7.802V11.5l-.038.192-.963 2.312 11.958.002.045-.002-.964-2.312L15 11.5V7.812l-.004-.204C14.891 5.034 12.695 3 9.998 3Zm8.906-.802a.5.5 0 0 0-.7-.1L16.202 3.6a.5.5 0 0 0 .6.8l2.002-1.502a.5.5 0 0 0 .1-.7ZM19.5 7.5A.5.5 0 0 0 19 7h-1.5a.5.5 0 0 0 0 1H19a.5.5 0 0 0 .5-.5Z"/></svg>