<svg xmlns="http://www.w3.org/2000/svg" width="48" height="48"><path d="m32.013 7.013-6.5 6.5a1.75 1.75 0 0 0 0 2.475l6.5 6.5c.334.334.77.505 1.209.512h.056a1.744 1.744 0 0 0 1.21-.512l6.5-6.5a1.75 1.75 0 0 0 0-2.475l-6.5-6.5a1.75 1.75 0 0 0-2.475 0ZM28.989 23 25 19.01V23h3.99ZM25 10.49l5.245-5.245a4.25 4.25 0 0 1 6.01 0l6.5 6.5a4.25 4.25 0 0 1 0 6.01L37.511 23h.239A4.25 4.25 0 0 1 42 27.25v10.5A4.25 4.25 0 0 1 37.75 42h-27.5A4.25 4.25 0 0 1 6 37.75v-27.5A4.25 4.25 0 0 1 10.25 6h10.5A4.25 4.25 0 0 1 25 10.25v.24Zm8.206 15.01H25v14h12.75a1.75 1.75 0 0 0 1.75-1.75v-10.5a1.75 1.75 0 0 0-1.75-1.75h-4.544ZM8.5 10.25V23h14V10.25a1.75 1.75 0 0 0-1.75-1.75h-10.5a1.75 1.75 0 0 0-1.75 1.75Zm0 15.25v12.25c0 .967.784 1.75 1.75 1.75H22.5v-14h-14Z"/></svg>