<svg xmlns="http://www.w3.org/2000/svg" width="24" height="24"><path d="M21.15 3.007a.75.75 0 1 1 .2 1.486l-6.85.926V7.25c0 .644-.187 1.245-.51 1.75h2.76A3.25 3.25 0 0 1 20 12.25v6.5A2.25 2.25 0 0 1 17.75 21H6.25A2.25 2.25 0 0 1 4 18.75v-6.5A3.25 3.25 0 0 1 7.25 9h4.001a1.75 1.75 0 0 0 1.75-1.75V5.622L2.85 6.993a.75.75 0 1 1-.201-1.486L13 4.108V3.75a.75.75 0 0 1 1.5 0v.155l6.65-.898ZM7.25 10.5a1.75 1.75 0 0 0-1.75 1.75v3.25h13v-3.25a1.75 1.75 0 0 0-1.75-1.75h-9.5ZM18.5 17h-13v1.75c0 .414.336.75.75.75h11.5a.75.75 0 0 0 .75-.75V17Z"/></svg>