<svg xmlns="http://www.w3.org/2000/svg" width="20" height="20"><path d="M2 10a8 8 0 1 1 16 0 8 8 0 0 1-16 0Zm6.4-2.698.003-.003a2.469 2.469 0 0 1 .424-.395A1.99 1.99 0 0 1 10 6.5 1.5 1.5 0 0 1 11.5 8c0 .463-.175.777-.471 1.06-.27.26-.613.471-1.025.725l-.27.166c-.505.316-1.071.699-1.504 1.258-.446.576-.73 1.31-.73 2.291a.5.5 0 0 0 .5.5h4a.5.5 0 0 0 0-1H8.534c.072-.504.253-.877.486-1.178.317-.41.75-.714 1.245-1.023l.234-.144c.413-.253.867-.532 1.222-.872.453-.435.779-.996.779-1.783A2.5 2.5 0 0 0 10 5.5a2.99 2.99 0 0 0-1.762.596 3.466 3.466 0 0 0-.585.54c-.017.02-.034.041-.05.063L7.6 6.7a.5.5 0 0 0 .8.602Z"/></svg>