<svg xmlns="http://www.w3.org/2000/svg" width="24" height="24" viewBox="0 0 24 24"><path d="M18.75 3.5A3.25 3.25 0 0 1 22 6.75v10.503a3.25 3.25 0 0 1-3.25 3.25H5.25A3.25 3.25 0 0 1 2 17.253V6.75A3.25 3.25 0 0 1 5.25 3.5h13.5ZM8.015 8.871c-1.627 0-2.754 1.41-2.754 3.123 0 1.713 1.128 3.126 2.754 3.126.887 0 1.703-.427 2.111-1.214l.077-.162.023-.07.018-.075.008-.083v-1.52l-.007-.093a.625.625 0 0 0-.516-.524l-.102-.008H8.625l-.092.006a.626.626 0 0 0-.524.516L8 11.996l.007.092c.04.268.25.48.516.524l.102.009h.376v.733l-.006.015c-.189.32-.552.5-.98.5-.866 0-1.504-.798-1.504-1.875 0-1.076.637-1.873 1.504-1.873.421 0 .66.047.96.19a.625.625 0 0 0 .542-1.126c-.483-.232-.905-.314-1.502-.314Zm4.614.122a.625.625 0 0 0-.618.533l-.007.092v4.762l.007.093a.625.625 0 0 0 1.236 0l.007-.093V9.619l-.007-.092a.625.625 0 0 0-.618-.533ZM17.622 9l-1.997-.007a.625.625 0 0 0-.62.53l-.007.093v4.748l.006.093c.04.268.25.48.516.524l.103.008.092-.006c.268-.04.48-.25.524-.516l.009-.103-.001-1.115h1.123l.092-.006c.268-.04.48-.25.525-.516l.008-.102-.007-.092a.625.625 0 0 0-.516-.525L17.37 12h-1.123v-1.756l1.37.006.093-.006a.625.625 0 0 0 .005-1.237L17.622 9l-1.997-.007L17.622 9Z"/></svg>