<svg xmlns="http://www.w3.org/2000/svg" width="24" height="24" viewBox="0 0 24 24"><path d="M17.715 15.953A2.205 2.205 0 0 1 17.152 14h-10.9a2.249 2.249 0 0 0-2.248 2.249v.92c0 .572.178 1.13.51 1.596C6.056 20.929 8.58 22 12 22c.39 0 .767-.014 1.133-.042a2.252 2.252 0 0 1 .353-2.16l.8-1.01a2.195 2.195 0 0 1 2.238-.77l.838.203c.52-.437.83-.975.948-1.644l-.595-.625ZM12 2.005a5 5 0 1 1 0 10 5 5 0 0 1 0-10Zm6.192 11.99.476-1.205c.242-.614.92-.933 1.548-.728l.431.141c.724.237 1.326.806 1.35 1.569.1 3.11-2.476 7.583-5.213 9.055-.673.362-1.468.123-2.035-.391l-.337-.305a1.253 1.253 0 0 1-.142-1.706l.8-1.01c.29-.367.767-.53 1.22-.42l1.292.313c1.103-.73 1.694-1.756 1.774-3.079l-.917-.964a1.203 1.203 0 0 1-.247-1.27Z"/></svg>