<svg xmlns="http://www.w3.org/2000/svg" width="24" height="24"><path d="M17.25 2a1 1 0 0 1 1-1H22a1 1 0 0 1 1 1v5a1 1 0 0 1-1 1h-1v14.25a.75.75 0 0 1-1.5 0V8h-1.25a1 1 0 0 1-1-1V2ZM15.8 3c.152 0 .302.01.45.031V4.56a1.75 1.75 0 0 0-.45-.059H8.201a1.75 1.75 0 0 0-1.698 1.326L5.711 9H18.5v9.5h-1.001l.001 1.247c0 .138.112.25.25.25h.75v1.5h-.75a1.75 1.75 0 0 1-1.75-1.75l-.001-1.247H8.004v1.247a1.75 1.75 0 0 1-1.75 1.75H4.75A1.75 1.75 0 0 1 3 19.747V11.25c0-.815.433-1.529 1.082-1.923l.207-.827H3.75a.75.75 0 0 1-.743-.648L3 7.75a.75.75 0 0 1 .648-.743L3.75 7h.913l.386-1.538A3.25 3.25 0 0 1 8.202 3h7.597ZM6.503 18.5H4.499l.001 1.247c0 .138.112.25.25.25h1.504a.25.25 0 0 0 .25-.25V18.5ZM13.75 14h-3.502l-.102.007a.75.75 0 0 0 0 1.486l.102.007h3.502l.101-.007a.75.75 0 0 0-.1-1.493ZM17 12a1 1 0 1 0 0 2 1 1 0 0 0 0-2ZM7 12a1 1 0 1 0 0 2 1 1 0 0 0 0-2Z"/></svg>