<svg xmlns="http://www.w3.org/2000/svg" width="16" height="16"><path d="M4 3a2 2 0 0 1 2-2h4a2 2 0 0 1 2 2v2.085A1.495 1.495 0 0 0 11 6.5V3a1 1 0 0 0-1-1H6a1 1 0 0 0-1 1v3.494a1.495 1.495 0 0 0-1-1.409V3Zm7 7.5V13a1 1 0 0 1-1 1H6a1 1 0 0 1-1-1v-2.494a1.495 1.495 0 0 1-1 1.409V13a2 2 0 0 0 2 2h4a2 2 0 0 0 2-2v-1.085a1.495 1.495 0 0 1-1-1.415ZM1.147 8.146l2-2a.5.5 0 1 1 .707.708L2.707 8H5.5a.5.5 0 0 1 0 1H2.707l1.147 1.146a.5.5 0 0 1-.708.708l-2-2A.499.499 0 0 1 1 8.503v-.006a.498.498 0 0 1 .144-.348l.003-.003Zm11.707 2.708 2-2 .002-.003A.5.5 0 0 0 15 8.503v-.006a.5.5 0 0 0-.146-.35l-2-2a.5.5 0 0 0-.708.707L13.293 8H10.5a.5.5 0 0 0 0 1h2.793l-1.147 1.146a.5.5 0 0 0 .708.708Z"/></svg>