<svg xmlns="http://www.w3.org/2000/svg" width="16" height="16"><path d="M1 7a6 6 0 0 1 11.946-.808 5.484 5.484 0 0 0-1.043-.177 5.002 5.002 0 1 0-9.204 3.537.5.5 0 0 1 .051.393l-.509 1.78 1.658-.552a.5.5 0 0 1 .426.052 4.967 4.967 0 0 0 1.69.678c.025.358.086.707.177 1.043a5.964 5.964 0 0 1-2.196-.751l-2.338.78a.5.5 0 0 1-.639-.612l.712-2.491A5.975 5.975 0 0 1 1 7Zm15 4.5a4.5 4.5 0 1 1-9 0 4.5 4.5 0 0 1 9 0Zm-4-2a.5.5 0 0 0-1 0V11H9.5a.5.5 0 0 0 0 1H11v1.5a.5.5 0 0 0 1 0V12h1.5a.5.5 0 0 0 0-1H12V9.5Z"/></svg>