<svg xmlns="http://www.w3.org/2000/svg" width="48" height="48"><path d="M24 4C15.992 4 9.5 10.492 9.5 18.5c0 4.239 1.82 8.054 4.718 10.704.45.411.751.875.873 1.352l1.265 4.944h6.394v-14a1.25 1.25 0 0 1 2.5 0v14h6.396l1.266-4.948c.122-.476.423-.94.873-1.35A14.465 14.465 0 0 0 38.5 18.5C38.5 10.492 32.008 4 24 4Zm7.006 34H16.995l.62 2.427A4.75 4.75 0 0 0 22.219 44h3.565a4.75 4.75 0 0 0 4.602-3.572l.62-2.428ZM25.25 12.25v3.5a1.25 1.25 0 1 1-2.5 0v-3.5a1.25 1.25 0 1 1 2.5 0Zm7.382 3.116a1.25 1.25 0 0 1 0 1.767l-2.497 2.497a1.25 1.25 0 0 1-1.769-1.768l2.498-2.496a1.25 1.25 0 0 1 1.768 0Zm-13 2.496a1.25 1.25 0 1 1-1.768 1.768l-2.498-2.497a1.25 1.25 0 1 1 1.768-1.767l2.498 2.496Z"/></svg>