<svg xmlns="http://www.w3.org/2000/svg" width="28" height="28" viewBox="0 0 28 28"><path d="M14.75 4.75a.75.75 0 0 0-1.5 0v1.496a.75.75 0 0 0 1.5 0V4.75ZM20 14a6 6 0 1 1-12 0 6 6 0 0 1 12 0Zm-1.5 0A4.5 4.5 0 0 0 14 9.5v9a4.5 4.5 0 0 0 4.5-4.5Zm5.5 0a.75.75 0 0 1-.75.75h-1.497a.75.75 0 0 1 0-1.5h1.496A.75.75 0 0 1 24 14Zm-9.25 7.754a.75.75 0 0 0-1.5 0v1.496a.75.75 0 0 0 1.5 0v-1.496ZM7 14a.75.75 0 0 1-.75.75h-1.5a.75.75 0 0 1 0-1.5h1.5A.75.75 0 0 1 7 14Zm.78-7.28a.75.75 0 0 0-1.061 1.06l1 1a.75.75 0 0 0 1.06-1.06l-1-1ZM6.718 21.28a.75.75 0 0 0 1.06 0l1-1a.75.75 0 1 0-1.06-1.06l-1 1a.75.75 0 0 0 0 1.06Zm13.5-14.56a.75.75 0 1 1 1.06 1.06l-1 1a.75.75 0 1 1-1.06-1.06l1-1Zm1.06 14.56a.75.75 0 0 1-1.06 0l-.989-.988a.75.75 0 1 1 1.06-1.06l.99.988a.75.75 0 0 1 0 1.06Z"/></svg>