<svg xmlns="http://www.w3.org/2000/svg" width="24" height="24" viewBox="0 0 24 24"><path d="M13.925 2.504a2.25 2.25 0 0 1 1.94 1.11l.814 1.387h2.071A3.25 3.25 0 0 1 22 8.25v9.5A3.25 3.25 0 0 1 18.75 21H5.25A3.25 3.25 0 0 1 2 17.75v-9.5A3.25 3.25 0 0 1 5.25 5h2.08l.875-1.424a2.25 2.25 0 0 1 1.917-1.073h3.803Zm0 1.5h-3.803a.75.75 0 0 0-.574.268l-.065.09-1.093 1.78a.75.75 0 0 1-.639.358h-2.5A1.75 1.75 0 0 0 3.5 8.25v9.5c0 .966.784 1.75 1.75 1.75h13.5a1.75 1.75 0 0 0 1.75-1.75v-9.5a1.75 1.75 0 0 0-1.75-1.75h-2.5a.75.75 0 0 1-.647-.37l-1.032-1.757a.75.75 0 0 0-.646-.37ZM12 8a4.5 4.5 0 1 1 0 9 4.5 4.5 0 0 1 0-9Zm0 1.5a3 3 0 1 0 0 6 3 3 0 0 0 0-6Z"/></svg>