<svg xmlns="http://www.w3.org/2000/svg" width="24" height="24" viewBox="0 0 24 24"><path d="M9.25 3.5A1.75 1.75 0 0 0 7.5 5.25v1a.75.75 0 0 1-1.5 0v-1A3.25 3.25 0 0 1 9.25 2h1a.75.75 0 0 1 0 1.5h-1ZM12 2.75a.75.75 0 0 1 .75-.75h2.5a.75.75 0 0 1 0 1.5h-2.5a.75.75 0 0 1-.75-.75Zm.75 13.75a.75.75 0 0 0 0 1.5h2.5a.75.75 0 0 0 0-1.5h-2.5Zm-6-8.5a.75.75 0 0 1 .75.75v2.5a.75.75 0 0 1-1.5 0v-2.5A.75.75 0 0 1 6.75 8ZM22 8.75a.75.75 0 0 0-1.5 0v2.5a.75.75 0 0 0 1.5 0v-2.5Zm-3.25 7.75a1.75 1.75 0 0 0 1.75-1.75v-1a.75.75 0 0 1 1.5 0v1A3.25 3.25 0 0 1 18.75 18h-1a.75.75 0 0 1 0-1.5h1ZM20.5 5.25a1.75 1.75 0 0 0-1.75-1.75h-1a.75.75 0 0 1 0-1.5h1A3.25 3.25 0 0 1 22 5.25v1a.75.75 0 0 1-1.5 0v-1ZM9.25 16.5a1.75 1.75 0 0 1-1.75-1.75v-1a.75.75 0 0 0-1.5 0v1A3.25 3.25 0 0 0 9.25 18h1a.75.75 0 0 0 0-1.5h-1ZM2 9.25a3.25 3.25 0 0 1 3-3.24v1.508A1.75 1.75 0 0 0 3.5 9.25v7a4.25 4.25 0 0 0 4.25 4.25h7a1.75 1.75 0 0 0 1.732-1.5h1.509a3.25 3.25 0 0 1-3.241 3h-7A5.75 5.75 0 0 1 2 16.25v-7Z"/></svg>