<svg xmlns="http://www.w3.org/2000/svg" width="16" height="16"><path d="M7 7.5a.5.5 0 0 1 .5-.5h3a.5.5 0 0 1 0 1h-3a.5.5 0 0 1-.5-.5Zm0 3a.5.5 0 0 1 .5-.5h3a.5.5 0 0 1 0 1h-3a.5.5 0 0 1-.5-.5ZM5.5 8a.5.5 0 1 0 0-1 .5.5 0 0 0 0 1Zm0 3a.5.5 0 1 0 0-1 .5.5 0 0 0 0 1Zm-.415-9A1.5 1.5 0 0 1 6.5 1h3a1.5 1.5 0 0 1 1.415 1h.585A1.5 1.5 0 0 1 13 3.5v10a1.5 1.5 0 0 1-1.5 1.5h-7A1.5 1.5 0 0 1 3 13.5v-10A1.5 1.5 0 0 1 4.5 2h.585ZM6.5 2a.5.5 0 0 0 0 1h3a.5.5 0 0 0 0-1h-3ZM5.085 3H4.5a.5.5 0 0 0-.5.5v10a.5.5 0 0 0 .5.5h7a.5.5 0 0 0 .5-.5v-10a.5.5 0 0 0-.5-.5h-.585A1.5 1.5 0 0 1 9.5 4h-3a1.5 1.5 0 0 1-1.415-1Z"/></svg>