<svg xmlns="http://www.w3.org/2000/svg" width="20" height="20" viewBox="0 0 20 20"><path d="M15.5 7a2.5 2.5 0 0 1 2.495 2.335l.006.164v6a2.5 2.5 0 0 1-2.336 2.495l-.164.005h-6a2.5 2.5 0 0 1-2.495-2.336l-.005-.164v-6a2.5 2.5 0 0 1 2.336-2.495L9.5 7h6Zm0 1H9.502a1.5 1.5 0 0 0-1.493 1.355l-.007.144v6a1.5 1.5 0 0 0 1.356 1.493l.144.007h6a1.5 1.5 0 0 0 1.493-1.356L17 15.5v-6a1.5 1.5 0 0 0-1.356-1.493L15.5 8Zm-2.999 1a.5.5 0 0 1 .492.41L13 9.5v2.498h2.501a.5.5 0 0 1 .09.992l-.09.008H13l.001 2.5a.5.5 0 0 1-.992.09l-.008-.09L12 13H9.501a.5.5 0 0 1-.09-.992l.09-.008H12l.001-2.5a.5.5 0 0 1 .5-.5Zm.162-5.306.048.158.575 2.147H12.25l-.505-1.889a1.5 1.5 0 0 0-1.696-1.091l-.141.03-5.796 1.554a1.5 1.5 0 0 0-1.091 1.695l.03.142 1.554 5.795A1.5 1.5 0 0 0 6 13.346v1a2.502 2.502 0 0 1-2.31-1.682l-.052-.17-1.553-5.795a2.5 2.5 0 0 1 1.61-3.015l.158-.047 5.795-1.553a2.5 2.5 0 0 1 2.957 1.458l.057.152Z"/></svg>