<svg xmlns="http://www.w3.org/2000/svg" width="24" height="24"><path d="M20.393 12.148a8.5 8.5 0 1 0-5.383 9.304 1.75 1.75 0 0 1 .655-1.987 7 7 0 1 1 3.178-7.447 4.57 4.57 0 0 1 1.55.13Zm-7.65-3.5a.75.75 0 0 0-1.493.102v4.5l.007.102a.75.75 0 0 0 1.493-.102v-4.5l-.007-.102Zm6.487-3.474-.083-.06a.75.75 0 0 0-.877 1.212l1.159.965.082.06a.75.75 0 0 0 .877-1.213l-1.158-.964ZM15 3.25a.75.75 0 0 0-.75-.75h-4.5l-.102.007A.75.75 0 0 0 9.75 4h4.5l.102-.007A.75.75 0 0 0 15 3.25ZM18.25 18a.75.75 0 0 1 .75-.75c.527 0 1.058-.185 1.444-.473.39-.292.556-.623.556-.902 0-.65-.665-1.375-1.75-1.375-.516 0-1.013.19-1.405.406a4.102 4.102 0 0 0-.594.402l-.003.003a.75.75 0 0 1-.997-1.12v-.002l.003-.001.005-.005.015-.013a3.08 3.08 0 0 1 .226-.179c.148-.11.359-.253.62-.397.512-.284 1.265-.594 2.13-.594 1.676 0 3.25 1.178 3.25 2.875 0 .895-.52 1.626-1.159 2.104l-.029.021.03.021c.639.478 1.158 1.21 1.158 2.104 0 1.698-1.574 2.875-3.25 2.875-.865 0-1.618-.31-2.13-.594a5.583 5.583 0 0 1-.846-.576l-.015-.013-.005-.005-.002-.001-.002-.002a.75.75 0 0 1 .998-1.12l.003.003.02.016a2.957 2.957 0 0 0 .123.095c.104.079.26.185.451.29.392.217.89.407 1.405.407 1.085 0 1.75-.725 1.75-1.375 0-.28-.165-.61-.556-.902A2.479 2.479 0 0 0 19 18.75a.75.75 0 0 1-.75-.75Z"/></svg>