<svg xmlns="http://www.w3.org/2000/svg" width="24" height="24" viewBox="0 0 24 24"><path d="M8.75 11.5h6.5c.966 0 1.75.784 1.75 1.75v4A1.75 1.75 0 0 1 15.25 19h-6.5A1.75 1.75 0 0 1 7 17.25v-4c0-.966.784-1.75 1.75-1.75Zm-.25 1.75v1.25H10V13H8.75a.25.25 0 0 0-.25.25Zm0 2.75v1.25c0 .138.112.25.25.25H10V16H8.5Zm3 0v1.5h3.75a.25.25 0 0 0 .25-.25V16h-4Zm4-1.5v-1.25a.25.25 0 0 0-.25-.25H11.5v1.5h4ZM13.585 2.586a.491.491 0 0 0-.049-.04.63.63 0 0 1-.036-.03 2.072 2.072 0 0 0-.219-.18.652.652 0 0 0-.08-.044l-.048-.024-.05-.029c-.054-.031-.109-.063-.166-.087a1.977 1.977 0 0 0-.624-.138.56.56 0 0 1-.059-.007.605.605 0 0 0-.082-.007H6a2 2 0 0 0-2 2v16a2 2 0 0 0 2 2h12a2 2 0 0 0 2-2V9.828a2 2 0 0 0-.586-1.414l-5.829-5.828ZM18 20.5H6a.5.5 0 0 1-.5-.5V4a.5.5 0 0 1 .5-.5h6V8a2 2 0 0 0 2 2h4.5v10a.5.5 0 0 1-.5.5Zm-.622-12H14a.5.5 0 0 1-.5-.5V4.621L17.378 8.5Z"/></svg>