<svg xmlns="http://www.w3.org/2000/svg" width="24" height="24" viewBox="0 0 24 24"><path d="M18.38 4c.31 0 .588.192.7.482.56 1.462 1.609 2.015 2.17 2.015a.75.75 0 0 1 0 1.5c-1.002 0-2.087-.611-2.873-1.687-.814 1.093-1.971 1.687-3.187 1.687-1.217 0-2.376-.595-3.19-1.69-.814 1.095-1.973 1.69-3.19 1.69-1.215 0-2.373-.593-3.186-1.686C4.838 7.388 3.753 8 2.75 8a.75.75 0 1 1 0-1.5c.56 0 1.61-.553 2.17-2.018a.75.75 0 0 1 1.401 0c.544 1.419 1.57 2.015 2.49 2.015.92 0 1.945-.596 2.489-2.015a.75.75 0 0 1 1.4 0c.544 1.419 1.57 2.015 2.49 2.015.92 0 1.945-.597 2.489-2.015a.75.75 0 0 1 .7-.482Zm0 6a.75.75 0 0 1 .7.482c.56 1.462 1.609 2.015 2.17 2.015a.75.75 0 0 1 0 1.5c-1.002 0-2.087-.611-2.873-1.687-.814 1.093-1.971 1.687-3.187 1.687-1.217 0-2.376-.595-3.19-1.69-.814 1.095-1.973 1.69-3.19 1.69-1.215 0-2.373-.593-3.186-1.685C4.838 13.388 3.753 14 2.75 14a.75.75 0 0 1 0-1.5c.56 0 1.61-.553 2.17-2.018a.75.75 0 0 1 1.401 0c.544 1.419 1.57 2.015 2.49 2.015.92 0 1.945-.596 2.489-2.015a.75.75 0 0 1 1.4 0c.544 1.419 1.57 2.015 2.49 2.015.92 0 1.945-.597 2.489-2.015a.75.75 0 0 1 .7-.482Zm.7 6.482a.75.75 0 0 0-1.401 0c-.544 1.418-1.57 2.015-2.49 2.015-.92 0-1.945-.596-2.489-2.015a.75.75 0 0 0-1.4 0c-.544 1.419-1.57 2.015-2.49 2.015-.92 0-1.945-.596-2.489-2.015a.75.75 0 0 0-1.4 0C4.358 17.947 3.31 18.5 2.75 18.5a.75.75 0 1 0 0 1.5c1.003 0 2.088-.612 2.874-1.689.813 1.093 1.97 1.686 3.186 1.686 1.217 0 2.376-.595 3.19-1.69.814 1.096 1.973 1.69 3.19 1.69 1.216 0 2.373-.594 3.187-1.687.786 1.076 1.87 1.687 2.873 1.687a.75.75 0 0 0 0-1.5c-.561 0-1.61-.553-2.17-2.015Z"/></svg>