<svg xmlns="http://www.w3.org/2000/svg" width="20" height="20"><path d="M3 6a3 3 0 0 1 3-3h8a3 3 0 0 1 3 3v3.401A3 3 0 0 0 12.5 12H11a.5.5 0 0 0 0 1h1.67a3 3 0 0 0 .603 1.01A2.5 2.5 0 0 0 11 16.5c0 .167.013.334.038.5H6a3 3 0 0 1-3-3V6Zm6.354 1.104a.5.5 0 0 0-.708-.708L7.234 7.808l-.397-.362a.5.5 0 0 0-.674.738l.75.685a.5.5 0 0 0 .69-.016l1.75-1.75Zm0 4.292a.5.5 0 0 0-.708 0l-1.412 1.412-.397-.362a.5.5 0 0 0-.674.738l.75.685a.5.5 0 0 0 .69-.015l1.75-1.75a.5.5 0 0 0 0-.707ZM10.5 7.5a.5.5 0 0 0 .5.5h2.5a.5.5 0 0 0 0-1H11a.5.5 0 0 0-.5.5Zm7 4.5a2 2 0 1 1-4 0 2 2 0 0 1 4 0Zm1.5 4.5c0 1.245-1 2.5-3.5 2.5S12 17.75 12 16.5a1.5 1.5 0 0 1 1.5-1.5h4a1.5 1.5 0 0 1 1.5 1.5Z"/></svg>