<svg xmlns="http://www.w3.org/2000/svg" width="24" height="24"><path d="M17.75 3A3.25 3.25 0 0 1 21 6.25v11.5A3.25 3.25 0 0 1 17.75 21H6.25A3.25 3.25 0 0 1 3 17.75V6.25A3.25 3.25 0 0 1 6.25 3h11.5Zm0 1.5H6.25A1.75 1.75 0 0 0 4.5 6.25v11.5c0 .966.784 1.75 1.75 1.75h11.5a1.75 1.75 0 0 0 1.75-1.75V6.25a1.75 1.75 0 0 0-1.75-1.75ZM9.369 15.254l-.51.872a.75.75 0 0 1-1.34-.665l.045-.091.067-.116h1.738Zm3.924-5.23 1.719 2.98h1.74a.75.75 0 0 1 .743.65l.007.1a.75.75 0 0 1-.648.744l-.102.007h-.875l.502.87a.75.75 0 0 1-1.243.834l-.056-.085-2.658-4.608.87-1.492Zm-.03-2.923a.75.75 0 0 1 .315.935l-.046.091-2.85 4.877h1.732l.865 1.5H7.252a.75.75 0 0 1-.102-1.492l.102-.007h1.694l2.18-3.734-.662-1.147a.75.75 0 0 1 .19-.968l.085-.057a.75.75 0 0 1 .968.19l.056.085.233.406.241-.41a.75.75 0 0 1 1.026-.269Z"/></svg>