<svg xmlns="http://www.w3.org/2000/svg" width="28" height="28" viewBox="0 0 28 28"><path d="M3.79 1.875c-.963-.46-2.021.42-1.746 1.451L4.06 10.86a1 1 0 0 0 .824.732l9.884 1.412c.286.04.286.454 0 .495L4.885 14.91a1 1 0 0 0-.824.732l-2.017 7.537c-.275 1.03.783 1.91 1.746 1.451L18 17.855V17.5h-.25a1.75 1.75 0 1 1 0-3.5h7.5c.158 0 .311.021.457.06.5-.588.36-1.565-.42-1.936L3.79 1.874ZM16.998 15.75a.75.75 0 0 1 .75-.75h7.5a.75.75 0 1 1 0 1.5h-1.25v3.802a2 2 0 0 0 .262.99l.688 1.208h-6.895l.683-1.2a2 2 0 0 0 .262-.989V16.5h-1.25a.75.75 0 0 1-.75-.75Zm.201 8.25-1 1.758A1.5 1.5 0 0 0 17.502 28H25.5a1.5 1.5 0 0 0 1.303-2.242l-1-1.758H17.2Z"/></svg>