<svg xmlns="http://www.w3.org/2000/svg" width="20" height="20"><path d="M4.5 10a.5.5 0 0 0-1 0 5.5 5.5 0 0 0 5 5.478V17.5a.5.5 0 0 0 1 0v-.706A5.48 5.48 0 0 1 9 14.5 4.5 4.5 0 0 1 4.5 10ZM12 5v4.6a5.514 5.514 0 0 0-2.79 3.393A3 3 0 0 1 6 10V5a3 3 0 0 1 6 0Zm7 9.5a4.5 4.5 0 1 0-9 0 4.5 4.5 0 0 0 9 0Zm-5.556-2a.5.5 0 0 1 .455.332l.629 1.758.58-1.443a.5.5 0 0 1 .904-.05l.573 1.07H17a.5.5 0 1 1 0 1h-.714a.5.5 0 0 1-.441-.264l-.209-.39-.672 1.673a.5.5 0 0 1-.935-.018l-.643-1.8-.212.496a.5.5 0 0 1-.46.303H12a.5.5 0 0 1 0-1h.385l.584-1.364a.5.5 0 0 1 .475-.303Z"/></svg>