<svg xmlns="http://www.w3.org/2000/svg" width="20" height="20"><path d="M17.5 5a.5.5 0 0 1 0 1h-15a.5.5 0 0 1 0-1h15Zm0 3a.5.5 0 0 1 0 1h-15a.5.5 0 0 1 0-1h15Zm-7.243 3a5.503 5.503 0 0 0-.657 1H2.5a.5.5 0 0 1 0-1h7.757ZM9 14.5c0 .168.008.335.022.5H2.5a.5.5 0 0 1 0-1h6.522a5.571 5.571 0 0 0-.022.5Zm10 0a4.5 4.5 0 1 0-9 0 4.5 4.5 0 0 0 9 0Zm-4.146 2.354a.5.5 0 0 1-.708-.708L15.293 15H12.5a.5.5 0 0 1 0-1h2.793l-1.147-1.146a.5.5 0 0 1 .708-.708l2 2a.5.5 0 0 1 .146.351v.006a.5.5 0 0 1-.144.348l-.003.003-2 2Z"/></svg>