<svg xmlns="http://www.w3.org/2000/svg" width="16" height="16" viewBox="0 0 16 16"><path d="M2 1.5a.5.5 0 0 0-1 0v2A1.5 1.5 0 0 0 2.5 5h.252l3.262 6.451a1 1 0 0 0 .576.498c-.122.624-.111 1.233.021 1.74.168.639.604 1.311 1.394 1.311.79 0 1.226-.672 1.393-1.31.133-.509.144-1.12.02-1.745a1 1 0 0 0 .566-.494L13.247 5h.253A1.5 1.5 0 0 0 15 3.5v-2a.5.5 0 0 0-1 0v2a.5.5 0 0 1-.5.5h-.55a.51.51 0 0 0-.02 0H2.5a.5.5 0 0 1-.5-.5v-2ZM3.873 5h8.253l-3.034 6H6.907L3.873 5Zm3.729 7h.806c.129.547.122 1.059.023 1.436-.127.486-.332.564-.426.564-.094 0-.299-.078-.426-.564-.099-.377-.106-.889.023-1.436Z"/></svg>