<svg xmlns="http://www.w3.org/2000/svg" width="28" height="28"><path d="M6.25 13.999a.75.75 0 0 0 0 1.5 3.749 3.749 0 0 1 3.749 3.749.75.75 0 0 0 1.5 0 5.249 5.249 0 0 0-5.249-5.25ZM5.5 11.25a.75.75 0 0 1 .75-.75c4.834 0 8.755 3.912 8.755 8.748a.75.75 0 0 1-1.5 0A7.249 7.249 0 0 0 6.25 12a.75.75 0 0 1-.75-.75ZM6.75 20a1.25 1.25 0 1 0 0-2.501 1.25 1.25 0 0 0 0 2.5ZM4.25 4.5A2.25 2.25 0 0 0 2 6.75v14.5a2.25 2.25 0 0 0 2.25 2.25h19.5A2.25 2.25 0 0 0 26 21.25V6.75a2.25 2.25 0 0 0-2.25-2.25H4.25ZM3.5 6.75A.75.75 0 0 1 4.25 6h19.5a.75.75 0 0 1 .75.75v14.5a.75.75 0 0 1-.75.75H4.25a.75.75 0 0 1-.75-.75V6.75Z"/></svg>