<svg xmlns="http://www.w3.org/2000/svg" width="48" height="48" viewBox="0 0 48 48"><path d="M43 15.584a5.001 5.001 0 1 0-6.607-6.53 4.984 4.984 0 0 0-.368 2.446A5.004 5.004 0 0 0 43 15.584ZM10.25 9h23.52a7.509 7.509 0 0 0-.254 2.5H10.25a2.75 2.75 0 0 0-2.75 2.75v1.249L24 24.573l13.066-7.186c.954.588 2.05.97 3.223 1.08l-15.687 8.628a1.25 1.25 0 0 1-1.077.061l-.127-.06L7.5 18.35v15.4a2.75 2.75 0 0 0 2.75 2.75h27.5a2.75 2.75 0 0 0 2.75-2.75V18.484a7.598 7.598 0 0 0 2.5-.254v15.52c0 2.9-2.35 5.25-5.25 5.25h-27.5A5.25 5.25 0 0 1 5 33.75v-19.5C5 11.35 7.35 9 10.25 9Z"/></svg>