<svg xmlns="http://www.w3.org/2000/svg" width="24" height="24" viewBox="0 0 24 24"><path d="M3 5.75A.75.75 0 0 1 3.75 5h9.5a.75.75 0 0 1 0 1.5h-9.5A.75.75 0 0 1 3 5.75Zm13 0a.75.75 0 0 1 .75-.75h3.5a.75.75 0 0 1 0 1.5h-3.5a.75.75 0 0 1-.75-.75Zm-13 4A.75.75 0 0 1 3.75 9h9.5a.75.75 0 0 1 0 1.5h-9.5A.75.75 0 0 1 3 9.75Zm13 0a.75.75 0 0 1 .75-.75h3.5a.75.75 0 0 1 0 1.5h-3.5a.75.75 0 0 1-.75-.75Zm-13 4a.75.75 0 0 1 .75-.75h9.5a.75.75 0 0 1 0 1.5h-9.5a.75.75 0 0 1-.75-.75Zm13 0a.75.75 0 0 1 .75-.75h3.5a.75.75 0 0 1 0 1.5h-3.5a.75.75 0 0 1-.75-.75Zm-13 4a.75.75 0 0 1 .75-.75h9.5a.75.75 0 0 1 0 1.5h-9.5a.75.75 0 0 1-.75-.75Zm13 0a.75.75 0 0 1 .75-.75h3.5a.75.75 0 0 1 0 1.5h-3.5a.75.75 0 0 1-.75-.75Z"/></svg>