<svg xmlns="http://www.w3.org/2000/svg" width="20" height="20" viewBox="0 0 20 20"><path d="M9.371 2.025a8 8 0 0 1 8.625 8.229 5.497 5.497 0 0 0-1.528-.892A6.5 6.5 0 0 0 5.077 5.755l-.204.248H6.75l.102.008a.75.75 0 0 1 0 1.486l-.102.007H3.252l-.102-.007a.75.75 0 0 1-.641-.641l-.007-.102v-4l.007-.102a.75.75 0 0 1 .641-.641l.102-.007.102.007a.75.75 0 0 1 .641.641l.007.102L4 4.707a7.977 7.977 0 0 1 5.37-2.682ZM9.363 16.47c.215.559.517 1.073.891 1.527a8 8 0 0 1-8.25-8.258.75.75 0 1 1 1.5.045 6.502 6.502 0 0 0 5.86 6.687Zm.894-5.47a5.518 5.518 0 0 1 1.949-1.5l-1.707-.001V6.754l-.007-.102a.75.75 0 0 0-.641-.641l-.102-.007-.102.007a.75.75 0 0 0-.641.641l-.007.102v3.496l.007.102a.75.75 0 0 0 .641.641L9.75 11h.508ZM19 14.5a4.5 4.5 0 1 1-9 0 4.5 4.5 0 0 1 9 0Zm-2.646-1.146a.5.5 0 0 0-.708-.708L14.5 13.793l-1.146-1.147a.5.5 0 0 0-.708.708l1.147 1.146-1.147 1.146a.5.5 0 0 0 .708.708l1.146-1.147 1.146 1.147a.5.5 0 0 0 .708-.708L15.207 14.5l1.147-1.146Z"/></svg>