<svg xmlns="http://www.w3.org/2000/svg" width="24" height="24" viewBox="0 0 24 24"><path d="M10.75 6H17a3 3 0 0 1 2.995 2.824L20 9v1l1 .018a1 1 0 0 1 .993.879l.008.12v2a1 1 0 0 1-.866.992l-.134.009L20 14v1a3 3 0 0 1-2.824 2.995L17 18H7.995a.75.75 0 0 1-.743-.648l-.007-.102v-4.5a.75.75 0 0 1 .649-.743L7.995 12h.628c.716 0 1.304-.546 1.37-1.245l.007-.132V6.75a.75.75 0 0 1 .648-.743L10.75 6H17h-6.25ZM6.645 4.007 6.747 4a.75.75 0 0 1 .743.648l.007.102L7.496 6h.758a.75.75 0 0 1 .75.75v2.499a1.75 1.75 0 0 1-1.75 1.75l-1.003-.001v6.245a.75.75 0 0 1-.647.743l-.102.007a.75.75 0 0 1-.743-.648l-.007-.102v-6.245H3.75A1.75 1.75 0 0 1 2 9.249V6.75A.75.75 0 0 1 2.75 6h.751V4.75a.75.75 0 0 1 .648-.743L4.251 4a.75.75 0 0 1 .743.648l.007.102V6h.995V4.75a.75.75 0 0 1 .65-.743l.1-.007-.1.007Z"/></svg>