<svg xmlns="http://www.w3.org/2000/svg" width="24" height="24"><path d="M9.703 2.265A10.026 10.026 0 0 1 12 2c.79 0 1.559.092 2.297.265a1 1 0 0 1-.458 1.947A8.025 8.025 0 0 0 12 4c-.634 0-1.25.074-1.84.212a1 1 0 1 1-.457-1.947Zm6.18 1.552a1 1 0 0 1 1.376-.324 10.047 10.047 0 0 1 3.248 3.248 1 1 0 1 1-1.7 1.053 8.046 8.046 0 0 0-2.6-2.6 1 1 0 0 1-.325-1.377Zm-7.766 0a1 1 0 0 1-.323 1.376 8.047 8.047 0 0 0-2.6 2.6 1 1 0 1 1-1.7-1.052A10.047 10.047 0 0 1 6.74 3.493a1 1 0 0 1 1.376.324Zm-4.65 5.141a1 1 0 0 1 .745 1.203A8.025 8.025 0 0 0 4 12c0 .634.074 1.25.212 1.84a1 1 0 0 1-1.947.457A10.026 10.026 0 0 1 2 12c0-.79.092-1.559.265-2.297a1 1 0 0 1 1.203-.745Zm17.065 0a1 1 0 0 1 1.203.745 10.068 10.068 0 0 1 0 4.594 1 1 0 0 1-1.947-.458 8.062 8.062 0 0 0 0-3.679 1 1 0 0 1 .744-1.202ZM3.817 15.883a1 1 0 0 1 1.376.323 8.046 8.046 0 0 0 2.6 2.6 1 1 0 0 1-1.052 1.7 10.046 10.046 0 0 1-3.248-3.247 1 1 0 0 1 .324-1.377Zm16.805 1.607a1 1 0 0 0-1.742-.983v.001l-.001.001-.013.021a6.74 6.74 0 0 1-.338.495 8.41 8.41 0 0 1-.74.857C16.598 16.869 14.995 16 13 16c-2.267 0-4 1.2-4 3s1.733 3 4 3c1.91 0 3.459-.634 4.64-1.415a10.979 10.979 0 0 1 1.118 1.67l.07.136.015.031.003.005a1 1 0 0 0 1.809-.853c-.117-.231 0-.001 0-.001l-.002-.002-.002-.006-.008-.016a2.82 2.82 0 0 0-.015-.03l-.011-.022a11.486 11.486 0 0 0-.452-.803 12.974 12.974 0 0 0-.981-1.379c.4-.401.714-.783.944-1.09a8.788 8.788 0 0 0 .453-.666c.012-.018.02-.034.027-.045l.009-.015.003-.005v-.002l.002-.002ZM13 18c1.226 0 2.286.476 3.169 1.145a6.268 6.268 0 0 1-3.17.855C11.268 20 11 19.2 11 19c0-.2.267-1 2-1Z"/></svg>