<svg xmlns="http://www.w3.org/2000/svg" width="20" height="20"><path d="M6 6V4.5c0-.344.065-.667.195-.969.13-.307.31-.573.539-.797.224-.229.49-.409.797-.539.302-.13.625-.195.969-.195.281 0 .549.044.805.133.256.089.49.214.703.375A2.442 2.442 0 0 1 11.5 2a2.484 2.484 0 0 1 2.305 1.531c.13.302.195.625.195.969V6h1a1 1 0 0 1 1 1v8c0 .417-.078.807-.234 1.172-.156.359-.37.677-.641.953-.18.176-.377.328-.594.456l-.59-.256-.495-.221-.212-.117-.222-.165-.241-.212-.268-.286A1.951 1.951 0 0 1 12 15V6h1V4.5c0-.208-.039-.404-.117-.586A1.482 1.482 0 0 0 11.5 3c-.307 0-.583.086-.828.258A2.503 2.503 0 0 1 11 4.5V15a2.95 2.95 0 0 0 .766 2l.309.33.308.27.309.23L13 18H7a3 3 0 0 1-2.117-.875 3.061 3.061 0 0 1-.648-.953A2.932 2.932 0 0 1 4 15V7a1 1 0 0 1 1-1h1Zm1 0h3V4.5c0-.208-.039-.404-.117-.586A1.482 1.482 0 0 0 8.5 3c-.208 0-.404.039-.586.117A1.482 1.482 0 0 0 7 4.5V6Z"/></svg>