<svg xmlns="http://www.w3.org/2000/svg" width="20" height="20" viewBox="0 0 20 20"><path d="M17 14.5v-4.1a5.507 5.507 0 0 0 1-.657V14.5a2.5 2.5 0 0 1-2.5 2.5h-11A2.5 2.5 0 0 1 2 14.5v-8A2.5 2.5 0 0 1 4.5 4h4.707a5.48 5.48 0 0 0-.185 1H4.5A1.5 1.5 0 0 0 3 6.5v.302l7 4.118 1.441-.848c.325.217.674.401 1.043.547l-2.23 1.312a.5.5 0 0 1-.426.038l-.082-.038L3 7.963V14.5A1.5 1.5 0 0 0 4.5 16h11a1.5 1.5 0 0 0 1.5-1.5Zm-6.365-9.58a2 2 0 0 0 1.43-2.478l-.155-.557c.254-.195.529-.362.821-.497l.338.358a2 2 0 0 0 2.91.001l.324-.344c.298.14.578.315.835.518l-.126.423a2 2 0 0 0 1.456 2.519l.349.082a4.698 4.698 0 0 1 .01 1.017l-.46.118a2 2 0 0 0-1.431 2.478l.156.556c-.254.196-.53.363-.822.498l-.338-.358a2 2 0 0 0-2.909-.002l-.325.344a4.32 4.32 0 0 1-.835-.517l.127-.423a2 2 0 0 0-1.456-2.52l-.35-.082a4.714 4.714 0 0 1-.01-1.016l.461-.118Zm4.865.58a1 1 0 1 0-2 0 1 1 0 0 0 2 0Z"/></svg>