<svg xmlns="http://www.w3.org/2000/svg" width="24" height="24" viewBox="0 0 24 24"><path d="M12.5 2.75a.75.75 0 0 0-1.5 0V3H5.25A3.25 3.25 0 0 0 2 6.25v9.5A3.25 3.25 0 0 0 5.25 19h2.398l-1.475 1.77a.75.75 0 0 0 1.153.96L9.6 19h3.508c.334-1.156 1.4-2 2.664-2h.277A3.5 3.5 0 1 1 22 14.5V6.25A3.25 3.25 0 0 0 18.75 3H12.5v-.25Zm-6.5 5A.75.75 0 0 1 6.75 7h4a.75.75 0 0 1 0 1.5h-4A.75.75 0 0 1 6 7.75ZM6.75 10h6.5a.75.75 0 0 1 0 1.5h-6.5a.75.75 0 0 1 0-1.5Zm0 3h5.5a.75.75 0 0 1 0 1.5h-5.5a.75.75 0 0 1 0-1.5ZM21 14.5a2.5 2.5 0 1 1-5 0 2.5 2.5 0 0 1 5 0Zm2 5.375C23 21.431 21.714 23 18.5 23S14 21.437 14 19.875v-.103c0-.98.794-1.772 1.773-1.772h5.454c.98 0 1.773.793 1.773 1.772v.103Z"/></svg>