<svg xmlns="http://www.w3.org/2000/svg" width="24" height="24"><path d="M11.752 2a2.752 2.752 0 0 1 2.752 2.752V19.25a2.752 2.752 0 1 1-5.504 0V4.752A2.752 2.752 0 0 1 11.752 2Zm7 5a2.752 2.752 0 0 1 2.752 2.752v9.498a2.752 2.752 0 1 1-5.504 0V9.752A2.752 2.752 0 0 1 18.752 7Zm-14 5a2.752 2.752 0 0 1 2.752 2.752v4.498a2.752 2.752 0 0 1-5.504 0v-4.498A2.752 2.752 0 0 1 4.752 12Zm7-8.5c-.692 0-1.252.56-1.252 1.252V19.25a1.252 1.252 0 0 0 2.504 0V4.752c0-.692-.56-1.252-1.252-1.252Zm7 5c-.691 0-1.252.56-1.252 1.252v9.498a1.252 1.252 0 0 0 2.504 0V9.752c0-.692-.56-1.252-1.252-1.252Zm-14 5c-.692 0-1.252.56-1.252 1.252v4.498a1.252 1.252 0 1 0 2.504 0v-4.498c0-.692-.56-1.252-1.252-1.252Z"/></svg>