<svg xmlns="http://www.w3.org/2000/svg" width="16" height="16"><path d="M6.83 2.114a.5.5 0 0 0 .194.981 5.14 5.14 0 0 1 1.953 0 .5.5 0 0 0 .194-.98 6.147 6.147 0 0 0-2.341 0Zm4.504.897a.5.5 0 0 0-.556.83 5.029 5.029 0 0 1 1.38 1.381.5.5 0 0 0 .831-.556 6.031 6.031 0 0 0-1.655-1.655Zm-6.112.83a.5.5 0 1 0-.556-.83 6.03 6.03 0 0 0-1.655 1.655.5.5 0 1 0 .831.556 5.03 5.03 0 0 1 1.38-1.38Zm8.664 2.989a.5.5 0 1 0-.981.194c.125.63.125 1.322 0 1.952a.5.5 0 0 0 .981.194 6.14 6.14 0 0 0 0-2.34Zm-10.79.194a.5.5 0 0 0-.982-.194 6.147 6.147 0 0 0 0 2.34.5.5 0 1 0 .981-.194 5.14 5.14 0 0 1 0-1.952Zm9.893 4.31a.5.5 0 0 0-.83-.556 5.03 5.03 0 0 1-1.381 1.38.5.5 0 0 0 .556.831 6.03 6.03 0 0 0 1.655-1.655Zm-9.147-.556a.5.5 0 1 0-.83.556 6.03 6.03 0 0 0 1.654 1.655.5.5 0 1 0 .556-.83 5.031 5.031 0 0 1-1.38-1.381Zm3.182 2.127a.5.5 0 0 0-.194.98 6.14 6.14 0 0 0 2.34 0 .5.5 0 1 0-.193-.98 5.14 5.14 0 0 1-1.953 0ZM10.4 9.8a.5.5 0 0 0-.8-.601c-.365.487-.946.8-1.6.8a1.996 1.996 0 0 1-1.6-.8.5.5 0 0 0-.8.6A2.996 2.996 0 0 0 8 11c.982 0 1.853-.472 2.4-1.2ZM7 6.75a.75.75 0 1 1-1.5 0 .75.75 0 0 1 1.5 0Zm2.75.75a.75.75 0 1 0 0-1.5.75.75 0 0 0 0 1.5Z"/></svg>