<svg xmlns="http://www.w3.org/2000/svg" width="24" height="24" viewBox="0 0 24 24"><path d="M11.75 7c1.348 0 2.179.97 2.245 2.329l.005.18v2.115l2.219.403a3.252 3.252 0 0 1 2.602 3.857l-.043.18-1.048 3.923a2.25 2.25 0 0 1-1.689 1.616l-.165.03-2.418.347a2.25 2.25 0 0 1-2.28-1.123l-.08-.155-.03-.063a3.464 3.464 0 0 0-1.025-1.283l-.194-.138-1.884-1.256-.093-.059-.098-.052-2.363-1.175a.75.75 0 0 1-.416-.655c-.024-1.109.466-1.964 1.42-2.44.701-.352 1.634-.332 2.826.016l.259.08v-4.17C9.5 8.055 10.342 7 11.75 7Zm0 1.5c-.46 0-.713.275-.746.866L11 9.508v5.245a.75.75 0 0 1-1.036.693c-1.46-.602-2.441-.743-2.879-.524-.254.127-.42.29-.51.519l-.038.12 1.905.947.181.097.174.109 1.884 1.256a4.966 4.966 0 0 1 1.626 1.792l.122.245.03.062a.75.75 0 0 0 .677.434l.109-.008 2.418-.347a.75.75 0 0 0 .581-.443l.037-.105 1.048-3.924a1.75 1.75 0 0 0-1.239-2.142l-.07-.017-2.904-.529a.75.75 0 0 1-.609-.63l-.007-.108V9.508c0-.69-.255-1.008-.75-1.008ZM11.749 2a7.25 7.25 0 0 1 6.697 10.034 4.204 4.204 0 0 0-1.305-.785 5.75 5.75 0 1 0-10.219 1.13 3.316 3.316 0 0 0-.955.307c-.16.08-.312.17-.455.266A7.25 7.25 0 0 1 11.748 2Zm0 2.502A4.749 4.749 0 0 1 16.165 11L15 10.789V9.51l-.004-.195.002-.063a3.24 3.24 0 0 0-.567-1.835l-.09-.132C13.783 6.496 12.891 6 11.75 6c-1.175 0-2.085.526-2.64 1.353a3.237 3.237 0 0 0-.61 1.898l.002.11-.002.147v2.89l-.262-.036a1 1 0 0 1-.617-.32C7.207 11.583 7 10.653 7 9.25a4.749 4.749 0 0 1 4.749-4.75Z"/></svg>