<svg xmlns="http://www.w3.org/2000/svg" width="24" height="24" viewBox="0 0 24 24"><path d="M3.5 5.25c0-.966.784-1.75 1.75-1.75h3a.75.75 0 0 0 0-1.5h-3A3.25 3.25 0 0 0 2 5.25v3a.75.75 0 0 0 1.5 0v-3Zm17 0a1.75 1.75 0 0 0-1.75-1.75h-3a.75.75 0 0 1 0-1.5h3A3.25 3.25 0 0 1 22 5.25v3a.75.75 0 0 1-1.5 0v-3ZM5.25 20.5a1.75 1.75 0 0 1-1.75-1.75v-3a.75.75 0 0 0-1.5 0v3A3.25 3.25 0 0 0 5.25 22h3a.75.75 0 0 0 0-1.5h-3Zm15.25-1.75a1.75 1.75 0 0 1-1.75 1.75h-3a.75.75 0 0 0 0 1.5h3A3.25 3.25 0 0 0 22 18.75v-3a.75.75 0 0 0-1.5 0v3ZM13.82 8.227a2.25 2.25 0 0 0-3.64 0l-3.054 4.2C6.044 13.914 7.106 16 8.946 16h6.108c1.84 0 2.902-2.086 1.82-3.573l-3.054-4.2Z"/></svg>