<svg xmlns="http://www.w3.org/2000/svg" width="24" height="24" viewBox="0 0 24 24"><path d="M13.209 3.102c-.495-1.003-1.926-1.003-2.421 0L8.43 7.88l-5.273.766c-1.107.16-1.55 1.522-.748 2.303l3.815 3.719-.9 5.25c-.19 1.104.968 1.945 1.959 1.424l4.715-2.48 4.716 2.48c.99.52 2.148-.32 1.96-1.423l-.902-5.251 3.816-3.72c.8-.78.359-2.141-.748-2.302l-5.273-.766-2.358-4.778ZM9.74 8.614l2.258-4.575 2.259 4.575a1.35 1.35 0 0 0 1.016.739l5.05.734-3.654 3.562a1.35 1.35 0 0 0-.388 1.195l.862 5.029-4.516-2.375a1.35 1.35 0 0 0-1.257 0l-4.516 2.375.862-5.03a1.35 1.35 0 0 0-.388-1.194l-3.654-3.562 5.05-.734c.44-.064.82-.34 1.016-.739ZM1.164 3.781a.75.75 0 0 0 .118 1.054l2.5 2a.75.75 0 1 0 .937-1.171l-2.5-2a.75.75 0 0 0-1.055.117Zm21.672 14.437a.75.75 0 0 0-.117-1.054l-2.5-2a.75.75 0 0 0-.938 1.171l2.5 2a.75.75 0 0 0 1.055-.117ZM1.282 17.164a.75.75 0 1 0 .937 1.171l2.5-2a.75.75 0 0 0-.937-1.171l-2.5 2ZM22.836 3.78a.75.75 0 0 1-.117 1.054l-2.5 2a.75.75 0 0 1-.938-1.171l2.5-2a.75.75 0 0 1 1.055.117Z"/></svg>