<svg xmlns="http://www.w3.org/2000/svg" width="24" height="24" viewBox="0 0 24 24"><path d="M18.5 20a.5.5 0 0 1-.5.5h-6c0 .58-.21 1.08-.533 1.5H18a2 2 0 0 0 2-2V9.828a2 2 0 0 0-.586-1.414l-5.829-5.828a.491.491 0 0 0-.049-.04.63.63 0 0 1-.036-.03 2.072 2.072 0 0 0-.219-.18.652.652 0 0 0-.08-.044l-.048-.024-.05-.029c-.054-.031-.109-.063-.166-.087a1.977 1.977 0 0 0-.624-.138.56.56 0 0 1-.059-.007.605.605 0 0 0-.082-.007H6a2 2 0 0 0-2 2v7.187a10.4 10.4 0 0 1 1.5-.176V4a.5.5 0 0 1 .5-.5h6V8a2 2 0 0 0 2 2h4.5v10Zm-5-15.379L17.378 8.5H14a.5.5 0 0 1-.5-.5V4.621Zm-3.092 17.06C9.564 22.466 7.907 23 6 23c-2.05 0-3.812-.617-4.584-1.5-.268-.306-.416-.644-.416-1v-4.008c.31.27.663.493 1.017.67C3.088 17.698 4.497 18 6 18c.514 0 1.017-.035 1.5-.104a9.082 9.082 0 0 0 1.5-.338c.35-.112.68-.245.983-.396.354-.177.707-.4 1.017-.67V20.5c0 .427-.214.83-.592 1.181ZM5.5 12.012a9.704 9.704 0 0 1 2 .102A7.684 7.684 0 0 1 9 12.5c1.214.456 2 1.182 2 2 0 .818-.786 1.544-2 2a7.71 7.71 0 0 1-1.5.386A9.691 9.691 0 0 1 6 17c-2.761 0-5-1.12-5-2.5 0-1.025 1.234-1.906 3-2.292.467-.102.971-.17 1.5-.196Z"/></svg>