<svg xmlns="http://www.w3.org/2000/svg" width="16" height="16" viewBox="0 0 16 16"><path d="M3 3a2 2 0 1 1 4 0 2 2 0 0 1-4 0Zm6.779 1.584.042.032a2 2 0 1 0-.042-.032ZM6.268 6A2 2 0 1 1 9.73 7.998 2 2 0 0 1 6.268 6ZM2.5 6h2.67a3.013 3.013 0 0 0 .594 3H5.5a2.501 2.501 0 0 0-2.355 1.658 3.733 3.733 0 0 1-.933-.543C1.46 9.51 1 8.616 1 7.5A1.5 1.5 0 0 1 2.5 6Zm8 3a2.5 2.5 0 0 1 2.354 1.658c.34-.139.655-.32.934-.543C14.54 9.51 15 8.616 15 7.5A1.5 1.5 0 0 0 13.5 6h-2.67c.11.313.17.65.17 1a2.99 2.99 0 0 1-.764 2h.264Zm1.387 1.928c.073.176.113.37.113.572 0 1.116-.459 2.01-1.212 2.615C10.047 14.71 9.053 15 8 15c-1.053 0-2.047-.29-2.788-.885C4.46 13.51 4 12.616 4 11.5A1.496 1.496 0 0 1 5.5 10h5a1.5 1.5 0 0 1 1.387.928Z"/></svg>