<svg xmlns="http://www.w3.org/2000/svg" width="20" height="20" viewBox="0 0 20 20"><path d="M6 8.5a.5.5 0 0 1 .5-.5h7a.5.5 0 0 1 0 1h-7a.5.5 0 0 1-.5-.5Zm4.5 2.5a.5.5 0 0 0 0 1h3a.5.5 0 0 0 0-1h-3Zm-2 3a.5.5 0 0 0 0 1h5a.5.5 0 0 0 0-1h-5Z"/><path d="M7.085 3A1.5 1.5 0 0 1 8.5 2h3a1.5 1.5 0 0 1 1.415 1H14.5A1.5 1.5 0 0 1 16 4.5v12a1.5 1.5 0 0 1-1.5 1.5h-9A1.5 1.5 0 0 1 4 16.5v-12A1.5 1.5 0 0 1 5.5 3h1.585ZM12 3.5a.5.5 0 0 0-.5-.5h-3a.5.5 0 0 0 0 1h3a.5.5 0 0 0 .5-.5ZM7.085 4H5.5a.5.5 0 0 0-.5.5v12a.5.5 0 0 0 .5.5h9a.5.5 0 0 0 .5-.5v-12a.5.5 0 0 0-.5-.5h-1.585A1.5 1.5 0 0 1 11.5 5h-3a1.5 1.5 0 0 1-1.415-1Z"/></svg>