<svg xmlns="http://www.w3.org/2000/svg" width="24" height="24" viewBox="0 0 24 24"><path d="M16.75 4a2.25 2.25 0 0 1 2.245 2.096L19 6.25V17.5a.5.5 0 0 0 .992.09L20 17.5V7.014a2.25 2.25 0 0 1 1.994 2.072L22 9.25v7.5a3.25 3.25 0 0 1-3.066 3.245L18.75 20H5.25a3.25 3.25 0 0 1-3.245-3.066L2 16.75V6.25a2.25 2.25 0 0 1 2.096-2.245L4.25 4h12.5Zm-7.502 7h-3.5a.75.75 0 0 0-.75.75v3.5c0 .414.336.75.75.75h3.5a.75.75 0 0 0 .75-.75v-3.5a.75.75 0 0 0-.75-.75Zm6.004 3.5h-2.498l-.102.007A.75.75 0 0 0 12.754 16h2.498l.102-.007a.75.75 0 0 0-.102-1.493Zm-6.754-2v2h-2v-2h2ZM15.25 11l-2.498.005-.102.006a.75.75 0 0 0 .104 1.494l2.499-.005.101-.007A.75.75 0 0 0 15.251 11Zm.001-3.496H5.748l-.102.007a.75.75 0 0 0 .102 1.493h9.504l.102-.006a.75.75 0 0 0-.102-1.494Z"/></svg>