<svg xmlns="http://www.w3.org/2000/svg" width="20" height="20"><path d="M3.25 3a.25.25 0 0 0-.25.25v10.5c0 .138.112.25.25.25H7.5v1H3.25C2.56 15 2 14.44 2 13.75V3.25C2 2.56 2.56 2 3.25 2h5.5C9.44 2 10 2.56 10 3.25v2.5c0 .138.112.25.25.25h1.5c.69 0 1.25.56 1.25 1.25V8c-.351.04-.695.161-1 .365V7.25a.25.25 0 0 0-.25-.25h-1.5C9.56 7 9 6.44 9 5.75v-2.5A.25.25 0 0 0 8.75 3h-5.5Zm10.811 6.284a1.25 1.25 0 0 0-1.622 0l-3.47 2.96a1.333 1.333 0 0 0-.469 1.014v4.616c0 .622.504 1.125 1.125 1.125h1.75c.621 0 1.125-.503 1.125-1.125v-1.749c0-.069.056-.125.125-.125h1.25c.069 0 .125.056.125.125v1.75c0 .62.504 1.124 1.125 1.124h1.75c.621 0 1.125-.503 1.125-1.125v-4.616c0-.39-.171-.761-.468-1.014l-3.471-2.96Zm-.973.761a.25.25 0 0 1 .324 0l3.47 2.96a.334.334 0 0 1 .118.253v4.616c0 .07-.056.125-.125.125h-1.75a.125.125 0 0 1-.125-.125v-1.749c0-.621-.504-1.125-1.125-1.125h-1.25c-.621 0-1.125.504-1.125 1.125v1.75a.125.125 0 0 1-.125.124h-1.75a.125.125 0 0 1-.125-.125v-4.616c0-.097.043-.19.117-.253l3.47-2.96ZM5.5 4.75a.75.75 0 1 1-1.5 0 .75.75 0 0 1 1.5 0Zm-.75 3a.75.75 0 1 0 0-1.5.75.75 0 0 0 0 1.5Zm.75 1.5a.75.75 0 1 1-1.5 0 .75.75 0 0 1 1.5 0ZM7.25 5.5a.75.75 0 1 0 0-1.5.75.75 0 0 0 0 1.5ZM8 7a.75.75 0 1 1-1.5 0A.75.75 0 0 1 8 7Zm-.75 3a.75.75 0 1 0 0-1.5.75.75 0 0 0 0 1.5Z"/></svg>