<svg xmlns="http://www.w3.org/2000/svg" width="48" height="48"><path d="M23.21 7.782a1.25 1.25 0 0 1 1.58 0l13.25 10.824c.291.238.46.593.46.968v19.674c0 .69-.56 1.25-1.25 1.25h-26.5c-.69 0-1.25-.56-1.25-1.25V19.574c0-.375.169-.73.46-.968L23.21 7.782Zm3.162-1.936a3.75 3.75 0 0 0-4.744 0L8.378 16.67A3.75 3.75 0 0 0 7 19.574v19.674a3.75 3.75 0 0 0 3.75 3.75h26.5a3.75 3.75 0 0 0 3.75-3.75V19.574a3.75 3.75 0 0 0-1.377-2.904L26.373 5.846ZM25.25 13.25a1.25 1.25 0 0 0-2.5 0v2.5a1.25 1.25 0 1 0 2.5 0v-2.5Zm0 10a1.25 1.25 0 0 0-2.5 0v2.5a1.25 1.25 0 1 0 2.5 0v-2.5ZM24 32c.69 0 1.25.56 1.25 1.25v2.5a1.25 1.25 0 1 1-2.5 0v-2.5c0-.69.56-1.25 1.25-1.25Z"/></svg>