<svg xmlns="http://www.w3.org/2000/svg" width="24" height="24" viewBox="0 0 24 24"><path d="m9.562 7.505.056.117 5.308 13.005a1 1 0 0 1-1.802.86l-.05-.105L11.693 18H5.407l-1.491 3.407a1 1 0 0 1-1.208.555l-.11-.04a1 1 0 0 1-.555-1.208l.04-.11L7.777 7.6c.337-.77 1.395-.795 1.786-.094ZM19 2a1 1 0 0 1 .993.883L20 3v4h1a1 1 0 0 1 .993.883L22 8a1 1 0 0 1-.884.993L21 9h-1v7a1 1 0 0 1-.884.993L19 17a1 1 0 0 1-.994-.883L18 16V3a1 1 0 0 1 1-1ZM8.66 10.567 6.282 16h4.595L8.66 10.567ZM11 2h5a1 1 0 0 1 .993.883L17 3v2.975a4 4 0 0 1-4 4 1 1 0 1 1 0-2 2 2 0 0 0 1.994-1.85l.006-.15V4h-4a1 1 0 0 1-.117-1.993L11 2h5-5Z"/></svg>