<svg xmlns="http://www.w3.org/2000/svg" width="16" height="16" viewBox="0 0 16 16"><path d="m13.309 14.016.837.838a.5.5 0 0 0 .708-.708l-13-13a.5.5 0 1 0-.708.708L4 4.707V8a2.5 2.5 0 0 0 1.021 2.016c.036-.407.115-.801.235-1.178A1.493 1.493 0 0 1 5 8V5.707l1.984 1.984a4.5 4.5 0 0 0 6.325 6.325Zm-2.197-2.197-.148.367a.5.5 0 0 1-.935-.018l-.643-1.8-.212.496a.5.5 0 0 1-.46.303H8a.5.5 0 0 1 0-1h.385l.322-.753 2.405 2.405ZM8.56 6.439l6.001 6.001A4.5 4.5 0 0 0 8.56 6.438ZM4.794 2.673l.708.708A1.5 1.5 0 0 1 8 4.5v1.099a5.463 5.463 0 0 1 1-.393V4.5a2.5 2.5 0 0 0-4.206-1.827Zm.522 9.67a5.466 5.466 0 0 1-.274-1.16A3.5 3.5 0 0 1 3 8a.5.5 0 0 0-1 0 4.502 4.502 0 0 0 3.316 4.343Z"/></svg>