<svg xmlns="http://www.w3.org/2000/svg" width="24" height="24"><path d="M3.28 2.22a.75.75 0 1 0-1.06 1.06l3.273 3.274-2.865 3.119-.044.052-.038.055c-.34.394-.546.908-.546 1.47v3.496a3.25 3.25 0 0 0 3.25 3.25h2.499a3.25 3.25 0 0 0 3.25-3.25l-.001-2.242h.445L13 14.061v.685a3.25 3.25 0 0 0 3.25 3.25h.685l3.784 3.785a.75.75 0 0 0 1.061-1.061L3.28 2.22ZM7.94 9l-2.656-.001 1.272-1.384L7.939 9Zm-3.69 1.5h4.499a.75.75 0 0 1 .75.75v3.496a1.75 1.75 0 0 1-1.75 1.75H5.25a1.75 1.75 0 0 1-1.75-1.75V11.25a.75.75 0 0 1 .75-.75Zm9.053-.379 1.197 1.197v-.068a.75.75 0 0 1 .75-.75h4.499a.75.75 0 0 1 .75.75v3.496a1.75 1.75 0 0 1-.993 1.578l1.094 1.094a3.246 3.246 0 0 0 1.399-2.672V11.25c0-.53-.183-1.017-.489-1.4a.748.748 0 0 0-.122-.179l-3.642-3.947-.133-.132A2.25 2.25 0 0 0 16.093 5h-1.346l-.102.007a.75.75 0 0 0 .102 1.493h1.346l.103.007a.75.75 0 0 1 .448.234L18.727 9H15.25c-.831 0-1.557.452-1.947 1.122Z"/></svg>