<svg xmlns="http://www.w3.org/2000/svg" width="20" height="20" viewBox="0 0 20 20"><path d="M6.5 3a.75.75 0 0 1 .697.471l3 7.5a.75.75 0 0 1-1.393.557L7.992 9.5H5.008l-.811 2.028a.75.75 0 0 1-1.393-.556l3-7.5A.75.75 0 0 1 6.5 3Zm0 2.77L5.608 8h1.784L6.5 5.77Zm8.28-1.55a.75.75 0 1 0-1.06 1.06l.72.72h-3.69a.75.75 0 0 0 0 1.5h3.69l-.72.72a.75.75 0 0 0 1.06 1.06l2-2a.75.75 0 0 0 0-1.06l-2-2Zm0 7.5a.75.75 0 1 0-1.06 1.06l.72.72H3.75a.75.75 0 0 0 0 1.5h10.69l-.72.72a.75.75 0 1 0 1.06 1.06l2-2a.75.75 0 0 0 0-1.06l-2-2Z"/></svg>