<svg xmlns="http://www.w3.org/2000/svg" width="16" height="16"><path d="M8.302 4.15c.085-.13.182-.267.29-.408l.016-.022a5.68 5.68 0 0 1 .91-.953c.393-.32.869-.594 1.415-.71.182-.038.373-.058.57-.057 1.351.009 2.372.93 2.998 1.704.079.097.15.191.216.281l.028.039c.067.092.12.188.16.285l.008.019c.264.672-.095 1.398-.713 1.705a1.45 1.45 0 0 1-.147.064l-2.232.818-3.106 4.48c-.938 1.353-3.054.428-2.697-1.18l.312-1.407-3.105.875A1.75 1.75 0 0 1 1 8V5.16c0-1.21 1.638-1.587 2.166-.497l.605 1.249 3.432-.904c.432-.113.816-.428 1.1-.858Zm-3.958.423.1.128 2.505-.66c.132-.034.331-.158.519-.442a8.28 8.28 0 0 1 .314-.446L6.508 2.28A1.596 1.596 0 0 0 5.605 2C4.28 2 3.532 3.525 4.345 4.573ZM1.75 13.5a.75.75 0 0 0 0 1.5h12.5a.75.75 0 0 0 0-1.5H1.75Z"/></svg>