<svg xmlns="http://www.w3.org/2000/svg" width="32" height="32" viewBox="0 0 32 32"><path d="M14.386 12.702V12.7v.006c0-.007.004-.02.009-.042a2.457 2.457 0 0 1 .4-.83c.315-.42.895-.9 2.071-.9 1.076 0 1.729.35 2.091.81.372.472.582 1.241.39 2.354-.106.623-.413.992-.916 1.315-.418.269-.885.458-1.456.69a35.02 35.02 0 0 0-.752.312c-.858.37-1.845.87-2.6 1.773-.777.93-1.223 2.177-1.223 3.879a1 1 0 0 0 1 1h6.933a1 1 0 1 0 0-2h-5.858c.123-.742.382-1.237.683-1.596.442-.528 1.064-.878 1.857-1.22.171-.073.36-.15.557-.23.628-.254 1.352-.548 1.94-.926.86-.551 1.584-1.36 1.807-2.659.256-1.487.032-2.885-.791-3.93-.833-1.057-2.138-1.572-3.662-1.572-1.857 0-3.01.819-3.67 1.7a4.457 4.457 0 0 0-.742 1.546 3.052 3.052 0 0 0-.036.164l-.002.015-.002.005v.004s-.085.513 0 .001a1 1 0 0 0 1.97.338l.001-.002v-.003Zm10.321 3.591a1 1 0 1 0-1.414 1.414l1.793 1.793-1.793 1.793a1 1 0 0 0 1.414 1.414l1.793-1.793 1.793 1.793a1 1 0 1 0 1.414-1.414L27.914 19.5l1.793-1.793a1 1 0 0 0-1.414-1.414L26.5 18.086l-1.793-1.793ZM11 22a1 1 0 1 1-2 0 1 1 0 0 1 2 0ZM7.327 9.055A1 1 0 0 1 8 10v12a1 1 0 1 1-2 0v-9.578c-.55.47-1.217.975-1.985 1.436a1 1 0 0 1-1.03-1.715 13.265 13.265 0 0 0 3.221-2.751l.007-.009a1 1 0 0 1 1.114-.328Z"/></svg>