<svg xmlns="http://www.w3.org/2000/svg" width="24" height="24" viewBox="0 0 24 24"><path d="M12 5a8.502 8.502 0 0 1 8.376 7.046 4.28 4.28 0 0 0-1.517.048 7 7 0 1 0-6.359 8.389v1.502A8.5 8.5 0 1 1 12 5Zm.75 7.405V8.75l-.007-.102a.75.75 0 0 0-1.493.102v4.5l.006.089c.208-.341.532-.613.94-.75l.554-.184Zm6.397-7.291.083.06 1.158.964a.75.75 0 0 1-.877 1.212l-.082-.06-1.159-.964a.75.75 0 0 1 .877-1.212ZM14.25 2.5a.75.75 0 0 1 .102 1.493L14.25 4h-4.5a.75.75 0 0 1-.102-1.493L9.75 2.5h4.5Zm.438 10.642a.75.75 0 0 1 .312.608v8.5a.75.75 0 0 1-1.5 0v-7.46l-.513.171a.75.75 0 0 1-.474-1.422l1.5-.5a.75.75 0 0 1 .675.103ZM16.5 16.25a3.25 3.25 0 0 1 6.5 0v3.5a3.25 3.25 0 0 1-6.5 0v-3.5Zm3.25-1.75A1.75 1.75 0 0 0 18 16.25v3.5a1.75 1.75 0 1 0 3.5 0v-3.5a1.75 1.75 0 0 0-1.75-1.75Z"/></svg>