<svg xmlns="http://www.w3.org/2000/svg" width="24" height="24"><path d="M6.238 3c.967 0 1.75.784 1.75 1.75v14.5A1.75 1.75 0 0 1 6.238 21h-2.5a1.75 1.75 0 0 1-1.75-1.75V4.75a1.75 1.75 0 0 1 1.607-1.743L3.738 3h2.5Zm0 1.5h-2.5l-.057.007a.25.25 0 0 0-.193.244v14.5c0 .138.112.25.25.25h2.5a.25.25 0 0 0 .25-.25V4.75a.25.25 0 0 0-.25-.25ZM20.264 3c.967 0 1.75.784 1.75 1.75v6.516a3.293 3.293 0 0 0-1.5-.26V4.751a.25.25 0 0 0-.25-.25h-2.5a.25.25 0 0 0-.25.25v8.09l-1.5 1.5v-9.59c0-.967.784-1.75 1.75-1.75h2.5Zm.25 16.135 1.5-1.5v1.616a1.75 1.75 0 0 1-1.75 1.75H18.65l1.5-1.5h.115a.25.25 0 0 0 .25-.25v-.116ZM14.988 4.75v10.618l-1.5 1.5V4.75a.25.25 0 0 0-.25-.25h-2.5a.25.25 0 0 0-.25.25v14.5c0 .138.112.25.25.25h.804a4.8 4.8 0 0 0-.02.077L11.166 21h-.428a1.75 1.75 0 0 1-1.75-1.75V4.75c0-.966.784-1.75 1.75-1.75h2.5c.967 0 1.75.784 1.75 1.75Zm4.113 7.92L13.2 18.572a2.685 2.685 0 0 0-.707 1.247l-.457 1.831c-.2.796.522 1.517 1.318 1.318l1.83-.457a2.684 2.684 0 0 0 1.248-.707l5.902-5.902a2.286 2.286 0 0 0-3.232-3.232Z"/></svg>