<svg xmlns="http://www.w3.org/2000/svg" width="28" height="28" viewBox="0 0 28 28"><path d="m16.48 21.002.27-.002c1.22 0 1.862.506 2.653 1.704l.393.608c.307.455.499.645.74.745.433.178.792.09 2.109-.544l.403-.196c.824-.404 1.386-.636 2.02-.795a.75.75 0 1 1 .364 1.456c-.394.098-.772.24-1.267.468l-1.159.557c-1.568.74-2.1.829-3.041.44-.625-.257-.98-.63-1.5-1.425l-.195-.304c-.562-.885-.864-1.176-1.4-1.21l-.12-.004c-.548 0-.656.068-2.74 1.615-1.742 1.293-3.071 1.91-4.76 1.91-2.06 0-4.002-.378-5.818-1.135l2.882-.666c.944.2 1.922.301 2.935.301 1.29 0 2.36-.497 3.867-1.615l1.16-.856c1.271-.924 1.554-1.038 2.204-1.052Zm6.298-17.78a4.286 4.286 0 0 1 0 6.06l-1.036 1.036c1.152 1.402 1.11 2.887.04 3.961l-3.001 3.002a.75.75 0 1 1-1.06-1.062l2.998-2.999c.485-.486.542-1.09-.04-1.838L10.086 21.976A2.25 2.25 0 0 1 9 22.577l-6.08 1.404a.75.75 0 0 1-.9-.9l1.403-6.08a2.25 2.25 0 0 1 .601-1.086L16.717 3.222a4.285 4.285 0 0 1 6.06 0Zm-5 1.06L5.085 16.977a.75.75 0 0 0-.2.362l-1.135 4.91 4.912-1.133a.75.75 0 0 0 .361-.2L21.717 8.221a2.786 2.786 0 0 0-3.94-3.94Z"/></svg>