<svg xmlns="http://www.w3.org/2000/svg" width="32" height="32" viewBox="0 0 32 32"><path d="M3 7.5A4.5 4.5 0 0 1 7.5 3h17A4.5 4.5 0 0 1 29 7.5v17a4.5 4.5 0 0 1-4.5 4.5h-17A4.5 4.5 0 0 1 3 24.5v-17ZM7.5 5A2.5 2.5 0 0 0 5 7.5V15h22V7.5A2.5 2.5 0 0 0 24.5 5h-17ZM5 19.846 7.5 17H5v2.846ZM6.648 21h4.494l1.251-4h-2.232l-3.513 4ZM5 23v1.5A2.5 2.5 0 0 0 7.5 27h1.765l1.251-4H5Zm7.612 0-1.251 4h9.278l-1.25-4h-6.777Zm8.872 0 1.251 4H24.5a2.5 2.5 0 0 0 2.5-2.5V23h-5.516Zm3.868-2-3.513-4h-2.232l1.251 4h4.494Zm-6.59 0-1.25-4h-3.023l-1.252 4h5.525ZM27 19.846V17h-2.5l2.5 2.846Z"/></svg>