<svg xmlns="http://www.w3.org/2000/svg" width="28" height="28"><path d="M19.75 25H8.25a.75.75 0 0 1-.102-1.493l.102-.007H10v-2.498H4.25A2.25 2.25 0 0 1 2 18.752V5.25A2.25 2.25 0 0 1 4.25 3h19.499a2.25 2.25 0 0 1 2.25 2.25v13.502a2.25 2.25 0 0 1-2.25 2.25h-5.751V23.5h1.752a.75.75 0 0 1 .743.649l.007.101a.75.75 0 0 1-.648.744L19.75 25H8.25h11.5Zm-3.252-3.998H11.5V23.5h4.999l-.001-2.498ZM23.748 4.5H4.25a.75.75 0 0 0-.75.75v13.502c0 .415.336.75.75.75l12.999-.002.028.002h6.472a.75.75 0 0 0 .75-.75V5.25a.75.75 0 0 0-.75-.75Z"/></svg>