<svg xmlns="http://www.w3.org/2000/svg" width="16" height="16" viewBox="0 0 16 16"><path d="M3.75 3a.75.75 0 0 0-.75.75V5.5a.5.5 0 0 1-1 0V3.75C2 2.784 2.784 2 3.75 2H5.5a.5.5 0 0 1 0 1H3.75ZM10 2.5a.5.5 0 0 1 .5-.5h1.75c.966 0 1.75.784 1.75 1.75V5.5a.5.5 0 0 1-1 0V3.75a.75.75 0 0 0-.75-.75H10.5a.5.5 0 0 1-.5-.5ZM2.5 10a.5.5 0 0 1 .5.5v1.75c0 .414.336.75.75.75H5.5a.5.5 0 0 1 0 1H3.75A1.75 1.75 0 0 1 2 12.25V10.5a.5.5 0 0 1 .5-.5Zm11 0a.5.5 0 0 1 .5.5v1.75A1.75 1.75 0 0 1 12.25 14H10.5a.5.5 0 0 1 0-1h1.75a.75.75 0 0 0 .75-.75V10.5a.5.5 0 0 1 .5-.5Z"/></svg>