<svg xmlns="http://www.w3.org/2000/svg" width="28" height="28"><path d="M14.438 2.142a.75.75 0 0 0-.878 0c-.643.464-2.088 1.312-3.896 2.041C7.854 4.913 5.74 5.5 3.75 5.5a.75.75 0 0 0-.75.75v7.752c0 3.027 1.703 5.841 3.837 7.95 2.133 2.107 4.828 3.64 7.033 4.024l.129.022.128-.022c2.206-.385 4.9-1.917 7.033-4.024 2.135-2.109 3.838-4.923 3.838-7.95V6.25a.75.75 0 0 0-.75-.75c-1.99 0-4.103-.587-5.913-1.317-1.809-.73-3.254-1.577-3.897-2.04Zm5.334 8.147-7.75 7.5a.75.75 0 0 1-1.027.016l-2.75-2.5a.75.75 0 0 1 1.01-1.11l2.229 2.027 7.244-7.011a.75.75 0 0 1 1.044 1.078Z"/></svg>