<svg xmlns="http://www.w3.org/2000/svg" width="16" height="16" viewBox="0 0 16 16"><path d="M3.585 4.414 1.414 6.585a2 2 0 0 0 0 2.829l2.171 2.171a2 2 0 0 0 2.829 0l2.171-2.171a2 2 0 0 0 0-2.829L6.414 4.414a2 2 0 0 0-2.829 0ZM2.121 7.293 4.293 5.12a1 1 0 0 1 1.414 0l2.171 2.172a1 1 0 0 1 0 1.414l-2.171 2.171a1 1 0 0 1-1.414 0L2.12 8.707a1 1 0 0 1 0-1.414Zm7.464 4.292-.878-.878.586-.586c.04-.04.08-.082.117-.125l.883.882a1 1 0 0 0 1.414 0l2.171-2.171a1 1 0 0 0 0-1.414L11.707 5.12a1 1 0 0 0-1.414 0l-.883.882a3.046 3.046 0 0 0-.117-.125l-.586-.585.878-.88a2 2 0 0 1 2.829 0l2.171 2.172a2 2 0 0 1 0 2.829l-2.171 2.171a2 2 0 0 1-2.829 0Z"/></svg>