<svg xmlns="http://www.w3.org/2000/svg" width="16" height="16" viewBox="0 0 16 16"><path d="M8.75 2a1.25 1.25 0 1 0 0 2.5 1.25 1.25 0 0 0 0-2.5ZM6.5 3.25a2.25 2.25 0 1 1 3.832 1.6 1.6 1.6 0 0 1 .584.554l.646 1.035 1.287.804a1.6 1.6 0 1 1-1.696 2.714l-1.45-.906.578.817a2.6 2.6 0 0 1 .46 1.2l.25 2.147a1.6 1.6 0 0 1-3.18.37L7.58 11.59l-.355-.501-1.135 2.895a1.6 1.6 0 1 1-2.979-1.168L4.215 10A1.6 1.6 0 0 1 2.74 7.797l.962-2.368a1.6 1.6 0 0 1 1.112-.953l1.816-.433.013-.002A2.245 2.245 0 0 1 6.5 3.25Zm.649 1.769a.6.6 0 0 0-.287-.003l-1.817.433a.6.6 0 0 0-.417.357l-.963 2.368a.6.6 0 1 0 1.112.452l.754-1.855a.476.476 0 0 1 .884.353l-2.373 6.057a.6.6 0 0 0 1.117.438l1.127-2.875a1 1 0 0 1 1.737-.227l.458.625a.4.4 0 0 1 .075.19l.249 2.137a.6.6 0 1 0 1.192-.138l-.249-2.138a1.6 1.6 0 0 0-.299-.761l-.728-.992a1 1 0 0 1-.13-.943l.34-.903a.4.4 0 0 1 .714-.071l.247.395a.6.6 0 0 0 .19.19l1.6 1a.6.6 0 1 0 .636-1.017l-1.286-.804a1 1 0 0 1-.318-.318l-.646-1.036a.6.6 0 0 0-.361-.263l-2.558-.651Z"/></svg>