<svg xmlns="http://www.w3.org/2000/svg" width="24" height="24"><path d="M5.75 3a2.25 2.25 0 0 1 2.248 2.25v13.5a2.25 2.25 0 1 1-4.498 0V5.25A2.25 2.25 0 0 1 5.75 3Zm6.5 4a2.25 2.25 0 0 1 2.248 2.25v9.5a2.25 2.25 0 1 1-4.498 0v-9.5A2.25 2.25 0 0 1 12.25 7Zm6.5 4a2.25 2.25 0 0 1 2.248 2.25v5.5a2.25 2.25 0 1 1-4.498 0v-5.5A2.249 2.249 0 0 1 18.75 11Zm-13-6.5a.75.75 0 0 0-.75.75v13.5a.75.75 0 0 0 1.498 0V5.25a.75.75 0 0 0-.749-.75Zm6.5 4a.75.75 0 0 0-.75.75v9.5a.75.75 0 0 0 1.498 0v-9.5a.75.75 0 0 0-.749-.75Zm6.5 4a.75.75 0 0 0-.75.75v5.5a.75.75 0 0 0 1.498 0v-5.5a.75.75 0 0 0-.749-.75Z"/></svg>