<svg xmlns="http://www.w3.org/2000/svg" width="24" height="24" viewBox="0 0 24 24"><path d="M8.5 2a6.5 6.5 0 0 0-.482 12.982 7.501 7.501 0 0 1 6.964-6.964A6.5 6.5 0 0 0 8.5 2Zm2.78 5.78-3 3a.75.75 0 0 1-1.06 0l-1.5-1.502a.75.75 0 0 1 1.061-1.06l.97.971 2.469-2.47a.75.75 0 0 1 1.06 1.061ZM9 15.5a6.5 6.5 0 1 1 13 0 6.5 6.5 0 0 1-13 0Zm4.217-2.26a.75.75 0 0 0 .005 1.06l1.215 1.203-1.217 1.217a.75.75 0 1 0 1.06 1.06l1.22-1.219 1.215 1.219a.75.75 0 0 0 1.062-1.06l-1.215-1.217 1.212-1.204a.75.75 0 0 0-1.057-1.064L15.5 14.444l-1.221-1.21a.75.75 0 0 0-1.06.005Z"/></svg>