<svg xmlns="http://www.w3.org/2000/svg" width="24" height="24"><path d="M19.75 2A2.25 2.25 0 0 1 22 4.25v5.462a3.25 3.25 0 0 1-.952 2.298l-.42.42a3.513 3.513 0 0 0-.95-1.17l.31-.31a1.75 1.75 0 0 0 .512-1.238V4.25a.75.75 0 0 0-.75-.75h-5.466c-.464 0-.91.185-1.238.513l-8.512 8.523a1.75 1.75 0 0 0 .015 2.462l4.461 4.454a1.755 1.755 0 0 0 2.477 0l.513-.513v2.014a3.256 3.256 0 0 1-4.05-.439L3.49 16.06a3.25 3.25 0 0 1-.005-4.596l8.5-8.51a3.25 3.25 0 0 1 2.3-.953h5.465ZM17 5.502a1.5 1.5 0 1 1 0 3 1.5 1.5 0 0 1 0-3ZM15 15h-.5a1.5 1.5 0 0 0-1.5 1.5v5a1.5 1.5 0 0 0 1.5 1.5h6a1.5 1.5 0 0 0 1.5-1.5v-5a1.5 1.5 0 0 0-1.5-1.5H20v-1a2.5 2.5 0 0 0-5 0v1Zm1.5-1a1 1 0 1 1 2 0v1h-2v-1Zm2 5a1 1 0 1 1-2 0 1 1 0 0 1 2 0Z"/></svg>