<svg xmlns="http://www.w3.org/2000/svg" width="28" height="28"><path d="m5.241 9.5-.288 1.117A2.751 2.751 0 0 0 3 13.25v9A2.75 2.75 0 0 0 5.75 25h1a2.75 2.75 0 0 0 2.75-2.75v-1h9v1A2.75 2.75 0 0 0 21.25 25h1A2.75 2.75 0 0 0 25 22.25v-9a2.751 2.751 0 0 0-1.953-2.633L22.758 9.5h.992a.75.75 0 0 0 0-1.5h-1.379l-.564-2.187A3.75 3.75 0 0 0 18.176 3H9.824a3.75 3.75 0 0 0-3.631 2.813L5.629 8H4.25a.75.75 0 0 0 0 1.5h.991Zm4.583-5h8.352a2.25 2.25 0 0 1 2.178 1.688l1.113 4.312H6.533l1.112-4.312A2.25 2.25 0 0 1 9.824 4.5ZM20 22.25v-1h3.5v1c0 .69-.56 1.25-1.25 1.25h-1c-.69 0-1.25-.56-1.25-1.25Zm-12-1v1c0 .69-.56 1.25-1.25 1.25h-1c-.69 0-1.25-.56-1.25-1.25v-1H8Zm.25-4.75a1.25 1.25 0 1 1 0-2.5 1.25 1.25 0 0 1 0 2.5ZM21 15.25a1.25 1.25 0 1 1-2.5 0 1.25 1.25 0 0 1 2.5 0Zm-9.25 1.25h4.5a.75.75 0 0 1 0 1.5h-4.5a.75.75 0 0 1 0-1.5Z"/></svg>