<svg xmlns="http://www.w3.org/2000/svg" width="32" height="32"><path d="M8.71 3.472a2 2 0 0 1 2.58 0l4.646 3.925.064.056.064-.056 4.645-3.925a2 2 0 0 1 2.582 0l4.645 3.925A3 3 0 0 1 29 9.69V26a3 3 0 0 1-3 3H6a3 3 0 0 1-3-3V9.69a3 3 0 0 1 1.064-2.292l4.645-3.925ZM15 27v-4h-3v4h3Zm0-6V9.689a1 1 0 0 0-.355-.764L10 5 5.355 8.925A1 1 0 0 0 5 9.69V26a1 1 0 0 0 1 1h4v-5a1 1 0 0 1 1-1h4Zm2 6h3v-4h-3v4Zm0-6h4a1 1 0 0 1 1 1v5h4a1 1 0 0 0 1-1V9.689a1 1 0 0 0-.355-.764L22 5l-4.645 3.925A1 1 0 0 0 17 9.69V21Zm-5.75-9a1.25 1.25 0 1 1-2.5 0 1.25 1.25 0 0 1 2.5 0ZM22 13.25a1.25 1.25 0 1 1 0-2.5 1.25 1.25 0 0 1 0 2.5ZM11.25 17a1.25 1.25 0 1 1-2.5 0 1.25 1.25 0 0 1 2.5 0ZM22 18.25a1.25 1.25 0 1 1 0-2.5 1.25 1.25 0 0 1 0 2.5Z"/></svg>