<svg xmlns="http://www.w3.org/2000/svg" width="20" height="20" viewBox="0 0 20 20"><path d="M2 6.75A2.75 2.75 0 0 1 4.75 4h10.5A2.75 2.75 0 0 1 18 6.75v5.5A2.75 2.75 0 0 1 15.25 15H4.75A2.75 2.75 0 0 1 2 12.25v-5.5Zm5.146 1.396-.646.647-.646-.647a.5.5 0 1 0-.708.708l.647.646-.647.646a.5.5 0 0 0 .708.708l.646-.647.646.647a.5.5 0 0 0 .708-.708L7.207 9.5l.647-.646a.5.5 0 1 0-.708-.708Zm4 0-.646.647-.646-.647a.5.5 0 1 0-.708.708l.647.646-.647.646a.5.5 0 0 0 .708.708l.646-.647.646.647a.5.5 0 0 0 .708-.708l-.647-.646.647-.646a.5.5 0 0 0-.708-.708ZM13 10.5a.5.5 0 0 0 .5.5h2a.5.5 0 0 0 0-1h-2a.5.5 0 0 0-.5.5Z"/></svg>