<svg xmlns="http://www.w3.org/2000/svg" width="16" height="16" viewBox="0 0 16 16"><path d="M7 1a6 6 0 0 0-5.27 8.872l-.71 2.49a.5.5 0 0 0 .638.612l2.338-.779c.468.271.976.48 1.513.618a5.456 5.456 0 0 1-.392-1.18 4.973 4.973 0 0 1-.792-.408.5.5 0 0 0-.426-.052l-1.658.553.51-1.781a.5.5 0 0 0-.052-.393 5 5 0 1 1 8.934-4.435 5.46 5.46 0 0 1 1.18.392A6.002 6.002 0 0 0 7 1Zm8 9.5a4.5 4.5 0 1 1-9 0 4.5 4.5 0 0 1 9 0ZM9.604 7.896a.5.5 0 0 0-.708 0l-1.75 1.75a.498.498 0 0 0-.002.705l1.752 1.753a.5.5 0 0 0 .708-.708l-.897-.896h1.543c.966 0 1.75.784 1.75 1.75v.25a.5.5 0 0 0 1 0v-.25a2.75 2.75 0 0 0-2.75-2.75H8.707l.897-.896a.5.5 0 0 0 0-.708Z"/></svg>