<svg xmlns="http://www.w3.org/2000/svg" width="24" height="24"><path d="M5.575 2.074A.75.75 0 0 1 6 2.75c0 .83.312 1.308.703 1.89l.029.042c.332.494.768 1.141.768 2.068 0 .946-.477 1.78-1.204 2.275.191.16.36.357.506.593.476.77.698 1.947.698 3.637 0 1.712-.23 3.768-.605 5.41-.186.816-.417 1.569-.692 2.134a3.043 3.043 0 0 1-.51.77c-.206.211-.523.436-.943.436-.42 0-.737-.225-.942-.436a2.995 2.995 0 0 1-.51-.77c-.276-.566-.507-1.318-.693-2.135A26.05 26.05 0 0 1 2 13.254c0-1.69.222-2.866.698-3.636a2.44 2.44 0 0 1 .506-.593A2.747 2.747 0 0 1 2 6.75c0-.368 0-1.001.383-1.818.375-.8 1.088-1.719 2.398-2.768a.75.75 0 0 1 .794-.09ZM10 14.917a5.957 5.957 0 0 1-1.532-.476c.021-.406.032-.804.032-1.186 0-.406-.012-.794-.038-1.164.443.365.966.636 1.538.783V10.5A1.5 1.5 0 0 1 11.5 9H15a4 4 0 0 0-6.585-3.053c-.173-.814-.575-1.41-.832-1.791l-.04-.06A6 6 0 0 1 17 9h3.5a1.5 1.5 0 0 1 1.5 1.5v9a1.5 1.5 0 0 1-1.5 1.5h-9a1.5 1.5 0 0 1-1.5-1.5v-4.583Zm2 0V19h8v-8h-3.341a6.008 6.008 0 0 1-4.66 3.917ZM14.465 11H12v1.874A4.008 4.008 0 0 0 14.465 11Z"/></svg>