<svg xmlns="http://www.w3.org/2000/svg" width="16" height="16" viewBox="0 0 16 16"><path d="m6.829 6.04-1.073.984a6.619 6.619 0 0 0 .59 1.421 6.268 6.268 0 0 0 .937 1.223L8.67 9.23a2 2 0 0 1 2.145.636l.84 1.021a1.899 1.899 0 0 1-.17 2.596c-1.32 1.23-3.37 1.556-4.804.25A15.902 15.902 0 0 1 3.654 9.97a15.285 15.285 0 0 1-1.746-4.474c-.406-1.895.913-3.49 2.63-4.014a1.915 1.915 0 0 1 2.353 1.16l.459 1.223a2 2 0 0 1-.521 2.176ZM13.5 2a.5.5 0 0 1 .5.5v4a.5.5 0 0 1-1 0V3.709l-2.146 2.146a.5.5 0 0 1-.708-.707l2.147-2.146H9.5a.5.5 0 1 1 0-1h4ZM10 6.5a.5.5 0 1 1-1 0 .5.5 0 0 1 1 0ZM8.5 8a.5.5 0 1 0 0-1 .5.5 0 0 0 0 1Z"/></svg>