<svg xmlns="http://www.w3.org/2000/svg" width="24" height="24"><path d="m9.526 3.572.902 2.006a2.75 2.75 0 0 1-.633 3.139L8.3 10.11a.25.25 0 0 0-.078.155c-.044.397.225 1.17.846 2.245.45.781.859 1.33 1.206 1.637.243.215.376.261.433.245l2.01-.615a2.75 2.75 0 0 1 3.034 1.02l1.28 1.776a2.75 2.75 0 0 1-.338 3.605l-.887.84a3.75 3.75 0 0 1-3.586.889c-2.755-.769-5.224-3.093-7.436-6.924C2.57 11.147 1.792 7.843 2.51 5.07a3.75 3.75 0 0 1 2.34-2.583l.206-.069 1.167-.351a2.75 2.75 0 0 1 3.302 1.505Zm-2.87-.07-1.166.353-.159.054a2.25 2.25 0 0 0-1.37 1.537c-.603 2.331.086 5.26 2.122 8.787 2.034 3.522 4.223 5.582 6.54 6.23a2.25 2.25 0 0 0 2.152-.534l.886-.84a1.25 1.25 0 0 0 .154-1.639l-1.28-1.775a1.25 1.25 0 0 0-1.38-.464l-2.015.617c-1.17.348-2.231-.593-3.371-2.568C7 11.93 6.642 10.9 6.732 10.099c.046-.416.24-.8.545-1.086L8.772 7.62a1.25 1.25 0 0 0 .287-1.427l-.901-2.006a1.25 1.25 0 0 0-1.501-.684Zm8.093-1.5h6.515a.408.408 0 0 1 .078.004l.061.01.095.027.089.037.067.04a.749.749 0 0 1 .226.224l.043.074.041.104.024.097.011.1L22 9.257a.75.75 0 0 1-1.493.101l-.007-.101V4.56l-6.22 6.224a.75.75 0 0 1-.976.073l-.085-.073a.75.75 0 0 1-.072-.976l.072-.084L19.44 3.5h-4.69a.75.75 0 0 1-.744-.648l-.007-.101a.75.75 0 0 1 .75-.75Z"/></svg>