<svg xmlns="http://www.w3.org/2000/svg" width="24" height="24" viewBox="0 0 24 24"><path d="m10.945 2.047.005.007C11.295 2.018 11.646 2 12 2c5.439 0 9.864 4.342 9.997 9.75-1.166-.242-2.848-.393-5.228-.077a6.361 6.361 0 0 0-1.756.494 25.307 25.307 0 0 0-.021-.107 4.094 4.094 0 0 0-.135-.54s-.005-.013-.019-.037a1.547 1.547 0 0 0-.064-.105 6.233 6.233 0 0 0-.227-.317l-.11-.143c-.16-.212-.353-.463-.516-.712-.196-.298-.417-.688-.487-1.104a1.458 1.458 0 0 1 .055-.734c.093-.264.264-.482.486-.649.484-.362 1.194-1.172 1.824-1.959.287-.359.544-.695.736-.95A8.46 8.46 0 0 0 11.84 3.5c.122.245.254.533.373.85.347.923.666 2.282.1 3.487-.522 1.113-1.424 1.4-2.09 1.573l-.085.021c-.656.17-.908.235-1.092.514-.17.257-.144.582.061 1.25l.046.148c.081.258.18.57.23.863.064.364.081.827-.152 1.275a2.187 2.187 0 0 1-.9.945c-.341.185-.694.256-.958.302l-.093.017c-.515.09-.761.134-1 .39-.187.2-.307.553-.378 1.079-.028.214-.045.427-.063.646l-.01.117c-.02.242-.044.521-.099.76v.002a8.478 8.478 0 0 0 5.63 2.736c-.175.503-.29 1-.338 1.477a9.987 9.987 0 0 1-6.918-3.815h-.003v-.003A9.957 9.957 0 0 1 2 12c0-5.162 3.911-9.41 8.932-9.944l.013-.009Zm1.06 20.159c.06-.966.495-2.142 1.233-3.252a8.07 8.07 0 0 1 .886-1.217 8.896 8.896 0 0 1 4.496-2.751.5.5 0 0 0-.243-.97 9.895 9.895 0 0 0-5.004 3.061 9.212 9.212 0 0 0-.727.943 3.555 3.555 0 0 1-.148-1.02c0-.916.467-1.913 1.207-2.702a5.326 5.326 0 0 1 3.195-1.634c2.8-.37 4.538-.06 5.563.227a.75.75 0 0 1 .211 1.347c-.057.038-.149.13-.26.34a5.01 5.01 0 0 0-.32.825c-.087.285-.17.592-.26.926l-.058.212c-.111.41-.234.85-.382 1.286-.292.862-.704 1.781-1.397 2.488-.719.733-1.695 1.19-2.999 1.19-1.329 0-2.257-.539-2.85-1.159-.404.74-.614 1.437-.646 1.951a.75.75 0 1 1-1.497-.091Z"/></svg>