<svg xmlns="http://www.w3.org/2000/svg" width="28" height="28"><path d="M6.75 3h14.5C23.288 3 25 4.72 25 6.75v4.26a3.284 3.284 0 0 0-.25-.01H23.5V9.5h-19v11.75a2.25 2.25 0 0 0 2.25 2.25H11v1.25c0 .084.003.168.01.25H6.75A3.75 3.75 0 0 1 3 21.25V6.75C3 4.712 4.72 3 6.75 3ZM18.5 18.5v-4.25A2.25 2.25 0 0 1 20.75 12h4A2.25 2.25 0 0 1 27 14.25v9.5A3.25 3.25 0 0 1 23.75 27h-9.5A2.25 2.25 0 0 1 12 24.75v-4a2.25 2.25 0 0 1 2.25-2.25h4.25Zm1.5-4.25v4.25h5.5v-4.25a.75.75 0 0 0-.75-.75h-4a.75.75 0 0 0-.75.75ZM25.5 20H20v5.5h3.75a1.75 1.75 0 0 0 1.75-1.75V20Zm-11.25 0a.75.75 0 0 0-.75.75v4c0 .414.336.75.75.75h4.25V20h-4.25Z"/></svg>