<svg xmlns="http://www.w3.org/2000/svg" width="16" height="16"><path d="M15 5.5a4.5 4.5 0 1 1-9 0 4.5 4.5 0 0 1 9 0Zm-4.854 2.353.003.003a.498.498 0 0 0 .348.144h.006a.498.498 0 0 0 .35-.146l2-2a.5.5 0 0 0-.707-.708L11 6.293V3.5a.5.5 0 0 0-1 0v2.793L8.854 5.146a.5.5 0 1 0-.708.708l2 2ZM12 13v-2.207c.349-.099.683-.23 1-.393V13a2 2 0 0 1-2 2H3a2 2 0 0 1-2-2V7a2 2 0 0 1 2-2h2.022a5.57 5.57 0 0 0 0 1H3a1 1 0 0 0-1 1v.74l5 2.692.544-.293c.344.22.714.402 1.104.542l-1.41.76a.5.5 0 0 1-.475 0L2 8.875V13a1 1 0 0 0 1 1h8a1 1 0 0 0 1-1Z"/></svg>