<svg xmlns="http://www.w3.org/2000/svg" width="32" height="32"><path d="M12.5 3C6.701 3 2 7.701 2 13.5a10.479 10.479 0 0 0 1.102 4.688l-1.05 3.918a1.5 1.5 0 0 0 1.838 1.837l3.915-1.049A10.461 10.461 0 0 0 12.5 24C18.3 24 23 19.299 23 13.5S18.3 3 12.5 3Zm1.955 22.342a12.077 12.077 0 0 1-2.808.128A10.474 10.474 0 0 0 19.5 29a10.46 10.46 0 0 0 4.695-1.106l3.915 1.05a1.5 1.5 0 0 0 1.837-1.838l-1.05-3.918A10.44 10.44 0 0 0 30 18.5a10.5 10.5 0 0 0-6.451-9.69c.362.853.63 1.757.787 2.699A8.49 8.49 0 0 1 28 18.5a8.46 8.46 0 0 1-1.046 4.088 1 1 0 0 0-.09.74l.927 3.46-3.456-.927a1 1 0 0 0-.74.09 8.457 8.457 0 0 1-4.095 1.05 8.462 8.462 0 0 1-5.045-1.66ZM11.5 15c0-1.655.884-2.662 1.6-3.478l.02-.022c.56-.64.88-1.02.88-1.5-.01-.29-.18-1-1.5-1-1.43 0-1.5.83-1.5 1 0 .55-.45 1-1 1s-1-.45-1-1c0-1.21.93-3 3.5-3S16 8.79 16 10s-.73 2.09-1.38 2.83l-.018.02C14.01 13.523 13.5 14.1 13.5 15c0 .55-.45 1-1 1s-1-.45-1-1Zm2.25 3.75a1.25 1.25 0 1 1-2.5 0 1.25 1.25 0 0 1 2.5 0Z"/></svg>