<svg xmlns="http://www.w3.org/2000/svg" width="48" height="48" viewBox="0 0 48 48"><path d="m14.222 23 6.208 6.208a1.75 1.75 0 0 1-2.35 2.588l-.125-.113-9.192-9.193a1.75 1.75 0 0 1-.114-2.35l.114-.125 9.192-9.192a1.75 1.75 0 0 1 2.588 2.35l-.113.125-6.204 6.202H22c3.342 0 6.455.744 9.157 2.168l.402.218a17.013 17.013 0 0 1 6.555 6.555c1.566 2.794 2.386 6.05 2.386 9.56a1.75 1.75 0 1 1-3.5 0c0-2.92-.671-5.587-1.939-7.848a13.512 13.512 0 0 0-5.214-5.214c-2.135-1.197-4.632-1.862-7.363-1.932L22 23h-7.778l6.208 6.208L14.222 23Z"/></svg>