<svg xmlns="http://www.w3.org/2000/svg" width="24" height="24"><path d="M11.69 7.458a.75.75 0 0 0-1.36-.043L8.785 10.5H7.75a.75.75 0 0 0 0 1.5h1.5a.75.75 0 0 0 .67-.415l1.023-2.044 2.116 5.001a.75.75 0 0 0 1.339.086L15.93 12h.819a.75.75 0 0 0 0-1.5H15.5a.75.75 0 0 0-.648.372l-.995 1.706-2.166-5.12ZM6.5 2A2.5 2.5 0 0 0 4 4.5v15A2.5 2.5 0 0 0 6.5 22h13.25a.75.75 0 0 0 0-1.5H6.5a1 1 0 0 1-1-1h14.25a.75.75 0 0 0 .75-.75V4.5A2.5 2.5 0 0 0 18 2H6.5ZM19 18H5.5V4.5a1 1 0 0 1 1-1H18a1 1 0 0 1 1 1V18Z"/></svg>