<svg xmlns="http://www.w3.org/2000/svg" width="24" height="24"><path d="M7.75 11.5a.75.75 0 1 0 0 1.5.75.75 0 0 0 0-1.5ZM7 15.25a.75.75 0 1 1 1.5 0 .75.75 0 0 1-1.5 0Zm3-3a.75.75 0 0 1 .75-.75h3.054a.75.75 0 0 1 0 1.5H10.75a.75.75 0 0 1-.75-.75Zm.75 2.25a.75.75 0 0 0 0 1.5h3.054a.75.75 0 0 0 0-1.5H10.75ZM6.25 2A2.25 2.25 0 0 0 4 4.25v13a2.25 2.25 0 0 0 2.25 2.25h9a2.25 2.25 0 0 0 2.25-2.25V8.869a2.25 2.25 0 0 0-.659-1.591l-4.619-4.619A2.25 2.25 0 0 0 10.632 2H6.25ZM5.5 4.25a.75.75 0 0 1 .75-.75h4.254v3.248a2.25 2.25 0 0 0 2.25 2.25H16v8.252a.75.75 0 0 1-.75.75h-9a.75.75 0 0 1-.75-.75v-13Zm6.504 2.498V4.562l2.935 2.936h-2.185a.75.75 0 0 1-.75-.75ZM8.75 22a2.25 2.25 0 0 1-2.122-1.5h8.622a3.25 3.25 0 0 0 3.25-3.25V8.937l.84.84c.423.423.66.995.66 1.592v5.881A4.75 4.75 0 0 1 15.25 22h-6.5Z"/></svg>