<svg xmlns="http://www.w3.org/2000/svg" width="32" height="32" viewBox="0 0 32 32"><path d="M19 11a2 2 0 1 0 0 4 2 2 0 0 0 0-4ZM9 8a1 1 0 0 0-1 1v14a1 1 0 0 0 1 1h14a1 1 0 0 0 1-1V9a1 1 0 0 0-1-1H9Zm5.232 8.232L10 20.465V10h12v10.465l-4.232-4.233a2.5 2.5 0 0 0-3.536 0Zm2.122 1.414L20.707 22h-9.414l4.353-4.354a.5.5 0 0 1 .708 0ZM7.5 3A4.5 4.5 0 0 0 3 7.5v17A4.5 4.5 0 0 0 7.5 29h17a4.5 4.5 0 0 0 4.5-4.5v-17A4.5 4.5 0 0 0 24.5 3h-17ZM5 7.5A2.5 2.5 0 0 1 7.5 5h17A2.5 2.5 0 0 1 27 7.5v17a2.5 2.5 0 0 1-2.5 2.5h-17A2.5 2.5 0 0 1 5 24.5v-17Z"/></svg>