<svg xmlns="http://www.w3.org/2000/svg" width="20" height="20" viewBox="0 0 20 20"><path d="M10.428 2.212a.645.645 0 0 0-.857 0 5.716 5.716 0 0 0-1.926 4.35.5.5 0 0 0 .246.425A7.407 7.407 0 0 1 9.628 8.41a.5.5 0 0 0 .743 0 7.408 7.408 0 0 1 1.737-1.421.5.5 0 0 0 .245-.425 5.716 5.716 0 0 0-1.925-4.351Zm-7.412 9.996a.663.663 0 0 1 .606-.72A6.364 6.364 0 0 1 10 15.326a6.364 6.364 0 0 1 6.377-3.838c.366.03.64.352.606.72A6.368 6.368 0 0 1 10.64 18h-.465a.665.665 0 0 1-.176-.024.665.665 0 0 1-.177.024h-.465a6.368 6.368 0 0 1-6.342-5.792ZM10 10.826a6.364 6.364 0 0 0-6.378-3.838.663.663 0 0 0-.606.72 6.35 6.35 0 0 0 .765 2.5.5.5 0 0 0 .434.258 7.357 7.357 0 0 1 5.368 2.394.5.5 0 0 0 .417.16.5.5 0 0 0 .416-.16 7.357 7.357 0 0 1 5.368-2.394.5.5 0 0 0 .434-.259 6.35 6.35 0 0 0 .765-2.499.663.663 0 0 0-.606-.72A6.364 6.364 0 0 0 10 10.826Z"/></svg>