<svg xmlns="http://www.w3.org/2000/svg" width="28" height="28"><path d="M10.5 4.5a6 6 0 0 0-.5 11.98v1.504A7.5 7.5 0 1 1 17.984 10h-1.505A6 6 0 0 0 10.5 4.5Zm3.75 6.5A3.25 3.25 0 0 0 11 14.25v7.5A3.25 3.25 0 0 0 14.25 25h7.5A3.25 3.25 0 0 0 25 21.75v-7.5A3.25 3.25 0 0 0 21.75 11h-7.5Zm-1.75 3.25c0-.966.784-1.75 1.75-1.75h7.5c.966 0 1.75.784 1.75 1.75v7.5c0 .206-.036.404-.101.588l-3.631-3.63a2.5 2.5 0 0 0-3.536 0l-3.63 3.63a1.746 1.746 0 0 1-.102-.588v-7.5Zm1.162 9.149 3.63-3.631a1 1 0 0 1 1.415 0l3.631 3.63a1.746 1.746 0 0 1-.588.102h-7.5c-.206 0-.404-.036-.588-.101ZM22 15.5a1.5 1.5 0 1 1-3 0 1.5 1.5 0 0 1 3 0Z"/></svg>