<svg xmlns="http://www.w3.org/2000/svg" width="16" height="16" viewBox="0 0 16 16"><path d="M9.39 3.611a.5.5 0 0 1 .057.638l-.058.07-2.682 2.68L8 7c3.522 0 5.885 1.976 5.996 4.793L14 12a.5.5 0 0 1-1 0c0-2.273-1.807-3.904-4.738-3.996L8 8H6.707l2.682 2.682a.5.5 0 0 1-.638.765l-.069-.057-3.566-3.57-.05-.07-.027-.056-.023-.068-.011-.058-.004-.053v-.057l.016-.086.02-.063.04-.076.055-.07 3.55-3.552a.5.5 0 0 1 .707 0ZM2.145 7.147l3.5-3.5a.5.5 0 0 1 .765.638l-.057.069L3.207 7.5l3.147 3.147a.5.5 0 0 1-.638.765l-.07-.058-3.5-3.5a.5.5 0 0 1-.057-.638l.057-.07 3.5-3.5-3.5 3.5Z"/></svg>