<svg xmlns="http://www.w3.org/2000/svg" width="28" height="28"><path d="M10.44 7.75c.353-1 1.767-1 2.12 0l.516 1.455c.12.336.384.6.72.72l1.455.514c.999.354.999 1.768 0 2.121l-1.455.515c-.336.119-.6.383-.72.72l-.515 1.456c-.354 1-1.768.999-2.121-.001l-.514-1.455a1.181 1.181 0 0 0-.72-.72L7.75 12.56c-1-.353-1-1.767 0-2.12l1.456-.516c.336-.119.6-.383.72-.72l.514-1.454Zm7.885 6.833c-.275-.777-1.375-.777-1.65 0l-.4 1.132a.919.919 0 0 1-.56.56l-1.132.4c-.777.275-.777 1.375 0 1.65l1.133.4a.919.919 0 0 1 .56.56l.4 1.132c.274.777 1.374.777 1.649 0l.401-1.133a.919.919 0 0 1 .56-.559l1.131-.4c.777-.275.777-1.375 0-1.65l-1.132-.4a.919.919 0 0 1-.559-.56l-.401-1.132ZM2 14C2 7.373 7.373 2 14 2s12 5.373 12 12-5.373 12-12 12S2 20.627 2 14ZM14 3.5C8.201 3.5 3.5 8.201 3.5 14S8.201 24.5 14 24.5 24.5 19.799 24.5 14 19.799 3.5 14 3.5Z"/></svg>