<svg xmlns="http://www.w3.org/2000/svg" width="24" height="24"><path d="M4 6v12c0 .69.315 1.293.774 1.78.455.482 1.079.883 1.793 1.203C7.996 21.623 9.917 22 12 22c.51 0 1.012-.023 1.499-.066a4.772 4.772 0 0 1-1.623-1.434c-1.87-.015-3.527-.362-4.696-.886-.598-.268-1.036-.568-1.315-.864-.275-.29-.365-.543-.365-.75V8.392c.32.22.68.417 1.067.59C7.996 9.623 9.917 10 12 10c2.083 0 4.004-.377 5.433-1.018.386-.173.746-.37 1.067-.59V13h.75c.255 0 .506.02.75.059V6c0-.69-.315-1.293-.774-1.78-.455-.482-1.079-.883-1.793-1.202C16.004 2.377 14.083 2 12 2c-2.083 0-4.004.377-5.433 1.018-.714.32-1.338.72-1.793 1.202C4.315 4.707 4 5.31 4 6Zm1.5 0c0-.207.09-.46.365-.75.279-.296.717-.596 1.315-.864C8.375 3.851 10.08 3.5 12 3.5c1.921 0 3.625.35 4.82.886.598.268 1.036.568 1.315.864.275.29.365.543.365.75 0 .207-.09.46-.365.75-.279.296-.717.596-1.315.864-1.195.535-2.899.886-4.82.886-1.921 0-3.625-.35-4.82-.886-.598-.268-1.036-.568-1.315-.864C5.59 6.46 5.5 6.207 5.5 6ZM23 17.75A3.75 3.75 0 0 0 19.25 14l-.102.007a.75.75 0 0 0 .102 1.493l.154.005A2.25 2.25 0 0 1 19.25 20l-.003.005-.102.007a.75.75 0 0 0 .108 1.493V21.5l.2-.005A3.75 3.75 0 0 0 23 17.75Zm-6.5-3a.75.75 0 0 0-.75-.75l-.2.005a3.75 3.75 0 0 0 .2 7.495l.102-.007A.75.75 0 0 0 15.75 20l-.154-.005a2.25 2.25 0 0 1 .154-4.495l.102-.007a.75.75 0 0 0 .648-.743Zm3.5 3a.75.75 0 0 0-.75-.75h-3.5l-.102.007a.75.75 0 0 0 .102 1.493h3.5l.102-.007A.75.75 0 0 0 20 17.75Z"/></svg>