<svg xmlns="http://www.w3.org/2000/svg" width="20" height="20"><path d="M2.513 10.177a8.003 8.003 0 0 1 10.366-4.643l.57-.724a1.82 1.82 0 0 1 .08-.092A9.003 9.003 0 0 0 1.577 9.824a.5.5 0 1 0 .936.353Zm13.503-3.871a9.015 9.015 0 0 1 2.408 3.517.5.5 0 0 1-.936.354 8.006 8.006 0 0 0-1.87-2.873l.264-.662.134-.336Zm-6.015.194a6.5 6.5 0 0 1 1.897.281l-.671.856a5.503 5.503 0 0 0-6.553 3.987.5.5 0 1 1-.969-.249A6.503 6.503 0 0 1 10.001 6.5Zm5 2.346-.436 1.084c.344.51.604 1.082.762 1.695a.5.5 0 1 0 .969-.25A6.481 6.481 0 0 0 15 8.846ZM10 9l.16.003c-.288.368-.569.73-.833 1.073A3.001 3.001 0 0 0 7 13a.5.5 0 0 1-1 0 4 4 0 0 1 4-4Zm3.168 4.351-.007.017A.5.5 0 0 0 14 13c0-.424-.065-.832-.187-1.215-.23.563-.45 1.098-.644 1.566Zm.222-6.85.612-.778.232-.293.037-.042a.5.5 0 0 1 .855.371l-.036.166-.138.347a1207.076 1207.076 0 0 1-1.504 3.75 341.202 341.202 0 0 1-1.203 2.945c-.175.42-.33.786-.451 1.067a7.552 7.552 0 0 1-.277.593 1.751 1.751 0 0 1-3.033-1.75c.06-.106.202-.303.375-.538.183-.246.422-.562.699-.923a335.76 335.76 0 0 1 1.949-2.515c.693-.887 1.374-1.754 1.883-2.4Zm-1.095 3.015c-.692.886-1.393 1.789-1.943 2.507-.275.36-.511.672-.689.911a7.717 7.717 0 0 0-.313.442.751.751 0 1 0 1.3.751c.027-.044.102-.205.227-.492.119-.274.27-.634.444-1.052a342.472 342.472 0 0 0 1.549-3.801l-.575.734Zm2.83-3.757a.498.498 0 0 1-.034.166Z"/></svg>