<svg xmlns="http://www.w3.org/2000/svg" width="24" height="24" viewBox="0 0 24 24"><path d="M12 5.5a4.5 4.5 0 0 0-4.495 4.285.75.75 0 0 1-.75.715H6.5a3 3 0 1 0 0 6h2.668a1.755 1.755 0 0 0 0 1.5H6.5a4.5 4.5 0 0 1-.42-8.98 6.001 6.001 0 0 1 11.84 0 4.5 4.5 0 0 1 3.75 6.175l-1.21-1.209A3 3 0 0 0 17.5 10.5h-.256a.75.75 0 0 1-.749-.715A4.5 4.5 0 0 0 12 5.5Zm1.78 9.78a.75.75 0 1 0-1.06-1.06l-2.5 2.5a.75.75 0 0 0 0 1.06l2.5 2.5a.75.75 0 1 0 1.06-1.06L12.56 18h6.88l-1.22 1.22a.75.75 0 1 0 1.06 1.06l2.5-2.5a.75.75 0 0 0 0-1.06l-2.5-2.5a.75.75 0 1 0-1.06 1.06l1.22 1.22h-6.88l1.22-1.22Z"/></svg>