<svg xmlns="http://www.w3.org/2000/svg" width="16" height="16"><path d="M10 3.5a.5.5 0 1 1 1 0 .5.5 0 0 1-1 0Zm.5-1.5a1.5 1.5 0 0 0-1.124 2.494l-.623 1.121a2.499 2.499 0 0 0-2.132.3l-.767-.769a1.5 1.5 0 1 0-.707.707l.767.768a2.488 2.488 0 0 0-.299 2.132l-1.121.623a1.5 1.5 0 1 0 .486.874l1.122-.623a2.5 2.5 0 0 0 1.397.823V10c0-.194.014-.385.04-.572A1.5 1.5 0 1 1 8.998 6.88a4 4 0 0 1 .876-.535 2.516 2.516 0 0 0-.246-.242l.623-1.123A1.5 1.5 0 1 0 10.5 2Zm-6 2a.5.5 0 1 1 0 1 .5.5 0 0 1 0-1Zm-1 6a.5.5 0 1 1 0 1 .5.5 0 0 1 0-1Zm5 0a3 3 0 0 1 6 0v2l1.32 1.119a.5.5 0 0 1-.324.881H7.503a.5.5 0 0 1-.323-.881L8.5 12v-2Zm3 6a1.501 1.501 0 0 1-1.415-1h2.829a1.5 1.5 0 0 1-1.415 1Z"/></svg>