<svg xmlns="http://www.w3.org/2000/svg" width="24" height="24"><path d="M18.75 4A3.25 3.25 0 0 1 22 7.25v11.5A3.25 3.25 0 0 1 18.75 22H7.25A3.25 3.25 0 0 1 4 18.75v-6.248c.474.198.977.34 1.5.422v5.826c0 .208.036.408.103.594l5.823-5.701a2.25 2.25 0 0 1 3.02-.116l.128.116 5.822 5.702c.067-.186.104-.386.104-.595V7.25a1.75 1.75 0 0 0-1.75-1.75h-5.826a6.457 6.457 0 0 0-.422-1.5h6.248Zm-6.191 10.644-.084.07-5.807 5.687c.182.064.378.099.582.099h11.5c.203 0 .399-.035.58-.099l-5.805-5.686a.75.75 0 0 0-.966-.071ZM16.252 7.5a2.252 2.252 0 1 1 0 4.504 2.252 2.252 0 0 1 0-4.504ZM6.5 1a5.5 5.5 0 1 1 0 11 5.5 5.5 0 0 1 0-11Zm9.752 8a.752.752 0 1 0 0 1.504.752.752 0 0 0 0-1.504ZM6.5 3l-.09.007a.5.5 0 0 0-.402.402L6 3.5V6H3.498l-.09.008a.5.5 0 0 0-.402.402l-.008.09.008.09a.5.5 0 0 0 .402.402l.09.008H6v2.503l.008.09a.5.5 0 0 0 .402.402l.09.009.09-.009a.5.5 0 0 0 .402-.402L7 9.503V7h2.505l.09-.008a.5.5 0 0 0 .402-.402l.008-.09-.008-.09a.5.5 0 0 0-.403-.402L9.504 6H7V3.5l-.008-.09a.5.5 0 0 0-.402-.403L6.5 3Z"/></svg>