<svg xmlns="http://www.w3.org/2000/svg" width="24" height="24" viewBox="0 0 24 24"><path d="M18.25 3A2.75 2.75 0 0 1 21 5.75v12.5A2.75 2.75 0 0 1 18.25 21H5.75A2.75 2.75 0 0 1 3 18.25V5.75A2.75 2.75 0 0 1 5.75 3h12.5Zm0 1.5H5.75c-.69 0-1.25.56-1.25 1.25v12.5c0 .69.56 1.25 1.25 1.25h12.5c.69 0 1.25-.56 1.25-1.25V5.75c0-.69-.56-1.25-1.25-1.25Zm-4 7h-7.5l-.102.007A.75.75 0 0 0 6.75 13h7.5l.102-.007a.75.75 0 0 0-.102-1.493Zm-7.5 4h10.5a.75.75 0 0 1 .102 1.493L17.25 17H6.75a.75.75 0 0 1-.102-1.493l.102-.007Zm10.5-8H6.75l-.102.007A.75.75 0 0 0 6.75 9h10.5l.102-.007A.75.75 0 0 0 17.25 7.5Z"/></svg>