<svg xmlns="http://www.w3.org/2000/svg" width="20" height="20"><path d="M8.5 4.498a1.5 1.5 0 1 1 3 0 1.5 1.5 0 0 1-3 0Zm1.5-2.5a2.5 2.5 0 0 0-2.43 3.086L5.471 4.15a1.761 1.761 0 0 0-2.317.88c-.4.882-.008 1.917.877 2.31L7 8.662v2.287l-1.877 4.645a1.75 1.75 0 0 0 3.245 1.311l1.556-3.849a.073.073 0 0 1 .028-.038.086.086 0 0 1 .046-.012c.02 0 .035.005.046.012a.074.074 0 0 1 .028.038l1.555 3.849a1.75 1.75 0 0 0 3.245-1.311L13 10.96V8.662l2.968-1.322a1.74 1.74 0 0 0 .877-2.31 1.761 1.761 0 0 0-2.317-.88l-2.097.934a2.5 2.5 0 0 0-2.43-3.086ZM4.065 5.444a.761.761 0 0 1 1-.38l3.918 1.744a2.5 2.5 0 0 0 2.034 0l3.918-1.744a.761.761 0 0 1 1 .38.739.739 0 0 1-.373.983l-2.969 1.321a1 1 0 0 0-.593.914v2.298a1 1 0 0 0 .073.375l1.872 4.633a.75.75 0 0 1-1.39.562l-1.556-3.849c-.364-.9-1.639-.9-2.003 0l-1.555 3.85a.75.75 0 1 1-1.39-.562l1.876-4.646A1 1 0 0 0 8 10.95V8.662a1 1 0 0 0-.593-.914L4.438 6.427a.739.739 0 0 1-.373-.983Z"/></svg>