<svg xmlns="http://www.w3.org/2000/svg" width="20" height="20"><path d="M5.5 2a.5.5 0 0 0-.5.5v.535A3.5 3.5 0 0 0 2 6.5v.129c0 1.43.84 2.726 2.144 3.311l.856.383v5.613a2.5 2.5 0 0 1-2-2.45V12.5a.5.5 0 1 0-1 0v.985a3.5 3.5 0 0 0 3 3.464v.546a.5.5 0 0 0 1 0v-.546a3.5 3.5 0 0 0 3-3.464v-.12a3.62 3.62 0 0 0-2.14-3.304L6 9.676V4.05A2.5 2.5 0 0 1 8 6.5v1a.5.5 0 0 0 1 0v-1a3.5 3.5 0 0 0-3-3.465V2.5a.5.5 0 0 0-.5-.5ZM3 6.5a2.5 2.5 0 0 1 2-2.45v5.178l-.447-.2A2.629 2.629 0 0 1 3 6.627V6.5Zm3 9.436v-5.164l.451.202A2.62 2.62 0 0 1 8 13.366v.12a2.5 2.5 0 0 1-2 2.45ZM12 10c0-.341.02-.675.057-1H13.5a.5.5 0 1 0 0-1h-1.265c.216-.886.57-1.672 1.02-2.307C14.02 4.609 15.033 4 16.096 4c.392 0 .817.112 1.127.313a.5.5 0 1 0 .545-.838C17.273 3.153 16.652 3 16.097 3c-1.475 0-2.761.846-3.659 2.115-.568.804-.993 1.79-1.229 2.885h-.71a.5.5 0 1 0 0 1h.552A9.702 9.702 0 0 0 11 10h-.505a.5.5 0 0 0 0 1h.556c.154 1.493.65 2.843 1.387 3.885.898 1.269 2.184 2.115 3.66 2.115.54 0 1.175-.129 1.684-.478a.5.5 0 0 0-.565-.825c-.296.203-.715.303-1.12.303-1.064 0-2.076-.609-2.843-1.693-.612-.865-1.047-2.011-1.197-3.307h1.438a.5.5 0 0 0 0-1H12Z"/></svg>