<svg xmlns="http://www.w3.org/2000/svg" width="24" height="24" viewBox="0 0 24 24"><path d="M12 2C6.477 2 2 6.477 2 12s4.477 10 10 10 10-4.477 10-10S17.523 2 12 2ZM8.244 4.373l3.008 1.8v2.193l-2.791 2.028-2.044-.707-.587-3.534a8.526 8.526 0 0 1 2.414-1.78Zm-4.623 9.066 2.327-2.327 2.04.705L9.07 15.15l-.97 1.575-3.293-.194a8.448 8.448 0 0 1-1.186-3.092Zm6.909 6.934-1.184-2.809.963-1.567h3.372l.912 1.581-1.04 2.78a8.554 8.554 0 0 1-3.023.015Zm8.362-3.397-3.024-.19-.938-1.624 1.087-3.345 2.013-.696 2.312 2.52a8.459 8.459 0 0 1-1.45 3.335Zm-.72-10.82-.589 3.533-2.04.705-2.791-2.028V6.172l3.002-1.8a8.528 8.528 0 0 1 2.418 1.784Z"/></svg>