<svg xmlns="http://www.w3.org/2000/svg" width="16" height="16"><path d="M3 3a2 2 0 0 1 2-2h3.586a1.5 1.5 0 0 1 1.06.44l2.915 2.914A1.5 1.5 0 0 1 13 5.414v5.072a1.5 1.5 0 0 0-1-1.401V6H9.5A1.5 1.5 0 0 1 8 4.5V2H5a1 1 0 0 0-1 1v6a1.5 1.5 0 0 0-1 .381V3Zm6.5 2h2.293L9 2.207V4.5a.5.5 0 0 0 .5.5Zm-7 10a.5.5 0 0 0 .5-.5v-1.361l1.429-2.382a.5.5 0 1 0-.858-.515l-1.07 1.786-1.072-1.786a.5.5 0 0 0-.858.515l1.43 2.382v1.36a.5.5 0 0 0 .5.5Zm3.447-4.724A.5.5 0 0 0 5 10.5v4a.5.5 0 1 0 1 0v-1.882l1.053 2.105a.5.5 0 0 0 .894 0L9 12.618V14.5a.5.5 0 1 0 1 0v-4a.5.5 0 0 0-.947-.224L7.5 13.382l-1.553-3.106ZM12 10.5a.5.5 0 0 0-1 0v4a.5.5 0 0 0 .5.5h2a.5.5 0 1 0 0-1H12v-3.5Z"/></svg>