<svg xmlns="http://www.w3.org/2000/svg" width="24" height="24"><path d="M13.22 6.781a.75.75 0 0 1-.073-.976l.073-.085 2.367-2.37a.77.77 0 0 1 .664-.35c.252 0 .475.109.611.276l.053.075 2.367 2.37.073.084a.75.75 0 0 1 .007.882l-.08.094-.084.073a.75.75 0 0 1-.883.007l-.094-.08L17 5.56v3.784l-.007.089c-.05.32-.363.567-.743.567s-.694-.247-.743-.567l-.007-.09V5.56l-1.22 1.221-.084.073a.75.75 0 0 1-.976-.073Zm.003 10.438a.75.75 0 0 1 .976-.073l.084.073 1.22 1.221v-3.784c0-.362.336-.656.75-.656.38 0 .693.247.743.567l.007.09v3.783l1.221-1.221a.75.75 0 0 1 .977-.073l.084.073a.75.75 0 0 1 .073.976l-.073.084-2.367 2.37a.77.77 0 0 1-.664.351.77.77 0 0 1-.664-.35l-2.367-2.37a.75.75 0 0 1 0-1.061ZM6.25 3.992A2.25 2.25 0 0 0 4 6.242v11.5a2.25 2.25 0 0 0 2.25 2.25h4a.75.75 0 0 0 0-1.5h-4a.75.75 0 0 1-.75-.75v-11.5a.75.75 0 0 1 .75-.75h4a.75.75 0 0 0 0-1.5h-4Z"/></svg>