<svg xmlns="http://www.w3.org/2000/svg" width="24" height="24"><path d="M3 6.25A3.25 3.25 0 0 1 6.25 3h11.5A3.25 3.25 0 0 1 21 6.25v5.772a6.471 6.471 0 0 0-1.5-.709V6.25a1.75 1.75 0 0 0-1.75-1.75H6.25A1.75 1.75 0 0 0 4.5 6.25v11.5c0 .966.784 1.75 1.75 1.75h5.063c.173.534.412 1.037.709 1.5H6.25A3.25 3.25 0 0 1 3 17.75V6.25Zm9 11.25a5.5 5.5 0 1 0 11 0 5.5 5.5 0 0 0-11 0Zm6.646-2.146a.5.5 0 0 1 .708-.708l1.5 1.5a.5.5 0 0 1 0 .708l-1.5 1.5a.5.5 0 0 1-.708-.708l.647-.646H17.25A2.25 2.25 0 0 0 15 19.25v.25a.5.5 0 0 1-1 0v-.25A3.25 3.25 0 0 1 17.25 16h2.043l-.647-.646Z"/></svg>