<svg xmlns="http://www.w3.org/2000/svg" width="24" height="24"><path d="M19 4.491a2.5 2.5 0 0 1-3.012 2.448l-1.28 2.118c.325.298.6.649.81 1.04A5.002 5.002 0 0 0 11.502 15v.97a3.997 3.997 0 0 1-2.722-1.598l-1.794.848a2.5 2.5 0 1 1-.608-1.372l1.754-.828a4.006 4.006 0 0 1 .784-3.567l-.991-1.13a2.5 2.5 0 1 1 1.164-.948l.983 1.12A3.982 3.982 0 0 1 12 8c.505 0 .99.094 1.434.265l1.245-2.06A2.5 2.5 0 1 1 19 4.492ZM16.503 11a4 4 0 0 0-4 4v3l-.95.8c-.307.26-.46.39-.507.491a.5.5 0 0 0 .242.662c.1.047.302.047.704.047h9.02c.403 0 .604 0 .705-.047a.5.5 0 0 0 .242-.662c-.047-.101-.2-.231-.508-.49L20.503 18v-3a4 4 0 0 0-4-4Zm1.5 10c-.219.583-.808 1-1.5 1-.693 0-1.282-.417-1.5-1h3Z"/></svg>