<svg xmlns="http://www.w3.org/2000/svg" width="48" height="48"><path d="M31.75 8a3.25 3.25 0 0 1 3.245 3.066l.005.184V14h1.75c2.9 0 5.25 2.35 5.25 5.25v13.5A3.25 3.25 0 0 1 38.75 36H35v1.75A3.25 3.25 0 0 1 31.75 41h-15.5A3.25 3.25 0 0 1 13 37.75V36H9.25A3.25 3.25 0 0 1 6 32.75v-13.5C6 16.35 8.35 14 11.25 14H13v-2.75a3.25 3.25 0 0 1 3.066-3.245L16.25 8h15.5ZM15.5 37.75c0 .414.336.75.75.75h15.5a.75.75 0 0 0 .75-.75v-8.5a.75.75 0 0 0-.75-.75h-15.5a.75.75 0 0 0-.75.75v8.5ZM31.75 10.5h-15.5a.75.75 0 0 0-.743.648l-.007.102V14h17v-2.75a.75.75 0 0 0-.648-.743l-.102-.007Z"/></svg>