<svg xmlns="http://www.w3.org/2000/svg" width="20" height="20"><path d="M11.003 2.381a1.5 1.5 0 0 0-2.006 0l-5.5 4.95A1.5 1.5 0 0 0 3 8.446V15.5A1.5 1.5 0 0 0 4.5 17h11a1.5 1.5 0 0 0 1.5-1.5V8.446a1.5 1.5 0 0 0-.497-1.115l-5.5-4.95Zm-1.337.743a.5.5 0 0 1 .668 0l5.5 4.95a.5.5 0 0 1 .166.372V15.5a.5.5 0 0 1-.5.5h-11a.5.5 0 0 1-.5-.5V8.446a.5.5 0 0 1 .166-.372l5.5-4.95ZM10.5 13.5a.5.5 0 1 0-1 0v1a.5.5 0 0 0 1 0v-1ZM10 9a.5.5 0 0 1 .5.5v1a.5.5 0 0 1-1 0v-1A.5.5 0 0 1 10 9Zm.5-3.5a.5.5 0 0 0-1 0v1a.5.5 0 0 0 1 0v-1Z"/></svg>