<svg xmlns="http://www.w3.org/2000/svg" width="28" height="28" viewBox="0 0 28 28"><path d="M3.28 2.22a.75.75 0 1 0-1.06 1.06l6.265 6.266C7.155 8.907 5.615 8.5 3.75 8.5a.75.75 0 0 0 0 1.5c3.33 0 5.437 1.463 7.445 3.312.177-.17.355-.343.537-.52l.707.708C10.007 15.868 7.769 18 3.75 18a.75.75 0 0 0 0 1.5c4.68 0 7.312-2.564 9.728-4.919l.022-.02.707.707-.08.077-.4.39c1.05.974 2.189 1.906 3.546 2.6l7.446 7.445a.75.75 0 0 0 1.061-1.06L3.28 2.22Zm12.424 10.302-1.066-1.066C16.569 9.831 18.878 8.5 22.25 8.5h.19l-1.72-1.72a.75.75 0 0 1 1.06-1.06l3 3a.75.75 0 0 1 0 1.06l-3 3a.75.75 0 1 1-1.06-1.06L22.44 10h-.19c-2.839 0-4.789 1.063-6.546 2.522Zm7.917 7.917-2.498-2.498c.36.039.735.059 1.127.059h.19l-1.72-1.72a.75.75 0 1 1 1.06-1.06l3 3a.75.75 0 0 1 0 1.06l-1.159 1.16Z"/></svg>