<svg xmlns="http://www.w3.org/2000/svg" width="48" height="48" viewBox="0 0 48 48"><path d="M30.27 25c-.24 0-.49-.04-.73-.12A2.211 2.211 0 0 1 28 22.75v-2.81c-2.26-.36-4-2.33-4-4.69v-6.5C24 6.13 26.13 4 28.75 4h11.5C42.87 4 45 6.13 45 8.75v6.5c0 2.62-2.13 4.75-4.75 4.75h-5.12l-3.08 4.1c-.44.58-1.09.9-1.78.9ZM28.75 6.5c-1.24 0-2.25 1.01-2.25 2.25v6.5c0 1.24 1.01 2.25 2.25 2.25h1.75V22l3.38-4.5h6.38c1.24 0 2.25-1.01 2.25-2.25v-6.5c0-1.24-1.01-2.25-2.25-2.25H28.75ZM16 27.5c-4.14 0-7.5-3.36-7.5-7.5 0-4.14 3.36-7.5 7.5-7.5 4.14 0 7.5 3.36 7.5 7.5 0 4.14-3.36 7.5-7.5 7.5ZM16 15c-2.76 0-5 2.24-5 5s2.24 5 5 5 5-2.24 5-5-2.24-5-5-5ZM3 34.79c0 .09.15 9.21 13 9.21s13-9.12 13-9.21v-1.04c0-2.07-1.68-3.75-3.75-3.75H6.75C4.68 30 3 31.68 3 33.75v1.04Zm2.5-1.04c0-.69.56-1.25 1.25-1.25h18.5c.69 0 1.25.56 1.25 1.25v1.03c0 .27-.22 6.72-10.5 6.72S5.5 35.05 5.5 34.79v-1.04Z"/></svg>