<svg xmlns="http://www.w3.org/2000/svg" width="24" height="24"><path d="M18.268 21.001h-6.536A2 2 0 1 1 9 18.267V15l-3.27.001a2 2 0 0 1-1.582.994L4 16a2 2 0 0 1-1-3.732V5.732A2 2 0 1 1 5.732 3h6.536A2 2 0 1 1 15 5.732V9h3.268a2 2 0 0 1 1.583-.995L20 8a2 2 0 0 1 1.002 3.731v6.538A2 2 0 1 1 18.268 21h-6.536 6.536Zm0-10L15 11l.001 1.268a2 2 0 0 1 .994 1.583L16 14a2 2 0 0 1-3.732 1.001L11.001 15l.001 3.269c.303.175.555.428.73.73h6.536a2.01 2.01 0 0 1 .733-.732v-6.534a2.011 2.011 0 0 1-.639-.585l-.094-.147ZM13 11l-1.268.001a2.01 2.01 0 0 1-.73.73L11.001 13h1.267a2.01 2.01 0 0 1 .732-.732V11Zm-.732-5.999H5.732a2.01 2.01 0 0 1-.73.73v6.537c.302.176.555.429.73.732h3.269v-1.267a2 2 0 0 1-.996-1.584L8 10a2 2 0 0 1 3.732-1H13V5.732a2.01 2.01 0 0 1-.638-.584l-.094-.147Z"/></svg>