<svg xmlns="http://www.w3.org/2000/svg" width="28" height="28" viewBox="0 0 28 28"><path d="M16.5 4.814c0-1.094-1.307-1.66-2.105-.912l-4.937 4.63a1.75 1.75 0 0 1-1.197.473H5.25A3.25 3.25 0 0 0 2 12.255v3.492a3.25 3.25 0 0 0 3.25 3.25h3.012c.444 0 .872.17 1.196.473l4.937 4.626c.799.748 2.105.182 2.105-.912V4.814Zm5.16 1.43a1 1 0 0 0-1.66.751v5.036l-.359-.3a1 1 0 1 0-1.28 1.537l.877.731-.877.73a1 1 0 0 0 1.28 1.538l.36-.3V21a1 1 0 0 0 1.658.752l4-3.5a1 1 0 0 0-.018-1.52L22.363 14l3.277-2.73a1 1 0 0 0 .02-1.52l-4-3.507Zm1.8 11.274L22 18.796V16.3l1.46 1.217ZM22 9.202l1.461 1.28-1.46 1.217V9.202Z"/></svg>