<svg xmlns="http://www.w3.org/2000/svg" width="24" height="24" viewBox="0 0 24 24"><path d="M8.379 4.5c-.49 0-.935.287-1.138.733L6.183 7.56a.75.75 0 1 1-1.366-.62l1.058-2.328A2.75 2.75 0 0 1 8.38 3h7.242a2.75 2.75 0 0 1 2.504 1.612l1.058 2.326a.75.75 0 0 1-1.366.621L16.76 5.233a1.25 1.25 0 0 0-1.138-.733H8.38Zm-1.88 9a3 3 0 1 0 0 6 3 3 0 0 0 0-6Zm-4.5 3a4.5 4.5 0 0 1 8.974-.5h2.054a4.5 4.5 0 1 1 .084 1.5h-2.223A4.502 4.502 0 0 1 2 16.5Zm15.5-3a3 3 0 1 0 0 6 3 3 0 0 0 0-6ZM2.935 10.973c5.13-1.297 13.003-1.297 18.132 0a.75.75 0 1 0 .368-1.454c-5.37-1.359-13.497-1.359-18.868 0a.75.75 0 1 0 .368 1.454Z"/></svg>