<svg xmlns="http://www.w3.org/2000/svg" width="32" height="32"><path d="M20.725 5.988a1 1 0 0 1-.686-1.237l.827-2.884a1 1 0 1 1 1.922.551l-.826 2.884a1 1 0 0 1-1.237.686Zm7.982-2.695a1 1 0 0 1 0 1.414l-3 3a1 1 0 1 1-1.414-1.414l3-3a1 1 0 0 1 1.414 0Zm-7.114 19.125 4.75-2.375a3 3 0 0 0 .779-4.804l-10.36-10.36a3 3 0 0 0-4.805.78l-8.64 17.279A3 3 0 0 0 3.88 26.4l1.72 1.72a3 3 0 0 0 3.463.562l2.717-1.359a5.5 5.5 0 0 0 9.813-4.906Zm-1.798.899a3.5 3.5 0 0 1-6.218 3.109l6.218-3.11ZM27 10.002a1 1 0 0 0 0 2h3a1 1 0 1 0 0-2h-3Z"/></svg>