<svg xmlns="http://www.w3.org/2000/svg" width="16" height="16"><path d="M6.233 2.697a2.5 2.5 0 0 1 3.535 0l3.536 3.536a2.5 2.5 0 0 1 0 3.535l-3.536 3.536a2.5 2.5 0 0 1-3.535 0L2.697 9.768a2.5 2.5 0 0 1 0-3.535l3.536-3.536Zm2.828.707a1.5 1.5 0 0 0-2.121 0L3.404 6.94a1.5 1.5 0 0 0 0 2.121l3.536 3.536a1.5 1.5 0 0 0 2.121 0l3.536-3.536a1.5 1.5 0 0 0 0-2.121L9.06 3.404Zm-.914 1.243a.5.5 0 0 1 .707 0l1.5 1.5a.5.5 0 0 1 0 .707l-1.5 1.5a.5.5 0 0 1-.707-.707L8.793 7H7.5a.5.5 0 0 0-.5.5V10a.5.5 0 0 1-1 0V7.5A1.5 1.5 0 0 1 7.5 6h1.293l-.646-.646a.5.5 0 0 1 0-.707Z"/></svg>