<svg xmlns="http://www.w3.org/2000/svg" width="32" height="32" viewBox="0 0 32 32"><path d="M18.427 22.354c.543-1.177.984-2.66 1.26-4.354h-7.374c.276 1.694.717 3.177 1.26 4.354C14.591 24.56 15.593 25 16 25c.407 0 1.41-.441 2.427-2.646Zm1.176 2.042c.977-1.593 1.723-3.818 2.108-6.396h4.54a11.032 11.032 0 0 1-6.648 6.396ZM21.929 16h4.89a11.057 11.057 0 0 0 0-4h-4.89a28.131 28.131 0 0 1 0 4ZM12 14c0 .685.026 1.353.076 2h7.848a26.118 26.118 0 0 0 0-4h-7.848A25.98 25.98 0 0 0 12 14Zm-2 0c0 .68.024 1.348.07 2H5.182a11.063 11.063 0 0 1 0-4h4.89a27.84 27.84 0 0 0-.071 2Zm2.397 10.396A11.032 11.032 0 0 1 5.75 18h4.54c.384 2.578 1.13 4.803 2.107 6.396ZM19.687 10c-.276-1.694-.717-3.177-1.26-4.354C17.409 3.44 16.407 3 16 3c-.406 0-1.41.441-2.427 2.646-.543 1.177-.984 2.66-1.26 4.354h7.373Zm6.563 0h-4.54c-.384-2.578-1.13-4.803-2.107-6.396A11.032 11.032 0 0 1 26.25 10Zm-15.96 0H5.75a11.032 11.032 0 0 1 6.647-6.396C11.42 5.197 10.674 7.422 10.29 10ZM5 21h.642c.49.724 1.056 1.395 1.683 2h-1.57l-1.43 5h23.35l-1.43-5h-1.57a12.562 12.562 0 0 0 1.683-2H27a1 1 0 0 1 .962.725l2 7A1 1 0 0 1 29 30H3a1 1 0 0 1-.962-1.275l2-7A1 1 0 0 1 5 21Z"/></svg>