<svg xmlns="http://www.w3.org/2000/svg" width="20" height="20" viewBox="0 0 20 20"><path d="m14.878.282.348 1.071a2.205 2.205 0 0 0 1.399 1.397l1.071.348.021.006a.423.423 0 0 1 0 .798l-1.071.348a2.208 2.208 0 0 0-1.399 1.397l-.348 1.07a.423.423 0 0 1-.798 0l-.349-1.07a2.23 2.23 0 0 0-.532-.867 2.224 2.224 0 0 0-.866-.536l-1.071-.348a.423.423 0 0 1 0-.798l1.071-.348a2.208 2.208 0 0 0 1.377-1.397l.348-1.07a.423.423 0 0 1 .799 0Zm4.905 7.931-.766-.248a1.577 1.577 0 0 1-.998-.999l-.25-.764a.302.302 0 0 0-.57 0l-.248.764a1.576 1.576 0 0 1-.984.999l-.765.248a.303.303 0 0 0 0 .57l.765.249a1.578 1.578 0 0 1 1 1.002l.248.764a.302.302 0 0 0 .57 0l.249-.764a1.576 1.576 0 0 1 .999-.999l.765-.248a.303.303 0 0 0 0-.57l-.015-.004ZM17.502 12a1.328 1.328 0 0 1-.73-.22 7.003 7.003 0 0 1-10.195 4.328l-.087-.039-.091-.021a.502.502 0 0 0-.188.01l-3.024.754.756-3.02.014-.095a.5.5 0 0 0-.063-.272A7 7 0 0 1 10.088 3a1.417 1.417 0 0 1 .863-.847l.216-.07A8 8 0 0 0 2 10l.007.346.026.382a7.95 7.95 0 0 0 .829 2.887l.063.12-.91 3.644-.014.083v.082a.5.5 0 0 0 .62.441l3.645-.91.12.064a8.003 8.003 0 0 0 11.366-5.157 1.76 1.76 0 0 1-.25.018Z"/></svg>