<svg xmlns="http://www.w3.org/2000/svg" width="20" height="20"><path d="M10 6.5V2H5.5A1.5 1.5 0 0 0 4 3.5v13A1.5 1.5 0 0 0 5.5 18h2.721c-.21-.39-.285-.86-.164-1.347l.375-1.498a3.19 3.19 0 0 1 .84-1.485l4.83-4.83A2.86 2.86 0 0 1 16 8.004V8h-4.5A1.5 1.5 0 0 1 10 6.5Zm1 0V2.25L15.75 7H11.5a.5.5 0 0 1-.5-.5Zm6.454 3.048a1.87 1.87 0 0 0-2.645 0l-4.83 4.83a2.197 2.197 0 0 0-.577 1.02l-.375 1.498a.89.89 0 0 0 1.079 1.078l1.498-.374a2.194 2.194 0 0 0 1.02-.578l4.83-4.83a1.87 1.87 0 0 0 0-2.644Z"/></svg>