<svg xmlns="http://www.w3.org/2000/svg" width="24" height="24" viewBox="0 0 24 24"><path d="M7.75 9.25a1 1 0 1 0 0-2 1 1 0 0 0 0 2Zm3.5-1.75a.75.75 0 0 0 0 1.5h5.5a.75.75 0 0 0 0-1.5h-5.5Zm0 3.75a.75.75 0 1 0 0 1.5h3.832l.183-.367c.265-.53.672-.908 1.138-1.133H11.25Zm0 3.75h2.708l-.75 1.5H11.25a.75.75 0 1 1 0-1.5Zm-5 4.5h5.46l-.44.88a2.54 2.54 0 0 0-.216.62H6.25A3.25 3.25 0 0 1 3 17.75V6.25A3.25 3.25 0 0 1 6.25 3h11.5A3.25 3.25 0 0 1 21 6.25v8.655l-1.26-2.522a2.596 2.596 0 0 0-.24-.391V6.25a1.75 1.75 0 0 0-1.75-1.75H6.25A1.75 1.75 0 0 0 4.5 6.25v11.5c0 .966.784 1.75 1.75 1.75Zm2.5-7.5a1 1 0 1 1-2 0 1 1 0 0 1 2 0Zm-1 4.75a1 1 0 1 0 0-2 1 1 0 0 0 0 2Zm8.411-3.92c.553-1.107 2.133-1.107 2.686 0l3.997 7.998A1.5 1.5 0 0 1 21.5 23h-7.994a1.5 1.5 0 0 1-1.343-2.172l3.997-7.998Zm1.843 2.666a.5.5 0 0 0-1 0v3.001a.5.5 0 0 0 1 0v-3.001Zm-.5 5.503a.5.5 0 1 0 0-1 .5.5 0 0 0 0 1Z"/></svg>