<svg xmlns="http://www.w3.org/2000/svg" width="24" height="24" viewBox="0 0 24 24"><path d="M19.207 4.293a1 1 0 1 0-1.414 1.414l.801.802c-3.809.161-6.169 2.59-8.226 4.706l-.085.088C8.057 13.593 6.147 15.5 3 15.5a1 1 0 1 0 0 2c4.05 0 6.503-2.525 8.632-4.715l.085-.088c2.124-2.184 3.96-4.02 6.857-4.185l-.781.78a1 1 0 0 0 1.414 1.415l2.5-2.5a1 1 0 0 0 0-1.414l-2.5-2.5ZM3 6.5c3.229 0 5.443 1.605 7.287 3.366-.197.2-.388.397-.574.588l-.147.152c-.233.24-.459.47-.68.693C7.186 9.68 5.476 8.5 3 8.5a1 1 0 1 1 0-2Zm15.594 10.991c-3.01-.128-5.115-1.671-6.881-3.357.197-.2.388-.397.574-.589l.147-.151c.233-.24.459-.47.68-.693 1.601 1.524 3.21 2.66 5.46 2.787l-.781-.78a1 1 0 0 1 1.414-1.415l2.5 2.5a1 1 0 0 1 0 1.414l-2.5 2.5a1 1 0 0 1-1.414-1.414l.801-.802Z"/></svg>