<svg xmlns="http://www.w3.org/2000/svg" width="16" height="16" viewBox="0 0 16 16"><path d="M9 1v3.5A1.5 1.5 0 0 0 10.5 6H14v7.5a1.5 1.5 0 0 1-1.5 1.5H8.663a5.526 5.526 0 0 0 1.737-2h1.1a.5.5 0 0 0 0-1h-.707a5.5 5.5 0 0 0 .185-1h.522a.5.5 0 0 0 0-1h-.522a5.488 5.488 0 0 0-.185-1h.707a.5.5 0 0 0 0-1h-1.1A5.5 5.5 0 0 0 4 5.207V2.5A1.5 1.5 0 0 1 5.5 1H9Zm1 .25V4.5a.5.5 0 0 0 .5.5h3.25L10 1.25ZM5.5 15a4.5 4.5 0 1 1 0-9 4.5 4.5 0 0 1 0 9Zm-2.353-4.854-.003.003a.498.498 0 0 0-.144.348v.006a.498.498 0 0 0 .146.35l2 2a.5.5 0 0 0 .708-.707L4.707 11H7.5a.5.5 0 0 0 0-1H4.707l1.147-1.146a.5.5 0 1 0-.708-.708l-2 2Z"/></svg>