<svg xmlns="http://www.w3.org/2000/svg" width="16" height="16"><path d="M11.5 2A2.5 2.5 0 0 1 14 4.5v1.757A5.478 5.478 0 0 0 10.5 5H13v-.5A1.5 1.5 0 0 0 11.5 3h-7A1.5 1.5 0 0 0 3 4.5V5h7.5c-1.177 0-2.268.37-3.163 1H3v5.5A1.5 1.5 0 0 0 4.5 13h1.1c.183.358.404.693.657 1H4.5A2.5 2.5 0 0 1 2 11.5v-7A2.5 2.5 0 0 1 4.5 2h7ZM6 10.5a4.5 4.5 0 1 0 9 0 4.5 4.5 0 0 0-9 0Zm6.5-3a.5.5 0 0 1 .5.5v1.5a.5.5 0 0 1-.5.5H11a.5.5 0 0 1 0-1h.468a1.982 1.982 0 0 0-.933-.25 2 2 0 0 0-1.45.586.5.5 0 0 1-.706-.707A3 3 0 0 1 12 8.152V8a.5.5 0 0 1 .5-.5Zm-.876 5.532A2.999 2.999 0 0 1 9 12.848V13a.5.5 0 0 1-1 0v-1.5a.5.5 0 0 1 .5-.5H10a.5.5 0 0 1 0 1h-.468a1.99 1.99 0 0 0 .933.25 2 2 0 0 0 1.45-.586.5.5 0 0 1 .706.707c-.285.285-.624.51-.997.66Z"/></svg>