<svg xmlns="http://www.w3.org/2000/svg" width="16" height="16"><path d="M8 4.5A1.75 1.75 0 1 0 8 1a1.75 1.75 0 0 0 0 3.5ZM4.198 3.115a1.6 1.6 0 0 0-2.076.873 1.58 1.58 0 0 0 .87 2.07l1.695.685A.5.5 0 0 1 5 7.206V9.13a.5.5 0 0 1-.058.234l-1.755 3.3a1.591 1.591 0 1 0 2.81 1.495l1.783-3.353a.25.25 0 0 1 .441 0l1.783 3.353a1.591 1.591 0 1 0 2.81-1.494L11.06 9.362a.5.5 0 0 1-.06-.235v-1.92a.5.5 0 0 1 .313-.464l1.695-.685a1.58 1.58 0 0 0 .87-2.07 1.6 1.6 0 0 0-2.076-.873l-.781.316c-.256.103-.44.3-.545.518a2.75 2.75 0 0 1-4.952 0 1.046 1.046 0 0 0-.545-.518l-.78-.316Z"/></svg>