<svg xmlns="http://www.w3.org/2000/svg" width="32" height="32" viewBox="0 0 32 32"><path d="M21.488 7.511a3.485 3.485 0 0 1 .837 1.363l.548 1.682a.664.664 0 0 0 1.254 0l.548-1.682a3.466 3.466 0 0 1 2.197-2.196l1.684-.547a.665.665 0 0 0 0-1.254l-.034-.008-1.683-.547a3.47 3.47 0 0 1-2.198-2.196L24.094.444a.665.665 0 0 0-1.255 0l-.547 1.682-.014.042a3.466 3.466 0 0 1-2.15 2.154l-1.684.547a.665.665 0 0 0 0 1.254l1.684.546c.513.171.979.46 1.36.842Zm9.333 4.846.918.299.019.004a.362.362 0 0 1 0 .684l-.919.299a1.892 1.892 0 0 0-.938.688l.001.004c-.111.155-.2.327-.26.509l-.3.918a.363.363 0 0 1-.684 0l-.3-.918a1.888 1.888 0 0 0-.517-.8v-.007a1.893 1.893 0 0 0-.68-.4l-.919-.297a.362.362 0 0 1 0-.684l.919-.299a1.887 1.887 0 0 0 1.177-1.197l.114-.348h.002l.186-.57a.363.363 0 0 1 .684 0l.298.918a1.89 1.89 0 0 0 1.199 1.197ZM17.053 4.046C16.706 4.016 16.355 4 16 4 9.373 4 4 9.373 4 16s5.373 12 12 12c6.234 0 11.358-4.754 11.944-10.835a1.863 1.863 0 0 0 2.002.07C29.321 24.39 23.316 30 16 30 8.268 30 2 23.732 2 16S8.268 2 16 2c1.449 0 2.846.22 4.16.628a1.966 1.966 0 0 1-.52.272l-1.659.538c-.358.12-.677.33-.928.608ZM14 13a2 2 0 1 1-4 0 2 2 0 0 1 4 0Zm6 2a2 2 0 1 0 0-4 2 2 0 0 0 0 4ZM9.553 19.106a1 1 0 0 1 1.338.44l.003.006.034.058c.035.057.093.146.177.259.169.225.44.536.832.85C12.71 21.337 13.993 22 16 22c2.007 0 3.29-.663 4.063-1.28.393-.315.664-.626.832-.851a3.242 3.242 0 0 0 .211-.317l.004-.007a1 1 0 0 1 1.785.902v.001l-.002.002v.002l-.004.006-.008.015-.011.022-.012.02a5.275 5.275 0 0 1-.363.553 6.76 6.76 0 0 1-1.183 1.213C20.21 23.163 18.493 24 16 24c-2.493 0-4.21-.837-5.312-1.72a6.76 6.76 0 0 1-1.183-1.211 5.24 5.24 0 0 1-.386-.596l-.008-.015-.003-.006-.001-.003-.001-.002a1 1 0 0 1 .447-1.341Z"/></svg>