<svg xmlns="http://www.w3.org/2000/svg" width="16" height="16" viewBox="0 0 16 16"><path d="M4.85 6.5a.5.5 0 0 1 .5-.5h3.2a.5.5 0 0 1 .5.5v3a.5.5 0 0 1-.5.5h-3.2a.5.5 0 0 1-.5-.5v-3Zm1 2.5h2.2V7h-2.2v2ZM1.268 4.01C1.758 2.902 2.867 2 4.2 2H12c1.437 0 3 1.186 3 3 0 1.056-.59 1.951-1.004 2.407-.007.548.015 1.274.042 2.051l.008.235c.027.792.055 1.615.055 2.307 0 .64-.066 1.239-.494 1.615-.212.187-.47.278-.73.326A5 5 0 0 1 12 14H4c-.943 0-1.553-.283-1.866-.805-.248-.413-.239-.895-.235-1.127L1.9 12V7.42c-1.028-1-1.107-2.335-.632-3.41ZM4.2 3c-.867 0-1.657.599-2.017 1.414-.35.793-.265 1.72.541 2.405A.5.5 0 0 1 2.9 7.2v4.867c0 .271 0 .46.091.613.062.103.253.32 1.01.32h6c.312 0 .524-.013.675-.042.145-.028.188-.063.2-.076.013-.012.049-.053.079-.198.03-.15.045-.365.045-.684 0-.487-.004-1.026-.007-1.57A98.373 98.373 0 0 1 11 7.386a.5.5 0 0 1 .147-.34c.08-.08.156-.152.23-.222.194-.184.364-.345.519-.572.19-.28.346-.657.346-1.252 0-.656-.298-1.142-.728-1.478A2.55 2.55 0 0 0 10 3H4.2Z"/></svg>