<svg xmlns="http://www.w3.org/2000/svg" width="20" height="20"><path d="M16.73 7.563c.403.404.783.864 1.115 1.344a.75.75 0 0 1-1.235.852A7.969 7.969 0 0 0 5.061 8.031a3.004 3.004 0 0 0-2.408 2.021.749.749 0 0 1-.418-1.15c.34-.491.716-.95 1.105-1.339a9.468 9.468 0 0 1 13.39 0Zm-5.81 8.077a1.24 1.24 0 0 1-.921.363V13.52a1.242 1.242 0 0 1 .921 2.12Zm.973-2.738a2.625 2.625 0 0 0-2.088-.76A2.004 2.004 0 0 0 8.5 11.063v-.138a4.131 4.131 0 0 1 4.455.915c.363.364.662.81.87 1.283a.75.75 0 0 1-1.375.602 2.73 2.73 0 0 0-.556-.824Zm1.635-2.39a4.944 4.944 0 0 0-5.45-1.045 3.014 3.014 0 0 0-1.151-1.105 6.446 6.446 0 0 1 7.662 1.09c.473.473.88 1.045 1.192 1.653a.75.75 0 1 1-1.335.683 5.125 5.125 0 0 0-.918-1.275ZM3.5 11v1H3a1 1 0 0 0-1 1v4a1 1 0 0 0 1 1h5a1 1 0 0 0 1-1v-4a1 1 0 0 0-1-1h-.5v-1a2 2 0 1 0-4 0Zm1 1v-1a1 1 0 1 1 2 0v1h-2Zm1 2.25a.75.75 0 1 1 0 1.5.75.75 0 0 1 0-1.5Z"/></svg>