<svg xmlns="http://www.w3.org/2000/svg" width="20" height="20" viewBox="0 0 20 20"><path d="M6 3a3 3 0 0 0-3 3v8a3 3 0 0 0 3 3h7.05c.06-.29.18-.628.396-.994a5.153 5.153 0 0 1 1.048-1.231 1.5 1.5 0 0 1-1.122-2.488c.678-.775 1.531-1.233 2.452-1.283.417-.022.814.042 1.176.17V6a3 3 0 0 0-3-3H6Zm7.854 4.854-5 5a.5.5 0 0 1-.708 0l-2-2a.5.5 0 0 1 .708-.708L8.5 11.793l4.646-4.647a.5.5 0 0 1 .708.708ZM15.93 13c-.295.016-.669.163-1.054.603a.5.5 0 1 1-.752-.658c.531-.608 1.145-.91 1.752-.943a2.05 2.05 0 0 1 1.523.567c.378.362.626.878.59 1.43-.038.573-.375 1.093-.99 1.447-1.108.639-1.6 1.195-1.819 1.554h2.32a.5.5 0 1 1 0 1h-3a.5.5 0 0 1-.497-.448v-.004a.902.902 0 0 1-.003-.12c.002-.059.01-.135.029-.225.037-.182.116-.417.277-.69.322-.544.957-1.221 2.194-1.933.373-.215.478-.459.49-.646.014-.209-.08-.449-.282-.642a1.046 1.046 0 0 0-.778-.291Z"/></svg>