<svg xmlns="http://www.w3.org/2000/svg" width="24" height="24"><path d="M3.28 2.22a.75.75 0 1 0-1.06 1.06l1.25 1.25A3.247 3.247 0 0 0 2 7.25v9.5l.005.184A3.25 3.25 0 0 0 5.25 20h13.5l.184-.005 1.785 1.785a.75.75 0 0 0 1.061-1.06L3.28 2.22ZM17.44 18.5H5.25l-.144-.006A1.75 1.75 0 0 1 3.5 16.75V9.374l8.15 4.29.097.042a.75.75 0 0 0 .602-.042l.166-.088L17.44 18.5Zm-7.357-7.357L3.5 7.68v-.43l.006-.144a1.751 1.751 0 0 1 1.068-1.47l5.508 5.507ZM20.5 7.678l-6.316 3.325 1.11 1.11 5.206-2.74v7.377l-.006.143a1.73 1.73 0 0 1-.066.354l1.134 1.133A3.238 3.238 0 0 0 22 16.75v-9.5l-.005-.184A3.25 3.25 0 0 0 18.75 4H7.182l1.5 1.5H18.75l.143.006A1.75 1.75 0 0 1 20.5 7.25v.428Z"/></svg>