<svg xmlns="http://www.w3.org/2000/svg" width="28" height="28" viewBox="0 0 28 28"><path d="M10.69 11.75 2.22 3.28a.75.75 0 1 1 1.06-1.06l22.5 22.5a.75.75 0 0 1-1.06 1.06l-8.47-8.47-6.187 6.187c-.44.44-.987.76-1.587.928l-5.524 1.547a.75.75 0 0 1-.924-.924l1.547-5.525c.168-.6.487-1.146.928-1.586l6.186-6.187Zm4.5 4.5-3.44-3.44-6.187 6.187a2.126 2.126 0 0 0-.544.93l-1.187 4.241 4.24-1.187a2.13 2.13 0 0 0 .93-.544l6.187-6.187Zm-2.38-6.622 1.062 1.06L20.35 4.21a2.432 2.432 0 1 1 3.439 3.44l-6.478 6.478 1.06 1.06 3.878-3.877a1.75 1.75 0 0 1-.047 2.426L20.22 15.72a.75.75 0 1 0 1.06 1.06l1.983-1.982a3.25 3.25 0 0 0 .047-4.548l1.54-1.54a3.932 3.932 0 1 0-5.561-5.56L12.81 9.628Z"/></svg>