<svg xmlns="http://www.w3.org/2000/svg" width="20" height="20" viewBox="0 0 20 20"><path d="M5 2a2 2 0 0 0-2 2v5.6A5.5 5.5 0 0 1 9.743 18H13a2 2 0 0 0 2-2V4a2 2 0 0 0-2-2H5Zm0 3.5a.5.5 0 0 1 .5-.5h7a.5.5 0 0 1 .5.5v1a.5.5 0 0 1-.5.5h-7a.5.5 0 0 1-.5-.5v-1ZM16 6h.5a.5.5 0 0 1 .5.5V8a.5.5 0 0 1-.5.5H16V6Zm.5 3.5H16V12h.5a.5.5 0 0 0 .5-.5V10a.5.5 0 0 0-.5-.5ZM16 13h.5a.5.5 0 0 1 .5.5V15a.5.5 0 0 1-.5.5H16V13Zm-6 1.5a4.5 4.5 0 1 1-9 0 4.5 4.5 0 0 1 9 0Zm-4.5 1.88a.625.625 0 1 0 0 1.25.625.625 0 0 0 0-1.25Zm0-4.877c-1.048 0-1.864.818-1.853 1.955a.5.5 0 1 0 1-.01c-.006-.579.36-.945.853-.945.472 0 .853.392.853.95 0 .202-.07.315-.36.544l-.277.215C5.21 14.616 5 14.929 5 15.5a.5.5 0 0 0 .992.09l.011-.156c.017-.148.1-.254.346-.448l.277-.215c.513-.41.727-.732.727-1.318 0-1.104-.822-1.95-1.853-1.95Z"/></svg>