<svg xmlns="http://www.w3.org/2000/svg" width="16" height="16" viewBox="0 0 16 16"><path d="M4 4.5a1.5 1.5 0 1 1 3 0 1.5 1.5 0 0 1-3 0ZM5.5 2a2.5 2.5 0 1 0 0 5 2.5 2.5 0 0 0 0-5Zm5 3a1 1 0 1 1 2 0 1 1 0 0 1-2 0Zm0 1h2c.234 0 .46.032.676.092a2 2 0 1 0-3.351 0c.214-.06.44-.092.675-.092ZM8 8h.05a2.523 2.523 0 0 0-.008.042A2.5 2.5 0 0 0 6.5 9H3a.5.5 0 0 0-.5.5v.097l.004.048a1.853 1.853 0 0 0 .338.857c.326.449 1.036.998 2.658.998.177 0 .344-.007.5-.019v1.003a7.41 7.41 0 0 1-.5.016c-1.878 0-2.918-.654-3.467-1.409a2.853 2.853 0 0 1-.523-1.342 1.908 1.908 0 0 1-.01-.137V9.5A1.5 1.5 0 0 1 3 8h5Zm1 1v-.5A1.5 1.5 0 0 1 10.5 7h2A1.5 1.5 0 0 1 14 8.5V9h.5a1.5 1.5 0 0 1 1.5 1.5V12h-2v-.5a.5.5 0 0 0-1 0v.5h-3v-.5a.5.5 0 0 0-1 0v.5H7v-1.5A1.5 1.5 0 0 1 8.5 9H9Zm1-.5V9h3v-.5a.5.5 0 0 0-.5-.5h-2a.5.5 0 0 0-.5.5Zm4 4.5h2v1.5a1.5 1.5 0 0 1-1.5 1.5h-6A1.5 1.5 0 0 1 7 14.5V13h2v.5a.5.5 0 0 0 1 0V13h3v.5a.5.5 0 0 0 1 0V13Z"/></svg>