<svg xmlns="http://www.w3.org/2000/svg" width="24" height="24" viewBox="0 0 24 24"><path d="M3.75 2H8v5H6.25A3.25 3.25 0 0 1 3 3.75v-1A.75.75 0 0 1 3.75 2ZM9.5 2h5v5h-5V2Zm11.5.75a.75.75 0 0 0-.75-.75H16v5h1.75A3.25 3.25 0 0 0 21 3.75v-1ZM20.25 22a.75.75 0 0 0 .75-.75v-1A3.25 3.25 0 0 0 17.75 17H16v5h4.25ZM9.5 22h5v-5h-5v5Zm-5.75 0H8v-5H6.25A3.25 3.25 0 0 0 3 20.25v1c0 .414.336.75.75.75Zm11.773-9.25h5.727a.75.75 0 0 0 0-1.5h-5.727a1.826 1.826 0 0 1-.072.076l-.674.674.674.674.072.076Zm-6.796 0c.023-.026.047-.051.072-.076L9.473 12l-.674-.674a1.845 1.845 0 0 1-.072-.076H2.75a.75.75 0 0 0 0 1.5h5.977Zm5.803 1.78a.75.75 0 0 1-1.06 0L12 13.06l-1.47 1.47a.75.75 0 1 1-1.06-1.06L10.94 12l-1.47-1.47a.75.75 0 1 1 1.06-1.06L12 10.94l1.47-1.47a.75.75 0 1 1 1.06 1.06L13.06 12l1.47 1.47a.75.75 0 0 1 0 1.06Z"/></svg>