<svg xmlns="http://www.w3.org/2000/svg" width="48" height="48" viewBox="0 0 48 48"><path d="m41.759 25.64.364-.64C45.99 18.304 43.696 9.742 37 5.876 30.303 2.01 21.741 4.304 17.875 11l-.126.218a1.512 1.512 0 0 0 .523 2.052l9.722 5.874-5.386 8.918c-4.71.415-8.735 2.915-10.9 6.452a3.25 3.25 0 0 1 2.464.814C16.144 32.492 19.704 30.5 24 30.5c4.297 0 7.858 1.993 9.83 4.83a3.25 3.25 0 0 1 2.462-.817c-2.145-3.504-6.116-5.99-10.771-6.44l4.612-7.636 9.531 5.758a1.51 1.51 0 0 0 2.094-.554Zm-5.06 11.074a1.25 1.25 0 0 0-.676-.213h-.049a1.253 1.253 0 0 0-1.16.854l-.001.003C34.77 37.474 33.517 41 30 41c-3.52 0-4.765-3.5-4.814-3.646a1.25 1.25 0 0 0-2.372 0l-.001.003C22.77 37.474 21.517 41 18 41c-3.52 0-4.765-3.5-4.81-3.646a1.244 1.244 0 0 0-.444-.611 1.25 1.25 0 0 0-.715-.243h-.022a1.25 1.25 0 0 0-1.173.805c-.017.045-1.738 4.445-5.582 4.445a1.25 1.25 0 0 0 0 2.5A8.201 8.201 0 0 0 12 40.35a7.3 7.3 0 0 0 12 .006 7.3 7.3 0 0 0 12-.006 8.2 8.2 0 0 0 6.75 3.9 1.25 1.25 0 1 0 0-2.5c-2.48 0-4.088-1.863-4.914-3.177v-.002a8.536 8.536 0 0 1-.667-1.266 1.25 1.25 0 0 0-.47-.592Z"/></svg>