<svg xmlns="http://www.w3.org/2000/svg" width="16" height="16" viewBox="0 0 16 16"><path d="M2 10V4a2 2 0 0 1 2-2h1.75a.5.5 0 0 1 .312.11L7.175 3H12a2 2 0 0 1 2 2v1.257a5.507 5.507 0 0 0-1-.657V5a1 1 0 0 0-1-1H7.593L6.086 5.37a.5.5 0 0 1-.336.13H3V10a1 1 0 0 0 1 1h1.022a5.5 5.5 0 0 0 .185 1H4a2 2 0 0 1-2-2Zm2-7a1 1 0 0 0-1 1v.5h2.557l.886-.805L5.575 3H4Zm7.357 10.975c.335-.737.578-1.776.632-2.975H9.01c.054 1.2.296 2.238.631 2.975.422.928.8 1.025.858 1.025.057 0 .435-.097.857-1.025Zm-2.47.727A4.504 4.504 0 0 1 6.027 11H8.01c.06 1.482.389 2.794.877 3.702ZM6.027 10H8.01c.06-1.482.389-2.794.877-3.702A4.504 4.504 0 0 0 6.027 10ZM10.5 6c-.057 0-.436.097-.858 1.025-.335.737-.577 1.776-.631 2.975h2.978c-.054-1.2-.297-2.238-.632-2.975C10.935 6.097 10.557 6 10.5 6Zm1.613.298A4.504 4.504 0 0 1 14.973 10H12.99c-.061-1.482-.389-2.794-.877-3.702ZM14.973 11a4.504 4.504 0 0 1-2.86 3.702c.488-.908.816-2.22.877-3.702h1.982Z"/></svg>