<svg xmlns="http://www.w3.org/2000/svg" width="20" height="20" viewBox="0 0 20 20"><path d="M3 6a3 3 0 0 1 3-3h8a3 3 0 0 1 3 3v8a3 3 0 0 1-3 3H6a3 3 0 0 1-3-3V6Zm7.25 1.5a.75.75 0 0 0-.75.75v5a.25.25 0 0 1-.25.25h-1a.75.75 0 0 0 0 1.5h1A1.75 1.75 0 0 0 11 13.25v-5a.75.75 0 0 0-.75-.75Zm1.25 1.75v1c0 .966.784 1.75 1.75 1.75h.5a.25.25 0 0 1 .25.25v1a.25.25 0 0 1-.25.25h-1.5a.75.75 0 0 0 0 1.5h1.5a1.75 1.75 0 0 0 1.75-1.75v-1a1.75 1.75 0 0 0-1.75-1.75h-.5a.25.25 0 0 1-.25-.25v-1a.25.25 0 0 1 .25-.25h1.5a.75.75 0 0 0 0-1.5h-1.5a1.75 1.75 0 0 0-1.75 1.75Z"/></svg>