<svg xmlns="http://www.w3.org/2000/svg" width="48" height="48" viewBox="0 0 48 48"><path d="M24 4c11.046 0 20 8.954 20 20s-8.954 20-20 20S4 35.046 4 24 12.954 4 24 4Zm0 2.5C14.335 6.5 6.5 14.335 6.5 24S14.335 41.5 24 41.5 41.5 33.665 41.5 24 33.665 6.5 24 6.5Zm.25 25.5a1.5 1.5 0 1 1 0 3 1.5 1.5 0 0 1 0-3Zm0-19c3.365 0 6.25 2.882 6.25 6.249.002 2.12-.769 3.47-2.678 5.528l-1.015 1.087c-1.023 1.139-1.428 1.861-1.466 2.715l-.003.162-.006.128-.018.124a1.25 1.25 0 0 1-2.476-.234c-.013-1.789.677-3.012 2.308-4.785l1.027-1.098c1.358-1.492 1.828-2.373 1.827-3.626 0-1.987-1.765-3.75-3.75-3.75-1.92 0-3.636 1.654-3.744 3.559l-.012.319A1.25 1.25 0 0 1 18 19.25c0-3.365 2.886-6.25 6.25-6.25Z"/></svg>