<svg xmlns="http://www.w3.org/2000/svg" width="16" height="16" viewBox="0 0 16 16"><path d="m13.798 2.217-.015-.004-.765-.248a1.578 1.578 0 0 1-1-.999L11.77.202a.302.302 0 0 0-.57 0l-.25.764a1.576 1.576 0 0 1-.983.999l-.765.248a.302.302 0 0 0 0 .57l.765.249a1.582 1.582 0 0 1 1 1.002l.248.764A.302.302 0 0 0 11.5 5h.004a.302.302 0 0 0 .281-.202l.249-.764a1.576 1.576 0 0 1 .999-.999l.765-.248a.303.303 0 0 0 0-.57Zm1.416 3.355.612.199.013.003a.242.242 0 0 1 0 .455l-.613.2a1.262 1.262 0 0 0-.799.798l-.199.612a.241.241 0 0 1-.456 0l-.2-.612a1.261 1.261 0 0 0-.798-.802l-.613-.199a.242.242 0 0 1 0-.455l.613-.2a1.261 1.261 0 0 0 .787-.798l.199-.612a.242.242 0 0 1 .456 0l.199.612a1.26 1.26 0 0 0 .799.799ZM8 2.5c0-.173.035-.343.1-.5h-.85a.75.75 0 0 0 0 1.5h1.22a1.31 1.31 0 0 1-.47-1ZM4.75 2a.75.75 0 0 1 0 1.5c-.69 0-1.25.56-1.25 1.25a.75.75 0 0 1-1.5 0A2.75 2.75 0 0 1 4.75 2Zm8.5 8.5a.75.75 0 0 1 .75.75A2.75 2.75 0 0 1 11.25 14a.75.75 0 0 1 0-1.5c.69 0 1.25-.56 1.25-1.25a.75.75 0 0 1 .75-.75ZM6.5 13.25a.75.75 0 0 1 .75-.75h1.5a.75.75 0 0 1 0 1.5h-1.5a.75.75 0 0 1-.75-.75Zm-1.75-.75a.75.75 0 0 1 0 1.5A2.75 2.75 0 0 1 2 11.25a.75.75 0 0 1 1.5 0c0 .69.56 1.25 1.25 1.25Zm-2-3a.75.75 0 0 0 .75-.75v-1.5a.75.75 0 0 0-1.5 0v1.5c0 .414.336.75.75.75Z"/></svg>