<svg xmlns="http://www.w3.org/2000/svg" width="28" height="28" viewBox="0 0 28 28"><path d="M17.614 7.207a2 2 0 0 1 1.772 0l4.5 2.224A2 2 0 0 1 25 11.224v5.553a2 2 0 0 1-1.114 1.793l-4.5 2.224a2 2 0 0 1-1.772 0l-4.5-2.224A2 2 0 0 1 12 16.777v-5.553a2 2 0 0 1 1.114-1.793l4.5-2.224Zm-2.522 4.685a.75.75 0 0 0 .299 1.017l2.36 1.287v3.055a.75.75 0 0 0 1.5 0v-3.055l2.358-1.287a.75.75 0 0 0-.718-1.317l-2.39 1.304-2.392-1.304a.75.75 0 0 0-1.017.3ZM4.75 8.5a.75.75 0 1 0 0 1.5h5a.75.75 0 0 0 0-1.5h-5Zm-2 4.5a.75.75 0 0 0 0 1.5h5a.75.75 0 0 0 0-1.5h-5ZM4 18.25a.75.75 0 0 1 .75-.75h5a.75.75 0 0 1 0 1.5h-5a.75.75 0 0 1-.75-.75Z"/></svg>