<svg xmlns="http://www.w3.org/2000/svg" width="48" height="48" viewBox="0 0 48 48"><path d="M13.045 16C13.55 10.393 18.262 6 24 6s10.45 4.393 10.955 10h.295a7.75 7.75 0 0 1 7.7 8.633 13.076 13.076 0 0 0-2.675-2.408A5.252 5.252 0 0 0 35.25 18.5h-1.5c-.69 0-1.25-.56-1.25-1.25V17a8.5 8.5 0 0 0-17 0v.25c0 .69-.56 1.25-1.25 1.25h-1.5a5.25 5.25 0 1 0 0 10.5h7.877c-.26.802-.442 1.638-.541 2.5H12.75a7.75 7.75 0 0 1 0-15.5h.295ZM44 33c0 6.075-4.925 11-11 11s-11-4.925-11-11 4.925-11 11-11 11 4.925 11 11Zm-5.293-4.293a1 1 0 0 0-1.414-1.414L33 31.586l-4.293-4.293a1 1 0 0 0-1.414 1.414L31.586 33l-4.293 4.293a1 1 0 0 0 1.414 1.414L33 34.414l4.293 4.293a1 1 0 0 0 1.414-1.414L34.414 33l4.293-4.293Z"/></svg>