<svg xmlns="http://www.w3.org/2000/svg" width="24" height="24"><path d="M6.75 22a.75.75 0 0 1-.102-1.493l.102-.007h1.749v-2.498H4.25a2.25 2.25 0 0 1-2.245-2.096L2 15.752V5.25a2.25 2.25 0 0 1 2.096-2.245L4.25 3h15.499a2.25 2.25 0 0 1 2.245 2.096l.005.154v8.669a2.75 2.75 0 0 0-2.749-2.669h-3.5A2.75 2.75 0 0 0 13 14v.05a2.5 2.5 0 0 0-2 2.45v1.502H9.998l.001 2.498H11v1c0 .172.017.339.05.5h-4.3ZM14 15h-.5a1.5 1.5 0 0 0-1.5 1.5V18h2.5v-.25a.75.75 0 0 1 1.5 0V18h3v-.25a.75.75 0 0 1 1.5 0V18H23v-1.5a1.5 1.5 0 0 0-1.5-1.5H21v-1a1.75 1.75 0 0 0-1.75-1.75h-3.5A1.75 1.75 0 0 0 14 14v1Zm1.5-1a.25.25 0 0 1 .25-.25h3.5a.25.25 0 0 1 .25.25v1h-4v-1ZM12 21.5v-2h2.5v.75a.75.75 0 0 0 1.5 0v-.75h3v.75a.75.75 0 0 0 1.5 0v-.75H23v2a1.5 1.5 0 0 1-1.5 1.5h-8a1.5 1.5 0 0 1-1.5-1.5Z"/></svg>