<svg xmlns="http://www.w3.org/2000/svg" width="48" height="48"><path d="M22 4c-5.523 0-10 4.477-10 10s4.477 10 10 10 10-4.477 10-10S27.523 4 22 4ZM10.25 28A4.25 4.25 0 0 0 6 32.249V33c0 3.755 1.942 6.567 4.92 8.38C13.85 43.163 17.786 44 22 44c1.172 0 2.322-.065 3.435-.196A12.953 12.953 0 0 1 22 35c0-2.577.75-4.98 2.044-7H10.25ZM24 35c0 6.075 4.925 11 11 11s11-4.925 11-11-4.925-11-11-11-11 4.925-11 11Zm8.647-7.093A7 7 0 0 1 40 29.601V29a1 1 0 1 1 2 0v3a1 1 0 0 1-1 1h-3a1 1 0 1 1 0-2h.57a5 5 0 0 0-7.106-.035 1 1 0 0 1-1.414-1.415 7 7 0 0 1 2.597-1.643Zm4.706 14.186A7 7 0 0 1 30 40.399V41a1 1 0 1 1-2 0v-3a1 1 0 0 1 1-1h3a1 1 0 1 1 0 2h-.57a4.996 4.996 0 0 0 5.25 1.21 5 5 0 0 0 1.856-1.175 1 1 0 0 1 1.414 1.415 7 7 0 0 1-2.597 1.643Z"/></svg>