<svg xmlns="http://www.w3.org/2000/svg" width="28" height="28" viewBox="0 0 28 28"><path d="M13.111 2.293a1.5 1.5 0 0 1 1.78 0l9.498 7.005c1.124.83.598 2.578-.74 2.7H4.353c-1.339-.122-1.864-1.87-.74-2.7l9.498-7.005Zm.89 6.706a1.5 1.5 0 1 0 0-3 1.5 1.5 0 0 0 0 3Zm5.5 4H22v5h-2.5v-5Zm-6.5 9.75a4.73 4.73 0 0 1 .877-2.75H6.252a3.25 3.25 0 0 0-3.25 3.25v.5c0 .415.336.75.75.75h9.582A4.738 4.738 0 0 1 13 22.75Zm2-3.873a4.725 4.725 0 0 1 2.5-.87v-5.007H15v5.877Zm-2 .123v-6h-2.5v6h2.5Zm-4.5-6v6h-2.5v-6h2.5Zm9.25 7.5a2.25 2.25 0 0 0 0 4.5h.5a.75.75 0 0 1 0 1.501h-.5a3.75 3.75 0 0 1 0-7.5h.5a.75.75 0 0 1 0 1.5h-.5ZM17 22.75a.75.75 0 0 1 .75-.75h5.5a.75.75 0 0 1 0 1.5h-5.5a.75.75 0 0 1-.75-.75ZM23.25 25a2.25 2.25 0 0 0 0-4.5h-.5a.75.75 0 0 1 0-1.5h.5a3.75 3.75 0 0 1 0 7.501h-.5a.75.75 0 0 1 0-1.5h.5Z"/></svg>