<svg xmlns="http://www.w3.org/2000/svg" width="32" height="32" viewBox="0 0 32 32"><path d="M3 7.5A4.5 4.5 0 0 1 7.5 3h17A4.5 4.5 0 0 1 29 7.5V16a5.017 5.017 0 0 0-2-1.584V7.5A2.5 2.5 0 0 0 24.5 5h-17A2.5 2.5 0 0 0 5 7.5v17A2.5 2.5 0 0 0 7.5 27h10.031c.078.695.302 1.375.68 2H7.5A4.5 4.5 0 0 1 3 24.5v-17Zm18.43 15a4.998 4.998 0 0 1-1.201-2H15a1 1 0 1 0 0 2h6.43ZM22 15a5.017 5.017 0 0 0-1.584 2H15a1 1 0 1 1 0-2h7Zm-10-4.5a1.5 1.5 0 1 1-3 0 1.5 1.5 0 0 1 3 0Zm0 5.5a1.5 1.5 0 1 1-3 0 1.5 1.5 0 0 1 3 0Zm0 5.5a1.5 1.5 0 1 1-3 0 1.5 1.5 0 0 1 3 0Zm2-11a1 1 0 0 1 1-1h7a1 1 0 1 1 0 2h-7a1 1 0 0 1-1-1ZM28.5 19a3.5 3.5 0 1 1-7 0 3.5 3.5 0 0 1 7 0Zm2.5 7.438c0 2.023-1.714 4.062-6 4.062s-6-2.031-6-4.063C19 25.102 20.082 24 21.417 24h7.166C29.918 24 31 25.102 31 26.438Z"/></svg>