<svg xmlns="http://www.w3.org/2000/svg" width="24" height="24"><path d="M6.75 6.5A2.25 2.25 0 0 0 4.5 8.75v6.5a2.25 2.25 0 0 0 2.25 2.25h6.5a2.25 2.25 0 0 0 2.25-2.25v-.725l3.386 1.88A.75.75 0 0 0 20 15.75V8.255a.75.75 0 0 0-1.114-.656L15.5 9.477V8.75a2.25 2.25 0 0 0-2.25-2.25h-6.5Zm8.75 4.692 3-1.664v4.947l-3-1.666v-1.617ZM14 8.75v6.5a.75.75 0 0 1-.75.75h-6.5a.75.75 0 0 1-.75-.75v-6.5A.75.75 0 0 1 6.75 8h6.5a.75.75 0 0 1 .75.75ZM6.416 20.922h.002l.003.002.008.004.024.011.084.039c.07.031.172.075.303.126.26.102.637.235 1.117.367.961.265 2.34.527 4.042.529a15.15 15.15 0 0 0 4.045-.525c.48-.133.857-.268 1.118-.37a6.894 6.894 0 0 0 .387-.167c.337-.162.544-.68.371-1.025a.75.75 0 0 0-1.006-.333l-.01.004-.054.025c-.05.023-.131.058-.239.1a9.663 9.663 0 0 1-.967.32A13.66 13.66 0 0 1 12 20.5a13.875 13.875 0 0 1-3.646-.475 9.794 9.794 0 0 1-.968-.318 5.753 5.753 0 0 1-.294-.124l-.01-.005a.75.75 0 0 0-.667 1.344Zm1.54-18.398c.962-.267 2.342-.53 4.045-.528 1.702.003 3.082.265 4.043.53.48.134.857.267 1.117.37a7.19 7.19 0 0 1 .387.165l.025.012.008.004.002.001h.001s.597.35.337 1.007a.75.75 0 0 1-1.004.337h-.002l-.01-.005a5.648 5.648 0 0 0-.293-.125 9.777 9.777 0 0 0-.968-.32A13.823 13.823 0 0 0 12 3.497a13.604 13.604 0 0 0-3.642.473 9.638 9.638 0 0 0-.967.32 5.591 5.591 0 0 0-.293.126l-.01.005a.75.75 0 1 1-.675-1.34h.003l.002-.002.008-.004.025-.012.084-.039c.07-.032.173-.076.303-.128.26-.103.638-.238 1.119-.371Zm-.87 1.896Z"/></svg>