<svg xmlns="http://www.w3.org/2000/svg" width="28" height="28" viewBox="0 0 28 28"><path d="M20.9 10.07a.75.75 0 0 0 0-1.06L18.992 7.1a.75.75 0 0 0-1.06 1.06l1.909 1.91a.75.75 0 0 0 1.06 0Zm-10.182 9.122a.75.75 0 1 1-1.06 1.06l-1.91-1.909a.75.75 0 0 1 1.06-1.06l1.91 1.909ZM24.758 3.27a2.199 2.199 0 0 0-3.11 0l-.898.898-.367-.367a2.772 2.772 0 0 0-4.23.366 3.247 3.247 0 0 0-3.059.862l-.225.224a3.25 3.25 0 0 0 0 4.597l1.1 1.099-3.019 3.018-1.099-1.099a3.25 3.25 0 0 0-4.596 0l-.225.225a3.247 3.247 0 0 0-.861 3.06 2.772 2.772 0 0 0-.366 4.23l.366.365-.923.924a2.199 2.199 0 0 0 3.11 3.11l.923-.924.367.367a2.773 2.773 0 0 0 4.229-.366 3.247 3.247 0 0 0 3.06-.862l.224-.225a3.25 3.25 0 0 0 0-4.596l-1.099-1.1 3.018-3.018 1.1 1.1a3.25 3.25 0 0 0 4.596 0l.224-.225a3.247 3.247 0 0 0 .862-3.06 2.773 2.773 0 0 0 .366-4.23l-.366-.366.897-.897a2.199 2.199 0 0 0 0-3.11Zm-11.76 12.747-.988-.988 3.018-3.018.989.988-3.019 3.018Zm-6.78 6.781-.924.924a.699.699 0 0 1-.989-.988l.924-.924.988.988Zm16.58-16.58-.988-.989.897-.897a.699.699 0 1 1 .989.988l-.898.898Zm-5.276-1.356a1.273 1.273 0 0 1 1.8 0l3.843 3.844a1.272 1.272 0 0 1-.478 2.1.75.75 0 0 0-.423 1.045c.33.656.22 1.476-.327 2.022l-.225.225a1.75 1.75 0 0 1-2.475 0L13.93 8.79a1.75 1.75 0 0 1 0-2.475l.225-.225a1.751 1.751 0 0 1 2.022-.327.75.75 0 0 0 1.044-.423c.061-.173.161-.337.302-.478ZM8.79 13.93l5.309 5.308a1.75 1.75 0 0 1 0 2.475l-.225.224a1.751 1.751 0 0 1-2.023.328.75.75 0 0 0-1.044.422 1.272 1.272 0 0 1-2.1.478l-3.844-3.843a1.273 1.273 0 0 1 .478-2.101.75.75 0 0 0 .422-1.044 1.751 1.751 0 0 1 .328-2.023l.225-.224a1.75 1.75 0 0 1 2.474 0Z"/></svg>