<svg xmlns="http://www.w3.org/2000/svg" width="24" height="24" viewBox="0 0 24 24"><path d="M13 9.125v1.625h.75a.625.625 0 1 1 0 1.25H12.5a.615.615 0 0 1-.063-.003.625.625 0 0 1-.688-.622v-2.25a.625.625 0 1 1 1.251 0Zm-.625-3.12a4.75 4.75 0 1 0 0 9.5 4.75 4.75 0 0 0 0-9.5Zm-3.5 4.75a3.5 3.5 0 1 1 7 0 3.5 3.5 0 0 1-7 0ZM6.5 2A2.5 2.5 0 0 0 4 4.5v15A2.5 2.5 0 0 0 6.5 22h13.25a.75.75 0 0 0 0-1.5H6.5a1 1 0 0 1-1-1h14.25a.75.75 0 0 0 .75-.75V4.5A2.5 2.5 0 0 0 18 2H6.5ZM19 18H5.5V4.5a1 1 0 0 1 1-1H18a1 1 0 0 1 1 1V18Z"/></svg>