<svg xmlns="http://www.w3.org/2000/svg" width="12" height="12" viewBox="0 0 12 12"><path d="M2.5 6A1.5 1.5 0 0 1 1 4.5v-2A1.5 1.5 0 0 1 2.5 1h3A1.5 1.5 0 0 1 7 2.5v2A1.5 1.5 0 0 1 5.5 6h-3ZM2 4.5a.5.5 0 0 0 .5.5h3a.5.5 0 0 0 .5-.5v-2a.5.5 0 0 0-.5-.5h-3a.5.5 0 0 0-.5.5v2ZM6.5 11A1.5 1.5 0 0 1 5 9.5v-1A1.5 1.5 0 0 1 6.5 7h3A1.5 1.5 0 0 1 11 8.5v1A1.5 1.5 0 0 1 9.5 11h-3ZM6 9.5a.5.5 0 0 0 .5.5h3a.5.5 0 0 0 .5-.5v-1a.5.5 0 0 0-.5-.5h-3a.5.5 0 0 0-.5.5v1Zm2-5a1.5 1.5 0 1 0 3 0v-2a1.5 1.5 0 0 0-3 0v2Zm1.5.5a.5.5 0 0 1-.5-.5v-2a.5.5 0 0 1 1 0v2a.5.5 0 0 1-.5.5Zm-7 6A1.5 1.5 0 0 1 1 9.5v-1a1.5 1.5 0 1 1 3 0v1A1.5 1.5 0 0 1 2.5 11ZM2 9.5a.5.5 0 0 0 1 0v-1a.5.5 0 0 0-1 0v1Z"/></svg>