<svg xmlns="http://www.w3.org/2000/svg" width="16" height="16"><path d="m6.378 1.07-.156-.032a2.661 2.661 0 0 0-2.408.821C2.594 3.19 2 5.242 2 8.002c0 2.755.592 4.805 1.808 6.135a2.662 2.662 0 0 0 2.577.791l.577-.137a1.927 1.927 0 0 0 1.48-2.067l-.125-1.222a1.93 1.93 0 0 0-1.495-1.68l-1.25-.286-.028-.01-.034-.064a1.405 1.405 0 0 1-.082-.21c-.086-.28-.133-.7-.133-1.25 0-.745.087-1.244.226-1.469a.176.176 0 0 1 .11-.08l1.19-.271A1.93 1.93 0 0 0 8.318 4.5l.125-1.228a1.927 1.927 0 0 0-1.487-2.068l-.577-.134ZM3.06 8.002c0-2.522.523-4.33 1.538-5.436.36-.393.894-.578 1.418-.497l.121.023.576.134c.432.1.721.503.677.94l-.126 1.228a.878.878 0 0 1-.68.764l-1.19.273a1.235 1.235 0 0 0-.776.555c-.265.43-.38 1.093-.38 2.016 0 1.404.261 2.254.966 2.517l.096.03 1.285.296a.878.878 0 0 1 .68.764l.125 1.222a.876.876 0 0 1-.673.94l-.577.136a1.597 1.597 0 0 1-1.546-.475C3.581 12.325 3.06 10.52 3.06 8.002Zm8.795-3.856a.5.5 0 0 0-.708.708L13.293 7H8.5a.5.5 0 0 0 0 1h4.793l-2.147 2.146a.5.5 0 0 0 .708.708l3-3a.5.5 0 0 0 0-.708l-3-3Z"/></svg>