<svg xmlns="http://www.w3.org/2000/svg" width="32" height="32"><path d="M10 11a4 4 0 1 0 0-8 4 4 0 0 0 0 8Zm-8 4.5A2.5 2.5 0 0 1 4.5 13h6.375a5.488 5.488 0 0 0-.375 2c0 1.86.923 3.505 2.337 4.5H10.5a4 4 0 0 0-3.547 2.15c-1.916-.493-3.142-1.452-3.899-2.54C2 17.595 2 16.026 2 15.75v-.25Zm23.047 6.15c1.916-.493 3.142-1.452 3.899-2.54C30 17.595 30 16.025 30 15.75v-.25a2.5 2.5 0 0 0-2.5-2.5h-6.375c.242.62.375 1.294.375 2 0 1.86-.923 3.505-2.337 4.5H21.5a4 4 0 0 1 3.547 2.15ZM26 7a4 4 0 1 1-8 0 4 4 0 0 1 8 0ZM8 23.5a2.5 2.5 0 0 1 2.5-2.5h11a2.5 2.5 0 0 1 2.5 2.5v.25c0 .275 0 1.845-1.054 3.36C21.846 28.691 19.756 30 16 30c-3.755 0-5.846-1.309-6.946-2.89C8 25.595 8 24.026 8 23.75v-.25Zm8-4.5a4 4 0 1 0 0-8 4 4 0 0 0 0 8Z"/></svg>