<svg xmlns="http://www.w3.org/2000/svg" width="32" height="32" viewBox="0 0 32 32"><path d="M5.376 7.113A4.25 4.25 0 0 1 9.47 4h13.06a4.25 4.25 0 0 1 4.095 3.113l3.22 11.588C30.584 21.365 28.581 24 25.816 24H14.501v-9.5a4 4 0 0 0-4-4H4.434l.942-3.387ZM14.47 28h9.532a1 1 0 1 0 0-2h-9.5v1.5c0 .17-.011.336-.032.5ZM4.5 14a.5.5 0 0 0-.5.5v13a.5.5 0 0 0 .5.5h6a.5.5 0 0 0 .5-.5v-13a.5.5 0 0 0-.5-.5h-6Zm-2.5.5A2.5 2.5 0 0 1 4.5 12h6a2.5 2.5 0 0 1 2.5 2.5v13a2.5 2.5 0 0 1-2.5 2.5h-6A2.5 2.5 0 0 1 2 27.5v-13ZM7.5 20a2 2 0 1 0 0-4 2 2 0 0 0 0 4Z"/></svg>