<svg xmlns="http://www.w3.org/2000/svg" width="24" height="24" viewBox="0 0 24 24"><path d="M10.53 15.47a.75.75 0 0 1 0 1.06l-2 2a2.164 2.164 0 0 1-3.054.007.75.75 0 1 1 1.054-1.067c.259.26.68.26.939 0l2-2a.75.75 0 0 1 1.06 0Zm2.772-11.945a5.071 5.071 0 1 1 7.172 7.172l-9.778 9.778a5.071 5.071 0 0 1-7.172-7.172l9.778-9.778Zm6.111 1.061a3.571 3.571 0 0 0-5.05 0l-4.359 4.359 5.05 5.05 4.36-4.359a3.571 3.571 0 0 0 0-5.05Zm-5.419 10.47-5.05-5.05-4.359 4.358a3.571 3.571 0 1 0 5.05 5.05l4.36-4.358Z"/></svg>