<svg xmlns="http://www.w3.org/2000/svg" width="20" height="20"><path d="M6 12.917A7 7 0 0 1 12.917 6 6.002 6.002 0 0 0 1 7a6.002 6.002 0 0 0 5 5.917Zm3.354-8.27a.5.5 0 0 1 0 .707l-3 3a.5.5 0 0 1-.708 0l-1.5-1.5a.5.5 0 1 1 .708-.708L6 7.293l2.646-2.647a.5.5 0 0 1 .708 0ZM13 19a6 6 0 1 0 0-12 6 6 0 0 0 0 12Zm-1.646-8.354L13 12.293l1.646-1.647a.5.5 0 0 1 .708.708L13.707 13l1.647 1.646a.5.5 0 0 1-.708.708L13 13.707l-1.646 1.647a.5.5 0 0 1-.708-.708L12.293 13l-1.647-1.646a.5.5 0 0 1 .708-.708Z"/></svg>