<svg xmlns="http://www.w3.org/2000/svg" width="24" height="24"><path d="M13.75 2A2.25 2.25 0 0 1 16 4.25v5.769A6.5 6.5 0 0 0 10.175 18H8.75a.75.75 0 0 0-.102 1.493l.102.007 1.983.001a6.53 6.53 0 0 0 2.303 2.5L6.25 22A2.25 2.25 0 0 1 4 19.75V4.25A2.25 2.25 0 0 1 6.25 2h7.5Zm2.75 9a5.5 5.5 0 1 1 0 11 5.5 5.5 0 0 1 0-11Zm.216 2.589-.07.057-.057.07a.5.5 0 0 0 0 .568l.057.07 1.646 1.645-4.798.001-.09.008a.5.5 0 0 0-.402.402l-.008.09.008.09a.5.5 0 0 0 .402.402l.09.008 4.8-.001-1.648 1.647-.057.07a.5.5 0 0 0 .695.695l.07-.057 2.53-2.533.036-.05.042-.08.026-.083.01-.064v-.088l-.01-.064-.026-.083-.041-.08-.038-.05-2.53-2.533-.069-.057a.5.5 0 0 0-.492-.044l-.076.044Z"/></svg>