<svg xmlns="http://www.w3.org/2000/svg" width="48" height="48" viewBox="0 0 48 48"><path d="M24.865 4.348a1.25 1.25 0 0 0-1.73 0c-2.759 2.643-6.685 4.077-10.037 4.84-1.66.376-3.139.58-4.202.69A29.035 29.035 0 0 1 7.242 10H7.22A1.25 1.25 0 0 0 6 11.25v9.5c0 4.837 1.243 9.658 4.098 13.775 2.861 4.126 7.29 7.469 13.529 9.418.243.076.503.076.746 0C36.94 40.016 42 30.497 42 21v-9.75A1.25 1.25 0 0 0 40.78 10h-.022l-.08-.003a29.03 29.03 0 0 1-1.574-.12 35.655 35.655 0 0 1-4.202-.69c-3.353-.762-7.279-2.196-10.037-4.84Z"/></svg>