<svg xmlns="http://www.w3.org/2000/svg" width="16" height="16"><path d="M4.5 2A2.5 2.5 0 0 0 2 4.5v1a.5.5 0 0 0 1 0v-1A1.5 1.5 0 0 1 4.5 3h1a.5.5 0 0 0 0-1h-1Zm6 0a.5.5 0 0 0 0 1h1A1.5 1.5 0 0 1 13 4.5v1a.5.5 0 0 0 1 0v-1A2.5 2.5 0 0 0 11.5 2h-1ZM3 10.5a.5.5 0 0 0-1 0v1A2.5 2.5 0 0 0 4.5 14h1a.5.5 0 0 0 0-1h-1A1.5 1.5 0 0 1 3 11.5v-1Zm11 0a.5.5 0 0 0-1 0v1a1.5 1.5 0 0 1-1.5 1.5h-1a.5.5 0 0 0 0 1h1a2.5 2.5 0 0 0 2.5-2.5v-1ZM4.5 10V7.385a1 1 0 0 1 1-1h.75l.58-.92A1 1 0 0 1 7.677 5h.648a1 1 0 0 1 .845.466l.581.919h.75a1 1 0 0 1 1 1V10a1 1 0 0 1-1 1h-5a1 1 0 0 1-1-1ZM8 9.5a1 1 0 1 0 0-2 1 1 0 0 0 0 2Z"/></svg>