<svg xmlns="http://www.w3.org/2000/svg" width="32" height="32"><path d="M2 16C2 8.268 8.268 2 16 2s14 6.268 14 14-6.268 14-14 14S2 23.732 2 16Zm15.56-7.848a1 1 0 1 0 .388-1.962 10 10 0 0 0-10.24 15.4 1 1 0 1 0 1.657-1.118 8 8 0 0 1 8.196-12.32Zm5.676 2.403a1 1 0 0 0-.35 1.37 8.004 8.004 0 0 1-.24 8.534 1 1 0 1 0 1.661 1.113 10.005 10.005 0 0 0 .3-10.666 1 1 0 0 0-1.37-.351Zm-2.244-2.502-1.056.842c-.638.507-1.494 1.192-2.368 1.9-.874.708-1.77 1.437-2.485 2.037-.357.3-.673.568-.92.786a6.891 6.891 0 0 0-.563.538 2.463 2.463 0 0 0 3.745 3.2 6.63 6.63 0 0 0 .443-.64c.176-.278.393-.632.632-1.032.48-.8 1.061-1.798 1.623-2.773.562-.975 1.108-1.927 1.508-2.636l.484-.853.182-.322a.82.82 0 0 0-1.225-1.047Z"/></svg>