<svg xmlns="http://www.w3.org/2000/svg" width="24" height="24" viewBox="0 0 24 24"><path d="M4.999 18A1.5 1.5 0 1 0 2 18a1.5 1.5 0 0 0 2.999 0Zm7.02-1H7.5l-.116.007A1 1 0 0 0 7.5 19h4.674a6.52 6.52 0 0 1-.155-2Zm1.79-4H7.5a1 1 0 0 1-.116-1.993L7.5 11h11a6.48 6.48 0 0 0-4.69 2ZM5 12a1.5 1.5 0 1 0-3 0 1.5 1.5 0 0 0 2.999 0Zm0-5.993a1.5 1.5 0 1 0-2.999 0 1.5 1.5 0 0 0 2.999 0Zm16.004-1.006H7.5l-.116.007A1 1 0 0 0 7.5 7h13.503l.117-.007A1 1 0 0 0 21.003 5ZM24 17.5a5.5 5.5 0 1 0-11 0 5.5 5.5 0 0 0 11 0Zm-5 .5.001 2.503a.5.5 0 1 1-1 0V18h-2.505a.5.5 0 0 1 0-1H18v-2.5a.5.5 0 1 1 1 0V17h2.497a.5.5 0 0 1 0 1H19Z"/></svg>