<svg xmlns="http://www.w3.org/2000/svg" width="20" height="20" viewBox="0 0 20 20"><path d="M19 5.5a4.5 4.5 0 1 1-9 0 4.5 4.5 0 0 1 9 0Zm-2.646-1.146a.5.5 0 0 0-.708-.708L14.5 4.793l-1.146-1.147a.5.5 0 0 0-.708.708L13.793 5.5l-1.147 1.146a.5.5 0 0 0 .708.708L14.5 6.207l1.146 1.147a.5.5 0 0 0 .708-.708L15.207 5.5l1.147-1.146ZM14.5 11c1.33 0 2.55-.472 3.5-1.257V14.5a2.5 2.5 0 0 1-2.5 2.5h-11A2.5 2.5 0 0 1 2 14.5V7.373l7.747 4.558a.5.5 0 0 0 .507 0l2.23-1.312A5.486 5.486 0 0 0 14.5 11Zm-10-7h4.707a5.496 5.496 0 0 0 2.235 6.072L10 10.92 2.015 6.223A2.5 2.5 0 0 1 4.5 4Z"/></svg>