<svg xmlns="http://www.w3.org/2000/svg" width="16" height="16" viewBox="0 0 16 16"><path d="M7.5 3.5A.5.5 0 0 1 8 3c.663 0 1.283.326 1.729.771.445.446.771 1.066.771 1.729a.5.5 0 0 1-1 0c0-.337-.174-.717-.479-1.021C8.717 4.174 8.337 4 8 4a.5.5 0 0 1-.5-.5Zm1 7.458c1.016-.172 1.949-.847 2.64-1.714.812-1.016 1.36-2.374 1.36-3.744C12.5 3.266 10.816 1 8 1S3.5 3.266 3.5 5.5c0 1.37.548 2.728 1.36 3.744.691.867 1.624 1.542 2.64 1.714V11a2 2 0 0 0 2 2H11a1 1 0 0 1 1 1v.5a.5.5 0 0 0 1 0V14a2 2 0 0 0-2-2H9.5a1 1 0 0 1-1-1v-.042ZM8 2c2.184 0 3.5 1.734 3.5 3.5 0 1.115-.452 2.257-1.14 3.12C9.662 9.492 8.792 10 8 10c-.793 0-1.663-.508-2.36-1.38C4.953 7.757 4.5 6.615 4.5 5.5 4.5 3.734 5.816 2 8 2Z"/></svg>