<svg xmlns="http://www.w3.org/2000/svg" width="20" height="20" viewBox="0 0 20 20"><path d="M4.877 3.604c.386-.44.759-.587 1.054-.603.302-.016.58.102.778.292.202.193.296.433.282.642-.012.187-.117.43-.49.646-1.237.712-1.872 1.389-2.194 1.934-.16.272-.24.507-.277.689-.019.09-.027.166-.029.225a.816.816 0 0 0 .003.122v.002a.5.5 0 0 0 .497.448h3a.5.5 0 0 0 0-1H5.18c.219-.359.71-.915 1.819-1.554.615-.354.952-.874.99-1.447.036-.552-.212-1.068-.59-1.43a2.046 2.046 0 0 0-1.523-.567c-.607.032-1.22.335-1.752.943a.5.5 0 1 0 .752.658Zm-2.114-1.53A.5.5 0 0 1 3 2.5v5a.5.5 0 0 1-1 0V3.309l-.778.388a.5.5 0 0 1-.447-.894l1.502-.75a.5.5 0 0 1 .486.022ZM11.035 3c-.33 0-.746.142-1.163.605a.5.5 0 1 1-.743-.67C9.712 2.29 10.389 2 11.036 2c.634 0 1.202.28 1.562.7.361.419.542 1.024.275 1.612a1.715 1.715 0 0 1-.59.688c.27.19.469.421.59.69.267.587.086 1.193-.275 1.613-.36.419-.928.699-1.563.699-.647 0-1.324-.29-1.907-.938a.5.5 0 1 1 .744-.669c.417.464.834.607 1.163.607.342 0 .634-.153.805-.351.17-.198.192-.395.123-.549-.077-.169-.336-.446-1.074-.615a.5.5 0 0 1 0-.975c.738-.168.997-.445 1.074-.613.07-.153.047-.35-.123-.548A1.07 1.07 0 0 0 11.035 3ZM2 14.5V8.914a1.497 1.497 0 0 0 1.5-.296c.267.239.619.383 1.001.383h3a1.5 1.5 0 0 0 1.341-.828c.657.545 1.416.829 2.194.829.926 0 1.77-.408 2.32-1.047.55-.64.893-1.654.428-2.679A2.51 2.51 0 0 0 13.638 5H16.5A1.5 1.5 0 0 1 18 6.5v8a1.5 1.5 0 0 1-1.5 1.5h-13A1.5 1.5 0 0 1 2 14.5ZM5.5 13a.5.5 0 0 0 0 1h9a.5.5 0 0 0 0-1h-9Zm8.25-4.748a.752.752 0 1 0 1.505 0 .752.752 0 0 0-1.505 0Zm-7.505 2.5a.752.752 0 1 0 1.505 0 .752.752 0 0 0-1.505 0Zm3.757.753a.752.752 0 1 0 0-1.505.752.752 0 0 0 0 1.505Zm2.253-.753a.752.752 0 1 0 1.505 0 .752.752 0 0 0-1.505 0Z"/></svg>