<svg xmlns="http://www.w3.org/2000/svg" width="32" height="32" viewBox="0 0 32 32"><path d="M4.5 4.252v3.422c2.95-3.16 7.172-4.737 11.518-4.672 5.942.088 10.698 3.268 13.784 8.074a1.25 1.25 0 1 1-2.104 1.35c-2.713-4.225-6.751-6.85-11.717-6.925-4.013-.06-7.768 1.503-10.192 4.5H9.75a1.25 1.25 0 1 1 0 2.5h-6.5c-.69 0-1.25-.56-1.25-1.25v-7a1.25 1.25 0 0 1 2.5 0Zm7.986 10.847c.463.196.764.65.764 1.152V27.5a1.25 1.25 0 0 1-2.5 0v-8.47a23.25 23.25 0 0 1-1.607 1.043 1.25 1.25 0 0 1-1.286-2.144c1.046-.628 1.633-1.054 2.056-1.411.31-.262.531-.483.81-.761.12-.12.251-.252.405-.401a1.25 1.25 0 0 1 1.358-.257Zm4.463 2.2C17.787 15.882 19.18 15 21.1 15c1.923 0 3.314.88 4.152 2.298.781 1.322 1.035 3.023 1.035 4.701 0 1.68-.254 3.38-1.035 4.702C24.414 28.12 23.022 29 21.1 29c-1.922 0-3.313-.88-4.15-2.298-.782-1.322-1.036-3.023-1.036-4.702 0-1.678.254-3.38 1.035-4.701Zm2.152 1.272c-.448.759-.687 1.933-.687 3.43 0 1.496.239 2.67.687 3.43.393.663.97 1.07 2 1.07s1.606-.407 1.999-1.07c.448-.76.687-1.934.687-3.43 0-1.497-.239-2.671-.687-3.43-.393-.664-.97-1.07-2-1.07s-1.607.406-1.999 1.07Z"/></svg>