<svg xmlns="http://www.w3.org/2000/svg" width="24" height="24"><path d="M6.25 3A3.25 3.25 0 0 0 3 6.25v5.772A6.47 6.47 0 0 1 6.5 11c1.748 0 3.334.69 4.502 1.812A.793.793 0 0 1 11 12.75v-6a.75.75 0 0 1 1.5 0V12h3.75a.75.75 0 0 1 0 1.5h-4.5a.75.75 0 0 1-.136-.012A6.472 6.472 0 0 1 13 17.5a6.47 6.47 0 0 1-1.022 3.5h5.772A3.25 3.25 0 0 0 21 17.75V6.25A3.25 3.25 0 0 0 17.75 3H6.25ZM12 17.5a5.5 5.5 0 1 0-11 0 5.5 5.5 0 0 0 11 0ZM7 18l.001 2.503a.5.5 0 1 1-1 0V18H3.496a.5.5 0 1 1 0-1H6v-2.5a.5.5 0 1 1 1 0V17h2.503a.5.5 0 0 1 0 1H7.001Z"/></svg>