<svg xmlns="http://www.w3.org/2000/svg" width="24" height="24"><path d="M11 17.5c0 1.096.271 2.129.75 3.035v.715a.75.75 0 0 1-1.493.102l-.007-.102v-2.268a6.75 6.75 0 0 1-6.246-6.496L4 12.25v-.5a.75.75 0 0 1 1.493-.102l.007.102v.5a5.25 5.25 0 0 0 5.034 5.246l.216.004H11Zm.175-1.504A6.513 6.513 0 0 1 15 11.498V6a4 4 0 0 0-8 0v6a4 4 0 0 0 4.175 3.996ZM23 17.5a5.5 5.5 0 1 0-11 0 5.5 5.5 0 0 0 11 0Zm-6.985-3a.5.5 0 0 1 .46.342l1.053 3.16 1.004-2.678a.5.5 0 0 1 .915-.048L20.31 17H21a.5.5 0 0 1 0 1h-1a.5.5 0 0 1-.447-.276l-.487-.975-1.098 2.927a.5.5 0 0 1-.942-.018l-1.069-3.205-.493 1.233A.5.5 0 0 1 15 18h-1a.5.5 0 0 1 0-1h.662l.874-2.186a.5.5 0 0 1 .479-.314Z"/></svg>