<svg xmlns="http://www.w3.org/2000/svg" width="24" height="24" viewBox="0 0 24 24"><path d="M4.5 2.75c0 .414.336.75.75.75h13a.75.75 0 0 0 0-1.5h-13a.75.75 0 0 0-.75.75Zm0 18.5c0 .414.336.75.75.75h.867a.75.75 0 0 0 0-1.5H5.25a.75.75 0 0 0-.75.75Zm3.467 0c0 .414.335.75.75.75h1.733a.75.75 0 0 0 0-1.5H8.717a.75.75 0 0 0-.75.75Zm4.333 0c0 .414.336.75.75.75h1.733a.75.75 0 0 0 0-1.5H13.05a.75.75 0 0 0-.75.75Zm4.333 0c0 .414.336.75.75.75h.867a.75.75 0 0 0 0-1.5h-.867a.75.75 0 0 0-.75.75Zm-4.353-2.47a.75.75 0 0 1-1.06 0l-5-5a.75.75 0 1 1 1.06-1.06L11 16.44V5.75a.75.75 0 0 1 1.5 0v10.69l3.72-3.72a.75.75 0 1 1 1.06 1.06l-5 5Z"/></svg>