<svg xmlns="http://www.w3.org/2000/svg" width="24" height="24"><path d="M10.788 3.102c.495-1.003 1.926-1.003 2.421 0l2.358 4.778 5.273.766c1.107.16 1.549 1.522.748 2.303l-.905.882a6.462 6.462 0 0 0-1.517-.616l1.157-1.128-5.05-.734a1.35 1.35 0 0 1-1.016-.739L11.998 4.04 9.74 8.614a1.35 1.35 0 0 1-1.016.739l-5.05.734 3.654 3.562c.318.31.463.757.388 1.195l-.862 5.029 4.149-2.181c.015.542.098 1.067.238 1.569l-3.958 2.081c-.99.52-2.148-.32-1.96-1.423l.901-5.251-3.815-3.72c-.801-.78-.359-2.141.748-2.302L8.43 7.88l2.358-4.778Zm3.49 10.873a2 2 0 0 1-1.441 2.496l-.584.145a5.729 5.729 0 0 0 .006 1.807l.54.13a2 2 0 0 1 1.45 2.51l-.187.631c.44.386.94.7 1.484.922l.494-.519a2 2 0 0 1 2.899 0l.498.525a5.276 5.276 0 0 0 1.483-.912l-.198-.686a2 2 0 0 1 1.441-2.497l.584-.144a5.718 5.718 0 0 0-.006-1.807l-.54-.13a2 2 0 0 1-1.45-2.51l.187-.631a5.278 5.278 0 0 0-1.484-.922l-.493.518a2 2 0 0 1-2.9 0l-.498-.525c-.544.22-1.044.53-1.483.913l.198.686Zm3.222 5.024c-.8 0-1.45-.671-1.45-1.5 0-.828.65-1.5 1.45-1.5.8 0 1.45.672 1.45 1.5 0 .829-.65 1.5-1.45 1.5Z"/></svg>