<svg xmlns="http://www.w3.org/2000/svg" width="16" height="16"><path d="M5 1a.5.5 0 0 1 .5.5V2h2v-.5a.5.5 0 0 1 1 0V2h2v-.5a.5.5 0 0 1 1 0V2A1.5 1.5 0 0 1 13 3.5v2.536a2.549 2.549 0 0 0-1.37.712L10.289 8.09A.498.498 0 0 0 10 8H6a.5.5 0 0 0 0 1h3.379l-2.037 2.036c-.125.125-.24.259-.346.4A.5.5 0 0 0 6.5 11H6a.5.5 0 0 0 0 1h.5a.498.498 0 0 0 .157-.025 3.778 3.778 0 0 0-.308.816l-.303 1.211a1.59 1.59 0 0 0 .07.998H4.5A1.5 1.5 0 0 1 3 13.5v-10A1.5 1.5 0 0 1 4.5 2v-.5A.5.5 0 0 1 5 1Zm.5 4.5A.5.5 0 0 0 6 6h4a.5.5 0 0 0 0-1H6a.5.5 0 0 0-.5.5Zm6.838 1.955a1.56 1.56 0 0 1 2.207 2.207l-4.289 4.288a2.777 2.777 0 0 1-1.29.731l-1.211.303a.61.61 0 0 1-.74-.74l.304-1.21c.122-.489.374-.935.73-1.29l4.289-4.289Z"/></svg>