<svg xmlns="http://www.w3.org/2000/svg" width="16" height="16"><path d="M1 5a2.5 2.5 0 0 1 2.5-2.5h5A2.5 2.5 0 0 1 11 5v6a2.5 2.5 0 0 1-1.832 2.41A5.5 5.5 0 0 0 1 6.257V5Zm11 .892 2.184-1.781a.5.5 0 0 1 .816.387v7a.5.5 0 0 1-.816.388L12 10.107V5.892ZM8.243 13A4.484 4.484 0 0 0 9 10.5a4.5 4.5 0 1 0-8.436 2.182l-.545 1.789a.41.41 0 0 0 .51.51l1.79-.544A4.48 4.48 0 0 0 4.5 15c1.56 0 2.936-.794 3.743-2Zm-5.742-1a.5.5 0 0 1-.001-1h2a.5.5 0 0 1 0 1h-2ZM2 9.5a.5.5 0 0 1 .5-.5h4a.5.5 0 0 1 0 1h-4a.5.5 0 0 1-.5-.5Z"/></svg>