<svg xmlns="http://www.w3.org/2000/svg" width="24" height="24"><path d="M12 2c.714 0 1.419.075 2.106.222a.75.75 0 0 1 .374 1.263 2.501 2.501 0 0 0 1.206 4.201.75.75 0 0 1 .577.811 2.5 2.5 0 0 0 4.36 1.908.75.75 0 0 1 1.307.409c.047.39.07.787.07 1.186 0 5.523-4.477 10-10 10S2 17.523 2 12 6.477 2 12 2Zm0 1.5a8.5 8.5 0 1 0 8.466 9.265l.019-.257.007-.157-.194.088c-.33.139-.68.233-1.043.28l-.274.024-.231.007a4.001 4.001 0 0 1-3.956-3.402l-.025-.201-.014-.187-.145-.06a4.004 4.004 0 0 1-2.338-3.234l-.017-.216-.005-.2c0-.447.074-.882.214-1.292l.091-.243.085-.19-.276-.017L12 3.5ZM15 16a1 1 0 1 1 0 2 1 1 0 0 1 0-2Zm-7-1a1 1 0 1 1 0 2 1 1 0 0 1 0-2Zm4-4a1 1 0 1 1 0 2 1 1 0 0 1 0-2ZM7 8a1 1 0 1 1 0 2 1 1 0 0 1 0-2Z"/></svg>