<svg xmlns="http://www.w3.org/2000/svg" width="16" height="16"><path d="M5 1a.5.5 0 0 1 .5.5V2h2v-.5a.5.5 0 0 1 1 0V2h2v-.5a.5.5 0 0 1 1 0V2A1.5 1.5 0 0 1 13 3.5V10H9.5A1.5 1.5 0 0 0 8 11.5V15H4.5A1.5 1.5 0 0 1 3 13.5v-10A1.5 1.5 0 0 1 4.5 2v-.5A.5.5 0 0 1 5 1Zm.5 4.5A.5.5 0 0 0 6 6h4a.5.5 0 0 0 0-1H6a.5.5 0 0 0-.5.5Zm0 3A.5.5 0 0 0 6 9h4a.5.5 0 0 0 0-1H6a.5.5 0 0 0-.5.5Zm0 3a.5.5 0 0 0 .5.5h.5a.5.5 0 0 0 0-1H6a.5.5 0 0 0-.5.5ZM9 14.69c.051-.04.1-.083.146-.13l3.415-3.414a1.47 1.47 0 0 0 .128-.146H9.5a.5.5 0 0 0-.5.5v3.19Z"/></svg>