<svg xmlns="http://www.w3.org/2000/svg" width="28" height="28"><path d="M17.72 11.53a.75.75 0 1 1 1.06-1.06l3 3a.75.75 0 0 1 0 1.06l-3 3a.75.75 0 1 1-1.06-1.06l1.72-1.72h-5.69a.75.75 0 0 1 0-1.5h5.69l-1.72-1.72ZM26 7.75A3.75 3.75 0 0 0 22.25 4H5.755a3.75 3.75 0 0 0-3.75 3.75v12.5A3.75 3.75 0 0 0 5.754 24H22.25A3.75 3.75 0 0 0 26 20.25V7.75ZM22.25 5.5a2.25 2.25 0 0 1 2.25 2.25v12.5a2.25 2.25 0 0 1-2.25 2.25H11.005v-17H22.25Zm-12.745 0v17H5.754a2.25 2.25 0 0 1-2.25-2.25V7.75a2.25 2.25 0 0 1 2.25-2.25h3.75Z"/></svg>