<svg xmlns="http://www.w3.org/2000/svg" width="24" height="24"><path d="M14.356 2.595a.25.25 0 0 1 .361-.032l.921.812L12.739 7h1.921l2.106-2.632 1.652 1.457a.25.25 0 0 1 .026.348l-.69.827h1.944a1.75 1.75 0 0 0-.288-2.3l-3.7-3.263a1.75 1.75 0 0 0-2.531.23L8.976 7h1.91l3.47-4.405ZM5.25 6.5a.75.75 0 0 0 0 1.5h13a3.25 3.25 0 0 1 3.25 3.25v6.5A3.25 3.25 0 0 1 18.25 21h-12A3.25 3.25 0 0 1 3 17.75V7.25A2.25 2.25 0 0 1 5.25 5h4.32L8.378 6.5H5.25Zm10.25 8.25c0 .414.336.75.75.75h2a.75.75 0 0 0 0-1.5h-2a.75.75 0 0 0-.75.75Z"/></svg>