<svg xmlns="http://www.w3.org/2000/svg" width="20" height="20" viewBox="0 0 20 20"><path d="M4 16V4a2 2 0 0 1 2-2h8a2 2 0 0 1 2 2v11a1 1 0 0 1-1 1H5a1 1 0 0 0 1 1h9.5a.5.5 0 0 1 0 1H6a2 2 0 0 1-2-2ZM15 4a1 1 0 0 0-1-1H6a1 1 0 0 0-1 1v11h10V4Zm-4.546 1.29a.5.5 0 0 0-.907 0l-.822 1.77-1.937.234a.5.5 0 0 0-.28.863l1.429 1.328L7.56 11.4a.5.5 0 0 0 .734.533L10 10.985l1.706.948a.5.5 0 0 0 .733-.533l-.375-1.915 1.43-1.328a.5.5 0 0 0-.281-.863l-1.937-.235-.822-1.77Zm-.94 2.443L10 6.687l.486 1.046a.5.5 0 0 0 .393.286l1.145.138-.845.785a.5.5 0 0 0-.15.463l.222 1.131-1.008-.56a.5.5 0 0 0-.486 0l-1.007.56.221-1.131a.5.5 0 0 0-.15-.463l-.844-.785L9.12 8.02a.5.5 0 0 0 .394-.286Z"/></svg>