<svg xmlns="http://www.w3.org/2000/svg" width="12" height="12" viewBox="0 0 12 12"><path d="M12 3.5a3.5 3.5 0 1 0-7 0 3.5 3.5 0 0 0 7 0Zm-1.646-1.354a.5.5 0 0 1 0 .708l-2 2a.5.5 0 0 1-.708 0l-1-1a.5.5 0 1 1 .708-.708L8 3.793l1.646-1.647a.5.5 0 0 1 .708 0ZM3 2h1.256c.126-.356.295-.691.502-1H3a2 2 0 0 0-2 2v4a2 2 0 0 0 2 2v1.5a.5.5 0 0 0 .777.416L6.651 9H9a2 2 0 0 0 1.984-1.747 4.475 4.475 0 0 1-1.557.651A.996.996 0 0 1 9 8H6.5a.5.5 0 0 0-.277.084L4 9.566V8.5a.5.5 0 0 0-.5-.5H3a1 1 0 0 1-1-1V3a1 1 0 0 1 1-1Z"/></svg>