<svg xmlns="http://www.w3.org/2000/svg" width="24" height="24"><path d="M4 6.5c0-.69.315-1.293.774-1.78.455-.482 1.079-.883 1.793-1.202C7.996 2.877 9.917 2.5 12 2.5c2.083 0 4.004.377 5.433 1.018.714.32 1.338.72 1.793 1.202.459.487.774 1.09.774 1.78v5.337a3.486 3.486 0 0 0-1.5-.337V8.892c-.32.22-.68.417-1.067.59-1.429.641-3.35 1.018-5.433 1.018-2.083 0-4.004-.377-5.433-1.018a6.801 6.801 0 0 1-1.067-.59V18.5c0 .207.09.46.365.75.279.296.717.596 1.315.864 1.195.535 2.9.886 4.82.886.357 0 .706-.012 1.046-.035.08.508.267 1.005.567 1.458-.522.05-1.062.077-1.613.077-2.083 0-4.004-.377-5.433-1.017-.714-.32-1.338-.72-1.793-1.203C4.315 19.793 4 19.19 4 18.5v-12Zm1.5 0c0 .207.09.46.365.75.279.296.717.596 1.315.864C8.375 8.649 10.08 9 12 9c1.921 0 3.625-.35 4.82-.886.598-.269 1.036-.568 1.315-.864.275-.29.365-.543.365-.75 0-.207-.09-.46-.365-.75-.279-.296-.717-.596-1.315-.864C15.625 4.351 13.92 4 12 4c-1.921 0-3.625.35-4.82.886-.598.268-1.036.568-1.315.864-.275.29-.365.543-.365.75ZM21 15a2.5 2.5 0 1 1-5 0 2.5 2.5 0 0 1 5 0Zm2 5.375c0 1.556-1.286 3.125-4.5 3.125S14 21.937 14 20.375v-.103c0-.98.794-1.772 1.773-1.772h5.454c.98 0 1.773.793 1.773 1.772v.103Z"/></svg>