<svg xmlns="http://www.w3.org/2000/svg" width="28" height="28" viewBox="0 0 28 28"><path d="M3 6.75A3.75 3.75 0 0 1 6.75 3h3.501a.75.75 0 0 1 0 1.5H6.75A2.25 2.25 0 0 0 4.5 6.75v3.5a.75.75 0 0 1-1.5 0v-3.5Zm14-3a.75.75 0 0 1 .75-.75h3.5A3.75 3.75 0 0 1 25 6.75v3.5a.75.75 0 0 1-1.5 0v-3.5a2.25 2.25 0 0 0-2.25-2.25h-3.5a.75.75 0 0 1-.75-.75ZM3.75 17a.75.75 0 0 1 .75.75v3.5a2.25 2.25 0 0 0 2.25 2.25h3.5a.75.75 0 0 1 0 1.5h-3.5A3.75 3.75 0 0 1 3 21.25v-3.5a.75.75 0 0 1 .75-.75Zm20.5 0a.75.75 0 0 1 .75.75v3.5A3.75 3.75 0 0 1 21.25 25h-3.5a.75.75 0 0 1 0-1.5h3.5a2.25 2.25 0 0 0 2.25-2.25v-3.5a.75.75 0 0 1 .75-.75ZM14 16a2 2 0 1 0 0-4 2 2 0 0 0 0 4Zm-1.382-8a1.5 1.5 0 0 0-1.342.83L10.691 10H10a2 2 0 0 0-2 2v5a2 2 0 0 0 2 2h8a2 2 0 0 0 2-2v-5a2 2 0 0 0-2-2h-.691l-.585-1.17A1.5 1.5 0 0 0 15.382 8h-2.764ZM14 11a3 3 0 1 1 0 6 3 3 0 0 1 0-6Z"/></svg>