<svg xmlns="http://www.w3.org/2000/svg" width="28" height="28" viewBox="0 0 28 28"><path d="M12.75 2a.75.75 0 0 0 0 1.5h5.75v2.805c0 1.75-1.749 3.195-3.75 3.195a.75.75 0 0 0 0 1.5C17.314 11 20 9.126 20 6.305V2.75a.75.75 0 0 0-.75-.75h-6.5Zm-2.057 5.463a.75.75 0 0 0-1.386 0l-7.25 17.5a.75.75 0 0 0 1.386.574l2.088-5.039h8.942l2.088 5.04a.75.75 0 0 0 1.386-.575l-2.204-5.316a.746.746 0 0 0-.146-.353L10.693 7.463Zm3.158 11.535H6.152L10 9.709l3.85 9.289ZM22.25 2a.75.75 0 0 1 .75.75V8.5h2.25a.75.75 0 0 1 0 1.5H23v9.25a.75.75 0 0 1-1.5 0V9.3a.729.729 0 0 1 0-.1V2.75a.75.75 0 0 1 .75-.75Z"/></svg>