<svg xmlns="http://www.w3.org/2000/svg" width="24" height="24" viewBox="0 0 24 24"><path d="M18.634 2.322a.75.75 0 0 1 1.044-.188c.808.561 1.478 1.544 1.898 2.627.424 1.094.63 2.384.413 3.618a.75.75 0 1 1-1.478-.258c.16-.913.013-1.924-.334-2.818-.35-.906-.869-1.6-1.355-1.937a.75.75 0 0 1-.188-1.044Zm-9.046.551a2.048 2.048 0 0 0-3.721 1.13 2.015 2.015 0 0 0-1.929 2.649l1.96 5.921a4.794 4.794 0 0 0-1.788.2 3.906 3.906 0 0 0-1.764 1.154 1.41 1.41 0 0 0-.271 1.42c.153.433.494.78.911.97 1.415.642 4.274 2.118 6.752 4.487 1.025.98 2.521 1.473 3.963 1.042l2.587-.775a2.665 2.665 0 0 0 1.892-2.183c.144-1.051.32-2.641.32-4.138 0-1.764-.456-3.708-1-5.41a37.425 37.425 0 0 0-1.625-4.151 2.051 2.051 0 0 0-2.277-1.142c-.29.058-.551.171-.778.326l-.155-.486a2 2 0 0 0-3.077-1.014Zm-1.156 1 .404 1.176c.01.033.02.066.032.1l1.673 4.846a.75.75 0 0 0 1.166.35l.016-.013a.75.75 0 0 0 .236-.827L10.272 4.61a.5.5 0 0 1 .964-.265l.724 2.267c.012.05.026.1.042.151l.87 2.703.163.513a.75.75 0 1 0 1.43-.457l-.165-.513-.89-2.786a.61.61 0 0 1 .482-.704.552.552 0 0 1 .62.299c.41.889 1.037 2.346 1.559 3.98.525 1.643.93 3.416.93 4.953 0 1.396-.166 2.91-.307 3.935-.06.44-.381.813-.836.949l-2.588.774c-.844.253-1.796-.02-2.495-.688-2.65-2.535-5.681-4.094-7.169-4.77a.279.279 0 0 1-.098-.072c.232-.255.572-.52 1.059-.676.51-.163 1.233-.224 2.244.038a.75.75 0 0 0 .9-.962L5.362 6.181a.515.515 0 0 1 .979-.324l1.438 4.346.258.785a.75.75 0 1 0 1.426-.474l-.259-.781-1.81-5.51a.547.547 0 0 1 1.038-.35Zm9.867.366A.75.75 0 0 0 17.2 5.26c.418.449.799.99.799 1.99a.75.75 0 0 0 1.5 0c0-1.502-.623-2.391-1.201-3.012Z"/></svg>