<svg xmlns="http://www.w3.org/2000/svg" width="24" height="24"><path d="M20.496 5.627A2.25 2.25 0 0 1 22 7.75v10A4.25 4.25 0 0 1 17.75 22h-10a2.25 2.25 0 0 1-2.123-1.504l2.097.004H17.75a2.75 2.75 0 0 0 2.75-2.75v-10l-.004-.051V5.627ZM17.246 2a2.25 2.25 0 0 1 2.25 2.25v12.997a2.25 2.25 0 0 1-2.25 2.25H4.25A2.25 2.25 0 0 1 2 17.247V4.25A2.25 2.25 0 0 1 4.25 2h12.997Zm0 1.5H4.25a.75.75 0 0 0-.75.75v12.997c0 .414.336.75.75.75h12.997a.75.75 0 0 0 .75-.75V4.25a.75.75 0 0 0-.75-.75Zm-7.665 7.858L13.47 7.47a.75.75 0 0 1 1.133.976l-.073.084-4.5 4.5a.75.75 0 0 1-1.056.004L8.9 12.95l-1.5-2a.75.75 0 0 1 1.127-.984l.073.084.981 1.308L13.47 7.47l-3.89 3.888Z"/></svg>