<svg xmlns="http://www.w3.org/2000/svg" width="20" height="20"><path d="M16.999 3.5a.5.5 0 1 0-1 0v2.202A7.996 7.996 0 0 0 2.841 7.445a.5.5 0 1 0 .896.445A6.996 6.996 0 0 1 15.75 7H12.5a.5.5 0 0 0 0 1h4a.5.5 0 0 0 .5-.5v-4Zm-6.493 7.63c.399-.693 1.061-1.13 1.996-1.13s1.597.437 1.996 1.13c.376.653.504 1.507.504 2.37 0 .863-.128 1.717-.504 2.37-.399.693-1.061 1.13-1.996 1.13s-1.597-.437-1.996-1.13c-.376-.653-.504-1.507-.504-2.37 0-.863.128-1.717.504-2.37Zm.867.498c-.249.432-.371 1.079-.371 1.872 0 .793.122 1.44.37 1.872.227.393.565.628 1.13.628s.903-.235 1.13-.628c.248-.432.37-1.079.37-1.872 0-.793-.122-1.44-.37-1.872-.227-.393-.565-.628-1.13-.628s-.903.235-1.13.628ZM7.999 10.5a.5.5 0 0 0-.777-.416l-1.5 1a.5.5 0 1 0 .554.832L7 11.434V16.5a.5.5 0 0 0 1 0v-6Z"/></svg>