<svg xmlns="http://www.w3.org/2000/svg" width="16" height="16" viewBox="0 0 16 16"><path d="M5.5 8a2.5 2.5 0 1 0 0-5 2.5 2.5 0 0 0 0 5Zm8-2a2 2 0 1 1-4 0 2 2 0 0 1 4 0ZM7.879 9l-1.44 1.44a1.5 1.5 0 0 0 0 2.12l.728.729A6.03 6.03 0 0 1 5.5 13.5c-4 0-4-2.925-4-2.925V10.5A1.5 1.5 0 0 1 3 9h4.879Zm1.975.854a.5.5 0 0 0-.708-.708l-2 2a.5.5 0 0 0 0 .708l2 2a.5.5 0 0 0 .708-.708L8.707 12h4.586l-1.147 1.146a.5.5 0 0 0 .708.708l2-2a.5.5 0 0 0 0-.708l-2-2a.5.5 0 0 0-.708.708L13.293 11H8.707l1.147-1.146Z"/></svg>