<svg xmlns="http://www.w3.org/2000/svg" width="16" height="16" viewBox="0 0 16 16"><path d="M7 5a4 4 0 0 1 5.445-3.73.5.5 0 0 1 .173.819L10.707 4 12 5.293l1.91-1.91a.5.5 0 0 1 .82.172 4 4 0 0 1-4.829 5.292L4.896 13.92a1.986 1.986 0 0 1-2.842-2.774l5.05-5.234A4.01 4.01 0 0 1 7 5Zm4-3a3 3 0 0 0-2.862 3.903.5.5 0 0 1-.117.498L2.773 11.84a.986.986 0 0 0 1.41 1.377l5.225-5.293a.5.5 0 0 1 .532-.116 3 3 0 0 0 4.046-3.088l-1.633 1.634a.5.5 0 0 1-.707 0l-2-2a.5.5 0 0 1 0-.707l1.634-1.634A3.042 3.042 0 0 0 11 2Z"/></svg>