<svg xmlns="http://www.w3.org/2000/svg" width="24" height="24"><path d="M6.5 2a1 1 0 0 0-1 1v.112A4.502 4.502 0 0 0 2 7.5v.384a4.883 4.883 0 0 0 2.796 4.415l.704.332v6.14A2.5 2.5 0 0 1 4 16.48v-.845a1 1 0 1 0-2 0v.845a4.502 4.502 0 0 0 3.5 4.389v.124a1 1 0 0 0 2 0v-.124A4.502 4.502 0 0 0 11 16.48v-.372A4.875 4.875 0 0 0 8.209 11.7l-.709-.335V5.208A2.5 2.5 0 0 1 9 7.5v.865a1 1 0 1 0 2 0V7.5a4.502 4.502 0 0 0-3.5-4.388V3a1 1 0 0 0-1-1ZM4 7.5a2.5 2.5 0 0 1 1.5-2.292v5.206A2.884 2.884 0 0 1 4 7.884V7.5Zm3.5 11.271v-5.189c.92.501 1.5 1.468 1.5 2.525v.372a2.5 2.5 0 0 1-1.5 2.292ZM15 12c0-.332.015-.657.043-.975H16a1 1 0 0 0 0-2h-.577a7.898 7.898 0 0 1 .979-2.125c.85-1.268 1.916-1.9 2.962-1.9.378 0 .785.117 1.067.31a1 1 0 1 0 1.13-1.65C20.904 3.21 20.09 3 19.364 3c-1.917 0-3.533 1.159-4.623 2.786-.619.923-1.094 2.025-1.39 3.239H12a1 1 0 1 0 0 2h1.036c-.024.32-.036.646-.036.975v.027h-1a1 1 0 1 0 0 2h1.16c.255 1.588.804 3.03 1.58 4.187C15.832 19.84 17.448 21 19.364 21c.697 0 1.535-.174 2.222-.67a1 1 0 0 0-1.172-1.621c-.254.183-.644.291-1.05.291-1.046 0-2.112-.632-2.962-1.9-.553-.824-.98-1.876-1.212-3.075H16a1 1 0 0 0 0-2h-1V12Z"/></svg>