<svg xmlns="http://www.w3.org/2000/svg" width="24" height="24" viewBox="0 0 24 24"><path d="m11.066 8.004.184-.005h7.5a3.25 3.25 0 0 1 3.245 3.065l.005.185v7.5a3.25 3.25 0 0 1-3.066 3.245l-.184.005h-7.5a3.25 3.25 0 0 1-3.245-3.066L8 18.75v-7.5a3.25 3.25 0 0 1 3.066-3.245Zm7.684 1.495h-7.5a1.75 1.75 0 0 0-1.744 1.606l-.006.144v7.5a1.75 1.75 0 0 0 1.607 1.744l.143.006h7.5a1.75 1.75 0 0 0 1.744-1.607l.006-.143v-7.5a1.75 1.75 0 0 0-1.75-1.75ZM15 11a.75.75 0 0 1 .75.75v2.498h2.5a.75.75 0 0 1 0 1.5h-2.5v2.502a.75.75 0 0 1-1.5 0v-2.502h-2.5a.75.75 0 1 1 0-1.5h2.5V11.75A.75.75 0 0 1 15 11Zm.582-6.767.052.177.693 2.588h-1.553l-.588-2.2a1.75 1.75 0 0 0-2.144-1.238L4.798 5.502a1.75 1.75 0 0 0-1.27 1.995l.032.148 1.942 7.244A1.75 1.75 0 0 0 7 16.176v1.506a3.252 3.252 0 0 1-2.895-2.228l-.052-.176-1.941-7.245a3.25 3.25 0 0 1 2.12-3.928l.178-.052 7.244-1.941a3.25 3.25 0 0 1 3.928 2.12Z"/></svg>