<svg xmlns="http://www.w3.org/2000/svg" width="16" height="16"><path d="M5.085 2A1.5 1.5 0 0 1 6.5 1h3a1.5 1.5 0 0 1 1.415 1h.585A1.5 1.5 0 0 1 13 3.5v3.717l-.13-.303a1.5 1.5 0 0 0-.87-.82V3.5a.5.5 0 0 0-.5-.5h-.585A1.5 1.5 0 0 1 9.5 4h-3a1.5 1.5 0 0 1-1.415-1H4.5a.5.5 0 0 0-.5.5v10a.5.5 0 0 0 .5.5h2.583c-.12.334-.113.686-.003 1H4.5A1.5 1.5 0 0 1 3 13.5v-10A1.5 1.5 0 0 1 4.5 2h.585ZM6.5 2a.5.5 0 0 0 0 1h3a.5.5 0 0 0 0-1h-3Zm5.451 5.308a.5.5 0 0 0-.919 0l-2.115 4.943a.495.495 0 0 0-.046.107l-.835 1.95a.5.5 0 1 0 .92.394L9.683 13h3.621l.73 1.702a.5.5 0 0 0 .92-.394l-.837-1.95a.498.498 0 0 0-.046-.107l-2.12-4.943ZM12.876 12h-2.764l1.38-3.226L12.876 12Z"/></svg>