<svg xmlns="http://www.w3.org/2000/svg" width="48" height="48"><path d="M38.06 8.94a1.5 1.5 0 0 0-2.12 2.12L38.878 14H38.5c-8.49 0-13.192 4.634-17.468 8.848l-.085.084C16.621 27.195 12.703 31 5.5 31a1.5 1.5 0 0 0 0 3c8.49 0 13.192-4.634 17.468-8.848l.085-.084C27.379 20.805 31.297 17 38.5 17h.379l-2.94 2.94a1.5 1.5 0 0 0 2.122 2.12l5.5-5.5a1.5 1.5 0 0 0 0-2.12l-5.5-5.5ZM5.5 14c6.932 0 11.339 3.09 15.05 6.517l-.831.817-.176.173c-.386.38-.765.753-1.139 1.115C14.946 19.451 11.281 17 5.5 17a1.5 1.5 0 0 1 0-3Zm33 20c-6.933 0-11.339-3.09-15.05-6.517l.831-.817.176-.173c.386-.38.765-.753 1.139-1.115C29.054 28.549 32.719 31 38.5 31h.379l-2.94-2.94a1.5 1.5 0 0 1 2.122-2.12l5.5 5.5a1.5 1.5 0 0 1 0 2.12l-5.5 5.5a1.5 1.5 0 0 1-2.122-2.12L38.88 34h-.38Z"/></svg>