<svg xmlns="http://www.w3.org/2000/svg" width="32" height="32"><path d="M8 5a2 2 0 0 0-2 2v1a1 1 0 0 1-2 0V7a4 4 0 1 1 8 0v5h10V7a2 2 0 1 0-4 0v1a1 1 0 1 1-2 0V7a4 4 0 0 1 8 0v11.818A10.805 10.805 0 0 1 22 19v-5H12v1.868a13.976 13.976 0 0 0-2-.322V7a2 2 0 0 0-2-2ZM4.662 20.296a1 1 0 0 1-1.33-1.494h.002V18.8l.003-.002.007-.006.017-.015.053-.044a6.748 6.748 0 0 1 .825-.556 8.834 8.834 0 0 1 2.424-.93c2.126-.482 5.139-.404 8.881 1.574 3.4 1.797 6.402 1.867 8.544 1.505a11.812 11.812 0 0 0 2.53-.719 8.573 8.573 0 0 0 .823-.392l.034-.02.002-.002h.003a1 1 0 0 1 1.043 1.705l-.004.003-.007.004-.02.012a4.508 4.508 0 0 1-.29.159c-.192.1-.468.234-.82.38-.703.29-1.711.63-2.96.841-2.508.425-5.967.325-9.812-1.708-3.336-1.763-5.862-1.764-7.504-1.391-.832.19-1.461.48-1.874.716a4.723 4.723 0 0 0-.553.368l-.017.014Zm0 6a1 1 0 0 1-1.33-1.494h.002V24.8l.003-.002.007-.006.017-.015.053-.044a6.748 6.748 0 0 1 .825-.556 8.834 8.834 0 0 1 2.424-.93c2.126-.482 5.139-.404 8.881 1.574 3.4 1.797 6.402 1.867 8.544 1.505a11.812 11.812 0 0 0 2.53-.719 8.573 8.573 0 0 0 .823-.392l.034-.02.002-.002h.003a1 1 0 0 1 1.043 1.705l-.004.003-.007.004-.02.012a4.508 4.508 0 0 1-.29.159c-.192.1-.468.234-.82.38-.703.29-1.711.63-2.96.841-2.508.425-5.967.325-9.812-1.708-3.336-1.763-5.862-1.764-7.504-1.391-.832.19-1.461.48-1.874.716a4.723 4.723 0 0 0-.553.368l-.017.014Z"/></svg>