<svg xmlns="http://www.w3.org/2000/svg" width="32" height="32" viewBox="0 0 32 32"><path d="m25.048 26.462 3.245 3.245a1 1 0 0 0 1.414-1.414l-26-26a1 1 0 0 0-1.414 1.414l5.57 5.57A12.2 12.2 0 0 0 4.25 8.75a1.25 1.25 0 0 0 0 2.5c3.43 0 5.726 1.563 7.95 3.691.213-.219.43-.444.652-.675l1.061 1.061C11.078 18.281 8.56 20.75 4.25 20.75a1.25 1.25 0 0 0 0 2.5c5.452 0 8.646-3.249 11.432-6.154l1.06 1.06c-.22.23-.446.466-.678.705 1.366 1.31 2.892 2.541 4.748 3.365l2.476 2.476a1.25 1.25 0 0 0 1.76 1.76Zm-.882-5.831 3.36 3.36 1.108-1.107a1.25 1.25 0 0 0 0-1.768l-3.5-3.5a1.25 1.25 0 1 0-1.768 1.768l1.313 1.312a9.718 9.718 0 0 1-.513-.066Zm-7.788-7.789 1.771 1.772c1.877-1.736 3.843-3.038 6.53-3.311l-1.313 1.313a1.25 1.25 0 1 0 1.768 1.768l3.5-3.5a1.25 1.25 0 0 0 0-1.768l-3.5-3.5a1.25 1.25 0 0 0-1.768 1.768l1.403 1.402c-3.643.271-6.226 2.04-8.391 4.056Z"/></svg>