<svg xmlns="http://www.w3.org/2000/svg" width="16" height="16"><path d="M6.854.146a.5.5 0 1 0-.708.708L7.293 2H5a3 3 0 0 0-3 3v2.293L.854 6.146a.5.5 0 1 0-.708.708l2 2a.5.5 0 0 0 .708 0l2-2a.5.5 0 1 0-.708-.708L3 7.293V5a2 2 0 0 1 2-2h2.293L6.146 4.146a.5.5 0 1 0 .708.708l2-2a.5.5 0 0 0 0-.708l-2-2ZM5 10H2.5c.384 0 .768-.146 1.06-.44L5 8.122V10Zm1 0V6h4v4H6Zm4-5H8.121l1.44-1.44c.293-.292.439-.676.439-1.06V5Zm-5 6H2v.5A2.5 2.5 0 0 0 4.5 14H5v-3Zm1 3h4v-3H6v3Zm5 0v-3h3v.5a2.5 2.5 0 0 1-2.5 2.5H11Zm3-8v4h-3V6h3Zm0-1v-.5A2.5 2.5 0 0 0 11.5 2H11v3h3Z"/></svg>