<svg xmlns="http://www.w3.org/2000/svg" width="24" height="24" viewBox="0 0 24 24"><path d="M12 2a4.251 4.251 0 0 0-4.002 2.816 4.251 4.251 0 0 0-3.364 5.247 4.25 4.25 0 0 0 1.687 7.915A.75.75 0 0 0 6.5 18h3v2.25c0 .966.784 1.75 1.75 1.75h1.5a1.75 1.75 0 0 0 1.75-1.75V18h3a.751.751 0 0 0 .179-.021 4.25 4.25 0 0 0 1.687-7.916 4.251 4.251 0 0 0-3.364-5.247A4.251 4.251 0 0 0 12 2Zm1 16v2.25a.25.25 0 0 1-.25.25h-1.5a.25.25 0 0 1-.25-.25V18h2Zm-6.385-1.5a.74.74 0 0 0-.062-.007 2.75 2.75 0 0 1-.733-5.332.75.75 0 0 0 .428-1.018 2.75 2.75 0 0 1 2.368-3.89.75.75 0 0 0 .697-.59 2.751 2.751 0 0 1 5.374 0 .75.75 0 0 0 .697.59 2.75 2.75 0 0 1 2.368 3.89.75.75 0 0 0 .428 1.018 2.751 2.751 0 0 1-.795 5.339H6.615Z"/></svg>