<svg xmlns="http://www.w3.org/2000/svg" width="24" height="24" viewBox="0 0 24 24"><path d="M16 6a4 4 0 0 0-8 0v2H6.25A2.25 2.25 0 0 0 4 10.25v9.5A2.25 2.25 0 0 0 6.25 22H11v-.19c0-.463.184-.909.513-1.237l.073-.073H6.25a.75.75 0 0 1-.75-.75v-9.5a.75.75 0 0 1 .75-.75h11.5a.75.75 0 0 1 .75.75v1.861a4.513 4.513 0 0 1 1.5-.084V10.25A2.25 2.25 0 0 0 17.75 8H16V6Zm-2.5 9a1.5 1.5 0 1 0-3 0 1.5 1.5 0 0 0 3 0Zm-4-9a2.5 2.5 0 0 1 5 0v2h-5V6ZM23 16.5a3.5 3.5 0 0 1-3.5 3.5H18v1a.5.5 0 0 1-.5.5h-1v1a.5.5 0 0 1-.5.5h-1v.5a.5.5 0 0 1-.5.5h-1.75a.75.75 0 0 1-.75-.75v-1.44a.75.75 0 0 1 .22-.53l3.75-3.75a.75.75 0 0 1 .15-.116A3.5 3.5 0 1 1 23 16.5Zm-3 .5a1 1 0 1 0 0-2 1 1 0 0 0 0 2Z"/></svg>