<svg xmlns="http://www.w3.org/2000/svg" width="16" height="16" viewBox="0 0 16 16"><path d="M2.5 3.75H6a.749.749 0 0 1 .53 1.28.743.743 0 0 1-.53.22H3.25v2H5.5a.749.749 0 0 1 .53 1.28.743.743 0 0 1-.53.22H3.25v2.75a.749.749 0 0 1-1.28.53.743.743 0 0 1-.22-.53v-7a.749.749 0 0 1 .75-.75Zm10.75 5h.999a.749.749 0 0 1 .53 1.28.743.743 0 0 1-.53.22h-1V11a.749.749 0 0 1-1.28.53.743.743 0 0 1-.22-.53v-.75h-1.5V11c0 .2-.078.388-.22.53a.769.769 0 0 1-1.061 0 .743.743 0 0 1-.22-.53v-.75h-.75a.749.749 0 0 1-.53-1.28.743.743 0 0 1 .53-.22h.75v-1.5h-.75a.749.749 0 0 1-.53-1.28.743.743 0 0 1 .53-.22h.75V5c0-.2.078-.388.22-.53a.769.769 0 0 1 1.061 0c.142.141.22.33.22.53v.75h1.5V5c0-.2.078-.388.22-.53a.77.77 0 0 1 1.061 0c.142.141.22.33.22.53v.75h1a.749.749 0 0 1 .53 1.28.743.743 0 0 1-.53.22h-1v1.5Zm-1.5 0v-1.5h-1.5v1.5h1.5Z"/></svg>