<svg xmlns="http://www.w3.org/2000/svg" width="24" height="24" viewBox="0 0 24 24"><path d="M4.25 4A2.25 2.25 0 0 0 2 6.25v2.5A2.25 2.25 0 0 0 4.25 11h2.5A2.25 2.25 0 0 0 9 8.75v-2.5A2.25 2.25 0 0 0 6.75 4h-2.5Zm7 1a.75.75 0 0 0 0 1.5h10a.75.75 0 0 0 0-1.5h-10Zm0 3a.75.75 0 0 0 0 1.5h7a.75.75 0 0 0 0-1.5h-7Zm-7 5A2.25 2.25 0 0 0 2 15.25v2.5A2.25 2.25 0 0 0 4.25 20h2.5A2.25 2.25 0 0 0 9 17.75v-2.5A2.25 2.25 0 0 0 6.75 13h-2.5Zm7 1a.75.75 0 0 0 0 1.5h10a.75.75 0 0 0 0-1.5h-10Zm0 3a.75.75 0 0 0 0 1.5h7a.75.75 0 0 0 0-1.5h-7Z"/></svg>