<svg xmlns="http://www.w3.org/2000/svg" width="20" height="20" viewBox="0 0 20 20"><path d="M8.334 3.711a2.12 2.12 0 0 0-1.35-.17l-.895.17a2.369 2.369 0 0 0-1.665 1.245c-1.11 2.165-1.944 3.932-2.27 5.437-.336 1.544-.147 2.86.82 4.061.654.813 1.8.65 2.399-.026.467-.527.997-1.136 1.512-1.732A2.01 2.01 0 0 1 8.405 12h.802c.099-.349.23-.683.393-1H8.404a3.01 3.01 0 0 0-2.275 1.042c-.514.595-1.041 1.2-1.505 1.723-.284.321-.69.287-.871.062-.737-.914-.909-1.903-.623-3.222.295-1.357 1.065-3.011 2.184-5.193.191-.374.547-.64.962-.718l.894-.17c.262-.05.511-.022.716.08l.052.027c.444.226.944.369 1.468.369h1.183c.524 0 1.024-.143 1.468-.37l.052-.025c.205-.103.454-.13.716-.081l.894.17c.415.078.77.344.962.718a51.533 51.533 0 0 1 1.358 2.806c.468.136.91.333 1.317.58-.426-1.13-1.044-2.398-1.785-3.842a2.369 2.369 0 0 0-1.665-1.245l-.894-.17a2.12 2.12 0 0 0-1.351.17l-.058.029c-.327.167-.672.26-1.014.26H9.406a2.24 2.24 0 0 1-1.014-.26l-.058-.029ZM10 7.5A.75.75 0 1 0 10 6a.75.75 0 0 0 0 1.5Zm9 6a4.5 4.5 0 1 1-9 0 4.5 4.5 0 0 1 9 0ZM14.5 11a.5.5 0 0 0-.5.5v2a.5.5 0 0 0 1 0v-2a.5.5 0 0 0-.5-.5Zm0 5.125a.625.625 0 1 0 0-1.25.625.625 0 0 0 0 1.25Z"/></svg>