<svg xmlns="http://www.w3.org/2000/svg" width="24" height="24" viewBox="0 0 24 24"><path d="M10.898 7.515a.75.75 0 0 1 .588.882l-.22 1.103h2.47l.28-1.397a.75.75 0 0 1 1.47.294l-.22 1.103h.984a.75.75 0 0 1 0 1.5h-1.285l-.4 2h1.185a.75.75 0 0 1 0 1.5h-1.485l-.28 1.398a.75.75 0 0 1-1.47-.295l.22-1.103h-2.47l-.28 1.398a.75.75 0 0 1-1.47-.295l.22-1.103H7.75a.75.75 0 0 1 0-1.5h1.286l.4-2H8.25a.75.75 0 0 1 0-1.5h1.486l.28-1.397a.75.75 0 0 1 .882-.588ZM10.565 13h2.47l.4-2h-2.47l-.4 2ZM3 6.25A3.25 3.25 0 0 1 6.25 3h11.5A3.25 3.25 0 0 1 21 6.25v11.5A3.25 3.25 0 0 1 17.75 21H6.25A3.25 3.25 0 0 1 3 17.75V6.25ZM6.25 4.5A1.75 1.75 0 0 0 4.5 6.25v11.5c0 .966.784 1.75 1.75 1.75h11.5a1.75 1.75 0 0 0 1.75-1.75V6.25a1.75 1.75 0 0 0-1.75-1.75H6.25Z"/></svg>