<svg xmlns="http://www.w3.org/2000/svg" width="16" height="16"><path d="M2 8a6 6 0 1 1 12 0A6 6 0 0 1 2 8Zm3.92-1.874a.5.5 0 0 0 .704-.044V6.08a2.028 2.028 0 0 1 .355-.282A1.92 1.92 0 0 1 8 5.5c.766 0 1.251.517 1.251 1s-.485 1-1.25 1h-.5a.5.5 0 1 0 0 1H8c.765 0 1.25.517 1.25 1s-.485 1-1.25 1a1.92 1.92 0 0 1-1.02-.3 2.022 2.022 0 0 1-.348-.274l-.007-.007v.001a.5.5 0 0 0-.751.66h.001l.001.002.004.004.01.012.033.034a3.033 3.033 0 0 0 .527.417c.357.223.885.451 1.55.451 1.167 0 2.25-.826 2.25-2 0-.621-.303-1.145-.761-1.5.458-.355.761-.879.761-1.5 0-1.174-1.083-2-2.25-2a2.92 2.92 0 0 0-1.55.45 3.027 3.027 0 0 0-.56.452l-.01.012-.004.004-.001.001v.001a.5.5 0 0 0 .046.706Zm.705-.045V6.08l-.001.002V6.08Zm0 3.838-.001-.001Z"/></svg>