<svg xmlns="http://www.w3.org/2000/svg" width="20" height="20"><path d="M5 4v5.022a5.48 5.48 0 0 0-1 .185V4a2 2 0 0 1 2-2h4.586a1.5 1.5 0 0 1 1.06.44l3.915 3.914A1.5 1.5 0 0 1 16 7.414V16a2 2 0 0 1-2 2H9.743c.253-.307.474-.642.657-1H14a1 1 0 0 0 1-1V8h-3.5A1.5 1.5 0 0 1 10 6.5V3H6a1 1 0 0 0-1 1Zm8.5 11h-2.522a5.586 5.586 0 0 0 0-1H13.5a.5.5 0 0 1 0 1Zm0-2h-2.707a5.467 5.467 0 0 0-.393-1h3.1a.5.5 0 0 1 0 1Zm0-2H9.743a5.533 5.533 0 0 0-1.08-1H13.5a.5.5 0 0 1 0 1Zm1.293-4L11 3.207V6.5a.5.5 0 0 0 .5.5h3.293ZM5.5 19a4.5 4.5 0 1 1 0-9 4.5 4.5 0 0 1 0 9Zm-2.353-4.854-.003.003a.498.498 0 0 0-.144.348v.006a.498.498 0 0 0 .146.35l2 2a.5.5 0 0 0 .708-.707L4.707 15H7.5a.5.5 0 0 0 0-1H4.707l1.147-1.146a.5.5 0 0 0-.708-.708l-2 2Z"/></svg>