<svg xmlns="http://www.w3.org/2000/svg" width="16" height="16" viewBox="0 0 16 16"><path d="M5.168 3.126A.5.5 0 0 1 5.5 3h1a.5.5 0 0 1 0 1h-.81L3.438 6H5.5A1.5 1.5 0 0 1 7 7.5V8h2v-.5A1.5 1.5 0 0 1 10.5 6h2.062L10.31 4H9.5a.5.5 0 0 1 0-1h1a.5.5 0 0 1 .332.126l3.622 3.216A1.5 1.5 0 0 1 15 7.5v2a2.5 2.5 0 0 1-2.5 2.5h-1A2.5 2.5 0 0 1 9 9.5V9H7v.5A2.5 2.5 0 0 1 4.5 12h-1A2.5 2.5 0 0 1 1 9.5v-2a1.5 1.5 0 0 1 .546-1.158l3.622-3.216Zm8.64 3.98A.498.498 0 0 0 13.5 7h-3a.5.5 0 0 0-.5.5v2a1.5 1.5 0 0 0 1.5 1.5h1A1.5 1.5 0 0 0 14 9.5v-2a.498.498 0 0 0-.172-.376l-.02-.018ZM2.17 7.123A.499.499 0 0 0 2 7.5v2A1.5 1.5 0 0 0 3.5 11h1A1.5 1.5 0 0 0 6 9.5v-2a.5.5 0 0 0-.5-.5h-3a.498.498 0 0 0-.308.106l-.02.017Z"/></svg>