<svg xmlns="http://www.w3.org/2000/svg" width="20" height="20"><path d="M16.5 9c.17 0 .337.012.5.035V8h-4v1h3.5ZM9 16.5V13H8v4h1.035A3.53 3.53 0 0 1 9 16.5Zm.035-4.5A3.502 3.502 0 0 1 12 9.035V8H8v4h1.035ZM7 12V8H3v4h4Zm-4 1h4v4H5.5A2.5 2.5 0 0 1 3 14.5V13Zm10-6h4V5.5A2.5 2.5 0 0 0 14.5 3H13v4Zm-1-4v4H8V3h4ZM7 3v4H3V5.5A2.5 2.5 0 0 1 5.5 3H7Zm3 9.5a2.5 2.5 0 0 1 2.5-2.5h4a2.5 2.5 0 0 1 2.5 2.5v4c0 .51-.152.983-.414 1.379l-3.025-3.025a1.5 1.5 0 0 0-2.122 0l-3.025 3.025A2.488 2.488 0 0 1 10 16.5v-4Zm7 .25a.75.75 0 1 0-1.5 0 .75.75 0 0 0 1.5 0Zm-5.879 5.836c.396.262.87.414 1.379.414h4c.51 0 .983-.152 1.379-.414l-3.025-3.025a.5.5 0 0 0-.708 0l-3.025 3.025Z"/></svg>