<svg xmlns="http://www.w3.org/2000/svg" width="24" height="24" viewBox="0 0 24 24"><path d="m9.925 2.05 1.037.198c.972.185 1.625 1.093 1.525 2.122l-.198 2.047c-.086.893-.72 1.653-1.566 1.88l-2.357.631c-.383.935-.559 1.966-.526 3.092a8.107 8.107 0 0 0 .708 3.142l2.206.392c.836.148 1.46.838 1.548 1.712l.205 2.035c.102 1.016-.544 1.99-1.512 2.279l-1.038.31c-1.032.307-2.119.032-2.852-.722-1.731-1.782-2.6-4.753-2.605-8.913-.005-4.165.858-7.229 2.59-9.19.728-.824 1.807-1.21 2.835-1.015Zm6.771 5.097.084.072 3.997 3.998a.75.75 0 0 1 .073.976l-.073.084-3.996 4.004a.75.75 0 0 1-1.134-.976l.072-.084 2.712-2.717H12a.75.75 0 0 1-.744-.648l-.006-.101a.75.75 0 0 1 .648-.744l.102-.006 6.44-.001-2.72-2.724a.75.75 0 0 1-.073-.977l.073-.084a.75.75 0 0 1 .874-.136l.102.064Z"/></svg>