<svg xmlns="http://www.w3.org/2000/svg" width="24" height="24"><path d="M17 13.25a1.75 1.75 0 0 0-1.75-1.75h-6.5c-.418 0-.802.147-1.103.391L9.865 13H10v.068l.598.299c.364.182.67.445.902.762V13h3.75a.25.25 0 0 1 .25.25v1.25h-3.776c.166.337.256.713.256 1.103V16h3.52v1.25a.25.25 0 0 1-.25.25h-3.27V19h3.27A1.75 1.75 0 0 0 17 17.25v-4Zm-5.135 7.25H18a.5.5 0 0 0 .5-.5V10H14a2 2 0 0 1-2-2V3.5H6a.5.5 0 0 0-.5.5v7.4a2.498 2.498 0 0 0-.638.217L4 12.048V4a2 2 0 0 1 2-2h6.172c.028 0 .055.004.082.007a.63.63 0 0 0 .059.007c.215.015.427.056.624.138.057.024.112.056.166.087l.05.029.047.024a.652.652 0 0 1 .081.044c.078.053.148.116.219.18a.63.63 0 0 0 .036.03.491.491 0 0 1 .049.04l5.829 5.828A2 2 0 0 1 20 9.828V20a2 2 0 0 1-2 2h-7.432l.03-.015a2.5 2.5 0 0 0 1.267-1.485ZM14 8.5h3.378L13.5 4.621V8a.5.5 0 0 0 .5.5ZM.98 19.748v-4.146a1.5 1.5 0 0 1 .83-1.341l3.5-1.75a1.5 1.5 0 0 1 1.341 0l3.5 1.75a1.5 1.5 0 0 1 .83 1.341v4.146a1.5 1.5 0 0 1-.83 1.342l-3.5 1.75a1.5 1.5 0 0 1-1.341 0l-3.5-1.75a1.5 1.5 0 0 1-.83-1.342Zm1.553-4.046a.5.5 0 0 0 .224.67l2.723 1.363v2.94a.5.5 0 0 0 1 0v-2.94l2.724-1.362a.5.5 0 1 0-.447-.895L5.98 16.866l-2.776-1.388a.5.5 0 0 0-.67.224Z"/></svg>