<svg xmlns="http://www.w3.org/2000/svg" width="16" height="16" viewBox="0 0 16 16"><path d="M9 1v3.5A1.5 1.5 0 0 0 10.5 6H14v7.5a1.5 1.5 0 0 1-1.5 1.5h-1.837c.216-.455.337-.963.337-1.5v-4A3.5 3.5 0 0 0 7.5 6H4V2.5A1.5 1.5 0 0 1 5.5 1H9Zm1 .25V4.5a.5.5 0 0 0 .5.5h3.25L10 1.25ZM1 9.5A2.5 2.5 0 0 1 3.5 7h4A2.5 2.5 0 0 1 10 9.5v4c0 .51-.152.983-.414 1.379L6.56 11.854a1.5 1.5 0 0 0-2.122 0l-3.025 3.025A2.488 2.488 0 0 1 1 13.5v-4Zm7 .25a.75.75 0 1 0-1.5 0 .75.75 0 0 0 1.5 0Zm-5.879 5.836c.396.262.87.414 1.379.414h4c.51 0 .983-.152 1.379-.414L5.854 12.56a.5.5 0 0 0-.708 0l-3.025 3.025Z"/></svg>