<svg xmlns="http://www.w3.org/2000/svg" width="16" height="16"><path d="M2 4.499a2.5 2.5 0 0 1 2.5-2.5h7.002a2.5 2.5 0 0 1 2.5 2.5v1.76a5.508 5.508 0 0 0-1-.659V5h-10L3 11.501a1.5 1.5 0 0 0 1.5 1.5h1.1c.183.358.404.693.658 1H4.5a2.5 2.5 0 0 1-2.5-2.5V4.5ZM4.5 3a1.5 1.5 0 0 0-1.414 1h9.83A1.5 1.5 0 0 0 11.5 3h-7Zm6 12a4.5 4.5 0 1 0 0-9 4.5 4.5 0 0 0 0 9Zm2.354-4.854a.5.5 0 0 1-.708.708L11 9.707V12.5a.5.5 0 0 1-1 0V9.707l-1.146 1.147a.5.5 0 0 1-.708-.708l2-2A.499.499 0 0 1 10.497 8h.006a.498.498 0 0 1 .348.144l.003.003 2 2Z"/></svg>