<svg xmlns="http://www.w3.org/2000/svg" width="20" height="20"><path d="M14.597 9.357a6.635 6.635 0 0 1 1.194 1.656.5.5 0 1 1-.89.455 5.638 5.638 0 0 0-1.011-1.404 5.45 5.45 0 0 0-8.716 1.39.5.5 0 0 1-.892-.452 6.45 6.45 0 0 1 10.315-1.645Zm-1.71 2.497c.355.354.647.79.85 1.254a.5.5 0 1 1-.916.401 3.138 3.138 0 0 0-.64-.948 3.033 3.033 0 0 0-4.29 0 3.051 3.051 0 0 0-.63.938.5.5 0 1 1-.917-.401 4.04 4.04 0 0 1 .84-1.244 4.033 4.033 0 0 1 5.704 0Zm-1.924 1.933a1.298 1.298 0 1 1-1.836 1.836 1.298 1.298 0 0 1 1.836-1.836Z"/></svg>