<svg xmlns="http://www.w3.org/2000/svg" width="24" height="24"><path d="M21.778 2.222a.75.75 0 0 1 .072.976l-.072.084-6.223 6.224h5.693a.75.75 0 0 1 .743.65l.007.1a.75.75 0 0 1-.649.744l-.101.007-7.55-.002-.016-.002a.727.727 0 0 1-.195-.042l-.098-.046a.747.747 0 0 1-.386-.553l-.007-.105V2.753a.75.75 0 0 1 1.493-.102l.007.102v5.69l6.222-6.221a.749.749 0 0 1 1.06 0ZM11.003 13.754v7.504a.75.75 0 0 1-1.494.102l-.007-.102v-5.695L3.28 21.779a.75.75 0 0 1-1.133-.977l.073-.084 6.22-6.214H2.751a.75.75 0 0 1-.743-.648L2 13.754a.75.75 0 0 1 .75-.75l7.554.002.074.009.097.023.053.019.086.04.089.058a.756.756 0 0 1 .148.148l.066.106.041.093.022.071.01.055.007.058v-.008l.005.076Z"/></svg>