<svg xmlns="http://www.w3.org/2000/svg" width="20" height="20"><path d="M13 1a.5.5 0 0 1 .5.5v1.513a3.793 3.793 0 0 1 2.007.773l1.64-1.64a.5.5 0 0 1 .707.708l-1.64 1.639c.457.595.715 1.295.772 2.007H18.5a.5.5 0 0 1 0 1h-1.564a3.791 3.791 0 0 1-1.053 2.003l-1.337 1.336 1.308 1.307a.5.5 0 0 1-.708.708l-1.307-1.308-2.293 2.293 1.308 1.307a.5.5 0 0 1-.708.708l-1.307-1.308-1.337 1.338A3.791 3.791 0 0 1 7.5 16.936V18.5a.5.5 0 0 1-1 0v-1.513a3.793 3.793 0 0 1-2.008-.772l-1.641 1.642a.5.5 0 0 1-.707-.708l1.641-1.641a3.793 3.793 0 0 1-.773-2.008H1.5a.5.5 0 0 1 0-1h1.562a3.792 3.792 0 0 1 1.053-2.003L5.453 9.16 4.146 7.854a.5.5 0 1 1 .708-.708L6.16 8.453 8.453 6.16 7.146 4.854a.5.5 0 1 1 .708-.708L9.16 5.453l1.336-1.337A3.791 3.791 0 0 1 12.5 3.063V1.5A.5.5 0 0 1 13 1ZM6.75 14a.75.75 0 1 0 0-1.5.75.75 0 0 0 0 1.5ZM14 6.75a.75.75 0 1 0-1.5 0 .75.75 0 0 0 1.5 0Z"/></svg>