<svg xmlns="http://www.w3.org/2000/svg" width="16" height="16" viewBox="0 0 16 16"><path d="M12 2.05a2.5 2.5 0 0 1 2 2.45v7a2.5 2.5 0 0 1-2 2.45V9.622l.561-.561a1.5 1.5 0 0 0 0-2.122L12 6.378V2.05ZM11 2v3.381A1.5 1.5 0 0 0 8.5 6.5h-1A1.5 1.5 0 0 0 5 5.383V2h6ZM4 13.95V9.62l-.56-.56a1.5 1.5 0 0 1 0-2.12L4 6.38V2.05A2.5 2.5 0 0 0 2 4.5v7a2.5 2.5 0 0 0 2 2.45Zm3.061-3.39A1.5 1.5 0 0 1 5 10.618V14h6v-3.381A1.5 1.5 0 0 1 8.5 9.5h-1c0 .384-.146.768-.439 1.06Zm-.707-4.414a.5.5 0 0 1 0 .708l-.647.646h4.586l-.647-.646a.5.5 0 1 1 .708-.708l1.5 1.5a.5.5 0 0 1 0 .708l-1.5 1.5a.5.5 0 0 1-.708-.708l.647-.646H5.707l.647.646a.5.5 0 1 1-.708.708l-1.5-1.5a.5.5 0 0 1 0-.708l1.5-1.5a.5.5 0 0 1 .708 0Z"/></svg>