<svg xmlns="http://www.w3.org/2000/svg" width="48" height="48"><path d="M23.999 4.001c.69 0 1.25.56 1.25 1.25v2.5a1.25 1.25 0 0 1-2.5 0v-2.5c0-.69.56-1.25 1.25-1.25Zm.048 30.02c5.509 0 9.975-4.465 9.975-9.974 0-5.51-4.466-9.976-9.975-9.976-5.51 0-9.976 4.466-9.976 9.976 0 5.509 4.466 9.975 9.976 9.975Zm0-2.5a7.475 7.475 0 1 1 0-14.95 7.475 7.475 0 0 1 0 14.95Zm18.703-6.27a1.25 1.25 0 0 0 0-2.5h-2.5a1.25 1.25 0 0 0 0 2.5h2.5ZM23.999 39c.69 0 1.25.56 1.25 1.25v2.5a1.25 1.25 0 0 1-2.5 0v-2.5c0-.69.56-1.25 1.25-1.25ZM7.75 25.25a1.25 1.25 0 1 0 0-2.5h-2.5a1.25 1.25 0 0 0 0 2.5h2.5ZM9.366 9.365a1.25 1.25 0 0 1 1.768 0l2.5 2.5a1.25 1.25 0 1 1-1.768 1.768l-2.5-2.5a1.25 1.25 0 0 1 0-1.768Zm1.768 29.269a1.25 1.25 0 1 1-1.768-1.768l2.5-2.5a1.25 1.25 0 1 1 1.768 1.768l-2.5 2.5Zm27.5-29.269a1.25 1.25 0 0 0-1.767 0l-2.5 2.5a1.25 1.25 0 0 0 1.768 1.768l2.5-2.5a1.25 1.25 0 0 0 0-1.768Zm-1.767 29.269a1.25 1.25 0 1 0 1.768-1.768l-2.5-2.5a1.25 1.25 0 1 0-1.768 1.768l2.5 2.5Z"/></svg>