<svg xmlns="http://www.w3.org/2000/svg" width="24" height="24" viewBox="0 0 24 24"><path d="M2.752 4.5a.75.75 0 0 1 .744.648l.006.102L3.5 18.254a.75.75 0 0 1-1.493.102L2 18.254 2.002 5.25a.75.75 0 0 1 .75-.75Zm12.895 1.804.073-.084a.75.75 0 0 1 .976-.073l.084.073 4.997 4.997a.75.75 0 0 1 .073.976l-.073.085-4.996 5.003a.75.75 0 0 1-1.134-.976l.072-.084 3.711-3.717H5.753a.75.75 0 0 1-.743-.647l-.007-.102a.75.75 0 0 1 .648-.743l.102-.007 13.69-.001L15.72 7.28a.75.75 0 0 1-.073-.976l.073-.084-.073.084Z"/></svg>