<svg xmlns="http://www.w3.org/2000/svg" width="28" height="28"><path d="M21.75 3A3.25 3.25 0 0 1 25 6.25v15.5A3.25 3.25 0 0 1 21.75 25H6.25A3.25 3.25 0 0 1 3 21.75V6.25A3.25 3.25 0 0 1 6.25 3h15.5ZM14 8.25a.75.75 0 0 0-.743.648L13.25 9v10l.007.102a.75.75 0 0 0 1.486 0L14.75 19V9l-.007-.102A.75.75 0 0 0 14 8.25Zm5.25 0a.75.75 0 0 0-.743.648L18.5 9v10l.007.102a.75.75 0 0 0 1.486 0L20 19V9l-.007-.102a.75.75 0 0 0-.743-.648Zm-10.5 0a.75.75 0 0 0-.743.648L8 9v10l.007.102a.75.75 0 0 0 1.486 0L9.5 19V9l-.007-.102a.75.75 0 0 0-.743-.648Z"/></svg>