<svg xmlns="http://www.w3.org/2000/svg" width="48" height="48" viewBox="0 0 48 48"><path d="m28 29.768 13.866 13.866a1.25 1.25 0 0 0 1.768-1.768l-37.5-37.5a1.25 1.25 0 1 0-1.768 1.768L18.233 20 8.038 30.197a6.006 6.006 0 0 0-1.572 2.758L4.039 42.44a1.25 1.25 0 0 0 1.52 1.521l9.487-2.424a6.007 6.007 0 0 0 2.76-1.573l10.195-10.196Zm9.971-9.971-6.435 6.436-9.768-9.768 10.438-10.44a6.907 6.907 0 1 1 9.768 9.768l-2.234 2.235.935.998a4.25 4.25 0 0 1-.095 5.912l-3.446 3.446a1.25 1.25 0 0 1-1.768-1.768l3.446-3.446a1.75 1.75 0 0 0 .04-2.434l-.881-.94Z"/></svg>