<svg xmlns="http://www.w3.org/2000/svg" width="24" height="24"><path d="M16.668 3H4.25l-.154.005A2.25 2.25 0 0 0 2 5.25v10.502l.005.154a2.25 2.25 0 0 0 2.245 2.096h4.249V20.5H6.75l-.102.007A.75.75 0 0 0 6.75 22h10.5l.102-.006a.75.75 0 0 0-.102-1.494h-1.751v-2.498h4.25l.154-.005a2.25 2.25 0 0 0 2.096-2.245V9.5h-1.5v6.252l-.007.102a.75.75 0 0 1-.743.648H4.25l-.102-.007a.75.75 0 0 1-.648-.743V5.25l.007-.102A.75.75 0 0 1 4.25 4.5H16.5v-.75c0-.268.06-.523.168-.75Zm-6.67 15.002h4l.001 2.498h-4l-.001-2.498ZM17.5 3.75a.75.75 0 0 1 .75-.75h4a.75.75 0 0 1 .75.75v4a.75.75 0 0 1-.75.75h-4a.75.75 0 0 1-.75-.75V7h-.323a.536.536 0 0 0-.508.366l-.914 2.742a2.036 2.036 0 0 1-1.932 1.392H13v1.75a.75.75 0 0 1-.75.75h-4a.75.75 0 0 1-.75-.75v-4a.75.75 0 0 1 .75-.75h4a.75.75 0 0 1 .75.75V10h.823c.23 0 .436-.148.508-.366l.914-2.742A2.036 2.036 0 0 1 17.177 5.5h.323V3.75ZM19 6.268V7h2.5V4.5H19v1.732a1.067 1.067 0 0 1 0 .036ZM9 10v2.5h2.5V10H9Z"/></svg>