<svg xmlns="http://www.w3.org/2000/svg" width="20" height="20"><path d="M6.44 5.283a1.5 1.5 0 0 0 .225 2.307l1.766 1.183-5.853 5.853a1.976 1.976 0 1 0 2.795 2.795l5.853-5.853 1.183 1.767a1.5 1.5 0 0 0 2.307.225l2.84-2.84a1.5 1.5 0 0 0-.183-2.279l-3.315-2.387a.5.5 0 0 1-.113-.114l-2.387-3.315a1.5 1.5 0 0 0-2.278-.184L6.44 5.283Zm4.219 5.438-5.993 5.993a.977.977 0 0 1-1.38-1.381L9.277 9.34l.745.5a.5.5 0 0 1 .137.137l.499.744ZM7.222 6.76a.5.5 0 0 1-.075-.77l2.84-2.84a.5.5 0 0 1 .76.06l.568.79L8.02 7.293l-.798-.534Zm1.644 1.1 3.04-3.04 1.228 1.704a1.5 1.5 0 0 0 .34.34l1.705 1.228-3.04 3.04L10.99 9.42a1.5 1.5 0 0 0-.41-.411L8.865 7.86Zm7.135.824.787.568a.5.5 0 0 1 .061.759l-2.84 2.841a.5.5 0 0 1-.77-.075l-.533-.798L16 8.685ZM12 16.5a.5.5 0 0 1 .5-.5h3a.5.5 0 1 1 0 1h2a.5.5 0 1 1 0 1h-7a.5.5 0 1 1 0-1h2a.5.5 0 0 1-.5-.5Z"/></svg>