<svg xmlns="http://www.w3.org/2000/svg" width="20" height="20" viewBox="0 0 20 20"><path d="M7.318 6.5c.168-.873.397-1.657.67-2.32.301-.733.648-1.294 1.008-1.663C9.354 2.149 9.693 2 10 2c.307 0 .646.149 1.004.517.36.37.707.93 1.008 1.663.273.663.502 1.447.67 2.32H7.318Zm-.255-2.7a7.188 7.188 0 0 1 .827-1.52A8.02 8.02 0 0 0 2.804 6.5h3.497c.182-1.007.441-1.922.762-2.7Zm5.874 0a7.19 7.19 0 0 0-.827-1.519A8.02 8.02 0 0 1 17.196 6.5h-3.497c-.182-1.007-.441-1.922-.762-2.7Zm.913 3.7h3.752c.234.712.37 1.468.394 2.253a4.39 4.39 0 0 0-2.495-.752c-.54 0-1.048.09-1.514.255A20.147 20.147 0 0 0 13.85 7.5Zm-.851 2.258a19.325 19.325 0 0 0-.157-2.258H7.158A19.438 19.438 0 0 0 7 10c0 .875.056 1.714.158 2.5h3.982c.272-1.128.93-2.109 1.859-2.742ZM11.003 13.5H7.318c.168.873.397 1.657.67 2.32.301.733.648 1.294 1.008 1.663.358.368.697.517 1.004.517.307 0 .646-.149 1.004-.517.254-.26.502-.617.732-1.063-.491-.934-.736-1.87-.736-2.738l.003-.182Zm-8.199 0a8.02 8.02 0 0 0 5.087 4.219 7.187 7.187 0 0 1-.828-1.518c-.32-.78-.58-1.694-.762-2.701H2.804Zm3.346-1H2.398A7.992 7.992 0 0 1 2 10c0-.873.14-1.713.398-2.5H6.15C6.052 8.295 6 9.134 6 10c0 .866.052 1.705.15 2.5ZM19 13.682c0-2.033-1.465-3.681-3.499-3.681-2.033 0-3.501 1.648-3.501 3.681 0 1.524.982 3.53 3.256 5.236.145.11.345.11.49 0C18.022 17.212 19 15.206 19 13.682Zm-2-.182a1.5 1.5 0 1 1-3 0 1.5 1.5 0 0 1 3 0Z"/></svg>