<svg xmlns="http://www.w3.org/2000/svg" width="48" height="48"><path d="M15.247 38h17.506a1.247 1.247 0 0 1 .128 2.49l-.128.006H15.247a1.247 1.247 0 0 1-.128-2.49l.128-.006Zm-6-5h29.505a1.248 1.248 0 0 1 .128 2.49l-.128.006H9.248a1.248 1.248 0 0 1-.128-2.49L9.248 33ZM24 7c6.337 0 9.932 4.195 10.455 9.26h.16c4.078 0 7.384 3.298 7.384 7.365 0 4.068-3.306 7.365-7.384 7.365h-21.23C9.306 30.99 6 27.693 6 23.625c0-4.067 3.306-7.365 7.384-7.365h.16C14.07 11.161 17.662 7 24 7Zm0 2.495c-4.261 0-7.975 3.448-7.975 8.21 0 .755-.656 1.348-1.408 1.348h-1.42c-2.594 0-4.697 2.113-4.697 4.72 0 2.608 2.103 4.722 4.697 4.722h21.606c2.594 0 4.697-2.114 4.697-4.721 0-2.608-2.103-4.722-4.697-4.722h-1.42c-.752 0-1.408-.592-1.408-1.346 0-4.824-3.714-8.21-7.975-8.21Z"/></svg>