<svg xmlns="http://www.w3.org/2000/svg" width="24" height="24" viewBox="0 0 24 24"><path d="M14.754 10c.966 0 1.75.784 1.75 1.75v4.749a4.501 4.501 0 0 1-9.002 0V11.75c0-.966.783-1.75 1.75-1.75h5.502Zm-7.623 0a2.72 2.72 0 0 0-.62 1.53l-.01.22v4.749c0 .847.192 1.649.534 2.365A4.001 4.001 0 0 1 2 14.999V11.75a1.75 1.75 0 0 1 1.606-1.744L3.75 10h3.381Zm9.744 0h3.375c.966 0 1.75.784 1.75 1.75V15a4 4 0 0 1-5.03 3.866c.3-.628.484-1.32.525-2.052l.009-.315V11.75c0-.665-.236-1.275-.63-1.75ZM12 3a3 3 0 1 1 0 6 3 3 0 0 1 0-6Zm6.5 1a2.5 2.5 0 1 1 0 5 2.5 2.5 0 0 1 0-5Zm-13 0a2.5 2.5 0 1 1 0 5 2.5 2.5 0 0 1 0-5Z"/></svg>