<svg xmlns="http://www.w3.org/2000/svg" width="48" height="48"><path d="M14.708 6a5.938 5.938 0 0 0-5.736 4.403l-1.773 6.623c.181-.017.365-.026.55-.026h2.045l1.593-5.951a3.438 3.438 0 0 1 3.32-2.549h18.587a3.438 3.438 0 0 1 3.32 2.549l4.756 17.77a3.72 3.72 0 0 1-3.594 4.681H21V36h16.776c4.09 0 7.066-3.878 6.01-7.828l-4.756-17.77A5.938 5.938 0 0 0 33.294 6H14.708ZM34.75 40.5H20.995c.003-.083.005-.166.005-.25V38h13.751a1.25 1.25 0 0 1 0 2.5ZM11.501 29a2.5 2.5 0 1 0 0-5 2.5 2.5 0 0 0 0 5ZM4 22.75A3.75 3.75 0 0 1 7.75 19h7.5A3.75 3.75 0 0 1 19 22.75v17.5A3.75 3.75 0 0 1 15.25 44h-7.5A3.75 3.75 0 0 1 4 40.25v-17.5Zm3.75-1.25c-.69 0-1.25.56-1.25 1.25v17.5c0 .69.56 1.25 1.25 1.25h7.5c.69 0 1.25-.56 1.25-1.25v-17.5c0-.69-.56-1.25-1.25-1.25h-7.5Z"/></svg>