<svg xmlns="http://www.w3.org/2000/svg" width="32" height="32"><path d="M25.134 5.616a1.25 1.25 0 0 0-1.768 1.768l1.402 1.402c-4.94.369-7.931 3.49-10.576 6.25l-.095.1c-2.911 3.038-5.444 5.614-9.847 5.614a1.25 1.25 0 0 0 0 2.5c5.535 0 8.743-3.348 11.558-6.286l.095-.1c2.667-2.782 5.016-5.178 8.776-5.56l-1.313 1.312a1.25 1.25 0 1 0 1.768 1.768l3.5-3.5a1.25 1.25 0 0 0 0-1.768l-3.5-3.5ZM4.25 8.75c4.356 0 7.27 2.073 9.686 4.389-.255.262-.502.52-.744.773l-.178.185c-.278.29-.55.573-.815.845C9.975 12.813 7.68 11.25 4.25 11.25a1.25 1.25 0 1 1 0-2.5Zm20.518 14.464c-3.82-.285-6.474-2.216-8.704-4.353.255-.262.502-.52.744-.773l.177-.185c.28-.291.55-.573.816-.845 1.984 1.899 4.025 3.348 6.878 3.639l-1.313-1.313a1.25 1.25 0 0 1 1.768-1.768l3.5 3.5a1.25 1.25 0 0 1 0 1.768l-3.5 3.5a1.25 1.25 0 0 1-1.768-1.768l1.402-1.402Z"/></svg>