<svg xmlns="http://www.w3.org/2000/svg" width="20" height="20" viewBox="0 0 20 20"><path d="M7 7.5a.5.5 0 0 1 .5-.5h5a.5.5 0 0 1 0 1h-5a.5.5 0 0 1-.5-.5Zm.5 2.5a.5.5 0 0 0 0 1h5a.5.5 0 0 0 0-1h-5ZM7 13.5a.5.5 0 0 1 .5-.5h2a.5.5 0 0 1 0 1h-2a.5.5 0 0 1-.5-.5Zm-1-11a.5.5 0 0 1 1 0V3h2.5v-.5a.5.5 0 0 1 1 0V3H13v-.5a.5.5 0 0 1 1 0V3h.5A1.5 1.5 0 0 1 16 4.5v4.732c-.326.14-.632.342-.898.609L15 9.943V4.5a.5.5 0 0 0-.5-.5h-9a.5.5 0 0 0-.5.5v12a.5.5 0 0 0 .5.5h3.72l-.163.653a1.936 1.936 0 0 0-.054.347H5.5A1.5 1.5 0 0 1 4 16.5v-12A1.5 1.5 0 0 1 5.5 3H6v-.5Zm9.81 8.048-4.83 4.83a2.197 2.197 0 0 0-.578 1.02l-.375 1.498a.89.89 0 0 0 1.079 1.078l1.498-.374a2.194 2.194 0 0 0 1.02-.578l4.83-4.83a1.87 1.87 0 0 0-2.645-2.644Z"/></svg>