<svg xmlns="http://www.w3.org/2000/svg" width="28" height="28"><path d="M15.083 6.283A1.75 1.75 0 0 1 15.168 5H6.25l-.184.005A3.25 3.25 0 0 0 3 8.25v11.5l.005.184A3.25 3.25 0 0 0 6.25 23h15.5l.184-.005A3.25 3.25 0 0 0 25 19.75V10.5h-3.973L14 14.155 4.5 9.214V8.25l.006-.144A1.75 1.75 0 0 1 6.25 6.5h8.919a1.753 1.753 0 0 1-.086-.217Zm-.737 9.382 9.154-4.76v8.845l-.006.143A1.75 1.75 0 0 1 21.75 21.5H6.25l-.144-.006A1.75 1.75 0 0 1 4.5 19.75v-8.845l9.154 4.76.111.047c.19.063.4.047.581-.047ZM16 2.75a.75.75 0 0 1 .75-.75h8.5a.75.75 0 1 1 0 1.5h-8.5a.75.75 0 0 1-.75-.75ZM16.75 5a.75.75 0 0 0 0 1.5h8.5a.75.75 0 0 0 0-1.5h-8.5ZM16 8.75a.75.75 0 0 1 .75-.75h8.5a.75.75 0 0 1 0 1.5h-8.5a.75.75 0 0 1-.75-.75Z"/></svg>