<svg xmlns="http://www.w3.org/2000/svg" width="48" height="48"><path d="M15 17a6 6 0 1 0 0-12 6 6 0 0 0 0 12Zm18 0a6 6 0 1 0 0-12 6 6 0 0 0 0 12ZM4 22.446A3.446 3.446 0 0 1 7.446 19h9.624A7.963 7.963 0 0 0 16 23a7.98 7.98 0 0 0 2.708 6h-2.262a5.444 5.444 0 0 0-4.707 2.705c-3.222-.632-5.18-2.203-6.32-3.968C4 25.54 4 23.27 4 22.877v-.43ZM31.554 29a5.444 5.444 0 0 1 4.707 2.705c3.222-.632 5.18-2.203 6.32-3.968C44 25.54 44 23.27 44 22.877v-.43A3.446 3.446 0 0 0 40.554 19H30.93A7.963 7.963 0 0 1 32 23a7.98 7.98 0 0 1-2.708 6h2.262ZM30 23a6 6 0 1 1-12 0 6 6 0 0 1 12 0ZM13 34.446A3.446 3.446 0 0 1 16.446 31h15.108A3.446 3.446 0 0 1 35 34.446v.431c0 .394 0 2.663-1.419 4.86C32.098 42.033 29.233 44 24 44s-8.098-1.967-9.581-4.263C13 37.54 13 35.27 13 34.877v-.43Z"/></svg>