<svg xmlns="http://www.w3.org/2000/svg" width="24" height="24" viewBox="0 0 24 24"><path d="M10.788 3.102c.495-1.003 1.926-1.003 2.421 0l2.358 4.778 5.273.766c1.107.16 1.549 1.522.748 2.303l-.905.882a6.462 6.462 0 0 0-1.517-.616l1.157-1.128-5.05-.734a1.35 1.35 0 0 1-1.016-.739L11.998 4.04 9.74 8.614a1.35 1.35 0 0 1-1.016.739l-5.05.734 3.654 3.562c.318.31.463.757.388 1.195l-.862 5.029 4.149-2.181c.015.542.098 1.067.238 1.569l-3.958 2.081c-.99.52-2.148-.32-1.96-1.423l.901-5.251-3.815-3.72c-.801-.78-.359-2.141.748-2.302L8.43 7.88l2.358-4.778ZM23 17.5a5.5 5.5 0 1 1-11 0 5.5 5.5 0 0 1 11 0Zm-8.5-.5a.5.5 0 0 0 0 1h4.793l-1.647 1.646a.5.5 0 0 0 .708.707l2.5-2.5a.5.5 0 0 0 0-.707l-2.5-2.5a.5.5 0 0 0-.708.707L19.293 17H14.5Z"/></svg>