<svg xmlns="http://www.w3.org/2000/svg" width="48" height="48"><path d="M5.25 6.5a1.25 1.25 0 1 0 0 2.5h37.5a1.25 1.25 0 1 0 0-2.5H5.25ZM26 15.75a4.25 4.25 0 0 1 4.25-4.25h5.5A4.25 4.25 0 0 1 40 15.75v15A4.25 4.25 0 0 1 35.75 35h-5.5A4.25 4.25 0 0 1 26 30.75v-15ZM30.25 14a1.75 1.75 0 0 0-1.75 1.75v15c0 .966.784 1.75 1.75 1.75h5.5a1.75 1.75 0 0 0 1.75-1.75v-15A1.75 1.75 0 0 0 35.75 14h-5.5Zm-18-2.5h5.5A4.25 4.25 0 0 1 22 15.75V38a4.25 4.25 0 0 1-4.25 4.25h-5.5A4.25 4.25 0 0 1 8 38V15.75a4.25 4.25 0 0 1 4.25-4.25Zm5.5 2.5h-5.5a1.75 1.75 0 0 0-1.75 1.75V38c0 .967.784 1.75 1.75 1.75h5.5A1.75 1.75 0 0 0 19.5 38V15.75A1.75 1.75 0 0 0 17.75 14Z"/></svg>