<svg xmlns="http://www.w3.org/2000/svg" width="32" height="32" viewBox="0 0 32 32"><path d="M18.105 2.778a3.25 3.25 0 0 0-4.21 0l-9.75 8.287A3.25 3.25 0 0 0 3 13.541v12.215A3.245 3.245 0 0 0 6.245 29h19.51A3.245 3.245 0 0 0 29 25.756V13.54a3.25 3.25 0 0 0-1.145-2.476l-9.75-8.287ZM12 16.5a1.5 1.5 0 1 1-3 0 1.5 1.5 0 0 1 3 0ZM10.5 23a1.5 1.5 0 1 1 0-3 1.5 1.5 0 0 1 0 3Zm5.5 0a1.5 1.5 0 1 1 0-3 1.5 1.5 0 0 1 0 3Zm0-5a1.5 1.5 0 1 1 0-3 1.5 1.5 0 0 1 0 3Zm5.5 0a1.5 1.5 0 1 1 0-3 1.5 1.5 0 0 1 0 3Zm0 5a1.5 1.5 0 1 1 0-3 1.5 1.5 0 0 1 0 3Z"/></svg>