<svg xmlns="http://www.w3.org/2000/svg" width="24" height="24" viewBox="0 0 24 24"><path d="M17.954 4.1a2.077 2.077 0 0 1 2.938 2.938.76.76 0 0 0-.072.084l-4.181 4.18a.672.672 0 0 1-.95-.95l3.834-3.823a.75.75 0 1 0-1.06-1.062L14.63 9.291a2.17 2.17 0 1 0 3.07 3.07l4.325-4.323a.755.755 0 0 0 .1-.124 3.577 3.577 0 0 0-5.23-4.874l-3.678 3.678a.75.75 0 1 0 1.06 1.06L17.954 4.1Zm-4.872 7.476-1.086.572L3.5 7.676v-.428l.006-.144A1.75 1.75 0 0 1 5.25 5.498h7.772L14.521 4H5.248l-.185.005A3.249 3.249 0 0 0 2 7.248v9.496l.005.184a3.249 3.249 0 0 0 3.244 3.064h13.495l.184-.005a3.249 3.249 0 0 0 3.064-3.243V9.482l-1.499 1.5v5.762l-.006.143a1.75 1.75 0 0 1-1.743 1.606H5.249l-.144-.006A1.75 1.75 0 0 1 3.5 16.744V9.37l8.148 4.288.096.042a.75.75 0 0 0 .602-.042l1.427-.751a3.152 3.152 0 0 1-.69-1.332Z"/></svg>