<svg xmlns="http://www.w3.org/2000/svg" width="20" height="20" viewBox="0 0 20 20"><path d="M2 6a3 3 0 0 1 3-3h8a3 3 0 0 1 3 3v3.209a5.499 5.499 0 0 0-3 0V6.5a.5.5 0 0 0-1 0v3.101a5.5 5.5 0 0 0-2.5 2.608V10.5a.5.5 0 0 0-1 0v3a.5.5 0 0 0 .523.5 5.5 5.5 0 0 0 .578 3H5a3 3 0 0 1-3-3V6Zm3.5 2a.5.5 0 0 0-.5.5v5a.5.5 0 0 0 1 0v-5a.5.5 0 0 0-.5-.5Zm6.566 3.442a2 2 0 0 1-1.43 2.478l-.462.118a4.704 4.704 0 0 0 .01 1.016l.35.083a2 2 0 0 1 1.456 2.519l-.127.423c.258.203.537.377.835.517l.325-.344a2 2 0 0 1 2.91.002l.337.358c.292-.135.568-.302.822-.498l-.156-.556a2 2 0 0 1 1.43-2.478l.46-.118a4.731 4.731 0 0 0-.01-1.017l-.348-.082a2 2 0 0 1-1.456-2.52l.126-.421a4.318 4.318 0 0 0-.835-.519l-.325.344a2 2 0 0 1-2.91-.001l-.337-.358a4.316 4.316 0 0 0-.822.497l.157.557ZM14.5 15.5a1 1 0 1 1 0-2 1 1 0 0 1 0 2Z"/></svg>