<svg xmlns="http://www.w3.org/2000/svg" width="20" height="20"><path d="M18 4.75v5.507a5.495 5.495 0 0 0-1.5-.882V4.75a.25.25 0 0 0-.25-.25H12c-.69 0-1.25.56-1.25 1.25v4.727a5.502 5.502 0 0 0-1.5 2.379V5.75c0-.69-.56-1.25-1.25-1.25H3.75a.25.25 0 0 0-.25.25v10.5c0 .138.112.25.25.25H8c.421 0 .794-.208 1.02-.527.049.574.186 1.123.398 1.634-.414.25-.9.393-1.418.393H3.75A1.75 1.75 0 0 1 2 15.25V4.75C2 3.784 2.784 3 3.75 3H8c.788 0 1.499.331 2 .863A2.742 2.742 0 0 1 12 3h4.25c.966 0 1.75.784 1.75 1.75Z"/><path d="M13.01 14c.047-1.128.25-2.123.54-2.85.167-.417.353-.722.535-.914.18-.19.32-.236.415-.236.094 0 .235.046.415.236.182.192.368.497.535.914.29.727.493 1.722.54 2.85h-2.98Zm-.389-3.221c.064-.16.134-.314.208-.459A4.504 4.504 0 0 0 10.027 14h1.982c.048-1.234.268-2.36.612-3.221Zm3.757 0a5.346 5.346 0 0 0-.207-.459A4.504 4.504 0 0 1 18.973 14H16.99c-.048-1.234-.268-2.36-.613-3.221ZM16.99 15h1.983a4.504 4.504 0 0 1-2.802 3.68c.074-.145.143-.299.207-.459.345-.862.565-1.987.613-3.221Zm-2.075 3.764c-.18.19-.32.236-.415.236-.094 0-.235-.046-.415-.236-.182-.192-.368-.497-.535-.914-.29-.727-.493-1.722-.54-2.85h2.98c-.047 1.128-.25 2.123-.54 2.85-.167.417-.353.722-.535.913ZM10.027 15a4.504 4.504 0 0 0 2.803 3.68 5.346 5.346 0 0 1-.209-.459c-.344-.862-.564-1.987-.612-3.221h-1.982Z"/></svg>