<svg xmlns="http://www.w3.org/2000/svg" width="20" height="20"><path d="M5.94 3.474 3.474 5.94a1.5 1.5 0 0 0 0 2.121l2.962 2.962a2.978 2.978 0 0 0-.599.816l-3.07-3.07a2.5 2.5 0 0 1 0-3.536l2.464-2.465a2.5 2.5 0 0 1 3.536 0l2.536 2.537a2.51 2.51 0 0 0-.767.647L8.061 3.475a1.5 1.5 0 0 0-2.122 0ZM15.914 7A1.5 1.5 0 0 0 14.5 6h-2a1.5 1.5 0 0 0-1.415 1H11a2 2 0 0 0-2 2v2.31a2.765 2.765 0 0 0-.562-.06c-.354 0-.763.078-1.13.345-.372.27-.646.695-.793 1.283a.5.5 0 0 0 .288.581 8.038 8.038 0 0 1 3.62 3.033c.529.818 1.438 1.508 2.518 1.508h1.823A2.5 2.5 0 0 0 17 16.617l.63-1.261A3.5 3.5 0 0 0 18 13.79V9a2 2 0 0 0-2-2h-.085ZM14 7h.5a.5.5 0 0 1 .5.5v4a.5.5 0 1 0 1 0V8a1 1 0 0 1 1 1v4.791c0 .388-.09.771-.264 1.118l-.63 1.261a1.5 1.5 0 0 1-1.342.83h-1.822c-.642 0-1.273-.422-1.678-1.05a9.015 9.015 0 0 0-3.64-3.214.914.914 0 0 1 .272-.332.899.899 0 0 1 .542-.155c.211 0 .423.048.59.102a2.342 2.342 0 0 1 .24.091l.009.005h.001A.5.5 0 0 0 10 12V9a1 1 0 0 1 1-1v3.5a.5.5 0 1 0 1 0v-4a.5.5 0 0 1 .5-.5h.5v4.5a.5.5 0 1 0 1 0V7ZM3.5 12a.5.5 0 0 1 .5.5v.5h.5a.5.5 0 0 1 0 1H4v.5a.5.5 0 1 1-1 0V14h-.5a.5.5 0 1 1 0-1H3v-.5a.5.5 0 0 1 .5-.5ZM7 15.5a.5.5 0 0 0-1 0v.5h-.5a.5.5 0 0 0 0 1H6v.5a.5.5 0 1 0 1 0V17h.5a.5.5 0 1 0 0-1H7v-.5Z"/></svg>