<svg xmlns="http://www.w3.org/2000/svg" width="48" height="48" viewBox="0 0 48 48"><path d="M6 12.25A6.25 6.25 0 0 1 12.25 6h23.5A6.25 6.25 0 0 1 42 12.25v23.5A6.25 6.25 0 0 1 35.75 42H16.413A3.255 3.255 0 0 0 14 39.587V39.5h21.75a3.75 3.75 0 0 0 3.75-3.75V18.5h-31V20H6v-7.75Zm33.5 0a3.75 3.75 0 0 0-3.75-3.75h-23.5a3.75 3.75 0 0 0-3.75 3.75V16h31v-3.75Zm-21.5 0a2 2 0 1 1-4 0 2 2 0 0 1 4 0Zm6 0c0-.69.56-1.25 1.25-1.25h7.5a1.25 1.25 0 1 1 0 2.5h-7.5c-.69 0-1.25-.56-1.25-1.25ZM5.25 22C4.56 22 4 22.56 4 23.25v5c0 3.3 2.37 6.048 5.5 6.635V41.5H8.25a1.25 1.25 0 1 0 0 2.5h5a1.25 1.25 0 1 0 0-2.5H12v-6.615a6.752 6.752 0 0 0 5.5-6.635v-5c0-.69-.56-1.25-1.25-1.25h-11Z"/></svg>