<svg xmlns="http://www.w3.org/2000/svg" width="48" height="48" viewBox="0 0 48 48"><path d="M16.5 25.5a2 2 0 1 1-4 0 2 2 0 0 1 4 0Z"/><path d="M10.75 5A5.75 5.75 0 0 0 5 10.75v21.5A5.75 5.75 0 0 0 10.75 38h21.5A5.75 5.75 0 0 0 38 32.25v-21.5A5.75 5.75 0 0 0 32.25 5h-21.5ZM19 25.5a4.5 4.5 0 1 1-9 0 4.5 4.5 0 0 1 9 0Zm-9-10.25c0-.69.56-1.25 1.25-1.25h20.5a1.25 1.25 0 1 1 0 2.5h-20.5c-.69 0-1.25-.56-1.25-1.25Zm12.25 9.25h9.5a1.25 1.25 0 1 1 0 2.5h-9.5a1.25 1.25 0 1 1 0-2.5Z"/><path d="M15.25 42.5a5.744 5.744 0 0 1-4.747-2.504c.082.003.164.004.247.004h21.5A7.75 7.75 0 0 0 40 32.25v-21.5c0-.082-.002-.165-.004-.247A5.744 5.744 0 0 1 42.5 15.25v17c0 5.66-4.59 10.25-10.25 10.25h-17Z"/></svg>