<svg xmlns="http://www.w3.org/2000/svg" width="20" height="20" viewBox="0 0 20 20"><path d="M9.314 2.036a.5.5 0 0 1 .344-.01l6 2a.5.5 0 0 1 .068.92l-.005.002-.02.01-.078.043a9.676 9.676 0 0 0-1.207.785 5.75 5.75 0 0 0-.937.876c-.22.267-.374.529-.45.777l1.859 3.719 1.999 1.332A2.5 2.5 0 0 1 18 14.57v1.93a.5.5 0 0 1-.477.5l-.023-.5.023.5h-.038a12.791 12.791 0 0 1-.47.004 21.978 21.978 0 0 1-5.653-.837c-3.326-.958-7.23-3.025-9.314-7.454a.5.5 0 0 1 .005-.437c.643-1.285 1.825-2.587 3.139-3.685 1.318-1.1 2.813-2.032 4.122-2.555ZM17 15.466c-7.413-.6-11.411-4.196-13.55-7.58a6.924 6.924 0 0 0-.39.624c1.94 3.919 5.463 5.798 8.579 6.697a20.971 20.971 0 0 0 5.361.798v-.54ZM5.96 5.253l1.894 1.893a.5.5 0 0 1 .141.425l-.485 3.394c.703.563 1.496 1.09 2.391 1.556l1.486-1.596-2.324-4.182a.5.5 0 0 1 .595-.717l2.52.84a3.62 3.62 0 0 1 .53-.84 6.776 6.776 0 0 1 1.1-1.034 9.04 9.04 0 0 1 .503-.361L9.518 3.033C8.405 3.504 7.125 4.3 5.96 5.253Zm7.799 8.695c.992.24 2.069.415 3.237.514a1.5 1.5 0 0 0-.664-1.14l-1.65-1.1-.923 1.726Z"/></svg>