<svg xmlns="http://www.w3.org/2000/svg" width="24" height="24" viewBox="0 0 24 24"><path d="M7.745 19.5h8.501a.75.75 0 0 1 .102 1.493l-.102.007H7.745a.75.75 0 0 1-.102-1.493l.102-.007h8.501-8.501ZM4.75 16.52h14.5a.75.75 0 0 1 .102 1.492l-.102.007H4.75a.75.75 0 0 1-.102-1.493l.102-.007ZM12 3.004c3.168 0 4.966 2.097 5.227 4.63h.08A3.687 3.687 0 0 1 21 11.318 3.687 3.687 0 0 1 17.307 15H6.693A3.687 3.687 0 0 1 3 11.318a3.687 3.687 0 0 1 3.693-3.683h.08c.262-2.55 2.058-4.63 5.227-4.63Zm0 1.497c-2.071 0-3.877 1.634-3.877 3.89 0 .357-.319.638-.684.638h-.69c-1.261 0-2.284 1-2.284 2.236 0 1.235 1.023 2.236 2.284 2.236H17.25c1.261 0 2.284-1 2.284-2.236 0-1.235-1.023-2.236-2.284-2.236h-.69c-.365 0-.684-.28-.684-.638 0-2.285-1.806-3.89-3.877-3.89Z"/></svg>