<svg xmlns="http://www.w3.org/2000/svg" width="24" height="24" viewBox="0 0 24 24"><path d="M19.75 2A2.25 2.25 0 0 1 22 4.25v5.462a3.25 3.25 0 0 1-.952 2.298l-.026.026a6.5 6.5 0 0 0-9.028 8.92 3.256 3.256 0 0 1-4.043-.442L3.489 16.06a3.25 3.25 0 0 1-.004-4.596l8.5-8.51a3.25 3.25 0 0 1 2.3-.953h5.465ZM17 5.502a1.5 1.5 0 1 0 0 3 1.5 1.5 0 0 0 0-3ZM23 17.5a5.5 5.5 0 1 1-11 0 5.5 5.5 0 0 1 11 0Zm-7.147-2.354a.5.5 0 0 0-.707.708l1.647 1.646-1.647 1.646a.5.5 0 0 0 .707.708l1.647-1.647 1.646 1.647a.5.5 0 0 0 .707-.708L18.207 17.5l1.646-1.646a.5.5 0 0 0-.707-.708L17.5 16.793l-1.647-1.647Z"/></svg>