<svg xmlns="http://www.w3.org/2000/svg" width="24" height="24"><path d="m7.426 2.83-3.321 9.323a1.75 1.75 0 0 0 1.642 2.337l1.568.006-1.27 5.668c-.33 1.478 1.488 2.46 2.542 1.372l5.022-5.183a85.147 85.147 0 0 0-.182-.741 43.057 43.057 0 0 0-.366-1.38 3.75 3.75 0 1 1 .64-3.95c.423.062.869.215 1.285.513.558.398.935.964 1.157 1.603.1.258.212.618.322 1.007l3.183-3.285c.768-.793.206-2.12-.898-2.12h-3.959l1.452-4.355A1.25 1.25 0 0 0 15.057 2H8.604c-.53 0-1 .333-1.178.83Zm4.074 8.92a1.25 1.25 0 1 0-2.5 0 1.25 1.25 0 0 0 2.5 0Zm1.313 1a2.751 2.751 0 1 1 .142-1.5h.295c.376 0 .786.095 1.155.358.365.261.633.647.8 1.134.188.482.446 1.459.648 2.264a89.582 89.582 0 0 1 .348 1.447l.021.09c.082.232.18.332.245.378.07.05.16.079.283.079h.761a2.75 2.75 0 1 1 .289 1.5h-1.05c-.376 0-.786-.095-1.155-.358-.37-.265-.64-.658-.806-1.155a.744.744 0 0 1-.02-.07l-.008-.032-.02-.093a88.514 88.514 0 0 0-.344-1.423c-.212-.85-.45-1.731-.593-2.09a.755.755 0 0 1-.015-.042c-.085-.253-.189-.36-.256-.408a.469.469 0 0 0-.283-.079h-.438Zm7.437 5.75a1.25 1.25 0 1 0 0-2.5 1.25 1.25 0 0 0 0 2.5Z"/></svg>