<svg xmlns="http://www.w3.org/2000/svg" width="20" height="20" viewBox="0 0 20 20"><path d="M6 3a3 3 0 0 0-3 3v8a3 3 0 0 0 3 3h3.6a5.465 5.465 0 0 1-.393-1H6a2 2 0 0 1-2-2V7h12v2.207c.349.099.683.23 1 .393V6a3 3 0 0 0-3-3H6ZM4 6a2 2 0 0 1 2-2h8a2 2 0 0 1 2 2H4Zm10.085 3.015A.556.556 0 0 0 13.95 9h-4.4a.556.556 0 0 0-.505.306.462.462 0 0 0 .118.542v.004A.56.56 0 0 0 9.55 10h1.787a5.47 5.47 0 0 1 2.748-.985Zm-8.507.095a.97.97 0 0 0-.078.39 1.2 1.2 0 0 0 .078.4.841.841 0 0 0 .211.31c.094.09.202.16.32.212a.97.97 0 0 0 .391.078.83.83 0 0 0 .391-.078 1.08 1.08 0 0 0 .32-.22A.972.972 0 0 0 7.5 9.5a1.01 1.01 0 0 0-.078-.39.926.926 0 0 0-.219-.32 1.133 1.133 0 0 0-.32-.211A.954.954 0 0 0 6.5 8.5a.856.856 0 0 0-.391.08 1.015 1.015 0 0 0-.531.529ZM5.5 13.5a.97.97 0 0 1 .289-.703 1.1 1.1 0 0 1 .32-.218.844.844 0 0 1 .391-.08.94.94 0 0 1 .383.08c.118.05.226.122.32.21.095.09.17.2.219.32a1.006 1.006 0 0 1-.531 1.313.83.83 0 0 1-.391.078.97.97 0 0 1-.391-.078 1.103 1.103 0 0 1-.32-.211.842.842 0 0 1-.211-.312 1.2 1.2 0 0 1-.078-.4ZM17 18.242a4.5 4.5 0 1 1-5-7.484 4.5 4.5 0 0 1 5 7.484Zm-2.146-6.096A.5.5 0 0 0 14 12.5V14h-1.5a.5.5 0 0 0 0 1H14v1.5a.5.5 0 0 0 1 0V15h1.5a.5.5 0 0 0 0-1H15v-1.5a.5.5 0 0 0-.146-.354Z"/></svg>