<svg xmlns="http://www.w3.org/2000/svg" width="20" height="20"><path d="M4.75 4A2.75 2.75 0 0 0 2 6.75v6.5A2.75 2.75 0 0 0 4.75 16H9v-1H4.75A1.75 1.75 0 0 1 3 13.25V9h15V6.75A2.75 2.75 0 0 0 15.25 4H4.75ZM3 6.75C3 5.784 3.784 5 4.75 5h10.5c.966 0 1.75.784 1.75 1.75V8H3V6.75ZM12 12v-.5a1.5 1.5 0 0 1 1.5-1.5h2a1.5 1.5 0 0 1 1.5 1.5v.5h.5a1.5 1.5 0 0 1 1.5 1.5V15h-2v-.5a.5.5 0 0 0-1 0v.5h-3v-.5a.5.5 0 0 0-1 0v.5h-2v-1.5a1.5 1.5 0 0 1 1.5-1.5h.5Zm1-.5v.5h3v-.5a.5.5 0 0 0-.5-.5h-2a.5.5 0 0 0-.5.5Zm4 5V16h2v1.5a1.5 1.5 0 0 1-1.5 1.5h-6a1.5 1.5 0 0 1-1.5-1.5V16h2v.5a.5.5 0 0 0 1 0V16h3v.5a.5.5 0 0 0 1 0Z"/></svg>