<svg xmlns="http://www.w3.org/2000/svg" width="48" height="48" viewBox="0 0 48 48"><path d="M17.644 19.018h3.71l-1.856-4.494-1.854 4.494ZM11.25 6A5.25 5.25 0 0 0 6 11.25v25.5C6 39.65 8.35 42 11.25 42h13.269a12.94 12.94 0 0 1-2.044-7c0-1.584.283-3.101.802-4.504H11.25a1.25 1.25 0 1 1 0-2.5h13.271A12.99 12.99 0 0 1 35.475 22c2.378 0 4.607.639 6.525 1.754V11.25C42 8.35 39.65 6 36.75 6h-25.5ZM10 35.25c0-.69.56-1.25 1.25-1.25h8.008a1.25 1.25 0 0 1 0 2.5H11.25c-.69 0-1.25-.56-1.25-1.25Zm9.498-25.252c.506 0 .962.305 1.155.773l4.752 11.506a1.25 1.25 0 0 1-2.31.954l-.708-1.713h-5.775l-.707 1.713a1.25 1.25 0 1 1-2.31-.954l4.747-11.506a1.25 1.25 0 0 1 1.156-.773Zm12.25 0c.69 0 1.25.56 1.25 1.25V14h2.752a1.25 1.25 0 1 1 0 2.5h-2.752v2.748a1.25 1.25 0 0 1-2.5 0V16.5H27.75a1.25 1.25 0 1 1 0-2.5h2.748v-2.752c0-.69.56-1.25 1.25-1.25ZM46.475 35c0 6.075-4.925 11-11 11s-11-4.925-11-11 4.925-11 11-11 11 4.925 11 11Zm-10-7a1 1 0 1 0-2 0v6h-6a1 1 0 1 0 0 2h6v6a1 1 0 1 0 2 0v-6h6a1 1 0 1 0 0-2h-6v-6Z"/></svg>