<svg xmlns="http://www.w3.org/2000/svg" width="16" height="16" viewBox="0 0 16 16"><path d="M12.809 13.516A2.74 2.74 0 0 1 11.25 14h-6.5A2.75 2.75 0 0 1 2 11.25v-6.5c0-.579.179-1.116.484-1.559L1.146 1.854a.5.5 0 1 1 .708-.708l13 13a.5.5 0 0 1-.708.708l-1.337-1.338Zm-1.102-1.102-8.12-8.12a1.247 1.247 0 0 0-.087.456v6.5c0 .69.56 1.25 1.25 1.25h6.5c.161 0 .315-.03.457-.086ZM8.53 6.409l1.061 1.06L12.5 4.562V7.25a.75.75 0 1 0 1.5 0v-4.5a.75.75 0 0 0-.75-.75h-4.5a.75.75 0 1 0 0 1.5h2.69L8.53 6.409Zm5.41 5.41-1.44-1.44V9.75a.75.75 0 0 1 1.5 0v1.5c0 .195-.02.386-.06.57ZM4.18 2.06 5.621 3.5h.629a.75.75 0 0 0 0-1.5h-1.5c-.195 0-.386.02-.57.06Z"/></svg>