<svg xmlns="http://www.w3.org/2000/svg" width="28" height="28" viewBox="0 0 28 28"><path d="M18.171 6.829a3.157 3.157 0 0 1 .761 1.238l.498 1.53a.605.605 0 0 0 1.14 0l.498-1.53a3.15 3.15 0 0 1 1.998-1.996l1.53-.497a.605.605 0 0 0 0-1.14l-.03-.008-1.531-.497a3.154 3.154 0 0 1-1.998-1.996L20.54.403a.604.604 0 0 0-1.14 0l-.498 1.53-.013.038a3.152 3.152 0 0 1-.462.872l-.005-.002a3.155 3.155 0 0 1-1.479 1.077l.013.004a3.596 3.596 0 0 1-.022.007l-1.53.497a.605.605 0 0 0 0 1.14l1.53.497c.467.156.89.418 1.237.766Zm8.65 3.529.918.298.019.004a.362.362 0 0 1 0 .684l-.919.299a1.892 1.892 0 0 0-.951.707.07.07 0 0 1 0 .005c-.105.15-.188.314-.246.489l-.3.918a.363.363 0 0 1-.684 0l-.19-.58v-.008l-.109-.334a1.891 1.891 0 0 0-1.198-1.202l-.919-.298a.362.362 0 0 1 0-.684l.919-.299c.206-.07.398-.177.568-.313l.071-.062h.002l.09-.085a1.89 1.89 0 0 0 .449-.737l.299-.918a.363.363 0 0 1 .684 0l.298.918a1.89 1.89 0 0 0 1.199 1.197Zm-2.027 4.628a1.362 1.362 0 0 1-.331-.095C24.01 20.273 19.499 24.5 14 24.5 8.201 24.5 3.5 19.799 3.5 14S8.201 3.5 14 3.5c.315 0 .627.014.934.041.054-.025.109-.047.165-.066l1.513-.491c.3-.104.573-.272.8-.492A12.003 12.003 0 0 0 14 2C7.373 2 2 7.373 2 14s5.373 12 12 12c6.432 0 11.682-5.06 11.986-11.418a1.362 1.362 0 0 1-1.193.404ZM10.5 13a1.5 1.5 0 1 0 0-3 1.5 1.5 0 0 0 0 3Zm8.5-1.5a1.5 1.5 0 1 1-3 0 1.5 1.5 0 0 1 3 0ZM8.328 17.13a.75.75 0 0 1 1.04.195l.009.012.044.059c.042.054.11.136.203.238.187.203.472.48.858.757.768.553 1.93 1.109 3.518 1.109 1.588 0 2.75-.556 3.518-1.109.386-.277.672-.554.858-.757a4.068 4.068 0 0 0 .248-.297l.007-.01a.75.75 0 0 1 1.24.845l-.002.001v.002l-.003.003-.007.01-.022.031a5.508 5.508 0 0 1-.355.428 7.137 7.137 0 0 1-1.088.962C17.424 20.306 15.962 21 14 21c-1.962 0-3.424-.694-4.394-1.391a7.137 7.137 0 0 1-1.088-.962 5.505 5.505 0 0 1-.376-.458l-.008-.01-.002-.004-.001-.002-.001-.001a.75.75 0 0 1 .198-1.042Z"/></svg>