<svg xmlns="http://www.w3.org/2000/svg" width="20" height="20"><path d="M10.25 3.6c.442-.332 1.005-.65 1.65-.65a.75.75 0 0 1 .123.01c.427.072.767.23 1.062.503.24.224.435.516.611.78l1.075-1.073a.75.75 0 1 1 1.06 1.06l-1.336 1.337a26 26 0 0 1 .375.698c.083.165.179.245.382.3a.666.666 0 0 0 .157.01.073.073 0 0 0 .03-.008.512.512 0 0 0 .096-.072c.06-.053.129-.12.234-.225a.75.75 0 0 1 1.06 1.06l-.033.034c-.17.17-.4.4-.686.545-.36.18-.733.198-1.134.131a.743.743 0 0 1-.059-.012c-.576-.144-1.075-.466-1.389-1.092a12.181 12.181 0 0 0-.139-.264l-1.058 1.059a.75.75 0 1 1-1.06-1.061l1.346-1.346a3.01 3.01 0 0 0-.142-.208c-.216-.325-.315-.464-.411-.554a.418.418 0 0 0-.22-.109c-.154.018-.377.11-.695.347a.75.75 0 0 1-.9-1.2ZM5.4 16.3H6c1.4-.1 2.8-.7 3.9-2 .3-.4.2-.8-.1-1.1-.3-.2-.8-.2-1.2.1-.9.7-1.9 1.4-3.1 1.4-.6 0-1.2-.5-1.3-1.1-.1-.5 0-1.1.2-1.6 1.6.1 3.8-.1 4.8-1.3.8-.9 1-2.4 0-3.3-.4-.4-.9-.5-1.4-.5-.9 0-1.8.5-2.6 1.3-1.3 1.3-2.6 3.5-2.4 5.6.1 1.5 1.4 2.4 2.6 2.5Zm.8-7.1c.6-.5 1.1-.8 1.6-.8.2 0 .5.1.6.3.2.3 0 .8-.2 1-.5.5-1.8.8-3 .8.3-.5.6-.9 1-1.3Z"/></svg>