<svg xmlns="http://www.w3.org/2000/svg" width="24" height="24"><path d="M10.212 17.11 15.043 3.5c.223-.627 1.07-.664 1.365-.111l.049.11 5.5 15.5a.75.75 0 0 1-1.373.596l-.04-.094L18.945 15h-6.394l-1.58 4.452a.75.75 0 0 1-.354.452l-.093.044a.75.75 0 0 1-.929-.33l-.044-.092L8.556 17H4.443l-.995 2.52a.75.75 0 0 1-.876.454l-.098-.031a.75.75 0 0 1-.452-.876l.03-.098 3.754-9.495a.75.75 0 0 1 1.345-.104l.05.105 3.011 7.635L15.043 3.5l-4.831 13.61Zm-3.71-5.318L5.037 15.5h2.928l-1.461-3.708Zm9.248-5.8L13.084 13.5h5.33L15.75 5.992Z"/></svg>