<svg xmlns="http://www.w3.org/2000/svg" width="24" height="24" viewBox="0 0 24 24"><path d="M14 3H6.25A3.25 3.25 0 0 0 3 6.25V8.5h11V3Zm1.5 5.5H21V6.25A3.25 3.25 0 0 0 17.75 3H15.5v5.5ZM10 10v4h2.022a6.495 6.495 0 0 1 5.478-3 6.47 6.47 0 0 1 3.5 1.022V10H10Zm-7 5.5h8.313a6.497 6.497 0 0 0-.313 2 6.47 6.47 0 0 0 1.022 3.5H6.25A3.25 3.25 0 0 1 3 17.75V15.5ZM8.5 10H3v4h5.5v-4Zm9 13a5.5 5.5 0 1 0 0-11 5.5 5.5 0 0 0 0 11Zm-2-3h4a.5.5 0 0 1 0 1h-4a.5.5 0 0 1 0-1Zm3.39-5.812a.5.5 0 0 1-.078.702L16.8 16.5l2.012 1.61a.5.5 0 1 1-.624.78l-2.5-2a.5.5 0 0 1 0-.78l2.5-2a.5.5 0 0 1 .702.078Z"/></svg>