<svg xmlns="http://www.w3.org/2000/svg" width="24" height="24" viewBox="0 0 24 24"><path d="M3 5.25A2.25 2.25 0 0 1 5.25 3h9.5A2.25 2.25 0 0 1 17 5.25V14h4v3.75A3.25 3.25 0 0 1 17.75 21H6.25A3.25 3.25 0 0 1 3 17.75V5.25ZM17 19.5h.75a1.75 1.75 0 0 0 1.75-1.75V15.5H17v4ZM5.25 4.5a.75.75 0 0 0-.75.75v12.5c0 .966.784 1.75 1.75 1.75h9.25V5.25a.75.75 0 0 0-.75-.75h-9.5Zm2 2.5a.75.75 0 0 0 0 1.5h5.5a.75.75 0 0 0 0-1.5h-5.5Zm-.75 4.75a.75.75 0 0 1 .75-.75h5.5a.75.75 0 0 1 0 1.5h-5.5a.75.75 0 0 1-.75-.75ZM7.25 15a.75.75 0 0 0 0 1.5h3a.75.75 0 0 0 0-1.5h-3Z"/></svg>