<svg xmlns="http://www.w3.org/2000/svg" width="24" height="24" viewBox="0 0 24 24"><path d="M6.5 12a5.5 5.5 0 1 1 0 11 5.5 5.5 0 0 1 0-11ZM16.749 2a2.25 2.25 0 0 1 2.25 2.25v15.5a2.25 2.25 0 0 1-2.25 2.25h-5.56A6.5 6.5 0 0 0 4 11.498V4.251A2.25 2.25 0 0 1 6.251 2H16.75ZM6.5 19.88a.625.625 0 1 0 0 1.249.625.625 0 0 0 0-1.249Zm0-5.877c-1.048 0-1.864.817-1.853 1.954a.5.5 0 0 0 1-.01c-.006-.578.36-.944.853-.944.472 0 .853.392.853.95 0 .224-.075.39-.317.677l-.1.113-.265.29c-.484.542-.671.892-.671 1.468a.5.5 0 0 0 1 0c0-.233.076-.403.324-.695l.1-.115.266-.29c.478-.535.663-.882.663-1.448 0-1.104-.822-1.95-1.853-1.95Zm14.25.999a.75.75 0 0 1 .743.648l.007.102v1.498a.75.75 0 0 1-.648.743L20.75 18H20v-2.998h.75Zm0-4a.75.75 0 0 1 .743.648l.007.102v1.498a.75.75 0 0 1-.648.743L20.75 14H20v-2.998h.75Zm0-4a.75.75 0 0 1 .743.648l.007.102V9.25a.75.75 0 0 1-.648.743L20.75 10H20V7.002h.75Zm-6.002-1.505H8.252a.75.75 0 0 0-.743.648l-.007.102v1.504c0 .38.283.693.649.743l.101.007h6.496a.75.75 0 0 0 .743-.648l.007-.102V6.247a.75.75 0 0 0-.75-.75Z"/></svg>