<svg xmlns="http://www.w3.org/2000/svg" width="20" height="20"><path d="M18.093 3.074c-.158-.42-.322-.712-.443-.874a.5.5 0 0 0-.8.6l.068.105c.066.112.15.286.239.52.213.57.343 1.261.343 2.075 0 .814-.13 1.505-.343 2.074a3.475 3.475 0 0 1-.239.52l-.116.183a.5.5 0 0 0 .848.523c.121-.162.285-.453.443-.874.255-.68.407-1.49.407-2.426 0-.936-.152-1.745-.407-2.426ZM14 2.5a.5.5 0 0 0-.854-.354L11.293 4H10.5a.5.5 0 0 0-.5.5v2a.5.5 0 0 0 .5.5h.793l1.853 1.854A.5.5 0 0 0 14 8.5v-6Zm1.947.776c.073.145.175.385.277.69.172.516.276 1.035.276 1.534 0 .499-.104 1.018-.276 1.533a5.51 5.51 0 0 1-.277.69.5.5 0 1 1-.894-.447l.076-.168a5.71 5.71 0 0 0 .147-.391c.14-.422.224-.84.224-1.217 0-.376-.084-.795-.224-1.217a4.59 4.59 0 0 0-.223-.56.5.5 0 1 1 .894-.447ZM17 9.98V14a1 1 0 0 1-1 1H4a1 1 0 0 1-1-1V6a1 1 0 0 1 1-1h5v-.5c0-.175.03-.344.085-.5H4a2 2 0 0 0-2 2v8a2 2 0 0 0 2 2h12a2 2 0 0 0 2-2V9.8a1.506 1.506 0 0 1-1 .18ZM8.5 13a.5.5 0 0 0 0 1h3a.5.5 0 0 0 0-1h-3Z"/></svg>