<svg xmlns="http://www.w3.org/2000/svg" width="28" height="28"><path d="M17.754 11c.966 0 1.75.784 1.75 1.75v.316a7.501 7.501 0 0 0-5.02 11.913 5.501 5.501 0 0 1-5.982-5.48V12.75c0-.966.783-1.75 1.75-1.75h7.502Zm2.75 2A7.48 7.48 0 0 1 26 15.4v-2.65A1.75 1.75 0 0 0 24.25 11l-4.376-.002c.393.476.63 1.086.63 1.752V13ZM3.75 11l4.382-.002a2.73 2.73 0 0 0-.621 1.532l-.01.22v6.749c0 1.133.291 2.199.8 3.127A4.501 4.501 0 0 1 2 18.499V12.75A1.751 1.751 0 0 1 3.751 11ZM14 3a3.5 3.5 0 1 1 0 7 3.5 3.5 0 0 1 0-7Zm8.003 1a3 3 0 1 1 0 6 3 3 0 0 1 0-6ZM5.997 4a3 3 0 1 1 0 6 3 3 0 0 1 0-6ZM27 20.5a6.5 6.5 0 1 1-13 0 6.5 6.5 0 0 1 13 0Zm-6.5-.707-2.646-2.647a.5.5 0 0 0-.708.708l2.647 2.646-2.647 2.646a.5.5 0 0 0 .708.708l2.646-2.647 2.646 2.647a.5.5 0 0 0 .708-.708L21.207 20.5l2.647-2.646a.5.5 0 0 0-.708-.708L20.5 19.793Z"/></svg>