<svg xmlns="http://www.w3.org/2000/svg" width="16" height="16" viewBox="0 0 16 16"><path d="M7 5H3a2 2 0 0 0-2 2v6a2 2 0 0 0 2 2h8a2 2 0 0 0 2-2v-2.545c-.313.17-.647.32-1 .448V13a1 1 0 0 1-1 1H3a1 1 0 0 1-1-1V8.876l4.763 2.564a.5.5 0 0 0 .474 0l2.32-1.249a5.877 5.877 0 0 1-.853-.677L7 10.432 2 7.74V7a1 1 0 0 1 1-1h4.047a7.677 7.677 0 0 1-.043-.603V5.39L7 5.134V5Zm7.001-2.559a3.523 3.523 0 0 1-1-.347 4.718 4.718 0 0 1-1.253-.984.334.334 0 0 0-.495 0c-.87.932-1.833 1.39-2.903 1.39-.193 0-.35.168-.35.375v2.25l.004.24c.033 1.027.283 1.908.746 2.636.237.374.53.707.878 1 .482.405 1.07.733 1.761.98.072.025.15.025.222 0C13.85 9.18 15 7.54 15 5.126V2.875l-.007-.076a.357.357 0 0 0-.343-.299c-.22 0-.437-.02-.649-.059Z"/></svg>