<svg xmlns="http://www.w3.org/2000/svg" width="24" height="24"><path d="M2 5.25A2.25 2.25 0 0 1 4.25 3h10a2.25 2.25 0 0 1 2.25 2.25V6h1.55c.87 0 1.662.501 2.034 1.287l1.7 3.587c.142.301.216.63.216.963v5.413a2.25 2.25 0 0 1-2.25 2.25h-1.791a3 3 0 0 1-5.918 0H9.96a3 3 0 0 1-5.92-.01A2.25 2.25 0 0 1 2 17.25v-12ZM20.5 15.5h-1.25a.75.75 0 1 0 0 1.5h1.25v-1.5Zm-.317-4.5L18.73 7.929a.75.75 0 0 0-.678-.429H16.5V11h3.683ZM7 20.5a1.5 1.5 0 1 0 0-3 1.5 1.5 0 0 0 0 3Zm9.5-1.5a1.5 1.5 0 1 0-3 0 1.5 1.5 0 0 0 3 0Z"/></svg>