<svg xmlns="http://www.w3.org/2000/svg" width="16" height="16"><path d="M8 6a2 2 0 1 0 0 4 2 2 0 0 0 0-4ZM7 8a1 1 0 1 1 2 0 1 1 0 0 1-2 0Zm3.618-3.602a.708.708 0 0 1-.824-.567l-.26-1.416a.354.354 0 0 0-.275-.282 6.072 6.072 0 0 0-2.519 0 .354.354 0 0 0-.275.282l-.259 1.416a.71.71 0 0 1-.936.538l-1.359-.484a.355.355 0 0 0-.382.095 5.99 5.99 0 0 0-1.262 2.173.352.352 0 0 0 .108.378l1.102.931a.704.704 0 0 1 0 1.076l-1.102.931a.352.352 0 0 0-.108.378A5.986 5.986 0 0 0 3.53 12.02a.355.355 0 0 0 .382.095l1.36-.484a.708.708 0 0 1 .936.538l.258 1.416c.026.14.135.252.275.281a6.075 6.075 0 0 0 2.52 0 .353.353 0 0 0 .274-.281l.26-1.416a.71.71 0 0 1 .936-.538l1.359.484c.135.048.286.01.382-.095a5.99 5.99 0 0 0 1.262-2.173.352.352 0 0 0-.108-.378l-1.102-.931a.703.703 0 0 1 0-1.076l1.102-.931a.352.352 0 0 0 .108-.378A5.985 5.985 0 0 0 12.47 3.98a.355.355 0 0 0-.382-.095l-1.36.484a.71.71 0 0 1-.111.03Zm-6.62.58.937.333a1.71 1.71 0 0 0 2.255-1.3l.177-.97a5.105 5.105 0 0 1 1.265 0l.178.97a1.708 1.708 0 0 0 2.255 1.3L12 4.977c.255.334.467.698.63 1.084l-.754.637a1.704 1.704 0 0 0 0 2.604l.755.637a4.99 4.99 0 0 1-.63 1.084l-.937-.334a1.71 1.71 0 0 0-2.255 1.3l-.178.97a5.099 5.099 0 0 1-1.265 0l-.177-.97a1.708 1.708 0 0 0-2.255-1.3L4 11.023a4.987 4.987 0 0 1-.63-1.084l.754-.638a1.704 1.704 0 0 0 0-2.603l-.755-.637a5.06 5.06 0 0 1 .63-1.084Z"/></svg>