<svg xmlns="http://www.w3.org/2000/svg" width="20" height="20"><path d="M2.854 2.146a.5.5 0 1 0-.708.708l1.48 1.479A3 3 0 0 0 2 7v6a3 3 0 0 0 3 3h10c.094 0 .188-.004.28-.013l1.866 1.867a.5.5 0 0 0 .708-.708l-1.48-1.479-.762-.762-2.935-2.935-1.054-1.054-1.119-1.119-1.562-1.562L7.767 7.06 4.72 4.013 2.854 2.146ZM14.293 15H5a2 2 0 0 1-2-2V7a2 2 0 0 1 1.388-1.905l2.103 2.103a2.14 2.14 0 0 0-.09.042C5.563 7.66 5 8.615 5 10c0 1.385.563 2.34 1.401 2.76a2.12 2.12 0 0 0 2.453-.406.5.5 0 1 0-.708-.708 1.12 1.12 0 0 1-1.297.22C6.437 11.658 6 11.114 6 10c0-1.115.437-1.66.849-1.865a1.1 1.1 0 0 1 .462-.117L14.293 15Zm2.888.06-.707-.708c.326-.356.526-.83.526-1.352V7a2 2 0 0 0-2-2H7.121l-1-1H15a3 3 0 0 1 3 3v6a2.99 2.99 0 0 1-.819 2.06Zm-5.637-5.637-.814-.814c.24-.645.653-1.11 1.171-1.369a2.12 2.12 0 0 1 2.453.406.5.5 0 0 1-.708.708 1.12 1.12 0 0 0-1.297-.22c-.334.167-.683.556-.805 1.289Z"/></svg>