<svg xmlns="http://www.w3.org/2000/svg" width="48" height="48"><path d="M26 17.5a4.5 4.5 0 1 1 9 0 4.5 4.5 0 0 1-9 0Zm4.5-2a2 2 0 1 0 0 4 2 2 0 0 0 0-4ZM6 12.25A6.25 6.25 0 0 1 12.25 6h23.5A6.25 6.25 0 0 1 42 12.25v23.5A6.25 6.25 0 0 1 35.75 42h-23.5A6.25 6.25 0 0 1 6 35.75v-23.5Zm6.25-3.75a3.75 3.75 0 0 0-3.75 3.75v23.5c0 .663.172 1.286.474 1.826l12.551-12.55a3.5 3.5 0 0 1 4.95 0l12.551 12.55a3.73 3.73 0 0 0 .474-1.826v-23.5a3.75 3.75 0 0 0-3.75-3.75h-23.5Zm24.896 30.732-12.439-12.44a1 1 0 0 0-1.414 0l-12.439 12.44c.432.173.903.268 1.396.268h23.5c.493 0 .964-.095 1.396-.268Z"/></svg>