<svg xmlns="http://www.w3.org/2000/svg" width="24" height="24" viewBox="0 0 24 24"><path d="M1.75 4.5a.75.75 0 0 0-.75.75v6a2.25 2.25 0 0 0 2.25 2.25h5a2.25 2.25 0 0 0 2.25-2.25v-6a.75.75 0 0 0-.75-.75H9.5v-1a2.5 2.5 0 0 0-3.75-2.165A2.5 2.5 0 0 0 2 3.5v.999h-.25ZM7 4.5v-1c0-.348-.071-.68-.2-.98A1 1 0 0 1 8 3.5v1H7Zm-1.5-1v1h-2v-1a1 1 0 0 1 2 0ZM2 17.25v-3c.385.161.807.25 1.25.25h.25v2.75a.75.75 0 0 0 .672.746A3.001 3.001 0 0 1 9.83 18h2.342A3.001 3.001 0 0 1 15 16V5.25a.75.75 0 0 0-.75-.75h-2.918a1.757 1.757 0 0 0-.832-.832V3.5c0-.17-.012-.337-.035-.5h3.785a2.25 2.25 0 0 1 2.25 2.25V6h1.55c.87 0 1.662.501 2.034 1.287l1.7 3.587c.142.301.216.63.216.963v5.413a2.25 2.25 0 0 1-2.25 2.25h-1.791a3 3 0 0 1-5.918 0H9.96a3 3 0 0 1-5.92-.01A2.25 2.25 0 0 1 2 17.25Zm15.83.75h1.92a.75.75 0 0 0 .75-.75V17h-1.25a.75.75 0 0 1 0-1.5h1.25v-3h-4v3.901A3.01 3.01 0 0 1 17.83 18ZM16.5 7.5V11h3.683L18.73 7.929a.75.75 0 0 0-.678-.429H16.5ZM7 20.5a1.5 1.5 0 1 0 0-3 1.5 1.5 0 0 0 0 3Zm9.5-1.5a1.5 1.5 0 1 0-3 0 1.5 1.5 0 0 0 3 0ZM3.5 3.5c0-.142.03-.277.083-.4Z"/></svg>