<svg xmlns="http://www.w3.org/2000/svg" width="28" height="28" viewBox="0 0 28 28"><path d="M9.5 13a4.5 4.5 0 1 0 0-9 4.5 4.5 0 0 0 0 9Zm14-3.5a3.5 3.5 0 1 1-7 0 3.5 3.5 0 0 1 7 0ZM2 17.25A2.25 2.25 0 0 1 4.25 15h10.5c.198 0 .39.026.573.074A7.478 7.478 0 0 0 13 20.5c0 .665.086 1.309.249 1.922-.975.355-2.203.578-3.749.578C2 23 2 17.75 2 17.75v-.5Zm25 3.25a6.5 6.5 0 1 1-13 0 6.5 6.5 0 0 1 13 0Zm-6-4a.5.5 0 0 0-1 0V20h-3.5a.5.5 0 0 0 0 1H20v3.5a.5.5 0 0 0 1 0V21h3.5a.5.5 0 0 0 0-1H21v-3.5Z"/></svg>