<svg xmlns="http://www.w3.org/2000/svg" width="28" height="28" viewBox="0 0 28 28"><path d="M4.5 3A1.5 1.5 0 0 0 3 4.5v2A1.5 1.5 0 0 0 4.5 8h19A1.5 1.5 0 0 0 25 6.5v-2A1.5 1.5 0 0 0 23.5 3h-19ZM24 9.5H4v10.75A4.75 4.75 0 0 0 8.75 25h5.75A7.5 7.5 0 0 1 24 13.865V9.5Zm-13 3.75a.75.75 0 0 1 .75-.75h4.5a.75.75 0 0 1 0 1.5h-4.5a.75.75 0 0 1-.75-.75Zm4.355 5.944-1.024.254a6.803 6.803 0 0 0 .008 2.152l.976.235a2 2 0 0 1 1.45 2.51l-.324 1.098a6.23 6.23 0 0 0 1.753 1.1l.843-.886a2 2 0 0 1 2.899 0l.85.895a6.206 6.206 0 0 0 1.751-1.09l-.335-1.16a2 2 0 0 1 1.441-2.496l1.026-.253a6.807 6.807 0 0 0-.008-2.152l-.977-.235a2 2 0 0 1-1.45-2.51l.324-1.1a6.208 6.208 0 0 0-1.753-1.1l-.843.888a2 2 0 0 1-2.9 0l-.849-.895a6.202 6.202 0 0 0-1.752 1.09l.335 1.16a2 2 0 0 1-1.441 2.495ZM22 20.5a1.5 1.5 0 1 1-3 0 1.5 1.5 0 0 1 3 0Z"/></svg>