<svg xmlns="http://www.w3.org/2000/svg" width="16" height="16" viewBox="0 0 16 16"><path d="M7.407 8.213 7 8.433 2 5.74V5a1 1 0 0 1 1-1h4.877l.998-1H3a2 2 0 0 0-2 2v6a2 2 0 0 0 2 2h8a2 2 0 0 0 2-2V9.118l-1 .996V11a1 1 0 0 1-1 1H3a1 1 0 0 1-1-1V6.876L6.763 9.44a.5.5 0 0 0 .474 0l.26-.14a2.572 2.572 0 0 1-.09-1.087Zm3.819-4.737L8.354 6.353a.5.5 0 1 1-.708-.706l2.872-2.878a2.625 2.625 0 0 1 3.713 3.712l-3.183 3.17a1.56 1.56 0 0 1-2.206-2.207l2.805-2.798a.5.5 0 1 1 .706.708L9.55 8.151a.56.56 0 0 0 .792.792l3.183-3.17a1.625 1.625 0 0 0-2.298-2.297Z"/></svg>