<svg xmlns="http://www.w3.org/2000/svg" width="16" height="16"><path d="M1 5.5A2.5 2.5 0 0 1 3.5 3h9A2.5 2.5 0 0 1 15 5.5v2.25a.25.25 0 0 1-.25.25.267.267 0 0 1-.26-.25A2.982 2.982 0 0 0 14 6.341V5.5A1.5 1.5 0 0 0 12.5 4h-9A1.5 1.5 0 0 0 2 5.5v5A1.5 1.5 0 0 0 3.5 12h3.55c-.033.162-.05.329-.05.5 0 .167.013.334.038.5H3.5A2.5 2.5 0 0 1 1 10.5v-5ZM11.5 10a2 2 0 1 0 0-4 2 2 0 0 0 0 4Zm0 5c2.5 0 3.5-1.255 3.5-2.5a1.5 1.5 0 0 0-1.5-1.5h-4A1.5 1.5 0 0 0 8 12.5c0 1.25 1 2.5 3.5 2.5ZM4 5a1 1 0 0 0-1 1v2a1 1 0 0 0 1 1h3a1 1 0 0 0 1-1V6a1 1 0 0 0-1-1H4Z"/></svg>