<svg xmlns="http://www.w3.org/2000/svg" width="24" height="24"><path d="m13.387 3.425 6.365 4.243a1 1 0 0 1 0 1.664l-6.365 4.244a2.5 2.5 0 0 1-2.774 0L4.248 9.332a1 1 0 0 1 0-1.664l6.365-4.243a2.5 2.5 0 0 1 2.774 0Zm6.639 8.767a2.002 2.002 0 0 1-.577.598l-6.05 4.084a2.5 2.5 0 0 1-2.798 0l-6.05-4.084a2 2 0 0 1-.779-2.29l6.841 4.56a2.5 2.5 0 0 0 2.613.098l.16-.098 6.841-4.56a1.996 1.996 0 0 1-.201 1.692Zm0 3.25a2.002 2.002 0 0 1-.577.598l-6.05 4.084a2.5 2.5 0 0 1-2.798 0l-6.05-4.084a2 2 0 0 1-.779-2.29l6.841 4.56a2.5 2.5 0 0 0 2.613.098l.16-.098 6.841-4.56a1.996 1.996 0 0 1-.201 1.692Z"/></svg>