<svg xmlns="http://www.w3.org/2000/svg" width="24" height="24"><path d="M2.75 5h18.5a.75.75 0 0 1 .102 1.493l-.102.007H2.75a.75.75 0 0 1-.102-1.493L2.75 5Zm18.5 4H2.75l-.102.007A.75.75 0 0 0 2.75 10.5h18.5l.102-.007A.75.75 0 0 0 21.25 9Zm-18.5 5.5h8.982A6.518 6.518 0 0 1 12.81 13H2.75l-.102.007A.75.75 0 0 0 2.75 14.5Zm0 2.5h8.269a6.62 6.62 0 0 0 .057 1.5H2.75a.75.75 0 0 1-.102-1.493L2.75 17Zm9.25.5a5.5 5.5 0 1 0 11 0 5.5 5.5 0 0 0-11 0Zm6.35 2.854-.07.057a.5.5 0 0 1-.637-.057l-.058-.07a.5.5 0 0 1 .058-.638L19.289 18H14.5l-.09-.008A.5.5 0 0 1 14 17.5l.008-.09A.5.5 0 0 1 14.5 17h4.789l-1.646-1.646-.058-.07a.5.5 0 0 1 .765-.638l2.516 2.517.05.066.035.061.029.08.014.086-.002.11-.019.085-.023.059-.044.077-.04.05-2.516 2.517Z"/></svg>