<svg xmlns="http://www.w3.org/2000/svg" width="20" height="20"><path d="M9.677 3.09c-.177-.035-.391-.04-.703.005a1.6 1.6 0 0 0-1.115.68c-.256.364-.412.863-.46 1.447-.002.19-.035.87-.084 1.778H9.5a.5.5 0 0 1 0 1H7.26c-.126 2.25-.3 5.145-.361 5.938v.003l-.006.07c-.048.572-.104 1.252-.304 1.879-.213.667-.6 1.31-1.33 1.738-1.023.635-2.132.345-2.983-.08a.5.5 0 1 1 .448-.895c.747.374 1.436.483 2.011.123l.013-.008c.465-.27.727-.677.888-1.183.165-.516.213-1.096.264-1.702l.002-.021v-.002c.06-.793.231-3.64.356-5.86H4.5a.5.5 0 1 1 0-1h1.813a75.962 75.962 0 0 0 .089-1.838c.054-.71.247-1.405.639-1.962.4-.57.994-.973 1.783-1.094l.005-.001c.386-.055.722-.06 1.044.005.324.065.604.193.884.361a.5.5 0 0 1-.514.858 1.744 1.744 0 0 0-.566-.239Zm7.177 6.056a.5.5 0 0 1 0 .708l-3.22 3.22a162.495 162.495 0 0 0 1.394 2.466l.041.072c.065.115.111.19.154.25.06.084.117.144.244.214.216.037.28-.008.306-.025a.637.637 0 0 0 .125-.127 3.56 3.56 0 0 0 .11-.145c.025-.036.055-.077.092-.126a.5.5 0 0 1 .8.6l-.057.078c-.113.157-.28.39-.5.541-.316.22-.692.268-1.148.17a.495.495 0 0 1-.12-.042 1.686 1.686 0 0 1-.666-.556 3.963 3.963 0 0 1-.208-.336l-.045-.079a134.132 134.132 0 0 1-1.257-2.22l-3.045 3.045a.5.5 0 0 1-.708-.707l3.246-3.246a149.943 149.943 0 0 0-1.14-2.024 3.644 3.644 0 0 0-.327-.549 1.142 1.142 0 0 0-.33-.317c-.061-.02-.117-.014-.205.041-.12.074-.249.213-.39.401a.5.5 0 1 1-.8-.6c.158-.211.378-.473.66-.649.302-.189.695-.287 1.125-.115.013.005.026.01.038.017.298.15.53.392.702.622.17.228.308.476.413.685.135.227.537.944.989 1.753l3.02-3.02a.5.5 0 0 1 .707 0Z"/></svg>