<svg xmlns="http://www.w3.org/2000/svg" width="20" height="20" viewBox="0 0 20 20"><path d="M5 12v-2h2v2H5Zm10-7.506A1.5 1.5 0 0 0 13.5 3H3.423a1.5 1.5 0 0 0-1.5 1.5v9a2.5 2.5 0 0 0 2.5 2.5h11.154a2.5 2.5 0 0 0 2.5-2.5v-6a1.5 1.5 0 0 0-1.5-1.5H16v7.23a.5.5 0 0 1-1 0V4.495ZM4 6.5a.5.5 0 0 1 .5-.5h8a.5.5 0 0 1 0 1h-8a.5.5 0 0 1-.5-.5ZM9.5 9h3a.5.5 0 0 1 0 1h-3a.5.5 0 0 1 0-1ZM9 12.5a.5.5 0 0 1 .5-.5h3a.5.5 0 0 1 0 1h-3a.5.5 0 0 1-.5-.5ZM4.5 9h3a.5.5 0 0 1 .5.5v3a.5.5 0 0 1-.5.5h-3a.5.5 0 0 1-.5-.5v-3a.5.5 0 0 1 .5-.5Z"/></svg>