<svg xmlns="http://www.w3.org/2000/svg" width="20" height="20" viewBox="0 0 20 20"><path d="M9.496 3H9.25C8.56 3 8 3.56 8 4.25v1.5a1.25 1.25 0 0 0 2.5 0h-1a.5.5 0 1 1 0-1H11a.5.5 0 0 1 .5.5v.5a2.25 2.25 0 1 1-4.5 0v-1.5A2.25 2.25 0 0 1 9.25 2h.25c.029 0 1.117 0 1.648 1.02a.5.5 0 1 1-.887.461.86.86 0 0 0-.479-.418A.968.968 0 0 0 9.496 3Zm7.008 2.001a.5.5 0 0 1 .492.41l.008.09v11a.5.5 0 0 1-.992.09l-.008-.09v-11a.5.5 0 0 1 .5-.5Zm-9 5.999a.5.5 0 0 1 .492.41l.008.09v5a.5.5 0 0 1-.992.09l-.008-.09v-5a.5.5 0 0 1 .5-.5ZM4.5 13a.5.5 0 0 1 .492.41L5 13.5v3a.5.5 0 0 1-.992.09L4 16.5v-3a.5.5 0 0 1 .5-.5Zm6-4.002a.5.5 0 0 1 .492.41l.008.09V16.5a.5.5 0 0 1-.992.09L10 16.5V9.498a.5.5 0 0 1 .5-.5Zm3-1.996a.5.5 0 0 1 .492.41l.008.09V16.5a.5.5 0 0 1-.992.09L13 16.5V7.502a.5.5 0 0 1 .5-.5ZM4.958 2.706c0-.681-.875-.96-1.27-.406L1.129 5.894A.7.7 0 0 0 1.7 7h2.26v.499a.5.5 0 1 0 1 0V7h.543a.5.5 0 0 0 0-1h-.544V2.706Zm-1 .939V6H2.281l1.677-2.355Z"/></svg>