<svg xmlns="http://www.w3.org/2000/svg" width="24" height="24"><path d="M20.245 4.002c.967 0 1.75.784 1.75 1.75v12.496a1.75 1.75 0 0 1-1.75 1.75h-7.247c-.087 0-.172-.007-.256-.019V4.021c.083-.012.169-.019.256-.019h7.247ZM10.998 4a1.8 1.8 0 0 1 .245.017v15.961a1.77 1.77 0 0 1-.245.017H3.75A1.75 1.75 0 0 1 2 18.245V5.75C2 4.784 2.784 4 3.75 4h7.248ZM9.243 15.499H7.74l-.102.007a.75.75 0 0 0 0 1.486l.102.007h1.502l.102-.007a.75.75 0 0 0 0-1.486l-.102-.007Zm6.996 0h-1.5l-.102.007a.75.75 0 0 0 0 1.486l.102.007h1.5l.101-.007a.75.75 0 0 0 0-1.486l-.101-.007Z"/></svg>