<svg xmlns="http://www.w3.org/2000/svg" width="20" height="20" viewBox="0 0 20 20"><path d="M9.998 2c3.149 0 5.744 2.335 5.984 5.355l.014.223.004.224-.001 3.596.925 2.222c.023.054.04.11.053.167l.016.086.008.132a1 1 0 0 1-.749.963l-.116.027-.135.01-3.501-.001-.005.161a2.5 2.5 0 0 1-4.99 0l-.005-.161H3.999a.998.998 0 0 1-.26-.034l-.124-.042a1 1 0 0 1-.603-1.052l.021-.128.043-.128.923-2.219L4 7.793l.004-.225C4.127 4.451 6.771 2 9.998 2ZM11.5 15.004h-3l.007.141a1.5 1.5 0 0 0 1.349 1.348L10 16.5a1.5 1.5 0 0 0 1.493-1.355l.007-.141ZM9.998 3c-2.623 0-4.77 1.924-4.98 4.385l-.014.212L5 7.802V11.5l-.038.192-.963 2.313 11.958.002.045-.002-.964-2.313L15 11.5V7.812l-.004-.204C14.891 5.035 12.695 3 9.998 3Z"/></svg>