<svg xmlns="http://www.w3.org/2000/svg" width="24" height="24" viewBox="0 0 24 24"><path d="M1 3a2 2 0 0 1 2-2h7a2 2 0 0 1 2 2v6a2 2 0 0 1-2 2H3a2 2 0 0 1-2-2V3Zm2.5 1a.5.5 0 0 0 0 1h6a.5.5 0 0 0 0-1h-6Zm0 3a.5.5 0 0 0 0 1h6a.5.5 0 0 0 0-1h-6Zm13.252 1.5a.752.752 0 1 1 0 1.504.752.752 0 0 1 0-1.504ZM13 9a3 3 0 0 1-3 3H4v6.75c0 .627.178 1.213.485 1.71l6.939-6.813.135-.122a2.25 2.25 0 0 1 2.889.006l.128.117 6.939 6.811A3.235 3.235 0 0 0 22 18.75V7.25A3.25 3.25 0 0 0 18.75 4H13v5Zm3.752-2a2.252 2.252 0 1 1 0 4.504 2.252 2.252 0 0 1 0-4.504Zm-4.277 7.718.083-.071a.75.75 0 0 1 .874-.007l.093.078 6.928 6.8A3.235 3.235 0 0 1 18.75 22H7.25a3.235 3.235 0 0 1-1.703-.481l6.928-6.801Z"/></svg>