<svg xmlns="http://www.w3.org/2000/svg" width="20" height="20"><path d="M2 10.664V13.5A2.5 2.5 0 0 0 4.5 16h11a2.5 2.5 0 0 0 2.5-2.5v-7A2.5 2.5 0 0 0 15.5 4H9.478l.671.672c.104.104.2.213.285.328H15.5A1.5 1.5 0 0 1 17 6.5v7a1.5 1.5 0 0 1-1.5 1.5h-11A1.5 1.5 0 0 1 3 13.5v-1.836l-1-1ZM5 1.5a.5.5 0 0 1 1 0v1.174c.48.022.954.217 1.32.583L9.443 5.38a2 2 0 0 1 0 2.828l-2.828 2.829a2 2 0 0 1-2.829 0L1.664 8.914a2 2 0 0 1 0-2.828l2.828-2.829c.153-.153.325-.276.508-.369V1.5Zm0 4V4.164L2.664 6.5h6.32a.996.996 0 0 0-.249-.414L6.614 3.964A.996.996 0 0 0 6 3.676V5.5a.5.5 0 0 1-1 0Zm-2.922 2c0 .256.098.512.293.707l2.121 2.121a1 1 0 0 0 1.415 0L8.735 7.5H2.078Zm8.084.926.215-.259a.5.5 0 0 1 .746 0l.215.26c.124.157.29.38.458.64.318.497.704 1.228.704 1.933 0 1.009-.673 2-1.75 2C9.672 13 9 12.009 9 11c0-.705.386-1.436.704-1.932.167-.261.333-.484.458-.642Zm.588.881a6.813 6.813 0 0 0-.204.3C10.24 10.085 10 10.605 10 11c0 .293.1.566.248.749a.62.62 0 0 0 .502.251.618.618 0 0 0 .502-.251A1.22 1.22 0 0 0 11.5 11c0-.396-.24-.915-.546-1.393a6.815 6.815 0 0 0-.204-.3Z"/></svg>