<svg xmlns="http://www.w3.org/2000/svg" width="28" height="28" viewBox="0 0 28 28"><path d="M2.01 8.609c.076.052.148.11.217.17a2.226 2.226 0 0 1 .532.867l.348 1.071a.42.42 0 0 0 .155.2.418.418 0 0 0 .629-.177l.01-.026.348-1.07a2.2 2.2 0 0 1 1.398-1.397l1.071-.348a.43.43 0 0 0 .278-.399.422.422 0 0 0-.278-.399l-.022-.006-1.07-.348a2.199 2.199 0 0 1-.865-.533 2.2 2.2 0 0 1-.4-.567 2.276 2.276 0 0 1-.138-.3l-.347-1.071c-.004-.01-.012-.018-.02-.026-.006-.007-.012-.014-.016-.022a.425.425 0 0 0-.12-.156.419.419 0 0 0-.488 0 .422.422 0 0 0-.154.2l-.349 1.07-.009.028a2.213 2.213 0 0 1-.514.832.498.498 0 0 1-.064.053.672.672 0 0 0-.05.04 2.189 2.189 0 0 1-.739.444l-1.07.348a.419.419 0 0 0-.205.644.42.42 0 0 0 .205.154l1.07.348c.236.084.455.207.65.365l.008.01Zm14.463.415a3.5 3.5 0 0 1-4.947 4.948 3.5 3.5 0 0 1 4.947-4.948Zm-3.887 1.06a2 2 0 1 0 2.829 2.828 2 2 0 0 0-2.829-2.828ZM6.278 12.07l-.612.2a.24.24 0 0 0 0 .455l.612.2c.186.062.356.166.495.305.137.141.24.313.3.5l.2.612a.244.244 0 0 0 .368.117.238.238 0 0 0 .087-.117l.2-.612c.06-.185.163-.354.3-.494.14-.136.308-.239.494-.3l.612-.2a.238.238 0 0 0 .161-.226.24.24 0 0 0-.16-.228h-.013l-.612-.2a1.272 1.272 0 0 1-.494-.305 1.262 1.262 0 0 1-.3-.494l-.2-.612a.255.255 0 0 0-.088-.117.25.25 0 0 0-.23-.027.244.244 0 0 0-.138.144l-.2.612a1.268 1.268 0 0 1-.3.492 1.268 1.268 0 0 1-.482.295ZM22.995 4H5.005c-.03 0-.06.004-.089.009a.773.773 0 0 1-.071.008l.332 1.02a1.2 1.2 0 0 0 .288.463h17.53A1.499 1.499 0 0 1 24.494 7v13.995a1.5 1.5 0 0 1-1.5 1.5H20V18.5a2 2 0 0 0-2-2h-8a2 2 0 0 0-2 2v3.995H5.009a1.499 1.499 0 0 1-1.5-1.5v-8.997c-.292 0-.578-.09-.817-.258a1.438 1.438 0 0 1-.532-.714l-.146-.449v10.418a3 3 0 0 0 2.999 3H8V24h1.5v-.006h9V24H20v-.006h3.002A2.997 2.997 0 0 0 26 20.995V6.999A3 3 0 0 0 22.995 4ZM18.5 22.495h-9V18.5a.5.5 0 0 1 .5-.5h8a.5.5 0 0 1 .5.5v3.995Z"/></svg>