<svg xmlns="http://www.w3.org/2000/svg" width="48" height="48"><path d="M25.081 6.419C26.208 5.408 28 6.207 28 7.72v32.56c0 1.514-1.792 2.313-2.919 1.302l-8.206-7.366A4.75 4.75 0 0 0 13.702 33H9a5.25 5.25 0 0 1-5.25-5.25v-7.5C3.75 17.35 6.1 15 9 15h4.702a4.75 4.75 0 0 0 3.173-1.216l8.206-7.366Zm.419 2.983-6.955 6.244a7.25 7.25 0 0 1-4.843 1.854H9a2.75 2.75 0 0 0-2.75 2.75v7.5A2.75 2.75 0 0 0 9 30.5h4.702a7.25 7.25 0 0 1 4.843 1.855L25.5 38.6V9.402Zm6.834 4.998a1.25 1.25 0 0 1 1.767-.066l.001.002.002.002.005.005.014.012.042.041a10.274 10.274 0 0 1 .59.644c.365.436.846 1.072 1.325 1.893A13.977 13.977 0 0 1 38 24c0 3.023-.963 5.426-1.92 7.068-.48.82-.96 1.457-1.326 1.893a10.228 10.228 0 0 1-.59.644l-.019.019-.022.021-.014.013-.005.005-.002.003H34.1a1.25 1.25 0 0 1-1.705-1.828l.002-.002.016-.016c.017-.017.046-.045.085-.086.078-.081.196-.209.34-.381.29-.346.685-.866 1.081-1.545A11.477 11.477 0 0 0 35.5 24c0-2.477-.787-4.449-1.58-5.807-.396-.68-.79-1.2-1.08-1.545a7.79 7.79 0 0 0-.426-.467l-.017-.017.001.001a1.25 1.25 0 0 1-.064-1.765Zm1.767-.066.064.062a.446.446 0 0 1-.064-.062Z"/></svg>