<svg xmlns="http://www.w3.org/2000/svg" width="20" height="20"><path d="M6.5 3A2.5 2.5 0 0 0 4 5.5v2.882c0 .493-.277.943-.715 1.167a.5.5 0 0 0 0 .902c.438.223.715.674.715 1.167V14.5A2.5 2.5 0 0 0 6.5 17a.5.5 0 0 0 0-1A1.5 1.5 0 0 1 5 14.5v-2.882c0-.615-.244-1.193-.662-1.618A2.309 2.309 0 0 0 5 8.382V5.5A1.5 1.5 0 0 1 6.5 4a.5.5 0 0 0 0-1Zm7 0A2.5 2.5 0 0 1 16 5.5v2.882c0 .493.277.943.715 1.167a.5.5 0 0 1 0 .902A1.31 1.31 0 0 0 16 11.618V14.5a2.5 2.5 0 0 1-2.5 2.5.5.5 0 0 1 0-1 1.5 1.5 0 0 0 1.5-1.5v-2.882c0-.615.244-1.193.662-1.618A2.309 2.309 0 0 1 15 8.382V5.5A1.5 1.5 0 0 0 13.5 4a.5.5 0 0 1 0-1Z"/></svg>