<svg xmlns="http://www.w3.org/2000/svg" width="20" height="20"><path d="M14.5 1c.276 0 .5.222.5.497 0 .463.073 1.219.472 1.846.375.588 1.083 1.136 2.528 1.136.276 0 .5.222.5.497a.499.499 0 0 1-.5.497c-.369 0-1.14.223-1.82.742-.663.505-1.18 1.241-1.18 2.24a.499.499 0 0 1-.5.496.499.499 0 0 1-.5-.497c0-.5-.155-1.261-.606-1.884-.432-.596-1.157-1.097-2.394-1.097a.499.499 0 0 1-.5-.497c0-.275.224-.497.5-.497.512 0 1.255-.01 1.873-.367C13.437 3.785 14 3.1 14 1.497c0-.275.224-.497.5-.497ZM6.145 12.166l-.932 3.396c-.17.62.077 1.345.74 1.64 1.638.727 4.65 1.351 7.97.009.71-.288 1.021-1.064.814-1.75l-.975-3.229A6.497 6.497 0 0 1 10 13.424a6.498 6.498 0 0 1-3.855-1.258Zm6.78-9.833c-.046.218-.107.38-.168.499a.968.968 0 0 1-.388.421c-.354.205-.831.232-1.369.232-.828 0-1.5.667-1.5 1.49 0 .824.672 1.491 1.5 1.491.911 0 1.336.344 1.583.685.302.417.417.962.417 1.303a1.495 1.495 0 0 0 1.613 1.487A5.504 5.504 0 0 1 10 12.43c-3.038 0-5.5-2.448-5.5-5.467 0-3.019 2.462-5.466 5.5-5.466 1.075 0 2.077.306 2.924.836Z"/></svg>