<svg xmlns="http://www.w3.org/2000/svg" width="24" height="24" viewBox="0 0 24 24"><path d="m13.732 17.732-1.025-1.025 1.06-1.06 1.026 1.024a1 1 0 0 0 1.414 0l3.964-3.964a1 1 0 0 0 0-1.415l-3.964-3.964a1 1 0 0 0-1.415 0l-1.025 1.025-1.06-1.06 1.025-1.026a2.5 2.5 0 0 1 3.535 0l3.965 3.965a2.5 2.5 0 0 1 0 3.535l-3.965 3.965a2.5 2.5 0 0 1-3.535 0Zm-7-11.465-3.965 3.965a2.5 2.5 0 0 0 0 3.535l3.965 3.965a2.5 2.5 0 0 0 3.535 0l3.965-3.965a2.5 2.5 0 0 0 0-3.535l-3.965-3.965a2.5 2.5 0 0 0-3.535 0Zm-2.904 5.026 3.965-3.965a1 1 0 0 1 1.414 0l3.964 3.965a1 1 0 0 1 0 1.414L9.207 16.67a1 1 0 0 1-1.414 0l-3.965-3.964a1 1 0 0 1 0-1.415Z"/></svg>