<svg xmlns="http://www.w3.org/2000/svg" width="24" height="24" viewBox="0 0 24 24"><path d="M13.057 7.43a2.5 2.5 0 1 1 3.536 3.536 2.5 2.5 0 0 1-3.536-3.535Zm2.475 1.061a1 1 0 1 0-1.414 1.415 1 1 0 0 0 1.414-1.415Zm5.977-4.169a2.75 2.75 0 0 0-1.811-1.81l-.663-.206a6.75 6.75 0 0 0-6.773 1.674l-.996.996a3.498 3.498 0 0 0-4.57.327L5.455 6.545a.75.75 0 0 0 0 1.06l1.591 1.592-.18.18a1.75 1.75 0 0 0 0 2.474l.496.496-1.396.796a.75.75 0 0 0-.158 1.181l3.889 3.89a.75.75 0 0 0 1.181-.158l.798-1.395.497.497a1.75 1.75 0 0 0 2.475 0l.177-.177 1.59 1.59a.75.75 0 0 0 1.06 0l1.242-1.243a3.497 3.497 0 0 0 .328-4.567l.998-.998a6.75 6.75 0 0 0 1.673-6.777l-.206-.664Zm-2.256-.378c.393.122.701.43.823.823l.207.665a5.25 5.25 0 0 1-1.302 5.27l-5.395 5.395a.25.25 0 0 1-.353 0l-5.307-5.306a.25.25 0 0 1 0-.354l5.396-5.396a5.25 5.25 0 0 1 5.269-1.302l.662.205Zm-1.289 9.897c.453.766.35 1.769-.308 2.427l-.712.712-1.06-1.06 2.08-2.08ZM7.758 6.363a1.998 1.998 0 0 1 2.428-.307l-2.08 2.08-1.06-1.06.712-.713Zm2.818 9.198-.514.898-2.5-2.5.898-.513 2.116 2.116ZM6.69 18.395a.75.75 0 0 0-1.06-1.06l-2.476 2.474a.75.75 0 0 0 1.061 1.061l2.475-2.475ZM4.745 15.39a.75.75 0 0 1 0 1.06l-1.06 1.061a.75.75 0 0 1-1.061-1.06l1.06-1.061a.75.75 0 0 1 1.061 0Zm3.887 4.952a.75.75 0 1 0-1.06-1.06L6.513 20.34a.75.75 0 0 0 1.06 1.06l1.06-1.058Z"/></svg>