<svg xmlns="http://www.w3.org/2000/svg" width="24" height="24"><path d="M10.75 11.5a.75.75 0 0 0-.72.54c.423.275.813.598 1.16.96h5.06a.75.75 0 0 0 0-1.5h-5.5ZM5.5 4v7.076a6.451 6.451 0 0 0-1.5.422V4a2 2 0 0 1 2-2h6.172c.028 0 .055.004.082.007a.63.63 0 0 0 .059.007c.215.015.427.056.624.138.057.024.112.056.166.087l.05.029.047.024a.652.652 0 0 1 .081.044c.078.053.148.116.219.18l.036.03a.493.493 0 0 1 .049.04l5.829 5.828A2 2 0 0 1 20 9.828V20a2 2 0 0 1-2 2h-6.81a6.52 6.52 0 0 0 1.078-1.5H18a.5.5 0 0 0 .5-.5V10H14a2 2 0 0 1-2-2V3.5H6a.5.5 0 0 0-.5.5Zm10.75 15h-3.424A6.52 6.52 0 0 0 13 17.5h3.25a.75.75 0 0 1 0 1.5Zm0-3h-3.424a6.456 6.456 0 0 0-.558-1.5h3.982a.75.75 0 0 1 0 1.5ZM13.5 4.621V8a.5.5 0 0 0 .5.5h3.378L13.5 4.621ZM6.5 23a5.5 5.5 0 1 1 0-11 5.5 5.5 0 0 1 0 11Zm3-5a.5.5 0 0 0 0-1H4.707l1.647-1.646a.5.5 0 0 0-.708-.708l-2.5 2.5a.5.5 0 0 0 0 .708l2.5 2.5a.5.5 0 0 0 .708-.708L4.707 18H9.5Z"/></svg>