<svg xmlns="http://www.w3.org/2000/svg" width="24" height="24"><path d="M11.653 14.165 2 9.127v7.623l.005.184A3.25 3.25 0 0 0 5.25 20h7.752a4.008 4.008 0 0 1-.002-.125v-.103A2.772 2.772 0 0 1 15.773 17h.277A3.49 3.49 0 0 1 15 14.5c0-.777.253-1.494.68-2.075l-3.333 1.74a.75.75 0 0 1-.694 0Zm-.036-12.06L3.1 7.17l-.17.112a2.31 2.31 0 0 0-.435.414L12 12.655l9.505-4.96a2.247 2.247 0 0 0-.605-.526l-8.516-5.064-.105-.051a.75.75 0 0 0-.662.051ZM21 14.5a2.5 2.5 0 1 1-5 0 2.5 2.5 0 0 1 5 0Zm2 5.375C23 21.431 21.714 23 18.5 23S14 21.437 14 19.875v-.103c0-.98.794-1.772 1.773-1.772h5.454c.98 0 1.773.793 1.773 1.772v.103Z"/></svg>