<svg xmlns="http://www.w3.org/2000/svg" width="16" height="16"><path d="M13.75 5H10.5a.5.5 0 0 1-.5-.5V1.25L13.75 5ZM9 4.5A1.5 1.5 0 0 0 10.5 6H14v7.498a1.5 1.5 0 0 1-1.5 1.5H8.744c.144-.192.265-.402.352-.633a2.499 2.499 0 0 0-.201-2.153 2.48 2.48 0 0 0-.177-1.868A2.506 2.506 0 0 0 6.501 9h-1a1.516 1.516 0 0 0-1.272.703 2.308 2.308 0 0 0-.188-.155L4 9.517V2.5A1.5 1.5 0 0 1 5.5 1H9v3.5Zm-1.004 7.1a1.495 1.495 0 0 1-.269.762l.001.001a1.493 1.493 0 0 1 .429 1.659 1.508 1.508 0 0 1-1.407.979H5.5a.5.5 0 0 1-.5-.5v-4a.5.5 0 0 1 .5-.5h1a1.496 1.496 0 0 1 1.33.808c.127.243.184.517.166.791ZM6.5 10.999H6v1h.5a.5.5 0 1 0 0-1Zm-.5 3h.75a.5.5 0 1 0 0-1H6v1Zm-2.478-1.412c.237.393.406.823.5 1.272l.02.077c.018.076.035.145.054.2a.501.501 0 0 1-.344.863c-.476 0-.59-.458-.7-.899l-.003-.01C2.959 13.73 2.773 13 2.5 13H2v1.5a.5.5 0 1 1-1 0v-4a.5.5 0 0 1 .5-.5h1.001a1.5 1.5 0 0 1 1.021 2.588ZM2.5 10.999H2v1h.5a.5.5 0 1 0 0-1Z"/></svg>