<svg xmlns="http://www.w3.org/2000/svg" width="16" height="16" viewBox="0 0 16 16"><path d="M9 4.5A1.75 1.75 0 1 0 9 1a1.75 1.75 0 0 0 0 3.5Zm-2.146.153-.02-.006a1.1 1.1 0 0 0-.54-.026l-2.456.498a1.1 1.1 0 0 0-.794.647l-.817 1.918A1.1 1.1 0 0 0 4.15 8.732a.687.687 0 0 0 .068-.135l.5-1.28a.5.5 0 0 1 .932.365l-.004.01a.007.007 0 0 0 .002.008.007.007 0 0 1 .002.008l-.152.386-.017.044-2.104 5.36a1.1 1.1 0 1 0 2.047.804l1.173-2.988a.518.518 0 0 1 .364-.297.513.513 0 0 1 .507.126l.28.298a1 1 0 0 1 .261.542l.299 2.074a1.1 1.1 0 1 0 2.177-.314l-.393-2.729a1.1 1.1 0 0 0-.287-.596L8.634 9.17a.692.692 0 0 1-.181-.571l.016-.117a.474.474 0 0 1 .84-.229l.437.548c.112.14.256.25.42.322l1.795.785a1.1 1.1 0 1 0 .881-2.016l-1.319-.576a1 1 0 0 1-.38-.293l-.886-1.11a1.1 1.1 0 0 0-.533-.365l-.045-.014a1.23 1.23 0 0 0-.462-.042 2.739 2.739 0 0 1-1.951-.608c-.124-.1-.26-.185-.412-.231Z"/></svg>