<svg xmlns="http://www.w3.org/2000/svg" width="24" height="24" viewBox="0 0 24 24"><path d="M12.753 2c1.158 0 2.111.875 2.234 2h1.763a2.25 2.25 0 0 1 2.245 2.096L19 6.25v4.924A6.52 6.52 0 0 0 17.5 11V6.25a.75.75 0 0 0-.648-.743L16.75 5.5h-2.132a2.244 2.244 0 0 1-1.865.993H9.247a2.244 2.244 0 0 1-1.865-.992L5.25 5.5a.75.75 0 0 0-.743.648L4.5 6.25v13.505c0 .38.282.693.648.743l.102.007h6.485a6.519 6.519 0 0 0 1.079 1.5H5.25a2.25 2.25 0 0 1-2.245-2.096L3 19.755V6.25a2.25 2.25 0 0 1 2.096-2.245L5.25 4h1.763a2.247 2.247 0 0 1 2.234-2h3.506Zm0 1.5H9.247a.747.747 0 0 0 0 1.493h3.506a.747.747 0 1 0 0-1.493ZM8.25 13.995h3.775A6.47 6.47 0 0 0 11 17.5c0 .34.026.673.076.999H11c-2.528 0-4-.909-4-2.756v-.498c0-.69.56-1.25 1.25-1.25Zm2.75-6a2.5 2.5 0 1 1 0 5 2.5 2.5 0 0 1 0-5ZM23 17.5a5.5 5.5 0 1 0-11 0 5.5 5.5 0 0 0 11 0Zm-5 .5.001 2.503a.5.5 0 1 1-1 0V18h-2.505a.5.5 0 1 1 0-1H17v-2.5a.5.5 0 1 1 1 0V17h2.503a.5.5 0 1 1 0 1h-2.502Z"/></svg>