<svg xmlns="http://www.w3.org/2000/svg" width="20" height="20" viewBox="0 0 20 20"><path d="M10.5 2a.5.5 0 0 0-.5.5v2.6c0 1.377.927 2.536 2.19 2.89-.22 2.74-1.012 4.785-1.661 6.046.184.216.357.377.492.49.519.434.979 1.141.979 2.023A2.44 2.44 0 0 1 11.524 18H17a1.5 1.5 0 0 0 1.5-1.5v-.307c0-.348-.119-.669-.302-.932-.54-.777-2.069-3.29-2.389-7.272A3.001 3.001 0 0 0 18 5.1V2.5a.5.5 0 0 0-.5-.5h-.75a.75.75 0 0 0-.75.75v.75a.5.5 0 0 1-1 .002V3.5l-.004-.754a.75.75 0 0 0-.75-.746h-.492a.75.75 0 0 0-.75.746L13 3.502a.5.5 0 0 1-1-.002v-.75a.75.75 0 0 0-.75-.75h-.75Zm-4 3a3 3 0 0 0-2.236 5H4a1 1 0 1 0 0 2h.52c-.372 1.798-1.353 2.836-1.9 3.293-.346.29-.62.736-.62 1.256C2 17.35 2.65 18 3.451 18H9.55c.8 0 1.45-.65 1.45-1.451 0-.52-.274-.966-.62-1.256-.547-.457-1.528-1.495-1.9-3.293H9a1 1 0 1 0 0-2h-.264A3 3 0 0 0 6.5 5Z"/></svg>