<svg xmlns="http://www.w3.org/2000/svg" width="16" height="16"><path d="m11.582 12.289 2.564 2.565a.5.5 0 0 0 .708-.708l-13-13a.5.5 0 1 0-.708.708L2.99 3.697A5.972 5.972 0 0 0 2 7c0 2.867 1.935 5.506 5.732 7.922a.5.5 0 0 0 .536 0c1.336-.85 2.442-1.728 3.313-2.633Zm-.707-.707c-.685.713-1.536 1.417-2.556 2.11L8 13.905l-.32-.213C4.54 11.558 3 9.325 3 7c0-.943.261-1.825.715-2.578l7.16 7.16ZM9.46 7.34l-1.8-1.801A1.5 1.5 0 0 1 9.461 7.34Zm2.653 2.653C12.706 9.013 13 8.015 13 7a5 5 0 0 0-7.93-4.052l-.715-.714A6 6 0 0 1 14 7c0 1.285-.389 2.525-1.16 3.719l-.726-.726Z"/></svg>