<svg xmlns="http://www.w3.org/2000/svg" width="12" height="12"><path d="m6.953 3.023.199 1.05c.08.418.393.743.791.82l.444.084c.691.133 1.36-.33 1.518-1.052l.046-.212c.17-.777-.1-1.651-.854-2.016A7.072 7.072 0 0 0 5.998 1a7.227 7.227 0 0 0-3.085.698c-.76.363-1.035 1.241-.864 2.023l.045.204c.158.721.826 1.185 1.518 1.052l.443-.084c.398-.077.712-.402.791-.82l.2-1.05c.051-.01.111-.023.177-.035.228-.041.515-.081.776-.081.26 0 .548.04.777.081l.177.035ZM6 7.5a.5.5 0 0 0-1 0v1a.5.5 0 0 0 .5.5h1a.5.5 0 0 0 0-1H6v-.5ZM6 5a3 3 0 1 0 0 6 3 3 0 0 0 0-6ZM4 8a2 2 0 1 1 4 0 2 2 0 0 1-4 0Z"/></svg>