<svg xmlns="http://www.w3.org/2000/svg" width="32" height="32" viewBox="0 0 32 32"><path d="M23.5 4h-1.67A3.001 3.001 0 0 0 19 2h-6a3.001 3.001 0 0 0-2.83 2H8.5A3.5 3.5 0 0 0 5 7.5v19A3.5 3.5 0 0 0 8.5 30h5.546a2.49 2.49 0 0 1 .032-1.129l.791-3.051a4.159 4.159 0 0 1 1.01-1.82H11a1 1 0 1 1 0-2h6.86l6.652-6.706A4.36 4.36 0 0 1 27 14.042V7.5A3.5 3.5 0 0 0 23.5 4ZM13 4h6a1 1 0 1 1 0 2h-6a1 1 0 1 1 0-2Zm-3 9a1 1 0 0 1 1-1h10a1 1 0 1 1 0 2H11a1 1 0 0 1-1-1Zm1 4h5a1 1 0 1 1 0 2h-5a1 1 0 1 1 0-2Zm18.652 3.425-8.613 8.543c-.352.349-.79.598-1.27.721l-3.02.778a1 1 0 0 1-1.218-1.22l.79-3.051c.118-.456.355-.872.687-1.206l8.57-8.64a2.88 2.88 0 1 1 4.074 4.075Z"/></svg>