<svg xmlns="http://www.w3.org/2000/svg" width="24" height="24" viewBox="0 0 24 24"><path d="M13.197 7.572 19.1 1.669a2.286 2.286 0 1 1 3.232 3.233l-5.902 5.902a2.685 2.685 0 0 1-1.248.707l-1.83.457a1.087 1.087 0 0 1-1.319-1.318l.458-1.83c.118-.473.362-.904.706-1.248ZM15.75 2c.456 0 .881.136 1.236.37l-1.137 1.136a.759.759 0 0 0-.099-.006h-7.5a.75.75 0 0 0-.75.75v15.5c0 .414.336.75.75.75h7.5a.75.75 0 0 0 .75-.75v-7.73c.23-.144.443-.315.637-.509l.863-.863v9.102A2.25 2.25 0 0 1 15.75 22h-7.5A2.25 2.25 0 0 1 6 19.75V4.25A2.25 2.25 0 0 1 8.25 2h7.5Zm-2.501 15.5a.75.75 0 0 1 .002 1.5l-2.5.004a.75.75 0 0 1-.002-1.5l2.5-.004Z"/></svg>