<svg xmlns="http://www.w3.org/2000/svg" width="48" height="48" viewBox="0 0 48 48"><path d="M6 12.25A6.25 6.25 0 0 1 12.25 6h23.5A6.25 6.25 0 0 1 42 12.25v23.5A6.25 6.25 0 0 1 35.75 42h-23.5A6.25 6.25 0 0 1 6 35.75v-23.5Zm2.5 23.5a3.75 3.75 0 0 0 3.75 3.75h23.5a3.75 3.75 0 0 0 3.75-3.75V18.5h-31v17.25Zm0-23.5V16h31v-3.75a3.75 3.75 0 0 0-3.75-3.75h-23.5a3.75 3.75 0 0 0-3.75 3.75Zm7.5 2a2 2 0 1 0 0-4 2 2 0 0 0 0 4Zm8 0a2 2 0 1 0 0-4 2 2 0 0 0 0 4Zm10-2a2 2 0 1 1-4 0 2 2 0 0 1 4 0ZM13.5 34.5v-11h21v11h-21ZM12.75 21A1.75 1.75 0 0 0 11 22.75v12.5c0 .967.784 1.75 1.75 1.75h22.5A1.75 1.75 0 0 0 37 35.25v-12.5A1.75 1.75 0 0 0 35.25 21h-22.5Z"/></svg>