<svg xmlns="http://www.w3.org/2000/svg" width="24" height="24"><path d="M17 3a1 1 0 1 1-2 0 1 1 0 0 1 2 0ZM8 9.5a3 3 0 0 1 3-3 3.75 3.75 0 0 1 3.75 3.75 4.5 4.5 0 0 1-4.5 4.5.75.75 0 0 0 0 1.5 6 6 0 0 0 6-6C16.25 7.35 13.9 5 11 5a4.5 4.5 0 0 0-4.5 4.5 3.75 3.75 0 0 0 3.75 3.75 3 3 0 0 0 3-3A2.25 2.25 0 0 0 11 8a1.5 1.5 0 0 0-1.5 1.5.75.75 0 0 0 1.5 0 .75.75 0 0 1 .75.75 1.5 1.5 0 0 1-1.5 1.5A2.25 2.25 0 0 1 8 9.5Zm1.166 4.626a1.75 1.75 0 0 0 1.084 3.124A7.003 7.003 0 0 0 17.03 12h1.463c.642 0 1.269.19 1.803.546l2.37 1.58a.75.75 0 1 1-.832 1.248L20 14.151v4.599A3.25 3.25 0 0 1 16.75 22h-9.5A3.25 3.25 0 0 1 4 18.75v-4.599l-1.834 1.223a.75.75 0 1 1-.832-1.248l2.37-1.58A3.25 3.25 0 0 1 5.507 12h.703a4.757 4.757 0 0 0 2.956 2.126ZM20.25 5a.75.75 0 0 0-1.5 0v.75H18a.75.75 0 0 0 0 1.5h.75V8a.75.75 0 0 0 1.5 0v-.75H21a.75.75 0 0 0 0-1.5h-.75V5Z"/></svg>