<svg xmlns="http://www.w3.org/2000/svg" width="28" height="28"><path d="M17.75 3.5a2.25 2.25 0 0 0 0 4.5h.5a.75.75 0 0 1 0 1.5h-.5a3.75 3.75 0 1 1 0-7.5h.5a.75.75 0 0 1 0 1.5h-.5ZM17 5.75a.75.75 0 0 1 .75-.75h5.5a.75.75 0 0 1 0 1.5h-5.5a.75.75 0 0 1-.75-.75ZM23.25 8a2.25 2.25 0 0 0 0-4.5h-.5a.75.75 0 0 1 0-1.5h.5a3.75 3.75 0 1 1 0 7.5h-.5a.75.75 0 0 1 0-1.5h.5Zm1.25 9.25v-6.916a4.729 4.729 0 0 0 1.5-.71v7.626A3.75 3.75 0 0 1 22.25 21h-5.941l-6.535 4.715C8.616 26.55 7 25.723 7 24.295V21H5.75A3.75 3.75 0 0 1 2 17.25V6.75A3.75 3.75 0 0 1 5.75 3h8.127a4.728 4.728 0 0 0-.71 1.5H5.75A2.25 2.25 0 0 0 3.5 6.75v10.5a2.25 2.25 0 0 0 2.25 2.25H8.5v4.796c0 .203.23.322.396.202l6.928-4.998h6.426a2.25 2.25 0 0 0 2.25-2.25Z"/></svg>