<svg xmlns="http://www.w3.org/2000/svg" width="24" height="24" viewBox="0 0 24 24"><path d="M8.25 2a3.25 3.25 0 0 0-3.241 3.007c.08-.005.16-.007.241-.007h9.5A4.25 4.25 0 0 1 19 9.25v1.924a6.488 6.488 0 0 1 3 1.635V6.75A4.75 4.75 0 0 0 17.25 2h-9ZM18 9.25v1.769A6.5 6.5 0 0 0 11.174 19h-.507L7 21.75c-.824.618-2 .03-2-1v-1.76a3.25 3.25 0 0 1-3-3.24v-6.5A3.25 3.25 0 0 1 5.25 6h9.5A3.25 3.25 0 0 1 18 9.25Zm5 8.25a5.5 5.5 0 1 0-11 0 5.5 5.5 0 0 0 11 0Zm-2.146-2.354a.5.5 0 0 1 0 .708l-4 4a.5.5 0 0 1-.708 0l-2-2a.5.5 0 0 1 .708-.708l1.646 1.647 3.646-3.647a.5.5 0 0 1 .708 0Z"/></svg>