<svg xmlns="http://www.w3.org/2000/svg" width="16" height="16"><path d="M3 4.5a.5.5 0 0 1 .5-.5h9.001a.5.5 0 0 1 .5.5v2a.5.5 0 0 1-.5.5h-9a.5.5 0 0 1-.5-.5v-2ZM4 5v1h8.001V5h-8Zm5.5 3a.5.5 0 0 0-.5.5v3.005a.5.5 0 0 0 .5.5h3a.5.5 0 0 0 .5-.5V8.5a.5.5 0 0 0-.5-.5h-3Zm.5 3.005V9h2v2.005h-2ZM3 9a.5.5 0 0 1 .5-.5h4a.5.5 0 0 1 0 1h-4A.5.5 0 0 1 3 9Zm.5 1.5a.5.5 0 0 0 0 1h4a.5.5 0 1 0 0-1h-4Zm-2.502-6a2.5 2.5 0 0 1 2.5-2.5h9.005a2.5 2.5 0 0 1 2.5 2.5v7.002a2.5 2.5 0 0 1-2.5 2.5H3.498a2.5 2.5 0 0 1-2.5-2.5V4.5Zm2.5-1.5a1.5 1.5 0 0 0-1.5 1.5v7.002a1.5 1.5 0 0 0 1.5 1.5h9.005a1.5 1.5 0 0 0 1.5-1.5V4.5a1.5 1.5 0 0 0-1.5-1.5H3.498Z"/></svg>