<svg xmlns="http://www.w3.org/2000/svg" width="16" height="16" viewBox="0 0 16 16"><path d="M3 3.707V7.5a.5.5 0 0 0 .5.5h3.793L12 12.707V13a1 1 0 0 1-1 1h-.5a.5.5 0 0 0 0 1h.5a2 2 0 0 0 1.905-1.388l1.241 1.242a.5.5 0 0 0 .708-.708l-13-13a.5.5 0 1 0-.708.708L3 3.707Zm9 6.172.909.909A.498.498 0 0 0 13 10.5v-1a.5.5 0 0 0-1 0v.379ZM3.502 1.38 10.122 8H12.5a.5.5 0 0 0 .5-.5V6H9.5A1.5 1.5 0 0 1 8 4.5V1H4.5c-.383 0-.733.144-.998.38ZM9 4.5V1.25L12.75 5H9.5a.5.5 0 0 1-.5-.5Zm-5 5a.5.5 0 0 0-1 0v1a.5.5 0 0 0 1 0v-1Zm0 3a.5.5 0 0 0-1 0v.5a2 2 0 0 0 2 2h.5a.5.5 0 0 0 0-1H5a1 1 0 0 1-1-1v-.5ZM7.5 14a.5.5 0 0 0 0 1h1a.5.5 0 0 0 0-1h-1Z"/></svg>