<svg xmlns="http://www.w3.org/2000/svg" width="48" height="48" viewBox="0 0 48 48"><path d="M5.25 41.5a1.25 1.25 0 1 1 0-2.5h37.5a1.25 1.25 0 1 1 0 2.5H5.25ZM26 32.25a4.25 4.25 0 0 0 4.25 4.25h5.5A4.25 4.25 0 0 0 40 32.25v-15A4.25 4.25 0 0 0 35.75 13h-5.5A4.25 4.25 0 0 0 26 17.25v15ZM30.25 34a1.75 1.75 0 0 1-1.75-1.75v-15c0-.966.784-1.75 1.75-1.75h5.5c.967 0 1.75.784 1.75 1.75v15A1.75 1.75 0 0 1 35.75 34h-5.5Zm-18 2.5h5.5A4.25 4.25 0 0 0 22 32.25V10a4.25 4.25 0 0 0-4.25-4.25h-5.5A4.25 4.25 0 0 0 8 10v22.25a4.25 4.25 0 0 0 4.25 4.25Zm5.5-2.5h-5.5a1.75 1.75 0 0 1-1.75-1.75V10c0-.966.784-1.75 1.75-1.75h5.5c.966 0 1.75.784 1.75 1.75v22.25A1.75 1.75 0 0 1 17.75 34Z"/></svg>