<svg xmlns="http://www.w3.org/2000/svg" width="16" height="16"><path d="M4.75 2a.75.75 0 0 1 0 1.5c-.69 0-1.25.56-1.25 1.25a.75.75 0 0 1-1.5 0A2.75 2.75 0 0 1 4.75 2Zm4.75.75A.75.75 0 0 0 8.75 2h-1.5a.75.75 0 0 0 0 1.5h1.5a.75.75 0 0 0 .75-.75Zm1 0c0 .414.336.75.75.75.69 0 1.25.56 1.25 1.25a.75.75 0 0 0 1.5 0A2.75 2.75 0 0 0 11.25 2a.75.75 0 0 0-.75.75ZM4.75 12.5a.75.75 0 0 1 0 1.5A2.75 2.75 0 0 1 2 11.25a.75.75 0 0 1 1.5 0c0 .69.56 1.25 1.25 1.25Zm-2-3a.75.75 0 0 0 .75-.75v-1.5a.75.75 0 0 0-1.5 0v1.5c0 .414.336.75.75.75ZM10.5 15a4.5 4.5 0 1 0 0-9 4.5 4.5 0 0 0 0 9ZM8.896 7.896a.5.5 0 1 1 .708.708l-.897.896h1.543A2.75 2.75 0 0 1 13 12.25v.25a.5.5 0 0 1-1 0v-.25a1.75 1.75 0 0 0-1.75-1.75H8.707l.897.896a.5.5 0 0 1-.708.708L7.144 10.35a.498.498 0 0 1 .002-.705l1.75-1.75Z"/></svg>