<svg xmlns="http://www.w3.org/2000/svg" width="28" height="28"><path d="M2 14C2 7.373 7.373 2 14 2c6.376 0 11.59 4.972 11.977 11.25a3.287 3.287 0 0 0-3.584.712l-3.044 3.044a.75.75 0 0 0-.718.32l-.007.01a4.068 4.068 0 0 1-.247.297 5.66 5.66 0 0 1-.859.758c-.768.553-1.93 1.109-3.518 1.109-1.587 0-2.75-.556-3.518-1.109a5.64 5.64 0 0 1-.858-.757 4.06 4.06 0 0 1-.247-.297l-.009-.012a.75.75 0 0 0-1.238.847v.001l.002.002.002.003.008.01a3.057 3.057 0 0 0 .097.131c.065.083.158.196.28.329a7.11 7.11 0 0 0 1.087.96C10.576 20.307 12.038 21 14 21c.536 0 1.035-.052 1.496-.141l-1.006 1.006a3.685 3.685 0 0 0-.97 1.712l-.457 1.83a2.12 2.12 0 0 0-.064.552C6.84 25.45 2 20.29 2 14Zm15.5-1a1.5 1.5 0 1 0 0-3 1.5 1.5 0 0 0 0 3ZM12 11.5a1.5 1.5 0 1 0-3 0 1.5 1.5 0 0 0 3 0Zm11.1 3.17-7.903 7.902a2.686 2.686 0 0 0-.706 1.247l-.458 1.831a1.087 1.087 0 0 0 1.319 1.318l1.83-.457a2.685 2.685 0 0 0 1.248-.707l7.902-7.902a2.286 2.286 0 0 0-3.232-3.233Z"/></svg>