<svg xmlns="http://www.w3.org/2000/svg" width="16" height="16"><path d="M9.5 5h3.25L9 1.25V4.5a.5.5 0 0 0 .5.5Zm0 1A1.5 1.5 0 0 1 8 4.5V1H4.5A1.5 1.5 0 0 0 3 2.5v11A1.5 1.5 0 0 0 4.5 15h7a1.5 1.5 0 0 0 1.5-1.5V6H9.5Zm-1.65 5.15c.05.04.09.1.11.16.03.06.04.12.04.19s-.01.13-.04.19c-.02.06-.06.12-.11.16-.04.05-.1.09-.16.11-.06.03-.12.04-.19.04s-.13-.01-.19-.04a.355.355 0 0 1-.16-.11l-.65-.64-.65.64c-.04.05-.1.09-.16.11-.06.03-.12.04-.19.04s-.13-.01-.19-.04a.355.355 0 0 1-.16-.11.355.355 0 0 1-.11-.16.406.406 0 0 1-.04-.19c0-.07.01-.13.04-.19.02-.06.06-.12.11-.16l.64-.65-.64-.65A.47.47 0 0 1 5 9.5c0-.13.05-.26.15-.35.09-.1.22-.15.35-.15.13 0 .26.05.35.15l.65.64.65-.64c.09-.1.22-.15.35-.15.13 0 .26.05.35.15.1.09.15.22.15.35 0 .13-.05.26-.15.35l-.64.65.64.65ZM12 12H9.5a.47.47 0 0 1-.35-.15.47.47 0 0 1-.15-.35c0-.13.05-.26.15-.35.09-.1.22-.15.35-.15H12v1Z"/></svg>