<svg xmlns="http://www.w3.org/2000/svg" width="32" height="32"><path d="M20.039 4.751a1 1 0 0 0 1.922.551l.827-2.884a1 1 0 1 0-1.922-.55l-.827 2.883Zm8.668-1.458a1 1 0 0 1 0 1.414l-3 3a1 1 0 1 1-1.414-1.414l3-3a1 1 0 0 1 1.414 0ZM26 11.002a1 1 0 0 1 1-1h3a1 1 0 0 1 0 2h-3a1 1 0 0 1-1-1ZM11.956 5.659a3 3 0 0 1 4.805-.78l10.36 10.36a3 3 0 0 1-.78 4.804l-4.749 2.375a5.5 5.5 0 0 1-9.813 4.906l-2.717 1.359A3 3 0 0 1 5.6 28.12L3.88 26.4a3 3 0 0 1-.562-3.463l8.64-17.28Zm1.62 20.767a3.5 3.5 0 0 0 6.218-3.109l-6.217 3.108Zm1.77-20.133a1 1 0 0 0-1.6.26l-8.64 17.279a1 1 0 0 0 .187 1.154l1.72 1.72a1 1 0 0 0 1.155.188l17.279-8.64a1 1 0 0 0 .26-1.601l-10.36-10.36Z"/></svg>