<svg xmlns="http://www.w3.org/2000/svg" width="32" height="32"><path d="M7.486 3.643A1 1 0 0 0 8.509 5.36l.009-.005.06-.033c.061-.031.16-.08.3-.142.28-.123.723-.295 1.334-.47C11.435 4.363 13.342 4 16 4c2.658 0 4.565.362 5.788.712.612.174 1.054.346 1.334.47a5.208 5.208 0 0 1 .36.174l.01.005a1 1 0 0 0 1.023-1.718l-.002-.002h-.002l-.005-.003-.012-.008a3.607 3.607 0 0 0-.152-.082 7.208 7.208 0 0 0-.416-.198 12.727 12.727 0 0 0-1.589-.562C20.935 2.388 18.842 2 16 2c-2.842 0-4.935.388-6.337.788-.7.2-1.228.404-1.588.562a7.184 7.184 0 0 0-.569.28l-.012.008-.005.002-.002.001-.001.002ZM3.5 11A3.5 3.5 0 0 1 7 7.5h10a3.5 3.5 0 0 1 3.5 3.5v10a3.5 3.5 0 0 1-3.5 3.5H7A3.5 3.5 0 0 1 3.5 21V11ZM22 18.573l3.972 3.157c.82.651 2.028.068 2.028-.978v-9.504c0-1.046-1.209-1.63-2.028-.978L22 13.428v5.145ZM7.143 26.985a1 1 0 0 0 .343 1.373h.001l.002.002.005.003.012.006a2.406 2.406 0 0 0 .152.083c.098.051.236.119.417.198.36.158.887.361 1.588.562 1.402.4 3.495.788 6.337.788 2.842 0 4.935-.388 6.337-.788.701-.2 1.228-.404 1.589-.562a7.15 7.15 0 0 0 .533-.26l.035-.02.012-.008.005-.002.002-.002h.002a1 1 0 0 0-1.024-1.719l-.008.005a5.213 5.213 0 0 1-.361.175c-.28.123-.722.295-1.334.47-1.223.349-3.13.711-5.788.711-2.658 0-4.565-.362-5.788-.712a10.539 10.539 0 0 1-1.333-.47 5.203 5.203 0 0 1-.361-.174l-.009-.005a1 1 0 0 0-1.366.346Z"/></svg>