<svg xmlns="http://www.w3.org/2000/svg" width="48" height="48"><path d="M24 4c11.046 0 20 8.954 20 20s-8.954 20-20 20S4 35.046 4 24 12.954 4 24 4Zm-6.116 12.116-.102-.091a1.25 1.25 0 0 0-1.564 0l-.102.091-.091.102a1.25 1.25 0 0 0 0 1.564l.091.102L22.233 24l-6.117 6.116-.091.102a1.25 1.25 0 0 0 0 1.564l.091.102.102.091a1.25 1.25 0 0 0 1.564 0l.102-.091L24 25.767l6.116 6.117.102.091a1.25 1.25 0 0 0 1.564 0l.102-.091.091-.102a1.25 1.25 0 0 0 0-1.564l-.091-.102L25.767 24l6.117-6.116.091-.102a1.25 1.25 0 0 0 0-1.564l-.091-.102-.102-.091a1.25 1.25 0 0 0-1.564 0l-.102.091L24 22.233l-6.116-6.117-.102-.091.102.091Z"/></svg>