<svg xmlns="http://www.w3.org/2000/svg" width="24" height="24"><path d="M8.143 6.307c.434-.232.901-.306 1.356-.306.526 0 1.138.173 1.631.577.518.424.869 1.074.869 1.922 0 .975-.689 1.504-1.077 1.802l-.085.066c-.424.333-.588.511-.588.882a.75.75 0 1 1-1.5 0c0-1.134.711-1.708 1.162-2.062.513-.403.588-.493.588-.688 0-.397-.149-.622-.32-.761A1.115 1.115 0 0 0 9.5 7.5c-.295 0-.498.049-.65.13-.143.076-.294.21-.44.48a.75.75 0 0 1-1.32-.715c.264-.486.612-.853 1.054-1.089ZM9.499 15a1 1 0 1 0 0-2 1 1 0 0 0 0 2Zm0-12a7.5 7.5 0 0 0-6.797 10.673l-.725 2.842a1.25 1.25 0 0 0 1.504 1.524c.75-.18 1.903-.457 2.931-.702A7.5 7.5 0 1 0 9.499 3Zm-6 7.5a6 6 0 1 1 3.33 5.375l-.243-.121-.265.063-2.788.667c.2-.78.462-1.812.69-2.708l.07-.276-.13-.253A5.971 5.971 0 0 1 3.5 10.5Zm11 10.5a7.476 7.476 0 0 1-5.1-2h.1c.718 0 1.415-.089 2.081-.257.864.482 1.86.757 2.92.757.96 0 1.866-.225 2.67-.625l.242-.121.265.063c.922.22 1.965.445 2.74.61a157.95 157.95 0 0 0-.642-2.651l-.07-.276.13-.253a5.971 5.971 0 0 0 .664-2.747 5.995 5.995 0 0 0-2.747-5.042 8.44 8.44 0 0 0-.8-2.047 7.503 7.503 0 0 1 4.344 10.263c.253 1.008.51 2.1.672 2.803a1.244 1.244 0 0 1-1.468 1.5 132.62 132.62 0 0 1-2.913-.64 7.476 7.476 0 0 1-3.088.663Z"/></svg>