<svg xmlns="http://www.w3.org/2000/svg" width="20" height="20" viewBox="0 0 20 20"><path d="M2.854 2.146a.5.5 0 1 0-.708.708l1.416 1.415A2.75 2.75 0 0 0 2 6.75v6.5A2.75 2.75 0 0 0 4.75 16h10.543l1.853 1.854a.5.5 0 0 0 .708-.708l-15-15Zm8.38 9.795a2.241 2.241 0 0 1-1.484.559H9.5A.5.5 0 0 1 9 12V9.707l1 1v.768c.195-.04.374-.125.524-.244l.71.71ZM8 8.707V12a.5.5 0 0 1-1 0v-1.5H5V12a.5.5 0 0 1-1 0V8a.5.5 0 0 1 1 0v1.5h2V8c0-.085.021-.165.058-.235L8 8.707Zm4 1.043v.129l1 1V8a.5.5 0 0 1 .5-.5h1a1.5 1.5 0 0 1 .868 2.724l.6 1.6a.5.5 0 0 1-.936.352l-.629-1.676H14v1.379l3.254 3.254A2.74 2.74 0 0 0 18 13.25v-6.5A2.75 2.75 0 0 0 15.25 4H6.121l3.5 3.5h.129A2.25 2.25 0 0 1 12 9.75Zm2-.25h.5a.5.5 0 0 0 0-1H14v1Z"/></svg>