<svg xmlns="http://www.w3.org/2000/svg" width="20" height="20" viewBox="0 0 20 20"><path d="M2.75 4.5a.75.75 0 0 0 0 1.5h14.5a.75.75 0 0 0 0-1.5H2.75Zm0 3a.75.75 0 0 0 0 1.5h8.5a.75.75 0 0 0 0-1.5h-8.5Zm0 3a.75.75 0 0 0 0 1.5h6.633a1.496 1.496 0 0 1-.284-1.5H2.75Zm0 3h6.628L7.876 15H2.75a.75.75 0 0 1 0-1.5Zm11.746-6.061a.5.5 0 0 0-.992 0l-.098.791a2.5 2.5 0 0 1-2.176 2.176l-.791.098a.5.5 0 0 0 0 .992l.791.098a2.5 2.5 0 0 1 2.176 2.176l.098.791a.5.5 0 0 0 .992 0l.098-.791a2.5 2.5 0 0 1 2.176-2.176l.791-.098a.5.5 0 0 0 0-.992l-.791-.098a2.5 2.5 0 0 1-2.176-2.176l-.098-.791Zm-2.643 5.708a.5.5 0 0 1 0 .707l-4 3.996a.5.5 0 0 1-.706-.707l3.999-3.997a.5.5 0 0 1 .707 0Z"/></svg>