<svg xmlns="http://www.w3.org/2000/svg" width="24" height="24"><path d="M12 2a9 9 0 0 0-9 9v6.25c0 .414.336.75.75.75h16.5a.75.75 0 0 0 .75-.75V11a9 9 0 0 0-9-9Zm-7.5 9a7.5 7.5 0 1 1 15 0v5.5h-4.303a4.155 4.155 0 0 0 1.303-3.014c0-1.727-.873-2.78-1.597-3.653l-.075-.091c-.74-.894-1.328-1.655-1.328-2.992a.75.75 0 0 0-.947-.724c-.95.26-1.473.872-1.746 1.556-.226.567-.282 1.2-.323 1.655l-.012.13a5.1 5.1 0 0 1-.063.495 3.204 3.204 0 0 1-.531-.26.75.75 0 0 0-.887.097l-.002.002-.003.002-.006.007-.019.017a3.796 3.796 0 0 0-.233.255c-.14.17-.323.416-.505.734a5.566 5.566 0 0 0-.723 2.77c0 1.18.489 2.244 1.294 3.014H4.5V11Zm-1.75 8.5a.75.75 0 0 0 0 1.5h18.5a.75.75 0 0 0 0-1.5H2.75Z"/></svg>