<svg xmlns="http://www.w3.org/2000/svg" width="16" height="16" viewBox="0 0 16 16"><path d="M4.913 1.714A1 1 0 0 1 5.872 1h4.406a1 1 0 0 1 .936 1.351L10.22 5h2.03a.75.75 0 0 1 .586 1.217L11.577 7.8l-.235-.47a1.494 1.494 0 0 0-.11-.185 2.944 2.944 0 0 0-.204-.262L11.732 6H9.5a2.514 2.514 0 0 0-.5-.5.5.5 0 0 1 .031-.176L10.278 2H5.872L4.084 8h.966c.14.688.562 1.273 1.14 1.63l-1.178 4.039a.235.235 0 0 0 .007.174.264.264 0 0 0 .118.118c.057.03.116.037.164.029a.235.235 0 0 0 .147-.095l3.428-4.307c.06-.04.12-.083.177-.128l.105.21.009.017.35.7-3.287 4.13c-.854 1.073-2.562.188-2.178-1.128L5.332 9H3.75a.75.75 0 0 1-.72-.964l1.884-6.322ZM7.5 6a1.5 1.5 0 0 1 1.411.99c.147.001.308.009.456.036a1.575 1.575 0 0 1 1.08.75l.983 1.965a.568.568 0 0 0 .384.25c.091.016.174.02.268.019a1.5 1.5 0 1 1 .007 1 2.704 2.704 0 0 1-.456-.036 1.575 1.575 0 0 1-1.08-.75L9.57 8.259a.568.568 0 0 0-.384-.25 1.328 1.328 0 0 0-.268-.019A1.5 1.5 0 1 1 7.5 6ZM8 7.5a.5.5 0 1 0-1 0 .5.5 0 0 0 1 0Zm6 3a.5.5 0 1 0-1 0 .5.5 0 0 0 1 0Z"/></svg>