<svg xmlns="http://www.w3.org/2000/svg" width="16" height="16" viewBox="0 0 16 16"><path d="M8.5 1a2.5 2.5 0 0 0 0 5H9a.5.5 0 0 0 0-1h-.5a1.5 1.5 0 1 1 0-3H9a.5.5 0 0 0 0-1h-.5ZM12 1a.5.5 0 0 0 0 1h.5a1.5 1.5 0 0 1 0 3H12a.5.5 0 0 0 0 1h.5a2.5 2.5 0 0 0 0-5H12ZM8 3.5a.5.5 0 0 1 .5-.5h4a.5.5 0 0 1 0 1h-4a.5.5 0 0 1-.5-.5Zm6 6V6.663a3.51 3.51 0 0 0 1-.714V9.5a2.5 2.5 0 0 1-2.5 2.5H8.688l-3.063 2.68A.98.98 0 0 1 4 13.942V12h-.5A2.5 2.5 0 0 1 1 9.5v-5A2.5 2.5 0 0 1 3.5 2h1.837c-.148.31-.251.647-.302 1H3.5A1.5 1.5 0 0 0 2 4.5v5A1.5 1.5 0 0 0 3.5 11H5v2.898L8.312 11H12.5A1.5 1.5 0 0 0 14 9.5Z"/></svg>