<svg xmlns="http://www.w3.org/2000/svg" width="20" height="20" viewBox="0 0 20 20"><path d="M17 5.75a.75.75 0 0 0-.75-.75h-2.5a.75.75 0 0 0 0 1.5h2.5a.75.75 0 0 0 .75-.75Zm-6 0a.75.75 0 0 0-.75-.75h-6.5a.75.75 0 0 0 0 1.5h6.5a.75.75 0 0 0 .75-.75Zm6 3a.75.75 0 0 0-.75-.75h-2.5a.75.75 0 0 0 0 1.5h2.5a.75.75 0 0 0 .75-.75Zm-6 0a.75.75 0 0 0-.75-.75h-6.5a.75.75 0 0 0 0 1.5h6.5a.75.75 0 0 0 .75-.75Zm6 3a.75.75 0 0 0-.75-.75h-2.5a.75.75 0 0 0 0 1.5h2.5a.75.75 0 0 0 .75-.75Zm-6 0a.75.75 0 0 0-.75-.75h-6.5a.75.75 0 0 0 0 1.5h6.5a.75.75 0 0 0 .75-.75Zm6 3a.75.75 0 0 0-.75-.75h-2.5a.75.75 0 0 0 0 1.5h2.5a.75.75 0 0 0 .75-.75Zm-6 0a.75.75 0 0 0-.75-.75h-6.5a.75.75 0 0 0 0 1.5h6.5a.75.75 0 0 0 .75-.75Z"/></svg>