<svg xmlns="http://www.w3.org/2000/svg" width="32" height="32" viewBox="0 0 32 32"><path d="M15.629.512a1.5 1.5 0 1 0-2.258 1.976l1.375 1.572C8.155 4.69 3 10.243 3 17c0 7.18 5.82 13 13 13s13-5.82 13-13v-.5a1.5 1.5 0 1 0-3 0v.5c0 5.523-4.477 10-10 10S6 22.523 6 17c0-5.051 3.745-9.228 8.61-9.904l-1.239 1.416a1.5 1.5 0 1 0 2.258 1.976l3.5-4a1.5 1.5 0 0 0 0-1.976l-3.5-4Zm6.98 11.979a1.5 1.5 0 0 1-.1 2.119l-5.5 5a1.5 1.5 0 0 1-2.07-.05l-2.5-2.5a1.5 1.5 0 0 1 2.122-2.12l1.488 1.488 4.442-4.038a1.5 1.5 0 0 1 2.119.101Z"/></svg>