<svg xmlns="http://www.w3.org/2000/svg" width="28" height="28" viewBox="0 0 28 28"><path d="M3.28 2.22a.75.75 0 1 0-1.06 1.06l4.257 4.258A8.464 8.464 0 0 0 5.5 11.5l-.001 4.611-1.416 3.644-.042.124a1.28 1.28 0 0 0 1.235 1.62l5.223-.001.006.194a3.502 3.502 0 0 0 6.997-.192h2.938l4.28 4.28a.75.75 0 0 0 1.061-1.061L3.28 2.22Zm15.658 17.779H5.596l1.352-3.474.028-.088a.75.75 0 0 0 .023-.184v-4.752l.004-.24a6.968 6.968 0 0 1 .596-2.601l11.34 11.339Zm-2.942 1.651a2.002 2.002 0 0 1-3.998-.149L16 21.5l-.004.151ZM8.34 5.158l1.063 1.063a7.001 7.001 0 0 1 11.599 5.28v4.752l.005.093a.748.748 0 0 0 .045.179l.853 2.199 1.996 1.995c.065-.153.1-.322.1-.499l-.01-.158a1.287 1.287 0 0 0-.076-.305l-1.414-3.644v-4.612l-.004-.255A8.501 8.501 0 0 0 8.34 5.158Z"/></svg>