<svg xmlns="http://www.w3.org/2000/svg" width="20" height="20"><path d="m7.44 3.034-.196 1.013a1.417 1.417 0 0 1-1.853 1.07l-.977-.338a4.495 4.495 0 0 0-.563.972l.782.679c.65.565.65 1.575 0 2.14l-.782.679c.147.348.337.674.563.971l.977-.337a1.417 1.417 0 0 1 1.853 1.07l.197 1.013a4.546 4.546 0 0 0 1.124-.001l.196-1.012a1.417 1.417 0 0 1 1.853-1.07l.971.335c.227-.298.417-.625.564-.975l-.776-.673a1.417 1.417 0 0 1 0-2.14l.776-.674a4.493 4.493 0 0 0-.564-.975l-.97.335a1.417 1.417 0 0 1-1.854-1.07l-.196-1.01a4.55 4.55 0 0 0-1.125-.002Zm-.522-.928a5.524 5.524 0 0 1 2.17.002.5.5 0 0 1 .393.395l.262 1.353a.417.417 0 0 0 .545.315l1.3-.449a.5.5 0 0 1 .538.143c.478.542.851 1.18 1.087 1.881a.5.5 0 0 1-.146.537l-1.039.902a.417.417 0 0 0 0 .63l1.04.901a.5.5 0 0 1 .145.537 5.495 5.495 0 0 1-1.087 1.882.5.5 0 0 1-.538.142l-1.3-.449a.417.417 0 0 0-.545.315l-.262 1.354a.5.5 0 0 1-.392.395 5.518 5.518 0 0 1-2.17.002.5.5 0 0 1-.394-.396l-.262-1.355a.417.417 0 0 0-.545-.315l-1.307.451a.5.5 0 0 1-.538-.142A5.495 5.495 0 0 1 2.786 9.26a.5.5 0 0 1 .146-.537l1.045-.908a.417.417 0 0 0 0-.629l-1.045-.907a.5.5 0 0 1-.146-.538c.236-.7.61-1.336 1.087-1.878a.5.5 0 0 1 .538-.142l1.307.451a.417.417 0 0 0 .545-.315l.262-1.354a.5.5 0 0 1 .393-.396Zm4.771 10.19a.46.46 0 0 0-.526.151c-.14.194-.261.403-.36.623a.459.459 0 0 0 .13.532l.64.555a.455.455 0 0 1 0 .686l-.64.555a.459.459 0 0 0-.13.532c.099.22.22.429.36.623a.46.46 0 0 0 .526.152l.8-.276a.455.455 0 0 1 .594.343l.16.83c.04.2.194.36.396.38a3.556 3.556 0 0 0 .719 0 .459.459 0 0 0 .395-.38l.16-.83a.454.454 0 0 1 .595-.343l.8.276a.46.46 0 0 0 .526-.152c.14-.194.261-.403.36-.623a.459.459 0 0 0-.13-.532l-.64-.555a.455.455 0 0 1 0-.686l.64-.555a.459.459 0 0 0 .13-.532 3.567 3.567 0 0 0-.36-.623.46.46 0 0 0-.526-.152l-.8.276a.454.454 0 0 1-.594-.343l-.16-.83a.459.459 0 0 0-.396-.38 3.552 3.552 0 0 0-.719 0 .459.459 0 0 0-.395.38l-.161.83a.455.455 0 0 1-.595.343l-.799-.276ZM14 15.5a1 1 0 1 1 0-2 1 1 0 0 1 0 2Zm-7-8a1 1 0 1 1 2 0 1 1 0 0 1-2 0Zm1-2a2 2 0 1 0 0 4 2 2 0 0 0 0-4Z"/></svg>