<svg xmlns="http://www.w3.org/2000/svg" width="16" height="16"><path d="m4.225 6.5.134-.048 1.135-2.128A2.5 2.5 0 0 1 7.7 3h2.859a2.5 2.5 0 0 1 2.371 1.71l.541 1.623A2.5 2.5 0 0 1 15 8.637V9.75c0 .71-.422 1.32-1.03 1.595a2 2 0 0 1-3.907.155H5.937a2 2 0 0 1-3.907-.155A1.75 1.75 0 0 1 1 9.75v-.339c0-1.057.666-2 1.662-2.355l1.51-.537V6.5h.053ZM10.559 4H9.5v2.5h2.973l-.492-1.474A1.5 1.5 0 0 0 10.56 4ZM8.5 4h-.8a1.5 1.5 0 0 0-1.324.794L5.466 6.5H8.5V4ZM4.397 7.5l-1.4.498A1.5 1.5 0 0 0 2 9.411v.339c0 .175.06.336.16.464a2 2 0 0 1 3.777.286h4.126a2 2 0 0 1 3.776-.286A.746.746 0 0 0 14 9.75V8.637a1.5 1.5 0 0 0-.52-1.137H4.396ZM13 11a1 1 0 1 0-2 0 1 1 0 0 0 2 0Zm-9-1a1 1 0 1 0 0 2 1 1 0 0 0 0-2Z"/></svg>