<svg xmlns="http://www.w3.org/2000/svg" width="20" height="20"><path d="M13.5 3a.75.75 0 0 0-.697.471l-3 7.5a.75.75 0 0 0 1.393.557l.812-2.028h2.984l.811 2.028a.75.75 0 0 0 1.393-.556l-3-7.5A.75.75 0 0 0 13.5 3Zm0 2.77L14.392 8h-1.784l.892-2.23ZM5.22 4.22a.75.75 0 0 1 1.06 1.06L5.56 6h3.69a.75.75 0 0 1 0 1.5H5.56l.72.72a.75.75 0 0 1-1.06 1.06l-2-2a.75.75 0 0 1 0-1.06l2-2Zm0 7.5a.75.75 0 0 1 1.06 1.06l-.72.72h10.69a.75.75 0 0 1 0 1.5H5.56l.72.72a.75.75 0 1 1-1.06 1.06l-2-2a.75.75 0 0 1 0-1.06l2-2Z"/></svg>