<svg xmlns="http://www.w3.org/2000/svg" width="12" height="12" viewBox="0 0 12 12"><path d="M4.25 2A2.25 2.25 0 0 0 2 4.25v.357a.75.75 0 1 0 1.5 0V4.25a.75.75 0 0 1 .75-.75h.357a.75.75 0 1 0 0-1.5H4.25Zm3.143 0a.75.75 0 1 0 0 1.5h.357a.75.75 0 0 1 .75.75v.357a.75.75 0 1 0 1.5 0V4.25A2.25 2.25 0 0 0 7.75 2h-.357ZM3.5 7.393a.75.75 0 1 0-1.5 0v.357A2.25 2.25 0 0 0 4.25 10h.357a.75.75 0 1 0 0-1.5H4.25a.75.75 0 0 1-.75-.75v-.357Zm6.5 0a.75.75 0 1 0-1.5 0v.357a.75.75 0 0 1-.75.75h-.357a.75.75 0 1 0 0 1.5h.357A2.25 2.25 0 0 0 10 7.75v-.357ZM4.75 5.25a.75.75 0 0 0 0 1.5h2.5a.75.75 0 0 0 0-1.5h-2.5Z"/></svg>