<svg xmlns="http://www.w3.org/2000/svg" width="20" height="20" viewBox="0 0 20 20"><path d="M17.18 2.927a2.975 2.975 0 0 0-4.26-.054l-9.375 9.375a2.438 2.438 0 0 0-.655 1.194l-.878 3.95a.5.5 0 0 0 .597.597l3.926-.873a2.518 2.518 0 0 0 1.234-.678L8.207 16a5.488 5.488 0 0 1-.2-1.214l-.945.945a1.518 1.518 0 0 1-.744.409l-3.16.702.708-3.183c.059-.267.193-.511.387-.704l7.996-7.996 2.793 2.792-1.256 1.256c.418.022.825.09 1.214.2l2.127-2.127a2.975 2.975 0 0 0 .052-4.153Zm-3.553.653a1.975 1.975 0 0 1 2.793 2.793l-.671.671-2.793-2.792.671-.672Zm-2.56 7.863a2 2 0 0 1-1.431 2.478l-.461.118a4.708 4.708 0 0 0 .01 1.016l.35.083a2 2 0 0 1 1.456 2.519l-.127.422c.257.204.537.378.835.518l.325-.344a2 2 0 0 1 2.91.002l.337.358c.292-.135.568-.302.822-.498l-.156-.556a2 2 0 0 1 1.43-2.479l.46-.117a4.702 4.702 0 0 0-.01-1.017l-.348-.082a2 2 0 0 1-1.456-2.52l.126-.421a4.32 4.32 0 0 0-.835-.519l-.325.344a2 2 0 0 1-2.91-.001l-.337-.358a4.316 4.316 0 0 0-.821.497l.156.557ZM13.5 15.5a1 1 0 1 1 0-2 1 1 0 0 1 0 2Z"/></svg>