<svg xmlns="http://www.w3.org/2000/svg" width="28" height="28" viewBox="0 0 28 28"><path d="M6.75 3A3.75 3.75 0 0 0 3 6.75v11.5A3.75 3.75 0 0 0 6.75 22h11.5A3.75 3.75 0 0 0 22 18.25V6.75A3.75 3.75 0 0 0 18.25 3H6.75Zm2.125 11h7.25C17.16 14 18 14.77 18 15.719c0 1.28-.682 2.26-1.73 2.89-1.019.613-2.364.891-3.77.891-1.406 0-2.751-.278-3.77-.89C7.682 17.978 7 17 7 15.718 7 14.769 7.84 14 8.875 14ZM15.5 9a3 3 0 1 1-6 0 3 3 0 0 1 6 0ZM9.25 24.5a3.745 3.745 0 0 1-3.021-1.528c.17.018.345.028.522.028H18.75A4.25 4.25 0 0 0 23 18.75v-12c0-.176-.009-.35-.028-.52A3.745 3.745 0 0 1 24.5 9.25v9.5a5.75 5.75 0 0 1-5.75 5.75h-9.5Z"/></svg>