<svg xmlns="http://www.w3.org/2000/svg" width="48" height="48" viewBox="0 0 48 48"><path d="M23.75 4c.69 0 1.25.56 1.25 1.25V6h13.75C41.65 6 44 8.35 44 11.25V29a7 7 0 1 0-11.899 5H31a5.001 5.001 0 0 0-4.585 3H19.25a1.27 1.27 0 0 1-.081.098l-6 6.5a1.25 1.25 0 1 1-1.838-1.696L15.857 37H9.25A5.25 5.25 0 0 1 4 31.75v-20.5C4 8.35 6.35 6 9.25 6H22.5v-.75c0-.69.56-1.25 1.25-1.25Zm-11.5 9.5a1.25 1.25 0 1 0 0 2.5h9.5a1.25 1.25 0 1 0 0-2.5h-9.5ZM11 21.75c0 .69.56 1.25 1.25 1.25h14.5a1.25 1.25 0 1 0 0-2.5h-14.5c-.69 0-1.25.56-1.25 1.25Zm0 7c0 .69.56 1.25 1.25 1.25h11.5a1.25 1.25 0 1 0 0-2.5h-11.5c-.69 0-1.25.56-1.25 1.25ZM42 29a5 5 0 1 1-10 0 5 5 0 0 1 10 0Zm4 10.5c0 3.5-3.15 6.5-9 6.5s-9-3-9-6.5v-.502A2.998 2.998 0 0 1 31 36h12c1.657 0 3 1.34 3 2.998v.502Z"/></svg>