<svg xmlns="http://www.w3.org/2000/svg" width="28" height="28"><path d="M21.75 3A3.25 3.25 0 0 1 25 6.25v15.5A3.25 3.25 0 0 1 21.75 25H6.25A3.25 3.25 0 0 1 3 21.75V6.25A3.25 3.25 0 0 1 6.25 3h15.5Zm1.75 6.503h-19V21.75c0 .966.784 1.75 1.75 1.75h15.5a1.75 1.75 0 0 0 1.75-1.75V9.503ZM8.749 17.501a1.25 1.25 0 1 1 0 2.5 1.25 1.25 0 0 1 0-2.5Zm5.254 0a1.25 1.25 0 1 1 0 2.5 1.25 1.25 0 0 1 0-2.5Zm-5.254-5a1.25 1.25 0 1 1 0 2.5 1.25 1.25 0 0 1 0-2.5Zm5.254 0a1.25 1.25 0 1 1 0 2.5 1.25 1.25 0 0 1 0-2.5Zm5.255 0a1.25 1.25 0 1 1 0 2.5 1.25 1.25 0 0 1 0-2.5ZM21.75 4.5H6.25A1.75 1.75 0 0 0 4.5 6.25v1.753h19V6.25a1.75 1.75 0 0 0-1.75-1.75Z"/></svg>