<svg xmlns="http://www.w3.org/2000/svg" width="20" height="20"><path d="M17 3.5a.5.5 0 0 0-1 0v2A1.5 1.5 0 0 1 14.5 7H14a3 3 0 0 0-2.315-2.922c.206-.322.316-.696.315-1.078v-.5a.5.5 0 0 0-1 0V3a1 1 0 0 1-2 0v-.5a.5.5 0 1 0-1 0V3a2 2 0 0 0 .315 1.078A3 3 0 0 0 6 7h-.5A1.5 1.5 0 0 1 4 5.5v-2a.5.5 0 1 0-1 0v2A2.5 2.5 0 0 0 5.5 8H6v1.5H2.5a.5.5 0 1 0 0 1H6V12h-.5A2.5 2.5 0 0 0 3 14.5v2a.5.5 0 0 0 1 0v-2A1.5 1.5 0 0 1 5.5 13H6a3.986 3.986 0 0 0 3.587 3.958A5.486 5.486 0 0 1 14 9.025V8h.5A2.5 2.5 0 0 0 17 5.5v-2ZM14.5 10a4.5 4.5 0 1 0 0 9 4.5 4.5 0 0 0 0-9Zm0 7.25a2.743 2.743 0 0 1-2.05-.917.499.499 0 1 1 .745-.666A1.75 1.75 0 1 0 13.6 13h.4a.5.5 0 0 1 0 1h-1.5a.5.5 0 0 1-.5-.628V12a.5.5 0 0 1 1 0v.194a2.75 2.75 0 1 1 1.5 5.056Z"/></svg>