<svg xmlns="http://www.w3.org/2000/svg" width="32" height="32"><path d="M22 9A7 7 0 1 1 8 9a7 7 0 0 1 14 0Zm-2 0a5 5 0 1 0-10 0 5 5 0 0 0 10 0ZM6.5 18A3.5 3.5 0 0 0 3 21.5v.5c0 2.393 1.523 4.417 3.685 5.793C8.859 29.177 11.802 30 15 30c.744 0 1.475-.045 2.185-.13a9.052 9.052 0 0 1-1.675-1.878c-.169.005-.339.008-.51.008-2.877 0-5.434-.744-7.241-1.894C5.939 24.95 5 23.472 5 22v-.5A1.5 1.5 0 0 1 6.5 20h8.012a8.969 8.969 0 0 1 1.004-2H6.5Zm24 5a7.5 7.5 0 1 1-15 0 7.5 7.5 0 0 1 15 0Zm-8.212-4.862-.94 2.828h-2.994c-.731 0-1.03.938-.434 1.361l2.406 1.707-.929 2.792c-.228.687.555 1.267 1.146.848L23 25.931l2.457 1.743c.591.42 1.374-.16 1.146-.848l-.93-2.792 2.407-1.707c.597-.423.297-1.361-.434-1.361h-2.994l-.94-2.828c-.228-.684-1.196-.684-1.424 0Z"/></svg>