<svg xmlns="http://www.w3.org/2000/svg" width="16" height="16" viewBox="0 0 16 16"><path d="M7.647 2.146a.5.5 0 0 1 .708 0C9.595 3.39 10.969 4 12.5 4a.5.5 0 0 1 .5.5v1.1a5.465 5.465 0 0 0-1-.393v-.226c-1.48-.112-2.815-.726-4-1.792-1.186 1.066-2.52 1.68-4 1.792v2.52c0 1.431.361 2.56 1.017 3.44.053.66.222 1.288.487 1.862C3.844 11.59 3 9.81 3 7.502V4.5a.5.5 0 0 1 .5-.5c1.53 0 2.904-.611 4.147-1.854ZM15 10.5a4.5 4.5 0 1 1-9 0 4.5 4.5 0 0 1 9 0Zm-4-2a.5.5 0 0 0-1 0V10H8.5a.5.5 0 0 0 0 1H10v1.5a.5.5 0 0 0 1 0V11h1.5a.5.5 0 0 0 0-1H11V8.5Z"/></svg>