<svg xmlns="http://www.w3.org/2000/svg" width="20" height="20"><path d="M5 9.5a.5.5 0 0 1 .5.5 4.5 4.5 0 0 0 5.783 4.315 1.422 1.422 0 0 0 1.036.674 5.466 5.466 0 0 1-1.819.489V17.5a.5.5 0 0 1-1 0v-2.022A5.5 5.5 0 0 1 4.5 10a.5.5 0 0 1 .5-.5Zm7.1 4.218a.424.424 0 0 0 .8 0l.348-1.071a2.205 2.205 0 0 1 1.398-1.397l1.071-.348a.423.423 0 0 0 0-.798l-.02-.005-1.072-.349a2.207 2.207 0 0 1-1.399-1.397l-.348-1.07a.423.423 0 0 0-.799 0l-.348 1.07a2.206 2.206 0 0 1-1.377 1.397l-1.072.348a.423.423 0 0 0 0 .798l1.072.348a2.208 2.208 0 0 1 1.399 1.403l.348 1.07ZM12.48 6c.179 0 .356.034.521.099V5a3 3 0 1 0-6 0v5a3 3 0 0 0 3.78 2.898 1.206 1.206 0 0 0-.739-.704l-1.08-.35-.011-.005a1.423 1.423 0 0 1 0-2.684l.012-.004 1.073-.348a1.207 1.207 0 0 0 .746-.76l.351-1.082.004-.012A1.423 1.423 0 0 1 12.48 6Zm5.538 8.965.766.248.015.004a.303.303 0 0 1 .147.46.302.302 0 0 1-.147.11l-.765.248a1.578 1.578 0 0 0-1 .998l-.248.765a.302.302 0 0 1-.57 0l-.249-.764a1.575 1.575 0 0 0-.999-1.002l-.765-.249a.303.303 0 0 1-.146-.46.302.302 0 0 1 .146-.11l.765-.248a1.577 1.577 0 0 0 .984-.998l.249-.765a.302.302 0 0 1 .57 0l.249.764a1.575 1.575 0 0 0 .998.999Z"/></svg>