<svg xmlns="http://www.w3.org/2000/svg" width="20" height="20" viewBox="0 0 20 20"><path d="m15.226 1.353-.348-1.07a.423.423 0 0 0-.799 0l-.348 1.07a2.206 2.206 0 0 1-1.377 1.397l-1.071.348a.423.423 0 0 0 0 .798l1.071.348a2.208 2.208 0 0 1 1.399 1.403l.348 1.07a.423.423 0 0 0 .798 0l.349-1.07a2.205 2.205 0 0 1 1.398-1.397l1.072-.348a.423.423 0 0 0 0-.798l-.022-.006-1.072-.348a2.207 2.207 0 0 1-1.398-1.397Zm3.791 6.612.766.248.015.004a.303.303 0 0 1 0 .57l-.765.248a1.577 1.577 0 0 0-1 .998l-.248.765a.302.302 0 0 1-.57 0l-.249-.764a1.575 1.575 0 0 0-.999-1.002l-.765-.249a.303.303 0 0 1 0-.57l.765-.248a1.577 1.577 0 0 0 .984-.999l.249-.764a.302.302 0 0 1 .57 0l.249.764a1.575 1.575 0 0 0 .998.999ZM14 8.5V12h2.5a.5.5 0 0 1 .5.5V14a3 3 0 0 1-3 3H6a3 3 0 0 1-3-3V5a2 2 0 0 1 2-2h5.105a1.4 1.4 0 0 0-.105.5 1.42 1.42 0 0 0 1 1.34l1.1.36a1 1 0 0 1 .4.23l.06.06c.112.107.2.237.26.38L13.15 7c.09.258.25.486.46.66.118.087.25.154.39.196v.214a1.301 1.301 0 0 0 0 .43Zm0 7.5a2 2 0 0 0 2-2v-1h-2v3ZM6.5 6a.5.5 0 0 0 0 1h4a.5.5 0 0 0 0-1h-4Zm0 3a.5.5 0 0 0 0 1h4a.5.5 0 0 0 0-1h-4Zm0 3a.5.5 0 0 0 0 1h2a.5.5 0 0 0 0-1h-2Z"/></svg>