<svg xmlns="http://www.w3.org/2000/svg" width="20" height="20" viewBox="0 0 20 20"><path d="M4 5c0-1.007.875-1.755 1.904-2.223C6.978 2.289 8.427 2 10 2s3.022.289 4.096.777C15.125 3.245 16 3.993 16 5v10c0 1.007-.875 1.755-1.904 2.223C13.022 17.71 11.573 18 10 18s-3.022-.289-4.096-.777C4.875 16.755 4 16.007 4 15V5Zm1 0c0 .374.356.875 1.318 1.313C7.234 6.729 8.536 7 10 7s2.766-.27 3.682-.687C14.644 5.875 15 5.373 15 5c0-.374-.356-.875-1.318-1.313C12.766 3.271 11.464 3 10 3s-2.766.27-3.682.687C5.356 4.125 5 4.627 5 5Zm10 1.698a4.92 4.92 0 0 1-.904.525C13.022 7.711 11.573 8 10 8s-3.022-.289-4.096-.777A4.92 4.92 0 0 1 5 6.698V15c0 .374.356.875 1.318 1.313.916.416 2.218.687 3.682.687s2.766-.27 3.682-.687C14.644 15.875 15 15.373 15 15V6.698Z"/></svg>