<svg xmlns="http://www.w3.org/2000/svg" width="24" height="24" viewBox="0 0 24 24"><path d="M14.77 12.4c.15.07.32.1.48.1.33 0 .64-.13.88-.36L18.31 10h.94C20.77 10 22 8.77 22 7.25v-2.5C22 3.23 20.77 2 19.25 2h-4.5C13.23 2 12 3.23 12 4.75v2.5c0 1.26.85 2.32 2 2.65v1.35c0 .5.31.95.77 1.15ZM8 13.5c-1.93 0-3.5-1.57-3.5-3.5S6.07 6.5 8 6.5s3.5 1.57 3.5 3.5-1.57 3.5-3.5 3.5ZM8 22c-2.06 0-3.64-.56-4.7-1.67-1.336-1.404-1.303-3.174-1.3-3.357v-.013C2 15.89 2.9 15 4 15h8c1.1 0 2 .9 2 2l.001.006c.003.127.045 1.91-1.3 3.324C11.64 21.44 10.06 22 8 22Z"/></svg>