<svg xmlns="http://www.w3.org/2000/svg" width="20" height="20" viewBox="0 0 20 20"><path d="M3 5a2 2 0 0 1 2-2h8.379a2 2 0 0 1 1.414.586l1.621 1.621A2 2 0 0 1 17 6.621V9.6a5.465 5.465 0 0 0-1-.393V6.621a1 1 0 0 0-.293-.707l-1.621-1.621A1 1 0 0 0 13.379 4H13v2.5A1.5 1.5 0 0 1 11.5 8h-4A1.5 1.5 0 0 1 6 6.5V4H5a1 1 0 0 0-1 1v10a1 1 0 0 0 1 1v-4.5A1.5 1.5 0 0 1 6.5 10h4.837c-.403.284-.767.62-1.08 1H6.5a.5.5 0 0 0-.5.5V16h3.207c.099.349.23.683.393 1H5a2 2 0 0 1-2-2V5Zm4-1v2.5a.5.5 0 0 0 .5.5h4a.5.5 0 0 0 .5-.5V4H7Zm12 10.5a4.5 4.5 0 1 1-9 0 4.5 4.5 0 0 1 9 0Zm-2.147.354.003-.003a.499.499 0 0 0 .144-.348v-.006a.5.5 0 0 0-.146-.35l-2-2a.5.5 0 0 0-.708.707L15.293 14H12.5a.5.5 0 0 0 0 1h2.793l-1.147 1.146a.5.5 0 0 0 .708.708l2-2Z"/></svg>