<svg xmlns="http://www.w3.org/2000/svg" width="24" height="24" viewBox="0 0 24 24"><path d="M16.088 6.412a2.844 2.844 0 0 0-1.347-.955l-1.378-.448a.544.544 0 0 1 0-1.025l1.378-.448A2.839 2.839 0 0 0 16.5 1.774l.011-.034.448-1.377a.544.544 0 0 1 1.027 0l.447 1.377a2.835 2.835 0 0 0 1.799 1.796l1.377.448.028.007a.544.544 0 0 1 0 1.025l-1.378.448a2.839 2.839 0 0 0-1.798 1.796l-.448 1.377a.544.544 0 0 1-1.026 0l-.448-1.377a2.837 2.837 0 0 0-.45-.848Zm7.695 3.801-.766-.248a1.577 1.577 0 0 1-.998-.999l-.25-.764a.302.302 0 0 0-.57 0l-.248.764a1.576 1.576 0 0 1-.984.999l-.765.248a.302.302 0 0 0 0 .57l.765.249a1.578 1.578 0 0 1 1 1.002l.248.764a.302.302 0 0 0 .57 0l.249-.764a1.576 1.576 0 0 1 .999-.999l.765-.248a.302.302 0 0 0 0-.57l-.015-.004ZM12.072 4H4.75A2.75 2.75 0 0 0 2 6.75v10.5A2.75 2.75 0 0 0 4.75 20h14.5A2.75 2.75 0 0 0 22 17.25v-3.319a1.29 1.29 0 0 1-1.29-.122 1.35 1.35 0 0 1-.49-.65l-.24-.76a.59.59 0 0 0-.14-.23.742.742 0 0 0-.22-.14l-.79-.25a1.31 1.31 0 0 1-.63-.48 1.26 1.26 0 0 1-.24-.75 1.28 1.28 0 0 1 .18-.66 1.45 1.45 0 0 1-.68.16 1.57 1.57 0 0 1-.89-.28 1.58 1.58 0 0 1-.57-.77l-.41-1.45a1.929 1.929 0 0 0-.29-.55l-.18-.1a1.92 1.92 0 0 0-.72-.44l-1.4-.46a1.54 1.54 0 0 1-.72-.64A1.57 1.57 0 0 1 12.072 4ZM6 8.75A.75.75 0 0 1 6.75 8h4.5a.75.75 0 0 1 0 1.5h-4.5A.75.75 0 0 1 6 8.75Zm0 3a.75.75 0 0 1 .75-.75h8.5a.75.75 0 0 1 0 1.5h-8.5a.75.75 0 0 1-.75-.75Zm.75 3.75a.75.75 0 0 1 0-1.5h6.5a.75.75 0 0 1 0 1.5h-6.5Z"/></svg>