<svg xmlns="http://www.w3.org/2000/svg" width="16" height="16" viewBox="0 0 16 16"><path d="M3.5 3.5A1.5 1.5 0 0 0 2 5v.6a5.508 5.508 0 0 0-1 .657V5a2.5 2.5 0 0 1 2.5-2.5h6A2.5 2.5 0 0 1 12 5v.5l1.8-1.346a.75.75 0 0 1 1.2.601v6.495a.75.75 0 0 1-1.2.6L12 10.5v.5a2.5 2.5 0 0 1-2.5 2.5h-.39c.205-.314.38-.65.517-1.005A1.5 1.5 0 0 0 11 11V5a1.5 1.5 0 0 0-1.5-1.5h-6ZM12 9.25l2 1.5V5.254L12 6.75v2.5ZM8.243 13A4.484 4.484 0 0 0 9 10.5a4.5 4.5 0 1 0-8.436 2.182l-.545 1.789a.41.41 0 0 0 .51.51l1.79-.544A4.48 4.48 0 0 0 4.5 15c1.56 0 2.936-.794 3.743-2Zm-5.742-1a.5.5 0 0 1-.001-1h2a.5.5 0 0 1 0 1h-2ZM2 9.5a.5.5 0 0 1 .5-.5h4a.5.5 0 0 1 0 1h-4a.5.5 0 0 1-.5-.5Z"/></svg>