<svg xmlns="http://www.w3.org/2000/svg" width="24" height="24"><path d="M7.5 3.5a1.5 1.5 0 1 0 0 3 1.5 1.5 0 0 0 0-3ZM4.5 5a3 3 0 1 1 6 0 3 3 0 0 1-6 0Zm-.732 4C2.79 9 2 9.791 2 10.768v.36c0 .207 0 1.408.7 2.575.548.91 1.477 1.727 2.975 2.093a2.777 2.777 0 0 1 1.062-1.335c-1.603-.171-2.361-.883-2.75-1.53-.484-.806-.487-1.664-.487-1.806v-.357c0-.148.12-.268.268-.268H8.03A3.974 3.974 0 0 1 8.535 9H3.768Zm11.697 0c.261.452.437.959.504 1.5h4.263c.148 0 .268.12.268.268v.357c0 .142-.003 1-.487 1.805-.389.648-1.147 1.36-2.75 1.531.48.32.856.786 1.062 1.335 1.498-.366 2.427-1.183 2.974-2.093.701-1.167.701-2.367.701-2.576v-.36C22 9.792 21.209 9 20.232 9h-4.767ZM15 5a1.5 1.5 0 1 1 3 0 1.5 1.5 0 0 1-3 0Zm1.5-3a3 3 0 1 0 0 6 3 3 0 0 0 0-6ZM12 9.5a1.5 1.5 0 1 0 0 3 1.5 1.5 0 0 0 0-3ZM9 11a3 3 0 1 1 6 0 3 3 0 0 1-6 0Zm-2.5 5.768C6.5 15.79 7.291 15 8.268 15h7.464c.977 0 1.768.791 1.768 1.768v.36c0 .207 0 1.408-.7 2.575C16.057 20.937 14.613 22 12 22s-4.058-1.063-4.8-2.297c-.7-1.167-.7-2.367-.7-2.576v-.36Zm1.768-.268a.268.268 0 0 0-.268.268v.357c0 .142.003 1 .487 1.805.446.743 1.377 1.57 3.513 1.57s3.067-.827 3.513-1.57c.484-.805.487-1.663.487-1.805v-.357a.268.268 0 0 0-.268-.268H8.268Z"/></svg>