<svg xmlns="http://www.w3.org/2000/svg" width="32" height="32" viewBox="0 0 32 32"><path d="m9.432 10.847-7.14-7.14a1 1 0 0 1 1.415-1.414l26 26a1 1 0 0 1-1.414 1.414l-3.312-3.312a4 4 0 0 1-6.48 2.727A3.984 3.984 0 0 1 16 30a3.984 3.984 0 0 1-2.5-.878A4 4 0 0 1 7 26v-9a8.968 8.968 0 0 1 2.431-6.153ZM22.586 24H9v2a2 2 0 0 0 3.668 1.105 1 1 0 0 1 1.665 0c.36.542.973.895 1.667.895.695 0 1.308-.353 1.668-.895a1 1 0 0 1 1.665 0A2 2 0 0 0 23 26v-1.586L22.586 24Zm-2-2-9-9h-1.331A6.964 6.964 0 0 0 9 17.146V22h11.585ZM23 17.2v2.262l2 2V17a8.99 8.99 0 0 0-3.715-7.286c-1.029-1.018-1.708-1.857-1.907-2.872A2.501 2.501 0 0 0 18.5 2h-5a2.5 2.5 0 0 0-.957 4.81c-.1.54-.334 1.026-.682 1.514l1.43 1.43c.566-.734 1.024-1.565 1.214-2.553h2.905c.305 1.597 1.312 2.777 2.332 3.799h-5.204l2 2h5.208A6.967 6.967 0 0 1 23 17.108v.02a.608.608 0 0 0 0 .057v.015ZM13 4.5a.5.5 0 0 1 .5-.5h5a.5.5 0 0 1 0 1h-5a.5.5 0 0 1-.5-.5Z"/></svg>