<svg xmlns="http://www.w3.org/2000/svg" width="24" height="24" viewBox="0 0 24 24"><path d="M12 2.001a7.25 7.25 0 0 1 7.25 7.25c0 2.096-.9 4.02-2.663 5.742a.75.75 0 0 0-.175.265l-.032.103-1.13 4.895a2.25 2.25 0 0 1-2.02 1.737l-.173.007h-2.114a2.25 2.25 0 0 1-2.147-1.577l-.045-.167-1.13-4.895a.75.75 0 0 0-.206-.368c-1.68-1.64-2.577-3.463-2.659-5.444l-.006-.298.004-.24A7.25 7.25 0 0 1 12 2.002Zm2.115 16.498H9.884l.329 1.42a.75.75 0 0 0 .627.573l.103.008h2.114a.75.75 0 0 0 .7-.483l.03-.099.328-1.419ZM12 3.501a5.75 5.75 0 0 0-5.746 5.53l-.004.22.007.277c.076 1.563.8 3.02 2.206 4.392.264.258.46.576.571.926l.049.178.455 1.975h4.923l.458-1.976a2.25 2.25 0 0 1 .493-.97l.127-.133c1.404-1.373 2.128-2.828 2.204-4.392l.007-.277-.004-.22A5.75 5.75 0 0 0 12 3.5Z"/></svg>