<svg xmlns="http://www.w3.org/2000/svg" width="20" height="20" viewBox="0 0 20 20"><path d="M3 4a2 2 0 0 1 2-2h8a2 2 0 0 1 2 2v12a2 2 0 0 1-2 2H9.743c.253-.307.474-.642.657-1H13a1 1 0 0 0 1-1V4a1 1 0 0 0-1-1H5a1 1 0 0 0-1 1v5.207c-.349.099-.683.23-1 .393V4Zm2.5.5A.5.5 0 0 0 5 5v2a.5.5 0 0 0 .5.5h7A.5.5 0 0 0 13 7V5a.5.5 0 0 0-.5-.5h-7Zm.5 2v-1h6v1H6ZM16.5 6H16v2.5h.5A.5.5 0 0 0 17 8V6.5a.5.5 0 0 0-.5-.5Zm0 3.5H16V12h.5a.5.5 0 0 0 .5-.5V10a.5.5 0 0 0-.5-.5Zm0 3.5H16v2.5h.5a.5.5 0 0 0 .5-.5v-1.5a.5.5 0 0 0-.5-.5Zm-11 6a4.5 4.5 0 1 0 0-9 4.5 4.5 0 0 0 0 9Zm0-7a.5.5 0 0 1 .5.5V14h1.5a.5.5 0 0 1 0 1H6v1.5a.5.5 0 0 1-1 0V15H3.5a.5.5 0 0 1 0-1H5v-1.5a.5.5 0 0 1 .5-.5Z"/></svg>