<svg xmlns="http://www.w3.org/2000/svg" width="32" height="32"><path d="M10 11.415 2.293 3.707a1 1 0 0 1 1.414-1.414l26 26a1 1 0 0 1-1.414 1.414l-5.964-5.964a9.953 9.953 0 0 1-5.33 2.208L17 26v3a1 1 0 1 1-2 0v-3c0-.017 0-.033.002-.05C9.947 25.45 6 21.187 6 16a1 1 0 1 1 2 0 8 8 0 0 0 12.906 6.32l-1.43-1.43A6 6 0 0 1 10 16v-4.585Zm8.032 8.031L12 13.415V16a4 4 0 0 0 6.032 3.446ZM20 16c0 .15-.008.296-.024.441l1.65 1.65A5.988 5.988 0 0 0 22 16V8a6 6 0 0 0-11.84-1.376L12 8.466V8a4 4 0 0 1 8 0v8Zm3.143 3.608 1.473 1.472A9.954 9.954 0 0 0 26 16a1 1 0 1 0-2 0 7.975 7.975 0 0 1-.857 3.608Z"/></svg>