<svg xmlns="http://www.w3.org/2000/svg" width="24" height="24" viewBox="0 0 24 24"><path d="M8.207 4c.46 0 .908.141 1.284.402l.156.12L12.022 6.5h7.728a2.25 2.25 0 0 1 2.229 1.938l.016.158.005.154v3.06a6.518 6.518 0 0 0-1.5-1.078V8.75a.75.75 0 0 0-.648-.743L19.75 8h-7.729L9.647 9.979a2.25 2.25 0 0 1-1.244.512l-.196.009-4.707-.001v7.251c0 .38.282.694.648.743l.102.007h7.063c.173.534.412 1.037.709 1.5H4.25a2.25 2.25 0 0 1-2.245-2.096L2 17.75V6.25a2.25 2.25 0 0 1 2.096-2.245L4.25 4h3.957Zm0 1.5H4.25a.75.75 0 0 0-.743.648L3.5 6.25v2.749L8.207 9a.75.75 0 0 0 .395-.113l.085-.06 1.891-1.578-1.89-1.575a.75.75 0 0 0-.377-.167L8.207 5.5ZM12 16.5a5.5 5.5 0 1 0 11 0 5.5 5.5 0 0 0-11 0Zm8.5-3.5a.5.5 0 0 1 .5.5v2a.5.5 0 0 1-.5.5h-2a.5.5 0 0 1 0-1h1a2.496 2.496 0 0 0-2-1c-.833 0-1.572.407-2.027 1.036a.5.5 0 0 1-.81-.586A3.496 3.496 0 0 1 17.5 13c.98 0 1.865.403 2.5 1.05v-.55a.5.5 0 0 1 .5-.5ZM15 18.95v.55a.5.5 0 0 1-1 0v-2a.5.5 0 0 1 .5-.5h2a.5.5 0 0 1 0 1h-1c.456.608 1.183 1 2 1 .766 0 1.452-.344 1.911-.888a.5.5 0 0 1 .764.645A3.493 3.493 0 0 1 17.5 20a3.49 3.49 0 0 1-2.5-1.05Z"/></svg>