<svg xmlns="http://www.w3.org/2000/svg" width="16" height="16"><path d="M5.205 1.494a.75.75 0 0 0-1.41 0l-2 5.5a.75.75 0 1 0 1.41.512L3.389 7h2.222l.184.506a.75.75 0 1 0 1.41-.512l-2-5.5ZM3.935 5.5 4.5 3.945 5.066 5.5H3.935ZM2 9.75A.75.75 0 0 1 2.75 9h3.5a.75.75 0 0 1 .592 1.21L4.284 13.5h1.967a.75.75 0 0 1 0 1.5h-3.5a.75.75 0 0 1-.592-1.21l2.559-3.29H2.75A.75.75 0 0 1 2 9.75ZM12.25 1a.75.75 0 0 1 .75.75v10.69l.72-.72a.75.75 0 1 1 1.06 1.06l-2 2a.75.75 0 0 1-1.06 0l-2-2a.75.75 0 1 1 1.06-1.06l.72.72V1.75a.75.75 0 0 1 .75-.75Z"/></svg>