<svg xmlns="http://www.w3.org/2000/svg" width="24" height="24" viewBox="0 0 24 24"><path d="M7.5 2.75a.75.75 0 0 0-1.5 0v3a1.75 1.75 0 0 0 1.543 1.738L6.527 9.993a3.868 3.868 0 0 0 .119 3.143l3.99 7.95c.283.566.803.914 1.364.914s1.08-.348 1.365-.913l3.99-7.951c.481-.96.526-2.137.118-3.143l-1.016-2.505A1.75 1.75 0 0 0 18 5.75v-3a.75.75 0 0 0-1.5 0v3a.25.25 0 0 1-.25.25h-8.5a.25.25 0 0 1-.25-.25v-3Zm7.343 4.75 1.24 3.057c.247.61.217 1.336-.07 1.906l-3.263 6.504v-6.668a1.5 1.5 0 1 0-1.5 0v6.668l-3.264-6.504a2.368 2.368 0 0 1-.069-1.906L9.157 7.5h5.686Z"/></svg>