<svg xmlns="http://www.w3.org/2000/svg" width="24" height="24" viewBox="0 0 24 24"><path d="M8 9.75A.75.75 0 0 1 8.75 9h6.5a.75.75 0 0 1 0 1.5h-6.5A.75.75 0 0 1 8 9.75ZM9.75 12A1.75 1.75 0 0 0 8 13.75v2.5c0 .966.784 1.75 1.75 1.75h4.5A1.75 1.75 0 0 0 16 16.25v-2.5A1.75 1.75 0 0 0 14.25 12h-4.5Zm-.25 1.75a.25.25 0 0 1 .25-.25h4.5a.25.25 0 0 1 .25.25v2.5a.25.25 0 0 1-.25.25h-4.5a.25.25 0 0 1-.25-.25v-2.5ZM13.75 2a2.25 2.25 0 0 1 2.236 2.002V4h1.764A2.25 2.25 0 0 1 20 6.25v13.5A2.25 2.25 0 0 1 17.75 22H6.25A2.25 2.25 0 0 1 4 19.75V6.25A2.25 2.25 0 0 1 6.25 4h1.764a2.25 2.25 0 0 1 2.236-2h3.5Zm2.245 2.096L16 4.25c0-.052-.002-.103-.005-.154ZM13.75 6.5h-3.5c-.78 0-1.467-.397-1.871-1H6.25a.75.75 0 0 0-.75.75v13.5c0 .414.336.75.75.75h11.5a.75.75 0 0 0 .75-.75V6.25a.75.75 0 0 0-.75-.75h-2.129c-.404.603-1.091 1-1.871 1Zm0-3h-3.5a.75.75 0 0 0 0 1.5h3.5a.75.75 0 0 0 0-1.5Z"/></svg>