<svg xmlns="http://www.w3.org/2000/svg" width="20" height="20"><path d="M17 14.5a2.5 2.5 0 0 1-2.5 2.5h-9A2.5 2.5 0 0 1 3 14.5v-9A2.5 2.5 0 0 1 5.5 3h9A2.5 2.5 0 0 1 17 5.5v9Zm-1 0v-9A1.5 1.5 0 0 0 14.5 4h-9A1.5 1.5 0 0 0 4 5.5v9A1.5 1.5 0 0 0 5.5 16h9a1.5 1.5 0 0 0 1.5-1.5Zm-2-8a.5.5 0 0 1-.41.492L13.5 7h-7a.5.5 0 0 1-.09-.992L6.5 6h7a.5.5 0 0 1 .5.5Zm0 3.5a.5.5 0 0 1-.41.492l-.09.008h-7a.5.5 0 0 1-.09-.992L6.5 9.5h7a.5.5 0 0 1 .5.5Zm0 3.5a.5.5 0 0 1-.41.492L13.5 14h-7a.5.5 0 0 1-.09-.992L6.5 13h7a.5.5 0 0 1 .5.5Z"/></svg>