<svg xmlns="http://www.w3.org/2000/svg" width="24" height="24"><path d="M6.25 10.997c.966 0 1.75.784 1.75 1.75v2.5a1.75 1.75 0 0 1-1.75 1.75h-2.5A1.75 1.75 0 0 1 2 15.247v-2.5c0-.966.784-1.75 1.75-1.75h2.5Zm7 0c.966 0 1.75.784 1.75 1.75v2.5a1.75 1.75 0 0 1-1.75 1.75h-2.5A1.75 1.75 0 0 1 9 15.247v-2.5c0-.966.784-1.75 1.75-1.75h2.5Zm7 0c.966 0 1.75.784 1.75 1.75v2.5a1.75 1.75 0 0 1-1.75 1.75h-2.5a1.75 1.75 0 0 1-1.75-1.75v-2.5c0-.966.784-1.75 1.75-1.75h2.5Zm-14 1.5h-2.5a.25.25 0 0 0-.25.25v2.5c0 .139.112.25.25.25h2.5a.25.25 0 0 0 .25-.25v-2.5a.25.25 0 0 0-.25-.25Zm7 0h-2.5a.25.25 0 0 0-.25.25v2.5c0 .139.112.25.25.25h2.5a.25.25 0 0 0 .25-.25v-2.5a.25.25 0 0 0-.25-.25Zm7 0h-2.5a.25.25 0 0 0-.25.25v2.5c0 .139.112.25.25.25h2.5a.25.25 0 0 0 .25-.25v-2.5a.25.25 0 0 0-.25-.25ZM7.97 7.72l3.5-3.5a.75.75 0 0 1 .968-.079l.085.071 3.602 3.5a.75.75 0 0 1-.96 1.147l-.085-.071-3.072-2.985L9.03 8.78a.75.75 0 0 1-1.133-.976l.073-.084 3.5-3.5-3.5 3.5Z"/></svg>