<svg xmlns="http://www.w3.org/2000/svg" width="16" height="16" viewBox="0 0 16 16"><path d="M12 10.793V13a1 1 0 0 1-1 1H3a1 1 0 0 1-1-1V8.876l4.763 2.564a.5.5 0 0 0 .474 0l1.411-.76a5.485 5.485 0 0 1-1.104-.54L7 10.431 2 7.74V7a1 1 0 0 1 1-1h2.022a5.57 5.57 0 0 1 0-1H3a2 2 0 0 0-2 2v6a2 2 0 0 0 2 2h8a2 2 0 0 0 2-2v-2.6a5.467 5.467 0 0 1-1 .393ZM10.5 10a4.5 4.5 0 1 0 0-9 4.5 4.5 0 0 0 0 9ZM9.354 3.646a.5.5 0 0 1 0 .708L8.207 5.5l1.147 1.146a.5.5 0 0 1-.708.708l-1.5-1.5a.5.5 0 0 1 0-.708l1.5-1.5a.5.5 0 0 1 .708 0Zm2.5.708L11.207 5H13a1 1 0 0 1 1 1v.5a.5.5 0 0 1-1 0V6h-1.793l.647.646a.5.5 0 0 1-.708.708l-1.5-1.5a.5.5 0 0 1 0-.708l1.5-1.5a.5.5 0 0 1 .708.708Z"/></svg>