<svg xmlns="http://www.w3.org/2000/svg" width="24" height="24"><path d="M13.75 2a2.25 2.25 0 0 1 2.236 2.002V4h1.764A2.25 2.25 0 0 1 20 6.25v7.46a1.75 1.75 0 0 0-1.5-1.692V6.25a.75.75 0 0 0-.75-.75h-2.129c-.404.603-1.091 1-1.871 1h-3.5c-.78 0-1.467-.397-1.871-1H6.25a.75.75 0 0 0-.75.75v13.5c0 .414.336.75.75.75h5.38l.812.913c.343.386.818.584 1.297.587H6.25A2.25 2.25 0 0 1 4 19.75V6.25A2.25 2.25 0 0 1 6.25 4h1.764a2.25 2.25 0 0 1 2.236-2h3.5Zm2.245 2.096L16 4.25c0-.052-.002-.103-.005-.154ZM13.75 3.5h-3.5a.75.75 0 0 0 0 1.5h3.5a.75.75 0 0 0 0-1.5ZM19 13.75a.75.75 0 0 1-.03.212l-2.5 8.5a.75.75 0 1 1-1.44-.424l2.5-8.5a.75.75 0 0 1 1.47.212Zm-7.81 4.748a.75.75 0 0 1 0-.996l2-2.25a.75.75 0 0 1 1.12.996L12.755 18l1.557 1.752a.75.75 0 0 1-1.122.996l-2-2.25Zm8.562 2.313a.75.75 0 0 1-.063-1.06L21.247 18l-1.558-1.752a.75.75 0 0 1 1.122-.996l2 2.25a.75.75 0 0 1 0 .996l-2 2.25a.75.75 0 0 1-1.06.063Z"/></svg>