<svg xmlns="http://www.w3.org/2000/svg" width="16" height="16" viewBox="0 0 16 16"><path d="M7.647 2.146a.5.5 0 0 1 .708 0C9.595 3.39 10.969 4 12.5 4a.5.5 0 0 1 .5.5v3.001c0 3.219-1.641 5.407-4.842 6.473a.499.499 0 0 1-.316 0C4.642 12.908 3 10.72 3 7.501V4.5a.5.5 0 0 1 .5-.5c1.53 0 2.904-.611 4.147-1.854ZM8.75 10.75a.75.75 0 1 0-1.5 0 .75.75 0 0 0 1.5 0Zm-1.5-4a.75.75 0 0 1 1.5 0c0 .265-.144.437-.478.77l-.031.031C7.947 7.843 7.5 8.288 7.5 9a.5.5 0 0 0 1 0c0-.266.145-.44.478-.772l.032-.032c.293-.291.74-.736.74-1.446a1.75 1.75 0 1 0-3.5 0 .5.5 0 0 0 1 0Z"/></svg>