<svg xmlns="http://www.w3.org/2000/svg" width="28" height="28"><path d="M15.302 3.908c-.532-1.078-2.069-1.078-2.6 0L10.01 9.36l-6.017.875c-1.19.173-1.664 1.634-.804 2.473l4.355 4.244-1.028 5.993c-.203 1.185 1.04 2.088 2.104 1.529l4.547-2.391A7.527 7.527 0 0 1 13 20.5v-.024L8.011 23.1l1.015-5.92a1.45 1.45 0 0 0-.417-1.283l-4.3-4.191 5.943-.864a1.45 1.45 0 0 0 1.092-.793l2.658-5.385 2.657 5.385c.212.428.62.724 1.092.793l5.943.864-1.52 1.482a7.443 7.443 0 0 1 1.58.554l1.06-1.033c.86-.839.385-2.3-.804-2.473l-6.017-.875-2.691-5.452ZM27 20.5a6.5 6.5 0 1 1-13 0 6.5 6.5 0 0 1 13 0Zm-2.646-2.854a.5.5 0 0 0-.708 0L19 22.293l-1.646-1.647a.5.5 0 0 0-.708.708l2 2a.5.5 0 0 0 .708 0l5-5a.5.5 0 0 0 0-.708Z"/></svg>