<svg xmlns="http://www.w3.org/2000/svg" width="16" height="16" viewBox="0 0 16 16"><path d="M1.63 2.29a1.757 1.757 0 0 1 1.072.107A.998.998 0 0 1 3.5 2h5a1 1 0 0 1 1 1v2.09c.324-.059.659-.09 1-.09V3a2 2 0 0 0-2-2h-5a2 2 0 0 0-1.87 1.29ZM5.022 10a5.48 5.48 0 0 1 .185-1H3.5a1 1 0 0 1-1-1V5.678a1.75 1.75 0 0 1-1 0V8a2 2 0 0 0 2 2h1.522ZM4.5 4a.5.5 0 0 0 0 1h3a.5.5 0 0 0 0-1h-3ZM4 6.5a.5.5 0 0 1 .5-.5H6a.5.5 0 0 1 0 1H4.5a.5.5 0 0 1-.5-.5ZM2 4.75a.75.75 0 1 0 0-1.5.75.75 0 0 0 0 1.5ZM10.5 15a4.5 4.5 0 1 0 0-9 4.5 4.5 0 0 0 0 9Zm2-4h-4a.5.5 0 0 1 0-1h4a.5.5 0 0 1 0 1Z"/></svg>