<svg xmlns="http://www.w3.org/2000/svg" width="28" height="28"><path d="M11.075 25h-3.35a.75.75 0 0 1-.077-1.492l.102-.007H9.5v-2.498H4.25A2.25 2.25 0 0 1 2 18.752V5.25A2.25 2.25 0 0 1 4.25 3h19.499a2.25 2.25 0 0 1 2.25 2.25v9.182a3.733 3.733 0 0 0-1.749-.431h-9.5A3.75 3.75 0 0 0 11 17.75v6.5c0 .256.026.507.075.75Zm3.675-10A2.75 2.75 0 0 0 12 17.75v6.5A2.75 2.75 0 0 0 14.75 27h9.5A2.75 2.75 0 0 0 27 24.25v-6.5A2.75 2.75 0 0 0 24.25 15h-9.5Zm.75 9.25a.75.75 0 0 1 .75-.75h6.5a.75.75 0 0 1 0 1.5h-6.5a.75.75 0 0 1-.75-.75Zm0-5.25a1 1 0 1 1 0-2 1 1 0 0 1 0 2Zm3 2a1 1 0 1 1-2 0 1 1 0 0 1 2 0Zm1-2a1 1 0 1 1 0-2 1 1 0 0 1 0 2Zm3 2a1 1 0 1 1-2 0 1 1 0 0 1 2 0Zm1-2a1 1 0 1 1 0-2 1 1 0 0 1 0 2Z"/></svg>