<svg xmlns="http://www.w3.org/2000/svg" width="16" height="16"><path d="M4.5 2A2.5 2.5 0 0 0 2 4.5V5h3V2h-.5ZM6 2v3h4V2H6ZM5 6H2v4h3V6Zm1 1.337A5.531 5.531 0 0 1 7.337 6H6v1.337ZM5 11H2v.5A2.5 2.5 0 0 0 4.5 14H5v-3Zm9-6v-.5A2.5 2.5 0 0 0 11.5 2H11v3h3ZM8.065 7.442a2 2 0 0 1-1.43 2.478l-.462.118a4.712 4.712 0 0 0 .01 1.016l.35.083a2 2 0 0 1 1.456 2.519l-.127.423c.258.203.537.377.835.518l.325-.345a2 2 0 0 1 2.91.002l.337.358c.292-.135.568-.302.822-.498l-.156-.556a2 2 0 0 1 1.43-2.478l.46-.118a4.7 4.7 0 0 0-.01-1.017l-.348-.082a2 2 0 0 1-1.456-2.52l.126-.421a4.319 4.319 0 0 0-.835-.518l-.325.343a2 2 0 0 1-2.91-.001l-.337-.358a4.314 4.314 0 0 0-.821.497l.156.557Zm2.434 4.058a1 1 0 1 1 0-2 1 1 0 0 1 0 2Z"/></svg>