<svg xmlns="http://www.w3.org/2000/svg" width="32" height="32"><path d="M16.019 5.501c4.013-.06 7.768 1.503 10.192 4.5H22.25a1.25 1.25 0 0 0 0 2.5h6.5c.69 0 1.25-.56 1.25-1.25v-7a1.25 1.25 0 0 0-2.5 0v3.423c-2.95-3.16-7.172-4.737-11.518-4.672C10.04 3.09 5.284 6.27 2.197 11.076a1.25 1.25 0 1 0 2.104 1.35c2.713-4.225 6.751-6.85 11.717-6.925Zm5.081 9.5c-1.922 0-3.313.88-4.15 2.298-.782 1.322-1.036 3.023-1.036 4.701 0 1.68.254 3.38 1.035 4.702C17.787 28.12 19.18 29 21.1 29c1.923 0 3.314-.88 4.152-2.298.781-1.322 1.035-3.023 1.035-4.702 0-1.678-.254-3.379-1.035-4.701-.838-1.417-2.23-2.298-4.152-2.298Zm-2.686 7c0-1.497.239-2.671.687-3.43.393-.664.97-1.07 2-1.07s1.606.406 1.999 1.07c.448.759.687 1.933.687 3.43 0 1.496-.239 2.67-.687 3.43-.393.663-.97 1.07-2 1.07s-1.607-.407-1.999-1.07c-.448-.76-.687-1.934-.687-3.43Zm-5.164-5.75a1.25 1.25 0 0 0-2.122-.895c-.154.15-.285.28-.405.4-.279.279-.5.5-.81.762-.423.357-1.01.783-2.056 1.411a1.25 1.25 0 1 0 1.286 2.144 23.25 23.25 0 0 0 1.607-1.043v8.47a1.25 1.25 0 0 0 2.5 0V16.25Z"/></svg>