<svg xmlns="http://www.w3.org/2000/svg" width="20" height="20" viewBox="0 0 20 20"><path d="M2 10a8 8 0 1 1 15.994.34c-.184-.05-.4-.107-.636-.16a9.517 9.517 0 0 0-3.294-.168 7.15 7.15 0 0 0-1.67.404 4.994 4.994 0 0 0-.11-.544c-.128-.491-.44-.888-.764-1.3l-.143-.181c-.16-.206-.362-.478-.436-.77a.904.904 0 0 1 .025-.547c.072-.19.203-.336.352-.448.428-.32 1.127-1.013 1.743-1.652.302-.314.576-.607.774-.822l.006-.006a6.968 6.968 0 0 0-4.095-1.141c.117.222.252.504.372.823.281.746.527 1.817.085 2.758-.404.86-1.097 1.084-1.632 1.222l-.097.025c-.506.13-.755.194-.93.46-.17.257-.128.574.037 1.113l.039.124c.066.211.143.457.183.688.05.286.061.636-.113.97a1.673 1.673 0 0 1-.69.724 2.4 2.4 0 0 1-.746.235l-.088.015c-.408.072-.645.113-.867.351-.178.19-.28.508-.337.941a9.55 9.55 0 0 0-.052.534l-.008.095a4.534 4.534 0 0 1-.079.605l-.004.02a6.99 6.99 0 0 0 3.872 2.17c-.186.296-.356.601-.514.914A8.003 8.003 0 0 1 2 10Zm16.925 1.737a.5.5 0 0 0-.425-.237h-.008a1.269 1.269 0 0 1-.117-.02 6.155 6.155 0 0 1-.299-.08l-.095-.026a15.946 15.946 0 0 0-.841-.218 8.515 8.515 0 0 0-2.952-.152c-1.202.15-2.121.557-2.748 1.142-.63.588-.94 1.336-.94 2.1 0 .183.014.356.038.52 1.05-.917 2.345-1.658 3.776-2.23a.5.5 0 1 1 .372.928 13.88 13.88 0 0 0-2.198 1.103c-1.652.964-2.681 2.202-3.435 3.71a.5.5 0 0 0 .894.447c.384-.767.843-1.456 1.448-2.068a4.1 4.1 0 0 0 .583.81c.464.5 1.213 1.034 2.272 1.034.652 0 1.194-.167 1.638-.456.44-.286.758-.675.996-1.084.369-.63.579-1.38.735-1.936.04-.14.075-.267.109-.377a7.5 7.5 0 0 1 .66-1.483c.118-.207.229-.387.324-.542l.017-.026c.083-.135.167-.27.218-.373a.5.5 0 0 0-.022-.486Z"/></svg>