<svg xmlns="http://www.w3.org/2000/svg" width="28" height="28" viewBox="0 0 28 28"><path d="m15.778 14.914-1.436.746a.75.75 0 0 1-.58.047l-.111-.047L4.5 10.902v8.841a1.75 1.75 0 0 0 1.606 1.744l.143.006h15.495a1.75 1.75 0 0 0 1.744-1.606l.006-.144v-7.767l1.5-1.502v9.27a3.249 3.249 0 0 1-3.066 3.243l-.184.005H6.25a3.25 3.25 0 0 1-3.244-3.064L3 19.743V8.248a3.249 3.249 0 0 1 3.065-3.244l.184-.005h11.272l-1.5 1.5H6.25a1.75 1.75 0 0 0-1.744 1.605l-.005.144v.963l9.497 4.94 1.088-.567c.118.48.348.937.693 1.33ZM21.954 4.1a2.078 2.078 0 0 1 2.938 2.938l-6.238 6.248a.672.672 0 1 1-.966-.935l5.085-5.072a.75.75 0 1 0-1.06-1.062L16.63 11.29a2.172 2.172 0 1 0 3.071 3.07l6.252-6.262a3.577 3.577 0 1 0-5.058-5.058l-5.678 5.677a.75.75 0 1 0 1.06 1.06L21.954 4.1Z"/></svg>