<svg xmlns="http://www.w3.org/2000/svg" width="20" height="20"><path d="M3.5 2A1.5 1.5 0 0 0 2 3.5v10A1.5 1.5 0 0 0 3.5 15H7v2H5.5a.5.5 0 0 0 0 1h3.55a2.512 2.512 0 0 1-.05-.5V17H8v-2h1v-1.5a2.5 2.5 0 0 1 2.042-2.458A2.5 2.5 0 0 1 13.5 9h2a2.5 2.5 0 0 1 2.458 2.042l.042.008V3.5A1.5 1.5 0 0 0 16.5 2h-13ZM12 12v-.5a1.5 1.5 0 0 1 1.5-1.5h2a1.5 1.5 0 0 1 1.5 1.5v.5h.5a1.5 1.5 0 0 1 1.5 1.5V15h-2v-.5a.5.5 0 0 0-1 0v.5h-3v-.5a.5.5 0 0 0-1 0v.5h-2v-1.5a1.5 1.5 0 0 1 1.5-1.5h.5Zm1-.5v.5h3v-.5a.5.5 0 0 0-.5-.5h-2a.5.5 0 0 0-.5.5Zm4 5V16h2v1.5a1.5 1.5 0 0 1-1.5 1.5h-6a1.5 1.5 0 0 1-1.5-1.5V16h2v.5a.5.5 0 0 0 1 0V16h3v.5a.5.5 0 0 0 1 0Z"/></svg>