<svg xmlns="http://www.w3.org/2000/svg" width="24" height="24" viewBox="0 0 24 24"><path d="M8.244 13.004a.75.75 0 0 1 .662 1.104l-.057.09-4.622 6.301h4.017a.75.75 0 0 1 .743.649l.007.102a.75.75 0 0 1-.648.743L8.244 22H2.747a.75.75 0 0 1-.661-1.105l.057-.089 4.62-6.303H2.749a.75.75 0 0 1-.743-.648l-.007-.101a.75.75 0 0 1 .649-.743l.101-.007h5.496ZM21.252 2a.75.75 0 0 1 .638 1.144l-.06.084-8.491 10.268h7.913a.75.75 0 0 1 .743.649l.007.101a.75.75 0 0 1-.648.744l-.102.006h-9.505a.75.75 0 0 1-.638-1.144l.06-.083L19.66 3.5l-7.912.001a.75.75 0 0 1-.743-.648l-.007-.102a.75.75 0 0 1 .649-.743l.1-.008h9.505Z"/></svg>