<svg xmlns="http://www.w3.org/2000/svg" width="32" height="32" viewBox="0 0 32 32"><path d="M22.962 21.869a1 1 0 0 0 1.344-.3 10.01 10.01 0 0 0 .3-10.665 1 1 0 1 0-1.72 1.021 8.006 8.006 0 0 1-.24 8.528 1 1 0 0 0 .316 1.416Zm-14.424.163a1 1 0 0 1-.83-.44A10 10 0 0 1 17.948 6.19a1 1 0 1 1-.387 1.962A8.008 8.008 0 0 0 8 16a7.956 7.956 0 0 0 1.366 4.473 1 1 0 0 1-.828 1.559Zm12.98-14.156a.821.821 0 0 0-.526.177l-1.056.842c-.638.507-1.494 1.192-2.368 1.9-.874.708-1.77 1.437-2.485 2.037-.357.3-.673.568-.92.786a6.891 6.891 0 0 0-.563.538 2.463 2.463 0 0 0 3.745 3.2 6.63 6.63 0 0 0 .443-.64c.176-.278.393-.632.632-1.032.48-.8 1.061-1.798 1.623-2.773.562-.975 1.108-1.927 1.508-2.636l.484-.853.182-.322a.82.82 0 0 0-.7-1.224ZM16 2C8.268 2 2 8.268 2 16s6.268 14 14 14 14-6.268 14-14S23.732 2 16 2ZM4 16C4 9.373 9.373 4 16 4s12 5.373 12 12-5.373 12-12 12S4 22.627 4 16Z"/></svg>