<svg xmlns="http://www.w3.org/2000/svg" width="28" height="28"><path d="M8.408 2.852A1.333 1.333 0 0 1 9.65 2h8.515c.927 0 1.571.922 1.252 1.792L17.326 9.5h4.837c1.178 0 1.777 1.416.957 2.262l-1.312 1.352a7.5 7.5 0 0 0-8.652 8.916l-3.37 3.473c-1.14 1.175-3.106.117-2.753-1.482l1.66-7.521H5.918a1.917 1.917 0 0 1-1.787-2.61L8.408 2.853ZM27 20.5a6.5 6.5 0 1 1-13 0 6.5 6.5 0 0 1 13 0Zm-2.646-2.854a.5.5 0 0 0-.708 0L19 22.293l-1.646-1.647a.5.5 0 0 0-.708.708l2 2a.5.5 0 0 0 .708 0l5-5a.5.5 0 0 0 0-.708Z"/></svg>