<svg xmlns="http://www.w3.org/2000/svg" width="28" height="28" viewBox="0 0 28 28"><path d="M6.44 4 2 8.44v2.12L8.56 4H6.44ZM2 13.94v2.12L14.06 4h-2.12L2 13.94Zm0 7.31c0 .1.005.198.016.295l7.983-7.983a4.472 4.472 0 0 1-.48-1.642L2 19.44v1.81ZM14.42 7.02a4.472 4.472 0 0 1 1.642.479L19.56 4h-2.122L14.42 7.02ZM7 19.94l-3.668 3.667c.414.25.9.393 1.418.393h.31L7 22.06v-2.12Zm11.918-4.297A2.996 2.996 0 0 0 18 15.5h-1.06l9.044-9.045c.01.097.016.195.016.295v1.81l-7.082 7.083ZM21 19.061V18.5c0-.456-.102-.89-.284-1.276L26 11.939v2.122l-5 5ZM21 24h.56L26 19.56v-2.12l-5 5V24Zm-2.582-13.358a4.473 4.473 0 0 0-.598-1.522L22.94 4h.31c.519 0 1.004.144 1.418.393l-6.25 6.25ZM8 18.5V24h12v-5.5a2 2 0 0 0-2-2h-8a2 2 0 0 0-2 2Zm6-3.5a3.5 3.5 0 1 0 0-7 3.5 3.5 0 0 0 0 7Z"/></svg>