<svg xmlns="http://www.w3.org/2000/svg" width="20" height="20"><path d="M17 5.5A2.5 2.5 0 0 0 14.5 3h-9A2.5 2.5 0 0 0 3 5.5V6h14v-.5Zm0 4.1V7H3v7.5A2.5 2.5 0 0 0 5.5 17h4.1A5.5 5.5 0 0 1 17 9.6ZM14.5 19a4.5 4.5 0 1 0 0-9 4.5 4.5 0 0 0 0 9Zm-.625-1.995a.625.625 0 1 1 1.25 0 .625.625 0 0 1-1.25 0Zm-1.228-3.547c-.011-1.137.805-1.955 1.853-1.955 1.031 0 1.853.846 1.853 1.95 0 .586-.214.908-.727 1.319l-.277.214c-.246.194-.329.3-.346.448l-.011.156A.5.5 0 0 1 14 15.5c0-.57.21-.884.716-1.288l.278-.215c.288-.23.36-.342.36-.544 0-.558-.382-.95-.854-.95-.494 0-.859.366-.854.945a.5.5 0 1 1-1 .01Z"/></svg>