<svg xmlns="http://www.w3.org/2000/svg" width="24" height="24"><path d="M6.25 4.5A1.75 1.75 0 0 0 4.5 6.25v1.5a.75.75 0 0 1-1.5 0v-1.5A3.25 3.25 0 0 1 6.25 3h1.5a.75.75 0 0 1 0 1.5h-1.5ZM10.2 8a2.25 2.25 0 0 0-2.25 2.25v3.5A2.25 2.25 0 0 0 10.2 16h3.5a2.25 2.25 0 0 0 2.25-2.25v-3.5A2.25 2.25 0 0 0 13.7 8h-3.5Zm7.55-3.5c.966 0 1.75.784 1.75 1.75v1.5a.75.75 0 0 0 1.5 0v-1.5A3.25 3.25 0 0 0 17.75 3h-1.5a.75.75 0 0 0 0 1.5h1.5Zm0 15a1.75 1.75 0 0 0 1.75-1.75v-1.5a.75.75 0 0 1 1.5 0v1.5A3.25 3.25 0 0 1 17.75 21h-1.5a.75.75 0 0 1 0-1.5h1.5Zm-11.5 0a1.75 1.75 0 0 1-1.75-1.75v-1.5a.75.75 0 0 0-1.5 0v1.5A3.25 3.25 0 0 0 6.25 21h1.5a.75.75 0 0 0 0-1.5h-1.5Z"/></svg>