<svg xmlns="http://www.w3.org/2000/svg" width="16" height="16" viewBox="0 0 16 16"><path d="M14 1.5a.5.5 0 1 1 1 0 .5.5 0 0 1-1 0Zm-2 1a.5.5 0 1 1 1 0 .5.5 0 0 1-1 0ZM10.5 4a.5.5 0 1 0 0-1 .5.5 0 0 0 0 1Zm2 0a.5.5 0 1 0 0 1 .5.5 0 0 0 0-1Zm2-1a.5.5 0 1 0 0 1 .5.5 0 0 0 0-1ZM14 5.5a.5.5 0 1 1 1 0 .5.5 0 0 1-1 0Zm-3.012.936a.497.497 0 0 0-.134-.29L9 4.292V2.5a.5.5 0 0 0-.5-.5H6.501a.5.5 0 0 0-.5.5v1.793L4.147 6.146a.501.501 0 0 0-.134.29.107.107 0 0 1-.004.017.201.201 0 0 0-.002.009A.122.122 0 0 0 4 6.5v6.75c0 .966.784 1.75 1.75 1.75h3.5A1.75 1.75 0 0 0 11 13.25V6.5c0-.011-.003-.022-.005-.031l-.002-.007a.2.2 0 0 1-.005-.026ZM7.001 3h1v1h-1V3Zm-.293 2h1.586l1 1H5.708l1-1Z"/></svg>