<svg xmlns="http://www.w3.org/2000/svg" width="28" height="28" viewBox="0 0 28 28"><path d="M13 10.697V6.131c0-1.36 1.57-2.118 2.636-1.273l9.636 7.641a1.917 1.917 0 0 1 0 3.004l-9.637 7.64c-1.065.845-2.634.086-2.634-1.273v-4.568l-7.366 5.84c-1.065.845-2.634.086-2.634-1.273V6.13c0-1.36 1.57-2.118 2.634-1.273l7.366 5.84Zm0 4.691v-2.776l-8.297-6.58a.116.116 0 0 0-.064-.028.132.132 0 0 0-.068.013.132.132 0 0 0-.053.045.116.116 0 0 0-.017.068v15.739a.12.12 0 0 0 .017.068.14.14 0 0 0 .053.044.131.131 0 0 0 .068.014.116.116 0 0 0 .064-.028l8.298-6.579Zm1.704-9.355a.116.116 0 0 0-.065-.028.132.132 0 0 0-.068.013.132.132 0 0 0-.053.045.117.117 0 0 0-.017.068V21.87c0 .034.009.054.018.067.01.017.028.033.052.045a.133.133 0 0 0 .068.014.117.117 0 0 0 .065-.028l9.636-7.64a.417.417 0 0 0 0-.653l-9.636-7.642Z"/></svg>