<svg xmlns="http://www.w3.org/2000/svg" width="16" height="16"><path d="M5.085 2A1.5 1.5 0 0 1 6.5 1h3a1.5 1.5 0 0 1 1.415 1h.585A1.5 1.5 0 0 1 13 3.5v2.1a5.465 5.465 0 0 0-1-.393V3.5a.5.5 0 0 0-.5-.5h-.585A1.5 1.5 0 0 1 9.5 4h-3a1.5 1.5 0 0 1-1.415-1H4.5a.5.5 0 0 0-.5.5v10a.5.5 0 0 0 .5.5h1.757c.314.38.677.716 1.08 1H4.5A1.5 1.5 0 0 1 3 13.5v-10A1.5 1.5 0 0 1 4.5 2h.585ZM6.5 2a.5.5 0 0 0 0 1h3a.5.5 0 0 0 0-1h-3Zm8.5 8.5a4.5 4.5 0 1 1-9 0 4.5 4.5 0 0 1 9 0Zm-2.147.354.003-.003a.499.499 0 0 0 .144-.348v-.006a.5.5 0 0 0-.146-.35l-2-2a.5.5 0 0 0-.708.707L11.293 10H8.5a.5.5 0 0 0 0 1h2.793l-1.147 1.146a.5.5 0 0 0 .708.708l2-2Z"/></svg>