<svg xmlns="http://www.w3.org/2000/svg" width="16" height="16" viewBox="0 0 16 16"><path d="M8.9 1.199A.5.5 0 0 0 8 1.5v2a.5.5 0 0 0 1 0v-.508l.61.81a.5.5 0 0 0 .586.162l1.488-.598-.658 1.976A.5.5 0 0 0 11.5 6h1.577l-1.385 1.11a.5.5 0 0 0 0 .78L13.077 9H11.5a.5.5 0 0 0 0 1h3a.5.5 0 0 0 .313-.89L12.804 7.5l2.009-1.61A.5.5 0 0 0 14.5 5h-2.306l.78-2.342a.5.5 0 0 0-.66-.622l-2.136.858L8.9 1.199ZM7.5 11a.5.5 0 1 0 0-1 .5.5 0 0 0 0 1ZM4 10.5a.5.5 0 1 1-1 0 .5.5 0 0 1 1 0ZM9.362 8l.09.624c.34.358.548.843.548 1.376v3a1 1 0 1 1-2 0H3a1 1 0 1 1-2 0v-3c0-.533.209-1.018.549-1.376L1.638 8H1a.5.5 0 0 1 0-1h.78l.102-.712A1.5 1.5 0 0 1 3.367 5h4.266a1.5 1.5 0 0 1 1.485 1.288L9.219 7H10a.5.5 0 0 1 0 1h-.638Zm-6.49-1.57-.229 1.602A1.92 1.92 0 0 1 3 8h5c.122 0 .24.01.357.032l-.23-1.603A.5.5 0 0 0 7.634 6H3.367a.5.5 0 0 0-.495.43ZM9 10a1 1 0 0 0-1-1H3a1 1 0 0 0-1 1v2h7v-2Z"/></svg>