<svg xmlns="http://www.w3.org/2000/svg" width="20" height="20" viewBox="0 0 20 20"><path d="M9.723 2.084a.5.5 0 0 1 .554 0 15.05 15.05 0 0 0 6.294 2.421A.5.5 0 0 1 17 5v4.6a5.461 5.461 0 0 0-1-.393v-3.78a15.969 15.969 0 0 1-5.6-2.081l-.4-.249-.4.249A15.969 15.969 0 0 1 4 5.428V9.5c0 3.242 1.798 5.643 5.478 7.246.195.435.444.84.74 1.206l-.038.015a.5.5 0 0 1-.36 0C5.308 16.23 3 13.39 3 9.5V5a.5.5 0 0 1 .43-.495 15.05 15.05 0 0 0 6.293-2.421ZM19 14.5a4.5 4.5 0 1 1-9 0 4.5 4.5 0 0 1 9 0Zm-2.146-1.854a.5.5 0 0 0-.708 0L13.5 15.293l-.646-.647a.5.5 0 0 0-.708.708l1 1a.5.5 0 0 0 .708 0l3-3a.5.5 0 0 0 0-.708Z"/></svg>