<svg xmlns="http://www.w3.org/2000/svg" width="24" height="24"><path d="M18.035 15.096a6.482 6.482 0 0 1-2.154 1.128c.078.496.119 1.005.119 1.524a8.003 8.003 0 0 0-.12-15.526A8.003 8.003 0 0 0 6.252 8c.518 0 1.027.04 1.523.119a6.482 6.482 0 0 1 1.128-2.154l9.131 9.131Zm1.06-1.06L15.062 10l.761-.761a4.23 4.23 0 0 0 2.428.76 4.23 4.23 0 0 0 2.22-.624 6.472 6.472 0 0 1-1.374 4.66ZM16.225 3.89c.66.24 1.27.585 1.811 1.014l-2.187 2.187A2.738 2.738 0 0 1 15.5 5.75c0-.717.274-1.37.724-1.86ZM14.76 8.178l-.76.761-4.035-4.035a6.472 6.472 0 0 1 4.66-1.374A4.23 4.23 0 0 0 14 5.75c0 .903.281 1.74.761 2.428Zm5.349-.402a2.74 2.74 0 0 1-1.86.724c-.487 0-.944-.127-1.34-.349l2.186-2.186a6.49 6.49 0 0 1 1.014 1.81ZM4.25 10.5a.75.75 0 0 0-.75.75v2a7.25 7.25 0 0 0 7.25 7.25h2a.75.75 0 0 0 .75-.75v-2a7.25 7.25 0 0 0-7.25-7.25h-2ZM2 11.25A2.25 2.25 0 0 1 4.25 9h2A8.75 8.75 0 0 1 15 17.75v2A2.25 2.25 0 0 1 12.75 22h-2A8.75 8.75 0 0 1 2 13.25v-2Zm5.78 2.47a.75.75 0 0 0-1.06 1.06l2.5 2.5a.75.75 0 1 0 1.06-1.06l-2.5-2.5Z"/></svg>