<svg xmlns="http://www.w3.org/2000/svg" width="24" height="24"><path d="m6.224 2.067-1.167.351A3.75 3.75 0 0 0 2.509 5.07c-.717 2.772.06 6.077 2.275 9.913 2.212 3.831 4.681 6.155 7.436 6.924a3.75 3.75 0 0 0 3.586-.89l.887-.839a2.75 2.75 0 0 0 .339-3.605l-1.281-1.775a2.75 2.75 0 0 0-3.034-1.021l-2.01.615c-.057.016-.19-.03-.433-.245-.347-.308-.755-.856-1.206-1.637-.62-1.074-.89-1.848-.845-2.245a.25.25 0 0 1 .077-.155l1.495-1.393a2.75 2.75 0 0 0 .633-3.14l-.902-2.005a2.75 2.75 0 0 0-3.302-1.505ZM3.96 5.446a2.25 2.25 0 0 1 1.53-1.591l1.167-.352a1.25 1.25 0 0 1 1.5.684l.902 2.006a1.25 1.25 0 0 1-.287 1.427L7.277 9.013a1.75 1.75 0 0 0-.545 1.086c-.09.802.268 1.83 1.037 3.161 1.14 1.975 2.201 2.916 3.371 2.568l2.015-.617a1.25 1.25 0 0 1 1.38.464l1.28 1.775a1.25 1.25 0 0 1-.154 1.64l-.886.839a2.25 2.25 0 0 1-2.152.533c-2.317-.646-4.506-2.707-6.54-6.229-2.036-3.527-2.725-6.456-2.122-8.787ZM21.78 3.28a.75.75 0 1 0-1.061-1.06L15 7.94l-1.87-1.87a.75.75 0 0 0-1.06 1.06l2.4 2.4a.75.75 0 0 0 1.06 0l6.25-6.25Z"/></svg>