<svg xmlns="http://www.w3.org/2000/svg" width="32" height="32" viewBox="0 0 32 32"><path d="M16 6c1.7 0 3.682.561 5.258 1.851 1.421 1.163 2.473 2.887 2.697 5.206 1.378.165 2.714.683 3.781 1.508C29.063 15.589 30 17.114 30 19c0 1.754-.584 3.303-1.844 4.399C26.916 24.477 25.15 25 23 25H9c-2.707 0-4.515-.82-5.628-2.091C2.284 21.665 2 20.145 2 19c0-2.356 1.93-5.53 6.057-5.953.172-1.456.74-3.016 1.794-4.305C11.166 7.134 13.201 6 16 6Zm-3 6a1 1 0 1 0 0 2h6a1 1 0 1 0 0-2h-6Zm-7 7a1 1 0 0 0 1 1h6a1 1 0 1 0 0-2H7a1 1 0 0 0-1 1Zm13-1a1 1 0 1 0 0 2h6a1 1 0 1 0 0-2h-6Z"/></svg>