<svg xmlns="http://www.w3.org/2000/svg" width="28" height="28"><path d="M21.75 3A3.25 3.25 0 0 1 25 6.25v8.25a7.486 7.486 0 0 0-1.5-.876V9.503h-19V21.75c0 .966.784 1.75 1.75 1.75h7.374c.234.535.529 1.038.875 1.5H6.25A3.25 3.25 0 0 1 3 21.75V6.25A3.25 3.25 0 0 1 6.25 3h15.5Zm0 1.5H6.25A1.75 1.75 0 0 0 4.5 6.25v1.753h19V6.25a1.75 1.75 0 0 0-1.75-1.75ZM20.5 27a6.5 6.5 0 1 0 0-13 6.5 6.5 0 0 0 0 13Zm-.902-9.404 4.032 2.275a.72.72 0 0 1 0 1.258l-4.032 2.274c-.49.277-1.098-.072-1.098-.629v-4.548c0-.557.609-.905 1.098-.63Z"/></svg>