<svg xmlns="http://www.w3.org/2000/svg" width="20" height="20"><path d="M6 4.502a1.5 1.5 0 0 0-1.396.949.75.75 0 1 1-1.413-.492h-.005A3.001 3.001 0 0 1 6 3.002h8c1.29 0 2.39.814 2.814 1.957h-.003a.75.75 0 0 1-1.381.586l-.004-.01A1.5 1.5 0 0 0 14 4.501H6ZM3.75 11a.75.75 0 0 1-.75-.75v-1.5a.75.75 0 0 1 1.5 0v1.5a.75.75 0 0 1-.75.75Zm12.5 0a.75.75 0 0 1-.75-.75v-1.5a.75.75 0 0 1 1.5 0v1.5a.75.75 0 0 1-.75.75Zm-12.5 4.5a.75.75 0 0 0 0 1.5h12.5a.75.75 0 0 0 0-1.5H3.75ZM3 13.75a.75.75 0 0 1 .75-.75h12.5a.75.75 0 0 1 0 1.5H3.75a.75.75 0 0 1-.75-.75Z"/></svg>