<svg xmlns="http://www.w3.org/2000/svg" width="20" height="20" viewBox="0 0 20 20"><path d="M7.5 9.5a1 1 0 1 0 0-2 1 1 0 0 0 0 2Zm6-1a1 1 0 1 1-2 0 1 1 0 0 1 2 0Zm.062 4.89a.5.5 0 0 1-.7-.075l-.003-.003a1.91 1.91 0 0 0-.137-.137 3.069 3.069 0 0 0-.507-.37c-.461-.27-1.187-.555-2.213-.555s-1.753.284-2.216.556a3.088 3.088 0 0 0-.508.37 1.92 1.92 0 0 0-.138.137l-.003.003a.5.5 0 0 1-.777-.63l.39.314-.39-.313v-.001l.002-.001.002-.002.005-.006.014-.018.049-.054c.04-.043.098-.102.174-.17.152-.138.375-.316.674-.491.6-.353 1.5-.694 2.722-.694 1.221 0 2.12.34 2.72.694.3.176.522.353.673.49a2.907 2.907 0 0 1 .222.226l.015.017.005.006.002.003s.001.002-.389.314l.39-.312a.5.5 0 0 1-.078.702ZM10 2a8 8 0 1 0 0 16 8 8 0 0 0 0-16Zm-7 8a7 7 0 1 1 14 0 7 7 0 0 1-14 0Z"/></svg>