<svg xmlns="http://www.w3.org/2000/svg" width="16" height="16"><path d="M15 5.5a4.5 4.5 0 1 1-9 0 4.5 4.5 0 0 1 9 0Zm-4.854 2.353.003.003a.498.498 0 0 0 .348.144h.006a.498.498 0 0 0 .35-.146l2-2a.5.5 0 0 0-.707-.708L11 6.293V3.5a.5.5 0 0 0-1 0v2.793L8.854 5.146a.5.5 0 1 0-.708.708l2 2ZM12 10.997a1 1 0 0 0 .89-.542A5.508 5.508 0 0 0 14 9.743v.254a2 2 0 0 1-2 2h-1.997V13h1.5a.5.5 0 1 1 0 1H4.505A.505.505 0 0 1 4 13.5c0-.276.23-.5.506-.5h1.499L6 11.997H4a2 2 0 0 1-2-2V4a2 2 0 0 1 2-2h2.257A5.508 5.508 0 0 0 5.6 3H4a1 1 0 0 0-1 1v5.997a1 1 0 0 0 1 1h8Zm-2.997 1H7L7.005 13h1.998v-1.003Z"/></svg>