<svg xmlns="http://www.w3.org/2000/svg" width="28" height="28"><path d="M6.75 3A3.75 3.75 0 0 0 3 6.75v14.5A3.75 3.75 0 0 0 6.75 25h8.507a3.75 3.75 0 0 0 2.652-1.098l5.993-5.993A3.75 3.75 0 0 0 25 15.257V6.75A3.75 3.75 0 0 0 21.25 3H6.75ZM4.5 6.75A2.25 2.25 0 0 1 6.75 4.5h14.5a2.25 2.25 0 0 1 2.25 2.25V15h-4.75A3.75 3.75 0 0 0 15 18.75v4.75H6.75a2.25 2.25 0 0 1-2.25-2.25V6.75Zm12 16.376V18.75a2.25 2.25 0 0 1 2.25-2.25h4.376a2.249 2.249 0 0 1-.285.348l-5.993 5.993a2.254 2.254 0 0 1-.348.285Z"/></svg>