<svg xmlns="http://www.w3.org/2000/svg" width="24" height="24" viewBox="0 0 24 24"><path d="M5.75 18A2.75 2.75 0 0 1 3 15.25v-9.5A2.75 2.75 0 0 1 5.75 3h6.964a3.25 3.25 0 0 1 2.299.952l2.035 2.035c.61.61.952 1.437.952 2.299v6.964A2.75 2.75 0 0 1 15.25 18h-9.5ZM4.5 5.75v9.5c0 .69.56 1.25 1.25 1.25H6v-3.25A2.25 2.25 0 0 1 8.25 11h4.5A2.25 2.25 0 0 1 15 13.25v3.25h.25c.69 0 1.25-.56 1.25-1.25V8.286c0-.465-.184-.91-.513-1.238L14 5.061V6.25a2.25 2.25 0 0 1-2.25 2.25h-2.5A2.25 2.25 0 0 1 7 6.25V4.5H5.75c-.69 0-1.25.56-1.25 1.25Zm9 10.75v-3.25a.75.75 0 0 0-.75-.75h-4.5a.75.75 0 0 0-.75.75v3.25h6Zm-5-10.25c0 .414.336.75.75.75h2.5a.75.75 0 0 0 .75-.75V4.5h-4v1.75ZM10.75 21a4.737 4.737 0 0 1-3.464-1.5h8.964a3.25 3.25 0 0 0 3.25-3.25V8.44l.548.548c.61.609.952 1.436.952 2.298v4.964A4.75 4.75 0 0 1 16.25 21h-5.5Z"/></svg>