<svg xmlns="http://www.w3.org/2000/svg" width="24" height="24"><path d="M17.75 3A3.25 3.25 0 0 1 21 6.25v5.77a6.472 6.472 0 0 0-1.5-.707V8.5h-15v9.25c0 .966.784 1.75 1.75 1.75h5.063c.085.262.186.517.302.764L11.39 21H6.25A3.25 3.25 0 0 1 3 17.75V6.25A3.25 3.25 0 0 1 6.25 3h11.5Zm0 1.5H6.25A1.75 1.75 0 0 0 4.5 6.25V7h15v-.75a1.75 1.75 0 0 0-1.75-1.75Zm1.75 7.874a5.498 5.498 0 0 1 1.5.882 5.501 5.501 0 0 1-6.166 9.058l-2.187.666a.5.5 0 0 1-.624-.625l.666-2.186A5.501 5.501 0 0 1 17.475 12h.026c.705 0 1.38.133 1.999.374Zm.002 4.627a.5.5 0 1 0 0-1H15.5a.5.5 0 1 0 0 1h4Zm-4.001 2h2a.5.5 0 1 0 0-1h-2a.5.5 0 1 0 0 1Z"/></svg>