<svg xmlns="http://www.w3.org/2000/svg" width="48" height="48"><path d="M24 44c11.046 0 20-8.954 20-20S35.046 4 24 4 4 12.954 4 24s8.954 20 20 20Zm-3.999-26.497a1.25 1.25 0 0 1-1.998-1.502l.001-.002.002-.002.003-.004.01-.012a2.7 2.7 0 0 1 .113-.141c.073-.088.177-.206.31-.345a8.665 8.665 0 0 1 1.152-1.005C20.591 13.764 22.092 13 24 13a6.25 6.25 0 0 1 6.25 6.25c0 1.969-.816 3.362-1.959 4.43-.89.83-2.032 1.502-3.063 2.109-.2.117-.395.232-.584.345-1.236.742-2.313 1.473-3.1 2.469-.577.731-1.028 1.647-1.208 2.897H29a1.25 1.25 0 1 1 0 2.5H19c-.69 0-1.25-.56-1.25-1.25 0-2.454.711-4.277 1.831-5.696 1.09-1.38 2.512-2.305 3.776-3.063.232-.14.456-.272.673-.4 1.03-.608 1.883-1.113 2.554-1.74.732-.682 1.165-1.445 1.165-2.6a3.75 3.75 0 0 0-3.75-3.751c-1.217 0-2.213.486-2.933 1.01a6.17 6.17 0 0 0-1.017.935l-.043.052-.005.006Zm0 .002v-.002Z"/></svg>