<svg xmlns="http://www.w3.org/2000/svg" width="32" height="32"><path d="M3 7.5A4.5 4.5 0 0 1 7.5 3h17A4.5 4.5 0 0 1 29 7.5V17c0-1.55-1.25-2.162-1.935-2.29a2.09 2.09 0 0 0-.065-.025V11H5v13.5A2.5 2.5 0 0 0 7.5 27h7.424a4.013 4.013 0 0 0-.26 2H7.5A4.5 4.5 0 0 1 3 24.5v-17ZM7.5 5A2.5 2.5 0 0 0 5 7.5V9h22V7.5A2.5 2.5 0 0 0 24.5 5h-17Zm8.683 24a2.5 2.5 0 0 1 .682-2.268l3.435-3.435a5.5 5.5 0 0 1 6.105-7.223c.368.061.48.506.215.77l-1.888 1.888a2.5 2.5 0 0 0 3.536 3.536l1.888-1.888c.264-.264.709-.153.77.215a5.5 5.5 0 0 1-7.022 6.17L20.4 30.268A2.5 2.5 0 0 1 16.183 29Z"/></svg>