<svg xmlns="http://www.w3.org/2000/svg" width="24" height="24" viewBox="0 0 24 24"><path d="M6.01 5h1.508A1.75 1.75 0 0 1 9.25 3.5h8a3.25 3.25 0 0 1 3.25 3.25v8a1.75 1.75 0 0 1-1.5 1.732v1.509a3.25 3.25 0 0 0 3-3.241v-8A4.75 4.75 0 0 0 17.25 2h-8a3.25 3.25 0 0 0-3.24 3ZM2 9.25A3.25 3.25 0 0 1 5.25 6h9.5A3.25 3.25 0 0 1 18 9.25v9.5A3.25 3.25 0 0 1 14.75 22h-9.5A3.25 3.25 0 0 1 2 18.75v-9.5ZM5.25 7.5A1.75 1.75 0 0 0 3.5 9.25v7.25h5.75a2.25 2.25 0 0 1 2.25 2.25v1.75h3.25a1.75 1.75 0 0 0 1.75-1.75v-9.5a1.75 1.75 0 0 0-1.75-1.75h-9.5Zm4.75 13v-1.75a.75.75 0 0 0-.75-.75H3.5v.75c0 .966.784 1.75 1.75 1.75H10Z"/></svg>