<svg xmlns="http://www.w3.org/2000/svg" width="28" height="28"><path d="M9.5 4a4.5 4.5 0 1 0 0 9 4.5 4.5 0 0 0 0-9Zm-3 4.5a3 3 0 1 1 6 0 3 3 0 0 1-6 0ZM20 6a3.5 3.5 0 1 0 0 7 3.5 3.5 0 0 0 0-7Zm-2 3.5a2 2 0 1 1 4 0 2 2 0 0 1-4 0ZM2 17.25A2.25 2.25 0 0 1 4.25 15h10.5c.198 0 .39.026.573.074a7.532 7.532 0 0 0-1.168 1.426H4.25a.75.75 0 0 0-.75.75v.513l.009.1c.01.094.03.235.074.408a3.6 3.6 0 0 0 .61 1.279c.674.897 2.115 1.95 5.307 1.95 1.542 0 2.675-.245 3.51-.6a7.49 7.49 0 0 0 .237 1.518c-.985.36-2.216.582-3.747.582-3.558 0-5.492-1.197-6.506-2.55a5.088 5.088 0 0 1-.866-1.815 4.529 4.529 0 0 1-.125-.797A2.202 2.202 0 0 1 2 17.781v-.531Zm25 3.25a6.5 6.5 0 1 1-13 0 6.5 6.5 0 0 1 13 0Zm-5.786-3.96a.742.742 0 0 0-1.428 0l-.716 2.298h-2.318c-.727 0-1.03.97-.441 1.416l1.875 1.42-.716 2.298c-.225.721.567 1.32 1.155.875l1.875-1.42 1.875 1.42c.588.446 1.38-.154 1.155-.875l-.716-2.298 1.875-1.42c.588-.445.286-1.416-.441-1.416H21.93l-.716-2.297Z"/></svg>