<svg xmlns="http://www.w3.org/2000/svg" width="20" height="20"><path d="M10 2a8 8 0 0 1 7.996 8.254 5.5 5.5 0 0 0-7.742 7.742 7.968 7.968 0 0 1-3.867-.857l-.121-.064-3.645.91a.5.5 0 0 1-.62-.441v-.082l.014-.083.91-3.644-.063-.12a7.95 7.95 0 0 1-.83-2.887l-.025-.382L2 10a8 8 0 0 1 8-8Zm2.065 9.442a2 2 0 0 1-1.43 2.478l-.461.118a4.733 4.733 0 0 0 .01 1.016l.35.083a2 2 0 0 1 1.455 2.519l-.126.423c.257.203.537.377.835.518l.325-.345a2 2 0 0 1 2.909.002l.337.358c.293-.135.568-.302.822-.498l-.156-.556a2 2 0 0 1 1.43-2.478l.461-.118a4.735 4.735 0 0 0-.01-1.017l-.349-.082a2 2 0 0 1-1.456-2.52l.126-.421a4.317 4.317 0 0 0-.835-.518l-.324.343a2 2 0 0 1-2.91-.001l-.337-.358a4.316 4.316 0 0 0-.822.497l.156.557ZM14.5 15.5a1 1 0 1 1 0-2 1 1 0 0 1 0 2Z"/></svg>