<svg xmlns="http://www.w3.org/2000/svg" width="48" height="48" viewBox="0 0 48 48"><path d="M19.546 8.02c-1.06-.537-2.23-.623-3.302-.417L14 8.033a5.737 5.737 0 0 0-4.033 3.031c-2.734 5.383-4.788 9.773-5.59 13.51-.822 3.836-.349 7.102 2.045 10.082 1.6 1.991 4.403 1.595 5.86-.066a477.51 477.51 0 0 0 3.394-3.92A4.773 4.773 0 0 1 19.297 29h2.858c.133-.864.352-1.7.647-2.5h-3.505a7.273 7.273 0 0 0-5.52 2.542 474.369 474.369 0 0 1-3.374 3.899c-.666.76-1.615.668-2.032.15-1.822-2.268-2.251-4.719-1.55-7.992.723-3.37 2.62-7.477 5.375-12.903a3.237 3.237 0 0 1 2.275-1.708l2.243-.43c.627-.12 1.22-.053 1.703.192.185.094.377.194.573.3 1.099.59 2.344.95 3.645.95h2.738c1.3 0 2.545-.36 3.644-.95.196-.106.388-.206.573-.3.484-.245 1.076-.312 1.703-.192l2.244.43c.981.188 1.823.82 2.274 1.708 1.203 2.368 2.242 4.485 3.09 6.4 1.217.381 2.356.937 3.39 1.638-1.042-2.712-2.509-5.74-4.251-9.17a5.737 5.737 0 0 0-4.033-3.031l-2.243-.43c-1.072-.206-2.243-.12-3.303.417a27.32 27.32 0 0 0-.626.327c-.784.42-1.626.653-2.462.653h-2.738c-.837 0-1.679-.232-2.462-.653a29.214 29.214 0 0 0-.627-.327ZM24 18a2 2 0 1 0 0-4 2 2 0 0 0 0 4Zm22 13c0 6.075-4.925 11-11 11s-11-4.925-11-11 4.925-11 11-11 11 4.925 11 11Zm-10-6a1 1 0 1 0-2 0v8a1 1 0 1 0 2 0v-8Zm-1 13.25a1.25 1.25 0 1 0 0-2.5 1.25 1.25 0 0 0 0 2.5Z"/></svg>