<svg xmlns="http://www.w3.org/2000/svg" width="16" height="16" viewBox="0 0 16 16"><path d="M8 1v3.5A1.5 1.5 0 0 0 9.498 6h3.5v1.035a2.548 2.548 0 0 0-1.37.712l-4.287 4.287a3.777 3.777 0 0 0-.994 1.755l-.302 1.209H4.5a1.5 1.5 0 0 1-1.5-1.5V2.5A1.5 1.5 0 0 1 4.5 1H8Zm4.998 7.06a1.56 1.56 0 0 0-.662.394L8.05 12.74a2.777 2.777 0 0 0-.73 1.29l-.303 1.211a.61.61 0 0 0 .738.74l1.211-.303a2.776 2.776 0 0 0 1.29-.73l4.288-4.288a1.56 1.56 0 0 0-1.545-2.6Zm-4-6.81V4.5a.5.5 0 0 0 .5.5h3.25l-3.75-3.75Z"/></svg>