<svg xmlns="http://www.w3.org/2000/svg" width="16" height="16"><path d="M9.135 3.042c-.077.041-.12.08-.281.242a.5.5 0 1 1-.708-.708l.017-.016c.162-.162.299-.3.544-.422a.499.499 0 0 1 .038-.017 1.705 1.705 0 0 1 1.68.229 1.5 1.5 0 0 1 .424.452c.04.062.077.127.108.182l.013.021a2.2 2.2 0 0 0 .1.164.488.488 0 0 1 .03.054c.032.063.063.123.095.181l1.262-1.262a.5.5 0 1 1 .708.707L11.674 4.34c.07.125.135.234.197.327s.13.205.188.304l.072.118c.085.138.141.216.178.254a.48.48 0 0 0 .32.157.384.384 0 0 0 .22-.053.5.5 0 0 1 .053-.03c.086-.044.118-.072.288-.241a.5.5 0 1 1 .707.707l-.016.016c-.152.151-.282.282-.506.398-.419.262-1.171.354-1.773-.247a2.45 2.45 0 0 1-.323-.436l-.095-.157a5.674 5.674 0 0 0-.145-.235 4.473 4.473 0 0 1-.096-.15L9.66 6.353a.5.5 0 1 1-.707-.707l1.501-1.502v-.019a9.473 9.473 0 0 1-.234-.429 4.062 4.062 0 0 1-.117-.194l-.013-.022a4.601 4.601 0 0 0-.085-.143.509.509 0 0 0-.168-.18.711.711 0 0 0-.702-.116ZM6.511 4.974c.412.003.783.205 1.042.479.26.275.444.657.45 1.084a2.017 2.017 0 0 1-.591 1.615c-.391.395-.923.652-1.457.82-.949.3-2.043.366-2.796.347-.158.527-.186.925-.138 1.224a1.142 1.142 0 0 0 .41.735c.203.209.455.275.871.361 1.07.13 2.13-.493 2.794-1.403a.5.5 0 0 1 .808.589c-.808 1.109-2.2 2.003-3.747 1.804a.464.464 0 0 1-.037-.006l-.036-.008c-.386-.079-.922-.189-1.356-.626a2.14 2.14 0 0 1-.694-1.289c-.084-.526-.01-1.127.21-1.805a.504.504 0 0 1 .022-.08l.097-.257a7.22 7.22 0 0 1 .999-1.884c.637-.85 1.668-1.746 3.15-1.7ZM3.54 8.32c.641-.01 1.436-.088 2.115-.302.455-.144.815-.336 1.046-.57.216-.218.334-.484.304-.852a.618.618 0 0 0-.177-.457.48.48 0 0 0-.325-.166h-.016c-1.016-.034-1.775.568-2.324 1.3A6.067 6.067 0 0 0 3.54 8.32Z"/></svg>