<svg xmlns="http://www.w3.org/2000/svg" width="20" height="20" viewBox="0 0 20 20"><path d="M6 8.5a.5.5 0 0 1 .5-.5h7a.5.5 0 0 1 0 1h-7a.5.5 0 0 1-.5-.5Zm.5 2.5a.5.5 0 0 0 0 1h3a.5.5 0 0 0 0-1h-3ZM6 14.5a.5.5 0 0 1 .5-.5h4.444l-.67.67a3.21 3.21 0 0 0-.288.33H6.5a.5.5 0 0 1-.5-.5ZM9.221 17H5.5a.5.5 0 0 1-.5-.5v-12a.5.5 0 0 1 .5-.5h1.585A1.5 1.5 0 0 0 8.5 5h3a1.5 1.5 0 0 0 1.415-1H14.5a.5.5 0 0 1 .5.5v5.444l.103-.103c.266-.266.571-.47.897-.609V4.5A1.5 1.5 0 0 0 14.5 3h-1.585A1.5 1.5 0 0 0 11.5 2h-3a1.5 1.5 0 0 0-1.415 1H5.5A1.5 1.5 0 0 0 4 4.5v12A1.5 1.5 0 0 0 5.5 18h3.504a1.94 1.94 0 0 1 .054-.347L9.221 17ZM12 3.5a.5.5 0 0 1-.5.5h-3a.5.5 0 0 1 0-1h3a.5.5 0 0 1 .5.5Zm-1.02 11.877 4.83-4.83a1.87 1.87 0 1 1 2.644 2.646l-4.83 4.829a2.197 2.197 0 0 1-1.02.578l-1.498.374a.89.89 0 0 1-1.079-1.078l.375-1.498a2.18 2.18 0 0 1 .578-1.02Z"/></svg>