<svg xmlns="http://www.w3.org/2000/svg" width="24" height="24"><path d="M22 6.5a5.5 5.5 0 1 1-11 0 5.5 5.5 0 0 1 11 0Zm-2.146-2.354a.5.5 0 0 0-.708 0L15.5 7.793l-1.646-1.647a.5.5 0 0 0-.708.708l2 2a.5.5 0 0 0 .708 0l4-4a.5.5 0 0 0 0-.708Zm-.354 8.122V14H15a.75.75 0 0 0-.75.75 2.25 2.25 0 0 1-4.5 0l-.007-.102A.75.75 0 0 0 9 14H4.5V7.25c0-.966.784-1.75 1.75-1.75h3.826a6.452 6.452 0 0 1 .422-1.5H6.25A3.25 3.25 0 0 0 3 7.25v11.5A3.25 3.25 0 0 0 6.25 22h11.5A3.25 3.25 0 0 0 21 18.75v-7.56a6.52 6.52 0 0 1-1.5 1.078Z"/></svg>