<svg xmlns="http://www.w3.org/2000/svg" width="20" height="20" viewBox="0 0 20 20"><path d="M6 16a1 1 0 0 0 1 1h2.6c.183.358.404.693.657 1H7a2 2 0 0 1-2-2V4a2 2 0 0 1 2-2h6a2 2 0 0 1 2 2v5.022a5.571 5.571 0 0 0-1 0V4a1 1 0 0 0-1-1H7a1 1 0 0 0-1 1v12Zm3.5-3.794a5.51 5.51 0 0 1 1-1.48v-3.52l1.146 1.147a.5.5 0 0 0 .708-.708l-2-2a.5.5 0 0 0-.708 0l-2 2a.5.5 0 1 0 .708.708L9.5 7.207v4.999ZM19 14.5a4.5 4.5 0 1 1-9 0 4.5 4.5 0 0 1 9 0Zm-2.146-1.854a.5.5 0 0 0-.708 0L13.5 15.293l-.646-.647a.5.5 0 0 0-.708.708l1 1a.5.5 0 0 0 .708 0l3-3a.5.5 0 0 0 0-.708Z"/></svg>