<svg xmlns="http://www.w3.org/2000/svg" width="24" height="24"><path d="M16.317 1h4.827a.5.5 0 0 1 .436.745L19.75 5h1.495a.75.75 0 0 1 .565 1.244l-4.824 5.508c-.505.576-1.443.085-1.258-.658L16.5 8h-3.002a.5.5 0 0 1-.453-.713l2.82-6A.5.5 0 0 1 16.317 1ZM5.25 3h8.706l-.705 1.5H5.25A1.75 1.75 0 0 0 3.5 6.25v8.5c0 .966.784 1.75 1.75 1.75h2.249v3.75l5.015-3.75h6.236a1.75 1.75 0 0 0 1.75-1.75V9.259L22 7.546v7.204A3.25 3.25 0 0 1 18.75 18h-5.738L8 21.75a1.25 1.25 0 0 1-1.999-1V18h-.75A3.25 3.25 0 0 1 2 14.75v-8.5A3.25 3.25 0 0 1 5.25 3Z"/></svg>