<svg xmlns="http://www.w3.org/2000/svg" width="24" height="24" viewBox="0 0 24 24"><path d="M4 5.25A2.25 2.25 0 0 1 6.25 3h9.5A2.25 2.25 0 0 1 18 5.25V14h4v3.75A3.25 3.25 0 0 1 18.75 21h-7.083c.214-.372.333-.8.333-1.247V19.5h4.5V5.25a.75.75 0 0 0-.75-.75h-9.5a.75.75 0 0 0-.75.75v5.8c-.212.044-.42.115-.618.214l-.882.44V5.25Zm9.75 7.25H9.59l-2.04-1.02a.75.75 0 0 1 .7-.48h5.5a.75.75 0 0 1 0 1.5Zm4.25 7h.75a1.75 1.75 0 0 0 1.75-1.75V15.5H18v4ZM8.25 7a.75.75 0 0 0 0 1.5h5.5a.75.75 0 0 0 0-1.5h-5.5Zm1.92 6.908-3.5-1.75a1.5 1.5 0 0 0-1.34 0l-3.5 1.75A1.5 1.5 0 0 0 1 15.25v4.503a1.5 1.5 0 0 0 .83 1.342l3.5 1.75a1.5 1.5 0 0 0 1.34 0l3.5-1.75a1.5 1.5 0 0 0 .83-1.342V15.25a1.5 1.5 0 0 0-.83-1.342Zm-7.617 1.368a.5.5 0 0 1 .67-.223L6 16.44l2.776-1.388a.5.5 0 1 1 .448.894L6.5 17.31v3.19a.5.5 0 1 1-1 0v-3.19l-2.724-1.363a.5.5 0 0 1-.223-.67Z"/></svg>