<svg xmlns="http://www.w3.org/2000/svg" width="24" height="24" viewBox="0 0 24 24"><path d="M15.891 3.048a3.578 3.578 0 1 1 5.061 5.06l-.892.893L15 3.94l.891-.892ZM13.94 5.001 3.94 15a3.106 3.106 0 0 0-.825 1.476L2.02 21.078a.75.75 0 0 0 .904.903l4.601-1.096a3.106 3.106 0 0 0 1.477-.825l1.151-1.151a6.5 6.5 0 0 1 7.754-7.755L19 10.06 13.939 5ZM22 17.5a5.5 5.5 0 1 1-11 0 5.5 5.5 0 0 1 11 0Zm-9.5 0c0 .833.255 1.607.691 2.248l5.557-5.557A4 4 0 0 0 12.5 17.5Zm4 4a4 4 0 0 0 3.309-6.249l-5.557 5.557c.64.437 1.414.692 2.248.692Zm-7.498-1.44-.53-.531Z"/></svg>