<svg xmlns="http://www.w3.org/2000/svg" width="48" height="48" viewBox="0 0 48 48"><path d="M4 14.25A6.25 6.25 0 0 1 10.25 8h27.5A6.25 6.25 0 0 1 44 14.25v11.37a13.044 13.044 0 0 0-2.5-1.88v-9.49a3.75 3.75 0 0 0-3.75-3.75h-27.5a3.75 3.75 0 0 0-3.75 3.75v19.5a3.75 3.75 0 0 0 3.75 3.75h11.99c.17.867.424 1.704.756 2.5H10.25A6.25 6.25 0 0 1 4 33.75v-19.5ZM46 35c0 6.075-4.925 11-11 11s-11-4.925-11-11 4.925-11 11-11 11 4.925 11 11Zm-10-7a1 1 0 1 0-2 0v6h-6a1 1 0 1 0 0 2h6v6a1 1 0 1 0 2 0v-6h6a1 1 0 1 0 0-2h-6v-6Z"/></svg>