<svg xmlns="http://www.w3.org/2000/svg" width="48" height="48"><path d="M25.25 5.25a1.25 1.25 0 1 0-2.5 0v2.5a1.25 1.25 0 0 0 2.5 0v-2.5Zm8.771 18.796c0 5.509-4.466 9.975-9.975 9.975-5.51 0-9.975-4.466-9.975-9.976 0-5.509 4.466-9.975 9.975-9.975 5.51 0 9.975 4.466 9.975 9.976Zm-2.5 0a7.475 7.475 0 0 0-7.475-7.476H24v14.95h.046a7.475 7.475 0 0 0 7.475-7.474Zm12.48-.047c0 .69-.56 1.25-1.25 1.25h-2.5a1.25 1.25 0 0 1 0-2.5h2.5c.69 0 1.25.56 1.25 1.25ZM25.25 40.25a1.25 1.25 0 1 0-2.5 0v2.5a1.25 1.25 0 0 0 2.5 0v-2.5ZM9 24c0 .69-.56 1.25-1.25 1.25h-2.5a1.25 1.25 0 0 1 0-2.5h2.5c.69 0 1.25.56 1.25 1.25Zm2.133-14.633a1.25 1.25 0 1 0-1.767 1.767l2.5 2.5a1.25 1.25 0 0 0 1.767-1.767l-2.5-2.5ZM9.367 38.634a1.25 1.25 0 0 0 1.767 0l2.5-2.5a1.25 1.25 0 1 0-1.767-1.768l-2.5 2.5a1.25 1.25 0 0 0 0 1.768Zm27.5-29.268a1.25 1.25 0 1 1 1.767 1.767l-2.5 2.5a1.25 1.25 0 0 1-1.767-1.767l2.5-2.5Zm1.767 29.268a1.25 1.25 0 0 1-1.767 0l-2.5-2.5a1.25 1.25 0 1 1 1.767-1.768l2.5 2.5a1.25 1.25 0 0 1 0 1.768Z"/></svg>