<svg xmlns="http://www.w3.org/2000/svg" width="24" height="24" viewBox="0 0 24 24"><path d="M16.318 1h4.827a.5.5 0 0 1 .436.745L19.751 5h1.495a.75.75 0 0 1 .565 1.244l-4.824 5.508c-.505.576-1.443.085-1.258-.658L16.5 8h-3.002a.5.5 0 0 1-.453-.713l2.82-6A.5.5 0 0 1 16.318 1ZM5.25 3h8.705L12.14 6.862A1.5 1.5 0 0 0 13.497 9h1.723l-.461 1.853c-.44 1.76 1.784 2.923 2.98 1.558L22 7.545v7.205A3.25 3.25 0 0 1 18.75 18H13l-5 3.75c-.824.618-2 .03-2-1V18h-.75A3.25 3.25 0 0 1 2 14.75v-8.5A3.25 3.25 0 0 1 5.25 3Z"/></svg>