<svg xmlns="http://www.w3.org/2000/svg" width="16" height="16"><path d="M14 4.5A2.5 2.5 0 0 0 11.5 2h-7A2.5 2.5 0 0 0 2 4.5v7A2.5 2.5 0 0 0 4.5 14h1.757a5.507 5.507 0 0 1-.657-1H4.5A1.5 1.5 0 0 1 3 11.5V6h4.337c.895-.63 1.986-1 3.163-1 1.33 0 2.55.472 3.5 1.257V4.5Zm-3.5.5H3v-.5A1.5 1.5 0 0 1 4.5 3h7A1.5 1.5 0 0 1 13 4.5V5h-2.5ZM6.635 9.92a2 2 0 0 0 1.43-2.478l-.155-.557c.254-.195.529-.362.821-.497l.338.358a2 2 0 0 0 2.91.001l.324-.343c.298.14.578.314.835.518l-.126.422a2 2 0 0 0 1.456 2.519l.349.082a4.698 4.698 0 0 1 .01 1.017l-.46.118a2 2 0 0 0-1.431 2.478l.156.556c-.254.196-.53.363-.822.498l-.338-.358a2 2 0 0 0-2.909-.002l-.325.345a4.322 4.322 0 0 1-.835-.518l.127-.423a2 2 0 0 0-1.456-2.519l-.35-.083a4.702 4.702 0 0 1-.01-1.016l.461-.118Zm4.865.58a1 1 0 1 0-2 0 1 1 0 0 0 2 0Z"/></svg>