<svg xmlns="http://www.w3.org/2000/svg" width="16" height="16" viewBox="0 0 16 16"><path d="M1 4.75C1 3.784 1.784 3 2.75 3h10.5c.966 0 1.75.784 1.75 1.75v1.785a3.981 3.981 0 0 0-2.37-.518A.5.5 0 0 0 12.5 6h-3a.5.5 0 0 0 0 1h.854a3.995 3.995 0 0 0-1.282 2.242.498.498 0 0 0-.055.387A3.985 3.985 0 0 0 10 12.645V13H2.75A1.75 1.75 0 0 1 1 11.25v-6.5Zm4.261 2.964a1.357 1.357 0 1 0 0-2.714 1.357 1.357 0 0 0 0 2.714Zm-1.403.678A.858.858 0 0 0 3 9.25a1.67 1.67 0 0 0 1.265 1.62l.053.014c.62.155 1.267.155 1.886 0l.054-.013a1.67 1.67 0 0 0 1.265-1.62.858.858 0 0 0-.858-.859H3.858ZM16 10a3 3 0 1 1-6 0 3 3 0 0 1 6 0Zm-1 3.465A3.982 3.982 0 0 1 13 14a3.982 3.982 0 0 1-2-.535v2.285a.25.25 0 0 0 .378.215L13 15l1.622.965A.25.25 0 0 0 15 15.75v-2.285Z"/></svg>