<svg xmlns="http://www.w3.org/2000/svg" width="24" height="24" viewBox="0 0 24 24"><path d="M10.499 4a6.454 6.454 0 0 0-.423 1.5H6.25A1.75 1.75 0 0 0 4.5 7.25V14H9a.75.75 0 0 1 .743.648l.007.102a2.25 2.25 0 0 0 4.5 0A.75.75 0 0 1 15 14h4.5l.001-1.733a6.517 6.517 0 0 0 1.5-1.077L21 18.75A3.25 3.25 0 0 1 17.75 22H6.25A3.25 3.25 0 0 1 3 18.75V7.25A3.25 3.25 0 0 1 6.25 4h4.249ZM16.5 1a5.5 5.5 0 1 1 0 11 5.5 5.5 0 0 1 0-11Zm.128 2.017-.086-.015L16.488 3l-.056.005-.06.012-.083.03-.074.042-.056.045-2.513 2.512-.057.07a.5.5 0 0 0 0 .568l.057.07.07.057a.5.5 0 0 0 .568 0l.07-.057 1.645-1.646L16 10l.008.09a.5.5 0 0 0 .402.402l.09.008.09-.008a.5.5 0 0 0 .402-.402L17 10l-.001-5.294 1.647 1.648.07.057a.5.5 0 0 0 .695-.695l-.057-.07-2.548-2.542-.047-.032-.068-.034-.063-.021Z"/></svg>