<svg xmlns="http://www.w3.org/2000/svg" width="24" height="24" viewBox="0 0 24 24"><path d="M6.25 3A3.25 3.25 0 0 0 3 6.25v11.5A3.25 3.25 0 0 0 6.25 21h5.772a6.471 6.471 0 0 1-.709-1.5H6.25a1.75 1.75 0 0 1-1.75-1.75V6.25c0-.966.784-1.75 1.75-1.75h11.5c.966 0 1.75.784 1.75 1.75v5.063a6.471 6.471 0 0 1 1.5.709V6.25A3.25 3.25 0 0 0 17.75 3H6.25Zm11.25 8c.152 0 .302.005.452.015A.749.749 0 0 0 17.25 10h-4.5a.75.75 0 0 0 0 1.5h2.246A6.48 6.48 0 0 1 17.5 11ZM6.75 6a.75.75 0 0 0 0 1.5h10.5a.75.75 0 0 0 0-1.5H6.75ZM6 10.75a2.25 2.25 0 1 1 4.5 0 2.25 2.25 0 0 1-4.5 0ZM8.25 10a.75.75 0 1 0 0 1.5.75.75 0 0 0 0-1.5Zm0 4a2.25 2.25 0 1 0 0 4.5 2.25 2.25 0 0 0 0-4.5Zm-.75 2.25a.75.75 0 1 1 1.5 0 .75.75 0 0 1-1.5 0ZM23 17.5a5.5 5.5 0 1 0-11 0 5.5 5.5 0 0 0 11 0Zm-5 .5.001 2.503a.5.5 0 1 1-1 0V18h-2.505a.5.5 0 0 1 0-1H17v-2.5a.5.5 0 1 1 1 0V17h2.497a.5.5 0 0 1 0 1H18Z"/></svg>