<svg xmlns="http://www.w3.org/2000/svg" width="20" height="20" viewBox="0 0 20 20"><path d="M4 5c0-1.007.875-1.755 1.9-2.223A10.177 10.177 0 0 1 10 2a10.177 10.177 0 0 1 4.1.777C15.125 3.245 16 3.993 16 5v4h-1V6.7c-.28.206-.582.382-.9.525A10.177 10.177 0 0 1 10 8a10.177 10.177 0 0 1-4.1-.777A4.924 4.924 0 0 1 5 6.7V15c0 .374.356.875 1.318 1.313A9.2 9.2 0 0 0 10 17c.498.01.995-.02 1.486-.09a1.5 1.5 0 0 0 .516.09h.469l-.197.787c-.746.156-1.508.228-2.274.213a10.177 10.177 0 0 1-4.1-.777C4.875 16.755 4 16.007 4 15V5Zm1 0c0 .374.356.875 1.318 1.313A9.2 9.2 0 0 0 10 7a9.2 9.2 0 0 0 3.682-.687C14.644 5.875 15 5.373 15 5c0-.374-.356-.875-1.318-1.313A9.2 9.2 0 0 0 10 3a9.2 9.2 0 0 0-3.682.687C5.356 4.125 5 4.626 5 5Zm8.112 11a.5.5 0 0 1 .485.621l-.434 1.738c-.121.483.462.827.826.487l4.872-4.548A.75.75 0 0 0 18.35 13h-.404a.5.5 0 0 1-.474-.658l.561-1.684A.5.5 0 0 0 17.56 10h-3.473a.5.5 0 0 0-.462.308l-2.083 5a.5.5 0 0 0 .461.692h1.11Z"/></svg>