<svg xmlns="http://www.w3.org/2000/svg" width="48" height="48" viewBox="0 0 48 48"><path d="M42.705 8.18c-1.687-2.531-5.267-2.885-7.417-.735l-8.343 8.343a3.75 3.75 0 0 0-1.055 2.081l-.875 5.691a1.25 1.25 0 0 0 1.516 1.408l5.77-1.331a3.75 3.75 0 0 0 1.87-1.065l8.01-8.392a4.82 4.82 0 0 0 .524-6Zm-20.161 15a3.75 3.75 0 0 0 4.55 4.224l5.77-1.331a6.25 6.25 0 0 0 3.116-1.775L44 15.896V33.75A6.25 6.25 0 0 1 37.75 40h-27.5A6.25 6.25 0 0 1 4 33.75v-9.604c.073-.032.144-.071.212-.118.578-.4 1.287-.944 2.045-1.526.344-.264.699-.536 1.055-.805 1.175-.888 2.434-1.799 3.667-2.527 1.253-.739 2.377-1.228 3.292-1.368.858-.13 1.389.055 1.78.512.228.265.314.496.341.705.03.225.002.505-.119.868-.253.763-.797 1.592-1.473 2.62l-.036.053c-.63.961-1.399 2.133-1.718 3.334-.167.63-.228 1.321-.061 2.033.168.72.55 1.375 1.131 1.957.836.836 1.79 1.232 2.748 1.3.927.067 1.778-.177 2.456-.479a8.173 8.173 0 0 0 1.647-.997 8.45 8.45 0 0 0 .646-.554l.013-.012.005-.005.001-.001.001-.001-.883-.885.883.885a1.25 1.25 0 0 0-1.765-1.77h-.001l-.015.015-.08.074a6.011 6.011 0 0 1-.333.276 5.684 5.684 0 0 1-1.134.69c-.447.199-.877.298-1.263.27-.354-.024-.744-.16-1.158-.574-.296-.295-.416-.548-.465-.759-.052-.218-.047-.482.043-.82.196-.738.71-1.565 1.392-2.604l.12-.181c.6-.91 1.312-1.992 1.672-3.078.2-.606.318-1.278.225-1.982-.095-.72-.4-1.396-.922-2.005-1.109-1.294-2.61-1.577-4.056-1.356-1.39.212-2.843.895-4.185 1.687-1.36.803-2.71 1.783-3.903 2.684-.402.304-.78.594-1.135.866l-.001.001h-.001c-.233.18-.456.35-.668.512v-6.83A6.25 6.25 0 0 1 10.25 8h20.947l-6.02 6.019a6.25 6.25 0 0 0-1.758 3.469l-.875 5.691Z"/></svg>