<svg xmlns="http://www.w3.org/2000/svg" width="28" height="28" viewBox="0 0 28 28"><path d="M8.5 2.5a2.25 2.25 0 1 0 0 4.5 2.25 2.25 0 0 0 0-4.5ZM4.75 4.75a3.75 3.75 0 1 1 7.5 0 3.75 3.75 0 0 1-7.5 0ZM2 11.982C2 10.887 2.887 10 3.982 10h5.6a4.728 4.728 0 0 0-.326 1.5H3.982a.482.482 0 0 0-.482.482v.393c0 .172.002 1.213.607 2.197.52.844 1.554 1.759 3.753 1.907a2.993 2.993 0 0 0-1.136 1.368c-2.005-.371-3.207-1.372-3.894-2.49C2 14.01 2 12.618 2 12.378v-.395ZM18.417 10c.186.468.3.973.326 1.5h5.275c.266 0 .482.216.482.482v.393c0 .137-.002.825-.307 1.595.447.254.865.552 1.248.888A5.909 5.909 0 0 0 26 12.377v-.395A1.982 1.982 0 0 0 24.018 10h-5.6Zm-.667 1.75c0 .752-.221 1.452-.602 2.04a7.525 7.525 0 0 0-2.102 1.562 3.75 3.75 0 1 1 2.704-3.602ZM9.482 17h4.383a7.45 7.45 0 0 0-.595 1.5H9.482a.482.482 0 0 0-.482.482v.393c0 .172.002 1.213.607 2.197.54.877 1.634 1.83 4.014 1.92.233.535.526 1.037.87 1.497-.16.007-.323.011-.491.011-3.106 0-4.8-1.228-5.67-2.642-.83-1.349-.83-2.74-.83-2.981v-.395C7.5 17.887 8.387 17 9.482 17ZM19.5 2.5a2.25 2.25 0 1 0 0 4.5 2.25 2.25 0 0 0 0-4.5Zm-3.75 2.25a3.75 3.75 0 1 1 7.5 0 3.75 3.75 0 0 1-7.5 0Zm-4 7a2.25 2.25 0 1 0 4.5 0 2.25 2.25 0 0 0-4.5 0ZM27 20.5a6.5 6.5 0 1 1-13 0 6.5 6.5 0 0 1 13 0Zm-6-4a.5.5 0 0 0-1 0V20h-3.5a.5.5 0 0 0 0 1H20v3.5a.5.5 0 0 0 1 0V21h3.5a.5.5 0 0 0 0-1H21v-3.5Z"/></svg>