<svg xmlns="http://www.w3.org/2000/svg" width="24" height="24" viewBox="0 0 24 24"><path d="M16.25 11h-8.5c-.41 0-.75.34-.75.75s.34.75.75.75h8.5c.41 0 .75-.34.75-.75s-.34-.75-.75-.75Zm0 4.5h-8.5c-.41 0-.75.34-.75.75s.34.75.75.75h8.5c.41 0 .75-.34.75-.75s-.34-.75-.75-.75ZM7 7.25c0 .41.34.75.75.75h7.45l-.09-.28c-.05-.14-.12-.27-.21-.39-.04-.05-.07-.09-.11-.13-.15-.15-.33-.26-.52-.32L13.1 6.5H7.75c-.41 0-.75.34-.75.75Zm12.8 6.04-.26-.79-.8-.29c-.09-.03-.16-.08-.24-.12v7.66c0 .41-.34.75-.75.75H6.25c-.41 0-.75-.34-.75-.75V4.25c0-.41.34-.75.75-.75h5.53c.03-.06.05-.13.09-.19.24-.34.58-.6.99-.74l1.41-.46c.07-.03.15-.07.22-.11H6.25C5.01 2 4 3.01 4 4.25v15.5C4 20.99 5.01 22 6.25 22h11.5c1.24 0 2.25-1.01 2.25-2.25v-6.08a1.72 1.72 0 0 1-.2-.38Zm-3.95-7.14c.08.08.16.17.23.27.2.25.35.54.45.85l.45 1.38c.04.11.11.2.2.26.09.07.2.1.31.1a.5.5 0 0 0 .31-.1c.08-.06.15-.14.19-.23v-.03l.46-1.38c.14-.42.37-.8.69-1.11.31-.31.69-.55 1.11-.69l1.38-.45c.11-.04.2-.11.26-.2a.5.5 0 0 0 .1-.31.5.5 0 0 0-.1-.31.63.63 0 0 0-.26-.2h-.03l-1.38-.45c-.42-.14-.8-.37-1.11-.69a2.85 2.85 0 0 1-.69-1.11L17.97.37a.524.524 0 0 0-.2-.26c-.09-.06-.2-.1-.31-.1a.5.5 0 0 0-.31.1c-.09.06-.16.16-.2.26l-.45 1.38v.03c-.15.4-.38.77-.67 1.07-.31.31-.68.55-1.1.69l-1.38.45c-.11.04-.2.11-.26.2a.5.5 0 0 0-.1.31c0 .11.03.22.1.31.06.09.16.16.26.2l1.38.45c.42.14.8.38 1.11.69h.01Zm7.93 4.07c.064 0 .13.06.17.11.04.05.05.11.05.17 0 .06-.01.12-.05.17-.04.05-.09.09-.15.11l-.77.25c-.23.08-.44.21-.62.38-.17.17-.3.38-.38.62l-.25.76c-.02.06-.06.11-.11.15a.272.272 0 0 1-.34 0 .327.327 0 0 1-.11-.15l-.25-.76c-.08-.23-.21-.45-.38-.62-.17-.17-.39-.31-.62-.38l-.77-.25a.327.327 0 0 1-.15-.11.272.272 0 0 1 0-.34c.04-.05.09-.09.15-.11l.77-.25c.23-.08.44-.21.61-.38.17-.17.3-.38.37-.61l.25-.76c.02-.06.06-.11.11-.15a.272.272 0 0 1 .34 0c.05.04.09.09.11.15l.25.76c.08.23.21.44.38.62.17.17.38.3.62.38l.77.24Z"/></svg>