<svg xmlns="http://www.w3.org/2000/svg" width="16" height="16"><path d="M3.252 2a.25.25 0 0 0-.25.25L3 10.75c0 .138.112.25.25.25H5v1H3.25C2.56 12 2 11.44 2 10.75l.002-8.5c0-.69.56-1.25 1.25-1.25h4.503c.69 0 1.25.56 1.25 1.251L9.003 4.25c0 .138.111.25.25.25h.497A1.25 1.25 0 0 1 11 5.699 2.003 2.003 0 0 0 9.481 5.5h-.228a1.25 1.25 0 0 1-1.25-1.251l.002-1.999a.25.25 0 0 0-.25-.25H3.252Zm7.429 4.7a1 1 0 0 0-1.361 0L6.48 9.337a1.5 1.5 0 0 0-.48 1.1V14a1 1 0 0 0 1 1h1.5a1 1 0 0 0 1-1v-1h1v1a1 1 0 0 0 1 1H13a1 1 0 0 0 1-1v-3.564a1.5 1.5 0 0 0-.48-1.1L10.68 6.7ZM7.16 10.07 10 7.432l2.84 2.638a.5.5 0 0 1 .16.366V14h-1.5v-1a1 1 0 0 0-1-1h-1a1 1 0 0 0-1 1v1H7v-3.564a.5.5 0 0 1 .16-.366ZM5 3.5a.5.5 0 1 1-1 0 .5.5 0 0 1 1 0ZM4.5 6a.5.5 0 1 0 0-1 .5.5 0 0 0 0 1ZM5 7.5a.5.5 0 1 1-1 0 .5.5 0 0 1 1 0ZM6.5 4a.5.5 0 1 0 0-1 .5.5 0 0 0 0 1ZM7 5.5a.5.5 0 1 1-1 0 .5.5 0 0 1 1 0ZM6.5 8a.5.5 0 1 0 0-1 .5.5 0 0 0 0 1Z"/></svg>