<svg xmlns="http://www.w3.org/2000/svg" width="28" height="28" viewBox="0 0 28 28"><path d="M22.45 23.6a.9.9 0 0 1-.9.9h-7.704A7.538 7.538 0 0 1 12.6 26h8.95a2.4 2.4 0 0 0 2.4-2.4V11.395a2.4 2.4 0 0 0-.703-1.697l-6.994-6.994c-.052-.052-.11-.096-.167-.14l-.056-.043a2.387 2.387 0 0 0-1.004-.474A2.381 2.381 0 0 0 14.555 2H6.4A2.4 2.4 0 0 0 4 4.401v9.465a7.45 7.45 0 0 1 1.5-.596V4.401c0-.497.404-.901.9-.901h7.55V10a2 2 0 0 0 2 2l6.5-.001V23.6Zm-7-19.577 6.478 6.476-5.978.001a.499.499 0 0 1-.5-.5V4.023ZM14 20.5a6.5 6.5 0 1 1-13 0 6.5 6.5 0 0 1 13 0Zm-6-4a.5.5 0 0 0-1 0V20H3.5a.5.5 0 0 0 0 1H7v3.5a.5.5 0 1 0 1 0V21h3.5a.5.5 0 1 0 0-1H8v-3.5Z"/></svg>