<svg xmlns="http://www.w3.org/2000/svg" width="24" height="24"><path d="M12.75 2.75a.75.75 0 0 0-1.5 0v1.5a.75.75 0 0 0 1.5 0v-1.5Zm6.28 2.22a.75.75 0 0 1 0 1.06l-1.06 1.061a.75.75 0 0 1-1.061-1.06l1.06-1.061a.75.75 0 0 1 1.061 0ZM6.59 13a5.5 5.5 0 1 1 10.819 0h3.841a.75.75 0 0 1 0 1.5H2.75a.75.75 0 0 1 0-1.5h3.84Zm.16 3a.75.75 0 0 0 0 1.5h10.5a.75.75 0 0 0 0-1.5H6.75Zm4 3a.75.75 0 0 0 0 1.5h2.5a.75.75 0 0 0 0-1.5h-2.5ZM4.97 4.97a.75.75 0 0 1 1.06 0l1.061 1.06a.75.75 0 1 1-1.06 1.061L4.97 6.031a.75.75 0 0 1 0-1.061Z"/></svg>