<svg xmlns="http://www.w3.org/2000/svg" width="48" height="48"><path d="M21.502 40.027a1.5 1.5 0 1 1 0 3 1.5 1.5 0 0 1 0-3Zm9 0a1.5 1.5 0 1 1 0 3 1.5 1.5 0 0 1 0-3Zm-13.5-2a1.5 1.5 0 1 1 0 3 1.5 1.5 0 0 1 0-3Zm9 0a1.5 1.5 0 1 1 0 3 1.5 1.5 0 0 1 0-3Zm9 0a1.5 1.5 0 1 1 0 3 1.5 1.5 0 0 1 0-3ZM26 12.01c6.337 0 9.932 4.194 10.455 9.26h.16c4.078 0 7.384 3.297 7.384 7.365S40.692 36 36.614 36h-21.23C11.306 36 8 32.703 8 28.635s3.306-7.365 7.384-7.365h.16c.526-5.099 4.118-9.26 10.455-9.26Zm0 2.495c-4.261 0-7.975 3.448-7.975 8.21 0 .755-.656 1.347-1.407 1.347h-1.421c-2.594 0-4.697 2.114-4.697 4.721 0 2.608 2.103 4.722 4.697 4.722h21.606c2.594 0 4.697-2.114 4.697-4.722 0-2.607-2.103-4.72-4.697-4.72h-1.42c-.752 0-1.408-.593-1.408-1.348 0-4.823-3.714-8.21-7.975-8.21ZM8.71 20.303a1.244 1.244 0 0 1-.558 1.57l-.115.055-2.312.962a1.244 1.244 0 0 1-1.067-2.243l.115-.055 2.312-.962a1.244 1.244 0 0 1 1.625.673Zm13-9.64-.061.019c-.925.302-1.785.702-2.571 1.19a5.5 5.5 0 0 0-6.826 7.95 9.275 9.275 0 0 0-2.126 1.086A7.883 7.883 0 0 1 21.71 10.662Zm-16.129.179.127.046 2.32.989c.629.266.931.995.674 1.628-.24.592-.882.89-1.48.711l-.126-.045-2.319-.99a1.26 1.26 0 0 1-.675-1.628c.24-.591.883-.89 1.48-.711Zm7.369-6.174.055.116.96 2.306a1.25 1.25 0 0 1-2.255 1.072l-.055-.115-.96-2.306a1.25 1.25 0 0 1 2.255-1.073Zm9.048-.56c.602.25.909.91.73 1.521l-.046.13-.991 2.276a1.264 1.264 0 0 1-2.38-.837l.045-.13.991-2.276a1.264 1.264 0 0 1 1.651-.684Z"/></svg>