<svg xmlns="http://www.w3.org/2000/svg" width="28" height="28" viewBox="0 0 28 28"><path d="M24.85 3.15a3.932 3.932 0 0 0-5.561 0L4.502 17.937c-.44.44-.76.986-.927 1.586l-1.547 5.525a.75.75 0 0 0 .924.924l5.524-1.547a3.626 3.626 0 0 0 1.587-.928l2.002-2.002a7.562 7.562 0 0 1 .022-2.143l-3.084 3.085a2.126 2.126 0 0 1-.93.544l-4.241 1.187 1.187-4.24a2.13 2.13 0 0 1 .544-.93L20.35 4.21a2.432 2.432 0 1 1 3.439 3.44l-5.437 5.437a7.562 7.562 0 0 1 2.143-.022L24.85 8.71a3.932 3.932 0 0 0 0-5.56ZM26 20.5a6.5 6.5 0 1 1-13 0 6.5 6.5 0 0 1 13 0Zm-9.146-3.354a.5.5 0 0 0-.708.708l2.647 2.646-2.647 2.646a.5.5 0 0 0 .708.708l2.646-2.647 2.646 2.647a.5.5 0 0 0 .708-.708L20.207 20.5l2.647-2.646a.5.5 0 0 0-.708-.708L19.5 19.793l-2.646-2.647Z"/></svg>