<svg xmlns="http://www.w3.org/2000/svg" width="24" height="24"><path d="M8 2H5a3 3 0 0 0-3 3v3h2.708A2.5 2.5 0 0 1 8 4.708V2ZM2 9.5V14a3 3 0 0 0 3 3h3v-6.44l-1.72 1.72a.75.75 0 0 1-1.06-1.06L6.94 9.5H2ZM9.5 17h1.519A6.5 6.5 0 0 1 22 12.81V9.5H10.56l1.72 1.72a.75.75 0 1 1-1.06 1.06L9.5 10.56V17ZM22 8h-9.208A2.5 2.5 0 0 0 9.5 4.708V2H19a3 3 0 0 1 3 3v3ZM10.5 8h-1V7a1 1 0 1 1 1 1ZM8 8H7a1 1 0 1 1 1-1.008V8Zm15 9.5a5.5 5.5 0 1 1-11 0 5.5 5.5 0 0 1 11 0Zm-8.5-.5a.5.5 0 0 0 0 1h4.793l-1.647 1.646a.5.5 0 0 0 .708.708l2.5-2.5a.5.5 0 0 0 0-.708l-2.5-2.5a.5.5 0 0 0-.708.708L19.293 17H14.5Z"/></svg>