<svg xmlns="http://www.w3.org/2000/svg" width="16" height="16" viewBox="0 0 16 16"><path d="M4.5 4a.5.5 0 0 0 0 1h3a.5.5 0 0 0 0-1h-3ZM4 6.5a.5.5 0 0 1 .5-.5h5a.5.5 0 0 1 0 1h-5a.5.5 0 0 1-.5-.5ZM4.5 8a.5.5 0 0 0 0 1h3a.5.5 0 0 0 0-1h-3Zm-3-3.5A2.5 2.5 0 0 1 4 2h6.5A2.5 2.5 0 0 1 13 4.5v5a2.5 2.5 0 0 1-2.5 2.5H4a2.5 2.5 0 0 1-2.5-2.5v-5ZM4 3a1.5 1.5 0 0 0-1.5 1.5v5A1.5 1.5 0 0 0 4 11h6.5A1.5 1.5 0 0 0 12 9.5v-5A1.5 1.5 0 0 0 10.5 3H4Zm10 6.5a3.5 3.5 0 0 1-3.5 3.5H3.671c.773.626 1.757 1 2.829 1h4A4.5 4.5 0 0 0 15 9.5v-3a4.481 4.481 0 0 0-1-2.829V9.5Z"/></svg>