<svg xmlns="http://www.w3.org/2000/svg" width="20" height="20" viewBox="0 0 20 20"><path d="M4 5c0-1.007.875-1.755 1.9-2.223A10.177 10.177 0 0 1 10 2a10.177 10.177 0 0 1 4.1.777C15.125 3.245 16 3.993 16 5v4.207a5.48 5.48 0 0 0-1-.185V6.7c-.28.206-.582.382-.9.525A10.177 10.177 0 0 1 10 8a10.177 10.177 0 0 1-4.1-.777A4.924 4.924 0 0 1 5 6.7V15c0 .374.356.875 1.318 1.313a9.2 9.2 0 0 0 3.281.686c.184.359.405.695.66 1.003-.087 0-.173 0-.259-.002a10.177 10.177 0 0 1-4.1-.777C4.875 16.755 4 16.007 4 15V5Zm1 0c0 .374.356.875 1.318 1.313A9.2 9.2 0 0 0 10 7a9.2 9.2 0 0 0 3.682-.687C14.644 5.875 15 5.373 15 5c0-.374-.356-.875-1.318-1.313A9.2 9.2 0 0 0 10 3a9.2 9.2 0 0 0-3.682.687C5.356 4.125 5 4.626 5 5Zm14 9.5a4.5 4.5 0 1 1-9 0 4.5 4.5 0 0 1 9 0Zm-4.854 2.353.003.003a.499.499 0 0 0 .348.144h.006a.5.5 0 0 0 .35-.146l2-2a.5.5 0 0 0-.707-.708L15 15.293V12.5a.5.5 0 0 0-1 0v2.793l-1.146-1.147a.5.5 0 0 0-.708.708l2 2Z"/></svg>