<svg xmlns="http://www.w3.org/2000/svg" width="24" height="24"><path d="M16.488 4.43a.75.75 0 0 1 .082 1.058L10.988 12l5.032 5.871a3.86 3.86 0 0 0-.682 1.51L10 13.151l-5.43 6.336a.75.75 0 0 1-1.14-.976L9.013 12 3.431 5.488a.75.75 0 0 1 1.139-.976L10 10.848l5.43-6.336a.75.75 0 0 1 1.058-.081Zm1.262 11.093c0-.528.444-1.023.986-1.023.407 0 .735.19.893.434.136.21.218.566-.093 1.095-.15.255-.376.482-.682.724-.152.12-.316.237-.493.363l-.074.052c-.152.107-.315.222-.472.34-.744.56-1.565 1.346-1.565 2.742 0 .414.336.75.75.75h3.451a.75.75 0 0 0 0-1.5h-2.513c.16-.282.423-.525.779-.793.137-.103.279-.203.432-.312l.078-.054c.178-.127.37-.264.557-.41.372-.295.76-.658 1.045-1.142.557-.948.546-1.921.058-2.672C20.42 13.4 19.59 13 18.736 13c-1.478 0-2.486 1.278-2.486 2.523a.75.75 0 0 0 1.5 0Z"/></svg>