<svg xmlns="http://www.w3.org/2000/svg" width="24" height="24"><path d="M12 2v6a2 2 0 0 0 2 2h6v10a2 2 0 0 1-2 2h-7.975a1.852 1.852 0 0 0-.07-.46c1.961-.213 3.246-2.098 3.246-4.04A6.7 6.7 0 0 0 4 11.284V4a2 2 0 0 1 2-2h6Zm1.5.5V8a.5.5 0 0 0 .5.5h5.5l-6-6Zm-1.5 15a5.5 5.5 0 1 0-3.835 5.243l.226-.077.082-.036a.66.66 0 0 0-.536-1.203l-.171.058-.246.07a4.18 4.18 0 1 1 3.16-4.055c0 .903-.546 1.54-1.1 1.54-.413 0-.66-.446-.66-1.54v-2.2l-.006-.09a.66.66 0 0 0-1.228-.236A2.2 2.2 0 0 0 6.5 14.64c-1.487 0-2.42 1.335-2.42 2.86s.933 2.86 2.42 2.86c.67 0 1.227-.27 1.635-.707.326.452.804.707 1.445.707 1.332 0 2.42-1.27 2.42-2.86Zm-6.6 0c0-.877.464-1.54 1.1-1.54.636 0 1.1.663 1.1 1.54s-.464 1.54-1.1 1.54c-.636 0-1.1-.663-1.1-1.54Z"/></svg>