<svg xmlns="http://www.w3.org/2000/svg" width="24" height="24" viewBox="0 0 24 24"><path d="M12.75 4.25a.75.75 0 0 0-1.5 0v1a.75.75 0 0 0 1.5 0v-1ZM17 12a5 5 0 1 1-10 0 5 5 0 0 1 10 0Zm-1.5 0A3.5 3.5 0 0 0 12 8.5v7a3.5 3.5 0 0 0 3.5-3.5Zm5 0a.75.75 0 0 1-.75.75h-1a.75.75 0 0 1 0-1.5h1a.75.75 0 0 1 .75.75Zm-7.75 6.75a.75.75 0 0 0-1.5 0v1a.75.75 0 0 0 1.5 0v-1ZM6 12a.75.75 0 0 1-.75.75h-1a.75.75 0 0 1 0-1.5h1A.75.75 0 0 1 6 12Zm1.28-5.78a.75.75 0 0 0-1.06 1.06l.5.5a.75.75 0 0 0 1.06-1.06l-.5-.5ZM6.22 17.78a.75.75 0 0 0 1.06 0l.5-.5a.75.75 0 1 0-1.06-1.06l-.5.5a.75.75 0 0 0 0 1.06Zm10.5-11.56a.75.75 0 1 1 1.06 1.06l-.5.5a.75.75 0 1 1-1.06-1.06l.5-.5Zm1.06 11.56a.75.75 0 0 1-1.06 0l-.5-.5a.75.75 0 1 1 1.06-1.06l.5.5a.75.75 0 0 1 0 1.06Z"/></svg>