<svg xmlns="http://www.w3.org/2000/svg" width="28" height="28"><path d="M18.75 16a.75.75 0 0 0 0 1.5h2.5a.75.75 0 0 0 0-1.5h-2.5ZM3 5.75A2.75 2.75 0 0 1 5.75 3h13.5A2.75 2.75 0 0 1 22 5.75v1.258a3.75 3.75 0 0 1 3.5 3.742v10.5A3.75 3.75 0 0 1 21.75 25H6.754a3.75 3.75 0 0 1-3.75-3.75v-10.5H3V6h.011A2.785 2.785 0 0 1 3 5.75ZM21.75 8.5H4.504v12.75a2.25 2.25 0 0 0 2.25 2.25H21.75A2.25 2.25 0 0 0 24 21.25v-10.5a2.25 2.25 0 0 0-2.25-2.25ZM20.5 5.75c0-.69-.56-1.25-1.25-1.25H5.75a1.25 1.25 0 1 0 0 2.5H20.5V5.75Z"/></svg>