<svg xmlns="http://www.w3.org/2000/svg" width="20" height="20" viewBox="0 0 20 20"><path d="m6.715 4.334-3.89 4.098A3 3 0 0 0 2 10.498V15a2 2 0 0 0 2 2h7.586c-.561-.16-1.15-.336-1.738-.523-1.382-.44-2.786-.95-3.853-1.483-.53-.265-1.003-.549-1.35-.848C4.32 13.863 4 13.478 4 13c0-.984.771-1.538 1.576-1.863.823-.333 1.898-.522 2.926-.678l.626-.094c.825-.121 1.596-.235 2.226-.396.392-.1.691-.209.896-.329.205-.12.253-.214.265-.261.014-.056.014-.157-.122-.343-.14-.192-.38-.41-.718-.66-.434-.319-.953-.634-1.506-.97-.324-.198-.66-.402-.999-.62-.868-.555-1.762-1.201-2.22-1.95a2.347 2.347 0 0 1-.235-.502ZM15.557 17l-.067-.015c-.08-.02-.197-.047-.346-.082a78.148 78.148 0 0 1-4.992-1.38c-1.368-.435-2.714-.925-3.71-1.423-.5-.25-.887-.49-1.143-.71C5.025 13.151 5 13.021 5 13c0-.334.233-.646.95-.936.7-.283 1.663-.458 2.703-.617.195-.03.394-.059.594-.088.829-.122 1.669-.246 2.354-.42.426-.11.83-.246 1.154-.436.323-.19.627-.468.73-.882.113-.45-.05-.854-.284-1.175-.231-.316-.569-.607-.934-.875-.465-.342-1.054-.701-1.638-1.057a40.82 40.82 0 0 1-.92-.57c-.882-.565-1.583-1.102-1.907-1.63-.151-.248-.2-.463-.172-.665.021-.151.091-.333.254-.547l.303-.319a2.5 2.5 0 0 1 3.626 0l5.363 5.65A3 3 0 0 1 18 10.497V15a2 2 0 0 1-2 2h-.443Z"/></svg>