<svg xmlns="http://www.w3.org/2000/svg" width="48" height="48"><path d="M23.209 6.518a17.418 17.418 0 0 1 10.175 2.709c-2 3.067-4.399 5.464-5.636 6.606-.972.896-.97 2.383-.143 3.31a10.653 10.653 0 0 1 2.605 5.466c.352-.195.71-.377 1.072-.545.413-.193.836-.371 1.269-.536a13.126 13.126 0 0 0-3-5.957c1.32-1.23 3.759-3.687 5.844-6.853a17.468 17.468 0 0 1 5.992 11.283c.855.003 1.701.047 2.527.132C42.972 11.963 34.416 4 24 4 12.954 4 4 12.954 4 24s8.954 20 20 20h.172a3.03 3.03 0 0 1 .148-.347c.39-.776.793-1.515 1.203-2.218-.502.043-1.01.065-1.523.065-4.768 0-9.09-1.907-12.247-5 0-.036-.002-.072-.005-.109-.245-2.809-.041-4.433.308-5.369.312-.84.734-1.123 1.18-1.283.268-.097.575-.157.955-.209l.363-.045c.28-.034.602-.073.874-.12.889-.157 2.048-.518 2.692-1.806.547-1.094.507-2.253.36-3.218-.074-.49-.184-.975-.287-1.414l-.04-.175c-.09-.385-.172-.73-.234-1.068-.148-.804-.127-1.276.012-1.583.103-.23.382-.604 1.415-.9 2.333-.666 3.983-1.65 4.997-2.947 1.037-1.328 1.29-2.834 1.12-4.276-.168-1.409-.74-2.787-1.387-3.992-.274-.51-.57-1.003-.867-1.468Zm-2.775.346c.492.71 1.002 1.49 1.44 2.306.579 1.076.991 2.136 1.106 3.102.11.933-.058 1.74-.608 2.443-.572.733-1.672 1.5-3.713 2.083-1.468.42-2.502 1.153-3.008 2.276-.47 1.045-.355 2.171-.19 3.063.073.401.17.812.258 1.19l.04.168c.102.439.191.839.25 1.222.119.78.078 1.318-.125 1.724-.106.212-.26.35-.888.46-.215.038-.409.061-.637.089-.15.018-.313.037-.507.064a7.11 7.11 0 0 0-1.462.332c-1.116.402-2.1 1.213-2.677 2.764-.309.828-.497 1.855-.554 3.128A17.418 17.418 0 0 1 6.5 24c0-8.443 5.98-15.49 13.934-17.136ZM44.95 24.285c-4.143-.669-9.047-.17-12.822 1.59-1.896.885-3.574 2.12-4.698 3.757-1.142 1.662-1.665 3.675-1.327 5.98a9.91 9.91 0 0 0 1.052 3.254 33.398 33.398 0 0 1 6.7-7.267 27.83 27.83 0 0 1 2.626-1.872 18.41 18.41 0 0 1 1.02-.593l.026-.014.018-.009.005-.003.004-.002a1 1 0 0 1 .898 1.788l-.009.004a5.668 5.668 0 0 0-.215.116c-.157.088-.39.223-.688.409a25.86 25.86 0 0 0-2.434 1.738 31.446 31.446 0 0 0-6.775 7.552c-.023.036-.048.07-.075.103a37.902 37.902 0 0 0-2.148 3.735 1 1 0 1 0 1.787.898 35.916 35.916 0 0 1 1.985-3.462c.87.637 1.826 1.116 2.8 1.444 1.525.515 3.123.675 4.567.501 1.428-.172 2.81-.686 3.786-1.631 1.273-1.233 2.018-2.395 2.434-3.623.405-1.198.465-2.377.503-3.524l.012-.362c.067-2.186.146-4.772 1.913-8.767a1.25 1.25 0 0 0-.944-1.74Z"/></svg>