<svg xmlns="http://www.w3.org/2000/svg" width="24" height="24"><path d="M3 11a9 9 0 0 1 18 0v6.25a.75.75 0 0 1-.75.75H3.75a.75.75 0 0 1-.75-.75V11Zm9-7.5A7.5 7.5 0 0 0 4.5 11v5.5h4.294A4.145 4.145 0 0 1 7.5 13.486c0-1.196.36-2.132.723-2.77.182-.318.364-.564.505-.733a3.796 3.796 0 0 1 .233-.256l.019-.017.006-.007.003-.002.001-.001.001-.001A.75.75 0 0 1 10 9.69l.05.044.004-.052.016-.163c.051-.522.136-1.268.473-1.939.36-.717.994-1.32 2.04-1.56a.75.75 0 0 1 .918.73c0 1.337.589 2.098 1.328 2.992l.075.09c.724.873 1.597 1.927 1.597 3.654 0 1.17-.492 2.24-1.303 3.014H19.5V11A7.5 7.5 0 0 0 12 3.5Zm-2.473 7.958A4.066 4.066 0 0 0 9 13.486c0 1.474 1.227 2.764 3.002 2.764 1.77 0 2.998-1.313 2.998-2.764 0-1.182-.563-1.863-1.324-2.784l-.004-.005c-.593-.716-1.277-1.555-1.55-2.792-.1.106-.177.224-.24.35-.198.393-.268.881-.32 1.41l-.013.132c-.02.207-.04.43-.073.62-.033.193-.105.561-.366.828a.989.989 0 0 1-.615.296 1.207 1.207 0 0 1-.579-.097 2.021 2.021 0 0 1-.29-.15 3.854 3.854 0 0 0-.1.164ZM2 20.25a.75.75 0 0 1 .75-.75h18.5a.75.75 0 0 1 0 1.5H2.75a.75.75 0 0 1-.75-.75Z"/></svg>