<svg xmlns="http://www.w3.org/2000/svg" width="28" height="28" viewBox="0 0 28 28"><path d="M21.75 3A3.25 3.25 0 0 1 25 6.25v9.8a2.512 2.512 0 0 0-1.5.158V9.503h-19V21.75c0 .966.784 1.75 1.75 1.75H14V25H6.25A3.25 3.25 0 0 1 3 21.75V6.25A3.25 3.25 0 0 1 6.25 3h15.5Zm0 1.5H6.25A1.75 1.75 0 0 0 4.5 6.25v1.753h19V6.25a1.75 1.75 0 0 0-1.75-1.75ZM20.5 14a1.5 1.5 0 0 0-1.5 1.5v10a1.5 1.5 0 0 0 3 0v-10a1.5 1.5 0 0 0-1.5-1.5Zm-4 6a1.5 1.5 0 0 0-1.5 1.5v4a1.5 1.5 0 0 0 3 0v-4a1.5 1.5 0 0 0-1.5-1.5Zm6.5-1.5a1.5 1.5 0 0 1 3 0v7a1.5 1.5 0 0 1-3 0v-7Z"/></svg>