<svg xmlns="http://www.w3.org/2000/svg" width="20" height="20" viewBox="0 0 20 20"><path d="M1.911 7.383a8.491 8.491 0 0 1 1.78-3.08.5.5 0 0 1 .54-.135l1.918.686a1 1 0 0 0 1.32-.762l.366-2.006a.5.5 0 0 1 .388-.4 8.532 8.532 0 0 1 3.554 0 .5.5 0 0 1 .388.4l.366 2.006a1 1 0 0 0 1.32.762l1.919-.686a.5.5 0 0 1 .54.136 8.491 8.491 0 0 1 1.78 3.079.5.5 0 0 1-.153.535l-1.555 1.32a1 1 0 0 0 0 1.524l1.555 1.32a.5.5 0 0 1 .152.535 8.491 8.491 0 0 1-1.78 3.08.5.5 0 0 1-.54.135l-1.918-.686a1 1 0 0 0-1.32.762l-.366 2.007a.5.5 0 0 1-.388.399 8.528 8.528 0 0 1-3.554 0 .5.5 0 0 1-.388-.4l-.366-2.006a1 1 0 0 0-1.32-.762l-1.918.686a.5.5 0 0 1-.54-.136 8.49 8.49 0 0 1-1.78-3.079.5.5 0 0 1 .152-.535l1.555-1.32a1 1 0 0 0 0-1.524l-1.555-1.32a.5.5 0 0 1-.152-.535Zm6.188.398L6.516 9.68a.5.5 0 0 0 0 .64l1.391 1.669c.1.12.284.12.384 0l.925-1.11a.25.25 0 0 0 0-.32L8.75 10l.6-.72-1.25-1.5ZM8.75 7l2.5 3-2.158 2.59a.25.25 0 0 0 .192.41h1.849a.25.25 0 0 0 .192-.09l2.158-2.59a.5.5 0 0 0 0-.64L11.25 7h-2.5Z"/></svg>