<svg xmlns="http://www.w3.org/2000/svg" width="32" height="32" viewBox="0 0 32 32"><path d="m24 5-.532-.655a3.638 3.638 0 1 0-5.457 4.804l4.958 5.192.284.318c.09.1.194.179.307.234a.929.929 0 0 0 1.111-.176l5.32-5.563a3.641 3.641 0 1 0-5.46-4.81L24 5Zm1.292 11.704a20.12 20.12 0 0 1 1.007 2.645l.489 1.614a5 5 0 0 1-.798 4.463l-1.92 2.54c-1.609 2.128-4.519 2.545-6.783 1.455-3.224-1.55-7.036-2.702-10.188-2.839a2.28 2.28 0 0 1-1.714-.88c-.418-.554-.56-1.352-.112-2.088.865-1.421 2.229-2.07 3.353-2.367L2.44 15.06a1.5 1.5 0 1 1 2.122-2.121l4.103 4.104a.621.621 0 1 0 .879-.879L3.44 10.061A1.5 1.5 0 1 1 5.561 7.94l5.977 5.977a.798.798 0 1 0 1.129-1.129L7.439 7.561A1.5 1.5 0 1 1 9.561 5.44l4.637 4.637a1.632 1.632 0 0 0 2.308 0l.104.12 5.148 5.791a3.001 3.001 0 0 0 3.534.716Zm-9.096 5.276c1.142-.228 2.088-.21 2.881.037.778.243 1.485.731 2.125 1.583a1 1 0 1 0 1.599-1.201c-.862-1.148-1.905-1.91-3.127-2.291-1.207-.377-2.512-.36-3.87-.09a1 1 0 1 0 .392 1.962ZM15.798 9a5.535 5.535 0 0 1-.324-4.147l-.913-.913a1.5 1.5 0 0 0-2.122 2.12L15.38 9h.42Z"/></svg>