<svg xmlns="http://www.w3.org/2000/svg" width="32" height="32" viewBox="0 0 32 32"><path d="M16.72 3.306A1 1 0 0 0 15 4v5a1 1 0 1 0 2 0V6.479l2.28 2.365a1 1 0 0 0 1.339.092l1.376-1.085-.944 2.833A1 1 0 0 0 22 12h3l-1.8 2.4a1 1 0 0 0 .175 1.38L26.15 18H24a1 1 0 1 0 0 2h5a1 1 0 0 0 .625-1.78l-4.244-3.395L27.8 11.6A1 1 0 0 0 27 10h-3.613l1.562-4.684a1 1 0 0 0-1.568-1.102l-3.289 2.59-3.372-3.498ZM17 23a1 1 0 1 0 0-2 1 1 0 0 0 0 2ZM7 22a1 1 0 1 1-2 0 1 1 0 0 1 2 0Zm2.75 0a1 1 0 1 0 0 2h3.5a1 1 0 1 0 0-2h-3.5ZM20 18h-1.062A3.999 3.999 0 0 1 21 21.5v6a2.5 2.5 0 0 1-2.5 2.5H17a2.5 2.5 0 0 1-2.5-2.5v-1h-6v1A2.5 2.5 0 0 1 6 30H4.5A2.5 2.5 0 0 1 2 27.5v-6c0-1.506.832-2.818 2.062-3.5H3a1 1 0 1 1 0-2h1.486l.214-1.284A3.25 3.25 0 0 1 7.906 12h7.188a3.25 3.25 0 0 1 3.206 2.716L18.514 16H20a1 1 0 1 1 0 2ZM6.673 15.044l-.41 2.456h10.473l-.409-2.456A1.25 1.25 0 0 0 15.094 14H7.906a1.25 1.25 0 0 0-1.233 1.044ZM16.5 26.5v1a.5.5 0 0 0 .5.5h1.5a.5.5 0 0 0 .5-.5v-1h-2.5ZM4 26.5v1a.5.5 0 0 0 .5.5H6a.5.5 0 0 0 .5-.5v-1H4Zm2-7a2 2 0 0 0-2 2v3h15v-3a2 2 0 0 0-2-2H6Z"/></svg>