<svg xmlns="http://www.w3.org/2000/svg" width="24" height="24" viewBox="0 0 24 24"><path d="m19.1 1.67-5.903 5.902a2.686 2.686 0 0 0-.706 1.247l-.458 1.831a1.087 1.087 0 0 0 1.319 1.318l1.83-.457a2.685 2.685 0 0 0 1.248-.707l5.902-5.902A2.286 2.286 0 0 0 19.1 1.669Zm-6.61 5.195L16.355 3H4.25l-.154.005A2.25 2.25 0 0 0 2 5.25v10.502l.005.154a2.25 2.25 0 0 0 2.245 2.096h4.249V20.5H6.75l-.102.007A.75.75 0 0 0 6.75 22h10.5l.102-.007a.75.75 0 0 0-.102-1.493h-1.751v-2.498h4.25l.154-.005a2.25 2.25 0 0 0 2.096-2.245V6.65l-4.862 4.861a3.685 3.685 0 0 1-1.712.97l-1.83.457c-1.53.383-2.914-1.002-2.532-2.53l.458-1.831c.162-.648.497-1.24.97-1.712ZM13.998 18l.001 2.499h-4l-.001-2.498h4Z"/></svg>