<svg xmlns="http://www.w3.org/2000/svg" width="28" height="28" viewBox="0 0 28 28"><path d="M27 7.5a6.5 6.5 0 1 1-13 0 6.5 6.5 0 0 1 13 0Zm-9.146-3.354a.5.5 0 0 0-.708.708L19.793 7.5l-2.647 2.646a.5.5 0 0 0 .708.708L20.5 8.207l2.646 2.647a.5.5 0 0 0 .708-.708L21.207 7.5l2.647-2.646a.5.5 0 0 0-.708-.708L20.5 6.793l-2.646-2.647ZM23.5 16.25v-1.874A7.486 7.486 0 0 0 25 13.5v2.749a4.25 4.25 0 0 1-4.25 4.25h-6v3h4.5a.75.75 0 0 1 0 1.5H8.75a.75.75 0 0 1 0-1.5h4.5v-3h-6A4.25 4.25 0 0 1 3 16.25V6.732A2 2 0 0 1 4 3h10.5a7.461 7.461 0 0 0-1.484 4H4.5v9.25A2.75 2.75 0 0 0 7.25 19h13.5a2.75 2.75 0 0 0 2.75-2.75Z"/></svg>