<svg xmlns="http://www.w3.org/2000/svg" width="20" height="20"><path d="M14 2.5c0-.175.03-.344.085-.5H3.5A1.5 1.5 0 0 0 2 3.5v10A1.5 1.5 0 0 0 3.5 15H7v2H5.5a.5.5 0 0 0 0 1h9a.5.5 0 0 0 0-1H13v-2h3.5a1.5 1.5 0 0 0 1.5-1.5V7h-2.5c-.432 0-.82-.182-1.094-.474l-.255.765A2.5 2.5 0 0 1 12 8.99v.51a1.5 1.5 0 0 1-1.5 1.5h-3A1.5 1.5 0 0 1 6 9.5v-3A1.5 1.5 0 0 1 7.5 5h3c.432 0 .82.182 1.094.474l.255-.765A2.5 2.5 0 0 1 14 3.01V2.5ZM12 15v2H8v-2h4Zm3.5-13a.5.5 0 0 0-.5.5V4h-.78a1.5 1.5 0 0 0-1.422 1.026l-.544 1.632a.5.5 0 0 1-.475.342H11v-.5a.5.5 0 0 0-.5-.5h-3a.5.5 0 0 0-.5.5v3a.5.5 0 0 0 .5.5h3a.5.5 0 0 0 .5-.5V8h.78a1.5 1.5 0 0 0 1.422-1.026l.544-1.632A.5.5 0 0 1 14.221 5H15v.5a.5.5 0 0 0 .5.5h3a.5.5 0 0 0 .5-.5v-3a.5.5 0 0 0-.5-.5h-3Z"/></svg>