<svg xmlns="http://www.w3.org/2000/svg" width="16" height="16" viewBox="0 0 16 16"><path d="M4.5 2A2.5 2.5 0 0 0 2 4.5v7A2.5 2.5 0 0 0 4.5 14h1.757a5.507 5.507 0 0 1-.657-1H4.5A1.5 1.5 0 0 1 3 11.5v-7A1.5 1.5 0 0 1 4.5 3h7A1.5 1.5 0 0 1 13 4.5v1.1c.358.183.693.404 1 .657V4.5A2.5 2.5 0 0 0 11.5 2h-7Zm6 13a4.5 4.5 0 1 0 0-9 4.5 4.5 0 0 0 0 9Zm1.854-6.354a.5.5 0 0 1 0 .708L11.207 10.5l1.147 1.146a.5.5 0 0 1-.708.708L10.5 11.207l-1.146 1.147a.5.5 0 0 1-.708-.708L9.793 10.5 8.646 9.354a.5.5 0 1 1 .708-.708L10.5 9.793l1.146-1.147a.5.5 0 0 1 .708 0Z"/></svg>