<svg xmlns="http://www.w3.org/2000/svg" width="24" height="24" viewBox="0 0 24 24"><path d="M7.747 6.19a4.296 4.296 0 0 1 3.985-2.69C14.072 3.5 16 5.396 16 7.75A4.25 4.25 0 0 1 11.75 12H3a1 1 0 1 1 0-2h8.75A2.25 2.25 0 0 0 14 7.75a2.265 2.265 0 0 0-2.268-2.25c-.936 0-1.784.571-2.128 1.433l-.176.438a1 1 0 0 1-1.856-.742l.175-.439Zm8.054 5.494a3.192 3.192 0 0 1 3.02-2.184A3.18 3.18 0 0 1 22 12.68v.07A3.25 3.25 0 0 1 18.75 16h-1c.161.385.25.807.25 1.25v.07a3.18 3.18 0 0 1-3.18 3.18 3.192 3.192 0 0 1-3.019-2.184 1 1 0 0 1 1.898-.632c.162.487.62.816 1.122.816A1.18 1.18 0 0 0 16 17.32v-.07c0-.69-.56-1.25-1.25-1.25H3a1 1 0 1 1 0-2h15.75c.69 0 1.25-.56 1.25-1.25v-.07a1.18 1.18 0 0 0-1.18-1.18c-.501 0-.959.33-1.121.816a1 1 0 0 1-1.898-.632Z"/></svg>