<svg xmlns="http://www.w3.org/2000/svg" width="24" height="24" viewBox="0 0 24 24"><path d="M12 2c5.523 0 10 4.477 10 10 0 .263-.01.523-.03.78a6.518 6.518 0 0 0-1.474-1.05 8.5 8.5 0 1 0-15.923 4.407l.15.27-1.112 3.984 3.987-1.112.27.15a8.449 8.449 0 0 0 3.862 1.067c.281.54.636 1.036 1.05 1.474a9.96 9.96 0 0 1-5.368-1.082l-3.825 1.067a1.25 1.25 0 0 1-1.54-1.54l1.068-3.823A9.96 9.96 0 0 1 2 12C2 6.477 6.477 2 12 2Zm11 15.5a5.5 5.5 0 1 0-11 0 5.5 5.5 0 0 0 11 0Zm-5 .5.001 2.503a.5.5 0 1 1-1 0V18h-2.505a.5.5 0 0 1 0-1H17v-2.5a.5.5 0 1 1 1 0V17h2.497a.5.5 0 0 1 0 1H18Z"/></svg>