<svg xmlns="http://www.w3.org/2000/svg" width="24" height="24" viewBox="0 0 24 24"><path d="M12.75 15.58V8.42l1.002.89a.75.75 0 0 0 .996-1.12l-2.25-2a.75.75 0 0 0-.996 0l-2.25 2a.75.75 0 1 0 .996 1.12l1.002-.89v7.16l-1.002-.89a.75.75 0 1 0-.996 1.12l2.25 2 .012.011a.747.747 0 0 0 .987-.013l2.247-1.997a.75.75 0 0 0-.996-1.121l-1.002.89Zm5 5.42A3.25 3.25 0 0 0 21 17.75V6.25A3.25 3.25 0 0 0 17.75 3H6.25A3.25 3.25 0 0 0 3 6.25v11.5A3.25 3.25 0 0 0 6.25 21h11.5Zm1.75-3.25a1.75 1.75 0 0 1-1.75 1.75H6.25a1.75 1.75 0 0 1-1.75-1.75v-.25h5.147l-1.06-.942A1.746 1.746 0 0 1 8.168 16H4.5V8h3.668c.098-.206.238-.397.42-.558l1.06-.942H4.5v-.25c0-.966.784-1.75 1.75-1.75h11.5c.966 0 1.75.784 1.75 1.75v.25h-5.147l1.06.942c.181.161.32.352.419.558H19.5v8h-3.668a1.745 1.745 0 0 1-.42.558l-1.06.942H19.5v.25Z"/></svg>