<svg xmlns="http://www.w3.org/2000/svg" width="24" height="24"><path d="M15.648 2.007 15.75 2a.75.75 0 0 1 .743.648l.007.102v8.327a6.452 6.452 0 0 0-1.5.421V5.5H9.25a.75.75 0 0 0-.75.75v11.496c0 .415.336.75.75.75h1.826c.08.524.223 1.026.42 1.5H9.25A2.25 2.25 0 0 1 7 17.746V6.25A2.25 2.25 0 0 1 9.25 4L15 3.999V2.75a.75.75 0 0 1 .648-.743Z"/><path d="M23 17.5a5.5 5.5 0 1 1-11 0 5.5 5.5 0 0 1 11 0Zm-8.5-.5a.5.5 0 0 0 0 1h4.793l-1.647 1.647a.5.5 0 0 0 .708.707l2.5-2.5a.5.5 0 0 0 0-.707l-2.5-2.5a.5.5 0 0 0-.708.707L19.293 17H14.5Z"/></svg>