<svg xmlns="http://www.w3.org/2000/svg" width="24" height="24" viewBox="0 0 24 24"><path d="M9.042 19.003h5.916a3 3 0 0 1-5.916 0Zm2.958-17a7.5 7.5 0 0 1 7.5 7.5v4l1.418 3.16A.95.95 0 0 1 20.052 18h-16.1a.95.95 0 0 1-.867-1.338l1.415-3.16V9.49l.005-.25A7.5 7.5 0 0 1 12 2.004ZM23 8.25a.75.75 0 0 1 .102 1.493L23 9.75h-2a.75.75 0 0 1-.102-1.493L21 8.25h2Zm-20 0a.75.75 0 0 1 .102 1.493L3 9.75H1a.75.75 0 0 1-.102-1.493L1 8.25h2Zm19.6-5.7a.75.75 0 0 1-.066.977l-.084.073-2 1.5a.75.75 0 0 1-.984-1.127l.084-.073 2-1.5a.75.75 0 0 1 1.05.15ZM2.45 2.4l2 1.5a.75.75 0 1 1-.9 1.2l-2-1.5a.75.75 0 1 1 .9-1.2Z"/></svg>