<svg xmlns="http://www.w3.org/2000/svg" width="32" height="32"><path d="M7.5 3A4.5 4.5 0 0 0 3 7.5v17A4.5 4.5 0 0 0 7.5 29h9.467a9.208 9.208 0 0 1-1.414-2H7.5A2.5 2.5 0 0 1 5 24.5V11h22v4.818c.65.24 1.317.43 2 .567V7.5A4.5 4.5 0 0 0 24.5 3h-17ZM29 17.913c.19.034.38.065.57.092a.5.5 0 0 1 .43.495v4.033c0 3.892-2.307 6.731-6.82 8.467a.5.5 0 0 1-.36 0c-1.442-.555-2.658-1.222-3.646-2a8.714 8.714 0 0 1-1.88-2C16.435 25.712 16 24.222 16 22.533V18.5a.5.5 0 0 1 .43-.495 15.05 15.05 0 0 0 6.293-2.421.5.5 0 0 1 .554 0A15.291 15.291 0 0 0 27 17.406a14.96 14.96 0 0 0 2 .507ZM5 7.5A2.5 2.5 0 0 1 7.5 5h17A2.5 2.5 0 0 1 27 7.5V9H5V7.5Z"/></svg>