<svg xmlns="http://www.w3.org/2000/svg" width="20" height="20"><path d="M9 2a4 4 0 1 0 0 8 4 4 0 0 0 0-8ZM6 6a3 3 0 1 1 6 0 3 3 0 0 1-6 0Zm-1.991 5A2.001 2.001 0 0 0 2 13c0 1.691.833 2.966 2.135 3.797C5.417 17.614 7.145 18 9 18c.41 0 .816-.019 1.21-.057a5.501 5.501 0 0 1-.618-.958C9.398 16.995 9.2 17 9 17c-1.735 0-3.257-.364-4.327-1.047C3.623 15.283 3 14.31 3 13c0-.553.448-1 1.009-1h5.59c.184-.358.405-.693.658-1H4.01ZM14.5 19a4.5 4.5 0 1 1 0-9 4.5 4.5 0 0 1 0 9Zm.624-1.995a.625.625 0 1 0-1.249 0 .625.625 0 0 0 1.25 0Zm1.23-3.552c0-1.104-.823-1.95-1.854-1.95-1.048 0-1.864.818-1.853 1.955a.5.5 0 1 0 1-.01c-.006-.579.36-.945.853-.945.472 0 .853.392.853.95 0 .202-.07.315-.36.544l-.277.215c-.506.404-.716.717-.716 1.288a.5.5 0 0 0 .992.09l.011-.156c.017-.148.1-.254.346-.448l.277-.215c.513-.41.727-.732.727-1.318Z"/></svg>