<svg xmlns="http://www.w3.org/2000/svg" width="16" height="16"><path d="M13.5 1A1.499 1.499 0 0 1 15 2.5v3c0 .66-.26 1.3-.73 1.77S13.16 8 12.5 8c-.66 0-1.3-.26-1.77-.73S10 6.16 10 5.5v-3A1.499 1.499 0 0 1 11.5 1h2Zm-.65 2.85c.1-.09.15-.22.15-.35V2h-1v1.5c0 .13.05.26.15.35.09.1.22.15.35.15.13 0 .26-.05.35-.15ZM12.5 9c.936 0 1.815-.364 2.475-1.025l.013-.015A.242.242 0 0 1 15 7.944v3.306A1.75 1.75 0 0 1 13.25 13H2.75A1.75 1.75 0 0 1 1 11.25v-6.5C1 3.784 1.784 3 2.75 3H9v2.5c0 .934.364 1.813 1.025 2.474A3.472 3.472 0 0 0 12.5 9ZM9 8.25a.75.75 0 1 0-1.5 0 .75.75 0 0 0 1.5 0Zm-2-2a.75.75 0 1 0-1.5 0 .75.75 0 0 0 1.5 0Zm-1 2a.75.75 0 1 0-1.5 0 .75.75 0 0 0 1.5 0ZM3.25 5.5a.75.75 0 1 0 0 1.5.75.75 0 0 0 0-1.5ZM3.5 11h9a.5.5 0 0 0 0-1h-9a.5.5 0 0 0 0 1Z"/></svg>