<svg xmlns="http://www.w3.org/2000/svg" width="20" height="20" viewBox="0 0 20 20"><path d="M7.085 4H5.5a.5.5 0 0 0-.5.5v12a.5.5 0 0 0 .5.5h9a.5.5 0 0 0 .5-.5v-12a.5.5 0 0 0-.5-.5h-1.585A1.5 1.5 0 0 1 11.5 5h-3a1.5 1.5 0 0 1-1.415-1Zm5.83-1H14.5A1.5 1.5 0 0 1 16 4.5v12a1.5 1.5 0 0 1-1.5 1.5h-9A1.5 1.5 0 0 1 4 16.5v-12A1.5 1.5 0 0 1 5.5 3h1.585A1.5 1.5 0 0 1 8.5 2h3a1.5 1.5 0 0 1 1.415 1ZM8 3.5a.5.5 0 0 0 .5.5h3a.5.5 0 0 0 0-1h-3a.5.5 0 0 0-.5.5ZM9 8a1 1 0 1 1 2 0 1 1 0 0 1-2 0Zm1-2a2 2 0 1 0 0 4 2 2 0 0 0 0-4Zm-2.474 6.196a.15.15 0 0 1 .048-.125A.249.249 0 0 1 7.75 12h4.5a.25.25 0 0 1 .176.071.15.15 0 0 1 .047.125c-.048.455-.179.886-.498 1.206-.312.313-.882.598-1.975.598s-1.663-.285-1.975-.598c-.32-.32-.45-.751-.499-1.206ZM7.75 11c-.664 0-1.298.55-1.218 1.302.06.56.235 1.254.784 1.806.557.558 1.418.892 2.684.892 1.266 0 2.127-.334 2.684-.892.55-.552.725-1.247.784-1.806.08-.752-.553-1.302-1.218-1.302h-4.5Z"/></svg>