<svg xmlns="http://www.w3.org/2000/svg" width="20" height="20" viewBox="0 0 20 20"><path d="M8.5 3A2.5 2.5 0 0 0 6 5.5v4a2.5 2.5 0 0 0 5 0v-4A2.5 2.5 0 0 0 8.5 3Zm-1 2.5a1 1 0 0 1 2 0v4a1 1 0 1 1-2 0v-4ZM3 12a1 1 0 1 0 0-2 1 1 0 0 0 0 2Zm12.5-9A2.5 2.5 0 0 0 13 5.5v3.707A5.5 5.5 0 0 1 14.5 9V5.5a1 1 0 1 1 2 0v3.875c.51.2.983.472 1.406.806.061-.216.094-.445.094-.681v-4A2.5 2.5 0 0 0 15.5 3Zm-1 16a4.5 4.5 0 1 1 0-9 4.5 4.5 0 0 1 0 9Zm-2.353-4.854-.003.003a.499.499 0 0 0-.144.348v.006a.5.5 0 0 0 .146.35l2 2a.5.5 0 0 0 .708-.707L13.707 15H16.5a.5.5 0 0 0 0-1h-2.793l1.147-1.146a.5.5 0 0 0-.708-.708l-2 2Z"/></svg>