<svg xmlns="http://www.w3.org/2000/svg" width="24" height="24" viewBox="0 0 24 24"><path d="M10.997 5.998a6.14 6.14 0 0 1 5.8 4.126l.075.233.044.144h2.33a2.749 2.749 0 0 1 2.744 2.582l.005.167v1a1.75 1.75 0 0 1-1.606 1.743l-.143.005H18.62l.241.584a1.75 1.75 0 0 1-.813 2.22l-.137.064a1.749 1.749 0 0 1-.496.124l-.171.008h-1.787a1.75 1.75 0 0 1-1.51-.867l-.072-.137-.539-1.143.054-.007c-1.4.186-2.817.208-4.221.066l-.497-.057-.535 1.136a1.75 1.75 0 0 1-1.583 1.005H4.75a1.749 1.749 0 0 1-1.618-2.415l.433-1.05a3.242 3.242 0 0 1-1.57-2.78.75.75 0 0 1 .648-.742L2.745 12h1.88l.497-1.643a6.137 6.137 0 0 1 5.875-4.359Zm6.777 9.693c-.771.31-1.559.565-2.356.765l-.549.129.362.77a.25.25 0 0 0 .117.119l.053.018.056.007h1.787a.25.25 0 0 0 .248-.28l-.017-.065-.478-1.156h-.043l.411-.148.409-.159Zm-13.552 0 .39.152.388.141-.482 1.166a.25.25 0 0 0 .232.345h1.804l.057-.007a.25.25 0 0 0 .17-.137l.359-.763.044.01a18.168 18.168 0 0 1-2.962-.906Zm-.202-1.694.151-.5-.507.002.025.052c.086.166.198.316.33.446ZM17.37 12l.756 2.498 2.12.001a.25.25 0 0 0 .243-.192l.007-.058v-.999a1.25 1.25 0 0 0-1.122-1.243l-.128-.006H17.37Z"/></svg>