<svg xmlns="http://www.w3.org/2000/svg" width="28" height="28"><path d="M17 12.25a.75.75 0 0 1 .75-.75h3.5a.75.75 0 0 1 0 1.5h-3.5a.75.75 0 0 1-.75-.75Zm.75 2.75a.75.75 0 1 0 0 1.5h3.5a.75.75 0 0 0 0-1.5h-3.5ZM15 12a1.5 1.5 0 1 1-3 0 1.5 1.5 0 0 1 3 0Zm-8 2.5a1 1 0 0 0-1 1v1s0 2 2.75 2 2.75-2 2.75-2v-1a1 1 0 0 0-1-1H7Zm3.5-2.75a1.75 1.75 0 1 1-3.5 0 1.75 1.75 0 0 1 3.5 0Zm3 5.75h-1.215a3.037 3.037 0 0 0 .205-.816c.004-.046.007-.085.008-.116v-.013h.002V15.5c0-.364-.098-.706-.268-1H14.5a1 1 0 0 1 1 1 2 2 0 0 1-2 2ZM2.004 7.75A3.75 3.75 0 0 1 5.754 4H22.25A3.75 3.75 0 0 1 26 7.75v12.5A3.75 3.75 0 0 1 22.25 24H5.755a3.75 3.75 0 0 1-3.75-3.75V7.75Zm3.75-2.25a2.25 2.25 0 0 0-2.25 2.25v12.5a2.25 2.25 0 0 0 2.25 2.25H22.25a2.25 2.25 0 0 0 2.25-2.25V7.75a2.25 2.25 0 0 0-2.25-2.25H5.755Z"/></svg>