<svg xmlns="http://www.w3.org/2000/svg" width="24" height="24" viewBox="0 0 24 24"><path d="M14 6a4 4 0 0 1 8-.013v.764a.75.75 0 0 1-1.5 0V4a.5.5 0 0 0-1 0 2.5 2.5 0 1 0 .302 3.733A1.75 1.75 0 0 0 23 6.75V6a5 5 0 1 0-5 5c1.025 0 1.98-.3 2.778-.835a.5.5 0 0 0-.556-.83A3.966 3.966 0 0 1 18 10a4 4 0 0 1-4-4Zm4 1.5a1.5 1.5 0 1 1 0-3 1.5 1.5 0 0 1 0 3ZM5.25 3h7.553A6 6 0 0 0 22 10.473v4.278A3.25 3.25 0 0 1 18.75 18H13l-5 3.75c-.824.619-2 .03-2-1V18h-.75A3.25 3.25 0 0 1 2 14.75v-8.5A3.25 3.25 0 0 1 5.25 3Z"/></svg>