<svg xmlns="http://www.w3.org/2000/svg" width="16" height="16" viewBox="0 0 16 16"><path d="M5.5 5.5A.5.5 0 0 1 6 5h4a.5.5 0 0 1 .405.206c-.441.173-.83.447-1.141.794H6a.5.5 0 0 1-.5-.5Zm3 2.5H6a.5.5 0 0 0 0 1h2.67c-.11-.313-.17-.65-.17-1Zm-1.092 6H4.5a.5.5 0 0 1-.5-.5v-10a.5.5 0 0 1 .5-.5h7a.5.5 0 0 1 .5.5v1.541c.359.06.696.185 1 .36V3.5A1.5 1.5 0 0 0 11.5 2v-.5a.5.5 0 0 0-1 0V2h-2v-.5a.5.5 0 0 0-1 0V2h-2v-.5a.5.5 0 0 0-1 0V2A1.5 1.5 0 0 0 3 3.5v10A1.5 1.5 0 0 0 4.5 15h3.586c.04 0 .078-.002.118-.005A3.526 3.526 0 0 1 7.408 14Zm1.802.497A2.49 2.49 0 0 1 8 12.376c0-.673.531-1.224 1.21-1.283.038-.003.078-.005.118-.005h4.344c.733 0 1.328.577 1.328 1.288 0 1.149-.807 2.151-1.958 2.43l-.083.02a6.205 6.205 0 0 1-2.918 0l-.083-.02a2.627 2.627 0 0 1-.748-.309ZM13 9.323A2 2 0 0 1 9.5 8 2 2 0 1 1 13 9.323ZM5.5 11.5A.5.5 0 0 1 6 11h.5a.5.5 0 0 1 0 1H6a.5.5 0 0 1-.5-.5Z"/></svg>