<svg xmlns="http://www.w3.org/2000/svg" width="20" height="20"><path d="M9.314 2.036a.5.5 0 0 1 .344-.01l6 2a.5.5 0 0 1 .068.92l-.005.002-.02.01-.078.043a9.676 9.676 0 0 0-1.207.785 5.75 5.75 0 0 0-.937.876c-.22.267-.374.529-.45.777l1.859 3.719 1.999 1.332A2.5 2.5 0 0 1 18 14.57v1.93a.5.5 0 0 1-.477.5l-.023-.5.023.5h-.038a12.791 12.791 0 0 1-.47.004 21.978 21.978 0 0 1-5.653-.837c-3.326-.958-7.23-3.025-9.314-7.454a.5.5 0 0 1 .005-.437c.643-1.285 1.825-2.587 3.139-3.685 1.318-1.1 2.813-2.032 4.122-2.555ZM17 16.005v-.54c-7.413-.598-11.411-4.195-13.55-7.58a7.08 7.08 0 0 0-.39.625c1.94 3.919 5.463 5.798 8.579 6.697a20.971 20.971 0 0 0 5.361.798Zm-.668-2.683-1.65-1.1-.923 1.726c.992.24 2.069.415 3.237.514a1.5 1.5 0 0 0-.664-1.14ZM12.145 7.91l-1.584-.528 1.876 3.376a.5.5 0 0 1-.071.584l-1.52 1.633c.599.263 1.239.5 1.922.706l1.17-2.188-1.793-3.583Zm.032-1.044a3.62 3.62 0 0 1 .531-.84 6.776 6.776 0 0 1 1.1-1.033 9.04 9.04 0 0 1 .503-.361L9.518 3.033C8.405 3.504 7.125 4.3 5.96 5.253l1.894 1.893a.5.5 0 0 1 .141.425l-.485 3.394c.703.563 1.496 1.09 2.391 1.556l1.486-1.596-2.324-4.182a.5.5 0 0 1 .595-.717l2.52.84Zm-6.973-.954c-.398.368-.769.749-1.1 1.132a14.816 14.816 0 0 0 2.508 3.139l.358-2.505L5.204 5.91Z"/></svg>