<svg xmlns="http://www.w3.org/2000/svg" width="32" height="32"><path d="m22.55 23.964 5.743 5.743a1 1 0 0 0 1.414-1.414l-26-26a1 1 0 0 0-1.414 1.414L4.536 5.95A4.5 4.5 0 0 0 2 10v12a4.5 4.5 0 0 0 4.5 4.5h12a4.5 4.5 0 0 0 4.05-2.536Zm-1.58-1.58A2.5 2.5 0 0 1 18.5 24.5h-12A2.5 2.5 0 0 1 4 22V10a2.5 2.5 0 0 1 2.115-2.47l14.856 14.855ZM21 10v7.465l6.14 6.139.06.046c1.154.865 2.8.042 2.8-1.4V9.75c0-1.443-1.646-2.266-2.8-1.4L23 11.5V10a4.5 4.5 0 0 0-4.5-4.5H9.035l2 2H18.5A2.5 2.5 0 0 1 21 10Zm2 4 5-3.75v11.5L23 18v-4Z"/></svg>