<svg xmlns="http://www.w3.org/2000/svg" width="24" height="24" viewBox="0 0 24 24"><path d="M12.023 14A6.47 6.47 0 0 0 11 17.5c0 1.63.6 3.12 1.592 4.262-.795.16-1.66.24-2.592.24-3.42 0-5.944-1.073-7.486-3.237a2.75 2.75 0 0 1-.51-1.596v-.92A2.249 2.249 0 0 1 4.253 14h7.77Zm5.477-2a5.5 5.5 0 1 1 0 11 5.5 5.5 0 0 1 0-11Zm0 7.751a.625.625 0 1 0 0 1.25.625.625 0 0 0 0-1.25Zm0-5.877c-1.047 0-1.864.818-1.853 1.955a.5.5 0 0 0 1-.01c-.006-.579.36-.945.853-.945.473 0 .854.392.854.95 0 .192-.055.342-.224.561l-.094.116-.1.113-.264.29-.137.158c-.383.456-.535.792-.535 1.31a.5.5 0 1 0 1 0c0-.203.059-.36.24-.59l.084-.105.101-.115.266-.29.135-.156c.378-.45.528-.783.528-1.292 0-1.104-.822-1.95-1.854-1.95ZM10 2.004a5 5 0 1 1 0 10 5 5 0 0 1 0-10Z"/></svg>