<svg xmlns="http://www.w3.org/2000/svg" width="24" height="24" viewBox="0 0 24 24"><path d="M5.17 2a2.25 2.25 0 0 0-2.247 2.129l-.838 15.5A2.25 2.25 0 0 0 4.332 22h2.834a2.25 2.25 0 0 0 2.246-2.371l-.838-15.5A2.25 2.25 0 0 0 6.328 2H5.17Zm-.75 2.21a.75.75 0 0 1 .749-.71h1.158a.75.75 0 0 1 .749.71l.837 15.5a.75.75 0 0 1-.748.79H4.332a.75.75 0 0 1-.749-.79l.838-15.5ZM9.511 22c.395-.412.683-.928.818-1.5h1.17v-4.25c0-.966.783-1.75 1.75-1.75h4c.966 0 1.75.784 1.75 1.75v4.25h.75a.75.75 0 0 0 .75-.75V7.713l-5.241 4.838a.75.75 0 0 1-1.26-.551V7.713l-4.027 3.718-.105-1.944 4.374-4.038A.75.75 0 0 1 15.5 6v4.287l5.241-4.838A.75.75 0 0 1 22 6v13.75A2.25 2.25 0 0 1 19.75 22H9.51Zm3.488-5.75v4.25h4.5v-4.25a.25.25 0 0 0-.25-.25h-4a.25.25 0 0 0-.25.25Z"/></svg>