<svg xmlns="http://www.w3.org/2000/svg" width="24" height="24"><path d="M16.755 14c.78 0 1.467.397 1.87 1h-2.871a4.75 4.75 0 0 0-4.19 6.99A15.6 15.6 0 0 1 11 22c-3.42 0-5.944-1.072-7.486-3.236a2.75 2.75 0 0 1-.51-1.596v-.92A2.249 2.249 0 0 1 5.253 14h11.502ZM11 2.003a5 5 0 1 1 0 10 5 5 0 0 1 0-10ZM23 19.75A3.75 3.75 0 0 0 19.25 16l-.102.007a.75.75 0 0 0 .102 1.493l.154.005A2.25 2.25 0 0 1 19.25 22l-.003.005-.102.007a.75.75 0 0 0 .108 1.493V23.5l.2-.005A3.75 3.75 0 0 0 23 19.75Zm-6.5-3a.75.75 0 0 0-.75-.75l-.2.005a3.75 3.75 0 0 0 .2 7.495l.102-.007A.75.75 0 0 0 15.75 22l-.154-.005a2.25 2.25 0 0 1 .154-4.495l.102-.007a.75.75 0 0 0 .648-.743Zm3.5 3a.75.75 0 0 0-.75-.75h-3.5l-.102.007a.75.75 0 0 0 .102 1.493h3.5l.102-.007A.75.75 0 0 0 20 19.75Z"/></svg>