<svg xmlns="http://www.w3.org/2000/svg" width="24" height="24"><path d="M8.94 10 2.22 3.28a.75.75 0 1 1 1.06-1.06l18.5 18.5a.75.75 0 0 1-1.06 1.06L14 15.061l-4.998 5a3.106 3.106 0 0 1-1.477.825L2.924 21.98a.75.75 0 0 1-.904-.903l1.096-4.602c.133-.559.419-1.07.825-1.476l4.999-5Zm4 4L10 11.062l-4.998 5c-.21.21-.358.474-.427.763l-.813 3.415 3.416-.813c.289-.069.553-.216.763-.426l4.999-5Zm5-5-2.88 2.88 1.061 1.06 4.831-4.831a3.578 3.578 0 0 0-5.06-5.06l-4.831 4.83 1.06 1.06L15 6.062 17.94 9Zm-.988-4.891a2.078 2.078 0 1 1 2.94 2.939L19 7.939 16.06 5l.892-.891Z"/></svg>