<svg xmlns="http://www.w3.org/2000/svg" width="24" height="24" viewBox="0 0 24 24"><path d="M11.55 3.5a4.11 4.11 0 0 0-4.03 3.304 1 1 0 0 0 1.96.392A2.11 2.11 0 0 1 11.55 5.5h.2a2.25 2.25 0 0 1 0 4.5H3a1 1 0 1 0 0 2h8.75a4.25 4.25 0 0 0 0-8.5h-.2Zm7.27 6a3.192 3.192 0 0 0-3.019 2.184 1 1 0 0 0 1.898.632c.162-.487.62-.816 1.122-.816.65 0 1.179.528 1.179 1.18v.07c0 .69-.56 1.25-1.25 1.25H3a1 1 0 1 0 0 2h11.75c.69 0 1.25.56 1.25 1.25v.07a1.18 1.18 0 0 1-1.18 1.18c-.501 0-.959-.33-1.121-.816a1 1 0 0 0-1.898.632 3.192 3.192 0 0 0 3.02 2.184A3.18 3.18 0 0 0 18 17.32v-.07a3.24 3.24 0 0 0-.25-1.25h1A3.25 3.25 0 0 0 22 12.75v-.07a3.18 3.18 0 0 0-3.18-3.18ZM4 6.25a1.25 1.25 0 1 0 0-2.5 1.25 1.25 0 0 0 0 2.5ZM10.25 20a1.25 1.25 0 1 1-2.5 0 1.25 1.25 0 0 1 2.5 0ZM19 7.25a1.25 1.25 0 1 0 0-2.5 1.25 1.25 0 0 0 0 2.5Z"/></svg>