<svg xmlns="http://www.w3.org/2000/svg" width="28" height="28" viewBox="0 0 28 28"><path d="M7.75 3a3.247 3.247 0 0 0-3.247 3.247V11c0 .518-.012.844-.172 1.164-.153.305-.501.707-1.416 1.165a.75.75 0 0 0 0 1.342c.912.456 1.245.85 1.4 1.201.175.4.188.87.188 1.693v4.188A3.247 3.247 0 0 0 7.75 25a.75.75 0 0 0 0-1.5 1.747 1.747 0 0 1-1.747-1.747v-4.26c0-.723 0-1.506-.315-2.224-.211-.481-.542-.895-1.014-1.267.463-.359.786-.744.998-1.166.331-.661.33-1.316.33-1.795V6.247c0-.965.783-1.747 1.748-1.747a.75.75 0 0 0 0-1.5Zm12.5 0a3.247 3.247 0 0 1 3.247 3.247V11c0 .518.012.844.172 1.164.153.305.501.707 1.416 1.165a.75.75 0 0 1 0 1.342c-.912.456-1.245.85-1.4 1.201-.175.4-.188.87-.188 1.693v4.188A3.247 3.247 0 0 1 20.25 25a.75.75 0 0 1 0-1.5c.965 0 1.747-.782 1.747-1.747v-4.26c0-.723 0-1.506.315-2.224.211-.481.542-.895 1.014-1.267-.463-.359-.787-.744-.998-1.166-.331-.661-.33-1.316-.33-1.795V6.247c0-.965-.783-1.747-1.748-1.747a.75.75 0 0 1 0-1.5Z"/></svg>