<svg xmlns="http://www.w3.org/2000/svg" width="28" height="28" viewBox="0 0 28 28"><path d="M13.56 2.142a.75.75 0 0 1 .878 0c.643.464 2.088 1.312 3.897 2.041 1.81.73 3.922 1.317 5.913 1.317a.75.75 0 0 1 .75.75v7.752c0 .162-.005.324-.015.485a7.494 7.494 0 0 0-1.485-.864V6.977c-2.014-.124-4.032-.72-5.724-1.403-1.589-.64-2.934-1.375-3.775-1.918-.84.543-2.186 1.278-3.774 1.918-1.693.683-3.71 1.28-5.725 1.403v7.025c0 2.47 1.408 4.923 3.391 6.882C9.83 22.8 12.193 24.118 14 24.474l.123-.026a7.56 7.56 0 0 0 1.006 1.286 8.372 8.372 0 0 1-1 .242l-.13.022-.128-.022c-2.205-.385-4.9-1.917-7.033-4.024C4.703 19.843 3 17.029 3 14.002V6.25a.75.75 0 0 1 .75-.75c1.991 0 4.103-.587 5.914-1.317 1.808-.73 3.253-1.577 3.896-2.04ZM27 20.5a6.5 6.5 0 1 1-13 0 6.5 6.5 0 0 1 13 0Zm-2.646-2.854a.5.5 0 0 0-.708 0L19 22.293l-1.646-1.647a.5.5 0 0 0-.708.708l2 2a.5.5 0 0 0 .708 0l5-5a.5.5 0 0 0 0-.708Z"/></svg>