<svg xmlns="http://www.w3.org/2000/svg" width="24" height="24"><path d="M21 18.25A2.75 2.75 0 0 1 18.25 21H5.75A2.75 2.75 0 0 1 3 18.25V5.75A2.75 2.75 0 0 1 5.75 3h12.5A2.75 2.75 0 0 1 21 5.75v12.5Zm-1.5 0V5.75c0-.69-.56-1.25-1.25-1.25H5.75c-.69 0-1.25.56-1.25 1.25v12.5c0 .69.56 1.25 1.25 1.25h12.5c.69 0 1.25-.56 1.25-1.25Zm-7-4v-7.5l-.007-.102A.75.75 0 0 0 11 6.75v7.5l.007.102a.75.75 0 0 0 1.493-.102Zm-4-7.5v10.5a.75.75 0 0 1-1.493.102L7 17.25V6.75a.75.75 0 0 1 1.493-.102l.007.102Zm8 10.5V6.75l-.007-.102A.75.75 0 0 0 15 6.75v10.5l.007.102a.75.75 0 0 0 1.493-.102Z"/></svg>