<svg xmlns="http://www.w3.org/2000/svg" width="24" height="24" viewBox="0 0 24 24"><path d="M8 7.752v5.497a.75.75 0 0 0 1.155.631l4.618-2.959a.5.5 0 0 0 0-.842L9.155 7.12A.75.75 0 0 0 8 7.752ZM5.25 3A3.25 3.25 0 0 0 2 6.25v9a3.25 3.25 0 0 0 3.25 3.25h10.5A3.25 3.25 0 0 0 19 15.25v-9A3.25 3.25 0 0 0 15.75 3H5.25ZM3.5 6.25c0-.966.784-1.75 1.75-1.75h10.5c.966 0 1.75.784 1.75 1.75v9A1.75 1.75 0 0 1 15.75 17H5.25a1.75 1.75 0 0 1-1.75-1.75v-9ZM5.01 19.5A3.247 3.247 0 0 0 7.75 21h8.5c2.9 0 5.25-2.35 5.25-5.25v-7A3.25 3.25 0 0 0 20 6.01v9.74a3.75 3.75 0 0 1-3.75 3.75H5.01Z"/></svg>