<svg xmlns="http://www.w3.org/2000/svg" width="24" height="24"><path d="M12 8V2H6a2 2 0 0 0-2 2v10.559a4.78 4.78 0 0 1 .75-.059h3.5c1.138 0 2.182.4 3 1.067V12.75a.75.75 0 0 1 1.5 0v4.975c.162.479.25.992.25 1.525a4.728 4.728 0 0 1-.877 2.75H18a2 2 0 0 0 2-2V10h-6a2 2 0 0 1-2-2Zm3.25 6a.75.75 0 0 1 .75.75v3.5a.75.75 0 0 1-1.5 0v-3.5a.75.75 0 0 1 .75-.75ZM13.5 8V2.5l6 6H14a.5.5 0 0 1-.5-.5ZM12 19.25a3.75 3.75 0 0 0-3.75-3.75l-.102.007A.75.75 0 0 0 8.25 17l.154.005A2.25 2.25 0 0 1 8.25 21.5l-.003.005-.102.007a.75.75 0 0 0 .108 1.493V23l.2-.005A3.75 3.75 0 0 0 12 19.25Zm-6.5-3a.75.75 0 0 0-.75-.75l-.2.005A3.75 3.75 0 0 0 4.75 23l.102-.007A.75.75 0 0 0 4.75 21.5l-.154-.005A2.25 2.25 0 0 1 4.75 17l.102-.007a.75.75 0 0 0 .648-.743Zm3.5 3a.75.75 0 0 0-.75-.75h-3.5l-.102.007A.75.75 0 0 0 4.75 20h3.5l.102-.007A.75.75 0 0 0 9 19.25Z"/></svg>