<svg xmlns="http://www.w3.org/2000/svg" width="24" height="24"><path d="M14.777 2.451a3.74 3.74 0 0 1 1.784 2.14l.515 1.909H11.25l-.198.005h-.014A3.75 3.75 0 0 0 7.5 10.25v7.5l.005.198v.014c.015.25.053.491.113.725a3.744 3.744 0 0 1-1.707-.45 3.74 3.74 0 0 1-1.785-2.14L2.13 8.663a3.737 3.737 0 0 1 .32-2.753 3.74 3.74 0 0 1 2.14-1.785l7.434-1.997a3.737 3.737 0 0 1 2.752.322ZM11.257 7.5l-.17.005A2.75 2.75 0 0 0 8.5 10.25v7.493l.005.17A2.75 2.75 0 0 0 11.25 20.5h.482a6.5 6.5 0 0 1 9.768-8.124v-2.119l-.005-.17A2.75 2.75 0 0 0 18.75 7.5h-7.493ZM23 17.5a5.5 5.5 0 1 0-11 0 5.5 5.5 0 0 0 11 0Zm-5.59-3.493L17.5 14l.09.008a.5.5 0 0 1 .402.402l.008.09V17l2.505.001.09.008a.5.5 0 0 1 .402.402l.008.09-.008.09a.5.5 0 0 1-.403.402l-.09.008h-2.503v2.503l-.008.09a.5.5 0 0 1-.402.402l-.09.008-.09-.008a.5.5 0 0 1-.402-.402l-.008-.09V18h-2.503l-.09-.008a.5.5 0 0 1-.402-.402l-.008-.09.008-.09a.5.5 0 0 1 .402-.402l.09-.008H17v-2.5l.008-.09a.5.5 0 0 1 .402-.403Z"/></svg>