<svg xmlns="http://www.w3.org/2000/svg" width="16" height="16"><path d="m11.647 12.354 2.5 2.5a.5.5 0 0 0 .707-.708l-13-13a.5.5 0 1 0-.708.708l3.569 3.568A5.85 5.85 0 0 0 2.5 5a.5.5 0 0 0 0 1c1.45 0 2.5.564 3.484 1.345.113-.099.228-.202.345-.308l.709.708C5.7 8.957 4.472 10 2.5 10a.5.5 0 0 0 0 1c2.411 0 3.906-1.33 5.245-2.547l.708.707-.19.174a9.17 9.17 0 0 0 1.213.85l2.17 2.169.001.001Zm.46-2.368 1.307 1.307.44-.44a.5.5 0 0 0 0-.707l-1.5-1.5a.499.499 0 0 0-.708 0 .5.5 0 0 0 0 .708l.643.642a5.22 5.22 0 0 1-.182-.01ZM8.556 6.435l.715.714c.863-.64 1.796-1.098 3.018-1.145l-.643.642a.5.5 0 0 0 .708.708l1.5-1.5a.5.5 0 0 0 0-.708l-1.5-1.5a.5.5 0 0 0-.708.708l.65.65c-1.567.049-2.74.667-3.74 1.43Z"/></svg>