<svg xmlns="http://www.w3.org/2000/svg" width="16" height="16"><path d="M11 10.978v2.272a.75.75 0 0 1-.75.75h-4.5a.75.75 0 0 1-.75-.75V2.75A.75.75 0 0 1 5.75 2h.507a5.54 5.54 0 0 1 1.08-1H5.75A1.75 1.75 0 0 0 4 2.75v10.5c0 .966.784 1.75 1.75 1.75h4.5A1.75 1.75 0 0 0 12 13.25v-2.457a5.489 5.489 0 0 1-1 .185ZM6.5 12.5A.5.5 0 0 1 7 12h2a.5.5 0 0 1 0 1H7a.5.5 0 0 1-.5-.5Zm4-2.5a4.5 4.5 0 1 0 0-9 4.5 4.5 0 0 0 0 9Zm2.354-5.646-3 3a.5.5 0 0 1-.708 0l-1-1a.5.5 0 1 1 .708-.708l.646.647 2.646-2.647a.5.5 0 0 1 .708.708Z"/></svg>