<svg xmlns="http://www.w3.org/2000/svg" width="16" height="16" viewBox="0 0 16 16"><path d="M4.5 3A1.5 1.5 0 0 0 3 4.5v1a.5.5 0 0 1-1 0v-1A2.5 2.5 0 0 1 4.5 2h1a.5.5 0 0 1 0 1h-1ZM13 4.5A1.5 1.5 0 0 0 11.5 3h-1a.5.5 0 0 1 0-1h1A2.5 2.5 0 0 1 14 4.5v1a.5.5 0 0 1-1 0v-1Zm0 7a1.5 1.5 0 0 1-1.5 1.5h-1a.5.5 0 0 0 0 1h1a2.5 2.5 0 0 0 2.5-2.5v-1a.5.5 0 0 0-1 0v1Zm-10 0A1.5 1.5 0 0 0 4.5 13h1.25a.5.5 0 0 1 0 1H4.5A2.5 2.5 0 0 1 2 11.5v-1.25a.5.5 0 0 1 1 0v1.25ZM5.5 4A1.5 1.5 0 0 0 4 5.5v5A1.5 1.5 0 0 0 5.5 12h5a1.5 1.5 0 0 0 1.5-1.5v-5A1.5 1.5 0 0 0 10.5 4h-5ZM5 5.5a.5.5 0 0 1 .5-.5h5a.5.5 0 0 1 .5.5v5a.5.5 0 0 1-.5.5h-5a.5.5 0 0 1-.5-.5v-5Z"/></svg>