<svg xmlns="http://www.w3.org/2000/svg" width="20" height="20"><path d="m10.98 6.377 4.83-4.83a1.87 1.87 0 1 1 2.644 2.646l-4.83 4.829a2.197 2.197 0 0 1-1.02.578l-1.498.374a.89.89 0 0 1-1.079-1.078l.375-1.498a2.18 2.18 0 0 1 .578-1.02Zm-.707-.707L13.943 2H3.5A1.5 1.5 0 0 0 2 3.5v10A1.5 1.5 0 0 0 3.5 15H7v2H5.5a.5.5 0 0 0 0 1h9a.5.5 0 0 0 0-1H13v-2h3.5a1.5 1.5 0 0 0 1.5-1.5V6.06l-3.668 3.67c-.41.409-.924.7-1.486.84l-1.498.374c-1.383.346-2.637-.907-2.29-2.29l.374-1.499a3.19 3.19 0 0 1 .84-1.485ZM12 15v2H8v-2h4Z"/></svg>