<svg xmlns="http://www.w3.org/2000/svg" width="16" height="16" viewBox="0 0 16 16"><path d="M10.032 1.325a.5.5 0 0 1 .644-.293l.003.001.004.002.013.005a2.246 2.246 0 0 1 .19.083c.123.059.294.147.498.27.406.245.944.632 1.48 1.202C13.945 3.744 15 5.615 15 8.5a.5.5 0 0 1-1 0c0-2.614-.945-4.244-1.864-5.22a6.067 6.067 0 0 0-1.27-1.032 4.626 4.626 0 0 0-.539-.279h-.003l-.001-.001a.5.5 0 0 1-.291-.643Zm-3.068 1.99a.5.5 0 0 0-.928 0l-4 10a.5.5 0 1 0 .928.37L4.04 11h4.923l1.074 2.686a.5.5 0 1 0 .928-.372l-4-10ZM8.562 10H4.439L6.5 4.847 8.562 10Zm1.662-6.447a.5.5 0 0 0-.45.893l.01.006.048.027a3.597 3.597 0 0 1 .794.666c.436.49.874 1.252.874 2.355a.5.5 0 0 0 1 0c0-1.396-.562-2.385-1.126-3.02a4.596 4.596 0 0 0-1.034-.863 2.529 2.529 0 0 0-.08-.045l-.024-.012-.007-.004-.003-.002h-.001s.158.09-.001-.001Zm-.45.893.002.001Z"/></svg>