<svg xmlns="http://www.w3.org/2000/svg" width="16" height="16"><path d="M2.75 2A1.75 1.75 0 0 0 1 3.75v8.5c0 .966.784 1.75 1.75 1.75H6c.788 0 1.499-.331 2-.863A2.742 2.742 0 0 0 10 14h3.25A1.75 1.75 0 0 0 15 12.25v-8.5A1.75 1.75 0 0 0 13.25 2H10c-.788 0-1.499.331-2 .863A2.742 2.742 0 0 0 6 2H2.75Zm4.5 2.75v6.5c0 .69-.56 1.25-1.25 1.25H2.75a.25.25 0 0 1-.25-.25v-8.5a.25.25 0 0 1 .25-.25H6c.69 0 1.25.56 1.25 1.25Zm1.5 6.5v-6.5c0-.69.56-1.25 1.25-1.25h3.25a.25.25 0 0 1 .25.25v8.5a.25.25 0 0 1-.25.25H10c-.69 0-1.25-.56-1.25-1.25Z"/></svg>