<svg xmlns="http://www.w3.org/2000/svg" width="24" height="24" viewBox="0 0 24 24"><path d="M6.5 1a5.5 5.5 0 1 1 0 11 5.5 5.5 0 0 1 0-11Zm2 5.5h-2V4a.5.5 0 0 0-1 0v3a.5.5 0 0 0 .5.5h2.5a.5.5 0 0 0 0-1Zm-2 6.5A6.495 6.495 0 0 0 12 9.966V12h4.934l-2-3.386A1.25 1.25 0 0 0 13.859 8h-1.032A6.52 6.52 0 0 0 13 6.5h.858a2.75 2.75 0 0 1 2.368 1.352l2.509 4.246 2.182.546A2.75 2.75 0 0 1 23 15.312V17a2.75 2.75 0 0 1-1.585 2.492 3.251 3.251 0 0 1-6.258.258h-4.814a3.252 3.252 0 0 1-6.32-.61A2.745 2.745 0 0 1 3 17v-2.25c0-.902.435-1.704 1.106-2.205A6.478 6.478 0 0 0 6.5 13Zm8.538 5.25a3.25 3.25 0 0 1 6.274-.591c.12-.191.188-.417.188-.659v-1.688a1.25 1.25 0 0 0-.947-1.213l-2.397-.599H5.75c-.69 0-1.25.56-1.25 1.25v2.267a3.25 3.25 0 0 1 5.962 1.233h4.576ZM7.25 17a1.75 1.75 0 1 0 0 3.5 1.75 1.75 0 0 0 0-3.5Zm9.25 1.75a1.75 1.75 0 1 0 3.5 0 1.75 1.75 0 0 0-3.5 0Z"/></svg>