<svg xmlns="http://www.w3.org/2000/svg" width="32" height="32" viewBox="0 0 32 32"><path d="M7.5 3A4.5 4.5 0 0 0 3 7.5v17A4.5 4.5 0 0 0 7.5 29h8.792a9.018 9.018 0 0 1-1.357-2H7.5A2.5 2.5 0 0 1 5 24.5V11h22v3.935c.728.362 1.4.82 2 1.357V7.5A4.5 4.5 0 0 0 24.5 3h-17ZM5 7.5A2.5 2.5 0 0 1 7.5 5h17A2.5 2.5 0 0 1 27 7.5V9H5V7.5Zm13.343 11.536a1.52 1.52 0 0 1-1.117 1.927l-1.536.351a7.522 7.522 0 0 0-.04 3.189l1.698.423a1.52 1.52 0 0 1 1.096 1.893l-.496 1.724a7.493 7.493 0 0 0 2.75 1.596l1.26-1.3a1.53 1.53 0 0 1 2.193 0l1.236 1.272a7.494 7.494 0 0 0 2.737-1.635l-.467-1.513a1.519 1.519 0 0 1 1.117-1.928l1.536-.35a7.522 7.522 0 0 0 .04-3.19l-1.698-.423a1.52 1.52 0 0 1-1.096-1.892l.496-1.724a7.493 7.493 0 0 0-2.75-1.597l-1.26 1.3a1.53 1.53 0 0 1-2.193 0l-1.236-1.272a7.497 7.497 0 0 0-2.737 1.636l.467 1.513ZM25 22.999a2 2 0 1 1-4 0 2 2 0 0 1 4 0Z"/></svg>