<svg xmlns="http://www.w3.org/2000/svg" width="16" height="16"><path d="M6.958 2.09a6.035 6.035 0 0 1 2.084 0 .5.5 0 0 1-.173.985 5.034 5.034 0 0 0-1.738 0 .5.5 0 0 1-.173-.985Zm6.373 4.462a.5.5 0 0 1 .579.406 6.038 6.038 0 0 1 0 2.084.5.5 0 0 1-.985-.173 5.034 5.034 0 0 0 0-1.738.5.5 0 0 1 .406-.58Zm-10.662 0a.5.5 0 0 1 .406.579 5.034 5.034 0 0 0 0 1.738.5.5 0 0 1-.985.173 6.035 6.035 0 0 1 0-2.084.5.5 0 0 1 .579-.406Zm3.883 6.779a.5.5 0 0 1 .579-.406 5.034 5.034 0 0 0 1.738 0 .5.5 0 1 1 .173.985 6.038 6.038 0 0 1-2.084 0 .5.5 0 0 1-.406-.579Zm4.89-10.247a6.038 6.038 0 0 1 1.473 1.474.5.5 0 1 1-.818.574 5.024 5.024 0 0 0-1.23-1.23.5.5 0 1 1 .575-.818Zm1.351 7.662a.5.5 0 0 1 .123.696 6.028 6.028 0 0 1-1.474 1.473.5.5 0 0 1-.574-.818 5.039 5.039 0 0 0 1.229-1.23.5.5 0 0 1 .697-.122Zm-7.539-7.54a.5.5 0 0 1-.122.697 5.034 5.034 0 0 0-1.229 1.23.5.5 0 1 1-.819-.575 6.035 6.035 0 0 1 1.474-1.474.5.5 0 0 1 .696.122Zm-2.048 7.54a.5.5 0 0 1 .697.121 5.036 5.036 0 0 0 1.23 1.23.5.5 0 1 1-.575.818 6.038 6.038 0 0 1-1.474-1.473.5.5 0 0 1 .122-.697Zm4.428-4.304a1.547 1.547 0 0 0-2.183 2.192l2.196 2.219a.5.5 0 0 0 .71 0l2.196-2.219A1.547 1.547 0 0 0 8.37 6.442l-.368.361-.368-.361Z"/></svg>