<svg xmlns="http://www.w3.org/2000/svg" width="16" height="16" viewBox="0 0 16 16"><path d="M10.5 15a4.5 4.5 0 1 1 0-9 4.5 4.5 0 0 1 0 9Zm-2.803-2.404 4.9-4.9a3.5 3.5 0 0 0-4.9 4.9Zm.707.707a3.5 3.5 0 0 0 4.9-4.9l-4.9 4.9Zm-2.182.654C3.555 13.653 2 11.803 2 10v-.5A1.5 1.5 0 0 1 3.5 8h2.1a5.463 5.463 0 0 0-.393 1H3.5a.5.5 0 0 0-.5.5v.5c0 1.128.882 2.333 2.502 2.8.192.416.435.804.72 1.157Zm3.404-8.888a2.75 2.75 0 1 0-3.299 1.848 5.53 5.53 0 0 1 1.078-.964 1.75 1.75 0 1 1 .836-.47 5.46 5.46 0 0 1 1.385-.414Z"/></svg>