<svg xmlns="http://www.w3.org/2000/svg" width="24" height="24" viewBox="0 0 24 24"><path d="M5.25 2h5a.75.75 0 0 1 0 1.5h-5A1.75 1.75 0 0 0 3.5 5.25v2.963A3.754 3.754 0 0 0 2 9.2V5.25A3.25 3.25 0 0 1 5.25 2Zm10.537 18.5a3.754 3.754 0 0 1-.988 1.5h3.951A3.25 3.25 0 0 0 22 18.75v-5a.75.75 0 0 0-1.5 0v5a1.75 1.75 0 0 1-1.75 1.75h-2.963ZM21.25 11a.75.75 0 0 0 .75-.75v-5A3.25 3.25 0 0 0 18.75 2h-5a.75.75 0 0 0 0 1.5h5c.966 0 1.75.784 1.75 1.75v5c0 .414.336.75.75.75ZM7 9h3v3.5H7V9Zm0 5h3v3.5H7V14Zm4.5 0v3.5H15V14h-3.5ZM7 19h3v3H7v-3Zm4.5 0v3h.75A2.75 2.75 0 0 0 15 19.25V19h-3.5Zm0-10v3.5H15v-.75A2.75 2.75 0 0 0 12.25 9h-.75Zm-6 0h-.75A2.75 2.75 0 0 0 2 11.75v.75h3.5V9Zm0 5H2v3.5h3.5V14Zm0 5H2v.25A2.75 2.75 0 0 0 4.75 22h.75v-3Z"/></svg>