<svg xmlns="http://www.w3.org/2000/svg" width="24" height="24" viewBox="0 0 24 24"><path d="M8.5 3.5a5 5 0 0 0-.229 9.995 7.479 7.479 0 0 0-.253 1.487 6.5 6.5 0 1 1 6.964-6.964 7.479 7.479 0 0 0-1.487.253A5 5 0 0 0 8.5 3.5Zm5.778 9.734a.75.75 0 1 0-1.056 1.066l1.215 1.203-1.217 1.217a.75.75 0 1 0 1.06 1.06l1.22-1.219 1.215 1.219a.75.75 0 0 0 1.062-1.06l-1.215-1.217 1.212-1.204a.75.75 0 0 0-1.057-1.064L15.5 14.444l-1.221-1.21ZM15.5 9a6.5 6.5 0 1 0 0 13 6.5 6.5 0 0 0 0-13Zm-5 6.5a5 5 0 1 1 10 0 5 5 0 0 1-10 0Zm.78-8.78a.75.75 0 0 1 0 1.06l-3 3a.75.75 0 0 1-1.06 0l-1.5-1.502a.75.75 0 0 1 1.061-1.06l.97.971 2.469-2.47a.75.75 0 0 1 1.06 0Z"/></svg>