<svg xmlns="http://www.w3.org/2000/svg" width="20" height="20" viewBox="0 0 20 20"><path d="M18 10a8 8 0 1 0-7.411 7.979A5.477 5.477 0 0 1 10 15.5a5.5 5.5 0 0 1 .216-1.532.748.748 0 0 1-.966-.718.75.75 0 0 1 1.408-.36 5.499 5.499 0 0 1 7.32-2.301c.015-.195.022-.391.022-.589ZM9.508 6.41a.5.5 0 0 1 .984 0l.008.09V11l-.008.09a.5.5 0 0 1-.984 0L9.5 11V6.5l.008-.09Zm2.127 8.51a2 2 0 0 0 1.43-2.478l-.155-.557c.254-.195.529-.362.821-.497l.338.358a2 2 0 0 0 2.91.001l.324-.343c.298.14.578.314.835.518l-.126.422a2 2 0 0 0 1.456 2.519l.349.082a4.697 4.697 0 0 1 .01 1.017l-.46.118a2 2 0 0 0-1.431 2.478l.156.556c-.254.196-.53.363-.822.498l-.337-.358a2 2 0 0 0-2.91-.002l-.325.345a4.32 4.32 0 0 1-.835-.518l.127-.423a2 2 0 0 0-1.456-2.519l-.35-.083a4.715 4.715 0 0 1-.01-1.016l.461-.118Zm4.865.58a1 1 0 1 0-2 0 1 1 0 0 0 2 0Z"/></svg>