<svg xmlns="http://www.w3.org/2000/svg" width="24" height="24" viewBox="0 0 24 24"><path d="M16.749 2a2.25 2.25 0 0 1 2.25 2.25v15.5a2.25 2.25 0 0 1-2.25 2.25H11.19A6.5 6.5 0 0 0 4 11.498V4.25A2.25 2.25 0 0 1 6.25 2h10.499Zm-1.995 3.497H8.25a.75.75 0 0 0-.743.649l-.007.101v1.504c0 .38.283.693.649.743l.101.007h6.503a.75.75 0 0 0 .743-.648l.007-.102V6.247a.75.75 0 0 0-.75-.75ZM20 15.002h.75a.75.75 0 0 1 .743.648l.007.102v1.498a.75.75 0 0 1-.648.743L20.75 18H20v-2.998Zm0-4h.75a.75.75 0 0 1 .743.648l.007.102v1.498a.75.75 0 0 1-.648.743L20.75 14H20v-2.998Zm0-4h.75a.75.75 0 0 1 .743.648l.007.102V9.25a.75.75 0 0 1-.648.743L20.75 10H20V7.002ZM1 17.5a5.5 5.5 0 1 0 11 0 5.5 5.5 0 0 0-11 0ZM9.5 14a.5.5 0 0 1 .5.5v2a.5.5 0 0 1-.5.5h-2a.5.5 0 0 1 0-1h1a2.496 2.496 0 0 0-2-1c-.833 0-1.572.407-2.027 1.036a.5.5 0 1 1-.81-.586A3.496 3.496 0 0 1 6.5 14c.98 0 1.865.403 2.5 1.05v-.55a.5.5 0 0 1 .5-.5ZM4 19.95v.55a.5.5 0 0 1-1 0v-2a.5.5 0 0 1 .5-.5h2a.5.5 0 0 1 0 1h-1c.456.608 1.183 1 2 1 .766 0 1.452-.344 1.911-.888a.5.5 0 0 1 .764.645A3.493 3.493 0 0 1 6.5 21 3.49 3.49 0 0 1 4 19.95Z"/></svg>