<svg xmlns="http://www.w3.org/2000/svg" width="16" height="16"><path d="M3.714 5.258C3.523 4 4.41 2.87 5.765 2.456a.988.988 0 0 1 1.214.598l.435 1.16a1 1 0 0 1-.26 1.088L5.86 6.487a.501.501 0 0 0-.152.47l.012.052.031.13a7.265 7.265 0 0 0 .729 1.805 7.264 7.264 0 0 0 1.296 1.627l.04.036a.5.5 0 0 0 .482.103l1.673-.527a1 1 0 0 1 1.072.319l.792.961c.33.4.29.988-.089 1.341-1.037.967-2.463 1.165-3.455.368a12.732 12.732 0 0 1-3.024-3.529 12.432 12.432 0 0 1-1.554-4.385Zm3.043 1.765 1.072-.984a2 2 0 0 0 .521-2.176l-.434-1.16A1.988 1.988 0 0 0 5.473 1.5c-1.683.515-3.034 2.024-2.748 3.909.2 1.316.661 2.99 1.678 4.738a13.732 13.732 0 0 0 3.262 3.805c1.488 1.195 3.474.787 4.764-.415a1.98 1.98 0 0 0 .179-2.708l-.792-.962a2 2 0 0 0-2.144-.636l-1.389.437a6.604 6.604 0 0 1-.936-1.223 6.268 6.268 0 0 1-.59-1.421Z"/></svg>