<svg xmlns="http://www.w3.org/2000/svg" width="16" height="16"><path d="M4.5 2a.5.5 0 0 1 .5.5V4h1.5a.5.5 0 0 1 0 1H5v1.5a.5.5 0 0 1-1 0V5H2.5a.5.5 0 0 1 0-1H4V2.5a.5.5 0 0 1 .5-.5Zm5 2a.5.5 0 0 0 0 1h4a.5.5 0 0 0 0-1h-4Zm-4.293 7.5 1.647-1.646a.5.5 0 1 0-.708-.708L4.5 10.793 2.854 9.146a.5.5 0 1 0-.708.708L3.793 11.5l-1.647 1.646a.5.5 0 0 0 .708.708L4.5 12.207l1.646 1.647a.5.5 0 0 0 .708-.708L5.207 11.5ZM11.5 10a1 1 0 1 0 0-2 1 1 0 0 0 0 2Zm-2 .5a.5.5 0 0 0 0 1h4a.5.5 0 0 0 0-1h-4Zm3 2.5a1 1 0 1 1-2 0 1 1 0 0 1 2 0Z"/></svg>