<svg xmlns="http://www.w3.org/2000/svg" width="16" height="16" viewBox="0 0 16 16"><path d="M5 1a2 2 0 0 0-2 2v10a2 2 0 0 0 2 2h3.267a1.982 1.982 0 0 1-.044-1.92l.564-1.088H6.5A.5.5 0 0 1 6.41 11l.09-.008h2.805l.58-1.122a1 1 0 0 0 .113-.46V8.047a.5.5 0 0 1-.408.445L9.5 8.5h-3a.5.5 0 0 1-.09-.992L6.5 7.5h2.882A1.5 1.5 0 0 1 10.5 5H13V3a2 2 0 0 0-2-2H5Zm4.998 6.914v.038a.5.5 0 0 0-.006-.04l.006.002ZM9.59 4.992 9.5 5h-3a.5.5 0 0 1-.09-.992L6.5 4h3a.5.5 0 0 1 .09.992Zm4.406 4.413a2 2 0 0 0 .224.92l.35.675h-4.143l.347-.67a2 2 0 0 0 .224-.92V7H10.5a.5.5 0 0 1 0-1h4a.5.5 0 0 1 0 1h-.504v2.405ZM9.909 12l-.798 1.54A1 1 0 0 0 10 15h4.998a1 1 0 0 0 .888-1.46L15.087 12H9.91Z"/></svg>