<svg xmlns="http://www.w3.org/2000/svg" width="48" height="48" viewBox="0 0 48 48"><path d="M20.34 20.241a1.5 1.5 0 0 0 1.65-1.311l.007-.042a2.676 2.676 0 0 1 .448-1.003c.354-.484 1.09-1.135 2.804-1.135 1.544 0 2.553.506 3.128 1.187.575.68.91 1.762.645 3.309-.15.873-.574 1.371-1.275 1.805-.596.369-1.26.621-2.081.934-.334.127-.694.264-1.086.422-1.24.502-2.683 1.193-3.79 2.487C19.644 28.23 19 30.036 19 32.5a1.5 1.5 0 0 0 1.5 1.5h10a1.5 1.5 0 1 0 0-3h-8.38c.18-1.013.54-1.678.948-2.155.619-.723 1.496-1.195 2.637-1.657.242-.097.508-.198.788-.305.91-.345 1.971-.748 2.832-1.28 1.262-.781 2.327-1.95 2.654-3.849.378-2.203-.036-4.246-1.31-5.754-1.274-1.506-3.213-2.25-5.42-2.25-2.66 0-4.3 1.1-5.225 2.364a5.674 5.674 0 0 0-.971 2.197 3.985 3.985 0 0 0-.04.24l-.003.022v.01l-.001.004v.002c0 .002-.032.3 0 .002a1.5 1.5 0 0 0 1.332 1.65Zm16.22 4.198a1.5 1.5 0 0 0-2.12 2.122L36.878 29l-2.44 2.44a1.5 1.5 0 0 0 2.122 2.12L39 31.122l2.44 2.44a1.5 1.5 0 0 0 2.12-2.122L41.122 29l2.44-2.44a1.5 1.5 0 0 0-2.122-2.12L39 26.878l-2.44-2.44ZM16.5 32.75a1.25 1.25 0 1 1-2.5 0 1.25 1.25 0 0 1 2.5 0Zm-5.6-18.696A1.5 1.5 0 0 1 12 15.5v17a1.5 1.5 0 1 1-3 0V19.672a15.396 15.396 0 0 1-2.728 2.114 1.5 1.5 0 1 1-1.544-2.572c1.373-.824 2.502-1.944 3.299-2.886a15.938 15.938 0 0 0 1.125-1.502l.052-.082.01-.017h.001a1.5 1.5 0 0 1 1.686-.673Z"/></svg>