<svg xmlns="http://www.w3.org/2000/svg" width="24" height="24"><path d="M15.598 6.215a2 2 0 0 1 1.804 0l3.5 1.77A2 2 0 0 1 22 9.768v4.465a2 2 0 0 1-1.098 1.785l-3.5 1.77a2 2 0 0 1-1.804 0l-3.5-1.77A2 2 0 0 1 11 14.234V9.77a2 2 0 0 1 1.098-1.785l3.5-1.769Zm-2.016 4.19a.75.75 0 0 0 .328 1.009l1.84.936v1.903a.75.75 0 1 0 1.5 0V12.35l1.84-.936a.75.75 0 0 0-.68-1.337l-1.91.972-1.91-.972a.75.75 0 0 0-1.008.328ZM4.75 6.995a.75.75 0 1 0 0 1.5h4.5a.75.75 0 0 0 0-1.5h-4.5Zm-2 4a.75.75 0 0 0 0 1.5h4.5a.75.75 0 0 0 0-1.5h-4.5ZM4 15.745a.75.75 0 0 1 .75-.75h4.5a.75.75 0 0 1 0 1.5h-4.5a.75.75 0 0 1-.75-.75Z"/></svg>