<svg xmlns="http://www.w3.org/2000/svg" width="16" height="16"><path d="M5.336 4.114C5.205 3.868 5.08 3.52 5.026 3h5.946c-.053.52-.178.868-.308 1.114-.165.31-.386.55-.682.805-.11.095-.209.175-.323.267l-.186.151a6.29 6.29 0 0 0-.613.56C8.402 6.385 8 7.062 8 8c0-.938-.403-1.615-.86-2.103a6.289 6.289 0 0 0-.613-.56 33.595 33.595 0 0 0-.186-.15c-.115-.093-.214-.173-.324-.268-.296-.256-.517-.495-.681-.805ZM10.97 13H5.025c.054-.519.18-.867.31-1.114.165-.31.387-.55.683-.805.11-.095.208-.175.323-.267l.186-.152c.181-.148.405-.337.613-.56C7.598 9.615 8 8.939 8 8c0 .937.401 1.614.858 2.102.208.223.432.412.613.56l.186.151c.114.092.213.172.323.267.295.256.517.495.681.806.131.246.256.595.31 1.114Z"/></svg>