<svg xmlns="http://www.w3.org/2000/svg" width="24" height="24" viewBox="0 0 24 24"><path d="M3 5.75A2.75 2.75 0 0 1 5.75 3h12.5A2.75 2.75 0 0 1 21 5.75v6.272a6.463 6.463 0 0 0-2-.848V5.75a.75.75 0 0 0-.75-.75H5.75a.75.75 0 0 0-.75.75v12.5c0 .414.336.75.75.75h5.424c.17.72.46 1.395.848 2H5.75A2.75 2.75 0 0 1 3 18.25V5.75ZM17.5 23a5.5 5.5 0 1 1 0-11 5.5 5.5 0 0 1 0 11Zm3-5a.5.5 0 0 0 0-1h-4.793l1.647-1.646a.5.5 0 0 0-.708-.708l-2.5 2.5a.5.5 0 0 0 0 .708l2.5 2.5a.5.5 0 0 0 .708-.708L15.707 18H20.5Z"/></svg>