<svg xmlns="http://www.w3.org/2000/svg" width="32" height="32" viewBox="0 0 32 32"><path d="M19 2c1.306 0 2.418.835 2.83 2h1.67A3.5 3.5 0 0 1 27 7.5v6.542a4.35 4.35 0 0 0-2 .827V7.5A1.5 1.5 0 0 0 23.5 6h-1.67A3.001 3.001 0 0 1 19 8h-6a3.001 3.001 0 0 1-2.83-2H8.5A1.5 1.5 0 0 0 7 7.5v19A1.5 1.5 0 0 0 8.5 28h5.804l-.226.871A2.49 2.49 0 0 0 14.046 30H8.5A3.5 3.5 0 0 1 5 26.5v-19A3.5 3.5 0 0 1 8.5 4h1.67A3.001 3.001 0 0 1 13 2h6Zm-6 2a1 1 0 1 0 0 2h6a1 1 0 1 0 0-2h-6Zm4.86 18-1.918 1.934a3.997 3.997 0 0 0-.064.066H11a1 1 0 1 1 0-2h6.86ZM10 13a1 1 0 0 1 1-1h10a1 1 0 1 1 0 2H11a1 1 0 0 1-1-1Zm1 4a1 1 0 1 0 0 2h5a1 1 0 1 0 0-2h-5Zm18.652 3.425-8.613 8.543c-.352.349-.79.598-1.27.721l-3.02.778a1 1 0 0 1-1.218-1.22l.79-3.051c.118-.456.355-.872.687-1.206l8.57-8.64a2.88 2.88 0 1 1 4.074 4.075Z"/></svg>