<svg xmlns="http://www.w3.org/2000/svg" width="24" height="24"><path d="M9 5.5a3.5 3.5 0 0 1-3 3.465V15a3 3 0 0 0 3 3h2.69l-.97-.97a.75.75 0 1 1 1.06-1.06l2.25 2.25a.75.75 0 0 1 0 1.06l-2.25 2.25a.75.75 0 1 1-1.06-1.06l.97-.97H9A4.5 4.5 0 0 1 4.5 15V8.855A3.502 3.502 0 0 1 5.5 2 3.5 3.5 0 0 1 9 5.5Zm13 13a3.5 3.5 0 1 1-4-3.465V9a3 3 0 0 0-3-3h-1.94l.97.97a.75.75 0 0 1-1.06 1.06l-2.25-2.25a.75.75 0 0 1 0-1.06l2.25-2.25a.75.75 0 1 1 1.06 1.06l-.97.97H15A4.5 4.5 0 0 1 19.5 9v6.145c1.446.43 2.5 1.77 2.5 3.355Z"/></svg>