<svg xmlns="http://www.w3.org/2000/svg" width="24" height="24"><path d="M8.25 9a.75.75 0 0 0-.75.75v4.5c0 .414.336.75.75.75h4.5a.75.75 0 0 0 .75-.75v-4.5a.75.75 0 0 0-.75-.75h-4.5ZM9 13.5v-3h3v3H9ZM2 7.75A4.75 4.75 0 0 1 6.75 3h10.5a4.75 4.75 0 0 1 3.5 7.961v7.789A2.25 2.25 0 0 1 18.5 21h-13a2.25 2.25 0 0 1-2.25-2.25v-7.789A4.735 4.735 0 0 1 2 7.75ZM6.75 4.5a3.25 3.25 0 0 0-2.234 5.61.75.75 0 0 1 .234.545v8.095c0 .414.336.75.75.75h10a.75.75 0 0 0 .75-.75v-7.692a.75.75 0 0 1 .328-.62A3.25 3.25 0 0 0 14.75 4.5h-8ZM19.5 7.75a4.742 4.742 0 0 1-1.75 3.683v7.317c0 .263-.045.515-.128.75h.878a.75.75 0 0 0 .75-.75v-8.095a.75.75 0 0 1 .234-.545 3.251 3.251 0 0 0-1.084-5.4 4.73 4.73 0 0 1 1.1 3.04Z"/></svg>