<svg xmlns="http://www.w3.org/2000/svg" width="16" height="16" viewBox="0 0 16 16"><path d="M5 5.1c0-.554.292-1.065.84-1.455C6.392 3.252 7.187 3 8.1 3c1.298 0 2.384.56 2.763 1.243a.5.5 0 0 0 .874-.486C11.117 2.64 9.602 2 8.1 2c-1.087 0-2.092.298-2.84.83C4.508 3.365 4 4.154 4 5.1c0 .72.3 1.375.79 1.9h1.722C5.552 6.593 5 5.83 5 5.1ZM13.5 8a.5.5 0 0 1 0 1h-2.342c.517.504.842 1.149.842 1.9 0 .902-.515 1.688-1.255 2.229-.743.543-1.749.871-2.845.871-1.624 0-3.002-.65-3.716-1.723a.5.5 0 0 1 .832-.554C5.502 12.45 6.524 13 7.9 13c.904 0 1.698-.272 2.255-.679.56-.409.845-.923.845-1.421 0-.775-.63-1.526-1.777-1.9H2.5a.5.5 0 0 1 0-1h11Z"/></svg>