<svg xmlns="http://www.w3.org/2000/svg" width="16" height="16" viewBox="0 0 16 16"><path d="M12.5 5a.5.5 0 1 0 0-1 .5.5 0 0 0 0 1Zm-10-3A1.5 1.5 0 0 0 1 3.5v2.996a.5.5 0 0 0 .5.5h6.011V8H6.5a.5.5 0 0 0-.5.5V10H5a.5.5 0 0 0-.5.5v1h-3a.5.5 0 0 0 0 1h3v1a.5.5 0 0 0 .5.5h6a.5.5 0 0 0 .5-.5v-1h3a.5.5 0 0 0 0-1h-3v-1a.5.5 0 0 0-.5-.5h-1V8.5a.5.5 0 0 0-.5-.5h-.989V6.996H14.5a.5.5 0 0 0 .5-.5V3.5A1.5 1.5 0 0 0 13.5 2h-11ZM2 3.5a.5.5 0 0 1 .5-.5h11a.5.5 0 0 1 .5.5v2.496H2V3.5ZM7 9h2v1.5a.5.5 0 0 0 .5.5h1v2h-5v-2h1a.5.5 0 0 0 .5-.5V9Z"/></svg>