<svg xmlns="http://www.w3.org/2000/svg" width="24" height="24"><path d="m15.538 18.999-.29 1.259a2.25 2.25 0 0 1-2.02 1.735l-.173.007h-2.111a2.25 2.25 0 0 1-2.147-1.577l-.046-.167-.29-1.257h7.077ZM12 2.001a7.25 7.25 0 0 1 7.25 7.25c0 2.136-.936 4.093-2.765 5.84a.25.25 0 0 0-.071.125l-.528 2.283H12.75V10.75a.75.75 0 0 0-1.5 0v6.75H8.114l-.526-2.283a.25.25 0 0 0-.071-.124C5.687 13.344 4.75 11.387 4.75 9.25A7.25 7.25 0 0 1 12 2.001Zm-.75 4.75v1.5a.75.75 0 0 0 1.5 0v-1.5a.75.75 0 0 0-1.5 0Zm5.03 1.465a.75.75 0 0 0-1.06 0l-1.061 1.06a.75.75 0 1 0 1.06 1.061l1.061-1.06a.75.75 0 0 0 0-1.06Zm-7.5 0a.75.75 0 0 0-1.06 1.06l1.06 1.061a.75.75 0 1 0 1.061-1.06l-1.06-1.06Z"/></svg>