<svg xmlns="http://www.w3.org/2000/svg" width="48" height="48" viewBox="0 0 48 48"><path d="m30.383 32.15 11.483 11.484a1.25 1.25 0 0 0 1.768-1.768l-37.5-37.5a1.25 1.25 0 1 0-1.768 1.768L14.57 16.338C11.988 14.928 8.977 14 5.25 14a1.25 1.25 0 1 0 0 2.5c6.017 0 9.863 2.707 13.52 6.116.313-.305.628-.615.948-.93l.1-.1 1.415 1.415-.03.028-.08.08C16.664 27.506 12.56 31.5 5.25 31.5a1.25 1.25 0 1 0 0 2.5c8.388 0 13.151-4.696 17.546-9.03l.082-.08.123-.121 1.414 1.414-.133.131-.187.185-.652.641c2.04 1.91 4.26 3.727 6.94 5.01Zm8.92 1.85-2.611-2.611a18.62 18.62 0 0 0 2.058.111h.982l-3.366-3.366a1.25 1.25 0 0 1 1.768-1.768l5.5 5.5a1.25 1.25 0 0 1 0 1.768l-2.349 2.348-1.767-1.767.214-.215h-.429ZM26.648 21.345l-1.775-1.775C28.407 16.52 32.606 14 38.75 14h.982l-3.366-3.366a1.25 1.25 0 0 1 1.768-1.768l5.5 5.5a1.25 1.25 0 0 1 0 1.768l-5.5 5.5a1.25 1.25 0 0 1-1.768-1.768l3.366-3.366h-.982c-5.246 0-8.842 2.058-12.102 4.845Z"/></svg>