<svg xmlns="http://www.w3.org/2000/svg" width="24" height="24"><path d="M19.75 6.5h-5.929L9.647 9.979l-.156.119a2.25 2.25 0 0 1-1.088.393l-.196.009L2 10.499v7.251l.005.154A2.25 2.25 0 0 0 4.25 20H11v-4a3 3 0 0 1 3-3h7c.35 0 .687.06 1 .17V8.75l-.005-.154-.017-.158A2.25 2.25 0 0 0 19.75 6.5ZM9.49 4.402A2.25 2.25 0 0 0 8.208 4H4.25l-.154.005A2.25 2.25 0 0 0 2 6.25v2.749L8.207 9l.104-.007a.75.75 0 0 0 .291-.106l.085-.06 3.063-2.554-2.103-1.752-.156-.119Zm8.02 14.525-5.491-3.203A2 2 0 0 1 14 14h7a2 2 0 0 1 2 1.97l-5.49 2.957Zm.227 1.013L23 17.106V21a2 2 0 0 1-2 2h-7a2 2 0 0 1-2-2v-4.13l5.248 3.062a.5.5 0 0 0 .489.008Z"/></svg>