<svg xmlns="http://www.w3.org/2000/svg" width="16" height="16"><path d="M10 6.5a.5.5 0 0 1 .5-.5h2a.5.5 0 0 1 0 1h-2a.5.5 0 0 1-.5-.5Zm.5 2.5a.5.5 0 0 0 0 1h2a.5.5 0 0 0 0-1h-2ZM6 6a1 1 0 1 1-2 0 1 1 0 0 1 2 0ZM3.75 8a.75.75 0 0 0-.75.75v.75S3 11 5 11s2-1.5 2-1.5v-.75A.75.75 0 0 0 6.25 8h-2.5ZM8.5 6.25a.75.75 0 1 1-1.5 0 .75.75 0 0 1 1.5 0Zm-.555 3.701a2.475 2.475 0 0 1-.011.049H8a1 1 0 0 0 1-1v-.5a.5.5 0 0 0-.5-.5h-.668c.108.227.168.482.168.75v.803h-.001v.008l-.007.098a2.494 2.494 0 0 1-.047.292ZM1 5.5A2.5 2.5 0 0 1 3.5 3h9A2.5 2.5 0 0 1 15 5.5v5a2.5 2.5 0 0 1-2.5 2.5h-9A2.5 2.5 0 0 1 1 10.5v-5ZM3.5 4A1.5 1.5 0 0 0 2 5.5v5A1.5 1.5 0 0 0 3.5 12h9a1.5 1.5 0 0 0 1.5-1.5v-5A1.5 1.5 0 0 0 12.5 4h-9Z"/></svg>