<svg xmlns="http://www.w3.org/2000/svg" width="32" height="32"><path d="M12.204 8.917c.432-1.222 2.16-1.223 2.592-.001l.63 1.78c.146.41.47.733.88.878l1.778.63c1.221.432 1.221 2.16 0 2.592l-1.778.63c-.41.144-.734.467-.88.878l-.63 1.78c-.432 1.222-2.16 1.221-2.592 0l-.628-1.779a1.444 1.444 0 0 0-.88-.88l-1.78-.629c-1.221-.432-1.222-2.16 0-2.592l1.78-.63c.411-.145.735-.469.88-.88l.628-1.777Zm9.121 8.666c-.275-.777-1.375-.777-1.65 0l-.4 1.132a.919.919 0 0 1-.56.56l-1.132.4c-.777.275-.777 1.375 0 1.65l1.133.4a.919.919 0 0 1 .56.56l.4 1.132c.274.777 1.374.777 1.649 0l.401-1.133a.919.919 0 0 1 .56-.559l1.131-.4c.777-.275.777-1.375 0-1.65l-1.132-.4a.919.919 0 0 1-.559-.56l-.401-1.132ZM2 16C2 8.268 8.268 2 16 2s14 6.268 14 14-6.268 14-14 14S2 23.732 2 16ZM16 4C9.373 4 4 9.373 4 16s5.373 12 12 12 12-5.373 12-12S22.627 4 16 4Z"/></svg>