<svg xmlns="http://www.w3.org/2000/svg" width="28" height="28"><path d="M22.96 11.482c1.193.57 1.748 1.951 1.416 3.39l-.434 1.877a1.25 1.25 0 0 1-1.423.952l-3.147-.524a.75.75 0 0 1-.61-.577l-.78-3.513a.75.75 0 0 0-.495-.548l-.237.711.237-.711-.003-.001-.005-.002-.017-.006a12.12 12.12 0 0 0-1.026-.264A12.028 12.028 0 0 0 14 12c-.942 0-1.809.134-2.435.266a12.109 12.109 0 0 0-1.026.264l-.018.006-.005.002h-.003l.237.712-.237-.711a.75.75 0 0 0-.495.548l-.78 3.513a.75.75 0 0 1-.61.577l-3.146.524a1.25 1.25 0 0 1-1.424-.952l-.428-1.857c-.334-1.447.229-2.837 1.432-3.405 1.954-.924 5.033-1.974 8.94-1.987 3.922-.013 7.007 1.049 8.959 1.982Zm-6.345 2.366.684 3.077a2.25 2.25 0 0 0 1.826 1.731l3.147.525a2.75 2.75 0 0 0 3.132-2.094l.433-1.878c.454-1.967-.269-4.143-2.23-5.08-2.103-1.007-5.412-2.143-9.61-2.129-4.176.014-7.472 1.136-9.576 2.13-1.975.934-2.71 3.12-2.253 5.099l.429 1.858a2.75 2.75 0 0 0 3.131 2.094l3.147-.525a2.25 2.25 0 0 0 1.827-1.731l.684-3.077c.134-.035.299-.074.488-.114.56-.118 1.319-.234 2.126-.234.808 0 1.566.116 2.127.234.189.04.353.08.488.114Z"/></svg>