<svg xmlns="http://www.w3.org/2000/svg" width="24" height="24" viewBox="0 0 24 24"><path d="M19 4.491a2.5 2.5 0 0 1-3.012 2.448l-1.28 2.117c.325.299.6.65.81 1.04-.51.102-.991.281-1.432.525a2.5 2.5 0 1 0-2.556 3.835c-.02.179-.03.36-.03.544v.97a3.997 3.997 0 0 1-2.72-1.598l-1.795.848a2.5 2.5 0 1 1-.608-1.372l1.754-.828a4.007 4.007 0 0 1 .784-3.567l-.991-1.13a2.5 2.5 0 1 1 1.164-.948l.982 1.12A3.982 3.982 0 0 1 12 8c.505 0 .989.094 1.434.265l1.245-2.06A2.5 2.5 0 1 1 19 4.492Zm-1.5 0a1 1 0 1 0-2 0 1 1 0 0 0 2 0ZM7 7a1 1 0 1 0 0-2 1 1 0 0 0 0 2Zm-1.5 8.5a1 1 0 1 0-2 0 1 1 0 0 0 2 0ZM16.503 11a4 4 0 0 0-4 4v3l-.95.8c-.307.26-.46.39-.507.491a.5.5 0 0 0 .242.662c.1.047.302.047.704.047h9.02c.403 0 .604 0 .705-.047a.5.5 0 0 0 .242-.662c-.047-.101-.2-.231-.508-.49L20.503 18v-3a4 4 0 0 0-4-4Zm1.5 10c-.219.583-.808 1-1.5 1-.693 0-1.282-.417-1.5-1h3Z"/></svg>