<svg xmlns="http://www.w3.org/2000/svg" width="24" height="24"><path d="M12 3.619v.004l-8.092 4.81L12 12.654v.003l8.231-4.225L12 3.62Zm-.168 10.612a.825.825 0 0 1-.188-.07L3.5 9.91v6.84a1.75 1.75 0 0 0 1.606 1.743l.144.006h8.058A2.76 2.76 0 0 0 13 19.772v.103c0 .042 0 .084.002.125H5.25a3.25 3.25 0 0 1-3.245-3.066L2 16.75V9.103c0-.736.36-1.423.958-1.842L3.1 7.17l8.504-5.056a.75.75 0 0 1 .775-.01l9.003 5.265a1.25 1.25 0 0 1-.06 2.19L18.512 11H18.5c-1.176 0-2.217.58-2.852 1.47l-3.306 1.697a.748.748 0 0 1-.51.064Zm9.168.27a2.5 2.5 0 1 1-5 0 2.5 2.5 0 0 1 5 0Zm2 5.374C23 21.432 21.714 23 18.5 23S14 21.437 14 19.875v-.103c0-.979.794-1.772 1.773-1.772h5.454c.98 0 1.773.793 1.773 1.772v.103Z"/></svg>