<svg xmlns="http://www.w3.org/2000/svg" width="20" height="20" viewBox="0 0 20 20"><path d="M17 5.5A2.5 2.5 0 0 0 14.5 3h-9A2.5 2.5 0 0 0 3 5.5v9A2.5 2.5 0 0 0 5.5 17h4.1a5.465 5.465 0 0 1-.393-1H5.5A1.5 1.5 0 0 1 4 14.5V7h12v2.207c.349.099.683.23 1 .393V5.5ZM5.5 4h9A1.5 1.5 0 0 1 16 5.5V6H4v-.5A1.5 1.5 0 0 1 5.5 4ZM19 14.5a4.5 4.5 0 1 1-9 0 4.5 4.5 0 0 1 9 0Zm-4.024-2.64a.494.494 0 0 0-.952 0l-.477 1.532H12c-.484 0-.686.647-.294.944l1.25.947-.477 1.532c-.15.48.378.88.77.583l1.25-.947 1.25.947c.392.297.92-.103.77-.583l-.477-1.532 1.25-.947c.392-.297.19-.944-.294-.944h-1.545l-.478-1.531Z"/></svg>