<svg xmlns="http://www.w3.org/2000/svg" width="16" height="16"><path d="M12 1.5a.5.5 0 0 1 1 0V4h2.5a.5.5 0 1 1 0 1H13v2.5a.5.5 0 1 1-1 0V5H9.5a.5.5 0 0 1 0-1H12V1.5ZM5.756 7.023l1.073-.984a2 2 0 0 0 .52-2.176L6.892 2.64a1.916 1.916 0 0 0-2.354-1.16c-1.716.525-3.035 2.12-2.629 4.014a15.3 15.3 0 0 0 1.746 4.475c.97 1.667 2.078 2.9 3.028 3.765 1.434 1.306 3.484.979 4.803-.25a1.899 1.899 0 0 0 .171-2.597l-.84-1.02A2 2 0 0 0 8.67 9.23l-1.388.437a6.618 6.618 0 0 1-.936-1.222 6.268 6.268 0 0 1-.59-1.422Z"/></svg>