<svg xmlns="http://www.w3.org/2000/svg" width="16" height="16" viewBox="0 0 16 16"><path d="m10.878.282.348 1.071a2.205 2.205 0 0 0 1.398 1.397l1.072.348.021.006a.423.423 0 0 1 0 .798l-1.071.348a2.208 2.208 0 0 0-1.399 1.397l-.348 1.07a.423.423 0 0 1-.798 0l-.348-1.07a2.204 2.204 0 0 0-1.399-1.403l-1.072-.348a.423.423 0 0 1 0-.798l1.072-.348a2.208 2.208 0 0 0 1.377-1.397l.348-1.07a.423.423 0 0 1 .799 0Zm4.905 7.931-.765-.248a1.577 1.577 0 0 1-1-.999l-.248-.764a.302.302 0 0 0-.57 0l-.25.764a1.576 1.576 0 0 1-.983.999l-.765.248a.303.303 0 0 0 0 .57l.765.249a1.578 1.578 0 0 1 1 1.002l.248.764a.302.302 0 0 0 .57 0l.249-.764a1.576 1.576 0 0 1 .999-.999l.765-.248a.303.303 0 0 0 0-.57l-.015-.004Zm-2.548 3.76c.087.017.176.027.267.027.268 0 .527-.051.745-.21.22-.16.38-.37.48-.651l.251-.762a.54.54 0 0 1 .022-.055V11a2 2 0 0 1-2 2H3a2 2 0 0 1-2-2V5a2 2 0 0 1 2-2h3.088A1.419 1.419 0 0 0 6 3.496c0 .176.031.346.09.504H3a1 1 0 0 0-1 1v6a1 1 0 0 0 1 1h10a1 1 0 0 0 .235-.028ZM9.135 7l.018.052c.09.25.25.48.52.691.14.1.29.17.45.21l-.02.047H4.5a.5.5 0 0 1 0-1h4.636ZM7.43 5l.413.137A.499.499 0 0 1 7.5 6h-3a.5.5 0 0 1 0-1h2.93ZM4 9.5a.5.5 0 0 1 .5-.5h4a.5.5 0 0 1 0 1h-4a.5.5 0 0 1-.5-.5Z"/></svg>