<svg xmlns="http://www.w3.org/2000/svg" width="28" height="28"><path d="M3.503 7.51a1.979 1.979 0 0 1 3.626-1.096.75.75 0 1 0 1.248-.833 3.479 3.479 0 1 0-2.932 5.407.757.757 0 0 0 .134.012h15.672a.75.75 0 0 0 0-1.5H5.615a.755.755 0 0 0-.134-.012A1.979 1.979 0 0 1 3.503 7.51ZM11.748 6a.75.75 0 0 0 0 1.5h13.5a.75.75 0 0 0 0-1.5h-13.5Zm-5 7.25a.75.75 0 0 0 0 1.5h18.5a.75.75 0 0 0 0-1.5h-18.5Zm-4.752 4.5a.75.75 0 0 1 .75-.75h18.5a.75.75 0 0 1 0 1.5h-18.5a.75.75 0 0 1-.75-.75Zm4.748 2.75a.75.75 0 0 0 0 1.5h18.5a.75.75 0 0 0 0-1.5h-18.5Z"/></svg>