<svg xmlns="http://www.w3.org/2000/svg" width="28" height="28"><path d="M16.5 4.814c0-1.094-1.307-1.66-2.105-.912l-4.937 4.63a1.75 1.75 0 0 1-1.197.473H5.25A3.25 3.25 0 0 0 2 12.255v3.492a3.25 3.25 0 0 0 3.25 3.25h3.012c.444 0 .872.17 1.196.473l4.937 4.626c.799.748 2.105.182 2.105-.912V4.814Zm-6.016 4.812L15 5.39v17.216l-4.516-4.232a3.25 3.25 0 0 0-2.222-.878H5.25a1.75 1.75 0 0 1-1.75-1.75v-3.492c0-.966.784-1.75 1.75-1.75h3.011a3.25 3.25 0 0 0 2.223-.88ZM21.28 6.219a.75.75 0 0 0-1.28.53v5.566l-.77-.641a.75.75 0 1 0-.96 1.152L19.68 14l-1.41 1.175a.75.75 0 1 0 .96 1.152l.77-.642v5.565a.75.75 0 0 0 1.28.53l4-4a.75.75 0 0 0-.05-1.107L22.022 14l3.208-2.674a.75.75 0 0 0 .05-1.107l-4-4ZM23.64 17.3l-2.14 2.14v-3.922l2.139 1.782ZM21.5 8.56l2.139 2.14-2.139 1.782V8.56Z"/></svg>