<svg xmlns="http://www.w3.org/2000/svg" width="16" height="16" viewBox="0 0 16 16"><path d="M6 8c0-.703.044-1.375.125-2h3.75c.08.625.125 1.297.125 2 0 .703-.044 1.375-.125 2h-3.75A15.731 15.731 0 0 1 6 8Zm-.883 2A16.827 16.827 0 0 1 5 8c0-.693.04-1.365.117-2H2.34A5.99 5.99 0 0 0 2 8c0 .701.12 1.374.341 2h2.776Zm-2.314 1h2.47c.125.655.292 1.254.493 1.776.134.349.286.672.457.957A6.016 6.016 0 0 1 2.803 11Zm3.489 0h3.416a9.26 9.26 0 0 1-.407 1.417c-.213.554-.455.969-.698 1.236C8.36 13.92 8.156 14 8 14c-.156 0-.36-.08-.603-.347-.243-.267-.485-.682-.698-1.236A9.26 9.26 0 0 1 6.292 11Zm4.436 0a10.523 10.523 0 0 1-.494 1.776 6.155 6.155 0 0 1-.457.957A6.016 6.016 0 0 0 13.197 11h-2.47Zm2.93-1A5.99 5.99 0 0 0 14 8a5.99 5.99 0 0 0-.341-2h-2.776c.076.635.117 1.307.117 2 0 .693-.04 1.365-.117 2h2.776ZM9.302 3.583c.159.414.297.89.407 1.417H6.292c.11-.527.248-1.003.407-1.417.213-.554.455-.969.698-1.236C7.64 2.08 7.844 2 8 2c.156 0 .36.08.603.347.243.267.485.682.698 1.236ZM10.728 5h2.47a6.016 6.016 0 0 0-3.421-2.733c.17.285.323.608.457.957.201.522.368 1.12.494 1.776ZM2.803 5h2.47a10.53 10.53 0 0 1 .493-1.776c.134-.349.286-.672.457-.957A6.016 6.016 0 0 0 2.803 5Z"/></svg>