<svg xmlns="http://www.w3.org/2000/svg" width="16" height="16" viewBox="0 0 16 16"><path d="M2 13.5a.5.5 0 0 0 1 0v-11a.5.5 0 0 0-1 0v11ZM6 5V2.5a.5.5 0 0 1 .5-.5H10v3H6Zm.5 9a.5.5 0 0 1-.5-.5V11h4v3H6.5Zm3.5-4H7.415c.057-.161.085-.33.085-.5a1.5 1.5 0 1 0 0-3c0-.17-.028-.339-.085-.5H10v4Zm1 1v3h.5a2.5 2.5 0 0 0 2.5-2.5V11h-3Zm3-5h-3v4h3V6Zm0-1.5V5h-3V2h.5A2.5 2.5 0 0 1 14 4.5ZM6.354 6.146a.5.5 0 0 1 0 .708l-.647.646H7.5a.5.5 0 0 1 0 1H5.707l.647.646a.5.5 0 1 1-.708.708l-1.5-1.5a.5.5 0 0 1 0-.708l1.5-1.5a.5.5 0 0 1 .708 0Z"/></svg>