<svg xmlns="http://www.w3.org/2000/svg" width="16" height="16" viewBox="0 0 16 16"><path d="M10 2.5a.5.5 0 0 1 .5-.5h3a.5.5 0 0 1 .5.5v3a.5.5 0 1 1-1 0V3.707L9.854 6.854a.5.5 0 0 1-.707-.707L12.293 3H10.5a.5.5 0 0 1-.5-.5Zm-5.626-.38a1.75 1.75 0 0 1 2.196.886l.585 1.228a1.5 1.5 0 0 1-.192 1.592l-.945 1.16a4.13 4.13 0 0 0 .475 1.28 4.133 4.133 0 0 0 .877 1.038l1.506-.276a1.5 1.5 0 0 1 1.354.437l.809.844a1.75 1.75 0 0 1-.062 2.483l-.296.28c-1.126 1.063-2.88 1.29-4.135.247-.94-.782-2.068-1.88-2.918-3.213-.94-1.477-1.38-3.23-1.588-4.55-.237-1.506.72-2.83 2.071-3.337l.263-.1Zm2.862 7.717-.289.408-.001-.001-.003-.002-.01-.007a1.76 1.76 0 0 1-.127-.1A5.132 5.132 0 0 1 5.63 8.77a5.128 5.128 0 0 1-.636-1.857L4.993 6.9v-.005l.496-.052-.497.05a.5.5 0 0 1 .11-.366l1.086-1.334a.5.5 0 0 0 .064-.53l-.585-1.229a.75.75 0 0 0-.94-.38l-.264.1c-.985.37-1.586 1.286-1.435 2.244.199 1.261.61 2.86 1.444 4.17.773 1.213 1.817 2.236 2.713 2.98.804.668 1.989.57 2.81-.204l.295-.28A.75.75 0 0 0 10.317 11l-.809-.844a.5.5 0 0 0-.451-.146l-1.73.318a.5.5 0 0 1-.38-.084l.29-.408Z"/></svg>