<svg xmlns="http://www.w3.org/2000/svg" width="20" height="20"><path d="M6.19 2.77c.13-.455.547-.77 1.02-.77h5.25c.724 0 1.236.71 1.007 1.398l-.002.008L12.204 7h2.564c.946 0 1.407 1.144.766 1.811l-.003.004-.237.242a5.545 5.545 0 0 0-1.374-.027l.894-.912a.056.056 0 0 0 .017-.032.084.084 0 0 0-.007-.044.079.079 0 0 0-.025-.034c-.005-.004-.013-.008-.031-.008h-3.27a.5.5 0 0 1-.471-.666L12.52 3.08a.062.062 0 0 0-.06-.08H7.211a.062.062 0 0 0-.06.045l-2.25 7.874c-.01.04.019.08.06.08H6.87a.5.5 0 0 1 .485.62l-1.325 5.3a.086.086 0 0 0-.003.03.02.02 0 0 0 .003.011.08.08 0 0 0 .072.04.03.03 0 0 0 .01-.004.087.087 0 0 0 .024-.018l.003-.004 2.882-2.94a5.573 5.573 0 0 0 .054 1.372l-2.22 2.267c-.754.782-2.059.06-1.795-.996l1.17-4.679H4.96a1.062 1.062 0 0 1-1.021-1.354l2.25-7.873Zm5.877 8.673a2 2 0 0 1-1.431 2.478l-.461.118a4.702 4.702 0 0 0 .01 1.016l.35.083a2 2 0 0 1 1.456 2.519l-.127.422c.257.204.537.378.835.518l.325-.344a2 2 0 0 1 2.91.002l.337.358c.292-.135.568-.302.822-.498l-.157-.556a2 2 0 0 1 1.431-2.479l.46-.117a4.702 4.702 0 0 0-.01-1.017l-.348-.082a2 2 0 0 1-1.456-2.52l.126-.421a4.32 4.32 0 0 0-.835-.519l-.325.344a2 2 0 0 1-2.91-.001l-.337-.358a4.316 4.316 0 0 0-.821.497l.156.557ZM14.5 15.5a1 1 0 1 1 0-2 1 1 0 0 1 0 2Z"/></svg>