<svg xmlns="http://www.w3.org/2000/svg" width="32" height="32" viewBox="0 0 32 32"><path d="M15 14.786c-.074.069-.145.14-.214.214H3V7.5A4.5 4.5 0 0 1 7.5 3H15v11.786ZM3 17h10.666a4.754 4.754 0 0 0-.166 1.25v7.5c0 1.257.488 2.4 1.286 3.25H7.5A4.5 4.5 0 0 1 3 24.5V17Zm26-9.5v7.286a4.733 4.733 0 0 0-3.25-1.286h-7.5c-.433 0-.852.058-1.25.166V3h7.5A4.5 4.5 0 0 1 29 7.5ZM15 18.25A3.25 3.25 0 0 1 18.25 15h7.5A3.25 3.25 0 0 1 29 18.25v7.5A3.25 3.25 0 0 1 25.75 29h-7.5A3.25 3.25 0 0 1 15 25.75v-7.5Z"/></svg>