<svg xmlns="http://www.w3.org/2000/svg" width="20" height="20" viewBox="0 0 20 20"><path d="M2 4.75C2 3.784 2.784 3 3.75 3h12.5c.966 0 1.75.784 1.75 1.75v1.5c0 .698-.409 1.3-1 1.582V9.6a5.465 5.465 0 0 0-1-.393V8H4v6a2 2 0 0 0 2 2h3.207c.099.349.23.683.393 1H6a3 3 0 0 1-3-3V7.832A1.75 1.75 0 0 1 2 6.25v-1.5ZM3.75 4a.75.75 0 0 0-.75.75v1.5c0 .414.336.75.75.75h12.5a.75.75 0 0 0 .75-.75v-1.5a.75.75 0 0 0-.75-.75H3.75Zm4.75 6h2.837c-.403.284-.767.62-1.08 1H8.5a.5.5 0 0 1 0-1Zm3.567 1.443a2 2 0 0 1-1.431 2.478l-.461.118a4.702 4.702 0 0 0 .01 1.016l.35.083a2 2 0 0 1 1.456 2.519l-.127.422c.257.204.537.378.835.518l.325-.344a2 2 0 0 1 2.91.002l.337.358c.292-.135.568-.302.822-.498l-.157-.556a2 2 0 0 1 1.431-2.479l.46-.117a4.702 4.702 0 0 0-.01-1.017l-.348-.082a2 2 0 0 1-1.456-2.52l.126-.421a4.32 4.32 0 0 0-.835-.519l-.325.344a2 2 0 0 1-2.91-.001l-.337-.358a4.316 4.316 0 0 0-.821.497l.156.557ZM14.5 15.5a1 1 0 1 1 0-2 1 1 0 0 1 0 2Z"/></svg>