<svg xmlns="http://www.w3.org/2000/svg" width="20" height="20" viewBox="0 0 20 20"><path d="M8.5 1a6.5 6.5 0 0 0-5.676 9.672l-.795 2.082a1 1 0 0 0 1.204 1.32l2.487-.697A6.5 6.5 0 1 0 8.5 1Zm-.008 3.901c-.358.07-.75.302-1.058.846a.5.5 0 1 1-.87-.494C7.005 4.477 7.632 4.05 8.3 3.92a2.43 2.43 0 0 1 1.792.361c.484.32.875.843.887 1.47.013.655-.385 1.246-1.119 1.68-.498.294-.692.494-.775.627C9.015 8.17 9 8.272 9 8.5a.5.5 0 0 1-1 0c0-.272.014-.61.237-.97.21-.337.569-.637 1.115-.96.535-.317.632-.618.629-.798-.004-.207-.142-.46-.44-.657a1.431 1.431 0 0 0-1.048-.214Zm.257 6.599a.75.75 0 1 1 0-1.5.75.75 0 0 1 0 1.5Zm-2.214 3.24A6.485 6.485 0 0 0 11.462 17c.993 0 1.936-.223 2.78-.623l2.486.697a1 1 0 0 0 1.204-1.32l-.795-2.082a6.481 6.481 0 0 0 .825-3.172c0-1.94-.85-3.682-2.199-4.873a7.5 7.5 0 0 1 .235 1.762c.608.885.964 1.957.964 3.111 0 1.05-.294 2.031-.805 2.866l-.128.21.97 2.535-2.86-.8-.175.088c-.75.384-1.6.601-2.502.601a5.475 5.475 0 0 1-3.167-1.003 7.499 7.499 0 0 1-1.76-.257Z"/></svg>