<svg xmlns="http://www.w3.org/2000/svg" width="28" height="28"><path d="M18.5 17a1 1 0 0 0 .921-.61l5.5-13a1 1 0 0 0-1.842-.78L18.5 13.435 13.921 2.61a1 1 0 1 0-1.842.779l5.5 13a1 1 0 0 0 .921.61ZM10.421 2.61a1 1 0 0 0-1.842 0l-5.5 13a1 1 0 1 0 1.842.78l1.433-3.387h6.292l1.433 3.387a1 1 0 1 0 1.842-.78l-5.5-13Zm1.38 8.393H7.2l2.3-5.436 2.3 5.436Zm-2.16 8.229a1 1 0 0 0-1.28 1.537l.877.731H4a1 1 0 1 0 0 2h5.238l-.878.732a1 1 0 0 0 1.28 1.537l3-2.5a1 1 0 0 0 0-1.537l-3-2.5Zm10.127 6.408a1 1 0 0 1-1.408.128l-3-2.5a1 1 0 0 1 0-1.536l3-2.5a1 1 0 0 1 1.28 1.537l-.878.731h5.212a1 1 0 1 1 0 2h-5.212l.878.732a1 1 0 0 1 .128 1.408Z"/></svg>