<svg xmlns="http://www.w3.org/2000/svg" width="28" height="28" viewBox="0 0 28 28"><path d="M9.75 2.01a3.751 3.751 0 0 0-3.675 3H18.25A4.75 4.75 0 0 1 23 9.76V16h.25c.824 0 1.599.21 2.274.579A3.733 3.733 0 0 0 26 14.75V7.76a5.75 5.75 0 0 0-5.75-5.75H9.75ZM22 9.76V16h-4.25a4.75 4.75 0 0 0-4.417 6.5h-1.08l-4.245 3.235c-.823.627-2.008.04-2.008-.994V22.5h-.25A3.75 3.75 0 0 1 2 18.75V9.76a3.75 3.75 0 0 1 3.75-3.75h12.5A3.75 3.75 0 0 1 22 9.76Zm-4.25 8.74a2.25 2.25 0 0 0 0 4.5h.5a.75.75 0 0 1 0 1.5h-.5a3.75 3.75 0 1 1 0-7.5h.5a.75.75 0 0 1 0 1.5h-.5ZM17 20.75a.75.75 0 0 1 .75-.75h5.5a.75.75 0 0 1 0 1.5h-5.5a.75.75 0 0 1-.75-.75ZM23.25 23a2.25 2.25 0 0 0 0-4.5h-.5a.75.75 0 0 1 0-1.5h.5a3.75 3.75 0 1 1 0 7.5h-.5a.75.75 0 0 1 0-1.5h.5Z"/></svg>