<svg xmlns="http://www.w3.org/2000/svg" width="32" height="32"><path d="M9 10.415V16a6.001 6.001 0 0 0 5.064 5.927 8.956 8.956 0 0 1 1.904-4.544l1.069 1.068a7.5 7.5 0 0 0 10.512 10.512l.744.744a1 1 0 0 0 1.414-1.414l-26-26a1 1 0 0 0-1.414 1.414L9 10.415Zm15.37 15.37-.162.463a.75.75 0 0 1-1.416 0l-1.099-3.14 2.677 2.676Zm-3.178-3.178-.266.685a.75.75 0 0 1-.699.478H18.75a.75.75 0 0 1 0-1.5h.964l.32-.822 1.159 1.159Zm-1.424-6.377 4.709 4.71.065-.188a.75.75 0 0 1 1.411-.013l.569 1.531h.728a.75.75 0 0 1 .056 1.498l2.464 2.464A7.5 7.5 0 0 0 19.768 16.23ZM9.394 5.857l9.26 9.26A8.94 8.94 0 0 1 21 14.223V8A6 6 0 0 0 9.394 5.857ZM7 16a8.001 8.001 0 0 0 7.05 7.944A8.958 8.958 0 0 0 16 28.657V29a1 1 0 1 1-2 0v-3c0-.017 0-.033.002-.05C8.947 25.45 5 21.187 5 16a1 1 0 1 1 2 0Z"/></svg>