<svg xmlns="http://www.w3.org/2000/svg" width="24" height="24" viewBox="0 0 24 24"><path d="M15.25 13.5h-4a.75.75 0 0 1-.75-.75v-6a.75.75 0 0 1 1.5 0V12h3.25a.75.75 0 0 1 0 1.5ZM12 2C6.478 2 2 6.478 2 12c0 .427.027.847.079 1.26A3.501 3.501 0 0 1 9 14v.05a2.5 2.5 0 0 1 2 2.45v5c0 .152-.014.302-.04.447.342.035.689.053 1.04.053 5.522 0 10-4.478 10-10S17.522 2 12 2ZM3 15v-1a2.5 2.5 0 0 1 5 0v1h.5a1.5 1.5 0 0 1 1.5 1.5v5A1.5 1.5 0 0 1 8.5 23h-6A1.5 1.5 0 0 1 1 21.5v-5A1.5 1.5 0 0 1 2.5 15H3Zm1.5-1v1h2v-1a1 1 0 1 0-2 0Zm2 5a1 1 0 1 0-2 0 1 1 0 0 0 2 0Z"/></svg>