<svg xmlns="http://www.w3.org/2000/svg" width="48" height="48" viewBox="0 0 48 48"><path d="M24 7.5a3.5 3.5 0 1 0 0 7 3.5 3.5 0 0 0 0-7ZM18 11a6 6 0 1 1 12 0 6 6 0 0 1-12 0Zm19-1.5a2.5 2.5 0 1 0 0 5 2.5 2.5 0 0 0 0-5ZM32 12a5 5 0 1 1 10 0 5 5 0 0 1-10 0ZM8.5 12a2.5 2.5 0 1 1 5 0 2.5 2.5 0 0 1-5 0ZM11 7a5 5 0 1 0 0 10 5 5 0 0 0 0-10Zm4 16.25A4.25 4.25 0 0 1 19.25 19h9.5A4.25 4.25 0 0 1 33 23.25V34a9 9 0 1 1-18 0V23.25Zm9 17.25a6.5 6.5 0 0 0 6.5-6.5V23.25a1.75 1.75 0 0 0-1.75-1.75h-9.5a1.75 1.75 0 0 0-1.75 1.75V34a6.5 6.5 0 0 0 6.5 6.5Zm-13-3a4.48 4.48 0 0 0 2.367-.672c.219.826.532 1.613.926 2.35A7 7 0 0 1 4 33v-9.749A4.25 4.25 0 0 1 8.25 19h5.5c.288 0 .57.029.841.083a6.24 6.24 0 0 0-1.343 2.417H8.25a1.75 1.75 0 0 0-1.75 1.75V33a4.5 4.5 0 0 0 4.5 4.5ZM37 40a6.969 6.969 0 0 1-3.293-.821c.394-.738.707-1.525.926-2.351A4.5 4.5 0 0 0 41.5 33v-9.75a1.75 1.75 0 0 0-1.75-1.75h-4.998a6.24 6.24 0 0 0-1.344-2.417c.273-.054.554-.083.842-.083h5.5A4.25 4.25 0 0 1 44 23.25V33a7 7 0 0 1-7 7Z"/></svg>