<svg xmlns="http://www.w3.org/2000/svg" width="48" height="48" viewBox="0 0 48 48"><path d="M4 24C4 12.954 12.954 4 24 4s20 8.954 20 20c0 .526-.02 1.047-.06 1.562A12.956 12.956 0 0 0 35 22c-7.18 0-13 5.82-13 13 0 3.463 1.354 6.61 3.562 8.94-.515.04-1.036.06-1.562.06a19.92 19.92 0 0 1-9.534-2.414l-8.235 2.342c-1.319.375-2.537-.844-2.162-2.162l2.342-8.238A19.917 19.917 0 0 1 4 24Zm42 11c0 6.075-4.925 11-11 11s-11-4.925-11-11 4.925-11 11-11 11 4.925 11 11Zm-10-7a1 1 0 1 0-2 0v6h-6a1 1 0 1 0 0 2h6v6a1 1 0 1 0 2 0v-6h6a1 1 0 1 0 0-2h-6v-6Z"/></svg>