<svg xmlns="http://www.w3.org/2000/svg" width="48" height="48"><path d="M23.135 4.348a1.25 1.25 0 0 1 1.73 0c2.758 2.643 6.684 4.077 10.037 4.84 1.659.376 3.139.58 4.202.69a29.03 29.03 0 0 0 1.654.122h.022A1.25 1.25 0 0 1 42 11.25V21c0 9.497-5.06 19.016-17.627 22.943a1.25 1.25 0 0 1-.746 0c-6.238-1.95-10.668-5.292-13.53-9.418C7.244 30.408 6 25.587 6 20.75v-9.5A1.25 1.25 0 0 1 7.22 10h.022l.08-.003a29.035 29.035 0 0 0 1.574-.12 35.656 35.656 0 0 0 4.202-.69c3.352-.762 7.278-2.196 10.037-4.84Zm9.478 14.806a1.25 1.25 0 1 0-1.726-1.808L20.77 27.003l-3.636-3.637a1.25 1.25 0 0 0-1.768 1.768l4.5 4.5c.48.48 1.256.49 1.747.02l11-10.5Z"/></svg>