<svg xmlns="http://www.w3.org/2000/svg" width="20" height="20"><path d="M11 6c2.464 0 3.863 1.573 4.066 3.474h.062c1.586 0 2.872 1.237 2.872 2.763C18 13.763 16.714 15 15.128 15h-.694l-.017.041-1.487 2.704a.5.5 0 0 1-.914-.396l.036-.082L13.3 15h-1.854l-.018.041-1.487 2.704a.5.5 0 0 1-.914-.396l.036-.082L10.312 15H8.44l-1.496 2.745a.5.5 0 0 1-.914-.396l.036-.082L7.302 15h-.43C5.286 15 4 13.763 4 12.237c0-1.526 1.286-2.763 2.872-2.763h.062C7.138 7.56 8.535 6 11 6ZM3.803 8.7a.5.5 0 0 1-.228.6l-.082.036-.801.276a.5.5 0 0 1-.408-.909l.082-.036.802-.276a.5.5 0 0 1 .635.31ZM8.92 4.5c.332.162.625.373.873.62-1.762.364-3.03 1.533-3.543 3.156l-.065.224-.046.187-.166.03a3.76 3.76 0 0 0-1.25.504A3.28 3.28 0 0 1 8.919 4.5Zm-6.003.17L3 4.702l.762.371a.5.5 0 0 1-.354.931l-.085-.032-.761-.371a.5.5 0 0 1 .354-.931ZM9.99 2.295a.5.5 0 0 1 .262.585l-.032.084-.371.762a.5.5 0 0 1-.931-.354l.032-.085.371-.762a.5.5 0 0 1 .67-.23ZM6.2 2.263l.037.082.276.802a.5.5 0 0 1-.909.407l-.037-.082-.275-.801a.5.5 0 0 1 .908-.408Z"/></svg>