<svg xmlns="http://www.w3.org/2000/svg" width="16" height="16" viewBox="0 0 16 16"><path d="m10.878.282.348 1.071a2.205 2.205 0 0 0 1.398 1.397l1.072.348.021.006a.423.423 0 0 1 0 .798l-1.071.348a2.208 2.208 0 0 0-1.399 1.397l-.348 1.07a.423.423 0 0 1-.798 0l-.348-1.07a2.204 2.204 0 0 0-1.399-1.403l-1.072-.348a.423.423 0 0 1 0-.798l1.072-.348a2.208 2.208 0 0 0 1.377-1.397l.348-1.07a.423.423 0 0 1 .799 0Zm4.905 7.931-.765-.248a1.577 1.577 0 0 1-1-.999l-.248-.764a.302.302 0 0 0-.57 0l-.25.764a1.576 1.576 0 0 1-.983.999l-.765.248a.303.303 0 0 0 0 .57l.765.249a1.578 1.578 0 0 1 1 1.002l.248.764a.302.302 0 0 0 .57 0l.249-.764a1.576 1.576 0 0 1 .999-.999l.765-.248a.303.303 0 0 0 0-.57l-.015-.004ZM5 1h3.796l-.013.042a1.2 1.2 0 0 1-.29.47c-.13.131-.291.241-.451.291l-1.091.35c-.28.101-.52.281-.69.522-.17.24-.261.52-.261.821 0 .3.09.581.26.821s.41.431.71.531l1.062.35c.15.051.29.131.47.291.11.11.2.24.29.471l.36 1.092c.057.157.142.307.263.448H6.5l-.09.008a.5.5 0 0 0 .09.992h3.504v.004c0 .27.08.531.24.752.16.22.38.38.65.48l.761.25c.08.03.16.08.22.14.07.061.11.141.14.221l.26.802c.1.25.26.46.481.62.077.053.159.097.244.132V13a2 2 0 0 1-2 2H5a2 2 0 0 1-2-2V3a2 2 0 0 1 2-2Zm5 10.492a.5.5 0 0 0-.5-.5h-3L6.41 11a.5.5 0 0 0 .09.992h3l.09-.008a.5.5 0 0 0 .41-.492Z"/></svg>