<svg xmlns="http://www.w3.org/2000/svg" width="20" height="20" viewBox="0 0 20 20"><path d="M2.414 3.121A2.49 2.49 0 0 0 2 4.5v2a.5.5 0 0 0 1 0v-2c0-.232.052-.45.146-.647L7.723 8.43a1.42 1.42 0 0 1-.066.053l-1.239.698c-.771.434-1.122 1.352-.797 2.18l.35.89c.205.52.644.91 1.18 1.071l3.61 1.083a2.24 2.24 0 0 0 2.302-.635l3.084 3.084A1.494 1.494 0 0 1 15.5 17h-2a.5.5 0 0 0 0 1h2c.51 0 .983-.152 1.379-.414l.267.268a.5.5 0 0 0 .708-.708l-15-15a.5.5 0 1 0-.708.708l.268.267Zm9.94 9.94a1.231 1.231 0 0 1-1.306.386l-3.61-1.083a.824.824 0 0 1-.536-.48l-.35-.89c-.135-.342 0-.741.357-.942l1.24-.699a.506.506 0 0 0 .044-.025l.002-.001.005-.004.008-.005.011-.008.005-.003a1.788 1.788 0 0 0 .207-.169l3.922 3.922ZM8.856 6.735l.745.745c.132-.269.244-.48.348-.678l.002-.004c.17-.323.321-.61.492-1.015a.533.533 0 0 1 .193-.23.307.307 0 0 1 .26-.042c.259.069.398.203.481.375.09.185.123.43.129.734.005.277-.057.64-.143.989a8.554 8.554 0 0 1-.124.45.5.5 0 0 0 .478.645h.934c.595 0 .96.53.815 1.003l-.385 1.252.8.8.54-1.758c.362-1.177-.567-2.297-1.77-2.297h-.283c.078-.344.145-.745.137-1.104-.006-.336-.04-.762-.227-1.148-.212-.44-.59-.765-1.126-.907-.837-.223-1.434.383-1.63.85-.154.364-.288.618-.458.941v.001l-.208.398ZM17 14.879l.975.975c.016-.116.025-.234.025-.354v-2a.5.5 0 0 0-1 0v1.379ZM4.146 2.025 5.121 3H6.5a.5.5 0 0 0 0-1h-2c-.12 0-.238.008-.354.025ZM15.5 3A1.5 1.5 0 0 1 17 4.5v2a.5.5 0 0 0 1 0v-2A2.5 2.5 0 0 0 15.5 2h-2a.5.5 0 0 0 0 1h2ZM3 15.5A1.5 1.5 0 0 0 4.5 17h2a.5.5 0 0 1 0 1h-2A2.5 2.5 0 0 1 2 15.5v-2a.5.5 0 0 1 1 0v2Z"/></svg>