<svg xmlns="http://www.w3.org/2000/svg" width="16" height="16" viewBox="0 0 16 16"><path d="M1 3.5A2.5 2.5 0 0 1 3.5 1h5A2.5 2.5 0 0 1 11 3.5V6h-1V4H2v4.5A1.5 1.5 0 0 0 3.5 10H4v1h-.5A2.5 2.5 0 0 1 1 8.5v-5ZM3.5 2a1.5 1.5 0 0 0-1.415 1h7.83A1.5 1.5 0 0 0 8.5 2h-5ZM5 8.5A1.5 1.5 0 0 1 6.5 7h7A1.5 1.5 0 0 1 15 8.5v5a1.5 1.5 0 0 1-1.5 1.5h-7A1.5 1.5 0 0 1 5 13.5v-5ZM6.5 8a.5.5 0 0 0-.5.5v.441l4 2 4-2V8.5a.5.5 0 0 0-.5-.5h-7ZM6 13.5a.5.5 0 0 0 .5.5h7a.5.5 0 0 0 .5-.5v-3.441l-3.776 1.888a.5.5 0 0 1-.448 0L6 10.06v3.44Z"/></svg>