<svg xmlns="http://www.w3.org/2000/svg" width="28" height="28"><path d="M19.289 3.15a3.932 3.932 0 1 1 5.56 5.56l-4.354 4.355a7.5 7.5 0 0 0-8.43 8.43l-2.002 2.002c-.44.44-.987.76-1.587.928l-5.524 1.547a.75.75 0 0 1-.924-.924l1.547-5.525c.168-.6.487-1.146.928-1.586L19.288 3.15ZM26 20.5a6.5 6.5 0 1 1-13 0 6.5 6.5 0 0 1 13 0Zm-9.146-3.354a.5.5 0 0 0-.708.708l2.647 2.646-2.647 2.646a.5.5 0 0 0 .708.708l2.646-2.647 2.646 2.647a.5.5 0 0 0 .708-.708L20.207 20.5l2.647-2.646a.5.5 0 0 0-.708-.708L19.5 19.793l-2.646-2.647Z"/></svg>