<svg xmlns="http://www.w3.org/2000/svg" width="16" height="16" viewBox="0 0 16 16"><path d="M7.313 1.262a1 1 0 0 1 1.374 0l4.844 4.579c.3.283.469.678.469 1.09v5.57a1.5 1.5 0 0 1-1.5 1.5h-2A1.5 1.5 0 0 1 9 12.5V10a.5.5 0 0 0-.5-.5h-1a.5.5 0 0 0-.5.5v2.5A1.5 1.5 0 0 1 5.5 14h-2A1.5 1.5 0 0 1 2 12.5V6.93c0-.412.17-.807.47-1.09l4.843-4.58ZM8 1.988l-4.844 4.58A.5.5 0 0 0 3 6.93v5.57a.5.5 0 0 0 .5.5h2a.5.5 0 0 0 .5-.5V10a1.5 1.5 0 0 1 1.5-1.5h1A1.5 1.5 0 0 1 10 10v2.5a.5.5 0 0 0 .5.5h2a.5.5 0 0 0 .5-.5V6.93a.5.5 0 0 0-.156-.363L8 1.988Z"/></svg>