<svg xmlns="http://www.w3.org/2000/svg" width="24" height="24" viewBox="0 0 24 24"><path d="M15.78 3.737a2.25 2.25 0 0 0-1.56 0L9.913 5.33a.25.25 0 0 0-.163.234v2.793a4.75 4.75 0 0 0-1.5 0V5.563a1.75 1.75 0 0 1 1.143-1.641L13.7 2.33a3.75 3.75 0 0 1 2.6 0l4.307 1.592a1.75 1.75 0 0 1 1.143 1.641v7.018a6.508 6.508 0 0 0-1.5-.973V5.563a.25.25 0 0 0-.163-.234L15.78 3.737Zm-1.173 7.384c.2.074.382.183.538.318a6.49 6.49 0 0 0-1.589.893L9.78 10.936a2.25 2.25 0 0 0-1.56 0l-4.307 1.592a.25.25 0 0 0-.163.234v5.67a.25.25 0 0 0 .163.235l4.307 1.592a2.25 2.25 0 0 0 1.56 0l1.591-.589c.17.48.395.933.666 1.353l-1.737.643a3.75 3.75 0 0 1-2.6 0l-4.307-1.592a1.75 1.75 0 0 1-1.143-1.642v-5.67a1.75 1.75 0 0 1 1.143-1.641L7.7 9.529a3.75 3.75 0 0 1 2.6 0l4.307 1.592Zm-2.875 2.129a.75.75 0 0 1 .733.138 6.503 6.503 0 0 0-.926 1.516l-1.79.62v2.7a.75.75 0 0 1-1.5 0v-2.7l-2.48-.857a.75.75 0 0 1 .49-1.418l2.74.948 2.733-.947Zm.037-5.583a.75.75 0 1 1 .49-1.418l2.659.92a.25.25 0 0 0 .163 0l2.65-.92a.75.75 0 1 1 .492 1.418l-2.65.919a1.75 1.75 0 0 1-1.145 0l-2.659-.919ZM23 17.5a5.5 5.5 0 1 1-11 0 5.5 5.5 0 0 1 11 0Zm-2.146-2.353a.5.5 0 0 0-.708 0L16.5 18.791l-1.646-1.647a.5.5 0 0 0-.708.708l2 2a.5.5 0 0 0 .708 0l4-4a.5.5 0 0 0 0-.707Z"/></svg>