<svg xmlns="http://www.w3.org/2000/svg" width="20" height="20" viewBox="0 0 20 20"><path d="M5.5 3a2.5 2.5 0 0 0-2.302 1.523A2 2 0 1 1 3 8.437V14.5A2.5 2.5 0 0 0 5.5 17h4.1a5.47 5.47 0 0 1-.6-2.5c0-.9.216-1.75.6-2.5H7.5a.5.5 0 0 1 0-1h2.757A5.489 5.489 0 0 1 14.5 9c.9 0 1.75.216 2.5.6V5.5A2.5 2.5 0 0 0 14.5 3h-9ZM7 8.5a.5.5 0 0 1 .5-.5h5a.5.5 0 0 1 0 1h-5a.5.5 0 0 1-.5-.5Zm-3.5-3a1 1 0 1 0 0 2 1 1 0 0 0 0-2Zm15.5 9a4.5 4.5 0 1 1-9 0 4.5 4.5 0 0 1 9 0Zm-2.646-1.146a.5.5 0 0 0-.708-.708L14.5 13.793l-1.146-1.147a.5.5 0 0 0-.708.708l1.147 1.146-1.147 1.146a.5.5 0 0 0 .708.708l1.146-1.147 1.146 1.147a.5.5 0 0 0 .708-.708L15.207 14.5l1.147-1.146Z"/></svg>