<svg xmlns="http://www.w3.org/2000/svg" width="16" height="16"><path d="M7.294 1.6 2.535 6.326a1.99 1.99 0 0 0 0 2.829l3.31 3.288c.786.78 2.06.78 2.847 0l4.69-4.658a2 2 0 0 0 .589-1.4l.024-3.372A2.007 2.007 0 0 0 11.974 1l-3.264.014a2.02 2.02 0 0 0-1.416.585Zm4.058 3.058a.774.774 0 0 1-1.089 0 .762.762 0 0 1 0-1.082.774.774 0 0 1 1.09 0c.3.3.3.784 0 1.082ZM1.997 9.75a2 2 0 0 0 .46 2.115l1.964 1.964a4 4 0 0 0 5.657 0l3.482-3.482a1.5 1.5 0 0 0 .44-1.06v-.78l-3.922 3.922a3.541 3.541 0 0 1-.211.197l-.496.496a3 3 0 0 1-4.243 0l-.498-.499a4.08 4.08 0 0 1-.208-.194l-1.965-1.964a1.993 1.993 0 0 1-.46-.715Z"/></svg>