<svg xmlns="http://www.w3.org/2000/svg" width="20" height="20"><path d="M7.225 8.342a.5.5 0 0 1-.316.632 1.22 1.22 0 0 0-.717.605c-.186.349-.312.923-.195 1.86a.5.5 0 0 1-.993.123c-.132-1.063-.009-1.864.306-2.453.32-.6.807-.925 1.282-1.083a.5.5 0 0 1 .633.316Zm4.934-5.368a.5.5 0 1 0-.317-.948c-.938.312-1.522 1.082-1.866 1.907a5.288 5.288 0 0 0-.127.339 3.998 3.998 0 0 0-.711-.963 3.99 3.99 0 0 0-2.94-1.17c-.58.016-1.043.48-1.059 1.059a3.99 3.99 0 0 0 1.201 2.97A4.002 4.002 0 0 0 3.198 9.76l-.006.074a8.5 8.5 0 0 0 1.01 4.748l.36.658c.01.017.02.034.032.05l1 1.402a2.685 2.685 0 0 0 4.084.338.456.456 0 0 1 .645 0 2.685 2.685 0 0 0 4.084-.338l1-1.401a.51.51 0 0 0 .032-.051l.359-.658a8.5 8.5 0 0 0 1.01-4.748l-.005-.074a4 4 0 0 0-4.645-3.626l-1.657.276c.01-.681.13-1.447.399-2.093.28-.675.696-1.155 1.258-1.343ZM8.719 6.28l-.154-.026a2.985 2.985 0 0 1-1.549-.824 2.99 2.99 0 0 1-.877-2.205.088.088 0 0 1 .087-.087 2.99 2.99 0 0 1 2.205.878c.607.607.9 1.408.877 2.205a.088.088 0 0 1-.087.087 3.02 3.02 0 0 1-.502-.028Zm-.328.959.173.029.779.13a4 4 0 0 0 1.315 0l1.664-.278a3 3 0 0 1 3.484 2.72l.006.074a7.5 7.5 0 0 1-.892 4.19l-.344.63-.983 1.376a1.685 1.685 0 0 1-2.563.213 1.456 1.456 0 0 0-2.06 0 1.685 1.685 0 0 1-2.562-.213l-.983-1.376-.344-.63a7.5 7.5 0 0 1-.892-4.19l.006-.074a3 3 0 0 1 3.483-2.72l.713.119Z"/></svg>