<svg xmlns="http://www.w3.org/2000/svg" width="28" height="28"><path d="M2 12a9 9 0 1 1 4.96 8.045l-3.385.907a1.25 1.25 0 0 1-1.531-1.531l.908-3.389A8.966 8.966 0 0 1 2 12Zm4.788-3.204a2.755 2.755 0 0 0 .01 3.868l3.923 3.963a.414.414 0 0 0 .59 0l3.902-3.94a2.755 2.755 0 0 0-.01-3.867 2.69 2.69 0 0 0-3.835-.01l-.372.378-.378-.382a2.689 2.689 0 0 0-3.83-.01Zm3.48 13.178A8.978 8.978 0 0 0 17 25a8.965 8.965 0 0 0 4.04-.955l3.385.907a1.25 1.25 0 0 0 1.531-1.531l-.908-3.388a9.004 9.004 0 0 0-5.122-12.546 9.95 9.95 0 0 1 .749 1.973A7.498 7.498 0 0 1 24.5 16c0 1.3-.33 2.52-.91 3.585a.75.75 0 0 0-.067.553l.872 3.253-3.25-.871a.75.75 0 0 0-.554.066A7.463 7.463 0 0 1 17 23.5a7.468 7.468 0 0 1-4.623-1.594 10.085 10.085 0 0 1-2.109.068Z"/></svg>