<svg xmlns="http://www.w3.org/2000/svg" width="28" height="28" viewBox="0 0 28 28"><path d="M4.507 6.008A3.243 3.243 0 0 0 3 8.75v10.5c0 2.9 2.35 5.25 5.25 5.25h10.5a3.247 3.247 0 0 0 2.744-1.508l-.122.006-.122.002h-13a3.75 3.75 0 0 1-3.75-3.75v-13c0-.081.002-.162.007-.242Zm10.061 8.14-.093.078-7.428 7.293A3.235 3.235 0 0 0 8.75 22h12.5c.625 0 1.208-.176 1.703-.481l-7.427-7.293-.084-.07a.75.75 0 0 0-.772-.068l-.102.06ZM8.75 3A3.25 3.25 0 0 0 5.5 6.25v12.5c0 .627.178 1.213.485 1.71l7.439-7.304.128-.117a2.25 2.25 0 0 1 2.889-.006l.136.123 7.438 7.303a3.235 3.235 0 0 0 .485-1.709V6.25A3.25 3.25 0 0 0 21.25 3H8.75ZM11 7.25a1.25 1.25 0 1 1 0 2.499 1.25 1.25 0 0 1 0-2.499Z"/></svg>