<svg xmlns="http://www.w3.org/2000/svg" width="20" height="20" viewBox="0 0 20 20"><path d="M6.5 2A2.5 2.5 0 0 0 4 4.5v5A2.5 2.5 0 0 0 6.5 12h4A2.5 2.5 0 0 0 13 9.5v-5A2.5 2.5 0 0 0 10.5 2h-4Zm9.391 7.918L14 8.887V5.113l1.891-1.03A.75.75 0 0 1 17 4.74v4.518a.75.75 0 0 1-1.109.659ZM3.67 11.888a4.82 4.82 0 0 0-.846.41C2.408 12.56 2 12.955 2 13.5c0 .546.408.94.823 1.201.44.278 1.043.51 1.745.696 1.41.376 3.33.603 5.432.603.098 0 .197 0 .294-.002l-1.148 1.148a.5.5 0 0 0 .708.708l2-2a.5.5 0 0 0 0-.708l-2-2a.5.5 0 0 0-.708.708l1.145 1.145A28.16 28.16 0 0 1 10 15c-2.04 0-3.87-.221-5.174-.569-.656-.175-1.151-.374-1.47-.575-.344-.217-.356-.35-.356-.356 0-.006.012-.139.356-.355.277-.175.686-.348 1.217-.505a3.013 3.013 0 0 1-.904-.751Zm9.395.29c.274-.26.5-.572.66-.92.626.093 1.2.21 1.708.345.702.187 1.305.418 1.745.696.415.261.823.655.823 1.201s-.408.94-.823 1.201c-.44.278-1.043.51-1.745.696-.266.071-.55.137-.85.197a.49.49 0 0 1-.582-.486c0-.245.176-.453.415-.5.27-.055.523-.114.76-.177.655-.175 1.15-.374 1.469-.575.344-.217.356-.35.356-.356 0-.006-.012-.139-.356-.355-.319-.202-.814-.401-1.47-.576a15.734 15.734 0 0 0-2.11-.391Z"/></svg>