<svg xmlns="http://www.w3.org/2000/svg" width="24" height="24" viewBox="0 0 24 24"><path d="M5 17.749v-3.766l4.06 2.653a5.375 5.375 0 0 0 5.88 0L19 13.983v3.766a.75.75 0 0 1-.15.45l-.001.002-.001.001-.003.004-.009.01-.012.016-.013.017-.086.101a5.297 5.297 0 0 1-.317.33c-.277.267-.69.614-1.25.958-1.122.69-2.82 1.361-5.158 1.361-2.339 0-4.036-.67-5.159-1.361a7.432 7.432 0 0 1-1.25-.957 5.285 5.285 0 0 1-.427-.464l-.009-.01-.003-.005V18.2A.756.756 0 0 1 5 17.75Zm17.16-7.622-8.04 5.253a3.875 3.875 0 0 1-4.24 0L3 10.885v5.364a.75.75 0 0 1-1.5 0v-6.25c0-.088.015-.172.043-.25a.75.75 0 0 1 .302-.881l8.064-5.17a3.875 3.875 0 0 1 4.182 0l8.064 5.17a.75.75 0 0 1 .005 1.259Z"/></svg>