<svg xmlns="http://www.w3.org/2000/svg" width="28" height="28"><path d="M22 5.75V20.5a.5.5 0 0 0 .992.09L23 20.5V7h1.25a1.75 1.75 0 0 1 1.744 1.606L26 8.75v12a3.25 3.25 0 0 1-3.066 3.245L22.75 24H5.25a3.25 3.25 0 0 1-3.245-3.066L2 20.75v-15a1.75 1.75 0 0 1 1.606-1.744L3.75 4h16.5a1.75 1.75 0 0 1 1.744 1.606L22 5.75V20.5 5.75ZM9.747 13.004H7.25a1.75 1.75 0 0 0-1.744 1.606l-.006.144v2.496a1.75 1.75 0 0 0 1.606 1.744L7.25 19h2.497a1.75 1.75 0 0 0 1.744-1.607l.005-.143v-2.496a1.75 1.75 0 0 0-1.606-1.745l-.143-.005ZM17.75 17.5h-3.5l-.102.007a.75.75 0 0 0 0 1.486l.102.007h3.5l.102-.007a.75.75 0 0 0 0-1.486l-.102-.007Zm-10.5-2.996h2.497a.25.25 0 0 1 .243.192l.007.058v2.496a.25.25 0 0 1-.193.243l-.057.007H7.25a.25.25 0 0 1-.243-.193L7 17.25v-2.496a.25.25 0 0 1 .193-.244l.057-.006h2.497H7.25Zm10.5-1.5h-3.5l-.102.006a.75.75 0 0 0 0 1.487l.102.007h3.5l.102-.007a.75.75 0 0 0 0-1.487l-.102-.006Zm0-4.507H6.25l-.102.007a.75.75 0 0 0 0 1.486l.102.007h11.5l.102-.007a.75.75 0 0 0 0-1.486l-.102-.007Z"/></svg>