<svg xmlns="http://www.w3.org/2000/svg" width="32" height="32" viewBox="0 0 32 32"><path d="M23 3a2 2 0 0 1 2-2h4a2 2 0 0 1 2 2v6a2 2 0 0 1-2 2h-1v19a1 1 0 1 1-2 0V11h-1a2 2 0 0 1-2-2V3Zm-1.5 0H10.406a4 4 0 0 0-3.904 3.132L5.864 9H5a1 1 0 0 0 0 2h.42l-.33 1.485A4 4 0 0 0 3 16v10a3 3 0 0 0 3 3h1a3 3 0 0 0 3-3v-1h12v1a3 3 0 0 0 2.5 2.959v-2.093A1 1 0 0 1 24 26v-1h.5v-2H5v-7a2 2 0 0 1 2-2h17.5v-1.535A3.48 3.48 0 0 1 23.196 12H7.246l1.208-5.434A2 2 0 0 1 10.406 5H21.5V3ZM5 26v-1h3v1a1 1 0 0 1-1 1H6a1 1 0 0 1-1-1Zm7.5-6a1 1 0 0 1 1-1h5a1 1 0 1 1 0 2h-5a1 1 0 0 1-1-1Zm-3-1a1.5 1.5 0 1 0 0-3 1.5 1.5 0 0 0 0 3ZM24 17.5a1.5 1.5 0 1 1-3 0 1.5 1.5 0 0 1 3 0Z"/></svg>