<svg xmlns="http://www.w3.org/2000/svg" width="20" height="20" viewBox="0 0 20 20"><path d="M14.5 1c.276 0 .5.222.5.497 0 .463.073 1.219.472 1.846.375.588 1.083 1.136 2.528 1.136.276 0 .5.222.5.497a.499.499 0 0 1-.5.497c-.369 0-1.14.223-1.82.742-.663.505-1.18 1.241-1.18 2.24a.499.499 0 0 1-.5.496.499.499 0 0 1-.5-.497c0-.5-.155-1.261-.606-1.884-.432-.596-1.157-1.097-2.394-1.097a.499.499 0 0 1-.5-.497c0-.275.224-.497.5-.497.512 0 1.255-.01 1.873-.367C13.437 3.785 14 3.1 14 1.497c0-.275.224-.497.5-.497Zm.04 2.73a2.947 2.947 0 0 1-1.328 1.329c.409.254.736.576.994.93.13.18.24.366.334.554a4.21 4.21 0 0 1 1.03-1.117c.157-.12.32-.228.485-.325a3.224 3.224 0 0 1-1.514-1.37Zm-7.255 6.8A4.457 4.457 0 0 1 5.5 6.963c0-2.47 2.015-4.472 4.5-4.472.9 0 1.739.263 2.442.715.11-.077.22-.19.315-.374.06-.12.122-.28.167-.5A5.499 5.499 0 0 0 10 1.498c-3.038 0-5.5 2.447-5.5 5.466 0 1.666.75 3.157 1.931 4.16l-1.218 4.439c-.17.62.077 1.345.74 1.64 1.637.727 4.65 1.351 7.97.009.71-.288 1.02-1.064.814-1.75l-1.258-4.168a.49.49 0 0 0-.028-.073 5.507 5.507 0 0 0 1.162-1.28 1.5 1.5 0 0 1-1.013-.294 4.503 4.503 0 0 1-3.6 1.79 4.498 4.498 0 0 1-2.715-.905Zm5.3 1.26 1.194 3.958c.073.24-.044.466-.234.542-3.013 1.22-5.739.647-7.184.004-.143-.063-.245-.245-.183-.47l1.124-4.096A5.501 5.501 0 0 0 10 12.43c.934 0 1.814-.232 2.585-.64Z"/></svg>