<svg xmlns="http://www.w3.org/2000/svg" width="16" height="16" viewBox="0 0 16 16"><path d="M2.5 0A2.5 2.5 0 0 0 0 2.5v7A2.5 2.5 0 0 0 2.5 12h3.522A5.5 5.5 0 0 1 12 6.022V2.5A2.5 2.5 0 0 0 9.5 0h-7Zm6.354 4.854-3.5 3.5a.5.5 0 0 1-.708 0l-1.5-1.5a.5.5 0 1 1 .708-.708L5 7.293l3.146-3.147a.5.5 0 1 1 .708.708ZM7 11.5a4.5 4.5 0 1 0 9 0 4.5 4.5 0 0 0-9 0Zm6.5-3a.5.5 0 0 1 .5.5v1.5a.5.5 0 0 1-.5.5H12a.5.5 0 0 1 0-1h.468a1.982 1.982 0 0 0-.933-.25 2 2 0 0 0-1.45.586.5.5 0 0 1-.706-.707A3 3 0 0 1 13 9.152V9a.5.5 0 0 1 .5-.5Zm-.876 5.532A2.999 2.999 0 0 1 10 13.848V14a.5.5 0 0 1-1 0v-1.5a.5.5 0 0 1 .5-.5H11a.5.5 0 0 1 0 1h-.468a1.999 1.999 0 0 0 2.383-.336.5.5 0 0 1 .706.707c-.285.285-.624.51-.997.66Z"/></svg>