<svg xmlns="http://www.w3.org/2000/svg" width="32" height="32" viewBox="0 0 32 32"><path d="M15.445 2.168a1 1 0 0 1 1.11 0c2.916 1.944 6.76 3.859 11.544 4.337A1 1 0 0 1 29 7.5V16c0 3.88-2.124 7.17-4.701 9.546-2.572 2.372-5.737 3.971-8.115 4.417l-.184.034-.184-.034c-2.378-.446-5.543-2.045-8.115-4.417C5.124 23.17 3 19.88 3 16V7.5a1 1 0 0 1 .9-.995c4.785-.478 8.63-2.393 11.545-4.337ZM5 8.388V16c0 3.12 1.715 5.916 4.057 8.076 2.275 2.098 5.007 3.47 6.943 3.884 1.936-.415 4.668-1.786 6.943-3.884C25.285 21.916 27 19.12 27 16V8.388c-4.496-.616-8.166-2.38-11-4.194-2.834 1.814-6.504 3.578-11 4.194Z"/></svg>