<svg xmlns="http://www.w3.org/2000/svg" width="20" height="20" viewBox="0 0 20 20"><path d="M10.244 3.012a.5.5 0 0 0-.39.186l-.089.066C8.04 2.73 6.072 3.122 4.702 4.442a4.692 4.692 0 0 0-1.374 4.31 1.65 1.65 0 0 0-.05.046l-.779.75a1.53 1.53 0 0 0 0 2.22c.398.384.95.528 1.463.432.063.289.21.564.443.788.307.296.706.449 1.108.46.011.387.17.771.477 1.067.307.296.707.45 1.109.46.01.387.17.772.477 1.068a1.676 1.676 0 0 0 2.202.092l.437.42c.64.617 1.678.617 2.318 0 .306-.294.465-.676.479-1.062a1.65 1.65 0 0 0 1.1-.459c.306-.295.465-.677.477-1.063a1.655 1.655 0 0 0 1.087-.459c.243-.233.393-.522.451-.824a1.669 1.669 0 0 0 1.44-.436 1.53 1.53 0 0 0 0-2.221l-.72-.693.147-.55a4.49 4.49 0 0 0-.42-3.336c-.836-1.506-2.458-2.436-4.212-2.436h-1.23a3.263 3.263 0 0 0-.159-.004h-.729Zm2.453 3.716 2.405 2.317.003.002 1.741 1.678a.574.574 0 0 1 0 .833.629.629 0 0 1-.865 0l-1.321-1.272a.52.52 0 0 0-.72 0l-.014.012a.478.478 0 0 0 0 .694l1.03.992c.24.23.24.604 0 .835a.63.63 0 0 1-.8.055.524.524 0 0 0-.669.046.477.477 0 0 0-.041.645.574.574 0 0 1-.054.775.63.63 0 0 1-.81.048.524.524 0 0 0-.674.038.477.477 0 0 0-.043.648.582.582 0 0 1-.053.788.637.637 0 0 1-.877 0l-.433-.417.158-.152a1.53 1.53 0 0 0 0-2.221 1.656 1.656 0 0 0-1.108-.46 1.538 1.538 0 0 0-.477-1.068 1.656 1.656 0 0 0-1.109-.459 1.538 1.538 0 0 0-.477-1.068 1.67 1.67 0 0 0-1.463-.431 1.547 1.547 0 0 0-.443-.788 1.664 1.664 0 0 0-1.292-.454 3.738 3.738 0 0 1 1.13-3.208A4.061 4.061 0 0 1 8.708 4.04L7.253 5.11a1.703 1.703 0 0 0-.33 2.44 1.809 1.809 0 0 0 2.477.336l1.576-1.157h1.72Zm-4.852-.813 2.592-1.903h.536a2.261 2.261 0 0 1 .147.004h1.242c1.404 0 2.685.745 3.338 1.922.442.796.558 1.721.327 2.594l-.003.01-2.76-2.667a.5.5 0 0 0-.353-.147h-2.1a.5.5 0 0 0-.295.097L8.808 7.079a.809.809 0 0 1-1.1-.149.703.703 0 0 1 .137-1.015Zm.442 8.61.01-.01.778-.75.009-.008a.629.629 0 0 1 .856.009.574.574 0 0 1 0 .833l-.779.75a.629.629 0 0 1-.865 0 .574.574 0 0 1-.01-.824Zm.077-1.462-.01.009-.778.75-.01.009a.629.629 0 0 1-.855-.01.574.574 0 0 1-.007-.826l.007-.007.778-.75.007-.007a.629.629 0 0 1 .858.007.574.574 0 0 1 .01.825Zm-1.595-1.519-.779.75-.007.007a.629.629 0 0 1-.858-.007.574.574 0 0 1 0-.833l.778-.75a.629.629 0 0 1 .866 0 .574.574 0 0 1 .007.827l-.007.006Zm-1.906-1.219-.778.75a.628.628 0 0 1-.866 0 .574.574 0 0 1 0-.834l.779-.75a.629.629 0 0 1 .865 0 .574.574 0 0 1 0 .834Z"/></svg>