<svg xmlns="http://www.w3.org/2000/svg" width="16" height="17" viewBox="0 0 16 17"><path d="M9 1v3.5A1.5 1.5 0 0 0 10.5 6H14v7.5a1.5 1.5 0 0 1-1.5 1.5H9.327A2 2 0 0 0 10 13.504V13h1.5a.5.5 0 0 0 0-1H10v-1h1.5a.5.5 0 0 0 0-1H10v-.5c0-.171-.022-.339-.063-.5H11.5a.5.5 0 0 0 0-1H9.323a1.999 1.999 0 0 0-.429-.289l-3-1.5a2 2 0 0 0-1.788 0L4 6.264V2.5A1.5 1.5 0 0 1 5.5 1H9Zm1 .25V4.5a.5.5 0 0 0 .5.5h3.25L10 1.25ZM8.447 8.606l-3-1.5a1 1 0 0 0-.894 0l-3 1.5A1 1 0 0 0 1 9.5v4.004a1 1 0 0 0 .553.894l3 1.5a1 1 0 0 0 .894 0l3-1.5A1 1 0 0 0 9 13.504V9.5a1 1 0 0 0-.553-.894ZM2.04 9.732a.5.5 0 0 1 .657-.263L5 10.456l2.303-.987a.5.5 0 0 1 .394.92l-2.197.94V14a.5.5 0 1 1-1 0v-2.67l-2.197-.942a.5.5 0 0 1-.263-.656Z"/></svg>