<svg xmlns="http://www.w3.org/2000/svg" width="20" height="20"><path d="M17.78 3.28a.75.75 0 0 0-1.06-1.06l-2.446 2.445a4.037 4.037 0 0 0-5.128.481l-.3.3a1.49 1.49 0 0 0 0 2.108l2.465 2.464a5.51 5.51 0 0 1 4.552-.848 4.041 4.041 0 0 0-.528-3.444L17.78 3.28ZM7.554 8.846l2.464 2.465a5.51 5.51 0 0 0-.848 4.552 4.041 4.041 0 0 1-3.444-.528L3.28 17.78a.75.75 0 0 1-1.06-1.06l2.446-2.446a4.037 4.037 0 0 1 .48-5.128l.3-.3a1.49 1.49 0 0 1 2.108 0ZM17 18.242a4.5 4.5 0 1 1-5-7.484 4.5 4.5 0 0 1 5 7.484Zm-2.146-6.096A.5.5 0 0 0 14 12.5V14h-1.5a.5.5 0 0 0 0 1H14v1.5a.5.5 0 0 0 1 0V15h1.5a.5.5 0 0 0 0-1H15v-1.5a.5.5 0 0 0-.146-.354Z"/></svg>