<svg xmlns="http://www.w3.org/2000/svg" width="16" height="16"><path d="M6 5.5a4.5 4.5 0 1 0 9 0 4.5 4.5 0 0 0-9 0Zm6.5-3a.5.5 0 0 1 .5.5v1.5a.5.5 0 0 1-.5.5H11a.5.5 0 0 1 0-1h.468a1.982 1.982 0 0 0-.933-.25 2 2 0 0 0-1.45.586.5.5 0 0 1-.706-.707A3 3 0 0 1 12 3.152V3a.5.5 0 0 1 .5-.5Zm-.876 5.532A3 3 0 0 1 9 7.848V8a.5.5 0 0 1-1 0V6.5a.5.5 0 0 1 .5-.5H10a.5.5 0 0 1 0 1h-.468a2 2 0 0 0 2.382-.336.5.5 0 1 1 .707.707 3 3 0 0 1-.997.66ZM10.5 11c.058 0 .117 0 .174-.003H12a1 1 0 0 0 .89-.542A5.508 5.508 0 0 0 14 9.743v.254a2 2 0 0 1-2 2h-1.997V13h1.5a.5.5 0 1 1 0 1H4.505a.5.5 0 0 1 0-1h1.499v-1.003H4a2 2 0 0 1-2-2V4a2 2 0 0 1 2-2h2.257A5.508 5.508 0 0 0 5.6 3H4a1 1 0 0 0-1 1v5.997a1 1 0 0 0 1 1h6.326c.057.002.116.003.174.003Zm-1.497.997H7.005V13h1.998v-1.003Z"/></svg>