<svg xmlns="http://www.w3.org/2000/svg" width="20" height="20"><path d="M16 10.4v.6h-3.5a.5.5 0 0 0-.5.498v.013l-.004.06a2.57 2.57 0 0 1-.256.955 1.694 1.694 0 0 1-.572.667c-.26.174-.63.307-1.168.307-.538 0-.907-.133-1.168-.307a1.694 1.694 0 0 1-.572-.667A2.572 2.572 0 0 1 8 11.511V11.5a.5.5 0 0 0-.5-.5H4V7a2 2 0 0 1 2-2h2.022a5.48 5.48 0 0 1 .185-1H6a3 3 0 0 0-3 3v8a3 3 0 0 0 3 3h8a3 3 0 0 0 3-3V9.743a5.507 5.507 0 0 1-1 .657Zm-2.5-.4a4.5 4.5 0 1 0 0-9 4.5 4.5 0 0 0 0 9Zm-2.354-4.146a.5.5 0 0 1 .708-.708L13 6.293V3.5a.5.5 0 0 1 1 0v2.793l1.146-1.147a.5.5 0 0 1 .708.708l-2 2a.499.499 0 0 1-.351.146h-.006a.498.498 0 0 1-.348-.144l-.003-.003-2-2Z"/></svg>