<svg xmlns="http://www.w3.org/2000/svg" width="20" height="20" viewBox="0 0 20 20"><path d="M5 3a2 2 0 0 0-2 2v10a2 2 0 0 0 2 2h10a2 2 0 0 0 2-2V5a2 2 0 0 0-2-2H5Zm11 9.92c-.835-.143-1.423-.47-1.862-.88-.614-.572-.987-1.354-1.292-2.208-.105-.293-.197-.58-.289-.867l-.13-.406a8.915 8.915 0 0 0-.464-1.189c-.182-.363-.414-.708-.738-.963A1.93 1.93 0 0 0 10 6c-.482 0-.889.144-1.225.407-.324.255-.556.6-.738.963a8.926 8.926 0 0 0-.463 1.189l-.132.406c-.092.287-.183.574-.288.867-.305.854-.678 1.636-1.292 2.209-.44.41-1.027.736-1.862.88V5a1 1 0 0 1 1-1h10a1 1 0 0 1 1 1v7.92ZM4 13.932c1.092-.156 1.915-.573 2.544-1.16.793-.74 1.232-1.708 1.552-2.604.11-.308.21-.622.305-.917l.123-.38a8.02 8.02 0 0 1 .408-1.054c.146-.293.297-.495.46-.623A.932.932 0 0 1 10 7c.268 0 .455.075.607.194.164.128.315.33.461.623.147.293.274.647.408 1.054l.123.38c.095.295.195.609.305.917.32.896.76 1.864 1.552 2.604.63.587 1.452 1.004 2.544 1.16V15a1 1 0 0 1-1 1H5a1 1 0 0 1-1-1v-1.068Z"/></svg>