<svg xmlns="http://www.w3.org/2000/svg" width="24" height="24"><path d="m12.82 5.58-.82.822-.824-.824A5.375 5.375 0 0 0 2.249 11h1.605a3.876 3.876 0 0 1 6.261-4.36l1.358 1.357a.75.75 0 0 0 1.073-.012L13.88 6.64A3.88 3.88 0 0 1 20.149 11h1.605a5.38 5.38 0 0 0-8.934-5.42Zm-1.35 15.495L4.894 14.5h1.963c.051 0 .102-.003.152-.007L12 19.484l4.988-4.985h2.122l-6.58 6.576a.75.75 0 0 1-1.06 0ZM9.42 8.415a.75.75 0 0 0-1.348.014l-1.69 3.57H2.75a.75.75 0 0 0 0 1.5h4.107a.75.75 0 0 0 .678-.429l1.234-2.606 2.56 5.12a.75.75 0 0 0 1.279.105l2.698-3.736 1.13 1.29A.75.75 0 0 0 17 13.5h4.25a.75.75 0 0 0 0-1.5h-3.91l-1.526-1.743a.75.75 0 0 0-1.172.054l-2.525 3.496-2.696-5.392Z"/></svg>