<svg xmlns="http://www.w3.org/2000/svg" width="20" height="20"><path d="M10 6.5V2H5.5A1.5 1.5 0 0 0 4 3.5v8.545l.252-.378a1.5 1.5 0 0 1 2.248-.286 1.5 1.5 0 0 1 2.342.447L10 14.146l1.159-2.316a1.5 1.5 0 0 1 2.341-.448 1.5 1.5 0 0 1 2.5 1.087V8h-4.5A1.5 1.5 0 0 1 10 6.5Zm1 0V2.25L15.75 7H11.5a.5.5 0 0 1-.5-.5ZM3.5 18a.5.5 0 0 0 .5-.5v-1.85l1.916-2.874a.5.5 0 0 0-.832-.555L3.5 14.6l-1.584-2.377a.5.5 0 0 0-.832.555L3 15.65v1.85a.5.5 0 0 0 .5.5Zm4.447-5.724A.5.5 0 0 0 7 12.5v5a.5.5 0 1 0 1 0v-2.882l1.553 3.105a.5.5 0 0 0 .894 0L12 14.618V17.5a.5.5 0 1 0 1 0v-5a.5.5 0 0 0-.947-.224L10 16.382l-2.053-4.106ZM15 12.5a.5.5 0 0 0-1 0v5a.5.5 0 0 0 .5.5h3a.5.5 0 1 0 0-1H15v-4.5Z"/></svg>