<svg xmlns="http://www.w3.org/2000/svg" width="20" height="20" viewBox="0 0 20 20"><path d="M19 5.5a4.5 4.5 0 1 1-9 0 4.5 4.5 0 0 1 9 0Zm-4-2a.5.5 0 0 0-1 0V5h-1.5a.5.5 0 0 0 0 1H14v1.5a.5.5 0 0 0 1 0V6h1.5a.5.5 0 0 0 0-1H15V3.5Zm-.5 7.5c1.33 0 2.55-.472 3.5-1.257V16a2 2 0 0 1-2 2h-5.5V9.275a5.485 5.485 0 0 0 4 1.725Zm-5-3.206A5.466 5.466 0 0 1 9.022 6H4a2 2 0 0 0-2 2v8a2 2 0 0 0 2 2h5.5V7.794ZM6 15.5a.5.5 0 0 1 .5-.5h1a.5.5 0 0 1 0 1h-1a.5.5 0 0 1-.5-.5Zm6.5-.5a.5.5 0 0 0 0 1h1a.5.5 0 0 0 0-1h-1Z"/></svg>