<svg xmlns="http://www.w3.org/2000/svg" width="48" height="48"><path d="M24.001 14.5a5.25 5.25 0 1 0 0-10.5 5.25 5.25 0 0 0 0 10.5ZM11.71 10.258a4.25 4.25 0 0 0-2.907 7.987l7.872 2.865a.5.5 0 0 1 .329.47v4.438c0 .353-.068.703-.2 1.03l-4.49 11.112a4.25 4.25 0 1 0 7.882 3.184l1.229-3.04A13.021 13.021 0 0 1 21 35c0-6.149 4.269-11.3 10.005-12.653v-.768a.5.5 0 0 1 .329-.47l7.872-2.864a4.25 4.25 0 1 0-2.908-7.988l-3.812 1.388c-.82.298-1.422.896-1.805 1.544a7.747 7.747 0 0 1-6.677 3.81 7.747 7.747 0 0 1-6.677-3.81c-.384-.648-.986-1.246-1.806-1.544l-3.812-1.387ZM45 35c0 6.075-4.925 11-11 11s-11-4.925-11-11 4.925-11 11-11 11 4.925 11 11Zm-4.293-4.707a1 1 0 0 0-1.414 0L32 37.586l-3.293-3.293a1 1 0 0 0-1.414 1.414l4 4a1 1 0 0 0 1.414 0l8-8a1 1 0 0 0 0-1.414Z"/></svg>