<svg xmlns="http://www.w3.org/2000/svg" width="16" height="16"><path d="M12.25 2.5a.75.75 0 1 1-1.5 0 .75.75 0 0 1 1.5 0ZM7 3a2.5 2.5 0 0 0-2.5 2.5 2 2 0 0 0 2 2A1.5 1.5 0 0 0 8 6a1 1 0 0 0-1-1 .5.5 0 0 0 0 1 .5.5 0 0 1-.5.5 1 1 0 0 1-1-1A1.5 1.5 0 0 1 7 4a2 2 0 0 1 2 2 2.5 2.5 0 0 1-2.5 2.5.5.5 0 0 0 0 1A3.5 3.5 0 0 0 10 6a3 3 0 0 0-3-3ZM3.853 8h.988c.121.08.248.152.38.215A1.5 1.5 0 0 0 6.5 10.5 4.5 4.5 0 0 0 10.533 8h.613a2 2 0 0 1 .895.211l1.683.842a.5.5 0 1 1-.448.894L12 9.31V12a2 2 0 0 1-2 2H5a2 2 0 0 1-2-2V9.309l-1.276.638a.5.5 0 1 1-.447-.894l1.683-.842A2 2 0 0 1 3.853 8ZM14 4.5a.5.5 0 0 0-1 0V5h-.5a.5.5 0 0 0 0 1h.5v.5a.5.5 0 0 0 1 0V6h.5a.5.5 0 0 0 0-1H14v-.5Z"/></svg>