<svg xmlns="http://www.w3.org/2000/svg" width="16" height="16" viewBox="0 0 16 16"><path d="M11 5.5a5.5 5.5 0 0 1-6.97 5.301A1.5 1.5 0 0 0 5.5 12h7a1.5 1.5 0 0 0 1.5-1.5v-4A1.5 1.5 0 0 0 12.5 5h-1.522c.014.165.022.331.022.5Zm-8 8a.5.5 0 0 1 .5-.5h11a.5.5 0 0 1 0 1h-11a.5.5 0 0 1-.5-.5ZM5.5 10a4.5 4.5 0 1 0 0-9 4.5 4.5 0 0 0 0 9Zm1.854-6.354a.5.5 0 0 1 0 .708L6.207 5.5l1.147 1.146a.5.5 0 1 1-.708.708L5.5 6.207 4.354 7.354a.5.5 0 1 1-.708-.708L4.793 5.5 3.646 4.354a.5.5 0 1 1 .708-.708L5.5 4.793l1.146-1.147a.5.5 0 0 1 .708 0Z"/></svg>