<svg xmlns="http://www.w3.org/2000/svg" width="48" height="48"><path d="M13.05 6.09C15.917 4.778 19.79 4 24 4c4.21 0 8.083.778 10.95 2.09C37.707 7.352 40 9.35 40 12c0 2.651-2.293 4.648-5.05 5.91C32.083 19.22 28.21 20 24 20c-4.21 0-8.083-.779-10.95-2.09C10.293 16.648 8 14.65 8 12c0-2.651 2.293-4.648 5.05-5.91ZM8 17.524c1.206 1.174 2.677 2.05 4.01 2.659C15.272 21.676 19.515 22.5 24 22.5s8.728-.824 11.99-2.317c1.333-.61 2.804-1.485 4.01-2.659V36.25h-.007c-.139 2.527-2.373 4.438-5.043 5.66C32.083 43.222 28.21 44 24 44c-4.21 0-8.083-.779-10.95-2.09-2.67-1.222-4.904-3.133-5.043-5.66H8V17.524Z"/></svg>