<svg xmlns="http://www.w3.org/2000/svg" width="48" height="48" viewBox="0 0 48 48"><path d="M24 16c-5.799 0-10.5 4.701-10.5 10.5S18.201 37 24 37s10.5-4.701 10.5-10.5S29.799 16 24 16Zm-8 10.5a8 8 0 0 1 15.892-1.316l-.023.025c-.462.496-.94 1.01-1.82 1.389-1.064.46-2.819.733-5.847-.024-3.38-.845-5.657-.342-7.25.645a7.034 7.034 0 0 0-.842.614A8.052 8.052 0 0 1 16 26.5Zm2-14.25a2 2 0 1 1-4 0 2 2 0 0 1 4 0ZM25.25 11a1.25 1.25 0 1 0 0 2.5h7.5a1.25 1.25 0 1 0 0-2.5h-7.5Zm-13-5A6.25 6.25 0 0 0 6 12.25v23.5A6.25 6.25 0 0 0 12.25 42h23.5A6.25 6.25 0 0 0 42 35.75v-23.5A6.25 6.25 0 0 0 35.75 6h-23.5ZM8.5 12.25a3.75 3.75 0 0 1 3.75-3.75h23.5a3.75 3.75 0 0 1 3.75 3.75v23.5a3.75 3.75 0 0 1-3.75 3.75h-23.5a3.75 3.75 0 0 1-3.75-3.75v-23.5Z"/></svg>