<svg xmlns="http://www.w3.org/2000/svg" width="24" height="24"><path d="M7.5 11.5v-2h9v2h-9ZM4 3a2 2 0 0 0-1 3.732V20.25c0 .414.336.75.75.75H6v-5.25a.75.75 0 0 1 .75-.75h4a.75.75 0 0 1 .75.75V21h8.75a.75.75 0 0 0 .75-.75V6.732A2 2 0 0 0 20 3H4Zm-.5 2a.5.5 0 0 1 .5-.5h16a.5.5 0 0 1 0 1H4a.5.5 0 0 1-.5-.5Zm3.25 3h10.5a.75.75 0 0 1 .75.75v3.5a.75.75 0 0 1-.75.75H6.75a.75.75 0 0 1-.75-.75v-3.5A.75.75 0 0 1 6.75 8Zm8 7h2.5a.75.75 0 0 1 .75.75v2.5a.75.75 0 0 1-.75.75h-2.5a.75.75 0 0 1-.75-.75v-2.5a.75.75 0 0 1 .75-.75ZM10 16.5V21H7.5v-4.5H10Z"/></svg>