<svg xmlns="http://www.w3.org/2000/svg" width="16" height="16" viewBox="0 0 16 16"><path d="M13.854 2.146a.5.5 0 0 1 0 .708L10.707 6h1.796a.5.5 0 1 1 0 1H9.5a.5.5 0 0 1-.5-.5v-3a.5.5 0 1 1 1 0v1.793l3.147-3.147a.5.5 0 0 1 .707 0Zm-9.48-.026a1.75 1.75 0 0 1 2.196.886l.567 1.19a1.5 1.5 0 0 1-.249 1.658L5.572 7.291a4.914 4.914 0 0 0 .505 1.238 4.618 4.618 0 0 0 .848 1.046l1.877-.489a1.5 1.5 0 0 1 1.462.414l.775.809a1.75 1.75 0 0 1-.062 2.483l-.296.28c-1.126 1.063-2.88 1.29-4.135.247-.94-.782-2.068-1.88-2.918-3.213-.94-1.477-1.38-3.23-1.588-4.55-.237-1.506.72-2.83 2.071-3.337l.263-.1Zm0 0 .176.468Z"/></svg>