<svg xmlns="http://www.w3.org/2000/svg" width="48" height="48" viewBox="0 0 48 48"><path d="M12 18.5c0-6.627 5.373-12 12-12s12 5.373 12 12c0 3.504-1.5 6.657-3.898 8.852-.715.655-1.334 1.519-1.604 2.572L29.325 34.5h-10.65l-1.173-4.576c-.27-1.053-.89-1.917-1.604-2.572A11.965 11.965 0 0 1 12 18.5ZM19.316 37h9.368l-.72 2.809a2.25 2.25 0 0 1-2.18 1.691h-3.568a2.25 2.25 0 0 1-2.18-1.691L19.316 37ZM24 4C15.992 4 9.5 10.492 9.5 18.5c0 4.235 1.817 8.047 4.71 10.696.448.41.748.873.87 1.349l2.535 9.885a4.75 4.75 0 0 0 4.6 3.57h3.57a4.75 4.75 0 0 0 4.6-3.57l2.535-9.885c.122-.476.422-.938.87-1.35A14.465 14.465 0 0 0 38.5 18.5C38.5 10.492 32.008 4 24 4Z"/></svg>