<svg xmlns="http://www.w3.org/2000/svg" width="28" height="28"><path d="M3 11.396v9.354A4.25 4.25 0 0 0 7.25 25h7.25a7.486 7.486 0 0 1-.876-1.5H7.25a2.75 2.75 0 0 1-2.75-2.75v-9.354a2.753 2.753 0 0 1-1.5 0ZM25 7.25v7.25a7.486 7.486 0 0 0-1.5-.876V7.25a2.75 2.75 0 0 0-2.75-2.75H7.25a2.75 2.75 0 0 0-2.532 1.675 2.744 2.744 0 0 0-1.55-.113A4.252 4.252 0 0 1 7.25 3h13.5A4.25 4.25 0 0 1 25 7.25ZM9.75 15h5.65a7.535 7.535 0 0 0-1.245 1.5H9.75a.75.75 0 0 1 0-1.5ZM2 8.75a1.75 1.75 0 1 0 3.5 0 1.75 1.75 0 0 0-3.5 0ZM9.75 11a.75.75 0 0 0 0 1.5h8.5a.75.75 0 0 0 0-1.5h-8.5ZM27 20.5a6.5 6.5 0 1 1-13 0 6.5 6.5 0 0 1 13 0Zm-2.5.5a.5.5 0 0 0 0-1h-6.793l2.147-2.146a.5.5 0 0 0-.708-.708l-3 3a.5.5 0 0 0-.146.351v.006c0 .127.05.254.146.35l3 3a.5.5 0 0 0 .708-.707L17.707 21H24.5Z"/></svg>