<svg xmlns="http://www.w3.org/2000/svg" width="24" height="24"><path d="M12 2v6a2 2 0 0 0 2 2h6v10a2 2 0 0 1-2 2h-6.533c.324-.42.533-.92.533-1.5v-6.207l-.009.007c-.057-.664-.4-1.223-.836-1.65-.476-.466-1.11-.826-1.803-1.086a8.664 8.664 0 0 0-1.697-.437A10.685 10.685 0 0 0 6 11c-.695 0-1.37.065-2 .187V4a2 2 0 0 1 2-2h6Zm-1 18.5c0 .563-.372 1.082-1 1.5-.912.607-2.364 1-4 1-2.05 0-3.812-.617-4.584-1.5-.268-.306-.416-.644-.416-1v-4.008c.31.27.663.493 1.017.67.576.288 1.25.509 1.983.65a10.534 10.534 0 0 0 2.214.186 10.68 10.68 0 0 0 1.826-.193 8.592 8.592 0 0 0 .96-.247c.35-.112.68-.245.983-.396l.017-.008.018-.01c.342-.174.683-.391.982-.652V20.5ZM6 17a9.423 9.423 0 0 1-2-.208c-1.766-.386-3-1.267-3-2.292s1.234-1.906 3-2.292A9.424 9.424 0 0 1 6 12c.523 0 1.026.04 1.5.114A7.684 7.684 0 0 1 9 12.5c1.214.456 2 1.182 2 2 0 .428-.215.83-.594 1.182a3.826 3.826 0 0 1-.871.585A5.37 5.37 0 0 1 9 16.5a7.32 7.32 0 0 1-1.067.306 8.581 8.581 0 0 1-.553.098l-.02.002A9.706 9.706 0 0 1 6 17Zm7.5-14.5V8a.5.5 0 0 0 .5.5h5.5l-6-6Z"/></svg>