<svg xmlns="http://www.w3.org/2000/svg" width="20" height="20" viewBox="0 0 20 20"><path d="M9.5 3.5v-1a.5.5 0 0 1 1 0v1a.5.5 0 0 1-1 0ZM7 8a3 3 0 1 1 6 0 3 3 0 0 1-6 0Zm2.5 4.5v1a.5.5 0 0 0 1 0v-1a.5.5 0 0 0-1 0ZM4.5 8a.5.5 0 0 0 0 1h1a.5.5 0 0 0 0-1h-1Zm11 1h-1a.5.5 0 0 1 0-1h1a.5.5 0 0 1 0 1ZM6.146 5.854a.5.5 0 1 0 .708-.708l-1-1a.5.5 0 1 0-.708.708l1 1Zm.708 5.292a.5.5 0 0 0-.708 0l-1 1a.5.5 0 1 0 .708.708l1-1a.5.5 0 0 0 0-.707Zm7-5.292a.5.5 0 0 1-.708-.708l1-1a.5.5 0 0 1 .708.708l-1 1Zm-.708 5.292a.5.5 0 0 1 .708 0l1 1a.5.5 0 0 1-.708.708l-1-1a.5.5 0 0 1 0-.707Zm-7.012 5.311A15.754 15.754 0 0 1 10 16c1.669 0 3.045.229 4.13.527 1.04.285 1.815.634 2.324.908a6.899 6.899 0 0 1 .7.43l.03.022.004.004a.5.5 0 0 0 .624-.782l-.002-.002-.005-.003-.013-.01-.047-.035a7.914 7.914 0 0 0-.818-.505 12.17 12.17 0 0 0-2.532-.992C13.227 15.242 11.761 15 10 15c-1.621 0-2.992.205-4.111.488a12.457 12.457 0 0 0-2.744 1.027 8.123 8.123 0 0 0-.702.413 4.838 4.838 0 0 0-.233.164l-.015.012-.004.003-.002.002h-.001a.5.5 0 0 0 .624.782l.006-.005.032-.024a7.115 7.115 0 0 1 .76-.462 11.448 11.448 0 0 1 2.524-.943Z"/></svg>