<svg xmlns="http://www.w3.org/2000/svg" width="24" height="24" viewBox="0 0 24 24"><path d="M7.75 16a1.25 1.25 0 1 0 0-2.5 1.25 1.25 0 0 0 0 2.5Zm5.5-1.25a1.25 1.25 0 1 1-2.5 0 1.25 1.25 0 0 1 2.5 0Zm3 1.25a1.25 1.25 0 1 0 0-2.5 1.25 1.25 0 0 0 0 2.5ZM4.873 3.633A1.75 1.75 0 0 1 6.22 3h11.56c.521 0 1.015.232 1.348.633l3.58 4.32c.676.814.097 2.047-.962 2.047H21v8.75a2.5 2.5 0 0 1-2.5 2.5h-13a2.5 2.5 0 0 1-2.5-2.5V10h-.746c-1.058 0-1.637-1.233-.962-2.048l3.581-4.319ZM6.22 4.5a.25.25 0 0 0-.192.09L2.786 8.5h18.428l-3.241-3.91a.25.25 0 0 0-.193-.09H6.22ZM4.5 10v8.75a1 1 0 0 0 1 1h13a1 1 0 0 0 1-1V10h-15Z"/></svg>