<svg xmlns="http://www.w3.org/2000/svg" width="16" height="16" viewBox="0 0 16 16"><path d="M3.57 2.76a3.707 3.707 0 0 1 1.923.037c.741.217 1.142.692 1.334 1.236.172.488.172 1.024.171 1.404v3.558a.5.5 0 0 1-1 .001v-.355a5.56 5.56 0 0 1-.501.244c-.57.24-1.31.42-2.071.187-1.701-.523-1.915-2.807-.454-3.702.708-.433 1.674-.423 2.363-.349.243.027.468.063.66.1-.008-.28-.033-.533-.111-.755-.095-.27-.268-.491-.673-.61a2.707 2.707 0 0 0-1.405-.025 2.774 2.774 0 0 0-.558.202l-.003.002a.5.5 0 0 1-.495-.869h.002l.001-.002.006-.003.015-.008.048-.025a3.773 3.773 0 0 1 .749-.269Zm2.428 3.382a7.502 7.502 0 0 0-.77-.126c-.667-.072-1.333-.039-1.734.207-.759.465-.616 1.634.225 1.893.442.135.92.045 1.389-.153a5.9 5.9 0 0 0 .89-.488V6.142Zm5.104-.631a.5.5 0 0 1 .384.594c-.049.229-.094.451-.134.668a13.104 13.104 0 0 0 1.531-.26.5.5 0 0 1 .229.974c-.606.142-1.261.247-1.923.308-.04.292-.07.572-.093.838.315-.08.616-.13.902-.151a.5.5 0 0 1 1 .018v.035c.21.041.407.103.592.182a2.363 2.363 0 0 1 1.378 1.577c.362 1.365-.457 2.967-2.291 3.673a.5.5 0 0 1-.36-.934c1.459-.56 1.89-1.708 1.684-2.483a1.364 1.364 0 0 0-.808-.915 1.859 1.859 0 0 0-.285-.096c-.226 1.273-.848 2.265-1.564 2.915.04.14.082.264.122.371a.5.5 0 0 1-.937.35 5.808 5.808 0 0 1-.044-.121c-.217.11-.436.19-.65.238-.475.106-1.02.064-1.398-.322-.56-.574-.596-1.497-.2-2.299.319-.646.922-1.249 1.83-1.673.02-.359.056-.74.106-1.142-.413.01-.82.003-1.21-.024a.5.5 0 1 1 .068-.998c.414.029.85.033 1.292.017.053-.308.115-.627.185-.956a.5.5 0 0 1 .594-.384Zm-1.063 4.641c-.46.298-.748.643-.906.962-.27.547-.157.976.019 1.156.04.04.166.113.465.046.178-.04.387-.125.606-.261-.1-.52-.172-1.152-.184-1.903Zm1.07 1.087c.35-.453.643-1.038.789-1.743a4.587 4.587 0 0 0-.859.194c-.01.593.019 1.108.07 1.55Z"/></svg>