<svg xmlns="http://www.w3.org/2000/svg" width="16" height="16"><path d="M10.622 10.999a5.494 5.494 0 0 1-1.13-.091c-.324.38-.8.592-1.492.592-.897 0-1.432-.356-1.74-.974a2.547 2.547 0 0 1-.228-.718A2.098 2.098 0 0 1 6 9.5a.5.5 0 0 0-.5-.5H3V5.5A1.5 1.5 0 0 1 4.5 4h.707c.099-.349.23-.683.393-1H4.5A2.5 2.5 0 0 0 2 5.5v7A2.5 2.5 0 0 0 4.5 15h7a2.5 2.5 0 0 0 2.5-2.5V9.743a5.507 5.507 0 0 1-1 .657v2.1a1.5 1.5 0 0 1-1.5 1.5h-7A1.5 1.5 0 0 1 3 12.5V10h2.044l.035.174c.057.252.149.524.286.8C5.838 11.919 6.71 12.5 8 12.5c1.279 0 2.147-.571 2.622-1.501ZM10.5 10a4.5 4.5 0 1 0 0-9 4.5 4.5 0 0 0 0 9ZM8.146 5.854a.5.5 0 1 1 .708-.708L10 6.293V3.5a.5.5 0 0 1 1 0v2.793l1.146-1.147a.5.5 0 0 1 .708.708l-2 2a.499.499 0 0 1-.351.146h-.006a.498.498 0 0 1-.348-.144l-.003-.003-2-2Z"/></svg>