<svg xmlns="http://www.w3.org/2000/svg" width="16" height="16" viewBox="0 0 16 16"><path d="M4.68 1c-.88 0-1.701.681-1.677 1.645.025 1.017.24 1.791.566 2.407.326.614.748 1.04 1.14 1.38.136.118.276.23.403.333l.147.12c.169.138.307.258.42.379C5.893 7.49 6 7.7 6 8s-.107.51-.319.736c-.113.12-.251.241-.42.38l-.148.119a15.86 15.86 0 0 0-.402.332c-.393.34-.815.767-1.14 1.38-.328.616-.543 1.39-.57 2.406C2.976 14.318 3.799 15 4.68 15h6.638c.881 0 1.704-.682 1.679-1.647-.027-1.016-.242-1.79-.568-2.405-.326-.614-.748-1.04-1.14-1.38-.136-.118-.275-.23-.402-.333l-.147-.12a4.359 4.359 0 0 1-.42-.379C10.107 8.51 10 8.3 10 8s.108-.51.32-.736c.114-.121.252-.241.42-.38l.148-.119c.127-.102.267-.215.403-.333.393-.34.815-.766 1.14-1.38.327-.616.542-1.39.567-2.407.022-.964-.8-1.645-1.679-1.645H4.68Zm-.678 1.62c-.008-.32.274-.62.679-.62h6.638c.404 0 .686.3.678.62-.022.884-.206 1.502-.45 1.963-.245.462-.567.795-.911 1.093-.123.106-.241.202-.363.3l-.167.135a5.325 5.325 0 0 0-.516.47C9.255 6.937 9 7.38 9 8c0 .618.254 1.062.589 1.42.16.17.341.325.516.469l.167.135c.121.098.24.194.362.3.344.298.665.63.91 1.093.245.46.43 1.078.452 1.962.008.32-.274.621-.679.621H4.68c-.405 0-.687-.301-.679-.621.023-.884.208-1.502.452-1.962.246-.462.567-.795.912-1.093.123-.106.241-.201.362-.3l.168-.135c.175-.144.356-.298.516-.47.335-.357.59-.8.59-1.42 0-.618-.256-1.061-.59-1.419a5.325 5.325 0 0 0-.517-.469 32.337 32.337 0 0 0-.167-.135c-.121-.098-.24-.194-.363-.3-.344-.298-.666-.631-.91-1.093-.245-.46-.429-1.079-.45-1.963Zm2.016 8.46.095-.08h3.772l.094.08c.296.256.517.495.682.806.13.246.256.595.31 1.114H5.025c.054-.519.18-.867.31-1.114.165-.31.386-.55.683-.805Z"/></svg>