<svg xmlns="http://www.w3.org/2000/svg" width="24" height="24" viewBox="0 0 24 24"><path d="M17.744 1.996a2.25 2.25 0 0 1 2.245 2.096l.005.154v15.498a2.25 2.25 0 0 1-2.096 2.245l-.154.005h-11.5A2.25 2.25 0 0 1 4 19.898l-.005-.154V4.246A2.25 2.25 0 0 1 6.09 2.001l.154-.005h11.5Zm0 1.5h-11.5a.75.75 0 0 0-.743.648l-.007.102v15.498c0 .38.282.694.648.743l.102.007h11.5a.75.75 0 0 0 .743-.648l.007-.102V4.246a.75.75 0 0 0-.648-.743l-.102-.007ZM13.018 16.02a.75.75 0 0 1-.623-.858l.104-.66h-1.481l-.142.895a.75.75 0 1 1-1.481-.235l.104-.66h-.75a.75.75 0 0 1 0-1.5h.988l.237-1.5H9.25a.75.75 0 0 1 0-1.5h.963l.2-1.26a.75.75 0 0 1 1.48.235L11.73 10h1.482l.2-1.259a.75.75 0 0 1 1.48.235L14.73 10h.52a.75.75 0 0 1 0 1.5h-.757l-.238 1.5h.494a.75.75 0 0 1 0 1.5h-.731l-.142.896a.75.75 0 0 1-.858.623Zm-1.525-4.52-.238 1.5h1.482l.237-1.5h-1.481Z"/></svg>