<svg xmlns="http://www.w3.org/2000/svg" width="32" height="32"><path d="M16 2C8.268 2 2 8.268 2 16s6.268 14 14 14 14-6.268 14-14S23.732 2 16 2Zm-1.686 14a1 1 0 0 1 1-1h.934C17.834 15 19 13.816 19 12.5S17.834 10 16.248 10c-.914 0-1.658.34-2.19.702a4.485 4.485 0 0 0-.75.642 1.364 1.364 0 0 0-.03.033l-.002.004a1 1 0 0 1-1.555-1.258l.002-.002.003-.004.007-.009.02-.025.069-.077c.056-.063.135-.147.237-.246a6.48 6.48 0 0 1 .875-.712C13.691 8.534 14.821 8 16.248 8 18.806 8 21 9.95 21 12.5c0 1.438-.698 2.686-1.766 3.5 1.068.814 1.766 2.062 1.766 3.5 0 2.55-2.194 4.5-4.752 4.5-1.427 0-2.557-.534-3.314-1.048a6.484 6.484 0 0 1-1.112-.958 3.44 3.44 0 0 1-.068-.077l-.021-.025-.007-.01-.003-.003-.001-.001-.001-.001a1 1 0 0 1 1.555-1.258l.003.004.03.033c.03.033.078.086.145.151.135.131.339.31.604.49.532.362 1.276.703 2.19.703C17.834 22 19 20.816 19 19.5S17.834 17 16.248 17h-.934a1 1 0 0 1-1-1Z"/></svg>