<svg xmlns="http://www.w3.org/2000/svg" width="24" height="24"><path d="M7 3.75A.75.75 0 0 0 6.25 3 3.25 3.25 0 0 0 3 6.25a.75.75 0 0 0 1.5 0c0-.966.784-1.75 1.75-1.75A.75.75 0 0 0 7 3.75Zm2 0A.75.75 0 0 1 9.75 3h4.5a.75.75 0 0 1 0 1.5h-4.5A.75.75 0 0 1 9 3.75Zm8.75.75a.75.75 0 0 1 0-1.5A3.25 3.25 0 0 1 21 6.25v1a.75.75 0 0 1-1.5 0v-1a1.75 1.75 0 0 0-1.75-1.75ZM3.75 17a.75.75 0 0 0-.75.75A3.25 3.25 0 0 0 6.25 21h1a.75.75 0 0 0 0-1.5h-1a1.75 1.75 0 0 1-1.75-1.75.75.75 0 0 0-.75-.75Zm0-2a.75.75 0 0 1-.75-.75v-4.5a.75.75 0 0 1 1.5 0v4.5a.75.75 0 0 1-.75.75Zm8.5.499h3.25v-3.25a2.25 2.25 0 0 1 2.25-2.25h3a2.25 2.25 0 0 1 2.25 2.25v7.5a3.25 3.25 0 0 1-3.25 3.25h-7.5a2.25 2.25 0 0 1-2.25-2.25v-3a2.25 2.25 0 0 1 2.25-2.25Zm4.75-3.25v3.25h4.5v-3.25a.75.75 0 0 0-.75-.75h-3a.75.75 0 0 0-.75.75Zm-1.5 9.25v-4.5h-3.25a.75.75 0 0 0-.75.75v3c0 .414.336.75.75.75h3.25Zm1.5-4.5v4.5h2.75a1.75 1.75 0 0 0 1.75-1.75v-2.75H17Z"/></svg>