<svg xmlns="http://www.w3.org/2000/svg" width="24" height="24"><path d="M17.383 15.5a2.206 2.206 0 0 1-.231-1.5h-10.9a2.249 2.249 0 0 0-2.248 2.249v.578c0 .892.318 1.756.898 2.435 1.566 1.834 3.952 2.74 7.098 2.74.39 0 .767-.015 1.133-.043a2.26 2.26 0 0 1-.008-1.503c-.36.03-.734.045-1.125.045-2.738 0-4.704-.746-5.957-2.213a2.25 2.25 0 0 1-.54-1.462v-.577a.75.75 0 0 1 .75-.75h11.13ZM12 2.005a5 5 0 1 1 0 10 5 5 0 0 1 0-10Zm0 1.5a3.5 3.5 0 1 0 0 7 3.5 3.5 0 0 0 0-7Zm6.192 10.49.476-1.205c.242-.614.92-.933 1.548-.728l.431.141c.724.237 1.326.806 1.35 1.569.1 3.11-2.476 7.583-5.213 9.055-.673.362-1.468.123-2.035-.391l-.337-.305a1.253 1.253 0 0 1-.142-1.706l.8-1.01c.29-.367.767-.53 1.22-.42l1.292.313c1.103-.73 1.694-1.756 1.774-3.079l-.917-.964a1.203 1.203 0 0 1-.247-1.27Z"/></svg>