<svg xmlns="http://www.w3.org/2000/svg" width="20" height="20"><path d="M15 3a2 2 0 0 1 2 2v4.6a5.465 5.465 0 0 0-1-.393V5a1 1 0 1 0-2 0v4.022a5.48 5.48 0 0 0-1 .185V5a2 2 0 0 1 2-2ZM9.067 15.36c.089.565.263 1.101.51 1.595A2 2 0 0 1 8 15V8a2 2 0 1 1 4 0v1.6a5.503 5.503 0 0 0-1 .657V8a1 1 0 1 0-2 0v7c0 .127.024.249.067.36ZM5 9a2 2 0 0 1 2 2v4a2 2 0 1 1-4 0v-4a2 2 0 0 1 2-2Zm1 2a1 1 0 1 0-2 0v4a1 1 0 1 0 2 0v-4Zm13 3.5a4.5 4.5 0 1 1-9 0 4.5 4.5 0 0 1 9 0Zm-4.024-2.64a.494.494 0 0 0-.952 0l-.477 1.532H12c-.484 0-.686.647-.294.944l1.25.947-.477 1.532c-.15.48.378.88.77.583l1.25-.947 1.25.947c.392.297.92-.103.77-.583l-.477-1.532 1.25-.947c.392-.297.19-.944-.294-.944h-1.545l-.478-1.531Z"/></svg>