<svg xmlns="http://www.w3.org/2000/svg" width="20" height="20"><path d="M5.5 3A2.5 2.5 0 0 0 3 5.5v3.1a5.463 5.463 0 0 1 1-.393V5.5A1.5 1.5 0 0 1 5.5 4h7A1.5 1.5 0 0 1 14 5.5v7a1.5 1.5 0 0 1-1.5 1.5h-1.522a5.489 5.489 0 0 1-.185 1H12.5a2.5 2.5 0 0 0 2.5-2.5v-1l2.4 1.8a1 1 0 0 0 1.6-.8v-7a1 1 0 0 0-1.6-.8L15 6.5v-1A2.5 2.5 0 0 0 12.5 3h-7ZM15 7.75l3-2.25v7l-3-2.25v-2.5Zm-5 5.75a4.5 4.5 0 1 1-9 0 4.5 4.5 0 0 1 9 0Zm-4-2a.5.5 0 0 0-1 0V13H3.5a.5.5 0 0 0 0 1H5v1.5a.5.5 0 0 0 1 0V14h1.5a.5.5 0 0 0 0-1H6v-1.5Z"/></svg>