<svg xmlns="http://www.w3.org/2000/svg" width="24" height="24" viewBox="0 0 24 24"><path d="M21.25 6a.75.75 0 0 0 .307-1.434l-.003-.002a1.467 1.467 0 0 1-.132-.067 4.122 4.122 0 0 1-.384-.238c-.313-.217-.663-.524-.902-.906a.75.75 0 0 0-1.272.794c.078.125.161.243.248.353H16.75a.75.75 0 0 0 0 1.5h4.5ZM6 19.5V11l-.007-.117A1 1 0 0 0 4 11v8.5l.007.116A1 1 0 0 0 6 19.5Zm6.5 0V11l-.007-.117A1 1 0 0 0 10.5 11v8.5l.007.116A1 1 0 0 0 12.5 19.5Zm6.5 0V11l-.007-.117A1 1 0 0 0 17 11v8.5l.007.116A1 1 0 0 0 19 19.5ZM13.48 5.15c.053-.3-.066-.676-.26-.87a.75.75 0 1 1 1.06-1.06c.556.556.812 1.43.677 2.192-.07.397-.254.805-.605 1.115C13.994 6.843 13.527 7 13 7c-.62 0-1.08-.271-1.42-.606-.283-.278-.511-.63-.689-.906l-.051-.08a5.882 5.882 0 0 0-.34-.481V6.25a.75.75 0 0 1-1.5 0v-2.5A.75.75 0 0 1 9.75 3c1.314 0 1.953.984 2.337 1.575l.04.06c.205.318.345.533.504.69.136.134.238.175.369.175.223 0 .318-.061.36-.098a.42.42 0 0 0 .12-.251ZM2.72 2.97s-.084.093-.005.004l-.005.006-.013.013a1.455 1.455 0 0 0-.125.15c-.07.095-.158.227-.243.397A3.26 3.26 0 0 0 2 5c0 .64.181 1.196.54 1.601.36.408.857.61 1.359.595A1.775 1.775 0 0 0 5 6.77a1.78 1.78 0 0 0 1.101.426c.502.016 1-.187 1.36-.595C7.818 6.196 8 5.64 8 5c0-.63-.158-1.119-.33-1.46a2.596 2.596 0 0 0-.334-.51 1.455 1.455 0 0 0-.033-.037L7.29 2.98l-.005-.006-.003-.002V2.97H7.28a.75.75 0 0 0-1.072 1.048 1.1 1.1 0 0 1 .121.192c.08.159.171.42.171.79 0 .36-.1.536-.164.608a.232.232 0 0 1-.187.088.325.325 0 0 1-.23-.123C5.841 5.484 5.75 5.31 5.75 5a.75.75 0 0 0-1.5 0c0 .31-.092.484-.168.573a.325.325 0 0 1-.231.123.232.232 0 0 1-.187-.088C3.6 5.536 3.5 5.361 3.5 5c0-.37.092-.631.17-.79a1.1 1.1 0 0 1 .122-.192A.75.75 0 0 0 2.72 2.97Zm4.563.002-.001-.001c.005.007.167.2 0 0Z"/></svg>