<svg xmlns="http://www.w3.org/2000/svg" width="32" height="32"><path d="M7.976 13.753a1.25 1.25 0 0 0 1.5-.964 2.471 2.471 0 0 1 .417-.77c.315-.39.876-.835 1.973-.835 1.032 0 1.753.337 2.17.785.399.429.649 1.098.482 2.07-.085.49-.326.78-.828 1.06-.436.243-.923.406-1.541.612-.249.083-.519.173-.815.278-.928.33-2.045.796-2.912 1.71C7.51 18.662 7 19.977 7 21.75A1.25 1.25 0 0 0 8.25 23h7.5a1.25 1.25 0 0 0 0-2.5H9.647c.137-.498.354-.833.589-1.08.436-.46 1.07-.768 1.934-1.075.175-.062.369-.127.574-.195.688-.228 1.505-.5 2.164-.867.967-.54 1.828-1.39 2.074-2.82.28-1.629-.112-3.118-1.116-4.197-.987-1.061-2.431-1.582-4-1.582-1.936 0-3.183.854-3.918 1.764a4.97 4.97 0 0 0-.862 1.606 3.3 3.3 0 0 0-.05.177l-.003.016-.002.007v.005c-.001.002-.132.587 0 .001a1.25 1.25 0 0 0 .945 1.493Zm12.158 2.614a1.25 1.25 0 1 0-1.768 1.767l1.366 1.366-1.366 1.367a1.25 1.25 0 1 0 1.768 1.767l1.366-1.366 1.366 1.366a1.25 1.25 0 0 0 1.768-1.767L23.268 19.5l1.366-1.366a1.25 1.25 0 0 0-1.768-1.767L21.5 17.733l-1.366-1.366Z"/></svg>