<svg xmlns="http://www.w3.org/2000/svg" width="16" height="16" viewBox="0 0 16 16"><path d="M4.683 4.258A4.981 4.981 0 0 1 8.56 3.031l-2.27 3.93a1.975 1.975 0 0 0-.023.04L4.683 4.258Zm-.708.774L6.266 9H3.1A5.023 5.023 0 0 1 3 8a4.98 4.98 0 0 1 .975-2.968ZM6.268 9ZM8 6l1.584-2.744a5.015 5.015 0 0 1 3 2.744H8Zm-.866 1.5.013-.023A1 1 0 0 1 8.866 8.5l-.013.023A1 1 0 0 1 7.133 7.5Zm2.6-.5H12.9a5.022 5.022 0 0 1-.876 3.968L9.735 7Zm0 1.999 1.583 2.743a4.981 4.981 0 0 1-3.877 1.227l2.27-3.93.023-.04ZM8 10l-1.584 2.744a5.015 5.015 0 0 1-3-2.744H8Zm0-8a6 6 0 1 0 0 12A6 6 0 0 0 8 2Zm1.734 5h-.002Z"/></svg>