<svg xmlns="http://www.w3.org/2000/svg" width="16" height="16"><path d="M12.75 5.515a.75.75 0 0 1 .617.323l.04.066a3.982 3.982 0 0 1 .585 2.35A4.493 4.493 0 0 0 12.5 8c0-.495-.144-.956-.391-1.344a.75.75 0 0 1 .641-1.141ZM8 12.5v-.056L7.555 12h.473a4.47 4.47 0 0 1 .44-1.5h-.912l.721-.72.073-.085a.75.75 0 0 0-1.133-.976L5.215 10.72l-.073.085a.75.75 0 0 0 .073.976l2.002 2.002.084.072a.75.75 0 0 0 .904-.008A4.498 4.498 0 0 1 8 12.5ZM7.72 2.218a.75.75 0 0 1 .976-.073l.084.073 2.002 2.001.073.085a.75.75 0 0 1 .007.882l-.08.094L8.78 7.282l-.084.072a.75.75 0 0 1-.882.008l-.094-.08-.073-.084a.75.75 0 0 1-.007-.883l.08-.094.721-.722H6a2.5 2.5 0 0 0-2.495 2.336L3.5 8c0 .421.104.818.288 1.167l.11.184a.75.75 0 0 1-1.283.777A4 4 0 0 1 5.8 4.005L6 4l2.44-.001-.72-.72-.073-.085a.75.75 0 0 1 .073-.976ZM16 12.5a3.5 3.5 0 1 1-7 0 3.5 3.5 0 0 1 7 0Zm-2.952-2.661a.62.62 0 0 0-.68.233c-.213.303-.58.726-1.092.98a.5.5 0 1 0 .448.895 3.66 3.66 0 0 0 .776-.529V14.5a.5.5 0 0 0 1 0v-4.076c0-.349-.267-.533-.452-.585Z"/></svg>