<svg xmlns="http://www.w3.org/2000/svg" width="28" height="28"><path d="M15.302 3.908c-.532-1.078-2.069-1.078-2.6 0L10.01 9.36l-6.017.875a1.447 1.447 0 0 0-1.243 1.444c0 .364.138.735.44 1.029l4.354 4.244-1.028 5.993c-.108.63.193 1.181.66 1.474.41.258.946.316 1.444.055l5.382-2.83 5.382 2.83c1.063.559 2.306-.344 2.103-1.529l-1.027-5.993 4.354-4.244c.86-.839.385-2.3-.804-2.473l-6.017-.875-2.691-5.452Zm-4.3 17.618V10.494a1.45 1.45 0 0 0 .342-.446l2.658-5.385 2.657 5.385c.212.428.62.724 1.092.793l5.943.864-4.3 4.191a1.45 1.45 0 0 0-.417 1.284l1.015 5.919-5.316-2.795a1.45 1.45 0 0 0-1.35 0l-2.324 1.223Z"/></svg>