<svg xmlns="http://www.w3.org/2000/svg" width="24" height="24" viewBox="0 0 24 24"><path d="M6.78 3.78a.75.75 0 0 0-1.06-1.06L3.75 4.69l-.47-.47a.75.75 0 0 0-1.06 1.06l1 1a.75.75 0 0 0 1.06 0l2.5-2.5ZM11 17.5c0 .342.027.679.078 1.007H9.75a.75.75 0 0 1-.102-1.493l.102-.007h1.268A6.6 6.6 0 0 0 11 17.5Zm6.5-6.5a6.47 6.47 0 0 1 3.466 1h.284l.102-.007a.75.75 0 0 0-.102-1.493H9.75l-.102.007A.75.75 0 0 0 9.75 12h4.284a6.47 6.47 0 0 1 3.466-1Zm3.75-7H9.75l-.102.007A.75.75 0 0 0 9.75 5.5h11.5l.102-.007A.75.75 0 0 0 21.25 4ZM6.78 16.78a.75.75 0 1 0-1.06-1.06l-1.97 1.97-.47-.47a.75.75 0 0 0-1.06 1.06l1 1a.75.75 0 0 0 1.06 0l2.5-2.5Zm0-7.56a.75.75 0 0 1 0 1.06l-2.5 2.5a.75.75 0 0 1-1.06 0l-1-1a.75.75 0 1 1 1.06-1.06l.47.47 1.97-1.97a.75.75 0 0 1 1.06 0ZM23 17.5a5.5 5.5 0 1 0-11 0 5.5 5.5 0 0 0 11 0Zm-5 .5.001 2.503a.5.5 0 1 1-1 0V18h-2.505a.5.5 0 0 1 0-1H17v-2.5a.5.5 0 1 1 1 0V17h2.497a.5.5 0 0 1 0 1H18Z"/></svg>