<svg xmlns="http://www.w3.org/2000/svg" width="20" height="20"><path d="M8.187 2.783a2.5 2.5 0 0 1 3.626 0l5.363 5.65A3 3 0 0 1 18 10.497V15a2 2 0 0 1-2 2h-4.318c.265-.393.554-.85.79-1.303.244-.469.528-1.106.528-1.697a3 3 0 1 0-6 0c0 .59.284 1.228.529 1.697.235.452.524.91.79 1.303H4a2 2 0 0 1-2-2v-4.502a3 3 0 0 1 .824-2.066l5.363-5.649Zm2.9.689a1.5 1.5 0 0 0-2.175 0l-3.227 3.4c.768.505 1.403.707 1.96.746.652.047 1.255-.123 1.916-.393.225-.092.457-.198.7-.308.898-.406 1.93-.874 3.196-.95l-2.37-2.495ZM8.392 15.188c.247.48.572.988.866 1.414a.894.894 0 0 0 1.486 0c.294-.426.62-.933.866-1.414.23-.449.391-.875.391-1.188a2 2 0 1 0-4 0c0 .313.16.739.391 1.188Zm2.37-.539a.998.998 0 0 1-1.522 0 1 1 0 1 1 1.522 0Z"/></svg>