<svg xmlns="http://www.w3.org/2000/svg" width="24" height="24"><path d="M8.75 2a.75.75 0 0 0 0 1.5H9V5h-.75A3.25 3.25 0 0 0 5 8.25v9a3.25 3.25 0 0 0 2 3v1a.75.75 0 0 0 1.5 0v-.75h7v.75a.75.75 0 0 0 1.5 0v-1a3.25 3.25 0 0 0 2-3v-9A3.25 3.25 0 0 0 15.75 5H15V3.5h.25a.75.75 0 0 0 0-1.5h-6.5Zm4.75 1.5V5h-3V3.5h3Zm-5.25 3h7.5c.966 0 1.75.784 1.75 1.75v9A1.75 1.75 0 0 1 15.75 19h-7.5a1.75 1.75 0 0 1-1.75-1.75v-9c0-.966.784-1.75 1.75-1.75ZM8 9.75A.75.75 0 0 1 8.75 9h6.5a.75.75 0 0 1 0 1.5h-6.5A.75.75 0 0 1 8 9.75Z"/></svg>