<svg xmlns="http://www.w3.org/2000/svg" width="24" height="24"><path d="M14.976 11.975c.596.607.93 1.332 1.168 2.324l.115.53.096.509c.124.667.198.972.308 1.215.285.636.794 1.294 1.535 1.97.407.37.435.998.061 1.402a1.005 1.005 0 0 1-1.412.061c-.931-.847-1.605-1.719-2.01-2.623-.158-.35-.252-.677-.362-1.216l-.189-.99-.035-.167c-.171-.802-.378-1.293-.707-1.627-.598-.61-2.052-.44-2.406.117-.521.818-.658 2.241-.232 3.685.34 1.151.792 2.285 1.356 3.4a.99.99 0 0 1-.446 1.333 1.003 1.003 0 0 1-1.342-.442 22.255 22.255 0 0 1-1.487-3.731c-.58-1.964-.387-3.976.46-5.306 1.04-1.63 4.02-1.979 5.529-.444ZM12.473 14.1a1 1 0 0 1 1.033.966 7.676 7.676 0 0 0 1.398 4.168l.19.259.3.39a1 1 0 0 1-1.502 1.314l-.082-.095-.3-.39a9.676 9.676 0 0 1-2.003-5.58 1 1 0 0 1 .966-1.032Zm-3.9-4.912c2.201-1.63 5.076-1.541 7.017-.294.961.618 1.693 1.343 2.183 2.178a1 1 0 0 1-1.726 1.011c-.32-.547-.829-1.05-1.539-1.506-1.28-.823-3.256-.884-4.745.219-1.559 1.154-2.22 3.146-2.022 5.257.112 1.195.473 2.406 1.087 3.635a1 1 0 0 1-1.788.895c-.723-1.445-1.155-2.894-1.29-4.343-.258-2.75.631-5.429 2.823-7.052Zm10.574 5.16c.029.56.165 1.01.4 1.367.222.337.399.496.488.523a1 1 0 1 1-.579 1.915c-.611-.186-1.123-.646-1.579-1.337-.441-.67-.681-1.464-.728-2.366a1 1 0 1 1 1.998-.103Zm-8.682-8.395a1 1 0 0 1-.501 1.322c-1.794.808-3.108 1.953-3.97 3.446-1.082 1.874-1.376 4.074-1.133 5.923a1 1 0 1 1-1.983.26c-.295-2.251.055-4.883 1.384-7.183 1.079-1.868 2.716-3.295 4.88-4.27a1 1 0 0 1 1.323.502Zm2.464-1.032c1.895.039 3.77.905 5.62 2.55 1.869 1.663 2.995 3.923 3.375 6.733a1 1 0 1 1-1.982.268c-.319-2.354-1.226-4.175-2.723-5.507-1.518-1.35-2.96-2.016-4.331-2.044a1 1 0 1 1 .04-2Zm-7.318.23a1 1 0 0 1-.082 1.412c-.26.232-.535.51-.822.834A7.217 7.217 0 0 0 3.89 8.57a1 1 0 1 1-1.732-1 9.157 9.157 0 0 1 1.052-1.5c.338-.38.667-.714.989-1a1 1 0 0 1 1.412.081Zm6.885-3.134c2.242.105 4.322.595 5.865 1.787a1 1 0 1 1-1.223 1.582c-1.202-.928-2.887-1.285-4.735-1.371-1.856-.087-3.365.242-4.551.97a1 1 0 0 1-1.047-1.704c1.552-.953 3.457-1.369 5.691-1.264Z"/></svg>