<svg xmlns="http://www.w3.org/2000/svg" width="24" height="24"><path d="M8 11a4 4 0 1 0 0-8 4 4 0 0 0 0 8Zm9 0a3 3 0 1 0 0-6 3 3 0 0 0 0 6ZM4.25 13A2.25 2.25 0 0 0 2 15.25v.25S2 20 8 20c1.39 0 2.458-.241 3.278-.613A6.5 6.5 0 0 1 11 17.5c0-1.657.62-3.169 1.64-4.317a2.243 2.243 0 0 0-.89-.183h-7.5Zm10.027.976a2 2 0 0 1-1.441 2.496l-.584.145a5.729 5.729 0 0 0 .006 1.807l.54.13a2 2 0 0 1 1.45 2.51l-.187.631c.44.386.94.7 1.485.922l.493-.519a2 2 0 0 1 2.899 0l.499.526a5.282 5.282 0 0 0 1.482-.913l-.198-.686a2 2 0 0 1 1.442-2.496l.583-.145a5.729 5.729 0 0 0-.006-1.807l-.54-.13a2 2 0 0 1-1.449-2.51l.186-.631a5.278 5.278 0 0 0-1.484-.922l-.493.518a2 2 0 0 1-2.9 0l-.498-.525c-.544.22-1.044.53-1.483.913l.198.686ZM17.5 19c-.8 0-1.45-.671-1.45-1.5 0-.828.65-1.5 1.45-1.5.8 0 1.45.672 1.45 1.5 0 .829-.65 1.5-1.45 1.5Z"/></svg>