<svg xmlns="http://www.w3.org/2000/svg" width="24" height="24" viewBox="0 0 24 24"><path d="M16.08 6.63c-.07-.1-.15-.19-.23-.27h-.01a2.85 2.85 0 0 0-1.11-.69l-1.38-.45c-.1-.04-.2-.11-.26-.2a.5.5 0 0 1-.1-.31.5.5 0 0 1 .1-.31c.06-.09.15-.16.26-.2l1.38-.45c.42-.14.79-.38 1.1-.69.29-.3.52-.67.67-1.07v-.03l.45-1.38c.04-.1.11-.2.2-.26a.5.5 0 0 1 .31-.1c.11 0 .22.04.31.1.09.06.16.15.2.26l.45 1.38c.14.42.38.8.69 1.11.31.32.69.55 1.11.69l1.38.45h.03c.1.04.19.11.26.2.07.09.1.2.1.31a.5.5 0 0 1-.1.31c-.06.09-.15.16-.26.2l-1.38.45c-.42.14-.8.38-1.11.69-.32.31-.55.69-.69 1.11l-.46 1.38v.03c-.04.09-.11.17-.19.23a.5.5 0 0 1-.31.1.5.5 0 0 1-.31-.1.524.524 0 0 1-.2-.26l-.45-1.38c-.1-.31-.25-.6-.45-.85Zm7.7 3.8-.77-.24c-.24-.08-.45-.21-.62-.38-.17-.18-.3-.39-.38-.62l-.25-.76a.327.327 0 0 0-.11-.15.272.272 0 0 0-.34 0c-.05.04-.09.09-.11.15l-.25.76c-.07.23-.2.44-.37.61-.17.17-.38.3-.61.38l-.77.25c-.06.02-.11.06-.15.11a.272.272 0 0 0 0 .34c.04.05.09.09.15.11l.77.25c.23.07.45.21.62.38.17.17.3.39.38.62l.25.76c.02.06.06.11.11.15a.272.272 0 0 0 .34 0c.05-.04.09-.09.11-.15l.25-.76c.08-.24.21-.45.38-.62.18-.17.39-.3.62-.38l.77-.25c.06-.02.11-.06.15-.11.04-.05.05-.11.05-.17 0-.06-.01-.12-.05-.17-.04-.05-.106-.08-.17-.11Zm-4.24 2.28.26.8c.05.14.12.25.2.37v6.08c0 1.24-1.01 2.25-2.25 2.25H6.25C5.01 22.21 4 21.2 4 19.96V4.46c0-1.24 1.01-2.25 2.25-2.25h8.26c-.07.04-.15.08-.22.11l-1.42.46c-.4.15-.75.4-.99.75a2 2 0 0 0-.38 1.18c0 .43.13.84.37 1.18.078.112.178.202.275.289l.045.041H7.75c-.41 0-.75.34-.75.75s.34.75.75.75h7.24l.035.058a.96.96 0 0 1 .085.162l.46 1.41c.14.4.4.74.75.99.35.24.76.37 1.18.37 0 .37.11.73.33 1.04.22.31.52.53.91.67l.8.29Zm-11.79 5h8.5c.41 0 .75-.34.75-.75s-.34-.75-.75-.75h-8.5c-.41 0-.75.34-.75.75s.34.75.75.75Zm0-5h8.5c.41 0 .75-.34.75-.75s-.34-.75-.75-.75h-8.5c-.41 0-.75.34-.75.75s.34.75.75.75Z"/></svg>