<svg xmlns="http://www.w3.org/2000/svg" width="24" height="24" viewBox="0 0 24 24"><path d="M10.109 3.22c.735-1.627 3.047-1.627 3.782 0 .15.332.565.443.86.231 1.452-1.041 3.453.114 3.277 1.892a.576.576 0 0 0 .63.63c1.777-.177 2.932 1.824 1.89 3.275-.211.296-.1.71.231.86 1.628.736 1.628 3.048 0 3.783a.576.576 0 0 0-.23.86c1.041 1.452-.114 3.453-1.892 3.277a.576.576 0 0 0-.63.63c.177 1.777-1.824 2.932-3.275 1.89a.576.576 0 0 0-.86.231c-.736 1.628-3.048 1.628-3.783 0a.576.576 0 0 0-.86-.23c-1.452 1.041-3.453-.114-3.277-1.892a.576.576 0 0 0-.63-.63c-1.777.177-2.932-1.824-1.89-3.275a.576.576 0 0 0-.231-.86c-1.628-.736-1.628-3.048 0-3.783a.576.576 0 0 0 .23-.86c-1.041-1.452.114-3.453 1.892-3.277a.576.576 0 0 0 .63-.63c-.177-1.777 1.824-2.932 3.275-1.89.296.211.71.1.86-.231Zm2.416.619a.576.576 0 0 0-1.05 0 2.076 2.076 0 0 1-3.101.83.576.576 0 0 0-.909.525 2.076 2.076 0 0 1-2.27 2.271.576.576 0 0 0-.525.909 2.076 2.076 0 0 1-.831 3.101.576.576 0 0 0 0 1.05 2.076 2.076 0 0 1 .83 3.101.576.576 0 0 0 .525.909c1.304-.13 2.4.967 2.271 2.27a.576.576 0 0 0 .909.525 2.076 2.076 0 0 1 3.101.832.576.576 0 0 0 1.05 0 2.076 2.076 0 0 1 3.101-.832.576.576 0 0 0 .909-.524 2.076 2.076 0 0 1 2.27-2.271.576.576 0 0 0 .525-.909 2.076 2.076 0 0 1 .832-3.101.576.576 0 0 0 0-1.05 2.076 2.076 0 0 1-.832-3.101.576.576 0 0 0-.524-.909 2.076 2.076 0 0 1-2.271-2.27.576.576 0 0 0-.909-.525 2.076 2.076 0 0 1-3.101-.831ZM12 5.965a2.414 2.414 0 1 0 0 4.828 2.414 2.414 0 0 0 0-4.828ZM15.018 12H8.982c-1 0-1.81.81-1.81 1.81 0 1.348.554 2.427 1.463 3.157.895.718 2.094 1.068 3.365 1.068 1.271 0 2.47-.35 3.365-1.068.909-.73 1.463-1.81 1.463-3.156 0-1-.81-1.811-1.81-1.811Z"/></svg>