<svg xmlns="http://www.w3.org/2000/svg" width="48" height="48" viewBox="0 0 48 48"><path d="M7.923 10.155a10.42 10.42 0 0 1 13.806.684l2.272 2.223 2.266-2.22a10.42 10.42 0 0 1 13.809-.687c4.85 3.887 5.242 11.13.837 15.516l-16.03 15.964a1.25 1.25 0 0 1-1.764 0L7.087 25.67c-4.405-4.386-4.015-11.628.836-15.516Zm12.057 2.47a7.92 7.92 0 0 0-10.494-.52C5.8 15.06 5.503 20.565 8.851 23.9L24 38.986l15.148-15.087c3.348-3.334 3.05-8.839-.636-11.793a7.921 7.921 0 0 0-10.496.522l-3.141 3.077a1.25 1.25 0 0 1-1.75 0l-3.146-3.08Z"/></svg>