<svg xmlns="http://www.w3.org/2000/svg" width="20" height="20" viewBox="0 0 20 20"><path d="M4.987 7.607 3.549 9.12A2 2 0 0 0 3 10.498V15a1 1 0 0 0 1 1h3.693c.199.35.419.695.625 1H4a2 2 0 0 1-2-2v-4.502a3 3 0 0 1 .824-2.066l5.363-5.649a2.5 2.5 0 0 1 3.626 0l5.363 5.65A3 3 0 0 1 18 10.497V15a2 2 0 0 1-2 2h-4.318c.206-.305.426-.65.625-1H16a1 1 0 0 0 1-1v-4.502a2 2 0 0 0-.55-1.377l-2.017-2.126c-1.483-.183-2.554.297-3.685.804-.264.118-.532.238-.809.351-.714.293-1.486.529-2.365.466-.804-.057-1.648-.36-2.587-1.01Zm3.925-4.135-3.227 3.4c.768.506 1.403.707 1.96.746.652.047 1.255-.123 1.916-.393.225-.092.457-.198.7-.308.898-.406 1.93-.874 3.196-.95l-2.37-2.495a1.5 1.5 0 0 0-2.175 0Zm.345 13.13A18.02 18.02 0 0 1 8.859 16C8.41 15.288 8 14.5 8 14a2 2 0 1 1 4 0c0 .5-.41 1.288-.86 2-.132.21-.268.414-.398.602a.894.894 0 0 1-1.485 0ZM11 14a1 1 0 1 0-2 0 1 1 0 0 0 2 0Z"/></svg>