<svg xmlns="http://www.w3.org/2000/svg" width="28" height="28"><path d="M5.972 8.034a.75.75 0 0 1 .528.716v10.5a.75.75 0 0 1-1.5 0v-8.29c-.453.458-1.046.943-1.864 1.434a.75.75 0 0 1-.772-1.286c1.526-.915 2.077-1.745 2.579-2.5.063-.094.125-.188.188-.28a.75.75 0 0 1 .84-.293ZM18.5 11c0 .89-.414 1.645-1.049 2.176 1.076.689 1.799 1.847 1.799 3.199 0 2.193-1.902 3.875-4.125 3.875S11 18.568 11 16.375c0-1.352.723-2.51 1.799-3.2-.635-.53-1.049-1.286-1.049-2.175 0-1.761 1.624-3 3.375-3S18.5 9.24 18.5 11Zm-3.375-1.5c-1.148 0-1.875.776-1.875 1.5s.727 1.5 1.875 1.5C16.273 12.5 17 11.724 17 11s-.727-1.5-1.875-1.5ZM12.5 16.375c0 1.258 1.12 2.375 2.625 2.375s2.625-1.117 2.625-2.375S16.63 14 15.125 14 12.5 15.117 12.5 16.375Zm7.72-2.155a.75.75 0 0 1 1.06 0L23 15.94l1.72-1.72a.75.75 0 1 1 1.06 1.06L24.06 17l1.72 1.72a.75.75 0 1 1-1.06 1.06L23 18.06l-1.72 1.72a.75.75 0 1 1-1.06-1.06L21.94 17l-1.72-1.72a.75.75 0 0 1 0-1.06ZM9.5 19.25a.75.75 0 1 1-1.5 0 .75.75 0 0 1 1.5 0Z"/></svg>