<svg xmlns="http://www.w3.org/2000/svg" width="32" height="32"><path d="M13.27 2.267a1 1 0 0 0 .387 1.962 12.114 12.114 0 0 1 4.686 0 1 1 0 0 0 .388-1.962 14.119 14.119 0 0 0-5.462 0ZM9.333 6.02A1 1 0 0 0 8.22 4.359 14.071 14.071 0 0 0 4.359 8.22 1 1 0 0 0 6.02 9.334 12.071 12.071 0 0 1 9.334 6.02ZM23.78 4.359a1 1 0 0 0-1.113 1.662 12.07 12.07 0 0 1 3.313 3.313 1 1 0 0 0 1.662-1.113 14.072 14.072 0 0 0-3.862-3.862Zm5.954 8.91a1 1 0 0 0-1.962.388 12.114 12.114 0 0 1 0 4.686 1 1 0 1 0 1.962.388 14.121 14.121 0 0 0 0-5.462Zm-25.505.388a1 1 0 1 0-1.962-.388 14.119 14.119 0 0 0 0 5.462 1 1 0 1 0 1.962-.388 12.114 12.114 0 0 1 0-4.686Zm1.792 9.01a1 1 0 1 0-1.662 1.113 14.072 14.072 0 0 0 3.861 3.86 1 1 0 1 0 1.113-1.661 12.07 12.07 0 0 1-3.313-3.313Zm21.62 1.113a1 1 0 1 0-1.661-1.113 12.07 12.07 0 0 1-3.313 3.313 1 1 0 1 0 1.113 1.662 14.072 14.072 0 0 0 3.861-3.862Zm-13.984 3.992a1 1 0 1 0-.388 1.962 14.14 14.14 0 0 0 5.462 0 1 1 0 0 0-.388-1.962 12.114 12.114 0 0 1-4.686 0ZM26 16c0 5.523-4.477 10-10 10S6 21.523 6 16 10.477 6 16 6s10 4.477 10 10Zm-15.139 3.255a1 1 0 0 0-.078 1.412A6.985 6.985 0 0 0 16 23a6.985 6.985 0 0 0 5.218-2.333 1 1 0 0 0-1.49-1.334A4.985 4.985 0 0 1 16 21c-1.48 0-2.81-.642-3.727-1.667a1 1 0 0 0-1.412-.078ZM12.251 15a1.75 1.75 0 1 0 0-3.5 1.75 1.75 0 0 0 0 3.5Zm9.25-1.75a1.75 1.75 0 1 0-3.5 0 1.75 1.75 0 0 0 3.5 0Z"/></svg>