<svg xmlns="http://www.w3.org/2000/svg" width="20" height="20" viewBox="0 0 20 20"><path d="M2.854 2.146a.5.5 0 1 0-.708.708l1.855 1.854A7.97 7.97 0 0 0 2 10c0 2.3.97 4.374 2.525 5.833.188.176.48.162.662-.02a.528.528 0 0 0-.023-.752A6.98 6.98 0 0 1 3 10a6.97 6.97 0 0 1 1.71-4.585L5.772 6.48A5.478 5.478 0 0 0 4.5 10c0 1.618.699 3.073 1.81 4.079a.463.463 0 0 0 .64-.029c.214-.214.184-.568-.036-.775A4.487 4.487 0 0 1 5.5 10a4.48 4.48 0 0 1 .984-2.809l2.352 2.352a1.25 1.25 0 0 0 1.62 1.62l6.69 6.69a.5.5 0 0 0 .708-.707L16 15.292l-.71-.708-1.063-1.064-.711-.711-2.352-2.352-1.62-1.62-6.69-6.69Zm13.764 12.35A7.963 7.963 0 0 0 18 10c0-2.214-.9-4.218-2.353-5.666a.476.476 0 0 0-.673.01.528.528 0 0 0 .011.742A6.978 6.978 0 0 1 17 10c0 1.39-.405 2.686-1.104 3.775l.722.721Zm-1.815-1.814A5.474 5.474 0 0 0 15.5 10a5.48 5.48 0 0 0-1.632-3.91.464.464 0 0 0-.656.016c-.208.208-.187.55.018.76A4.485 4.485 0 0 1 14.5 10c0 .695-.157 1.353-.439 1.94l.742.742Z"/></svg>