<svg xmlns="http://www.w3.org/2000/svg" width="16" height="16" viewBox="0 0 16 16"><path d="M6 1a2 2 0 0 0-2 2v6h1V3a1 1 0 0 1 1-1h3v2.5A1.5 1.5 0 0 0 10.5 6H13v7a1 1 0 0 1-1 1h-1.337c-.178.375-.42.713-.714 1H12a2 2 0 0 0 2-2V5.414c0-.398-.158-.779-.439-1.061l-2.914-2.914A1.5 1.5 0 0 0 9.586 1H6Zm2.5 8.145c.361.107.698.272 1 .482V7.5a.5.5 0 0 0-1 0v1.645Zm3 3.855a.5.5 0 0 1-.5-.5v-3a.5.5 0 0 1 1 0v3a.5.5 0 0 1-.5.5Zm1.293-8H10.5a.5.5 0 0 1-.5-.5V2.207L12.793 5ZM3.5 10a2.5 2.5 0 0 0 0 5H4a.5.5 0 0 0 0-1h-.5a1.5 1.5 0 0 1 0-3H4a.5.5 0 0 0 0-1h-.5ZM7 10a.5.5 0 0 0 0 1h.5a1.5 1.5 0 0 1 0 3H7a.5.5 0 0 0 0 1h.5a2.5 2.5 0 0 0 0-5H7Zm-4 2.5a.5.5 0 0 1 .5-.5h4a.5.5 0 0 1 0 1h-4a.5.5 0 0 1-.5-.5Z"/></svg>