<svg xmlns="http://www.w3.org/2000/svg" width="28" height="28" viewBox="0 0 28 28"><path d="m7.92 2.645 1.66-.5a3.25 3.25 0 0 1 3.903 1.779l1.033 2.298a3.25 3.25 0 0 1-.748 3.71l-1.805 1.683a.25.25 0 0 0-.054.073c-.189.386.098 1.417.997 2.975 1.014 1.756 1.797 2.45 2.16 2.343l2.369-.725a3.25 3.25 0 0 1 3.585 1.207l1.468 2.033a3.25 3.25 0 0 1-.4 4.262l-1.263 1.195a3.75 3.75 0 0 1-3.342.949c-3.517-.732-6.668-3.564-9.48-8.434C5.19 12.62 4.313 8.47 5.443 5.057a3.75 3.75 0 0 1 2.478-2.412Zm.434 1.436a2.25 2.25 0 0 0-1.487 1.447c-.974 2.941-.185 6.677 2.435 11.215 2.618 4.535 5.456 7.085 8.486 7.715a2.25 2.25 0 0 0 2.006-.57l1.262-1.194a1.75 1.75 0 0 0 .216-2.295l-1.468-2.034a1.75 1.75 0 0 0-1.93-.65l-2.375.727c-1.314.391-2.55-.704-3.892-3.03-1.137-1.968-1.531-3.39-1.045-4.383.094-.192.222-.365.378-.511l1.805-1.683a1.75 1.75 0 0 0 .403-1.998L12.115 4.54a1.75 1.75 0 0 0-2.102-.958l-1.66.5Z"/></svg>