<svg xmlns="http://www.w3.org/2000/svg" width="48" height="48" viewBox="0 0 48 48"><path d="M23.999 7c6.337 0 9.932 4.195 10.455 9.26h.16c4.078 0 7.384 3.298 7.384 7.365 0 4.068-3.306 7.365-7.384 7.365l-1.723.001a1.48 1.48 0 0 1-.04.094l-.066.128-3.5 6.063a1.5 1.5 0 0 1-2.664-1.372l.066-.129 2.763-4.785-4.296.001-.039.094-.066.128-3.5 6.063a1.5 1.5 0 0 1-2.664-1.372l.066-.129 2.762-4.785-4.295.001a1.542 1.542 0 0 1-.04.094l-.065.128-3.5 6.063a1.5 1.5 0 0 1-2.665-1.372l.066-.129 2.763-4.785h-.593C9.306 30.99 6 27.693 6 23.625c0-4.067 3.306-7.365 7.384-7.365h.16C14.07 11.161 17.662 7 24 7Zm0 2.495c-4.261 0-7.975 3.448-7.975 8.21 0 .755-.656 1.348-1.408 1.348h-1.42c-2.594 0-4.697 2.113-4.697 4.72 0 2.608 2.103 4.722 4.697 4.722h21.606c2.594 0 4.697-2.114 4.697-4.721 0-2.608-2.103-4.722-4.697-4.722h-1.42c-.752 0-1.408-.592-1.408-1.346 0-4.824-3.714-8.21-7.975-8.21Z"/></svg>