<svg xmlns="http://www.w3.org/2000/svg" width="24" height="24"><path d="M2 6.75C2 5.784 2.784 5 3.75 5h13.5c.966 0 1.75.784 1.75 1.75v4.424A6.5 6.5 0 0 0 11.019 17H3.75A1.75 1.75 0 0 1 2 15.25v-8.5Zm3 .5a.75.75 0 0 1-.75.75h-1v1.5h1A2.25 2.25 0 0 0 6.5 7.25v-1H5v1Zm5.5 6.25a2.25 2.25 0 1 0 0-4.5 2.25 2.25 0 0 0 0 4.5Zm-6.25.5a.75.75 0 0 1 .75.75v1h1.5v-1a2.25 2.25 0 0 0-2.25-2.25h-1V14h1Zm12.5-6a.75.75 0 0 1-.75-.75v-1h-1.5v1a2.25 2.25 0 0 0 2.25 2.25h1V8h-1ZM4.401 18.5h6.675c.081.523.224 1.026.422 1.5H7a3 3 0 0 1-2.599-1.5ZM20.5 11.732A6.518 6.518 0 0 1 22 12.81V10a3 3 0 0 0-1.5-2.599v4.331ZM23 17.5a5.5 5.5 0 1 1-11 0 5.5 5.5 0 0 1 11 0Zm-7.146-2.354a.5.5 0 0 0-.708.708l1.647 1.646-1.647 1.646a.5.5 0 0 0 .708.708l1.646-1.647 1.646 1.647a.5.5 0 0 0 .708-.708L18.207 17.5l1.647-1.646a.5.5 0 0 0-.708-.708L17.5 16.793l-1.646-1.647Z"/></svg>