<svg xmlns="http://www.w3.org/2000/svg" width="28" height="28"><path d="M13 20.5c0 .693.094 1.363.27 2h-1.017l-4.245 3.235c-.823.627-2.008.04-2.008-.994V22.5h-.25A3.75 3.75 0 0 1 2 18.75V9.76a3.75 3.75 0 0 1 3.75-3.75h12.5A3.75 3.75 0 0 1 22 9.76v3.39a7.5 7.5 0 0 0-9 7.35ZM25.25 7.76v6.936a7.487 7.487 0 0 0-2.25-1.27V9.76a4.75 4.75 0 0 0-4.75-4.75H6.845A3.001 3.001 0 0 1 9.75 2.76h10.5a5 5 0 0 1 5 5ZM27 20.5a6.5 6.5 0 1 0-13 0 6.5 6.5 0 0 0 13 0Zm-2.646-2.854a.5.5 0 0 1 0 .708l-5 5a.5.5 0 0 1-.708 0l-2-2a.5.5 0 0 1 .708-.708L19 22.293l4.646-4.647a.5.5 0 0 1 .708 0Z"/></svg>