<svg xmlns="http://www.w3.org/2000/svg" width="28" height="28"><path d="M15.821 6.5h7.929a2.25 2.25 0 0 1 2.229 1.938l.016.158.005.154v6.65A7.5 7.5 0 0 0 13.865 24H4.25a2.25 2.25 0 0 1-2.245-2.096L2 21.75V10.499l8.207.001.196-.009a2.25 2.25 0 0 0 1.088-.393l.156-.12L15.821 6.5ZM10.207 4c.46 0 .908.141 1.284.402l.156.12 2.103 1.751-3.063 2.553-.085.061a.75.75 0 0 1-.29.106L10.206 9 2 8.999V6.25a2.25 2.25 0 0 1 2.096-2.245L4.25 4h5.957ZM20.5 27a6.5 6.5 0 1 0 0-13 6.5 6.5 0 0 0 0 13Zm0-1.5a4.978 4.978 0 0 1-2.965-.974l6.991-6.991A5 5 0 0 1 20.5 25.5Zm2.965-9.026-6.991 6.991a5 5 0 0 1 6.991-6.991Z"/></svg>