<svg xmlns="http://www.w3.org/2000/svg" width="24" height="24"><path d="M6.5 12a5.5 5.5 0 1 0 0-11 5.5 5.5 0 0 0 0 11Zm0-1.5a3.981 3.981 0 0 1-2.248-.691l5.557-5.557A4 4 0 0 1 6.5 10.5ZM3.191 8.748a4 4 0 0 1 5.557-5.557L3.191 8.748Zm13.313-.496a.752.752 0 1 0-1.504 0 .752.752 0 0 0 1.504 0ZM6.5 13a6.5 6.5 0 0 0 5.478-10h5.772A3.25 3.25 0 0 1 21 6.25v11.5c0 .627-.178 1.213-.485 1.71l-6.939-6.813-.128-.116a2.25 2.25 0 0 0-2.889-.006l-.135.123-6.939 6.811A3.235 3.235 0 0 1 3 17.75v-5.772A6.47 6.47 0 0 0 6.5 13Zm7-4.748a2.252 2.252 0 1 0 4.504 0 2.252 2.252 0 0 0-4.504 0Zm-1.942 5.395-.083.07-6.928 6.802A3.235 3.235 0 0 0 6.25 21h11.5c.625 0 1.208-.176 1.703-.481l-6.928-6.801-.093-.078a.75.75 0 0 0-.874.007Z"/></svg>