<svg xmlns="http://www.w3.org/2000/svg" width="32" height="32" viewBox="0 0 32 32"><path d="m26.238 27.652 2.055 2.055a1 1 0 0 0 1.414-1.414l-26-26a1 1 0 0 0-1.414 1.414l4.37 4.37A4.501 4.501 0 0 0 3 12.5V14a3 3 0 0 0 3 3h7v-.5a1.5 1.5 0 0 1 .773-1.312l5.04 5.039A1.5 1.5 0 0 1 17.5 21h-3a1.5 1.5 0 0 1-1.5-1.5V19H6a4.978 4.978 0 0 1-3-1v5.5A4.5 4.5 0 0 0 7.5 28h17a4.49 4.49 0 0 0 1.738-.348ZM22.535 19l6.152 6.152A4.488 4.488 0 0 0 29 23.5V18c-.835.628-1.874 1-3 1h-3.465ZM10 6.466 20.535 17H26a3 3 0 0 0 3-3v-1.5A4.5 4.5 0 0 0 24.5 8H22V6a3 3 0 0 0-3-3h-6a3 3 0 0 0-3 3v.466ZM13 5h6a1 1 0 0 1 1 1v2h-8V6a1 1 0 0 1 1-1Z"/></svg>