<svg xmlns="http://www.w3.org/2000/svg" width="24" height="24"><path d="M15.394 7.947c.196-.39.8-1.197 2.356-1.197.79 0 1.342.244 1.688.57.343.324.562.802.562 1.43 0 .575-.14.953-.317 1.214-.18.268-.44.476-.772.636-.692.336-1.559.4-2.13.4a1 1 0 1 0 0 2c.571 0 1.438.064 2.13.4.331.16.592.368.772.636.176.26.317.639.317 1.214 0 .948-.802 2-2.25 2-1.636 0-2.158-.707-2.32-1.118a1 1 0 0 0-1.86.736c.498 1.256 1.816 2.382 4.18 2.382 2.552 0 4.25-1.948 4.25-4 0-.925-.234-1.703-.659-2.333a3.693 3.693 0 0 0-.889-.917c.33-.24.636-.541.89-.917.424-.63.658-1.408.658-2.333 0-1.122-.406-2.144-1.188-2.883-.779-.736-1.852-1.117-3.062-1.117-2.445 0-3.673 1.36-4.144 2.303a1 1 0 1 0 1.788.894ZM4 6a1 1 0 0 0-2 0v12a1 1 0 1 0 2 0v-5h6v5a1 1 0 1 0 2 0V6a1 1 0 1 0-2 0v5H4V6Z"/></svg>