<svg xmlns="http://www.w3.org/2000/svg" width="24" height="24"><path d="M18.882 6.658a1.99 1.99 0 0 0 1.33.33 2 2 0 1 0-1.33-.33ZM14 19a2 2 0 1 0 4 0 2 2 0 0 0-4 0ZM4 21a2 2 0 1 1 0-4 2 2 0 0 1 0 4ZM6.882 6.658a1.99 1.99 0 0 0 1.33.33A2.002 2.002 0 0 0 9.855 4.25a2 2 0 1 0-2.973 2.408Zm-.401.93L4.077 16a2.984 2.984 0 0 1 1.442.412l2.404-8.414a2.984 2.984 0 0 1-1.442-.412ZM17.095 5.75h-6.19a3.005 3.005 0 0 0 0-1.5h6.19a3.005 3.005 0 0 0 0 1.5Zm-4 14a3.005 3.005 0 0 1 0-1.5h-6.19a3.005 3.005 0 0 1 0 1.5h6.19Zm2.982-3.749 2.404-8.414c.425.25.917.399 1.442.412l-2.404 8.414A2.984 2.984 0 0 0 16.077 16Z"/></svg>