<svg xmlns="http://www.w3.org/2000/svg" width="20" height="20"><path d="M5.75 3A2.75 2.75 0 0 0 3 5.75v8.5A2.75 2.75 0 0 0 5.75 17H9.6a5.47 5.47 0 0 1-.6-2.5c0-1.33.472-2.55 1.257-3.5H9.5a.5.5 0 0 1 0-1h1.837c.895-.63 1.986-1 3.163-1 .9 0 1.75.216 2.5.6V5.75A2.75 2.75 0 0 0 14.25 3h-8.5ZM7.5 7.25a.75.75 0 1 1-1.5 0 .75.75 0 0 1 1.5 0ZM6.75 9.5a.75.75 0 1 1 0 1.5.75.75 0 0 1 0-1.5Zm.75 3.75a.75.75 0 1 1-1.5 0 .75.75 0 0 1 1.5 0ZM9.5 8a.5.5 0 0 1 0-1h4a.5.5 0 0 1 0 1h-4Zm5 11a4.5 4.5 0 1 0 0-9 4.5 4.5 0 0 0 0 9Zm-.5-6.5a.5.5 0 0 1 1 0V14h1a.5.5 0 0 1 0 1h-1.5a.5.5 0 0 1-.5-.5v-2Z"/></svg>