<svg xmlns="http://www.w3.org/2000/svg" width="16" height="16"><path d="m12.374.573 3.507 6.313A.75.75 0 0 1 15.226 8H7.769a.75.75 0 0 1-.656-1.114L10.626.572a1 1 0 0 1 1.748 0ZM11.494 7a.5.5 0 1 0 0-1 .5.5 0 0 0 0 1Zm-.5-5v2.5a.5.5 0 1 0 1 0V2a.5.5 0 0 0-1 0Zm-6.229.455C3.41 2.87 2.523 4.001 2.714 5.257a12.432 12.432 0 0 0 1.554 4.386 12.733 12.733 0 0 0 3.024 3.528c.992.798 2.418.6 3.455-.367a.98.98 0 0 0 .089-1.341l-.792-.962a1 1 0 0 0-1.072-.318l-1.673.527a.5.5 0 0 1-.482-.103l-.04-.037a7.29 7.29 0 0 1-.42-.432 7.161 7.161 0 0 1-.876-1.194 7.265 7.265 0 0 1-.76-1.935l-.012-.053a.501.501 0 0 1 .152-.47l1.292-1.185a1 1 0 0 0 .26-1.087l-.434-1.16a.988.988 0 0 0-1.214-.599ZM6.83 6.04l-1.072.984a6.613 6.613 0 0 0 .59 1.422 6.267 6.267 0 0 0 .936 1.222l1.389-.437a2 2 0 0 1 2.144.637l.792.961a1.981 1.981 0 0 1-.179 2.708c-1.29 1.203-3.276 1.611-4.764.416a13.73 13.73 0 0 1-3.262-3.806 13.431 13.431 0 0 1-1.678-4.738C1.439 3.524 2.79 2.015 4.473 1.5a1.988 1.988 0 0 1 2.443 1.204l.434 1.16a2 2 0 0 1-.52 2.175Z"/></svg>