<svg xmlns="http://www.w3.org/2000/svg" width="24" height="24"><path d="M17.5 12a5.5 5.5 0 1 1 0 11 5.5 5.5 0 0 1 0-11Zm.25-9a3.25 3.25 0 0 1 3.245 3.066L21 6.25v5.772A6.47 6.47 0 0 0 17.5 11c-1.845 0-3.51.769-4.693 2.003h-4.06l-.1.007a.75.75 0 0 0 0 1.486l.1.007h2.984A6.472 6.472 0 0 0 11 17.5c0 1.29.374 2.49 1.022 3.501L6.25 21a3.25 3.25 0 0 1-3.245-3.066L3 17.75V9.372a2.25 2.25 0 1 0 .224-4.31 3.253 3.253 0 0 1 2.831-2.056L6.25 3h11.5Zm-1.03 11.589-.07.057-2.515 2.517-.041.05-.044.077-.023.059-.019.085-.002.11.015.086.029.08.034.061.05.066 2.516 2.517a.5.5 0 0 0 .765-.638l-.058-.07L15.711 18h4.79a.5.5 0 0 0 .491-.41L21 17.5a.5.5 0 0 0-.41-.492L20.5 17h-4.789l1.646-1.646a.5.5 0 0 0 .058-.638l-.058-.07a.5.5 0 0 0-.638-.057Zm-1.468-5.093H8.748l-.102.007a.75.75 0 0 0 0 1.486l.102.007h6.504l.102-.007a.75.75 0 0 0-.102-1.493ZM3.75 6a1.25 1.25 0 1 1 0 2.5 1.25 1.25 0 0 1 0-2.5Z"/></svg>