<svg xmlns="http://www.w3.org/2000/svg" width="24" height="24" viewBox="0 0 24 24"><path d="M10.678 2.087a10.085 10.085 0 0 1 2.644 0 .75.75 0 0 1-.197 1.487 8.586 8.586 0 0 0-2.25 0 .75.75 0 0 1-.197-1.487Zm10.393 7.946a.75.75 0 0 1 .842.645 10.089 10.089 0 0 1 0 2.644.75.75 0 0 1-1.487-.197 8.572 8.572 0 0 0 0-2.25.75.75 0 0 1 .646-.842Zm-18.143 0c.411.054.7.43.646.842a8.586 8.586 0 0 0 0 2.25.75.75 0 0 1-1.487.197 10.085 10.085 0 0 1 0-2.644.75.75 0 0 1 .841-.645Zm7.105 11.039a.75.75 0 0 1 .842-.646 8.572 8.572 0 0 0 2.25 0 .75.75 0 0 1 .197 1.487 10.089 10.089 0 0 1-2.644 0 .75.75 0 0 1-.645-.841Zm8.042-17.016a10.099 10.099 0 0 1 1.87 1.87.75.75 0 0 1-1.19.912 8.585 8.585 0 0 0-1.593-1.592.75.75 0 0 1 .913-1.19Zm1.73 12.968a.75.75 0 0 1 .14 1.051 10.1 10.1 0 0 1-1.87 1.87.75.75 0 0 1-.913-1.19 8.571 8.571 0 0 0 1.592-1.592.75.75 0 0 1 1.052-.14ZM6.978 4.194a.75.75 0 0 1-.14 1.052 8.587 8.587 0 0 0-1.591 1.592.75.75 0 1 1-1.19-.913 10.087 10.087 0 0 1 1.869-1.87.75.75 0 0 1 1.052.14Zm-2.783 12.83a.75.75 0 0 1 1.052.139 8.584 8.584 0 0 0 1.592 1.591.75.75 0 1 1-.913 1.191 10.1 10.1 0 0 1-1.87-1.87.75.75 0 0 1 .14-1.051Zm9.328-7.18a1.153 1.153 0 0 1 1.691 1.566L12 15.11l-3.215-3.7a1.153 1.153 0 0 1 1.691-1.566l.99 1.002a.75.75 0 0 0 1.068 0l.99-1.002Zm2.824-.93a2.653 2.653 0 0 0-3.891-.124L12 9.252l-.456-.462a2.653 2.653 0 0 0-3.891 3.604l3.78 4.35a.75.75 0 0 0 1.133 0l3.78-4.35a2.653 2.653 0 0 0 0-3.48Z"/></svg>