<svg xmlns="http://www.w3.org/2000/svg" width="24" height="24" viewBox="0 0 24 24"><path d="M12.5 16.5c2.21 0 4-2.462 4-5.5s-1.79-5.5-4-5.5-4 2.462-4 5.5 1.79 5.5 4 5.5Zm1.615-2.493c-.519.714-1.109.993-1.615.993s-1.096-.28-1.615-.993c-.372-.512-.666-1.201-.802-2.007h4.834c-.136.806-.43 1.495-.802 2.007Zm0-6.014c.447.615.781 1.486.865 2.507h-4.96c.084-1.021.418-1.892.865-2.507C11.404 7.28 11.994 7 12.5 7s1.096.28 1.615.993ZM6.5 2A2.5 2.5 0 0 0 4 4.5v15A2.5 2.5 0 0 0 6.5 22h13.25a.75.75 0 0 0 0-1.5H6.5a1 1 0 0 1-1-1h14.25a.75.75 0 0 0 .75-.75V4.5A2.5 2.5 0 0 0 18 2H6.5ZM19 18H5.5V4.5a1 1 0 0 1 1-1H18a1 1 0 0 1 1 1V18Z"/></svg>