<svg xmlns="http://www.w3.org/2000/svg" width="48" height="48"><path d="M41.974 6.025a6.907 6.907 0 0 0-9.768 0L8.038 30.198a6.007 6.007 0 0 0-1.572 2.758L4.039 42.44a1.25 1.25 0 0 0 1.52 1.521l9.487-2.425a6.007 6.007 0 0 0 2.76-1.572l2.439-2.44a13.068 13.068 0 0 1-.221-3.313l-3.986 3.985a3.507 3.507 0 0 1-1.611.918l-7.443 1.903 1.904-7.442c.156-.61.473-1.166.917-1.61L33.974 7.793a4.407 4.407 0 0 1 6.233 6.232l-7.998 7.999a13.204 13.204 0 0 1 3.314.22l6.451-6.451a6.907 6.907 0 0 0 0-9.768ZM44 35c0 6.075-4.925 11-11 11s-11-4.925-11-11 4.925-11 11-11 11 4.925 11 11Zm-5.293-4.293a1 1 0 0 0-1.414-1.414L33 33.586l-4.293-4.293a1 1 0 0 0-1.414 1.414L31.586 35l-4.293 4.293a1 1 0 0 0 1.414 1.414L33 36.414l4.293 4.293a1 1 0 0 0 1.414-1.414L34.414 35l4.293-4.293Z"/></svg>