<svg xmlns="http://www.w3.org/2000/svg" width="20" height="20" viewBox="0 0 20 20"><path d="M7 4.5c0 .171-.017.338-.05.5H10a1 1 0 0 1 1 1v2h-1a1.992 1.992 0 0 0-1.5.677C8.189 9.03 8 9.493 8 10v1H6a1 1 0 0 1-1-1V6.95a2.512 2.512 0 0 1-1 0V10a2 2 0 0 0 2 2h2v2a1.993 1.993 0 0 0 1.158 1.815 5.514 5.514 0 0 1-.147-1.666A1.009 1.009 0 0 1 9 14v-4a1 1 0 0 1 1-1h4c.05 0 .1.004.149.011a5.582 5.582 0 0 1 1.666.147A2.006 2.006 0 0 0 14 8h-2V6a2 2 0 0 0-2-2H6.95c.033.162.05.329.05.5Zm-1 0a1.5 1.5 0 1 1-3 0 1.5 1.5 0 0 1 3 0Zm11 0a1.5 1.5 0 1 1-3 0 1.5 1.5 0 0 1 3 0Zm-11 11a1.5 1.5 0 1 1-3 0 1.5 1.5 0 0 1 3 0Zm8.5 3.5a4.5 4.5 0 1 0 0-9 4.5 4.5 0 0 0 0 9Zm-.896-6.396-.897.896h1.543A2.75 2.75 0 0 1 17 16.25v.25a.5.5 0 0 1-1 0v-.25a1.75 1.75 0 0 0-1.75-1.75h-1.543l.897.896a.5.5 0 0 1-.708.708l-1.752-1.753a.499.499 0 0 1 .002-.705l1.75-1.75a.5.5 0 0 1 .708.708Z"/></svg>