<svg xmlns="http://www.w3.org/2000/svg" width="20" height="20" viewBox="0 0 20 20"><path d="M2 3.25C2 2.56 2.56 2 3.25 2h5.5C9.44 2 10 2.56 10 3.25v2.5c0 .138.112.25.25.25h1.5c.69 0 1.25.56 1.25 1.25V8h-3a2.99 2.99 0 0 0-2.107.864.75.75 0 1 0-.72 1.132A2.995 2.995 0 0 0 7 11v4H3.25C2.56 15 2 14.44 2 13.75V3.25ZM8.268 10A2 2 0 0 1 10 9h7a2 2 0 0 1 2 2v4a2 2 0 0 1-2 2h-2v1h1.5a.5.5 0 0 1 0 1h-6a.5.5 0 0 1 0-1H12v-1h-2a2 2 0 0 1-2-2v-4c0-.364.097-.706.268-1ZM10 10a1 1 0 0 0-1 1v4a1 1 0 0 0 1 1h7a1 1 0 0 0 1-1v-4a1 1 0 0 0-1-1h-7ZM4 4.75a.75.75 0 1 0 1.5 0 .75.75 0 0 0-1.5 0Zm.75 3a.75.75 0 1 0 0-1.5.75.75 0 0 0 0 1.5ZM4 9.25a.75.75 0 1 0 1.5 0 .75.75 0 0 0-1.5 0ZM7.25 5.5a.75.75 0 1 0 0-1.5.75.75 0 0 0 0 1.5ZM6.5 7A.75.75 0 1 0 8 7a.75.75 0 0 0-1.5 0ZM14 18v-1h-1v1h1Z"/></svg>