<svg xmlns="http://www.w3.org/2000/svg" width="16" height="16" viewBox="0 0 16 16"><path d="M6.002 4a1.998 1.998 0 1 1 3.996 0 1.998 1.998 0 0 1-3.996 0ZM8 3.002a.998.998 0 1 0 0 1.996.998.998 0 0 0 0-1.996ZM11 4.5a1.5 1.5 0 1 1 3 0 1.5 1.5 0 0 1-3 0Zm1.5-.5a.5.5 0 1 0 0 1 .5.5 0 0 0 0-1Zm-9-1a1.5 1.5 0 1 0 0 3 1.5 1.5 0 0 0 0-3ZM3 4.5a.5.5 0 1 1 1 0 .5.5 0 0 1-1 0ZM4.268 7A1.99 1.99 0 0 0 4 8H2v2.5a1.5 1.5 0 0 0 2.096 1.377c.074.331.19.647.34.942A2.5 2.5 0 0 1 1 10.5V8a1 1 0 0 1 1-1h2.268Zm7.296 5.819A2.5 2.5 0 0 0 15 10.5V8a1 1 0 0 0-1-1h-2.268c.17.294.268.635.268 1h2v2.5a1.5 1.5 0 0 1-2.096 1.377c-.075.331-.19.647-.34.942ZM6 6.999a1 1 0 0 0-1 1V11a3 3 0 0 0 6 0V8a1 1 0 0 0-1-1H6Zm0 1h4V11a2 2 0 0 1-4 0V8Z"/></svg>