<svg xmlns="http://www.w3.org/2000/svg" width="32" height="32" viewBox="0 0 32 32"><path d="m18.75 20.164 9.543 9.543a1 1 0 0 0 1.414-1.414l-26-26a1 1 0 0 0-1.415 1.414l9.543 9.543-7.479 7.479a3.7 3.7 0 0 0-1.001 1.84L2.022 28.79a1 1 0 0 0 1.187 1.188l6.22-1.333a3.701 3.701 0 0 0 1.842-1.002l7.478-7.48Zm-1.415-1.415-7.479 7.48a1.7 1.7 0 0 1-.845.46l-4.71 1.01 1.01-4.71a1.7 1.7 0 0 1 .46-.846l7.478-7.48 4.086 4.087Zm9.815-9.815-7.339 7.34 1.414 1.414 5.024-5.025.276.276a1.5 1.5 0 0 1 0 2.121l-2.232 2.233a1 1 0 0 0 1.414 1.414l2.232-2.232a3.5 3.5 0 0 0 0-4.95l-.276-.276.901-.901a4.889 4.889 0 1 0-6.914-6.914l-7.339 7.34 1.414 1.414 7.34-7.34a2.889 2.889 0 1 1 4.085 4.086Z"/></svg>