<svg xmlns="http://www.w3.org/2000/svg" width="28" height="28" viewBox="0 0 28 28"><path d="M6.75 3A3.75 3.75 0 0 0 3 6.75v14.5A3.75 3.75 0 0 0 6.75 25h10.698l.666-2H17v.5h-6v-5h4.263l.71-1.5H11v-6h6v3.834l.462-.976a1.5 1.5 0 0 1 1.038-.824V11h5v2H25V6.75A3.75 3.75 0 0 0 21.25 3H6.75ZM4.5 21.25V18.5h5v5H6.75a2.25 2.25 0 0 1-2.25-2.25ZM9.5 11v6h-5v-6h5Zm11.75-6.5a2.25 2.25 0 0 1 2.25 2.25V9.5h-5v-5h2.75ZM11 4.5h6v5h-6v-5Zm-4.25 0H9.5v5h-5V6.75A2.25 2.25 0 0 1 6.75 4.5ZM18.817 14h6.328a.5.5 0 0 1 .436.745L23.751 18h1.514a.75.75 0 0 1 .569 1.24l-6.416 7.452c-.522.606-1.499.052-1.246-.707L19.5 22h-4a.5.5 0 0 1-.451-.714l3.316-7a.5.5 0 0 1 .452-.286Z"/></svg>