<svg xmlns="http://www.w3.org/2000/svg" width="24" height="24" viewBox="0 0 24 24"><path d="M7.426 2.83A1.25 1.25 0 0 1 8.604 2h6.453a1.25 1.25 0 0 1 1.186 1.645L14.791 8h3.96c1.103 0 1.665 1.327.897 2.12l-3.183 3.285a11.92 11.92 0 0 0-.322-1.007 3.73 3.73 0 0 0-.247-.562L18.16 9.5h-4.41a.75.75 0 0 1-.71-.987L14.71 3.5H8.78l-3.262 9.156a.25.25 0 0 0 .234.334l.96.004a3.762 3.762 0 0 0 1.99 2.173L7.51 20.492l5.666-5.848a52.28 52.28 0 0 1 .433 1.709l-5.022 5.183c-1.054 1.088-2.872.106-2.541-1.372l1.27-5.668-1.57-.006a1.75 1.75 0 0 1-1.641-2.337l3.321-9.322Zm5.386 9.92a2.751 2.751 0 1 1 .143-1.5h.295c.376 0 .786.095 1.155.358.365.261.633.647.8 1.134.188.482.446 1.459.648 2.264a89.582 89.582 0 0 1 .348 1.447l.021.09c.082.232.18.332.245.378.07.05.16.079.283.079h.761a2.75 2.75 0 1 1 .289 1.5h-1.05c-.376 0-.786-.095-1.155-.358-.37-.265-.64-.658-.806-1.155a.744.744 0 0 1-.02-.07l-.008-.032-.02-.093a88.514 88.514 0 0 0-.344-1.423c-.212-.85-.45-1.731-.593-2.09a.755.755 0 0 1-.015-.042c-.085-.253-.189-.36-.256-.408a.469.469 0 0 0-.283-.079h-.438Zm-1.312-1a1.25 1.25 0 1 0-2.5 0 1.25 1.25 0 0 0 2.5 0Zm8.75 6.75a1.25 1.25 0 1 0 0-2.5 1.25 1.25 0 0 0 0 2.5Z"/></svg>