<svg xmlns="http://www.w3.org/2000/svg" width="24" height="24" viewBox="0 0 24 24"><path d="M10.55 2.533a2.25 2.25 0 0 1 2.9 0l6.75 5.695c.508.427.8 1.056.8 1.72v2.102a3.5 3.5 0 0 0-6 2.45v.5c-.114-.56-.627-.984-1.217-1h-3.566A1.25 1.25 0 0 0 9 15.25v4.003a1.75 1.75 0 0 1-1.75 1.75h-2.5A1.75 1.75 0 0 1 3 19.253V9.947c0-.663.292-1.292.8-1.72l6.75-5.694ZM21 14.5a2.5 2.5 0 1 1-5 0 2.5 2.5 0 0 1 5 0Zm2 5.375C23 21.431 21.714 23 18.5 23S14 21.437 14 19.875v-.103c0-.98.794-1.772 1.773-1.772h5.454c.98 0 1.773.793 1.773 1.772v.103Z"/></svg>