<svg xmlns="http://www.w3.org/2000/svg" width="24" height="24"><path d="M21.996 9.972V20.25a1.75 1.75 0 0 1-1.75 1.75h-7.248c-.087 0-.172-.006-.256-.019V11.805A6.47 6.47 0 0 0 16.5 13a6.495 6.495 0 0 0 5.496-3.028Zm-11.977-3.97a6.47 6.47 0 0 0 1.224 4.321v11.656a1.77 1.77 0 0 1-.245.017H3.75A1.75 1.75 0 0 1 2 20.246V7.751c0-.966.784-1.75 1.75-1.75h6.269ZM9.243 17.5H7.74l-.102.007a.75.75 0 0 0 0 1.486L7.74 19h1.502l.102-.007a.75.75 0 0 0 0-1.486l-.102-.007Zm6.996 0h-1.5l-.102.007a.75.75 0 0 0 0 1.486l.102.007h1.5l.101-.007a.75.75 0 0 0 0-1.486l-.101-.007ZM16.5 1a5.5 5.5 0 1 1 0 11 5.5 5.5 0 0 1 0-11Zm.292 2.545-.076.044-.07.057-.057.07a.5.5 0 0 0 0 .568l.057.07 1.646 1.645L13.494 6l-.09.008a.5.5 0 0 0-.402.402l-.008.09.008.09a.5.5 0 0 0 .402.402l.09.008 4.8-.001-1.648 1.647-.057.07a.5.5 0 0 0 .695.695l.07-.057 2.53-2.533.036-.05.042-.08.026-.083.01-.064v-.088l-.01-.064-.026-.083-.041-.08-.038-.05-2.53-2.533-.069-.057a.5.5 0 0 0-.492-.044Z"/></svg>