<svg xmlns="http://www.w3.org/2000/svg" width="20" height="20"><path d="M17 9a8 8 0 1 0-6.278 7.814 5.932 5.932 0 0 1-.2-.428c-.32-.763-.487-1.603-.517-2.503v-.008L10 13.593v-2.51c0-.743.589-1.416 1.4-1.416.906 0 1.757-.363 2.597-1.238a1.389 1.389 0 0 1 2.009.001c.2.209.399.387.597.537.131.1.263.186.394.263A8.82 8.82 0 0 0 17 9ZM8.508 7.91a.5.5 0 0 1 .984 0L9.5 8v4.502l-.008.09a.5.5 0 0 1-.984 0l-.008-.09V8l.008-.09ZM8.25 5.75a.75.75 0 1 1 1.5 0 .75.75 0 0 1-1.5 0ZM17 10.347a4.632 4.632 0 0 1-1-.583 6.055 6.055 0 0 1-.716-.642.389.389 0 0 0-.566 0c-.995 1.036-2.095 1.545-3.318 1.545-.22 0-.4.186-.4.416v2.501l.004.266c.027.797.174 1.514.44 2.15A4.813 4.813 0 0 0 13 18c.524.4 1.15.727 1.874.979a.395.395 0 0 0 .254 0c2.56-.89 3.873-2.713 3.873-5.395v-2.5l-.008-.085a.405.405 0 0 0-.392-.332 4.057 4.057 0 0 1-1.6-.32Z"/></svg>