<svg xmlns="http://www.w3.org/2000/svg" width="28" height="28"><path d="M24 13a1 1 0 0 1 .993.883L25 14v8a4 4 0 0 1-3.8 3.995L21 26H7a4 4 0 0 1-3.995-3.8L3 22v-8a1 1 0 0 1 1.993-.117L5 14v8a2 2 0 0 0 1.85 1.994L7 24h14a2 2 0 0 0 1.994-1.85L23 22v-8a1 1 0 0 1 1-1ZM6.929 8.657l6.364-6.364a1 1 0 0 1 1.32-.083l.094.083 6.364 6.364a1 1 0 0 1-1.32 1.497l-.094-.083L15 5.414V18a1 1 0 0 1-.883.993L14 19a1 1 0 0 1-.993-.883L13 18V5.414l-4.657 4.657a1 1 0 0 1-1.32.083l-.094-.083a1 1 0 0 1-.083-1.32l.083-.094 6.364-6.364-6.364 6.364Z"/></svg>