<svg xmlns="http://www.w3.org/2000/svg" width="24" height="24"><path d="M20.026 17.001c-2.762 4.784-8.879 6.423-13.663 3.661A9.965 9.965 0 0 1 3.13 17.68a.75.75 0 0 1 .365-1.132c3.767-1.348 5.785-2.91 6.956-5.146 1.232-2.353 1.551-4.93.689-8.463a.75.75 0 0 1 .769-.927 9.961 9.961 0 0 1 4.457 1.327c4.784 2.762 6.423 8.879 3.66 13.662Zm-8.248-4.903c-1.25 2.389-3.31 4.1-6.817 5.499a8.49 8.49 0 0 0 2.152 1.766 8.502 8.502 0 0 0 8.502-14.725 8.484 8.484 0 0 0-2.792-1.015c.647 3.384.23 6.043-1.045 8.475Z"/></svg>