<svg xmlns="http://www.w3.org/2000/svg" width="24" height="24" viewBox="0 0 24 24"><path d="M5 4a2 2 0 0 1 2-2h5.5v4.75c0 .966.784 1.75 1.75 1.75H19v2.674A6.5 6.5 0 0 0 11.174 19H7a2 2 0 0 1-2-2V4Zm3 1.75c0 .414.336.75.75.75h1.5a.75.75 0 0 0 0-1.5h-1.5a.75.75 0 0 0-.75.75ZM8.75 8a.75.75 0 0 0 0 1.5h1.5a.75.75 0 0 0 0-1.5h-1.5ZM8 11.75c0 .414.336.75.75.75h1.5a.75.75 0 0 0 0-1.5h-1.5a.75.75 0 0 0-.75.75ZM12.81 22a6.518 6.518 0 0 1-1.078-1.5H6.5a3 3 0 0 1-3-3v-1.75a.75.75 0 0 0-1.5 0v1.75A4.5 4.5 0 0 0 6.5 22h6.31ZM19 7l-5-4.998V6.75c0 .138.112.25.25.25H19Zm4 10.5a5.5 5.5 0 1 0-11 0 5.5 5.5 0 0 0 11 0Zm-5 .5.001 2.503a.5.5 0 1 1-1 0V18h-2.505a.5.5 0 0 1 0-1H17v-2.5a.5.5 0 1 1 1 0V17h2.497a.5.5 0 0 1 0 1H18ZM12.5 2h1.498Z"/></svg>