<svg xmlns="http://www.w3.org/2000/svg" width="48" height="48" viewBox="0 0 48 48"><path d="M23.209 6.518a17.418 17.418 0 0 1 10.175 2.709c-2 3.067-4.399 5.464-5.636 6.606-.972.896-.97 2.383-.143 3.31a10.653 10.653 0 0 1 2.605 5.466c.352-.195.71-.377 1.072-.546 3.773-1.76 8.464-2.358 12.632-1.93C42.972 11.963 34.416 4 24 4 12.954 4 4 12.954 4 24s8.954 20 20 20h.172c.041-.118.09-.234.148-.347.39-.777.792-1.516 1.202-2.218A17.74 17.74 0 0 1 24 41.5c-4.768 0-9.09-1.907-12.247-5 0-.036-.002-.072-.005-.109-.245-2.809-.041-4.433.308-5.369.312-.84.734-1.123 1.18-1.283.268-.097.575-.157.955-.209l.363-.045c.28-.034.602-.073.874-.12.889-.157 2.048-.518 2.692-1.806.547-1.094.507-2.253.36-3.218-.074-.49-.184-.975-.287-1.414l-.04-.175c-.09-.385-.172-.73-.234-1.068-.148-.804-.127-1.276.012-1.583.103-.23.382-.604 1.415-.9 2.333-.666 3.983-1.65 4.997-2.947 1.037-1.328 1.29-2.834 1.12-4.276-.168-1.409-.74-2.787-1.387-3.992-.274-.51-.57-1.003-.867-1.468Zm21.74 17.767c-4.143-.67-9.047-.17-12.822 1.59-1.896.885-3.574 2.12-4.698 3.756-1.142 1.663-1.665 3.676-1.327 5.98a9.91 9.91 0 0 0 1.052 3.254 33.398 33.398 0 0 1 6.7-7.266 27.849 27.849 0 0 1 2.626-1.873 18.41 18.41 0 0 1 1.046-.607l.018-.008.005-.003.004-.002a1 1 0 0 1 .898 1.787l-.009.004a5.668 5.668 0 0 0-.215.117c-.157.087-.39.223-.688.408a25.86 25.86 0 0 0-2.434 1.738 31.45 31.45 0 0 0-6.775 7.553c-.023.036-.048.07-.075.103a37.902 37.902 0 0 0-2.148 3.734 1 1 0 1 0 1.787.898 35.916 35.916 0 0 1 1.985-3.461 10.36 10.36 0 0 0 2.8 1.444c1.525.514 3.123.675 4.567.5 1.428-.171 2.81-.685 3.786-1.63 1.273-1.234 2.018-2.395 2.434-3.623.405-1.198.465-2.377.503-3.525l.012-.362c.067-2.185.146-4.771 1.913-8.767a1.25 1.25 0 0 0-.944-1.74Z"/></svg>