<svg xmlns="http://www.w3.org/2000/svg" width="28" height="28" viewBox="0 0 28 28"><path d="M17.754 11c.966 0 1.75.784 1.75 1.75v6.749a5.501 5.501 0 0 1-11.002 0V12.75c0-.966.783-1.75 1.75-1.75h7.502ZM3.75 11l4.382-.002a2.73 2.73 0 0 0-.621 1.532l-.01.22v6.749c0 1.133.291 2.199.8 3.127A4.501 4.501 0 0 1 2 18.499V12.75A1.751 1.751 0 0 1 3.751 11Zm16.124-.002L24.25 11c.966 0 1.75.784 1.75 1.75v5.75a4.5 4.5 0 0 1-6.298 4.127l.056-.102c.429-.813.69-1.729.738-2.7l.008-.326V12.75c0-.666-.237-1.276-.63-1.752ZM14 3a3.5 3.5 0 1 1 0 7 3.5 3.5 0 0 1 0-7Zm8.003 1a3 3 0 1 1 0 6 3 3 0 0 1 0-6ZM5.997 4a3 3 0 1 1 0 6 3 3 0 0 1 0-6Z"/></svg>