<svg xmlns="http://www.w3.org/2000/svg" width="28" height="28"><path d="M15.2 18.05a.75.75 0 0 1 .75-.75h4.5a.75.75 0 0 1 0 1.5h-4.5a.75.75 0 0 1-.75-.75ZM10.99 7.699a.75.75 0 1 0-1.5.003L9.494 9.5H7.75a.75.75 0 0 0 0 1.5h1.747l.003 1.752a.75.75 0 0 0 1.5-.004L10.997 11h1.753a.75.75 0 0 0 0-1.5h-1.756l-.004-1.801ZM14 26C7.373 26 2 20.627 2 14S7.373 2 14 2s12 5.373 12 12-5.373 12-12 12Zm0-1.5c5.799 0 10.5-4.701 10.5-10.5 0-2.63-.967-5.033-2.564-6.876L7.124 21.936A10.46 10.46 0 0 0 14 24.5Zm-7.936-3.625L20.875 6.064A10.46 10.46 0 0 0 14 3.5C8.201 3.5 3.5 8.201 3.5 14c0 2.63.967 5.033 2.564 6.875Z"/></svg>