<svg xmlns="http://www.w3.org/2000/svg" width="24" height="24"><path d="M2 7.25A3.25 3.25 0 0 1 5.25 4h13.5A3.25 3.25 0 0 1 22 7.25v9.5A3.25 3.25 0 0 1 18.75 20H5.25A3.25 3.25 0 0 1 2 16.75v-9.5ZM5.25 5.5A1.75 1.75 0 0 0 3.5 7.25v9.5c0 .966.784 1.75 1.75 1.75h13.5a1.75 1.75 0 0 0 1.75-1.75v-9.5a1.75 1.75 0 0 0-1.75-1.75H5.25ZM5 13.25a.75.75 0 0 1 .75-.75h7.5a.75.75 0 0 1 0 1.5h-7.5a.75.75 0 0 1-.75-.75Zm10.75-.75a.75.75 0 0 0 0 1.5h2.5a.75.75 0 0 0 0-1.5h-2.5ZM5 16.25a.75.75 0 0 1 .75-.75h3.5a.75.75 0 0 1 0 1.5h-3.5a.75.75 0 0 1-.75-.75Zm6.75-.75a.75.75 0 0 0 0 1.5h6.5a.75.75 0 0 0 0-1.5h-6.5Z"/></svg>