<svg xmlns="http://www.w3.org/2000/svg" width="24" height="24"><path d="M17.75 3A3.25 3.25 0 0 1 21 6.25v11.5A3.25 3.25 0 0 1 17.75 21H6.25A3.25 3.25 0 0 1 3 17.75V6.25A3.25 3.25 0 0 1 6.25 3h11.5Zm0 1.5H6.25A1.75 1.75 0 0 0 4.5 6.25V13H9a.75.75 0 0 1 .743.648l.007.102a2.25 2.25 0 0 0 4.495.154l.005-.154A.75.75 0 0 1 15 13h4.5V6.25a1.75 1.75 0 0 0-1.607-1.744L17.75 4.5Zm-11 5h10.5a.75.75 0 0 1 .102 1.493L17.25 11H6.75a.75.75 0 0 1-.102-1.493L6.75 9.5h10.5-10.5Zm0-3h10.5a.75.75 0 0 1 .102 1.493L17.25 8H6.75a.75.75 0 0 1-.102-1.493L6.75 6.5h10.5-10.5Z"/></svg>