<svg xmlns="http://www.w3.org/2000/svg" width="16" height="16"><path d="M9 5.5a4.5 4.5 0 1 1-9 0 4.5 4.5 0 0 1 9 0ZM4.5 3a.5.5 0 0 0-.5.5v2a.5.5 0 0 0 .5.5H6a.5.5 0 0 0 0-1H5V3.5a.5.5 0 0 0-.5-.5Zm8.103 6.5H8.276c.316-.299.597-.634.835-1h2.422l-.91-1.706a1.499 1.499 0 0 0-.661-.64 5.555 5.555 0 0 0 .023-1.058 2.5 2.5 0 0 1 1.52 1.228l1.136 2.128.134.048h.053v.019l1.51.537A2.5 2.5 0 0 1 16 11.41v.339c0 .71-.422 1.32-1.03 1.595a2 2 0 0 1-3.907.155H6.937a2 2 0 0 1-3.907-.155A1.75 1.75 0 0 1 2 11.75v-1.114c0-.077.004-.154.01-.23.314.16.645.29.99.388v.956c0 .175.06.336.16.464a2 2 0 0 1 3.777.286h4.126a2 2 0 0 1 3.776-.286.746.746 0 0 0 .161-.464v-.339c0-.634-.4-1.2-.997-1.413l-1.4-.498ZM4 13a1 1 0 1 0 2 0 1 1 0 0 0-2 0Zm9-1a1 1 0 1 0 0 2 1 1 0 0 0 0-2Z"/></svg>