<svg xmlns="http://www.w3.org/2000/svg" width="24" height="24"><path d="M9.909 3.7a3.875 3.875 0 0 1 4.182 0l8.064 5.17a.75.75 0 0 1 .005 1.259L19 12.194v5.557a.75.75 0 0 1-.15.45l-.001.001-.001.002-.003.004-.009.01a2.228 2.228 0 0 1-.11.134 5.297 5.297 0 0 1-.318.33c-.277.267-.69.614-1.25.958C16.037 20.33 14.339 21 12 21c-2.339 0-4.036-.67-5.159-1.36a7.427 7.427 0 0 1-1.25-.957 5.285 5.285 0 0 1-.316-.33 2.68 2.68 0 0 1-.124-.15L5.15 18.2a.75.75 0 0 1-.15-.45v-5.558l-2-1.306v5.364a.75.75 0 1 1-1.5 0V9.5a.75.75 0 0 1 .358-.64l8.05-5.16Zm4.21 11.682a3.875 3.875 0 0 1-4.238 0L6.5 13.174v4.296a5.934 5.934 0 0 0 1.127.893C8.536 18.92 9.964 19.5 12 19.5s3.464-.58 4.373-1.139a5.935 5.935 0 0 0 1.127-.892v-4.296l-3.38 2.208Zm-.837-10.419c-.781-.5-1.783-.5-2.564 0L3.63 9.507l7.071 4.62c.79.515 1.809.515 2.598 0l7.07-4.62-7.087-4.544Z"/></svg>