<svg xmlns="http://www.w3.org/2000/svg" width="24" height="24"><path d="M8.25 2a3.25 3.25 0 0 0-3.241 3.007c.08-.005.16-.007.241-.007h9.5A4.25 4.25 0 0 1 19 9.25V13h.25c.955 0 1.843.282 2.588.766A3.25 3.25 0 0 0 22 12.75v-6A4.75 4.75 0 0 0 17.25 2h-9ZM18 9.25V13h-2.25a4.75 4.75 0 0 0-4.584 6h-.5L7 21.75c-.824.618-2 .03-2-1v-1.76a3.25 3.25 0 0 1-3-3.24v-6.5A3.25 3.25 0 0 1 5.25 6h9.5A3.25 3.25 0 0 1 18 9.25Zm5 8.5A3.75 3.75 0 0 0 19.25 14l-.102.007a.75.75 0 0 0 .102 1.493l.154.005A2.25 2.25 0 0 1 19.25 20l-.003.005-.102.007a.75.75 0 0 0 .108 1.493V21.5l.2-.005A3.75 3.75 0 0 0 23 17.75Zm-6.5-3a.75.75 0 0 0-.75-.75l-.2.005a3.75 3.75 0 0 0 .2 7.495l.102-.007A.75.75 0 0 0 15.75 20l-.154-.005a2.25 2.25 0 0 1 .154-4.495l.102-.007a.75.75 0 0 0 .648-.743Zm3.5 3a.75.75 0 0 0-.75-.75h-3.5l-.102.007a.75.75 0 0 0 .102 1.493h3.5l.102-.007A.75.75 0 0 0 20 17.75Z"/></svg>