<svg xmlns="http://www.w3.org/2000/svg" width="20" height="20" viewBox="0 0 20 20"><path d="M17.31 3a.75.75 0 0 1 .69.748V9.25a.75.75 0 0 1-1.5 0V6.113a4.405 4.405 0 0 1-.311.229.75.75 0 0 1-.832-1.249c.616-.41 1.063-1.062 1.16-1.505A.747.747 0 0 1 17.31 3ZM10.2 15.07a.786.786 0 0 1-.2-.546V6.607a.83.83 0 0 1 .212-.577l.004-.004a.76.76 0 0 1 .563-.234.74.74 0 0 1 .56.236c.15.159.22.359.22.58v2.347c.143-.14.304-.262.481-.366l.002-.001c.397-.23.84-.344 1.324-.344.87 0 1.588.33 2.128.986.537.652.793 1.506.793 2.538 0 1.035-.256 1.891-.793 2.544-.541.653-1.265.98-2.147.98-.493 0-.943-.113-1.342-.345h-.001a2.499 2.499 0 0 1-.495-.38.745.745 0 0 1-.766.724.723.723 0 0 1-.54-.217l-.003-.004Zm1.81-1.76c.298.372.669.55 1.13.55.488 0 .855-.177 1.13-.53.28-.364.434-.876.434-1.562 0-.682-.154-1.193-.435-1.558-.275-.357-.642-.535-1.129-.535-.46 0-.831.18-1.13.556-.297.375-.457.88-.457 1.537 0 .66.16 1.167.456 1.542ZM1.75 14.517c0 .211.085.395.243.535L2 15.06a.88.88 0 0 0 .57.191.8.8 0 0 0 .493-.156.917.917 0 0 0 .3-.431l.746-2.026h3.274l.751 2.026a.915.915 0 0 0 .3.43.8.8 0 0 0 .494.157.86.86 0 0 0 .568-.194.69.69 0 0 0 .253-.54c0-.124-.035-.26-.086-.395l-2.95-7.686a1.102 1.102 0 0 0-.366-.506.966.966 0 0 0-.584-.18c-.224 0-.43.055-.605.18a1.088 1.088 0 0 0-.378.513l-2.944 7.679a1.14 1.14 0 0 0-.086.395ZM6.878 11.2H4.622L5.75 8.104l1.128 3.097Z"/></svg>