<svg xmlns="http://www.w3.org/2000/svg" width="32" height="32"><path d="M4 16C4 9.373 9.373 4 16 4s12 5.373 12 12-5.373 12-12 12S4 22.627 4 16ZM16 2C8.268 2 2 8.268 2 16s6.268 14 14 14 14-6.268 14-14S23.732 2 16 2Zm-1.62 17.164a3.983 3.983 0 0 0-.8 1.836h5.92a1 1 0 1 1 0 2h-7a1 1 0 0 1-1-1c0-1.745.506-3.05 1.307-4.07.776-.99 1.788-1.653 2.674-2.191l.475-.286c.72-.43 1.305-.78 1.765-1.213.494-.464.778-.97.778-1.74A2.5 2.5 0 0 0 16 10c-.817 0-1.49.326-1.98.683a4.188 4.188 0 0 0-.69.634 1.474 1.474 0 0 0-.027.033l-.002.004a1 1 0 0 1-1.598-1.203l.001-.002c.03-.04.062-.078.094-.116.053-.063.127-.148.222-.248.19-.198.466-.458.823-.718C13.554 8.549 14.63 8 16 8a4.5 4.5 0 0 1 4.5 4.5c0 1.418-.59 2.427-1.408 3.197-.633.596-1.446 1.08-2.168 1.51-.138.082-.274.162-.404.241-.864.525-1.602 1.033-2.139 1.716Z"/></svg>