<svg xmlns="http://www.w3.org/2000/svg" width="16" height="16"><path d="M3.003 2.645C2.979 1.681 3.8 1 4.68 1h6.638c.88 0 1.702.681 1.678 1.645-.025 1.017-.24 1.791-.567 2.407-.325.614-.747 1.04-1.14 1.38-.136.118-.276.23-.403.333l-.147.12a4.371 4.371 0 0 0-.42.379C10.107 7.49 10 7.7 10 8s.107.51.32.736c.112.121.25.241.419.38.046.037.096.077.147.12.127.102.267.214.402.332.393.34.814.766 1.14 1.38.326.615.541 1.389.568 2.405.025.965-.798 1.647-1.679 1.647H4.68c-.88 0-1.704-.682-1.678-1.647.026-1.017.241-1.79.568-2.405.326-.614.748-1.041 1.141-1.38.136-.118.275-.23.402-.333l.148-.12c.169-.138.307-.258.42-.379C5.892 8.51 6 8.3 6 8s-.108-.51-.32-.736a4.372 4.372 0 0 0-.42-.38 29.119 29.119 0 0 0-.148-.119 15.82 15.82 0 0 1-.402-.333c-.393-.34-.815-.766-1.141-1.38-.327-.616-.541-1.39-.566-2.407ZM4.68 2c-.405 0-.687.3-.679.62.022.884.206 1.502.45 1.963.245.462.567.795.911 1.093.123.106.242.202.363.3l.167.135c.175.143.356.298.517.47.334.357.59.8.59 1.419 0 .618-.255 1.062-.59 1.42-.16.17-.341.325-.516.469l-.168.136c-.121.098-.24.193-.362.3-.345.297-.666.63-.912 1.092-.244.46-.429 1.078-.452 1.962-.008.32.274.621.679.621h6.638c.405 0 .687-.301.679-.621-.023-.884-.207-1.502-.451-1.962-.246-.462-.567-.795-.911-1.093-.123-.106-.24-.202-.362-.3l-.167-.135a5.312 5.312 0 0 1-.516-.47c-.335-.357-.59-.8-.59-1.419 0-.618.256-1.062.59-1.42.161-.171.342-.326.517-.469l.167-.135c.122-.098.24-.194.363-.3.344-.298.666-.631.911-1.093.244-.46.428-1.079.45-1.963.008-.32-.274-.62-.678-.62H4.68Z"/></svg>