<svg xmlns="http://www.w3.org/2000/svg" width="20" height="20"><path d="M5 2a3 3 0 0 0-3 3v8a3 3 0 0 0 3 3h4.207a5.48 5.48 0 0 1-.185-1H5a2 2 0 0 1-2-2V5a2 2 0 0 1 2-2h8a2 2 0 0 1 2 2v4.022a5.5 5.5 0 0 1 1 .185V5a3 3 0 0 0-3-3H5Zm7.854 4.854a.5.5 0 0 0-.708-.708L7.5 10.793 5.854 9.146a.5.5 0 1 0-.708.708l2 2a.5.5 0 0 0 .708 0l5-5ZM14.5 10a4.5 4.5 0 1 1 0 9 4.5 4.5 0 0 1 0-9Zm2.353 4.854.003-.003a.499.499 0 0 0 .144-.348v-.006a.5.5 0 0 0-.146-.35l-2-2a.5.5 0 0 0-.708.707L15.293 14H12.5a.5.5 0 0 0 0 1h2.793l-1.147 1.146a.5.5 0 0 0 .708.708l2-2Z"/></svg>