<svg xmlns="http://www.w3.org/2000/svg" width="24" height="24"><path d="M14.754 10a1.75 1.75 0 0 1 1.678 1.25h-.682c-.41 0-.798.09-1.147.25H9.252a.25.25 0 0 0-.25.25v4.749c0 1.306.834 2.417 1.998 2.83v1.559a4.503 4.503 0 0 1-3.498-4.389V11.75c0-.966.783-1.75 1.75-1.75h5.502Zm4.496 1.25A2.75 2.75 0 0 1 22 13.988V11.75A1.75 1.75 0 0 0 20.25 10h-3.375c.292.353.497.78.584 1.25h1.791ZM3.75 10h3.381a2.738 2.738 0 0 0-.618 1.5H3.75a.25.25 0 0 0-.25.25v3.249a2.501 2.501 0 0 0 3.082 2.433c.085.504.24.985.453 1.432A4.001 4.001 0 0 1 2 14.999V11.75c0-.966.784-1.75 1.75-1.75ZM12 3a3 3 0 1 1 0 6 3 3 0 0 1 0-6Zm0 1.5a1.5 1.5 0 1 0 0 3 1.5 1.5 0 0 0 0-3Zm6.5-.5a2.5 2.5 0 1 1 0 5 2.5 2.5 0 0 1 0-5Zm0 1.5a1 1 0 1 0 0 2 1 1 0 0 0 0-2ZM5.5 4a2.5 2.5 0 1 1 0 5 2.5 2.5 0 0 1 0-5Zm0 1.5a1 1 0 1 0 0 2 1 1 0 0 0 0-2ZM14 15h-.5a1.5 1.5 0 0 0-1.5 1.5V18h2.5v-.25a.75.75 0 0 1 1.5 0V18h3v-.25a.75.75 0 0 1 1.5 0V18H23v-1.5a1.5 1.5 0 0 0-1.5-1.5H21v-1a1.75 1.75 0 0 0-1.75-1.75h-3.5A1.75 1.75 0 0 0 14 14v1Zm1.5-1a.25.25 0 0 1 .25-.25h3.5a.25.25 0 0 1 .25.25v1h-4v-1ZM12 21.5v-2h2.5v.75a.75.75 0 0 0 1.5 0v-.75h3v.75a.75.75 0 0 0 1.5 0v-.75H23v2a1.5 1.5 0 0 1-1.5 1.5h-8a1.5 1.5 0 0 1-1.5-1.5Z"/></svg>