<svg xmlns="http://www.w3.org/2000/svg" width="24" height="24"><path d="M16.725 2.22a.75.75 0 0 1 1.06 0l4 4a.75.75 0 0 1-1.06 1.06l-.47-.47L18.56 8.5l2.47 2.47a.75.75 0 1 1-1.061 1.06l-1.47-1.47-6.841 6.842A3.75 3.75 0 0 1 9.007 18.5H6.561l-3.28 3.28a.75.75 0 0 1-1.061-1.06l3.28-3.28v-2.447a3.75 3.75 0 0 1 1.098-2.652l.871-.87s0-.001 0 0l.001-.002 2-1.999c-.001 0 0 0 0 0l1.999-2 .002-.001L13.438 5.5l-1.47-1.47a.75.75 0 0 1 1.061-1.06l2.47 2.47 1.694-1.69-.47-.47a.75.75 0 0 1 0-1.06ZM12 9.06l-.94.94.72.72a.75.75 0 1 1-1.06 1.06l-.72-.72-.94.94.72.72a.75.75 0 1 1-1.06 1.06L8 13.06l-.341.342A2.25 2.25 0 0 0 7 14.992V17h2.007a2.25 2.25 0 0 0 1.591-.659L17.44 9.5 14.5 6.56 13.06 8l.72.72a.75.75 0 0 1-1.06 1.06L12 9.06Zm7.194-3.31-.94-.94-1.693 1.69.939.94 1.694-1.69Z"/></svg>