<svg xmlns="http://www.w3.org/2000/svg" width="20" height="20"><path d="M10 3a1.5 1.5 0 1 0 0 3 1.5 1.5 0 0 0 0-3ZM7.5 4.5a2.5 2.5 0 1 1 5 0 2.5 2.5 0 0 1-5 0Zm8-.5a1 1 0 1 0 0 2 1 1 0 0 0 0-2Zm-2 1a2 2 0 1 1 4 0 2 2 0 0 1-4 0Zm-10 0a1 1 0 1 1 2 0 1 1 0 0 1-2 0Zm1-2a2 2 0 1 0 0 4 2 2 0 0 0 0-4Zm.6 11.998A2 2 0 0 1 3 13V9.25A.25.25 0 0 1 3.25 9h1.764c.04-.367.17-.708.365-1H3.25C2.56 8 2 8.56 2 9.25V13a3 3 0 0 0 3.404 2.973 4.963 4.963 0 0 1-.304-.975Zm9.496.975A3 3 0 0 0 18 13V9.25C18 8.56 17.44 8 16.75 8h-2.129c.196.292.325.633.365 1h1.764a.25.25 0 0 1 .25.25V13a2 2 0 0 1-2.1 1.998 4.966 4.966 0 0 1-.304.975ZM7.25 8C6.56 8 6 8.56 6 9.25V14a4 4 0 0 0 8 0V9.25C14 8.56 13.44 8 12.75 8h-5.5ZM7 9.25A.25.25 0 0 1 7.25 9h5.5a.25.25 0 0 1 .25.25V14a3 3 0 1 1-6 0V9.25Z"/></svg>