<svg xmlns="http://www.w3.org/2000/svg" width="16" height="16"><path d="M14 1.5a.5.5 0 0 0-1 0V2h-.5a.5.5 0 0 0 0 1h.5v.5a.5.5 0 0 0 1 0V3h.5a.5.5 0 0 0 0-1H14v-.5Zm-10 2a.5.5 0 0 0-1 0V4h-.5a.5.5 0 0 0 0 1H3v.5a.5.5 0 0 0 1 0V5h.5a.5.5 0 0 0 0-1H4v-.5Zm9 8a.5.5 0 0 1-.5.5H12v.5a.5.5 0 0 1-1 0V12h-.5a.5.5 0 0 1 0-1h.5v-.5a.5.5 0 0 1 1 0v.5h.5a.5.5 0 0 1 .5.5ZM8.73 4.563a1.914 1.914 0 0 1 2.707 2.708l-.48.48L8.25 5.042l.48-.48ZM7.543 5.75l2.707 2.707-5.983 5.983a1.914 1.914 0 0 1-2.707-2.707L7.543 5.75Z"/></svg>