<svg xmlns="http://www.w3.org/2000/svg" width="20" height="20"><path d="M8.022 5H6a2 2 0 0 0-2 2v4h3.5a.5.5 0 0 1 .5.5v.011l.004.06a2.574 2.574 0 0 0 .256.955c.126.254.308.492.572.667.26.174.63.307 1.168.307.537 0 .907-.133 1.168-.307.264-.175.446-.413.572-.667.076-.152.13-.305.169-.448a2.798 2.798 0 0 0 .09-.566l.001-.013a.5.5 0 0 1 .5-.499H16v-.6a5.505 5.505 0 0 0 1-.657V15a3 3 0 0 1-3 3H6a3 3 0 0 1-3-3V7a3 3 0 0 1 3-3h2.207a5.482 5.482 0 0 0-.185 1Zm-.972 7H4v3a2 2 0 0 0 2 2h8a2 2 0 0 0 2-2v-3h-3.05a3.563 3.563 0 0 1-.315.974 2.693 2.693 0 0 1-.912 1.051c-.443.295-1.01.475-1.723.475-.712 0-1.28-.18-1.723-.475a2.693 2.693 0 0 1-.912-1.051A3.563 3.563 0 0 1 7.05 12Zm6.45-2a4.5 4.5 0 1 0 0-9 4.5 4.5 0 0 0 0 9Zm-2.354-4.146a.5.5 0 0 1 .708-.708L13 6.293V3.5a.5.5 0 0 1 1 0v2.793l1.146-1.147a.5.5 0 0 1 .708.708l-2 2a.499.499 0 0 1-.351.146h-.006a.498.498 0 0 1-.348-.144l-.003-.003-2-2Z"/></svg>