<svg xmlns="http://www.w3.org/2000/svg" width="28" height="28"><path d="M16.5 4.814c0-1.094-1.307-1.66-2.105-.912l-4.937 4.63a1.75 1.75 0 0 1-1.197.473H5.25A3.25 3.25 0 0 0 2 12.255v3.492a3.25 3.25 0 0 0 3.25 3.25h3.012c.444 0 .872.17 1.196.473l4.937 4.626c.799.748 2.105.182 2.105-.912V4.814ZM19.5 21v-2.333l-1.372-2.439a1.004 1.004 0 0 1-.128-.49v-4.167a1 1 0 0 1 1-1V8a1 1 0 0 1 1-1h4a1 1 0 0 1 1 1v2.571a1 1 0 0 1 1 1v4.167a1 1 0 0 1-.128.49L24.5 18.667V21a1 1 0 0 1-1 1h-3a1 1 0 0 1-1-1Zm4-12.5h-3v2.071h3V8.5Z"/></svg>