<svg xmlns="http://www.w3.org/2000/svg" width="20" height="20" viewBox="0 0 20 20"><path d="M9 5.874a.833.833 0 1 0 0-1.667.833.833 0 0 0 0 1.667ZM2.5 17h6.499v-1h-6v-.833c0-.645.523-1.167 1.167-1.167h4.833v-.5c0-.563.186-1.083.5-1.5V8H11v3.05a2.78 2.78 0 0 1 .042-.008A2.5 2.5 0 0 1 12 9.5V8h2v1h1V8h.093c.893 0 1.26-1.147.53-1.664l-5.85-4.152a1.333 1.333 0 0 0-1.544 0L2.376 6.335c-.728.517-.363 1.664.53 1.664H3v5.34c-.601.386-1 1.06-1 1.827v1.333a.5.5 0 0 0 .5.5ZM8.806 3a.333.333 0 0 1 .385 0l5.639 4H3.168l5.639-4ZM3.999 13.005V8h2v5H4.166c-.056 0-.112.002-.167.006ZM8.5 13H7V8h1.5v5Zm3.5-1v-.5a1.5 1.5 0 0 1 1.5-1.5h2a1.5 1.5 0 0 1 1.5 1.5v.5h.5a1.5 1.5 0 0 1 1.5 1.5V15h-2v-.5a.5.5 0 1 0-1 0v.5h-3v-.5a.5.5 0 1 0-1 0v.5h-2v-1.5a1.5 1.5 0 0 1 1.5-1.5h.5Zm1-.5v.5h3v-.5a.5.5 0 0 0-.5-.5h-2a.5.5 0 0 0-.5.5Zm4 4.5h2v1.5a1.5 1.5 0 0 1-1.5 1.5h-6a1.5 1.5 0 0 1-1.5-1.5V16h2v.5a.5.5 0 1 0 1 0V16h3v.5a.5.5 0 1 0 1 0V16Z"/></svg>