<svg xmlns="http://www.w3.org/2000/svg" width="24" height="24"><path d="M3 6.25A3.25 3.25 0 0 1 6.25 3h4a.75.75 0 0 1 0 1.5h-4A1.75 1.75 0 0 0 4.5 6.25v4a.75.75 0 0 1-1.5 0v-4Zm10-2.5a.75.75 0 0 1 .75-.75h4A3.25 3.25 0 0 1 21 6.25v4a.75.75 0 0 1-1.5 0v-4a1.75 1.75 0 0 0-1.75-1.75h-4a.75.75 0 0 1-.75-.75ZM3.75 13a.75.75 0 0 1 .75.75v4c0 .206.036.404.101.588l5.631-5.63a2.5 2.5 0 0 1 3.536 0l5.63 5.63c.066-.184.102-.382.102-.588v-4a.75.75 0 0 1 1.5 0v4A3.25 3.25 0 0 1 17.75 21h-4a.75.75 0 0 1 0-1.5h4c.206 0 .404-.036.588-.101l-5.63-5.631a1 1 0 0 0-1.415 0l-5.631 5.63c.184.066.382.102.588.102h4a.75.75 0 0 1 0 1.5h-4A3.25 3.25 0 0 1 3 17.75v-4a.75.75 0 0 1 .75-.75Zm11.5-5a.75.75 0 1 0 0 1.5.75.75 0 0 0 0-1.5ZM13 8.75a2.25 2.25 0 1 1 4.5 0 2.25 2.25 0 0 1-4.5 0Z"/></svg>