<svg xmlns="http://www.w3.org/2000/svg" width="16" height="16" viewBox="0 0 16 16"><path d="m11.284 11.99 2.862 2.864a.5.5 0 0 0 .708-.708l-13-13a.5.5 0 1 0-.708.708l2.566 2.565-2.169 1.926C1.211 6.62 1 7.035 1 7.5v2A2.5 2.5 0 0 0 3.5 12h1A2.5 2.5 0 0 0 7 9.5V9h1.293l.716.716a2.5 2.5 0 0 0 2.275 2.275ZM5.293 6H3.437l.983-.873.873.873Zm8.48 5.652L9.095 6.974A1.5 1.5 0 0 1 10.5 6h2.063L10.31 4H9.5a.5.5 0 1 1 0-1h1a.5.5 0 0 1 .332.126l3.625 3.219c.332.275.543.69.543 1.155v2c0 .916-.492 1.716-1.227 2.152ZM5.213 3.09 6.12 4h.38a.5.5 0 1 0 0-1h-1a.5.5 0 0 0-.288.091Z"/></svg>