<svg xmlns="http://www.w3.org/2000/svg" width="16" height="16" viewBox="0 0 16 16"><path d="m11.334 2.064.077.153.576 1.533c.045.12.14.216.261.261l1.48.556c.65.243.999.937.826 1.594l-.042.13-.688 1.523a.446.446 0 0 0 0 .37l.654 1.44a1.34 1.34 0 0 1-.544 1.71l-.153.077-1.533.576a.447.447 0 0 0-.26.261l-.556 1.48a1.34 1.34 0 0 1-1.595.826l-.13-.042-1.523-.688a.446.446 0 0 0-.37 0l-1.439.654a1.34 1.34 0 0 1-1.71-.544l-.077-.153-.577-1.533a.447.447 0 0 0-.261-.26l-1.48-.556a1.34 1.34 0 0 1-.826-1.595l.042-.13.689-1.523a.447.447 0 0 0 0-.37L1.52 6.375a1.34 1.34 0 0 1 .543-1.71l.153-.077L3.75 4.01a.447.447 0 0 0 .261-.261l.556-1.48a1.34 1.34 0 0 1 1.594-.826l.13.042 1.523.689a.447.447 0 0 0 .37 0l1.44-.654a1.34 1.34 0 0 1 1.71.543Zm-1.17 3.641-3.187 3.64-1.162-1.162a.447.447 0 0 0-.632.632l1.5 1.5a.447.447 0 0 0 .652-.022l3.5-4a.447.447 0 0 0-.672-.588Z"/></svg>