<svg xmlns="http://www.w3.org/2000/svg" width="24" height="24"><path d="M6.25 3A3.25 3.25 0 0 0 3 6.25v11.5A3.25 3.25 0 0 0 6.25 21h4.915l.356-1.423c.162-.648.497-1.24.97-1.712l1.364-1.365H11.25a.75.75 0 1 1 0-1.5h4.105l3.038-3.038a3.279 3.279 0 0 1 2.607-.95V6.25A3.25 3.25 0 0 0 17.75 3H6.25Zm2.5 5.25a1 1 0 1 1-2 0 1 1 0 0 1 2 0Zm1.75 0a.75.75 0 0 1 .75-.75h5.5a.75.75 0 0 1 0 1.5h-5.5a.75.75 0 0 1-.75-.75Zm0 3.75a.75.75 0 0 1 .75-.75h5.5a.75.75 0 1 1 0 1.5h-5.5a.75.75 0 0 1-.75-.75Zm-2.75-1a1 1 0 1 1 0 2 1 1 0 0 1 0-2Zm1 4.75a1 1 0 1 1-2 0 1 1 0 0 1 2 0Zm10.35-3.08-5.903 5.902a2.686 2.686 0 0 0-.706 1.247l-.458 1.831a1.087 1.087 0 0 0 1.319 1.318l1.83-.457a2.685 2.685 0 0 0 1.248-.707l5.902-5.902A2.286 2.286 0 0 0 19.1 12.67Z"/></svg>