<svg xmlns="http://www.w3.org/2000/svg" width="32" height="32" viewBox="0 0 32 32"><path d="M16 3a4 4 0 1 0 0 8 4 4 0 0 0 0-8Zm-2 4a2 2 0 1 1 4 0 2 2 0 0 1-4 0Zm11.5-3a3.5 3.5 0 1 0 0 7 3.5 3.5 0 0 0 0-7ZM24 7.5a1.5 1.5 0 1 1 3 0 1.5 1.5 0 0 1-3 0Zm-21 0a3.5 3.5 0 1 1 7 0 3.5 3.5 0 0 1-7 0ZM6.5 6a1.5 1.5 0 1 0 0 3 1.5 1.5 0 0 0 0-3ZM7 25c.61 0 1.177-.182 1.651-.495a7.45 7.45 0 0 0 .676 1.922A5 5 0 0 1 2 22v-6.5A2.5 2.5 0 0 1 4.5 13h4.877a3.981 3.981 0 0 0-.846 2H4.5a.5.5 0 0 0-.5.5V22a3 3 0 0 0 3 3Zm16.21-10.998a8.983 8.983 0 0 1 6.79 3.34V15.5a2.5 2.5 0 0 0-2.5-2.5h-4.877c.241.302.44.639.587 1.002ZM19.5 13c.867 0 1.63.441 2.08 1.111a8.936 8.936 0 0 0-2.707.889H12.5a.5.5 0 0 0-.5.5V23a4.002 4.002 0 0 0 2.855 3.834c.372.79.856 1.516 1.43 2.16A6 6 0 0 1 10 23v-7.501a2.5 2.5 0 0 1 2.501-2.5h7Zm3.5 2.5a7.5 7.5 0 1 1 0 15 7.5 7.5 0 0 1 0-15Zm2.72 3.72L23 21.94l-2.72-2.72a.75.75 0 1 0-1.06 1.06L21.94 23l-2.72 2.72a.75.75 0 1 0 1.06 1.06L23 24.06l2.72 2.72a.75.75 0 1 0 1.06-1.06L24.06 23l2.72-2.72a.75.75 0 1 0-1.06-1.06Z"/></svg>