<svg xmlns="http://www.w3.org/2000/svg" width="24" height="24"><path d="M3 6.25A3.25 3.25 0 0 1 6.25 3h11.5A3.25 3.25 0 0 1 21 6.25v11.5A3.25 3.25 0 0 1 17.75 21H6.25A3.25 3.25 0 0 1 3 17.75V6.25ZM6.25 4.5A1.75 1.75 0 0 0 4.5 6.25V11h15V6.25a1.75 1.75 0 0 0-1.75-1.75H6.25ZM4.5 14.083 5.688 12.5H4.5v1.583ZM5.688 15h3.289l.625-2.5h-2.04L5.689 15ZM4.5 16.5v1.25c0 .966.784 1.75 1.75 1.75h1.602l.75-3H4.5Zm5.648 0-.75 3h5.66l-.938-3h-3.972Zm5.544 0 .938 3h1.12a1.75 1.75 0 0 0 1.75-1.75V16.5h-3.808Zm2.62-1.5-1.875-2.5h-1.995l.781 2.5h3.09Zm-4.66 0-.781-2.5h-1.723l-.625 2.5h3.129Zm5.848-.917V12.5h-1.188l1.188 1.583Z"/></svg>