<svg xmlns="http://www.w3.org/2000/svg" width="16" height="16"><path d="M2 4.5A2.5 2.5 0 0 1 4.5 2h7A2.5 2.5 0 0 1 14 4.5v7a2.5 2.5 0 0 1-2.5 2.5h-7A2.5 2.5 0 0 1 2 11.5v-7ZM4.5 3A1.5 1.5 0 0 0 3 4.5v7A1.5 1.5 0 0 0 4.5 13h7a1.5 1.5 0 0 0 1.5-1.5v-7A1.5 1.5 0 0 0 11.5 3h-7Zm-.25 7.5a.5.5 0 0 1 .5-.5H7a.5.5 0 0 1 0 1H4.75a.5.5 0 0 1-.5-.5Zm.5-4.5a.5.5 0 0 0 0 1H7a.5.5 0 0 0 0-1H4.75Zm6.852 3.146a.5.5 0 0 1 0 .708l-1.5 1.5a.5.5 0 0 1-.708 0l-.748-.748a.5.5 0 1 1 .708-.708l.394.395 1.147-1.147a.5.5 0 0 1 .707 0Zm0-3.292a.5.5 0 1 0-.707-.708L9.748 6.293l-.394-.395a.5.5 0 1 0-.708.708l.748.748a.5.5 0 0 0 .708 0l1.5-1.5Z"/></svg>