<svg xmlns="http://www.w3.org/2000/svg" width="48" height="48"><path d="M30 6a6 6 0 0 0-6 6v8a6 6 0 0 0 12 0v-8a6 6 0 0 0-6-6Zm3 14a3 3 0 1 1-6 0v-8a3 3 0 1 1 6 0v8ZM8 31.25c0-.69.56-1.25 1.25-1.25h6.506a1.25 1.25 0 1 1 0 2.5H10.5V36h4.25a1.25 1.25 0 1 1 0 2.5H10.5v4.29a1.25 1.25 0 1 1-2.5 0V31.25ZM20.75 30c-.69 0-1.25.56-1.25 1.25v11.54a1.25 1.25 0 1 0 2.5 0V38.5h2.25a4.25 4.25 0 0 0 0-8.5h-3.5Zm3.5 6H22v-3.5h2.25a1.75 1.75 0 1 1 0 3.5ZM33 34.156c0-.915.741-1.656 1.656-1.656h1.594c.69 0 1.25.56 1.25 1.25a1.25 1.25 0 1 0 2.5 0A3.75 3.75 0 0 0 36.25 30h-1.594a4.156 4.156 0 1 0 0 8.311h1.25a1.595 1.595 0 0 1 0 3.189H34.25c-.69 0-1.25-.56-1.25-1.25a1.25 1.25 0 1 0-2.5 0A3.75 3.75 0 0 0 34.25 44h1.656a4.094 4.094 0 1 0 0-8.189h-1.25A1.656 1.656 0 0 1 33 34.156ZM13 12a3 3 0 1 1 6 0 1.5 1.5 0 0 0 3 0 6 6 0 0 0-12 0v8.25c0 .084.007.167.02.248A6 6 0 1 0 13 14.803V12Zm0 8a3 3 0 1 1 6 0 3 3 0 0 1-6 0Z"/></svg>