<svg xmlns="http://www.w3.org/2000/svg" width="20" height="20" viewBox="0 0 20 20"><path d="M14 2.75a.75.75 0 0 1 .75-.75h2.5a.75.75 0 0 1 .75.75v2.5a.75.75 0 0 1-1.5 0v-.69l-4.47 4.47a.75.75 0 0 1-1.06 0L8.5 6.56l-4.22 4.22a.75.75 0 1 1-1.06-1.06l4.75-4.75a.75.75 0 0 1 1.06 0l2.47 2.47 3.94-3.94h-.69a.75.75 0 0 1-.75-.75ZM3.75 14a.75.75 0 0 1 .75.75v2.5a.75.75 0 0 1-1.5 0v-2.5a.75.75 0 0 1 .75-.75Zm4.75-2.25a.75.75 0 0 0-1.5 0v5.5a.75.75 0 0 0 1.5 0v-5.5ZM11.75 13a.75.75 0 0 1 .75.75v3.5a.75.75 0 0 1-1.5 0v-3.5a.75.75 0 0 1 .75-.75Zm4.75-3.25a.75.75 0 0 0-1.5 0v7.5a.75.75 0 0 0 1.5 0v-7.5Z"/></svg>