<svg xmlns="http://www.w3.org/2000/svg" width="20" height="20" viewBox="0 0 20 20"><path d="M4 4a2 2 0 0 1 2-2h8a2 2 0 0 1 2 2v11a1 1 0 0 1-1 1H5a1 1 0 0 0 1 1h9.5a.5.5 0 0 1 0 1H6a2 2 0 0 1-2-2V4Zm6 1c-.755 0-1.472.163-2.019.48C7.434 5.798 7 6.313 7 7s.434 1.202.981 1.52C8.528 8.837 9.245 9 10 9c.755 0 1.472-.163 2.019-.48.547-.318.981-.833.981-1.52s-.434-1.202-.981-1.52C11.472 5.163 10.755 5 10 5ZM7.031 9.032A.788.788 0 0 0 7 9.25c0 .3.182.55.33.71.168.182.393.355.653.505A4.11 4.11 0 0 0 10 11c.788 0 1.498-.236 2.017-.535.26-.15.485-.323.654-.504.147-.16.329-.41.329-.711a.788.788 0 0 0-.031-.218 4.33 4.33 0 0 1-.453.3A5.108 5.108 0 0 1 10 10a5.108 5.108 0 0 1-2.516-.669 4.272 4.272 0 0 1-.453-.299Zm0 2A.788.788 0 0 0 7 11.25c0 .3.182.55.33.71a2.8 2.8 0 0 0 .653.505A4.11 4.11 0 0 0 10 13c.788 0 1.498-.236 2.017-.535.26-.15.485-.323.654-.504.147-.16.329-.41.329-.711a.788.788 0 0 0-.031-.218 4.29 4.29 0 0 1-.453.3A5.109 5.109 0 0 1 10 12a5.109 5.109 0 0 1-2.516-.669 4.285 4.285 0 0 1-.453-.299Z"/></svg>