<svg xmlns="http://www.w3.org/2000/svg" width="24" height="24"><path d="M15.492 3.507a1.65 1.65 0 0 0-1.499 1.643V10a.75.75 0 0 1-.75.75c-1.443 0-2.457.588-3.207 1.488-.772.928-1.275 2.206-1.59 3.557-.313 1.343-.427 2.696-.461 3.722a21.89 21.89 0 0 0-.012.983h7.02v-.75a2.25 2.25 0 0 0-2.249-2.25h-1.25a.75.75 0 0 1 0-1.5h1.25a3.749 3.749 0 0 1 3.748 3.75v.75h.75a.75.75 0 0 0 .75-.75v-10A.75.75 0 0 1 18.74 9h.506a1.25 1.25 0 0 0 1.062-1.909l-.62-1a1.25 1.25 0 0 0-1.061-.591h-2.386a.75.75 0 0 1-.75-.75V3.507ZM6.474 20.5c-.003-.284-.001-.634.012-1.033.036-1.083.157-2.542.5-4.012.34-1.462.915-2.996 1.899-4.177.872-1.047 2.055-1.801 3.61-1.985V5.15A3.15 3.15 0 0 1 15.641 2c.746 0 1.35.604 1.35 1.35V4h1.636c.95 0 1.834.492 2.335 1.3l.62 1c1.092 1.763-.084 4.02-2.093 4.19v9.26A2.25 2.25 0 0 1 17.242 22H5.795a3.797 3.797 0 0 1-2.775-6.39l1.135-1.217a3.059 3.059 0 0 0-.073-4.248L2.969 9.03a.75.75 0 0 1 1.06-1.06l1.114 1.114a4.558 4.558 0 0 1 .11 6.332l-1.136 1.217a2.3 2.3 0 0 0 1.68 3.867h.677Z"/></svg>