<svg xmlns="http://www.w3.org/2000/svg" width="32" height="32"><path d="M14.388 4.074c.66-1.338 2.568-1.338 3.228 0l3.042 6.164 6.803.988c1.476.215 2.066 2.03.997 3.07l-4.922 4.799 1.162 6.775c.252 1.47-1.291 2.591-2.612 1.897l-6.084-3.199-6.084 3.2c-1.32.693-2.864-.428-2.612-1.898l1.162-6.775-4.922-4.798c-1.069-1.042-.48-2.856.997-3.07l6.803-.99 3.042-6.163Zm1.614 1.248-2.91 5.895a1.8 1.8 0 0 1-1.355.985l-6.505.945 4.707 4.589a1.8 1.8 0 0 1 .518 1.593l-1.111 6.48 5.818-3.06a1.8 1.8 0 0 1 1.676 0l5.818 3.06-1.11-6.48a1.8 1.8 0 0 1 .517-1.593l4.707-4.589-6.505-.945a1.8 1.8 0 0 1-1.356-.985l-2.909-5.895Z"/><path d="M25.293 9.577a1 1 0 0 1 0-1.414l3-3a1 1 0 1 1 1.414 1.414l-3 3a1 1 0 0 1-1.414 0Zm-23 13.586a1 1 0 1 0 1.414 1.415l3-3a1 1 0 1 0-1.414-1.415l-3 3Zm0-18a1 1 0 0 1 1.414 0l3 3a1 1 0 0 1-1.414 1.414l-3-3a1 1 0 0 1 0-1.414Zm24.414 15a1 1 0 1 0-1.414 1.415l3 3a1 1 0 0 0 1.414-1.415l-3-3Z"/></svg>