<svg xmlns="http://www.w3.org/2000/svg" width="20" height="20"><path d="M8.5 3a.5.5 0 0 0 0 1h3a.5.5 0 0 0 0-1h-3ZM4.053 5.54A2.003 2.003 0 0 1 5.54 4.052a.509.509 0 0 0 .462-.6.509.509 0 0 0-.663-.38 3.004 3.004 0 0 0-2.265 2.265.509.509 0 0 0 .38.663.509.509 0 0 0 .6-.462Zm10.538-2.486a.497.497 0 0 1 .07.02 3.004 3.004 0 0 1 2.266 2.264.506.506 0 0 1-.38.664.509.509 0 0 1-.6-.463 2.003 2.003 0 0 0-1.486-1.486.509.509 0 0 1-.462-.6.509.509 0 0 1 .592-.4ZM16.5 12a.5.5 0 0 1-.5-.5v-3a.5.5 0 0 1 1 0v3a.5.5 0 0 1-.5.5ZM3 11.5a.5.5 0 0 0 1 0v-3a.5.5 0 0 0-1 0v3Zm0 5a.5.5 0 0 1 .5-.5h13a.5.5 0 0 1 0 1h-13a.5.5 0 0 1-.5-.5Zm.5-2.5a.5.5 0 0 0 0 1h13a.5.5 0 0 0 0-1h-13Z"/></svg>