<svg xmlns="http://www.w3.org/2000/svg" width="48" height="48"><path d="M23 10.25A6.25 6.25 0 0 1 29.25 4h1.5a1.25 1.25 0 1 1 0 2.5h-1.5a3.75 3.75 0 1 0 0 7.5h1.5a1.25 1.25 0 1 1 0 2.5h-1.5A6.25 6.25 0 0 1 23 10.25Zm22 0A6.25 6.25 0 0 0 38.75 4h-1.5a1.25 1.25 0 1 0 0 2.5h1.5a3.75 3.75 0 1 1 0 7.5h-1.5a1.25 1.25 0 1 0 0 2.5h1.5A6.25 6.25 0 0 0 45 10.25Zm-17 0c0-.69.56-1.25 1.25-1.25h9.5a1.25 1.25 0 1 1 0 2.5h-9.5c-.69 0-1.25-.56-1.25-1.25Zm13.5 18.5V18.09a7.91 7.91 0 0 0 2.5-1.4v12.06A7.25 7.25 0 0 1 36.75 36H26.397l-10.85 7.658C14.057 44.71 12 43.644 12 41.82V36h-.75A7.25 7.25 0 0 1 4 28.75v-15.5A7.25 7.25 0 0 1 11.25 6h10.892a8.349 8.349 0 0 0-.962 2.5h-9.93a4.75 4.75 0 0 0-4.75 4.75v15.5a4.75 4.75 0 0 0 4.75 4.75h3.25v7.838L25.603 33.5H36.75a4.75 4.75 0 0 0 4.75-4.75Z"/></svg>