<svg xmlns="http://www.w3.org/2000/svg" width="20" height="20" viewBox="0 0 20 20"><path d="M10 6.5V2H5.5A1.5 1.5 0 0 0 4 3.5V13h2.5a.5.5 0 0 1 0-1h7a.5.5 0 0 1 0 1h-6c.954 0 1.818.381 2.45 1h3.55a.5.5 0 0 1 0 1h-2.837c.216.455.337.963.337 1.5s-.12 1.045-.337 1.5H14.5a1.5 1.5 0 0 0 1.5-1.5V8h-4.5A1.5 1.5 0 0 1 10 6.5ZM6.5 10h7a.5.5 0 0 1 0 1h-7a.5.5 0 0 1 0-1ZM11 6.5V2.25L15.75 7H11.5a.5.5 0 0 1-.5-.5ZM3.5 14a2.5 2.5 0 0 0 0 5H4a.5.5 0 0 0 0-1h-.5a1.5 1.5 0 0 1 0-3H4a.5.5 0 0 0 0-1h-.5ZM7 14a.5.5 0 0 0 0 1h.5a1.5 1.5 0 0 1 0 3H7a.5.5 0 0 0 0 1h.5a2.5 2.5 0 0 0 0-5H7Zm-4 2.5a.5.5 0 0 1 .5-.5h4a.5.5 0 0 1 0 1h-4a.5.5 0 0 1-.5-.5Z"/></svg>