<svg xmlns="http://www.w3.org/2000/svg" width="24" height="24"><path d="M16.25 12.5h-4a.75.75 0 0 1-.75-.75v-6a.75.75 0 0 1 1.5 0V11h3.25a.75.75 0 0 1 0 1.5ZM13 1C7.478 1 3 5.478 3 11c0 .206.006.41.018.614A2.738 2.738 0 0 1 4.75 11h3.5A2.75 2.75 0 0 1 11 13.75v.3a2.5 2.5 0 0 1 2 2.45V21c5.522 0 10-4.478 10-10S18.522 1 13 1ZM8.25 13.5h-3.5a.25.25 0 0 0-.25.25V15h4v-1.25a.25.25 0 0 0-.25-.25ZM3 15v-1.25c0-.966.784-1.75 1.75-1.75h3.5c.966 0 1.75.784 1.75 1.75V15h.5a1.5 1.5 0 0 1 1.5 1.5V18h-2v-.5a.5.5 0 0 0-1 0v.5H4v-.5a.5.5 0 0 0-1 0v.5H1v-1.5A1.5 1.5 0 0 1 2.5 15H3Zm6 4.5V19H4v.5a.5.5 0 0 1-1 0V19H1v2.5A1.5 1.5 0 0 0 2.5 23h8a1.5 1.5 0 0 0 1.5-1.5V19h-2v.5a.5.5 0 0 1-1 0Z"/></svg>