<svg xmlns="http://www.w3.org/2000/svg" width="16" height="16"><path d="M3.119 4.21c.325-.18 1.006-.301 1.585-.162.274.066.47.178.592.311a.72.72 0 0 1 .143.234 9.073 9.073 0 0 0-.234-.027 6.626 6.626 0 0 0-1.112-.025c-.377.027-.8.101-1.173.288-.604.302-1.052.704-1.29 1.245-.231.531-.208 1.08-.11 1.573a2.304 2.304 0 0 0 1.5 1.723c.683.24 1.517.197 2.507-.187a.75.75 0 0 0 1.478-.184v-.966a.746.746 0 0 0 0-.068v-2.43a.742.742 0 0 0 0-.07V5c0-.669-.215-1.23-.604-1.655-.377-.411-.87-.64-1.345-.755-.921-.222-1.99-.065-2.665.309A.75.75 0 0 0 3.12 4.21Zm2.386 1.907v1.435c-1.075.54-1.687.509-1.989.403a.804.804 0 0 1-.525-.602c-.068-.34-.045-.541.014-.677.055-.126.19-.307.586-.505.126-.063.329-.114.609-.134.271-.02.57-.007.856.022.16.016.313.037.449.058Zm5.982.037a.75.75 0 0 0-1.468-.308c-.05.237-.094.466-.134.69a13.779 13.779 0 0 1-1.047-.079.75.75 0 1 0-.16 1.492c.32.034.655.065 1.003.08-.025.286-.04.564-.047.838-.23.09-.447.197-.648.316-1.036.615-1.825 1.734-1.4 3.048.22.677.717 1.102 1.297 1.299.51.173 1.073.17 1.596.066a.75.75 0 0 0 1.27-.483c.69-.397 1.29-1.005 1.527-1.8.092-.309.166-.586.227-.834.356.268.533.616.555.923.033.448-.25 1.176-1.576 1.679a.75.75 0 1 0 .532 1.402c1.708-.648 2.637-1.857 2.54-3.19-.077-1.049-.778-1.927-1.794-2.39v-.02a2.324 2.324 0 0 0-.002-.186l-.001-.018-.001-.008v-.007a.75.75 0 0 0-1.467-.133 6.003 6.003 0 0 0-1.14-.012c.01-.177.025-.356.043-.539a8.415 8.415 0 0 0 2.08-.52.75.75 0 1 0-.542-1.399 7.008 7.008 0 0 1-1.299.368l.056-.275Zm-2.474 5.615c-.121-.377.024-.855.696-1.27.061.536.158 1.08.29 1.656-.255.03-.473.009-.634-.046-.19-.064-.296-.168-.352-.34Zm2.825-.884c-.066.223-.222.447-.442.644a12.43 12.43 0 0 1-.228-1.505c.287-.032.59-.037.904-.008a17.05 17.05 0 0 1-.234.87Z"/></svg>