<svg xmlns="http://www.w3.org/2000/svg" width="24" height="24" viewBox="0 0 24 24"><path d="M13.45 2.532a2.25 2.25 0 0 0-2.9 0L3.8 8.224a2.25 2.25 0 0 0-.8 1.72v9.31c0 .966.784 1.75 1.75 1.75h3.5a1.75 1.75 0 0 0 1.75-1.75v-5.007a.25.25 0 0 1 .25-.25h3.5a.25.25 0 0 1 .25.25v3.393a2.761 2.761 0 0 1 1.5-.627v-.71A3.484 3.484 0 0 1 15 14.5c0-.426.076-.833.215-1.21a1.748 1.748 0 0 0-1.465-.793h-3.5a1.75 1.75 0 0 0-1.75 1.75v5.007a.25.25 0 0 1-.25.25h-3.5a.25.25 0 0 1-.25-.25v-9.31a.75.75 0 0 1 .267-.573l6.75-5.692a.75.75 0 0 1 .966 0l6.75 5.692a.75.75 0 0 1 .267.573v1.2c.576.172 1.09.488 1.5.906V9.944a2.25 2.25 0 0 0-.8-1.72l-6.75-5.692ZM21 14.5a2.5 2.5 0 1 1-5 0 2.5 2.5 0 0 1 5 0Zm2 5.375C23 21.431 21.714 23 18.5 23S14 21.437 14 19.875v-.103c0-.98.794-1.772 1.773-1.772h5.454c.98 0 1.773.793 1.773 1.772v.103Z"/></svg>