<svg xmlns="http://www.w3.org/2000/svg" width="20" height="20" viewBox="0 0 20 20"><path d="m15.226 1.353-.348-1.07a.423.423 0 0 0-.799 0l-.348 1.07a2.206 2.206 0 0 1-1.377 1.397l-1.071.348a.423.423 0 0 0 0 .798l1.071.348a2.208 2.208 0 0 1 1.399 1.403l.348 1.07a.423.423 0 0 0 .798 0l.349-1.07a2.205 2.205 0 0 1 1.398-1.397l1.072-.348a.423.423 0 0 0 0-.798l-.022-.006-1.072-.348a2.207 2.207 0 0 1-1.398-1.397Zm3.791 6.612.766.248.015.004a.303.303 0 0 1 0 .57l-.765.248a1.577 1.577 0 0 0-1 .998l-.248.765a.302.302 0 0 1-.57 0l-.249-.764a1.575 1.575 0 0 0-.999-1.002l-.765-.249a.303.303 0 0 1 0-.57l.765-.248a1.577 1.577 0 0 0 .984-.999l.249-.764a.302.302 0 0 1 .57 0l.249.764a1.575 1.575 0 0 0 .998.999ZM14 8.5a1.301 1.301 0 0 1 0-.43v-.214a1.27 1.27 0 0 1-.39-.196 1.49 1.49 0 0 1-.46-.66L13 6.486V16H6a2 2 0 0 1-2-2V5a1 1 0 0 1 1-1h5.097A1.42 1.42 0 0 1 10 3.5a1.4 1.4 0 0 1 .105-.5H5a2 2 0 0 0-2 2v9a3 3 0 0 0 3 3h8a3 3 0 0 0 3-3v-1.5a.5.5 0 0 0-.5-.5H14V8.5Zm0 4.5h2v1a2 2 0 0 1-2 2v-3ZM6 6.5a.5.5 0 0 1 .5-.5h4a.5.5 0 0 1 0 1h-4a.5.5 0 0 1-.5-.5Zm0 3a.5.5 0 0 1 .5-.5h4a.5.5 0 0 1 0 1h-4a.5.5 0 0 1-.5-.5Zm0 3a.5.5 0 0 1 .5-.5h2a.5.5 0 0 1 0 1h-2a.5.5 0 0 1-.5-.5Z"/></svg>