<svg xmlns="http://www.w3.org/2000/svg" width="24" height="24" viewBox="0 0 24 24"><path d="M7.5 9v12H3.75a1.75 1.75 0 0 1-1.744-1.607L2 19.25v-8.5a1.75 1.75 0 0 1 1.606-1.744L3.75 9H7.5Zm4.75 0a1.75 1.75 0 0 1 1.744 1.606l.006.144v8.5a1.75 1.75 0 0 1-1.607 1.744L12.25 21H8.5V9h3.75Zm-1.606 8.5h-.5l-.102.007a.75.75 0 0 0 0 1.486l.102.007h.5l.101-.007a.75.75 0 0 0-.101-1.493Zm-4.75 0h-.5l-.102.007a.75.75 0 0 0 0 1.486l.102.007h.5l.102-.007a.75.75 0 0 0-.102-1.493ZM19.75 3a2.25 2.25 0 0 1 2.245 2.096L22 5.25v8.5a2.25 2.25 0 0 1-2.096 2.245L19.75 16H15v-2.5h1.25a.75.75 0 0 0 0-1.5H15v-1.5a2.5 2.5 0 0 0-2.336-2.495L12.5 8H6V5.25a2.25 2.25 0 0 1 2.096-2.245L8.25 3h11.5Z"/></svg>