<svg xmlns="http://www.w3.org/2000/svg" width="32" height="32" viewBox="0 0 32 32"><path d="M5.25 4a3.251 3.251 0 0 0-3.001 2h27.502a3.251 3.251 0 0 0-3.001-2H5.25Zm16.228 5.5H30v2h-7.674a6.463 6.463 0 0 0-.848-2Zm-10.956 0H2v2h7.674c.17-.72.46-1.395.848-2ZM9.813 15H2v2h8.876a6.485 6.485 0 0 1-1.063-2Zm-2.778 5.5H2v2h4.5c0-.729.195-1.412.535-2Zm18.465 2c0-.729-.195-1.412-.535-2H30v2h-4.5ZM6.5 26H2.249a3.25 3.25 0 0 0 3 2H6.5v-2Zm19 2v-2h4.25a3.251 3.251 0 0 1-3 2H25.5Zm-4.376-11a6.485 6.485 0 0 0 1.063-2H30v2h-8.876ZM10 22.5a.5.5 0 0 1 .5-.5h11a.5.5 0 0 1 .5.5V28h2v-5.5a2.5 2.5 0 0 0-2.5-2.5h-11A2.5 2.5 0 0 0 8 22.5V28h2v-5.5Zm1-9.5a5 5 0 1 1 10 0 5 5 0 0 1-10 0Zm5-3a3 3 0 1 0 0 6 3 3 0 0 0 0-6Z"/></svg>