<svg xmlns="http://www.w3.org/2000/svg" width="24" height="24" viewBox="0 0 24 24"><path d="M20.952 3.047a3.578 3.578 0 0 0-5.06 0L3.94 15a3.106 3.106 0 0 0-.825 1.476L2.02 21.077a.75.75 0 0 0 .904.903l4.601-1.096a3.106 3.106 0 0 0 1.477-.825L19 10.06a1.75 1.75 0 0 1-.006 2.47l-1.783 1.784a.75.75 0 1 0 1.06 1.06l1.784-1.783A3.25 3.25 0 0 0 20.06 9l.892-.892a3.578 3.578 0 0 0 0-5.06Zm-4 1.06a2.078 2.078 0 1 1 2.94 2.94L7.941 18.999c-.211.21-.475.357-.764.426l-3.416.813.813-3.415c.069-.29.217-.554.427-.764l11.95-11.951Z"/></svg>