<svg xmlns="http://www.w3.org/2000/svg" width="16" height="16" viewBox="0 0 16 16"><path d="M15 5.5a4.5 4.5 0 1 1-9 0 4.5 4.5 0 0 1 9 0Zm-4.146-2.353-.003-.003A.498.498 0 0 0 10.503 3h-.006a.498.498 0 0 0-.35.146l-2 2a.5.5 0 1 0 .707.708L10 4.707V7.5a.5.5 0 0 0 1 0V4.707l1.146 1.147a.5.5 0 0 0 .708-.708l-2-2ZM10.5 11c.9 0 1.75-.216 2.5-.6V13a2 2 0 0 1-2 2H3a2 2 0 0 1-2-2V8.337l5.763 3.103a.5.5 0 0 0 .474 0l1.411-.76c.579.207 1.202.32 1.852.32ZM3 5h2.022a5.496 5.496 0 0 0 2.522 5.14L7 10.431l-6-3.23V7a2 2 0 0 1 2-2Z"/></svg>