<svg xmlns="http://www.w3.org/2000/svg" width="16" height="16" viewBox="0 0 16 16"><path d="M12.75 5.515a.75.75 0 0 1 .617.323l.04.066a4 4 0 0 1-3.208 6.091L10 12l-2.445-.001.722.722a.75.75 0 0 1 .073.977l-.073.084a.75.75 0 0 1-.976.072l-.084-.072-2.002-2.002a.75.75 0 0 1-.073-.976l.073-.085 2.002-2.001a.75.75 0 0 1 1.133.976l-.073.084-.721.721H10a2.5 2.5 0 0 0 2.495-2.335L12.5 8c0-.495-.144-.956-.391-1.344a.75.75 0 0 1 .641-1.141ZM7.72 2.218a.75.75 0 0 1 .976-.073l.084.073 2.002 2.001.073.085a.75.75 0 0 1 .007.882l-.08.094L8.78 7.282l-.084.072a.75.75 0 0 1-.882.008l-.094-.08-.073-.084a.75.75 0 0 1-.007-.883l.08-.094.721-.722H6a2.5 2.5 0 0 0-2.495 2.336L3.5 8c0 .421.104.818.288 1.167l.11.184a.75.75 0 0 1-1.283.777A4 4 0 0 1 5.8 4.005L6 4l2.44-.001-.72-.72-.073-.085a.75.75 0 0 1 .073-.976Z"/></svg>