<svg xmlns="http://www.w3.org/2000/svg" width="16" height="16" viewBox="0 0 16 16"><path d="M4.893 5.394a1.354 1.354 0 0 1 1.915.005l.189.189.186-.187a1.355 1.355 0 0 1 1.917.005c.53.53.532 1.385.006 1.914L7.154 9.27a.208.208 0 0 1-.294 0L4.898 7.31a1.354 1.354 0 0 1-.005-1.915ZM2 7a5 5 0 1 1 2.886 4.533l-2.288.457a.5.5 0 0 1-.588-.588l.457-2.289A4.983 4.983 0 0 1 2 7Zm5-4a4 4 0 0 0-3.564 5.818.5.5 0 0 1 .045.326l-.344 1.719 1.719-.344a.5.5 0 0 1 .326.045A4 4 0 1 0 7 3Zm-1.14 9.892A4.98 4.98 0 0 0 9 14c.754 0 1.47-.167 2.113-.467l2.289.457a.5.5 0 0 0 .588-.588l-.457-2.288c.3-.643.467-1.36.467-2.114a4.98 4.98 0 0 0-1.108-3.139 6.029 6.029 0 0 1 .007 2.242 4.014 4.014 0 0 1-.335 2.715.5.5 0 0 0-.045.326l.344 1.719-1.72-.344a.5.5 0 0 0-.325.045 4.009 4.009 0 0 1-2.716.335 6.031 6.031 0 0 1-2.242-.007Z"/></svg>