<svg xmlns="http://www.w3.org/2000/svg" width="24" height="24"><path d="M18.251 3a2.249 2.249 0 0 0-2.249 2.25v5.924c.48-.114.982-.174 1.498-.174h.002V5.25a.749.749 0 1 1 1.498 0v5.924c.528.125 1.03.314 1.5.558V5.25A2.25 2.25 0 0 0 18.251 3Zm-4.25 6.25v2.772a6.536 6.536 0 0 0-1.5 1.324V9.25a.75.75 0 0 0-1.499 0v8.09a6.62 6.62 0 0 0 0 .322v1.09c0 .224.098.425.254.562.173.598.43 1.16.756 1.672a2.249 2.249 0 0 1-2.51-2.234V9.249a2.25 2.25 0 1 1 4.498 0Zm-10.999 4a2.25 2.25 0 1 1 4.498 0v5.5a2.25 2.25 0 1 1-4.498 0v-5.5Zm2.998 0a.75.75 0 0 0-1.498 0v5.5a.75.75 0 0 0 1.498 0v-5.5Zm17 4.25a5.5 5.5 0 1 1-11 0 5.5 5.5 0 0 1 11 0Zm-4.945-3.08a.577.577 0 0 0-1.11 0l-.557 1.788h-1.803c-.566 0-.8.754-.343 1.1l1.458 1.105-.557 1.787c-.175.561.441 1.028.899.681l1.458-1.104 1.458 1.104c.458.347 1.074-.12.899-.68l-.557-1.788 1.458-1.104c.458-.347.223-1.101-.343-1.101h-1.803l-.557-1.787Z"/></svg>