<svg xmlns="http://www.w3.org/2000/svg" width="20" height="20" viewBox="0 0 20 20"><path d="M10 2c2.817 0 4.415 1.923 4.647 4.246h.07C16.532 6.246 18 7.758 18 9.623c0 .095-.004.19-.011.283A5.75 5.75 0 0 0 7.772 13h-2.49C3.469 13 2 11.488 2 9.623c0-1.865 1.47-3.377 3.282-3.377h.071C5.587 3.908 7.183 2 10 2Zm8 11.5a4.5 4.5 0 1 1-9 0 4.5 4.5 0 0 1 9 0Zm-2.646-1.146a.5.5 0 0 0-.708-.708L13.5 12.793l-1.146-1.147a.5.5 0 0 0-.708.708l1.147 1.146-1.147 1.146a.5.5 0 0 0 .708.708l1.146-1.147 1.146 1.147a.5.5 0 0 0 .708-.708L14.207 13.5l1.147-1.146Z"/></svg>