<svg xmlns="http://www.w3.org/2000/svg" width="16" height="16"><path d="M3 10V5.499l2.755.001a.5.5 0 0 0 .385-.18L7.235 4h4.763a1 1 0 0 1 1 1v.599c.358.182.693.403 1 .656V5a2 2 0 0 0-2-2H7.176l-1.108-.89A.5.5 0 0 0 5.755 2H4a2 2 0 0 0-2 2v6a2 2 0 0 0 2 2h1.207a5.48 5.48 0 0 1-.185-1H4a1 1 0 0 1-1-1Zm1-7h1.579l.712.572-.77.928L3 4.499V4a1 1 0 0 1 1-1Zm6.5 12a4.5 4.5 0 1 1 0-9 4.5 4.5 0 0 1 0 9Zm-2.353-4.854-.003.003a.498.498 0 0 0-.144.348v.006a.498.498 0 0 0 .146.35l2 2a.5.5 0 0 0 .708-.707L9.707 11H12.5a.5.5 0 0 0 0-1H9.707l1.147-1.146a.5.5 0 0 0-.708-.708l-2 2Z"/></svg>