<svg xmlns="http://www.w3.org/2000/svg" width="24" height="24" viewBox="0 0 24 24"><path d="M12 2a5.502 5.502 0 0 0-5.137 3.529 12.947 12.947 0 0 0-1.26-.296 14.512 14.512 0 0 0-2.647-.232l-.172.004-.048.002a.76.76 0 0 0-.728.709l-.001.02-.002.049a12.05 12.05 0 0 0 .005.784c.02.513.076 1.227.223 2.034.134.735.348 1.565.69 2.397H2.75a.75.75 0 0 0-.75.75V12c0 5.523 4.477 10 10 10s10-4.477 10-10v-.25a.75.75 0 0 0-.75-.75h-.253a4.877 4.877 0 0 0-3.664-4.849A5.502 5.502 0 0 0 11.999 2ZM8.273 6.04a4.001 4.001 0 0 1 7.441-.023 4.878 4.878 0 0 0-4.022 2.82 7.612 7.612 0 0 0-.917-1.114c-.749-.749-1.62-1.29-2.502-1.683ZM19.5 10.875c0 .042-.001.084-.003.125h-6.729l-.018-.05v-.075a3.375 3.375 0 1 1 6.75 0ZM9.714 8.784c.643.642 1.109 1.415 1.445 2.216h-2.1L7.28 9.22a.75.75 0 1 0-1.06 1.06l.72.72H4.57c-.44-.876-.704-1.813-.86-2.667a13.015 13.015 0 0 1-.2-1.822v-.002h.001c.46.017 1.101.068 1.822.2 1.46.267 3.16.85 4.383 2.075ZM4.788 16.5h14.424a8.494 8.494 0 0 1-7.212 4 8.494 8.494 0 0 1-7.212-4Zm-1.274-4h16.971a8.456 8.456 0 0 1-.53 2.5H4.045a8.461 8.461 0 0 1-.53-2.5Zm-.796-7.492h.018-.018Z"/></svg>