<svg xmlns="http://www.w3.org/2000/svg" width="16" height="16" viewBox="0 0 16 16"><path d="M2.218 2.22a.75.75 0 0 1 .976-.073l.084.072 10.5 10.5.073.085a.75.75 0 0 1-1.05 1.049l-.083-.073-1.871-1.87c-.182.04-.368.066-.558.08L10 12l-2.445-.001.722.722a.75.75 0 0 1 .073.977l-.073.084a.75.75 0 0 1-.976.072l-.084-.072-2.002-2.002a.75.75 0 0 1-.073-.976l.073-.085 2.002-2.001a.747.747 0 0 1 .265-.172l-2.718-2.72a2.5 2.5 0 0 0-.976 3.34l.11.185a.75.75 0 0 1-1.283.777A3.995 3.995 0 0 1 3.68 4.742L2.218 3.28l-.073-.084a.75.75 0 0 1 .073-.977ZM12.75 5.514a.75.75 0 0 1 .617.323l.04.064A3.98 3.98 0 0 1 14 8a3.98 3.98 0 0 1-.952 2.59l-1.066-1.066A2.49 2.49 0 0 0 12.5 8c0-.495-.144-.956-.391-1.344a.75.75 0 0 1 .641-1.141Zm-4.4 4.18-.073.083-.721.721h1.879l-.986-.987a.745.745 0 0 1-.099.182Zm-.627-7.477a.75.75 0 0 1 .976-.073l.084.073 2.002 2.001.072.085a.75.75 0 0 1 .008.882l-.08.094L9.26 6.804 8.2 5.743l.244-.244h-.489L6.456 4h1.988l-.72-.72-.073-.085a.75.75 0 0 1 .073-.976Z"/></svg>