<svg xmlns="http://www.w3.org/2000/svg" width="24" height="24" viewBox="0 0 24 24"><path d="M9.53 14.47a.75.75 0 0 1 0 1.06l-1.5 1.5a.75.75 0 0 1-1.06-1.06l1.5-1.5a.75.75 0 0 1 1.06 0ZM3.28 2.22a.75.75 0 1 0-1.06 1.06l6.03 6.03v1.38l-5.22 5.219a2.25 2.25 0 0 0 0 3.182l1.88 1.879a2.25 2.25 0 0 0 3.182 0l5.22-5.22h1.378l6.03 6.03a.75.75 0 0 0 1.061-1.06L3.28 2.22ZM9 12.06 11.94 15l-4.91 4.909a.75.75 0 0 1-1.06 0L4.09 18.03a.75.75 0 0 1 0-1.06L9 12.06Zm8.844 2.035 1.565-1.565a.75.75 0 0 0 0-1.06L12.53 4.59a.75.75 0 0 0-1.06 0L9.904 6.155l-1.06-1.06 1.564-1.565a2.25 2.25 0 0 1 3.182 0l6.878 6.879a2.25 2.25 0 0 1 0 3.182l-1.564 1.565-1.06-1.061Z"/></svg>