<svg xmlns="http://www.w3.org/2000/svg" width="20" height="20"><path d="M4.5 2A1.5 1.5 0 0 0 3 3.5v3A1.5 1.5 0 0 0 4.5 8h11A1.5 1.5 0 0 0 17 6.5v-3A1.5 1.5 0 0 0 15.5 2h-11ZM6 11a2 2 0 0 1-2-2h12a2 2 0 0 1-2 2H6Zm0 1h6.5a3.5 3.5 0 0 0-3.287 4.704l-2.49 1.244A.5.5 0 0 1 6 17.501V12Zm6.5 1a2.5 2.5 0 0 0 0 5h.5a.5.5 0 0 0 0-1h-.5a1.5 1.5 0 0 1 0-3h.5a.5.5 0 0 0 0-1h-.5Zm3.5 0a.5.5 0 0 0 0 1h.5a1.5 1.5 0 0 1 0 3H16a.5.5 0 0 0 0 1h.5a2.5 2.5 0 0 0 0-5H16Zm-4 2.5a.5.5 0 0 1 .5-.5h4a.5.5 0 0 1 0 1h-4a.5.5 0 0 1-.5-.5Z"/></svg>