<svg xmlns="http://www.w3.org/2000/svg" width="28" height="28"><path d="M6.75 3A3.75 3.75 0 0 0 3 6.75v11.5A3.75 3.75 0 0 0 6.75 22h11.5A3.75 3.75 0 0 0 22 18.25V6.75A3.75 3.75 0 0 0 18.25 3H6.75ZM4.5 6.75A2.25 2.25 0 0 1 6.75 4.5h11.5a2.25 2.25 0 0 1 2.25 2.25v11.5a2.25 2.25 0 0 1-2.25 2.25H6.75a2.25 2.25 0 0 1-2.25-2.25V6.75ZM9.25 24.5a3.745 3.745 0 0 1-3.021-1.528c.17.018.345.028.522.028H18.75A4.25 4.25 0 0 0 23 18.75v-12c0-.176-.009-.35-.028-.52A3.745 3.745 0 0 1 24.5 9.25v9.5a5.75 5.75 0 0 1-5.75 5.75h-9.5ZM7 14.875C7 13.839 7.84 13 8.875 13h7.25C17.16 13 18 13.84 18 14.875c0 1.397-.682 2.465-1.73 3.153-1.019.669-2.364.972-3.77.972-1.406 0-2.751-.303-3.77-.972C7.682 17.34 7 16.272 7 14.875Zm1.875-.375a.375.375 0 0 0-.375.375c0 .84.382 1.459 1.053 1.9.7.459 1.73.725 2.947.725s2.247-.266 2.947-.726c.671-.44 1.053-1.06 1.053-1.899a.375.375 0 0 0-.375-.375h-7.25ZM11 9a1.5 1.5 0 1 1 3 0 1.5 1.5 0 0 1-3 0Zm1.5-3a3 3 0 1 0 0 6 3 3 0 0 0 0-6Z"/></svg>