<svg xmlns="http://www.w3.org/2000/svg" width="32" height="32"><path d="M15.952 4.079A4 4 0 0 1 18.684 3H25.5A3.5 3.5 0 0 1 29 6.5v6.757a4 4 0 0 1-1.172 2.829l-.467.467a5.002 5.002 0 0 0-9.282 1.553A4.002 4.002 0 0 0 15 22v6c0 .214.018.424.05.628a4.252 4.252 0 0 1-5.054-.719L3.67 21.583a4.25 4.25 0 0 1 .101-6.109L15.952 4.08ZM22.5 12a2.5 2.5 0 1 0 0-5 2.5 2.5 0 0 0 0 5Zm-3 7.5H19a2.5 2.5 0 0 0-2.5 2.5v6a2.5 2.5 0 0 0 2.5 2.5h8a2.5 2.5 0 0 0 2.5-2.5v-6a2.5 2.5 0 0 0-2.5-2.5h-.5V19a3.5 3.5 0 1 0-7 0v.5Zm2-.5a1.5 1.5 0 0 1 3 0v.5h-3V19Zm3.5 6a2 2 0 1 1-4 0 2 2 0 0 1 4 0Z"/></svg>