<svg xmlns="http://www.w3.org/2000/svg" width="24" height="24"><path d="M7.5 7.5V1.75a.75.75 0 0 1 1.5 0V7.5a.5.5 0 1 0 1 0v-5a.75.75 0 0 1 1.5 0v5.75c0 .021 0 .042-.003.063.433-.163.974-.317 1.503-.317.5 0 .927.125 1.244.285.157.078.302.174.421.282.059.053.126.123.185.21.046.07.15.24.15.477a.75.75 0 0 1-.352.636l-1.907 1.192-1.658 1.89-1.377 1.898A2.75 2.75 0 0 1 7.481 16H6.342a2.643 2.643 0 0 1-2.305-1.311 20.7 20.7 0 0 1-.977-1.902c-.286-.651-.56-1.413-.56-2.037v-7a.75.75 0 0 1 1.5 0v4.248a.5.5 0 0 0 1 0V2.5a.75.75 0 0 1 1.5 0v5a.5.5 0 1 0 1 0ZM15 22a7.003 7.003 0 0 1-6.734-5.083 3.75 3.75 0 0 0 2.25-1.464l1.35-1.86 1.53-1.746 1.781-1.113c.512-.32.823-.88.823-1.484a1.86 1.86 0 0 0-.32-1.034 2.076 2.076 0 0 0-.15-.196A7 7 0 0 1 15 22Zm3-8a1 1 0 1 0-2 0 1 1 0 0 0 2 0Zm-5.863 2.712a.75.75 0 0 0-.02 1.06A3.99 3.99 0 0 0 15 19a3.99 3.99 0 0 0 2.883-1.227.75.75 0 1 0-1.081-1.04A2.49 2.49 0 0 1 15 17.5a2.49 2.49 0 0 1-1.802-.767.75.75 0 0 0-1.06-.02ZM14 14a1 1 0 1 0-2 0 1 1 0 0 0 2 0Z"/></svg>