<svg xmlns="http://www.w3.org/2000/svg" width="24" height="24" viewBox="0 0 24 24"><path d="M2.128 5.5A2.25 2.25 0 0 1 4.25 4h15.5c.98 0 1.813.626 2.122 1.5H2.128ZM22 11.25h-6.2a3.998 3.998 0 0 1-.895 1.5H22v-1.5ZM22 9h-6.126a3.986 3.986 0 0 0-.751-1.5H22V9Zm-7.17 0a3.009 3.009 0 0 0-1.171-1.5A2.986 2.986 0 0 0 12 7c-.613 0-1.184.184-1.659.5A3.009 3.009 0 0 0 9 10c0 .446.097.87.272 1.25a3.011 3.011 0 0 0 1.527 1.5 3.005 3.005 0 0 0 2.401 0 3.012 3.012 0 0 0 1.528-1.5A2.996 2.996 0 0 0 14.829 9ZM2 7.5h6.877A3.987 3.987 0 0 0 8.126 9H2V7.5Zm0 3.75h6.2c.185.566.495 1.077.895 1.5H2v-1.5ZM2 15h4.104c-.068.238-.104.49-.104.75v.75H2V15Zm.128 3.5H6V20H4.25a2.25 2.25 0 0 1-2.122-1.5ZM7 15.75A1.75 1.75 0 0 1 8.75 14h6.5A1.75 1.75 0 0 1 17 15.75V20H7v-4.25Zm11 2.75V20h1.75a2.25 2.25 0 0 0 2.122-1.5H18Zm4-2h-4v-.75c0-.26-.036-.512-.104-.75H22v1.5Z"/></svg>