<svg xmlns="http://www.w3.org/2000/svg" width="16" height="16" viewBox="0 0 16 16"><path d="M12 2a.75.75 0 0 1 .696.471c.148.369.375.636.598.808.242.185.422.219.456.219a.75.75 0 0 1 0 1.5c-.466 0-.96-.216-1.37-.53-.13-.1-.258-.215-.38-.344a2.76 2.76 0 0 1-2 .874 2.76 2.76 0 0 1-2-.873 2.76 2.76 0 0 1-2 .873 2.76 2.76 0 0 1-2-.873c-.122.13-.25.244-.38.345-.409.314-.903.53-1.37.53a.75.75 0 0 1 0-1.5c.033 0 .214-.034.455-.22.224-.171.451-.44.599-.808a.75.75 0 0 1 1.392 0c.298.742.84 1.026 1.304 1.026.464 0 1.006-.284 1.304-1.027a.75.75 0 0 1 1.392 0c.297.743.84 1.027 1.304 1.027.464 0 1.007-.285 1.304-1.027A.75.75 0 0 1 12 2Zm0 4a.75.75 0 0 1 .696.471c.148.369.375.636.598.808.242.185.422.219.456.219a.75.75 0 0 1 0 1.5c-.466 0-.96-.216-1.37-.53-.13-.1-.258-.215-.38-.344a2.76 2.76 0 0 1-2 .874 2.76 2.76 0 0 1-2-.873 2.76 2.76 0 0 1-2 .873 2.76 2.76 0 0 1-2-.873c-.122.13-.25.244-.38.345-.409.314-.903.53-1.37.53a.75.75 0 0 1 0-1.5c.033 0 .214-.034.455-.22.224-.171.451-.44.599-.808a.75.75 0 0 1 1.392 0c.298.742.84 1.026 1.304 1.026.464 0 1.006-.284 1.304-1.027a.75.75 0 0 1 1.392 0c.297.743.84 1.027 1.304 1.027.464 0 1.007-.285 1.304-1.027A.75.75 0 0 1 12 6Zm.696 4.471a.75.75 0 0 0-1.392 0c-.297.742-.84 1.027-1.304 1.027-.464 0-1.007-.284-1.304-1.027a.75.75 0 0 0-1.392 0c-.298.742-.84 1.027-1.304 1.027-.464 0-1.006-.284-1.304-1.027a.75.75 0 0 0-1.392 0c-.148.37-.375.637-.599.81-.241.185-.422.219-.455.219a.75.75 0 1 0 0 1.5c.467 0 .961-.216 1.37-.53.13-.1.258-.216.38-.345a2.76 2.76 0 0 0 2 .873 2.76 2.76 0 0 0 2-.873 2.76 2.76 0 0 0 2 .873 2.76 2.76 0 0 0 2-.874c.122.13.25.244.38.344.41.314.904.53 1.37.53a.75.75 0 0 0 0-1.5c-.034 0-.214-.034-.456-.22a1.91 1.91 0 0 1-.598-.807Z"/></svg>