<svg xmlns="http://www.w3.org/2000/svg" width="20" height="20"><path d="M15 3.5a.75.75 0 0 1 .702.487C16.13 5.125 16.905 5.5 17.25 5.5a.75.75 0 0 1 0 1.5c-.797 0-1.627-.456-2.253-1.241-.654.799-1.547 1.24-2.497 1.24-.952.001-1.846-.443-2.5-1.244C9.346 6.556 8.452 7 7.5 7c-.95 0-1.842-.442-2.496-1.24-.626.785-1.456 1.243-2.254 1.243a.75.75 0 1 1 0-1.5c.344 0 1.12-.376 1.548-1.516a.75.75 0 0 1 1.404 0C6.112 5.08 6.866 5.5 7.5 5.5c.634 0 1.388-.42 1.798-1.513a.75.75 0 0 1 1.404 0C11.112 5.08 11.866 5.5 12.5 5.5c.634 0 1.388-.42 1.798-1.513A.75.75 0 0 1 15 3.5Zm0 5a.75.75 0 0 1 .702.487c.427 1.138 1.203 1.513 1.548 1.513a.75.75 0 0 1 0 1.5c-.797 0-1.627-.456-2.253-1.241-.654.799-1.547 1.24-2.497 1.24-.952.001-1.846-.443-2.5-1.244C9.346 11.556 8.452 12 7.5 12c-.95 0-1.842-.442-2.496-1.24-.626.786-1.456 1.242-2.254 1.243a.75.75 0 0 1 0-1.5c.344 0 1.12-.376 1.548-1.516a.75.75 0 0 1 1.404 0C6.112 10.08 6.866 10.5 7.5 10.5c.634 0 1.388-.42 1.798-1.513a.75.75 0 0 1 1.404 0c.41 1.093 1.164 1.513 1.798 1.513.634 0 1.388-.42 1.798-1.513A.75.75 0 0 1 15 8.5Zm.702 5.487a.75.75 0 0 0-1.404 0c-.41 1.093-1.164 1.513-1.798 1.513-.634 0-1.388-.42-1.798-1.513a.75.75 0 0 0-1.404 0C8.888 15.08 8.134 15.5 7.5 15.5c-.634 0-1.388-.42-1.798-1.513a.75.75 0 0 0-1.404 0c-.427 1.14-1.204 1.515-1.548 1.516a.75.75 0 1 0 0 1.5c.798 0 1.628-.457 2.254-1.244C5.658 16.558 6.55 17 7.5 17c.952 0 1.846-.444 2.5-1.245.654.801 1.548 1.245 2.5 1.245.95 0 1.843-.442 2.497-1.241.626.785 1.456 1.24 2.253 1.24a.75.75 0 0 0 0-1.5c-.345 0-1.12-.374-1.548-1.512Z"/></svg>