<svg xmlns="http://www.w3.org/2000/svg" width="24" height="24" viewBox="0 0 24 24"><path d="M3.5 12a8.5 8.5 0 0 1 17 0v2h-2.25a.75.75 0 0 0-.75.75v6.5c0 .414.336.75.75.75H19a3 3 0 0 0 3-3v-7c0-5.523-4.477-10-10-10S2 6.477 2 12v7a3 3 0 0 0 3 3h.75a.75.75 0 0 0 .75-.75v-6.5a.75.75 0 0 0-.75-.75H3.5v-2Zm9.25-.25a.75.75 0 0 0-1.5 0v10.5a.75.75 0 0 0 1.5 0v-10.5Zm-4 2.25a.75.75 0 0 1 .75.75v4.5a.75.75 0 0 1-1.5 0v-4.5a.75.75 0 0 1 .75-.75Zm7.25.75a.75.75 0 0 0-1.5 0v4.5a.75.75 0 0 0 1.5 0v-4.5Z"/></svg>