<svg xmlns="http://www.w3.org/2000/svg" width="20" height="20" viewBox="0 0 20 20"><path d="M4.178 3.204a4.922 4.922 0 0 1 2.806 0h.001c1.028.305 1.602.935 1.885 1.638.255.634.255 1.288.254 1.655v4.753a.75.75 0 0 1-1.5 0v-.005c-.18.098-.37.193-.568.28-.745.332-1.702.603-2.63.408-1.203-.253-2.011-1.154-2.303-2.152-.29-.996-.087-2.18.839-2.958 1.008-.849 2.165-1.052 3.175-1.01.53.022 1.034.113 1.474.218a2.1 2.1 0 0 0-.133-.629c-.117-.292-.344-.589-.918-.759a3.422 3.422 0 0 0-2.662.302 1.08 1.08 0 0 0-.028.017l-.002.002a.75.75 0 0 1-.852-1.235l.002-.001.004-.003.007-.005.022-.014a3.735 3.735 0 0 1 .302-.173 4.81 4.81 0 0 1 .825-.329Zm1.897 4.108c-.763-.032-1.51.123-2.148.659-.39.328-.52.856-.364 1.39.155.531.573.978 1.17 1.104.475.1 1.081-.029 1.714-.31a6.752 6.752 0 0 0 1.177-.681V7.585c-.465-.13-.996-.25-1.55-.273Zm7.907-1.263a.75.75 0 0 1 .435.967c-.059.154-.12.335-.18.522.486-.075.97-.166 1.453-.271a.75.75 0 0 1 .318 1.466c-.721.156-1.46.288-2.207.38-.1.425-.182.818-.248 1.181a6.4 6.4 0 0 1 1.14-.073.75.75 0 0 1 1.473.204v.04c1.187.376 2.093 1.16 2.541 2.177.402.91.403 1.958-.083 2.929-.483.964-1.413 1.793-2.773 2.37a.75.75 0 0 1-.585-1.381c1.116-.474 1.73-1.089 2.016-1.66a1.897 1.897 0 0 0 .053-1.652c-.216-.489-.666-.956-1.325-1.243a7.06 7.06 0 0 1-1.816 3.506c.076.149.15.3.211.444a.75.75 0 1 1-1.38.59 3.85 3.85 0 0 0-.028-.067 4.378 4.378 0 0 1-1.345.556c-.667.143-1.45.089-1.993-.464-.799-.814-.83-2.135-.318-3.263.442-.972 1.305-1.89 2.615-2.514.064-.473.156-.99.278-1.554-.51.019-1.02.014-1.532-.018a.75.75 0 0 1 .094-1.497c.603.038 1.21.033 1.82-.006.117-.404.26-.872.399-1.234a.75.75 0 0 1 .967-.435ZM11.833 12.6c-.564.412-.925.885-1.126 1.327-.358.789-.191 1.374.023 1.593.032.032.189.137.609.048.287-.062.632-.206.992-.443a6 6 0 0 1-.344-1.087 7.308 7.308 0 0 1-.154-1.438Zm1.688 1.394a5.647 5.647 0 0 0 1.017-2.278c-.365 0-.76.044-1.185.144-.053.804 0 1.398.1 1.863.021.094.043.184.068.27Z"/></svg>