<svg xmlns="http://www.w3.org/2000/svg" width="24" height="24"><path d="M19.25 11.002c.967 0 1.75.783 1.75 1.75v6.5a1.75 1.75 0 0 1-1.75 1.75h-4.5a1.75 1.75 0 0 1-1.75-1.75v-6.5c0-.967.784-1.75 1.75-1.75h4.5Zm-9.982 4.012c.967 0 1.75.784 1.75 1.75v2.488a1.75 1.75 0 0 1-1.75 1.75H4.754a1.75 1.75 0 0 1-1.75-1.75v-2.488c0-.966.783-1.75 1.75-1.75h4.514Zm9.982-2.512h-4.5a.25.25 0 0 0-.25.25v6.5c0 .138.112.25.25.25h4.5a.25.25 0 0 0 .25-.25v-6.5a.25.25 0 0 0-.25-.25Zm-9.982 4.012H4.754a.25.25 0 0 0-.25.25v2.488c0 .138.112.25.25.25h4.514a.25.25 0 0 0 .25-.25v-2.488a.25.25 0 0 0-.25-.25ZM9.254 3c.966 0 1.75.784 1.75 1.75v6.5a1.75 1.75 0 0 1-1.607 1.744L9.254 13h-4.5a1.75 1.75 0 0 1-1.75-1.75v-6.5c0-.966.783-1.75 1.75-1.75h4.5Zm0 1.5h-4.5a.25.25 0 0 0-.25.25v6.5c0 .138.112.25.25.25h4.5l.057-.007a.25.25 0 0 0 .193-.243v-6.5a.25.25 0 0 0-.25-.25ZM19.25 3c.967 0 1.75.784 1.75 1.75v2.5A1.75 1.75 0 0 1 19.25 9h-4.5A1.75 1.75 0 0 1 13 7.25v-2.5c0-.966.784-1.75 1.75-1.75h4.5Zm-4.5 1.5a.25.25 0 0 0-.25.25v2.5c0 .138.112.25.25.25h4.5a.25.25 0 0 0 .25-.25v-2.5a.25.25 0 0 0-.25-.25h-4.5Z"/></svg>