<svg xmlns="http://www.w3.org/2000/svg" width="24" height="24"><path d="M13.854 15.146a2.845 2.845 0 0 1 .685 1.114l.448 1.377a.544.544 0 0 0 1.026 0l.448-1.377a2.837 2.837 0 0 1 1.798-1.796l1.378-.448a.545.545 0 0 0 0-1.025l-.028-.007-1.378-.448a2.84 2.84 0 0 1-1.798-1.796l-.447-1.377a.544.544 0 0 0-1.027 0l-.448 1.377-.011.034a2.836 2.836 0 0 1-1.759 1.762l-1.378.448a.545.545 0 0 0 0 1.025l1.378.448c.42.14.8.376 1.113.689ZM16 6v2.093a1.544 1.544 0 0 0-1.5.252V6a2.5 2.5 0 0 0-5 0v6c0 .563.186 1.082.5 1.5a1.544 1.544 0 0 0 1.03 1.453l.013.004 1.385.45c.264.088.505.236.704.43A4 4 0 0 1 8 12V6.001a4 4 0 1 1 8 0Zm-3.75 11.5a5.25 5.25 0 0 0 1.564-.237l.226.695.004.012c.089.252.242.476.442.65a6.719 6.719 0 0 1-1.735.362l-.001 2.268a.75.75 0 0 1-1.493.102l-.007-.102v-2.268a6.75 6.75 0 0 1-6.246-6.496L5 12.25v-.5a.75.75 0 0 1 1.493-.102l.007.102v.5a5.25 5.25 0 0 0 5.034 5.246l.216.004h.5Zm9.767 1.465.766.248.015.004a.303.303 0 0 1 .147.46.302.302 0 0 1-.147.11l-.765.248a1.578 1.578 0 0 0-1 .998l-.248.765a.302.302 0 0 1-.57 0l-.249-.764a1.575 1.575 0 0 0-.999-1.002l-.765-.249a.303.303 0 0 1-.147-.46.302.302 0 0 1 .147-.11l.765-.248a1.577 1.577 0 0 0 .984-.998l.249-.765a.302.302 0 0 1 .57 0l.249.764a1.575 1.575 0 0 0 .998.999Z"/></svg>