<svg xmlns="http://www.w3.org/2000/svg" width="20" height="20"><path d="M6 6V4.5c0-.344.065-.667.195-.969.13-.307.31-.573.539-.797.224-.229.49-.409.797-.539.302-.13.625-.195.969-.195.281 0 .549.044.805.133.256.089.49.214.703.375A2.442 2.442 0 0 1 11.5 2a2.484 2.484 0 0 1 2.305 1.531c.13.302.195.625.195.969V6h1a1 1 0 0 1 1 1v2.591A2.508 2.508 0 0 0 14.383 9H12V6h1V4.5c0-.208-.039-.404-.117-.586A1.482 1.482 0 0 0 11.5 3c-.307 0-.583.086-.828.258A2.503 2.503 0 0 1 11 4.5v4.552a2.512 2.512 0 0 0-2 2.46v2.879c0 .657.258 1.289.718 1.758L11.53 18H7a3 3 0 0 1-2.117-.875 3.061 3.061 0 0 1-.648-.953A2.932 2.932 0 0 1 4 15V7a1 1 0 0 1 1-1h1Zm4 0V4.5c0-.208-.039-.404-.117-.586A1.482 1.482 0 0 0 8.5 3c-.208 0-.404.039-.586.117A1.482 1.482 0 0 0 7 4.5V6h3Zm.432 9.45A1.513 1.513 0 0 1 10 14.39v-2.878A1.51 1.51 0 0 1 11.51 10h2.873c.403 0 .789.161 1.072.447l3.107 3.14a1.513 1.513 0 0 1-.025 2.154l-2.947 2.837a1.508 1.508 0 0 1-2.124-.031l-3.034-3.098ZM12 12.75a.75.75 0 1 0 1.5 0 .75.75 0 0 0-1.5 0Z"/></svg>