<svg xmlns="http://www.w3.org/2000/svg" width="24" height="24"><path d="M15.267 1.997a.75.75 0 0 1 .743.648l.007.102v4.386a2.252 2.252 0 0 1 1.48 1.946l.007.17v10.5a2.25 2.25 0 0 1-2.096 2.246l-.154.005h-6.5a2.25 2.25 0 0 1-2.245-2.096l-.005-.154V9.25a2.25 2.25 0 0 1 1.513-2.127V2.747a.75.75 0 0 1 .648-.743l.101-.007h6.501ZM15.254 8.5h-6.5a.75.75 0 0 0-.743.648l-.007.102v10.5c0 .38.282.693.648.743l.102.007h6.5a.75.75 0 0 0 .743-.648l.007-.102V9.25a.75.75 0 0 0-.648-.743l-.102-.007Zm-.737-5.003H9.516v3.502h5.001V3.497Z"/></svg>