<svg xmlns="http://www.w3.org/2000/svg" width="24" height="24"><path d="M4 4a2 2 0 0 0-2 2v12a2 2 0 0 0 2 2h6c.494 0 .96-.12 1.37-.33A6.49 6.49 0 0 1 11 17.5a6.48 6.48 0 0 1 2-4.69V7a1 1 0 0 1 1-1h6v5.498a6.52 6.52 0 0 1 2 1.312V6a2 2 0 0 0-2-2h-6c-.768 0-1.47.289-2 .764A2.989 2.989 0 0 0 10 4H4Zm7 3v10a1 1 0 0 1-1 1H4V6h6a1 1 0 0 1 1 1Z"/><path d="M16.007 17c.04-1.415.248-2.669.553-3.585.171-.513.364-.893.554-1.134.195-.247.329-.281.386-.281.057 0 .192.034.386.281.19.241.383.62.554 1.134.305.916.513 2.17.553 3.585h-2.986Zm-.396-3.9c.108-.323.23-.622.368-.887A5.504 5.504 0 0 0 12.023 17h2.984c.04-1.5.26-2.866.604-3.9Zm3.778 0a6.133 6.133 0 0 0-.368-.887A5.504 5.504 0 0 1 22.978 17h-2.985c-.04-1.5-.26-2.866-.604-3.9Zm.604 4.9h2.985a5.504 5.504 0 0 1-3.957 4.787c.138-.265.26-.564.368-.886.345-1.035.564-2.4.604-3.901Zm-2.107 4.719c-.194.247-.329.281-.386.281-.057 0-.191-.034-.386-.281-.19-.241-.383-.62-.554-1.135-.305-.915-.513-2.17-.553-3.584h2.986c-.04 1.415-.248 2.669-.553 3.584-.171.514-.364.894-.554 1.135ZM12.023 18a5.504 5.504 0 0 0 3.956 4.787 6.133 6.133 0 0 1-.367-.886c-.346-1.035-.565-2.4-.605-3.901h-2.984Z"/></svg>