<svg xmlns="http://www.w3.org/2000/svg" width="24" height="24" viewBox="0 0 24 24"><path d="M13 14.05V14H4.253a2.249 2.249 0 0 0-2.25 2.25v.577c0 .892.32 1.756.9 2.435 1.565 1.834 3.951 2.74 7.097 2.74.358 0 .706-.012 1.043-.036A2.51 2.51 0 0 1 11 21.5v-1.034c-.321.023-.654.035-1 .035-2.738 0-4.704-.745-5.957-2.213a2.25 2.25 0 0 1-.54-1.461v-.578a.75.75 0 0 1 .75-.749h6.955A2.504 2.504 0 0 1 13 14.05ZM10 2.005a5 5 0 1 1 0 10 5 5 0 0 1 0-10Zm0 1.5a3.5 3.5 0 1 0 0 7 3.5 3.5 0 0 0 0-7ZM14 15h-.5a1.5 1.5 0 0 0-1.5 1.5v5a1.5 1.5 0 0 0 1.5 1.5h8a1.5 1.5 0 0 0 1.5-1.5v-5a1.5 1.5 0 0 0-1.5-1.5H21v-1.25A1.75 1.75 0 0 0 19.25 12h-3.5A1.75 1.75 0 0 0 14 13.75V15Zm1.5-1.25a.25.25 0 0 1 .25-.25h3.5a.25.25 0 0 1 .25.25V15h-4v-1.25Z"/></svg>