<svg xmlns="http://www.w3.org/2000/svg" width="32" height="32" viewBox="0 0 32 32"><path d="M8 7a2 2 0 1 1 4 0 2 2 0 0 1-4 0Zm2-4a4 4 0 1 0 0 8 4 4 0 0 0 0-8ZM4.5 13A2.5 2.5 0 0 0 2 15.5v.25c0 .275 0 1.845 1.054 3.36.757 1.088 1.983 2.047 3.899 2.54a4.018 4.018 0 0 1 1.735-1.717c-2.33-.251-3.437-1.167-3.992-1.965A3.996 3.996 0 0 1 4 15.75v-.25a.5.5 0 0 1 .5-.5h6c0-.706.133-1.38.375-2H4.5Zm24.446 6.11c-.757 1.088-1.983 2.047-3.899 2.54a4.019 4.019 0 0 0-1.735-1.717c2.33-.251 3.437-1.167 3.992-1.965A3.996 3.996 0 0 0 28 15.75v-.25a.5.5 0 0 0-.5-.5h-6c0-.706-.133-1.38-.375-2H27.5a2.5 2.5 0 0 1 2.5 2.5v.25c0 .275 0 1.845-1.054 3.36ZM20 7a2 2 0 1 1 4 0 2 2 0 0 1-4 0Zm2-4a4 4 0 1 0 0 8 4 4 0 0 0 0-8Zm-6 10a2 2 0 1 0 0 4 2 2 0 0 0 0-4Zm-4 2a4 4 0 1 1 8 0 4 4 0 0 1-8 0Zm-4 8.5a2.5 2.5 0 0 1 2.5-2.5h11a2.5 2.5 0 0 1 2.5 2.5v.25c0 .275 0 1.845-1.054 3.36C21.846 28.691 19.756 30 16 30c-3.755 0-5.846-1.309-6.946-2.89C8 25.595 8 24.026 8 23.75v-.25Zm2.5-.5a.5.5 0 0 0-.5.5v.25c0 .165.001 1.22.696 2.218.65.935 2.06 2.032 5.304 2.032 3.245 0 4.654-1.097 5.304-2.032A3.996 3.996 0 0 0 22 23.75v-.25a.5.5 0 0 0-.5-.5h-11Z"/></svg>