<svg xmlns="http://www.w3.org/2000/svg" width="16" height="16" viewBox="0 0 16 16"><path d="m4.768 2.922.01-.006.046-.027a7.091 7.091 0 0 1 .888-.424C6.31 2.23 7.12 2 8 2c.88 0 1.69.23 2.289.465a7.075 7.075 0 0 1 .887.424c.021.012.036.02.045.027l.01.006h.001a.5.5 0 0 0 .536-.844h-.001l-.002-.002-.005-.003-.018-.011a6.004 6.004 0 0 0-.285-.16 8.096 8.096 0 0 0-.802-.367C9.985 1.27 9.045 1 8 1c-1.046 0-1.985.27-2.655.535a8.09 8.09 0 0 0-1.026.49 3.75 3.75 0 0 0-.061.037l-.018.01-.005.004-.002.001a.5.5 0 0 0 .535.845ZM4 4a2 2 0 0 0-2 2v4a2 2 0 0 0 2 2h4a2 2 0 0 0 2-2V6a2 2 0 0 0-2-2H4Zm10 1.5a.5.5 0 0 0-.8-.4l-2 1.5a.5.5 0 0 0-.2.4v2a.5.5 0 0 0 .2.4l2 1.5a.5.5 0 0 0 .8-.4v-5Zm-9.231 7.579-.001-.001a.5.5 0 0 0-.536.844h.001l.002.002.005.003.018.011c.014.01.035.021.061.037.053.03.128.073.224.124.191.1.465.233.802.366.67.264 1.61.535 2.655.535 1.046 0 1.985-.27 2.655-.535a8.09 8.09 0 0 0 1.026-.49l.061-.037.018-.01.005-.004.002-.001h.001a.5.5 0 0 0-.536-.845l-.01.007-.046.026a7.085 7.085 0 0 1-.888.424C9.69 13.77 8.88 14 8 14c-.88 0-1.69-.23-2.289-.465a7.101 7.101 0 0 1-.887-.424 2.932 2.932 0 0 1-.045-.027l-.01-.005Z"/></svg>