<svg xmlns="http://www.w3.org/2000/svg" width="16" height="16"><path d="M10.5 5h3.25L10 1.25V4.5a.5.5 0 0 0 .5.5Zm0 1A1.5 1.5 0 0 1 9 4.5V1H5.5A1.5 1.5 0 0 0 4 2.5V9h3.5a3.5 3.5 0 0 1 1 .145V7.5a.5.5 0 0 1 1 0v2.127A3.496 3.496 0 0 1 11 12.5 3.49 3.49 0 0 1 9.95 15h2.55a1.5 1.5 0 0 0 1.5-1.5V6h-3.5Zm.5 6.5v-3a.5.5 0 0 1 1 0v3a.5.5 0 0 1-1 0ZM3.5 10a2.5 2.5 0 0 0 0 5H4a.5.5 0 0 0 0-1h-.5a1.5 1.5 0 0 1 0-3H4a.5.5 0 0 0 0-1h-.5ZM7 10a.5.5 0 0 0 0 1h.5a1.5 1.5 0 0 1 0 3H7a.5.5 0 0 0 0 1h.5a2.5 2.5 0 0 0 0-5H7Zm-4 2.5a.5.5 0 0 1 .5-.5h4a.5.5 0 0 1 0 1h-4a.5.5 0 0 1-.5-.5Z"/></svg>