<svg xmlns="http://www.w3.org/2000/svg" width="24" height="24" viewBox="0 0 24 24"><path d="M18.364 10.283c.046.033.09.068.133.105a2.95 2.95 0 0 0 .003-.133V5.75a2.25 2.25 0 0 0-2.25-2.25h-3.5v-.75l-.006-.101A.75.75 0 0 0 12 2l-.102.007a.75.75 0 0 0-.648.743l-.001.75h-3.5A2.25 2.25 0 0 0 5.5 5.75v4.505a2.25 2.25 0 0 0 2.25 2.25h7.784l.02-.053.008-.026.45-1.384.005-.012a1.544 1.544 0 0 1 2.348-.747ZM9.75 6.5a1.25 1.25 0 1 1 0 2.499 1.25 1.25 0 0 1 0-2.499Zm4.492 0a1.25 1.25 0 1 1 0 2.499 1.25 1.25 0 0 1 0-2.499Zm-1.2 7.537.113-.037H6.254a2.25 2.25 0 0 0-2.25 2.25v.907a3.75 3.75 0 0 0 1.305 2.844c1.563 1.343 3.802 2 6.691 2 2.076 0 3.817-.339 5.213-1.028a1.545 1.545 0 0 1-1.169-1.003l-.004-.012-.45-1.385v-.001a1.837 1.837 0 0 0-.444-.72l-.359-.262-.359-.183-1.385-.45-.012-.005a1.545 1.545 0 0 1 0-2.911l.012-.005Zm2.812 3.109a2.831 2.831 0 0 1 .685 1.114l.448 1.377a.544.544 0 0 0 1.027 0l.447-1.377a2.834 2.834 0 0 1 1.798-1.796l1.378-.448a.545.545 0 0 0 0-1.025l-.027-.007-1.378-.448a2.84 2.84 0 0 1-1.798-1.796l-.448-1.377a.544.544 0 0 0-1.026 0l-.448 1.377-.012.034a2.838 2.838 0 0 1-1.759 1.762l-1.377.448a.545.545 0 0 0 0 1.025l1.377.448c.42.14.801.376 1.113.689Zm7.164 3.819.765.248.016.004a.302.302 0 0 1 0 .57l-.766.248a1.578 1.578 0 0 0-.999.998l-.248.765a.302.302 0 0 1-.57 0l-.25-.764a1.575 1.575 0 0 0-.998-1.002l-.766-.249a.302.302 0 0 1 0-.57l.766-.248a1.578 1.578 0 0 0 .983-.998l.249-.765a.302.302 0 0 1 .57 0l.249.764a1.575 1.575 0 0 0 .999.999Z"/></svg>