<svg xmlns="http://www.w3.org/2000/svg" width="24" height="24"><path d="M17.756 14a2.249 2.249 0 0 1 2.249 2.248v.575c0 .895-.32 1.76-.901 2.439C17.534 21.096 15.147 22 12.002 22c-.163 0-.324-.002-.483-.007h.008c.116-.006.368-.02.612-.135a1.5 1.5 0 0 0 .862-1.393c2.224-.164 3.865-.895 4.963-2.178a2.25 2.25 0 0 0 .541-1.463v-.576a.749.749 0 0 0-.749-.749h-6.282a4.971 4.971 0 0 0-.391-1.5h6.673ZM12.002 2.003a5 5 0 1 1 0 10 5 5 0 0 1 0-10Zm0 1.5a3.5 3.5 0 1 0 0 7 3.5 3.5 0 0 0 0-7ZM6.502 12a4 4 0 0 0-4 4v3l-.948.8c-.308.26-.462.39-.508.491a.5.5 0 0 0 .241.662c.101.047.303.047.706.047h9.02c.402 0 .603 0 .704-.047a.5.5 0 0 0 .242-.662c-.047-.101-.2-.231-.508-.49L10.502 19v-3a4 4 0 0 0-4-4Zm1.5 10c-.218.583-.807 1-1.5 1-.692 0-1.281-.417-1.5-1h3Z"/></svg>