<svg xmlns="http://www.w3.org/2000/svg" width="28" height="28"><path d="M10.75 15A2.25 2.25 0 0 1 13 17.25v5.5A2.25 2.25 0 0 1 10.75 25h-5.5A2.25 2.25 0 0 1 3 22.75v-5.5A2.25 2.25 0 0 1 5.25 15h5.5Zm12 0A2.25 2.25 0 0 1 25 17.25v5.5A2.25 2.25 0 0 1 22.75 25h-5.5A2.25 2.25 0 0 1 15 22.75v-5.5A2.25 2.25 0 0 1 17.25 15h5.5Zm-12 1.5h-5.5a.75.75 0 0 0-.75.75v5.5c0 .414.336.75.75.75h5.5a.75.75 0 0 0 .75-.75v-5.5a.75.75 0 0 0-.75-.75Zm12 0h-5.5a.75.75 0 0 0-.75.75v5.5c0 .414.336.75.75.75h5.5a.75.75 0 0 0 .75-.75v-5.5a.75.75 0 0 0-.75-.75ZM10.75 3A2.25 2.25 0 0 1 13 5.25v5.5A2.25 2.25 0 0 1 10.75 13h-5.5A2.25 2.25 0 0 1 3 10.75v-5.5A2.25 2.25 0 0 1 5.25 3h5.5Zm12 0A2.25 2.25 0 0 1 25 5.25v5.5A2.25 2.25 0 0 1 22.75 13h-5.5A2.25 2.25 0 0 1 15 10.75v-5.5A2.25 2.25 0 0 1 17.25 3h5.5Zm-12 1.5h-5.5a.75.75 0 0 0-.75.75v5.5c0 .414.336.75.75.75h5.5a.75.75 0 0 0 .75-.75v-5.5a.75.75 0 0 0-.75-.75Zm12 0h-5.5a.75.75 0 0 0-.75.75v5.5c0 .414.336.75.75.75h5.5a.75.75 0 0 0 .75-.75v-5.5a.75.75 0 0 0-.75-.75Z"/></svg>