<svg xmlns="http://www.w3.org/2000/svg" width="24" height="24" viewBox="0 0 24 24"><path d="M3.5 5.75a.25.25 0 0 1 .25-.25H10c.69 0 1.25.56 1.25 1.25v8.959a6.49 6.49 0 0 1 1.5-2.646V6.75c0-.69.56-1.25 1.25-1.25h6.25a.25.25 0 0 1 .25.25v5.982A6.518 6.518 0 0 1 22 12.81V5.75A1.75 1.75 0 0 0 20.25 4H14c-.788 0-1.499.331-2 .863A2.742 2.742 0 0 0 10 4H3.75A1.75 1.75 0 0 0 2 5.75v12.5c0 .966.784 1.75 1.75 1.75H10c.495 0 .96-.13 1.36-.36a6.473 6.473 0 0 1-.343-1.663A1.248 1.248 0 0 1 10 18.5H3.75a.25.25 0 0 1-.25-.25V5.75Z"/><path d="M16.007 17c.04-1.415.248-2.669.553-3.585.171-.513.364-.893.554-1.134.195-.247.329-.281.386-.281.057 0 .192.034.386.281.19.241.383.62.554 1.134.305.916.513 2.17.553 3.585h-2.986Zm-.396-3.9c.108-.323.23-.622.368-.887A5.504 5.504 0 0 0 12.023 17h2.984c.04-1.5.26-2.866.604-3.9Zm3.778 0a6.133 6.133 0 0 0-.368-.887A5.504 5.504 0 0 1 22.978 17h-2.985c-.04-1.5-.26-2.866-.604-3.9Zm.604 4.9h2.985a5.504 5.504 0 0 1-3.957 4.787c.138-.265.26-.564.368-.886.345-1.035.564-2.4.604-3.901Zm-2.107 4.719c-.194.247-.329.281-.386.281-.057 0-.191-.034-.386-.281-.19-.241-.383-.62-.554-1.135-.305-.915-.513-2.17-.553-3.584h2.986c-.04 1.415-.248 2.669-.553 3.584-.171.514-.364.894-.554 1.135ZM12.023 18a5.504 5.504 0 0 0 3.956 4.787 6.133 6.133 0 0 1-.367-.886c-.346-1.035-.565-2.4-.605-3.901h-2.984Z"/></svg>