<svg xmlns="http://www.w3.org/2000/svg" width="20" height="20" viewBox="0 0 20 20"><path d="M2.5 5a.5.5 0 0 0 0 1h15a.5.5 0 0 0 0-1h-15Zm0 5a.5.5 0 0 0 0 1h10.195a4.474 4.474 0 0 1 1.323-.732 1.51 1.51 0 0 1 .068-.268H2.5Zm7.86 5.475a1.5 1.5 0 0 1-.274-.475H2.5a.5.5 0 0 0 0 1h8.775l-.007-.018a1.5 1.5 0 0 1-.908-.507Zm5.14.025a1 1 0 1 0 0-2 1 1 0 0 0 0 2Zm4-1.5h-.551A3.487 3.487 0 0 0 16 11.051V10.5a.5.5 0 0 0-1 0v.551A3.487 3.487 0 0 0 12.051 14H11.5a.5.5 0 0 0 0 1h.551A3.487 3.487 0 0 0 15 17.949v.551a.5.5 0 0 0 1 0v-.551A3.487 3.487 0 0 0 18.949 15h.551a.5.5 0 0 0 0-1Zm-2.232 2.268a2.5 2.5 0 1 1-3.536-3.535 2.5 2.5 0 0 1 3.536 3.535Z"/></svg>