<svg xmlns="http://www.w3.org/2000/svg" width="24" height="24"><path d="M4 6c0-.69.315-1.293.774-1.78.455-.482 1.079-.883 1.793-1.202C7.996 2.377 9.917 2 12 2c2.083 0 4.004.377 5.433 1.018.714.32 1.338.72 1.793 1.202.459.487.774 1.09.774 1.78v6.257a5.496 5.496 0 0 0-1.5-.882V8.392c-.32.22-.68.417-1.067.59C16.004 9.623 14.083 10 12 10c-2.083 0-4.004-.377-5.433-1.018a6.801 6.801 0 0 1-1.067-.59V18c0 .207.09.46.365.75.279.296.717.596 1.315.864 1.195.535 2.899.886 4.82.886.24 0 .476-.006.708-.016a5.495 5.495 0 0 0 2.15 1.267c-.89.162-1.856.249-2.858.249-2.083 0-4.004-.377-5.433-1.017-.714-.32-1.338-.72-1.793-1.203C4.315 19.293 4 18.69 4 18V6Zm1.5 0c0 .207.09.46.365.75.279.296.717.596 1.315.864 1.195.535 2.899.886 4.82.886 1.921 0 3.625-.35 4.82-.886.598-.268 1.036-.568 1.315-.864.275-.29.365-.543.365-.75 0-.207-.09-.46-.365-.75-.279-.296-.717-.596-1.315-.864-1.195-.535-2.9-.886-4.82-.886-1.921 0-3.625.35-4.82.886-.598.268-1.036.568-1.315.864-.275.29-.365.543-.365.75Zm11 15a4.48 4.48 0 0 0 2.607-.832l2.613 2.612a.75.75 0 1 0 1.06-1.06l-2.612-2.613A4.5 4.5 0 1 0 16.5 21Zm0-1.5a3 3 0 1 1 0-6 3 3 0 0 1 0 6Z"/></svg>