<svg xmlns="http://www.w3.org/2000/svg" width="48" height="48"><path d="M23.209 6.518a17.418 17.418 0 0 1 10.175 2.709c-2 3.067-4.399 5.464-5.636 6.606-.972.896-.97 2.383-.143 3.31a10.612 10.612 0 0 1 2.729 7.345c-.025.855.618 1.316.95 1.472.342.161 1.032.328 1.654-.118.934-.668 1.895-.361 2.142-.06.07.085.17.253.023.651-.169.456-.664 1.174-1.855 2.067-1.115.836-1.837 1.786-2.127 2.84-.293 1.066-.098 2.069.306 2.91.476.99 1.269 1.823 2.072 2.45A17.418 17.418 0 0 1 24 41.5c-4.768 0-9.09-1.907-12.247-5 0-.036-.002-.072-.005-.109-.245-2.809-.041-4.433.308-5.369.312-.84.734-1.123 1.18-1.283.268-.097.575-.157.955-.209l.363-.045c.28-.034.602-.073.874-.12.889-.157 2.048-.518 2.692-1.806.547-1.094.507-2.253.36-3.218-.074-.49-.184-.975-.287-1.414l-.04-.175c-.09-.385-.172-.73-.234-1.068-.148-.804-.127-1.276.012-1.583.103-.23.382-.604 1.415-.9 2.333-.666 3.983-1.65 4.997-2.947 1.037-1.328 1.29-2.834 1.12-4.276-.168-1.409-.74-2.787-1.387-3.992-.274-.51-.57-1.003-.867-1.468Zm-2.775.346c.492.71 1.002 1.49 1.44 2.306.579 1.076.991 2.136 1.106 3.102.11.933-.058 1.74-.608 2.443-.572.733-1.672 1.5-3.713 2.083-1.468.42-2.502 1.153-3.008 2.276-.47 1.045-.355 2.171-.19 3.063.073.401.17.812.258 1.19l.04.168c.102.439.191.839.25 1.222.119.78.078 1.318-.125 1.724-.106.212-.26.35-.888.46-.215.038-.409.061-.637.089-.15.018-.313.037-.507.064a7.11 7.11 0 0 0-1.462.332c-1.116.402-2.1 1.213-2.677 2.764-.309.828-.497 1.855-.554 3.128A17.418 17.418 0 0 1 6.5 24c0-8.443 5.98-15.49 13.934-17.136Zm15.153 30.251c-.751-.471-1.542-1.19-1.906-1.948-.203-.423-.25-.802-.15-1.164.103-.372.406-.894 1.217-1.503 1.392-1.043 2.3-2.117 2.7-3.201.421-1.142.255-2.26-.433-3.1-.975-1.19-2.688-1.521-4.223-1.04a13.122 13.122 0 0 0-3.241-7.588c1.32-1.23 3.759-3.687 5.844-6.853A17.46 17.46 0 0 1 41.5 24a17.46 17.46 0 0 1-5.913 13.115ZM24 4C12.954 4 4 12.954 4 24s8.954 20 20 20 20-8.954 20-20S35.046 4 24 4Z"/></svg>