<svg xmlns="http://www.w3.org/2000/svg" width="32" height="32"><path d="M17 2v7a3 3 0 0 0 3 3h7v15a3 3 0 0 1-3 3H13.5v-5.892A7 7 0 0 0 5 13.96V5a3 3 0 0 1 3-3h9Zm-6.5 24.549a6.762 6.762 0 0 0 1.5-1.017v4.518a.95.95 0 0 1-1.444.811L7.5 29l-3.056 1.86A.95.95 0 0 1 3 30.05v-4.518a6.731 6.731 0 0 0 4.489 1.719h.002a.29.29 0 0 0 .009 0h.011a6.72 6.72 0 0 0 2.989-.702ZM7.5 26A5.5 5.5 0 0 1 2 20.5a5.5 5.5 0 1 1 9.166 4.1A5.48 5.48 0 0 1 7.5 26ZM19 2.117V9a1 1 0 0 0 1 1h6.883a3 3 0 0 0-.762-1.293L20.293 2.88A3 3 0 0 0 19 2.117Z"/></svg>