<svg xmlns="http://www.w3.org/2000/svg" width="24" height="24"><path d="M20 6.5c0 2.21-3.582 4-8 4s-8-1.79-8-4 3.582-4 8-4 8 1.79 8 4Zm-2.232 4.428C16.152 11.616 14.137 12 12 12c-2.392 0-4.63-.482-6.328-1.33A7.61 7.61 0 0 1 4 9.553V18.5c0 2.21 3.582 4 8 4 .552 0 1.09-.028 1.61-.081a3.689 3.689 0 0 1-.61-2.044v-.103a2.772 2.772 0 0 1 2.773-2.772h.277a3.5 3.5 0 0 1 .882-5.63c.392-.197.73-.516.836-.942ZM21 15a2.5 2.5 0 1 1-5 0 2.5 2.5 0 0 1 5 0Zm2 5.375c0 1.556-1.286 3.125-4.5 3.125S14 21.937 14 20.375v-.103c0-.98.794-1.772 1.773-1.772h5.454c.98 0 1.773.793 1.773 1.772v.103Z"/></svg>