<svg xmlns="http://www.w3.org/2000/svg" width="16" height="16" viewBox="0 0 16 16"><path d="m8.912 5.844 1.612-1.612 1.245 1.244-1.612 1.612.093.093a1.673 1.673 0 0 1-.435 2.68l-.488.244a.297.297 0 0 0-.159.324l.009.042a2.821 2.821 0 0 1-1.074 2.81 3.595 3.595 0 0 1-4.699-.334l-.351-.35a3.595 3.595 0 0 1-.334-4.7 2.821 2.821 0 0 1 2.81-1.074l.043.009a.297.297 0 0 0 .323-.158l.245-.489a1.673 1.673 0 0 1 2.679-.435l.093.094Zm-2.62 3.864a1 1 0 1 0 1.415-1.415 1 1 0 0 0-1.414 1.415Zm6.184-4.939L11.23 3.525l.685-.685a.48.48 0 0 1 .68 0l.565.565a.48.48 0 0 1 0 .679l-.685.685Z"/></svg>