<svg xmlns="http://www.w3.org/2000/svg" width="20" height="20"><path d="M7.988 4.18a12.213 12.213 0 0 0-.67 2.32h5.364a12.219 12.219 0 0 0-.67-2.32c-.301-.733-.648-1.294-1.008-1.663C10.646 2.149 10.307 2 10 2c-.307 0-.646.149-1.004.517-.36.37-.706.93-1.008 1.663ZM7.89 2.281c-.314.426-.59.941-.828 1.518-.32.78-.58 1.694-.762 2.701H2.804a8.02 8.02 0 0 1 5.087-4.219Zm5.046 1.518a7.185 7.185 0 0 0-.827-1.518A8.02 8.02 0 0 1 17.196 6.5h-3.497c-.182-1.007-.44-1.922-.762-2.7ZM17.602 7.5H13.85c.098.795.15 1.634.15 2.5 0 .866-.052 1.705-.15 2.5h3.752A7.99 7.99 0 0 0 18 10a7.99 7.99 0 0 0-.398-2.5Zm-3.903 6h3.497a8.02 8.02 0 0 1-5.086 4.219 7.18 7.18 0 0 0 .827-1.518c.321-.78.58-1.694.762-2.701Zm-4.137.44c.068-.143.129-.29.182-.44h2.938a12.217 12.217 0 0 1-.67 2.32 8.018 8.018 0 0 1-.2.45 1.503 1.503 0 0 0-.251-.33l-2-2Zm.41-1.44h2.87c.102-.786.158-1.625.158-2.5s-.056-1.715-.158-2.5H7.158l-.037.3a4.502 4.502 0 0 1 2.852 4.7Zm-3.822-5-.006.046A4.539 4.539 0 0 0 5.5 7.5h.65Zm-3.752 0H5.5a4.49 4.49 0 0 0-3.45 1.612c.061-.556.18-1.096.35-1.612Zm3.102 8c.786 0 1.512-.26 2.096-.697l2.55 2.55a.5.5 0 1 0 .708-.707l-2.55-2.55A3.5 3.5 0 1 0 5.5 15.5Zm0-1a2.5 2.5 0 1 1 0-5 2.5 2.5 0 0 1 0 5Z"/></svg>