<svg xmlns="http://www.w3.org/2000/svg" width="28" height="28"><path d="M12.701 3.908c.532-1.078 2.069-1.078 2.6 0l2.692 5.452 6.017.875c1.19.173 1.664 1.634.804 2.473l-1.06 1.033a7.441 7.441 0 0 0-1.58-.554l1.52-1.482-5.943-.864a1.45 1.45 0 0 1-1.092-.793l-2.657-5.385-2.658 5.385a1.45 1.45 0 0 1-1.092.793l-5.943.864 4.3 4.191c.342.334.498.813.417 1.284l-1.015 5.919L13 20.476v.024c0 .543.058 1.072.167 1.583l-4.547 2.39c-1.064.56-2.307-.343-2.104-1.528l1.028-5.993-4.355-4.244c-.86-.839-.385-2.3.804-2.473l6.017-.875 2.691-5.452ZM27 20.5a6.5 6.5 0 1 1-13 0 6.5 6.5 0 0 1 13 0Zm-6-4a.5.5 0 0 0-1 0V20h-3.5a.5.5 0 0 0 0 1H20v3.5a.5.5 0 0 0 1 0V21h3.5a.5.5 0 0 0 0-1H21v-3.5Z"/></svg>