<svg xmlns="http://www.w3.org/2000/svg" width="16" height="16"><path d="M7.5 1.75a.75.75 0 0 1 1.5 0V6.5a.5.5 0 0 0 1 0V2.75a.75.75 0 0 1 1.5 0V7.5a.5.5 0 1 0 1 0V4.75a.75.75 0 0 1 1.5-.002V9.5c0 .813-.344 1.71-.743 2.492a16.128 16.128 0 0 1-1.283 2.059c-.45.622-1.171.949-1.91.949H7.736c-.952 0-1.797-.54-2.255-1.34a35.67 35.67 0 0 0-2.233-3.38 40.86 40.86 0 0 0-1.112-1.435l-.016-.02-.003-.004h-.001a.5.5 0 0 1 .03-.675c.351-.35.766-.493 1.187-.482.4.01.778.159 1.096.336.202.111.394.243.57.379V2.75a.75.75 0 0 1 1.5 0V6.5a.5.5 0 0 0 1.001 0V1.75Z"/></svg>