<svg xmlns="http://www.w3.org/2000/svg" width="48" height="48"><path d="m13.883 8.828.027-.015c.025-.014.065-.037.121-.066.112-.06.285-.148.515-.256.461-.216 1.15-.51 2.037-.805A23.563 23.563 0 0 1 24 6.5c3.09 0 5.643.594 7.417 1.186.887.295 1.576.59 2.037.805a11.807 11.807 0 0 1 .636.322l.025.014h.001l.001.001h.002a1.25 1.25 0 0 0 1.709-.444 1.262 1.262 0 0 0-.446-1.712l-.002-.002-.005-.003-.015-.008a5.703 5.703 0 0 0-.22-.12 14.258 14.258 0 0 0-.625-.311 21.454 21.454 0 0 0-2.307-.914A26.063 26.063 0 0 0 24 4c-3.41 0-6.232.656-8.208 1.314-.988.33-1.768.66-2.307.914a14.258 14.258 0 0 0-.845.43l-.015.01-.005.002-.002.002s.18-.1-.002 0a1.25 1.25 0 0 0 1.267 2.156ZM8 17.058a4.559 4.559 0 0 1 4.559-4.558H25.44A4.559 4.559 0 0 1 30 17.059V30.94a4.559 4.559 0 0 1-4.559 4.559H12.56A4.559 4.559 0 0 1 8 30.941V17.06Zm24 10.496 6.14 5.041c1.142.938 2.86.125 2.86-1.352V16.758c0-1.478-1.718-2.29-2.86-1.353L32 20.445v7.11ZM13.883 39.172a1.25 1.25 0 0 0-1.267 2.156c.289.158.002 0 .002 0l.002.002.005.003.015.008.049.028.17.093c.147.077.357.184.626.31.54.253 1.319.584 2.307.914A26.063 26.063 0 0 0 24 44c3.41 0 6.232-.656 8.208-1.314a21.45 21.45 0 0 0 2.307-.913 14.338 14.338 0 0 0 .796-.404l.05-.028.014-.008.005-.003.002-.002h.002a1.25 1.25 0 0 0-1.266-2.157v.001h-.002v.001l-.026.014a11.795 11.795 0 0 1-.636.322c-.461.216-1.15.51-2.037.805A23.565 23.565 0 0 1 24 41.5c-3.09 0-5.643-.594-7.417-1.186a18.961 18.961 0 0 1-2.037-.805 11.795 11.795 0 0 1-.636-.322l-.027-.015Z"/></svg>