<svg xmlns="http://www.w3.org/2000/svg" width="24" height="24"><path d="M21 8.5v3.522A6.5 6.5 0 0 0 12.022 21H6.25A3.25 3.25 0 0 1 3 17.75V8.5h18ZM17.75 3A3.25 3.25 0 0 1 21 6.25V7H3v-.75A3.25 3.25 0 0 1 6.25 3h11.5Zm-3.469 10.976a2 2 0 0 1-1.441 2.496l-.584.145a5.729 5.729 0 0 0 .006 1.807l.54.13a2 2 0 0 1 1.45 2.51l-.187.631c.44.386.94.7 1.484.922l.494-.519a2 2 0 0 1 2.899 0l.498.526a5.28 5.28 0 0 0 1.483-.913l-.198-.686a2 2 0 0 1 1.441-2.496l.584-.145a5.729 5.729 0 0 0-.006-1.807l-.54-.13a2 2 0 0 1-1.45-2.51l.187-.631a5.278 5.278 0 0 0-1.484-.922l-.493.518a2 2 0 0 1-2.9 0l-.498-.525c-.544.22-1.044.53-1.483.913l.198.686ZM17.503 19c-.8 0-1.45-.671-1.45-1.5 0-.828.65-1.5 1.45-1.5.8 0 1.45.672 1.45 1.5 0 .829-.65 1.5-1.45 1.5Z"/></svg>