<svg xmlns="http://www.w3.org/2000/svg" width="24" height="24"><path d="M2 7.25A3.25 3.25 0 0 1 5.25 4h13.5A3.25 3.25 0 0 1 22 7.25v7.25a3.5 3.5 0 1 0-5.95 2.5h-.277A2.772 2.772 0 0 0 13 19.772v.103c0 .042 0 .083.002.125H5.25A3.25 3.25 0 0 1 2 16.75v-9.5ZM5 8v4a1 1 0 0 0 1 1h5a1 1 0 0 0 1-1V8a1 1 0 0 0-1-1H6a1 1 0 0 0-1 1Zm16 6.5a2.5 2.5 0 1 1-5 0 2.5 2.5 0 0 1 5 0Zm2 5.375C23 21.431 21.714 23 18.5 23S14 21.437 14 19.875v-.103c0-.98.794-1.772 1.773-1.772h5.454c.98 0 1.773.793 1.773 1.772v.103Z"/></svg>