<svg xmlns="http://www.w3.org/2000/svg" width="20" height="20"><path d="M9.996 1.992c-.77 0-1.279.541-1.568 1.027-.294.493-.45 1.07-.471 1.442-.041.74.07 1.388.439 1.856.384.488.96.675 1.6.675.649 0 1.223-.209 1.605-.697.369-.472.488-1.115.44-1.839-.023-.352-.181-.926-.474-1.421-.287-.485-.796-1.043-1.57-1.043Zm-1.04 2.524c.01-.203.116-.624.331-.986.22-.368.465-.538.71-.538.239 0 .485.172.71.551.217.37.325.793.337.978.039.6-.074.958-.23 1.158-.143.182-.385.313-.818.313-.45 0-.682-.125-.814-.294-.15-.19-.262-.544-.227-1.182ZM5 8a2 2 0 0 0-2 2v6h-.5a.5.5 0 0 0 0 1h15a.5.5 0 0 0 0-1H17v-6a2 2 0 0 0-2-2H5Zm11 8H4v-3.882l1.545 1.38a2 2 0 0 0 2.828-.162l.88-.99a1 1 0 0 1 1.495 0l.879.99a2 2 0 0 0 2.829.163L16 12.118V16Zm0-5.224-2.211 1.977a1 1 0 0 1-1.414-.081l-.88-.99a2 2 0 0 0-2.99 0l-.88.99a1 1 0 0 1-1.414.081L4 10.776V10a1 1 0 0 1 1-1h10a1 1 0 0 1 1 1v.776Z"/></svg>