<svg xmlns="http://www.w3.org/2000/svg" width="24" height="24"><path d="M3.5 6a.5.5 0 0 1 .5-.5h6.5v13H4a.5.5 0 0 1-.5-.5V6ZM12 18.5v-13h2V10a2 2 0 0 0 2 2h4.5v6a.5.5 0 0 1-.5.5h-8Zm3.5-11.878 3.879 3.878H16a.5.5 0 0 1-.5-.5V6.622Zm5.914 3.793-5.828-5.829A2 2 0 0 0 14.172 4H4a2 2 0 0 0-2 2v12a2 2 0 0 0 2 2h16a2 2 0 0 0 2-2v-6.172a.605.605 0 0 0-.007-.082.832.832 0 0 1-.007-.059 1.977 1.977 0 0 0-.138-.624c-.024-.057-.056-.112-.087-.166a4.258 4.258 0 0 1-.053-.098.645.645 0 0 0-.044-.08 2.072 2.072 0 0 0-.18-.219.617.617 0 0 1-.03-.036.372.372 0 0 0-.04-.049Z"/></svg>