<svg xmlns="http://www.w3.org/2000/svg" width="24" height="24" viewBox="0 0 24 24"><path d="M13.002 6.01c3.169 0 4.966 2.097 5.228 4.63h.08a3.687 3.687 0 0 1 3.692 3.682 3.687 3.687 0 0 1-3.692 3.683l-.619-.002-1.55 2.625a.75.75 0 0 1-1.345-.658l.045-.092 1.118-1.875h-2.136l-1.551 2.625a.75.75 0 0 1-1.344-.658l.045-.092 1.118-1.875H9.955l-1.551 2.625a.75.75 0 0 1-1.344-.658l.045-.092 1.117-1.875-.527.002a3.687 3.687 0 0 1-3.692-3.682 3.687 3.687 0 0 1 3.692-3.683h.08c.263-2.55 2.059-4.63 5.227-4.63Zm0 1.497c-2.071 0-3.876 1.634-3.876 3.89 0 .357-.32.638-.685.638h-.69c-1.261 0-2.283 1-2.283 2.236 0 1.235 1.022 2.236 2.283 2.236h10.503c1.26 0 2.283-1 2.283-2.236 0-1.235-1.022-2.236-2.283-2.236h-.69c-.366 0-.685-.28-.685-.638 0-2.285-1.805-3.89-3.877-3.89Zm-8.634 2.658a.75.75 0 0 1-.315.935l-.091.045-.926.384a.75.75 0 0 1-.666-1.34l.092-.046.926-.384a.75.75 0 0 1 .98.406Zm6.487-4.833-.172.058a5.822 5.822 0 0 0-1.46.758A2.442 2.442 0 0 0 6.43 9.815a4.608 4.608 0 0 0-1.366.64 3.942 3.942 0 0 1 5.791-5.122Zm-7.914.031.106.035.926.384a.75.75 0 0 1-.469 1.42L3.4 7.168l-.926-.384a.75.75 0 0 1 .468-1.42Zm3.815-2.986.046.091.383.926a.75.75 0 0 1-1.34.666L5.8 3.968l-.384-.926a.75.75 0 0 1 1.34-.665Zm4.354-.319a.75.75 0 0 1 .44.875l-.034.105-.384.926a.75.75 0 0 1-1.42-.468l.034-.106.384-.926a.75.75 0 0 1 .98-.406Z"/></svg>