<svg xmlns="http://www.w3.org/2000/svg" width="48" height="48" viewBox="0 0 48 48"><path d="M24 25a6 6 0 1 0 0-12 6 6 0 0 0 0 12Zm0-2.5a3.5 3.5 0 1 1 0-7 3.5 3.5 0 0 1 0 7ZM4 10.75A3.75 3.75 0 0 1 7.75 7h32.5A3.75 3.75 0 0 1 44 10.75v14.87a13.044 13.044 0 0 0-2.5-1.88V10.75c0-.69-.56-1.25-1.25-1.25H7.75c-.69 0-1.25.56-1.25 1.25v24.5c0 .69.56 1.25 1.25 1.25H14v-6.25A3.25 3.25 0 0 1 17.25 27h7.502c-.6.769-1.117 1.607-1.535 2.5H17.25a.75.75 0 0 0-.75.75v6.25h5.586c.099.862.282 1.698.541 2.5H7.75A3.75 3.75 0 0 1 4 35.25v-24.5ZM46 35c0 6.075-4.925 11-11 11s-11-4.925-11-11 4.925-11 11-11 11 4.925 11 11Zm-5 0a1 1 0 0 0-1-1h-4v-6a1 1 0 1 0-2 0v7a1 1 0 0 0 1 1h5a1 1 0 0 0 1-1Z"/></svg>