<svg xmlns="http://www.w3.org/2000/svg" width="20" height="20"><path d="M14.284 3.241 13.19 4.335a6.503 6.503 0 0 0-9.659 5.028 5.494 5.494 0 0 0-1.527.89 8.003 8.003 0 0 1 12.28-7.012ZM9.746 17.996c.374-.454.677-.968.891-1.527a6.473 6.473 0 0 0 3.96-1.873.75.75 0 0 1 1.06 1.06 7.978 7.978 0 0 1-5.91 2.34ZM11 14.5c0 .17-.008.34-.023.506a5.075 5.075 0 0 0 2.63-1.4.75.75 0 1 0-1.061-1.06c-.47.47-1.039.783-1.64.939.062.329.094.668.094 1.015ZM5.5 9c.347 0 .686.032 1.015.094a3.599 3.599 0 0 1 4.472-2.556l1.164-1.164a5.102 5.102 0 0 0-7.157 3.649A5.57 5.57 0 0 1 5.5 9Zm3.004.892c.64.418 1.186.965 1.604 1.604a1.5 1.5 0 0 0 1.341-1.885l4.331-4.33a.75.75 0 0 0-1.06-1.061l-4.332 4.33a1.501 1.501 0 0 0-1.884 1.342Zm8.746 3.358a.75.75 0 1 1-1.5 0 .75.75 0 0 1 1.5 0ZM16.5 7.5a.75.75 0 1 0 0-1.5.75.75 0 0 0 0 1.5Zm1.5 3.75a.75.75 0 1 1-1.5 0 .75.75 0 0 1 1.5 0Zm-.75-1.75a.75.75 0 1 0 0-1.5.75.75 0 0 0 0 1.5ZM15 11.25a.75.75 0 1 1-1.5 0 .75.75 0 0 1 1.5 0Zm-.75-1.75a.75.75 0 1 0 0-1.5.75.75 0 0 0 0 1.5Zm-4.25 5a4.5 4.5 0 1 1-9 0 4.5 4.5 0 0 1 9 0Zm-2.146-1.854a.5.5 0 0 0-.708 0L4.5 15.293l-.646-.647a.5.5 0 0 0-.708.708l1 1a.5.5 0 0 0 .708 0l3-3a.5.5 0 0 0 0-.708Z"/></svg>