<svg xmlns="http://www.w3.org/2000/svg" width="16" height="16"><path d="M6 1a2 2 0 0 0-2 2v2.207a5.48 5.48 0 0 1 1-.185V3a1 1 0 0 1 1-1h3v2.5A1.5 1.5 0 0 0 10.5 6H13v7a1 1 0 0 1-1 1H8.386c.051.352-.023.704-.197 1H12a2 2 0 0 0 2-2V5.414a1.5 1.5 0 0 0-.44-1.06l-2.914-2.915A1.5 1.5 0 0 0 9.586 1H6Zm6.793 4H10.5a.5.5 0 0 1-.5-.5V2.207L12.793 5Zm-5.93 9.79A4.485 4.485 0 0 1 5.5 15a4.5 4.5 0 1 1 4.5-4.5c0 1.301-.89 2.34-1.98 2.34-.524 0-.916-.209-1.182-.579a1.79 1.79 0 0 1-1.338.579c-.177 0-.344-.023-.5-.066a1.844 1.844 0 0 1-1-.706c-.31-.422-.48-.977-.48-1.568 0-.59.17-1.146.48-1.568.25-.34.588-.593 1-.706.156-.043.323-.066.5-.066.368 0 .694.1.97.273a.539.539 0 0 1 1.005.194l.005.073v1.8c0 .895.202 1.26.54 1.26.453 0 .9-.521.9-1.26a3.42 3.42 0 1 0-3.42 3.42h.027c.026 0 .051 0 .077-.002.249-.007.493-.04.73-.1l.202-.057.14-.048a.54.54 0 0 1 .438.984l-.067.03-.185.063ZM5 9.437c-.246.22-.4.606-.4 1.063 0 .457.154.843.4 1.063a.74.74 0 0 0 .5.197c.52 0 .9-.543.9-1.26s-.38-1.26-.9-1.26a.74.74 0 0 0-.5.197Z"/></svg>