<svg xmlns="http://www.w3.org/2000/svg" width="48" height="48" viewBox="0 0 48 48"><path d="M31 15.25A6.25 6.25 0 0 0 24.75 9h-14.5A6.25 6.25 0 0 0 4 15.25v8.444A12.973 12.973 0 0 1 14 19c7.18 0 13 5.82 13 13 0 2.575-.75 4.977-2.042 6.997A6.25 6.25 0 0 0 31 32.75v-17.5Zm2 14.282 6.961 5.436C41.603 36.25 44 35.08 44 32.998V15.003c0-2.083-2.397-3.252-4.039-1.97L33 18.468v11.063Zm-8 2.467C25 25.924 20.075 21 14 21 7.927 21 3.002 25.924 3.002 32c0 1.864.466 3.662 1.339 5.262l-1.303 4.516a.956.956 0 0 0 1.184 1.184l4.519-1.3A10.953 10.953 0 0 0 14 42.998c6.075 0 11-4.925 11-11ZM10 29h8a1 1 0 1 1 0 2h-8a1 1 0 1 1 0-2Zm-1 5a1 1 0 0 1 1-1h5a1 1 0 1 1 0 2h-5a1 1 0 0 1-1-1Z"/></svg>