<svg xmlns="http://www.w3.org/2000/svg" width="24" height="24"><path d="M3.004 2.907a1 1 0 0 1 1.09-.903l3.746.35c2.655.264 5.202.581 7.296.942 2.041.351 3.797.766 4.762 1.275.248.131.521.307.732.548.225.257.438.663.35 1.166-.082.458-.377.767-.613.953a3.731 3.731 0 0 1-.876.486c-1.27.525-3.66 1.022-7.392 1.51-1.682.22-2.923.435-3.801.636.21.046.438.092.68.136 1.217.224 2.75.415 4.382.561 1.247.112 2.582.288 3.723.514.57.113 1.105.24 1.564.383.107.033.216.069.323.107A2 2 0 0 0 17.5 13.5v1.642c-.93.195-2.127.38-3.623.56-2.611.311-4.179.706-5.036 1.095-.342.156-.513.285-.591.36.03.046.086.116.181.207.18.173.444.366.786.568.682.403 1.563.778 2.417 1.07l3.245 1.046a1 1 0 1 1-.614 1.904L11.004 20.9l-.008-.003c-.933-.319-1.955-.746-2.796-1.243a6.334 6.334 0 0 1-1.152-.845c-.319-.305-.64-.71-.771-1.214-.147-.564-.023-1.128.34-1.604.33-.431.826-.756 1.398-1.015 1.147-.52 2.967-.943 5.625-1.26 1.588-.19 2.756-.38 3.587-.56a18.535 18.535 0 0 0-.532-.113 34.976 34.976 0 0 0-3.513-.484c-1.667-.15-3.267-.347-4.565-.586a17.086 17.086 0 0 1-1.728-.397c-.466-.138-.939-.315-1.285-.56a1.553 1.553 0 0 1-.547-.649c-.162-.382-.12-.79.074-1.124.164-.282.408-.467.601-.587.207-.127.447-.236.705-.332 1.006-.373 2.759-.727 5.403-1.073 3.232-.423 5.27-.833 6.407-1.201-.777-.257-1.949-.525-3.451-.783-2.028-.35-4.522-.661-7.151-.922l-3.738-.35a1 1 0 0 1-.903-1.088ZM20.5 13.5a1 1 0 1 0-2 0v6.086l-.793-.793a1 1 0 0 0-1.414 1.414l2.5 2.5a1 1 0 0 0 1.414 0l2.5-2.5a1 1 0 0 0-1.414-1.414l-.793.793V13.5Z"/></svg>