<svg xmlns="http://www.w3.org/2000/svg" width="16" height="16" viewBox="0 0 16 16"><path d="M7 10a1 1 0 1 1-2 0 1 1 0 0 1 2 0Zm3 1a1 1 0 1 0 0-2 1 1 0 0 0 0 2ZM6 4.5a.5.5 0 0 1 .5-.5h3a.5.5 0 0 1 0 1h-3a.5.5 0 0 1-.5-.5Zm-4 0A2.5 2.5 0 0 1 4.5 2h7A2.5 2.5 0 0 1 14 4.5v6a2.5 2.5 0 0 1-2.5 2.5h-.617l1.865 1.066a.5.5 0 1 1-.496.868L8.867 13H7.133l-3.385 1.934a.5.5 0 0 1-.496-.868L5.117 13H4.5A2.5 2.5 0 0 1 2 10.5v-6ZM3 8v2.5A1.5 1.5 0 0 0 4.5 12h7a1.5 1.5 0 0 0 1.5-1.5V8H3Zm10-1V4.5A1.5 1.5 0 0 0 11.5 3h-7A1.5 1.5 0 0 0 3 4.5V7h10Z"/></svg>