<svg xmlns="http://www.w3.org/2000/svg" width="20" height="20" viewBox="0 0 20 20"><path d="M8.94 3.929c-.936-.757-1.975-.918-2.906-.736A4.259 4.259 0 0 0 3.777 4.46c-.603.656-1.195 1.486-1.241 2.7-.022.602.067 1.475.532 2.129l.002.002c.613.851.922 1.475 1.048 2.287.04.26.062.543.067.867a6.69 6.69 0 0 0 .467 2.334c.322.795.873 1.608 1.77 1.939l.022.008.023.006c.524.14 1.012.09 1.38-.255.324-.303.459-.754.535-1.16.07-.376.105-.812.14-1.241l.012-.153c.04-.491.085-.98.18-1.442.267-1.273.648-1.497.825-1.55.491-.127.779-.041.97.098.278.202.49.615.637 1.224.143.593.2 1.264.251 1.877.072.866.255 1.654.603 2.158.181.262.438.49.785.565.35.075.69-.03.99-.224 1.104-.704 1.743-2.167 1.918-4.105.08-.871.168-1.294.297-1.628.1-.26.224-.47.418-.802a39.229 39.229 0 0 0 .364-.632c.244-.436.644-1.23.69-2.16.048-.966-.29-2.033-1.431-2.961-1.09-.886-2.106-1.207-3.013-1.158-.899.05-1.617.458-2.128.896l-.013.01-.012.013c-.5.49-.73.577-.879.57-.168-.006-.442-.137-1.006-.705l-.019-.02-.021-.017Zm3.995 1.669c.49 0 .987.148 1.382.498.399.354.647.873.706 1.526a.5.5 0 1 1-.996.09c-.04-.445-.197-.712-.373-.868-.18-.16-.428-.246-.719-.246a.5.5 0 0 1 0-1Z"/></svg>