<svg xmlns="http://www.w3.org/2000/svg" width="24" height="24" viewBox="0 0 24 24"><path d="M22 6.5a5.5 5.5 0 1 1-11 0 5.5 5.5 0 0 1 11 0Zm-7.146-2.354a.5.5 0 0 0-.708.708L15.793 6.5l-1.647 1.646a.5.5 0 0 0 .708.708L16.5 7.207l1.646 1.647a.5.5 0 0 0 .708-.708L17.207 6.5l1.647-1.646a.5.5 0 0 0-.708-.708L16.5 5.793l-1.646-1.647ZM19.5 14v-1.732A6.518 6.518 0 0 0 21 11.19v7.56a3.25 3.25 0 0 1-3.066 3.245L17.75 22H6.25a3.25 3.25 0 0 1-3.245-3.066L3 18.75V7.25a3.25 3.25 0 0 1 3.066-3.245L6.25 4h4.248a6.451 6.451 0 0 0-.422 1.5H6.25a1.75 1.75 0 0 0-1.744 1.606L4.5 7.25V14H9a.75.75 0 0 1 .743.648l.007.102a2.25 2.25 0 0 0 4.495.154l.005-.154a.75.75 0 0 1 .648-.743L15 14h4.5Zm-15 1.5v3.25a1.75 1.75 0 0 0 1.606 1.744l.144.006h11.5a1.75 1.75 0 0 0 1.744-1.607l.006-.143V15.5h-3.825a3.752 3.752 0 0 1-3.475 2.995l-.2.005a3.752 3.752 0 0 1-3.632-2.812l-.043-.188H4.5Z"/></svg>