<svg xmlns="http://www.w3.org/2000/svg" width="24" height="24"><path d="M11.999 21.998c-5.523 0-10-4.477-10-10s4.477-10 10-10 10 4.477 10 10-4.477 10-10 10Zm-1-8-.083-.072a.75.75 0 0 0-.977.072l-.439.44v-3.94h5v3.941l-.512-.44-.084-.073a.75.75 0 0 0-.977 1.133l1.792 1.72.084.073a.75.75 0 0 0 .976-.073l1.72-1.72.073-.084a.75.75 0 0 0-.073-.976l-.084-.073a.75.75 0 0 0-.976.073l-.439.438v-4.69l-.007-.101a.75.75 0 0 0-.743-.649L15.23 9h-2.48V5.747l-.007-.101a.75.75 0 0 0-.744-.649l-.101.007a.75.75 0 0 0-.649.744v3.25H8.794a.763.763 0 0 0-.043 0l-.102.006A.75.75 0 0 0 8 9.748v4.691L7.56 14l-.083-.073A.75.75 0 0 0 6.5 15.06l1.719 1.72.084.073a.75.75 0 0 0 .977-.073L11 15.06l.072-.084a.75.75 0 0 0-.072-.977Z"/></svg>