<svg xmlns="http://www.w3.org/2000/svg" width="24" height="24"><path d="M6.75 6a.75.75 0 0 1 .743.648l.007.102v12.689l2.22-2.22a.75.75 0 0 1 .976-.072l.084.073a.75.75 0 0 1 .073.976l-.073.084-3.5 3.5a.75.75 0 0 1-.976.073l-.084-.073-3.5-3.5a.75.75 0 0 1 .976-1.133l.084.073L6 19.439V6.75A.75.75 0 0 1 6.75 6Zm10.498 0a.75.75 0 0 1 .743.648l.007.102v12.689l2.22-2.22a.75.75 0 0 1 .976-.072l.084.073a.75.75 0 0 1 .073.976l-.073.084-3.5 3.5a.75.75 0 0 1-.976.073l-.085-.073-3.5-3.5a.75.75 0 0 1 .977-1.133l.084.073 2.22 2.219V6.75a.75.75 0 0 1 .75-.75ZM6.75 2a4.75 4.75 0 0 1 1.751 9.167V9.488a3.25 3.25 0 1 0-3.502 0v1.68A4.752 4.752 0 0 1 6.75 2Zm10.498 0a4.75 4.75 0 0 1 1.75 9.167L19 9.488a3.25 3.25 0 1 0-3.502 0v1.68A4.752 4.752 0 0 1 17.248 2Z"/></svg>