<svg xmlns="http://www.w3.org/2000/svg" width="24" height="24"><path d="M7.25 2A3.25 3.25 0 0 0 4 5.25v13.5A3.25 3.25 0 0 0 7.25 22h5.854a2.74 2.74 0 0 1-.093-.5H13a2 2 0 0 1-1.732-1H7.25a1.75 1.75 0 0 1-1.75-1.75V5.25c0-.966.784-1.75 1.75-1.75h9.5c.966 0 1.75.784 1.75 1.75V11h.75c.26 0 .512.036.75.104V5.25A3.25 3.25 0 0 0 16.75 2h-9.5Zm8.5 9H17V6a1 1 0 0 0-1-1H8a1 1 0 0 0-1 1v12a1 1 0 0 0 1 1h3v-3a2.5 2.5 0 0 1 2.007-2.451A2.75 2.75 0 0 1 15.75 11ZM14 13.75c0-.966.784-1.75 1.75-1.75h3.5c.966 0 1.75.784 1.75 1.75v.75h.5A1.5 1.5 0 0 1 23 16v3.5a1 1 0 0 1-1 1h-1v.75A1.75 1.75 0 0 1 19.25 23h-3.5A1.75 1.75 0 0 1 14 21.25v-.75h-1a1 1 0 0 1-1-1V16a1.5 1.5 0 0 1 1.5-1.5h.5v-.75Zm5.5 0a.25.25 0 0 0-.25-.25h-3.5a.25.25 0 0 0-.25.25v.75h4v-.75Zm-4 5.5v2c0 .138.112.25.25.25h3.5a.25.25 0 0 0 .25-.25v-2a.25.25 0 0 0-.25-.25h-3.5a.25.25 0 0 0-.25.25Z"/></svg>