<svg xmlns="http://www.w3.org/2000/svg" width="16" height="16" viewBox="0 0 16 16"><path d="m10.878.282.348 1.071a2.205 2.205 0 0 0 1.398 1.397l1.072.348.021.006a.423.423 0 0 1 0 .798l-1.071.348a2.208 2.208 0 0 0-1.399 1.397l-.348 1.07a.423.423 0 0 1-.798 0l-.348-1.07a2.204 2.204 0 0 0-1.399-1.403l-1.072-.348a.423.423 0 0 1 0-.798l1.072-.348a2.208 2.208 0 0 0 1.377-1.397l.348-1.07a.423.423 0 0 1 .799 0Zm4.905 7.931-.765-.248a1.577 1.577 0 0 1-1-.999l-.248-.764a.302.302 0 0 0-.57 0l-.25.764a1.576 1.576 0 0 1-.983.999l-.765.248a.303.303 0 0 0 0 .57l.765.249a1.578 1.578 0 0 1 1 1.002l.248.764a.302.302 0 0 0 .57 0l.249-.764a1.576 1.576 0 0 1 .999-.999l.765-.248a.303.303 0 0 0 0-.57l-.015-.004ZM13 11.901a1.323 1.323 0 0 1-.244-.131c-.22-.16-.38-.371-.48-.621l-.26-.802a.983.983 0 0 0-.016-.039V13a1 1 0 0 1-1 1H5a1 1 0 0 1-1-1V3a1 1 0 0 1 1-1h2.43l.612-.197c.16-.05.32-.16.45-.29.13-.13.23-.29.29-.47L8.797 1H5a2 2 0 0 0-2 2v10a2 2 0 0 0 2 2h6a2 2 0 0 0 2-2v-1.1ZM9.59 8.49a.5.5 0 0 0-.09-.99h-3l-.09.008a.5.5 0 0 0 .09.992h3l.09-.008Zm.41 3a.5.5 0 0 1-.41.493l-.09.008h-3A.5.5 0 0 1 6.41 11l.09-.008h3a.5.5 0 0 1 .5.5Z"/></svg>