<svg xmlns="http://www.w3.org/2000/svg" width="48" height="48" viewBox="0 0 48 48"><path d="M15.5 12a3.5 3.5 0 0 0-3.5 3.5v4a3.5 3.5 0 0 0 3.5 3.5h4a3.5 3.5 0 0 0 3.5-3.5v-4a3.5 3.5 0 0 0-3.5-3.5h-4Zm0 13a3.5 3.5 0 0 0-3.5 3.5v4a3.5 3.5 0 0 0 3.5 3.5h4a3.5 3.5 0 0 0 3.5-3.5v-4a3.5 3.5 0 0 0-3.5-3.5h-4Zm13-13a3.5 3.5 0 0 0-3.5 3.5v4a3.5 3.5 0 0 0 3.5 3.5h4a3.5 3.5 0 0 0 3.5-3.5v-4a3.5 3.5 0 0 0-3.5-3.5h-4Zm0 13a3.5 3.5 0 0 0-3.5 3.5v4a3.5 3.5 0 0 0 3.5 3.5h4a3.5 3.5 0 0 0 3.5-3.5v-4a3.5 3.5 0 0 0-3.5-3.5h-4ZM6 12.25A6.25 6.25 0 0 1 12.25 6h23.5A6.25 6.25 0 0 1 42 12.25v23.5A6.25 6.25 0 0 1 35.75 42h-23.5A6.25 6.25 0 0 1 6 35.75v-23.5Zm6.25-3.75a3.75 3.75 0 0 0-3.75 3.75v23.5a3.75 3.75 0 0 0 3.75 3.75h23.5a3.75 3.75 0 0 0 3.75-3.75v-23.5a3.75 3.75 0 0 0-3.75-3.75h-23.5Z"/></svg>