<svg xmlns="http://www.w3.org/2000/svg" width="24" height="24"><path d="M12 22c5.523 0 10-4.477 10-10S17.523 2 12 2 2 6.477 2 12s4.477 10 10 10Zm-1.5-10a.75.75 0 0 1 .75-.75h.874c1.109 0 1.876-.797 1.876-1.625S13.233 8 12.124 8c-.633 0-1.148.229-1.514.47a3.065 3.065 0 0 0-.534.448l-.002.002a.75.75 0 0 1-1.151-.961v-.001l.001-.001.003-.003.005-.006.015-.018.049-.054a4.567 4.567 0 0 1 .79-.66 4.245 4.245 0 0 1 2.338-.716c1.792 0 3.376 1.33 3.376 3.125 0 .975-.467 1.813-1.182 2.375.715.562 1.182 1.4 1.182 2.375 0 1.795-1.584 3.125-3.376 3.125a4.245 4.245 0 0 1-2.339-.717 4.557 4.557 0 0 1-.79-.66 2.582 2.582 0 0 1-.048-.053l-.015-.018-.005-.006-.003-.003-.001-.002a.75.75 0 0 1 1.151-.961l.002.002.02.021c.02.022.052.056.098.1.093.087.233.207.416.327.367.241.88.47 1.514.47C13.233 16 14 15.203 14 14.375s-.767-1.625-1.876-1.625h-.874a.75.75 0 0 1-.75-.75Zm-.426 3.08.002.002Z"/></svg>