<svg xmlns="http://www.w3.org/2000/svg" width="24" height="24" viewBox="0 0 24 24"><path d="M11 5h5.745a2.25 2.25 0 0 1 2.25 2.25V11h-1.5V7.25a.75.75 0 0 0-.75-.75H11V5Zm-4.5 6v5.745c0 .414.336.75.75.75H11v1.5H7.25A2.25 2.25 0 0 1 5 16.745V11h1.5ZM2 4.25A2.25 2.25 0 0 1 4.25 2h3.5A2.25 2.25 0 0 1 10 4.25v3.5A2.25 2.25 0 0 1 7.75 10h-3.5A2.25 2.25 0 0 1 2 7.75v-3.5Zm10 10A2.25 2.25 0 0 1 14.25 12h5.5A2.25 2.25 0 0 1 22 14.25v5.5A2.25 2.25 0 0 1 19.75 22h-5.5A2.25 2.25 0 0 1 12 19.75v-5.5Z"/></svg>