<svg xmlns="http://www.w3.org/2000/svg" width="24" height="24"><path d="M14.193 14.751a.75.75 0 0 0 1.059.056l2.5-2.25a.75.75 0 0 0 0-1.114l-2.5-2.25a.75.75 0 0 0-1.004 1.115l1.048.942H11.75a.75.75 0 1 0 0 1.5h3.546l-1.048.942a.75.75 0 0 0-.055 1.06ZM2 6.75A2.75 2.75 0 0 1 4.75 4h14.5A2.75 2.75 0 0 1 22 6.75v10.5A2.75 2.75 0 0 1 19.25 20H4.75A2.75 2.75 0 0 1 2 17.25V6.75ZM4.75 5.5c-.69 0-1.25.56-1.25 1.25v10.5c0 .69.56 1.25 1.25 1.25h3.254v-13H4.75Zm4.754 0v13h9.746c.69 0 1.25-.56 1.25-1.25V6.75c0-.69-.56-1.25-1.25-1.25H9.504Z"/></svg>