<svg xmlns="http://www.w3.org/2000/svg" width="24" height="24" viewBox="0 0 24 24"><path d="M13.002 7.009c3.168 0 4.966 2.097 5.227 4.63h.08a3.687 3.687 0 0 1 3.692 3.683 3.687 3.687 0 0 1-3.692 3.682H7.694a3.687 3.687 0 0 1-3.692-3.682 3.687 3.687 0 0 1 3.692-3.683h.08c.263-2.55 2.06-4.63 5.228-4.63ZM10 4c1.617 0 3.05.815 3.9 2.062a7.496 7.496 0 0 0-.898-.053c-2.994 0-5.171 1.677-5.937 4.213l-.068.24-.058.238-.206.039a4.681 4.681 0 0 0-3.449 3.045 3.282 3.282 0 0 1 1.812-5.881l.257-.006A4.72 4.72 0 0 1 10 4Z"/></svg>