<svg xmlns="http://www.w3.org/2000/svg" width="16" height="16"><path d="M8.999 2.5a.5.5 0 0 0-.85-.358l-2.925 2.85H3.5a1.5 1.5 0 0 0-1.5 1.5V9.48a1.5 1.5 0 0 0 1.5 1.5h1.722l1.302 1.278a3.82 3.82 0 0 1 .52-.89l-1.267-1.245a.5.5 0 0 0-.35-.143H3.5a.5.5 0 0 1-.5-.5V6.492a.5.5 0 0 1 .5-.5h1.927a.5.5 0 0 0 .349-.142l2.223-2.165v6.693l1-1V2.5Zm-.95 9.242a2.78 2.78 0 0 0-.73 1.29l-.303 1.21a.61.61 0 0 0 .739.74l1.21-.303a2.777 2.777 0 0 0 1.29-.73l4.288-4.288a1.56 1.56 0 0 0-1.617-2.578 1.555 1.555 0 0 0-.59.371l-.338.339-1.115 1.114-2.834 2.835Zm5.645-5.732a6.628 6.628 0 0 0-1.522-2.563 4.978 4.978 0 0 0-.327-.31l-.023-.02-.007-.005-.002-.002-.002-.001a.5.5 0 1 0-.623.782l.012.01.051.044a4 4 0 0 1 .201.196 5.64 5.64 0 0 1 1.221 1.973 2.578 2.578 0 0 1 1.02-.104Zm-1.914.597a3.818 3.818 0 0 0-.351-.756 3.372 3.372 0 0 0-.405-.54 2.493 2.493 0 0 0-.188-.183l-.015-.012-.005-.005-.002-.001-.001-.001h-.001a.5.5 0 0 0-.623.78h-.001l.018.016c.018.017.048.045.085.085.074.08.178.207.283.38.151.248.307.596.382 1.05l.673-.673c.05-.049.1-.096.152-.14Z"/></svg>