<svg xmlns="http://www.w3.org/2000/svg" width="24" height="24" viewBox="0 0 24 24"><path d="M8.077 6.884A4.072 4.072 0 0 1 11.973 4C14.174 4 16 5.783 16 8a4 4 0 0 1-4 4H2.75a.75.75 0 0 1 0-1.5H12A2.5 2.5 0 0 0 14.5 8c0-1.373-1.138-2.5-2.527-2.5-1.13 0-2.138.743-2.46 1.815l-.045.15a.75.75 0 1 1-1.436-.43l.045-.15Zm8.211 5.129A2.942 2.942 0 0 1 19.072 10 2.93 2.93 0 0 1 22 12.93V13a3 3 0 0 1-3 3h-1.3a2.75 2.75 0 0 1-2.45 4h-.135a2.557 2.557 0 0 1-2.285-1.41.75.75 0 0 1 1.34-.673c.18.357.545.583.945.583h.135a1.25 1.25 0 1 0 0-2.5H2.75a.75.75 0 0 1 0-1.5H19a1.5 1.5 0 0 0 1.5-1.5v-.07c0-.79-.64-1.43-1.43-1.43-.61 0-1.163.4-1.358.987a.75.75 0 0 1-1.424-.474Z"/></svg>