<svg xmlns="http://www.w3.org/2000/svg" width="24" height="24" viewBox="0 0 24 24"><path d="M9.5 5.85a.75.75 0 0 1 .67.415l.821 1.64 1.602.2a.75.75 0 0 1 .387 1.321l-1.149.957.401 1.804a.75.75 0 0 1-1.13.799L9.5 11.984l-1.603 1.002a.75.75 0 0 1-1.13-.799l.402-1.803-1.15-.958a.75.75 0 0 1 .388-1.32l1.602-.2.82-1.641A.75.75 0 0 1 9.5 5.85ZM4 4h11a2 2 0 0 1 2 2v7a2 2 0 0 1-2 2H4a2 2 0 0 1-2-2V6a2 2 0 0 1 2-2Zm11 1.5H4a.5.5 0 0 0-.5.5v7a.5.5 0 0 0 .5.5h11a.5.5 0 0 0 .5-.5V6a.5.5 0 0 0-.5-.5ZM4.563 16A2 2 0 0 0 6.5 17.5h9a4 4 0 0 0 4-4v-5A2 2 0 0 0 18 6.563V13.5a2.5 2.5 0 0 1-2.5 2.5H4.563Zm2.5 2.5A2 2 0 0 0 9 20h7.25A5.75 5.75 0 0 0 22 14.25V11a2 2 0 0 0-1.5-1.937v5.187a4.25 4.25 0 0 1-4.25 4.25H7.063Z"/></svg>