<svg xmlns="http://www.w3.org/2000/svg" width="16" height="16" viewBox="0 0 16 16"><path d="M9.489 3.521a.292.292 0 0 0-.044.03 2.825 2.825 0 0 0-.165.16.75.75 0 0 1-1.06-1.061l.02-.02c.161-.162.323-.324.605-.465a.75.75 0 0 1 .057-.026c.693-.277 1.39-.132 1.919.257.238.164.386.36.49.521a7.1 7.1 0 0 1 .114.193l.012.02c.025.045.046.08.066.113l1.028-1.027a.75.75 0 0 1 1.06 1.06l-1.354 1.355c.032.054.062.103.092.147.065.099.139.221.2.322l.065.108a2.743 2.743 0 0 0 .13.194l.012.014a.32.32 0 0 0 .096.07.164.164 0 0 0 .13.002.751.751 0 0 1 .078-.045.284.284 0 0 0 .064-.042c.032-.026.068-.061.16-.152a.75.75 0 0 1 1.06 1.06l-.02.02c-.15.15-.301.302-.555.436a1.677 1.677 0 0 1-2.073-.288 2.659 2.659 0 0 1-.36-.482l-.1-.167-.067-.11-1.062 1.063a.75.75 0 0 1-1.06-1.061L10.4 4.347a8.046 8.046 0 0 1-.147-.275 4.536 4.536 0 0 1-.117-.194l-.013-.023c-.033-.057-.055-.096-.078-.132-.046-.072-.065-.085-.074-.091a.746.746 0 0 1-.034-.024c-.15-.112-.297-.138-.448-.087ZM6.284 4.943c.489.004.918.244 1.212.554.294.31.506.746.515 1.238a2.252 2.252 0 0 1-.66 1.79c-.427.433-.997.703-1.547.876-.893.282-1.903.362-2.654.358-.102.403-.112.7-.078.915.04.246.142.415.296.551a.738.738 0 0 1 .042.04c.139.143.31.198.721.284.938.108 1.902-.44 2.52-1.289a.75.75 0 0 1 1.213.884c-.837 1.148-2.298 2.102-3.95 1.89a.744.744 0 0 1-.056-.01l-.046-.01c-.377-.077-.973-.198-1.457-.682a2.375 2.375 0 0 1-.764-1.421c-.091-.571-.009-1.206.214-1.898a.758.758 0 0 1 .03-.1l.094-.251a7.411 7.411 0 0 1 1.026-1.933c.654-.872 1.743-1.835 3.329-1.786ZM3.76 8.242a6.89 6.89 0 0 0 1.592-.27c.431-.137.744-.31.933-.502a.758.758 0 0 0 .228-.644.75.75 0 0 1-.002-.06.358.358 0 0 0-.104-.238.338.338 0 0 0-.097-.072.118.118 0 0 0-.04-.013.74.74 0 0 1-.025 0c-.886-.03-1.569.49-2.09 1.186a5.41 5.41 0 0 0-.396.613Z"/></svg>