<svg xmlns="http://www.w3.org/2000/svg" width="24" height="24" viewBox="0 0 24 24"><path d="M13.409 2.513a3.75 3.75 0 0 0-2.818 0l-7.498 3.04A1.75 1.75 0 0 0 2 7.175v9.653a1.75 1.75 0 0 0 1.093 1.621l7.498 3.04a3.75 3.75 0 0 0 1.966.233A6.475 6.475 0 0 1 11 17.501c0-.621.087-1.222.25-1.792v-4.948L6.484 8.952a.75.75 0 0 1 .532-1.402L12 9.44l4.984-1.89a.75.75 0 1 1 .532 1.402l-4.766 1.809v2.303A6.482 6.482 0 0 1 17.5 11c1.747 0 3.332.689 4.5 1.81V7.174a1.75 1.75 0 0 0-1.093-1.622l-7.498-3.04ZM12 17.501a5.5 5.5 0 1 0 11 0 5.5 5.5 0 0 0-11 0Zm8.5-3.5a.5.5 0 0 1 .5.5v2a.5.5 0 0 1-.5.5h-2a.5.5 0 0 1 0-1h1a2.496 2.496 0 0 0-2-1c-.833 0-1.572.407-2.027 1.036a.5.5 0 0 1-.81-.586A3.496 3.496 0 0 1 17.5 14c.98 0 1.865.403 2.5 1.05v-.55a.5.5 0 0 1 .5-.5Zm-5.5 5.95v.55a.5.5 0 0 1-1 0v-2a.5.5 0 0 1 .5-.5h2a.5.5 0 1 1 0 1h-1c.456.608 1.183 1 2 1 .766 0 1.452-.344 1.911-.888a.5.5 0 0 1 .764.645A3.494 3.494 0 0 1 17.5 21a3.49 3.49 0 0 1-2.5-1.05Z"/></svg>