<svg xmlns="http://www.w3.org/2000/svg" width="16" height="16" viewBox="0 0 16 16"><path d="M2.267 6.153A5.986 5.986 0 0 1 3.53 3.98a.355.355 0 0 1 .382-.095l1.36.484a.71.71 0 0 0 .935-.538l.26-1.416a.354.354 0 0 1 .274-.282 6.072 6.072 0 0 1 2.52 0c.14.03.248.141.274.282l.26 1.416a.708.708 0 0 0 .935.538l1.36-.484a.355.355 0 0 1 .382.095 5.99 5.99 0 0 1 1.262 2.173.352.352 0 0 1-.108.378l-1.102.931a.703.703 0 0 0 0 1.076l1.102.931c.11.093.152.242.108.378a5.985 5.985 0 0 1-1.262 2.173.355.355 0 0 1-.382.095l-1.36-.484a.71.71 0 0 0-.935.538l-.26 1.416a.353.353 0 0 1-.275.282 6.068 6.068 0 0 1-2.519 0 .354.354 0 0 1-.275-.282l-.259-1.416a.708.708 0 0 0-.935-.538l-1.36.484a.355.355 0 0 1-.382-.095 5.986 5.986 0 0 1-1.262-2.173.352.352 0 0 1 .108-.378l1.102-.931a.704.704 0 0 0 0-1.076l-1.102-.931a.352.352 0 0 1-.108-.378ZM6.25 8a1.75 1.75 0 1 0 3.5 0 1.75 1.75 0 0 0-3.5 0Z"/></svg>