<svg xmlns="http://www.w3.org/2000/svg" width="24" height="24" viewBox="0 0 24 24"><path d="M15.986 4a2.25 2.25 0 0 0-2.236-2h-3.5a2.25 2.25 0 0 0-2.236 2H6.25A2.25 2.25 0 0 0 4 6.25v13.5A2.25 2.25 0 0 0 6.25 22H8.5a2.489 2.489 0 0 1-.5-1.5H6.25a.75.75 0 0 1-.75-.75V6.25a.75.75 0 0 1 .75-.75h2.129c.404.603 1.091 1 1.871 1h3.5c.78 0 1.467-.397 1.871-1h2.129a.75.75 0 0 1 .75.75V19a2.5 2.5 0 0 1 1.5-.95V6.25A2.25 2.25 0 0 0 17.75 4h-1.764Zm.009.096L16 4.25c0-.052-.002-.103-.005-.154ZM10.25 3.5h3.5a.75.75 0 0 1 0 1.5h-3.5a.75.75 0 0 1 0-1.5Zm1.75 17a1.5 1.5 0 1 1-3 0 1.5 1.5 0 0 1 3 0Zm3.5 1.5a1.5 1.5 0 1 0 0-3 1.5 1.5 0 0 0 0 3Zm5 0a1.5 1.5 0 1 0 0-3 1.5 1.5 0 0 0 0 3Z"/></svg>