<svg xmlns="http://www.w3.org/2000/svg" width="24" height="24"><path d="M23 6.5a5.5 5.5 0 1 0-11 0 5.5 5.5 0 0 0 11 0ZM18 7l.001 2.504a.5.5 0 1 1-1 0V7h-2.505a.5.5 0 0 1 0-1H17V3.5a.5.5 0 0 1 1 0V6h2.497a.5.5 0 0 1 0 1H18Zm2.507 9.251-.002-3.986a6.517 6.517 0 0 0 1.5-1.079l.002 5.064a2.249 2.249 0 0 1-2.248 2.25H18v1.25A2.25 2.25 0 0 1 15.75 22h-7.5A2.25 2.25 0 0 1 6 19.75V18.5H4.25A2.25 2.25 0 0 1 2 16.25v-5.996a3.25 3.25 0 0 1 3.25-3.25l.749-.001L6 6.25A2.25 2.25 0 0 1 8.25 4h3.248a6.451 6.451 0 0 0-.422 1.5H8.25a.75.75 0 0 0-.75.75l-.001.753h3.52c.04.52.14 1.022.296 1.5H5.25a1.75 1.75 0 0 0-1.75 1.75v5.997c0 .414.336.75.75.75H6v-1.75A2.25 2.25 0 0 1 8.25 13h7.5A2.25 2.25 0 0 1 18 15.25V17h1.783a.749.749 0 0 0 .724-.749ZM16.5 15.25a.75.75 0 0 0-.75-.75h-7.5a.75.75 0 0 0-.75.75v4.5c0 .414.336.75.75.75h7.5a.75.75 0 0 0 .75-.75v-4.5Z"/></svg>