<svg xmlns="http://www.w3.org/2000/svg" width="48" height="48" viewBox="0 0 48 48"><path d="M13.25 11A5.25 5.25 0 0 0 8 16.25v1.457A5.502 5.502 0 0 0 4 23v6.75a5.252 5.252 0 0 0 4 5.1v2.9a1.25 1.25 0 1 0 2.5 0V35h27v2.75a1.25 1.25 0 1 0 2.5 0v-2.9a5.25 5.25 0 0 0 4-5.1V23a5.502 5.502 0 0 0-4-5.293V16.25c0-2.9-2.35-5.25-5.25-5.25h-21.5Zm24.25 6.59A5.502 5.502 0 0 0 33 23H15c0-2.696-1.94-4.94-4.5-5.41v-1.34a2.75 2.75 0 0 1 2.75-2.75h21.5a2.75 2.75 0 0 1 2.75 2.75v1.34ZM6.5 23a3 3 0 1 1 6 0v1.25c0 .69.56 1.25 1.25 1.25h20.5c.69 0 1.25-.56 1.25-1.25V23a3 3 0 1 1 6 0v6.75a2.75 2.75 0 0 1-2.75 2.75H9.25a2.75 2.75 0 0 1-2.75-2.75V23Z"/></svg>