<svg xmlns="http://www.w3.org/2000/svg" width="20" height="20" viewBox="0 0 20 20"><path d="M9 2a4 4 0 1 0 0 8 4 4 0 0 0 0-8ZM6 6a3 3 0 1 1 6 0 3 3 0 0 1-6 0Zm-1.991 5A2.001 2.001 0 0 0 2 13c0 1.691.833 2.966 2.135 3.797C5.417 17.614 7.145 18 9 18h.05a2.511 2.511 0 0 1-.05-.5V17c-1.735 0-3.257-.364-4.327-1.047C3.623 15.283 3 14.31 3 13c0-.553.448-1 1.009-1h5.49a2.5 2.5 0 0 1 1.543-.958A2.82 2.82 0 0 1 11.05 11H4.009Zm7.991.5v.5h-.5a1.5 1.5 0 0 0-1.5 1.5v4a1.5 1.5 0 0 0 1.5 1.5h6a1.5 1.5 0 0 0 1.5-1.5v-4a1.5 1.5 0 0 0-1.5-1.5H17v-.5a1.5 1.5 0 0 0-1.5-1.5h-2a1.5 1.5 0 0 0-1.5 1.5Zm1.5-.5h2a.5.5 0 0 1 .5.5v.5h-3v-.5a.5.5 0 0 1 .5-.5Z"/></svg>