<svg xmlns="http://www.w3.org/2000/svg" width="24" height="24"><path d="M20.25 11.992c.966 0 1.75.784 1.75 1.75v2.5a1.75 1.75 0 0 1-1.75 1.75h-2.5a1.75 1.75 0 0 1-1.75-1.75v-2.5c0-.966.784-1.75 1.75-1.75h2.5Zm-14 0c.966 0 1.75.784 1.75 1.75v2.5a1.75 1.75 0 0 1-1.75 1.75h-2.5A1.75 1.75 0 0 1 2 16.242v-2.5c0-.966.784-1.75 1.75-1.75h2.5Zm7 0c.966 0 1.75.784 1.75 1.75v2.5a1.75 1.75 0 0 1-1.75 1.75h-2.5A1.75 1.75 0 0 1 9 16.242v-2.5c0-.966.784-1.75 1.75-1.75h2.5Zm7 1.5h-2.5a.25.25 0 0 0-.25.25v2.5c0 .138.112.25.25.25h2.5a.25.25 0 0 0 .25-.25v-2.5a.25.25 0 0 0-.25-.25Zm-14 0h-2.5a.25.25 0 0 0-.25.25v2.5c0 .138.112.25.25.25h2.5a.25.25 0 0 0 .25-.25v-2.5a.25.25 0 0 0-.25-.25Zm7 0h-2.5a.25.25 0 0 0-.25.25v2.5c0 .138.112.25.25.25h2.5a.25.25 0 0 0 .25-.25v-2.5a.25.25 0 0 0-.25-.25Zm0-8.5c.966 0 1.75.784 1.75 1.75v2.5a1.75 1.75 0 0 1-1.75 1.75h-2.5A1.75 1.75 0 0 1 9 9.242v-2.5c0-.966.784-1.75 1.75-1.75h2.5Zm7 0c.966 0 1.75.784 1.75 1.75v2.5a1.75 1.75 0 0 1-1.75 1.75h-2.5A1.75 1.75 0 0 1 16 9.242v-2.5c0-.966.784-1.75 1.75-1.75h2.5Zm-14 0c.966 0 1.75.784 1.75 1.75v2.5a1.75 1.75 0 0 1-1.75 1.75h-2.5A1.75 1.75 0 0 1 2 9.242v-2.5a1.75 1.75 0 0 1 1.606-1.744l.144-.006h2.5Zm7 1.5h-2.5a.25.25 0 0 0-.25.25v2.5c0 .138.112.25.25.25h2.5a.25.25 0 0 0 .25-.25v-2.5a.25.25 0 0 0-.25-.25Zm7 0h-2.5a.25.25 0 0 0-.25.25v2.5c0 .138.112.25.25.25h2.5a.25.25 0 0 0 .25-.25v-2.5a.25.25 0 0 0-.25-.25Zm-14 0h-2.5l-.057.007a.25.25 0 0 0-.193.243v2.5c0 .138.112.25.25.25h2.5a.25.25 0 0 0 .25-.25v-2.5a.25.25 0 0 0-.25-.25Z"/></svg>