<svg xmlns="http://www.w3.org/2000/svg" width="20" height="20" viewBox="0 0 20 20"><path d="M13.245 2.817 3.64 12.423l-.117.128a2 2 0 0 0-.398.76l-1.106 4.055-.015.08a.5.5 0 0 0 .63.534l4.054-1.106.165-.053c.271-.1.518-.257.723-.462l9.606-9.606.13-.14a2.783 2.783 0 0 0-4.066-3.796ZM4.346 13.13l8.039-8.038 2.521 2.521-8.038 8.038-.098.086-.107.072a1 1 0 0 1-.239.1l-3.212.876.877-3.211.042-.123a1 1 0 0 1 .215-.321Zm12.128-9.606.11.12c.584.7.547 1.744-.11 2.402l-.861.86-2.521-2.521.86-.86.12-.11a1.783 1.783 0 0 1 2.402.11ZM11.648 3H2.5a.5.5 0 0 0 0 1h8.148l1-1Zm-3 3H2.5a.5.5 0 0 0 0 1h5.148l1-1Zm-4 4 1-1H2.5a.5.5 0 0 0 0 1h2.148Z"/></svg>