<svg xmlns="http://www.w3.org/2000/svg" width="48" height="48"><path d="M24 5c-5.547 0-10 4.51-10 10.25a1.5 1.5 0 0 0 3 0C17 11.11 20.167 8 24 8s7 3.11 7 7.25c0 1.836-.446 2.85-1.022 3.607-.476.626-1.023 1.083-1.732 1.676-.299.25-.626.522-.988.842-1.155 1.019-2.385 2.311-3.301 4.376-.906 2.043-1.457 4.733-1.457 8.499v.25a1.5 1.5 0 0 0 3 0v-.25c0-3.484.511-5.731 1.2-7.282.677-1.53 1.572-2.487 2.542-3.343.215-.19.453-.389.704-.597.798-.667 1.722-1.437 2.42-2.354C33.382 19.337 34 17.664 34 15.25 34 9.51 29.547 5 24 5Zm0 37a1.75 1.75 0 1 0 0-3.5 1.75 1.75 0 0 0 0 3.5Z"/></svg>