<svg xmlns="http://www.w3.org/2000/svg" width="16" height="16" viewBox="0 0 16 16"><path d="M2 4.5A1.5 1.5 0 0 1 3.5 3h3.995a1.5 1.5 0 0 1 1.5 1.5V5h3.555c.734.026 1.45.547 1.45 1.51v3.03a1.5 1.5 0 0 1-1.5 1.5h-1.387l-.146.746c-.162.828-.814 1.216-1.467 1.213L3.5 13A1.5 1.5 0 0 1 2 11.5v-7Zm6.995 6.999c0 .605.874.69.99.095l.892-4.58v-.002l.15-.783.006-.031.012-.054.01-.044.03-.1h-2.09v5.499ZM4.485 5.99a.5.5 0 1 0 0-1 .5.5 0 0 0 0 1Zm.01 1.5a.5.5 0 0 0 0 1h1.99a.501.501 0 1 0 0-1h-1.99Zm0 2.51a.5.5 0 0 0 0 1h1.99a.5.5 0 0 0 .262-.925l-.022-.013a.491.491 0 0 0-.129-.05l-.01-.002a.475.475 0 0 0-.078-.01H4.494Z"/></svg>