<svg xmlns="http://www.w3.org/2000/svg" width="24" height="24"><path d="M10.25 3.5h3.5a.75.75 0 0 1 .75.75V6h-5V4.25a.75.75 0 0 1 .75-.75ZM8 4.25V6H6.25A3.25 3.25 0 0 0 3 9.25v7.5A3.25 3.25 0 0 0 6.25 20h11.5A3.25 3.25 0 0 0 21 16.75v-7.5A3.25 3.25 0 0 0 17.75 6H16V4.25A2.25 2.25 0 0 0 13.75 2h-3.5A2.25 2.25 0 0 0 8 4.25Zm9.75 3.25c.966 0 1.75.784 1.75 1.75v7.5a1.75 1.75 0 0 1-1.75 1.75H6.25a1.75 1.75 0 0 1-1.75-1.75v-7.5c0-.966.784-1.75 1.75-1.75h11.5Zm-6.25 3.25v1.75H9.75a.75.75 0 0 0 0 1.5h1.75v1.75a.75.75 0 0 0 1.5 0V14h1.75a.75.75 0 0 0 0-1.5H13v-1.75a.75.75 0 0 0-1.5 0Z"/></svg>