<svg xmlns="http://www.w3.org/2000/svg" width="24" height="24"><path d="M10.788 3.102c.495-1.003 1.926-1.003 2.421 0l2.358 4.778 5.273.766c1.107.16 1.549 1.522.748 2.303l-3.816 3.719.901 5.25c.19 1.104-.968 1.945-1.959 1.424l-4.716-2.48-4.715 2.48c-.99.52-2.148-.32-1.96-1.423l.901-5.251-3.815-3.72c-.801-.78-.359-2.141.748-2.302L8.43 7.88l2.358-4.778Zm1.21.937L9.74 8.614a1.35 1.35 0 0 1-1.016.739l-5.05.734 3.654 3.562c.318.31.463.757.388 1.195l-.862 5.029 4.516-2.375a1.35 1.35 0 0 1 1.257 0l4.516 2.375-.862-5.03a1.35 1.35 0 0 1 .388-1.194l3.654-3.562-5.05-.734a1.35 1.35 0 0 1-1.016-.739L11.998 4.04Z"/></svg>