<svg xmlns="http://www.w3.org/2000/svg" width="20" height="20"><path d="M12 12c0 1.354.934 3 2.75 3 1.549 0 2.456-1.197 2.69-2.389A2 2 0 0 1 18 14v2a2 2 0 0 1-2 2H4a2 2 0 0 1-2-2v-2a2 2 0 0 1 2-2h.336l1.45 1.45a3 3 0 0 0 4.242 0l1.45-1.45H12Zm2.377-2.833-.003.004c-.04.048-.151.178-.212.255-.124.158-.29.38-.458.642C13.386 10.564 13 11.295 13 12c0 1.009.672 2 1.75 2 1.078 0 1.75-.991 1.75-2 0-.705-.386-1.436-.704-1.932a8.128 8.128 0 0 0-.458-.642c-.055-.07-.158-.191-.208-.25l-.017-.02A.47.47 0 0 0 14.75 9a.5.5 0 0 0-.373.167Zm.373 1.14c.066.091.135.192.204.3.306.478.546.998.546 1.393 0 .293-.1.566-.248.749a.617.617 0 0 1-.502.251.617.617 0 0 1-.502-.251A1.215 1.215 0 0 1 14 12c0-.396.24-.915.546-1.393.07-.108.139-.208.204-.3ZM8.5 1a.5.5 0 0 0-.5.5v1.56a1.991 1.991 0 0 0-.8.49L3.664 7.086a2 2 0 0 0 0 2.828l2.829 2.829a2 2 0 0 0 2.828 0l3.536-3.536a2 2 0 0 0 0-2.828L10.028 3.55A1.99 1.99 0 0 0 9 3.002V1.5a.5.5 0 0 0-.5-.5ZM8 4.175V5.5a.5.5 0 0 0 1 0V4.042a.98.98 0 0 1 .321.215l2.829 2.829c.12.12.202.262.249.414H4.664l3.243-3.243c.03-.03.06-.057.093-.082ZM4.371 9.207a.997.997 0 0 1-.293-.707h8.071l-3.535 3.536a1 1 0 0 1-1.414 0L4.37 9.207Zm10.005-.04h.001Z"/></svg>