<svg xmlns="http://www.w3.org/2000/svg" width="24" height="24"><path d="M5.694 12 2.299 3.27c-.236-.607.356-1.188.942-.981l.093.039 18 9a.752.752 0 0 1 .264 1.124 6.473 6.473 0 0 0-4.272-1.451L4.402 4.54l2.61 6.71h6.627a.75.75 0 0 1 .724.555 6.52 6.52 0 0 0-1.3.945H7.011l-2.609 6.71 6.753-3.377a6.522 6.522 0 0 0-.147 1.75l-7.674 3.838c-.583.291-1.217-.245-1.065-.848l.03-.095L5.694 12Z"/><path d="M23 17.5a5.5 5.5 0 1 0-11 0 5.5 5.5 0 0 0 11 0Zm-5.5 0h2a.5.5 0 0 1 0 1H17a.5.5 0 0 1-.5-.5v-3a.5.5 0 0 1 1 0v2.5Z"/></svg>