<svg xmlns="http://www.w3.org/2000/svg" width="20" height="20" viewBox="0 0 20 20"><path d="M8.44 2.152a8.037 8.037 0 0 1 3.12 0 .5.5 0 0 1-.193.981 7.037 7.037 0 0 0-2.734 0 .5.5 0 0 1-.194-.98Zm-5.7 5.894a.5.5 0 0 1 .393.587 7.036 7.036 0 0 0 0 2.734.5.5 0 0 1-.98.194 8.038 8.038 0 0 1 0-3.122.5.5 0 0 1 .587-.393Zm14.52 0a.5.5 0 0 1 .588.393 8.032 8.032 0 0 1 0 3.122.5.5 0 0 1-.981-.194 7.042 7.042 0 0 0 0-2.734.5.5 0 0 1 .393-.587ZM8.046 17.26a.5.5 0 0 1 .587-.393 7.042 7.042 0 0 0 2.734 0 .5.5 0 1 1 .194.98 8.033 8.033 0 0 1-3.122 0 .5.5 0 0 1-.393-.587Zm6.4-13.913a8.04 8.04 0 0 1 2.207 2.208.5.5 0 1 1-.831.556 7.032 7.032 0 0 0-1.933-1.933.5.5 0 0 1 .557-.83Zm-8.198.138a.5.5 0 0 1-.137.693 7.037 7.037 0 0 0-1.933 1.933.5.5 0 0 1-.83-.556 8.037 8.037 0 0 1 2.206-2.208.5.5 0 0 1 .694.138Zm10.268 10.267a.5.5 0 0 1 .137.694 8.033 8.033 0 0 1-2.207 2.207.5.5 0 0 1-.557-.83 7.035 7.035 0 0 0 1.933-1.934.5.5 0 0 1 .694-.137Zm-13.032 0a.5.5 0 0 1 .694.137 7.038 7.038 0 0 0 1.933 1.933.5.5 0 1 1-.557.831 8.036 8.036 0 0 1-2.207-2.207.5.5 0 0 1 .137-.694Zm9.985-6.08c-.78-.861-2.12-.9-2.95-.085l-.52.512-.52-.512a2.045 2.045 0 0 0-2.95 2.83l3.1 3.423a.5.5 0 0 0 .74 0l3.1-3.423a2.045 2.045 0 0 0 0-2.745Z"/></svg>