<svg xmlns="http://www.w3.org/2000/svg" width="24" height="24"><path d="m12.748 4.002-.001.002h7.498c.967 0 1.75.784 1.75 1.75V18.25a1.75 1.75 0 0 1-1.75 1.75h-8.997l-.001-.002H3.75A1.75 1.75 0 0 1 2 18.247V5.752c0-.967.784-1.75 1.75-1.75h8.998Zm7.497 1.502h-7.497V18.5h7.497a.25.25 0 0 0 .25-.25V5.755a.25.25 0 0 0-.25-.25Zm-8.997-.002H3.75a.25.25 0 0 0-.25.25v12.495c0 .138.112.25.25.25h7.498V5.502Zm3.454 7.9.083.073 1.718 1.75 1.714-1.75a.75.75 0 0 1 1.143.966l-.071.085-2.25 2.296a.75.75 0 0 1-.987.074l-.084-.074-2.253-2.296a.75.75 0 0 1 .987-1.124Zm2.337-6.176 2.25 2.296a.75.75 0 0 1-1.072 1.05l-1.714-1.75-1.718 1.75a.75.75 0 1 1-1.07-1.05l2.253-2.297a.75.75 0 0 1 1.07 0Z"/></svg>