<svg xmlns="http://www.w3.org/2000/svg" width="32" height="32" viewBox="0 0 32 32"><path d="M15 16a7 7 0 1 0 0-14 7 7 0 0 0 0 14Zm-8.5 2A3.5 3.5 0 0 0 3 21.5v.5c0 2.393 1.523 4.417 3.685 5.793C8.859 29.177 11.802 30 15 30c.744 0 1.475-.045 2.185-.13A8.98 8.98 0 0 1 14 23c0-1.85.558-3.57 1.516-5H6.5Zm24 5a7.5 7.5 0 1 1-15 0 7.5 7.5 0 0 1 15 0Zm-2.75 0a.75.75 0 0 0 .75-.75v-2.5a.75.75 0 0 0-1.5 0v1.186a4.5 4.5 0 0 0-6.795-1.463c-.431.342-.289.985.204 1.232.256.127.56.068.79-.104a2.999 2.999 0 0 1 4.4.899h-.849a.75.75 0 0 0 0 1.5h3Zm-2.174 2.576c-.251-.251-.656-.244-.954-.052a2.999 2.999 0 0 1-4.22-1.024h.848a.75.75 0 0 0 0-1.5h-3a.75.75 0 0 0-.75.75v2.5a.75.75 0 0 0 1.5 0v-1.186a4.5 4.5 0 0 0 6.522 1.663c.392-.265.389-.816.054-1.151Z"/></svg>