<svg xmlns="http://www.w3.org/2000/svg" width="24" height="24"><path d="M17.49 6.871a.75.75 0 0 0-.62-.86c-.418-.069-.79.233-.865.638a6.758 6.758 0 0 1-.11.457c-.088.323-.237.79-.476 1.35a12.84 12.84 0 0 1-2.732 4.014 14.11 14.11 0 0 1-5.575 3.401 8.429 8.429 0 0 1-.497.14l-.022.006H6.59a.75.75 0 0 0-.574.892c.142.659.891.575.891.575l.003-.001h.004l.011-.003.037-.01a10.076 10.076 0 0 0 .6-.17 15.612 15.612 0 0 0 6.185-3.771 14.339 14.339 0 0 0 3.05-4.484c.27-.628.44-1.16.545-1.541a8.327 8.327 0 0 0 .137-.577l.007-.037.002-.012v-.005l.001-.002ZM2.351 12.573c-.684 1.899-.775 3.874.438 5.1l.234.237a627.894 627.894 0 0 0 3.023 3.04c1.28 1.28 3.305 1.3 5.289.66 2.026-.655 4.25-2.062 6.226-4.038 1.976-1.975 3.382-4.2 4.037-6.226.64-1.984.62-4.008-.66-5.288a756.938 756.938 0 0 1-2.892-2.912l-.362-.367-.002.002c-1.225-1.214-3.201-1.123-5.1-.44-1.965.709-4.149 2.144-6.119 4.114-1.97 1.97-3.404 4.153-4.112 6.118Zm1.41.509c.619-1.715 1.914-3.717 3.763-5.567 1.85-1.85 3.852-3.144 5.566-3.762 1.777-.64 2.97-.473 3.54.099l.003-.002.348.351.876.885c.685.69 1.5 1.512 2.02 2.032.675.675.875 1.967.293 3.767-.567 1.757-1.826 3.783-3.67 5.627-1.843 1.843-3.87 3.102-5.626 3.67-1.8.581-3.093.381-3.767-.293a835.564 835.564 0 0 1-3.018-3.034l-.23-.232.002-.001c-.572-.572-.74-1.764-.1-3.54Z"/></svg>