<svg xmlns="http://www.w3.org/2000/svg" width="16" height="16"><path d="M13.5 3.25a.75.75 0 0 1-.75.75h-2a.75.75 0 0 1-.252-1.457 5.957 5.957 0 0 0-1.833-.506A.75.75 0 0 1 8.83.546 7.458 7.458 0 0 1 12 1.655V1.25a.75.75 0 0 1 1.5 0v2ZM5.501 13.457A.75.75 0 0 0 5.25 12h-2a.75.75 0 0 0-.75.75v2a.75.75 0 0 0 1.5 0v-.404a7.458 7.458 0 0 0 3.17 1.109.75.75 0 1 0 .164-1.491 5.955 5.955 0 0 1-1.833-.507Zm5.406-8.191a.75.75 0 0 1 .58.888c-.02.093-.038.185-.056.275a7.008 7.008 0 0 0 1.299-.368.75.75 0 0 1 .542 1.399 8.415 8.415 0 0 1-2.08.52c-.018.183-.033.362-.043.539a6.003 6.003 0 0 1 1.14.012.75.75 0 0 1 1.466.133v.007l.002.008v.018a2.324 2.324 0 0 1 .003.186v.02c1.016.463 1.717 1.341 1.794 2.39.097 1.333-.832 2.543-2.54 3.19a.75.75 0 0 1-.532-1.402c1.327-.503 1.609-1.231 1.576-1.68-.022-.306-.2-.654-.555-.922-.06.248-.135.525-.227.834-.237.795-.838 1.403-1.527 1.8a.75.75 0 0 1-1.27.483c-.523.105-1.086.107-1.596-.066-.58-.197-1.078-.622-1.297-1.3-.425-1.313.364-2.432 1.4-3.047.201-.12.418-.225.648-.316.006-.274.022-.552.047-.838a15.801 15.801 0 0 1-1.003-.08.75.75 0 0 1 .16-1.492c.345.037.692.068 1.047.078.04-.223.085-.452.134-.689a.75.75 0 0 1 .888-.58ZM9.71 10.499c-.672.415-.817.893-.696 1.27.056.172.163.276.352.34.16.055.379.076.633.046a15.187 15.187 0 0 1-.29-1.656Zm1.687 1.03c.22-.197.376-.42.442-.644.1-.334.175-.622.234-.869a4.464 4.464 0 0 0-.903.008c.041.49.118.982.227 1.505ZM3.12 4.21c.325-.18 1.006-.301 1.585-.162.274.066.47.178.592.311a.72.72 0 0 1 .143.234 9.073 9.073 0 0 0-.234-.027 6.626 6.626 0 0 0-1.112-.025c-.377.027-.8.101-1.173.288-.604.302-1.052.704-1.29 1.245-.231.531-.208 1.08-.11 1.573a2.304 2.304 0 0 0 1.5 1.723c.683.24 1.517.197 2.507-.187a.75.75 0 0 0 1.478-.184v-.966a.746.746 0 0 0 0-.068v-2.43a.742.742 0 0 0 0-.07V5c0-.669-.215-1.23-.604-1.655-.377-.411-.87-.64-1.345-.755-.921-.222-1.99-.065-2.665.309A.75.75 0 0 0 3.12 4.21Zm2.386 1.907v1.435c-1.075.54-1.687.509-1.989.403a.804.804 0 0 1-.525-.602c-.068-.34-.045-.541.014-.677.055-.126.19-.307.586-.505.126-.063.329-.114.609-.134.271-.02.57-.007.856.022.16.016.313.037.449.058Z"/></svg>