<svg xmlns="http://www.w3.org/2000/svg" width="16" height="16"><path d="M8.205 2.006a.499.499 0 0 0-.38.175l-.05.036c-1.505-.442-3.212-.1-4.403 1.027-1.057.999-1.461 2.381-1.213 3.674l-.015.014-.671.635a1.347 1.347 0 0 0 0 1.98c.342.325.812.457 1.257.396.064.233.193.454.386.637.261.247.596.382.938.406.025.323.168.64.43.887.26.247.595.382.937.406.025.323.168.64.43.887a1.545 1.545 0 0 0 1.946.123l.33.312c.58.55 1.523.55 2.104 0 .26-.247.404-.561.43-.883.34-.025.672-.16.932-.406.26-.246.404-.561.43-.883.335-.027.662-.162.92-.405.201-.191.333-.424.393-.669.44.053.899-.08 1.236-.398a1.347 1.347 0 0 0 0-1.98l-.594-.562.113-.42a3.824 3.824 0 0 0-.369-2.886c-.735-1.302-2.158-2.1-3.69-2.1H9.013a2.839 2.839 0 0 0-.138-.003h-.671Zm4.372 5.457.486.48a.5.5 0 0 0 .101.076l.681.644a.412.412 0 0 1 0 .606.472.472 0 0 1-.64 0l-1.14-1.077a.535.535 0 0 0-.726 0l-.012.01a.47.47 0 0 0 0 .688l.889.84a.413.413 0 0 1 0 .606.473.473 0 0 1-.593.04.536.536 0 0 0-.675.046.467.467 0 0 0-.042.639.412.412 0 0 1-.04.564.473.473 0 0 1-.6.035.536.536 0 0 0-.679.037.467.467 0 0 0-.044.643c.14.17.127.417-.039.574a.48.48 0 0 1-.65 0l-.322-.304.084-.079a1.347 1.347 0 0 0 0-1.98 1.513 1.513 0 0 0-.938-.406 1.363 1.363 0 0 0-.43-.887 1.514 1.514 0 0 0-.937-.407 1.363 1.363 0 0 0-.43-.887 1.532 1.532 0 0 0-1.257-.396 1.377 1.377 0 0 0-.386-.636 1.524 1.524 0 0 0-1.102-.41 3.065 3.065 0 0 1 .962-2.591 3.456 3.456 0 0 1 2.58-.923l-1.095.79a1.504 1.504 0 0 0-.294 2.178 1.64 1.64 0 0 0 2.22.3l1.347-.97h1.44l2.281 2.157ZM6.168 4.608l2.223-1.602h.485a1.836 1.836 0 0 1 .125.003h1.03c1.192 0 2.272.62 2.82 1.592.353.623.458 1.34.302 2.026L10.94 4.449a.5.5 0 0 0-.35-.143H8.693a.5.5 0 0 0-.292.094L6.925 5.465a.64.64 0 0 1-.857-.116.505.505 0 0 1 .1-.74Zm1.082 6.628a.472.472 0 0 1 .64.002.412.412 0 0 1 0 .606l-.672.635a.472.472 0 0 1-.64 0 .412.412 0 0 1 0-.606l.672-.636Zm-.726-.687-.673.637a.472.472 0 0 1-.641 0 .412.412 0 0 1-.01-.596l.01-.01.671-.635.01-.01a.472.472 0 0 1 .631.01.412.412 0 0 1 .002.604Zm-1.37-1.291-.67.634-.011.01a.472.472 0 0 1-.63-.01.412.412 0 0 1 0-.606l.67-.634a.472.472 0 0 1 .642 0 .412.412 0 0 1 .01.596l-.01.01ZM3.512 8.225l-.671.635a.472.472 0 0 1-.64 0 .412.412 0 0 1 0-.606l.67-.635a.472.472 0 0 1 .641 0 .412.412 0 0 1 0 .606Z"/></svg>