<svg xmlns="http://www.w3.org/2000/svg" width="20" height="20" viewBox="0 0 20 20"><path d="M4 3.956c0-1.095.895-2.022 2.03-1.952 4.447.274 8.347 1.77 11.402 4.687.867.827.696 2.178-.203 2.868l-.244.188-.397-.441-.007-.007C13.645 6.284 9.39 4.514 4.871 4.514H4v-.558Zm0 1.557V16.5c0 1.232 1.406 1.938 2.395 1.201l1.608-1.198v.002a1 1 0 0 0 2 0v-2.002a.5.5 0 0 1 .996-.059v.56a1 1 0 0 0 2 0v-2.238c.825-.605 2.086-1.564 3.19-2.408l-.331-.369C13.119 7.181 9.13 5.513 4.87 5.513H4Zm4.248 2.742a.747.747 0 1 1-1.495-.001.747.747 0 0 1 1.495 0Zm2.975 2a.747.747 0 1 1-1.495 0 .747.747 0 0 1 1.495 0Zm-2.967 2.502a.751.751 0 1 1-1.503 0 .751.751 0 0 1 1.503 0Z"/></svg>