<svg xmlns="http://www.w3.org/2000/svg" width="24" height="24"><path d="M22 6.5a5.5 5.5 0 1 1-11 0 5.5 5.5 0 0 1 11 0Zm-7.146-2.354a.5.5 0 0 0-.708.708L15.793 6.5l-1.647 1.646a.5.5 0 0 0 .708.708L16.5 7.207l1.646 1.647a.5.5 0 0 0 .708-.708L17.207 6.5l1.647-1.646a.5.5 0 0 0-.708-.708L16.5 5.793l-1.646-1.647ZM21 11.19a6.52 6.52 0 0 1-1.5 1.078V14h-4.558a.692.692 0 0 0-.692.692v.058a2.25 2.25 0 0 1-4.5 0v-.058A.692.692 0 0 0 9.058 14H4.5V9.5h6.232a6.457 6.457 0 0 1-.558-1.5H4.5v-.75c0-.966.784-1.75 1.75-1.75h3.826a6.452 6.452 0 0 1 .422-1.5H6.25A3.25 3.25 0 0 0 3 7.25v11.5A3.25 3.25 0 0 0 6.25 22h11.5A3.25 3.25 0 0 0 21 18.75v-7.56Zm-1.5 4.31v3.25a1.75 1.75 0 0 1-1.75 1.75H6.25a1.75 1.75 0 0 1-1.75-1.75V15.5h3.825a3.751 3.751 0 0 0 7.35 0H19.5Z"/></svg>