<svg xmlns="http://www.w3.org/2000/svg" width="24" height="24" viewBox="0 0 24 24"><path d="M10.11 15.5a4.46 4.46 0 0 1 .41-1.5H4.254a2.249 2.249 0 0 0-2.25 2.248v.578c0 .892.32 1.756.9 2.435C4.467 21.095 6.853 22 10 22c1.413 0 2.673-.183 3.774-.55l-1.215-1.215c-.763.176-1.615.264-2.559.264-2.738 0-4.704-.745-5.957-2.213a2.25 2.25 0 0 1-.54-1.461v-.578a.75.75 0 0 1 .75-.749h5.856ZM10 2.003a5 5 0 1 1 0 10 5 5 0 0 1 0-10Zm0 1.5a3.5 3.5 0 1 0 0 7 3.5 3.5 0 0 0 0-7Zm7.044 19.492a.747.747 0 0 1-.53-.22l-4.409-4.408a3.467 3.467 0 0 1 4.903-4.903l.036.036.036-.036a3.467 3.467 0 0 1 4.903 4.903l-4.409 4.408a.747.747 0 0 1-.53.22Z"/></svg>