<svg xmlns="http://www.w3.org/2000/svg" width="16" height="16" viewBox="0 0 16 16"><path d="m5.896 5.896-.057.07a.5.5 0 0 0 .057.638L7.293 8 5.896 9.396l-.057.07a.5.5 0 0 0 .057.638l.07.057a.5.5 0 0 0 .638-.057L8 8.707l1.396 1.397.07.057a.5.5 0 0 0 .638-.057l.057-.07a.5.5 0 0 0-.057-.638L8.707 8l1.397-1.396.057-.07a.5.5 0 0 0-.057-.638l-.07-.057a.5.5 0 0 0-.638.057L8 7.293 6.604 5.896l-.07-.057a.5.5 0 0 0-.638.057ZM8 2a6 6 0 0 0-5.27 8.872l-.71 2.49a.5.5 0 0 0 .638.612l2.338-.779A6 6 0 1 0 8 2ZM3 8a5 5 0 1 1 2.325 4.225.5.5 0 0 0-.426-.052l-1.658.553.51-1.781a.5.5 0 0 0-.052-.393A4.975 4.975 0 0 1 3 8Z"/></svg>