<svg xmlns="http://www.w3.org/2000/svg" width="16" height="16"><path d="M6.002 4a1.998 1.998 0 1 1 3.996 0 1.998 1.998 0 0 1-3.996 0ZM8 3.002a.998.998 0 1 0 0 1.996.998.998 0 0 0 0-1.996ZM11 4.5a1.5 1.5 0 1 1 3 0 1.5 1.5 0 0 1-3 0Zm1.5-.5a.5.5 0 1 0 0 1 .5.5 0 0 0 0-1Zm-9-1a1.5 1.5 0 1 0 0 3 1.5 1.5 0 0 0 0-3ZM3 4.5a.5.5 0 1 1 1 0 .5.5 0 0 1-1 0ZM4.268 7A1.99 1.99 0 0 0 4 8H2v2.5a1.5 1.5 0 0 0 2.096 1.377c.074.331.19.647.34.942A2.5 2.5 0 0 1 1 10.5V8a1 1 0 0 1 1-1h2.268ZM6 7a1 1 0 0 0-1 1v3c0 1.063.553 1.997 1.387 2.53a5.485 5.485 0 0 1-.378-2.342A2.024 2.024 0 0 1 6 11V8h1.257a5.54 5.54 0 0 1 1.08-1H6Zm10 4.5a4.5 4.5 0 1 1-9 0 4.5 4.5 0 0 1 9 0Zm-2.646-1.146a.5.5 0 0 0-.708-.708L11.5 10.793l-1.146-1.147a.5.5 0 0 0-.708.708l1.147 1.146-1.147 1.146a.5.5 0 0 0 .708.708l1.146-1.147 1.146 1.147a.5.5 0 0 0 .708-.708L12.207 11.5l1.147-1.146Z"/></svg>