<svg xmlns="http://www.w3.org/2000/svg" width="24" height="24"><path d="M3.253 2.93a.75.75 0 0 1 .817-.677l3.745.35c2.652.263 5.193.58 7.278.94 2.047.352 3.764.761 4.688 1.249a2.3 2.3 0 0 1 .662.492c.192.22.362.552.29.957-.066.372-.307.632-.52.8a3.488 3.488 0 0 1-.818.452c-1.234.511-3.595 1.005-7.328 1.493-2.38.312-3.895.615-4.758.89l.077.023c.41.121.934.24 1.548.353 1.226.225 2.768.418 4.404.564 1.24.111 2.567.287 3.697.51.187.037.37.076.548.116l-1.274 1.274a36.937 36.937 0 0 0-3.105-.406c-1.662-.149-3.254-.346-4.541-.583a16.887 16.887 0 0 1-1.703-.39c-.461-.137-.9-.304-1.212-.525a1.305 1.305 0 0 1-.46-.542.996.996 0 0 1 .06-.901c.134-.232.338-.39.516-.5.187-.116.411-.218.66-.31.977-.363 2.705-.714 5.348-1.06 3.748-.49 5.922-.966 6.95-1.392l.125-.055c-.732-.34-2.16-.696-4.108-1.032-2.037-.35-4.537-.663-7.17-.924l-3.739-.35a.75.75 0 0 1-.677-.816Zm12.333 10.776a1.753 1.753 0 0 0 .19 1.488 59.86 59.86 0 0 1-1.928.26c-2.618.312-4.217.71-5.11 1.116-.448.203-.65.378-.73.483-.05.064-.043.083-.039.097l.002.004c.015.06.081.194.287.391.199.19.48.394.832.602.702.415 1.601.797 2.466 1.093l3.246 1.046a.75.75 0 0 1-.46 1.428l-3.266-1.053c-.923-.316-1.928-.737-2.749-1.222a6.087 6.087 0 0 1-1.106-.81c-.303-.29-.587-.656-.702-1.097-.126-.485-.022-.971.297-1.39.293-.384.748-.687 1.302-.938 1.111-.505 2.9-.923 5.552-1.24.72-.086 1.357-.173 1.916-.258Zm4.694-2.486a.75.75 0 0 0-1.06 0l-2.5 2.5a.75.75 0 1 0 1.06 1.06L19 13.56v6.88l-1.22-1.22a.75.75 0 1 0-1.06 1.06l2.5 2.5a.75.75 0 0 0 1.06 0l2.5-2.5a.75.75 0 1 0-1.06-1.06l-1.22 1.22v-6.88l1.22 1.22a.75.75 0 1 0 1.06-1.06l-2.5-2.5Z"/></svg>