<svg xmlns="http://www.w3.org/2000/svg" width="20" height="20"><path d="M3 9a7 7 0 0 1 14 0v5a1 1 0 0 1-1 1H4a1 1 0 0 1-1-1V9Zm7-6a6 6 0 0 0-6 6v5h3.505c-.62-.616-1.005-1.481-1.005-2.5 0-1.07.334-1.908.67-2.476a4.53 4.53 0 0 1 .623-.826c.02-.02.037-.037.05-.048l.015-.015.005-.005.002-.001v-.001a.501.501 0 0 1 .65-.017 3.01 3.01 0 0 1 .2-.9c.249-.629.749-1.242 1.649-1.724a.5.5 0 0 1 .736.44c0 1.143.51 1.91 1.101 2.708l.128.17c.544.727 1.171 1.563 1.171 2.695 0 1.019-.385 1.884-1.005 2.5H16V9a6 6 0 0 0-6-6ZM8.215 9.248A3.849 3.849 0 0 0 7.5 11.5c0 1.487 1.106 2.5 2.5 2.5s2.5-1.013 2.5-2.5c0-.788-.43-1.365-1.018-2.157l-.083-.112c-.479-.644-1.008-1.397-1.212-2.414a2.022 2.022 0 0 0-.542.762c-.158.401-.154.8-.117 1.125.009.081.02.156.03.227l.008.046.023.154c.006.047.02.149.006.25a.557.557 0 0 1-.122.283.525.525 0 0 1-.447.187.589.589 0 0 1-.246-.079.911.911 0 0 1-.119-.083 2.716 2.716 0 0 1-.202-.187 13.743 13.743 0 0 1-.244-.254ZM2.5 16a.5.5 0 0 0 0 1h15a.5.5 0 0 0 0-1h-15Z"/></svg>