<svg xmlns="http://www.w3.org/2000/svg" width="16" height="16" viewBox="0 0 16 16"><path d="m9.647 1.439 2.914 2.914A1.5 1.5 0 0 1 13 5.413v7.586a2 2 0 0 1-2 2H8.744a2.454 2.454 0 0 0 .455-1H11a1 1 0 0 0 1-1v-7H9.5a1.5 1.5 0 0 1-1.5-1.5v-2.5H5a1 1 0 0 0-1 1v6.518c-.015-.011-.028-.023-.042-.035a.612.612 0 0 0-.056-.045A2.457 2.457 0 0 0 3 9.077V3a2 2 0 0 1 2-2h3.586a1.5 1.5 0 0 1 1.061.439ZM9 4.499a.5.5 0 0 0 .5.5h2.293L9 2.206v2.293Zm-1.004 7.1a1.495 1.495 0 0 1-.269.762l.001.001a1.493 1.493 0 0 1 .429 1.659A1.508 1.508 0 0 1 6.75 15H5.5a.5.5 0 0 1-.5-.5v-4a.5.5 0 0 1 .5-.5h1a1.496 1.496 0 0 1 1.33.808c.127.243.184.517.166.791Zm-1.496-.6H6v1h.5a.5.5 0 1 0 0-1Zm-.5 3h.75a.5.5 0 1 0 0-1H6v1Zm-2.478-1.412c.237.393.406.823.5 1.272l.02.077c.018.076.035.145.054.2a.501.501 0 0 1-.344.863c-.476 0-.59-.458-.7-.899l-.003-.01C2.959 13.73 2.773 13 2.5 13H2v1.5a.5.5 0 1 1-1 0v-4a.5.5 0 0 1 .5-.5h1.001a1.5 1.5 0 0 1 1.021 2.588ZM2.5 10.999H2v1h.5a.5.5 0 1 0 0-1Z"/></svg>