<svg xmlns="http://www.w3.org/2000/svg" width="24" height="24"><path d="M3.28 2.22a.75.75 0 1 0-1.06 1.06l4.505 4.506-3.116.926A2.25 2.25 0 0 0 2 10.87v2.262a2.25 2.25 0 0 0 1.609 2.157l2.39.71L6 16.5l.005.2a4 4 0 0 0 7.59 1.556l5.123 1.524 2.001 2.002a.75.75 0 0 0 1.061-1.061L3.28 2.22Zm13.211 15.332L4.036 13.85a.75.75 0 0 1-.536-.719v-2.262a.75.75 0 0 1 .536-.719l3.896-1.157 8.56 8.56ZM7.5 16.444l4.625 1.376A2.5 2.5 0 0 1 7.5 16.5l-.001-.056Zm13-10.181v11.055l1.315 1.315c.119-.274.185-.577.185-.895V6.263a2.25 2.25 0 0 0-2.89-2.157L9.995 6.814l1.207 1.207 8.333-2.477a.75.75 0 0 1 .964.719Z"/></svg>