<svg xmlns="http://www.w3.org/2000/svg" width="24" height="24"><path d="M12 10c4.418 0 8-1.79 8-4s-3.582-4-8-4-8 1.79-8 4 3.582 4 8 4Zm6.328.17A7.61 7.61 0 0 0 20 9.053v2.445a6.5 6.5 0 0 0-7.209 10.482c-.26.014-.524.02-.791.02-4.418 0-8-1.79-8-4V9.053a7.61 7.61 0 0 0 1.672 1.117C7.37 11.018 9.608 11.5 12 11.5c2.392 0 4.63-.482 6.328-1.33ZM17.5 12a5.5 5.5 0 1 1 0 11 5.5 5.5 0 0 1 0-11Zm-3 5a.5.5 0 0 0 0 1h4.793l-1.647 1.646a.5.5 0 0 0 .708.708l2.5-2.5a.5.5 0 0 0 0-.708l-2.5-2.5a.5.5 0 0 0-.708.708L19.293 17H14.5Z"/></svg>