<svg xmlns="http://www.w3.org/2000/svg" width="20" height="20" viewBox="0 0 20 20"><path d="m5.878 2.282.348 1.071A2.206 2.206 0 0 0 7.624 4.75l1.072.348.022.006a.423.423 0 0 1 0 .798l-1.072.348a2.208 2.208 0 0 0-1.399 1.397L5.9 8.717a.423.423 0 0 1-.798 0l-.348-1.07a2.204 2.204 0 0 0-1.399-1.403l-1.072-.348a.423.423 0 0 1 0-.798l1.072-.348a2.208 2.208 0 0 0 1.377-1.397l.348-1.07a.423.423 0 0 1 .799 0ZM16.75 6a.75.75 0 0 1 .75.75v4.5a.75.75 0 0 1-1.5 0V8.56l-4.22 4.22a.75.75 0 0 1-1.06 0L9 11.06l-4.72 4.72a.75.75 0 0 1-1.06-1.06l5.25-5.25a.75.75 0 0 1 1.06 0l1.72 1.72 3.69-3.69h-2.69a.75.75 0 0 1 0-1.5h4.5Zm-.733 8.965.766.248.015.004a.303.303 0 0 1 .147.46.302.302 0 0 1-.147.11l-.765.248a1.578 1.578 0 0 0-1 .998l-.248.765a.302.302 0 0 1-.57 0l-.249-.764a1.575 1.575 0 0 0-.999-1.002l-.765-.249a.303.303 0 0 1-.146-.46.302.302 0 0 1 .146-.11l.765-.248a1.577 1.577 0 0 0 .984-.998l.249-.765a.302.302 0 0 1 .57 0l.249.764a1.575 1.575 0 0 0 .998.999Z"/></svg>