<svg xmlns="http://www.w3.org/2000/svg" width="20" height="20" viewBox="0 0 20 20"><path d="m3.502 1.996.09.008a.5.5 0 0 1 .402.402l.008.09v2.212A8 8 0 0 1 18 10.258a5.504 5.504 0 0 0-1.009-.663 7 7 0 0 0-12.73-3.6L7 5.996l.09.008a.5.5 0 0 1 0 .984L7 6.996H3.502l-.09-.008a.5.5 0 0 1-.402-.402l-.008-.09v-4l.008-.09a.5.5 0 0 1 .402-.402l.09-.008ZM9.594 16.99c.184.36.405.698.66 1.008a8.002 8.002 0 0 1-8.118-6.54 10.313 10.313 0 0 1-.13-1.979.5.5 0 1 1 1 .042 9.36 9.36 0 0 0 .113 1.755 7.003 7.003 0 0 0 6.475 5.714Zm.663-5.99c.313-.38.677-.716 1.08-1h-1.335V6.496l-.008-.09a.5.5 0 0 0-.402-.402l-.09-.008-.09.008a.5.5 0 0 0-.402.402l-.008.09V10.5l.008.09a.5.5 0 0 0 .402.402l.09.008h.755ZM19 14.5a4.5 4.5 0 1 1-9 0 4.5 4.5 0 0 1 9 0Zm-2.646-1.146a.5.5 0 0 0-.708-.708L14.5 13.793l-1.146-1.147a.5.5 0 0 0-.708.708l1.147 1.146-1.147 1.146a.5.5 0 0 0 .708.708l1.146-1.147 1.146 1.147a.5.5 0 0 0 .708-.708L15.207 14.5l1.147-1.146Z"/></svg>