<svg xmlns="http://www.w3.org/2000/svg" width="24" height="24"><path d="M3.28 2.22a.75.75 0 1 0-1.06 1.06l1.95 1.952a6.246 6.246 0 0 0-1.09.389 1 1 0 1 0 .848 1.811 4.334 4.334 0 0 1 2.05-.393l1.587 1.587a8.105 8.105 0 0 0-.106-.02c-1.146-.198-2.733-.214-4.262.641-1.271.712-1.796 2.168-1.682 3.448.12 1.326.94 2.679 2.572 3.136 1.48.414 2.913-.045 3.877-.507l.08-.04a1 1 0 0 0 1.96-.281v-3.938l2.705 2.705a5.86 5.86 0 0 0-1.24 1.673c-.625 1.283-.701 2.856.239 3.882.675.737 1.704.758 2.499.59.322-.07.654-.178.988-.321a1 1 0 0 0 1.746-.93 14.51 14.51 0 0 0-.041-.115c.106-.087.212-.177.317-.271l1.046 1.046a1 1 0 0 0 1.184 1.57 7.56 7.56 0 0 0 .254-.132l1.018 1.018a.75.75 0 0 0 1.061-1.06L3.28 2.22Zm14.485 11.535a6.31 6.31 0 0 1-.207.62l1.509 1.51c.224-.434.417-.9.568-1.396.285.251.507.549.658.864.278.582.332 1.243.113 1.87l1.496 1.497a4.436 4.436 0 0 0 .195-4.23 4.752 4.752 0 0 0-2.103-2.164c.003-.108.006-.216.006-.326a1 1 0 0 0-1.974-.23 5.984 5.984 0 0 0-1.796.138c.047-.305.102-.626.166-.964a20.15 20.15 0 0 0 2.842-.473 1 1 0 0 0-.476-1.942c-.623.152-1.286.272-1.964.358a7.29 7.29 0 0 1 .154-.584 1 1 0 1 0-1.905-.606 13.22 13.22 0 0 0-.324 1.343c-.565.013-1.12 0-1.652-.038a.996.996 0 0 0-.681.206l1.837 1.837h.118l-.017.1 2.724 2.725.713-.114ZM7.117 10.578c.344.06.647.143.887.222v2.198a7.032 7.032 0 0 1-.905.523c-.792.38-1.682.606-2.473.384-.698-.195-1.06-.74-1.119-1.388-.062-.694.243-1.286.667-1.523.987-.553 2.06-.569 2.943-.416Zm6.908 4.703c.02.348.053.671.098.973a9.63 9.63 0 0 0 .341 1.477 3.413 3.413 0 0 1-.674.228c-.43.091-.588.018-.614.006l-.004-.001c-.162-.194-.329-.774.095-1.645.165-.34.414-.697.758-1.038Z"/></svg>