<svg xmlns="http://www.w3.org/2000/svg" width="24" height="24"><path d="M2.747 15a.75.75 0 0 1 .743.648l.007.102v3.502l.006.128a1.25 1.25 0 0 0 1.116 1.116l.128.006h3.5l.102.007a.75.75 0 0 1 0 1.486l-.102.007h-3.5l-.168-.005a2.75 2.75 0 0 1-2.577-2.57l-.005-.175V15.75l.007-.102A.75.75 0 0 1 2.747 15Zm18.5 0a.75.75 0 0 1 .743.648l.007.102v3.502a2.75 2.75 0 0 1-2.583 2.745l-.167.005h-3.5a.75.75 0 0 1-.102-1.493l.102-.007h3.5a1.25 1.25 0 0 0 1.243-1.122l.007-.128V15.75a.75.75 0 0 1 .75-.75ZM15.25 6a2.75 2.75 0 0 1 2.745 2.582L18 8.75v6.5a2.75 2.75 0 0 1-2.583 2.745L15.25 18h-6.5a2.75 2.75 0 0 1-2.745-2.582L6 15.25v-6.5a2.75 2.75 0 0 1 2.582-2.745L8.75 6h6.5Zm1.25 4.995h-9v4.255c0 .647.492 1.18 1.122 1.244l.128.006h6.5a1.25 1.25 0 0 0 1.243-1.122l.007-.128v-4.255ZM15.25 7.5h-6.5a1.25 1.25 0 0 0-1.244 1.122L7.5 8.75v.745h9V8.75a1.25 1.25 0 0 0-1.122-1.244L15.25 7.5ZM8.247 2a.75.75 0 0 1 .102 1.493l-.102.007h-3.5a1.25 1.25 0 0 0-1.244 1.122l-.006.128v3.502a.75.75 0 0 1-1.493.102l-.007-.102V4.75a2.75 2.75 0 0 1 2.582-2.745L4.747 2h3.5Zm11 0 .167.005a2.75 2.75 0 0 1 2.577 2.57l.006.175v3.502l-.007.102a.75.75 0 0 1-1.486 0l-.007-.102V4.75l-.007-.128a1.25 1.25 0 0 0-1.115-1.116l-.128-.006h-3.5l-.102-.007a.75.75 0 0 1 0-1.486L15.747 2h3.5Z"/></svg>