<svg xmlns="http://www.w3.org/2000/svg" width="16" height="16"><path d="M11.5 8A1.5 1.5 0 0 1 13 9.5v.5c0 1.51-1.092 3.055-3.016 3.694a1.46 1.46 0 0 0-.209-.984C11.22 12.192 12 11.062 12 10v-.5a.5.5 0 0 0-.5-.5H8.373a3.975 3.975 0 0 0-.409-1H11.5ZM6.363 6.46c.147.078.29.164.425.26a2.75 2.75 0 1 0-.425-.26ZM8 2.5A1.75 1.75 0 1 1 8 6a1.75 1.75 0 0 1 0-3.5ZM1.497 10a3 3 0 0 1 6 0v2l1.32 1.119a.5.5 0 0 1-.323.881H.501a.5.5 0 0 1-.323-.881L1.498 12v-2Zm3 6a1.501 1.501 0 0 1-1.414-1h2.829a1.5 1.5 0 0 1-1.415 1Z"/></svg>