<svg xmlns="http://www.w3.org/2000/svg" width="48" height="48" viewBox="0 0 48 48"><path d="M38.134 8.866a1.25 1.25 0 0 0-1.768 1.768L39.732 14h-.982c-8.388 0-13.151 4.696-17.546 9.03l-.082.08C16.665 27.505 12.56 31.5 5.25 31.5a1.25 1.25 0 1 0 0 2.5c8.388 0 13.151-4.696 17.546-9.03l.082-.08c4.457-4.395 8.562-8.39 15.872-8.39h.982l-3.366 3.366a1.25 1.25 0 0 0 1.768 1.768l5.5-5.5a1.25 1.25 0 0 0 0-1.768l-5.5-5.5ZM5.25 14c6.992 0 11.466 3.264 15.307 6.86-.22.215-.436.429-.65.64l-.189.186-.947.93C15.112 19.207 11.267 16.5 5.25 16.5a1.25 1.25 0 1 1 0-2.5Zm33.5 20c-6.992 0-11.466-3.264-15.307-6.86l.652-.641.187-.185.947-.93c3.659 3.409 7.504 6.116 13.521 6.116h.982l-3.366-3.366a1.25 1.25 0 0 1 1.768-1.768l5.5 5.5a1.25 1.25 0 0 1 0 1.768l-5.5 5.5a1.25 1.25 0 0 1-1.768-1.768L39.732 34h-.982Z"/></svg>