<svg xmlns="http://www.w3.org/2000/svg" width="24" height="24" viewBox="0 0 24 24"><path d="M8.904 16.5h6.192C14.476 19.773 13.235 22 12 22c-1.197 0-2.4-2.094-3.038-5.204l-.058-.294h6.192-6.192Zm-5.838.001h4.306c.364 2.082.983 3.854 1.792 5.093a10.029 10.029 0 0 1-5.952-4.814l-.146-.279Zm13.563 0h4.305a10.028 10.028 0 0 1-6.097 5.093c.755-1.158 1.344-2.778 1.715-4.681l.077-.412h4.305-4.305Zm.302-6.5h4.87a10.047 10.047 0 0 1-.257 5H16.84a28.676 28.676 0 0 0 .13-4.344L16.93 10h4.87-4.87ZM2.2 10h4.87a28.211 28.211 0 0 0 .033 4.42l.057.58H2.456a10.047 10.047 0 0 1-.258-5Zm6.377 0h6.849a25.838 25.838 0 0 1-.037 4.425l-.062.575H8.674a25.987 25.987 0 0 1-.132-4.512L8.576 10h6.849-6.85Zm6.368-7.424-.108-.17A10.027 10.027 0 0 1 21.372 8.5h-4.59c-.316-2.416-.957-4.492-1.838-5.923l-.108-.17.108.17Zm-5.902-.133.122-.037C8.283 3.757 7.628 5.736 7.28 8.06l-.062.44H2.63a10.028 10.028 0 0 1 6.413-6.057l.122-.037-.122.037ZM12 2.002c1.319 0 2.646 2.542 3.214 6.183l.047.315H8.739C9.28 4.691 10.644 2.002 12 2.002Z"/></svg>