<svg xmlns="http://www.w3.org/2000/svg" width="24" height="24" viewBox="0 0 24 24"><path d="M4 4.25A2.25 2.25 0 0 1 6.25 2h4.254v4.748a2.25 2.25 0 0 0 2.25 2.25H17.5v8.252a2.25 2.25 0 0 1-2.25 2.25h-2.395A3.502 3.502 0 0 0 9.5 17h-.025l2.012-2.013a1.75 1.75 0 1 0-2.474-2.474L7 14.525V14.5a3.5 3.5 0 0 0-3-3.465V4.25Zm9 16.25c0 .537-.12 1.045-.337 1.5h2.588A4.75 4.75 0 0 0 20 17.25v-5.881a2.25 2.25 0 0 0-.66-1.591l-.84-.841v8.313a3.25 3.25 0 0 1-3.25 3.25H13Zm-.996-13.752v-4.28c.076.058.15.122.218.191l4.619 4.619c.07.07.134.143.193.22h-4.28a.75.75 0 0 1-.75-.75ZM3.5 17a2.5 2.5 0 1 0 0-5 2.5 2.5 0 0 0 0 5Zm0-3.5a1 1 0 1 1 0 2 1 1 0 0 1 0-2Zm6 9.5a2.5 2.5 0 1 0 0-5 2.5 2.5 0 0 0 0 5Zm0-3.5a1 1 0 1 1 0 2 1 1 0 0 1 0-2Zm1.28-5.22a.75.75 0 1 0-1.06-1.06l-7.5 7.5a.75.75 0 1 0 1.06 1.06l7.5-7.5Z"/></svg>