<svg xmlns="http://www.w3.org/2000/svg" width="20" height="20"><path d="M6.19 2.77c.13-.456.548-.77 1.022-.77h5.25c.724 0 1.236.71 1.007 1.398l-.002.008L12.204 7h2.564c.85 0 1.309.923.928 1.595a1.5 1.5 0 0 0-.875-.56.075.075 0 0 0-.022-.027c-.005-.004-.013-.008-.031-.008h-3.27a.5.5 0 0 1-.471-.666L12.52 3.08a.062.062 0 0 0-.06-.08H7.212a.062.062 0 0 0-.06.045l-2.25 7.874c-.01.04.019.08.06.08H6.87a.5.5 0 0 1 .485.62l-1.325 5.3a.086.086 0 0 0-.003.03.02.02 0 0 0 .003.011.08.08 0 0 0 .072.04.03.03 0 0 0 .01-.004.087.087 0 0 0 .024-.018l.003-.004 6.41-6.543-.868 2.315-4.826 4.927c-.754.782-2.059.06-1.795-.996l1.17-4.679H4.962a1.062 1.062 0 0 1-1.021-1.354l2.25-7.873ZM14.5 9a.5.5 0 0 1 .468.324l3 8a.5.5 0 1 1-.936.352L16.029 15h-3.057l-1.004 2.676a.5.5 0 0 1-.936-.352l3-8A.5.5 0 0 1 14.5 9Zm1.154 5L14.5 10.924 13.347 14h2.307Z"/></svg>