<svg xmlns="http://www.w3.org/2000/svg" width="24" height="24"><path d="m9.97 16.168 4.59-12.511c.306-.835 1.446-.873 1.829-.114l.049.114 5.501 14.996a1 1 0 0 1-1.83.796l-.047-.107L18.65 15.5h-6.305l-1.442 3.92-.04.079-.073.108-.077.09-.085.077-.083.06-.05.032-.084.043-.104.04-.105.028-.133.02-.107.001-.071-.005-.103-.016-.15-.044-.069-.03-.1-.055-.111-.08-.092-.086-.064-.076-.061-.09-.054-.102-.746-1.913H4.655l-.723 1.86a1 1 0 0 1-1.183.606l-.111-.036a1 1 0 0 1-.606-1.184l.036-.11L5.567 9.64c.315-.81 1.42-.848 1.81-.116l.054.116 2.539 6.529 4.59-12.511-4.59 12.511Zm-3.471-3.407L5.433 15.5h2.131l-1.065-2.74Zm9-5.856-2.42 6.594h4.838l-2.418-6.594Z"/></svg>