<svg xmlns="http://www.w3.org/2000/svg" width="32" height="32" viewBox="0 0 32 32"><path d="M11 12h.844l.156-.002V12h5.6c.135-.265.291-.518.466-.756l-1.904-2.35a3.002 3.002 0 0 1 4.497-3.97l7.173 7.46A6 6 0 0 1 24.105 23a4 4 0 0 1-4 4H11a5 5 0 0 1-5-5v-2.1A5.002 5.002 0 0 1 7 10a4.99 4.99 0 0 1 4 2Zm8.218-5.69a1.002 1.002 0 0 0-1.502 1.325l3.008 3.713-.658.636a3.503 3.503 0 0 0-.867 1.35l-.236.666h-7.09A4 4 0 0 0 8 17.998V22a3 3 0 0 0 3 3h5v-.5a2.5 2.5 0 0 0-2.5-2.5H12a1 1 0 1 1 0-2h1.5a4.5 4.5 0 0 1 4.5 4.5v.5h2.105a2 2 0 0 0 2-2v-2.277l1.178.213a4 4 0 0 0 3.238-7.042l-.047-.038-7.256-7.546ZM6.002 17.83a5.998 5.998 0 0 1 3.023-5.043 3 3 0 1 0-3.023 5.044Z"/></svg>