<svg xmlns="http://www.w3.org/2000/svg" width="32" height="32"><path d="M12.93 6.362c-.743-.372-1.558-.431-2.3-.29l-1.653.317a3.993 3.993 0 0 0-2.805 2.104c-1.914 3.753-3.361 6.827-3.92 9.448-.576 2.703-.225 5.017 1.508 7.124 1.15 1.4 3.127 1.117 4.155-.05a336.08 336.08 0 0 0 2.573-2.963A3.014 3.014 0 0 1 12.773 21h6.449c.877 0 1.71.385 2.284 1.052.88 1.024 1.782 2.065 2.573 2.963 1.028 1.167 3.005 1.45 4.155.05 1.733-2.107 2.084-4.421 1.508-7.124-.559-2.621-2.005-5.695-3.92-9.448a3.993 3.993 0 0 0-2.805-2.104l-1.652-.316c-.743-.142-1.558-.083-2.3.289-.146.073-.293.15-.442.229a3.31 3.31 0 0 1-1.552.41h-2.148a3.31 3.31 0 0 1-1.552-.41c-.149-.08-.296-.156-.441-.229ZM16 14a1.5 1.5 0 1 1 0-3 1.5 1.5 0 0 1 0 3Z"/></svg>