<svg xmlns="http://www.w3.org/2000/svg" width="24" height="24"><path d="M17.75 3a3.25 3.25 0 0 1 3.245 3.066L21 6.25v11.5a3.25 3.25 0 0 1-3.066 3.245L17.75 21H6.25a3.25 3.25 0 0 1-3.245-3.066L3 17.75V9.372a2.247 2.247 0 0 0 1.5 0v8.378a1.75 1.75 0 0 0 1.607 1.744l.143.006h11.5a1.75 1.75 0 0 0 1.744-1.607l.006-.143V6.25a1.75 1.75 0 0 0-1.606-1.744L17.75 4.5H6.25c-.6 0-1.13.302-1.445.763a2.234 2.234 0 0 0-1.581-.201 3.253 3.253 0 0 1 2.842-2.057L6.25 3h11.5Zm-4.504 10.003a.75.75 0 0 1 .102 1.493l-.102.007H8.748a.75.75 0 0 1-.102-1.493l.102-.007h4.498Zm2.006-3.507a.75.75 0 0 1 .102 1.493l-.102.007H8.748a.75.75 0 0 1-.102-1.493l.102-.007h6.504ZM3.75 6a1.25 1.25 0 1 1 0 2.5 1.25 1.25 0 0 1 0-2.5Z"/></svg>