<svg xmlns="http://www.w3.org/2000/svg" width="48" height="48"><path d="m14.116 20.37 9.192-9.193a1.25 1.25 0 0 1 1.86 1.666l-.092.101L18.02 20H25c3.254 0 6.28.721 8.904 2.1l.41.223a16.513 16.513 0 0 1 6.364 6.363C42.202 31.403 43 34.576 43 38a1.25 1.25 0 1 1-2.5 0c0-3.005-.692-5.756-2.003-8.092a14.012 14.012 0 0 0-5.405-5.406c-2.207-1.237-4.783-1.924-7.594-1.996L25 22.5h-6.985l7.061 7.061a1.25 1.25 0 0 1 .091 1.667l-.09.101a1.25 1.25 0 0 1-1.667.091l-.102-.09-9.192-9.193a1.25 1.25 0 0 1-.091-1.666l.091-.102 9.192-9.192-9.192 9.192Zm-8 0 9.192-9.193a1.25 1.25 0 0 1 1.86 1.666l-.092.101-8.308 8.309 8.308 8.308a1.25 1.25 0 0 1-1.666 1.86l-.101-.092-9.193-9.192a1.25 1.25 0 0 1-.091-1.666l.091-.102 9.192-9.192-9.192 9.192Z"/></svg>