<svg xmlns="http://www.w3.org/2000/svg" width="24" height="24"><path d="M15.986 4a2.25 2.25 0 0 0-2.236-2h-3.5a2.25 2.25 0 0 0-2.236 2H6.25A2.25 2.25 0 0 0 4 6.25v13.5A2.25 2.25 0 0 0 6.25 22h4.751a2.113 2.113 0 0 1 .063-.593l.227-.907H6.25a.75.75 0 0 1-.75-.75V6.25a.75.75 0 0 1 .75-.75h2.129c.404.603 1.091 1 1.871 1h3.5c.78 0 1.467-.397 1.871-1h2.129a.75.75 0 0 1 .75.75v5.61c.437-.4.956-.66 1.5-.781V6.25A2.25 2.25 0 0 0 17.75 4h-1.764Zm.009.096L16 4.25c0-.052-.002-.103-.005-.154ZM10.25 3.5h3.5a.75.75 0 0 1 0 1.5h-3.5a.75.75 0 0 1 0-1.5ZM13.356 17H8a.75.75 0 0 0 0 1.5h3.983c.145-.229.315-.442.508-.635l.865-.865ZM12 14.5H8A.75.75 0 0 1 8 13h4a.75.75 0 0 1 0 1.5Zm4-4H8A.75.75 0 0 1 8 9h8a.75.75 0 0 1 0 1.5Zm3.1 2.17-5.903 5.902a2.686 2.686 0 0 0-.706 1.247l-.458 1.831a1.087 1.087 0 0 0 1.319 1.318l1.83-.457a2.685 2.685 0 0 0 1.248-.707l5.902-5.902A2.286 2.286 0 0 0 19.1 12.67Z"/></svg>