<svg xmlns="http://www.w3.org/2000/svg" width="16" height="16"><path d="M14.146 14.854A.502.502 0 0 0 14.5 15v-.001a.5.5 0 0 0 .354-.853l-13-12.999a.5.5 0 0 0-.708.707l2.28 2.279A5.89 5.89 0 0 0 2 8c0 3.31 2.69 6 6 6a5.89 5.89 0 0 0 3.867-1.425l2.28 2.279Zm-2.982-2.982a5.002 5.002 0 0 1-7.035-7.035l1.428 1.427a2.996 2.996 0 0 0 4.18 4.18l1.427 1.428ZM4.95 2.83A5.93 5.93 0 0 1 8 2c3.31 0 6 2.69 6 6 0 1.12-.3 2.16-.83 3.05l-.74-.74C12.8 9.62 13 8.83 13 8c0-2.76-2.24-5-5-5-.83 0-1.62.2-2.31.57l-.74-.74Zm5.94 5.94c.07-.24.11-.5.11-.77 0-1.66-1.34-3-3-3-.27 0-.53.04-.77.11l3.66 3.66Z"/></svg>