<svg xmlns="http://www.w3.org/2000/svg" width="28" height="28" viewBox="0 0 28 28"><path d="M8 3H6.25A3.25 3.25 0 0 0 3 6.25v15.5a3.25 3.25 0 0 0 3 3.24v-8.74A2.25 2.25 0 0 1 8.25 14h11.5A2.25 2.25 0 0 1 22 16.25v8.74a3.25 3.25 0 0 0 3-3.24V8.786a3.25 3.25 0 0 0-.952-2.299l-2.535-2.535A3.25 3.25 0 0 0 19.214 3H19v5.75A2.25 2.25 0 0 1 16.75 11h-6.5A2.25 2.25 0 0 1 8 8.75V3Zm9.5 0h-8v5.75c0 .414.336.75.75.75h6.5a.75.75 0 0 0 .75-.75V3Zm3 22v-8.75a.75.75 0 0 0-.75-.75H8.25a.75.75 0 0 0-.75.75V25h13Z"/></svg>