<svg xmlns="http://www.w3.org/2000/svg" width="24" height="24" viewBox="0 0 24 24"><path d="M4.75 8.5a.75.75 0 0 1 .75-.75h1.25a.75.75 0 0 1 0 1.5H5.5a.75.75 0 0 1-.75-.75Zm0 3.5a.75.75 0 0 1 .75-.75h1.25a.75.75 0 0 1 0 1.5H5.5a.75.75 0 0 1-.75-.75Zm.75 2.75a.75.75 0 0 0 0 1.5h1.25a.75.75 0 0 0 0-1.5H5.5ZM5.25 4A3.25 3.25 0 0 0 2 7.25v9.5A3.25 3.25 0 0 0 5.25 20h6.248a6.452 6.452 0 0 1-.422-1.5H10v-13h8.75c.966 0 1.75.784 1.75 1.75v4.482A6.518 6.518 0 0 1 22 12.81V7.25A3.25 3.25 0 0 0 18.75 4H5.25Zm0 1.5H8.5v13H5.25a1.75 1.75 0 0 1-1.75-1.75v-9.5c0-.966.784-1.75 1.75-1.75ZM23 17.5a5.5 5.5 0 1 1-11 0 5.5 5.5 0 0 1 11 0Zm-7.146-2.354a.5.5 0 0 0-.708.708l1.647 1.646-1.647 1.646a.5.5 0 0 0 .708.708l1.646-1.647 1.646 1.647a.5.5 0 0 0 .708-.708L18.207 17.5l1.647-1.646a.5.5 0 0 0-.708-.708L17.5 16.793l-1.646-1.647Z"/></svg>