<svg xmlns="http://www.w3.org/2000/svg" width="16" height="16"><path d="M5.5 13h4c.827 0 1.5-.673 1.5-1.5v-9A1.503 1.503 0 0 0 9.5 1h-4A1.503 1.503 0 0 0 4 2.5v9c0 .827.673 1.5 1.5 1.5Zm.646-8.854A.5.5 0 0 1 6.5 4h2a.5.5 0 1 1 0 1h-2a.498.498 0 0 1-.5-.5c0-.133.053-.26.146-.354Zm0 4A.5.5 0 0 1 6.5 8h2a.5.5 0 1 1 0 1h-2a.498.498 0 0 1-.5-.5c0-.133.053-.26.146-.354Zm0 2A.5.5 0 0 1 6.5 10h2a.5.5 0 1 1 0 1h-2a.5.5 0 0 1-.354-.854Zm7.822 4.178-1.5-4A.506.506 0 0 0 12 10v1.5c0 1.378-1.121 2.5-2.5 2.5h-4A2.503 2.503 0 0 1 3 11.5V10a.5.5 0 0 0-.468.324l-1.5 4c-.028.076-.038.157-.028.237a.499.499 0 0 0 .496.438h12a.504.504 0 0 0 .41-.215.503.503 0 0 0 .058-.46Z"/></svg>