<svg xmlns="http://www.w3.org/2000/svg" width="16" height="16"><path d="M4 3a2 2 0 0 1 2-2h3.586a1.5 1.5 0 0 1 1.06.44l2.915 2.914A1.5 1.5 0 0 1 14 5.414V13a2 2 0 0 1-2 2H9.95a3.52 3.52 0 0 0 .713-1H12a1 1 0 0 0 1-1V6h-2.5A1.5 1.5 0 0 1 9 4.5V2H6a1 1 0 0 0-1 1v6H4V3Zm6.5 2h2.293L10 2.207V4.5a.5.5 0 0 0 .5.5Zm-7 5a2.5 2.5 0 0 0 0 5H4a.5.5 0 0 0 0-1h-.5a1.5 1.5 0 0 1 0-3H4a.5.5 0 0 0 0-1h-.5ZM7 10a.5.5 0 0 0 0 1h.5a1.5 1.5 0 0 1 0 3H7a.5.5 0 0 0 0 1h.5a2.5 2.5 0 0 0 0-5H7Zm-3.5 2a.5.5 0 0 0 0 1h4a.5.5 0 0 0 0-1h-4Z"/></svg>