<svg xmlns="http://www.w3.org/2000/svg" width="24" height="24"><path d="M11.5 5.998v13l-4.25.001a1.75 1.75 0 0 1-1.745-1.606l-.006-.144v-9.5a1.75 1.75 0 0 1 1.607-1.744l.143-.006h4.25ZM16.75 6a1.75 1.75 0 0 1 1.745 1.607l.006.143v9.5a1.75 1.75 0 0 1-1.607 1.744l-.143.006-4.252-.001v-13L16.751 6Zm-1.5 9.5h-1l-.102.007a.75.75 0 0 0 0 1.486l.102.007h1l.102-.007a.75.75 0 0 0-.102-1.493Zm-5.5 0h-1l-.102.007a.75.75 0 0 0 0 1.486L8.75 17h1l.101-.007A.75.75 0 0 0 9.75 15.5Zm11.366-7.461.06.09.045.093.582 1.456a2.75 2.75 0 0 1-.244 2.515l-.109.156-.151.202a1.25 1.25 0 0 0-.207 1.077l.046.137.583 1.457a.75.75 0 0 1-1.349.649l-.044-.092-.583-1.457a2.75 2.75 0 0 1 .244-2.514l.11-.157.151-.202a1.25 1.25 0 0 0 .206-1.077l-.045-.137-.583-1.456a.75.75 0 0 1 1.288-.74Zm-17.549 0 .06.09.045.093.583 1.456a2.75 2.75 0 0 1-.244 2.515l-.11.156-.151.202a1.25 1.25 0 0 0-.206 1.077l.045.137.583 1.457a.75.75 0 0 1-1.349.649l-.044-.092-.582-1.457a2.75 2.75 0 0 1 .244-2.514l.109-.157.151-.202a1.25 1.25 0 0 0 .207-1.077l-.046-.137-.583-1.456a.75.75 0 0 1 1.288-.74Z"/></svg>