<svg xmlns="http://www.w3.org/2000/svg" width="24" height="24"><path d="M9 1.75a.75.75 0 0 1 1.5 0v1.265c.45.04.89.233 1.235.578l3.536 3.536a2 2 0 0 1 0 2.828L11.028 14.2a2 2 0 0 1-2.828 0l-3.536-3.536a2 2 0 0 1 0-2.828l4.243-4.243c.03-.03.061-.06.093-.087V1.75Zm0 4.5v-.629l-2.89 2.89h8.245a.498.498 0 0 0-.145-.322l-3.535-3.535a.498.498 0 0 0-.175-.114v1.71a.75.75 0 1 1-1.5 0Zm-2.868 3.76 3.128 3.13a.5.5 0 0 0 .707 0l3.129-3.13H6.132ZM6.586 14H4.5A2.5 2.5 0 0 0 2 16.5v3A2.5 2.5 0 0 0 4.5 22h15a2.5 2.5 0 0 0 2.5-2.5v-3a2.5 2.5 0 0 0-2.016-2.453 3.772 3.772 0 0 1-.173 1.503 1 1 0 0 1 .689.95v3a1 1 0 0 1-1 1h-15a1 1 0 0 1-1-1v-3a1 1 0 0 1 1-1h3.835a2.995 2.995 0 0 1-.842-.593L6.586 14Zm7.414.375c0-.493.154-.972.342-1.381.19-.416.438-.806.674-1.134a10.26 10.26 0 0 1 .949-1.135l.005-.005a.75.75 0 0 1 1.06 0l.305.328c.176.199.412.48.65.812.235.328.483.718.673 1.134.188.409.342.888.342 1.381C19 15.765 17.971 17 16.5 17S14 15.765 14 14.375Zm2.766-1.64a8.416 8.416 0 0 0-.266-.35 8.416 8.416 0 0 0-.266.35c-.201.28-.392.585-.529.885-.14.305-.205.56-.205.755 0 .691.48 1.125 1 1.125s1-.434 1-1.125c0-.194-.065-.45-.205-.755a5.493 5.493 0 0 0-.53-.886Z"/></svg>