<svg xmlns="http://www.w3.org/2000/svg" width="24" height="24"><path d="M11.998 3.996v6.253a.75.75 0 0 0 1.5 0V5.222c0-.239.204-.475.498-.477a.527.527 0 0 1 .504.504v7.5a.75.75 0 0 0 1.295.515l.004-.003a2.232 2.232 0 0 1 .124-.118c.092-.084.23-.2.401-.321.352-.25.81-.496 1.303-.582.537-.094 1.047-.037 1.385.138a.819.819 0 0 1 .446.528l-1.659 1.247a.764.764 0 0 0-.08.069l-2.174 2.173a12.265 12.265 0 0 0-2.303 3.194 1.65 1.65 0 0 1-1.475.911H9.04c-.571 0-1.068-.272-1.325-.713C6.978 18.527 6 16.5 6 14.753V6.999a.5.5 0 0 1 .501-.5c.29 0 .503.23.503.5v3.5a.75.75 0 0 0 1.5 0v-5.25c0-.278.215-.504.496-.504.287 0 .5.226.5.504v5a.75.75 0 0 0 1.5 0V3.996c0-.273.212-.5.499-.5.29 0 .5.223.5.5Zm1.989-.751a2.028 2.028 0 0 0-.6.093Zm-.6.093a1.977 1.977 0 0 0-1.89-1.342c-.915 0-1.622.586-1.885 1.341A2.032 2.032 0 0 0 9 3.245c-1.109 0-1.896.856-1.987 1.818A2.043 2.043 0 0 0 6.5 5c-1.17 0-2.001.96-2.001 2v7.754c0 2.18 1.171 4.511 1.918 5.79C6.975 21.498 7.998 22 9.04 22h2.728a3.149 3.149 0 0 0 2.817-1.74 10.764 10.764 0 0 1 2.02-2.804l2.139-2.136 1.958-1.472A.75.75 0 0 0 21 13.25c0-1.062-.531-1.807-1.3-2.204-.715-.37-1.581-.414-2.332-.283a4.474 4.474 0 0 0-1.368.495V5.25c0-1.06-.888-2.01-2.013-2.004"/></svg>