<svg xmlns="http://www.w3.org/2000/svg" width="48" height="48"><path d="M25.364 5h-.216l-.126.017-.21.057-12.186 6.088-.176.123-.158.158-.007.009a1.21 1.21 0 0 0-.151.231l-.031.067-.054.147-.045.237L12 35.246c0 .445.236.856.62 1.08l12 7a1.25 1.25 0 0 0 1.88-1.087l-.07-11.266 11.373-5.605c.927-.457.93-1.778.006-2.24l-9.764-4.882 9.764-4.882c.921-.46.921-1.775 0-2.236L25.8 5.124l-.178-.072L25.364 5ZM14.5 26.274l9.429 4.753.057 9.035-9.486-5.534v-8.254Zm9.497 1.986-7.954-4.006 7.944-3.947.01 7.953Zm10.442-4.022-7.942 3.913-.012-7.89 7.954 3.977ZM14.5 22.228v-7.951l7.94 4.008-7.94 3.942Zm9.487-5.966-7.95-4.01 7.96-3.98-.01 7.99Zm2.498-.032.012-7.963 7.958 3.98-7.97 3.983Z"/></svg>