<svg xmlns="http://www.w3.org/2000/svg" width="24" height="24" viewBox="0 0 24 24"><path d="M10 11a2 2 0 0 0 2-2V4a2 2 0 0 0-2-2H3a2 2 0 0 0-2 2v5a2 2 0 0 0 2 2h7Zm8.75-4.5H13V5h5.75A3.25 3.25 0 0 1 22 8.25v9.5A3.25 3.25 0 0 1 18.75 21H5.25A3.25 3.25 0 0 1 2 17.75v-5.92c.313.11.65.17 1 .17h.5v5.75c0 .966.784 1.75 1.75 1.75h13.5a1.75 1.75 0 0 0 1.75-1.75v-9.5a1.75 1.75 0 0 0-1.75-1.75ZM15.94 16h-1.69a.75.75 0 0 0 0 1.5h3.5a.75.75 0 0 0 .75-.75v-3.5a.75.75 0 0 0-1.5 0v1.69l-2.72-2.72a.75.75 0 1 0-1.06 1.06L15.94 16Z"/></svg>