<svg xmlns="http://www.w3.org/2000/svg" width="24" height="24"><path d="M22 8a6 6 0 0 0-11.898-1.106c-.569 1.84-1.083 2.843-1.365 3.309L6.22 12.72a.75.75 0 0 0 .283 1.238L4.462 16a2.5 2.5 0 0 0-1.419 4.532c.162.116.309.263.425.425A2.5 2.5 0 0 0 8 19.533l2.04-2.04a.75.75 0 0 0 1.24.287l2.524-2.524c.473-.283 1.478-.795 3.315-1.36A6.002 6.002 0 0 0 22 8ZM8.583 14H10v1.412l-3.116 3.115a1.366 1.366 0 0 0-.384.973 1 1 0 0 1-1.813.582 3.372 3.372 0 0 0-.769-.769A1 1 0 0 1 4.5 17.5c.299 0 .673-.09.965-.382L8.583 14Z"/></svg>