<svg xmlns="http://www.w3.org/2000/svg" width="28" height="28"><path d="M5.25 5.5A3.25 3.25 0 0 0 2 8.75v5.65a7.5 7.5 0 0 1 12.376 8.1h.374A3.25 3.25 0 0 0 18 19.25V8.75a3.25 3.25 0 0 0-3.25-3.25h-9.5Zm17.873 15.143-3.623-3.55V11l3.612-3.628c.787-.79 2.136-.233 2.136.882V19.75c0 1.108-1.334 1.668-2.125.893ZM14.001 19.5a6.5 6.5 0 0 1-9.648 5.688l-2.716.791a.5.5 0 0 1-.62-.62l.794-2.713a6.5 6.5 0 1 1 12.19-3.146ZM5 18a.5.5 0 0 0 0 1h5a.5.5 0 1 0 0-1H5Zm-.5 2.5a.5.5 0 0 0 .5.5h2.5a.5.5 0 0 0 0-1H5a.5.5 0 0 0-.5.5Z"/></svg>