<svg xmlns="http://www.w3.org/2000/svg" width="48" height="48"><path d="M24.865 4.348a1.25 1.25 0 0 0-1.73 0c-2.759 2.643-6.685 4.077-10.037 4.84-1.66.376-3.139.58-4.202.69A29.035 29.035 0 0 1 7.242 10H7.22A1.25 1.25 0 0 0 6 11.25v9.5c0 4.837 1.243 9.658 4.098 13.775 2.861 4.126 7.29 7.469 13.529 9.418.243.076.503.076.746 0a32.85 32.85 0 0 0 1.641-.56A5.108 5.108 0 0 1 26 43V33a5.002 5.002 0 0 1 4.059-4.912 7.001 7.001 0 0 1 11.776-4.15c.111-.975.165-1.957.165-2.938v-9.75A1.25 1.25 0 0 0 40.78 10h-.022l-.08-.003a29.03 29.03 0 0 1-1.574-.12 35.655 35.655 0 0 1-4.202-.69c-3.353-.762-7.279-2.196-10.037-4.84ZM32 30v-1a5 5 0 0 1 10 0v1h1a3 3 0 0 1 3 3v10a3 3 0 0 1-3 3H31a3 3 0 0 1-3-3V33a3 3 0 0 1 3-3h1Zm2.5-1v1h5v-1a2.5 2.5 0 0 0-5 0Zm5.5 9a3 3 0 1 0-6 0 3 3 0 0 0 6 0Z"/></svg>