<svg xmlns="http://www.w3.org/2000/svg" width="24" height="24" viewBox="0 0 24 24"><path d="M6.25 2A2.25 2.25 0 0 0 4 4.25v15.5A2.25 2.25 0 0 0 6.25 22h7.5A2.25 2.25 0 0 0 16 19.771v-1.52a.75.75 0 0 0-.75-.75c-.453 0-.739-.123-.936-.282-.208-.167-.38-.425-.511-.789-.273-.755-.302-1.75-.302-2.68a.75.75 0 0 0-.202-.512l-.165-.177a2.449 2.449 0 0 0-.17-.173c-.074-.07-.3-.285-1.183-1.168-.469-.469-.728-.865-.813-1.168a.616.616 0 0 1-.016-.325.713.713 0 0 1 .205-.323.71.71 0 0 1 .322-.204.612.612 0 0 1 .324.016c.302.085.698.346 1.167.815.54.54 1.053 1.046 1.512 1.5.76.752 1.373 1.36 1.72 1.73a.75.75 0 0 0 1.097-1.023A55.424 55.424 0 0 0 16 11.424V8.06l2.841 2.842c.422.422.66.994.66 1.59v8.758a.75.75 0 0 0 1.5 0v-8.757a3.75 3.75 0 0 0-1.099-2.652L16 5.939v-1.69A2.25 2.25 0 0 0 13.75 2h-7.5Zm7.124 16.388a2.71 2.71 0 0 0 1.126.534V19h-.75a.75.75 0 0 0-.75.75v.75h-1.5v-.75a2.25 2.25 0 0 1 1.276-2.028c.16.244.356.472.598.666Zm-1.372-4.342c.002.253.007.526.022.81a3.5 3.5 0 1 1-1.55-6.324c-.133.089-.26.193-.378.312-.292.292-.5.63-.597 1.01-.097.38-.074.754.025 1.104.189.673.665 1.291 1.197 1.823A66.717 66.717 0 0 0 11.957 14l.004.003.037.039.004.004ZM7 3.5h1.5v.75A2.25 2.25 0 0 1 6.25 6.5H5.5V5h.75A.75.75 0 0 0 7 4.25V3.5Zm4.5 0H13v.75c0 .414.336.75.75.75h.75v1.5h-.75a2.25 2.25 0 0 1-2.25-2.25V3.5Zm-3 17H7v-.75a.75.75 0 0 0-.75-.75H5.5v-1.5h.75a2.25 2.25 0 0 1 2.25 2.25v.75Z"/></svg>