<svg xmlns="http://www.w3.org/2000/svg" width="48" height="48"><path d="M10.25 7A6.25 6.25 0 0 0 4 13.25v21.5A6.25 6.25 0 0 0 10.25 41h13.214a12.911 12.911 0 0 1-.987-2.5H19v-29h18.75a3.75 3.75 0 0 1 3.75 3.75v10.49a13.044 13.044 0 0 1 2.5 1.88V13.25A6.25 6.25 0 0 0 37.75 7h-27.5ZM8.5 15c0-.69.56-1.25 1.25-1.25h3.5a1.25 1.25 0 1 1 0 2.5h-3.5c-.69 0-1.25-.56-1.25-1.25Zm0 9c0-.69.56-1.25 1.25-1.25h3.5a1.25 1.25 0 1 1 0 2.5h-3.5c-.69 0-1.25-.56-1.25-1.25Zm1.25 7.75h3.5a1.25 1.25 0 1 1 0 2.5h-3.5a1.25 1.25 0 1 1 0-2.5ZM46 35c0 6.075-4.925 11-11 11s-11-4.925-11-11 4.925-11 11-11 11 4.925 11 11Zm-10-7a1 1 0 1 0-2 0v6h-6a1 1 0 1 0 0 2h6v6a1 1 0 1 0 2 0v-6h6a1 1 0 1 0 0-2h-6v-6Z"/></svg>