<svg xmlns="http://www.w3.org/2000/svg" width="24" height="24" viewBox="0 0 24 24"><path d="M3 6.25A3.25 3.25 0 0 1 6.25 3h11.5A3.25 3.25 0 0 1 21 6.25v11.5A3.25 3.25 0 0 1 17.75 21H6.25A3.25 3.25 0 0 1 3 17.75V6.25ZM6.25 4.5A1.75 1.75 0 0 0 4.5 6.25v.25h15v-.25a1.75 1.75 0 0 0-1.75-1.75H6.25ZM4.5 17.75c0 .966.784 1.75 1.75 1.75h11.5a1.75 1.75 0 0 0 1.75-1.75V8h-15v9.75ZM6.85 9.5h3.3c.47 0 .85.38.85.85v6.8c0 .47-.38.85-.85.85h-3.3a.85.85 0 0 1-.85-.85v-6.8c0-.47.38-.85.85-.85Zm.65 7h2V11h-2v5.5Zm4.5-6.25a.75.75 0 0 1 .75-.75h4.5a.75.75 0 0 1 0 1.5h-4.5a.75.75 0 0 1-.75-.75Zm.75 2.25a.75.75 0 0 0 0 1.5h3.5a.75.75 0 0 0 0-1.5h-3.5Z"/></svg>