<svg xmlns="http://www.w3.org/2000/svg" width="24" height="24" viewBox="0 0 24 24"><path d="M3.5 5.75a.75.75 0 0 0-1.5 0v12.5a.75.75 0 0 0 1.5 0V12.5H10v5.75a.75.75 0 0 0 1.5 0V5.75a.75.75 0 0 0-1.5 0V11H3.5V5.75Zm11.92 2.085c.23-.46.914-1.335 2.58-1.335.843 0 1.46.26 1.86.639.398.376.64.921.64 1.611 0 .606-.161 1.026-.384 1.332-.228.314-.555.554-.953.735-.816.37-1.802.433-2.383.433a.75.75 0 0 0 0 1.5c.581 0 1.567.063 2.383.433.398.18.725.42.953.735.223.306.384.726.384 1.332 0 1.086-.914 2.25-2.5 2.25-1.727 0-2.348-.76-2.553-1.276a.75.75 0 1 0-1.394.552C14.508 17.926 15.727 19 18 19c2.414 0 4-1.836 4-3.75 0-.894-.245-1.63-.67-2.214A3.679 3.679 0 0 0 20.144 12a3.679 3.679 0 0 0 1.186-1.036c.425-.584.67-1.32.67-2.214 0-1.06-.383-2.015-1.11-2.702C20.165 5.364 19.157 5 18 5c-2.334 0-3.484 1.291-3.92 2.165a.75.75 0 1 0 1.34.67Z"/></svg>