<svg xmlns="http://www.w3.org/2000/svg" width="24" height="24"><path d="M11.314 15.5a6.471 6.471 0 0 1 .708-1.5h-7.77a2.249 2.249 0 0 0-2.248 2.25v.577c0 .892.318 1.756.898 2.435 1.566 1.834 3.952 2.74 7.098 2.74.932 0 1.796-.08 2.593-.24a6.514 6.514 0 0 1-.914-1.366A12.61 12.61 0 0 1 10 20.5c-2.738 0-4.704-.745-5.957-2.213a2.25 2.25 0 0 1-.54-1.461v-.578a.75.75 0 0 1 .75-.749h7.06ZM10 2.005a5 5 0 1 1 0 10 5 5 0 0 1 0-10Zm0 1.5a3.5 3.5 0 1 0 0 7 3.5 3.5 0 0 0 0-7ZM23 17.5a5.5 5.5 0 1 1-11 0 5.5 5.5 0 0 1 11 0Zm-4.646-2.853a.5.5 0 0 0-.707.707L19.293 17H15a.5.5 0 1 0 0 1h4.293l-1.646 1.647a.5.5 0 0 0 .707.707l2.5-2.5a.497.497 0 0 0 .146-.345V17.5a.498.498 0 0 0-.15-.357l-2.496-2.496Z"/></svg>