<svg xmlns="http://www.w3.org/2000/svg" width="16" height="16"><path d="M3.75 2A1.75 1.75 0 0 0 2 3.75v2.5C2 7.216 2.784 8 3.75 8h3.5A1.75 1.75 0 0 0 9 6.25v-2.5A1.75 1.75 0 0 0 7.25 2h-3.5ZM3 3.75A.75.75 0 0 1 3.75 3h3.5a.75.75 0 0 1 .75.75v2.5a.75.75 0 0 1-.75.75h-3.5A.75.75 0 0 1 3 6.25v-2.5ZM8.75 9A1.75 1.75 0 0 0 7 10.75v1.5c0 .966.784 1.75 1.75 1.75h3.5A1.75 1.75 0 0 0 14 12.25v-1.5A1.75 1.75 0 0 0 12.25 9h-3.5ZM8 10.75a.75.75 0 0 1 .75-.75h3.5a.75.75 0 0 1 .75.75v1.5a.75.75 0 0 1-.75.75h-3.5a.75.75 0 0 1-.75-.75v-1.5Zm-6 0C2 9.784 2.784 9 3.75 9h.5C5.216 9 6 9.784 6 10.75v1.5A1.75 1.75 0 0 1 4.25 14h-.5A1.75 1.75 0 0 1 2 12.25v-1.5ZM3.75 10a.75.75 0 0 0-.75.75v1.5c0 .414.336.75.75.75h.5a.75.75 0 0 0 .75-.75v-1.5a.75.75 0 0 0-.75-.75h-.5Zm8-8A1.75 1.75 0 0 0 10 3.75v2.5c0 .966.784 1.75 1.75 1.75h.5A1.75 1.75 0 0 0 14 6.25v-2.5A1.75 1.75 0 0 0 12.25 2h-.5ZM11 3.75a.75.75 0 0 1 .75-.75h.5a.75.75 0 0 1 .75.75v2.5a.75.75 0 0 1-.75.75h-.5a.75.75 0 0 1-.75-.75v-2.5Z"/></svg>