<svg xmlns="http://www.w3.org/2000/svg" width="16" height="16" viewBox="0 0 16 16"><path d="M2 4.5A2.5 2.5 0 0 1 4.5 2h7A2.5 2.5 0 0 1 14 4.5v7a2.5 2.5 0 0 1-2.5 2.5h-7A2.5 2.5 0 0 1 2 11.5v-7ZM3 11v.5A1.5 1.5 0 0 0 4.5 13h.14l.666-2H3Zm2.64-1 .666-2H5.268l-1.334 2H5.64Zm.72 1-.666 2h4.612l-.666-2H6.36Zm2.946-1L8.64 8H7.36l-.666 2h2.612Zm1.388 1 .666 2h.14a1.5 1.5 0 0 0 1.5-1.5V11h-2.306Zm1.372-1-1.334-2H9.694l.666 2h1.706ZM13 4.5A1.5 1.5 0 0 0 11.5 3h-7A1.5 1.5 0 0 0 3 4.5V7h10V4.5ZM3 9.599 4.066 8H3v1.599Zm10 0V8h-1.066L13 9.599Z"/></svg>