<svg xmlns="http://www.w3.org/2000/svg" width="16" height="16" viewBox="0 0 16 16"><path d="m4.31 8 2.256 2.256a.75.75 0 0 1-.977 1.133l-.084-.073-3.536-3.535-.068-.08-.04-.058-.05-.095-.033-.092-.015-.067-.01-.062-.003-.094.004-.059.015-.094.03-.1.047-.098.035-.055a.747.747 0 0 1 .088-.107l-.068.079a.753.753 0 0 1 .068-.079l3.536-3.535a.75.75 0 0 1 1.133.976l-.072.084L4.31 6.5H8c3.651 0 6.132 2.077 6.246 5.037l.004.213a.75.75 0 0 1-1.5 0c0-2.128-1.692-3.658-4.493-3.746L8 8H4.31l2.256 2.256L4.31 8Z"/></svg>