<svg xmlns="http://www.w3.org/2000/svg" width="28" height="28" viewBox="0 0 28 28"><path d="M20.5 14a6.5 6.5 0 1 0 0-13 6.5 6.5 0 0 0 0 13Zm0-1.5a4.978 4.978 0 0 1-2.965-.974l6.991-6.991A5 5 0 0 1 20.5 12.5Zm2.965-9.026-6.991 6.991a5 5 0 0 1 6.991-6.992Zm.035 10.902v5.374l-.006.143A1.75 1.75 0 0 1 21.75 21.5H6.25l-.144-.006A1.75 1.75 0 0 1 4.5 19.75v-8.845l9.154 4.76.111.047c.19.063.4.047.581-.047l2.8-1.455a7.51 7.51 0 0 1-1.44-.942L14 14.155 4.5 9.214V8.25l.006-.144A1.75 1.75 0 0 1 6.25 6.5h6.816a7.45 7.45 0 0 1 .36-1.5H6.25l-.184.005A3.25 3.25 0 0 0 3 8.25v11.5l.005.184A3.25 3.25 0 0 0 6.25 23h15.5l.184-.005A3.25 3.25 0 0 0 25 19.75V13.5a7.486 7.486 0 0 1-1.5.876Z"/></svg>