<svg xmlns="http://www.w3.org/2000/svg" width="16" height="16"><path d="M6 1a2 2 0 0 0-2 2v2.207a5.48 5.48 0 0 1 1-.185V3a1 1 0 0 1 1-1h3v2.5A1.5 1.5 0 0 0 10.5 6H13v7a1 1 0 0 1-1 1H9.743a5.54 5.54 0 0 1-1.08 1H12a2 2 0 0 0 2-2V5.414a1.5 1.5 0 0 0-.44-1.06l-2.914-2.915A1.5 1.5 0 0 0 9.586 1H6Zm6.793 4H10.5a.5.5 0 0 1-.5-.5V2.207L12.793 5ZM10 10.5a4.5 4.5 0 1 1-9 0 4.5 4.5 0 0 1 9 0ZM7.854 8.646a.5.5 0 0 0-.708 0L4.5 11.293l-.646-.647a.5.5 0 0 0-.708.708l1 1a.5.5 0 0 0 .708 0l3-3a.5.5 0 0 0 0-.708Z"/></svg>