<svg xmlns="http://www.w3.org/2000/svg" width="24" height="24" viewBox="0 0 24 24"><path d="M20 6.25v4.982a4.493 4.493 0 0 0-1.5.085V6.25a.75.75 0 0 0-.75-.75h-2.129c-.404.603-1.091 1-1.871 1h-3.5c-.78 0-1.467-.397-1.871-1H6.25a.75.75 0 0 0-.75.75v13.5c0 .414.336.75.75.75h6.79l1.5 1.5H6.25A2.25 2.25 0 0 1 4 19.75V6.25A2.25 2.25 0 0 1 6.25 4h1.764a2.25 2.25 0 0 1 2.236-2h3.5a2.25 2.25 0 0 1 2.236 2h1.764A2.25 2.25 0 0 1 20 6.25Zm-4.005-2.154L16 4.25c0-.052-.002-.103-.005-.154ZM10.25 3.5a.75.75 0 0 0 0 1.5h3.5a.75.75 0 0 0 0-1.5h-3.5Zm6.234 19.03a.747.747 0 0 0 1.06 0l4.409-4.408a3.467 3.467 0 1 0-4.903-4.903l-.036.036-.036-.036a3.467 3.467 0 1 0-4.902 4.903l4.408 4.408Z"/></svg>