<svg xmlns="http://www.w3.org/2000/svg" width="20" height="20" viewBox="0 0 20 20"><path d="M2.414 3.121A2.49 2.49 0 0 0 2 4.5v3a.5.5 0 0 0 1 0v-3c0-.232.052-.45.146-.647l3.141 3.141A6.592 6.592 0 0 0 4.392 8.74a5.14 5.14 0 0 0-.33.521l-.006.01-.002.004v.001s-.001.001.446.225l-.447-.224a.5.5 0 0 0 .894.448v-.001l.01-.018.045-.078a4.14 4.14 0 0 1 .2-.303A5.582 5.582 0 0 1 7.02 7.726l1.293 1.293a3 3 0 1 0 4.168 4.168l3.667 3.667A1.494 1.494 0 0 1 15.5 17h-3a.5.5 0 0 0 0 1h3c.51 0 .983-.152 1.379-.414l.267.268a.5.5 0 0 0 .708-.707l-.268-.268-.732-.732-3.938-3.938L9.29 8.584 8.007 7.3l-.78-.78-3.374-3.374-.732-.732-.267-.268a.5.5 0 1 0-.708.708l.268.267Zm9.34 9.34A2 2 0 1 1 9.04 9.746l2.715 2.715Zm6.221 3.393c.016-.116.025-.234.025-.354v-3a.5.5 0 0 0-1 0v2.379l.975.975ZM9.17 7.048C9.432 7.017 9.709 7 10 7c1.863 0 3.126.695 3.925 1.38.402.344.688.688.873.944a4.133 4.133 0 0 1 .245.381l.01.018v.002a.5.5 0 0 0 .894-.449v-.002l-.003-.004-.005-.01a5.13 5.13 0 0 0-.33-.522 6.491 6.491 0 0 0-1.034-1.118C13.626 6.805 12.137 6 10 6a7.68 7.68 0 0 0-1.695.183l.865.865Zm6.777 2.228-.058.03-.387.193.445-.223ZM5.121 3H7.5a.5.5 0 0 0 0-1h-3c-.12 0-.238.008-.354.025L5.121 3ZM4.5 17A1.5 1.5 0 0 1 3 15.5v-3a.5.5 0 0 0-1 0v3A2.5 2.5 0 0 0 4.5 18h3a.5.5 0 0 0 0-1h-3Zm11-14A1.5 1.5 0 0 1 17 4.5v3a.5.5 0 0 0 1 0v-3A2.5 2.5 0 0 0 15.5 2h-3a.5.5 0 0 0 0 1h3Z"/></svg>