<svg xmlns="http://www.w3.org/2000/svg" width="24" height="24" viewBox="0 0 24 24"><path d="M11.75 15a2.25 2.25 0 0 1 .154 4.495l-.154.005H11v1.75a.75.75 0 0 1-.648.743L10.25 22a.75.75 0 0 1-.743-.648L9.5 21.25v-5.5a.75.75 0 0 1 .648-.743L10.25 15h1.5Zm0 1.5H11V18h.75a.75.75 0 0 0 .102-1.493l-.102-.007ZM18 15a2 2 0 0 1 2 2 .75.75 0 0 1-1.493.102L18.5 17a.5.5 0 0 0-.41-.492L18 16.5h-.625a.625.625 0 0 0-.092 1.243l.092.007h.5a2.125 2.125 0 0 1 .152 4.245l-.152.005h-.625a2 2 0 0 1-2-2 .75.75 0 0 1 1.493-.102l.007.102a.5.5 0 0 0 .41.492l.09.008h.625a.625.625 0 0 0 .092-1.243l-.092-.007h-.5a2.125 2.125 0 0 1-.152-4.245l.152-.005H18ZM7.75 15a.75.75 0 0 1 .102 1.493l-.102.007H5.5v1.502h1.75a.75.75 0 0 1 .102 1.494l-.102.007H5.5v1.728a.75.75 0 0 1-.648.743l-.102.007a.75.75 0 0 1-.743-.648L4 21.231V15.75a.75.75 0 0 1 .648-.743L4.75 15h3ZM15 3a3 3 0 0 1 2.995 2.824L18 6v4a3 3 0 0 1-5.995.176L12 10V6a3 3 0 0 1 3-3Zm0 2a1 1 0 0 0-.993.883L14 6v4a1 1 0 0 0 1.993.117L16 10V6a1 1 0 0 0-1-1ZM8 7a1 1 0 1 0-.51-1.861l-.107.065c-.24.146-.487.296-.763.296-.826 0-1.456-.783-.927-1.418A3 3 0 1 1 10.236 8a3 3 0 1 1-4.543 3.918c-.529-.635.1-1.418.927-1.418.276 0 .524.15.763.296l.108.065A1 1 0 1 1 8 7Z"/></svg>