<svg xmlns="http://www.w3.org/2000/svg" width="24" height="24" viewBox="0 0 24 24"><path d="M8.317 3.259A.75.75 0 0 0 7 3.75v6.556a9.324 9.324 0 0 0-1.138-1.812c-.472-.577-.915-.935-1.261-1.155a3.168 3.168 0 0 0-.432-.232 2.065 2.065 0 0 0-.189-.071l-.018-.006-.008-.002h-.003l-.002-.001h-.002A.75.75 0 0 0 3 7.75v10A3.25 3.25 0 0 0 6.25 21h11.5A3.25 3.25 0 0 0 21 17.75v-10a.75.75 0 0 0-.947-.724h-.002l-.002.001-.003.001-.008.002-.018.006a1.432 1.432 0 0 0-.19.071 3.166 3.166 0 0 0-.43.232c-.347.22-.79.578-1.262 1.155A9.32 9.32 0 0 0 17 10.306V3.75a.75.75 0 0 0-1.317-.491l-.001.002-.003.003-.009.01-.031.037c-.027.032-.065.077-.113.137-.096.118-.233.29-.399.511a23.825 23.825 0 0 0-1.267 1.868A22.312 22.312 0 0 0 12 9.6a22.312 22.312 0 0 0-1.86-3.773A23.833 23.833 0 0 0 8.873 3.96a17.575 17.575 0 0 0-.512-.648l-.031-.037-.009-.01-.003-.003-.001-.002Z"/></svg>