<svg xmlns="http://www.w3.org/2000/svg" width="24" height="24"><path d="M14.356 2.595a.25.25 0 0 1 .361-.032l.921.812L12.739 7h1.921l2.106-2.632 1.652 1.457a.25.25 0 0 1 .026.348l-.69.827h1.944a1.75 1.75 0 0 0-.288-2.3l-3.7-3.263a1.75 1.75 0 0 0-2.531.23L8.976 7h1.91l3.47-4.405ZM16.25 14a.75.75 0 0 0 0 1.5h2a.75.75 0 0 0 0-1.5h-2ZM4.5 7.25a.75.75 0 0 1 .75-.75h3.128L9.57 5H5.25A2.25 2.25 0 0 0 3 7.25v10.5A3.25 3.25 0 0 0 6.25 21h12a3.25 3.25 0 0 0 3.25-3.25v-6.5A3.25 3.25 0 0 0 18.25 8h-13a.75.75 0 0 1-.75-.75Zm0 10.5V9.372c.235.083.487.128.75.128h13c.966 0 1.75.784 1.75 1.75v6.5a1.75 1.75 0 0 1-1.75 1.75h-12a1.75 1.75 0 0 1-1.75-1.75Z"/></svg>