<svg xmlns="http://www.w3.org/2000/svg" width="16" height="16"><path d="M1 4.25C1 3.56 1.56 3 2.25 3h9.5c.69 0 1.25.56 1.25 1.25v5.5c0 .69-.56 1.25-1.25 1.25h-9.5C1.56 11 1 10.44 1 9.75v-5.5Zm3 .25V4H3v.5a.5.5 0 0 1-.5.5H2v1h.5A1.5 1.5 0 0 0 4 4.5ZM9 7a2 2 0 1 0-4 0 2 2 0 0 0 4 0Zm2-3h-1v.5A1.5 1.5 0 0 0 11.5 6h.5V5h-.5a.5.5 0 0 1-.5-.5V4ZM4 9.5A1.5 1.5 0 0 0 2.5 8H2v1h.5a.5.5 0 0 1 .5.5v.5h1v-.5Zm7 .5v-.5a.5.5 0 0 1 .5-.5h.5V8h-.5A1.5 1.5 0 0 0 10 9.5v.5h1Zm-6.5 3a1.5 1.5 0 0 1-1.427-1.036c.139.024.281.036.427.036h8.25A2.25 2.25 0 0 0 14 9.75V5.085A1.5 1.5 0 0 1 15 6.5v3.25A3.25 3.25 0 0 1 11.75 13H4.5Z"/></svg>