<svg xmlns="http://www.w3.org/2000/svg" width="24" height="24"><path d="m11.066 8.004.184-.005h7.5a3.25 3.25 0 0 1 3.245 3.065l.005.185v1.56a6.518 6.518 0 0 0-1.5-1.077v-.483a1.75 1.75 0 0 0-1.75-1.75h-7.5a1.75 1.75 0 0 0-1.744 1.606l-.006.144v7.5a1.75 1.75 0 0 0 1.607 1.744l.143.006h.482c.287.55.65 1.055 1.076 1.5H11.25a3.25 3.25 0 0 1-3.245-3.066L8 18.75v-7.5a3.25 3.25 0 0 1 3.066-3.245Zm4.516-3.771.052.177.693 2.588h-1.553l-.588-2.2a1.75 1.75 0 0 0-2.144-1.238L4.798 5.502a1.75 1.75 0 0 0-1.27 1.995l.032.148 1.942 7.244A1.75 1.75 0 0 0 7 16.176v1.506a3.252 3.252 0 0 1-2.895-2.228l-.052-.176-1.941-7.245a3.25 3.25 0 0 1 2.12-3.928l.178-.052 7.244-1.941a3.25 3.25 0 0 1 3.928 2.12ZM23 17.5a5.5 5.5 0 1 0-11 0 5.5 5.5 0 0 0 11 0Zm-5.59-3.493L17.5 14l.09.008a.5.5 0 0 1 .402.402l.008.09V17l2.505.001.09.008a.5.5 0 0 1 .402.402l.008.09-.008.09a.5.5 0 0 1-.403.402l-.09.008h-2.503v2.503l-.008.09a.5.5 0 0 1-.402.402l-.09.008-.09-.008a.5.5 0 0 1-.402-.402l-.008-.09V18h-2.503l-.09-.008a.5.5 0 0 1-.402-.402l-.008-.09.008-.09a.5.5 0 0 1 .402-.402l.09-.008H17v-2.5l.008-.09a.5.5 0 0 1 .402-.403Z"/></svg>