<svg xmlns="http://www.w3.org/2000/svg" width="32" height="32" viewBox="0 0 32 32"><path d="M11.998 21a2.071 2.071 0 0 1-1.96-1.391l-.791-2.431a3.808 3.808 0 0 0-.927-1.504 3.85 3.85 0 0 0-1.505-.934l-2.401-.781a2.076 2.076 0 0 1-1.037-3.163c.248-.354.6-.622 1.008-.766l2.439-.79a3.847 3.847 0 0 0 2.36-2.381l.798-2.454c.14-.417.41-.778.77-1.031a2.114 2.114 0 0 1 2.4 0c.35.247.614.596.756 1l.795 2.44a3.827 3.827 0 0 0 2.43 2.426l2.405.78c.436.139.815.415 1.082.787a2.071 2.071 0 0 1 0 2.393c-.247.35-.596.615-1 .759l-2.443.794a3.81 3.81 0 0 0-1.496.925c-.421.423-.74.938-.929 1.504l-.78 2.402a2.206 2.206 0 0 1-.768 1.033c-.352.25-.774.385-1.206.383Zm11.506 9a1.733 1.733 0 0 1-1.64-1.16l-.548-1.676a2.284 2.284 0 0 0-.559-.914 2.362 2.362 0 0 0-.914-.565l-1.653-.535a1.749 1.749 0 0 1-.867-.65 1.732 1.732 0 0 1 .841-2.643l1.681-.548a2.325 2.325 0 0 0 1.439-1.47l.535-1.65a1.732 1.732 0 0 1 2.654-.866c.295.207.517.502.634.842l.546 1.676a2.327 2.327 0 0 0 1.474 1.468l1.655.54a1.732 1.732 0 0 1 .05 3.292l-1.673.546a2.271 2.271 0 0 0-.91.56 2.356 2.356 0 0 0-.563.912l-.538 1.65a1.76 1.76 0 0 1-.65.866 1.73 1.73 0 0 1-.994.325Z"/></svg>