<svg xmlns="http://www.w3.org/2000/svg" width="32" height="32" viewBox="0 0 32 32"><path d="M3 7.5A4.5 4.5 0 0 1 7.5 3h17A4.5 4.5 0 0 1 29 7.5V21h-.986l-4.392-5H27V7.5A2.5 2.5 0 0 0 24.5 5h-17A2.5 2.5 0 0 0 5 7.5V16h3.378l-4.391 5H3V7.5ZM21.484 23H29v1.5a4.5 4.5 0 0 1-4.5 4.5h-1.146l-.4-1.299L21.484 23Zm3.868-2h-4.494l-1.564-5h1.666l4.392 5Zm-12.114 0h5.524l-1.564-5h-2.396l-1.564 5Zm6.15 2h-6.776l-1.877 6h10.526l-.215-.701-.002-.005L19.388 23Zm-6.682-7-1.564 5H6.649l4.39-5h1.667ZM3 24.5V23h7.516L8.64 29H7.5A4.5 4.5 0 0 1 3 24.5Z"/></svg>