<svg xmlns="http://www.w3.org/2000/svg" width="24" height="24" viewBox="0 0 24 24"><path d="M6.25 3A3.25 3.25 0 0 0 3 6.25v11.5A3.25 3.25 0 0 0 6.25 21h10.007c.105-1.863 1.374-2.85 2.1-3.379a1.75 1.75 0 0 1-1.66-2.883c.855-.95 2.225-1.42 3.478-1.173.277.054.557.146.825.28V6.25A3.25 3.25 0 0 0 17.75 3H6.25Zm12.81 15.347c-.7.506-1.695 1.236-1.8 2.653-.007.081-.01.164-.01.25 0 .414.336.75.75.75h3a.75.75 0 0 0 0-1.5h-2.057c.195-.331.535-.604.997-.938l.086-.062.045-.032c.218-.156.472-.337.716-.557.504-.457.963-1.083.963-2.001 0-.634-.168-1.184-.505-1.609a2.054 2.054 0 0 0-.245-.26 2.148 2.148 0 0 0-1.018-.495c-.901-.177-1.917.167-2.54.86a.75.75 0 1 0 1.116 1.003c.277-.308.761-.464 1.135-.391a.611.611 0 0 1 .377.215c.085.107.18.308.18.677 0 .55-.352.831-1.19 1.437ZM17.28 9.28l-6.754 6.746a.75.75 0 0 1-1.06 0L6.72 13.28a.75.75 0 0 1 1.06-1.06l2.217 2.216 6.223-6.217a.75.75 0 1 1 1.06 1.062Z"/></svg>