<svg xmlns="http://www.w3.org/2000/svg" width="24" height="24"><path d="M12 2v6a2 2 0 0 0 2 2h6v10a2 2 0 0 1-2 2h-7.404l.022-.011A2.5 2.5 0 0 0 12 19.753V19h4.25a.75.75 0 0 0 0-1.5H12V16h4.25a.75.75 0 0 0 0-1.5h-4.365a2.5 2.5 0 0 0-1.267-1.486l-.103-.051a.75.75 0 0 0 .235.037h5.5a.75.75 0 0 0 0-1.5h-5.5a.75.75 0 0 0-.428 1.366l-3.204-1.602a2.5 2.5 0 0 0-2.236 0l-.882.44V4a2 2 0 0 1 2-2h6Zm1.5.5V8a.5.5 0 0 0 .5.5h5.5l-6-6Zm-3.33 11.408-3.5-1.75a1.5 1.5 0 0 0-1.34 0l-3.5 1.75A1.5 1.5 0 0 0 1 15.25v4.503a1.5 1.5 0 0 0 .83 1.342l3.5 1.75a1.5 1.5 0 0 0 1.34 0l3.5-1.75a1.5 1.5 0 0 0 .83-1.342V15.25a1.5 1.5 0 0 0-.83-1.342Zm-7.617 1.368a.5.5 0 0 1 .67-.223L6 16.44l2.776-1.388a.5.5 0 1 1 .448.894L6.5 17.31v3.19a.5.5 0 1 1-1 0v-3.19l-2.724-1.363a.5.5 0 0 1-.223-.67Z"/></svg>