<svg xmlns="http://www.w3.org/2000/svg" width="16" height="16"><path d="M8 1v3.5A1.5 1.5 0 0 0 9.5 6H13v7.5a1.5 1.5 0 0 1-1.5 1.5h-7A1.5 1.5 0 0 1 3 13.5v-11A1.5 1.5 0 0 1 4.5 1H8Zm1 .25V4.5a.5.5 0 0 0 .5.5h3.25L9 1.25ZM7 8.5a.5.5 0 0 0 .5.5h3a.5.5 0 0 0 0-1h-3a.5.5 0 0 0-.5.5Zm.5 1.5a.5.5 0 0 0 0 1h3a.5.5 0 0 0 0-1h-3ZM7 12.5a.5.5 0 0 0 .5.5h3a.5.5 0 0 0 0-1h-3a.5.5 0 0 0-.5.5ZM5.5 9a.5.5 0 1 0 0-1 .5.5 0 0 0 0 1Zm.5 1.5a.5.5 0 1 0-1 0 .5.5 0 0 0 1 0ZM5.5 13a.5.5 0 1 0 0-1 .5.5 0 0 0 0 1Z"/></svg>