<svg xmlns="http://www.w3.org/2000/svg" width="20" height="20" viewBox="0 0 20 20"><path d="M10 6.5V2H5.5A1.5 1.5 0 0 0 4 3.5v8c.607.456 1 1.182 1 2 0 .074-.005.148-.016.219l.6-1.714a1.5 1.5 0 0 1 2.832 0L9 13.674V13.5a2.5 2.5 0 0 1 4.5-1.5 2.496 2.496 0 0 1 2.5-.95V8h-4.5A1.5 1.5 0 0 1 10 6.5Zm1 0V2.25L15.75 7H11.5a.5.5 0 0 1-.5-.5ZM2.5 13a.5.5 0 0 0-.5.5v.236c0 .279.158.534.407.658l.633.317c.588.294.96.895.96 1.553v.236a1.5 1.5 0 0 1-3 0 .5.5 0 0 1 1 0 .5.5 0 0 0 1 0v-.236a.736.736 0 0 0-.407-.658l-.633-.317A1.736 1.736 0 0 1 1 13.736V13.5a1.5 1.5 0 0 1 3 0 .5.5 0 0 1-1 0 .5.5 0 0 0-.5-.5Zm4.972-.665a.5.5 0 0 0-.944 0l-1.75 5a.5.5 0 1 0 .944.33L5.955 17h2.09l.233.665a.5.5 0 1 0 .944-.33l-1.75-5ZM7.695 16h-1.39L7 14.014 7.695 16ZM11 13.5a.5.5 0 0 1 1 0 .5.5 0 0 0 1 0 1.5 1.5 0 0 0-3 0v.236c0 .658.371 1.259.96 1.553l.633.317c.25.124.407.38.407.658v.236a.5.5 0 0 1-1 0 .5.5 0 0 0-1 0 1.5 1.5 0 0 0 3 0v-.236c0-.658-.371-1.259-.96-1.553l-.633-.317a.736.736 0 0 1-.407-.658V13.5Zm4.5-.5a.5.5 0 0 0-.5.5v.236c0 .279.158.534.407.658l.633.317c.588.294.96.895.96 1.553v.236a1.5 1.5 0 0 1-3 0 .5.5 0 0 1 1 0 .5.5 0 0 0 1 0v-.236a.736.736 0 0 0-.407-.658l-.633-.317a1.736 1.736 0 0 1-.96-1.553V13.5a1.5 1.5 0 0 1 3 0 .5.5 0 0 1-1 0 .5.5 0 0 0-.5-.5Z"/></svg>