<svg xmlns="http://www.w3.org/2000/svg" width="20" height="20" viewBox="0 0 20 20"><path d="M8.439 2.152a.5.5 0 0 0 .194.981 7.192 7.192 0 0 1 2.733 0 .5.5 0 0 0 .194-.98 8.2 8.2 0 0 0-3.121 0Zm6.006 1.196a.5.5 0 0 0-.556.83 7.042 7.042 0 0 1 1.932 1.933.5.5 0 1 0 .83-.556 8.04 8.04 0 0 0-2.206-2.207Zm-8.334.83a.5.5 0 0 0-.557-.83 8.041 8.041 0 0 0-2.207 2.207.5.5 0 0 0 .831.556 7.041 7.041 0 0 1 1.933-1.932ZM3.133 8.634a.5.5 0 1 0-.981-.194 8.2 8.2 0 0 0 0 3.122.5.5 0 0 0 .98-.194 7.192 7.192 0 0 1 0-2.734Zm14.714-.194a.5.5 0 1 0-.98.194c.174.884.174 1.85 0 2.734a.5.5 0 1 0 .98.194c.2-1.01.2-2.111 0-3.122ZM4.178 13.89a.5.5 0 0 0-.83.556 8.041 8.041 0 0 0 2.206 2.207.5.5 0 0 0 .557-.83 7.04 7.04 0 0 1-1.933-1.933Zm12.474.556a.5.5 0 1 0-.831-.556 7.042 7.042 0 0 1-1.932 1.932.5.5 0 1 0 .556.831 8.04 8.04 0 0 0 2.207-2.207Zm-8.02 2.422a.5.5 0 0 0-.193.98 8.2 8.2 0 0 0 3.121 0 .5.5 0 0 0-.194-.98 7.19 7.19 0 0 1-2.733 0ZM16 10a6 6 0 1 1-12 0 6 6 0 0 1 12 0Zm-9.436 2.11a.5.5 0 0 0-.077.703A4.492 4.492 0 0 0 10 14.5c1.421 0 2.689-.66 3.512-1.687a.5.5 0 1 0-.78-.626A3.493 3.493 0 0 1 10 13.5a3.493 3.493 0 0 1-2.733-1.313.5.5 0 0 0-.703-.077ZM7.75 9a.75.75 0 1 0 0-1.5.75.75 0 0 0 0 1.5ZM13 8.25a.75.75 0 1 0-1.5 0 .75.75 0 0 0 1.5 0Z"/></svg>