<svg xmlns="http://www.w3.org/2000/svg" width="20" height="20"><path d="M4.943 3a.5.5 0 0 1 .464.333l1.774 5a.5.5 0 0 1-.942.334L5.98 7.94V8H3.73l-.264.68a.5.5 0 1 1-.932-.36l1.935-5A.5.5 0 0 1 4.943 3Zm-.028 1.938L4.117 7h1.53l-.732-2.062Zm12.493-.409c-.246-.686-.604-1.106-1.053-1.328C15.945 3 15.522 3 15.246 3h-.027c-.554 0-.994.19-1.327.487-.322.288-.521.656-.646.99a4.062 4.062 0 0 0-.245 1.288v.026L13 5.799v.026c0 .383 0 1.085.25 1.724.13.335.334.67.656.936.325.268.742.445 1.257.503.417.046 1.663.013 2.23-1.246a.5.5 0 1 0-.911-.41c-.293.648-.93.693-1.208.662-.344-.039-.571-.149-.73-.28a1.264 1.264 0 0 1-.363-.529c-.176-.45-.181-.981-.181-1.382V5.79l.003-.059a3.27 3.27 0 0 1 .18-.905c.09-.241.214-.45.375-.593.15-.135.355-.233.66-.233.304 0 .51.008.694.098.158.078.371.257.555.769a.5.5 0 1 0 .941-.338Zm-5.935 1.307c.196-.267.32-.622.32-1.077 0-.376-.074-.696-.218-.96a1.44 1.44 0 0 0-.564-.57C10.605 3 10.165 3 10.003 3H8.5a.5.5 0 0 0-.5.5v5a.5.5 0 0 0 .5.5h1.75c.218 0 .662-.035 1.07-.271.446-.26.798-.736.798-1.488 0-.383-.084-.71-.246-.977a1.445 1.445 0 0 0-.399-.428ZM10.521 4.1c.07.039.13.093.176.178.049.089.096.236.096.48 0 .398-.15.544-.275.62a1.016 1.016 0 0 1-.495.122H9V4h1c.158 0 .361.01.52.1ZM9.364 6.5h.822c.187 0 .433.007.628.103.087.043.154.1.204.18.05.083.1.221.1.458 0 .384-.152.537-.301.623A1.203 1.203 0 0 1 10.25 8H9V6.5h.364Zm4.387 4.317a.5.5 0 1 0-.774-.634l-3.741 4.573-1.882-1.882a.5.5 0 0 0-.708.707l2.273 2.273a.5.5 0 0 0 .74-.037l4.092-5Z"/></svg>