<svg xmlns="http://www.w3.org/2000/svg" width="32" height="32" viewBox="0 0 32 32"><path d="M12.93 6.362c-.743-.372-1.558-.431-2.3-.29l-1.653.317a3.993 3.993 0 0 0-2.805 2.104c-1.914 3.753-3.361 6.827-3.92 9.448-.576 2.703-.225 5.017 1.508 7.124 1.15 1.4 3.127 1.117 4.155-.05a336.08 336.08 0 0 0 2.573-2.963A3.014 3.014 0 0 1 12.773 21h6.449c.877 0 1.71.385 2.284 1.052.88 1.024 1.782 2.065 2.573 2.963 1.028 1.167 3.005 1.45 4.155.05 1.733-2.107 2.084-4.421 1.508-7.124-.559-2.621-2.005-5.695-3.92-9.448a3.993 3.993 0 0 0-2.805-2.104l-1.652-.316c-.743-.142-1.558-.083-2.3.289-.146.073-.293.15-.442.229a3.31 3.31 0 0 1-1.552.41h-2.148a3.31 3.31 0 0 1-1.552-.41c-.149-.08-.296-.156-.441-.229Zm-1.925 1.675c.386-.074.743-.03 1.028.113.128.064.261.133.397.206.75.4 1.601.645 2.493.645h2.148c.892 0 1.743-.246 2.493-.645.136-.073.269-.142.397-.206.285-.143.642-.187 1.028-.113l1.652.316a1.993 1.993 0 0 1 1.4 1.049c1.932 3.789 3.25 6.633 3.745 8.956.477 2.24.17 3.897-1.097 5.437a.57.57 0 0 1-.487.21.9.9 0 0 1-.622-.312c-.783-.89-1.68-1.924-2.557-2.945A5.014 5.014 0 0 0 19.222 19h-6.45c-1.463 0-2.85.642-3.8 1.748a333.3 333.3 0 0 1-2.558 2.945.9.9 0 0 1-.621.311.57.57 0 0 1-.488-.209c-1.267-1.54-1.574-3.196-1.097-5.437.495-2.323 1.813-5.167 3.745-8.956a1.993 1.993 0 0 1 1.4-1.049l1.652-.316ZM16.001 14a1.5 1.5 0 1 0 0-3 1.5 1.5 0 0 0 0 3Z"/></svg>