<svg xmlns="http://www.w3.org/2000/svg" width="24" height="24"><path d="M14 3H6.25A3.25 3.25 0 0 0 3 6.25V8.5h11V3Zm1.5 5.5H21V6.25A3.25 3.25 0 0 0 17.75 3H15.5v5.5ZM10 10v4h2.022a6.495 6.495 0 0 1 5.478-3 6.47 6.47 0 0 1 3.5 1.022V10H10Zm-7 5.5h8.313a6.497 6.497 0 0 0-.313 2 6.47 6.47 0 0 0 1.022 3.5H6.25A3.25 3.25 0 0 1 3 17.75V15.5ZM8.5 10H3v4h5.5v-4ZM23 17.5a5.5 5.5 0 1 0-11 0 5.5 5.5 0 0 0 11 0Zm-5 .5.001 2.503a.5.5 0 1 1-1 0V18h-2.505a.5.5 0 0 1 0-1H17v-2.5a.5.5 0 1 1 1 0V17h2.497a.5.5 0 0 1 0 1H18Z"/></svg>