<svg xmlns="http://www.w3.org/2000/svg" width="32" height="32" viewBox="0 0 32 32"><path d="M9.5 21.5a1 1 0 0 0 1-1v-6.086l1.293 1.293a1 1 0 0 0 1.414-1.414l-3-3a1 1 0 0 0-1.414 0l-3 3a1 1 0 1 0 1.414 1.414L8.5 14.414V20.5a1 1 0 0 0 1 1Zm14-9.5a1 1 0 1 0-2 0v6.086l-1.293-1.293a1 1 0 0 0-1.414 1.414l3 3a1 1 0 0 0 1.414 0l3-3a1 1 0 0 0-1.414-1.414L23.5 18.086V12Zm-17-8A4.5 4.5 0 0 0 2 8.5v15A4.5 4.5 0 0 0 6.5 28h19a4.5 4.5 0 0 0 4.5-4.5v-15A4.5 4.5 0 0 0 25.5 4h-19ZM4 8.5A2.5 2.5 0 0 1 6.5 6H15v20H6.5A2.5 2.5 0 0 1 4 23.5v-15ZM17 26V6h8.5A2.5 2.5 0 0 1 28 8.5v15a2.5 2.5 0 0 1-2.5 2.5H17Z"/></svg>