<svg xmlns="http://www.w3.org/2000/svg" width="24" height="24" viewBox="0 0 24 24"><path d="M4 4.25A2.25 2.25 0 0 1 6.25 2h11.5A2.25 2.25 0 0 1 20 4.25v9.583a4.727 4.727 0 0 0-1.5-.326V4.25a.75.75 0 0 0-.75-.75H6.25a.75.75 0 0 0-.75.75v15.5c0 .414.336.75.75.75h4.316a4.771 4.771 0 0 0 1.268 1.5H6.25A2.25 2.25 0 0 1 4 19.75V4.25ZM7.75 6.5a.75.75 0 0 0 0 1.5h8.5a.75.75 0 0 0 0-1.5h-8.5ZM7 11.75a.75.75 0 0 1 .75-.75h8.5a.75.75 0 0 1 0 1.5h-8.5a.75.75 0 0 1-.75-.75Zm15 6.5a3.75 3.75 0 0 0-3.75-3.75l-.102.007A.75.75 0 0 0 18.25 16l.154.005a2.25 2.25 0 0 1-.154 4.495l-.003.005-.102.007a.75.75 0 0 0 .108 1.493V22l.2-.005A3.75 3.75 0 0 0 22 18.25Zm-6.5-3a.75.75 0 0 0-.75-.75l-.2.005a3.75 3.75 0 0 0 .2 7.495l.102-.007a.75.75 0 0 0-.102-1.493l-.154-.005A2.25 2.25 0 0 1 14.75 16l.102-.007a.75.75 0 0 0 .648-.743Zm3.5 3a.75.75 0 0 0-.75-.75h-3.5l-.102.007A.75.75 0 0 0 14.75 19h3.5l.102-.007A.75.75 0 0 0 19 18.25Z"/></svg>