<svg xmlns="http://www.w3.org/2000/svg" width="16" height="16"><path d="M2 10c0 1.803 1.555 3.653 4.222 3.957a5.501 5.501 0 0 1-.72-1.157C3.882 12.333 3 11.128 3 10v-.5a.5.5 0 0 1 .5-.5h1.707c.099-.349.23-.683.393-1H3.5A1.5 1.5 0 0 0 2 9.5v.5Zm7.75-5.75c0 .285-.043.56-.124.82a5.46 5.46 0 0 0-1.385.414 1.75 1.75 0 1 0-.836.47 5.53 5.53 0 0 0-1.078.963A2.751 2.751 0 1 1 9.75 4.25ZM6 10.5a4.5 4.5 0 1 0 9 0 4.5 4.5 0 0 0-9 0Zm6.5-3a.5.5 0 0 1 .5.5v1.5a.5.5 0 0 1-.5.5H11a.5.5 0 0 1 0-1h.468a1.982 1.982 0 0 0-.933-.25 2 2 0 0 0-1.45.586.5.5 0 0 1-.706-.707A3 3 0 0 1 12 8.152V8a.5.5 0 0 1 .5-.5Zm-.876 5.532A2.999 2.999 0 0 1 9 12.848V13a.5.5 0 0 1-1 0v-1.5a.5.5 0 0 1 .5-.5H10a.5.5 0 0 1 0 1h-.468a1.99 1.99 0 0 0 .933.25 2 2 0 0 0 1.45-.586.5.5 0 0 1 .706.707c-.285.285-.624.51-.997.66Z"/></svg>