<svg xmlns="http://www.w3.org/2000/svg" width="16" height="16"><path d="M8.237 1.56a.5.5 0 0 0-.474 0L1.789 4.777a1.499 1.499 0 0 0-.57.54l.022.012.03.014.278.15L8 8.933l.567-.302a3 3 0 0 1 5.091-2.715l1.123-.6a1.498 1.498 0 0 0-.57-.54L8.237 1.56ZM1 6.333l.078.042 6.78 3.642a.305.305 0 0 1 .084.47l-.294.333-.01.012A2.49 2.49 0 0 0 7 12.5c0 .512.118 1.027.367 1.5H3a2 2 0 0 1-2-2V6.333ZM13.5 8a2 2 0 1 1-4 0 2 2 0 0 1 4 0Zm1.5 4.5c0 1.245-1 2.5-3.5 2.5S8 13.75 8 12.5A1.5 1.5 0 0 1 9.5 11h4a1.5 1.5 0 0 1 1.5 1.5Z"/></svg>