<svg xmlns="http://www.w3.org/2000/svg" width="20" height="20"><path d="M19 5.5a4.5 4.5 0 1 1-9 0 4.5 4.5 0 0 1 9 0ZM14.5 3a.5.5 0 0 0-.5.5v2a.5.5 0 0 0 .5.5H16a.5.5 0 0 0 0-1h-1V3.5a.5.5 0 0 0-.5-.5ZM17 16v-5.6a5.507 5.507 0 0 0 1-.657V16a2 2 0 0 1-2 2H4a2 2 0 0 1-2-2V8a2 2 0 0 1 2-2h5.022a5.5 5.5 0 0 0 .185 1H4a1 1 0 0 0-1 1v8a1 1 0 0 0 1 1h5.5V7.794a5.51 5.51 0 0 0 1 1.48V17H16a1 1 0 0 0 1-1Zm-11-.5a.5.5 0 0 1 .5-.5h1a.5.5 0 0 1 0 1h-1a.5.5 0 0 1-.5-.5Zm6.5-.5a.5.5 0 0 0 0 1h1a.5.5 0 0 0 0-1h-1Z"/></svg>