<svg xmlns="http://www.w3.org/2000/svg" width="16" height="16"><path d="M7.18 3.821a.758.758 0 0 1 .572-.027l.001-.002a.749.749 0 0 1 .453.959l-2.5 6.999a.743.743 0 0 1-.706.498.747.747 0 0 1-.707-.499L1.794 4.75a.76.76 0 0 1 .201-.807.752.752 0 0 1 1.211.306L5 9.269l1.794-5.021a.754.754 0 0 1 .386-.427Zm6.47 4.053a2.496 2.496 0 0 1-.17 3.89 2.483 2.483 0 0 1-1.48.486H9.5a.749.749 0 0 1-.75-.75v-7a.749.749 0 0 1 .75-.75h2.255c.502 0 .987.15 1.403.433a2.492 2.492 0 0 1 1.028 2.625 2.5 2.5 0 0 1-.537 1.066Zm-3.4-2.624v2h1.5a1.002 1.002 0 0 0 1-1 1.008 1.008 0 0 0-.293-.706 1.01 1.01 0 0 0-.709-.294H10.25Zm0 5.5H12a1.003 1.003 0 0 0 .707-1.707 1.003 1.003 0 0 0-.708-.293h-1.75v2Z"/></svg>