<svg xmlns="http://www.w3.org/2000/svg" width="24" height="24" viewBox="0 0 24 24"><path d="M6.543 5.483a8.462 8.462 0 0 1 4.707-1.95V5.25a.75.75 0 0 0 1.5 0V3.533a8.502 8.502 0 0 1 7.735 7.967H18.75a.75.75 0 0 0 0 1.5h1.694c-.26 2.312-1.423 4.248-3.168 5.668a.75.75 0 0 0 .948 1.164c2.226-1.813 3.67-4.394 3.77-7.485a.762.762 0 0 0 .004-.156L22 12c0-5.523-4.477-10-10-10S2 6.477 2 12c0 3.252 1.523 5.954 3.77 7.826a.75.75 0 0 0 .96-1.152C5.02 17.248 3.827 15.307 3.558 13H5.25a.75.75 0 0 0 0-1.5H3.514c.11-1.882.831-3.6 1.969-4.957L6.72 7.78a.75.75 0 0 0 1.06-1.06L6.543 5.483ZM16.76 6.634a.646.646 0 0 0-.807.015l-.218.183a396.093 396.093 0 0 0-2.351 1.99c-.656.56-1.327 1.14-1.863 1.613a39.48 39.48 0 0 0-.689.62 5 5 0 0 0-.42.424 1.837 1.837 0 0 0 .312 2.619 1.934 1.934 0 0 0 2.677-.306c.088-.108.205-.296.325-.497.128-.215.285-.49.459-.798.347-.62.768-1.392 1.175-2.145a371.614 371.614 0 0 0 1.439-2.697l.131-.249a.613.613 0 0 0-.17-.772Z"/></svg>