<svg xmlns="http://www.w3.org/2000/svg" width="24" height="24" viewBox="0 0 24 24"><path d="M21.995 5.25A2.25 2.25 0 0 0 19.745 3H4.25A2.25 2.25 0 0 0 2 5.25v11.505a2.25 2.25 0 0 0 2.25 2.25h6.925A6.52 6.52 0 0 1 11 17.5c0-1.746.689-3.332 1.81-4.5H8.75l-.144.006A1.75 1.75 0 0 0 7 14.75l-.001 2.754H4.25a.75.75 0 0 1-.75-.75V5.25a.75.75 0 0 1 .75-.75h15.495a.75.75 0 0 1 .75.75v6.48a6.52 6.52 0 0 1 1.5 1.075V5.25ZM15 9a3 3 0 1 0-6 0 3 3 0 0 0 6 0Zm2.5 3a5.5 5.5 0 1 1 0 11 5.5 5.5 0 0 1 0-11Zm2 5.5h-2V15a.5.5 0 0 0-1 0v3a.5.5 0 0 0 .5.5h2.5a.5.5 0 0 0 0-1Z"/></svg>