<svg xmlns="http://www.w3.org/2000/svg" width="20" height="20"><path d="M6 2a2 2 0 0 0-2 2v5.207a5.48 5.48 0 0 1 1-.185V4a1 1 0 0 1 1-1h4v3.5A1.5 1.5 0 0 0 11.5 8H15v8a1 1 0 0 1-1 1h-3.6a5.507 5.507 0 0 1-.657 1H14a2 2 0 0 0 2-2V7.414a1.5 1.5 0 0 0-.44-1.06l-3.914-3.915A1.5 1.5 0 0 0 10.586 2H6Zm8.793 5H11.5a.5.5 0 0 1-.5-.5V3.207L14.793 7ZM8.682 17.682a4.5 4.5 0 1 0-6.364-6.364 4.5 4.5 0 0 0 6.364 6.364Zm-4.95-4.95a.5.5 0 0 1 .707 0l1.06 1.06 1.062-1.06a.5.5 0 1 1 .707.707L6.207 14.5l1.06 1.06a.5.5 0 1 1-.707.708l-1.06-1.06-1.06 1.06a.5.5 0 1 1-.708-.708l1.06-1.06-1.06-1.06a.5.5 0 0 1 0-.708Z"/></svg>