<svg xmlns="http://www.w3.org/2000/svg" width="24" height="24" viewBox="0 0 24 24"><path d="M13 20a1 1 0 1 1 0 2 1 1 0 0 1 0-2Zm-3.5-1a1 1 0 1 1 0 2 1 1 0 0 1 0-2Zm7 0a1 1 0 1 1 0 2 1 1 0 0 1 0-2ZM13.002 6.009c3.168 0 4.966 2.097 5.227 4.63h.08a3.687 3.687 0 0 1 3.692 3.683 3.687 3.687 0 0 1-3.692 3.682H7.694a3.687 3.687 0 0 1-3.692-3.682 3.687 3.687 0 0 1 3.692-3.683h.08c.263-2.55 2.06-4.63 5.228-4.63Zm-8.635 4.155a.75.75 0 0 1-.314.935l-.091.045-.927.384a.75.75 0 0 1-.665-1.34l.091-.046.927-.384a.75.75 0 0 1 .98.406Zm6.487-4.833-.171.058c-1.785.63-3.063 2.005-3.615 3.823l-.07.25-.059.238-.206.039a4.638 4.638 0 0 0-1.67.714 3.942 3.942 0 0 1 5.791-5.122Zm-7.913.031.105.035.926.384a.75.75 0 0 1-.468 1.42l-.106-.034-.926-.384a.75.75 0 0 1 .469-1.42Zm3.815-2.986.045.091.384.926a.75.75 0 0 1-1.34.666l-.046-.092-.384-.926a.75.75 0 0 1 1.34-.665Zm4.353-.319a.75.75 0 0 1 .441.875l-.035.105-.383.926a.75.75 0 0 1-1.421-.468l.035-.106.383-.926a.75.75 0 0 1 .98-.406Z"/></svg>