<svg xmlns="http://www.w3.org/2000/svg" width="20" height="20" viewBox="0 0 20 20"><path d="M7 2a2 2 0 0 0-2 2v3.085A1.5 1.5 0 0 1 6.915 9H7.5a1.5 1.5 0 1 1 0 3h-.585A1.5 1.5 0 0 1 5 13.915V16a2 2 0 0 0 2 2h6a2 2 0 0 0 2-2v-2.085A1.5 1.5 0 0 1 13.085 12H12.5a1.5 1.5 0 0 1 0-3h.585A1.5 1.5 0 0 1 15 7.085V4a2 2 0 0 0-2-2H7Zm7.854 6.147a.5.5 0 0 0-.708.707L15.293 10H12.5a.5.5 0 0 0 0 1h2.793l-1.146 1.146a.5.5 0 0 0 .707.708l2-2 .002-.003a.499.499 0 0 0 .144-.348v-.006a.5.5 0 0 0-.146-.35l-2-2ZM4.707 10l1.146-1.146.012-.012a.5.5 0 0 0-.719-.696l-2 2-.002.003a.498.498 0 0 0-.144.348v.006a.498.498 0 0 0 .146.35l2 2a.5.5 0 0 0 .708-.707L4.707 11H7.5a.498.498 0 0 0 .5-.5.5.5 0 0 0-.5-.5H4.707Z"/></svg>