<svg xmlns="http://www.w3.org/2000/svg" width="24" height="24"><path d="M4.25 2A2.25 2.25 0 0 0 2 4.25v15.5A2.25 2.25 0 0 0 4.25 22h4.418a1.743 1.743 0 0 1 0-1.5H4.25a.75.75 0 0 1-.75-.75V4.25a.75.75 0 0 1 .75-.75h5.5a.75.75 0 0 1 .75.75V6H12V4.25A2.25 2.25 0 0 0 9.75 2h-5.5ZM7 9.25A2.25 2.25 0 0 1 9.25 7h10.5A2.25 2.25 0 0 1 22 9.25v6.5A2.25 2.25 0 0 1 19.75 18H17.5v2.5h1.25a.75.75 0 0 1 0 1.5h-8.5a.75.75 0 0 1 0-1.5h1.25V18H9.25A2.25 2.25 0 0 1 7 15.75v-6.5Zm9 11.25V18h-3v2.5h3Zm3.75-4a.75.75 0 0 0 .75-.75v-6.5a.75.75 0 0 0-.75-.75H9.25a.75.75 0 0 0-.75.75v6.5c0 .414.336.75.75.75h10.5Z"/></svg>