<svg xmlns="http://www.w3.org/2000/svg" width="28" height="28" viewBox="0 0 28 28"><path d="M4.754 4H23.25a2.75 2.75 0 0 1 2.45 1.5H2.304A2.75 2.75 0 0 1 4.754 4Zm5.002 6H2.004V8.5h8.642a4.498 4.498 0 0 0-.89 1.5Zm.097 3.25h-7.85v1.5h8.884a4.51 4.51 0 0 1-1.034-1.5Zm7.26 1.5a4.51 4.51 0 0 0 1.034-1.5H26v1.5h-8.887ZM7.04 18H2.004v1.5H7v-1c0-.17.014-.337.041-.5ZM7 22.5H2.304A2.75 2.75 0 0 0 4.735 24H7v-1.5ZM21 24h2.269a2.75 2.75 0 0 0 2.432-1.5H21V24Zm0-4.5h5V18h-5.041c.027.163.041.33.041.5v1ZM18.244 10a4.498 4.498 0 0 0-.89-1.5H26V10h-7.756ZM8 24v-5.5a2 2 0 0 1 2-2h8a2 2 0 0 1 2 2V24H8Zm9.5-12.5a3.5 3.5 0 1 1-7 0 3.5 3.5 0 0 1 7 0Z"/></svg>