<svg xmlns="http://www.w3.org/2000/svg" width="48" height="48"><path d="M40 12c0-2.651-2.293-4.648-5.05-5.91C32.083 4.778 28.21 4 24 4c-4.21 0-8.083.778-10.95 2.09C10.293 7.352 8 9.35 8 12v24.25h.007c.139 2.527 2.373 4.438 5.043 5.66C15.917 43.222 19.79 44 24 44c4.21 0 8.083-.779 10.95-2.09 2.67-1.222 4.904-3.133 5.043-5.66H40V12Zm-29.5 0c0-1.077 1.009-2.455 3.59-3.636C16.562 7.233 20.064 6.5 24 6.5s7.438.733 9.91 1.864c2.58 1.181 3.59 2.56 3.59 3.636 0 1.077-1.009 2.455-3.59 3.636C31.438 16.767 27.936 17.5 24 17.5s-7.438-.733-9.91-1.864c-2.58-1.181-3.59-2.56-3.59-3.636Zm27 24c0 1.077-1.009 2.455-3.59 3.636C31.438 40.767 27.936 41.5 24 41.5s-7.438-.733-9.91-1.864c-2.58-1.181-3.59-2.56-3.59-3.636V16.394c.752.586 1.625 1.092 2.55 1.516C15.917 19.22 19.79 20 24 20c4.21 0 8.083-.779 10.95-2.09.925-.424 1.798-.93 2.55-1.516V36Z"/></svg>