<svg xmlns="http://www.w3.org/2000/svg" width="24" height="24" viewBox="0 0 24 24"><path d="M12 1.998c5.524 0 10.002 4.478 10.002 10.002 0 5.523-4.479 10-10.002 10-5.524.001-10.002-4.477-10.002-10C1.998 6.476 6.476 1.998 12 1.998Zm0 1.5a8.502 8.502 0 1 0 0 17.003 8.502 8.502 0 0 0 0-17.003ZM8.462 14.783A4.492 4.492 0 0 0 12 16.5a4.491 4.491 0 0 0 3.535-1.714.75.75 0 1 1 1.177.93A5.99 5.99 0 0 1 12 18a5.991 5.991 0 0 1-4.717-2.29.75.75 0 1 1 1.179-.928ZM9 8.75a1.25 1.25 0 1 1 0 2.499A1.25 1.25 0 0 1 9 8.75Zm6 0a1.25 1.25 0 1 1 0 2.499 1.25 1.25 0 0 1 0-2.499Z"/></svg>