<svg xmlns="http://www.w3.org/2000/svg" width="24" height="24"><path d="M19.75 2A2.25 2.25 0 0 1 22 4.25v5.462a3.25 3.25 0 0 1-.952 2.298l-.026.026a6.471 6.471 0 0 0-1.43-.692l.395-.395a1.75 1.75 0 0 0 .513-1.237V4.25a.75.75 0 0 0-.75-.75h-5.466c-.464 0-.91.185-1.238.513l-8.512 8.523a1.75 1.75 0 0 0 .015 2.462l4.461 4.454a1.755 1.755 0 0 0 2.33.13c.165.487.385.947.654 1.375a3.256 3.256 0 0 1-4.043-.443L3.489 16.06a3.25 3.25 0 0 1-.004-4.596l8.5-8.51a3.25 3.25 0 0 1 2.3-.953h5.465ZM17 5.502a1.5 1.5 0 1 1 0 3 1.5 1.5 0 0 1 0-3ZM23 17.5a5.5 5.5 0 1 1-11 0 5.5 5.5 0 0 1 11 0ZM17.5 14a.5.5 0 0 0-.5.5v4a.5.5 0 0 0 1 0v-4a.5.5 0 0 0-.5-.5Zm0 7.125a.625.625 0 1 0 0-1.25.625.625 0 0 0 0 1.25Z"/></svg>