<svg xmlns="http://www.w3.org/2000/svg" width="20" height="20" viewBox="0 0 20 20"><path d="M12.935 5.598a.5.5 0 0 0 0 1c.291 0 .538.086.718.246.177.157.334.423.374.869a.5.5 0 1 0 .996-.09c-.06-.654-.307-1.173-.706-1.527-.395-.35-.893-.498-1.382-.498ZM8.94 3.928c-.936-.756-1.975-.917-2.906-.735A4.259 4.259 0 0 0 3.777 4.46c-.603.656-1.195 1.486-1.241 2.7-.022.602.067 1.475.532 2.129l.002.002c.613.851.922 1.475 1.048 2.287.04.26.062.543.067.867a6.69 6.69 0 0 0 .467 2.334c.322.795.873 1.608 1.77 1.939l.022.008.023.006c.524.14 1.012.09 1.38-.255.324-.303.459-.754.535-1.16.07-.376.105-.812.14-1.241l.012-.153c.04-.491.085-.98.18-1.442.267-1.273.648-1.497.825-1.55.491-.127.779-.041.97.098.278.202.49.615.637 1.224.143.593.2 1.264.251 1.877.072.866.255 1.654.603 2.158.181.262.438.49.785.565.35.075.69-.03.99-.224 1.104-.704 1.743-2.167 1.918-4.105.08-.871.168-1.294.297-1.628.1-.26.224-.47.418-.802a39.229 39.229 0 0 0 .364-.632c.244-.436.644-1.23.69-2.16.048-.966-.29-2.033-1.431-2.961-1.09-.886-2.106-1.207-3.013-1.158-.899.05-1.617.458-2.128.896l-.013.01-.012.013c-.5.49-.73.577-.879.57-.168-.006-.442-.137-1.006-.705l-.019-.02-.021-.017ZM4.513 5.137a3.258 3.258 0 0 1 1.713-.961c.663-.13 1.386-.024 2.064.515.54.542 1.06.956 1.654.981.616.026 1.122-.37 1.609-.844.397-.337.91-.613 1.52-.646.607-.033 1.386.17 2.327.935.888.722 1.096 1.48 1.063 2.136-.034.691-.338 1.317-.564 1.722l-.115.204-.206.354c-.211.359-.389.661-.52 1.002-.18.467-.28 1.003-.36 1.899-.165 1.82-.746 2.897-1.461 3.353l-.004.002c-.154.1-.225.09-.239.086-.018-.004-.08-.025-.171-.156-.194-.28-.361-.848-.43-1.672v-.012c-.05-.596-.111-1.34-.274-2.016-.16-.665-.444-1.379-1.021-1.799-.486-.353-1.1-.443-1.82-.255l-.011.003c-.726.21-1.24.915-1.531 2.31-.11.528-.16 1.073-.199 1.563l-.012.15c-.036.44-.066.822-.126 1.142-.07.37-.16.543-.235.614-.031.03-.115.1-.417.024-.502-.194-.895-.693-1.168-1.368a5.7 5.7 0 0 1-.394-1.968v-.004a7.255 7.255 0 0 0-.079-1.006c-.159-1.025-.56-1.797-1.224-2.717-.275-.387-.365-.992-.347-1.51.033-.867.441-1.477.978-2.06Z"/></svg>