<svg xmlns="http://www.w3.org/2000/svg" width="28" height="28" viewBox="0 0 28 28"><path d="M11 3a9 9 0 0 0-8.048 13.032l-.908 3.389a1.25 1.25 0 0 0 1.53 1.53l3.387-.906A9 9 0 1 0 11 3Zm6 22a8.978 8.978 0 0 1-6.732-3.026 10.077 10.077 0 0 0 2.109-.068A7.468 7.468 0 0 0 17 23.5a7.463 7.463 0 0 0 3.59-.914.75.75 0 0 1 .555-.066l3.25.87-.872-3.252a.75.75 0 0 1 .066-.553A7.467 7.467 0 0 0 24.5 16a7.498 7.498 0 0 0-3.825-6.54 9.926 9.926 0 0 0-.75-1.974 9.004 9.004 0 0 1 5.123 12.547l.908 3.388a1.25 1.25 0 0 1-1.531 1.53l-3.386-.906A8.965 8.965 0 0 1 17 25Z"/></svg>