<svg xmlns="http://www.w3.org/2000/svg" width="16" height="16"><path d="M9 2.5a.5.5 0 0 0-.849-.358l-2.927 2.85H3.5a1.5 1.5 0 0 0-1.5 1.5v2.99a1.5 1.5 0 0 0 1.5 1.5h1.723l2.927 2.875A.5.5 0 0 0 9 13.5v-11Zm1.111 2.689a.5.5 0 0 1 .703-.08l.002.001.002.002.005.004.015.013.046.04c.036.034.085.08.142.142.113.123.26.302.405.54.291.48.573 1.193.573 2.148 0 .954-.282 1.668-.573 2.148a3.394 3.394 0 0 1-.405.541 2.495 2.495 0 0 1-.202.196l-.008.007h-.001s-.447.243-.703-.078a.5.5 0 0 1 .075-.7l.002-.002-.001.001.002-.001h-.001l.018-.016c.018-.017.048-.045.085-.085a2.4 2.4 0 0 0 .284-.382c.21-.345.428-.882.428-1.63 0-.747-.218-1.283-.428-1.627a2.382 2.382 0 0 0-.368-.465.5.5 0 0 1-.096-.717Zm1.702-2.08a.5.5 0 1 0-.623.782l.011.01.052.045c.047.042.116.107.201.195.17.177.4.443.63.794.46.701.92 1.733.92 3.069a5.522 5.522 0 0 1-.92 3.065c-.23.35-.46.614-.63.79a3.922 3.922 0 0 1-.252.24l-.011.01h-.001a.5.5 0 0 0 .623.782l.033-.027.075-.065c.063-.057.15-.138.253-.245a6.44 6.44 0 0 0 .746-.936 6.522 6.522 0 0 0 1.083-3.614 6.542 6.542 0 0 0-1.083-3.618 6.517 6.517 0 0 0-.745-.938 4.935 4.935 0 0 0-.328-.311l-.023-.019-.007-.006-.002-.002-.002-.001ZM10.19 5.89l-.002-.001Z"/></svg>