<svg xmlns="http://www.w3.org/2000/svg" width="24" height="24" viewBox="0 0 24 24"><path d="M7 7V5a3 3 0 0 1 5-2.236A3 3 0 0 1 17 5v2h1.5A1.5 1.5 0 0 1 20 8.5v4.318l-.969-.954A3.008 3.008 0 0 0 16.92 11l-2.419.002V7h1V5a1.5 1.5 0 0 0-2.656-.956c.101.3.156.622.156.956v6.173a2.997 2.997 0 0 0-2 2.825v2.937c0 .785.309 1.538.859 2.098L14.774 22H8a4 4 0 0 1-4-4V8.5A1.5 1.5 0 0 1 5.5 7H7Zm1.5-2v2h3V5a1.5 1.5 0 0 0-3 0Zm4.072 13.332 4.001 4.072c.781.796 2.064.8 2.852.012l2.993-2.996a1.992 1.992 0 0 0-.012-2.83l-4.076-4.013A2.008 2.008 0 0 0 16.92 12l-2.918.002A2 2 0 0 0 12 13.998v2.937c0 .522.205 1.024.572 1.397ZM15.996 15a1 1 0 1 1-2 .001 1 1 0 0 1 2-.001Z"/></svg>