<svg xmlns="http://www.w3.org/2000/svg" width="20" height="20" viewBox="0 0 20 20"><path d="M12.38 10.75c.9 0 1.62.73 1.62 1.62S13.27 14 12.38 14H8.5v-3.25h3.88zm-1-4.75c.89 0 1.62.73 1.62 1.62s-.73 1.62-1.62 1.62H8.5V6h2.88zm1.12-2.25c0-.41-.34-.75-.75-.75s-.75.34-.75.75v.75H9.5v-.75c0-.41-.34-.75-.75-.75S8 3.34 8 3.75v.75H6.25c-.41 0-.75.34-.75.75s.34.75.75.75H7v8h-.75c-.41 0-.75.34-.75.75s.34.75.75.75H8v.75c0 .41.34.75.75.75s.75-.34.75-.75v-.75H11v.75c0 .41.34.75.75.75s.75-.34.75-.75v-.75c1.67-.07 3-1.44 3-3.12 0-1.21-.69-2.26-1.7-2.78.44-.54.7-1.22.7-1.97 0-1.33-.83-2.46-2-2.92v-.96z"/></svg>