<svg xmlns="http://www.w3.org/2000/svg" width="20" height="20" viewBox="0 0 20 20"><path d="M15.5 3.25c0 .97-.78 1.75-1.75 1.75S12 4.22 12 3.25s.78-1.75 1.75-1.75 1.75.78 1.75 1.75zm1 5.93c0 .46-.42.83-.87.75A5.045 5.045 0 0 1 12.5 8l-.6-.8L10 8.48l2.64 2.22c.23.19.36.47.36.77v2.62c.5.35.98.71 1.41 1.07-.54.5-1.2.84-1.91.84-.82 0-1.56-.44-2.14-1.06a.49.49 0 0 0-.72 0C9.06 15.56 8.32 16 7.5 16c-.19 0-.37-.02-.55-.07C4.71 14.38 3 12.66 3 11.52c0-.45.28-1.02 1.47-1.02.68 0 1.56.19 2.53.51l-.47-2.73c-.1-.57.13-1.16.63-1.5l1.72-1.16-1.34-.24-1.68 1.14c-.34.23-.81.14-1.04-.2a.753.753 0 0 1 .2-1.04l1.85-1.26c.21-.14.47-.2.72-.16l3.83.62c.36.06.69.23.91.51l1.38 2.1c.52.69 1.29 1.19 2.18 1.35.35.07.61.37.61.74zm-8.1-.03.35 2.55c.86.37 2.18 1.05 2.74 1.42V11.7L8.4 9.15zM5 18.4c-.7.36-1.46.55-2.22.59a.748.748 0 0 1-.78-.75c0-.39.3-.72.71-.75.68-.04 1.36-.29 1.98-.75.18-.14.43-.14.61 0 1.37 1.01 3.02 1.01 4.39 0 .19-.14.43-.14.61 0 1.37 1.01 3.02 1 4.39 0 .18-.14.43-.14.61 0 .62.46 1.3.7 1.98.75.42.03.72.36.72.75 0 .46-.39.77-.78.75-.76-.04-1.52-.24-2.22-.59-1.57.8-3.43.8-5 0-1.57.8-3.43.8-5 0z"/></svg>