<svg xmlns="http://www.w3.org/2000/svg" width="20" height="20" viewBox="0 0 20 20"><path d="M5 9h-.5c-.28 0-.5-.22-.5-.5s.22-.5.5-.5h1c.28 0 .5.22.5.5v3c0 .28-.22.5-.5.5s-.5-.22-.5-.5V9zm9.5 1.5v.5H13c-.28 0-.5.22-.5.5s.22.5.5.5h2c.28 0 .5-.22.5-.5v-3c0-.28-.22-.5-.5-.5h-2c-.28 0-.5.22-.5.5s.22.5.5.5h1.5v.5H14c-.28 0-.5.22-.5.5s.22.5.5.5h.5zm-4 1.5c.28 0 .5-.22.5-.5s-.22-.5-.5-.5H9v-.5h1.5c.28 0 .5-.22.5-.5V8.5c0-.28-.22-.5-.5-.5h-2c-.28 0-.5.22-.5.5s.22.5.5.5H10v.5H8.5c-.28 0-.5.22-.5.5v1.5c0 .28.22.5.5.5h2z"/></svg>