<svg xmlns="http://www.w3.org/2000/svg" width="20" height="20" viewBox="0 0 20 20"><path d="M8.48 8h3.05c1.09-.02 1.97-.91 1.97-2.01 0-.7-.37-1.37-.98-1.73L10 2.75 7.48 4.26c-.61.36-.98 1.03-.98 1.73 0 1.1.88 1.99 1.98 2.01zm6.02 1.5h-9v3h-3v3h5v-2a2.5 2.5 0 0 1 5 0v2h5v-3h-3v-3z" opacity=".3"/><path d="M18.25 3s-1.5 1.67-1.5 2.5c0 .55.3 1.03.75 1.29V11H16V9.5c0-.83-.67-1.5-1.5-1.5h-.14c.4-.57.64-1.26.64-2.01 0-1.23-.65-2.38-1.71-3.01L10 1 6.71 2.98A3.508 3.508 0 0 0 5 5.99c0 .75.24 1.44.64 2.01H5.5C4.67 8 4 8.67 4 9.5V11H2.5V6.79c.45-.26.75-.74.75-1.29 0-.83-1.5-2.5-1.5-2.5S.25 4.67.25 5.5c0 .55.3 1.03.75 1.29V17h8v-3.5c0-.55.45-1 1-1s1 .45 1 1V17h8V6.79c.45-.26.75-.74.75-1.29 0-.83-1.5-2.5-1.5-2.5zM7.48 4.26 10 2.75l2.52 1.51c.6.36.98 1.02.98 1.73 0 1.1-.88 1.99-1.97 2.01H8.48A2.01 2.01 0 0 1 6.5 5.99c0-.7.37-1.37.98-1.73zM17.5 15.5h-5v-2a2.5 2.5 0 0 0-5 0v2h-5v-3h3v-3h9v3h3v3z"/></svg>