<svg xmlns="http://www.w3.org/2000/svg" width="20" height="20" viewBox="0 0 20 20"><circle cx="10" cy="11" r="1.5"/><path d="M10 6c-2.76 0-5 2.24-5 5 0 1.38.56 2.63 1.46 3.54l1.06-1.06A3.534 3.534 0 0 1 6.5 11c0-1.93 1.57-3.5 3.5-3.5s3.5 1.57 3.5 3.5c0 .96-.39 1.84-1.03 2.47l1.06 1.06c.91-.9 1.47-2.15 1.47-3.53 0-2.76-2.24-5-5-5z"/><path d="M10 3c-4.42 0-8 3.58-8 8 0 2.21.9 4.21 2.34 5.66L5.4 15.6A6.527 6.527 0 0 1 3.5 11c0-3.58 2.92-6.5 6.5-6.5 2.3 0 4.31 1.2 5.47 3h1.72C15.89 4.84 13.16 3 10 3zm6.5 6H18v5h-1.5zm0 6H18v1.5h-1.5z"/></svg>