<svg xmlns="http://www.w3.org/2000/svg" width="20" height="20" viewBox="0 0 20 20"><circle cx="10" cy="11" r="1.5"/><path d="M8.92 6.11c-1.97.41-3.52 2.06-3.85 4.04-.23 1.39.12 2.69.84 3.72.26.38.81.41 1.14.08.25-.25.28-.65.08-.95-.52-.75-.76-1.7-.55-2.72a3.49 3.49 0 0 1 2.6-2.69 3.51 3.51 0 0 1 3.69 5.42c-.21.29-.17.69.09.95.32.32.87.29 1.13-.08.57-.82.91-1.81.91-2.88a5.01 5.01 0 0 0-6.08-4.89z"/><path d="M8.39 3.16c-3.13.6-5.64 3.13-6.24 6.27-.48 2.51.22 4.86 1.63 6.6.28.35.81.38 1.12.06.27-.27.3-.69.06-.98a6.545 6.545 0 0 1-1.45-3.71C3.29 7.84 6.33 4.55 9.9 4.5a6.507 6.507 0 0 1 5.57 3h1.73a8.007 8.007 0 0 0-8.81-4.34zM17.25 9c-.41 0-.75.34-.75.75v3.5c0 .41.34.75.75.75s.75-.34.75-.75v-3.5c0-.41-.34-.75-.75-.75z"/><circle cx="17.25" cy="15.75" r=".75"/></svg>