<svg xmlns="http://www.w3.org/2000/svg" width="20" height="20" viewBox="0 0 20 20"><path d="M13.05 9.5h3.92c-.1-1.43-.63-2.74-1.47-3.81a5.024 5.024 0 0 0-2.45 3.81zm-6.1 1H3.03c.1 1.43.63 2.74 1.47 3.81a5.024 5.024 0 0 0 2.45-3.81zm0-1a4.983 4.983 0 0 0-2.46-3.81A6.998 6.998 0 0 0 3.03 9.5h3.92zm6.1 1c.17 1.63 1.1 3.02 2.46 3.81a7.086 7.086 0 0 0 1.47-3.81h-3.93zm-1.02 0H10.5v6.47c1.67-.12 3.17-.82 4.31-1.9a5.944 5.944 0 0 1-2.78-4.57zm0-1a5.99 5.99 0 0 1 2.79-4.58 6.974 6.974 0 0 0-4.31-1.9V9.5h1.52zm-4.06 1a5.99 5.99 0 0 1-2.79 4.58 6.974 6.974 0 0 0 4.31 1.9V10.5H7.97zm0-1H9.5V3.03c-1.67.12-3.17.82-4.31 1.9 1.55.97 2.63 2.64 2.78 4.57z"/></svg>