<svg xmlns="http://www.w3.org/2000/svg" width="20" height="20" viewBox="0 0 20 20"><path d="M10.5 2a4 4 0 0 1 3.89 3.08.749.749 0 1 1-1.46.34 2.499 2.499 0 1 0-3.7 2.73c.33.2.43.64.22.96L7 12.92V13c0 .53-.44.98-.97 1A.997.997 0 0 1 5 13c0-.43.27-.8.66-.94l2.05-3.19A3.995 3.995 0 0 1 6.5 6c0-2.21 1.79-4 4-4zm-7 11c0 1.4 1.16 2.54 2.57 2.5 1.34-.04 2.43-1.22 2.43-2.56 0-.38.31-.69.69-.69h4.15c.2-.18.48-.28.78-.24.46.05.82.42.88.88.06.6-.41 1.11-1 1.11-.25 0-.49-.09-.66-.25H9.93A4.004 4.004 0 0 1 6 17a3.999 3.999 0 0 1-2.15-7.37c.5-.32 1.15.04 1.15.63 0 .25-.13.49-.34.63-.7.44-1.16 1.22-1.16 2.11zM14 9c-.36 0-.71.05-1.04.14l-1.47-2.95c.01-.09.01-.19 0-.29a1 1 0 0 0-1.99.11c0 .39.23.73.56.9l1.8 3.59c.18.35.61.5.95.31.36-.19.76-.3 1.2-.3a2.5 2.5 0 1 1-1.33 4.62.721.721 0 0 0-.4-.12c-.76 0-1.03.99-.39 1.39.6.38 1.33.6 2.11.6 2.21 0 4-1.79 4-4s-1.79-4-4-4z"/></svg>