<svg xmlns="http://www.w3.org/2000/svg" width="20" height="20" viewBox="0 0 20 20"><path d="M6.5 7.5h7V9h-7zM10 3.46 8.05 6h3.9zM5.5 16.5h2V15a2.5 2.5 0 0 1 5 0v1.5h2v-6h-9v6z" opacity=".3"/><path d="M17.5 7.01c0 1.1-.89 1.99-1.98 1.99H15V7.16c1.18-.56 2-1.75 2-3.14V4l-1.5.01c0 .99-.73 1.8-1.68 1.95L10 1 6.18 5.97A1.98 1.98 0 0 1 4.5 4.02H3c0 1.39.82 2.58 2 3.14V9h-.52C3.39 9 2.5 8.11 2.5 7.01H1c0 1.76 1.31 3.2 3 3.44V18h5v-3c0-.55.45-1 1-1s1 .45 1 1v3h5v-7.55c1.69-.24 3-1.68 3-3.44V7l-1.5.01zM10 3.46 11.95 6h-3.9L10 3.46zM6.5 7.5h7V9h-7V7.5zm8 9h-2V15a2.5 2.5 0 0 0-5 0v1.5h-2v-6h9v6z"/></svg>