<svg xmlns="http://www.w3.org/2000/svg" width="20" height="20" viewBox="0 0 20 20"><path d="M16.96 4.8a.824.824 0 0 0-.79-.55h-.67l-.19-.6A.842.842 0 0 0 14.5 3c-.38 0-.72.27-.81.65l-.19.6h-.67c-.36 0-.68.22-.79.55-.12.35.03.73.35.92l.54.33-.24.77a.87.87 0 0 0 .28 1.01c.15.12.32.17.49.17.19 0 .38-.07.54-.2l.51-.43.51.43c.14.13.33.2.52.2.17 0 .34-.05.49-.16.31-.23.43-.65.28-1.01l-.24-.77.54-.33c.32-.2.47-.58.35-.93zM14.5 6c-.28 0-.5-.22-.5-.5s.22-.5.5-.5.5.22.5.5-.22.5-.5.5zm-1.75 4h-.8c-.09-.46-.32-.91-.68-1.27s-.81-.58-1.27-.68v-.8c0-.14-.11-.25-.25-.25s-.25.11-.25.25V8c-.64 0-1.28.24-1.77.73-.17.18-.3.37-.41.58l-1.58-.6c-.51-.18-1.07-.15-1.56.08-.49.23-.86.64-1.04 1.16-.36 1.01.13 2.1 1.09 2.53-.41.92-.25 2.04.5 2.79.76.76 1.88.92 2.8.5.2.46.54.82.99 1.04a2.082 2.082 0 0 0 1.56.07c.51-.18.92-.55 1.16-1.04.23-.49.26-1.04.08-1.56l-.6-1.6c.2-.11.39-.24.56-.41.48-.49.72-1.13.72-1.77h.75c.14 0 .25-.11.25-.25s-.11-.25-.25-.25zm-8.04 1.6a1.031 1.031 0 0 1-.63-1.32 1.026 1.026 0 0 1 .98-.69c.11 0 .23.02.34.06l2.94 1.11c-.88.55-2.39 1.28-3.63.84zm5.62 3.81c-.12.25-.33.44-.59.53a1.031 1.031 0 0 1-1.32-.63c-.44-1.24.29-2.75.84-3.63l1.11 2.93c.09.27.08.55-.04.8zm.23-3.85c-.07.07-.14.12-.21.17l-.49-1.28c-.01-.03-.03-.04-.05-.07a.36.36 0 0 0-.17-.17c-.02-.01-.04-.04-.07-.05l-1.32-.5c.05-.08.11-.15.18-.22C8.72 9.16 9.1 9 9.5 9a1.499 1.499 0 0 1 1.06 2.56z"/></svg>