<svg xmlns="http://www.w3.org/2000/svg" width="20" height="20" viewBox="0 0 20 20"><path d="M7.57 11.84c-1.81 0-5.43.91-5.43 2.72v1.36H13v-1.36c0-1.81-3.62-2.72-5.43-2.72zm9.79-6.1c.01-.08.02-.16.02-.24 0-.08-.01-.17-.02-.24l.53-.41c.05-.04.06-.11.03-.16l-.5-.87c-.03-.06-.1-.08-.15-.06l-.62.25c-.13-.1-.27-.18-.42-.24l-.09-.66A.147.147 0 0 0 16 3h-1c-.06 0-.11.04-.12.11l-.09.66c-.15.06-.29.15-.42.24l-.62-.25c-.06-.02-.12 0-.15.06l-.5.87c-.03.06-.02.12.03.16l.53.41c-.01.08-.02.16-.02.24 0 .08.01.17.02.24l-.53.41c-.05.04-.06.11-.03.16l.5.87c.03.06.1.08.15.06l.62-.25c.13.1.27.18.42.24l.09.66c.01.07.06.11.12.11h1c.06 0 .12-.04.12-.11l.09-.66c.15-.06.29-.15.42-.24l.62.25c.06.02.12 0 .15-.06l.5-.87c.03-.06.02-.12-.03-.16l-.51-.41zm-1.86.65c-.49 0-.89-.4-.89-.89s.4-.89.89-.89.89.4.89.89-.4.89-.89.89zm.16 2.96-.35-.61c-.02-.04-.07-.05-.11-.04l-.44.17c-.09-.07-.19-.13-.3-.17l-.07-.46a.088.088 0 0 0-.09-.07h-.7c-.04 0-.08.03-.09.07l-.04.46c-.11.04-.21.1-.3.17l-.43-.17c-.04-.02-.09 0-.11.04l-.35.61c-.02.04-.01.09.02.11l.37.29a.915.915 0 0 0-.01.34l-.37.29c-.03.03-.04.07-.02.11l.35.61c.02.04.07.05.11.04l.44-.17c.09.07.19.13.3.17l.07.46c.01.04.04.07.09.07h.7c.04 0 .08-.03.09-.07l.07-.46c.11-.04.21-.1.3-.17l.44.17c.04.02.09 0 .11-.04l.35-.61c.02-.04.01-.09-.02-.11l-.37-.29c.01-.05.01-.11.01-.17s0-.12-.01-.17l.37-.29c0-.03.01-.08-.01-.11zm-1.69 1.15a.58.58 0 1 1 0-1.16.58.58 0 0 1 0 1.16zM4.82 8h5.5c.14 0 .25-.11.25-.25s-.12-.25-.25-.25H10c0-1.02-.62-1.9-1.5-2.29v.54c0 .14-.11.25-.25.25S8 5.89 8 5.75v-.7C7.84 5.02 7.67 5 7.5 5s-.34.02-.5.05v.7c0 .14-.11.25-.25.25s-.25-.11-.25-.25v-.54C5.62 5.6 5 6.48 5 7.5h-.18c-.14 0-.25.11-.25.25s.11.25.25.25zm2.68 2.5a2.5 2.5 0 0 0 2.45-2h-4.9a2.5 2.5 0 0 0 2.45 2z"/></svg>