<svg xmlns="http://www.w3.org/2000/svg" width="20" height="20" viewBox="0 0 20 20"><path d="m7.45 4.58-.5-.87c.78-.38 1.64-.62 2.55-.68v1c-.73.06-1.42.25-2.05.55zm8.52 4.92h1c-.06-.91-.3-1.77-.69-2.55l-.87.5c.31.63.5 1.32.56 2.05zm-3.42-4.92.5-.87c-.78-.38-1.64-.62-2.55-.69v1c.73.07 1.42.26 2.05.56zm-5.97.5-.5-.87c-.74.5-1.37 1.14-1.87 1.87l.87.5c.4-.59.91-1.1 1.5-1.5zm8.34 1.5.87-.5c-.5-.74-1.14-1.37-1.87-1.87l-.5.87c.59.41 1.1.91 1.5 1.5zm-7.47 8.84-.5.87c.78.38 1.64.62 2.55.69v-1a6.11 6.11 0 0 1-2.05-.56zM4.03 10.5h-1c.06.91.3 1.77.69 2.55l.87-.5c-.31-.63-.5-1.32-.56-2.05zm6.47 5.47v1c.91-.06 1.77-.3 2.55-.69l-.5-.87c-.63.31-1.32.5-2.05.56zm-5.42-2.55-.87.5c.5.74 1.14 1.37 1.87 1.87l.5-.87c-.59-.4-1.1-.91-1.5-1.5zm-.5-5.97-.87-.5c-.38.78-.62 1.64-.68 2.55h1c.06-.73.25-1.42.55-2.05zm11.39 3.05c-.06.73-.25 1.42-.55 2.05l.87.5c.38-.78.62-1.64.69-2.55h-1.01zm-2.55 4.42.5.87c.74-.5 1.37-1.14 1.87-1.87l-.87-.5c-.4.59-.91 1.09-1.5 1.5zM10.5 7.05h-1v4l3.17 1.9.5-.82-2.67-1.58v-3.5z"/></svg>