<svg xmlns="http://www.w3.org/2000/svg" width="20" height="20" viewBox="0 0 20 20"><path d="M14 5.75c0 .41.34.75.75.75.21 0 .39-.08.53-.22.3-.3.72-1.78.72-1.78s-1.48.42-1.78.72c-.14.14-.22.32-.22.53z"/><path d="M14.75 2A3.751 3.751 0 0 0 13 9.07V10h1v4.75c0 .41-.34.75-.75.75s-.75-.34-.75-.75v-1.5c0-1.24-1.01-2.25-2.25-2.25-.26 0-.52.05-.75.13V4.5C9.5 3.67 8.83 3 8 3H3.5C2.67 3 2 3.67 2 4.5v11c0 .83.67 1.5 1.5 1.5H8c.83 0 1.5-.67 1.5-1.5v-2.25c0-.41.34-.75.75-.75s.75.34.75.75v1.5c0 1.24 1.01 2.25 2.25 2.25s2.25-1.01 2.25-2.25V10h1v-.93A3.753 3.753 0 0 0 14.75 2zM5 15.5 3.5 14v-2.12l1.5 1.5v2.12zm0-3.75-1.5-1.5V8.13L5 9.62v2.13zM5 8 3.5 6.5V4.38L5 5.88V8zm3 6-1.5 1.5v-2.12l1.5-1.5V14zm0-3.75-1.5 1.5V9.62L8 8.13v2.12zM8 6.5 6.5 8V5.88L8 4.38V6.5zM14.75 8c-1.24 0-2.25-1.01-2.25-2.25s1.01-2.25 2.25-2.25S17 4.51 17 5.75 15.99 8 14.75 8z"/></svg>