<svg xmlns="http://www.w3.org/2000/svg" width="20" height="20" viewBox="0 0 20 20"><path d="M11.5 8h-2c-.28 0-.5.22-.5.5v3c0 .28.22.5.5.5h2c.28 0 .5-.22.5-.5v-3c0-.28-.22-.5-.5-.5zm-.5 3h-1V9h1v2zm5.5 3h-2c-.28 0-.5-.22-.5-.5V12c0-.28.22-.5.5-.5H16V11h-1.5c-.28 0-.5-.22-.5-.5s.22-.5.5-.5h2c.28 0 .5.22.5.5V12c0 .28-.22.5-.5.5H15v.5h1.5c.28 0 .5.22.5.5s-.22.5-.5.5zM7 8.83a.5.5 0 0 1-.97.17H5v2h1.03c.07-.2.25-.34.47-.34.28 0 .5.22.5.5v.17c0 .37-.3.67-.66.67H4.67c-.37 0-.67-.3-.67-.66V8.67c0-.37.3-.67.67-.67h1.66c.37 0 .67.3.67.67v.16z"/></svg>