<svg xmlns="http://www.w3.org/2000/svg" width="512" height="502"><path d="M288.794 199.076c4.525-1.9 8.45-2.4 7.22 2.717-1.08 4.48-5.111 18.147-9.12 29.853-2.525 7.363-1.314 10.813-15.418 7.591-20.568-4.698-30.799-5.623-42.557-8.818-2.871-1.522-1.815-5.79.935-6.619 14.745-4.452 48.312-20.255 58.94-24.724zm-35.509 302.432c50.854-1.404 102.725-7.672 153.553-17.84 30.066-8.2 55.416-25.417 71.815-50.016 23.917-37.369 33.528-78.775 33.344-120.57-.152-34.632-7.029-69.532-18.057-102.619-10.933-32.8-26.318-61.456-59.118-77.856-54.665-27.334-115.812-26.01-173.214-23.276-32.799 2.733-68.33 5.466-98.397 24.6-46.466 32.799-51.706 93.161-46.24 142.362 2.734 32.8 8.782 68.88 39.86 86.326 70.612 39.632 164.911 38.949 223.448-13.668 7.098-6.379 16.046-10.949 22.097-18.448 4.85-6.02-20.501-21.64-28.7-29.84-8.2-8.2-19.133-10.933-30.066-16.4-35.534-13.666-69.473-.226-107.74-8.427-25.731-5.146-48.288-22.324-65.72-40.309-1.13-1.165-.46-5.954.512-6.82 14.398-12.84 25.023-25.942 45.506-38.744 10.933-5.466 25.283-15.716 36.216-18.449 73.8-27.334 178.891 6.45 195.09 74.482 5.536 23.258 8.479 49.25 8.2 75.166-.322 30.048-5.522 59.882-24.6 83.366-30.065 32.8-79.27 35.474-120.265 38.266-65.257 4.441-124.707 8.2-187.914-12.3-17.44-5.656-30.066-18.791-38.266-35.19-7.89-15.781-14.236-33.826-17.767-51.25-15.715-77.557-13.667-146.915 10.934-212.173 12.12-32.155 66.623-47.15 104.89-55.349 84.73-19.133 252.657-10.42 252.657-10.42S432.1 17.765 430.733 0c-83.024 12.641-250.78 15.715-346.788 54.666-21.64 8.779-46.466 30.066-57.399 51.932C7.413 153.064-.439 205.796.02 254.442c.72 76.578 13.536 181.27 84.89 219.592 37.012 19.876 79.094 26.092 121.914 27.474h46.462zm15.973-144.313c1.079-4.48 5.114-18.146 9.124-29.853 2.522-7.365 1.307-10.813 15.412-7.595 20.571 4.7 30.802 5.622 42.56 8.822 2.87 1.522 1.815 5.785-.933 6.62-14.748 4.45-48.313 20.255-58.945 24.723-4.52 1.898-8.45 2.4-7.218-2.717z"/></svg>