<svg version="1.1" xmlns="http://www.w3.org/2000/svg" width="512px" height="512px"><path d="M286.8828125,449.3017273c-32.0733795-5.5974426-44.2480316-61.7214966-57.6833649-141.2569275c-35.4933472,5.5711365-84.2243652,15.6202393-136.6459656,26.9177856c-8.5478287,22.3923035-23.1607895,55.1178894-43.8389015,98.1891785c-11.563549,24.8650208-49.1972809,14.7801514-48.7098961-11.5372009c0-8.2032166,12.902339-39.3917847,38.7114601-93.572876c-10.9631138-19.6608887-1.1595802-37.4297791,20.7662659-42.0454407C103.9974365,206.3020935,184.71138,67.0551453,208.9461212,62.6982765c34.2718353,0.0201073,27.7120209,46.1528511,43.838913,114.3409271l38.1994019,178.1767426C307.009491,401.9082336,332.4205933,440.9456177,286.8828125,449.3017273z M196.3839417,156.272934l-73.322197,118.1860809c20.6781082-5.2948608,52.0430069-11.7046204,94.0884628-19.2275085L196.3839417,156.272934z M420.9829712,116.5408401c-1.2070618,16.8747787-2.3774719,36.6670761-1.5369873,57.4269485c47.4489136,1.984787,91.7304382-8.7460175,92.5487976,23.585556c0.26828,12.2216339-9.8340149,24.1051025-22.0467834,23.585556c-22.2087402-3.4850769-45.740509-0.7007751-69.9891052-1.5387726v60.2471313c2.1188965,31.8339844-48.3177795,30.8859253-45.6341248,0l-0.5129089-59.2212677c-52.6374207,3.6348114-83.9968262,3.460144-83.5762329-21.790329c1.2675171-29.9738159,19.6712036-18.5184174,83.5762329-23.8438263c-0.7387085-23.6273499-0.749176-45.7897644,2.0516663-62.2970276C381.8634949,83.9937057,420.8475342,91.3286819,420.9829712,116.5408401z"/></svg>