<svg xmlns="http://www.w3.org/2000/svg" width="512" height="512"><path d="M225.624 199.737c47.644 36.153 68.94 62.995 54.67 117.866-60.562-39.2-64.788-79.46-54.67-117.866zM212.71 160.5c3.819-12.903 7.884-28.791 7.188-48.659H178.89c2.785 25.588 13.7 32.072 33.82 48.66zm81.334 195.897c-4.463 14.163-7.911 27.41-7.845 40.603h39.92c-5.828-17.605-17.793-28.614-32.075-40.603zm-20.991-14.032c-5.58 17.197-11.51 35.593-11.76 54.635h-51.175l-16.012-54.49h-91.459l-18.125 57.65L0 397l104.269-285.159h49.733c3.745 38.477 26.056 55.42 50.661 73.044-21.496 56.538-.347 113.294 68.389 157.48zm-93.25-58.278-27.15-98.884-31.152 98.884h58.302zM512 326.815c-.181 35.479-26.293 69.279-65.698 70.185H350.38c-4.503-27.888-25.825-48.193-48.186-64.804 25.865-68.441-13.793-122.64-68.718-156.874 6.091-17.888 11.396-37.37 10.911-63.48h54.991c53.084 0 103.031-1.037 139.106 37.21 26.933 28.555 24.266 70.886-8.343 97.501 49.932 3.989 82.04 44.783 81.86 80.262zm-139.604-109.9c27.943.23 30.252-46.88-22.401-47.574h-44.11l13.777 47.725 52.734-.151zm20.32 72.765-51.968.492 15.65 50.473h57.542c34.823-6.576 23.614-49.62-21.223-50.965z"/></svg>