<svg version="1.1" xmlns="http://www.w3.org/2000/svg" width="512px" height="512px"><path d="M225.6244965,199.736618c47.6435699,36.1535797,68.9401093,62.9955292,54.6698151,117.8661652C219.7318573,278.4030457,215.5062256,238.1420898,225.6244965,199.736618z M212.7091522,160.5011139c3.8184204-12.9030457,7.8835907-28.7914124,7.1874084-48.6590424h-41.0063934C181.6753845,137.4302979,192.5904694,143.9138641,212.7091522,160.5011139z M294.042511,356.3984985c-4.4627686,14.1625366-7.9107361,27.4100647-7.8447876,40.6025391h39.9198303C320.2897949,379.3958435,308.3250427,368.3865051,294.042511,356.3984985z M273.0516052,342.3658752c-5.5786743,17.1968689-11.5091553,35.5933228-11.7597046,54.6351624h-51.1747894l-16.0116272-54.4907227l-91.4592972,0.0003662L84.5207901,400.160675L0,397.0010376l104.2685928-285.1589661h49.7338791c3.7441406,38.4765015,26.056015,55.4193726,50.6607056,73.0437927C183.1671906,241.4235992,204.3161316,298.1802979,273.0516052,342.3658752z M179.8019409,284.0879211l-27.1503296-98.8843994l-31.1514511,98.8843994H179.8019409z M511.9992371,326.8158569c-0.1812439,35.4790649-26.2930298,69.278656-65.6978455,70.1851807h-95.9222412c-4.5030212-27.8877869-25.825531-48.1927795-48.18573-64.8045349c25.864502-68.4404602-13.7938843-122.6400757-68.7185669-156.8739624c6.0916443-17.8879395,11.3961639-37.3691559,10.9113464-63.4804688h54.9912109c53.083252,0,103.0306396-1.0363159,139.1052856,37.2108765c26.9330139,28.55513,24.2663269,70.8863068-8.3428345,97.5012207C480.0718079,250.5428162,512.180481,291.3368225,511.9992371,326.8158569z M372.3955383,216.9145508c27.9433594,0.230896,30.2527771-46.880249-22.4009094-47.5730591h-44.1089783l13.7767334,47.7244873L372.3955383,216.9145508z M392.7165833,289.6802979l-51.9684143,0.4913025l15.6501465,50.4737854h57.5412903C448.7632446,334.0692749,437.5539551,291.0253906,392.7165833,289.6802979z"/></svg>