<svg xmlns="http://www.w3.org/2000/svg" width="444" height="512"><path fill-rule="evenodd" d="M221.702 512 0 384V128L221.702 0 444 128v256L221.702 512zM360.25 306.272l18.888 3.576c4.882 52.466-11.78 86.597-43.967 90.998-31.332 3.703-50.829-24.793-62.406-63.547-57.179 90.183-154.331 79.951-194.028 5.978-36.915-68.213-5.884-189.232 77.274-212.45 48.775-12.383 97.107 2.374 115.455 56.519l16.367-42.395c3.887-10.164 11.848-11.726 16.317-11.726l47.773.078 20.646 3.713-72.96 154.22c17.612 39.73 41.746 50.02 60.64 15.036zm-125.88-28.536c30.193-58.459-33.133-124.904-74.441-73.843-29.334 38.548-40.538 97.973-20.483 143.57 23.465 33.17 59.86-3.347 94.924-69.727z" clip-rule="evenodd"/></svg>