<svg xmlns="http://www.w3.org/2000/svg" width="512" height="512"><path d="M371.984 305.035c-13.512 50.421-65.335 80.346-115.76 66.832-50.413-13.507-80.338-65.337-66.829-115.755 13.512-50.42 65.335-80.341 115.753-66.832 50.425 13.513 80.345 65.333 66.836 115.755zm50.755-62.632c-11.252-37.641-8.781-85.581 1.538-125.371C436.646 69.336 403.557 16.19 355.01 3.183 305.54-10.07 250.636 19.276 237.63 68.714c-9.964 37.88-30.14 75.11-56.251 103.12-29.642 31.132-67.354 53.261-109.624 64.586-51.499 13.8-82.087 66.826-68.284 118.34 13.815 51.5 66.762 82.09 118.284 68.272 38.458-9.816 83.883-12.17 120.92-.59 44.85 14.024 75.184 31.778 109.082 64.938 36.67 35.872 97.125 30.817 131.917-3.967 35.313-35.3 38.553-96.17 3.28-132.798-29.76-30.902-50.321-61.734-64.216-108.212z"/></svg>