<svg xmlns="http://www.w3.org/2000/svg" width="512" height="512"><path d="M239.01 184.785c-20.468-43.397-28.554-113.315.466-114.501 31.963 2.856 12.484 68.746-.465 114.501zm-28.625 139.87c32.753-10.812 65.891-19.729 99.608-25.833-21.275-21.026-40.114-46.38-57.018-75.171-12.675 37.215-26.21 70.99-42.59 101.004zM76.567 430.778c22.463 18.02 62.65-33.144 92.16-83.083-54.638 23.06-114.911 58.88-92.16 83.083zM512 0v512H0V0h512zM319.07 297.193c-24.272-23.438-45.214-51.263-63.303-82.851 24.286-75.684 34.517-148.715-16.29-151.506-43.69 3.139-25.935 85.404-4.19 132.422-16.76 49.901-35.699 97.958-60.509 141.964-63.472 24.13-133.456 67.14-102.865 99.142 44.86 31.786 96.254-37.47 132.887-101.935 36.226-12.694 73.691-22.063 111.942-29.324 50.884 48.248 125.822 61.062 138.705 30.022 11.147-40.565-51.62-52.19-136.378-37.934zm7.214 6.283c41.448 36.107 96.592 54.22 105.192 22.342 7.551-35.495-61.321-28.92-105.192-22.342z"/></svg>