<svg xmlns="http://www.w3.org/2000/svg" width="512" height="512"><path d="M389.186 214.341c4.678 8.911 6.247 18.416 6.107 28.248h-67.587c4.105-26.449 14.979-42.58 36.555-42.095 12.549 0 20.857 4.622 24.925 13.847zm-248.688 36.002H198.1l-29.909-112.99c-3.756 25.557-16.927 69.1-27.693 112.99zM512 0v512H0V0h512zM274.413 365.548 195.228 98.582h-54.73c0 5.92-.38 12.376-1.108 14.955-.744 2.596-1.108 4.985-1.108 7.2L68.336 365.548h41.384l19.7-75.326h77.543l21.684 75.326h45.766zm161.852-120.744c0-17.724-5.176-35.447-15.508-53.171-10.35-17.724-28.802-26.586-55.388-26.586-25.858 0-45.971 10.16-60.371 30.463C277.833 231.333 275 299 303.89 338.408c13.656 20.32 36.365 30.464 68.126 30.464 17.393-.044 33.978-2.142 48.74-8.863 1.723-1.774 2.168-2.616 2.216-5.539v-29.909c-.05-2.074-1.187-2.16-3.323-2.214-21.615 10.563-53.033 10.187-68.928 1.022-14.79-8.527-23.485-26.35-23.015-47.547h63.141c11.078 0 19.94-.174 26.586-.554 6.647-.364 11.44-.918 14.4-1.662.728 0 1.282-.174 1.662-.554l1.662-1.662c0-2.215.173-5.712.554-10.524.363-4.794.554-10.142.554-16.062z"/></svg>