<svg version="1.1" xmlns="http://www.w3.org/2000/svg" width="512px" height="512px"><path d="M389.1856079,214.3411865c4.678833,8.9110718,6.2473755,18.4162598,6.1077881,28.2476196h-67.5869751c4.104187-26.4486694,14.9782104-42.5803833,36.5549316-42.0944824C376.8096924,200.4943237,385.1181641,205.1156616,389.1856079,214.3411865z M140.4976807,250.3427734l57.602478,0.000061l-29.9087524-112.9893799C164.4345703,162.909668,151.2641602,206.4528198,140.4976807,250.3427734z M512,0v512H0V0H512z M274.4125366,365.5483398L195.2279663,98.5823975c0,0-54.7299805,0-54.7302856,0c0,5.9193726-0.3803711,12.3753662-1.1077881,14.9546509c-0.7440796,2.5959473-1.1077881,4.9844971-1.1077881,7.2000732L68.3361816,365.5483398h41.3835449l19.7005615-75.3266602h77.5422363l21.6847534,75.3266602H274.4125366z M436.2645874,244.8044434c0-17.7241821-5.175293-35.4477539-15.5079956-53.171875c-10.3505249-17.7235718-28.8015137-26.5859375-55.3874512-26.5859375c-25.8584595,0-45.9711914,10.1603394-60.3713379,30.4631958C277.833313,231.333313,275,299,303.8900146,338.4084473c13.6560669,20.319519,36.3647461,30.4632568,68.1259155,30.4632568c17.3933105-0.0441284,33.9777832-2.1413574,48.7407227-8.8623657c1.7220459-1.774353,2.1677856-2.6159058,2.2155762-5.5390015v-29.9093018c-0.050293-2.0744629-1.1873169-2.1608276-3.3233643-2.2144165c-21.614563,10.5635376-53.0325317,10.187439-68.9280396,1.0223999c-14.7889404-8.5269165-23.4852905-26.3493042-23.0144043-47.5474854H390.84729c11.0779419,0,19.9391479-0.1735229,26.5859375-0.553894c6.6467896-0.3637085,11.4404907-0.9176025,14.4001465-1.6616821c0.727478,0,1.2813721-0.1735229,1.6617432-0.553894c0.3637085-0.3637085,0.9176025-0.9176025,1.6616821-1.6616821c0-2.2156372,0.1735229-5.7119751,0.553894-10.5241089C436.0744019,256.0719604,436.2645874,250.7237549,436.2645874,244.8044434z"/></svg>