<svg xmlns="http://www.w3.org/2000/svg" width="512" height="512"><path d="M167.796 154.298c5.586 26.531 20.946 81.222 27.23 106.357h-53.528c9.31-35.142 21.644-79.826 26.298-106.357zM512 0v512H0V0h512zM266.673 367.709l-73.968-249.018h-51.207c-.067 8.093-.624 15.525-2.327 21.41L73.769 367.71h39.157l18.798-69.818h72.843l19.394 69.818h42.712zm162.77-11.462c-.744-13.631-1.69-22.136-1.69-25.076V183.855h-39.331v147.781c-30.854 10.624-57.096 2.241-55.855-29.789V183.855H290.91v122.88c-1.028 74.08 68.934 77.908 138.535 49.512z"/></svg>