<svg version="1.1" xmlns="http://www.w3.org/2000/svg" width="512px" height="512px"><path d="M239.0107422,184.7854614c-20.4683838-43.3973999-28.5547485-113.3153076,0.4654541-114.5018311C271.4389038,73.1401978,251.9602661,139.0302124,239.0107422,184.7854614z M210.385437,324.654541c32.7529297-10.8120117,65.8909302-19.7285767,99.6072998-25.8327637c-21.2752075-21.0259399-40.1137695-46.3804321-57.0181885-75.1708984C240.2999878,260.8661499,226.765564,294.6415405,210.385437,324.654541z M76.5672607,430.7781372c22.4630737,18.0189209,62.6490479-33.1437988,92.1600342-83.0836182C114.0894775,370.7548218,53.8156738,406.5752563,76.5672607,430.7781372z M512,0v512H0V0H512z M319.0690918,297.192749c-24.270813-23.4373779-45.2133789-51.2626953-63.3018188-82.8509521c24.2859497-75.6836548,34.5166626-148.7144165-16.2908936-151.5054321c-43.6895142,3.1382446-25.9346313,85.4031372-4.1890869,132.421814c-16.7611084,49.9008179-35.6990356,97.9577637-60.5090942,141.963623c-63.4725952,24.1297607-133.4563599,67.140564-102.8654785,99.1418457c44.8603516,31.7860107,96.2546387-37.46875,132.8872681-101.9345703c36.2263794-12.6936035,73.6912842-22.0628662,111.9418335-29.3236084c50.8846436,48.2471924,125.8218384,61.0610962,138.7054443,30.0218506C466.59375,294.5623779,403.8265991,282.9360962,319.0690918,297.192749z M326.2836304,303.4763184c41.4484863,36.1070557,96.5924072,54.2191162,105.192749,22.3417969C439.0269775,290.322998,370.1547852,296.8987427,326.2836304,303.4763184z"/></svg>