<svg xmlns="http://www.w3.org/2000/svg" width="512" height="512"><path fill-rule="evenodd" d="M512 512H0V0h512v512zM406.41 217.014v-39.71c-6.54-2.912-43.991-13.625-73.578-2.335-42.62 16.262-41.089 65.252-24.916 84.479 20.955 24.912 73.082 34.2 64.552 58.652-4.417 12.662-25.038 14.866-43.218 10.615-16.93-3.958-31.65-13.986-31.65-13.986v42.045s14.55 8.112 32.408 10.042c22.893 2.473 51.589-2.197 65.965-14.975 25.59-22.747 29.52-73.137-18.975-96.536-40.355-19.47-39.691-25.027-39.408-35.014.38-13.376 28.464-21.61 68.82-3.277zM188.79 105.575c33.577 1.168 82.922 16.643 82.922 82.63s-60.374 87.64-115.463 82.922v93.433H115.21V106.45s40.001-2.043 73.579-.875zm10.657 124.675c17.696-6.457 29.198-20.338 29.198-41.9 0-22.861-11.705-38.342-29.607-42.715-19.386-4.737-42.789-1.945-42.789-1.945v90.044s32.395.458 43.198-3.484z" clip-rule="evenodd"/></svg>