<svg xmlns="http://www.w3.org/2000/svg" width="512" height="512"><path fill-rule="evenodd" d="M0 0h512v512H0V0zm193.164 125.673h-32.582V93.09h32.582v32.582zm162.909 32.582H323.49v-32.582h32.582v32.582zm-65.164 0h-32.582v-32.582h32.582v32.582zm-97.745 0v-32.582h32.581v32.582h-32.581zm32.581 32.581v-32.581h32.582v32.581h-32.582zm195.491 0v32.582h-32.581v-32.582h32.581zm-65.163 32.582H323.49v-32.582h32.582v32.582zm-97.746 0v-32.582h32.582v32.582h-32.582zM290.91 256v-32.582h32.582V256H290.91zm97.746 0h32.581v32.582h-32.581V256zm-65.164 32.582V256h32.582v32.582H323.49zm32.582 0h32.582v32.582h-32.582v-32.582zm32.582 65.163v-32.581h32.581v32.581h-32.581zm-32.582 0h32.582v32.582h32.581v32.582H90.764V93.091H128v32.582h32.582v32.582h32.582v32.581h32.581v32.582h32.582V256h32.582v32.582h32.582v32.582h32.582v32.581z" clip-rule="evenodd"/></svg>