<svg xmlns="http://www.w3.org/2000/svg" width="512" height="512"><path fill-rule="evenodd" d="M0 512V0h512v512H0zm418.168-158.676c-19.558 7.45-41.211 15.134-68.686 15.134-33.76 0-66.124-13.038-66.124-64.96V183.822h40.513v115.02c0 31.816 22.14 39.925 54.483 29.57v-144.59h40.28v143.89c.777 23.513 2.752 24.83-.466 25.612zM243.311 188.246c0-46.101-31.899-69.618-84.984-69.618-27.475 0-64.96 1.165-64.96 1.165v245.406h39.814v-98.954h25.844l53.258 98.954h45.397l-60.703-110.13c21.188-7.917 46.334-28.872 46.334-66.823zm-110.13-35.158v77.3h22.584c27.009 0 46.8-10.71 46.8-38.65-1.41-32.7-21.438-42.715-69.384-38.65z" clip-rule="evenodd"/></svg>