<svg version="1.1" xmlns="http://www.w3.org/2000/svg" width="512px" height="512px"><path fill-rule="evenodd" clip-rule="evenodd" d="M0,0h512v512H0V0z M193.1636353,125.6727142h-32.5818176V93.0908966h32.5818176V125.6727142z M356.0727234,158.2545319h-32.5818176v-32.5818176h32.5818176V158.2545319z M290.9090881,158.2545319h-32.5818176v-32.5818176h32.5818176V158.2545319z M193.1636353,158.2545319v-32.5818176h32.5818176v32.5818176H193.1636353z M225.7454529,190.8363495v-32.5818176h32.5818176v32.5818176H225.7454529z M421.2363586,190.8363495v32.5818176H388.654541v-32.5818176H421.2363586z M356.0727234,223.4181671h-32.5818176v-32.5818176h32.5818176V223.4181671z M258.3272705,223.4181671v-32.5818176h32.5818176v32.5818176H258.3272705z M290.9090881,255.9999847v-32.5818176h32.5818176v32.5818176H290.9090881z M388.654541,256h32.5818176v32.5818176H388.654541V256z M323.4909058,288.5818176V256h32.5818176v32.5818176H323.4909058z M356.0727234,288.5818176h32.5818176v32.5818176h-32.5818176V288.5818176z M388.654541,353.7454529v-32.5818176h32.5818176v32.5818176H388.654541z M356.0727234,353.7454529h32.5818176v32.5818176h32.5818176v32.5818176H90.7636337V93.0909195H128v32.5818176h32.5818176v32.58181h32.5818176v32.5818176h32.5818176v32.5818176h32.5818176V256h32.5818176v32.5818176h32.5818176v32.5818176h32.5818176V353.7454529z"/></svg>