<svg xmlns="http://www.w3.org/2000/svg" width="512" height="512"><path d="M84.182 207.851s9.534-7.775 25.87-21.914c36.904-23.44 40.96-9.022 93.972-7.596 12.233.33 24.631-13.487 27.357-31.834 2.034-13.687-3.994-36.407-.626-44.38 5.04-11.931 14.568-19.823 23.31-26.553 9.093-6.998 13.978-13.222 23.246-14.741 8.778-1.932 17.593 2.75 42.684-11.548 22.647-12.904 74.863-19.99 105.353-24.29 19.046-2.688 34.655 3.906 40.435 10.303-9.986 7.952-73.663 8.192-98.85 23.856 0 0 3.337 2.274 54.097-8.538 24.081-5.13 25.944.946 48.507-2.553 12.24-1.899 20.575 6.457 20.575 6.457-21.626 20.875-42.65 5.256-95.363 23.428 0 0 12.863-.192 28.628-2.52 16.693-2.464 30.279-7.918 51.707-7.686C504.219 68.06 512 77.385 512 77.385s-5.473 12.717-54.385 12.95c-32.62.155-60.013 11.34-60.013 11.34s6.57.362 17.623-1.092c16.492-2.169 39.525-7.033 48.868-7.73 15.606-1.165 30.674 10.175 30.674 10.175s-2.178 3.162-15.647 4.6c-13.47 1.44-60.793 8.915-60.793 8.915s24.949 6.541 41.234 6.18c11.399-.254 27.547 11.992 27.547 11.992-15.984 8.623-37.022 6.151-68.622.674 22.98 10.314 49.399 2.171 60.963 12.842-1.646 5.487-14.142 7.987-33.64 8.56 1.686 5.122-7.792 7.637-20.874 9.311-8.251 8.671-25.817 13.477-48.357 16.22-12.39 14.266-7.885 119.015-65.778 126.9-6.858-1.384-15.318-.451-27.933-12.165-.268 5.714 2.182 12.971 5.997 20.151 17.881 5.53 33.686-7.116 43.293-6.049 9.702 1.078 23.716 10.013 25.498 12.48 1.782 2.465 1.587 11.755-.45 13.515 3.893 4.962 3.216 8.263 9.01 13.967-8.32 3.094-8.794 15.429-18.472 13.065 2.728 3.008 8.847 7.939 8.847 7.939-3.511 8.33-8.357 13.444-16.13 11.505 0 0 2.057 4.423.895 11.462-1.16 7.039-13.715 10.885-13.715 10.885s-1.22 8.1-2.757 8.925c-5.007 2.685-13.49.59-15.53 1.524-3.097 1.42-2.975 7.692-5.006 8.853-2.032 1.161-7.257-.725-9.942-.145s-3.414 5.156-5.735 5.227c-2.32.07-7.762-3.267-11.754-5.444-4.571 2.757-7.692 4.063-10.957 3.918l-8.998-5.37s-8.78 1.524-13.353.218c-4.571-1.306-8.594-5.555-8.594-5.555-5.602.844-9.282-.061-16-3.786-1.84.166-4.272 9.907-6.839 19.846-.045 5.134 5.154 8.01 6.395 14.725 3.168-1.469 5.7-5.715 6.326-9.539 1.598 3.084 2.319 7.205.528 11.54.137.421.653.417 1.314-.556 0 0 .564-5.243 4.275-10.914 3.925-5.996 6.083-8.133 8.203-13 .556 7.056-3.993 19.626-3.993 19.626 5.31-2.335 13.23-9.357 19.035-10.475-2.328 8.56-10.587 10.212-15.243 16.144 12.99.376 12.39-10.212 30.561-11.413l-16.144 11.263s3.785 2.454 8.785-4.805c2.74-3.663 5.76-3.762 5.76-3.762s-4.033 7.741-2.23 7.591 5.406-6.007 19.297-6.307c-1.877 5.406-13.29 8.41-13.29 8.41s5.099.713 6.512.057c1.413-.657 8.077-4.948 12.216-10.753 0 0 1.666 2.978-3.584 9.894 0 0 .303.808 1.414.152 1.11-.656 6.663-5.25 13.63-4.24 0 0-3.938 2.22-5.2 5.149 3.029-.707 8.027.757 15.145-.455-6.714 5.3-16.39 7.716-24.88 5.292.236 2.157 8.73 6.969 14.62 6.522-10.413 3.103-13.332 1.025-19.223-6.311 0 0-2.077.052-1.025 1.078 1.052 1.025 3.234 3.077 4.313 5.364 0 0-4.937-1.764-4.372-.766.564 1 4.994 3.387 7.295 4.517 2.302 1.129 3.344 4.255 3.43 5.384.088 1.13.044 3.735-4.211-.825-1.51-1.618-6.644-3.472-10.726-6.687-3.436-2.706-5.298-6.47-5.298-6.47l-1.173.13c.88.722 1.219 1.425 1.687 2.658.549 3.127 8.027 11.672 10.58 13.737 1.608 1.3.023 1.496.023 1.496-3.815-2.735-7.306-.182-12.975-8.854.598 2.99.825 6.54-.076 8.785-2.625-7.878-7.333-14.463-15.262-18.3 0 0 3.924 4.521 6.552 6.886s4.393 4.506 4.994 5.031c-5.913-.442-13.034-3.476-20.988-8.297 2.52 3.441 6.167 9.423 9.65 15.919-4.28-3.116-8.786-3.754-15.694-14.717-.671.624-1.78 1.048-2.854.863 4.11 5.1 3.285 13.145-1.46 17.528 0 0-.606 1.403-1.243 2.64-1.584.365-.768-2.072-.768-2.072 2.837-2.682.207-13.356-2.99-17.379l-8.148-1.186c-.555 6.99-6.796 15.485-16.678 16.382-.815-.734 1.08-1.692 1.985-2.47-6.971-1.258-12.975 3.196-18.833-3.001-11.056.642-17.115-1.877-20.48-8.715l-2.55 1.126 3.266 5.857s1.296.026 3.126.113c1.774.084 2.647 2.168 3.632 2.928-1.154 1.774-4.956 1.634-5.012 2.169-.056.535 1.464 5.941 1.774 7.011.31 1.07-.032 2.188-.788 1.549-1.396-1.18-4.269-3.958-6.251-6.139-.967-1.063-1.355-1.969-1.965-2.506-2.54-2.236-3.864-1.257-3.864-1.257s-1.52 3.679-5.688.694-1.78-6.736-1.78-6.736c-.375.272-3.763-4.654-3.833-5.023-.085-.451-1.284.226-1.483 1.059-.2.832 4.336 16.275 4.336 16.275-3.297-6.87-7.551-9.258-11.919-14.708l-3.906-1.173c-2.996 5.368-7.606 7.59-12.652 5.239-1.9-2.382-6.147 1.33-11.902-2.198 0 0-2.309.901-.788 2.365-.84.532-2.69.316-5.069.057-3.322 2.421-9.235-1.915-9.235-1.915-.75 2.89-.898 6.627.563 9.349-3.774.337-6.436-6.538-5.52-12.165-2.657-1.206-4.62-3.136-6.42-5.237l-3.829 1.351c1.915 5.52.974 7.991 3.604 11.264 0 0-1.408 1.802-2.647-1.859-.856-2.529-5.688-9.292-5.688-9.292-16.97-3.079-16.79-10.667-23.427-15.543-6.849-1.66-13.973-2.437-20.078-2.74 0 0 1.632-4.351 3.99-5.741l15.23.967c4.554-2.989 7.278-5.833 9.787-8.946-3.925-6.545-7.191-13.377-9.381-19.217-.106 7.093-2.369 14.553-6.154 21.587-11.575-16.302-18.78-33.662-21.778-57.207.871 12.779 1.208 24.638.563 34.804 0 0-14.623-19.65-20.415-52.543-1.702-9.666.412-19.662-.07-30.255-.417-9.18-3.548-19.005-3.435-27.03.205-14.545.988-25.782 1.281-28.599 1.28-12.268 1.342-29.546 12.287-47.934 3.35-5.628 8.605-8.585 13.718-12.702 19.984-16.089 30.21-3.893 42.678-2.202 8.506 1.154 14.215-3.728 14.215-3.728zM185.496 403.89c-.676.075-.845 1.258-.845 1.258-.751-.75-1.502-.45-2.14-.45-.639 0-.225 1.126.826 2.627 1.051 1.502 0 1.727-.638 1.09s-.639.187-.639.187c.285 1.487 2.446 3.902.53 2.303-.243-.202-.296.369-.296 1.033 0 .664-1.549-.775-1.88-.148-.333.627 1.511 5.237 1.511 5.237-3.171.774-5.236-1.401-4.425 0 .811 1.401 2.533 4.903 2.42 6.067-3.61-.284-9.427-2.785-9.427-2.785-4.83 2.25-8.82.585-16.41-3.171-3.873 2.507-7.457 8.394-7.657 15.392 0 0-.886 2.8 1.714-.029 1.185-1.29 3.662-3.163 5.713-5.484 2.445-2.768 4.216-6.438 4.216-6.438-.028 3.199.298 6.908-1.692 12.336-1.472 4.017-4.524 7.699-4.524 7.699-.015.595.163 1.003.857.914 0 0 5.856-2.771 7.541-4.342.631-.588 1.9-2.817 4.047-4.757 3.585-3.239 8.465-6.555 8.465-6.555s1.511.129-.656 3.38c0 0-.71 3.586 1.83 1.569 1.249-.646-.298 4.82 1.832 2.354 3.406-3.626 6.95-7.363 7.584-8.743 0 0 1.682-1.906 1.346 1.494 0 0 .15 1.084.523 1.868.373.785-2.69 8.033-4.484 10.014-1.793 1.98-4.047 5.558-4.047 5.558 4.744-2.117 10.062-8.147 12.09-11.3 1.306-2.032 2.177-5.032 2.703-7.36 0 0 1.464 1.202 1.727 4.093.235.285.842-.03 1.014-1.089.212-1.312-.564-3.041 1.276-3.942-.676-2.516 1.126-4.205 1.126-4.205-.592-1.906-.334-3.033.714-4.017-.46-1.975.127-3.54 1.408-4.693-.113-1.577.094-2.741.882-3.717.564-1.374.591-2 .253-2.321l.986-1.434c.468-.68.21-3.093.901-5.519 2.027-2.252 3.21-8.447 3.21-8.447s-1.183 1.07-2.309 2.196c-1.126 1.126-4.73 1.859-6.758 1.859s-3.154.788-6.082 4.054c-.507 4.675-4.336 6.364-4.336 6.364zM72.212 426.65c-1.988-3.35-1.94-10.123-3.977-11.609.327 2.906-.715 8.197-2.162 14.27 1.245-.515 3.416-2.308 6.14-2.66zm87.584-71.624c-1.501 1.727-9.61-1.126-12.314-2.703-2.703-1.577-9.52-1.787-13.29-3.304-6.909-2.778-6.909-5.857-11.114-6.983-6.007 1.577-13.565-4.112-14.792-2.628.477 6.168-.836 10.79-7.059 16.144.305 7.09-1.104 12.563-5.631 15.093 1.231 6.427.457 12.711-3.454 18.772l-4.205-5.932c3.83 13.14-2.929 19.673-5.707 28.008l-4.13-9.01c.924 7.05-.61 15.743-4.88 23.877 0 0 9.316-1.17 11.595-1.322-7.75 4.407-7.092 7.042-23 15.35l-2.23 1.672c.963 1.368 4.408.862 7.144-.658 1.186-.659-.05-1.925 2.026-3.496 1.416-1.07 3.598-1.368 3.598-1.368s1.013 1.57 2.786 1.368c4.863-4.154 11.431-10.334 13.881-16.313 2.337.363 1.47 4.556.254 9.17 6.636-4.661 8.815-4.003 12.817-6.688 3.141 2.33-6.434 4.307-9.524 13.274 0 0-1.57 2.938 1.418.304 2.99-2.635 8.866-6.232 12.565-7.296.253-2.837 1.975-8.276 1.063-10.639 2.018-.234 2.668 3.51 2.99 8.208.899.794 1.752.484 2.583-.355.507 1.317-1.064 1.47-2.178 2.989 0 0 .882 1.207 3.698-.933 0 0 7.72-1.662 11.976-6.983 5.557-6.946 5.294-8.035 7.96-12.953 1.572-2.9-.245-4.802.6-5.557 6.665-17.449 14.935-33.757 24.554-49.108z"/></svg>