<svg version="1.1" xmlns="http://www.w3.org/2000/svg" width="512px" height="512px"><path d="M505.9067383,391.3167419c-1.9882202-1.2072144-4.0441284-2.4555664-4.4449768-2.7857971c-2.7047119-2.2290649-5.3686829-4.631134-7.9449463-6.954071c-3.5515137-3.202301-7.2239075-6.5136414-11.1118469-9.4763184c-1.2219543-0.9310303-2.4984741-1.8641357-3.7954407-2.6467285c10.8281555-6.5928955,21.0152893-11.00177,31.0691223-13.4526672c0.7668457-0.1868896,1.5579529-0.3283386,2.3213501-0.4414368v36.8015747c-1.4026794,0.0848083-2.6984253,0.1762695-3.9220276,0.2768555C507.3363953,392.1847839,506.6029663,391.739502,505.9067383,391.3167419z M334.6712341,368.9454346c0.0527954,0.238739,0.0791321,0.4535828,0.0915833,0.6474609c1.5794678,1.552002,3.085968,2.8637695,4.5900269,3.997467c0.5892029,0.3833618,1.1938171,0.7979736,1.7983704,1.2331238c1.6985474,1.131012,3.114502,1.9319153,4.4543152,2.5195923c2.3634033,1.0365295,4.4266968,1.5449219,6.3057556,1.5536499c-0.9069214-21.1407166-1.0591736-46.5664978-1.2201538-73.4483643c-0.2966614-49.5463562-0.6329346-105.7034607-5.954895-148.6080475c-6.01828-48.5173798-17.2938232-72.1024704-34.4709473-72.1030884c-1.7828979-0.000061-3.6660767,0.2585373-5.5970764,0.7685394c-25.2353821,6.6658325-58.4373016,10.3368149-93.4897308,10.3368149c-30.3443756,0-75.8174133-2.8103485-120.1284485-16.1987991C49.5760689,67.1125336,18.9527874,48.2956772,0,23.7037697l0.0000614,268.9431458c4.6186762-0.2954407,9.5692539-0.4340515,15.4223356-0.4340515c4.9925718,0,9.9637766,0.1021423,14.7712431,0.2009277c1.3553543,0.027832,2.7019901,0.0555725,4.038496,0.0807495c10.3425217,0.1950378,20.9237442,0.6860352,31.4640846,1.4597778c8.4638367-10.2627563,25.273941-24.5184021,57.6892166-35.4081421c16.0383759-5.3879547,32.3448486-8.1199036,48.4665375-8.1199036c12.0640411,0,23.9324646,1.5531006,35.2755432,4.6160889c37.770752,10.1995239,70.5679779,36.0386963,103.1838837,81.2988281c3.1065063,1.293396,6.3551636,4.48703,8.6299133,7.0718079c-0.6476746-2.3256836-1.2742615-4.524292-1.8992615-6.6658936c-6.65448-22.8026123-14.6377563-43.8547363-23.7279053-62.5716248c-15.2195435-31.3377991-32.0744019-54.4687653-51.5276794-70.7145844c-11.1168976-9.2838898-33.3225098-24.8586121-57.1380768-24.8596497c-1.7100372-0.000061-3.4225769,0.082077-5.0900116,0.2440491c-0.327713,0.037262-0.678833,0.0574036-1.0198212,0.0574036c-4.867691,0-7.6378937-3.9600983-7.8586731-7.871994c-0.2095337-3.7145844,1.9100647-7.9781494,7.0592499-8.5610962c2.0975494-0.1867523,4.1960907-0.2795258,6.2736969-0.2795258c17.9443207,0,36.2525177,6.7342224,54.4160156,20.0157166c18.4157562,13.4660492,32.1970062,30.3768463,40.515152,42.1921082c15.5446472,22.0800629,28.1781616,48.6380157,39.7585449,83.5795746C325.6146851,328.8337402,330.5695496,350.383606,334.6712341,368.9454346z M232.8213959,499.6643066c-0.7213287,0-1.4414215,0.0063171-2.1629333,0.0190125c-2.8770905,0.0505981-5.9026947,0.23172-9.4755096,0.5683899c-3.0326538,3.8323364-5.9365082,7.7721863-8.6596832,11.748291h74.8784332c-0.6366577-0.3006592-1.2580872-0.587677-1.8710022-0.8642578C268.9049072,503.631012,250.6782837,499.6643066,232.8213959,499.6643066z M391.27948,428.6816101c6.0384216,0,10.5497131-7.0609131,13.843811-12.2165527l0.482605-0.754303c2.0703735-3.2259216,4.0874329-6.5734253,6.038269-9.8106384c2.5160217-4.1755981,5.1177979-8.4933167,7.8818054-12.6326904c14.1216125-21.1487427,23.6819153-24.0001831,31.1713562-24.0001831c1.5512695,0,3.132843,0.1671753,4.7120056,0.4974976C474.1539307,354.1101379,492.6838684,344.1481934,512,339.3430786v-16.0788269c-1.6700745-0.8259583-3.2780457-1.7054443-4.8405457-2.5599365c-4.083252-2.2331848-7.940033-4.3424683-12.6175842-5.4407349c-3.2544861-0.7641296-6.5870056-1.1516724-9.9049683-1.1516724c-20.2616577,0-38.2507935,14.4998169-49.7738647,26.6635742c-14.3085938,15.104248-26.8860474,34.3274841-39.5820923,60.4964294l-0.023407,0.0480652c-3.7885437,7.80896-7.7018433,15.874939-10.9719238,24.1673889c1.5927734,1.5735474,3.1387939,2.4897461,4.9230652,2.9328918C389.9066772,428.593689,390.6033936,428.6816101,391.27948,428.6816101z M498.2315063,490.2285767c-13.388916,5.6862183-27.5002441,12.829071-43.0007324,21.7714233H512v-26.5100098C507.0099487,486.8546143,502.5917969,488.376709,498.2315063,490.2285767z M425.3007812,499.4590454l0.2105103-0.001709c1.5509033-0.0248108,4.0146179-0.8549805,6.6229858-1.7339172c3.3512878-1.129364,7.1496277-2.4093323,10.3510437-2.4093323c2.3826294,0,4.2497559,0.7137756,5.5494385,2.121521c1.4094849,1.5264587,1.6169434,3.3591614,1.4503784,5.1261597c9.816925-6.5220337,19.519165-12.5127869,28.8831787-17.833313C489.9494019,478.1482544,500.508606,472.3953247,512,468.8170471v-16.8721313c-0.1316223-0.0272522-0.262207-0.0543213-0.3916931-0.0812073c-0.8528442-0.1771851-1.6584778-0.3444824-2.3416748-0.4498596c-7.7167053-1.1896362-15.8641357-1.7928467-24.2159729-1.7928467c-7.2407227,0-14.8301392,0.4534607-22.5574036,1.3478699c-10.2573853,1.1871338-20.8169861,3.2503662-31.3879089,6.1326599c-14.4362183,8.6638184-11.4327087,33.0924072-9.9276123,41.4022217C422.2686157,499.1379395,423.6523132,499.4590454,425.3007812,499.4590454z M512,305.5908508V0h-77.7280884c-11.6720886,7.4448676-38.1645203,27.3103504-41.3017578,55.7893524c-2.2252502,20.1995316-8.6766357,269.3074951-10.6762085,355.6675415c0.6743774-1.5868225,1.3470154-3.1384583,2.0351868-4.6792908c10.5391235-23.5948486,21.3808899-42.9328918,33.1449585-59.1192932c21.4612122-29.5282288,38.2827148-38.4454041,49.0686951-42.5840454c6.9026489-2.6484985,14.0892029-3.9914551,21.3600769-3.9914551C495.7207642,301.0828247,503.6248779,302.5596619,512,305.5908508z M401.1506653,459.5325317c3.6091614-1.8826599,7.4124451-3.7037659,11.6066284-5.5572815c8.4682617-16.1976318,20.9973755-30.7404785,35.3268738-40.993988c11.2789917-8.0707703,23.9174194-13.662323,38.6065979-17.076355c0.3656006-4.1283875-0.5410156-7.4679565-2.700592-9.9382935c-2.4505005-2.8031921-6.4874573-4.3469543-11.3674927-4.3469543c-3.0109558,0-6.2440491,0.6000061-9.3497925,1.735199c-3.0959473,1.1316223-6.2703857,2.5321045-9.6998291,4.2796021c-20.5230103,17.1070557-39.6418762,38.1210022-56.8291321,62.4608765c-0.9249878,2.4291687-2.5976257,6.8633423-1.3722534,8.6340942c0.2004089,0.2896729,0.8099976,1.1706238,2.9428406,1.1706238C399.1213684,459.9000549,400.0508423,459.7796631,401.1506653,459.5325317z M512,435.8431396v-27.0612183c-0.6609802-0.0187683-1.3134155-0.0545654-1.9509583-0.0895691c-0.8413391-0.0461731-1.6360474-0.0898132-2.368103-0.0898132l-0.1881104,0.0010376c-15.0732422,0.166687-29.0137634,3.09552-41.434021,8.7050476c-14.3737488,6.4918518-27.7913818,17.2885132-38.1764526,30.6508484c23.3139343-8.1933289,48.1202087-12.3441162,73.8115234-12.3442383C505.1119995,435.6152344,508.571228,435.691803,512,435.8431396z M218.1866455,482.7236023c-18.8322754-4.7961121-34.8102264-7.1305237-48.7727203-7.1305237c-12.0540314,0-22.8657227,1.7673035-32.1347656,5.2528687c-1.0392303,0.4208069-2.1173248,0.6409607-3.1698151,0.6409607c-4.3018188,0-7.1706772-3.580719-7.781311-7.1177368c-0.7022324-4.0677185,1.3449783-7.5860901,5.2154999-8.9634094c9.583374-3.2192383,20.4962463-4.8471375,32.4608307-4.8471375c16.2374725,0,34.9786224,3.0162048,55.7027283,8.9648438c3.0140533,0.8651733,6.2578583,1.8719177,9.8934174,3.0707092c14.412323-11.5157166,28.5320282-18.34552,41.9784393-20.3037109c4.898407-0.7583008,17.2876892-3.117218,23.1791077-5.8934937c-4.875824-2.3903503-9.7303772-4.4091187-14.4644165-6.0137939c-14.416687-4.8869324-28.766449-7.408844-42.65065-7.4956665c-0.2998505-0.0018921-0.6005096-0.0028076-0.9005432-0.0028076c-15.528183-0.0001221-30.6141357,2.4609985-44.8387146,7.3150024c-1.2014313,0.4100647-2.6768188,1.1234741-4.2389526,1.8787537c-3.3673859,1.6283875-7.1839905,3.4739075-10.5986633,3.4739075c-0.6139374,0-1.2048645-0.0604858-1.7563171-0.1798096c-3.5195312-0.7618103-6.0051575-3.6321411-6.3323364-7.3123779c-0.3275909-3.6847534,1.6186829-6.9539185,4.958374-8.3286743c15.0740509-6.3076477,32.590683-9.3754883,53.5428009-9.3754883c6.6641693,0,13.5708466,0.3052673,21.114563,0.9332275c6.4182129,0.5341797,12.0974426,0.8049927,16.8800354,0.8049927c16.4429016,0,17.3446045-3.1721497,17.3748779-3.3072205c0.1922913-0.855835-1.4028931-3.019043-6.5854797-5.4711914l-0.059967-0.0283813l-0.0573425-0.0335693c-0.2958069-0.1733398-0.6802063-0.3950806-1.0291748-0.5733032c-9.4683228-4.8323975-19.4544983-8.7861023-29.6805573-11.7512512c-12.3604431-3.5838013-24.7378387-5.4011536-36.78862-5.4014587c-9.2161713-0.0001831-18.2914886,1.0728149-26.9739685,3.1893005c-9.4209747,2.2964783-18.8284607,5.9985657-27.9640808,11.0041504c-14.5600433,16.9994507-27.995575,39.1376648-39.9385376,65.8077393C107.3662186,489.8301697,103.1642303,501.1779175,100.2788544,512h43.2884369c19.9890747-13.483551,44.7906952-22.2330627,69.9508209-24.6784058L218.1866455,482.7236023z M293.5035706,462.1083069c-4.7232971-2.8439331-9.5757141-3.3801575-14.1224976-3.5219116c-2.2225647,0.2644043-4.0562439,0.5905457-5.7622681,1.0246582c-10.1026611,2.5702515-20.2217712,8.3619385-30.8748779,17.6808777c17.8566284,6.8173523,36.0757446,15.5748901,58.4962463,28.110199c1.5149841-4.2584534,2.7310181-8.9302979,3.6211853-13.916748C304.8018188,479.1054688,303.8786926,468.3557739,293.5035706,462.1083069z M198.6313171,504.3270569c-7.385498,1.9719238-14.6631165,4.5405273-21.7407227,7.6729431h16.1026459c0.2182617-0.4779663,0.474472-0.9147949,0.7730865-1.3196106C195.3208466,508.575592,196.9489136,506.449646,198.6313171,504.3270569z M116.9049606,438.7043762c-11.4611359,12.0882263-22.0529251,26.4790039-31.5902481,42.9377441C79.2779312,492.059845,74.3686142,502.7828369,70.3426437,512H83.451561c4.9470749-20.57724,15.0034943-40.5792542,24.229126-57.4843445C110.6285629,449.1136475,113.7129211,443.8276672,116.9049606,438.7043762z M274.1224976,376.0948486c-4.9735413-2.2328491-9.552063-3.9964294-13.9944153-5.3908386c-7.8893738-2.4761658-17.1880035-3.8398743-26.1828461-3.8398743c-3.1059113,0-6.1356201,0.1627502-9.0049133,0.4836731c-6.621994,0.7409058-14.7272797,2.662262-20.6491852,4.8950195c-9.8444824,3.711792-19.421051,9.1605835-28.544693,16.2337952c8.8646851-2.1094055,18.0254059-3.1759644,27.3220673-3.1759644c24.3227539,0,49.7184448,6.9590454,77.6342163,21.2741089c2.9433899,0.9047241,5.5387878,1.3634033,7.7162781,1.3634033c2.5661926,0,4.5647888-0.6400452,5.940155-1.9021912c1.0259094-0.9413757,1.657959-2.0238953,2.1598816-2.9320984C291.1136475,391.3270569,283.581665,382.2431335,274.1224976,376.0948486z M146.3314056,399.8283997l0.6604919-0.7109375c1.0017242-1.0799561,2.0375671-2.1967163,3.0969391-3.2725525c19.1668091-19.4646301,39.5576477-31.7660217,60.6051025-36.5626221c0.2848816-0.0822754,0.5389862-0.1644592,0.7644958-0.2446594c-0.0642853-0.0079651-0.1308899-0.0157776-0.1999054-0.0233765c-10.5660553-1.1651611-19.8023682-1.7315369-28.2368622-1.7315369c-1.6999512,0-3.3873291,0.0237732-5.0153503,0.0707397c-43.7891693,1.2623901-83.9879608,16.3554077-113.1914825,42.4987183C35.4439468,426.1454468,15.0298996,461.8154602,0.6600565,512h52.7514114c-0.0608406-1.1967773,0.142189-2.3753662,0.6061516-3.4794922c9.5460472-22.7148132,22.4001732-44.2469177,37.1728859-62.2686157C107.6790924,426.1370239,126.2296143,410.5193481,146.3314056,399.8283997z M302.2546082,352.1455078c0.4702148-2.4465942,0.5567932-5.0545959,0.5195923-8.2078857c-0.0037537-0.3177185-0.019104-0.6517639-0.0344543-0.9940491c-0.0210571-0.4679565-0.0426025-0.9475708-0.041626-1.4370117c-6.1270752-8.7380066-12.7108765-17.1125793-19.5745239-24.8985596c-14.5324097-16.4848938-30.8231964-29.6563721-48.4198303-39.1487732c-18.214325-9.8256226-38.9366302-15.019165-59.9267578-15.019165c-25.5462189,0-50.7083054,7.4155884-72.7660217,21.4451294c-5.4580612,3.4715576-10.5303268,7.4133606-15.4297028,11.9959412c7.4983444,0.835907,14.8109055,1.8021851,21.781311,2.8786926c24.3635254,3.7625122,45.0170746,8.4888306,63.1408386,14.4489136c22.4605865,7.3861694,41.4681396,16.7114563,58.1087341,28.5085449c1.1655273,0.7752991,11.3788147,4.7902527,19.2092285,4.7902527c1.5245667,0,2.8677673-0.1549988,3.9922638-0.4608154c6.0761414-1.6521912,14.0704956-3.5487976,22.0229187-3.5487976c8.164032,0,15.4377441,1.9484253,22.2367249,5.9565735C298.8320923,349.4915161,300.5151672,350.6884766,302.2546082,352.1455078z M92.4402618,365.7033997c17.4549408-8.5953979,36.2481537-14.4567261,55.8576813-17.4211121c10.251236-1.54953,20.9550629-2.3352661,31.8139191-2.3353271c3.1395569,0,6.3416595,0.065979,9.5173798,0.1960754c5.9248505,0.2427673,11.6092224,0.7050781,16.8952484,1.3741455c0.684494,0.0867004,1.3527222,0.1305847,1.9861908,0.1305847c3.1363525,0,5.4457855-1.0815735,5.8834076-2.7555237c0.3993225-1.5275574-0.7566833-4.0481873-5.1989746-6.5413818c-10.9342499-6.1367798-22.9043427-10.2626343-34.2110748-13.8070374c-23.9891357-7.52005-50.9696732-12.5457153-82.4832993-15.3641968c-5.7657242-0.5156555-11.7086258-0.95578-17.6792755-1.3093567c-1.9574509,3.116272-5.9399567,8.6774902-9.4254074,8.6774902c-0.9333878,0-1.7492638-0.3783569-2.3594055-1.0941772c-1.1761398-1.3797302-1.5022697-3.9440613-1.0031319-8.0057678c-7.8656654-0.3160706-15.0199509-0.4699097-21.8223839-0.4699097c-8.9654331,0-17.6211929,0.2662048-26.46175,0.8139038c-5.0504665,0.3127441-9.5640965,0.6854858-13.7493248,1.1359863v158.1146851c11.9763632-27.1571045,26.6814842-49.2485962,44.8174133-67.364563C58.6049843,385.9055786,74.6275787,374.474823,92.4402618,365.7033997z"/></svg>