<svg xmlns="http://www.w3.org/2000/svg" width="512" height="512"><path d="M505.907 391.317c-1.988-1.207-4.044-2.456-4.445-2.786-2.705-2.23-5.369-4.631-7.945-6.954-3.552-3.202-7.224-6.514-11.112-9.476-1.222-.931-2.499-1.865-3.795-2.647 10.828-6.593 21.015-11.002 31.069-13.453a25.917 25.917 0 0 1 2.321-.441v36.801a186.67 186.67 0 0 0-3.922.277c-.742-.453-1.475-.898-2.171-1.321zM334.67 368.945c.053.24.08.454.092.648 1.58 1.552 3.086 2.864 4.59 3.997.589.384 1.194.798 1.798 1.233 1.699 1.131 3.115 1.932 4.455 2.52 2.363 1.037 4.426 1.545 6.305 1.554-.907-21.141-1.059-46.567-1.22-73.449-.297-49.546-.633-105.703-5.955-148.608-6.018-48.517-17.294-72.102-34.47-72.103-1.784 0-3.667.259-5.598.769-25.235 6.666-58.437 10.337-93.49 10.337-30.344 0-75.817-2.81-120.128-16.2C49.576 67.114 18.953 48.297 0 23.704v268.944c4.619-.296 9.57-.434 15.422-.434 4.993 0 9.964.102 14.772.2 1.355.029 2.702.056 4.038.082 10.343.195 20.924.686 31.464 1.46 8.464-10.263 25.274-24.52 57.69-35.409 16.038-5.388 32.344-8.12 48.466-8.12 12.064 0 23.932 1.553 35.276 4.616 37.77 10.2 70.567 36.04 103.183 81.3 3.107 1.293 6.356 4.486 8.63 7.071a559.027 559.027 0 0 0-1.899-6.666c-6.654-22.803-14.638-43.855-23.728-62.572-15.22-31.337-32.074-54.468-51.528-70.714-11.116-9.284-33.322-24.859-57.138-24.86-1.71 0-3.422.082-5.09.244a9.17 9.17 0 0 1-1.02.058c-4.867 0-7.637-3.96-7.858-7.872-.21-3.715 1.91-7.978 7.06-8.561a70.832 70.832 0 0 1 6.273-.28c17.944 0 36.252 6.734 54.416 20.016 18.416 13.466 32.197 30.377 40.515 42.192 15.545 22.08 28.178 48.638 39.759 83.58 6.912 20.856 11.867 42.406 15.968 60.967zm-101.85 130.72c-.72 0-1.441.006-2.163.018-2.877.05-5.902.232-9.475.569a212.38 212.38 0 0 0-8.66 11.748h74.879c-.637-.3-1.258-.588-1.871-.864-16.626-7.505-34.853-11.472-52.71-11.472zm158.458-70.983c6.039 0 10.55-7.061 13.844-12.217l.483-.754c2.07-3.226 4.087-6.574 6.038-9.81 2.516-4.176 5.118-8.494 7.882-12.634 14.122-21.148 23.682-24 31.171-24 1.552 0 3.133.167 4.712.498 18.745-15.655 37.275-25.617 56.591-30.422v-16.079c-1.67-.826-3.278-1.705-4.84-2.56-4.084-2.233-7.94-4.342-12.618-5.44a43.394 43.394 0 0 0-9.905-1.152c-20.262 0-38.25 14.5-49.774 26.663-14.309 15.105-26.886 34.328-39.582 60.497l-.023.048c-3.789 7.809-7.702 15.875-10.972 24.167 1.592 1.574 3.138 2.49 4.923 2.933a8.606 8.606 0 0 0 2.07.262zm106.953 61.547c-13.39 5.686-27.5 12.829-43.001 21.771H512v-26.51c-4.99 1.365-9.408 2.887-13.768 4.739zm-72.931 9.23.21-.002c1.551-.024 4.015-.855 6.623-1.734 3.352-1.129 7.15-2.409 10.351-2.409 2.383 0 4.25.714 5.55 2.122 1.41 1.526 1.617 3.359 1.45 5.126 9.817-6.522 19.52-12.513 28.883-17.834 11.581-6.58 22.14-12.333 33.632-15.911v-16.872l-.392-.081a49.06 49.06 0 0 0-2.341-.45c-7.717-1.19-15.865-1.793-24.216-1.793-7.241 0-14.83.453-22.558 1.348-10.257 1.187-20.817 3.25-31.388 6.133-14.436 8.663-11.432 33.092-9.927 41.402 1.09.634 2.474.955 4.123.955zM512 305.591V0h-77.728C422.6 7.445 396.107 27.31 392.97 55.79c-2.225 20.199-8.676 269.307-10.676 355.667a280.044 280.044 0 0 1 2.035-4.68c10.54-23.594 21.381-42.932 33.145-59.119 21.461-29.528 38.283-38.445 49.069-42.584 6.902-2.648 14.089-3.991 21.36-3.991 7.818 0 15.722 1.477 24.097 4.508zM401.15 459.533c3.61-1.883 7.413-3.704 11.607-5.558 8.469-16.197 20.998-30.74 35.327-40.994 11.28-8.07 23.918-13.662 38.607-17.076.365-4.128-.541-7.468-2.7-9.938-2.451-2.804-6.488-4.347-11.368-4.347-3.011 0-6.244.6-9.35 1.735-3.096 1.131-6.27 2.532-9.7 4.28-20.523 17.107-39.642 38.12-56.83 62.46-.924 2.43-2.597 6.864-1.371 8.634.2.29.81 1.171 2.943 1.171.806 0 1.736-.12 2.836-.367zM512 435.843v-27.061a73.52 73.52 0 0 1-1.951-.09c-.841-.046-1.636-.09-2.368-.09l-.188.002c-15.073.166-29.014 3.095-41.434 8.705-14.374 6.491-27.792 17.288-38.177 30.65 23.314-8.193 48.12-12.344 73.812-12.344 3.418 0 6.877.077 10.306.228zm-293.813 46.88c-18.833-4.796-34.81-7.13-48.773-7.13-12.054 0-22.866 1.767-32.135 5.253a8.474 8.474 0 0 1-3.17.64c-4.301 0-7.17-3.58-7.781-7.117-.702-4.068 1.345-7.586 5.216-8.963 9.583-3.22 20.496-4.847 32.46-4.847 16.238 0 34.979 3.016 55.703 8.964 3.014.866 6.258 1.872 9.894 3.071 14.412-11.516 28.532-18.345 41.978-20.304 4.898-.758 17.288-3.117 23.18-5.893-4.877-2.39-9.731-4.41-14.465-6.014-14.417-4.887-28.767-7.409-42.651-7.495l-.9-.003c-15.529 0-30.615 2.46-44.84 7.315-1.2.41-2.676 1.123-4.238 1.878-3.368 1.629-7.184 3.474-10.599 3.474-.614 0-1.205-.06-1.756-.18-3.52-.761-6.005-3.632-6.333-7.312-.327-3.685 1.62-6.954 4.959-8.328 15.074-6.308 32.59-9.376 53.543-9.376 6.664 0 13.57.305 21.114.933 6.418.534 12.098.805 16.88.805 16.443 0 17.345-3.172 17.375-3.307.192-.856-1.403-3.019-6.585-5.471l-.06-.029-.058-.033c-.295-.173-.68-.395-1.029-.573a168.946 168.946 0 0 0-29.68-11.752c-12.36-3.583-24.738-5.4-36.789-5.401-9.216 0-18.292 1.073-26.974 3.19-9.421 2.296-18.828 5.998-27.964 11.003-14.56 17-27.996 39.138-39.939 65.808-6.404 14.301-10.606 25.649-13.491 36.471h43.288c19.99-13.484 44.791-22.233 69.951-24.678l4.669-4.598zm75.317-20.615c-4.724-2.844-9.576-3.38-14.123-3.522-2.222.265-4.056.59-5.762 1.025-10.103 2.57-20.222 8.362-30.875 17.68 17.857 6.818 36.076 15.576 58.496 28.111 1.515-4.258 2.731-8.93 3.621-13.917-.06-12.38-.982-23.13-11.357-29.377zm-94.873 42.22a148.265 148.265 0 0 0-21.74 7.672h16.102c.219-.478.475-.915.773-1.32a235.282 235.282 0 0 1 4.865-6.353zm-81.726-65.624c-11.461 12.089-22.053 26.48-31.59 42.938-6.037 10.418-10.946 21.14-14.972 30.358h13.109c4.947-20.577 15.003-40.58 24.229-57.484a317.963 317.963 0 0 1 9.224-15.812zm157.217-62.61c-4.973-2.232-9.552-3.996-13.994-5.39-7.89-2.476-17.188-3.84-26.183-3.84-3.106 0-6.135.163-9.005.484-6.622.74-14.727 2.662-20.649 4.895-9.844 3.712-19.42 9.16-28.545 16.234 8.865-2.11 18.026-3.176 27.323-3.176 24.322 0 49.718 6.959 77.634 21.274 2.943.904 5.539 1.363 7.716 1.363 2.566 0 4.565-.64 5.94-1.902 1.026-.941 1.658-2.024 2.16-2.932-5.405-11.777-12.937-20.86-22.397-27.01zm-127.79 23.734.66-.71c1.002-1.08 2.037-2.197 3.097-3.273 19.167-19.465 39.557-31.766 60.605-36.563.285-.082.539-.164.764-.244l-.2-.024c-10.566-1.165-19.802-1.731-28.236-1.731-1.7 0-3.388.023-5.016.07-43.789 1.263-83.988 16.356-113.191 42.5C35.444 426.144 15.03 461.814.66 512h52.751a7.902 7.902 0 0 1 .607-3.48c9.546-22.714 22.4-44.246 37.173-62.268 16.488-20.115 35.039-35.733 55.14-46.424zm155.923-47.682c.47-2.447.556-5.055.52-8.208-.005-.318-.02-.652-.035-.994a30.421 30.421 0 0 1-.042-1.437c-6.127-8.738-12.71-17.113-19.574-24.899-14.533-16.485-30.824-29.656-48.42-39.149-18.215-9.825-38.937-15.019-59.927-15.019-25.546 0-50.708 7.416-72.766 21.445-5.458 3.472-10.53 7.414-15.43 11.996a522.178 522.178 0 0 1 21.782 2.879c24.363 3.762 45.017 8.489 63.14 14.449 22.461 7.386 41.469 16.711 58.11 28.508 1.165.776 11.378 4.79 19.208 4.79 1.525 0 2.868-.154 3.993-.46 6.076-1.652 14.07-3.55 22.023-3.55 8.164 0 15.437 1.95 22.236 5.957 1.76 1.038 3.442 2.234 5.182 3.692zM92.44 365.703c17.455-8.595 36.248-14.456 55.858-17.42 10.251-1.55 20.955-2.336 31.814-2.336 3.14 0 6.342.066 9.517.196 5.925.243 11.61.705 16.895 1.374.685.087 1.353.13 1.987.13 3.136 0 5.445-1.08 5.883-2.755.4-1.527-.757-4.048-5.199-6.541-10.934-6.137-22.904-10.263-34.211-13.807-23.99-7.52-50.97-12.546-82.483-15.364a592.606 592.606 0 0 0-17.68-1.31c-1.957 3.117-5.94 8.678-9.425 8.678-.933 0-1.75-.379-2.36-1.094-1.175-1.38-1.502-3.944-1.002-8.006-7.866-.316-15.02-.47-21.823-.47-8.965 0-17.621.266-26.462.814-5.05.313-9.564.685-13.749 1.136v158.114c11.976-27.157 26.682-49.248 44.817-67.364 13.788-13.772 29.81-25.203 47.623-33.975z"/></svg>