<svg version="1.1" xmlns="http://www.w3.org/2000/svg" width="512px" height="512px"><path d="M493.0499573,320.1651917c8.9623413,17.0284424,7.6967468,40.8233948-16.949646,56.0593567c-6.0536499,51.63797-45.4847107,54.9645691-110.7042236,18.1896667h-57.8139038c0.6499023,14.0520325-29.7538147,82.5509338-57.8594208,82.1436157c-30.9200439-0.4481201-96.1172943-55.7404175-160.4256897-62.7362976c-107.099823-11.6510315-89.0842056-48.2857666-86.7194061-60.8995667c2.7550054-14.6951904,54.8668137-79.0921326,97.4791794-129.8208466c27.7782364-51.2624512,55.5802689-62.3739471,55.5802689-62.3739471s-6.8339233-80.6133957,4.0148621-101.324707c30.0237885-13.4434929,67.0495758,9.5888596,82.4147644,35.1028137h108.4822083c28.2313232-22.1484528,50.5735168-39.5198021,61.3919373-32.0070114c16.1322021,11.2029114,14.8614197,43.103714,3.1368103,82.0053024l48.9058228,42.2702484l-6.3671265,18.7155304L512,300.0875854L493.0499573,320.1651917z M340.9798279,203.6685486c-5.8938904-0.3123474-15.8893738,0.479248-22.4174805,2.7861176c5.1904297,14.1739807,28.7471619,31.342453,42.5218201,30.5439148c15.5505981-0.9014893,14.4617004-27.4500885,14.4617004-27.4500885s-5.1107788-1.4126129-8.854126-2.6482239c0.9411926,10.3531799-1.3725586,16.1622772-4.8843079,18.6213379c-3.9668579,2.7776489-11.7037659,1.7921448-16.4843445-2.5439606c-3.370636-3.0571594-3.8167725-10.0677338-2.9402161-15.5382385c1.2837219,2.3122406,3.3444519,4.2119293,6.4315796,4.4224243c4.1893921,0.2856445,5.1682434-5.8142548,5.1682434-5.8142548C350.5394287,203.9892731,345.7316895,203.8229675,340.9798279,203.6685486z"/></svg>