<svg xmlns="http://www.w3.org/2000/svg" width="512" height="512"><path d="M483.268 45.088 439.792 137.4C378.616 48.2 285.207 19.132 184.56 46.992 42.71 87.545 17.326 223.697 48.178 313.62l21.19-42.38c-15.986-93.484 37.38-170.888 123.797-195.58 109.389-36.34 207.374 33.11 236.542 105.408 10.457 23.993 14.732 45.68 14.746 74.82 1.593 185.156-258.64 269.236-355.905 83.942l73.381-155.77 15.026 33.062-37.621 80.72c-8.338 17.887 18.791 30.532 27.129 12.644l26.795-57.492 44.451 97.805c9.09 18.518 33.685 19.91 44.154.183l22.518-48.6 35.169 62.611c9.35 10.919 18.19 10.101 26.587-.952l63.088-133.955c-1.713-13.195-7.031-27.604-14.383-39.709l-34.05 72.297-57.444-108.57c-10.004-17.184-33.207-15.235-40.649.947l-51.3 109.524-50.68-111.51c-8.403-16.562-30.304-14.827-37.21-.136L1.535 454.301c-8.086 17.617 17.947 30.912 27.077 12.756l44.378-94.202c123.543 190.906 402.206 89.523 401.39-116.523l.003-.297c0-32.845-5.056-58.641-16.862-86.033l52.824-112.161c8.566-18.187-18.513-30.94-27.078-12.753zM334.58 237.2l30.797 58.206-13.948 29.617-31.531-56.133 14.682-31.69zm-30.98-58.555 13.735 25.96-57.43 122.688-12.77-28.098 56.465-120.55z"/></svg>