<svg version="1.1" xmlns="http://www.w3.org/2000/svg" width="512px" height="512px"><path d="M0,222.6131439c0,0,35.7719421,0.2313995,60.6776886-1.7551422c10.694397-0.8530121,36.1553497-10.9764099,64.6895676-17.1753082c17.2446518-3.7463074,37.8739395-6.8581238,47.3030167-8.2920227c6.2917023-0.9568024,10.5500641,0.261322,1.2413635,14.9617157c-11.2176819,17.7151031-7.5354156,39.9844513-1.5966034,54.0557861c10.6656799,25.2711182,49.7364655,36.1784973,76.9150696,36.9356079c43.3096008,1.2064819,64.8345642-11.5837097,79.2321167-32.5954285c9.486908-13.8451538-2.3898926-43.2001495-7.992981-62.4966431c-3.0393372-10.4671631,1.2147522-9.5956573,5.0011292-9.673233c14.2749023-0.29245,39.3483582,3.4685669,89.9967041,15.7545471C445.6239014,219.6483002,512,212.082428,512,212.082428c-63.8386536,26.03479-140.9492798,1.3961334-162.0999756-0.5016022c-2.6725769-0.2397919-4.137146,0.2507324-4.9988098,6.0402679c-1.4867249,18.1389923,3.2450867,43.4619446-4.6322632,56.5411987c-16.1356506,26.7910156-47.1114502,37.2857666-76.4962463,41.974823c-23.569046,3.7610168-65.5335846-7.6623535-88.0078125-24.572052c-18.5902405-13.9873352-23.8197784-36.6071625-20.8109589-76.9754181c-24.571991-4.7639618-50.6698532,4.9920197-58.5255203,6.7676849C35.4564552,235.1392517,0,222.6131439,0,222.6131439z M250.6154327,224.9520264c-12.6756592,0.5437317-21.9066315,7.0802917-25.752655,19.8851929c-5.5393219,18.4425659,1.2985535,45.2455139,25.8168488,46.7692261c0,0,12.4904785-0.2111511,19.0106201-14.3807983c2.2567444-4.9044495,2.1525574-11.668457,2.8163757-20.4187927C275.0883179,222.775528,250.6154327,224.9520264,250.6154327,224.9520264z M256.7817993,278.8685303c-12.4390259,8.4491577-24.813858-12.2043457-24.5791473-19.2453003c0.2346954-7.0409546,5.792923-25.4471893,17.1329956-24.3444519C261.7514954,236.4861145,271.8025208,267.6029968,256.7817993,278.8685303z M73.676445,245.8269958c-1.5814056-4.8759918-23.8528099,3.1628113-23.8528099,3.1628113c-25.8754787,7.1160278-37.4428711,11.4980469,2.3721046,6.0620422C52.1957397,255.0518494,75.3373718,250.9481964,73.676445,245.8269958z M80.8402252,275.4430847c7.8932419-6.2382202,29.4126968-17.0983582,25.2074509-19.8604126c-7.5113144-9.8029022-47.9805183,29.5205078-50.7813454,46.7073975C55.2663307,302.2900696,73.7457581,281.0499878,80.8402252,275.4430847z M126.0700226,288.5267944c7.1472626-6.1931763,13.040802-12.8422546,13.1910553-16.1965942c0.1168671-2.6089172-3.6474609-5.8110657-7.201767-2.3278503c-10.9117889,10.6935425-21.9690552,27.4976807-17.531601,42.5559387C114.52771,312.5582886,113.3637924,299.5368958,126.0700226,288.5267944z M360.639801,275.6852722c-7.5220337,6.7698364,19.3901367,12.3695679,25.9490356,36.9428711c5.480011,0.1472778-2.8580933-24.8259583-16.6718445-34.4355164C362.5040283,273.0357971,360.639801,275.6852722,360.639801,275.6852722z M440.5320129,298.750946c-9.9508057-15.7441101-24.4587402-30.2667236-33.8782043-36.750824c-14.5612183-10.0234833-15.470459-3.7763367-11.1201172,0.1036987c4.6385803,4.1371155,27.8332825,19.1536255,39.2399597,35.5625305C447.1654053,315.4923401,442.5778198,301.9878235,440.5320129,298.750946z M487.0371399,248.6504517c0,0-61.0084229-11.754715-62.7292175-4.7932587C422.0155029,253.1311188,487.0371399,248.6504517,487.0371399,248.6504517z"/></svg>