<svg xmlns="http://www.w3.org/2000/svg" width="512" height="512"><path d="M0 222.613s35.772.232 60.678-1.755c10.694-.853 36.155-10.976 64.69-17.175 17.244-3.747 37.873-6.858 47.302-8.292 6.292-.957 10.55.261 1.242 14.961-11.218 17.715-7.536 39.985-1.597 54.056 10.666 25.271 49.736 36.179 76.915 36.936 43.31 1.206 64.835-11.584 79.232-32.596 9.487-13.845-2.39-43.2-7.993-62.496-3.04-10.467 1.215-9.596 5.001-9.674 14.275-.292 39.349 3.469 89.997 15.755 30.157 7.315 96.533-.25 96.533-.25-63.839 26.034-140.95 1.396-162.1-.502-2.673-.24-4.137.25-4.999 6.04-1.487 18.14 3.245 43.462-4.632 56.541-16.136 26.791-47.111 37.286-76.496 41.975-23.57 3.761-65.534-7.662-88.008-24.572-18.59-13.987-23.82-36.607-20.811-76.975-24.572-4.764-50.67 4.992-58.526 6.767C35.456 235.14 0 222.613 0 222.613zm250.615 2.339c-12.675.544-21.906 7.08-25.752 19.885-5.54 18.443 1.298 45.246 25.817 46.77 0 0 12.49-.212 19.01-14.381 2.257-4.905 2.153-11.669 2.817-20.42 2.581-34.03-21.892-31.854-21.892-31.854zm6.167 53.917c-12.44 8.449-24.814-12.205-24.58-19.246.235-7.04 5.794-25.447 17.134-24.344 12.415 1.207 22.467 32.324 7.446 43.59zM73.676 245.827c-1.581-4.876-23.852 3.163-23.852 3.163-25.876 7.116-37.443 11.498 2.372 6.062 0 0 23.141-4.104 21.48-9.225zm7.164 29.616c7.893-6.238 29.413-17.098 25.208-19.86-7.512-9.803-47.98 29.52-50.782 46.707 0 0 18.48-21.24 25.574-26.847zm45.23 13.084c7.147-6.193 13.04-12.842 13.191-16.197.117-2.609-3.647-5.81-7.202-2.328-10.911 10.694-21.969 27.498-17.531 42.556 0 0-1.164-13.021 11.542-24.031zm234.57-12.842c-7.522 6.77 19.39 12.37 25.949 36.943 5.48.147-2.858-24.826-16.672-34.435-7.413-5.157-9.277-2.508-9.277-2.508zm79.892 23.066c-9.95-15.744-24.459-30.267-33.878-36.75-14.561-10.024-15.47-3.777-11.12.103 4.638 4.137 27.833 19.153 39.24 35.562 12.391 17.826 7.804 4.322 5.758 1.085zm46.505-50.1s-61.008-11.755-62.73-4.794c-2.291 9.274 62.73 4.793 62.73 4.793z"/></svg>