<svg xmlns="http://www.w3.org/2000/svg" width="512" height="512"><path d="M256 0C114.615 0 0 114.615 0 256s114.615 256 256 256 256-114.615 256-256S397.385 0 256 0zm138.2 389.825c-5.613 2.509-14.055 3.692-19.931.754l-160.49-88.942 113.761.292-70.955-158.787-103.73 233.99c-5.48 12.993-17.64 18.347-31.73 13.618-18.25-6.125-19.576-21.26-13.98-33.882L222.201 97.33l.068-.153c6.166-13.66 19.84-22.359 34.817-22.13a37.586 37.586 0 0 1 34.005 22.758L406.825 356.8c5.633 12.605-.02 27.39-12.626 33.024z"/></svg>