<svg xmlns="http://www.w3.org/2000/svg" width="512" height="512"><path d="M511.986 256.111c-.762-132.914-19.515-195.426-253.053-187.607C25.668 63.117 2.938 126.352.003 256.111c-.45 162.767 67.408 189.635 258.93 187.607 212.51 5.111 253.934-34.103 253.053-187.607zm-253.053 161.56c-183.946 0-232.884-16.39-232.884-161.56 0-145.169 49.904-161.56 232.884-161.56s227.007 9.007 227.007 161.56-43.062 161.56-227.007 161.56zM442.79 190.473c-8.663-4.995-8.663-17.548 0-22.543 8.663-4.994 19.55 1.283 19.55 11.271 0 9.99-10.887 16.266-19.55 11.272zm-21.15-43.832c0-9.988-10.887-16.265-19.55-11.27-8.663 4.994-8.663 17.547 0 22.542 8.663 4.994 19.55-1.283 19.55-11.272zM68.37 224.784c0-9.988-10.887-16.265-19.55-11.27s-8.663 17.547 0 22.542 19.55-1.283 19.55-11.272zm78.143-6.51c0-9.99-10.887-16.266-19.55-11.272s-8.663 17.548 0 22.543 19.55-1.283 19.55-11.272zm-9.767-81.4c0-9.988-10.887-16.265-19.55-11.27s-8.663 17.547 0 22.542 19.55-1.283 19.55-11.272zm242.57-13.024c0-9.988-10.888-16.265-19.551-11.27-8.663 4.994-8.663 17.547 0 22.542 8.663 4.994 19.55-1.283 19.55-11.272zm-32.56 19.535c0-9.988-10.888-16.265-19.551-11.27-8.663 4.994-8.663 17.547 0 22.542s19.55-1.283 19.55-11.272zM327.217 301.3c0-9.988-10.887-16.265-19.55-11.27-8.663 4.994-8.663 17.547 0 22.542 8.663 4.994 19.55-1.283 19.55-11.272zm-35.815 13.023c0-9.988-10.887-16.265-19.55-11.27-8.663 4.994-8.663 17.547 0 22.542 8.663 4.994 19.55-1.283 19.55-11.272zm-100.935-47.21c0-9.99-10.887-16.266-19.55-11.272-8.663 4.995-8.663 17.548 0 22.543 8.663 4.994 19.55-1.283 19.55-11.272zm17.908-39.073c0-9.988-10.887-16.265-19.55-11.27s-8.663 17.547 0 22.542 19.55-1.283 19.55-11.272zm37.443 13.024c0-9.988-10.887-16.265-19.55-11.27-8.663 4.994-8.663 17.547 0 22.542s19.55-1.283 19.55-11.272zm55.352-122.098c0-9.988-10.887-16.265-19.55-11.27-8.663 4.994-8.663 17.547 0 22.542 8.663 4.994 19.55-1.283 19.55-11.272zm-55.35 29.304c0-9.988-10.887-16.265-19.55-11.27-8.663 4.994-8.663 17.547 0 22.542s19.55-1.283 19.55-11.272zm-65.119 6.512c0-9.988-10.887-16.265-19.55-11.27s-8.663 17.547 0 22.542c8.663 4.994 19.55-1.283 19.55-11.272zm32.56 34.188c0-9.988-10.887-16.265-19.55-11.27s-8.663 17.547 0 22.542 19.55-1.283 19.55-11.272zm48.84 1.628c0-9.988-10.888-16.265-19.551-11.27s-8.663 17.547 0 22.542 19.55-1.283 19.55-11.272zm29.303-30.932c0-9.988-10.887-16.265-19.55-11.27-8.663 4.994-8.663 17.547 0 22.542 8.663 4.994 19.55-1.283 19.55-11.272zm-83.027-37.443c0-9.988-10.887-16.265-19.55-11.27-8.663 4.994-8.663 17.547 0 22.542s19.55-1.283 19.55-11.272zm83.027 115.586c0-9.988-10.887-16.265-19.55-11.27-8.663 4.994-8.663 17.547 0 22.542 8.663 4.994 19.55-1.283 19.55-11.272zm-19.536 37.444c0-9.988-10.887-16.265-19.55-11.27-8.663 4.994-8.663 17.547 0 22.542 8.663 4.994 19.55-1.283 19.55-11.272zm187.218-48.84c0-9.988-10.887-16.265-19.55-11.27-8.663 4.994-8.663 17.547 0 22.542 8.663 4.994 19.55-1.283 19.55-11.272zm-37.444-11.395c0-9.988-10.887-16.265-19.55-11.27-8.663 4.994-8.663 17.547 0 22.542 8.663 4.994 19.55-1.283 19.55-11.272zM94.417 162.921c0-9.988-10.887-16.265-19.55-11.27s-8.663 17.547 0 22.542 19.55-1.283 19.55-11.272zm16.28 55.352c0-9.988-10.887-16.265-19.55-11.27s-8.663 17.547 0 22.542 19.55-1.283 19.55-11.272zm27.676-43.956c0-9.988-10.887-16.265-19.55-11.27-8.663 4.994-8.663 17.547 0 22.542s19.55-1.283 19.55-11.272zm231.173 4.884c0-9.988-10.887-16.265-19.55-11.27-8.663 4.994-8.663 17.547 0 22.542 8.663 4.994 19.55-1.283 19.55-11.272zm-45.584 6.512c0-9.988-10.887-16.265-19.55-11.27-8.663 4.994-8.663 17.547 0 22.542 8.663 4.994 19.55-1.283 19.55-11.272zm3.256 37.443c0-9.988-10.887-16.265-19.55-11.27-8.663 4.994-8.663 17.547 0 22.542 8.663 4.994 19.55-1.283 19.55-11.272zm-17.907 39.072c0-9.988-10.887-16.265-19.55-11.27-8.663 4.994-8.663 17.547 0 22.542 8.663 4.994 19.55-1.283 19.55-11.272zm-74.888 32.56c0-9.988-10.887-16.265-19.55-11.27-8.663 4.994-8.663 17.547 0 22.542 8.663 4.994 19.55-1.283 19.55-11.272zm218.15-17.908c0-9.988-10.887-16.265-19.55-11.27-8.663 4.994-8.663 17.547 0 22.542s19.55-1.283 19.55-11.272zm-43.956-11.396c0-9.988-10.887-16.265-19.55-11.27-8.663 4.994-8.663 17.547 0 22.542 8.663 4.994 19.55-1.283 19.55-11.272zM79.765 328.975c0-9.988-10.887-16.265-19.55-11.27s-8.663 17.547 0 22.542 19.55-1.283 19.55-11.272zm70.003 37.444c0-9.988-10.887-16.265-19.55-11.27s-8.663 17.547 0 22.542 19.55-1.283 19.55-11.272zm-9.767-84.655c0-9.988-10.887-16.265-19.55-11.27s-8.663 17.547 0 22.542S140 291.753 140 281.764zm236.057-53.724c0-9.988-10.887-16.265-19.55-11.27-8.663 4.994-8.663 17.547 0 22.542 8.663 4.994 19.55-1.283 19.55-11.272zm-35.816 146.52c0-9.99-10.887-16.266-19.55-11.272-8.663 4.995-8.663 17.548 0 22.543 8.663 4.994 19.55-1.283 19.55-11.272zM188.84 343.626c0-9.988-10.887-16.265-19.55-11.27s-8.663 17.547 0 22.542 19.55-1.283 19.55-11.272zm50.467-6.512c0-9.988-10.887-16.265-19.55-11.27s-8.663 17.547 0 22.542 19.55-1.283 19.55-11.272zm-66.747-34.187c0-9.988-10.887-16.265-19.55-11.27-8.663 4.994-8.663 17.547 0 22.542s19.55-1.283 19.55-11.272zm281.641 19.535c0-9.988-10.887-16.265-19.55-11.27-8.663 4.994-8.663 17.547 0 22.542 8.663 4.994 19.55-1.283 19.55-11.272zm-42.328-9.768c0-9.988-10.887-16.265-19.55-11.27-8.663 4.994-8.663 17.547 0 22.542 8.663 4.994 19.55-1.283 19.55-11.272zM89.533 276.88c0-9.988-10.887-16.265-19.55-11.27s-8.663 17.547 0 22.542 19.55-1.283 19.55-11.272zm14.652 92.795c0-9.988-10.887-16.265-19.55-11.27s-8.663 17.547 0 22.542 19.55-1.283 19.55-11.272zm21.164-52.096c0-9.988-10.887-16.265-19.55-11.27-8.663 4.994-8.663 17.547 0 22.542s19.55-1.283 19.55-11.272zm244.197-42.327c0-9.988-10.887-16.265-19.55-11.27-8.663 4.994-8.663 17.547 0 22.542 8.663 4.994 19.55-1.283 19.55-11.272zm0 53.723c0-9.988-10.887-16.265-19.55-11.27-8.663 4.994-8.663 17.547 0 22.542 8.663 4.994 19.55-1.283 19.55-11.272zM266.983 374.56c0-9.988-10.887-16.265-19.55-11.27-8.663 4.994-8.663 17.547 0 22.542 8.663 4.994 19.55-1.283 19.55-11.272zm-117.215-8.14c0-9.988-10.887-16.265-19.55-11.27s-8.663 17.547 0 22.542 19.55-1.283 19.55-11.272zm169.31-19.536c0-9.988-10.887-16.265-19.55-11.27-8.663 4.994-8.663 17.547 0 22.542 8.663 4.994 19.55-1.283 19.55-11.272zm105.82 16.28c0-9.988-10.888-16.265-19.551-11.27-8.663 4.994-8.663 17.547 0 22.542 8.663 4.994 19.55-1.283 19.55-11.272zm-48.84 22.792c0-9.988-10.887-16.265-19.55-11.27-8.663 4.994-8.663 17.547 0 22.542 8.663 4.994 19.55-1.283 19.55-11.272zm-70.003 4.884c0-9.988-10.887-16.265-19.55-11.27s-8.663 17.547 0 22.542c8.663 4.994 19.55-1.283 19.55-11.272zm-91.167-3.256c0-9.988-10.887-16.265-19.55-11.27-8.663 4.994-8.663 17.547 0 22.542s19.55-1.283 19.55-11.272z"/></svg>