<svg version="1.1" xmlns="http://www.w3.org/2000/svg" width="512px" height="512px"><path d="M511.9863892,256.1113892C511.2242126,123.1968384,492.47052,60.6845512,258.9327698,68.5044403C25.6681118,63.1173363,2.9377339,126.3515854,0.0022166,256.1113892c-0.44951,162.7669373,67.4092331,189.6348267,258.930542,187.6068726C471.4436646,448.8289795,512.8666992,409.614624,511.9863892,256.1113892z M258.9327698,417.6713867c-183.9454956,0-232.8836975-16.3905945-232.8836975-161.5599976c0.000061-145.1694183,49.9042816-161.5600281,232.8836975-161.5600281s227.0067749,9.0067444,227.0067749,161.5600281S442.8781738,417.6713867,258.9327698,417.6713867z M442.7906189,190.47258c-8.6630859-4.9943542-8.6630859-17.5480347,0-22.5424042c8.6630554-4.9943542,19.5506897,1.282486,19.5506897,11.2712097C462.3413086,189.190094,451.4536743,195.4669342,442.7906189,190.47258z M421.6412964,146.6413727c0-9.9887085-10.8876038-16.2655487-19.5506897-11.2711945c-8.6630554,4.9943542-8.6630554,17.5480347,0,22.5423889C410.7536926,162.9069366,421.6412964,156.6300964,421.6412964,146.6413727z M68.3693085,224.7843781c0-9.9887085-10.8876305-16.2655487-19.5506973-11.2711945s-8.6630669,17.5480347,0,22.5423889S68.3693085,234.7730865,68.3693085,224.7843781z M146.5123138,218.2733765c0-9.9887085-10.8876343-16.2655487-19.550705-11.2711945s-8.663063,17.5480347,0,22.5423889S146.5123138,228.262085,146.5123138,218.2733765z M136.7453156,136.8743744c0-9.9887085-10.8876343-16.2655487-19.550705-11.2711945s-8.663063,17.5480347,0,22.5423889S136.7453156,146.8630981,136.7453156,136.8743744z M379.3143005,123.8503799c0-9.9887161-10.8876343-16.2655563-19.5506897-11.2711945c-8.6630554,4.9943542-8.6630554,17.548027,0,22.5423813C368.4266663,140.1159363,379.3143005,133.8390961,379.3143005,123.8503799z M346.754303,143.385376c0-9.9887085-10.8876343-16.2655487-19.5506897-11.2711945c-8.6630859,4.9943542-8.6630554,17.5480347,0,22.5423889S346.754303,153.3740845,346.754303,143.385376z M327.2183228,301.3003845c0-9.9887085-10.8876343-16.265564-19.5507202-11.2712097c-8.6630554,4.9943542-8.6630554,17.5480347,0,22.5423889C316.3306885,317.565918,327.2183228,311.289093,327.2183228,301.3003845z M291.4033203,314.3233643c0-9.9887085-10.8876343-16.2655334-19.5507202-11.2711792c-8.6630554,4.9943542-8.6630554,17.5480347,0,22.5423889C280.515686,330.5889282,291.4033203,324.3121033,291.4033203,314.3233643z M190.4683075,267.1123657c0-9.9887085-10.8876343-16.2655334-19.550705-11.2711792c-8.6630554,4.9943542-8.6630554,17.5480347,0.0000153,22.5423889C179.5806732,283.3779297,190.4683075,277.1011047,190.4683075,267.1123657z M208.3763123,228.0403748c0-9.9887085-10.8876343-16.2655487-19.550705-11.2711945s-8.6630707,17.5480347,0,22.5423889S208.3763123,238.0290985,208.3763123,228.0403748z M245.8193054,241.0643768c0-9.9887085-10.8876343-16.2655487-19.5506897-11.2711945c-8.6630707,4.9943542-8.6630707,17.5480347,0,22.5423889S245.8193054,251.0530853,245.8193054,241.0643768z M301.1712952,118.9663773c0-9.9887085-10.8876038-16.2655487-19.5506897-11.2711945c-8.6630554,4.9943542-8.6630554,17.5480347,0,22.5423965C290.2836914,135.2319336,301.1712952,128.9550934,301.1712952,118.9663773z M245.8193054,148.2693787c0-9.9887085-10.8876343-16.2655487-19.5506897-11.2711945c-8.6630707,4.9943542-8.6630707,17.5480347,0,22.5423889S245.8193054,158.2580872,245.8193054,148.2693787z M180.7003174,154.7813721c0-9.9887085-10.8876343-16.2655487-19.550705-11.2711945s-8.6630707,17.5480347,0,22.5424042C169.8126831,171.046936,180.7003174,164.7700958,180.7003174,154.7813721z M213.2603149,188.9693756c0-9.9887085-10.8876343-16.2655487-19.550705-11.2711945s-8.6630707,17.5480347,0,22.5423889S213.2603149,198.9580841,213.2603149,188.9693756z M262.0993042,190.5973816c0-9.9887085-10.887619-16.2655487-19.5506897-11.2711945s-8.6630707,17.5480347,0,22.5423889S262.0993042,200.5860901,262.0993042,190.5973816z M291.4033203,159.6653748c0-9.9887085-10.8876343-16.2655487-19.5507202-11.2711945c-8.6630554,4.9943542-8.6630554,17.5480347,0,22.5423889C280.515686,175.9309235,291.4033203,169.6540985,291.4033203,159.6653748z M208.3763123,122.2223816c0-9.9887161-10.8876343-16.2655563-19.550705-11.2712021c-8.6630707,4.9943619-8.6630707,17.5480423,0,22.5423965S208.3763123,132.2110901,208.3763123,122.2223816z M291.4033203,237.8083801c0-9.9887085-10.8876343-16.2655487-19.5507202-11.2711945c-8.6630554,4.9943542-8.6630554,17.5480347,0,22.5423889C280.515686,254.0739288,291.4033203,247.7970886,291.4033203,237.8083801z M271.8673096,275.2523804c0-9.9887085-10.8876343-16.265564-19.550705-11.2712097c-8.6630554,4.9943542-8.6630554,17.5480347,0.0000153,22.5423889C260.9796753,291.5179138,271.8673096,285.2410889,271.8673096,275.2523804z M459.0852966,226.412384c0-9.9887238-10.8876038-16.265564-19.5506897-11.2711945c-8.6630554,4.9943542-8.6630554,17.5480347,0,22.5423889C448.1976929,242.6779327,459.0852966,236.4010925,459.0852966,226.412384z M421.6412964,215.0173798c0-9.9887085-10.8876038-16.2655487-19.5506897-11.2711945c-8.6630554,4.9943542-8.6630554,17.5480347,0,22.5423889C410.7536926,231.2829285,421.6412964,225.0060883,421.6412964,215.0173798z M94.4173126,162.9213715c0-9.9887085-10.8876343-16.2655487-19.550705-11.2711945s-8.663063,17.5480499,0.0000076,22.5424042S94.4173126,172.9100952,94.4173126,162.9213715z M110.6973114,218.2733765c0-9.9887085-10.8876343-16.2655487-19.550705-11.2711945s-8.663063,17.5480347,0.0000076,22.5423889S110.6973114,228.262085,110.6973114,218.2733765z M138.3733063,174.3173828c0-9.9887238-10.8876266-16.265564-19.5506973-11.2711945c-8.6630707,4.9943542-8.663063,17.5480347,0,22.5423889S138.3733063,184.3060913,138.3733063,174.3173828z M369.5462952,179.2013855c0-9.9887238-10.8876038-16.265564-19.5506897-11.2712097c-8.6630554,4.9943695-8.6630554,17.5480499,0,22.5424042C358.6586914,195.4669342,369.5462952,189.190094,369.5462952,179.2013855z M323.9623108,185.7133789c0-9.9887085-10.8876343-16.2655487-19.5506897-11.2711945c-8.6630859,4.9943542-8.6630859,17.5480347,0,22.5423889C313.0746765,201.9789276,323.9623108,195.7020874,323.9623108,185.7133789z M327.2183228,223.1563721c0-9.9887085-10.8876343-16.2655487-19.5507202-11.2711945c-8.6630554,4.9943542-8.6630554,17.5480347,0,22.5424042C316.3306885,239.421936,327.2183228,233.1450958,327.2183228,223.1563721z M309.3113098,262.2283936c0-9.9887238-10.8876343-16.265564-19.5506897-11.2712097c-8.6630859,4.9943542-8.6630859,17.5480347,0,22.5423889C298.4236755,278.493927,309.3113098,272.2171021,309.3113098,262.2283936z M234.4233093,294.7883911c0-9.988739-10.8876343-16.265564-19.550705-11.2712097c-8.6630554,4.9943542-8.6630554,17.5480347,0.0000153,22.5423889C223.535675,311.0539246,234.4233093,304.7770996,234.4233093,294.7883911z M452.5733032,276.8803711c0-9.9887085-10.8876343-16.2655334-19.5506897-11.2711792c-8.6630859,4.9943542-8.6630554,17.5480347,0,22.5423889S452.5733032,286.8690796,452.5733032,276.8803711z M408.6173096,265.484375c0-9.9887085-10.8876343-16.2655487-19.5506897-11.2711945c-8.6630859,4.9943695-8.6630859,17.5480499,0,22.5424042C397.7296753,281.749939,408.6173096,275.4730835,408.6173096,265.484375z M79.7653122,328.9753723c0-9.9887085-10.8876343-16.2655334-19.5507011-11.2711792s-8.6630669,17.5480347,0,22.5423889S79.7653122,338.9640808,79.7653122,328.9753723z M149.7683105,366.4193726c0-9.9887085-10.8876343-16.2655334-19.550705-11.2711792s-8.663063,17.5480347,0,22.5423889S149.7683105,376.4080811,149.7683105,366.4193726z M140.0013123,281.7643738c0-9.9887085-10.8876343-16.2655334-19.550705-11.2711792s-8.663063,17.5480347,0.0000076,22.5423889S140.0013123,291.7530823,140.0013123,281.7643738z M376.0583191,228.0403748c0-9.9887085-10.8876343-16.2655487-19.5507202-11.2711945c-8.6630554,4.9943542-8.6630554,17.5480347,0,22.5423889C365.1706848,244.3059235,376.0583191,238.0290985,376.0583191,228.0403748z M340.2423096,374.5593872c0-9.9887085-10.8876343-16.265564-19.5506897-11.2712097c-8.6630859,4.9943542-8.6630859,17.5480347,0,22.5423889C329.3546753,390.8249207,340.2423096,384.5480957,340.2423096,374.5593872z M188.8403168,343.6273804c0-9.9887085-10.8876343-16.265564-19.550705-11.2712097s-8.6630707,17.5480347,0,22.5423889S188.8403168,353.6160889,188.8403168,343.6273804z M239.307312,337.115387c0-9.9887085-10.8876343-16.265564-19.550705-11.2712097s-8.6630707,17.5480347,0,22.5423889S239.307312,347.1040955,239.307312,337.115387z M172.5603027,302.9283752c0-9.9887085-10.887619-16.265564-19.5506897-11.2711792c-8.6630707,4.9943542-8.6630707,17.5480347,0,22.5423889S172.5603027,312.9170837,172.5603027,302.9283752z M454.2013245,322.4633789c0-9.9887085-10.8876343-16.265564-19.5507202-11.2712097c-8.6630554,4.9943848-8.6630554,17.5480652,0,22.5424194C443.3136902,338.7289429,454.2013245,332.4520874,454.2013245,322.4633789z M411.8733215,312.6953735c0-9.9887085-10.8876343-16.2655334-19.5507202-11.2711792c-8.6630554,4.9943542-8.6630554,17.5480347,0,22.5423889C400.9856873,328.9609375,411.8733215,322.684082,411.8733215,312.6953735z M89.5333099,276.8803711c0-9.9887085-10.8876343-16.2655334-19.5506973-11.2711792s-8.6630669,17.5480347,0,22.5423889S89.5333099,286.8690796,89.5333099,276.8803711z M104.1853104,369.6753845c0-9.9887085-10.8876343-16.265564-19.5506973-11.2712097s-8.6630707,17.5480347,0,22.5423889S104.1853104,379.664093,104.1853104,369.6753845z M125.3493118,317.5793762c0-9.9887085-10.8876343-16.265564-19.550705-11.2711792c-8.663063,4.9943542-8.663063,17.5480347,0.0000076,22.5423889S125.3493118,327.5680847,125.3493118,317.5793762z M369.5462952,275.2523804c0-9.9887085-10.8876038-16.265564-19.5506897-11.2712097c-8.6630554,4.9943542-8.6630554,17.5480347,0,22.5423889C358.6586914,291.5179138,369.5462952,285.2410889,369.5462952,275.2523804z M369.5462952,328.9753723c0-9.9887085-10.8876038-16.2655334-19.5506897-11.2711792c-8.6630554,4.9943542-8.6630554,17.5480347,0,22.5423889C358.6586914,345.2409363,369.5462952,338.9640808,369.5462952,328.9753723z M266.9833069,374.5593872c0-9.9887085-10.8876343-16.265564-19.550705-11.2712097c-8.6630554,4.9943542-8.6630554,17.5480347,0.0000153,22.5423889C256.0956726,390.8249207,266.9833069,384.5480957,266.9833069,374.5593872z M149.7683105,366.4193726c0-9.9887085-10.8876343-16.2655334-19.550705-11.2711792s-8.663063,17.5480347,0,22.5423889S149.7683105,376.4080811,149.7683105,366.4193726z M319.0783081,346.8833923c0-9.988739-10.8876343-16.265564-19.5506897-11.2712097c-8.6630859,4.9943542-8.6630859,17.5480347,0,22.5423889C308.1906738,363.1489258,319.0783081,356.8721008,319.0783081,346.8833923z M424.8973083,363.1633911c0-9.988739-10.8876343-16.265564-19.5506897-11.2712097c-8.6630859,4.9943542-8.6630859,17.5480347,0,22.5423889C414.0096741,379.4289246,424.8973083,373.1520996,424.8973083,363.1633911z M376.0583191,385.9553833c0-9.9887085-10.8876343-16.265564-19.5507202-11.2712097c-8.6630554,4.9943542-8.6630554,17.5480347,0,22.5423889C365.1706848,402.2209167,376.0583191,395.9440918,376.0583191,385.9553833z M306.0552979,390.839386c0-9.9887085-10.8876343-16.265564-19.5506897-11.2712097s-8.6630554,17.5480347,0,22.5423889C295.1676941,407.1049194,306.0552979,400.8280945,306.0552979,390.839386z M214.8883057,387.583374c0-9.9887085-10.8876343-16.2655334-19.5506897-11.2711792c-8.6630707,4.9943542-8.6630707,17.5480347,0,22.5423889S214.8883057,397.5720825,214.8883057,387.583374z"/></svg>