<svg xmlns="http://www.w3.org/2000/svg" width="512" height="512"><path d="M429.496 208.85c-13.619-7.851-13.619-27.586 0-35.438 13.619-7.851 30.735 2.017 30.735 17.72 0 15.702-17.116 25.57-30.735 17.718zM56.605 142.674.188 361.184c-.658 3.437.424 3.994 3.017 4.757l22.023 6.243c3.303 1.104 4.417-.048 5.13-2.973l16.894-69.27h54.004l17.196 69.27c.37 1.763 1.655 3.3 4.827 2.973l22.024-5.649c2.948-.657 4.05-2.714 3.319-5.351l-56.719-218.51c-.55-2.483-2.148-3.168-4.095-3.27H60.665c-2.268.078-3.199 1.592-4.06 3.27zm-2.414 129.322 20.214-82.647 19.61 82.647zm342.725-86.512c-1.335-2.506-3.768-2.777-5.732-1.486L370.066 194.7c-2.974 1.82-2.568 3.452-1.51 5.65l55.814 98.403v65.107c.094 3.086 1.008 4.143 3.922 4.162h22.326c3.618-.011 4.098-.892 4.224-4.162v-65.107l56.115-98.404c1.513-2.806 1.745-3.782-1.81-5.649l-21.119-10.702c-3.002-1.613-4.59-.154-5.43 1.486l-42.841 81.459zm-81.759 2.081h-22.024c-3.26.087-4.146 2.222-4.223 4.163l.905 126.051-59.736-127.538c-1.312-2.605-2.038-2.553-3.62-2.676h-27.756c-2.896.076-4.175 1.852-4.224 4.163V363.86c.132 3.403 1.591 4.106 4.224 4.162h22.325c3.071.01 4.23-1.436 4.224-4.162l-1.206-125.458 59.735 127.241c.888 1.985 1.161 2.405 3.922 2.379h27.454c3.198.107 4.229-1.212 4.224-4.162V191.728c-.05-3.025-1.983-4.1-4.224-4.163z"/></svg>