<svg xmlns="http://www.w3.org/2000/svg" width="512" height="512"><path d="M86.151 296.658c.33-.923.682-1.796 1.058-2.598.264-6.395 3.039-11.5 5.624-17.373 3.144-7.146 22.853-18.856 31.995-21.997 3.082-1.06 7.657-1.268 12.562-.99l-51.24 42.958zm109.24-78.822c-2.565 1.428-21.138 20.004-25.993 23.428-4.86 3.428-11.715 3.996-11.715 3.996l-9.092 9.762c5.75.995 10.71 2.335 12.807 3.377 2.281 1.143 3.439 3.299 4.02 5.346 1.577-.26 5.952-1.042 8.263-2.199 2.856-1.425 10.854-4.575 15.138-1.716 4.29 2.86.86 14.285 2.004 14.567.393.097 1.217.204 2.267.414-.407-2.79 3.163-5.27 3.163-5.27s-.571-13.425-.287-19.993c.287-6.57 3.146-23.997 3.715-28.287.569-4.28-1.72-4.856-4.29-3.425zm1.143 77.416c-1.63-1.625-3.722-1.652-5.983-2.105a40.246 40.246 0 0 1 1.128 3.533c2.858 10.577 9.714 22 9.714 22s1.997 1.143 3.715-1.136c1.035-1.389 4.386-3.716 7.945-5.787-.857-.738-1.374-1.36-1.374-1.36s-3.716 2.003-8 .575c-3.528-1.184-3.179-2.944-1.988-6.72-1.638-2.307-3.242-7.085-5.157-9zm-25.343-12.195c-2.582-1.335-5.448-3.103-6.862-3.976-.122 2.125-.034 4.085.494 5.323.324.745.412 1.685.31 2.78 2.119-1.583 4.042-3.133 6.058-4.127zm-26.075-29.513s9.144-9.699 11.596-13.264l-16.275 13.644c1.34.125 2.688.28 4.02.46l.66-.84zm174.59-149.926L167.624 231.131c4.957-3.535 10.579-7.208 14.632-9.583 8.283-4.855 14.853-8.57 14.853-8.57s4.856-.854 7.14.855c2.287 1.715 3.427 13.139 4.575 24.007 1.14 10.848-4.007 29.993-4.007 29.993l2.859 1.14c2.86 1.143 2.86 12.286 0 14.003-2.345 1.408-2.182 4.35-1.58 6.95 1.12 1.144 2.551 2.307 3.776 3.478.386-.25.725-.494.947-.717 1.713-1.719 1.431-4 3.432-10 1.005-3.012 4.459-5.594 8.229-7.672-.989-8.272-1.47-29.46-1.946-30.895-.569-1.72-2.284-4.003-2.284-8.283 0-4.283 2.564-8.29 5.42-9.714 2.864-1.429 4.575 1.143 5.435 4.571.697 2.764 2.132 29.753 2.66 40.037.266-.116.534-.225.77-.326 3.798-1.665 7.203-.163 8.895 1.536 1.13-.833 1.996-2.367 2.537-4.684.853-3.708 21.994-18.569 25.703-21.709 1.082-.91 3.072-1.506 5.548-1.553 2.965-3.383 7.336-8.084 10.449-10.16 5.143-3.428 10.287-3.428 10.287-3.428s1.434 1.715 6.286 7.433c1.726 2.016 3.512 4.873 5.11 7.701 1.969-4.855 5.555-9.839 13.175-10.56 8.134-.782 27.705 5.424 32.564 9.42 4.852 4.007 12.567 12.29 17.141 16.288 0 0 9.143 8.852 10.57 9.716.109.063.21.144.32.217.845-1.081 3.105-1.081 3.105-1.081.817-.697 3.348-2.251 6.425-4.022l-69.117-161.9h-1.827zm30.27 192.69c2.138-2.146 1.428-7.857-1.427-12.141-2.863-4.288-2.863-4.992-5.72-5.35-3.694-.468-9.635 3.918-3.572 12.137 6.07 8.209 8.573 7.498 10.72 5.354zm158.82-6.104s-6.578-6.66-12.289-9.23c-5.718-2.575-5.434-5.147-8.858-5.426-3.432-.29-9.711-1.433-14.854-3.716-5.143-2.291-19.707-8.283-25.993-11.711-6.288-3.43-10.293-6.002-12.006-7.433-1.711-1.429-4.575-1.24-9.995-.379 0 0-15.429 3.525-20.857 6.09-2.989 1.42-8.057 4.136-12.344 6.576l1.531 3.587c1.73-1.324 3.705-2.598 5.954-3.586 7.147-3.15 13.996-6.002 21.994-6.577 8-.568 9.142-1.136 9.142-1.136s3.716-.572 8.007 1.711c4.283 2.285 29.708 15.141 33.422 16.574 3.716 1.428 9.428 4 13.433 7.14 3.993 3.143 7.133 2.853 7.133 2.853s2.857 3.146 7.147 6.003c4.284 2.854 5.711 4.283 8.282 4.858 2.572.569 7.715 3.235 1.152-6.198zm-208.769-37.716c-1.15-5.245-2.693-12.198-3.214-14.08-.86-3.146-3.715-3.146-6.572.854-1.853 2.595-2.984 5.43-4.019 7.72 2.767 1.59 5.489 3.898 7.843 7.1 1.239-.62 3.235-1.063 5.962-1.594zm-15.591 39.285c-.339 2.511-2.206 5.38-4.677 7.255-6.3 4.764-13.575 7.282-10.848 8.174 2.735.88 6.314-2.138 10.611-4.425 4.298-2.28 27.537-6.978 27.537-6.978a45.508 45.508 0 0 1 5.311-1.13c-3.39-2.536-6.537-5.312-7.843-7.7-1.887-3.425-4.378-7.666-4.608-13.036a13.4 13.4 0 0 1-2.714-.456c-2.47 5.34-7.322 10.311-11.538 16.638a23.455 23.455 0 0 1-1.231 1.658zm51.837 111.308c-5.72-1.997-13.142-6.849-14.002-8.284-.86-1.427-3.424-2.57-3.424-2.57s-7.654-8.981-12.228-17.833c0 0-.432-1.035-1.154-2.74H435.96l-43.718-102.406c-3.283 2.674-5.502 5.396-6.583 6.3-.561.463-1.278.408-1.989.054.048 1.644.278 3.654.278 3.654 2.28 3.15 4.852 15.718 4.283 21.423-.494 4.886-1.813 8.506-2.186 9.46a85.55 85.55 0 0 0 .759 2.83c1.427 4.859 1.136 5.711 1.996 5.711.866 0 3.14 2.287 4.858 3.14 1.713.867 15.715 7.714 21.142 12.005 5.427 4.29 8.858 11.998 11.138 21.716 2.288 9.71-.284 9.995-2.571 9.71-2.288-.29-6.849-8.005-7.424-15.144-.568-7.14-6.57-14.855-10.854-18.853-4.284-4-16.005-5.712-17.717-6.572-1.713-.859-1.143-1.995-1.143-1.995s-1.713-1.436-2.85-3.432c-.236-.412-.568-1.197-.954-2.193-.569.927-2.003 2.193-5.624 2.193-5.711 0-19.429-4.283-27.428-6.855-5.494-1.767-14.494-5.292-20.335-7.783 4.433 10.875 15.93 31.252 16.437 32.362.596 1.3 5.503 2.95 8.724 4.236 3.228 1.286 3.992 12.566 7.045 14.684 3.051 2.125 16.775 2.187 22.636 3.46 5.867 1.27 5.76 4.465 3.43 5.717-2.307 1.245-22.507-4.013-27.595-4.825-5.083-.812-7.242-5.67-9.306-9.63-2.064-3.952-2.7-6.435-6.233-6.321-3.532.115-3.458-4.256-7.294-2.753-3.837 1.501-2.864-2.965-8.743-13.59-5.874-10.63-9.313-23.075-10.99-23.435-1.679-.371-6.566.623-9.224 2.085-2.653 1.475-17.582 9.63-20.945 12.993-3.363 3.357-19.388-3.627-23.172-5.035-3.782-1.406-6.326-7.22-6.218-10.414.02-.549.372-1.415.947-2.437-1.103-.013-1.983-.088-2.578-.176-4-.568-3.708.86-4.853 4.007-.554 1.515-1.697 2.294-3.031 2.47 1.218 2.538 2.05 5.231 2.456 6.957 1.15 4.851-1.143 8.283.86 9.71 1.996 1.428 3.715 2.572 7.707-.859 4-3.431 11.14-5.143 16.858-3.709 5.718 1.428 18.86 27.421 22.853 36.28a709.671 709.671 0 0 1 5.477 12.493h-5.457a76.283 76.283 0 0 0-1.157-1.347c-4.29-4.859-16.289-25.148-18.576-30-2.28-4.859-7.424-10.57-9.995-8.283-2.572 2.28-13.426 7.424-17.42 6.28-4.005-1.144-3.72-6.571-3.72-6.571s-1.998-3.14-4.86-3.14c-2.849 0-7.715-4.575-8.57-11.72-.307-2.566-.307-4.48-.054-5.99-3.393 1.097-6.8.853-6.8.853s-.142.135-.393.365c1.449 1.144 2.392 2.822 2.392 4.771 0 4.575-1.708 8.012-5.714 10.577-3.996 2.572-5.143-1.718-8.003.86-2.852 2.565-8.902 5.156-10.282 1.712-.572-1.428-3.14-.575-5.996-.859-2.86-.285-2.572-2.856-2.572-2.856s-5.711-5.143-10.002-11.43c-4.283-6.287-9.139-16.857-9.139-21.716 0-4.852-4.57-3.424-7.427-2.85-.914.183-3.465 1.977-6.665 4.495-1.659 4.39-4.738 9.71-8.196 14.65-5.995 8.567-18.278 18.278-25.993 21.419-1.164.48-2.463.75-3.85.859-1.263 1.427-2.825 2.518-4.554 3.356-2.613 4.799-26.47 28.674-27.882 30.643-.612.856-4.006 3.235-7.931 5.922h-5.04c5.33-4.674 9.683-8.635 11.26-10.213 3.272-3.26 11.849-14.569 18.85-23.692-2.826.29-5.377.372-7.137.556-7.999.852-13.142-2.281-13.142-2.281-6.578-14.1-6.97-25.102-5.184-32.921L0 371.653h77.257c-10.645 9.226-23.554 19.86-26.706 20.735-5.143 1.435-6.855.86-2.571 3.14 4.283 2.287 11.903.576 14.664-3.43 2.761-3.993 6.477-10.564 9.623-13.704 1.342-1.345 5.135-3.993 9.151-6.74h219.67c3.676 4.625 7.921 10.432 12.006 15.591 5.434 6.856 2.322 7.552 4.04 7.552 1.713 0 .57 1.144 1.997 2.572 1.428 1.435 9.143 5.996 11.145 7.423 1.997 1.429 10.287 4.291 11.424 3.432 1.143-.853 1.711-3.709 1.711-3.709s-1.427.569-7.138-1.434z"/></svg>