<svg xmlns="http://www.w3.org/2000/svg" width="435" height="512"><path d="M147.825 146.99C45.629 152.754 19.667 278.755 91.247 322.853l-19.006 32.92L0 314.064V141.36l125.407-72.404c-4.85 34.675 6.991 59.579 22.418 78.034zm195.831 175.863 19.002 32.92 72.241-41.71V141.36L313.761 71.421c3.319 29.436-4.592 54.586-22.975 75.742 89.285 5.591 130.916 122.993 52.87 175.69zm-166.172 26.243h-32.492L64.34 512h32.377l80.766-162.904zm61.25 118.732 25.763 15.935 14.382-21.672-28.187-11.25 28.187-11.24-14.382-21.675-25.763 15.935 2.978-27.482h-29.226l2.873 27.482-25.66-15.932-14.518 21.672 28.289 11.24-28.29 11.253 14.52 21.667 25.659-15.933-2.873 27.48h29.226l-2.978-27.48zm125.9 0 25.766 15.935 14.385-21.672-28.19-11.25 28.19-11.24-14.385-21.675-25.766 15.935 2.978-27.482h-29.227l2.876 27.482-25.658-15.932L301.08 439.6l28.292 11.24-28.292 11.253 14.522 21.667 25.658-15.933-2.876 27.48h29.227l-2.978-27.48zm-61.01-383.612c0-64.59-70.402-105.177-126.42-72.882s-56.017 113.47 0 145.765 126.42-8.293 126.42-72.883z"/></svg>