<svg version="1.1" xmlns="http://www.w3.org/2000/svg" width="575" height="512"><path d="M548.738 284.873h-196.394c29.043 22.789 43.567 41.558 43.567 56.305 0 5.813-9.037 23.038-22.789 19.438-3.466-0.908-17.877-9.824-42.898-29.492-27.262-21.89-43.129-33.954-47.591-36.197-7.602-2.68-37.315-13.404-44.909-16.086-23.69-8.934-35.524-16.307-35.524-22.12 0-7.143 12.065-14.516 36.195-22.12 7.594-2.23 39.317-11.164 46.92-13.405 10.724-5.363 28.152-19.208 52.283-41.559 20.548-19.208 36.195-30.163 46.919-32.844 4.46 2.68 8.043 9.614 10.724 20.778-8.045 25.032-22.351 44.69-42.898 58.986h198.404c16.086 0 24.129 10.054 24.129 30.163s-8.712 29.492-26.139 28.152zM482.735 190.362c-27.135 0-31.19-17.428-31.19-25.47v-144.112c0-6.253 5.779-20.779 29.839-20.779 18.978 0 28.476 6.482 28.476 19.439v146.122c0 16.537-9.050 24.8-27.126 24.8zM479.352 512.101c-18.538-3.134-27.807-10.286-27.807-21.449v-140.761c0-15.636 10.851-23.46 32.552-23.46 17.175 0 25.764 8.714 25.764 26.142v138.748c0 12.505-10.17 19.438-30.51 20.781zM189.613 504.514c-5.211 4.462-17.663 6.701-37.365 6.701h-104.287c-23.797 0-37.923-2.423-42.384-7.258-3.721-3.73-5.577-17.498-5.577-41.313v-399.2c0-20.094 3.529-33.121 10.597-39.082 6.692-5.576 18.587-8.374 35.692-8.374h107.075c19.702 0 32.154 2.048 37.365 6.144 5.202 5.211 7.808 18.986 7.808 41.312v399.2c0 23.074-2.98 37.026-8.923 41.87zM150.018 64.508h-101.499v398.188h101.499v-398.188z"></path></svg>