<svg xmlns="http://www.w3.org/2000/svg" width="512" height="512"><path fill-rule="evenodd" d="M255.172 0C397.67 0 512 114.33 512 255.172A255.993 255.993 0 0 1 255.172 512C114.33 512 0 397.67 0 255.172 0 114.33 114.33 0 255.172 0zm62.964 304.88c-28.168 36.453-79.534 43.081-114.33 14.913-34.796-26.511-39.767-77.877-11.599-114.33 29.825-34.796 81.191-41.424 115.987-14.913 34.796 28.168 39.767 79.534 9.942 114.33zm-135.87 167.353 97.76-94.447c-36.453 8.285-74.563 1.657-104.388-23.197-34.797-26.511-49.71-71.25-44.738-112.673l-87.82 96.103s-11.598-21.54-14.912-61.307l154.097-120.958c46.395-33.14 109.36-34.796 154.097 0 49.71 39.767 59.65 112.673 23.198 167.353L246.887 483.832c-16.57 0-49.709-4.971-64.622-11.599z" clip-rule="evenodd"/></svg>