<svg version="1.1" xmlns="http://www.w3.org/2000/svg" width="512px" height="512px"><path d="M72.004097,178.3330231c10.8150558,0,29.8495407,2.8119202,43.6928101,20.9812012v-17.0877686h34.3918533v147.3009796H115.696907v-15.3573914c-15.1410675,17.5203857-33.5266571,19.8997192-44.1254044,19.8997192C-24.1450768,333.8039246-23.7124805,178.0671997,72.004097,178.3330231z M76.3301315,209.4803772c-54.5545273,0-54.5545273,94.0909119,0,94.0909119C132.1858826,303.4737854,132.0601196,209.4803772,76.3301315,209.4803772z M287.6562195,185.0383606l-14.0595703,31.1473389c-18.8851166-11.3879547-50.4056549-6.7854004-48.451416,36.7711792l-0.0000153,76.5705566h-34.391861l0.2162933-147.3009796h34.391861v13.1943665C244.5068665,171.5338135,272.6800842,176.3688202,287.6562195,185.0383606z M343.245575,254.0383606l-0.0000305,75.9216614h-33.5266418V182.2264557h34.3918457v13.6269531c19.8197937-25.5615692,59.9897461-22.3362579,74.4075623,4.109726c24.2704163-35.5423584,95.4008789-31.4976959,93.4420166,38.717865v91.0627136h-34.3918457l0.0000305-80.8965607c0.3629456-22.8517914-3.5488281-38.5830841-22.927948-39.1504822c-16.9425354,1.3772888-27.7515564,12.3955383-27.0376282,44.3416901v75.9216614h-34.3918457v-81.1128693c0.7778015-24.7317505-5.4992065-39.1928406-22.9279175-39.1504822C352.8296814,210.3998566,342.5087891,223.3242035,343.245575,254.0383606z"/></svg>