<svg xmlns="http://www.w3.org/2000/svg" width="439" height="512"><path d="M438.857 128v347.429c-.385 10.285-4 18.857-10.857 25.714S412.571 511.615 402.286 512H36.57c-10.285-.385-18.857-4-25.714-10.857S.373 485.714 0 475.429V36.57c.373-10.285 4-18.857 10.857-25.714S26.286.385 36.571 0h274.286l128 128zm-36.571 18.286L292.57 36.57h-256v438.86h365.715V146.286zm-96.782 199.04H186.187l-24.766 29.761h11.904c11.746 0 19.14 2.266 22.187 6.79 3.044 4.524 2.045 33.005-4.916 37.53-6.952 4.523-10.362 4.49-22.108 4.49h-77.67c-11.746 0-19.143-2.258-22.19-6.782-3.04-4.524-3.957-32.646 1.714-36.276 7.22-4.623 18.404-6.065 30.333-5.752l159.17-190.948h-23.778c-11.746 0-19.142-2.266-22.186-6.79-3.044-4.524-2.992-10.432.163-17.734 3.154-7.298 8.21-13.214 15.166-17.738 6.953-4.524 16.306-6.79 28.052-6.79l102.145.238v239.762c11.428 0 15.192 1.274 17.748 3.81 5.04 5.238 3.66 38.037.963 40.542-4.741 4.402-10.343 4.458-17.455 4.458h-81.969c-11.746 0-19.142-2.258-22.19-6.782-3.04-4.524-4.211-32.285 2.745-36.81 6.953-4.523 20.664-5.218 32.41-5.218h13.845v-29.762zm0-48.806v-96.667l-78.706 96.667h78.706z"/></svg>