<svg version="1.1" xmlns="http://www.w3.org/2000/svg" width="512px" height="512px"><path d="M379.1151733,236.470459l-39.392334-0.000061l0.0001221-61.9559326l39.3922729,0.000061L379.1151733,236.470459z M0,414.3250732l72.8810425,4.5722656l0.000061-34.1003418L0,388.7005615V414.3250732z M379.1154175,76.3370972h-39.3922729l-0.0001221,61.9559326h39.3922729L379.1154175,76.3370972z M460.0201416,94.1687622l-72.8810425-3.9036255l-0.000061,34.1002808l72.8810425-4.5721436L460.0201416,94.1687622z M0,316.1477051l72.8811035,4.5722656v-34.1003418L0,290.5231934V316.1477051z M460.0200806,192.3461304l-72.8810425-3.9036255l-0.000061,34.1003418l72.8810425-4.5722046L460.0200806,192.3461304z M81.5733032,334.6477661h43.9456177l0.000061-61.9558716l-43.9456177-0.000061L81.5733032,334.6477661z M0.000061,217.9703369l72.8811035,4.5722656v-34.1003418L0.000061,192.3458252V217.9703369z M81.5734253,236.4703979h43.9456177l0.000061-61.9558716l-43.9456177-0.000061L81.5734253,236.4703979z M330.9854736,248.6749878l0.000061-185.7598877c0-10.8082275-8.7617798-19.5700073-19.5699463-19.5700073l-158.8244019-0.0001221c-10.8082275,0-19.5700073,8.7617798-19.5700073,19.5700073l-0.0001831,386.1699219c0,10.8081665,8.7617798,19.5699463,19.5699463,19.5700073h66.1502686C112.2396011,400.2390137,176.4255219,278.0067139,330.9854736,248.6749878z M81.5735474,138.2930298h43.9456177l0.000061-61.9558716l-43.9456177-0.000061L81.5735474,138.2930298z M81.5733032,432.8251343l43.9456177,0.000061l0.000061-61.9559326l-43.9456177-0.000061L81.5733032,432.8251343z M0.0001221,119.7929688l72.8811035,4.5722656V90.2648926L0.0001831,94.168457L0.0001221,119.7929688z M296.7877502,345.3741455c4.9028015,0,6.9354248,2.4162292,6.9354248,6.3428955v46.0834961h16.6586609v-46.1698608c0-9.3737488-4.9851379-19.6935425-19.6192322-19.6935425l-34.4541626-0.0342102v65.8975525h16.6887817v-52.4263916L296.7877502,345.3741455z M408.5940247,358.6483765h-25.6749268C382.8916931,340.5348511,408.9941406,339.268158,408.5940247,358.6483765z M397.2016602,330.7861938c-17.5403748,0-30.8890076,12.2800903-30.8890076,33.9721069c0,25.3876953,15.2888489,34.0986633,31.2646179,34.0986633c12.2017517,0,19.1271362-3.9567871,25.7271423-10.4724426l-10.3077393-9.8417358c-10.7192688,11.4244995-30.5825806,7.1174011-30.0775757-8.5362244h42.3335571C426.7617798,345.9768066,416.3012085,331.1411438,397.2016602,330.7861938z M362.0847473,397.7181091V383.815155h-6.7787781c-3.9748535,0-5.7825317-2.1250305-5.7825317-5.9532776V345.374054h12.5612488v-13.4711304h-12.5612488V313.948761h-16.6627197v64.9575806c0,9.3476562,5.7684937,18.8117676,19.3641663,18.8117676H362.0847473z M251.4594421,306.8345947h-16.8032684v15.9617004h16.8032684V306.8345947z M251.5018463,331.9029236h-16.845459l-0.0181885,48.9416199c0,8.807373,4.2801514,16.4397278,16.8635254,17.6488647L251.5018463,331.9029236z M451.7732544,304.5629578h-16.8173218v74.8957214c0,8.7952881,4.2600708,16.4156189,16.8173218,17.62677V304.5629578z M463.2017517,397.7422485v-17.7432861c22.7746277-13.5615234,35.5267029-37.1556396,31.5116882-59.785614c-12.0009155-68.438324-143.7216797-68.7195129-236.5976562-20.9890442v-6.2485046c92.9703674-56.5980835,237.2082214-51.8941345,252.4488831,22.4110718C518.7272949,355.1937256,490.6140442,387.7136841,463.2017517,397.7422485z M456.9632568,410.6128235v24.5882874c-31.5337524,17.3074036-76.8921509,28.4506836-111.5471497,31.8330078c-87.5895691,8.5121155-144.9749908-17.1206055-155.6984863-62.352478c-8.4016418-35.2736206,6.192276-65.1262512,33.0823364-88.7062683v8.7029114c-14.9373627,16.2750549-26.1971283,42.4761658-21.6177063,67.1930237c9.3556976,50.1387024,76.2193298,59.452179,140.3835144,53.5210266C381.0010376,441.7408447,428.349884,427.6510925,456.9632568,410.6128235z"/></svg>