<svg xmlns="http://www.w3.org/2000/svg" width="512" height="512"><path d="M266.386 371.547c-1.458-9.627-2.041-11.961-2.041-20.712 20.101 2.445 28.279 5.542 61.258 5.542h43.464c13.71 0 14.001-.291 33.253-2.624 20.014-2.154 38.672-5.38 55.132-5.251H512c-.875 9.625-1.458 12.542-3.5 23.336h-65.05c-11.836 0-28.023-2.422-44.339-5.25-11.084-1.75-17.793-1.75-33.253-1.75h-42.59c-19.09-.61-39.348 4.065-56.882 6.71zM465.88 339.73h45.797c-.875-9.918-1.167-12.835-2.626-23.045h-44.63c-22.062 0-34.435 3.304-54.257 5.543-11.959 1.75-11.959 1.75-26.544 1.75h-83.428c-12.387 0-17.163-1.473-34.712-3.793l-1.458 16.92c16.394-3.4 23.447-4.4 42.88-4.377h65.633c18.669 0 32.671.584 40.254 1.752 18.585 2.912 31.558 5.25 53.09 5.25zm-92.455 44.653c-17.501 1.459-27.71 1.168-40.837 1.168-10.844 0-37.148-2.732-63.008-3.501 3.5 10.5 4.667 12.834 9.042 22.169 20.78-1.306 42.945-2.773 54.257-2.917 19.481-.476 46.515 2.97 74.092 2.334h89.845c4.667-9.627 5.542-11.96 9.626-22.754l-84.885-.291-48.132 3.792zm85.74-76.708h46.964c-3.501-10.794-4.667-13.42-9.043-23.339h-39.088c-16.062-.316-26.789 2.127-41.423 4.96-13.125 2.335-13.125 2.335-26.835 2.335h-77.01c-14.663 0-23.124-.177-36.464-2.92-2.916 6.42-3.791 8.17-6.416 16.046 14.761-3.35 22.501-4.375 40.546-4.375h78.467c12.544 0 19.837.583 28.88 2.041 14.5 2.692 28.492 4.694 41.422 5.252zM284.15 412.657c7.293 10.502 9.627 13.128 18.96 22.754h168.312c8.752-7.876 11.086-10.502 19.837-22.754H284.15zm2.59-141.179c12.66-1.807 24.342-3.676 34.13-3.5h48.715c14 0 21.585.292 31.794 1.75 19.694 2.815 35.035 5.834 52.798 5.834h37.047c-8.168-11.375-10.21-14.001-18.377-23.045H442.8c-22.085-.468-29.796 2.163-42.005 4.667-9.917 2.042-12.25 2.042-29.461 2.042H321.16c-13.637 0-15.62-.8-23.627-1.458-4.667 5.251-6.126 6.71-10.794 13.71zm134.228-27.972h40.256c-19.544-14.585-44.631-24.504-73.218-24.504-26.836 0-49.88 7.585-70.883 22.463 30.112-8.285 70.564 1.144 103.845 2.041zm-105.625 201.52c20.418 14.294 39.38 23.629 72.924 23.629 28.588 0 52.507-9.918 71.468-23.628H315.343zm63.772-245.977v-24.534h-39.392v32.592c13.158-4.645 26.378-7.255 39.392-8.058zM0 217.97l72.881 4.573v-34.1l-72.88 3.903v25.624zm0 98.178 72.881 4.572v-34.1L0 290.523v25.625zm460.02-221.98-72.88-3.903-.001 34.1 72.881-4.572V94.17zm-.553 123.837.553-.034v-25.625l-72.881-3.903v10.334c25.888-.127 50.72 6.855 72.328 19.228zM379.115 76.337h-39.392v61.956h39.392V76.337zM0 414.325l72.881 4.572v-34.1L0 388.701v25.624zM81.573 236.47h43.946v-61.955H81.573v61.955zm0-98.177h43.946V76.337H81.574v61.956zm249.412 72.217V62.915c0-10.808-8.761-19.57-19.57-19.57H152.592c-10.808 0-19.57 8.762-19.57 19.57v386.17c0 10.808 8.762 19.57 19.57 19.57H313.91c-98.545-58.944-95.07-208.708 17.075-258.145zM0 119.793l72.881 4.572v-34.1L.001 94.168v25.625zm81.573 214.855h43.946v-61.956H81.573v61.956zm0 98.177h43.946V370.87H81.573v61.956z"/></svg>