<svg xmlns="http://www.w3.org/2000/svg" width="512" height="512"><path d="m0 379.652 72.276-3.87v33.816L0 405.064v-25.412zm0-71.95 72.276 4.534V278.42L0 282.29v25.412zM456.2 87.566l-72.275-3.871v33.817l72.276-4.534V87.566zm-80.232-17.684h-39.066v61.442h39.066V69.882zM0 210.34l72.276 4.534v-33.817L0 184.927v25.413zm192.955 161.353 135.282-143.114V56.572c0-10.719-8.689-19.408-19.407-19.408H151.324c-10.718 0-19.407 8.69-19.407 19.408v382.963c0 10.719 8.689 19.408 19.407 19.408h125.547l-83.916-87.25zM80.896 228.686h43.58v-61.441h-43.58v61.441zm0-97.362h43.581V69.882h-43.58v61.442zm0 194.724h43.58v-61.441h-43.58v61.441zM0 112.978l72.276 4.534V83.694L0 87.566v25.411zM80.896 423.41h43.58v-61.44h-43.58v61.441zM359.603 297.1l-75.427 74.593 75.427 71.777-31.365 31.366-99.143-103.143 99.143-105.96 31.365 31.366zm53.254-31.366L512 371.694l-99.143 103.142-31.365-31.366 75.426-71.777-75.426-74.594 31.365-31.365zm-75.955-37.048h39.065v-61.441h-39.065v61.441zm47.023-13.812 72.276-4.534v-25.412l-72.276-3.871v33.817z"/></svg>