<svg xmlns="http://www.w3.org/2000/svg" width="512" height="512"><path d="M379.115 222.47h-39.392v-47.956h39.392v47.956zM0 414.325l72.881 4.572v-34.1L0 388.701v25.624zm0-98.177 72.881 4.572v-34.1L0 290.523v25.625zm460.02-123.802-72.881-3.903v34.1l72.881-4.572v-25.625zM0 217.97l72.881 4.573v-34.1l-72.88 3.903v25.624zM379.115 76.337h-39.392v61.956h39.392V76.337zM460.02 94.17l-72.88-3.904-.001 34.1 72.881-4.572V94.17zM81.574 138.293h43.945V76.337H81.574v61.956zm0 98.177h43.945v-61.955H81.573v61.955zM0 119.793l72.881 4.572v-34.1L.001 94.168v25.625zm250.64 115.972h80.345V62.915c0-10.808-8.761-19.57-19.57-19.57H152.592c-10.808 0-19.57 8.762-19.57 19.57v386.17c0 10.808 8.762 19.57 19.57 19.57h98.05v-232.89zM81.573 334.648h43.946v-61.956H81.573v61.956zm0 98.177h43.946V370.87H81.573v61.956zm267.016-197.06H512v60.518L404.762 447.11l-56.173-66.673c81.507-9.39 81.928-138.863 0-144.672zm81.367 232.89H512V353.736l-82.044 114.919zm-97.725-119.023h-38.806v16.428l84.802 102.595H279.11V268.583h53.121c57.576 0 57.576 81.05 0 81.05z"/></svg>