<svg version="1.1" xmlns="http://www.w3.org/2000/svg" width="512px" height="512px"><path d="M125.519165,138.2930298H81.5735474l0.000061-61.9559326l43.9456177,0.000061L125.519165,138.2930298z M379.1154175,76.3370972h-39.3922729l-0.0001221,61.9559326h39.3922729L379.1154175,76.3370972z M460.0201416,94.1687622l-72.8810425-3.9036255l-0.000061,34.1002808l72.8810425-4.5721436L460.0201416,94.1687622z M190.0889893,237.1688843l53.9966431,96.8598633l53.828125-96.8598633h33.0717163l0.000061-174.2537842c0-10.8082275-8.7617798-19.5700073-19.5699463-19.5700073l-158.8244019-0.0001221c-10.8082275,0-19.5700073,8.7617798-19.5700073,19.5700073l-0.000061,174.2539062H190.0889893z M133.0210571,284.9716797l-0.000061,164.1132202c0,10.8081665,8.7617798,19.5699463,19.5699463,19.5700073l81.7216187,0.000061L133.0210571,284.9716797z M81.5733032,432.8251343l43.9456177,0.000061l0.000061-61.9559326l-43.9456177-0.000061L81.5733032,432.8251343z M0.0001221,119.7929688l72.8811035,4.5722656V90.2648926L0.0001831,94.168457L0.0001221,119.7929688z M0,414.3250732l72.8810425,4.5722656l0.000061-34.1003418L0,388.7005615V414.3250732z M243.9586792,443.8596497l102.4672546-185.373291h-37.1135254l-65.3537292,117.5993347L178.60495,256.7408447h-37.1135254L243.9586792,443.8596497z M262.7915649,437.5239258l99.5348511-178.3474731l53.9281921,100.8342285l7.7693176-14.8572083l-45.9303894-85.7334595h36.7900085l28.1066284,51.878479l29.2492065-50.1329651h37.70401l-48.8057556,85.8349304l50.8623352,93.1417542h-36.1044617l-33.1338196-59.9159851l-33.4956665,59.0432434h-37.2470093l18.3188171-32.6371765h-74.1702881l-16.8144836,30.8916321H262.7915649z M385.8986511,372.9493408l-24.3420105-45.764801l-25.0181885,45.764801H385.8986511z M125.5190125,272.6918945l-43.9456253-0.0000305l-0.0000763,61.9559326h43.94561L125.5190125,272.6918945z M72.8811035,286.6196594l-72.8810806,3.9035339l-0.0000159,25.6245117l72.881073,4.5722961L72.8811035,286.6196594z M125.5190506,237.1688843H81.5734329l0.0000763-62.6543884l43.9456177,0.0000305L125.5190506,237.1688843z M339.7229614,174.5144958l39.3922729,0.0000305l-0.0000916,62.6543579h-39.3922729L339.7229614,174.5144958z M72.8811417,222.5426178l-72.881073-4.5722656l0.0000172-25.6245117l72.8810806-3.9035492L72.8811417,222.5426178z M387.1390076,188.4425049l72.881073,3.9036407l-0.0000305,25.624527l-72.881073,4.5721588L387.1390076,188.4425049z"/></svg>