<svg xmlns="http://www.w3.org/2000/svg" width="512" height="512"><path d="m0 290.523 72.881-3.903v34.1L0 316.148v-25.625zM460.02 94.17l-72.88-3.904-.001 34.1 72.881-4.572V94.17zM0 414.325l72.881 4.572v-34.1L0 388.701v25.624zM379.115 76.337h-39.392v61.956h39.392V76.337zM0 217.97l72.881 4.573v-34.1l-72.88 3.903v25.624zm81.574-79.677h43.945V76.337H81.574v61.956zM275.13 375.626l55.228-55.282-83.46-83.874h84.086V62.915c0-10.808-8.761-19.57-19.57-19.57H152.592c-10.808 0-19.57 8.762-19.57 19.57v386.17c0 10.808 8.762 19.57 19.57 19.57h122.54v-93.03zM81.573 236.47h43.946v-61.955H81.573v61.955zm0 98.178h43.946v-61.956H81.573v61.956zm0 98.177h43.946V370.87H81.573v61.956zM0 119.793l72.881 4.572v-34.1L.001 94.168v25.625zm512 348.862-58.914-58.884v-94.129h-94.159l-58.796-58.884H512v211.897zm-153.073-58.884v-84.72l-58.796 58.853v84.751h84.686l58.851-58.884h-84.741zm-19.204-235.257h39.392v61.956h-39.392v-61.956zm47.416 13.929 72.881 3.903v25.625l-72.881 4.572v-34.1z"/></svg>