<svg xmlns="http://www.w3.org/2000/svg" width="512" height="512"><path d="M339.723 206.996V168.48h39.562v33.36c-17.093.097-29.122 2.336-39.562 5.155zM0 408.292l72.881 4.572v-34.1L0 382.667v25.625zm0-98.178 72.881 4.572v-34.1L0 284.49v25.624zM460.02 88.135l-72.88-3.903-.001 34.1 72.881-4.572V88.135zm-80.735-17.831h-39.562v61.956h39.562V70.304zm54.746 143.264 25.989-1.63v-25.625l-72.881-3.904v19.737a140.002 140.002 0 0 1 46.892 11.422zM81.573 426.792h43.946v-61.956H81.573v61.956zm0-196.355h43.946V168.48H81.573v61.956zm0-98.177h43.946V70.304H81.574v61.956zM0 211.937l72.881 4.572v-34.1l-72.88 3.903v25.625zm330.985-2.186V56.881c0-10.808-8.761-19.57-19.57-19.57H152.592c-10.808 0-19.57 8.762-19.57 19.57v386.17c0 10.809 8.762 19.57 19.57 19.57h153.624c-111.288-70.505-77.247-218.488 24.77-252.87zM0 113.76l72.881 4.573v-34.1L.001 88.134v25.624zm81.573 214.855h43.946v-61.956H81.573v61.956zM512 341.727c-6.538 3.191-19.315 10.495-23.879 31.487-10.81 37.19-40.13 66.695-77.35 77.502-20.535 4.107-28.291 17.434-31.486 23.973-3.193-6.539-10.495-19.41-31.487-23.973-37.266-10.826-67.126-40.134-77.92-77.389-4.106-20.535-17.34-28.294-23.878-31.487 6.538-3.194 19.315-10.494 23.879-31.486 10.693-37.451 40.072-66.867 77.454-77.72 20.535-4.105 28.757-17.407 31.952-23.945 3.193 6.538 10.268 19.41 31.26 23.973 37.317 10.756 66.74 40.312 77.576 77.576 4.106 20.536 17.341 28.294 23.879 31.489zm-67.134-68.224c-14.796-14.255-34.212-23.85-55.781-26.118l.012 26.118h55.769zm-76.303-26.068c-21.379 2.353-40.629 11.815-55.317 25.964h55.317v-25.964zM297.156 389.69h35.94c-27.56-27.056-27.092-69.267-.356-95.88h-35.524c-17.068 28.99-17.763 65.305-.06 95.88zm148.07 20.259-132.101-.01c15.81 15.283 42.183 26.654 65.933 26.654 25.557 0 49.11-10.208 66.168-26.644zm15.73-116.14h-36.058c29.039 28.72 25.994 70.767.123 95.881h36.035c17.673-30.479 16.948-66.3-.1-95.88zm-62.81 46.737c0-14.641-15.959-23.842-28.657-16.52-12.698 7.32-12.698 25.72 0 33.041 12.698 7.32 28.657-1.88 28.657-16.52zm28.976 0c0-37.768-40.182-61.501-72.154-42.617s-31.972 66.35 0 85.234 72.154-4.849 72.154-42.617z"/></svg>