<svg xmlns="http://www.w3.org/2000/svg" width="512" height="512"><path d="M133.021 346.629V62.915c0-10.808 8.762-19.57 19.57-19.57h158.825c10.808 0 19.57 8.762 19.57 19.57V244.08h-46.562l-6.308 18.164c-12.15-11.651-30.327-18.169-51.44-18.169h-58.044l-35.61 102.554zM125.52 76.337H81.574v61.956h43.945V76.337zm253.596 98.178h-39.392v61.955h39.392v-61.955zm80.905-80.346-72.88-3.904-.001 34.1 72.881-4.572V94.17zm-80.905-17.832h-39.392v61.956h39.392V76.337zm80.905 116.01-72.881-3.904v34.1l72.881-4.572v-25.625zm-334.5-17.832H81.572v61.955h43.946v-61.955zm-.916 196.354h-43.03v61.956h21.516l21.514-61.956zM0 119.793l72.881 4.572v-34.1L.001 94.168v25.625zm313.623 286.44-15.847 45.422h-85.432l16.99-48.925c-8.91 3.091-19.623 4-31.505 3.497l-15.85 45.423h-48.77c1.258 9.593 9.445 17.005 19.382 17.005h158.824c10.809 0 19.57-8.762 19.57-19.57v-43.412c-5.327.634-11.242.583-17.362.56zM0 414.325l72.881 4.572v-34.1L0 388.701v25.624zm125.519-141.633H81.573v61.956h43.946v-61.956zM0 217.97l72.881 4.573v-34.1l-72.88 3.903v25.624zm0 98.178 72.881 4.572v-34.1L0 290.523v25.625zm228.114 8.225c-2.149 7.042-9.335 21.923-23.702 22.704l-12.93 39.15h13.646c20.116 0 45.26-7.047 63.934-57.164 18.674-50.112-14.367-64.988-42.385-64.988h-43.818l-58.19 167.575h43.106l44.54-127.638c16.045-.997 20.396 5.973 15.799 20.361zm115.796.005c-2.153 7.042-9.335 21.923-23.707 22.704l-12.93 39.15h13.651c20.116 0 45.26-7.047 63.93-57.164 18.678-50.112-14.368-64.988-42.381-64.988H298.65l-58.19 167.575h43.112L328.1 304.017c18.12-1.198 19.555 7.837 15.809 20.361zm87.996 21.918c-5.753 20.356-6.82 36.803 9.7 36.803h29.45l-16.52 48.55h-24.423c-35.695 0-59.112-18.477-43.696-85.317l45.49-.036zm-43.443-8.231c18.36-68.555 59.926-73.985 83.315-73.985H512l-12.93 39.932h-25.855c-17.864 0-31.281 16.769-38.622 34.068l-46.13-.015z"/></svg>