<svg xmlns="http://www.w3.org/2000/svg" width="476" height="512"><path d="M267.905 474.845V309.38l151.21.006c-96.524 24.148-126.968 108.89-151.21 165.46zm-12.86-242.89H190.2c35.946-42.881 54.018-97.802 64.847-149.495zm0 64.565H92.904c38.905-12.366 68.651-32.885 91.603-58.161h70.546zm12.86.007V3.852c-.09-8.694-11.928-7.544-12.795-.897-16.15 115.99-40.556 291.266-248.295 293.559-9.116.393-8.37 12.756.064 12.853h248.16V502.35c.372 7.651 8.36 10.408 12.251 2.76 34.723-73.293 73.116-179.348 202.589-195.73 10.044-1.29 6.683-13.476-.154-12.853z"/></svg>