<svg xmlns="http://www.w3.org/2000/svg" width="512" height="512"><path d="M4.85 312.847C1.857 293.103.661 288.316.661 270.369c41.226 5.015 57.996 11.367 125.632 11.367h89.137c28.116 0 28.715-.599 68.198-5.382 41.046-4.418 79.31-11.033 113.067-10.77h111.87c-1.795 19.74-2.991 25.723-7.178 47.86H367.979c-24.272 0-57.47-4.968-90.931-10.768-22.732-3.59-36.492-3.59-68.197-3.59h-87.345c-39.153-1.248-80.697 8.339-116.657 13.761zm409.13-65.254h93.924c-1.795-20.34-2.395-26.323-5.386-47.263h-91.53c-45.245 0-70.62 6.777-111.272 11.368-24.526 3.589-24.526 3.589-54.438 3.589H74.18c-25.405 0-35.199-3.02-71.19-7.779L0 242.21c33.622-6.974 48.088-9.024 87.94-8.975h134.604c38.288 0 67.004 1.197 82.555 3.591 38.116 5.972 64.721 10.768 108.881 10.768zM224.37 339.17c-35.893 2.992-56.831 2.395-83.752 2.395-22.239 0-76.183-5.603-129.22-7.18 7.18 21.536 9.572 26.322 18.546 45.466 42.617-2.679 88.073-5.687 111.273-5.983 39.952-.977 95.394 6.093 151.951 4.787h184.257c9.572-19.743 11.366-24.528 19.742-46.665l-174.087-.597-98.71 7.777zm175.839-157.317h96.316c-7.18-22.137-9.571-27.523-18.545-47.864h-80.164c-32.941-.648-54.94 4.361-84.952 10.171-26.918 4.79-26.918 4.79-55.036 4.79H99.894c-30.073 0-47.424-.363-74.783-5.987-5.979 13.163-7.775 16.753-13.159 32.907 30.275-6.872 46.148-8.974 83.155-8.974h160.924c25.725 0 40.682 1.196 59.227 4.187 29.737 5.52 58.434 9.627 84.95 10.77zM41.28 397.157c14.957 21.538 19.742 26.924 38.884 46.665h345.182c17.948-16.153 22.736-21.538 40.682-46.665H41.281zm5.312-289.536c25.963-3.706 49.922-7.54 69.994-7.178h99.907c28.713 0 44.267.598 65.205 3.59 40.389 5.77 71.852 11.962 108.281 11.963h75.977c-16.75-23.329-20.938-28.715-37.689-47.261H366.65c-45.295-.96-61.108 4.435-86.146 9.57-20.34 4.19-25.125 4.19-60.422 4.19H117.184c-27.968 0-32.033-1.644-48.454-2.992-9.573 10.77-12.564 13.761-22.137 28.118zm275.28-57.366h82.558C364.351 20.343 312.901 0 254.274 0c-55.037 0-102.297 15.555-145.37 46.068 61.754-16.991 144.715 2.345 212.969 4.187zm-216.62 413.287C147.127 492.854 186.014 512 254.808 512c58.629 0 107.683-20.341 146.57-48.458H105.252z"/></svg>