<svg xmlns="http://www.w3.org/2000/svg" width="512" height="512"><path d="m287.764 130.61-48.953-73.362 47.52-31.715 48.952 73.361-47.519 31.715zm167.343 310.343-96.718 64.544-95.355-142.89 96.72-64.543 95.353 142.89zm-185.133-13.587-73.618 49.128-32.04-48.011 73.62-49.128 32.038 48.011zm164.812-179.374 32.038 48.011-47.524 31.715-32.039-48.01 47.525-31.716zm-296.346-17.73-73.617 49.125-48.957-73.361 73.617-49.128 48.957 73.364zm121.819-81.294-96.72 64.544-95.07-142.465 96.72-64.544 95.07 142.465zm-206.787-39.47 18.255 27.357-27.356 18.255-18.256-27.356 27.357-18.256zm98.586 327.952 18.255 27.357-27.356 18.255-18.256-27.356 27.357-18.256zM0 344.007 428.016 57.731 512 176.794 80.091 465.001 0 344.007z"/></svg>