<svg version="1.1" xmlns="http://www.w3.org/2000/svg" width="512px" height="512px"><path d="M0,256C0,114.6149902,114.6149902,0,256,0s256,114.6149902,256,256S397.3850098,512,256,512S0,397.3850098,0,256z M256,51C142.7814941,51,51,142.7814941,51,256s91.7814941,205,205,205s205-91.7814941,205-205S369.2185059,51,256,51L256,51z"/><path d="M221.3009949,162.6000061L101.1809998,332h68.6000061l87.9199829-124.3200073L310,283.8400269l-80.0189972-0.000061l-35,48.1600342h217.8400116l0,0c0,0-105.4959412-152.6646423-117.0400085-169.3999939s-21.1954041-19.7717285-35.6182251-20.8561401C234.9146881,139.84552,221.3009949,162.6000061,221.3009949,162.6000061z"/></svg>