<svg version="1.1" xmlns="http://www.w3.org/2000/svg" width="422px" height="512px"><path d="M156.2148132,36.6509857c-15.1968536,11.1741638-32.6285553,22.1248322-52.0715942,32.852066l0.2234802,3.3522491c1.3408813,0,2.9052734-0.8939209,5.1401062-2.0113373c2.2348328-0.2234955,3.5757294,0.6704254,3.5757294,2.9052582l3.5757294-2.0113373l1.7878571-0.2234955l0.2234802,1.5644073c0.2234802,1.5644226-12.0681,11.1741638-36.4277649,28.3824158l2.0113525,3.1287384l-1.7878723,0.2235107l-3.7992096-1.3409271c0,1.1174164-1.5643921,1.7878418-5.1401215,2.0113373l0.2234802,1.7878418l4.0227051,4.4696655c-1.3408966,0-3.1287689-0.2234955-5.3636017-1.1174164c-7.8219147,0.6704254-15.6438293,6.4810028-23.2422638,17.2082367l2.0113525,3.1287537c6.7044983-6.0340576,10.5037079-9.1628113,11.6211243-9.1628113l0.4469757,4.9166565c-1.1174164,0-2.9052887,0.8939209-5.1401215,2.011322l4.2461853,6.2575073c8.0453949-8.7158203,16.7612457-16.0908203,26.5945129-22.1248322c4.916626,1.3409119,7.374939,2.6818237,7.374939,4.4696808l3.5757294-0.2235107c26.1475525-19.4430695,52.0716095-33.298996,77.7721863-42.0148315l0.2234802,3.3522491c-4.6931458,7.1514893-8.0454102,10.7271729-9.8332825,10.9506683c0.2234802,2.4583282,1.1174316,4.4696655,2.458313,6.4810028c0.4469604,4.4696655-11.1741486,33.7459869-34.8633728,88.2758942C81.5713959,310.6414795,36.4277802,404.0574951,0,464.8449707c0,1.1174316,0.8939285,2.9052734,2.0113449,4.916687c8.9393387-2.2348633,14.7499008-4.2462158,17.2082138-6.4810181l2.0113525-0.2235107l0.2234802,3.3522339l3.3522491-0.2234497l3.575737-2.0113525c0,1.1174316,1.3408966,1.5643921,3.5757294,1.3408813l0.2234879,3.3522949c0.2234802,3.3522949-1.5643845,8.4923706-5.8105698,15.4202881c-3.7992096,4.2462769-7.5984268,12.9620361-11.8446121,26.147583L14.7499008,512l3.3522491-0.2233887c14.5264053-16.31427,25.7005692-32.4050903,33.2990036-48.0488892c42.6853027-12.5150757,75.0903778-24.8067017,97.6621857-36.8747559c22.5717926-2.0113525,40.0035248-7.8218994,51.6246185-17.6551514l-0.2234497-1.7878418l-8.4924011,2.458313l-2.0113525,0.2235107l-0.2234802-1.7878418c16.5377808-2.458374,28.158905-6.2575073,34.4164429-11.1741943c32.4050903-25.0301514,56.7647705-42.6853027,73.3024902-53.1889648c51.1776733-37.545166,75.3138733-73.7495117,72.4086304-108.1659088c-0.2235107-3.5757446-11.6211243-17.6551819-33.7460022-42.2383423c-0.4469604-4.6931458,7.3749695-11.397644,23.0187988-20.3369751l44.4731445-39.1095886c9.833252-12.7385864,15.8673401-33.298996,17.8786926-61.6813965l-0.6704712-6.7044983c-1.7879028-19.8899994-16.0907898-35.9808197-43.3557434-48.2723999C361.372467,6.4810181,332.5430908,0.6704407,290.9752197,0.0000153C256.7822876,3.1284943,211.6386719,15.196579,156.2148132,36.6509857L156.2148132,36.6509857z M395.7889099,39.5563049l-1.3409119,3.3522491l-49.6132812-20.783905C377.9102478,23.4654846,394.8949585,29.276062,395.7889099,39.5563049L395.7889099,39.5563049z M195.1009216,177.2219696c3.3522339-18.3256836,7.1514587-28.8293457,11.397644-31.2876587l37.0982056-83.3592529c-0.4469604-5.1400909,7.3749695-9.1628265,23.6892395-11.8445892l5.3635864-0.446991l0.4469604,4.693161c16.0907898-2.4583282,25.9240723-3.7992401,29.7232971-4.24617c29.4997864-2.4583282,44.6966553,3.3522491,46.0375671,17.8786621l3.3522339-0.2234955l-0.6704407-8.4923401l3.5757446-0.2234955c8.7158203,4.693161,13.4089966,10.5037537,13.855957,17.4316711c0.4469604,4.693161-2.0113525,10.5037384-7.5984192,17.4316711c-2.2348328,0.2234955-3.5757446-1.3409119-3.7992249-4.693161l-3.5757446,0.2234955l-0.8939209,10.0567474c-14.9733582,22.3483276-25.7005615,33.7460022-32.4050598,34.4164124c-6.0340576,8.2689209-9.833252,12.5150757-11.3976746,12.7385864c-4.6931458,5.5870667-17.4317017,15.1968079-38.4391174,28.6058044c-6.9279785,0.6704407-32.62854,10.5037537-77.1017151,29.9467468c-2.2348328-1.1174011-4.4696655-1.3409119-7.1514587-1.1174011l-0.2234802-3.1287537C185.9380798,195.1006317,188.6199036,187.0552826,195.1009216,177.2219696L195.1009216,177.2219696z M400.4820251,74.4196472l0.2235107,3.1287537c-1.7878723,0.2234955-5.1401367-5.1400909-10.0567627-15.8673248l-0.2234802-3.1287537C393.5540771,58.1053925,396.906311,63.4689789,400.4820251,74.4196472L400.4820251,74.4196472z M74.1964417,114.199707l0.2234802,1.5644073c-1.1174164,0-2.9052734,0.8939209-5.1401062,2.0113525l-1.7878723,0.2234802l-0.2234802-3.1287384L74.1964417,114.199707z M182.1388855,111.5178833l0.4469604,4.9166565c-1.5643921,0.2234955-3.7992249,2.4583282-6.4810486,7.1515045l-0.2234497-3.3522644c3.1287537-3.7992401,4.6931152-6.7044983,4.6931152-8.7158203L182.1388855,111.5178833z M165.6011047,146.3813019l0.6704712,6.7044983l-1.7878723,0.2234802l-0.6704712-6.7044983L165.6011047,146.3813019z M161.3549194,158.4493866c-0.4469604,5.5870667-1.7878723,8.4923096-4.6931458,8.7158203l-1.7878723,0.2235107c2.0113525-3.7992554,3.1287689-6.4810181,2.9052887-8.4923401L161.3549194,158.4493866z M153.9799805,175.8811188l0.2234802,1.5643921l-3.1287689,5.3635864l-3.3522491,0.2235107l-0.2234802-1.5644226c3.3522491-0.2234802,4.916626-2.011322,4.6931458-5.3635864L153.9799805,175.8811188z M146.381546,191.5249481l-0.8939362,8.2688904l-1.7878571,0.2235107l-0.6704559-8.2689209L146.381546,191.5249481z M327.6264954,197.5589447l7.3749695,4.4696655c0.2234802,2.2348328-0.8939209,3.5757446-3.1287537,3.7992554c-3.1287537-2.0113525-5.5870972-2.9052734-7.3749695-2.9052734l-0.4469604-4.9166565L327.6264954,197.5589447z M185.7145996,216.5550385l0.2234802,3.1287537l-6.9279785,0.6704102l-0.2234802-3.1287537L185.7145996,216.5550385z M300.1380615,228.1761932c4.916626,2.2348328,7.374939,4.4696655,7.5984192,6.2575073l0.2234802,1.5643921c-4.6931458,0.446991-8.9393311-2.011322-12.9620361-7.3749084L300.1380615,228.1761932z M152.6390839,264.3804321c20.1135101-1.7878418,51.8481293-11.1741486,94.9803925-28.1589203l10.5037231-0.8938904c21.9013672-1.7878418,38.2156372,2.2348328,48.9428101,12.5150757l0.6704712,6.7044983c-8.0454407,23.2422333-16.9847717,36.6512299-26.5945129,40.8973846l-44.6966553,35.5338135c-33.2990417,21.9013672-51.1777039,32.8521118-53.8594666,33.0755005c-52.9655609,29.2763672-86.0410767,44.2496948-98.7796326,45.3671265l-2.0113525,0.2235107C83.5827484,403.387085,107.0484924,355.1146851,152.6390839,264.3804321L152.6390839,264.3804321z M200.9114685,245.3843536l0.2234802,1.5644226l-7.1514587,0.6704102l-0.2234802-1.5644226L200.9114685,245.3843536z M361.372467,238.2329254l1.1174011,13.1855164c-1.5643616,3.5757446-3.1287537,5.3636017-4.916626,5.3636017l-2.011322-23.2422638C359.3611145,235.1041718,361.1489868,236.6685333,361.372467,238.2329254L361.372467,238.2329254z M89.3933105,353.550293c-2.2348328,11.3977051-4.6931458,17.208252-7.151474,17.4317017l-0.223465-1.5643921C81.5713959,363.6070557,84.0297089,358.4669189,89.3933105,353.550293L89.3933105,353.550293z M134.0899658,416.5725708c12.9620361-2.458313,48.4958801-21.230896,106.8250122-55.8708496l0.2234802,3.1287842c0.2234802,1.3408813-4.916626,5.5870972-14.9733582,12.9619751c-29.7232971,14.5264282-47.1549683,24.5831909-52.295105,29.7232666c-32.1815948,11.1741943-48.0489044,18.1021729-47.8254242,20.7839355c-28.6058502,11.397644-47.3784485,19.6665039-56.3177948,24.8066406c-2.0113373,0.2235107-5.1401062-0.6704102-9.1628113-2.458313c-0.4469604-5.8106079,2.0113525-10.5037231,7.8219147-14.3029175c4.916626-0.4470215,9.8332672,0.2235107,14.3029327,2.2348022c5.3636017-2.6818237,14.526413-5.8105469,27.7119293-8.9393311l-0.2234802-3.3522339l-10.5037079,0.8939209c1.3408966-1.7878418,11.397644-6.4810181,30.6172028-14.3029175l5.3636017-0.4469604l0.2234802,1.5643921c-8.9393311,0.6704102-14.0794373,3.5757446-15.1968536,8.2689209c0.2234802,2.0112915,1.3408966,3.1287231,3.5757294,2.9052124C130.7377167,419.701355,134.0899658,417.243042,134.0899658,416.5725708L134.0899658,416.5725708z M79.1130829,376.1220703l0.2234802,1.5644531c0.2234802,2.2348022-0.8939362,3.5757446-3.1287689,3.7991943l-0.2234802-1.5643921C75.7608337,377.9099731,76.8782501,376.5690918,79.1130829,376.1220703L79.1130829,376.1220703z M162.6958313,398.9174194c-4.2461853,0.4469604-12.0681,3.7992554-23.9127045,10.5037231l-1.7878723,0.2235107l-0.2234802-3.3522339c8.4923706-0.6704712,15.8673096-4.0227051,21.9013672-10.0567627C161.1314392,395.7886353,162.4723206,396.9060669,162.6958313,398.9174194L162.6958313,398.9174194z M75.984314,423.0535889l5.3636017-0.4470215l0.2234802,1.7878418c-1.3408966,0-2.9052734,0.8939209-5.1401215,2.0113525l-3.3522491,0.2235107C72.855545,425.0650024,73.7494812,423.7240601,75.984314,423.0535889L75.984314,423.0535889z M40.45047,442.9436646l3.7992249,1.5643921c-1.3409119,10.0567627-4.2461853,15.1968384-9.3863068,15.6437988c-4.0226974-1.7878418-7.5984268-2.458313-10.950676-2.2348022l-0.4469681-4.916687c-0.2234802-2.0112915,0.8939362-3.1287231,3.3522491-3.7991943c2.2348328-0.2235107,3.575737,1.3408813,3.7992172,4.6931152C36.6512604,446.5193481,40.0035095,442.9436646,40.45047,442.9436646L40.45047,442.9436646z"/></svg>