<svg xmlns="http://www.w3.org/2000/svg" width="422" height="512"><path d="M156.215 36.651c-15.197 11.174-32.629 22.125-52.072 32.852l.224 3.352c1.34 0 2.905-.894 5.14-2.011 2.235-.224 3.576.67 3.576 2.905l3.575-2.011 1.788-.224.224 1.565c.223 1.564-12.068 11.174-36.428 28.382l2.011 3.129-1.788.223-3.799-1.34c0 1.117-1.564 1.787-5.14 2.01l.223 1.789 4.023 4.47c-1.34 0-3.129-.224-5.363-1.118-7.822.67-15.644 6.481-23.243 17.208l2.012 3.129c6.704-6.034 10.503-9.163 11.62-9.163l.448 4.917c-1.118 0-2.906.894-5.14 2.011l4.246 6.258c8.045-8.716 16.761-16.091 26.594-22.125 4.917 1.34 7.375 2.682 7.375 4.47l3.576-.224c26.148-19.443 52.072-33.299 77.772-42.015l.224 3.352c-4.693 7.152-8.046 10.728-9.834 10.951.224 2.458 1.118 4.47 2.459 6.481.447 4.47-11.174 33.746-34.864 88.276C81.571 310.64 36.428 404.057 0 464.845c0 1.117.894 2.905 2.011 4.917 8.94-2.235 14.75-4.247 17.209-6.481l2.01-.224.224 3.352 3.353-.223 3.575-2.011c0 1.117 1.341 1.564 3.576 1.34l.224 3.353c.223 3.352-1.565 8.492-5.811 15.42-3.8 4.246-7.598 12.962-11.845 26.148L14.75 512l3.352-.223c14.527-16.315 25.7-32.405 33.3-48.05 42.684-12.514 75.09-24.806 97.661-36.874 22.572-2.011 40.004-7.822 51.625-17.655l-.223-1.788-8.493 2.458-2.011.224-.224-1.788c16.538-2.458 28.16-6.258 34.417-11.174 32.405-25.03 56.764-42.686 73.302-53.19 51.178-37.544 75.314-73.749 72.409-108.165-.224-3.576-11.621-17.655-33.746-42.238-.447-4.694 7.375-11.398 23.019-20.337l44.473-39.11c9.833-12.739 15.867-33.299 17.878-61.681l-.67-6.705c-1.788-19.89-16.09-35.98-43.356-48.272C361.373 6.48 332.543.67 290.975 0c-34.193 3.128-79.336 15.197-134.76 36.651zm239.574 2.905-1.341 3.353-49.613-20.784c33.075 1.34 50.06 7.151 50.954 17.431zM195.1 177.222c3.352-18.326 7.151-28.83 11.398-31.288l37.098-83.359c-.447-5.14 7.375-9.163 23.689-11.845l5.364-.447.447 4.694c16.09-2.459 25.924-3.8 29.723-4.247 29.5-2.458 44.697 3.353 46.037 17.88l3.353-.224-.67-8.493 3.575-.223c8.716 4.693 13.409 10.504 13.856 17.431.447 4.694-2.011 10.504-7.599 17.432-2.234.224-3.575-1.34-3.799-4.693l-3.575.223-.894 10.057c-14.974 22.349-25.701 33.746-32.405 34.417-6.035 8.269-9.834 12.515-11.398 12.738-4.693 5.587-17.432 15.197-38.44 28.606-6.927.67-32.628 10.504-77.101 29.947-2.235-1.118-4.47-1.341-7.151-1.118l-.224-3.128c-.447-6.481 2.235-14.527 8.716-24.36zM400.482 74.42l.224 3.128c-1.788.224-5.14-5.14-10.057-15.867l-.224-3.129c3.13-.447 6.481 4.917 10.057 15.868zM74.196 114.2l.224 1.564c-1.117 0-2.905.894-5.14 2.011l-1.788.224-.224-3.129 6.928-.67zm107.943-2.682.447 4.917c-1.565.223-3.8 2.458-6.481 7.151l-.224-3.352c3.13-3.8 4.693-6.705 4.693-8.716h1.565zM165.6 146.38l.67 6.705-1.787.223-.67-6.704 1.787-.224zm-4.246 12.068c-.447 5.587-1.788 8.493-4.693 8.716l-1.788.224c2.011-3.8 3.129-6.481 2.905-8.493l3.576-.447zm-7.375 17.432.223 1.565-3.128 5.363-3.353.224-.223-1.565c3.352-.223 4.917-2.011 4.693-5.363l1.788-.224zm-7.598 15.644-.894 8.269-1.788.223-.67-8.269 3.352-.223zm181.244 6.034 7.375 4.47c.224 2.234-.893 3.575-3.128 3.799-3.129-2.011-5.587-2.905-7.375-2.905l-.447-4.917 3.575-.447zm-141.911 18.996.223 3.129-6.928.67-.223-3.129 6.928-.67zm114.423 11.621c4.917 2.235 7.375 4.47 7.598 6.258l.224 1.564c-4.693.447-8.94-2.011-12.962-7.375l5.14-.447zM152.64 264.38c20.114-1.787 51.848-11.174 94.98-28.158l10.504-.894c21.902-1.788 38.216 2.234 48.943 12.515l.67 6.704c-8.045 23.242-16.984 36.651-26.594 40.898l-44.697 35.533c-33.299 21.902-51.177 32.853-53.86 33.076-52.965 29.276-86.04 44.25-98.779 45.367l-2.011.224c1.788-6.258 25.253-54.53 70.844-145.265zm48.272-18.996.224 1.565-7.152.67-.223-1.564 7.151-.67zm160.461-7.151 1.118 13.185c-1.564 3.576-3.129 5.364-4.917 5.364l-2.011-23.242c3.8 1.564 5.587 3.129 5.81 4.693zM89.393 353.55c-2.235 11.398-4.693 17.209-7.151 17.432l-.224-1.564c-.447-5.81 2.012-10.951 7.375-15.868zm44.697 63.023c12.962-2.459 48.496-21.231 106.825-55.871l.223 3.129c.224 1.34-4.916 5.587-14.973 12.961-29.723 14.527-47.155 24.584-52.295 29.724-32.182 11.174-48.049 18.102-47.825 20.784-28.606 11.397-47.379 19.666-56.318 24.806-2.012.224-5.14-.67-9.163-2.458-.447-5.81 2.011-10.504 7.822-14.303 4.917-.447 9.833.224 14.303 2.235 5.363-2.682 14.526-5.81 27.712-8.94l-.224-3.352-10.503.894c1.34-1.788 11.397-6.48 30.617-14.303l5.363-.447.224 1.565c-8.94.67-14.08 3.576-15.197 8.269.223 2.011 1.34 3.128 3.576 2.905 6.48-4.47 9.833-6.928 9.833-7.598zm-54.977-40.45.224 1.564c.223 2.234-.894 3.575-3.13 3.799l-.223-1.565c-.223-2.011.894-3.352 3.13-3.799zm83.583 22.794c-4.246.447-12.068 3.8-23.913 10.504l-1.788.224-.223-3.353c8.492-.67 15.867-4.022 21.901-10.056 2.458-.447 3.8.67 4.023 2.681zm-86.712 24.137 5.364-.447.223 1.787c-1.34 0-2.905.894-5.14 2.012l-3.352.223c-.223-1.564.67-2.905 2.905-3.575zm-35.534 19.89 3.8 1.564c-1.341 10.057-4.246 15.197-9.387 15.644-4.022-1.788-7.598-2.458-10.95-2.235L23.466 453c-.224-2.01.894-3.128 3.352-3.799 2.235-.223 3.576 1.341 3.8 4.693 6.033-7.375 9.386-10.95 9.832-10.95z"/></svg>