<svg xmlns="http://www.w3.org/2000/svg" width="500" height="512"><path d="M3.642 267.4c-11.752-18.485-.369-26.423 114.53-145.4C213.507 23.282 240.716 0 252.039 0c11.264 0 36.9 18.419 129.263 112.817 79.715 81.472 117.852 129.61 117.852 137.71C499.153 267.367 259.55 512 243.067 512 223.124 495.818 81.633 370.102 3.642 267.4zm362.896 111.078c78.065-80.184 115.846-122.579 115.846-129.994 0-12.68-217.38-237.737-229.35-237.445-8.205.2-226.298 219.73-236 237.725-8.049 14.926 30.44 55.726 134.417 157.66 97.921 96 89.45 87.698 95.569 83.386 9.245-6.515 55.802-45.888 119.518-111.332zm-152.582 7.856c-5.175-65.67-3.42-116.023-3.42-186.36h-21.065c-25.513 0-25.594.356 14.364-62.676 18.065-28.495 31.67-44.918 36.432-43.976 7.415 1.466 67.725 92.104 67.725 101.78-10.64 9.924-38.327-1.062-44.273 12.473-4.844 12.622 11.64 52.427 36.348 87.772 25.318 36.218 27.43 43.57 15.39 53.563-6.69 5.552-10.93 3.638-27.252-12.3-10.63-10.38-20.914-17.288-22.852-15.35-5.063 23.884-3.524 42.9-3.524 68.494-15.633-.604-33.352 1.767-47.873-3.42z"/></svg>