<svg version="1.1" xmlns="http://www.w3.org/2000/svg" width="500px" height="512px"><path d="m3.6416319 267.4002c-11.75156-18.4857-0.36844-26.42329 114.53112-145.40071 95.33303-98.71631 122.54272-121.99949 133.86568-121.99949 11.26384 0 36.89862 18.41903 129.26212 112.81739 79.7152 81.47147 117.8526 129.61045 117.8526 137.70995 0 16.83987-239.60329 261.47266-256.08636 261.47266-19.94244-16.18241-161.43346-141.89758-239.42516-244.5998zm362.89633 111.07736c78.06519-80.18313 115.84639-122.57824 115.84639-129.99314 0-12.68134-217.38115-237.73708-229.35009-237.44542-8.20557 0.19987-226.29869 219.72923-236.0011 237.7246-8.0479601 14.9267 30.44162 55.72631 134.41782 157.66122 97.92114 95.99871 89.45008 87.69698 95.56878 83.385 9.24503-6.51523 55.80261-45.88795 119.5182-111.33226zm-152.58187 7.85684c-5.17532-65.66982-3.41952-116.02351-3.41952-186.3611h-21.06551c-25.51258 0-25.59437 0.3568 14.36437-62.67553 18.06411-28.49499 31.66972-44.91798 36.43205-43.97624 7.41423 1.46614 67.72403 92.10463 67.72403 101.78115-10.64038 9.92284-38.32652-1.06282-44.27268 12.47247-4.84364 12.6223 11.64023 52.4264 36.34857 87.77207 25.31772 36.21729 27.43016 43.56971 15.38926 53.56278-6.68978 5.55199-10.92955 3.63842-27.25135-12.29937-10.63095-10.38082-20.9148-17.28862-22.85281-15.35049-5.06267 23.88337-3.5238 42.89893-3.5238 68.4937-15.63284-0.60391-33.35127 1.76688-47.87261-3.41944z"/></svg>