<svg xmlns="http://www.w3.org/2000/svg" width="512" height="512"><path d="M126.884 2.868 2.804 126.948a5.892 5.892 0 0 0-2.785 4.983v122.55c-.151 2.04.608 2.929 1.98 4.452l249.54 250.094c.011.006.023.017.035.023 3.393 2.91 6.858 1.61 8.711-.16l249.678-249.737c1.662-1.949 2.05-2.237 2.037-4.672V131.93a5.893 5.893 0 0 0-3.406-5.328L385.078 3.087a5.893 5.893 0 0 0-8.332 0l-120.65 120.65L135.215 2.869c-3.34-2.549-6.596-1.776-8.331 0zm9.815 18.147 111.054 111.054-53.001 53.001-58.053-58.053zm249.805.161 111.008 111.008-53.22 52.967-57.788-57.788zm-261.588.323v106.186l-57.42 57.42-53.093-53.093zm249.805.276v106.002l-57.293 57.294-53.001-53.002zm-243.58 116.347 55.28 55.28-55.314 55.314-55.28-55.28zm249.679.219 55.13 55.13-55.2 54.934-54.991-55.003zm-119.212 7.583 47.489 47.478-47.49 47.489zm-249.806.23 47.317 47.328L11.802 240.8zm488.415.08v94.841l-47.42-47.42zm-250.393.438v93.471l-46.73-46.741zm-55.06 55.06 53 53.002-55.325 55.326-53.001-53.001zm122.664 0 54.98 54.981-53 53.002-54.981-54.98zm-249.978.082 57.466 57.466v105.875L14.518 254.756zm377.015.172 52.886 52.886-110.847 110.34V259.948zm-188.37 61.08 54.981 54.98-55.326 55.325-54.98-54.98zM136.7 271.292l47.248 47.26-47.248 47.247zm238.022.437v93.31l-46.66-46.65zm-54.992 54.992 52.622 52.61-110.743 111.273v-105.76zm-127.451.16 57.546 57.536v105.68L139.45 379.711z"/></svg>