<svg version="1.1" xmlns="http://www.w3.org/2000/svg" width="512px" height="512px"><path d="m126.88363 2.8683486-124.07991 124.07993c-1.7244199 1.07038-2.7765551 2.95291-2.7846923 4.98255v122.54942c-0.15131196 2.04013 0.60810121 2.9294 1.9792031 4.45325l249.54065 250.09301c0.0112 6e-3 0.023 0.0177 0.0348 0.0236 3.39292 2.91072 6.85835 1.61022 8.71163-0.16084l249.67765-249.73672c1.66175-1.9481 2.04997-2.23673 2.03672-4.67189v-122.54942c-6e-3 -2.28634-1.33322-4.36311-3.40607-5.32774l-123.51607-123.51652c-2.30083-2.2998877-6.03024-2.2998877-8.33107 0l-120.65081 120.65087-120.88096-120.8695c-3.33893-2.5489828-6.59534-1.7766584-8.33107 0zm9.81546 18.14653 111.05399 111.05399-53.00121 53.00122-58.05278-58.05276zm249.80532 0.161429 111.00796 111.00797-53.21985 52.96664-57.78811-57.78811zm-261.58848 0.322268v106.1865l-57.419891 57.41989-53.093268-53.09325zm249.80531 0.276314v106.00245l-57.29331 57.29328-53.00122-53.00122zm-243.58003 116.3472 55.2796 55.27961-55.31411 55.31407-55.279597-55.27955zm249.67874 0.21858 55.13001 55.13002-55.19905 54.93436-54.99192-55.00341zm-119.21244 7.58308 47.48936 47.47789-47.48936 47.48938zm-249.80532 0.23036 47.316753 47.3283-47.316753 47.31676zm488.41433 0.0807v94.84066l-47.42033-47.42033zm-250.39218 0.43716v93.47134l-46.72989-46.74139zm-55.06096 55.06097 53.00121 53.00123-55.32562 55.32562-53.00122-53.00123zm122.66455 0 54.98041 54.98044-53.00121 53.00122-54.98042-54.98043zm-249.97792 0.0807 57.465922 57.46596v105.87588l-110.39809-110.39903zm377.01512 0.17262 52.88614 52.88616-110.84686 110.34053v-105.26592zm-188.36947 61.07914 54.98041 54.98038-55.32562 55.32562-54.98042-54.98038zm-119.39657 8.2275 47.24772 47.2592-47.24772 47.24771zm238.02215 0.43716v93.31021l-46.66085-46.64936zm-54.99192 54.99192 52.62149 52.60997-110.7433 111.27263v-105.76075zm-127.45145 0.16084 57.54647 57.53496v105.68027l-110.37507-110.38659z"/></svg>