<svg version="1.1" xmlns="http://www.w3.org/2000/svg" width="512px" height="512px"><path d="M450.6973267,270.5367737l57.0067139-77.5291595c11.9714355-16.2469025-1.9952087-29.3584595-30.4985962-29.9285278L450.6973267,270.5367737z M450.6973267,425.8801575V270.5368042l32.7788696,134.5357666c6.8276367,28.1639404-11.335083,51.209137-40.5939941,51.5814514C447.6875916,448.8877869,450.5731506,437.5525513,450.6973267,425.8801575z M112.9324341,55.0512619h283.8936157c20.5127563,0.5176506,38.0477295,12.5139999,45.8903503,29.358429l7.9809265,186.1271057c-32.9908447-121.5572205-23.047821-178.3917236-99.4766541-186.0874023H66.3203583C75.1228561,68.9877548,88.9707794,55.6086464,112.9324341,55.0512619z M318.1566772,163.0790863c29.6435547,0,63.8475952,13.3966217,75.8190308,29.9285278l56.7216187,77.5291901H61.0562706L4.3346791,193.0076141c-11.9714489-16.2469482,1.7101321-29.358429,30.4984627-29.9285278H318.1566772z M351.2206726,456.9487305H69.1797485c-39.7241135-2.3128357-53.0471344-33.8930664-34.3465691-78.9543762h283.3234863c67.4670105-6.8215332,70.6487732-18.7531433,132.5406494-107.45755C415.5936279,409.0652161,419.6136169,450.1930237,351.2206726,456.9487305z"/></svg>