<svg xmlns="http://www.w3.org/2000/svg" width="466" height="512"><path d="M149.247 508.718c6.2 4.852 17.925 5.39 11.186-12.399-38.592-105.168 39.244-177.396 100-170.619 71.189 8.558 111.145 80.554 88.004 159.972-8.414 20.908 3.575 35.645 17.25 19.407C502.9 344.32 497.816 168.933 355.312 27.185c-18.2-12.658-16.598 1.68-3.909 31.132 32.932 101.74-9.63 148.783-59.623 162.997-38.358 10.906-134.361-16.712-182.289 59.104-44.366 2.613-94.174-84.808-94.743-133.962 1.263-18.273-9.309-18.868-12.669-6.603-16.485 92.557 70.103 159.164 83.558 172.64 19.365 29.826-21.33 113.379 63.611 196.225zm111.59-386.925c-77.358 90.7-4.313 110.916 52.29 67.25 64.69-49.864 3.774-167.519 3.774-167.519s-1.348-9.164-25.876-14.555C240.588-23.564 218.96 55.741 146.687 62.09c-11.966.462-11.839 14.222-4.717 17.925 1.002 7.945 3.694 18.376 10.222 24.427 10.241 9.492 33.192 19.287 42.962 17.984 37.466-4.995 53.845-8.318 65.683-.633z"/></svg>