<svg version="1.1" xmlns="http://www.w3.org/2000/svg" width="466px" height="512px"><path d="M149.2472839,508.7179871c6.1994324,4.8517151,17.9244232,5.3907776,11.1859131-12.3988647c-38.591835-105.1676941,39.2434082-177.3961487,99.9993286-170.6188049c71.1895142,8.558136,111.1456299,80.5533752,88.0047607,159.9719849c-8.4140625,20.9076538,3.5751648,35.6444092,17.2505493,19.4068604c137.2107239-160.7611084,132.1271362-336.145874-10.3772278-477.8943481c-18.1990051-12.6573448-16.5975342,1.6793156-3.9083252,31.1318645c32.9318542,101.7396927-9.6306152,148.7830505-59.6230469,162.9972229c-38.3578796,10.9061737-134.3612823-16.7119141-182.289093,59.1037292c-44.3661423,2.6137085-94.1743927-84.8075409-94.7432938-133.9613647c1.2629652-18.2733154-9.3088923-18.867981-12.6683807-6.603714c-16.4859428,92.557724,70.1027222,159.1643829,83.5573883,172.6403351C105.0011368,342.3191528,64.305336,425.871582,149.2472839,508.7179871z M260.8368225,121.7933502c-77.3579712,90.7001801-4.3126221,110.9156952,52.2907715,67.2502289c64.6895752-49.8648987,3.7735291-167.519104,3.7735291-167.519104s-1.3476868-9.1643581-25.875824-14.5551586c-50.4376526-30.5337944-72.0664825,48.7718964-144.3386536,55.1209068c-11.9657745,0.4618416-11.8383636,14.2214394-4.7169342,17.9244194c1.0023651,7.9450073,3.6940918,18.3766479,10.2227325,24.4275742c10.2407684,9.4914474,33.191925,19.2863846,42.9613037,17.9837952C232.6199951,117.4305191,248.9993286,114.1075287,260.8368225,121.7933502z"/></svg>