<svg xmlns="http://www.w3.org/2000/svg" width="512" height="512"><path d="M449.5 177.293 289.101 54.105c-10.506-8.067-28.159-8.031-39.695.043-11.681 8.158-13.028 21.682-2.647 30.21l66.707 54.286H109.794c-16.813.007-32.975 11.265-36.164 25.214-3.297 14.202 8.115 25.848 25.596 25.902h103.08L17.632 331.506C.277 344.786-5.324 366.893 5.607 380.87c11.085 14.228 34.682 14.256 52.217.08l100.405-82.166s-1.473 11.084-1.356 17.742c3.019 56.204 45.868 108.306 98.923 131.381 91.42 40.492 214.849 3.424 249.557-102.103 16.506-55.355 3.852-121.18-55.854-168.51zM279.463 373.509c-72.203-37.792-72.204-132.787 0-170.58s162.948 9.705 162.948 85.29-90.744 123.083-162.948 85.29zm21.989-34.01c-46.055-24.087-46.055-84.633 0-108.72s103.935 6.185 103.935 54.36-57.881 78.448-103.935 54.36z"/></svg>