<svg version="1.1" xmlns="http://www.w3.org/2000/svg" width="402px" height="512px"><path d="M245.1745453,255.3086548c11.103653,13.5233765,16.6597443,34.7190247,16.6597443,63.5700073c0,32.763031-5.6656494,56.083252-17.0054169,69.9270325c-11.3397522,13.8774719-25.3774109,20.7909241-42.0961609,20.7909241c-18.1014404,0-33.0412292-7.0314636-44.8446808-21.1281738c-11.7950287-14.079834-17.6967468-36.8267517-17.6967468-68.2070923c0-28.6318054,6.0197601-49.9960327,18.0424194-64.0927429c12.0310822-14.0798187,27.5441895-21.1281738,46.564621-21.1281738C220.6065216,235.0404358,234.0540009,241.8021393,245.1745453,255.3086548z M401.6967163,316.1301575c0-59.7929077-14.5519409-105.6577606-43.6474609-137.6113892c-29.09552-31.9620514-65.8632202-47.9388733-110.3032379-47.9388733c-21.5328674,0-41.1771851,3.6674957-58.9245148,10.9940796c-17.7557678,7.3349915-33.6229706,18.329071-47.5932007,32.9906464V0H0v503.7544556h130.9171448v-53.9417725c18.0930023,22.6794739,34.8201752,38.1419983,50.1730957,46.3875427C201.4764862,506.722168,223.9199066,512,248.4373627,512c28.6317902,0,54.6921539-7.5036316,78.1725616-22.5108643c23.4804688-14.990387,41.8601074-37.6698608,55.1558228-68.0384827C395.0446777,391.098938,401.6967163,355.9920959,401.6967163,316.1301575z"/></svg>