<svg xmlns="http://www.w3.org/2000/svg" width="402" height="512"><path d="M245.175 255.309c11.103 13.523 16.66 34.719 16.66 63.57 0 32.763-5.666 56.083-17.006 69.927-11.34 13.877-25.378 20.79-42.096 20.79-18.102 0-33.042-7.03-44.845-21.128-11.795-14.08-17.697-36.826-17.697-68.207 0-28.631 6.02-49.996 18.043-64.092 12.03-14.08 27.544-21.129 46.564-21.129 15.809 0 29.256 6.762 40.377 20.269zm156.522 60.821c0-59.793-14.552-105.658-43.648-137.611-29.095-31.962-65.863-47.94-110.303-47.94-21.533 0-41.177 3.668-58.924 10.995-17.756 7.335-33.623 18.329-47.594 32.99V0H0v503.754h130.917v-53.941c18.093 22.68 34.82 38.142 50.173 46.387 20.386 10.522 42.83 15.8 67.347 15.8 28.632 0 54.693-7.504 78.173-22.51 23.48-14.991 41.86-37.67 55.156-68.04 13.279-30.351 19.93-65.458 19.93-105.32z"/></svg>