<svg xmlns="http://www.w3.org/2000/svg" width="512" height="512"><path d="M59.79 284.14v-27.576s24.14-9.942 25.049 7.948c.778 15.292-25.05 19.628-25.05 19.628zm1.717 62.42v-32.17s32.883-10.598 32.883 9.249c0 15.451-32.883 22.92-32.883 22.92zm388.268-141.541c0 13.16-13.48 28.654-29.385 28.654s-29.823-12.573-29.823-28.362c0-13.16 11.392-33.294 32.747-32.747 22.806.585 26.46 19.294 26.46 32.455zM241.466 224.23c-21.355-.547-32.747 19.587-32.747 32.747 0 15.79 13.917 28.362 29.823 28.362s29.384-15.494 29.384-28.654-3.654-31.87-26.46-32.455z"/><path d="M22.917 235.269s15.743-4.642 43.616-13.813c7.069-2.325 30.047-7.285 48.783 1.444 25.18 11.732 33.05 53.079-5.662 64.506 0 0 36.422 1.306 40.531 27.02 6.113 38.252-26.463 54.599-44.602 59.47-23.813 6.394-64.948 17.825-81.712 21.535V512h59.382l9.643-7.864 7.602 7.864h106.366l9.643-7.864 7.602 7.864h104.65l9.642-7.864 7.602 7.864h104.65l9.642-7.864 7.602 7.864h21.186V257.207l-.041-.18c-51.933 61.755-140.812 34.957-154.312-27.707-13.365-62.035 46.054-132.154 125.069-109.766-1.908-4.268-55.67-115.448-206.373-119.52-31.003-.839-160.21 13.25-214.527 149.3-9.708 24.316-15.871 52.09-15.982 85.935zM307.6 309.027c-65.069 61.332-142.919 31.974-155.784-31.032-10.92-53.484 33.065-100.449 72.242-108.857 52.384-11.244 84.503 14.739 98.302 54.099 16.705 47.65-14.76 85.79-14.76 85.79z"/></svg>