<svg xmlns="http://www.w3.org/2000/svg" width="512" height="512"><path d="M154.588 442.216h-30.511v-40.372h28.511c24.884 1.86 25.628 38.697 2 40.372zm277.905-91.189c-32.342-14.688-66.184 12.212-62.277 50.724 3.364 33.164 33.246 48.1 58.991 39.85l-17.46-20.086 20.539-16.465 18.26 21.154c16.949-23.94 9.38-62.718-18.053-75.177zm-280.788-1.741h-27.628v26.511h27.628c15.904-1.775 14.507-26.511 0-26.511zM512 0v512H0V0h512zM173.181 386.873c36.777-12.753 20.465-64.936-20.36-64.936H93.937v146.511h61.954c53.86 0 63.07-70.883 17.29-81.575zm146.802 41.529c0-49.954-65.786-44.485-66.418-67.488-.484-17.605 25.595-19.925 33.86-.93l23.814-15.257c-16.744-36.837-87.442-32.372-87.535 15.442-1.761 38.964 39.728 44.58 58.047 56.093 26.608 21.604-20.623 45.289-42.14 9.489l-25.116 13.674c23.582 48.279 107.163 39.488 105.488-11.023zM469.4 448.044c35.312-35.98 26.321-99.796-23.834-121.363-55.814-24-113.95 19.829-106.85 78.176 6.49 53.34 63.8 81.191 109.447 58.55l21.913 25.21 19.623-17.058-20.3-23.515z"/></svg>