<svg version="1.1" xmlns="http://www.w3.org/2000/svg" width="512px" height="512px"><path d="M154.5883789,442.2156982h-30.5115967V401.843689h28.5115967C177.4720459,403.7041016,178.2161865,440.5412598,154.5883789,442.2156982z M432.492981,351.0270996c-32.3424683-14.6879883-66.1841431,12.2119751-62.2771606,50.7235718c3.364502,33.1646118,33.246521,48.0999756,58.9915771,39.8509521l-17.4602661-20.0865479l20.5386963-16.4647827l18.260437,21.1538086C467.4946289,402.2637939,459.9265747,363.4857178,432.492981,351.0270996z M151.7046509,349.2856445h-27.6278687v26.5115356h27.6278687C167.6088867,374.0217285,166.211853,349.2856445,151.7046509,349.2856445z M512,0v512H0V0H512z M173.1809692,386.8731689c36.7770386-12.7532959,20.4646606-64.9363403-20.3600464-64.9363403h-58.883606v146.5113525h61.9533691C209.7510376,468.4481812,218.9603271,397.5645752,173.1809692,386.8731689z M319.9833984,428.4017334c0-49.9533691-65.786499-44.4842529-66.4185181-67.4882202c-0.4836426-17.6044922,25.5946655-19.9249878,33.8604126-0.9302368l23.8139038-15.2557983c-16.7441406-36.8370972-87.4417114-32.3720093-87.534729,15.4418335c-1.7615356,38.9632568,39.7279053,44.5792236,58.0464478,56.0928955c26.6085815,21.6036377-20.6231079,45.2887573-42.1394653,9.4884033l-25.1162109,13.6743774C238.0765381,487.7039795,321.6577759,478.913269,319.9833984,428.4017334z M469.3988647,448.0439453c35.3117065-35.9801636,26.321167-99.7960815-23.8343506-121.362915c-55.8138428-23.999939-113.9498901,19.8289795-106.8497925,78.1759644c6.4907227,53.3392944,63.7994995,81.1914673,109.4473877,58.550354l21.9129028,25.2089233l19.6226196-17.0571289L469.3988647,448.0439453z"/></svg>