<svg xmlns="http://www.w3.org/2000/svg" width="512" height="512"><path d="M225.216 45.721c.282 29.004-17.025 11.218-16.789 27.509.108 7.445 9.294 14.086 14.265 23.703 5.905 11.425 7.62 26.08 5.72 37.667-1.236 7.537-3.74 15.124-7.096 22.056-9.116 18.834-23.643 29.155-46.82 27.318-22.024-1.746-44.21-1.562-66.301-2.652-7.963-.393-31.364-8.237-32.065-3.406-1.038 7.16 3.037 12.194 9.308 14.128 11.005 3.393 22.341 6.715 33.77 7.754 21.998 1.998 44.252 1.536 66.211 3.779 11.622 1.187 23.564 4.5 34.089 9.363 17.358 8.02 21.889 22.065 20.144 43.863-1.68 20.992-11.962 35.382-30.884 45.061-4.228 2.163-8.25 4.744-12.157 7.414-6.623 4.525-6.144 9.809 1.093 13.108 4.213 1.92 8.555 3.582 12.786 5.469 19.603 8.743 32.486 33.682 27.568 53.287-2.46 9.804-15.02 14.079-23.217 7.982-12.534-9.324-26.085-16.585-42.266-18.165-13.226-1.29-24.477 2.64-33.043 12.416-1.687 1.925-3.178 5.723-2.281 7.547 1.047 2.129 4.68 3.92 7.424 4.292 5.266.712 10.701.49 16.058.354 33.993-.863 55.85 14.001 67.39 44.68 13.587 36.116-15.68 64.49-45.833 70.406-20.865 4.093-38.681-3.048-55.023-14.59-15.346-10.84-27.918-24.257-39.653-39.614 11.236.492 21.642.417 31.909 1.525 13.88 1.498 27.669 3.82 41.46 5.998 2.649.418 5.235 1.61 7.667 2.79 6.809 3.301 6.881 7.242.94 11.945-3.426 1.183-7.909 4.092-5.054 7.072 3.031 2.89 5.318 3.153 8.212 3.935 2.412.652 5.224.416 7.776.049 7.426-1.07 14.512-3.204 17.614-10.547 3.133-7.42-.735-13.53-5.337-19.157-12.263-14.996-29.739-18.849-48.26-20.212-26.15-1.924-52.329-3.5-78.452-5.695-5.902-.496-11.843-2.417-17.39-4.566-14.15-5.484-19.33-17.808-13.947-31.36 8.792 2.382 17.415 5.532 26.34 6.968 19.504 3.137 37.509-.735 52.773-13.32 7.601-6.268 11.745-14.117 10.066-24.07-.917-5.436-4.26-7.114-8.929-3.932-4.683 3.191-9.135 6.75-13.358 10.488-11.705 10.357-25.322 13.205-40.53 9.625-16.2-3.814-30.772-10.335-39.219-25.05-9.228-16.079-3.347-38.098 13.8-52.885 3.525-3.04 7.51-5.595 10.34-7.68 6.727 4.876 12.522 9.398 18.676 13.42 3.837 2.509 7.967 2.43 10.585-1.968 2.643-4.44 2-8.415-2.255-11.911-3.928-3.227-8.192-6.358-11.165-10.313-7.96-10.588-6.085-24.717 3.942-33.555 1.09-.96 2.816-1.778 4.253-1.787 16.894-.107 33.798-.327 50.681.112 6.357.166 12.943 1.193 18.943 3.164 14.692 4.827 22.933 17.838 20.682 31.203-2.063 12.256-14.104 21.44-29.256 22.243-2.742.145-5.554-.28-8.23.15-6.49.204-5.245 6.775-4.099 8.103 10.564 12.245 27.196 15.307 41.633 7.932 34.074-17.406 36.69-61.704 4.877-82.267-11.795-7.624-24.939-11.847-38.99-12.525-17.139-.826-34.36-.13-51.492-1.022-16.584-.864-31.42-6.538-42.588-18.846-8.657-9.54-10.496-20.51-5.904-32.375 8.824-22.799 31.785-34.598 59.108-29.583 18.452 3.386 36.554 8.637 55.077 11.493 11.62 1.791 23.888 1.943 35.586.602 18.85-2.16 30.078-13.545 34.134-31.17 4.09-17.769-.654-32.797-16.039-44.09-12.683-9.31-27.533-13.403-43.111-15.433-16.957-2.21-33.728-1.482-50.155 3.438-9.342 3.375-10.326 9.235-9.777 12.152.364 1.939 5.203 4.335 8.097 4.408 13.716.346 27.489-.688 41.17.016 14.536.749 29.165 2.29 40.599 12.725 8.323 7.597 11.706 17.233 8.471 25.03-3.527 8.501-12.705 13.966-24.457 13.337-8.456-.452-16.91-1.868-25.235-3.471-17.76-3.42-35.37-7.575-53.175-10.74-7.602-1.35-15.542-.976-23.555-1.397-8.06-20.043-12.813-32.099 8.13-50.727 19.367-17.228 42.306-29.254 69.833-28.603 9.465.225 18.804 4.185 28.26 6.181 7.949 1.678 15.967 3.077 23.995 4.364 1.464.234 8.223 1.606 6.4-1.453-2.886-4.215-4.737-8.375-7.877-11.252-14.257-13.061-31.875-18.53-51.276-19.472-2.607-.127-5.224-.05-7.836-.09-.247-.003-.491-.158-1.453-.49 7.043-10.624 15.76-19.168 28.638-22.167 17.116-3.987 33.448-.82 48.082 8.337 14.755 9.233 17.071 16.852 17.254 35.647zM31.12 235.511c-3.955-2.202-6.433-1.932-9.69.66C4.341 249.766-.678 267.89.07 288.065c.265 7.137 2.524 13.718 8.977 18.027 5.525-4.493 10.396-9.183 16.015-12.82 5.722-3.707 12.18-6.378 18.557-9.626-2.656-13.914 1.549-26.6 9.419-38.205-7.591-3.365-15.076-6.122-21.919-9.93zM288.188 47c.462-17.296 2.254-25.108 8.93-31.853 21.978-22.205 60.765-19.606 78.9 5.235.757 1.035 1.4 2.148 2.369 3.647-26.857.963-51.442 5.596-66.303 29.51l.701 2.772c5.193 0 10.488.623 15.549-.174 5.102-.805 10.131-2.659 14.914-4.68 19.204-8.116 38.334-7.302 57.176.63 14.99 6.31 29.263 13.956 40.443 26.005 10.036 10.816 13.521 22.997 8.008 37.065-1.38 3.522-2.376 7.188-3.56 10.82-30.608-2.175-58.5 10.117-87.822 13.929-6.587.856-13.49 1.295-20.01.356-14.461-2.082-21.44-16.494-14.463-29.03 7.062-12.69 19.025-18.627 33.028-19.65 17.374-1.269 34.858-1.178 52.297-1.492 4.18-.076 8.5.416 9.648-4.754 1.12-5.045-.986-8.949-6.072-10.551-31.771-10.012-62.72-8.562-91.701 8.364-17.737 10.358-23.91 27.58-18.919 47.356 4.777 18.926 17.422 29.122 38.598 31.113 22.458 2.112 43.751-3.775 65.076-9.2 14.006-3.562 27.97-6.636 42.532-3.542 22.114 4.699 39.073 27.11 35.243 46.869-2.215 11.426-9.878 19.039-19.643 24.752-11.846 6.931-24.814 9.424-38.624 9.182-19.733-.346-39.593-1.697-58.944 3.827-12.133 3.463-22.87 9.392-31.476 18.415-18.124 19.002-13.53 51.547 9.527 69.258 15.034 11.548 32.373 10.664 45.717-2.685 1.633-1.634 2.344-4.824 2.141-7.182-.078-.91-3.843-1.88-6.02-2.179-4.508-.619-9.193-.3-13.598-1.267-12.975-2.847-20.898-11.54-22.336-23.785-1.213-10.336 5.992-21.782 17.141-27.219 10.805-5.27 22.425-4.657 34.001-4.569 11.962.09 23.928-.146 35.886.071 2.262.041 5.07.956 6.652 2.45 10.887 10.28 10.457 26.83-.82 37.623-2.195 2.1-4.82 3.771-7.214 5.678-4.129 3.287-4.458 7.42-2.048 11.631 2.47 4.318 6.515 4.63 10.354 2.054 6.02-4.041 11.724-8.531 18.038-13.181 15.006 6.264 28.457 26.99 28.055 44.44-.393 17.117-12.155 30.695-33.208 38.322-19.309 6.995-36.906 5.503-51.996-9.61-3.07-3.075-6.71-5.688-10.38-8.088-4.098-2.679-7.132-1.665-8.222 3.338-2.482 11.387 2.811 19.83 11.472 26.317 21.37 16.006 44.676 15.815 68.772 6.814 2.118-.791 4.176-1.734 6.238-2.597 6.064 10.84 1.9 26.035-10.224 30.382-12.303 4.41-25.567 7.083-38.638 8.464-23.369 2.47-46.948 2.985-70.36 5.13-12.91 1.183-24.34 6.607-33.026 16.431-5.667 6.41-10.798 13.291-6.576 22.347 3.2 6.865 14.233 11.079 24.393 9.382 2.842-.475 5.4-2.574 8.087-3.928-1.656-2.389-2.865-5.31-5.056-7.064-5.93-4.75-6.026-9.709 1.313-11.95 11.205-3.421 22.799-6.133 34.432-7.584 14.447-1.803 29.104-2.014 45.7-3.038-8.476 9.409-15.407 17.886-23.175 25.556-14.155 13.976-29.874 25.625-50.428 29.43-35.998 6.665-72.605-25.324-68.038-59.613 4.493-33.735 32.327-56.96 67.042-56.027 5.78.156 11.63.442 17.33-.254 2.771-.338 6.322-2.255 7.545-4.486.907-1.657-.668-5.562-2.34-7.453-11.112-12.575-25.712-15.733-41.001-10.516-11.591 3.955-22.422 10.446-32.944 16.824-7.687 4.66-19.611 1.34-22.142-7.39-5.345-18.433 6.159-43.734 24.29-53.06 4.748-2.442 9.789-4.335 14.651-6.572 7.2-3.312 7.777-8.919 1.197-13.4-5.178-3.527-10.425-7.059-16.01-9.9-28.32-14.411-29.2-48.514-23.344-68.702 3.017-10.4 11.967-15.936 21.444-20.127 18.498-8.178 38.43-7.758 58.155-8.972 19.532-1.2 39.04-3.111 58.456-5.503 5.036-.621 10.05-3.699 14.374-6.63 2.44-1.655 4.45-5.198 4.802-8.103.308-2.54-1.275-6.503-3.338-7.725-1.598-.947-5.215 1.406-7.956 2.223-6.424 1.915-12.775 5.017-19.308 5.449-20.521 1.357-41.12 1.531-61.674 2.482-31.633 1.463-49.686-12.389-55.69-44.64-1.914-10.275-1.653-21.12-.96-31.616.612-9.268 5.72-16.795 14.214-21.74 2.535-1.475 5.178-2.968 7.232-4.978 1.845-1.804 6.117-7.873-1.976-11.471 0 0-14.941-4.917-14.48-22.213zm215.174 258.317c17.76-12.995 6.263-61.266-17.494-71.676l-26.53 11.807c8.215 11.62 11.688 24.61 9.583 36.835l34.44 23.034z"/></svg>