<svg xmlns="http://www.w3.org/2000/svg" width="334" height="512"><path d="M314.275 213.636C357.673 86.893 257.597 0 166.597 0S-18.988 96.876 22.012 212.876c-27.287 14.189-31.146 54.027-.546 73.128-13.591 44.999-13.098 82.951 35.29 132.25v65.85C57.55 497.193 71.22 512.072 88.678 512h155.447c16.125-1.9 29.864-7.432 32.71-29.53v-67.094c34.957-20.862 54.867-82.971 34.393-129.116 24.245-14.096 34.17-48.74 3.047-72.624zM30.037 267.39c-14.743-11.935-9.338-34.058.352-36.68-.292 18.36 5.172 27.466 5.172 27.466.413 6.64-.942 9.1-5.524 9.214zm136.139 118.97-55.928-76.413 26.355-47.76h59.343l26.355 47.76-56.125 76.412zm117.899-179.978h-21.368c.397-21.263-15.336-36.163-33.11-35.383v-30H105.805v31c-21.13-.623-32.658 11.751-32.903 34.383l-17.52.34C14.429 94.832 107.598 35 160.848 33.578c77.867-2.082 162.837 86.52 123.228 172.806zm20.48 61.008c-4.581-.113-5.936-2.574-5.523-9.214 0 0 5.464-9.107 5.172-27.467 9.69 2.623 15.095 24.746.352 36.681z"/></svg>