<svg xmlns="http://www.w3.org/2000/svg" width="512" height="512"><path d="M486.86 219.843c-13.819-5.004-34.053-26.813-73.476-40.252-33.036-11.262-80.49-18.214-130.98-20.445C51.115 148.923 0 261.374 0 261.374s63.892 61.336 185.288 76.032c22.823 2.762 92.465 17.662 118.84 15.972 45.142-2.89 47.28-.638 94.561-33.224 43.554-30.017 68.28-5.944 100.311-26.834 29.39-19.168 1.68-68.473-12.14-73.477zm-259.74 18.415c-12.082 0-21.877-9.474-21.877-21.16 0-11.685 9.795-21.159 21.877-21.159 12.082 0 21.876 9.474 21.876 21.16 0 11.685-9.794 21.159-21.876 21.159zm58.848 45.718c-6.91 0-12.512-5.418-12.512-12.102s5.602-12.102 12.512-12.102 12.512 5.419 12.512 12.102-5.602 12.102-12.512 12.102zm-68.963-96.603c-23.945 13.584-37.97 38.768-37.97 67.553 0 31.693 19.525 58.92 47.545 71.215-18.825 1.335-37.494 1.593-55.597.292-99.979-7.187-163.955-67.615-163.955-67.615s66.939-77.626 209.977-71.445zm266.022 104.03c-2.785.446-41.105-7.625-88.814 3.955-24.897 6.043-52.468 12.761-81.16 18.476 16.993-14.341 27.781-35.385 27.781-58.908 0-19.983-7.813-38.158-20.563-51.985 6.147 1.81 12.482 3.761 19.403 5.853 60.99 18.431 105.273 39.07 122.554 35.614 6.515-1.304 8.746-5.884 12.378-5.864 10.798.059 14.828 11.884 20.565 20.49 7.667 11.5-.723 30.54-12.144 32.369z"/></svg>