<svg version="1.1" xmlns="http://www.w3.org/2000/svg" width="512px" height="512px"><style type="text/css">.st0{fill-rule:evenodd;clip-rule:evenodd;}</style><path class="st0" d="M200.7362061,482.822113c2.3676147,4.8486633,6.381134,10.1751404,10.6451111,13.8421326c5.2106628,4.4811096,11.7041626,7.650177,18.5758514,10.1941528c4.7974701,1.7760925,11.1365051,3.3239136,16.2634888,4.2446594c5.313797,0.9543762,11.8376312,0.9369202,17.9861603,0.8695068c10.926178-0.1199951,19.5498962-1.1368713,29.2832336-3.5080261c6.1323547-1.493927,11.9565125-3.1520996,16.6852112-5.0126648c8.927063-3.5124512,14.6183472-7.412384,15.8059998-9.9429016c-0.8915405-4.1833496-2.2934265-10.7702942-3.3375854-16.6908875c-1.1048889-6.26474-1.8404846-11.8613586-2.3175049-16.0004883c-1.336792-11.5999756-0.6491394-19.7611389,0.8329773-33.2544861c2.1827698-19.8728333,6.4269104-28.9256592,12.6234131-40.7353821c5.9180908-11.2791748,15.6878052-27.0445862,23.2167664-37.2006531c7.8485718-10.5872192,27.499176-31.278717,34.6672058-38.9680481c2.5006714,0.739624,7.328949,2.349823,14.7954712,3.8239136c5.6904907,1.1234436,12.3163757,2.4620361,20.6539307,2.1812744c19.852356-0.668457,27.0790405-4.4641724,38.6270447-11.9927979c10.4776306-6.8308105,20.5026245-20.4986877,25.7520752-33.5959778c4.0363464-10.0707092,5.2780151-20.3242035,3.5214844-32.3573761c-1.1815796-8.0943298-3.7969055-17.6789398-5.8868713-24.0170441c-2.2733459-6.8943024-5.8426208-14.2993317-8.8401489-19.9034271c0,0,12.0515442-14.3988495,16.8740234-26.4111328c4.152832-10.3443451,6.0886841-23.6545563,5.257782-31.973526c-0.8623962-8.6340179-8.1917419-24.4739609-12.7981873-30.1269379c-6.0689087-7.44767-12.0025635-15.1691589-19.499176-21.2244568c-7.3480835-5.9353256-15.6695251-10.793602-24.385437-14.4344254c-9.0307617-3.7723618-19.8346558-5.9556885-28.3973389-7.4606628c-1.2860413-6.8597527-3.058197-11.6421661-7.7786865-19.896492c-5.8934631-10.6002274-12.3677063-15.3880444-22.5429993-22.8379364c-12.6244812-9.2430687-30.2205811-18.7783604-47.2997742-20.0835876c-7.3580017-0.5623127-18.1438293-0.7948354-31.7080688,2.1224418c-11.7938538,2.536521-23.4197998,7.3283963-32.2605591,11.8449917c-17.7492065-6.7978644-34.3317566-5.7936363-47.4144592-2.2411022c-11.0322113,2.9957304-13.3862457,4.7928619-23.4806061,10.733099c-9.9100189,4.2814312-20.6756744,14.2360306-29.0124207,25.7618713c-31.0505676,0.8816872-56.8971329,11.8034821-75.2990112,22.2463417c-20.9314194,11.8783493-39.7131729,34.5819016-47.0673294,49.023819c-8.2079163,16.1184921-16.4062424,38.9175797-9.4807243,74.1757126c-45.741745,28.1237946-41.0373154,73.1087799-15.322506,98.2267609c22.5521584,22.0287476,59.9133072,28.8929749,95.2990875,25.3240356c10.5730896,10.7167664,50.5671997,59.1688538,50.5671997,59.1688538s40.284317,45.3992615,26.1958923,106.0868835L200.7362061,482.822113z M157.3370361,294.8893433c5.4737701-5.4737549,10.1655579-13.2934265,13.814743-19.2885132c4.1413422,0.230072,12.6456451,0.788147,21.0067902,0.4038696c8.3839722-0.3852844,17.2690582-1.6239014,20.8218842-3.7002258c0.9969177,2.9906921,7.9345093,27.7590027,8.3750153,42.9787292c0.5774994,19.953949,0.0215759,23.4907532-3.2039032,30.4945984c-1.7558289,0.8298645-3.4634399,1.191803-5.6186066,0.4182129c-7.676651-2.7555847-20.469101-12.3433533-29.641983-20.8999023c-14.2046661-13.2503052-25.5539551-30.4067383-25.5539551-30.4067383L157.3370361,294.8893433z M315.4636841,290.6744385c-0.2743225,2.4230957-0.4509583,11.1247864,0.7210999,18.7243042c1.1904297,7.7189636,2.3578796,14.8916931,5.269043,17.6772156c10.2292786-1.8431091,17.3742371-8.4060059,23.5487061-13.0138245c0,0,20.0409546-15.646637,23.911499-19.2406616c-2.9490051-2.6725464-7.0960083-8.9391174-8.5704956-12.7174988c0,0-14.1028442,4.131134-21.1988525,5.6056213C330.2055969,289.6448669,319.7028809,290.4901428,315.4636841,290.6744385z"/></svg>