<svg version="1.1" xmlns="http://www.w3.org/2000/svg" width="512px" height="512px"><path class="st0" d="M116.8509445,298.2015686c0-32.4721985,14.3840408-124.7650146,17.4925613-124.7650146C142.75,189.5,124.75,296.5,145.3253174,300.3065491c15.2806702-0.6372986,7.8768463-112.9823914,16.7093201-126.8699799C171.1942139,187.4733429,163.375,298.5,179.2579346,299.4743652c19.1337585,1.1737976,5.2136383-122.6612244,11.7487335-126.0377808c10.0231781,8.5666046,16.8820038,98.6783447,16.2034607,124.7650146c-1.4340363,55.131958-31.9920349,53.4575195-34.9222565,77.7364807c-0.998291,8.5498657-3.2274628,25.7292175-2.159668,54.0125732l71.1940765,71.1940613c2.1973114-109.9530945-4.5988312-106.7278137-5.7112274-114.5012207c0-26.7773438,0-252.3856506,0-268.9562378c0-22.9426651,21.4822388-33.7857666,41.2429504,16.5706024s14.2453308,229.4429626,14.2453308,242.1789246c-3.696167,13.0950317-16.504303,9.5325317-22.7948303,29.8381042c-2.1548767,6.9558105-4.8631897,59.3299866-4.6759949,101.9108582l98.1182556-98.1182251c-1.9880371-52.5558472,0.1185913-43.2867126-24.0686035-66.2824402c-46.1298218-45.866333-15.5043945-159.1908112,30.5303955-162.1814575C411.199646,183.3128967,446,296.3333435,398.7470703,343.7850647C373.7492981,364.1504211,376.3333435,367,374.9232788,396.8991394L512,259.81427l-256-256l-256,256l153.8186646,153.8186646c0.1548615-16.1389771,0.3763733-40.7182617-7.5860291-50.7887878C137.7675323,352.1377869,117.8208771,337.5307312,116.8509445,298.2015686z"/></svg>