<svg xmlns="http://www.w3.org/2000/svg" width="512" height="512"><path d="M116.85 298.202c0-32.473 14.385-124.765 17.494-124.765 8.406 16.063-9.594 123.063 10.981 126.87 15.281-.638 7.877-112.983 16.71-126.87 9.16 14.036 1.34 125.063 17.223 126.037 19.134 1.174 5.214-122.66 11.749-126.037 10.023 8.566 16.882 98.678 16.203 124.765-1.434 55.132-31.992 53.457-34.922 77.736-.998 8.55-3.228 25.73-2.16 54.013l71.194 71.194c2.198-109.953-4.599-106.728-5.71-114.502V117.687c0-22.942 21.481-33.786 41.242 16.57s14.245 229.444 14.245 242.18c-3.696 13.095-16.504 9.532-22.794 29.838-2.155 6.956-4.864 59.33-4.676 101.91l98.118-98.117c-1.988-52.556.118-43.287-24.069-66.283-46.13-45.866-15.504-159.19 30.53-162.181 42.992 1.709 77.792 114.73 30.54 162.181-25 20.365-22.416 23.215-23.826 53.115L512 259.814l-256-256-256 256 153.819 153.819c.155-16.139.376-40.718-7.586-50.789-8.465-10.706-28.412-25.313-29.382-64.642z" class="st0"/></svg>