<svg xmlns="http://www.w3.org/2000/svg" width="356" height="512"><path d="M105.111 273.631c-2.026 47.168-12.821 47.2-47.046 74.573C11.6 385.368-.373 400.198.01 426.781c.739 51.438 40.83 76.422 73.794 82.93 31.213 6.162 60.497.39 100.781-15.142 31.297-12.066 37.9-26.539 68.662-41.763 22.011-10.893 46.498-10.195 65.763-22.609 29.874-19.25 53.484-60.306 41.342-100.511-15.618-51.715-14.612-58.59-13.819-82.115 1.835-54.427 21.94-75.335 18.824-96.06-.097-33.647-29.597-53.647-54.553-58.556 1.261-21.921 1.143-44.329-.25-67.566-1.02-17.007-6.09-25.525-15.766-25.525-10.612 0-26.445 15.833-65.778 38.833-25.664 15.007-49.814 17.042-60.846 3.208-4.619-5.792-8.675-9.009-13.012-9.009-10.01 0-15.516 10.51-16.517 31.53-1 21.021-1.501 36.203-1.501 45.545-35.851 15.464-47.458 48.893-36.79 89.56 5.636 21.489 15.66 53.352 14.768 74.1zm22.022-144.14c-1.624 36.373 20.876 166.373 31.03 171.167 8.346-2.294 7.346-114.294 37.036-129.127 10.06-4.167 58.643-3.25 83.31-11.792 8.054-2.79 14.593-8.355 18.29-12.731l3.503-36.536c22.276 5.024 50.54 24.392 32.544 67-11.354 26.88-18.84 83.43-10.022 118.18-12.149 38.212-34.178 50.973-53.081 63.357-31.068 20.355-95.47 47.09-116.179 58.735-26.889 15.12-48.563 23.015-73.044 20.08-25.552-3.064-40.511-24.21-53.985-36.568 4.366-11.506 39.958-34.643 71.474-64.726 14.666-14 25.6-41.314 24.119-61.898-3.305-45.95-19.12-85.736-19.12-107.268 0-22.5 24.125-37.874 24.125-37.874zM17.526 433.286c46.862 48.374 106.23 37.192 151.483 7.91 22.666-14.667 148-61 165.326-105.005 8.07 28.735-12.66 81.338-60.559 89.087-26.078 4.219-61.875 23.49-72.437 33.58-18.497 17.671-40.166 23.036-60.997 29.005-57 16.333-115 3.666-122.816-54.577zm143.506-307.319c-5.16-5.758-5.16-20.23 0-25.988s11.645 1.479 11.645 12.994-6.485 18.752-11.645 12.994zm73.687-2.584c-11.318-10.268-11.318-36.077 0-46.345 11.32-10.267 25.544 2.637 25.544 23.173s-14.225 33.44-25.544 23.172z"/></svg>