<svg version="1.1" xmlns="http://www.w3.org/2000/svg" width="512px" height="512px"><path d="M280.6154175,370.2330933c-0.8317261,17.3124695-3.2203979,35.6810913-7.5301514,52.953125c-5.4111633,21.6883545-8.7788696,30.5618591-11.5773926,33.7106323c-2.186615-2.6717224-6.2582397-8.3008728-11.7264557-31.5162964c-5.6239166-23.8757019-10.5626678-57.8366089-14.708313-101.0840759c6.2928467,1.800415,12.9381866,2.7659912,19.8093109,2.7659912c6.172821,0,12.1635437-0.7790833,17.880127-2.2426453c-4.2627563,5.2611389-6.8174438,11.961792-6.8174438,19.2617493C265.9450989,355.1517944,271.8173218,364.8490295,280.6154175,370.2330933z M190.3115387,223.5849762c5.2804413-10.7693634,13.1728668-20.0249786,22.8552094-26.9372864c-26.9597168-13.5623779-55.0444031-26.5340424-84.2685242-39.1338196c-5.280632,6.0946198-13.0711594,9.955246-21.7682648,9.955246c-5.8256531,0-11.2434235-1.735199-15.7754974-4.7091217c7.2987213,8.2374115,19.5793915,19.7708588,40.2493591,35.2996979c17.3135986,13.0071869,34.4872284,26.120163,45.0243988,34.1854401C181.282074,229.2331238,185.8558655,226.341095,190.3115387,223.5849762z M75.2658386,349.2104797c4.5432739,0.91922,14.9179077,1.4541626,41.1596222-6.7951355c25.5541687-8.0328979,56.6512756-20.2698975,87.6455078-36.3922424c-11.7846222-11.7786255-19.4986115-27.6292419-20.8516693-45.2606201C94.7374573,318.1150513,77.5619888,343.2026978,75.2658386,349.2104797z M200.0650482,217.6575012c5.2257538-3.1173859,10.2225037-6.0024109,14.9007568-8.6050262c3.1644287-1.760437,6.2711182-3.4752808,9.3463287-5.1654053c0.1072998-0.5211945,0.1788483-1.0189972,0.2005157-1.460022c-1.9297638-0.9905548-3.8672943-1.9769287-5.8048096-2.9632721C211.3605499,204.2434387,205.0183563,210.4360504,200.0650482,217.6575012z M286.3327026,204.6373138c-0.0552368-1.6286316-0.112854-3.2547607-0.1764221-4.8747559c-1.4234924,0.7466431-2.8587036,1.504303-4.3054199,2.272995C283.3486023,202.9018707,284.8465271,203.7680664,286.3327026,204.6373138z M254.8824158,183.3087311c2.4425659,0,4.8563538,0.1231232,7.2362671,0.3610535c7.8320007-4.0600586,15.3274536-7.8599701,22.492218-11.4078979c-0.793457-10.6131897-1.8172913-20.9684906-3.1158752-30.9982605c-7.5763245-58.5226212-15.4757385-81.8592682-19.9596863-88.6750793c-3.374176,4.7164192-7.8661194,13.2291794-13.2360382,34.1395569c-4.7019196,18.3090744-10.2373047,48.5270691-11.0213013,90.996933c3.792099,1.9427643,7.53125,3.9012146,11.2461853,5.8667908C250.6196442,183.4081116,252.7392883,183.3087311,254.8824158,183.3087311z M277.5444946,307.5295105c-1.6045837,0.5463867-1.6360474,2.6248169-2.9199524,3.0917053c-3.7787781,1.374115-6.3551941,1.0305786-9.9622192,7.2140198c-2.4963684,4.2795105-8.2445679,3.4352417-7.901062,0c0.3435364-3.4352417,5.4963989-8.5881042,5.4963989-14.0845032s2.633667-8.3591003,2.633667-8.3591003c0.2290649-4.5803223-5.0505371-1.9273987-5.9665833-4.2175293c-0.9161072-2.2901611-0.9052734-3.8025208-4.6903381-8.2605896c-4.1183929-4.8506775-1.2519073-4.0110779-1.2519073-8.5913696c0-4.5803528,4.177536-2.3773804,3.7241669-6.230957s-1.4734344-4.0802612-1.5867767-4.4203186c-0.1133575-0.3399963-1.2467499,2.2668457-3.5135803,1.0200806c-2.2667999-1.2467346-4.5336304-2.8335266-5.3270264-4.6469727c-0.7933502-1.813446-4.7602692-1.9267883-7.2537994-4.4202728c-2.4934998-2.4935303-0.2266541-1.7001343-4.5336304-1.7001343c-4.3069305,0-9.5205994-6.573761-9.5205994-6.573761c1.7049561-4.1277466-2.0582123-8.7498169-3.7007294-10.4973755c-0.127533,0.0779114-0.2558899,0.1562042-0.3831635,0.2340393l2.6104431,7.4298401c-2.1534882-0.1133423-2.5776062-1.5694275-2.5776062-1.5694275c-0.8322601-1.536499-1.5282898-3.0715027-2.099472-4.5979004c-10.9066162,6.686554-20.9963074,13.0192413-30.3294525,19.0121307c1.1485748,35.6810303,30.431015,64.2548218,66.3911438,64.2548218c11.052948,0,21.4733887-2.7027283,30.6420898-7.478241c0.1453857-4.2178345,0.2800598-8.4367676,0.4090881-12.6550598c-0.1054077,0.0689392-0.2107849,0.1436768-0.3162537,0.2069397C283.3492737,303.0504456,280.6471252,306.4730225,277.5444946,307.5295105z M312.9776306,287.4179688c4.770813-8.5803528,7.6987-18.3258667,8.2418213-28.7043762c-2.6152954-1.7304993-5.2365417-3.456131-7.8789978-5.164917C313.339447,264.8337097,313.2026672,276.1510315,312.9776306,287.4179688z M412.0947876,326.224884c-14.8373108-14.5635681-36.1293335-28.81073-62.0093689-47.5514526c-7.75177-5.6133423-15.6509399-11.0963135-23.666626-16.4832153c-1.2828979,13.2629395-6.1700134,25.4698792-13.6702271,35.6321106c-0.1037598,4.0856628-0.2145691,8.1654358-0.3421021,12.2229614c39.1991882,16.1026917,61.9512939,27.5476685,81.8471375,33.574707c22.0976257,6.6940308,35.3969727,6.9604492,39.1019287,6.5417786C432.0512085,346.8519897,425.6552734,339.5350952,412.0947876,326.224884z M512,256.0026245c0,140.734436-114.6151123,254.8222046-256,254.8222046S0,396.7370605,0,256.0026245S114.6151199,1.1804289,256,1.1804289S512,115.2682343,512,256.0026245z M455.3184509,340.507843c-9.5509338-28.421936-69.8193359-72.072052-102.7138367-94.1257019c-1.2832336-0.860321-2.5747681-1.719635-3.8646545-2.5791626c35.9475098-26.3126678,66.752533-50.1849518,82.8753052-66.8128052c0.8216553-0.8473511,1.6229858-1.6981201,2.4031982-2.5514832c1.0386353,0.1323547,2.0948486,0.2082062,3.1694336,0.2082062c13.7218933,0,24.8457336-11.1238251,24.8457336-24.8457336c0-13.7218933-11.1238403-24.845726-24.8457336-24.845726c-2.4126587,0-4.7421875,0.3504868-6.947876,0.9919128c-15.6394043-3.2195358-48.5131836,0.9148331-120.403656,34.2105942c-0.8106689-9.4614868-1.7770996-18.6506805-2.9205017-27.4824219c-3.5036926-27.0626297-9.0531006-49.4779434-14.0845032-66.6437683c-5.9982605-20.4645348-13.8644409-31.624382-22.1412354-36.6393738c-4.7509766-2.8783607-10.4439697-2.8555489-15.6229858,0.0617256c-7.0342102,3.9626102-17.3439636,16.0792294-26.5121155,51.2985458c-4.7013702,18.060997-10.1752777,46.9627609-11.6186981,86.8525391c-25.2864075-12.1998596-52.3335571-23.8474426-81.5890808-34.7236633c-2.679306-13.1313782-14.2943039-23.0114822-28.2172852-23.0114822c-10.2241745,0-19.1972809,5.3325119-24.3078766,13.3632812c-17.3498764,3.5630569-22.6331215,12.3515701-23.3049469,16.1758041c-3.9467163,22.4659729,44.1425629,62.4055939,61.5519485,75.5977478c14.9908676,11.3595428,28.8489304,21.2329407,38.9643631,28.2627716c-58.2716827,39.7202759-120.365921,92.8786926-106.2951736,118.3077087c3.7032051,6.6925049,15.8269501,9.6187134,27.4819641,9.6187134c9.8347321,0,19.1464615-3.2619324,35.1411514-7.9397888c28.9201355-8.4572754,64.7030487-23.6595764,100.7576904-42.8056946l0.250885-0.7864685c0.9459076,45.536438,7.6430511,93.5455933,14.5290527,119.1065063c5.299469,19.672821,13.8431702,43.8020935,30.5196838,43.5105286c13.4143372-0.2345276,24.0791321-14.2107239,32.4592285-45.1339722c4.8744507-17.9863892,9.8025513-46.0357056,12.4468689-64.3661804c11.6231689-4.3518982,19.8994141-15.5572815,19.8994141-28.6994324c0-2.006134-0.1987915-3.9651184-0.5668945-5.8637085c31.866272,13.253479,54.8231201,22.9067383,72.0768738,27.68396c10.80896,2.993103,23.5294189,5.5232544,33.2245789,5.5232544c10.2332764,0,19.4487305-3.2903442,24.0467224-11.3363342C458.0760498,356.4642944,458.2303467,349.1724548,455.3184509,340.507843z M258.4788818,226.4577179c0,0,1.374115,5.0383453,0,5.9544373c-1.3740845,0.9160461-4.6375732,3.6642456-4.6375732,3.6642456c0.8588104,2.9199524,3.2634888,9.790451-0.515274,7.2140198c-2.6090698-1.7789307-2.0611572-4.6375885-3.435257-5.4963989s-5.4963837,1.0305786-7.7292938,0.3435211c-2.2329102-0.6870422-2.7481995,0.5152893-4.9811096,0.5152893s-1.3740997,3.6070099-1.3740997,3.6070099c-1.7176208,2.5764313,1.2023315,11.6798248,4.9811096,7.7292938c1.3595428-1.4213104,2.2141571-2.8091278,3.0917206-3.2634735c2.6326294-1.3630676,3.4352417,1.3740997,2.4046631,2.4046631c-1.3740845,1.3740997-1.3740845,4.1222992,0,4.1222992c1.3740997,0,6.1834412,0.6870422,4.6375885,3.950531c-1.5458679,3.2634888,0.8588104,5.6681519,3.6070099,4.2940674c2.7481842-1.374115,3.9505157,1.3740845,3.9505157,1.3740845c0.2259827-2.9377747,3.3808594-4.6191711,6.8494873-4.4613342c1.8041687,0.0821533,4.0598755,1.3525085,5.2503662,1.6501465c2.7002258,0.6750183,2.1278992-1.7150574,3.3002625-1.4251099c2.7961731,0.6915588,5.7187805,4.1581421,6.9289856,5.6104126c1.4160767,1.6992798,4.277832,0.6539917,5.9706421,0.4772339c0.1294861-9.2710419,0.1878052-18.4933777,0.1478882-27.6296844c-7.5382996-4.5269165-15.1896057-8.9736633-22.937561-13.3570862C261.3511658,223.9990692,258.4788818,226.4577179,258.4788818,226.4577179z M320.275116,225.316803c3.5801086,2.2628174,7.1400452,4.5295715,10.6616211,6.8034515c32.9629822-24.1144409,58.0533447-44.4268494,74.6256714-60.4221649c3.990387-3.8516541,7.3252563-6.9480743,10.105957-9.4844513c-1.9068298-3.2986298-3.082489-7.0725708-3.291626-11.104538c-17.7008057,2.8968506-50.4440002,11.6596985-100.6898193,35.8100739c0.4542542,8.4122467,0.8040771,16.9732666,1.0636597,25.6324615C315.6756897,216.5153809,318.2037659,220.7893829,320.275116,225.316803z"/></svg>