<svg xmlns="http://www.w3.org/2000/svg" width="459" height="512"><path d="M257.705 160.437c-39.44-.618-70.05-26.25-70.676-78.822C185.822 33.288 214.78-.053 259.61.043c35.235-.136 56.205 20.45 62.105 45.388l-31 7.405c-6.135-29.28-43.768-34.007-60.675-13.647-7.162 8.252-10.74 21.62-10.74 40.099 0 19.61 3.439 33.649 10.581 41.896 15.1 17.436 53.17 21.213 61.892-20.42l30.366 9.629c-7.103 27.33-26.539 50.637-64.433 50.044zm90.998-.044h23.913l8.358-41.262h23.486l-8.145 41.262h23.593l8.358-41.262h30.47V95.854h-25.71l6.349-31.211h19.36v-23.38h-14.6L452.6 0h-24.547l-8.145 41.262h-23.382L404.884 0h-23.7l-8.358 41.262h-30.154v23.38h25.394l-6.348 31.212h-19.046v23.277h14.39l-8.359 41.262zm66.549-95.75-6.136 31.211h-23.489l6.242-31.211h23.383zM162.678 37.388h-23.657c-43.416 0-89.608 56.748-90.789 95.304l-2.257 202.735H94.11l2.258-203.185c0-20.883 26.717-47.423 49.886-47.423h16.424V37.388zm208.555 369.607c0 22.015-12.627 42.497-32.868 51.156-30.752 13.156-77.51-10.704-75.464-87.622H.006C-.694 441.075 59.114 512 105.904 512h211.792c58.89-5.575 99.729-45.878 101.744-104l2.257-215.85h-50.464v214.845z"/></svg>