<svg xmlns="http://www.w3.org/2000/svg" width="469" height="512"><path d="m413.953 374.028 52.61-95.928a15.739 15.739 0 0 0-1.37-17.224l-57.751-74.361 46.275-115.88c7.727-19.35-21.51-31.026-29.238-11.676l-47.308 118.466-59.284 27.697-73.898-48.075V86.124c22.949-8.739 36.113-35.965 24.636-60.53-14.463-30.954-57.292-34.641-76.907-6.62-17.193 24.562-5.348 57.48 20.789 67.211v70.277l-65.44 46.697-80.81-68.365c-15.97-13.512-36.304 10.523-20.332 24.035l84.58 71.555v86.863l-58.166 39.356c-19.052-15.039-48.84-12.63-64.27 9.413-19.615 28.022-1.438 66.925 32.64 69.859 30.064 2.588 52.772-24.514 47.78-52.189l57.59-38.965 66.428 46.662v104.809c0 21.077 31.482 21.077 31.482 0V392.859l73.84-49.146 75.406 36.886c8.378 3.332 15.302 1.207 20.718-6.571zM300.889 317.17l-71.508 47.594-67.394-47.34v-86.236l65.924-47.043 72.978 47.476v85.55zm92.684 28.548-61.202-29.94v-82.676l52.385-24.472 49.234 63.393-40.417 73.695z"/></svg>