<svg version="1.1" xmlns="http://www.w3.org/2000/svg" width="448px" height="512px"><path d="M375.1643677,239.3243256v-19.3887939c0-11.091507-8.9879761-20.0818634-20.0818787-20.0818634H65.2756729c-11.091507,0-20.0818672,8.9903564-20.0818672,20.0818634v64.9364166c0,90.9755249,74.0121613,164.9852905,164.9852905,164.9852905c55.7213593,0,104.9878082-27.8319397,134.8731537-70.2533264h32.1326294c38.7123718,0,70.2011719-31.4935303,70.2011719-70.2059021C446.2714233,262.8454285,407.994873,238.1808472,375.1643677,239.3243256z M210.1790924,409.693512c-68.8256836,0-124.8215561-55.9958801-124.8215561-124.8215637v-44.854538h249.6430969v44.854538C335.0006409,353.6976318,279.0047607,409.693512,210.1790924,409.693512z M365.9804382,338.9563904c7.0119324-20.626709,9.6712646-39.6888428,9.2372742-58.7055969c16.3674011-2.3089905,31.6539612,12.3905334,31.520813,29.1472168C405.595459,328.1091309,392.8255005,341.2444763,365.9804382,338.9563904z M220.5994568,137.0041656h-25.2801971v25.2801971c0,19.6760406-30.1607361,19.6760406-30.1607361,0v-25.2801971h-25.2801971c-19.9564667,0-19.9564667-30.1607361,0-30.1607361h25.2801971V81.5632324c0-19.9629898,30.1607361-19.9629898,30.1607361,0v25.2801971h25.2801971C240.8784637,106.8434296,240.8784637,137.0041656,220.5994568,137.0041656z M307.2920227,70.4669876H282.016571v25.2801895c-0.2080994,20.2766266-30.3955078,20.260025-30.1654816,0V70.4669876h-25.2778168c-20.119812,0-20.119812-30.1607437,0-30.1607437h25.2778168V15.0260487c0-20.0347309,30.1654816-20.0347309,30.1654816,0v25.2801952h25.2754517C327.4269409,40.3062439,327.4269409,70.4669876,307.2920227,70.4669876z M401.4690552,512H20.157877c-26.8771706,0-26.8771706-40.1637268,0-40.1637268h381.3111877C428.2380676,471.8362732,428.2380676,512,401.4690552,512z"/></svg>