<svg version="1.1" xmlns="http://www.w3.org/2000/svg" width="469px" height="512px"><path d="M413.9527893,374.0278015l52.6098938-95.927948c3.0169983-5.5010986,2.4789734-12.2688599-1.3701477-17.2237244l-57.7509155-74.3616028l46.2752686-115.8797455c7.7270813-19.3499298-21.5103149-31.0254135-29.2373962-11.6754875l-47.3081055,118.4662018l-59.2843933,27.6965485l-73.8984375-48.0751038V86.1235886c22.9493103-8.7381668,36.1138916-35.9649773,24.6368408-60.5287285C254.162262-5.3599591,211.3331451-9.046978,191.7180634,18.9741745c-17.1932983,24.5615082-5.3478851,57.4800262,20.7888031,67.2108383v70.2770844l-65.4400024,46.6971436l-80.80896-68.3651428c-15.9715309-13.5117416-36.3044853,10.5227661-20.3329506,24.0345001l84.5798798,71.5554047v86.862854l-58.165802,39.355835c-19.05196-15.0385437-48.8397293-12.6289062-64.2698669,9.4137878c-19.6150818,28.0210876-1.4379787,66.9246521,32.6402855,69.8583069c30.0630569,2.5880737,52.7716751-24.5140991,47.7802811-52.1882935l57.5887909-38.9654541l66.4283447,46.6624146v104.808075c0,21.0779419,31.4816895,21.0779419,31.4816895,0v-103.33255l73.8406067-49.1463928l75.405365,36.8862C401.6134033,383.9309387,408.5370178,381.8062744,413.9527893,374.0278015z M300.8892517,317.1701355l-71.5081177,47.5935059l-67.3946075-47.3403625v-86.2354584l65.92453-47.0426941l72.9781952,47.476181V317.1701355z M393.5726929,345.7178345l-61.2017517-29.9389954v-82.6763916l52.3854675-24.4729156l49.2331848,63.3932648L393.5726929,345.7178345z"/></svg>