<svg xmlns="http://www.w3.org/2000/svg" width="512" height="512"><path d="m255.96 216.098 200.252 49.715C491.062 252.211 512 234.867 512 216.098v-79.965c0-44.08-114.652-79.916-256.04-79.916C114.587 56.217 0 92.054 0 136.133v79.965c0 44.096 114.58 79.885 255.951 79.885l.009-79.885zM0 295.983v79.916c0 44.112 114.587 79.884 255.96 79.884l-.009-79.892C114.58 375.89 0 340.095 0 295.983zm456.196 49.763-200.245-49.763v79.908l200.245 49.772C491.061 411.995 512 394.716 512 375.883v-79.9c.016 18.833-20.939 36.112-55.804 49.763z"/></svg>