<svg version="1.1" xmlns="http://www.w3.org/2000/svg" width="512px" height="512px"><path d="M512,131.5340424c0,12.6082153-4.1520996,24.7605896-11.8484802,36.1749573l-249.8354492-68.814888l83.7271118,146.8983459c-24.6055908,3.6838684-50.8266907,5.6746216-78.0431824,5.6746216c-141.3849792,0-256-53.6949768-256-119.9330444C0,65.2990875,114.6150131,11.6041107,256,11.6041107S512,65.2990875,512,131.5340424z M9.5557108,196.160675l7.7436399,55.7186127c79.3496704,82.4728241,196.6325836,90.1698151,313.3222351,81.1949005l2.6251221-66.9648438C189.364624,284.0169678,68.5414886,252.7480316,9.5557108,196.160675z M354.2253418,240.4703369l-2.0102539,43.9299622l121.5323792,39.1748352l9.2833252-54.2954407l-137.6716614-44.0471649L354.2253418,240.4703369z M327.2159424,418.3444824l2.3213501-62.3496399c-124.115036,4.6444397-240.3921509-5.8769531-308.5328064-77.4554443l6.5609169,47.2081909C110.4240189,410.6392517,213.2205505,427.1135864,327.2159424,418.3444824z M291.674408,131.0431976l38.535553,67.61026l155.6712341,47.5359192l10.6759644-58.713028L291.674408,131.0431976z M351.2638245,305.1883545l-3.1093445,67.9491882l109.5644836,46.3077087l12.1368713-72.9762573L351.2638245,305.1883545z M31.800499,356.2210693l1.5743179,11.3277893c0,0,0.3659439,62.1665344,81.7890701,104.7106934c81.4200058,42.54422,209.0525818,24.2055969,209.0525818,24.2055969l2.0912781-55.1989441C205.1408997,445.8000793,101.4861145,427.9593201,31.800499,356.2210693z"/></svg>