<svg version="1.1" xmlns="http://www.w3.org/2000/svg" width="512px" height="512px"><path d="M287.6477051,159.7150421c13.2720947,28.9824524,5.5168457,71.1325073-22.0496826,88.9328156c-30.2588043,19.5387268-70.6276245,10.8484497-90.1664124-19.4103394c-2.0971832-3.247818-3.8493958-6.6169586-5.3043671-10.059494L0,293.8258667v155.8238525h449.9364624V313.0496521c-7.5940552-5.5408936-14.7739868-14.8708191-17.4102173-28.6268921c-8.4024048-5.4386902-14.7566223-13.7796326-17.6420898-23.7417603c-14.3924255-3.1244812-26.1994629-13.4213257-31.1464539-27.182724c-16.4407043-3.0388489-29.6723022-15.4233856-33.7016907-31.5264435c-13.4395142-3.7943115-22.0578613-11.8505402-26.5520935-24.7902069C311.8545227,177.7365723,298.9752197,172.6112213,287.6477051,159.7150421z M420.6289978,414.2139282H28.1475143v-23.9745789h392.4814758V414.2139282z M420.6289978,334.3244019H28.1475143v-24.9709167h392.4814758V334.3244019z M258.6476135,155.3532104c-4.7371826-3.0589142-8.8928528-5.1672211-14.0811157-6.4168091c-1.414566-6.2023621-2.8886871-12.325119-3.7037354-16.3554993c-5.457077-26.9844131-17.6977844-53.2637863-42.1170349-67.6450348c-11.3241577-6.7262268-26.5635681,0.334671-28.3417664,13.5127945c-1.4943085,11.0742035,5.7852325,16.72332,14.4597015,21.0717163c17.927536,8.9868774,28.2569122,26.1275177,35.1427307,44.7253647c0.4766693,1.2875366,0.9369812,2.8635712,1.4339752,4.5580902c-11.9424133,2.7243652-22.8747864,9.9236145-30.0443573,21.026825c-14.5731812,22.5688171-8.0914307,52.6784363,14.4773865,67.2516174c22.5688782,14.5731659,52.678421,8.0914154,67.2516022-14.4774628C287.6982422,200.0359955,281.2164917,169.9264374,258.6476135,155.3532104z M246.8696594,189.2087708c-6.7216644,0-12.1707153-5.4490356-12.1707153-12.1707001c0-6.7217407,5.4490509-12.1707764,12.1707153-12.1707764c6.7217255,0,12.1707764,5.4490356,12.1707764,12.1707764C259.0404358,183.7597351,253.5913849,189.2087708,246.8696594,189.2087708z M487.9254456,311.5684814v138.0809326h-9.9640808h-15.9425049V307.6947327c-9.1609192-5.7748718-15.2520447-15.975708-15.2520447-27.6050415c0-0.0241394,0.00177-0.0477905,0.0018311-0.0719299c-12.7047424-3.634552-22.2366638-14.7791138-23.4863586-28.3263092c-15.9015808-0.3819275-29.2443237-12.1286316-31.6739807-27.4385834c-17.3909607,0-31.8608093-13.605423-32.8225403-30.7557831c-13.7712097-1.2553711-25.0613098-11.0695801-28.5193481-24.0779724c-1.3266296,0.1642609-2.6748047,0.2587738-4.0458374,0.2587738c-18.0136414,0-32.6165771-14.6029816-32.6165771-32.6166229s14.6029358-32.6165695,32.6165771-32.6165695c15.1098633,0,27.815094,10.2765427,31.5201721,24.2201462c1.3253479-0.1639557,2.6722412-0.2582855,4.0419312-0.2582855c17.3909607,0,31.5990601,13.6120453,32.5608215,30.7624207c14.8954163,1.3578339,27.1560974,12.7184753,29.4726868,27.31604c16.9904785,0,31.2024231,12.9863739,32.7329102,29.5773468c17.6448059,0.4237671,31.8209534,14.8496552,31.8209534,32.5964355c0,0.0260925-0.0018616,0.0516968-0.0019226,0.0777893C502.0105591,252.639328,512,265.1937866,512,280.0896912C512,295.1466064,501.7943726,307.8135681,487.9254456,311.5684814z"/></svg>