<svg xmlns="http://www.w3.org/2000/svg" width="512" height="512"><path d="M256 0C114.615 0 0 114.615 0 256s114.615 256 256 256 256-114.615 256-256S397.385 0 256 0zm3.665 435.032c-239.551.002-239.554-354.062-.003-354.064 13.358-.636 14.31 19.342.951 19.978-212.816-.002-212.818 314.106-.003 314.108 13.407.634 12.462 20.613-.945 19.978zm.005-42.271c-187.558.002-187.56-269.519-.003-269.52 13.27-.626 14.211 19.352.941 19.977-159.475-.002-159.478 229.562-.003 229.564 13.874.65 12.939 20.629-.935 19.979zm.926-63.673c13.22.607 12.302 20.586-.917 19.979-126.903.002-126.906-182.131-.003-182.133 13.101-.606 14.025 19.372.923 19.978-100.797-.002-100.8 142.174-.003 142.176z"/></svg>