<svg version="1.1" xmlns="http://www.w3.org/2000/svg" width="512px" height="512px"><path d="M362.0386658,0H149.9613495L0,149.9613495v212.0773163L149.9613495,512h212.0773163L512,362.0386658V149.9613495L362.0386658,0z M502.375946,358.0522766L358.0522766,502.375946H153.9477234L9.6240597,358.0522766V153.9477234L153.9477234,9.6240597h204.1045532L502.375946,153.9477234V358.0522766z M492.8633118,160.6135406v186.2497101L374.0362549,140.5112762L492.8633118,160.6135406z M352.7686768,19.1366901L262.67099,89.9712753l229.0112305,66.7356644L354.111969,19.1366901H352.7686768z M156.5434113,20.4813213l-9.937851,108.8193054L347.3153076,19.1366901H157.8880463L156.5434113,20.4813213z M415.26474,260.3422241l-54.2567444,225.625061l131.6080627-131.6080933L415.26474,260.3422241z M23.2369595,358.2122192l134.6510925,134.6510925h2.1104279l87.0281982-84.3239441L23.2369595,358.2122192z M355.090332,491.8849182l9.3127441-124.6850891L166.875412,492.8633118h187.236557L355.090332,491.8849182z M95.0178604,240.7938843l53.1595993-211.9466095L20.0145092,157.0102234L95.0178604,240.7938843z M136.0283203,358.722168L19.1366901,159.6792755v193.7713776L136.0283203,358.722168z M177.7163696,165.5824585c0,0-6.6774597-8.3299866-17.6615753-7.9544525c-10.7093048,0.3661346-26.5951538,4.9884796-26.4249725,34.5142365c0.1454163,25.2301941,15.2093811,34.1265564,27.3687134,33.4356842c11.8642731-0.674118,18.0660553-10.5160675,18.0660553-10.5160675l7.9544525,10.1116028c-6.0669556,7.4151611-13.75177,13.3247528-27.605484,13.3247528c-18.8536835,0-40.4695358-12.2049255-40.8837204-45.0077515c-2.7967529-50.6912231,49.4794083-60.3999176,67.2303543-37.445816L177.7163696,165.5824585z M252.5101013,237.2876587h15.6908569l-30.2107086-91.5688477h-16.6275787l-30.4449005,91.5688477h15.2224426l7.6161957-26.1818695h31.0172119L252.5101013,237.2876587z M217.2649231,199.044754l11.8785858-40.8345795l12.0661926,40.8345795H217.2649231z M242.7004242,330.4049683c27.1372833,20.5823975,42.4572296,7.3643799,41.2093353-4.0589905c-0.8311462-7.6087341-13.678772-12.06604-25.8708801-16.7855835c-13.7778015-5.3333435-19.3621826-12.6654358-19.3621826-25.8944702c0-22.2185059,33.9140625-34.803894,58.0361023-12.5827942l-8.4828796,9.6022644c-9.0530396-8.6831055-32.3113251-13.5407715-34.7471619,2.9805298c0,17.3685608,43.8450317,12.7087097,45.3277283,42.6800537c0,29.124115-41.1959229,38.4311829-65.0247345,14.2846375L242.7004242,330.4049683z M369.0351868,280.8499451c-7.9532776-13.4594116-43.7867432-14.4207764-43.0875549,27.3557739c0.6611938,39.5049438,35.4838867,37.8436279,45.8843079,23.1606445l8.1280823,10.1382446c-24.9960327,26.5691833-68.8701477,10.1382446-68.8701477-32.5122986c-1.5731812-45.4472961,42.3009644-64.3254242,66.5977783-37.4066467"/></svg>