<svg xmlns="http://www.w3.org/2000/svg" width="494" height="512"><path d="M19.994 128.035c42.202-84.1 137.774-187.25 307.241-86.16-83.8 4.35-157.902 40.29-197.052 96.972-57.39 83.092-45.182 229.622 67.228 265.68C-9.511 414.063-23.383 214.479 19.994 128.036zm91.866 139.808s6.006 114.712 107.36 134.36C315.8 372.9 320.326 274.234 320.326 274.234c-55.065 83.7-149.355 78.39-208.465-6.391zm123.886-72.68c-25.305 10.54-53.861 39.319-62.656 55.626 5.462 38.246 41.088 66.834 84.575 47.982-46.384 6.783-62.918-69.614-21.919-103.608zm84.673 68.803c-9.993-45.334-45.205-65.081-84.699-48.427 47.584-1.665 62.334 69.472 23.316 102.304 22.219-9.925 43.063-26.17 61.383-53.877zm56.591-27.22c-4.249-31.7-22.106-112.47-103.18-126.074-77.6 20.606-98.333 94.236-100.997 125.42 62.097-83.109 145.217-73.36 204.177.654zm-81.839-128.277c130.847 23.214 160.393 331.339-128.033 362.292 154.765 99.894 286.388 2.31 317.973-122.406 39.667-156.632-72.459-250.439-189.94-239.886z"/></svg>