<svg version="1.1" xmlns="http://www.w3.org/2000/svg" width="512px" height="512px"><path d="M272.3912354,21.1012115c29.1716614,0,57.0645752,5.5980301,82.7275696,15.7835732l-9.6774902,21.8694954c-22.7036438-8.8380013-47.3220825-13.6909866-73.0500793-13.6909866c-72.8141479,0-136.7963562,38.7570343-173.380188,97.241745l-20.4368286-11.6988068C119.1855087,64.8032074,190.8046417,21.1012115,272.3912354,21.1012115z M488.0526733,386.3589172c-43.9346619,71.7509766-123.0414429,119.6293335-213.3378601,119.6293335c-32.6365662,0-63.8085938-6.2615967-92.3906708-17.6367493l10.8792877-28.4533997C110.9634018,428.2330627,52.7813416,349.7917786,52.7813416,256c0-36.2373962,8.6890297-70.4438629,24.0909958-100.6563721l-19.7887688-11.2579498C97.7091217,65.2439423,179.9127655,11.3242416,274.7148132,11.3242416c37.2104187,0,72.4724121,8.3213062,104.0495911,23.1810799l-8.3751831,21.2044983c33.3675842,15.9727287,62.1274414,40.0300865,83.7309875,69.6458588l28.3702087-18.9134674C436.0041809,41.9740715,360.2660522,0,274.7148132,0c-141.3849182,0-256,114.6150894-256,256s114.6150894,256,256,256c92.5353394,0,173.5974731-49.100769,218.5703735-122.665741L488.0526733,386.3589172z M492.4185791,362.8491821l-25.7530518-10.5551453c-35.1497803,70.9141846-107.8952026,119.6276855-191.9507141,119.6276855c-22.1313019,0-43.4785461-3.3787842-63.5633698-9.6480408l-9.1778259,25.2661438c23.5537567,7.8439331,48.7135468,12.1027222,74.8585358,12.1027222C371.6572571,499.6425476,453.605896,443.8199463,492.4185791,362.8491821z M410.7221375,372.8252869c-33.0195618,37.852478-81.7058411,61.7879028-136.0073242,61.7879028c-99.4640503,0-180.09552-80.2997131-180.09552-179.3543854s80.6314774-179.3543854,180.09552-179.3543854c53.8390198,0,102.1514587,23.5354691,135.1536865,60.8298645l19.4943542-16.7218094c-18.0245056-20.4818344-40.0585938-37.3435669-64.8658142-49.3845367l-1.3691406,3.466362c-26.1115417-12.0669632-55.2415466-18.8209381-85.9724731-18.8209381c-79.4356689,0-148.2125702,45.0470276-181.6168671,110.6895142l-4.7443771-2.6991119C76.7126007,191.1360626,68.7709427,222.6390076,68.7709427,256c0,113.7396545,92.2042007,205.9439087,205.9438782,205.9439087c62.8425293,0,119.100647-28.1561279,156.8756104-72.5310059L410.7221375,372.8252869z M400.7338867,340.4650269l9.6338806,7.9655151c-28.8062744,40.5792542-79.5930176,69.385498-135.6529541,69.385498c-8.2290955,0-16.3138428-0.5993652-24.2164917-1.7448425v-11.7872009C179.3210907,392.3416748,125.1127396,330.9362183,125.1127396,256c0-74.907959,54.1673813-137.0997467,125.3049698-149.2422943V94.2156906c73.855484-7.1630402,128.0040436,20.2444992,165.7038422,75.7514725l-11.1053162,7.9779205c1.1629028,1.9371338,2.2995911,3.8919373,3.3773193,5.8843536l18.0378113-8.389679c-28.7050171-54.012291-85.3643799-90.7743988-150.5802612-90.7743988c-94.212616,0-170.5870056,76.7091522-170.5870056,171.3346405s76.3743896,171.3346863,170.5870056,171.3346863c60.9487,0,114.4219666-32.1106873,144.5910034-80.4004211l-16.8469849-10.8302307C402.6680298,337.5767517,401.710144,339.02771,400.7338867,340.4650269z M266.4907532,409.8003845c52.4788208,2.1345215,95.3387451-16.8542786,128.5136414-57.1115417l-15.3633118-12.3574524c-28.4473267,34.0401611-66.2359619,50.3806458-113.1503296,49.4298706V409.8003845z M265.4740601,102.0879135v18.8607788c49.5201721-4.088707,88.8343201,16.0718918,120.6660767,54.0103989l16.0745239-11.7879791C367.1695251,121.3336563,322.519989,99.0754013,265.4740601,102.0879135z M352.3458557,352.6685486l-7.264801-8.7562561c-18.4724121,13.7497559-41.3498535,21.9261475-66.1248779,21.9261475c-61.3248444,0-111.0384674-50.0774231-111.0384674-110.8496857c0-60.7722015,49.713623-110.037796,111.0384674-110.037796c19.8677368,0,38.5133362,5.176239,54.6480103,14.2341003l8.602417-7.2292175c-18.5384521-11.4276428-40.3776245-18.0275726-63.7632141-18.0275726c-67.1416779,0-121.5707397,54.3543243-121.5707397,121.4037323c0,17.8408203,3.8545685,34.8048096,10.7759857,50.09021l-11.1428528,5.861908c16.3807983,37.4176941,49.6236572,65.5979004,89.9874573,74.69104l3.1580811-12.5715942c9.2312164,2.2167969,18.8712006,3.3792725,28.7920685,3.3322449C306.9473877,376.600708,332.2798157,367.679657,352.3458557,352.6685486z"/></svg>