<svg xmlns="http://www.w3.org/2000/svg" width="512" height="512"><path d="M82.347 162.714c-4.224 15.487-10.627 22.963-25.906 5.1S20.13 93.153 37.47 66.023c15.076-23.59 63.645 6.15 79.35 21.01 18.971 17.951.18 27.704.18 27.704-17.706 9.584-27.31 21.05-34.653 47.976zm348.826 0c4.224 15.487 10.627 22.963 25.906 5.1 15.28-17.865 36.31-74.66 18.97-101.79-15.075-23.59-63.645 6.15-79.35 21.01-18.97 17.951-.18 27.704-.18 27.704 17.707 9.584 27.31 21.05 34.654 47.976zM182.92 389.818c-21.982-28.722-21.804-62.294-1.568-92.492 18.712-27.924 23.082-54.338 10.617-71.277-4.275-48.694-47.8-43.458-69.367-33.545-22.073 10.145-28.44 21.885-28.44 21.885-7.548 8.554-.106 17.428 7.548 13.586 6.596-13.585 13.476-20.154 20.631-19.876 12.596 30.636 33.932 38.822 62.684 27.29 6.857 10.878 3.1 31.456-14.09 55.931-25.856 36.817-20.31 74.983 2.202 109.338 5.91 7.724 15.693-3.116 9.783-10.84zm157.559 10.84c22.511-34.355 28.057-72.52 2.201-109.338-17.189-24.475-20.946-45.053-14.089-55.931 28.751 11.532 50.088 3.346 62.684-27.29 7.155-.278 14.034 6.291 20.63 19.876 7.655 3.842 15.097-5.032 7.549-13.586 0 0-6.367-11.74-28.44-21.885-21.567-9.913-65.092-15.149-69.368 33.545-12.464 16.94-8.094 43.353 10.618 71.277 20.235 30.198 20.414 63.77-1.568 92.492-5.91 7.724 3.872 18.564 9.783 10.84zm-93.115 12.977c-5.245 3.099-13.724 7.39-26.531 12.507-12.807 5.118.636 10.385 10.185 7.278 9.549-3.108 18.198-10.318 26.655-10.318 8.456 0 24.132 12.029 31.661 12.192 7.53.164 12.98-6.096 6.89-7.813s-30.685-12.442-31.897-14.953c-1.211-2.51.032-17.942.032-17.942.3-9.047 16.478-16.229 22.496-36.027 35.019-11.376 25.205-42.298-3.791-42.298h-55.231c-25.16 0-35.773 30.922 2.145 43.413 4.814 15.972 19.197 27.118 19.435 35.699 0 0 3.195 15.163-2.05 18.262zM91.75 276.141c6.038.358 14.595-21.143 2.013-25.86-9.114-.859-12.665 22.937-2.013 25.86zm11.128 17.586c-6.334-6.532-11.084-4.75-11.678 8.116s6.532 20.388 11.678 21.971c5.147 1.584 9.502-.791 10.095-9.897s-3.76-13.658-10.095-20.19zm317.29-43.447c-12.581 4.718-4.024 26.219 2.013 25.86 10.653-2.922 7.102-26.718-2.012-25.86zm-19.21 63.637c.594 9.106 4.949 11.48 10.095 9.897 5.147-1.583 12.273-9.105 11.68-21.971-.595-12.866-5.345-14.648-11.68-8.116-6.334 6.532-10.688 11.085-10.095 20.19zM189.347 133.044c-18.121-1.887-31.78 6.355-31.018 29.156 11.265 12.033 42.283-17.123 31.018-29.156zm166.177 27.835c.75-22.462-12.705-30.581-30.557-28.723-11.097 11.854 19.46 40.577 30.557 28.723zm-90.653-34.423c0-13.855-15.955-13.855-15.955 0v57.032c0 11.215 15.955 11.215 15.955 0v-57.032zM33.636 27.794c-67.462 44.367-18.982 147.723 19.952 197.579-19.534 27.526-11.58 52.894 11.979 88.347 28.714 43.21 1.345 105.884 66.864 130.368 32.455 12.127 66.414 46.315 125.311 46.315s54.371-15.17 126.172-49.768 36.978-95.966 57.452-118.155c31.704-34.363 35.962-59.33 21.461-100.547 70.199-96.422 51.94-171.034 26.439-187.337-44.147-28.224-101.692 11.537-132.393 40.78-68.02-21.521-133.036-22.223-198.325-1.11 0 0-82.46-74.18-124.912-46.472zM156.94 81.902c65.532-21.858 133.882-21.178 201.657 1.133 30.702-29.244 83.445-69.683 127.037-42.76 25.751 15.905 39.801 84.215-30.397 180.638 13.613 35.81 14.876 64.138-18.607 96.77-24.794 24.165 14.205 83.893-55.643 116.88-72.069 34.036-64.347 49.1-123.245 49.1s-90.476-33.833-122.956-45.892c-61.603-22.87-33.873-86.825-64.468-129.577-24.773-34.616-27.891-55.507-8.358-83.033C23.027 175.305-26.612 79.533 36.362 34.078 74.572 6.498 156.94 81.902 156.94 81.902z"/></svg>