<svg xmlns="http://www.w3.org/2000/svg" width="512" height="512"><path d="m460.66 408.718 51.34-50.57-51.34-52.67V45.32H79.205L0 29.36l63.322 67.034L0 149.065l63.322 52.67L0 254.403l63.322 51.074L0 358.148l63.322 50.57L0 482.64l79.204-19.152H460.66L512 482.64l-51.34-73.922zM322.037 285.156c-17.283 23.042-44.164 49.925-67.207 65.287-90.249 61.446-168.976-19.202-136.334-111.37 21.123-57.606 84.489-128.653 161.296-99.85 49.925 19.201 32.644 71.047 3.84 101.769-9.6 9.6-30.723 5.76-15.36-23.042 5.76-11.521 11.52-34.564-5.762-40.324-38.404-13.441-82.568 17.282-92.168 57.606-9.601 34.563 15.36 71.047 59.526 61.446 36.483-7.681 71.046-32.644 84.487-44.164 13.442-11.522 23.043 9.6 7.682 32.642zm75.785 22.432c-11.997 12-28.409 15.042-36.659 6.794-8.25-8.247-5.213-24.661 6.784-36.66 11.996-12 28.409-15.041 36.658-6.794 8.25 8.247 5.213 24.661-6.783 36.66zm10.632-82.005c-11.995 12-28.409 15.041-36.658 6.794-8.25-8.248-5.212-24.661 6.783-36.66 11.997-12 28.41-15.041 36.659-6.794 8.25 8.247 5.213 24.66-6.784 36.66z"/></svg>