<svg version="1.1" xmlns="http://www.w3.org/2000/svg" width="464px" height="512px"><path d="M462.4550781,384.0449219l-97.034668-359.5390015C354.9288635-0.0897876,336.6253967-4.2907295,314.0949097,1.0444698L28.352581,78.6410446c-29.2456875,9.1757355-30.900692,30.3702164-26.55686,56.1779709l96.0132599,351.3676758c9.05336,22.6375122,22.0638428,30.0065308,57.5990067,21.1970215l279.9795227-74.5661011C458.9146118,423.9281616,466.8671265,407.1270752,462.4550781,384.0449219z M330.3381042,98.5187836c3.081543,12.5195999-15.7628174,17.1578751-18.8443604,4.6382751c-3.4532776-12.5284882-10.3612061-25.0950317-32.0878601-18.49823c-12.0443115,4.7246475-19.1314087-13.3421783-7.0870972-18.0668259C300.9856567,57.5785103,323.6699524,70.0866699,330.3381042,98.5187836z M225.7520142,217.0456238l79.2272034,135.754303c6.3535767,10.8877258-10.4080505,20.6689758-16.7616272,9.78125l-78.9528809-135.2834625c-44.5442047-69.947403,4.8819733-105.1706619,45.3343811-46.9173889c24.8257446,31.4784241,82.4999084,142.1431427,86.1716309,149.2052765c19.6154175,34.0578003,8.8815308,58.0301208-16.506012,69.8380127l-138.3784027,37.4682007c-22.9529877,6.0643921-44.246048-8.1391602-50.9925842-30.0275879l-65.0832062-239.975296c-5.217804-21.214859,5.0744247-40.9524612,24.5127792-46.7787323l135.0301208-39.8539886c14.943222-3.9854279,26.9748077,2.7552795,31.9921112,18.0925064l5.1744385,15.081871c3.2447815,9.9822617,13.7956238,15.9072876,23.9838562,13.3896484l14.6928406-3.6278305c12.7188721-3.1360703,25.864624,4.5888977,29.3049316,17.2309341l53.1087341,192.7571716c3.4277954,12.4417114-15.2828979,17.5966797-18.7106934,5.1549683l-53.1167297-192.7875977c-0.7151794-2.629837-3.3205872-4.1604767-5.9339905-3.5141144c-9.8935852,2.6440735-18.7458496,4.6997833-24.0891113,4.772934c-16.7227173,0.0014954-32.2459564-10.7263794-37.6453094-27.2221756l-5.1744232-15.0821152c-2.1266174-6.5429611-4.5953827-6.547699-8.3429108-5.5611877L99.856308,138.7116699c-9.4211807,2.8238678-13.9507294,12.1956635-11.2540512,23.3285217l65.010643,239.7039795c3.3046417,11.9787292,15.3756256,19.1485901,27.5054626,16.3347168L317.50354,381.2041016c14.0823975-7.7563782,21.0238647-16.4497375,6.1464844-42.476593c-0.6054688-1.1650696-60.8332214-116.9259033-84.5652161-146.6781769C206.8961639,148.9153442,200.182724,175.5058594,225.7520142,217.0456238z"/></svg>