<svg xmlns="http://www.w3.org/2000/svg" width="512" height="512"><path d="M306.666 167.34c-4.73 9.121-68.155 110.52-78.99 126.124-10.836 15.603-21.855 17.404-32.985 17.404H101.66c-13.157 0-21.03-10.725-22.31-18.83-.914-5.78 2.822-9.645 4.494-11.762C93.111 268.551 216.84 64.512 226.375 50.642c3.787-5.508 7.617-17.272 19.735-15.657 8.653 1.153 16.672 2.98 24.567 18.409 4.59 8.973 35.083 67.525 38.59 77.972 3.505 10.448 3.466 24.271-2.601 35.974zm-4.53 308.264c17.703 0 18.858-20.397 12.315-30.787s-25.811-37.28-41.947-70.04c-12.7-25.785-27.303-28.286-41.947-28.286H81.24c-19.627 0-31.941 22.128-31.941 22.128s-25.362 38.053-43.487 67.59c-10.39 16.933-7.327 40.957 13.07 40.957 13.084 0 283.255-1.562 283.255-1.562zm207.916-31.974s-147.071-232.083-151.16-238.15c-6.718-9.968-23.711-11.38-32.29 6.068-12.965 26.373-38.553 71.989-43.439 85.837-4.886 13.849-2.069 23.817 3.132 35.086 5.201 11.27 67.17 106.081 76.911 123.797 8.905 16.197 25.059 20.364 37.078 20.364h83.649c13.822 0 23.797-9.094 26.872-17.17s-.753-15.832-.753-15.832z"/></svg>