<svg version="1.1" xmlns="http://www.w3.org/2000/svg" width="319px" height="512px"><style type="text/css">.st0{fill:#181816;}</style><path class="st0" d="M97.2562256,449.1671448H0V63.2579994h95.7064972C-12.7381821,175.7844696-0.0260925,345.7266846,97.2562256,449.1671448z M184.719635,512c-33.9925079-15.5800171-63.3227997-37.1641235-87.4634094-62.8328552h118.3572998c-44.1542053-35.5068054-111.4666748-96.8955078-113.4488831-199.9128571c-1.5423889-80.2589569,69.105957-153.635437,113.9747009-185.9962921H95.7064972C118.9589386,39.1304245,147.7373199,17.6229572,182.4936829,0l46.3226929,63.2572365l89.7872009,0.0007629v385.9091492l-89.5018616-0.0003967L184.719635,512z M286.0067139,141.3566132l-49.7543335-67.9442673c-40.4893799,25.3479538-115.5142365,99.5763321-114.0594788,175.4571533c1.9275818,100.0483398,70.3002625,156.5404663,113.6286316,190.7840576l0,0l47.9592285-67.8970032C189.1719666,294.9565735,189.0561829,196.3519897,286.0067139,141.3566132z"/></svg>