<svg xmlns="http://www.w3.org/2000/svg" width="512" height="512"><path d="M235.825 510.657c-77.947-6.07-153.593-47.055-199.303-123.366C-61.589 223.501 49.12 15.361 235.825 1.338v25.757C69.103 41.065-29.325 227.393 58.577 374.137c40.72 67.98 107.852 104.775 177.248 110.787v25.733zM276.482 1.388v25.76c162.58 14.125 262.5 194.099 180.644 341.078-39.82 71.5-108.93 110.518-180.644 116.704v25.732c80.53-6.242 158.394-49.706 203.079-129.942C570.933 216.652 458.547 15.606 276.482 1.388zM164.673 235.97l6.955-18.189c-41.328-17.123-82.66-2.184-82.386 50.288.091 17.493 4.841 34.082 16.16 43.885 16.068 13.917 45.563 14.44 63.551 4.262v-19.794c-34.664 16.814-56.973 5.16-56.167-29.423.348-14.915 4.361-29.432 15.77-34.222 14.41-6.049 36.117 3.193 36.117 3.193zm67.407-66.336h-22.47V321.03h22.469V169.634zm59.382 27.818s12.622 1.195 12.84-12.304c.23-14.299-12.84-12.84-12.84-12.84s-13.438-1.028-12.84 12.84c.599 13.868 12.84 12.304 12.84 12.304zm11.234 16.05h-23.003V333.87c-.016 14.678-8.754 20.315-27.82 14.444v18.189c26.86 7.378 51.506.005 50.823-31.564V213.502zm110.74 23.003 7.49-17.119c-34.031-15.587-78.005-8.827-77.572 21.4-.196 36.973 57.482 30.78 56.707 51.892-.824 22.468-46.965 9.69-56.172 4.28v19.793c4.71 3.364 70.978 20.64 78.063-20.062 7.51-43.137-56.086-37.56-56.096-56.32-.01-20.196 41.963-6.545 47.58-3.864z"/></svg>