<svg version="1.1" xmlns="http://www.w3.org/2000/svg" width="512px" height="512px"><style type="text/css">.st0{fill:#181816;}</style><path class="st0" d="M235.8252106,510.6569519C157.8781128,504.5866394,82.2323151,463.601532,36.521965,387.2912903C-61.5890312,223.5019226,49.1203308,15.3612375,235.8252106,1.3376906v25.757391C69.1032257,41.0653419-29.3244343,227.3925781,58.5768509,374.1374512c40.7207565,67.9804077,107.8519211,104.7747192,177.2483521,110.7868042V510.6569519z M276.4822388,1.3882937v25.7595253c162.5804443,14.1252403,262.4993286,194.0989075,180.6441345,341.078125c-39.8196411,71.5003052-108.9294739,110.5175781-180.6441345,116.704071v25.7322998c80.5296936-6.2423096,158.3933716-49.7061157,203.0783081-129.9423828C570.9328003,216.6519012,458.5471802,15.6064501,276.4822388,1.3882937z M164.6733551,235.9704742l6.9546356-18.1890869c-41.3284149-17.1228943-82.6595917-2.1839142-82.3858337,50.2874603c0.0912628,17.492981,4.8408508,34.0820618,16.1591187,43.8850403c16.0688934,13.9176025,45.5638885,14.4410095,63.5518494,4.2625427v-19.7940063c-34.664566,16.8140259-56.9732208,5.1602478-56.1669846-29.4235229c0.347702-14.9149017,4.3610611-29.4321289,15.770546-34.2216034C142.9666443,226.728302,164.6733551,235.9704742,164.6733551,235.9704742z M232.0799408,169.6338196H209.611084v151.3973389h22.4688568V169.6338196z M291.4619446,197.4524231c0,0,12.6220093,1.1949158,12.8393555-12.3043823c0.2301941-14.298996-12.8393555-12.8393555-12.8393555-12.8393555s-13.4374695-1.0286407-12.8393555,12.8393555C279.2207031,199.0160217,291.4619446,197.4524231,291.4619446,197.4524231z M302.6963806,213.5016022h-23.0038452v120.3689117c-0.0157471,14.6781616-8.7537537,20.3156738-27.8185883,14.4442749v18.1890869c26.858902,7.3781433,51.5050201,0.0053711,50.8224335-31.5634155V213.5016022z M413.4357605,236.5054321l7.4896545-17.1191254c-34.0306091-15.5874939-78.004364-8.8272095-77.571106,21.3989105c-0.1966248,36.9741821,57.4820557,30.7799683,56.7071533,51.8923645c-0.824646,22.467926-46.9657288,9.6903992-56.1721802,4.2798157v19.7940063c4.7106628,3.3631287,70.9775391,20.6387329,78.0631104-20.0623169c7.5095825-43.1366119-56.0867004-37.5594482-56.096283-56.3205414C365.8458252,220.1727448,407.8192749,233.8243103,413.4357605,236.5054321z"/></svg>