<svg version="1.1" xmlns="http://www.w3.org/2000/svg" width="343px" height="512px"><path d="m228.20269 411.38773c0 10.59213-25.44944 22.83561-56.84474 22.83561s-56.84474-12.24348-56.84474-22.83561c0-7.96853 14.3492-14.80846 34.83969-17.70566 1.6025-22.48873 3.18057-104.8904 3.18057-104.8904-0.94293-34.39998-16.58195-65.9272-35.73865-81.50271-15.46803-12.59036-25.053708-30.45236-24.853396-50.21489 0.32734-37.64895 35.890116-67.944976 79.416526-67.944976 43.54596 0 79.10873 30.296026 79.41653 67.944976 0.17588 19.76253-9.38537 37.62453-24.85339 50.21489-19.13228 15.57551-34.82016 47.10273-35.73866 81.50271 0 0-0.40893 92.05683 3.205 104.8904 20.44652 2.8972 34.81526 9.73713 34.81526 17.70566zm-228.20269 14.06144c0.52423213-6.66395 3.1173979-12.61978 6.4735096-18.71211 14.254961-2.44308 53.414759-14.34422 33.393538-30.29602 7.022463-4.06752 15.790038-8.0424 23.031037-10.99276 22.42111 0.95266 36.503412-1.71057 48.925075-8.03203 2.85323-2.0813 4.8075-4.18702 4.78307-6.31717 5.14358-0.90517 10.76547-1.64207 16.32301-2.38909 4.17261 16.96988-1.31468 24.06284-10.44067 27.00308-21.32594 6.20969-37.453526 16.43539-42.104681 28.98178-9.409796 25.38593 30.125031 50.19535 90.238281 50.19535 60.1328 0 99.66762-24.80942 90.27737-50.19535-4.54368-12.23859-20.03124-22.26398-40.59013-28.51764-12.61992-3.87013-15.13038-10.9756-11.27612-27.46722 7.4439 0.80345 15.27352 2.03752 21.9855 3.15614 1.21688 5.32787 5.10147 7.08896 9.18994 9.39025 15.09935 5.86119 30.51901 7.17778 43.43847 5.76998 7.6878 3.11451 15.08221 7.04767 22.44476 11.40803-25.89795 16.23556 20.18142 29.52697 31.35133 31.59561 2.90428 5.85616 4.22078 12.25985 4.60718 19.10785-12.63106 0.68389-26.84835 3.13493-34.55632 12.89816-6.72381 13.38678 2.51797 22.61624 10.88526 29.08926-9.79239 7.51914-19.71342 13.72981-30.93604 18.51668-25.05669-11.8752-79.73097-15.27289-95.06044 21.76565-17.45991 0.91856-35.35244 0.87288-53.90357-0.87942-12.42352-35.80437-63.180376-34.87008-92.099718-24.15474-9.419762-5.13039-20.236484-12.10702-27.862962-19.19578 8.050261-6.05384 13.690667-12.68789 15.008771-21.89268-2.952213-15.67601-22.414857-19.2766-33.525451-19.83581zm279.96243-268.70488c0-59.28269-48.28505-107.52377-108.90641-107.52377-60.61648 0-108.90153 48.241082-108.90153 107.52377 0 25.27356 8.994514 49.81915 25.317529 69.17128 22.160315 21.9881 32.408585 49.05748 31.175445 78.82536-62.878542-21.6777-105.37408-80.79917-105.72585-147.1221-0.459253-82.904898 66.479279-153.59074 149.18386-157.56278 5.78312 0.0038597 12.13776-0.12800449 17.88155 0 82.72901 3.9720477 149.64311 74.657887 149.20829 157.56278-0.3762 66.32293-42.84731 125.4444-105.72575 147.1221 0 0-8.9311-33.82836 30.50845-78.12426 16.96548-20.05323 25.98442-44.59882 25.98442-69.87238z"/></svg>