<svg xmlns="http://www.w3.org/2000/svg" width="512" height="512"><path d="M497.89 5H14.11C6.35 5 0 11.35 0 19.11v473.78C0 500.65 6.35 507 14.11 507h483.78c7.76 0 14.11-6.35 14.11-14.11V19.11C512 11.35 505.65 5 497.89 5zM183.333 404C117.704 399.727 48.233 353.579 43 264 31.547 67.93 312.437 51.972 335.416 223H267c-17.264-87.125-156.607-76.574-156.985 34.001C109.7 349.107 235.375 378.223 267 294h70c-13.594 71.983-81.282 114.712-153.667 110zm224-8.667-43-18 52.76-121.895L365 132.333l42.814-18.387L468 256.333l-60.667 139z"/></svg>