<svg version="1.1" xmlns="http://www.w3.org/2000/svg" width="512px" height="512px"><path d="M82.8317032,209.5736694c12.3630524-45.8072205,42.3669357-84.8536987,83.4456253-108.6011505l-38.347435-66.366539C69.2303467,68.5095139,26.3591042,124.2905579,8.6933165,189.7333679L82.8317032,209.5736694z M209.5330505,83.0795441c15.0793304-4.0020142,30.6180267-6.0317383,46.2216492-6.0342331V0.3504287c-22.3343964-0.0274624-44.5789032,2.858582-66.1643219,8.5907259L209.5330505,83.0795441z M302.4856567,83.0795441c45.7522888,12.3655472,84.7538452,42.3244858,108.4962769,83.3407745l66.4689026-38.3474426C443.4973755,69.4607086,387.7288208,26.6693573,322.3234558,9.0435143L302.4856567,83.0795441z M0.0002309,256.0000305c-0.0299589,22.2994385,2.8560855,44.5090027,8.5882292,66.0594788l74.138382-19.8378296c-4.0244827-15.0768127-6.0517044-30.6180115-6.0317307-46.2216492H0.0002309z M34.2582779,383.8248596c11.2645607,19.3359985,25.0157127,37.1116333,40.9039383,52.8675232l54.3005829-54.1982117c-11.0248947-11.0673218-20.5817947-23.5102844-28.4260483-37.0192566L34.2582779,383.8248596z M127.9248962,477.3916016c38.8118134,22.4816895,82.8764191,34.3005066,127.7249451,34.2580566v-76.6948853c-31.3819885,0.0299683-62.2097321-8.2237244-89.3775024-23.929718L127.9248962,477.3916016z M410.8820801,345.6821289c-23.8123474,41.0187683-62.8937988,70.9452515-108.7010193,83.2384033l19.8378296,74.1383972c65.4253235-17.5759277,121.2338257-60.3323059,155.2322388-118.927002L410.8820801,345.6821289z M502.9159546,324.7183533c11.8986816-43.4853821,12.1134033-89.3425446,0.6141357-132.9377899l-74.3431091,19.8377991c8.1737976,30.4108276,8.1737976,62.4419098,0,92.8527374L502.9159546,324.7183533z"/></svg>