<svg xmlns="http://www.w3.org/2000/svg" width="512" height="512"><path d="M82.832 209.574a179.458 179.458 0 0 1 83.445-108.601L127.93 34.606A256.266 256.266 0 0 0 8.693 189.733l74.139 19.84zM209.533 83.08a180.313 180.313 0 0 1 46.222-6.035V.35a256.567 256.567 0 0 0-66.165 8.591l19.943 74.139zm92.953 0a179.462 179.462 0 0 1 108.496 83.34l66.469-38.347A256.364 256.364 0 0 0 322.323 9.043L302.486 83.08zM0 256a255.66 255.66 0 0 0 8.588 66.06l74.139-19.838A178.343 178.343 0 0 1 76.695 256H0zm34.258 127.825a255.79 255.79 0 0 0 40.904 52.867l54.3-54.198a181.849 181.849 0 0 1-28.425-37.02l-66.779 38.35zm93.667 93.567A254.343 254.343 0 0 0 255.65 511.65v-76.695a178.228 178.228 0 0 1-89.378-23.93l-38.347 66.367zm282.957-131.71a179.484 179.484 0 0 1-108.7 83.239l19.837 74.138A256.368 256.368 0 0 0 477.25 384.132l-66.369-38.45zm92.034-20.964a256.156 256.156 0 0 0 .614-132.937l-74.343 19.837a178.863 178.863 0 0 1 0 92.853l73.729 20.247z"/></svg>