<svg version="1.1" xmlns="http://www.w3.org/2000/svg" width="512px" height="512px"><path d="M260.553833,151.4582214c-3.6889343-1.2186279-6.9251099-1.1661682-10.5751038,0.1074829c-31.6631317,10.9533539-55.108551,23.8576813-76.8151093,38.7570648v-40.8693542c-0.0296173-3.066925,1.8288116-4.1543884,3.9876709-5.2317352c43.0856323-17.4777679,90.6898651-23.2674713,152.9616241-2.6420441c10.56073,3.5924377,10.4718933,3.8547821,10.4718933,14.863205v34.4943237C315.6126099,174.6747284,292.5602722,161.8447876,260.553833,151.4582214z M287.4528198,66.2480545c7.7333069,2.9831314,8.3248596,3.9783554,8.3248596,12.0764084v31.7193985c0.0304565,2.8215027-0.270813,3.9115067-3.6872559,3.2319412c-24.1883545-4.8085632-48.4283295-4.8864136-72.6022949,0.1489487c-3.0271454,0.6304779-3.2471771-0.4705353-3.2014771-2.890892V75.860939c-0.3190613-4.4692001,1.7924042-6.7888565,5.3696289-8.506813C243.4793549,57.422657,264.4475098,58.1650314,287.4528198,66.2480545z M358.1629028,233.4246979c2.091095-2.2833099,2.1875916-3.4232483-0.276825-5.5347595c-28.9781799-24.8230133-61.024292-44.2358856-97.5065308-55.9838867c-2.8029785-0.9029694-5.3401184-1.0494537-8.1369629-0.0601501c-36.2046967,12.8076019-69.2036743,31.1642761-98.292038,56.3893433c-2.2317047,1.9345856-1.925293,2.8968506-0.0744629,4.8653107c19.7381134,20.8961487,34.1334381,49.0948181,40.5552063,75.4257202c-45.2101898-35.9944763-91.8771057-33.4150391-132.546936,4.0809631c57.0749016,180.0231018,309.2269287,204.9345093,385.6058655,8.6307983c0.9825745-2.8020935,0.5382385-4.2804871-1.9160156-5.8639221c-29.2093811-20.1750183-72.0501099-45.7063599-86.1834412-39.973114c-15.9417419,4.0032959-41.8671265,38.6672058-44.4575195,36.6943054C323.1038818,284.9481201,337.541626,256.1743774,358.1629028,233.4246979z M265.6880493,239.9753571c-0.7473755,41.2448883-6.6831055,82.4674835-9.5780029,104.3254852c-6.8196259-40.9609375-11.3122559-78.6395874-10.4439697-108.7563171c-0.394577-7.5628815,5.6602478-25.4989471,10.3339233-47.0581665C260.0490417,208.9299011,265.9317932,226.1724701,265.6880493,239.9753571z M127.7111053,477.5468445c-170.2814331-98.1691284-170.2814941-344.92453-0.0000534-443.093689S512,59.6616783,512,256S297.9925537,575.7160034,127.7111053,477.5468445z M484.0719604,256c0-174.9194031-190.6605835-284.8375854-342.3653564-197.3778687s-151.7047272,307.2960815,0.0000458,394.7557373S484.0719604,430.9194031,484.0719604,256z"/></svg>