<svg version="1.1" xmlns="http://www.w3.org/2000/svg" width="512px" height="512px"><path d="M236.7940826,353.7759094c0,0-19.4949036-6.9616699-48.0401611,4.1773987c-39.7960815,15.5654297-3.4992828,65.5479126-71.5217743,79.124939c-126.0136414-71.5405884-127.5201492-262.1621704-0.9922333-323.6439209c80.0672455-41.0784912,131.5620728-24.8435211,120.4219818-84.7193069c60.3458862,2.9100571,93.6950073,29.5023575,112.5733032,71.9810791c5.948822,13.3842163-21.8962402,17.8732452-30.1328125,18.8970413c-0.8562622-15.7670517-6.0904846-28.7511673-6.4173889-30.3854141c1.3327942,77.3535156-34.592865,93.2276611-103.0428772,57.091629c0.0027008,0.0034637,23.8537903,30.9185028,56.0760498,31.5405273c14.3919373,50.9331665-23.4595032,95.0931854-46.8524628,107.879715c0,0,25.2918549-4.2391052,45.6864471-26.0493469c54.5359497,30.1607971,79.7702637-22.335556,114.2742615-7.5432587c22.9757385,10.4435272,27.4476929,17.4417267,34.4625244,22.6269379c8.007019,5.919342,8.7025757,12.1833496,3.1330566,17.7539673c-5.5705566,5.5705566,0.0010681,9.7479553-3.4797668,16.0140686c-3.4819031,6.2660828-20.8870239,9.050354-20.8870239,9.050354s19.0834351-24.5182495-4.1773987-26.4555359c-16.7096252-1.393158-27.1531372-23.6733093-50.8254089-11.8366699c-73.9447937,39.6931458-139.1664276,74.9858398-165.8456116,28.5592346c24.6463318-27.0421143,26.5995941-64.7637329,26.5995941-64.7637329c-25.1240845,84.1068115-111.3874817,55.70047-121.8412933,128.1074524c14.7012787-24.5015564,54.1876373-31.7645874,81.9606018-51.6471863c12.6212463,23.7927551,49.5730133,33.375946,108.7853088,11.846344c25.6539307,15.2251282,11.6596069,54.4927368-34.0948334,76.7019348c-20.1904449,8.3547974-41.7740479,19.4938049-44.5593262,35.5079346c-2.784256,16.0119629,18.1027679,22.975708,30.6349792,21.5825195c12.5322113-1.3910522,13.9243469-11.1390076,36.9000702-13.2277222c9.0513916-1.3931885,10.443512,7.6571655,20.8870239,7.6571655c4.1773987,0,5.569519,3.481842,4.8739624-3.4797668c-0.6965637-6.9637451-6.962677-11.1411438-6.962677-11.1411438s5.5695496,0,13.2287903,4.1773987c-1.3921204-10.443512-17.406189-17.4051819-35.5079346-14.6209106c-18.1017456,2.7842407-25.0644226,18.7983093-37.5966339,12.532196c-15.049057-7.5245056,0-19.493866,20.1904449-28.5441589c16.2598572-7.2901611,39.7355652-20.9054565,51.8997192-40.110321c8.6433105,7.8924255,38.6965027,32.1472778,69.2449951,19.2232971c-6.2661133-4.875061-23.6712646-3.4819031-9.050354-11.836731c14.6209106-8.3547974,25.7599792-11.1390076,32.7226562,2.0887146c3.480835-0.6954956,3.480835-31.3305359-42.4706116-29.2418213c-14.6104736-1.9057312-33.8494263-28.1497498-37.1091309-44.8973694c8.2658691-5.2613831,16.3931885-10.8228455,25.2724609-16.3725891c22.2802124-13.9233093,20.8870239-7.6572266,23.6723022-6.9616699s15.3174744,8.3548279,28.5452576,6.9616699c0.6965637,6.9636841-6.2650452,1.393158-9.0503235,7.6592407c-0.661377,1.9846802,1.6956482,7.4623718,6.2006836,12.3512573l-7.4819336,13.5510559c-2.3422241,7.4489746,11.6643677,13.8156433,15.9023132,3.3398438c0,0,1.7106018-3.8492737,3.8633118-8.9109497c2.8849487,0.8445435,6.0237122,1.1259766,9.3643188,0.5558167c28.5462646-4.8729553,20.5392456-16.7096252,26.1098022-29.9373779c4.8890076-11.6114807,8.430481-18.3985291-9.6129456-32.5984497c0.5342102-1.6029663,1.1341553-3.4028015,1.5937805-4.7816162c15.1298218-2.0993042,29.6198425-30.0091858,44.5718384-64.9664307c17.3696289-40.6096039,25.0644226-73.1045761,9.6873779-81.4593811c-17.1711426-9.3302155-38.2691956,25.5333557-55.6388245,66.1429138c-14.9892883,35.0423126-18.5180969,64.2036591-10.6290588,75.3077545l-0.6469727,1.4170532c-20.1818542-17.2037964-31.5598755-12.671524-41.6384888-12.671524c-10.443512,0-37.5966492,14.6199036-56.3949585,11.1390686c-13.3737488-2.4763641-23.2185059-6.7130127-27.7897339-8.953064c11.4751587-19.4028015,13.3512878-37.9115295,13.3006287-52.4362183c6.2758179,6.5716553,17.0847778,12.8114014,35.3765869,11.9564972c25.8173828-1.2062073,20.1904602-14.6209106,37.5966492-17.4051208c17.4051514-2.7852783,15.5535278-11.5808258,11.8356323-18.7983246c-5.8330078-11.3222809-23.8269653-14.2130585-26.3445129-46.4550552c16.4003906-8.1941376,19.5626221-8.0812073,9.3735962-32.1329651c-24.8740234-62.373558-82.3883972-86.7809296-142.4670258-60.6589966c7.4414215-0.2808228,14.5325012-0.2474728,21.3003845,0.0785294c0.1617432,62.0131912-117.3025055,33.1929626-193.9665833,124.5475311c-104.3532562,136.114975-7.4374847,338.3013306,222.7945404,340.4584351C402.496582,493.7203674,512,387.712677,512,314.6081238c0-38.2932129-21.0404053-29.7554626-28.316864,6.1703186c-6.567627,32.426239-67.2612,153.447052-219.7364502,153.447052c-47.8170471,0-88.3039551-9.1098328-121.660965-24.0598145C209.7505188,424.4559631,143.8990173,371.6121826,236.7940826,353.7759094z M279.3170166,325.6655273c2.9248962-1.4765625,5.7633972-3.0099487,8.5402527-4.5913696c3.0955811,12.9275208,26.0143433,48.4277039,42.2323303,45.9314575c18.1017456-2.7842102,20.8860168,2.7863464,15.3164673,6.2661133c-5.569519,3.4819031-15.3164673,4.8750305-13.9243469,9.7480164c1.3921509,4.8728943,5.2217712,9.7479553-3.8296204,8.3547974c-8.2036133-1.2628479-24.1306763-9.3904419-35.3358154-24.9004822C298.3374329,349.7173157,291.3066711,334.1327209,279.3170166,325.6655273z M446.6500549,187.9055939c-15.1015015,37.7327118-36.2320862,61.4147949-38.8345337,59.9589844c-4.6933289-2.6244507-1.5014038-32.1395874,13.6020203-69.8719635c15.1012878-37.7324371,33.0348816-59.7734375,40.0028381-57.0362015C468.3882446,123.6936569,461.7514038,150.1731567,446.6500549,187.9055939z M288.4309998,182.8269653c-0.4784241-3.7979584-1.1021118-6.8870544-1.6342468-9.1025696c24.2489929-10.3956604,31.9298401-28.9693451,32.4131775-48.827446c5.3225098-1.0263977,11.6709595,0.2607346,18.9044495,3.5437088c16.3630981,16.8730011,7.8443298,32.5139923,28.5270081,46.752655c4.8739624,2.0886993-2.0887146,4.1773987-5.5695496,3.480835c-3.481842-0.696579-10.7922974-3.8296356-15.6652527,0.3477783C328.2451172,194.2794647,313.9784546,196.5658569,288.4309998,182.8269653z"/></svg>