<svg xmlns="http://www.w3.org/2000/svg" width="512" height="512"><path d="M127.711 34.453c-170.281 98.17-170.281 344.925 0 443.094S512 452.338 512 256 297.992-63.716 127.711 34.453zm1.02 233.506 102.602 102.564c26.14 29.136-14.045 65.833-40.43 40.43L55.954 276.005c-11.105-11.11-11.105-29.119 0-40.229l134.949-134.949c27.819-25.533 66.336 12.985 40.411 40.43l-102.587 102.57c-6.66 6.665-6.66 17.472.004 24.132zm190.026 142.884c-28.09 26.324-65.924-14.676-40.43-40.43L380.928 267.85c6.665-6.66 6.665-17.467.005-24.132l-102.606-102.57c-26.316-26.316 14.113-66.746 40.43-40.43l134.948 134.95c11.105 11.11 11.105 29.117 0 40.228L318.757 410.843z"/></svg>