<svg version="1.1" xmlns="http://www.w3.org/2000/svg" width="512px" height="512px"><path d="M127.7110596,34.453125c-170.2814331,98.1691895-170.2813721,344.9245605,0.000061,443.093689S512,452.3383179,512,256S297.9924927-63.7160034,127.7110596,34.453125z M128.7314453,267.9588013l102.6011353,102.5645752c26.1409302,29.135498-14.0449219,65.8330078-40.4296875,40.4297485L55.9542847,276.0045776c-11.1051025-11.1103516-11.1051025-29.1182861,0-40.2285767l134.9486084-134.9486084c27.8187256-25.53302,66.3358154,12.9841309,40.411377,40.4297485l-102.5877686,102.569458C122.0666504,250.4918823,122.0661621,261.2990112,128.7314453,267.9588013z M318.7565918,410.8434448c-28.0899048,26.3231812-65.9232788-14.6768188-40.4297485-40.4296875l102.6011353-102.5645752c6.6652832-6.6598511,6.6647339-17.4669189,0.0049438-24.1322021L278.3269043,141.1473999c-26.3161621-26.3162231,14.1135254-66.7459106,40.4296875-40.4296875l134.9485474,134.9485474c11.1051025,11.1103516,11.1051636,29.1182251,0,40.2285767L318.7565918,410.8434448z"/></svg>