<svg xmlns="http://www.w3.org/2000/svg" width="512" height="512"><path fill-rule="evenodd" d="M125.663 449.169h77.546c55.387-.348 99.006-21.464 132.24-63.353 16.269-20.77 32.539-51.234 48.119-91.391h89.66v-77.198h-58.852c12.117-26.655 24.926-45.695 38.08-57.119 15.58-13.5 35.31-20.078 59.544-20.078v-77.2c-55.043 0-99.7 21.117-133.28 63.005-11.769 14.887-22.847 33.234-32.886 55.388-6.231 12.81-14.54 33.58-25.271 60.928-18.001 47.428-33.234 79.622-46.042 95.546-17.308 22.502-41.196 33.926-71.66 34.27h-77.198c-16.27 0-28.732-4.153-37.04-12.46-7.27-6.923-11.08-15.58-11.08-26.31 0-10.732 3.81-19.387 11.08-26.31 8.308-8.307 20.77-12.463 37.04-12.463h77.198v-77.198h-77.198c-38.08 0-68.889 12.117-92.429 35.657C11.424 274.693 0 301.348 0 333.198c0 31.848 11.425 58.505 33.234 80.314 23.54 23.886 54.349 35.657 92.43 35.657z" clip-rule="evenodd"/></svg>