<svg version="1.1" xmlns="http://www.w3.org/2000/svg" width="512px" height="512px"><style type="text/css">.st0{fill-rule:evenodd;clip-rule:evenodd;}</style><path class="st0" d="M125.6633377,449.1687012h77.5453262c55.3871307-0.3476562,99.0067902-21.4638062,132.2395172-63.3525391c16.2697144-20.769989,32.5396118-51.2336731,48.1194458-91.39151h89.6602783v-77.1972504h-58.8515625c12.1165466-26.6555176,24.9259033-45.6957397,38.0804443-57.1192017C468.0351562,146.6070557,487.7668762,140.0298615,512,140.0298615V62.8313026c-55.0434265,0-99.6994629,21.1171761-133.2802429,63.0047646c-11.7684631,14.8866043-22.8469238,33.2338791-32.8860779,55.3882828c-6.2307129,12.8093719-14.5389709,33.5805054-25.2709351,60.9273682c-18.000946,47.4281158-33.2341919,79.6227264-46.0422363,95.5461273c-17.3079834,22.5020447-41.1958008,33.9256592-71.6594849,34.2708435h-77.1976852c-16.2711945,0-28.7327728-4.1534729-37.0408783-12.4602661c-7.2688217-6.9238281-11.0785904-15.5797119-11.0785904-26.3103638c0-10.7321167,3.8097687-19.3866882,11.0785904-26.3105164c8.3081055-8.3066406,20.7696838-12.4628906,37.0408783-12.4628906h77.1976852v-77.1972504h-77.1976852c-38.0802994,0-68.8891449,12.1164246-92.4291687,35.6564331C11.4248466,274.6929321,0,301.3483276,0,333.1980591c0,31.848114,11.4248466,58.5049438,33.234169,80.314209C56.774189,437.397583,87.5830383,449.1687012,125.6633377,449.1687012L125.6633377,449.1687012z"/></svg>