<svg xmlns="http://www.w3.org/2000/svg" width="512" height="512"><path d="M512 512H0V0h512v512zM332.255 329.706h134.597V308.91H332.255v20.795zm55.257 21.071L347.21 410h22.772l29.653-38.59 29.49 38.59h22.772l-40.302-59.223h-24.083zm-236.27-102.68c-2.907-28.063-21.353-43.604-51.315-43.604-34.99 0-54.779 20.462-54.779 56.792v14.087c0 36.449 19.789 56.791 54.779 56.791 29.85 0 48.52-15.426 51.315-42.815h-25.489c-2.237 13.526-11.74 20.904-26.05 20.904-18.334 0-28.396-13.192-28.396-37.225v-9.393c0-24.037 10.062-37.225 28.396-37.225 14.198 0 23.925 7.711 26.05 21.688h25.49zm132.895 81.609V308.91h-38.123V160h-64.726v20.794h38.793v128.117h-40.134v20.794h104.19z"/></svg>