<svg version="1.1" xmlns="http://www.w3.org/2000/svg" width="512px" height="512px"><path d="M265.8211365,222.1885529C108.191246,221.3560944,0,241.4597473,0,274.6809998c0,33.2215576,114.6152267,52.5438843,256,52.5438843s256-23.5246887,256-52.5438843c0-22.4003448-68.3217468-41.5145264-164.504303-49.074173c-0.3923645-22.6143951-18.5467529-40.8317261-40.9221802-40.8317261C285.3348999,184.7751007,267.8767395,201.1820068,265.8211365,222.1885529z M266.009613,231.8175964c2.6456604,20.3663483,19.7750244,36.0983276,40.5639038,36.0983276c19.1148376,0,35.1244507-13.3088989,39.6424561-31.2810211c63.9591064,7.1889038,107.6020203,21.523819,107.6020203,38.0460968c0,23.7288818-89.968811,42.9649963-200.9507446,42.9649963c-110.982254,0-200.9510803-19.2361145-200.9510803-42.9649963C51.916172,250.9520874,155.027359,231.8175964,266.009613,231.8175964z"/></svg>