<svg xmlns="http://www.w3.org/2000/svg" width="512" height="512"><path d="M265.821 222.189C108.191 221.356 0 241.459 0 274.68c0 33.222 114.615 52.544 256 52.544S512 303.7 512 274.68c0-22.4-68.322-41.515-164.504-49.074-.393-22.615-18.547-40.832-40.922-40.832-21.24 0-38.697 16.407-40.753 37.414zm.189 9.629c2.645 20.366 19.775 36.098 40.564 36.098 19.114 0 35.124-13.309 39.642-31.281 63.96 7.189 107.602 21.524 107.602 38.046 0 23.729-89.969 42.965-200.95 42.965-110.983 0-200.952-19.236-200.952-42.965 0-23.729 103.111-42.863 214.094-42.863z"/></svg>