<svg xmlns="http://www.w3.org/2000/svg" width="481" height="512"><path d="M222.693 207.677c-46.788-2.9-151.013-62.967-49.6-121.072 83.426-47.799 160.802-14.282 208.409 36.792 0 0-27.37 16.852-59.206 32.04 22.495-50.286-61.3-78.374-109.355-52.24-48.054 26.134-52.773 79.742 65.474 76.619zM480.518 354.38V119.357L235.38 0 0 113.299V340.01L242.727 512zM235.276 11.979 465.77 127.766 235.623 258.997 12.536 121.051zm230.491 129.883v202.594l-91.863 59.74V195.59zm-106.963 63.481V414.61l-116.11 73.25V271.34z"/></svg>