<svg version="1.1" xmlns="http://www.w3.org/2000/svg" width="512px" height="512px"><path d="M194.2049408,329.2963867c-22.9812927,41.3840332,4.4992981,73.3360596,54.4763031,92.453064v28.0691528h-52.7408905l-17.4946594-60.7532043c-12.1775208-3.1057129-24.2567596-7.7472229-36.0391388-14.0788269l-59.414299,34.7086487l-35.3576431-35.357666l32.1224213-60.0131531c-6.2860947-11.0388184-11.1512985-22.7106934-14.5720749-34.7373047L0,261.8805847v-50.0900574l64.8365021-19.0444489c3.3286743-12.0869446,8.0897293-23.8344269,14.300827-34.9477081L46.1614037,98.8424835L81.519043,63.4847832l59.428299,33.3822594c11.3363647-6.2393951,22.963501-10.9169006,34.6914215-14.1426392l18.3372803-66.8742294h50.0899811l18.869278,68.2760468c11.0263062,3.375,21.6495056,7.926712,31.6786804,13.5394363l62.4001465-35.6540833l35.3576355,35.3576431l-35.4750366,62.9934387c9.1016235,16.729126,15.2998352,35.4611206,17.7366333,55.7192688l-62.5748291,0.000061c-12.5958557-62.3779449-84.6269531-97.8009949-143.0301819-64.1308594C89.4339676,197.7855988,116.6350937,315.5329285,194.2049408,329.2963867z M342.9030151,381.1938477c-18.0298767-10.4632568-18.0298767-36.7634888,0-47.2267761c18.0298767-10.4632568,40.6896057,2.6868591,40.6896057,23.6134033C383.5926208,378.5069885,360.9328918,391.6571045,342.9030151,381.1938477z M446.8650513,410.1780701c19.0138245,84.5610657-20.2017212,115.1062317-89.8516235,52.6367188c-71.8040466,63.1875916-109.589447,31.4198914-90.5613708-52.2318115c-83.1644897-25.5946045-88.9903717-78.3276978-0.6937866-104.946167c-19.1477814-90.8321228,28.0881958-110.7885284,91.2757263-51.5502014c67.1367798-62.1104736,108.8396301-33.8638611,90.8886108,51.9419861C529.420166,332.35672,537.5775146,379.4219971,446.8650513,410.1780701z M368.3667908,265.7214355c9.8764648,10.0271912,16.8166504,18.9304199,24.1953125,29.7196045c14.0048523,1.2748108,25.2732239,3.1539917,39.5039368,6.3639526C446.5467529,235.4802399,421.0112,214.3687897,368.3667908,265.7214355z M287.0745544,399.1678772c9.8329163,1.7405396,12.8335876,2.2414246,21.4079285,3.1184082c-5.2655945-8.7361755-8.4169312-12.0848999-13.7424011-23.4538574C291.1927185,387.7239685,290.2252808,390.3483582,287.0745544,399.1678772z M308.4535217,313.8979492c-8.6236877,0.652771-12.3464355,1.7249146-22.4972839,3.8290405c2.9201355,8.4489441,4.1842041,11.6097412,8.1012573,21.0124207C299.8532104,327.7695312,302.0353699,323.9804077,308.4535217,313.8979492z M329.7417908,404.1956177c19.1419678,1.1992798,35.8128967,1.4048157,54.1916809,0.0131226c11.0077515-17.1120911,19.5203247-31.2842712,26.2468262-45.1843872c-8.9886475-18.1747131-17.2431641-33.0267944-27.2641602-46.9899292c-17.8673706-1.3165894-33.8613892-1.3956604-52.1308289-0.3450623c-10.2962646,14.9137878-18.4819946,29.7328186-27.2613831,47.3153687C311.9961853,375.5177612,320.0400085,389.3323059,329.7417908,404.1956177z M405.3152466,401.8963623c8.980957-0.9541016,11.7819214-1.4473877,20.996521-3.3876953c-2.9855347-8.7675476-3.9324036-11.4634705-7.4186707-19.9230652C413.2800293,389.1059875,411.4625244,392.3719788,405.3152466,401.8963623z M419.3652954,338.7740173c3.8960571-8.6454773,4.9857178-11.6429749,8.0357971-20.706665c-9.1172485-2.0127869-12.2489929-2.6235962-22.0381775-3.9636841C411.7904358,324.1884155,413.808197,327.8135986,419.3652954,338.7740173z M356.7188721,277.896698c-6.181366,7.2260132-7.8807678,9.2361755-12.9373474,15.8865051c11.550354-0.4245911,14.9698792-0.4452209,26.1514587-0.0065613C364.4315186,286.4547729,362.7428894,284.3991394,356.7188721,277.896698z M281.2912903,301.4412537c14.2307739-3.2099609,25.8338318-5.0844727,39.8386841-6.3592834c7.3786926-10.7891846,14.3179321-19.334259,24.194397-29.3614807C290.5912476,215.5077515,267.0067139,233.9416962,281.2912903,301.4412537z M284.5592651,358.3230896c-5.9060669-12.7605591-10.2599487-23.7089539-14.5718079-36.7932739c-70.4876099,20.7035217-66.3744354,52.9957886,0.6984863,73.5182495C274.5863037,382.6658936,278.8204041,371.5198059,284.5592651,358.3230896z M345.3346558,451.2239075c-9.3200073-9.5963745-16.4405212-18.8392029-24.9134216-30.7967529c-14.0818176-1.4981384-25.0709839-2.5043945-37.7563782-5.6159058C264.0772095,487.0343323,297.5268555,498.1216125,345.3346558,451.2239075z M371.5346985,421.6913147c-11.7788086,0.3000793-16.6086426,0.2579651-29.4278259-0.0121155c5.7509155,8.2714844,8.0646057,11.1280823,14.5596313,17.8538208C363.4008179,432.5393372,365.8301697,429.7841492,371.5346985,421.6913147z M430.99823,414.4344177c-13.5774536,3.0973206-24.5089417,4.688324-37.7385864,5.6617432c-7.7511292,11.1494141-14.9326782,20.2267761-24.933075,31.0922546C419.8050842,500.2810669,447.6533203,482.0038757,430.99823,414.4344177z M443.3474121,321.9057312c-4.2514343,13.0842896-8.3977356,23.6558838-14.2211609,36.4164124c5.6585693,13.1967163,9.677887,23.6125488,13.5236206,35.9946899C517.6851196,371.2198486,503.546814,339.8165894,443.3474121,321.9057312z"/></svg>