<svg version="1.1" xmlns="http://www.w3.org/2000/svg" width="512px" height="512px"><path d="M309.9058228,211.8514557c-17.1583557-56.9635162-85.2086334-87.6446991-140.8774719-55.5510101c-64.2331696,37.0311584-64.2331696,130.1116943,0.000061,167.1428833c10.3517151,5.9678955,21.1316986,9.7577209,31.9330139,11.6184387c-7.9989624,19.4180298-10.0424347,41.2974854-3.9798584,63.1930847l-18.5358734-4.8401489c-12.1775208-3.1056824-24.2567596-7.7471924-36.0391388-14.0788269l-59.414299,34.7086487L47.634613,378.6868896l32.1224213-60.0131531c-6.2860947-11.0388489-11.1512985-22.7107239-14.5720749-34.7373352L0,266.2298889v-50.0900421l64.8365021-19.0444489c3.3286743-12.0869446,8.0897293-23.8344269,14.300827-34.9477081L46.1614037,103.191803L81.519043,67.8340988l59.428299,33.3822632c11.33638-6.2394028,22.963501-10.9169006,34.6914215-14.1426468l18.3372803-66.8742294h50.0899811l18.869278,68.2760544c10.4291992,2.7516861,20.8102112,7.0676498,30.7525635,12.3921204l68.3930969-39.7472572l38.402771,38.4027672l-16.9923401,34.5898972c-6.4821167-8.8144989-13.4623718-14.8287888-20.4625549-14.8856964c-34.3739929-0.2794418-32.6245422,29.7748718-32.6245422,29.7748718C332.5673218,181.8272247,325.2496338,199.7375488,309.9058228,211.8514557z M347.0187378,151.4406433c0.4229431-2.5641785,7.5137634,3.2351532,7.5137634,8.1429901c-0.1435547,21.4968719-1.8904724,37.3855743-3.2225647,48.3986359c-2.9438171,28.4519348-47.9493103,60.3356628-81.030304,109.5346985c-32.9530029,51.7237854-16.0051727,109.1121826,34.0204773,149.7767334c8.7116699,7.0814819,31.7360229,13.0113525,29.055481,20.6659241c-4.7913818,8.8800659-56.1633301-10.634552-82.5608826-42.8191528c-34.1225891-41.6032715-59.9007263-123.685791,52.0872498-195.4324799c10.3603821-10.3568878,30.8773193-15.4201355,41.1864929-44.389267C346.3100281,199.0198212,347.5074768,174.7545929,347.0187378,151.4406433z M357.7037048,127.3792343c2.3519897,0.7907181,5.2757568,6.5623398,6.6646423,9.7333298c2.2092896,9.2523956,1.3766174,93.8413696-2.2310181,109.451355c-3.1250305,31.7826691-49.4215088,69.8556671-45.9499207,124.8135834c4.1576843,65.819458,43.8442078,89.7667847,40.4464722,105.424408c-12.5614319,9.4346313-70.0650635-56.2322998-68.5975952-109.7462463c-0.1940918-63.9071655,59.2077332-86.3469849,69.0251465-152.1627655C359.2187195,191.4699707,355.6231689,140.5410156,357.7037048,127.3792343z M368.6332092,472.3447571c-27.4608765-58.4358826-23.9462891-120.4373169-4.5128174-196.7554321c6.3215332-24.8256531,13.7654114-54.9280548,5.2305908-108.9794769c0,0,10.3246155-0.5654602,10.6885071,3.7864075c0.151062,52.5889587,4.8720703,52.8052521,43.991272,79.1200409c34.0031128,22.3921204,80.0770874,52.0386353,86.5451965,97.9654846c8.4555969,60.0392456-20.7887573,111.9674377-86.5452576,140.372406C401.7890625,500.7764893,411.502594,478.3366394,368.6332092,472.3447571z"/></svg>