<svg version="1.1" xmlns="http://www.w3.org/2000/svg" width="512px" height="512px"><path d="M356.3930054,183.6305542c9.0888062,16.7055054,15.2782593,35.4110718,17.7116089,55.640625l-62.4865112,0.000061c-12.578064-62.289917-84.5075073-97.6629639-142.8283081-64.0403442c-64.0267944,36.9121704-64.1375122,129.5887451-0.3416748,166.7021484c-1.6275024,30.3625488,6.2959595,84.1808472,79.8821411,95.543335v35.2015991h-52.6664429l-17.4699707-60.6674805c-12.1603394-3.1013184-24.2225342-7.7362671-35.9882812-14.05896l-59.3304443,34.659668l-35.3077393-35.3077393L79.6444702,337.375c-6.2772217-11.0232544-11.1355591-22.6786499-14.5515137-34.6882935L0,285.005188v-50.0193481l64.7449951-19.0175781c3.3239746-12.0698853,8.0783081-23.8007812,14.2806396-34.8983765l-32.9293823-58.8726807l35.3077393-35.3078003l59.3444214,33.335144c11.3203735-6.2305908,22.9310913-10.9014893,34.6424561-14.1226807l18.3114014-66.7798462h50.0192871l18.8426514,68.1796875c11.0107422,3.3702393,21.6189575,7.9155273,31.6339722,13.5203247l62.3120728-35.6037598l35.3077393,35.3077393L356.3930054,183.6305542z M510.9960938,314.4568787c-12.7100525-86.2644348-137.7730408-90.4680328-169.84021,5.5328674h-74.0381165l-15.873764,36.3234253l49.4021454-0.1121826c-10.0315857,16.0679321-23.4137878,26.5142517-43.3356934,23.803894c-38.3719482-7.770874-38.9589539-60.1004028-7.1989746-80.894928c20.1938477-15.4934692,46.4642334-5.214447,51.2971497,9.0597229l45.4947815-12.6540527c-14.4443054-40.9451294-56.2157593-57.3967285-98.5694733-43.3959045c-26.6501923,9.2215881-71.731842,45.7470398-65.9949951,104.8558655c7.8342133,61.6697693,68.7441559,81.2936096,113.6070099,58.7903748c18.9347229-9.4976501,34.8234558-26.1534424,44.5545654-46.4753418c16.4666138,57.1381226,78.0568542,68.2982178,123.1365967,41.9458008C505.6504822,386.6766052,515.5135498,345.1171265,510.9960938,314.4568787z M440.1085205,375.4266357c-27.6331482,13.7188416-49.4125061-0.6266174-55.0351868-22.5046692c-5.2834473-20.5580139,3.2475586-52.6446533,37.4771423-60.4606628C472.7873535,280.9901428,484.3963318,353.4393616,440.1085205,375.4266357z"/></svg>