<svg xmlns="http://www.w3.org/2000/svg" width="512" height="512"><path d="M373.647 289.548H312.39v189.745h-33.735V289.548h-61.129V258.17h156.12v31.377zM507.38 398.536c-21.32-42.944-71.98-45.61-86.712-72.729-16.277-43.922 50.849-51.858 83.1-22.267v-39.427c-13.742-8.874-35.591-9.828-50.919-9-40.45 2.184-67.632 25.687-67.226 60.698-1.743 48.871 54.064 61.455 82.087 84.072 19.032 16.15 17.67 55.313-29.347 51.401-15.05-1.382-34.367-4.296-53.034-24.683v41.942c34.295 22.292 93.279 18.2 113.841-8.593 12.221-15.924 17.258-37.255 8.21-61.414z"/><path d="m178.916 397.877 17.47 60.668h52.667V335.599c-24.92 8.664-53.58 7.373-79.54-7.594-64.143-36.98-64.143-129.929 0-166.907 58.32-33.623 130.25 1.75 142.828 64.04h62.486c-2.433-20.23-8.623-38.935-17.711-55.64l35.425-62.905-35.308-35.308-62.312 35.604a161.738 161.738 0 0 0-31.634-13.52l-18.843-68.18h-50.02l-18.31 66.78c-11.712 3.22-23.323 7.892-34.643 14.122L82.127 72.756l-35.308 35.308 32.93 58.873c-6.203 11.097-10.957 22.828-14.281 34.898L.723 220.852v50.02l65.093 17.681a156.743 156.743 0 0 0 14.551 34.689L48.29 383.17l35.308 35.308 59.33-34.66c11.766 6.323 23.828 10.958 35.988 14.06z"/></svg>