<svg version="1.1" xmlns="http://www.w3.org/2000/svg" width="512px" height="512px"><path d="M143.1291351,384.0053101l-59.4142914,34.7086487l-35.3576393-35.3576355l32.1224251-60.0131531c-6.2860947-11.0388489-11.1512985-22.7106934-14.5720825-34.7373352L0.7225952,270.899353v-50.0900574l64.8365021-19.0444489c3.3286667-12.0869446,8.0897217-23.8344269,14.3008194-34.9477081l-32.9759216-58.9558792l35.3576431-35.3576965l59.4282837,33.3822556c11.33638-6.2393951,22.963501-10.9169006,34.6914215-14.1426392l18.3372803-66.8742294h50.0899811l18.8692932,68.2760468c11.0262756,3.375,21.6495056,7.926712,31.6786804,13.5394287l62.400116-35.6540756l35.3576355,35.3576431l-35.4750366,62.9934464c9.1016541,16.7291107,15.2998352,35.4611053,17.7366333,55.7192535l-62.5748291,0.000061c-12.5958252-62.3779449-84.6269379-97.8009872-143.0301514-64.1308441c-64.2331772,37.0311432-64.2331772,130.1116638,0.000061,167.1428528c25.9981079,14.9882202,43.6961365,17.4054565,66.6270447,7.6052856v47.9794922l-44.884613,26.7819214C191.4934387,410.4794617,154.9115143,390.3369446,143.1291351,384.0053101z M276.3663025,435.0176697c-16.0933533,5.4395142-28.548645,2.175354-41.4943237-21.1765137l-36.7571411,22.5176086c14.8976746,37.255249,67.7415161,53.4042358,106.3756714,32.0272827c25.9302368-17.1615601,29.9129944-34.8007812,29.3477173-89.6340942l-0.0000305-124.5881195h-45.3899536l-0.0001831,142.8287506C288.9631042,413.9144897,288.2673645,430.9951477,276.3663025,435.0176697z M483.3272095,466.5578003c21.6354675-12.1939392,34.0894775-35.8141785,27.7359314-66.2149048c-10.2355652-57.2948303-87.5443726-57.2947998-96.7113953-80.7112122c-10.0664368-33.8022766,36.4674377-39.1464844,49.3750305-9.0502625l35.3826294-22.7029419c-25.322937-48.6744537-94.1703491-43.8566895-117.1595459-14.2549438c-22.8728333,25.9616394-16.3553467,71.3983765,11.4904785,90.1012573c27.4288635,20.5871277,67.7226868,25.2666931,72.8656311,44.5255737c5.0039062,23.5677795-17.3283691,31.1817627-39.5216675,28.4790649c-16.3553467-3.3977356-25.4520264-11.7066956-35.289917-26.8265381l-36.7107849,21.1739807C379.5386658,480.4859619,446.0578613,487.5631714,483.3272095,466.5578003z"/></svg>