<svg xmlns="http://www.w3.org/2000/svg" width="512" height="512"><path d="M356.897 172.028c9.101 16.73 15.3 35.461 17.736 55.72H312.06c-12.596-62.378-84.627-97.801-143.03-64.131-63.487 36.6-64.216 127.947-2.206 165.82l81.858 77.793v54.254h-52.74l-17.495-60.753c-12.178-3.106-24.257-7.747-36.04-14.079l-59.414 34.709-35.357-35.358 32.122-60.013a156.965 156.965 0 0 1-14.572-34.737L0 273.546v-50.09l64.837-19.044c3.328-12.087 8.09-23.835 14.3-34.948l-32.976-58.956L81.52 75.15l59.428 33.383c11.337-6.24 22.964-10.917 34.692-14.143l18.337-66.874h50.09l18.87 68.276a161.966 161.966 0 0 1 31.678 13.54l62.4-35.655 35.358 35.358-35.475 62.993zm55.017 112.284h-60.052v140.12l100.086-100.086-40.034-40.034zm20.017-40.035H271.793l-80.069 80.07 160.138 160.137L512 324.346l-80.069-80.069zm-210.181 80.07 60.052-60.052h140.12l60.052 60.051-130.112 130.112L221.75 324.346z"/></svg>