<svg xmlns="http://www.w3.org/2000/svg" width="512" height="512"><path d="m184.785 471.562 76.992-115.487-76.992-115.487h57.743l76.993 115.487-76.993 115.487h-57.743zm76.992 0 76.992-115.487-76.992-115.487h57.744l153.982 230.974h-57.744l-48.118-72.178-48.12 72.178h-57.744zm186.063-67.366L422.178 365.7l89.822-.003v38.498h-64.16zm-38.495-57.744-25.665-38.495 128.32-.002v38.497H409.345zM169.028 176.54c50.881-29.318 112.082-6.227 135.345 41.445h65.802a154.223 154.223 0 0 0-13.278-33.034l35.475-62.993L357.014 86.6l-62.4 35.654a161.966 161.966 0 0 0-31.679-13.54l-18.869-68.275h-50.09l-18.337 66.874c-11.728 3.226-23.355 7.903-34.692 14.143L81.52 88.072 46.161 123.43l32.976 58.956c-6.21 11.113-10.972 22.86-14.3 34.948L0 236.378v50.09l65.185 17.707a156.965 156.965 0 0 0 14.572 34.737l-32.122 60.013 35.357 35.358 59.415-34.709c8.687 4.668 29.805 12.987 48.128 18.3l41.032-61.799C130.288 370.491 75.488 230.436 169.028 176.54z"/></svg>