<svg version="1.1" xmlns="http://www.w3.org/2000/svg" width="342px" height="512px"><path d="M179.3003387,209.8181458c14.2629089-20.3421631,31.0978088-41.8534241,45.1268921-42.3210602c34.6050568-2.3381805,70.8468781-0.2338257,89.3184967,17.0687103c6.5385132,6.1246948,23.6156311,18.0039978,26.1876221,33.2021637c6.4292603,37.9910278-2.4251709,99.143692-25.2523499,139.3555756c-22.1161499,38.9593201-96.0460815,54.7121887-96.0460815,54.7121887c-15.2624512,2.8874817-32.9061279,4.9056091-43.1061249,14.6437073c-12.0016479,11.4581604-13.1999512,29.0811462-13.1999512,40.8373718c0,7.0245972,3.4214935,28.7842712,17.737442,33.2061462C189.3777313,503.3990479,187.4912567,512,187.4912567,512H59.1889076c0.093338-5.2269897,8.5322304-10.9121704,15.9894676-20.1348877c8.3139572-10.2822876,15.9105988-24.2142639,19.7400894-31.3867493c4.3882141-8.2189331,3.7146454-17.0759583,3.7146454-17.0759583c-3.3264236-22.5920105-39.7490692-45.5945435-63.3646927-58.4545288c-21.4042511-11.6557922-35.9620743-23.8578186-35.2429161-31.2651672c1.5621892-16.0905457,45.7266579-30.8702393,67.0421677-57.5856934c17.5363541-21.9789124,18.2130203-49.9214935,18.2130203-49.9214935c-0.4792099-18.9287567,0.258606-25.3094635-6.0544815-35.305191s-12.8015366-11.2232666-14.905899-25.2523499c-2.1043663-14.0290833-17.3609924-11.2232666-17.3609924-11.2232666l-30.1625309,8.7681732l-1.4029083-1.5782623c0,0,13.5985279-17.1245728,20.6683254-26.5509796c2.3585968-3.1447906,1.9535713-11.5029144,1.9535713-11.5029144c-2.3131638-5.3359222-48.422226-36.066391-31.0393467-83.8237762c15.735384-43.2310791,55.4148788-55.882515,94.4624939-59.3897858c68.3018723-6.1348982,103.3475876,77.9783249,63.516243,143.9928741c0,0-22.2473602,30.4353943-23.124176,1.6757812c-0.799881-26.23629-13.853714-36.6509857-13.853714-36.6509857s-3.8580017-2.8642731-3.3903656,9.9957199s3.7410889,133.2763062,10.054184,155.9566345c2.0929565,7.519165,6.2288666,14.0414124,13.7952576,3.0396423C163.6927795,256.1435242,162.0629578,234.4026031,179.3003387,209.8181458z M228.4885254,373.4494629c4.3371582-17.1514893-0.6259918-38.6007385-8.6257172-39.9919739c-6.0118713-1.0455627-10.9781952,5.7404175-10.9781952,19.3424988c0,16.0215149,1.6094971,33.0887451-6.0118561,38.4236755c-7.841568,5.4891052-7.424118,11.7849121-6.2732544,12.8078918C198.9519653,406.1226501,222.7380524,396.1900024,228.4885254,373.4494629z"/></svg>