<svg xmlns="http://www.w3.org/2000/svg" width="512" height="512"><path d="M465.498 500.555h-82.883l5.782-69.873h-40.719l-5.782 69.873H170.104l-5.782-69.873h-40.72l5.783 69.873H46.502L0 197.692 116.375 11.445h279.25L512 197.692l-46.502 302.863zM372.254 104.69h-74.692l5.06 34.936h-93.244l5.06-34.936h-74.692l-46.743 93.003 23.372 186.248h279.25l23.372-186.248-46.743-93.003zM196.367 282.504c0-33.262-9.668-54.164-17.36-37.533-7.693 16.631-7.693 58.435 0 75.066s17.36-4.27 17.36-37.533zm146.733-3.615c0-33.262-9.668-54.164-17.36-37.533s-7.693 58.435 0 75.066 17.36-4.27 17.36-37.533z"/></svg>