<svg version="1.1" xmlns="http://www.w3.org/2000/svg" width="371px" height="512px"><style type="text/css">.st0{fill-rule:evenodd;clip-rule:evenodd;}</style><path class="st0" d="M146.2230835,466.035675h76.0881958L211.958374,512h-55.5183258L146.2230835,466.035675z M125.0858841,184.75c3.962822,69.1298523,21.5601273,155.5174255,51.7342606,255.7828674c5.2170258,2.6134644,10.1716614,2.5134277,14.8929596,0c30.1644135-100.2323608,47.7621307-186.598175,51.7302704-255.7173004C256.5-64,112.3333359-57,125.0858841,184.75z M156.5749664,0c0,0-88.8192368,33.616375-82.4261932,162.9110565c6.3928375,129.2943573,94.7368469,277.5524292,94.7368469,277.5524292C114.4991074,392.2101135,33.9444885,241.8877411,32.3915749,153.4293365C31.833334,75,85.2320175,9.2286682,156.5749664,0z M15.3594608,164.7808838c12.9823818,131.2855225,146.8900299,280.7515259,136.1987762,270.9471741C121.7409668,410.0116882,21.3379498,288.9316711,2.4701214,175.4740753C-16.3969936,62.0174942,79.0098419,22.7193222,79.0098419,22.7193222C23.6290722,60.2671585,9.1437197,115.2135544,15.3594608,164.7808838z M219.805603,434.2905273c7.2859497-15.1810303,70.2706299-149.5830688,76.2930298-271.3795166C302.4917603,33.616333,213.6725464,0,213.6725464,0c8.2799683,0.3517456,26.7112427,5.7277222,44.1088867,14.0200195c17.397583,8.2913818,78.8762817,46.0667725,80.0733643,139.4093018c-1.0200806,58.1097412-28.4729614,140.8713379-62.6079712,204.4998169c34.5765991-53.0253296,73.3728638-125.5,80.0625-193.1482544c6.215332-49.5673218-8.2695923-104.5137329-63.6503296-142.0615845c0,0,95.4063721,39.2981567,76.5396118,152.7547607C349.3308716,288.9316406,248.747467,410.132019,218.9300842,435.8483887L219.805603,434.2905273z"/></svg>