<svg version="1.1" xmlns="http://www.w3.org/2000/svg" width="500px" height="512px"><path d="M115.4664154,487.6497803C-56.9269104,353.2944031-41.7357941,34.7587891,197.9462433,1.8940041c211.8316498-30.3367252,430.414917,310.951416,210.4410553,508.076416c-20.9805298,8.6943054-34.6077576-12.587616-17.6920776-25.2169189C609.7942505,336.4406433,403.8702393-9.9036112,208.9176025,26.3319206C-6.7417426,66.4161758,29.1419029,336.264679,142.629837,432.0500793C172.1064911,459.4729309,147.4413757,514.4628296,115.4664154,487.6497803z M246.0514221,69.1216888c-14.0658112,6.9287796-2.5318298,35.5800934,9.0021667,36.4227905C413.9976196,82.7919312,500.080658,341.4967957,365.236084,368.6266174c-76.1737671,8.2554016-124.5270844-71.1359863-141.6960144-105.3939514l21.3860931-6.8472595c15.7537384-5.2433624,11.2527008-15.7301331,1.1252594-25.842392l-65.1482849-60.6734924c-7.899353-7.8875275-18.224411-3.4734497-22.6225891,7.8651123l-33.1954117,87.077652c-6.9391098,20.0372009,2.0964661,28.0990295,16.3163986,24.718811l15.6651459-5.0155029c20.837265,49.0527649,88.3477478,174.5244751,222.9854126,140.2432861C552.6868896,348.5191345,416.5295105,47.399086,246.0514221,69.1216888z M375.8323364,250.3929596c-8.4474182,16.0918121-36.2653503,23.0858612-56.6384888-13.4829865c-10.5378113-18.9148712-9.2250671-36.0180054-1.6410522-45.3611603c11.0140991-13.5688629,32.773468-2.9528809,32.773468-2.9528809c6.7935486,6.4603424,12.7530212-1.8726349,7.50177-7.8650818c-29.256958-34.4565125-94.897583-13.8574982-59.6391907,62.5460968c26.8569641,58.1980286,84.3951111,51.6847839,90.0214233,15.7301331C388.5853577,246.6476898,379.8651733,246.0966949,375.8323364,250.3929596z"/></svg>