<svg xmlns="http://www.w3.org/2000/svg" width="500" height="512"><path d="M115.466 487.65C-56.927 353.294-41.736 34.759 197.946 1.894 409.778-28.443 628.361 312.845 408.387 509.97c-20.98 8.695-34.607-12.587-17.692-25.216C609.795 336.44 403.87-9.904 208.918 26.332-6.742 66.416 29.142 336.265 142.63 432.05c29.476 27.423 4.811 82.413-27.164 55.6zM246.051 69.122c-14.065 6.928-2.531 35.58 9.003 36.422C413.998 82.792 500.08 341.497 365.236 368.627c-76.174 8.255-124.527-71.136-141.696-105.394l21.386-6.848c15.754-5.243 11.253-15.73 1.125-25.842l-65.148-60.673c-7.9-7.888-18.224-3.474-22.622 7.865l-33.196 87.077c-6.939 20.037 2.097 28.1 16.317 24.72l15.665-5.016c20.837 49.052 88.347 174.524 222.985 140.243 172.635-76.24 36.478-377.36-134-355.637zm129.781 181.271c-8.447 16.092-36.265 23.086-56.638-13.483-10.538-18.915-9.225-36.018-1.641-45.361 11.014-13.57 32.773-2.953 32.773-2.953 6.794 6.46 12.753-1.873 7.502-7.865-29.257-34.457-94.898-13.858-59.64 62.546 26.858 58.198 84.396 51.685 90.022 15.73.375-12.36-8.345-12.91-12.378-8.614z"/></svg>