<svg version="1.1" xmlns="http://www.w3.org/2000/svg" width="512px" height="512px"><path d="M489.6030884,152.2940521C503.6488647,184.0041809,511.5145264,219.0720978,511.5145264,256c0,141.3848572-114.3978882,256-255.5145264,256C114.8831177,512,0.4854823,397.3848572,0.4854823,256C0.4854823,114.6149139,114.8831177,0,256,0c35.6614075,0,69.605072,7.3407974,100.4387207,20.5620079L230.5423279,146.4584198l-92.8366241,188.3255463c0,0-9.8437424,49.2650146,34.4820404,35.8085632c37.9355316-11.51651,192.4530029-95.4891968,192.4530029-95.4891968L489.6030884,152.2940521z M199.1272125,265.3189087l-42.7571411,86.7019958l88.2084198-42.2440796C228.3887787,278.9202881,209.4311066,268.6862793,199.1272125,265.3189087z M407.2098999,0l-157.003952,159.5140228c5.7025146,23.8014374,18.5415802,41.2079315,42.0214081,48.1350861L501.6887207,0H407.2098999z M511.5145264,12.9682579L304.6045837,218.0878448c9.1732178,24.6414795,26.4465942,36.3272705,47.0597839,40.8658905L511.5145264,95.4426651V12.9682579z"/></svg>