<svg xmlns="http://www.w3.org/2000/svg" width="512" height="512"><path d="M510.923 324.993 325.507 509.894c-.515.515-1.545.515-3.091.515L69.529 442.938c-.515 0-1.545-.515-2.06-2.06L-.002 188.507c0-.515 0-2.06.515-3.09L185.929.517c.515-.515 1.545-.515 3.09-.515l252.887 67.986c.515 0 1.545.515 2.06 2.06l67.471 252.371c1.03 1.03.515 2.06-.515 2.575zM263.188 124.126 14.937 191.082c-.515 0-.515.515 0 1.545l181.81 181.811c.515.515.515 0 1.545 0l66.955-247.736c-1.03-2.575-2.06-2.575-2.06-2.575z"/></svg>