<svg xmlns="http://www.w3.org/2000/svg" width="508" height="512"><path d="M507.622 256c0 141.385-113.635 256-253.811 256S0 397.385 0 256 113.635 0 253.81 0s253.812 114.615 253.812 256zm-291.966-13.608v-53.02c-25.62-18.407-86.624-29.998-126.886 8.434s-34.772 130.707 0 160.599c34.772 29.891 91.558 34.054 133.04-1.938l-16.524-31.882c-24.915 20.898-95.157 35.489-95.157-45.591 0-93.945 67.095-64.717 67.095-64.717v29.945l38.432-1.83zm36.488-49.343c0 84.912 121.9 58.596 122.698 109.961.693 44.554-78.456 41.817-81.515 25.05v-29.72l-40.612 1.385v61.932c45.282 35.606 173.506 30.305 173.506-59.387 0-93.937-125.528-70.161-125.528-117.581 0-34.678 57.591-40.889 72.501-24.109v32.241l43.27-5.09v-62.785c-93.418-32.518-164.32-8.742-164.32 68.103z"/></svg>