<svg version="1.1" xmlns="http://www.w3.org/2000/svg" width="435px" height="512px"><style type="text/css">.st0{fill-rule:evenodd;clip-rule:evenodd;}</style><path class="st0" d="M178.2004089,447.3547974V512c131.313385-20.3761902,248.8173218-127.5907288,256.2595825-268.4932251C441.8841858,102.9461823,341.0048218-1.1569893,220.072876,0.0097096C-25.838438,2.5096622-100.5261307,370.1602783,178.2004089,447.3547974z M241.8465729,163.7776642c22.6962738-4.6652985,45.542038-25.8495789,46.8972015-53.8710556c0.7327271-21.0804214-25.5877075-35.3983154-42.2222137-20.0430298C227.1838684,112.6496353,225.1567993,143.1736603,241.8465729,163.7776642z M192.0183258,163.7776642c16.6387939-23.7706146,11.1637878-53.4436493-5.6941223-72.436348c-16.341629-13.7714386-42.3325348-2.9999466-42.4592438,18.5652924C143.6854858,131.7336884,162.9885101,157.6478729,192.0183258,163.7776642z M161.4514008,198.2551117c-4.0200958-25.9941254-35.7561798-49.8348999-59.458931-46.9755402c-21.1292419,1.1161499-30.5669174,28.4439087-12.9804688,42.6658478C109.6757355,210.8282013,137.4178925,214.6675262,161.4514008,198.2551117z M328.9413452,292.2062073c24.1211548,1.3327332,35.9265747-29.3058472,17.1677246-43.0968323c-25.7124329-21.1054688-56.1344299-15.4013367-72.4394226-3.8787079C279.2668457,269.1349792,301.6234131,290.6968079,328.9413452,292.2062073z M159.7764893,246.5235596c-23.9008026-16.8350677-56.3310089-10.8845825-72.0206604,4.3096924c-17.4189606,15.1700745-5.694664,44.0449524,18.4238892,42.665863C129.7306671,292.8945618,155.2960815,273.6221924,159.7764893,246.5235596z M193.2744904,278.4152222c-18.7588654,4.1372986-34.6704102,16.4629822-42.7099457,35.7703552c-17.8456116,34.7325745,23.1930237,60.6414795,41.236969,32.299408C206.4024658,324.3198547,206.8685608,300.4959717,193.2744904,278.4152222z M243.1027527,279.7080994c-14.5470886,20.9746399-13.9721527,47.1673584,3.7685089,70.2478638c14.7391205,16.5491638,45.5375519,4.3209534,44.3848419-16.3768005C290.0097351,311.1994629,273.1679382,286.3113098,243.1027527,279.7080994z"/></svg>