<svg xmlns="http://www.w3.org/2000/svg" width="512" height="512"><path d="M512 6.458v231.47c-145.877-19.429-145.877-212.041 0-231.47zM52.732 380.425c4.614-56.565 32.924-92.489 90.85-102.615 7.67-89.974 56.718-139.456 137.294-156.555C284.736 71.975 295.933 30.587 317.17 0H0v410.927c17.095-18.795 34.65-29.348 52.732-30.502zM296.073 201.83c-96.764 7.28-92.564 151.485 5.718 151.105v79.47c-64.378 2.98-121.11-32.389-147.177-102-63.662 4.095-62.475 100.708 5 99.693V487c-41.6-.281-76.609-20.153-101.307-70.974-43.58 2.532-41.783 65.645 1.615 67.667V512H512V357.564c-112.326-6.764-178.452-65.22-215.927-155.734z"/></svg>