<svg version="1.1" xmlns="http://www.w3.org/2000/svg" width="512px" height="512px"><path fill-rule="evenodd" d="m115.4503 337.81337c0.0831-4.18902-2.91526-3.75599-6.34721-2.67251 0 0-12.026287 8.01752-8.35161 19.04161 3.6747 11.02411 19.86456 6.34721 22.87112 4.6769 2.25728-4.3768-1.73398-6.32458-2.85695-6.01832-9.08632 0.36806-14.80805-2.84144-5.31535-15.02768zm-20.209889 40.23301c-21.602425-12.45407-21.602425-43.75813-2.7e-5 -56.21219 21.602346-12.45396 48.751946 3.19807 48.751946 28.10609 0 24.90806-27.1496 40.56009-48.751919 28.1061zm-28.393543 71.51039c-19.203319-7.53116-27.127539-16.99329-35.624652-30.21687-9.248056-14.39224-4.966346-30.9476-4.966346-30.9476 58.853601-178.6004 238.09895-169.68586 344.74524-77.84569 27.2852-70.02567 98.03114-79.27013 139.01016-78.95776 17.56758 100.08057-86.89949 126.22379-91.74671 140.67825 76.90106 43.99873 82.82125 87.47442 78.40174 120.66084-31.13014 18.62307-73.78043 4.71866-130.11351-47.81949-71.77018 51.25922-155.37463 84.41031-288.5851 28.91412 68.95555-15.46058 77.03996-32.22207 79.51379-45.59535 0 0-52.43784 36.10955-90.634614 21.12955zm330.71001-371.95544-9.21565-66.410771c-0.14764-1.076923 2.9264-3.2017753 3.66951-1.065304l17.37955 64.846421 25.4494-63.769231c0.68317-1.8871883 3.53474-0.300238 3.15559 1.314827l-16.50859 63.769231c-0.41979 1.662288-0.0107 3.019222 1.31483 1.840763l50.69585-40.195273c4.42668-2.167011 3.28388 1.25244 2.42311 1.899073l-46.01889 44.870335c-0.43661 1.41567 1.22251 2.71981 2.90343 2.371016l61.50788-8.547455c2.05798-0.522924 3.60547 0.65772 2.64482 3.020849l-66.00428 16.040879c-1.55996 0.62574-0.90117 1.251507 0 1.877247l60.39327 23.726606c2.75256 0.91135 5.80134 3.87733 0.80461 3.63753l-62.06475-16.91065c-1.29887 0.20573-3.02322 1.05992-1.49192 2.61928l40.37772 50.76426c1.32695 2.41081 1.85268 4.86327-1.2038 3.70852l-47.31214-48.3802c-1.32956-0.22333-1.6755 0.6776-1.33649 2.36129l8.67785 63.11164c-0.48449 3.1779-1.9512 1.63089-2.90343 0.5992l-16.81897-62.39602c-0.68893-1.48083-2.26338-1.2252-3.39507 1.5579l-23.42738 61.29079c-1.78104 1.32122-2.24217-1.17393-1.94438-2.64697l16.67043-63.62026c0.33965-0.93712-0.43248-1.33215-1.57778-0.52594l-51.78111 41.61046c-1.62117 0.95226-2.83089 0.97875-2.89261-1.57778l47.24873-46.77681c1.20831-2.72165 0.12206-4.3074-2.56769-4.30039l-63.21174 11.18355c-3.99152-1.27615-1.01888-2.55231-0.79684-3.82847l62.7168-15.44504c1.17406-1.522563 0.32494-3.741888-1.33788-4.532378l-61.47086-23.572386c-2.56322-1.932892-2.16853-3.734214 0.24571-4.198002 21.19298 5.678751 42.33236 11.336049 65.43267 17.777707 3.01642 0.451716 4.41275 0.03944 1.57781-2.629655l-40.99168-49.940348c-0.64829-3.147862 1.50996-3.968786 3.65053-1.445918zm-374.85568 174.32l5.005708 10.52928 11.219696-0.34525-7.594854-12.60056zm-11.172579 34.24621c-15.371486-8.86184-15.371486-31.1367-2.6e-5 -39.99854 15.371487-8.86182 34.690173 2.27561 34.690173 19.99927s-19.318686 28.86109-34.690147 19.99927zm214.08231-193.52726l11.14012 23.432663 24.96919-0.76829-16.90223-28.042379zm-24.86437 76.214233c-34.20893-19.72182-34.20893-69.294101-3e-5 -89.015947 34.20896-19.721819 77.20229 5.06431 77.20229 44.507977 0 39.44366-42.99333 64.22979-77.20226 44.50797zm-117.09444-25.42234 8.39038 17.64872 18.806001-0.57865-12.730219-21.12059zm-18.727005 57.40208c-25.765061-14.85383-25.765061-52.19005-2.6e-5 -67.04389 25.765061-14.85386 58.146232 3.81425 58.146232 33.52195 0 29.70767-32.381171 48.37578-58.146206 33.52194z"/></svg>