<svg xmlns="http://www.w3.org/2000/svg" width="512" height="512"><path fill-rule="evenodd" d="M115.45 337.813c.083-4.189-2.915-3.756-6.347-2.672 0 0-12.026 8.017-8.352 19.041 3.675 11.025 19.865 6.348 22.872 4.677 2.257-4.376-1.734-6.324-2.857-6.018-9.087.368-14.808-2.841-5.316-15.028zm-20.21 40.233c-21.602-12.454-21.602-43.758 0-56.212 21.603-12.454 48.752 3.198 48.752 28.106s-27.15 40.56-48.752 28.106zm-28.393 71.51c-19.203-7.53-27.128-16.993-35.625-30.216-9.248-14.392-4.966-30.948-4.966-30.948C85.109 209.792 264.355 218.706 371 310.547c27.285-70.026 98.031-79.27 139.01-78.958 17.568 100.08-86.9 126.224-91.746 140.678 76.9 43.999 82.82 87.475 78.401 120.66-31.13 18.624-73.78 4.72-130.113-47.819-71.77 51.26-155.375 84.41-288.585 28.915 68.955-15.461 77.04-32.222 79.513-45.596 0 0-52.437 36.11-90.634 21.13zm330.71-371.955-9.216-66.41c-.147-1.077 2.927-3.202 3.67-1.066l17.38 64.847 25.449-63.77c.683-1.887 3.534-.3 3.155 1.315l-16.508 63.77c-.42 1.662-.011 3.019 1.315 1.84l50.695-40.195c4.427-2.167 3.284 1.252 2.423 1.9l-46.018 44.87c-.437 1.415 1.222 2.72 2.903 2.37l61.508-8.547c2.058-.523 3.605.658 2.645 3.02l-66.005 16.042c-1.56.625-.9 1.251 0 1.877l60.394 23.727c2.752.91 5.801 3.877.804 3.637l-62.064-16.91c-1.3.205-3.024 1.06-1.492 2.619l40.377 50.764c1.327 2.41 1.853 4.863-1.203 3.708l-47.313-48.38c-1.33-.223-1.675.678-1.336 2.362l8.678 63.111c-.485 3.178-1.951 1.631-2.904.6l-16.819-62.397c-.689-1.48-2.263-1.225-3.395 1.558l-23.427 61.291c-1.781 1.321-2.242-1.174-1.944-2.647l16.67-63.62c.34-.937-.432-1.332-1.578-.526l-51.78 41.61c-1.622.953-2.832.98-2.894-1.577l47.25-46.777c1.208-2.722.121-4.308-2.568-4.3L321.197 118.5c-3.992-1.276-1.02-2.552-.797-3.829l62.717-15.445c1.174-1.522.325-3.741-1.338-4.532l-61.471-23.572c-2.563-1.933-2.169-3.735.246-4.198 21.193 5.678 42.332 11.336 65.432 17.777 3.017.452 4.413.04 1.578-2.63l-40.991-49.94c-.649-3.147 1.51-3.968 3.65-1.446zM22.7 251.921l5.006 10.53 11.22-.346-7.595-12.6zm-11.17 34.247c-15.372-8.862-15.372-31.137 0-39.999 15.371-8.862 34.69 2.276 34.69 20s-19.319 28.86-34.69 19.999zM225.61 92.64l11.14 23.433 24.97-.768-16.903-28.043zm-24.864 76.215c-34.21-19.722-34.21-69.295 0-89.016 34.208-19.722 77.202 5.064 77.202 44.508 0 39.443-42.994 64.23-77.202 44.508zM83.652 143.432l8.39 17.649 18.806-.579-12.73-21.12zm-18.727 57.402c-25.765-14.854-25.765-52.19 0-67.044 25.765-14.853 58.146 3.815 58.146 33.522 0 29.708-32.38 48.376-58.146 33.522z"/></svg>