<svg version="1.1" xmlns="http://www.w3.org/2000/svg" width="512px" height="512px"><path d="M394.9664612,338.5962219c11.0878601-9.8287048,3.458313-29.1747437,4.6800232-31.9858093c-2.7490234-2.4182129,0.3414917-7.5773315-2.6555176-8.4571838c-1.6615295,0.9885864-1.7727966-0.2080383-1.2796631-1.5382996c3.9517517-4.5845947,2.7303467-11.0484619,4.9203491-15.0200806c2.7183838-6.8754578-10.3304749,8.3052368,0.2088318-7.70047c2.2799683-6.5965881,6.713623-30.3287048-0.5919189-20.7497101c11.5812988-13.5426941-2.7056274-13.5560455,11.3934326-28.6322479c-0.8381653-24.9220886,5.4285889-33.1144562-3.434967-36.082901c20.9036255-22.0106812,21.6847839-53.9678802,47.453949-71.1281052c1.3864136-8.5415115,12.8036499-17.1008835,20.6749268-20.2616577c2.7324524,2.062294,3.7427979,4.6048813,7.1322632,2.1723022c8.3763428-1.1424255,2.7511292-7.0746918-0.8623657-9.8675232c-0.4462891-4.9221649-4.3270264-0.0769348-6.5155334,1.7897034c0.6742249-20.2952881-7.5692139,1.2155762-15.5296936-11.0997314c-3.8556824,0.481514-10.1631165,4.5933533-8.1982422-2.9537811c-3.1664734,7.1300812-4.6099243-0.8868484-7.7243652,5.1302719c-8.8595581,3.3340149-3.012085,13.0317078-4.8852844,15.1639557c-1.6236572-4.0638046-4.3713379-0.9059448-5.263031,1.8259201c-6.0617676-0.1612015-0.7492676,6.0410461-7.8006897-2.1625443c-3.36026,1.9460907-2.0500793-0.238121-1.7180481-1.6855621c-2.2034912-0.3307419-2.2595825,3.2150803-3.5367126,4.5251236c-2.9013672-8.0784988-12.0424805,12.8711929-10.7729492,18.6515121c-0.6213074,2.4753265-4.3042908,0.439476-3.2742615,4.1915817c0.794342,3.7555695-1.3500061,2.7679596-3.59198,3.7976608c-2.3022766,5.621994-6.804718,7.3056641-4.9270325,14.6714172c-3.4061584-7.2637482-3.7345581-0.2881012-4.1859436,4.3092804c-2.0393066-9.69133-4.8544006,3.6672211-5.1822205,7.6495209c0.4187927,8.0278473-6.5807495,3.53302-5.7635803,18.0421448c4.1947937-0.1325378-5.8074951,7.1386566,0.4134521,5.4833984c1.0522461,1.7280273-1.4628296,2.3297424,1.0386963,3.1019287c5.3020935,0.2062683,1.0430603,3.144043,4.2450562,5.1489563c3.3152161-0.2482605-0.0851746,3.5711975,1.1567993,4.8217163c6.703186-0.2071381-6.7976074,7.5530243,4.8770447,6.1415558c-4.2180786,3.6116638-2.4555664,4.7107849-2.2663879,8.6264496c-3.2187195,1.131485-1.5476379,4.7423096-2.0375061,7.8254242c0.7137146,1.7771301,1.0990295,2.7615662-0.9689941,3.8639374c-1.4778137,4.160141,0.7982483,4.9082489-4.4575806,6.9114838c-2.5024414,4.6772614,0.3891602,10.0705719-2.7564087,13.8536987c-0.2085876,0.0745087-0.0113525,2.8734894,0.7493591,3.5105438c3.1092224,3.0334625-4.2180786,1.1812744,2.3953552,5.232132c-3.0367126,2.812027,0.0055237,2.6121826,0.8291626,5.0998535c-0.5239868,1.4794006-3.1408081,3.5166473,1.0701294,3.5620422c-5.445282,8.962265-5.9565735,20.2461395-12.2109985,29.0488739c8.9406433-1.3486328-1.7153625,3.4831543,2.6395569,6.578186c-3.1835327,5.497467-8.1700134,11.9056091-5.5531616,18.2308655c1.9109497,4.2080994-5.940033,1.489563-3.526062,6.3335266c2.0127258,3.8774109-6.8998718,3.6188049-1.5387573,8.1052856c0.1855774,2.5217285-2.7831726,3.0191956-0.7811584,5.8998108c2.7398682,4.1523132-2.2523193,2.5420532-3.6153259,6.0841675c0.9559937,4.3130188-7.0142212,3.7032166-2.4362488,7.9377747c-0.8688965,3.1254883-5.1188049,10.2930603,0.6225281,8.1744385c6.1045837,5.8750916,20.6702576-6.1130676,25.8636475,4.3401184C393.8511047,358.5299988,394.0594177,343.8538513,394.9664612,338.5962219z M348.7451782,289.901001c0.3138428,7.6856689-6.2956238,11.9995422-6.507843,18.7633362c-3.4912415,6.8944092,2.0618591,4.7735596,1.7427673,7.289032c-2.4165039,4.5422058,5.9518738-1.4182129,1.7619934,4.1785889c-3.5145264,2.5986938,3.3570862,2.8148193,3.0629272,7.0858765c0.1103821,1.4967346-3.4247742,3.1448364-1.1368713,5.0075378c2.2132568,0.5972595,0.5212097,3.776947,2.8798828,1.1430969c8.9456787-17.1842651-8.0762329-5.9449158,1.4950256-19.6661377c13.5461731-21.9430237,1.2967224-22.5979919,13.9641113-40.8855896c3.5636902-4.6339722-0.3207092-5.8215027,2.1672363-10.0454712c0.3551025-3.0152588-1.5569153-4.9933472-1.8927612-7.5250397c1.0325317-3.0502014,0.9904785-3.1470184-2.1553345-2.6451416c-8.5728149,4.7600861,14.0979614-35.7687683,11.3327942-43.5372009c-1.4560547-3.1931305,0.0869446-9.1330414-3.8589478-3.5262299c-1.56073-4.9525909,2.8902283-14.7866364-4.3201904-10.947525c1.2529907-2.6244659,3.7969666-5.0651245,0.0978394-7.4919434c-4.8796692,5.647934,1.7502136-3.7461853-6.037384,2.3131866c10.6654358-10.3520508-0.4354553-18.7270355,8.181427-29.3727722c6.4762878-15.418396,22.7840576-41.7808838,24.7038269-51.6702499c6.0845337-14.6392517,14.8467102-24.9280701,27.0423279-35.3560181c-5.7703552,15.7059555,34.6148987-24.852932,15.7077637-11.7107925c-6.2424011-12.510746-7.6573486,4.7852173-10.5322266,9.9335861c-4.6509399-10.7336273-6.4683533,0.9365082-7.7380371-6.9065018c-6.1672363,6.6453018-7.1447144-5.5473785-10.1600037,7.3970566c-6.8720398-11.8382339-2.8200073,17.2478485-7.2672119,3.2821579c-1.8111877,1.3245544,0.8479919,4.6913681-2.5500488,3.7348251c-2.6798096,11.1410828-0.0878296,5.5323868-6.2142029,6.6189499c-11.5281677-0.0646057-5.4015503,21.9064865-12.1026306,10.7943192c-4.9704285-0.8196564-0.6237183,7.4782562-6.0841675,5.4796753c-3.2356873,1.4123611-1.5080566,2.4355698-1.4090881,4.8352051c-5.2519836,2.4397278-2.8012085,13.9927521-7.0958862,11.4593658c0.1031494,8.9363785-5.0292358,0.0551071-3.2623291,7.1612854c-4.5519409,6.1244583-3.7908325,0.9536819-4.4559937,11.6052322c4.354248,3.5532837,5.8086548,7.3599396,6.1159973,13.5683136c-3.1112061,6.3704681-6.5976562,15.6019745-9.1247559,23.1335297c-1.6278076,8.0062561-2.2756042,23.564209-2.2756042,23.564209c3.6644897,1.9603119-6.5133057,4.4717102-2.4516296,9.674942c0.563446,1.0935974,0.0494995,3.1690216-0.660614,4.3895264c-1.7811584,2.8338776,1.9383545,4.5505524-1.8987732,7.6383514c-5.0149536,6.4047089,3.2709351,10.1539001-1.5193481,15.2724762c4.425415,5.7703857-5.9231873,4.6074371-1.3878479,13.4496613c-0.5667725,2.1217957-2.5917664,4.1123047,1.1313477,4.8893585c2.3455505,6.9740906-12.8826294,17.6556091-4.1432495,24.1378479c0.2834473,8.3839417,4.1667175,1.7261353,6.5565796,6.6362915L348.7451782,289.901001z M317.6897278,370.7937927c-26.3311768,2.2964478-38.0006714,0.1472473-48.065155,2.3905334c-15.6183624,3.4812012-22.7689514,16.1828918-28.7055817,33.1207581c-7.2583618,22.5505676-14.7998047,39.4489441-17.8890381,60.4590759c-2.5760803,13.1837463-16.6746216,10.5878296-14.9505463-1.9068604c5.3079529-21.1487122,11.0537567-39.9837646,17.4680023-55.2869873c-26.4877167-0.3978882-27.8990173-11.2648926-41.2351532-20.8654175c-2.0231171-1.7613525-3.786438-1.5412292-5.4328918,0.4440308c-15.3843689,21.2936707-29.497345,32.7251587-57.7360001,14.2834778l-22.074852-15.3262939c-3.3757706-2.3051758-3.643158-2.0873718-5.9848862,1.124054c-20.9307556,34.7084961-42.0496674,30.3302002-50.363102,21.6100159c-9.8506203-8.8764343-18.0051785-17.8569641-24.1141205-26.9630737c-5.818265-6.4257812,10.3112659-11.7349854,14.3741035-5.3106995c14.0614662,16.2693787,29.3855515,37.5170593,35.6678085,24.7972107c0,0,13.4201355-20.2462463,17.7984467-23.4656067c12.3497849-9.080719,20.0752029-3.3013611,20.0752029-3.3013611c16.6253357,11.6716614,41.993782,31.374054,47.2939072,24.8423462c12.9857483-9.4362488,12.7281952-23.8588867,33.5888367-24.4629211c8.9360962,0.1360779,14.8694153,8.1813965,21.6751862,14.2728577c8.4586639,7.5708923,17.8299713,11.9671326,19.114563,7.3364868c9.6443481-21.4923096,15.4622345-34.5745239,41.7123718-39.9374695c10.5659485-2.1586304,43.6582031-1.9838562,43.6582031-1.9838562c13.5296021,0.604187,7.4831238-12.8707886,9.6439819-23.9211426c3.2503052-20.4029846-3.0101013-20.2813416,4.9221497-32.3115234c-0.943634-2.2365723-4.3372498-9.3379822-7.107605-12.3257751c-10.5095825-8.2052612,3.5667725-17.7416687,7.5428467-30.7781677c-7.6471558,8.9543152-0.5470276-6.2724152,0.7988281-11.3906097c-6.1559143,1.4656372-2.092804,0.8498993-1.5420532-4.1639709c-5.5391541-2.1646118,12.252594-24.633194-0.3403015-18.6429749c0.0819397-3.4067841,10.2210693-5.3518066,6.1236267-10.3325195c2.6683655-9.9965973-4.0172424-19.7248535-1.8901367-30.1981812c-4.6753845-6.7823486,11.3452759-14.1352997,11.9850159-22.7414856c-1.7821045-8.7134705-7.2118835,5.4189758-3.2916565-6.9589844c0.1389771-15.8560028-9.1569519,9.1909485-1.1872559-11.8026428c2.9993896-7.3096924,6.3283691-16.7481232-3.2089539-9.8872986c0.052948-10.3269424,11.9317322-13.8283768,17.2545166-25.9650269c14.4259949-22.6063614,34.2592773-51.1741028,57.7391052-61.2139778c-0.6944275,6.1296692,15.4799194-9.2011795,12.5073853,1.4441109c9.4487305-10.0814285,17.9878845-9.2876778,30.7583618-8.6554298c-3.891571,6.020504,5.5497742,2.7404366,7.1287231,5.8074493c3.3729553,8.0158195,9.4063721,1.372509,11.6724548-3.4722939c5.9864502-6.3013535,18.4486389,6.89291,28.8067017,2.7607574c-4.7528687,9.2882767,8.9746094,6.2044373,5.9588623,14.2202797c6.997467-3.0227127,1.2627869,1.0414314,2.9078064,4.151989c0.5133972,3.2140846-6.3483582,6.5331726-5.2297058,14.0389099c-1.6276855,5.0736923,4.7155762,4.6439514-0.8918152,7.7637177c7.3071289-1.6475449,7.4750977,1.2446671,6.4940186,5.8101501c3.8720703,6.54702-6.4814453,10.3972778-3.2483521,18.2491913c-3.4970093,4.9860764-4.3276978-3.4821243-6.4563599,8.947113c2.5240479-0.5695496,8.4739685-4.4482727,6.3280334,0.1680298c3.7353516-0.8921967,0.5203552,1.6256409,1.0968628,2.4039536c-0.0878296,1.9027786,2.8673706,4.8127823,1.2028809,6.9066925c-4.6517944,3.2581558-0.826416,7.5788879-2.3816528,11.7430115c-2.6015015,7.8988037-12.8121033,4.0047455-15.4260254,0.6219025c-2.5227051-2.0007935-1.3088074-6.4228973-4.5177307-9.1108322c-6.3289185-3.0347595-17.2540588-5.6359863-18.984375,0.3157272c-1.6731567,5.755188-3.8189697,15.3783417-6.9384766,14.0149841c-4.2506409-1.3245697-10.7536926-2.6251831-11.774231-0.1903076c-1.9653625,11.6690979-6.2954407,20.7705231-14.244873,31.1944427c-1.4773254,4.1132355-6.8443298,4.6110992-6.2952576,8.8897858c-0.2314148,1.4131165-3.2222595,2.6597595-3.4088745,4.2948303c3.7037964,4.5209198-3.0673828,6.6767273,3.5821228,8.7198029c2.8019409,0.1000671,0.1131287,1.5197296,0.4706726,2.9803314c2.5968018,1.8163757,1.5891724,3.4827118,0.0740662,5.3680573c-0.3684692,0.5556488,3.6032715,2.5270844,1.1624451,3.4470673c-5.670929,2.3255157,1.6100769,6.8309784-3.2809143,10.2096252c-0.1872864,0.076416,0.8787842,2.3318481,0.4587402,2.8740082c-9.8624573,3.8827667-5.0018921,13.618576-8.3510437,17.6762085c-1.1161804,0.9726105-2.4216003,1.5161133-0.1723633,2.8133698c0.8763733,0.9904175-4.1715698,6.6696777-0.3437195,6.9200592c3.8612976,2.185318-4.5111389,9.0194397,4.1782532,10.0834045c-0.2832947,3.2392883-7.8624573,7.126709-3.2348022,9.4236145c0.0090027,2.2852173-0.6360779,7.7537231-3.6821899,9.7339478c-0.0280151,5.1189575-0.3474426,9.8921509-4.3063965,14.317749c2.2947693,1.8964233,1.0548401,4.1901245,1.2987671,6.5290527c1.2927551,4.1955566,7.5879517-3.6798706,3.4272461,3.4855347c-3.0387268,2.5399475,1.9355774,2.4403076-0.571106,6.18396c0.3362427,0.755249,1.02771,1.0889282-1.545166,2.6194763c6.5541382,0.1573486-1.7838135,2.8986511,0.247345,7.6075134c-2.7036133,5.5483704,3.6373901,14.2070007-3.5270386,16.1049805c-2.5522156,0.6488647-0.7340393,6.5795288,1.652832,6.0196533c-1.5947266,5.4103394-6.2782593,10.7621155-6.1054077,16.7675171c6.3831177,2.2745667-6.3383789,5.3258057,0.8138123,7.5162964c0.5332336,1.6444092-4.223938,0.5362549-1.7558899,3.5248413c-1.5190735,1.2409668-2.0749207,6.7105103-1.8882446,9.5854797c0.7183838,2.9411926-2.1427612,5.0701904-2.6759644,7.7956238c2.8450317,2.3183289,1.0932007,3.9180603-0.369873,7.2088318c4.8574829,0.8976746-2.6734009,2.7575989-0.5030212,6.152771c2.524353,13.2443848-6.1506653,25.1085205-5.6974182,38.8489685c-8.6905212-4.3823853-6.3992615-11.0664368-12.0662537-6.4607239c-1.813446-4.2828979,1.9276428-21.4527588-2.1484985-14.4578857c-5.6209106,7.7952271,8.9264221-18.160553,4.3247375-23.5394592c-1.2979126-1.8346558,6.0543518-8.6978455,0.3205872-8.3329773c-0.4698486-4.1141968,3.3786011-8.3814087,4.4797058-12.4614258c0.7054749-21.9753418,3.2590942-9.7108154-23.3013306-2.9030457c6.4732056,0.162262-1.8575745,8.7574463,2.4847412,9.2638855c1.6741028-0.2130127,3.0099487,0.2538452,1.2543945,1.7827148c-1.9424133,6.3587036,0.3070679,13.4428711-3.3458862,20.0537415c0.2147827,3.356781,2.6874084,4.8674316-1.1630249,7.3737183c-0.7719727,6.0457764-2.5050964,11.7138672-2.5560303,18.8578491c1.3441162,8.99823-8.8318787-2.9597473-12.1098938,3.8971252c3.5255432-8.8544617-5.9268799,1.7355957-0.5406494-11.8472595c6.6037598-23.8865356-13.8989563,0.1599731-0.6604614-14.6098938c3.8667603-2.1706543,3.4196167-19.318512-1.2597656-10.703125c-0.7855225-3.4470825,9.993042-13.1349792-1.0921021-7.0816345c-2.4909058-3.2904358,5.8226318-12.3819885-0.9479675-5.4277344c-0.3453369-2.4684448-3.6870422-4.0241699,0.1642456-6.0670776c-8.8085938,1.2503052-9.6584167,0.7467346-10.3223267,11.3409119c-4.5206604,6.7537537,1.9493408,8.8219604-1.3578491,14.7883301c1.2363586,1.7035522,3.1981506,0.571106,3.5742493,3.3598328c0.986145,9.0575256,0.7044373,15.7854919-8.1912537,24.440094c-5.4146423,0.84375-7.3696594-1.7012329-7.5559387-8.6138c-10.127655,13.7205811,3.302124-9.019989-6.7762756,0.9045105c3.629303-8.6500854,2.6345825-10.828186-3.2085571-7.2876892c1.9438477-5.6034851,7.1106567-9.5192871,1.8093872-14.5698853c0.7222595-3.7009583,4.2241821-6.795929,3.8476257-11.297699C322.2054443,379.9721985,331.7016296,370.2096558,317.6897278,370.7937927z M272.9705505,352.5097046l-27.7896576-17.2045898c-2.4651642-1.4040833-4.0343323,0.203125-5.4666595,1.9126587c-9.4178314,14.6089172-39.2432404,32.6735229-62.6321411,8.95578c-11.0467682-9.5888672-11.8935394-12.9759827-16.7180481-7.379425c-13.8046265,18.6777649-35.0681763,26.5810242-49.5150528,17.1221924c-12.2183685-7.1932068-23.1069489-14.1421814-30.7497711-20.4951477c-1.6775742-1.3848877-2.645462-1.0314941-3.7480164,0.474762c-18.4212685,32.0195618-40.1552505,35.4066467-53.4577103,21.4905701c-7.1214685-6.9064636-13.5410538-14.5372314-20.2302685-21.8876038c-3.5363092-4.9894409-4.467732-9.2869873,3.004035-10.9384766c4.0967975-0.9055481,7.1929746-1.545166,9.3893185,1.9998779c6.6348438,8.8077087,13.8588028,17.1094055,22.1804905,24.3892822c13.2129898,11.7441101,12.6955147-0.440094,26.0417099-17.0389709c3.7775497-6.0759888,17.2319183-16.8959351,30.2949371-6.2123413c15.0688477,10.5799561,37.8377838,29.1149902,42.9617157,21.8618469c8.048172-8.3652039,11.2468567-14.6546936,16.3277893-18.3383789c15.053833-10.914032,23.2393646-6.8683167,35.7772369,6.4747925c7.3859406,6.182251,17.569809,13.8479004,26.2807312,10.7212219c4.7309875-1.6981506,7.8482971-7.9755249,14.5515289-17.2533264c2.6113281-4.8351746,14.9366608-11.5153198,24.4650879-5.804718l33.9212036,20.1793518C301.8021545,352.2971191,283.4552917,360.9530945,272.9705505,352.5097046z"/></svg>