<svg version="1.1" xmlns="http://www.w3.org/2000/svg" width="512px" height="512px"><path d="M458.9090271,205.2399902c-32.8510437,0-45.9914551,22.3387299-72.2723389,34.1650696c-26.2808533,11.826416-45.9914856,6.5702515-55.1897888-10.5123138s-1.3140259-32.851059,30.2230225-49.9336243c31.5369568-17.0825043,36.7931824,6.5702515,73.5863647-15.7684784c36.7931213-22.3387299,18.3965149-64.3880768,10.5123291-78.8425369c-7.8842773-14.4544525-43.3634338-36.7931862-78.8425293-9.1982956c-35.479187,27.5948868-21.0247192,68.3302155-31.5370483,89.3548584c-10.5122986,21.024704-38.1072083,27.5948792-51.2476501,21.024704c-13.1404114-6.5702515-14.4544373-32.8510437-9.1982727-55.1897888c5.256134-22.3387222,27.5948792-22.3387222,40.735321-61.760025c9.1982117-27.5948944-14.4545288-65.7021027-45.9914856-68.3302155c-31.5370331-2.6280437-56.5038757,15.7685509-60.4460144,43.3634415c-7.7293701,54.1059685,21.024704,48.6195259,32.85112,80.1565552c6.0158081,16.0421371,9.198288,43.3634415-7.8842773,56.5038681c-17.0825653,13.1403656-47.3055115-10.5123901-53.8757629-27.5948792c-6.5701752-17.0825806-1.3140106-68.3302231-19.7106171-82.7846756c-18.3965912-14.4545326-45.991478-26.2808723-77.5285034-2.6281204s-16.454422,77.3243103,0,86.7268066c36.7931824,21.0247192,68.0075684,15.1928558,82.1276245,22.9957123c19.1504059,10.5827179,26.937912,24.3097992,20.3676605,42.7063904c-11.6008911,32.4826508-32.8510437,17.0825806-49.9336243,18.3965912c-17.0824966,1.3140259-39.4212265-38.1072083-70.9582596-45.9914856c-15.508728-3.8771362-55.1897812,10.5123291-63.0740547,48.6196136c0.000072,42.7063751,16.3279667,61.8971405,63.4026146,64.2238007c25.8406982,1.2771912,49.7663193-39.5806885,76.6347046-39.9627075c14.5220337-0.1968689,32.0839081-6.2922058,39.4089813,12.7428284c12.2987823,31.9596863-7.7350616,38.4749146-20.7254028,49.6765442c-19.1674194,16.5281982-52.4551773,1.6087952-78.8015366,19.5907898c-21.0163536,14.3441467-39.809597,48.8568115-7.3574295,85.4268494c12.9537506,14.5974121,55.0167847,29.7514343,79.2853699-5.1116333c22.564682-32.4152527,9.8501587-63.3807068,28.697876-85.1409302c2.3986969-2.7694092,28.0530701-34.3146362,49.8127899-12.7447815c12.0770721,11.9717407,14.4598541,36.8854065,3.3416443,63.5902405c-7.0397491,16.908844-31.9606934,10.0393677-38.4431152,54.5090942c-0.9608154,6.5915833-7.5119781,54.6385803,44.0362701,63.821228c23.1714478,4.1277771,56.11026-11.2497559,64.1856689-42.5055847c12.3468628-47.7884521-28.1063232-62.0233154-37.1266479-83.1337585c-9.1602478-21.4379272-10.8869019-31.792511,10.7920227-55.434967c12.0526123-13.1442566,46.2640686,6.8112793,54.1986389,23.5080566c12.338501,25.9640808-3.3516541,50.8837891,18.3867188,79.5876465c14.649292,19.3430786,53.849823,35.3313904,85.8356628-0.2010193c15.0765076-16.7481079,26.7419434-42.4202881-2.8911133-75.8942871c-14.3189087-16.1750183-44.8328552-13.991394-79.2339172-23.5903625c-16.8978271-4.7149658-36.427002-29.2260132-29.856842-46.4728088c4.8449097-12.7178345,22.5289001-20.380188,46.9770203-14.9472046c35.479187,7.8841858,47.5665588,39.2707825,76.2144165,43.3633423c36.7932129,5.2561646,59.8089294-23.5938721,61.7600403-49.9335938C512.784729,230.2067566,491.7601013,205.2399902,458.9090271,205.2399902z M255.2324219,297.2229614c-22.497467,0-40.7353363-18.237854-40.7353363-40.735321c0-22.4975433,18.2378693-40.7353363,40.7353363-40.7353363c22.4975281,0,40.735321,18.237793,40.735321,40.7353363C295.9677429,278.9851074,277.72995,297.2229614,255.2324219,297.2229614z"/></svg>