<svg xmlns="http://www.w3.org/2000/svg" width="512" height="512"><path d="M305.7 342.36c-36.02 38.29-100.39 23.09-115.589-27.295-15.192-50.363 30.032-98.465 81.224-86.427 58.156-49.74 148.502-126.691 200.832-169.308 18.25-14.87 33.888 1.921 19.672 19.672-41.495 51.85-119.189 142.856-169.368 201.218 4.833 21.002.02 44.292-16.77 62.14zm127.047-86.388c0-15.088-16.445-24.568-29.53-17.025-13.085 7.544-13.085 26.506 0 34.05s29.53-1.938 29.53-17.025zM137.67 177.285c0-15.088-16.445-24.569-29.53-17.025s-13.085 26.505 0 34.05 29.53-1.938 29.53-17.025zm-19.671 78.687c0-15.088-16.445-24.568-29.53-17.025-13.086 7.544-13.086 26.506 0 34.05s29.53-1.938 29.53-17.025zm78.687-137.703c0-15.087-16.445-24.568-29.53-17.025-13.085 7.544-13.085 26.506 0 34.05 13.085 7.543 29.53-1.938 29.53-17.025zm157.374 0c0-15.087-16.445-24.568-29.53-17.025-13.085 7.544-13.085 26.506 0 34.05 13.085 7.543 29.53-1.938 29.53-17.025zm-78.687-19.672c0-15.087-16.445-24.568-29.53-17.024-13.085 7.544-13.085 26.505 0 34.049 13.085 7.544 29.53-1.937 29.53-17.025zm169.769 105.037c23.223 85.955-12.514 184.785-102.744 229.037-135.459 66.434-292.993-39.468-282.88-190.167C69.626 91.824 239.83 8.333 365.172 92.548l48.89-37.369C260.077-66.642 31.028 24.452 2.766 218.756-25.498 413.06 168.032 566.164 350.282 493.682c142.986-56.867 195.646-219.428 137.34-345.665l-42.481 55.617z"/></svg>