<svg version="1.1" xmlns="http://www.w3.org/2000/svg" width="512px" height="512px"><path d="M204.3941803,157.592453c-70.0648041,44.8039551-123.1915817,93.778656-161.083725,150.7853546l-38.3013-35.0036621c-7.0421009-11.3329773-7.6548548-23.6348877,4.6599464-35.0252686l140.4011688-130.4460754c20.5346069,7.0596313,43.8637848,22.4735489,65.1652679,38.2507095C215.1873779,149.4604492,209.6040802,153.9131165,204.3941803,157.592453z M81.9170532,343.0704346c49.2728577,45.2914124,91.8348389,85.8033142,127.5404968,119.0964355c25.4026642,23.6862488,24.1184692,35.5433655,56.0434265,34.1702576l62.7311707-58.8863525c-42.9099121,3.4328003-124.6178436-65.6627197-199.6370544-162.026062C104.3824158,299.6373901,85.8818283,323.9382629,81.9170532,343.0704346z M351.918396,225.3042755c17.055542-12.6406097,31.1128845-32.3734741,43.2531738-56.6410675c3.6892395-15.1084137,3.806366-28.604126-7.2088623-37.0741425L272.6209106,24.4859753c-10.3920288-11.4569073-20.9953613-11.5160694-34.4995575-2.3171329l-50.7194824,47.6299782C248.7524261,103.5171967,301.8613586,160.1653137,351.918396,225.3042755z M377.6643372,390.764801c43.2531738-30.8951111,90.6256714-79.6407471,119.4611206-107.1030884c28.8354797-27.4623108,6.8656006-42.5666046,6.8656006-42.5666046l-63.1633606-61.7902527c-12.3580627,54.9246674-84.4466858,115.3418121-170.9530029,176.4454803C269.8746948,355.7503357,334.4111633,421.6599426,377.6643372,390.764801z"/></svg>