<svg xmlns="http://www.w3.org/2000/svg" width="440" height="512"><path d="m188.1 318.863-4.04-19.052 176.073-121.468 17.315 102.649-189.348 37.87zm151.193 148.26c-2.721 27.2-50.315 44.877-50.315 44.877l-84.315-183.43 25.839-4.08c40.831 49.843 85.165 50.51 108.79 142.634zm-104.804 1.518c-35.834-7.263-63.108-9.73-83.65-9.73-23.054 0-37.62 3.113-46.232 6.055l25.603-58.769.093-.235c.097-.237 10.483-22.743 96.55-9.58l21.537 46.854-13.901 25.405zM80.649 223.858 31.276 126.47l53.036-53.036 24.478 108.112c-10.555 11.244-19.887 25.468-28.143 42.312zm225.327-76.99 133.269-111.51L339.293 0l-94.77 129.473c20.274 2.15 43.096 10.268 61.453 17.396zm-70.014-18.04L310.056 0h-96.552l-39.438 138.028c19.386-6.797 40.046-9.782 61.896-9.2zm-68.695 11.24 14.279-118.99-76.835 31.958 10.84 121.93c13.401-12.673 29.885-24.51 51.716-34.898zm-97.69 190.4L4.08 310.055l14.958 44.876h58.296a164.845 164.845 0 0 1-7.756-24.465zm11.112 32.175-49.412 7.247 23.458 34.678 39.6-18.029a164.983 164.983 0 0 1-13.646-23.896zM65.275 277.34 4.08 237.98 0 293.736l66.985 22.984c-1.661-12.666-2.19-25.81-1.71-39.38zm8.838-43.44L25.84 165.648 4.08 218.941l61.196 52.28 8.838-37.322zm47.339 171.971c8.036-25.69 61.777-23.832 101.328-18.352l-28.32-61.61-12.668 2.534-6.84-32.263 163.834-113.023C234.333 93 146.248 154.418 115 187.667c-41.667 44.333-72.667 138 6.452 218.205z"/></svg>