<svg xmlns="http://www.w3.org/2000/svg" width="480" height="512"><path d="M461.532 137.216 262.434 6.696a40.908 40.908 0 0 0-44.856 0L18.48 137.216A40.908 40.908 0 0 0 0 171.428v169.144a40.907 40.907 0 0 0 18.48 34.212l199.098 130.52a40.907 40.907 0 0 0 44.856 0l199.098-130.52A40.896 40.896 0 0 0 480 340.572V171.428a40.896 40.896 0 0 0-18.468-34.212zM398.01 328.007h-30v34.002c0 8.837-7.163 16-16 16H128.003c-8.837 0-16-7.163-16-16v-34.002h-30v-80h30v-56.002c0-8.837 7.163-16 16-16h125.455v-29.727h-39.452v-59.18h59.179v88.906h78.824c8.837 0 16 7.164 16 16v56.003h30v80zm-180.204-89.812-36.474 36.473-18.148-18.149-16.089 15.913 34.237 33.786 52.848-52.397-16.374-15.626zm106 0-36.474 36.473-18.148-18.149-16.089 15.913 34.237 33.786 52.848-52.397-16.374-15.626z"/></svg>