<svg version="1.1" xmlns="http://www.w3.org/2000/svg" width="512px" height="512px"><path d="M424.883728,251.4130554c-18.9278564,24.8609619-57.1165466,21.0127563-71.2570801-5.9491119l-51.0018616,28.3135223v154.4119873h83.3383179v7.0485229h-262.809845v-7.0485229h85.4478683v-68.6639099l-52.1526642-28.9523621c-16.2153625,24.1964111-52.9916306,24.672821-69.4552917-0.6872253c-17.4036636-26.8080444,0.8406906-62.5458374,32.7610092-64.1736755c30.646843-1.5628357,52.0111923,29.4300842,40.8210983,57.0721436l56.0670624,31.5718079v73.8332214h35.7613525V272.4263l-67.7765503-38.2119446c-19.4732208,22.0833435-56.3366394,17.3123322-69.0079422-10.3679047c-13.3035889-29.0615845,9.9625854-61.7530823,41.7786179-58.7034607c30.2620392,2.900589,46.8418579,36.0796356,32.4615173,61.6980743l62.5443573,35.811615V192.632843c-30.3144073-2.8929138-47.6647949-37.0826416-31.1981812-63.4234009c16.9423523-27.1019211,57.0886383-25.7428284,72.0897675,2.4404449c14.1402283,26.5658264-3.9720459,58.341156-32.8503723,60.9967194v235.5428467h34.1386719V268.6081238l55.7347107-31.3846436c-8.2235718-28.5702209,15.5751953-57.5027466,46.1459656-53.5757294C428.7598877,187.7963715,444.5864868,225.5342712,424.883728,251.4130554z M473.0629272,131.1320496v78.5462646H512v7.0485535h-38.9370728v78.5462646H512v7.0485535h-38.9370728v78.5467529H512v7.0485535h-38.9370728v85.5845032h-85.1469116V512h-7.0485535v-38.4985046h-78.5457764V512h-7.0485535v-38.4985046h-78.5462646V512h-7.0485535v-38.4985046h-78.5462646V512h-7.0485458v-38.4985046H40.0811958v-85.5845032H0v-7.0485535h40.0811958v-78.5467529H0v-7.0485535h40.0811958V216.727356H0v-7.0485382h40.0811958v-78.5462799H0v-7.0485458h40.0811958V40.5197601h84.0023041V0h7.0485458v40.5197601h78.5462646V0h7.0485535v40.5197601h78.5462646V0h7.0485535v40.5197601h78.5457764V0h7.0485535v40.5197601h85.1469116v83.5637436H512v7.0485458H473.0629272z M466.0143738,47.5683022H47.129734v418.8846436h418.8846436V47.5683022z"/></svg>