<svg xmlns="http://www.w3.org/2000/svg" width="243" height="512"><path d="M18.929 506.894c-25.239-14.55-25.239-51.123 0-65.673 25.238-14.55 56.957 3.736 56.957 32.836 0 29.1-31.72 47.387-56.957 32.837zM80.92 26.877l12.745 3.414c-7.13 17.685-47.44 115.814-81.717 160.221C33.04 265.127 45.994 425.48 45.994 425.48l48.867-182.375c-12.8-6.849-16.388-24.72-5.616-35.924 12.161-12.65 33.579-7.39 38.46 9.446 4.41 15.215-7.65 29.661-22.592 29.213l-48.87 182.385s93.098-139.937 146.964-186.46c-5.05-58.315 7.087-160.938 9.396-179.603l12.694 3.398c17.465 4.679 24.516-21.643 7.052-26.321L87.976.556C70.504-4.128 63.448 22.194 80.92 26.877z"/></svg>