<svg version="1.1" xmlns="http://www.w3.org/2000/svg" width="512px" height="512px"><path d="M193.0860138,88.4981384c6.3163757,5.5073853,9.8758545,8.9439011,13.1519318,9.4384155c-11.2366791-15.347702-23.0688477-33.0328751-35.2720337-44.1197205c-29.7272949-27.0079613-65.5935974-34.1855392-107.8187103-13.5244446c-5.4965935,2.4686012-9.6274033,8.5194817-9.8829689,11.3649216c-0.3028908,3.3723183,0.6033401,8.504879,0.6033401,8.504879c-12.6510086,25.318203-37.393425,29.699688-44.3522644,32.27705c-8.1719942,3.0266266-12.1345615,11.5172653-7.6259098,19.1559067c1.0361369-2.7076263,2.9670699-5.2831879,5.997509-6.906189c15.7353973,5.0887527,38.4743004-2.3499908,56.9020691-3.0261993c9.153183,10.3115921,36.9340897,11.5686951,47.5508728,20.9083099c1.320694,2.7264709,2.2216721,5.3200836,1.693428,7.4614182c-4.9568405,7.346817-12.463562,8.4162598-19.7895279,9.8425446c-19.8608856,3.866745-38.3490028,18.3505096-49.9158287,34.6247253c-30.4406986,42.8293915,14.3266678,95.2400818,77.5986938,150.1200867c46.4736633,50.9057617,83.9828949,82.5358887,126.3569641,102.7543945c0.382019,5.421936,1.6425018,9.4157104,1.3578796,13.5299988c1.0971375,10.4949341-15.3371277,2.158783-31.0784912-5.4330139c-5.8087006-2.6379395-11.9632263-4.2471313-16.862381,1.7654114c9.122467-0.6658325,10.3300781,0.210907,8.5735016,6.2352295c-5.6773529,1.0303955-11.5971832-1.6006165-17.6266327,5.5250244c-2.4964294,0.5350037-7.8930511,1.2058716-17.978714,0.8770142c-5.2887115-0.1723938-8.0710754,4.6505737-9.4277954,7.3449707c0,0,4.2223053-1.5004578,6.0730286-2.3361816c1.8506622-0.8358154,8.4774017-1.8507385,8.059494,0.7163391c-0.4179077,2.5671387-1.1940155,5.9700317,8.8356171,5.1342163c0,0,0.8955231,4.4178162,3.4028931,6.9252319c-4.4178162,1.1342773-17.4921265-5.0744934-21.0741119,3.8805237c0,0,17.7245178,2.5623169,39.649765,7.8243408c21.9252472,5.2621155,39.0270081,5.9198303,41.8772583,0.6578064c2.8502502-5.2620544,4.6043243-8.1123657,4.6043243-8.1123657s5.2620239-2.4117737,7.0160217,0.2192383c1.7540588,2.631073,6.1390686,4.3850708,6.1390686,6.7968445s2.1925354,3.2888184,2.1925354,3.2888184s3.5080566-4.6043091,2.631012-8.1123657c-0.8769531-3.5080566-5.2620239-8.331604-5.2620239-12.4973755c0-1.9041138,3.7078552-10.9419861,9.4278564-20.3905029c6.3838501-10.5449829,13.1381226-14.1091614,13.402832-25.9052734c9.6002808-0.3529053,93.6143799-3.3738403,101.0926819-1.3053894c7.9327087,2.1941223,22.4476929,13.5023804,36.9626465,14.6838074c7.7655945,3.4466858,10.2353516,10.1980286,18.3970032,14.6838074c22.1100159,12.1520996,46.4486389,27.3676758,62.1107178,14.6837769c9.2546082-7.4947815-37.136261-54.535675-37.9274902-55.2098694c-2.9105225-2.4802551-0.3787842-5.4174805-1.6219177-7.7061157c-12.7734375-16.5590515-27.9449768-23.0212097-37.9411621-37.6929932c-12.5849915-18.4714966-14.9490662-33.9418335-41.4612427-53.4884033c-72.3242188-71.9441376-153.381897-123.2810669-244.9587555-125.0764771c19.6889648-16.4779968,25.265686-29.1736755,24.6688995-50.4198456c2.0320587,10.4686279,4.789032,27.513916,2.6654663,33.9729919c0,0,3.1528625-10.1428528,4.1663361-22.2746735c1.4143524,5.7043915,2.324173,12.4299011,2.1457977,20.1706085c1.0141144-7.3271179,1.5371094-14.6702728,1.3331299-22.0370178c2.2484894,5.1651459,3.84935,12.5708008,2.2462006,22.4660034c-3.5705566,22.0388947,1.8468475-0.7387848,1.8468475-0.7387848s1.4919434-3.7476349,2.3208466-9.2715759c0.8382721,3.5033722,2.0594025,9.7222137,1.0866394,12.9647675c0,0,1.0634613-4.0205383,1.5975342-9.1547546c1.2918549,3.8417206,2.1579437,7.5995789,2.0220032,10.5558624c0,0,0.4849396-7.5533295-0.2355652-16.1840973c2.0975952,4.503479,4.6797638,11.0721741,4.6797638,16.1193542c0,0,0.4494171-7.7486877-0.8243713-16.1212921c3.0883331,3.8235321,6.3148499,7.3475494,8.5391846,8.537323c0,0-5.3000793-9.706604-8.6088104-17.0821228c3.6774292,3.7826691,6.6861572,6.8813782,7.6934509,7.9289398c2.3231506,2.4160309-3.2761536-6.7882843-6.8059235-13.8200684c10.2937469,11.4439697,14.9737396,11.3885193,14.9737396,11.3885193s-5.8485413-7.1694489-11.5782623-15.6561279c4.8997955,4.3065186,9.6050415,6.6667328,9.6050415,6.6667328s-3.9777527-4.2724457-8.8620911-9.8121185c3.2276764,1.4638214,6.0518951,2.2839661,8.3687286,2.2943878c0,0-5.1669464-4.5534592-10.4172668-10.4951553c4.4700623,2.5008011,7.2929382,2.7200546,13.4712982,2.2492218c-7.1471405-2.207756-14.3951416-6.8794479-15.5802307-8.6643448s-3.8877106-7.9695206-3.8877106-7.9695206c8.2734222,12.9617462,15.8574677,14.2028046,13.9269562,12.1344147c-1.9304199-2.0683899-10.7554626-11.7207489-9.5144653-11.7207489c1.2410583,0,7.7219238,5.2398834,5.9293213,3.4472656c-1.7925415-1.7926102-6.3429871-9.6523666-6.3429871-10.2039871c0-0.5515518,9.5144806,8.9629288,10.7555389,9.928215c1.2409821,0.96521,4.2745972,0.5515518,1.2409821-1.241066C206.4615021,105.0451431,193.0868835,88.4991455,193.0860138,88.4981384z"/></svg>