<svg xmlns="http://www.w3.org/2000/svg" width="512" height="512"><path d="M398.91 233.786c-15.987-15.82-20.362-62.94 0-83.807l6.059-7.069 6.058 6.059c19.522 15.482 30.629 32.984 33.321 52.506 27.156-8.257 47.103-2.855 67.652 10.097-13.323 27.837-33.854 45.294-79.769 43.418-41.57 103.546-130.928 165.596-263.539 166.605-70.007 0-120.157-25.243-150.45-77.749C1.41 312.915-2.153 290.63 1.079 247.922h44.428v-53.515H98.01V141.9h105.012V90.405h62.603v104.002h52.506v53.515c35.99 1.044 58.347-1.18 80.778-14.136zM92.963 206.523h3.029v38.37h-3.03v-38.37zm-7.068 0h4.039v38.37h-4.04v-38.37zm-7.068 0h4.039v38.37h-4.04v-38.37zm-7.068 0h4.038v38.37H71.76v-38.37zm-6.059 0h3.03v38.37H65.7v-38.37zm-7.068 0h3.03v38.37h-3.03v-38.37zm-4.039-3.029v45.438h45.438v-45.438H54.593zm90.876-48.467h3.029v37.36h-3.03v-37.36zm-7.068 0h3.029v37.36h-3.03v-37.36zm-7.069 0h4.04v37.36h-4.04v-37.36zm-7.068 0h4.04v37.36h-4.04v-37.36zm-7.068 0h4.04v37.36h-4.04v-37.36zm-6.058 0h3.03v37.36h-3.03v-37.36zm-4.039-4.039v45.438h45.438v-45.438h-45.438zm38.37 55.535h3.029v38.37h-3.03v-38.37zm-7.068 0h3.029v38.37h-3.03v-38.37zm-7.069 0h4.04v38.37h-4.04v-38.37zm-7.068 0h4.04v38.37h-4.04v-38.37zm-7.068 0h4.04v38.37h-4.04v-38.37zm-6.058 0h3.03v38.37h-3.03v-38.37zm-4.039-3.029v45.438h45.438v-45.438h-45.438zm89.866 3.03h4.039v38.369h-4.04v-38.37zm-6.059 0h3.03v38.369h-3.03v-38.37zm-7.068 0h3.03v38.369h-3.03v-38.37zm-7.068 0h4.04v38.369h-4.04v-38.37zm-7.068 0h4.04v38.369h-4.04v-38.37zm-7.068 0h4.039v38.369h-4.039v-38.37zm-3.03-3.03v45.438h45.439v-45.438h-45.438zm37.36-48.467h4.04v37.36h-4.04v-37.36zm-6.058 0h3.03v37.36h-3.03v-37.36zm-7.068 0h3.03v37.36h-3.03v-37.36zm-7.068 0h4.04v37.36h-4.04v-37.36zm-7.068 0h4.04v37.36h-4.04v-37.36zm-7.068 0h4.039v37.36h-4.039v-37.36zm-3.03-4.039v45.438h45.439v-45.438h-45.438zm89.867 55.535h4.039v38.37h-4.04v-38.37zm-7.068 0h4.038v38.37h-4.038v-38.37zm-6.059 0h3.03v38.37h-3.03v-38.37zm-7.068 0h3.03v38.37h-3.03v-38.37zm-7.068 0h4.039v38.37h-4.039v-38.37zm-7.068 0h4.039v38.37h-4.04v-38.37zm-3.03-3.029v45.438h44.429v-45.438H212.11zm37.36-48.467h4.04v37.36h-4.04v-37.36zm-7.067 0h4.038v37.36h-4.038v-37.36zm-6.059 0h3.03v37.36h-3.03v-37.36zm-7.068 0h3.03v37.36h-3.03v-37.36zm-7.068 0h4.039v37.36h-4.039v-37.36zm-7.068 0h4.039v37.36h-4.04v-37.36zm-3.03-4.039v45.438h44.429v-45.438H212.11zm37.36-48.467h4.04v37.36h-4.04v-37.36zm-7.067 0h4.038v37.36h-4.038v-37.36zm-6.059 0h3.03v37.36h-3.03v-37.36zm-7.068 0h3.03v37.36h-3.03v-37.36zm-7.068 0h4.039v37.36h-4.039v-37.36zm-7.068 0h4.039v37.36h-4.04v-37.36zm-3.03-4.039v45.438h44.429V98.482H212.11zm89.867 108.041h3.029v38.37h-3.03v-38.37zm-7.069 0h4.04v38.37h-4.04v-38.37zm-7.068 0h4.04v38.37h-4.04v-38.37zm-6.058 0h3.03v38.37h-3.03v-38.37zm-7.068 0h3.03v38.37h-3.03v-38.37zm-7.068 0h4.039v38.37h-4.04v-38.37zm-4.04-3.029v45.438h45.439v-45.438h-45.438zM149.509 321.632c-3.366 0-6.227 1.347-8.583 4.04-2.356 2.692-3.534 5.721-3.534 9.087 0 3.366 1.178 6.226 3.534 8.582 2.356 2.357 5.217 3.535 8.583 3.535s6.226-1.178 8.582-3.535 3.534-5.216 3.534-8.582c0-2.693-.505-4.88-1.514-6.563-1.01-1.683-2.525-3.198-4.544-4.544s-4.039-2.02-6.058-2.02zm0 4.04c1.346 0 2.356.336 3.029 1.009-1.347.673-2.02 1.683-2.02 3.03 0 2.019 1.347 3.028 4.04 3.028 1.346 0 2.355-.673 3.028-2.02.674 1.347 1.01 2.693 1.01 4.04 0 6.058-3.03 9.087-9.087 9.087s-9.088-3.029-9.088-9.087c0-6.059 3.03-9.088 9.088-9.088zm33.32 86.836c-27.599-13.463-46.783-32.311-57.554-56.545-11.443 3.366-25.243 5.385-41.399 6.058H40.457c33.658 32.985 76.403 49.814 128.235 50.487h14.137z"/></svg>