<svg xmlns="http://www.w3.org/2000/svg" width="512" height="512"><path d="M62.676 231.304c10.728-6.185 10.728-21.731 0-27.916-10.728-6.185-24.211 1.588-24.211 13.958s13.483 20.143 24.21 13.958zm324.275-87.08v53.88H405.8v38.487H105.525c-13.644 36.372-61.335 47.605-89.612 19.328-29.583-29.583-15.928-80.419 24.52-91.284 28.708-7.712 55.746 8.787 65.153 33.469h189v-53.88h30.665v30.858h30.858v-30.858zm62.373 136.472c-10.728 6.185-10.728 21.731 0 27.916 10.728 6.185 24.211-1.588 24.211-13.958s-13.483-20.143-24.21-13.958zm-324.275 87.08v-53.88H106.2v-38.487h300.274c13.644-36.372 61.335-47.605 89.612-19.328 29.583 29.583 15.928 80.419-24.52 91.284-28.708 7.712-55.746-8.787-65.153-33.469h-189v53.88H186.75v-30.858h-30.86v30.858z"/></svg>