<svg version="1.1" xmlns="http://www.w3.org/2000/svg" width="511.9989929px" height="511.9989929px"><path d="M359.9943542,130.2920227h-159.769043c-9.8956451,0-9.8956451,15.0104828,0,15.0104828h159.7680359C370.019043,145.3032074,370.02005,130.2927246,359.9943542,130.2920227z M165.3022156,130.2920227h-25.3068085c-10.0613556,0-10.0613556,15.0104828,0,15.0104828h25.3068085C175.2723236,145.3025055,175.2723236,130.2920227,165.3022156,130.2920227z M218.4968872,360.3442993h-78.5014801c-10.0582886,0-10.0582886,15.0104675,0,15.0104675h78.5014801C228.590271,375.3547668,228.590271,360.3442993,218.4968872,360.3442993z M249.9948883,283.6608887H139.9954071c-9.8006744,0-9.8006744,15.0104675,0,15.0104675h109.9994812C259.9902344,298.6713562,259.9902344,283.6608887,249.9948883,283.6608887z M303.5395813,206.9754486H139.9954071c-10.124649,0-10.124649,15.0104828,0,15.0104828h163.5441742C313.6783447,221.9859314,313.6783447,206.9754486,303.5395813,206.9754486z M395.7524719,105.8502731v64.0950089c0,10.0323334,15.0104675,10.0323334,15.0104675,0v-56.5897827l77.2054443,0.0000153c4.8778381-0.1375427,7.65802-4.0945892,7.5042419-7.5792465c-0.29599-29.8009567-21.7116699-52.2726555-49.8945923-52.2726555H135.3982544c-27.4748688,0-49.8265686,22.3527031-49.8265686,49.8275719v295.313324H7.5042367C3.3335991,398.7599487,0.105903,401.9273987,0,406.2237549c0.2960093,29.8009338,21.7116852,52.272644,49.8145714,52.272644h311.1248169c27.4748535,0,49.8265686-22.3526917,49.8265686-49.8275452v-90.9458618c-0.0007019-9.9744568-15.0121765-9.9734802-15.0114746,0.0009766v90.9458618c-2.0263367,45.7559814-69.0242004,47.705658-70.5642395-2.5940857c-0.0409851-4.1161194-3.3890991-7.4312439-7.505249-7.4312439H100.586174V103.3301849c0-19.1986008,15.6184921-34.8160934,34.8151016-34.8160934l274.5666809-0.0000153C400.6004944,78.3038254,395.3867493,90.8038406,395.7524719,105.8502731z M324.6111755,443.4859619l-274.7976074-0.0000305c-17.2245483,0-30.8559742-12.3854065-34.0810776-29.8299561h294.9703064C312.5219421,425.7397766,317.0945435,435.7313538,324.6111755,443.4859619z M269.2974854,368.9816284c-2.1195374,10.1915588,11.5087585,13.3544312,14.4494629,4.0671387l11.7643738-41.7833252c48.9479675-22.0710754,66.9950256-10.4428406,127.8460388-54.4884644c23.6932068-17.1497803,51.2965393-42.7241821,85.9327087-79.0997772c5.3237-4.7319794,2.2806091-12.9088287-4.5861816-13.290451c-62.7999878-1.6250458-144.6885681,13.4924316-186.0888672,60.7539368C297.3101196,268.8136292,284.5586243,312.5325623,269.2974854,368.9816284z M439.368866,203.8693542c-45.140686,22.1597595-88.3594055,51.5866547-130.650116,87.9307861C324.032196,246.5001068,365.4396362,216.2579651,439.368866,203.8693542z M312.8338318,308.4646301c51.7627563-45.6169128,108.4356689-84.2523804,166.7362671-104.7953186c-25.3716125,25.2479858-47.3720093,48.1203918-69.9926147,64.2214966C366.9715881,298.2172852,342.7848206,298.4033508,312.8338318,308.4646301z M479.7471924,98.3430481h-68.6142273C417.8103027,59.0474472,472.5095825,58.1404419,479.7471924,98.3430481z"/></svg>