<svg xmlns="http://www.w3.org/2000/svg" width="512" height="512"><path d="m104.4 464.857-6.884 18.589-18.633-5.363-.63-10.574c-2.92-2.11-6.6-3.832-8.957-6.658-5.839-7-10.857-14.68-16.63-21.74-3.56-4.353-6.858-9.157-14.045-8.808-2.554.125-5.738-3.084-7.866-5.46-10.598-11.835-18.703-24.643-13.534-41.338L4.188 372.744l8.751-17.326L0 353.54c4.45-4.983 8.432-9.445 13.132-14.71L1.55 334.902c3.144-1.668 4.596-2.628 6.182-3.246 8.124-3.167 8.731-6.186 2.455-13.736 11.394-6.973.518-16.33 2.449-24.557.905-3.857-.735-8.312-1.383-13.888l19.673 2.958c-2.502-3.851-3.408-6.625-5.32-7.956-10.047-6.995-15.967-22.023-12.661-33.215 4.907-16.613 10.834-21.427 28.068-20.168 6.383.466 11.403-.847 12.81-6.32 1.955-7.612 8.068-8.893 13.082-8.833 8.518.1 18.938-7.18 24.839 3.798 5.607-1.23 10.834-3.652 15.846-3.268 29.147 2.235 52.91 16.73 74.986 34.525 2.108 1.699 4.223 4.722 4.39 7.258.663 10.073 3.372 21.255.067 30.051-4.875 12.972-7.133 25.944-7.86 42.115l-4.5-8.243-17.48 20.408 10.843 4.924-10.278 11.544 17.393 4.357c-2.994 11.762-4.946 12.315-20.493 3.17l12.843 23.748c6.036-1.596 12.159-6.82 20.59-2.85-3.281 8.305-16.347 11.975-9.666 24.154l12.622-3.016-8.586 7.077c3.73 7.764 11.498 9.744 18.591 11.228 8.473 1.773 16.221 3.41 18.07 15.736 13.519-13.844 29.417-12.449 43.897-14.856 14.263-2.37 28.082-9.617 43.192-5.446 7.036-10.126 18.55-2.378 27.607-6.494 3.407-1.548 10.855 5.35 16.041 8.995.428.3-1.89 7.176-3.746 7.625-11.23 2.714-14.048 9.814-11.093 19.846l-22.706 3.421 3.724 11.52c-13.137-.91-26.342-3.273-40.238 1.894l7.07 7.21c-1.402.712-2.7 1.666-2.939 1.45-6.464-5.869-14.012-5.934-22.358-6.366-8.945-.463-17.778-1.566-26.802-.659-4.991.502-8.83 1.4-12.433 5.766-5.705 6.914-12.865 11.198-22.484 5.503-2.39-1.414-6.327-.211-10.908-.211-5.387-14.935-21.428-3.72-31.84-11.926-5.074 5.662-9.704 10.794-14.292 15.963-4.24 4.775-9.205 5.002-13.731.434-1.741-1.756-3.032-3.996-4.895-5.584-1.78-1.517-4.04-2.473-6.763-4.073l-.568 10.123-8.455-11.935zm22.318-11.692c-1.2 1.266-2.402 2.531-3.603 3.796l5.892 4.236 2.671-3.039-4.96-4.993zM502.44 122.794c3.07-1.78 5.14-2.98 8.4-4.872.35 3.462 1.901 7.072.731 9.148-7.701 13.66-19.219 24.108-30.431 34.818-8.161 7.796-17.687 12.7-28.537 15.296-.938.224-2.21-.016-2.814.528-11.856 10.684-26.838 4.445-40.184 6.918-7.217 1.338-15.586-2.754-23.278-4.95-10.62-3.032-21.13-6.473-31.601-9.994-2.688-.904-6.679-2.263-7.306-4.274-4.625-14.833-18.076-16.96-29.762-21.769-1.256-.517-2.18-1.839-3.928-3.377 7.44-9.71 16.892-17.12 28.044-20.695 6.237-1.998 8.556-5.246 10.33-10.45 11.254-.036 20.463-4.605 29.477-10.71 12.26-8.304 25.201-15.6 36.028-22.215 33.566 8.862 63.901 18.42 84.831 46.598zm-67.81-12.841c-17.78-11.861-29.185-12.255-40.707-.13-5.808 6.113-9.892 14.132-13.612 21.84-1.728 3.58-2.02 8.972-.614 12.642 1.52 3.964 5.27 8.119 9.08 9.697 1.769.733 6.198-4.22 8.989-7.026 1.22-1.226 1.2-3.603 2.013-5.33 4.608-9.8 9.296-19.562 13.53-28.44 8.041-.699 14.953 4.55 21.321-3.253zm-346.413 6.959c3.707-6.798 8.3-12.085 9.353-18.002 1.13-6.34-2.518-13.51-1.466-19.887 1.443-8.746 5.35-17.085 8.5-26.493-8.993-.58-10.287 10.2-19.215 12.713.323-4.075-.37-8.184 1.054-11.334 15.906-35.173 59.556-29.5 75.505-8.694 3.496 4.561 7.75 8.542 11.372 12.482-2.423 37.001-27.273 54.696-56.906 67.96-3.652 1.635-9.072.343-13.335-.826-2.295-.63-3.556-4.404-5.865-5.794-2.124-1.279-5.027-1.264-8.997-2.125zm23.109-55.706c8.577 2.601 10.396-1.347 10.739-8.342-6.854-2.088-9.108 1.359-10.739 8.342zm42.813-.865c-4.342-3.488-7.938-3.326-10.585 1.212-.539.923.614 4.036 1.688 4.493 5.224 2.223 7.682-.511 8.897-5.705zm-70.51 47.483c6.188-10.284-3.23-18.823-2.65-28.48-7.223 10.399 2.185 18.94 2.65 28.48z"/></svg>