<svg xmlns="http://www.w3.org/2000/svg" width="512" height="512"><path d="m306.062 212.468-18.418 67.977h-76.013l18.083-67.977h76.348zM512 58.098l-83.045 310.08H65.967l-58.6 85.724-7.367-.67L106.15 58.098H512zm-280.947 62.954h206.273l8.037-31.812H239.424l-8.371 31.812zm-58.6-.335c8.371 0 17.078-7.032 19.422-15.404 2.343-8.706-2.68-15.403-11.386-15.403-19.75 1.108-29.4 29.227-8.036 30.807zm-41.188 0c21.987-1.247 27.145-30.698 8.037-30.807-8.372 0-17.078 7.032-19.422 15.403-2.01 8.372 3.013 15.404 11.385 15.404zm315.437 91.751 15.739-59.27h-64.293l-16.073 59.27h-76.013l15.738-59.27h-76.013l-16.073 59.27h-76.348l15.738-59.27h-64.293l-15.738 59.27h64.293l-18.083 67.977H70.99l-17.413 64.293h64.294l17.412-64.293h76.348l-17.413 64.293h76.348l17.078-64.293h76.348l-17.413 64.293h64.628l17.413-64.293h-64.628l18.083-67.977h64.627z"/></svg>