<svg version="1.1" xmlns="http://www.w3.org/2000/svg" width="512px" height="512px"><path d="M306.0615234,212.4682922l-18.4172668,67.9764099H211.631134l18.082489-67.9764099H306.0615234z M512,58.098217L428.9549255,368.177887H65.9673309L7.3669462,453.9017944L0,453.2322388L106.1504517,58.098217H512z M231.0529327,121.0517273H437.326416l8.0367126-31.8116302H239.4244232L231.0529327,121.0517273z M172.4527588,120.7167511c8.3714905,0,17.0777435-7.0319672,19.4217987-15.40345c2.3438568-8.7062607-2.678833-15.40345-11.3852997-15.40345C160.7396393,91.017807,151.0891266,119.1372833,172.4527588,120.7167511z M131.2648926,120.7167511c21.9872131-1.2465286,27.145401-30.6973495,8.0367126-30.8069c-8.3714905,0-17.0779495,7.0319672-19.4217987,15.40345C117.8705292,113.6847839,122.8934174,120.7167511,131.2648926,120.7167511z M446.7024231,212.4682922l15.7384338-59.2701416h-64.2930298l-16.0732117,59.2701416h-76.013092l15.7384033-59.2701416h-76.013092l-16.0732117,59.2701416h-76.3478851l15.7382202-59.2701416h-64.2928238l-15.7384262,59.2701416h64.2930298l-18.082489,67.9764099H70.9902191l-17.4127274,64.2930298h64.2930374l17.4127197-64.2930298h76.3478851l-17.4127197,64.2930298h76.3480835l17.0777588-64.2930298h76.3478699l-17.4127197,64.2930298h64.6280212l17.4127197-64.2930298h-64.6280212l18.082489-67.9764099H446.7024231z"/></svg>