<svg xmlns="http://www.w3.org/2000/svg" width="512" height="512"><path fill-rule="evenodd" d="M296 103.5c35.935 15.629 18.213 51.61-17 56.5h-75v-16h16V64h-16V48h65c5.5 0 20.96-1.006 37.5 14.5 16 15 8.5 34.5-10.5 41zM252 96h21c7 0 13-8 13-15 0-6.79-4-17-13-17h-21v32zm0 16h21c9 0 13 10.21 13 17 0 7-6 15-13 15h-21v-32zM115 310H48v-16h16v-86H48v-16h67c27 9 42.894 38.654 44.76 57 2.135 20.985-21.76 56-44.76 61zm18-61c0 29-18 45-25 45H96v-86h12c9 0 25 21 25 41zm71 104 43 47-43 46v18h32v-14l24-33 24 32v15h32v-17l-43-47 43-46v-18h-32v14l-24 33-24-33v-14h-32v17zm166-68c6 7 15 19 28 19h38c21.908-10.556 29.075-23.461 26-38 0 0-9-12-33-24-21.78-10.89-32-18.362-32-24 0-7 11.4-12 18-12 12 0 14.78 3.03 23 10v8h24v-14c-9-8-18.667-18-28-18h-34c-17 0-30 19-30 29 0 7 0 16 31 32 25.087 12.948 31 13 33 24 1.073 5.903-2 13-17 13-16 0-23-12-23-12v-6h-24v13zm-134-51.23c0-33.35 48-33.35 48 0v33.971c0 32.75-48 32.75-48 0V233.77zm-32 33.416S211.552 310 260 310s56-42.814 56-42.814V233.77S311 192 260 192c-48 0-56 41.77-56 41.77v33.416zM512 0H0v512h512V0z" clip-rule="evenodd"/></svg>