<svg version="1.1" xmlns="http://www.w3.org/2000/svg" width="512px" height="512px"><path fill-rule="evenodd" clip-rule="evenodd" d="M296,103.5c35.9348755,15.6288605,18.212616,51.6093597-17,56.5h-75v-16h16V64h-16V48c0,0,53.5,0,65,0c5.5,0,20.9602356-1.0060196,37.5,14.5C322.5,77.5,315,97,296,103.5z M252,96h21c7,0,13-8,13-15c0-6.7891998-4-17-13-17h-21V96z M252,112h21c9,0,13,10.2108002,13,17c0,7-6,15-13,15h-21V112z M115,310H48v-16h16v-86H48v-16h67c27,9,42.8941956,38.6535339,44.7602386,57C161.8946381,269.9850159,138,304.9991455,115,310z M133,249c0,29-18,45-25,45H96v-86h12C117,208,133,229,133,249z M204,353l43,47l-43,46v18h32v-14l24-33l24,32v15h32v-17l-43-47l43-46v-18h-32v14l-24,33l-24-33v-14h-32V353z M370,285c6,7,15,19,28,19h38c21.9082642-10.5555725,29.074646-23.4614563,26-38c0,0-9-12-33-24c-21.7807312-10.8903656-32-18.3619232-32-24c0-7,11.3992615-12,18-12c12,0,14.7797852,3.029068,23,10v8h24v-14c-9-8-18.6666565-18-28-18c0,0-17,0-34,0s-30,19-30,29c0,7,0,16,31,32c25.0868225,12.9480286,31,13,33,24c1.0733032,5.9032288-2,13-17,13c-16,0-23-12-23-12v-6h-24V285z M236,233.7699127c0-33.3497314,48-33.3497314,48,0v33.9713287c0,32.7494202-48,32.7494202-48,0V233.7699127z M204,267.1858521c0,0,7.5517426,42.8141479,56,42.8141479s56-42.8141479,56-42.8141479v-33.4159393c0,0-5-41.7699127-56-41.7699127c-48,0-56,41.7699127-56,41.7699127V267.1858521z M512,0H0v512h512V0z"/></svg>