<svg version="1.1" xmlns="http://www.w3.org/2000/svg" width="512px" height="512px"><path d="M141.1036987,55.6944962C254.5143433-47.0627975,410.0809326-1.1856863,453.3560486,140.4552917c104.084137,106.5803986,64.632843,273.5843201-78.9024658,312.1882324c-113.5971985,104.5289612-266.5523376,67.2304993-318.9674683-82.2431335C-51.1161575,241.1611786,5.9622302,106.8866653,141.1036987,55.6944962z M55.4861221,370.4003906c44.2077713,48.0217896,98.6747208,67.0440063,143.815155,74.1307373c46.9625854,19.3862,111.1140747,34.6882324,175.1523132,8.1123962c53.5185547-51.2366333,67.1759644-107.3400879,68.8298035-146.3032532c19.5857239-41.8422546,32.736145-121.6862793,10.0726624-165.8849792c-30.7775574-38.3241806-98.7686462-71.375618-148.8514709-73.0117645c-40.677063-19.9845047-89.534729-32.4496765-163.4008789-11.7490311C91.8596039,98.7742462,67.2375565,168.7088928,65.6901093,208.1219788C44.8538742,258.2252197,38.1387711,314.7324219,55.4861221,370.4003906z M118.2003555,248.7378387v29.1007538c6.430336,9.3945007,19.5506668,6.3902893,24.0623856-2.6312866v-24.0574493C142.2627411,239.8729401,118.451004,239.4970398,118.2003555,248.7378387z M193.6461487,248.7378387v29.1007538c0,11.0889893,24.0623779,9.0215454,24.0623779,0v-26.688736C217.7085266,239.8729401,193.8968048,239.4970398,193.6461487,248.7378387z M299.8796692,72.2594604C158.7014313,38.3256035,33.2648163,170.5646973,74.6356506,309.7184753c41.3707733,139.1538391,218.8017578,181.8013916,318.6091919,76.5814209S441.0579224,106.1932602,299.8796692,72.2594604z M161.7728271,299.1394348h-18.7581329v-7.7685242c-3.4777832,6.954071-8.170639,7.7685242-16.9174881,7.7685242c-15.792366,0-25.9597015-4.390625-25.9436722-13.0310974V242.880127c0.5639648-21.4262085,39.1013947-19.7346497,41.7332306-10.525177v-32.327179h19.8860626V299.1394348z M234.6791229,281.9421082c-1.4304657,11.6842041-11.0055695,17.1973267-22.7872162,17.1973267c-28.2719269,0-34.9668732-7.0845642-34.9453278-15.7250671v-40.5343018c0.379837-10.7130737,8.2479858-16.360672,27.8113861-16.360672c20.6858673,0,29.9211578,4.0030975,29.9211578,16.6113434V281.9421082z M276.3350525,299.1394348H257.931366v-74.3650665h-22.3012238v-14.9732666h61.6588898v14.9732666h-20.9539795V299.1394348z M291.5561218,275.3952637h19.3313904v23.7441711h-19.3313904V275.3952637z M344.8193054,297.5107422c0,11.6529846-8.9921265,23.1802063-19.5194092,23.1802063l-17.8588257-0.2506104v-16.1871033c17.6914673-0.0161438,18.0375671-0.1314697,18.3914795-6.640686c-0.1008606-4.53302,0-70.927475,0-70.927475h18.9867554C344.8193054,226.6850739,344.8193054,285.8577271,344.8193054,297.5107422z M344.8193054,216.6925964H325.83255v-16.9469299h18.9867554V216.6925964z M396.4218445,299.1394348h-37.3468933l-0.5013123-13.7828979h27.070282c11.7805176-3.0071411,3.2583923-9.5227356-13.0338745-18.5442505c-15.6433411-8.6622925-15.5402527-14.0335236-15.5402527-24.8092499c0-10.7757874,8.4594116-15.2865143,14.9763489-15.2865143c6.5168762,0,35.1536255,0,35.1536255,0v15.7877045h-28.0727844c-14.3823853,8.1063843,33.0858154,18.043045,32.4278564,38.8427582C411.0619812,296.9267578,396.4218445,299.1394348,396.4218445,299.1394348z"/></svg>