<svg version="1.1" xmlns="http://www.w3.org/2000/svg" width="438px" height="512px"><path d="M174.1078796,411.7803955c6.467392,7.3231506,9.3847656,16.0079956,9.4637756,17.3072205c3.3966827,2.3970947-1.0307312-12.1150513,0.8150787-14.3059998c51.1542053-60.8074646,131.8792877-34.4104309,145.4468536-96.1719666c17.2592163-78.5532837-82.2926178-71.4289703-142.8675842-102.1767426c-12.1773529,75.8685455-25.6850891,117.4463043-71.8269272,163.6912994C115.1390762,380.1242065,159.1499481,394.8424988,174.1078796,411.7803955z M199.8121185,282.9958191c23.6162872,6.7406921,76.2400055,23.7841187,77.0070953,58.7388c-37.6586151,9.8952637-67.6536255,17.8991699-99.283493,47.5585632c-7.2391663-2.6200867-26.7684784-9.3631287-44.2696838-12.4505005C168.9158478,356.1676025,190.571167,316.9796448,199.8121185,282.9958191z M326.4125977,165.7844849C194.636322,136.834549,159.5977783,112.3888474,92.1119614,2.3063624c-2.5618515-4.0271244-8.8671417-2.5419528-8.8836746,2.603256c-0.3457184,25.7294102,16.1102524,72.0043945,31.7135544,120.05336C79.8424301,98.238678,48.7436714,65.4545975,32.5102272,26.6059055c-1.6445007-3.9735756-8.6899567-4.45961-9.2168121,1.8169975C22.9337921,80.7804947,46.3152542,131.6183777,91.2202148,176.74646c-31.193573-19.9104462-59.9157104-41.5132446-83.0550308-64.4774399c-3.8243418-3.6569672-9.3913565,0.3327026-7.9247661,4.9308701c24.5195904,72.9694366,92.8749237,119.3538666,139.9386444,143.638916c-0.3717651,39.7284546-10.4098053,81.1090088-36.5358505,118.2289124c-4.1213455,62.5039062-11.126709,79.4195862-15.0784912,88.5003052c-7.6685791,17.7971802-6.231102,39.9581604,17.8363953,44.2304993c8.8086166,1.5635986,39.9158554-5.1335144,22.2309036-50.0664062c-4.1128693-9.1073914-10.1142731-22.4148254-14.3969955-65.8798218c17.7910385,22.2262268,53.1631699,67.9342651,46.8729477,96.5716858c-1.1071167,4.908783,5.4799652,8.443573,8.864502,3.3726807c46.5706787-87.0779114,231.5499268-11.3804016,262.3418579-161.6129761C449.1235046,255.9620819,423.7695312,186.7427979,326.4125977,165.7844849z M409.2015076,325.386322c-27.9360352,127.1522217-187.0870972,69.0918579-240.6122284,134.2740784c-23.3669739-58.9114685-60.641983-79.5361938-60.641983-79.5361938c38.7509613-39.6612854,49.7764282-103.4951172,44.1634674-173.265686C112.4946899,176.4620361,60.3486633,128.81073,48.4307175,81.2371216c24.7621689,34.8372192,65.1102219,67.0982513,99.619133,90.8598175c-1.5612488-10.3111877-3.4151154-20.6806183-5.5651093-31.0602875c52.0964203,69.3148193,127.1858826,81.5856628,167.7353821,90.4908447C221.491272,204.8204498,150.8204803,160.3738708,114.262825,63.1464424c50.9356155,80.8905487,102.6070328,98.9644012,192.2058411,118.6435394C393.4021606,200.8948669,423.8069763,258.8929138,409.2015076,325.386322z"/></svg>