<svg version="1.1" xmlns="http://www.w3.org/2000/svg" width="512px" height="512px"><path d="M233.105423,323.671814c-30.3886261-17.5210876-30.3886414-61.561676-0.0000153-79.0827789s68.580658,4.4991913,68.580658,39.5413971S263.4940491,341.1929016,233.105423,323.671814z M309.2550049,225.5614624c0-12.3661346-13.4776611-20.1369171-24.2015991-13.9538574c-10.7239075,6.1830597-10.7239075,21.7246552,0.0000305,27.9077148C295.7773438,245.6983795,309.2550049,237.927597,309.2550049,225.5614624z M440.2024231,125H314.125061v166.4872437c-0.0000916,32.7532959-29.4232483,51.8997803-58.6459961,51.6766052c-28.8271179-0.2201538-57.4592743-19.3666687-57.459198-51.6766052v-55.9211426c0-46.1179657-16.4086151-71.0641479-38.0636749-88.8922424C140.1856232,130.3971558,117.3680725,125,71.9424362,125H0v261.6481934h108.2698593c26.2248459-0.5669556,44.3733749-12.6052856,58.8081589-27.1253052c-11.7211304-11.0106506-20.5936127-24.4103699-25.6158752-38.4500732c-9.3835449,12.1843872-19.8063354,21.9570312-35.3292236,23.7532043H43.302021V170.1466064H91.174614c41.2964859-2.173996,63.4838791,28.8807373,63.4838791,54.7635345v70.4061127C154.658493,339.1270752,197.3075409,387,252.8639374,387c66.2471771,0,105.4237823-52.5330505,105.4237823-100.618103V172.4321594l79.0654907-0.0000763c37.516571,0,37.516571,58.4145203,0,58.4145203h-62.2670288v42.7422638h54.9065552c43.4504089,0,49.1488647,62.4512939,10.2096863,69.8124084h-83.7547913c-7.9816895,15.8540955-20.179657,29.9261169-34.9324036,43.2469177h122.5751648c31.2225952,0,67.8171082-28.7620239,67.8171082-81.9572449c0-20.0111084-10.5916748-39.2574158-21.3690491-51.7608795C538.0252686,202.5891571,500.2406616,127.106842,440.2024231,125z"/></svg>