<svg xmlns="http://www.w3.org/2000/svg" width="512" height="512"><path d="M233.105 323.672c-30.388-17.521-30.388-61.562 0-79.083s68.581 4.5 68.581 39.541-38.192 57.063-68.58 39.542zm76.15-98.11c0-12.367-13.478-20.137-24.202-13.954-10.724 6.183-10.724 21.724 0 27.907s24.202-1.587 24.202-13.954zM440.202 125H314.125v166.487c0 32.754-29.423 51.9-58.646 51.677-28.827-.22-57.46-19.367-57.46-51.677v-55.92c0-46.119-16.408-71.065-38.063-88.893C140.186 130.397 117.368 125 71.942 125H0v261.648h108.27c26.225-.567 44.373-12.605 58.808-27.125-11.721-11.01-20.594-24.41-25.616-38.45-9.383 12.184-19.806 21.957-35.33 23.753h-62.83v-174.68h47.873c41.296-2.173 63.483 28.881 63.483 54.764v70.406c0 43.811 42.65 91.684 98.206 91.684 66.247 0 105.424-52.533 105.424-100.618v-113.95h79.065c37.517 0 37.517 58.415 0 58.415h-62.267v42.742h54.907c43.45 0 49.149 62.451 10.21 69.812h-83.755c-7.982 15.854-20.18 29.926-34.933 43.247H444.09c31.223 0 67.818-28.762 67.818-81.957 0-20.011-10.592-39.257-21.37-51.76 47.487-50.342 9.703-125.824-50.336-127.931z"/></svg>