<svg version="1.1" xmlns="http://www.w3.org/2000/svg" width="512px" height="512px"><path d="M306.8123779,183.3756256l-50.8139954,110.0996857l-48.8356018-105.7232056c-15.2547913-42.9919586-52.8665161-81.8040466-116.0793228-82.9332275H0v243.3529663h91.0834579c44.3730392,0,77.8813553-19.758606,103.6521683-57.3059692l53.2668762,114.8994446c2.7148438,5.9647827,12.7011719,5.9400635,15.2964478,0l53.4654236-114.5931091c44.4045105,71.9750061,139.8464661,79.5098877,192.7120056,26.754303c3.2446899-3.2447205,3.3605347-6.3735657,0.3475952-9.3865051l-27.1164856-28.8547058c-2.781189-3.0128784-5.7941589-3.1287842-9.0387878-0.3475952c-69.2387695,47.7811279-121.6828308-12.6700745-113.9881897-64.1906433c8.558136-57.3023834,69.053833-81.0083008,113.9881897-43.5800018c2.7811279,2.7812042,5.6781921,2.7812042,8.6911316,0l27.1164856-28.1593781c3.244751-3.2447052,3.1288452-6.4894104-0.3476562-9.7341003C466.9642334,89.7559662,352.0542297,78.4947815,306.8123779,183.3756256z M54.2328873,296.7200317V155.9229736c69.4559555-6.0154419,98.950325,20.8736267,101.1652145,70.2247009C153.111145,255.1335449,145.3547211,303.7052917,54.2328873,296.7200317z"/></svg>