<svg version="1.1" xmlns="http://www.w3.org/2000/svg" width="355px" height="512px"><path d="M261.5188904,261.7302551v-44.5205231h28.1533813l61.9823608-50.3412476c1.8382568-1.3499451,2.9248047-3.4945679,2.9248047-5.7756195V10.914443c0-3.9013867-3.1217041-7.0860705-7.0220947-7.1635385L159.2501678,0.0019543c-2.5844269-0.060475-4.9849396,1.2864681-6.3018951,3.502552l-49.3252945,83.0129929c-2.2246628,3.0546646-0.5419998,9.9147568,2.3597107,42.1252747c-19.5333481-0.0631866-21.889946-0.8724594-25.0351486,2.6044312L3.1561954,208.0154724C0.0648855,210.5894928,0,213.1151733,0,213.1151733L5.1176348,370.74646l50.1555176,0.0001831V512h184.2444763l57.1677399-39.4299011c1.9981689-1.3284302,3.1996765-3.568512,3.1996765-5.9675293V305.6431274c0-3.9573669-3.2076721-7.1650391-7.1650391-7.1650391h-61.5065155C253.3992462,272.9306335,261.5238953,267.3649292,261.5188904,261.7302551z M163.1355591,14.4119978l167.7163696,3.338933l-60.8995056,64.3465881H122.907692L163.1355591,14.4119978z M18.3900852,213.1151733l70.4576874-69.5310669l17.9199066,0.4359436l3.7786255,69.0951233H18.3900852z M239.5176239,493.3548279V366.1405945l46.0373383-39.7336121v136.354187L239.5176239,493.3548279z M279.3805847,312.8081665l-57.6432495,49.7496033h-52.8477936l49.5579681-49.7496033H279.3805847z M247.1893158,259.0018921l-67.4757843,75.7430725l2.4831543-117.5352325h64.99263V259.0018921z M290.0187378,194.3421783l1.7006836-112.2446594l48.5299377-53.4292259v128.7960815L290.0187378,194.3421783z"/></svg>