<svg xmlns="http://www.w3.org/2000/svg" width="355" height="512"><path d="M261.519 261.73v-44.52h28.153l61.983-50.342a7.166 7.166 0 0 0 2.924-5.775V10.914a7.165 7.165 0 0 0-7.022-7.163L159.25.002a7.139 7.139 0 0 0-6.302 3.503l-49.325 83.012c-2.225 3.055-.542 9.915 2.36 42.126-19.534-.063-21.89-.873-25.035 2.604L3.156 208.015C.065 210.59 0 213.115 0 213.115l5.118 157.631h50.155V512h184.245l57.167-39.43a7.167 7.167 0 0 0 3.2-5.967v-160.96a7.165 7.165 0 0 0-7.165-7.165h-61.507c22.186-25.547 30.31-31.113 30.306-36.748zM163.136 14.412l167.716 3.339-60.9 64.347H122.908l40.228-67.686zM18.39 213.115l70.458-69.53 17.92.435 3.778 69.095H18.39zm221.128 280.24V366.14l46.037-39.734V462.76l-46.037 30.594zm39.863-180.547-57.644 49.75H168.89l49.558-49.75h60.933zm-32.192-53.806-67.475 75.743 2.483-117.535h64.992v41.792zm42.83-64.66 1.7-112.244 48.53-53.43v128.796l-50.23 36.878z"/></svg>