<svg xmlns="http://www.w3.org/2000/svg" width="512" height="512"><path d="m507.812 244.213-60.734-60.734a14.3 14.3 0 0 0-10.112-4.189h-.036a14.301 14.301 0 0 0-10.128 4.24l-50.8 51.32-40.317-39.967 50.254-49.744a14.304 14.304 0 0 0 .004-20.323L324.81 64.255c-5.573-5.521-14.555-5.522-20.129 0L254.28 114.19l-49.117-48.687c-5.557-5.507-14.508-5.527-20.09-.045l-60.027 58.968a14.3 14.3 0 0 0-.09 20.314l49.015 49.015-40.345 39.97-48.832-48.833c-5.585-5.584-14.64-5.585-20.224 0l-60.38 60.38c-5.585 5.585-5.585 14.64 0 20.225l58.615 58.616c5.566 5.566 14.585 5.588 20.177.046l50.55-50.08 40.537 40.536-51.538 51.015a14.3 14.3 0 0 0 .035 20.361l62.852 61.793a14.255 14.255 0 0 0 10.025 4.103c3.685 0 7.368-1.415 10.164-4.24l50.489-51.006 49.622 49.623c5.584 5.584 14.64 5.584 20.224 0l60.38-60.381c5.586-5.585 5.586-14.64 0-20.224l-50.031-50.032 39.905-40.315 51.056 50.61a14.302 14.302 0 0 0 10.068 4.144h.093a14.303 14.303 0 0 0 10.107-4.276l60.38-61.44c5.502-5.6 5.463-14.586-.087-20.136zM314.746 94.545l40.808 40.426-40.183 39.776-40.779-40.421 40.154-39.781zm-19.704 100.323-39.957 39.552-40.572-40.572 39.76-39.392 40.769 40.412zm-139.66-60.15 39.667-38.968 38.91 38.57-39.671 39.304-38.907-38.907zm-82.42 159.103-38.438-38.438 40.156-40.156 38.626 38.625-40.344 39.969zm80.887-39.874 40.344-39.97 40.563 40.564-40.362 39.951-40.545-40.545zm41.456 163.448-42.352-41.638 41.339-40.92 41.577 41.578-40.564 40.98zm60.685-61.307-41.37-41.371 40.36-39.952 40.963 40.962-39.953 40.36zm99.995 19.68-40.157 40.157-39.613-39.612 39.952-40.362 39.818 39.818zM316.064 295.4l-40.756-40.756 40.047-39.64 40.526 40.17-39.817 40.226zm121.121.096-40.87-40.513 40.702-41.117 40.545 40.545-40.377 41.085z"/></svg>