<svg version="1.1" xmlns="http://www.w3.org/2000/svg" width="512px" height="512px"><path d="M507.811615,244.2127686l-60.7335205-60.7340546c-2.6824341-2.6824188-6.3196716-4.1886292-10.1120911-4.1886292c-0.0124207,0-0.0238037,0-0.0361938,0c-3.8058777,0.0098267-7.4503784,1.5356903-10.1276245,4.2403564l-50.7993774,51.3186951l-40.3179932-39.9662628l50.2542114-49.7436981c2.7124329-2.6855164,4.2393188-6.3439789,4.2403564-10.1607056c0.0010376-3.8172455-1.5248108-7.4762192-4.2362061-10.1627731l-61.132843-60.5607758c-5.5737915-5.5210419-14.5552063-5.5215569-20.1289978,0.0005188l-50.4021454,49.9340363l-49.1173096-48.6874847c-5.5567322-5.5070763-14.5075989-5.5267296-20.0891571-0.0449982l-60.027504,58.9681854c-2.7217255,2.673111-4.2620773,6.3232803-4.2791443,10.1379471s1.4912109,7.4782867,4.1886292,10.175705l49.0149002,49.0148926l-40.3443756,39.9693756l-48.8317871-48.8318024c-5.5851822-5.5846558-14.6400223-5.5856934-20.2241669,0L4.1884975,245.2715607c-5.5846634,5.5846558-5.5846634,14.6389923,0,20.2241669l58.6154251,58.6159363c5.5665588,5.5665588,14.5846786,5.5882874,20.1771011,0.0465698l50.5505905-50.0804138l40.5362549,40.5362549l-51.538002,51.0145569c-2.7196579,2.6917114-4.2470703,6.3620605-4.2403488,10.1875916c0.0067215,3.8265686,1.5460358,7.4917297,4.2750092,10.1741638l62.8526764,61.7928467c2.784317,2.7372437,6.4055176,4.1027527,10.025177,4.1027527c3.684845,0,7.3681183-1.4151611,10.1638184-4.2403564l50.4885254-51.005249l49.6221313,49.6221619c5.584137,5.584137,14.6400146,5.584137,20.2241516,0l60.3807983-60.3807983c5.5851746-5.5851746,5.5851746-14.6389771,0-20.2241516l-50.0317993-50.0317993l39.9052124-40.3148804l51.0559387,50.6100769c2.6793213,2.6555176,6.2979431,4.1441345,10.0675964,4.1441345c0.0310364,0,0.0620728,0,0.0931091,0c3.8038025-0.0248108,7.44104-1.5641479,10.1069031-4.2765503l60.3807983-61.440094C513.4009399,258.7498474,513.3616333,249.7632904,507.811615,244.2127686z M314.7458191,94.5446243l40.8083496,40.4265976l-40.1835022,39.7759247l-40.7783508-40.4214325L314.7458191,94.5446243z M295.0420227,194.8683777l-39.9574738,39.5519562l-40.5719604-40.5719452l39.7609253-39.3921356L295.0420227,194.8683777z M155.3814697,134.7172699l39.6672974-38.9674759l38.911087,38.5702286l-39.6719513,39.3036804L155.3814697,134.7172699z M72.9630737,293.8219604l-38.4383278-38.438324l40.1566124-40.1560822l38.6255722,38.6255646L72.9630737,293.8219604z M153.8499146,253.9477844l40.3438568-39.9698944l40.5636749,40.5636749l-40.3619537,39.9517822L153.8499146,253.9477844z M195.3058319,417.3962708l-42.3522949-41.63797l41.3390198-40.9200745l41.5774689,41.5780029L195.3058319,417.3962708z M255.991272,356.088623l-41.3710938-41.3710938l40.3614349-39.9517822l40.9624786,40.9624634L255.991272,356.088623z M355.9855347,375.7696838l-40.1565857,40.1565857l-39.6124878-39.6124573l39.9517822-40.3614502L355.9855347,375.7696838z M316.0647888,295.4006042l-40.7555542-40.7555847l40.046936-39.6403961l40.5259399,40.1710815L316.0647888,295.4006042z M437.1863403,295.4967957l-40.8703918-40.5124664l40.7017822-41.1176453l40.5455627,40.545578L437.1863403,295.4967957z"/></svg>