<svg xmlns="http://www.w3.org/2000/svg" width="512" height="512"><path d="m404.16 238.206 6.014-37.68c50.33-3.96 52.182 41.551-6.013 37.68zM512 256c0 196.338-214.007 319.716-384.289 221.547-170.281-98.17-170.281-344.925 0-443.094C297.992-63.716 512 59.662 512 256zM291.884 136.238h54.33l6.863-43.042h-54.331l-6.862 43.042zM171.033 280.179l-52.391-4.762c-2.417 12.286-9.71 30.19-26.85 31.326-23.922 0-26.174-27.299-21.651-54.184 5.967-35.475 15.862-53.349 31.398-53.044 27.216.533 23.31 27.614 22.924 33.73l56.624-3.793s2.117-79.455-83.084-75.75C17.036 162.167 8.04 242.076 8.04 262.186s.529 93.139 79.908 93.139c69.855 0 83.085-75.147 83.085-75.147zm148.522 22.368h-72.493l22.745-142.672h-58.785l-30.588 191.873H311.71l7.844-49.201zm2.475-14.606 22.385-140.414h-54.33l-22.386 140.414h54.331zm117.835-130.548h-78.383l-30.743 194.355h54.96l11.421-71.569h42.04c83.686.487 84.392-122.3.705-122.786z"/></svg>