<svg xmlns="http://www.w3.org/2000/svg" width="512" height="512"><path d="M41 0h430c22.644 0 41 18.356 41 41v430c0 22.644-18.356 41-41 41H41c-22.644 0-41-18.356-41-41V41C0 18.356 18.356 0 41 0zm292.085 174.674c-.909-15.974-.972-32.988-.37-50.16H170.802c12.03 21.781 10.845 24.801 12.167 62.273v129.396c-.69 48.102-2.93 56.094-12.167 71.303h165.603c.915-19.388 2.523-40.337 4.795-62.7-13.647 19.917-19.548 30.613-65.282 30.613h-39.465v-83.724h34.301c39.382-.676 45.53 11.003 53.849 16.966-1.54-21.77-1.593-43.531 0-65.282-16.255 14.68-26.684 15.844-53.849 16.597h-34.3v-83.355h43.152c25.511.3 40.126 4.473 53.48 18.073z"/></svg>