<svg xmlns="http://www.w3.org/2000/svg" width="512" height="512"><path d="M246.883 263.451c3.233-129.277 86.573-185.777 115.453-157.554 28.88 28.277 18.195 89.107-36.333 127.14-54.528 38.004-79.12 30.414-79.12 30.414zm259.746 173.94L512 312.39c-151.24 109.162-256.87 97.959-252.307 34.991 0 0 270.446-94.094 196.738-279.872-33.155-47.787-71.626-62.803-126.153-61.707-94.457 1.22-180.696 100.26-198.82 262.007 0 0-47.35 9.81-72.997-11.92s-38.854 0-38.854 0-44.006 57.022-.165 74.394c43.787 17.372 112.18 25.483 112.18 25.483 39.621 144.293 146.941 210.511 375.007 81.627z"/></svg>