<svg xmlns="http://www.w3.org/2000/svg" width="512" height="512"><path d="M160.763 115.81c-34.287 26.285-55.58 76.19-49.808 129.99 36.528 19.048 53.235 56.295 45.235 96.295C216 383.62 292.952 384.762 348.571 344c-6.095-45.714 11.934-83.665 48-98.286 3.757-42.567-8.584-80.603-27.047-105.904-41.143-56.381-144.381-75.81-208.761-24zm138.63 137.622-26.654-.099-17.882 21.927-19.5-21.927-34.982-.051c-43.352-.071-70.38-46.126-49.027-84.113 19.51-36.598 81.223-43.264 103.51 8.156 22.095-52.11 88.42-47.442 107.092-.64 15.6 40.955-18.307 80.962-62.557 76.747zM127.711 34.453c-170.281 98.17-170.281 344.925 0 443.094S512 452.338 512 256 297.993-63.716 127.711 34.453zm242.956 347.261c-6.437-5.83-12.01-14.106-17.143-25.904-12.068 8.688-24.457 15.85-39.238 21.714v35.428c-1.143 20.476-35.429 19.048-38.857 7.62v25.523c0 24.762-40.381 20.762-40.381 1.143v-26.667c-5.334 10.477-36.572 13.715-39.62-7.619v-35.047c-13.76-5.812-29.758-12.908-42.666-23.62-4.091 9.336-10.94 19.607-17.905 28.572-32.142-29.584-52.104-71.904-37.333-138.286-6.832-55.837 19.434-110.265 48.38-132.19V56l48.763 27.429c35.633-13.094 79.047-13.715 119.238.38L360 56.763l1.143 54.095c43.047 41.524 51.428 83.81 48 140.572 10.345 50.5-.762 96.761-38.476 130.285z"/></svg>