<svg version="1.1" xmlns="http://www.w3.org/2000/svg" width="512px" height="512px"><path d="M336.7044983,268.3668213c0,0,6.5574036,1.6029053,6.7759705,3.2786865c0.2185974,1.6757812,3.9878235,5.0332031,5.8287964,2.8415527c0.7650452-0.9107361,1.3271484,0.0502319,1.3271484,0.0502319c0.7289734,3.1233826,4.8766479,5.1174622,7.8266907-0.7224426c0.1493225-0.2955933,1.4902954-1.3370972,2.1394958-0.5299683c2.2276001,2.7694397,3.6282959,2.7227478,5.4463806,1.0115967c3.8531494-6.7430115,12.9229736-11.2737732,12.9229736-11.2737732c4.3306885,1.6535339,10.9865417-3.6246033,10.5516052-9.858963c-0.2796631-4.0084991-1.8160095-5.8943939-11.4215088-5.3644257c8.9890442-4.3495636,10.8366394-10.4967957,10.8366394-10.4967957s0.124054-12.3640747,2.250946-12.8491516c5.3459778-1.2192535,8.159668-3.095047,8.159668-3.095047s-0.6578064-1.4624329,0.7503052-2.5323181c1.2276306-0.9327393,4.4118652-1.4046021,6.002533-2.4385223c1.8757935-1.2192688,1.969574,1.8757935,3.7515869,0.9378967c0.7825928-0.4118958-0.0120544-2.5432281,0.8440857-2.7198944c16.8434448-3.4756317,24.666626-21.2902069,26.2610474-23.541153s14.7249451-4.7832642,14.7249451-4.7832642c10.3930969,5.5298615,17.2572632,11.5361023,32.6199036,12.6373901c7.3380127,0.5260468,9.5848389-1.0456238,14.1594238,3.1368408c4.574585,4.1824799,4.8986511,0.6154785,4.8986511,0.6154785c0.1260071-2.0917664-0.6601868-4.2884827-0.9847717-6.2604523c-0.1947632-1.1831665,0.4800415-2.3731079-0.3517151-3.16539c-2.039917,3.235733-2.3158569,0.3113403-3.5345764-0.7867279c-0.6444397-0.5806274-1.8138428-0.1184387-1.7267151-2.4710846c-1.969574,1.195816-3.4996338,1.7912903-4.7272949,0.2331085c-1.8288879-2.3212891-4.4932861-3.0601044-5.9087219-3.0950623c-2.8309021-0.0698853-7.2452393-2.3916168-8.1874084-3.3693085c-2.1248779-2.2049866-7.7936707-5.1724854-11.8827515-6.6753082c-4.0890503-1.5028076-3.9633789-2.7107391-3.9633789-2.7107391s-0.8830261-3.393631,3.5065918-4.521347c1.3405457-0.3443909,6.1827393,0.9469147,11.697052,0.9469147c6.7397461,4.8459167,4.2063904,1.7422028,7.5752258,1.8937988c0.2785339,0.0125427,1.2370605,2.6052704,1.8381348,1.6153107c0.9468994-1.5596008,2.4653625-0.6377258,2.7850037,0.2228088c0.3499756,0.942276,2.5621948-2.1723175,1.7526855,0.87677c0.7235413-0.2704773,1.3060913-1.019104,1.601593-2.5333405c0.9374695,0.6083374,1.4459229,1.7007446,1.078186,3.5786896c1.4336853-0.4069061,2.898407-1.6055145,4.295929-4.1172333c1.0335388,0.6953735,1.7642212,1.811203,1.9865112,3.5292206c0.8437195-0.5897369,1.4703674-1.5662384,1.7741699-3.0657654c0.4851074,0.7497711,0.6380615,1.7887268,0.335022,3.2012634c0.7520142-0.4584198,1.2268982-1.2397919,1.3103333-2.4563904c0.8286438,0.9205475,1.1179504,2.2755127,0.6087646,4.2319641c1.1977844-0.5079346,2.1185608-1.5809174,2.6352844-3.4679871c0.1670837,1.6710052,0.6071777,2.9391479,0.4455872,4.2889252c3.0078125-5.0687256,3.9547119-3.2306213,3.9547119-3.2306213c1.9666443-5.6541138-0.2887878-11.9836578-4.1218262-15.3175659c-2.0164795-1.753891-5.2562866-2.0845947-7.5195312-3.1192017c-6.5652466-3.0012665-7.6969299-6.932251-12.0112305-4.118576c-4.3143311,2.8136902-5.2696838-2.2601624-5.2696838-2.2601624c-8.8162231-8.6286163-16.694519-6.3776703-20.2585144-6.3776703c-3.5640259,0-14.0684204-1.5006409-14.0684204-1.5006409c-8.6286316-0.3751526-9.7116089,3.8920288-20.2585144,12.0050507c-9.7541199,7.5031586-15.905304,17.2297058-16.694519,20.0709381c-1.8757935,6.7528381-0.9494019,10.3312073-17.2572632,14.0684204c-18.0075684,4.1267395-30.0126343-13.1305237-46.5195618-11.6298981c-12.3802185,1.125473-17.2572632,1.8757935-34.5145264,0.7503204c-6.2071228-0.4048157-9.7374878,2.8422089-15.9442139,2.4385223c-23.0722046-1.5006256-39.3915405,11.6298981-54.9606018,18.3827362c-4.8536835,2.1052094-9.3491364,5.091629-16.1317749,5.6273651c-6.6943359,0.5287628-13.8178406-0.6691437-21.9467316-2.6260986c-10.1292572-2.4385376-21.9951477-2.8054657-32.6387329-5.8149414c-5.8413239-1.6516266-11.7929077-5.1797638-17.8199921-7.6907501c-6.7773438-2.8235321-13.885849-3.3869324-21.5246735-5.345993c-7.487999-1.9203796-15.1782913-7.1773529-22.7439423-9.09758c-3.8809738-0.9850159-7.7862473-1.2747803-11.6298904-2.250946c-11.8174667-3.0012512-20.3808289-5.6204987-31.3256683-6.3776703C36.3072624,163.116272,18.1766262,167.2363434,0,180.7552032c0,0,0.5172398,2.0927124,14.1490517-3.5657654c13.631813-5.658493,48.8687592-6.9445038,66.8730469,2.3148346s25.0476303,9.4497986,45.3061523,19.5790558c0,0,22.078598,12.5332184,49.2394562,27.0113525c10.360199,5.5225372,20.7671661,7.7621765,30.1063995,11.8174744c15.4043274,6.6888733,23.6061096,11.6416321,26.0706482,12.6808929s5.4426117,1.2468414,8.5376587,4.9046326c3.0950623,3.6577759,4.3143158,1.0316772,5.5335846,2.5323181c2.1438751,2.6386108,4.4550018,2.250946,5.0177307,4.5018921c0.5627441,2.250946,4.8301544,15.2407837,4.8301544,17.6324158c0,0-13.0367279,2.0633545-14.7249451,6.5652466c-1.5151825,4.0404968-0.3861237,13.6716919-10.377594,23.7402344c-1.9135132,1.9282837-4.6017914,3.0622253-7.2548218,3.6463013c-2.7235107,0.5995789-6.205719,2.5656433-4.1665649,6.9352417c0.632431,1.3551941,2.4614563,3.2044983,2.6659393,5.4449463c1.1456451,12.552063,0.7503204,23.7287292,0.7503204,23.7287292s0.5627289,2.5323181,0.5627289,7.2218018c0,4.6894531,2.7198944,11.9112549,14.9125214,10.223053c8.8003387-1.2185364,6.002533-2.1571655,10.6920013-1.8757935s11.1216888,2.0515137,13.0482635,3.2556152s1.6551514-1.4940491,0.8325806-2.4115295c-2.4385376-2.7198792-3.2348633-4.9193726-3.1888428-6.6590271c0.0512695-1.938446,6.7059326,0.187561,9.7540894,2.297821c0,0,3.1419373-3.6577759-7.1748962-11.3954163c-3.3319397-2.4989624-4.7707214,1.1146545-6.9873047-1.3130493c-1.969574-2.1571655-4.4586029-0.3512268-5.7211609-0.6565247c-1.2625427-0.3052979-0.0490723-6.824646,1.4001465-6.9041443c1.4492188-0.0794678,6.033783,0.5441589,2.1996155-4.0519104c-0.7833557-0.9390259,0.151825-3.8626709,2.1682892-3.7219849s6.1284027,3.2598572,6.6121674,6.8935242c0,0,0.4865112-0.3353882,0.518158-0.9075623c0.1489868-2.6941833-1.8224182-11.0802002-10.9745941-12.7979431c-2.7811432-0.5220032-3.1766052-0.1802979-5.0916595,3.4403076c-1.6256256-2.8624878-3.0274658-2.3050232-3.0274658-2.3050232s-2.2482605,6.3939819-1.7545624,15.1029663c-1.1849518,1.2418518-3.7318726-1.0735168-3.7318726-1.0735168c-5.8014984-7.3054504-5.4411469-16.265564-0.4051819-22.9223022l0.1157684-3.2415466c0,0,6.4624939-5.5627136,15.6289825-11.3105164c7.5113373-4.7099609,12.9203949-4.8474121,24.0100861-15.3814697c11.2312927-10.6685486,13.5994873-15.3345947,17.2103882-22.837738c10.410614,0.7034302,15.7566223-0.3282776,22.2280884-2.6730042c-3.2357483,13.7870483-18.2889404,14.3497925-18.8047791,20.1647339c-0.4329529,4.8803711,5.1584167,5.2521973,5.1584167,5.2521973s8.0658875-1.3130493,16.0379944,3.2826233c7.9721069,4.5957031,11.9112549,6.9404297,12.2864075,11.1609497c0,0,1.487793,3.1663818,0.5158386,4.9473877c-0.4880066,0.8942566-1.5475159,4.0095215,0,6.6825256c1.5475464,2.6729736-1.969574-1.2661743-2.9543457,6.8935242c0,0-3.1654053-1.1958313-3.9391785-4.2908936c-1.3364868,0.140686-2.3212891,1.8992615-0.7737427,5.7680664c1.5475159,3.8688049,5.9087219,8.9334412,11.2547302,3.3060608c0,0,0.5627136-0.4923706,1.4068298,0.7034302c0.8441162,1.1958313,4.079834,2.8840332,6.190094,0.7034302s6.0494385-0.8441162,4.9942932-9.0037842c2.4694214-2.2901001,2.5471191-4.9350891,0.140686-7.9486694c0,0-1.1254578-1.4771729,0.6330872-1.5475159s4.5722351-3.3764343,4.7129211-7.5969543c0,0,4.4315491,1.1958313,5.9087219,5.4163513c1.4772034,4.22052,1.4068604,5.2756653,2.3212891,5.2756653c0.9144592,0,2.6730042-2.250946,1.6178589-6.4011536c-1.0551147-4.150177-6.119751-11.0437012-13.5056763-10.9030151c0,0-3.7281189-0.2110291-4.4315491-0.7737732c-1.35672-1.0853577-3.367218,0.3609314-3.8688049-0.1406555c-1.1254883-1.1254883-3.6577759-3.7281494-3.7984619-6.2604675s-24.760437-5.1349792-24.760437-5.1349792s-4.9301758-3.045929,0.8619995-4.3027344C324.8263855,277.0358276,336.7044983,268.3668213,336.7044983,268.3668213z"/></svg>