<svg xmlns="http://www.w3.org/2000/svg" width="512" height="512"><path d="M127.711 477.547c-170.281-98.17-170.281-344.925 0-443.094S512 59.662 512 256 297.993 575.716 127.711 477.547zm93.493-169.959v-61.53h61.78c17.01 0 17.01-29.825 0-29.825h-61.78V141.67h134.213c19.79 0 19.79-29.825 0-29.825H206.291c-8.236 0-14.912 6.676-14.912 14.912v180.831C123 328 137 423 206.29 425.01 275 425 290 327 221.204 307.588zm-29.859 83.583c-19.839-11.438-19.839-40.186 0-51.623s44.772 2.937 44.772 25.811c0 22.875-24.933 37.249-44.772 25.812z"/></svg>