<svg xmlns="http://www.w3.org/2000/svg" width="340" height="512"><path d="M83.299 0h82.964v165.93H83.3C-26.11 161.653-27.215 4.492 83.299 0zm0 338.957h82.964v-165.93H83.3c-110.514 4.492-109.409 161.653 0 165.93zM256.326 0H173.36v165.93h82.966c110.882-5.934 109.5-162.543 0-165.93zm-90.063 429.02v-82.966H83.3c-67.702 0-110.514 79.376-63.429 136.388 44.892 56.509 146.393 28.336 146.393-53.422zM339.46 255.992c0-63.76-69.498-103.825-124.795-71.945s-55.298 112.011 0 143.891 124.795-8.186 124.795-71.946z"/></svg>