<svg xmlns="http://www.w3.org/2000/svg" width="512" height="512"><path d="M153.001 434.531c-53.682-31.457-99.53-107.4-123.226-174.012-9.518-28.896-12.778-59.876-25.048-87.656-12.835-20.176 2.2-42.233 24.3-48.646 9.84-1.889 27.142-11.17 6.257-4.536-18.723 13.737-20.535-12.47-1.336-14.13 13.103-1.74 17.927-12.467 13.446-22.123-14.065-9.172 34.106-19.253 9.868-32.939-25.25-27.24 35.318-32.485 20.375-1.547-3.577 23.79 42.322-4.36 31.673 23.111 10.824 13.193 40.533 3.003 39.796 21.512 15.768 1.084 21.18 14.35 35.982 15.37 15.34 6.927 43.151 12.386 48.371 29.674-15.22 12.05-50.463-24.89-52.156 8.464 6.422 117.654 12.507 158.22 69.32 219.855 38.268 43.3 90.852 63.719 135.244 70.988 9.562-7.314 26.444-34.505 41.36-23.04.709 12.884-29.606 26.932-1.425 25.509 16.547-4.992 28.025 12.797 41.651-3.25 12.555 14.872 52.18-9.5 43.248 20.896-12.078 7.792-29.695 3.083-41.793 13.804-19.948-9.963-35.83 8.915-57.913 6.527-85.133 14.9-196.073 1.46-257.994-43.831zm100.061 36.821c37.114 5.162 75.442 13.102 112.689 5.86-16.858-7.613-34.286 2.965-51.08-5.444-20.142 4.335-41.757-1.104-62.234-3.781-23.286-10.373-48.416-17.505-70.222-30.968-27.248-9.953 14.092 12.763 21.45 14.603 17.034 9.668-18.73-4.957-23.773-8.976-14.266-8.003-16.445-6.137-1.773 1.99 22.878 14.173 51.55 23.782 74.943 26.716m-106.228-50.599c20.684 7.662-.092-14.546-9.57-13.255-4.2-7.286-16.044-11.888-7.689-15.802-15.03 5.218-15.744-19.842-22.81-16.262-15.9-5.02-6.188-22.806-25.128-33.729-1.729-11.508-18.818-21.49-24.268-38.85-2.408-8.888-19.307-34.412-8.926-10.658 8.84 22.866 24.392 42.449 37.334 62.01 10.05 18.623 21.916 38.087 40.218 49.705 6.17 5.918 12.126 14.986 20.839 16.841zm26.638-36.043c-11.317-6.033-35.955-9.155-18.569 4.646 11.161 4.51 39.606 6.698 18.57-4.646zm18.97 23.984c24.306 6.876-20.44-15.371-5.998-2.53l5.997 2.53zm.205-12.88c17.658 2.277-21.01-12.01-3.874-1.278l3.874 1.278zm61.37 37.735c16.486-9.856 11.051 23.08 27.97 2.782 16.688-12.185-14.412 15.065 6.156 2.173 14.874-9.949 36.845 4.716 50.724 9.5 9.982-.49 19.685 8.632 29.917 3.083 19.698-5.306-38.518-7.87-23.257-17.282-18.024 5.245-31.34-6.254-40.209-17.798-20.217-4.669-43.592-15.005-53.682-32.896-4.114-6.718 5.943.946-3.55-10.034-12.183-10.836-18.266-23.136-26.444-36.307-9.77-5.212-10.908-20.552-11.896-.514.078-12.646-11.795-21.158-14.693-17.62-.052-12.18 12.706-6.074 3.775-15.086-1.922-12.623-8.252-25.777-10.154-40.029-2.956-6.87-.416-21.584-10.089-6.032-3.524 16.437-1.17-20.198 4.31-8.118 7.193-12.327-2.582-10.877-2.982-9.165 4.685-10.402 2.966-25.155-1.223-19.527 2.497-11.023 3.945-40.57-3.736-35.335 4.656-11.527 8.83-52.748-11.382-37.032-8.192.115-22.377 2.974-29.082 6.308 21.024 11.59-2.115 4.186-10.673 2.344-1.116 10.723-9.592 6.085-20.182 6.19 16.914 2.093-8.237 17.3-17.94 11.393-12.603 6.023 10.875 21.058.252 25.706 1.306 7.008-19.306-2.53-17.688 13.654-12.234-5.147-1.684 19.198 4.437 10.965 20.808 5.631 14.648 18.47 15.178 30.667-3.39 7.107-16.739-16.705-2.973-15.602-10.86-17.642-12.013-6.377-21.038 1.819-2.099.595 23.02 11.66 7.256 17.133 13.869 2.14 14.263 14.276 17.087 21.956 8.335 8.682 6.63-9.587 16.603.846-6.311-9.295-33.431-26.19-11.596-20.771-.117-9.356-3.95-16.9 2.74-16.717 6.625-11.997-6.938 29.58 7.995 14.333 4.133-1.805 5.157-12.012 12.587.964 10.792 10.616 3.898 18.309-11.325 8.588 2.724 9.24 20.364 12.541 17.05 26.99 3.514 12.706 8.43 8.026 12.716 7.291 3.362 12.347 5.271 3.268 5.43-2.607 15.395 3.295 11.789 12.395 16.606 18.752 10.607 4.788-15.183-32.454 3.028-11.198 19.16 17.298 7.29 23.261-10.009 21.748 14.388 1.178 14.69 13.994 28.005 14.165 11.572 5.967 20.693 28.354-.704 18.913-12.065-7.486-33.558-14.714-12.108-1.987 5.077 3.214 35.545 14.663 54.652 26.178 10.579 7.232 19.582 20.943 24.765 23.156-11.493 5.49-34.634-4.383-17.45-7.409-10.719-1.952-22.402-7.45-12.508 5.982 8.508 7.779 30.928 6.517 34.907 7.342-3.373 7.433-9.162 8.024.139 8.6-10.376 5.53 3.327 6.386 4.288 9.545zm-22.337-68.123c-6.824-10.76-5.192 1.606 1.12 8.207 10.09 12 2.379-6.802-1.12-8.207zm-37.672-55.658s1.682-11.35-3.507-12.605c-5.19-1.256-2.33.834 1.822 9.819.99 2.143 1.602 2.886 1.594 2.837m-56.712-43.072c-5.155-11.545 2.453-5.276 1.345-10.2-2.38-4.95-25.508-31.236-14.973-11.391 9.534 23.673-5.998-2.972-7.618-11.038-1.791 4.953 3.772 21.176 7.135 26.705 8.561 13.185 4.71-7.22 14.11 5.924zm-47.363-45.524c-13.386-11.26 4.127 5.55-1.309 5.338-14.107-10.303-8.34-3.004-.372 4.914 8.632 12.827 15.757-7.686 1.681-10.252zm6.873 1.936c25.322 6.957-26.949-24.436-3.785-3.822l3.785 3.822zm70.076 29.93c-7.268.147 3.014-15.827-6.73-12.675-3.419-24.828-10.786 11.474-.762 17.484 3.095 8.893 6.346 5.27 7.492-4.81zm-59.785-35.319c33.717 15.562-24.413-25.739-9.532-5.207 1.769 3.957 6.008 4.286 9.532 5.207zm3.864-8.066c25.537 10.556-2.272-6.869-11.116-4.977 2.23 3.263 8.278 1.836 11.116 4.977zm3.42-9.555c8.29-1.656-1.1-4.314-6.054-8.25-11.465-17.223 1.705 1.39-1.898 6.677 4.771 4.69 20.99 13.075 7.951 1.573zm58.647-26.721c-3.385 17.891-6.838 10.43-1.985-2.91-1.161-17.12-11.565 10.484-6.967 18.587 7.602 12.109 15.204-29.758 8.952-15.677zm10.109 213.016c13.167 3.379 13.1-2.048 1.2-3.66-6.402-5.955-26.599-12.271-8.521-.74 1.197 3.033 4.98 2.963 7.32 4.4zm-46.75-31.05c7.254 5.409 27.323 15.33 10.334 2.058 5.728-6.654-10.963-10.197-5.426-14.648-14.084-8.618-11.11-7.852-1.244-7.58-16.925-7.566 2.444-7 1.532-10.877-6.527-1.289-32.417-11.508-17.186.84-15.484-7.895-3.69 2.94-8.37 1.795-15.833-4.317 14.1 12.059-2.514 7.994 9.083 7.198 24.449 18.438 3.84 7.617-2.716 3.909 14.748 9.834 19.034 12.8zm164.515 96.479c6.945-6.73.284 10.72 11.508-1.648.121-8.853-.346-14.082-12.898-3.328-3.46 1.92-5.005 10.079 1.39 4.976zm-113.73-73.02c7.725 6.863 35.482 5.036 9.383.845-3.866-5.715-24.545-4.34-9.383-.844zM59.833 293.379c-11.223-16.012-6.976-23.21-17.799-36.283-2.048-9.998-18.565-32.685-8.543-8.65 9.18 14.057 11.909 35.822 26.342 44.933zM392.335 451.41c10.919-2.213 35.8 5.558 39.821-2.895-13.259-.321-45.873-9.354-47.417 2.156l7.596.74zm-371.8-275.906c-1.99-11.407-4.396-31.43 14.638-24.664-25.407 5.044 17.584 31.579 12.155 10.629 10.683.523 20.899-6.314 15.293 4.062 21.048-2.325 35.641-20.578 55.973-18.02 15.838-2.096 33.154-3.685 50.22-10.06 14.033-1.011 27.541-16.12 19.85-25.074-19.136-1.619-39.168.775-60.318 4.98-23.438 4.872-44.727 14.129-68.375 18.102-23.05 3.096 4.637 8.531-1.966 9.742-12.028 4.173 14.344 6.988-1.56 11.387-9.82-1.867-20.044-5.242-15.849-15.592-22.08 2.865-41.481 12.029-24.037 34.498l3.976.01zm59.011-24.563c19.25 13.16-3.308-21.605-8.485-2.533 2.405-.592 6.186.812 8.485 2.533zm5.48-8.819c18.248 1.836-2.796-11.586-3.47-3.159l3.47 3.16zm30.583-11.176c26.935-5.127-9.864-8.558-17.755.925 5 2.28 10.535-6.36 17.755-.925zm46.2-9.176c17.028-2.615 2.677-10.431-2.305 2.623 1.806 4.116 2.675-1.234 2.305-2.623zm-91.595 69.56c9.624-.66 15.057-10.616-1.862-10.044-26.221-2.714 23.135 8.979-3.363 5.635-3.561 2.358 5.018 5.062 5.225 4.41zm-13.477-76.02c17.176-5.843 38.86-10.806 48.527 3.286-7.272-10.259-3.083-20.122 4.712-5.598 11.024 14.696 14.979-3.775 9.372-11.613 5.335 8.437 25.138 26.808 5.47.642 13.033-15.677-26.094 2.053-34.987 1.874-4.28 1.92-44.177 10.175-33.094 11.41zm10.066-19.278c9.796-7.394 33.88 4.398 18.425-7.348-1.51-1.335-33.844 8.907-18.425 7.348zm35.713 1.474c11.464.293-4.946-15.401 8.716-8.29-2.244-7.33-15.906-8.702-22.585-11.63-3.778 6.701 7.69 20.01 13.869 19.92zm-42.109-50.25C47.4 30.274 84.872 50.11 71.655 32.33c-11.124-8.858-21.813 9.969-11.248 14.926zm166.945 89.921c5.967-10.576-24.633-14.257-4.02-3.748 1.898.634 1.469 4.48 4.02 3.748z"/></svg>