<svg xmlns="http://www.w3.org/2000/svg" width="450" height="512"><path d="M114.066 406.858c28.936 29.395 82.941 25.975 122.487-.66l-75.197 69.838.513-12.718-10.461-.413-.751 19.11-19.122-.755-.422 10.446 19.119.766-.763 19.106 10.445.422.767-19.119 19.118.767.422-10.445-10.747-.436 74.252-68.543c19.354 11.085 36.224-10.224 27.825-25.68l76.077-70.245-.456 11.366 10.462.412.75-19.11 19.122.755.422-10.446-19.119-.766.764-19.106-10.446-.422-.766 19.119-19.119-.767-.422 10.445 12.104.481-76.858 70.45c32.027-37.506 42.56-133.925 64.812-221.843h45.772c14.473.94 19.467-29.443 7.991-28.577h-46.498c8.96-49.646 26.882-106.558 48.436-106.558 26.397 0 17.194 42.623 35.842 42.623 17.195 0 28.577-12.593 28.577-30.514-3.154-52.508-83.523-42.162-116.245-2.18-10.656-13.32-31.968-21.07-55.217-21.07-72.169 0-111.402 56.913-129.08 117.7h-32.21c-12.352 0-15.984 11.866-15.984 21.553 0 3.633.726 7.023 6.296 7.023h34.632S111.886 302.48 92.512 372.468c-8.84 31.935-16.226 34.874-26.882 34.874-22.038 0-24.46-21.312-44.076-21.312C10.414 386.03 0 401.772 0 412.186c.475 30.404 60.93 45.664 114.066-5.328zm24.702-33.179c18.123-37.146 35.198-116.251 56.428-214.812h79.918s-24.218 121.574-46.013 200.04c-14.266 58.62-68.953 40.999-90.333 14.772zM282.38 130.29h-80.888C209 93.48 224.5 36.81 258.646 36.81c17.921 0 38.022 11.382 49.647 29.788-10.414 18.647-20.101 41.412-25.913 63.692z"/></svg>