<svg version="1.1" xmlns="http://www.w3.org/2000/svg" width="512px" height="512px"><path d="M145.5688019,399.8177185c0.7317352,27.2174988,3.4682007,34.0817261,37.5202179,36.526825v0.0030212v20.7289429H61.6536293l-0.0001106-20.7289429v-0.0030212c34.0520248-2.4450989,37.7923279-9.3095093,38.5240631-36.5270081l-0.0216675-169.3104248c-56.7438736-1.9195099-66.0999985,10.1008911-74.6897736,49.1732788H0c4.9356976-22.3753052,9.8243484-43.7297821,9.8243523-74.3930206h226.0760956c0.0000153,30.6632385,2.4684448,52.0177155,7.4041443,74.3930206h-24.9531555c-8.5897675-39.0723877-16.0387573-51.0927887-72.7826385-49.1732788l-0.0001221,169.3102417 M383.1149597,394.6635742c0.8334656,21.8069763,11.2164917,35.5749512,50.002655,37.5339966v0.0024109v24.8765259H282.3432312l-0.0001221-24.8765259v-0.0024109c38.7861633-1.9590454,48.2365723-15.7271729,49.0700378-37.5341492l-0.0246582-306.2846375c-72.9951172-1.7381516-93.0622253,6.5654755-99.2747345,56.0096817h-29.610199c6.3415527-25.4860687,5.3610077-54.5387115,5.3610077-89.4649734h294.622345c0,34.9262619,3.1715393,63.9789047,9.513092,89.4649734h-32.0606384c-11.036438-44.5045013-32.1916199-58.1960449-96.8244019-56.0096817l-0.0001526,306.2844849"/></svg>