<svg xmlns="http://www.w3.org/2000/svg" width="512" height="512"><path d="M429.246 276.556c32.29-2.874 57.828 3.454 79.292 14.497 9.163 4.37-1.33 14.103-14.366 7.894-27.778-9.957-34.29-14.33-65.843-12.865-9.417-.113-8.475-8.533.917-9.526zm-125.798-10.808c-3.908-8.232-18.616-15.07-32.297.983 0 0 7.417-75.495 7.697-82.778 3.462-16.378-16.136-11.32-17.772-9.945-35.778 23.668-76.65 157.81-76.65 157.81 4.386-62.402 19.779-143.033 30.396-221.867.798-7.797-13.233-4.015-13.233-4.015-61.955 22.094-75.166 183.334-90.402 183.998-4.393-45.143-1.51-51.918-17.772-50.657-21.91 5.137-15.144 13.582-43.935 38.983-17.1-5.867-43.194-3.452-43.194-3.452-8.569 1.538-8.192 8.984 0 9.382 14.218-.84 39.286 2.522 52.099 2.662 16.016-.52 20.19-13.432 26.049-13.867 5.832 67.65 5.52 57.392 22.591 58.126 34.005-7.975 47.835-111.503 76.736-179.62-16.606 92.058-30.233 184.025-28.8 243.958.34 14.236 8.074 11.67 18.053 10.739 17.505-1.634 46.822-113.569 77.525-180.745-2.2 17.509-7.469 82.746-7.469 82.746 1 6.959 21.586 5.36 23.526.886l17.695-28.293c15.959 28.721 17.832 25.35 28.275 25.35 10.523 0 21.28-16.944 21.28-16.944 3.068 4.176 4.792 8.88 6.38 9.883 2.75 2.713 15.659 2.538 19.342.575 0 0 18.85-11.582 33.383-13.447 19.528-1.657 15.278-10.672 0-11.298-10.511-.513-34.458 7.796-34.458 7.796-7.737-21.282-3.62-21.247-19.173-21.803-11.598-.28-26.425 22.176-26.425 22.176s-6.071-10.212-9.447-17.322z"/></svg>