<svg xmlns="http://www.w3.org/2000/svg" width="438" height="512"><path d="M252.037 53.693c-2.355-1.097-5.006-2.22-7.949-3.065-.419-.122-.845-.29-1.426-.42-.27.969-1.245 3.085-1.245 3.085-.277.69-.535 1.542-.535 2.394 0 3.22 2.49 5.73 5.716 5.73.433 0 .678 0 1.09-.156.323 0 .472-.135.762-.135 3.168-.845 6.29-2.097 9.375-3.775-1.768-1.277-3.536-2.522-5.788-3.658zM42.607 273.499s-.71-1.968 1.27-3.503c8.902-6.07 5.93.713 12.57.845 3.651 0 7.4-2.516 9.09-3.626 4.02-2.826 6.853-5.188 7.42-12.446-.052-2.772 2.09-3.707 3.762-2.24 1.387 1.259 3.078 4.33 2.78 8.808-.58 6.581-3.754 12.465-9.51 17.479-3.496 3.047-7.642 6.107-11.155 8.53-8.4 4.408-15.219-11.885-16.228-13.847zM64.143 61.965c.691 5.105 1.462 9.785 2.51 14.388 1.284-1.4 2.516-2.652 3.651-3.897-.94-4.04-3.567-5.394-6.161-10.491zM7.81 284.403c.342-1.058-.237-5.116.662-9.771.539-2.784 1.165-4.593.996-5.507a35.961 35.961 0 0 0-5.052-3.065c-.442 15.867.032 13.733 3.394 18.343zm320.853-146.812c20.783-6.17 38.402-20.665 35.5-48.656-1.18-12.017 7.36-23.57 14.408-34.1 8.788-14.537 11.762-26.983 8.788-35.932-3.58-12.413-19.858-15.064-30.48-15.24-18.299 0-38.274 9.362-53.205 25.17-18.601 23.186-13.79 51.302 9.06 67.65 2.952 2.213 2.041 6.475-.975 7.679-12.265 5.424-21.415 12.846-14.001 24.615 7.893 9.787 18.53 12.353 30.905 8.814zM27.353 240.774c1.975 0 4.64-1.11 8.995-3.775 5.109-2.98 10.008-5.636 18.298-6.994 2.635-.58 3.314-2.564 3.355-4.6-.236-3.785-4.85-4.444-8.259-4.491-3.483-.12-5.92 1.708-9.052 1.671-2.6.314-4.699-1.672-7.026-1.671-3.442.25-6.63 3.087-8.51 4.74-3 2.668-6.405 4.188-6.434 7.126 0 1.142.407 2.251 1.265 3.097 2.153 2.011 4.854 5.003 7.368 4.897zm206.263 253.622c21.576-8.965 43.898-20.391 61.916-32.3 1.949-1.667 2.508-3.292 1.535-5.303-4.452-12.427-10.743-39.565-2.78-80.536 1.752-10.675 3.543-20.303 3.36-30.887-.668-4.495-6.034-5.387-7.98-1.503-2.246 4.148-5 8.504-8.253 13.104-33.377 47.96-58.553 88.234-53.804 134.083.69 3.244 3.165 4.506 6.006 3.342zm-62.115 17.318c7.853-1.104 23.79-4.065 44.224-10.763 2.563-.961 3.508-2.26 3.2-5.032-6.859-50.327 19.711-93.118 54.94-143.71 22.544-32.312 16.505-47.984 9.93-56.92-14.042-17.594-33.62-11.056-53.953-4.737-18.152 4.298-38.02 5.372-55.255 9.614-10.693 2.763-20.938 7.2-29.337 12.024-1.568.9-3.442 4.789.552 7.43 35.916 26.641 23.191 89.967 20.583 130.998-2.536 24.615-4.504 43.926-.723 57.74.457 2.377 1.96 4.412 5.84 3.356zM58.026 83.832c1.156-1.312 2.082-1.668 1.904-4.375-.277-1.684-.542-3.504-.974-5.033-1.806-9.085-3.903-20.266 0-29.487.09-5.101.874-10.189 1.439-14.691 1.647-8.763 2.923-20.409-3.104-27.112C54.071-.742 46.89-.912 44.135 2.01c-3.68 5.354-4.782 16.323-4.161 25.176 1.374 14.118 1.097 15.912 0 18.983-.6 1.42-1.245 3.374-1.562 11.35-.29 6.013 2.265 14.4 4.769 22.369.814 2.902 1.711 5.869 2.374 8.381.384 2.188 2.348 3.411 4.174 3.504 2.622-.193 3.369-1.994 8.297-7.942zm-.031 56.281c1.743-11.492 1.186-21.85 2.91-31.88.333-1.084.597-2.104.567-3.077-.548-4.008-5.188-5.137-7.407-2.349-.787 1.424-2.001 2.783-2.955 3.897-5.868 7.058-7.845 16.247-9.646 23.912.054 5.493 5.996 9.915 10.227 12.13 2.614 2.336 5.944-.629 6.304-2.633zm20.834-78.02c4.392-3.559 8.512-6.543 13.265-8.93 2.322-1.264 2.754-4.28 1.136-6.587-6.654-8.277-10.338-17.287-14.827-26.57-1.74-3.14-5.748-3.034-7.265-.406-1.252 1.89-.414 3.317-1.975 11.736-.664 4.885-1.406 9.524-1.406 13.989.174 6.007 1.523 10.91 4.633 15.504 1.382 2.162 4.746 3.148 6.439 1.265zm.974 161.75c7.734-20.86 22.086-35.52 32.706-53.262 21.058-32.43 23.569-51.404 36.272-72.013 8.179-18.052 30.236-33.924 64.956-36.59 6.792-.505 11.784-2.13 15.666-5.188 3.645-2.23 2.84-7.297-.733-8.002-4.545-.721-12.635-1.156-18.733-1.09-32.89-.084-42.33 6.828-66.374 4.343-13.824-.916-20.645-.455-30.183 1.955-24.346 6.529-43.058 37.015-44.584 63.741-.832 23.488-2.686 32.91-10.66 47.824-7.235 14.833-16.736 28.222-22.66 40.397-1.162 2.164-.684 4.227.744 5.409 1.02.817 2.546 1.273 4.464 2.017 3.175-.87 5.13-1.532 9.336-1.548 10.402-.264 17.033 6.615 22.692 13.001 2.24 2.656 6.154 1.802 7.091-.994zm7.231 42.138c1.434 2.939 3.156 3.19 5.628 2.621 6.865-1.781 11.495-3.31 15.443-7.016 10.88-10.214 12.208-29.781 18.108-49.763 6.087-19.246 8.014-43.31 26.158-63.49 20.79-17.105 38.735-2.538 53.96-2.774 6.827-.146 9.919-1.693 13.542-3.626.284-.161 32.739-17.898 50.076-71.6.344-2.036 1.656-3.57 1.535-5.568-.412-3.288-3.79-4.7-6.717-2.936-16.35 11.874-40.497 7.455-49.907 8.95-27.822 1.96-49.772 10.49-65.857 46.274-7.793 18.774-15.832 40.783-38.281 71.73-12.601 17.478-29.66 41.519-25.047 59.972 2.98 11.105.487 14.745 1.359 17.226zm211.414-117.073c2.47-1.171 2.982-5.246.439-7.13-4.891-3.484-7.691-7.265-8.253-8.09-4.206-6.447-5.31-12.725-3.387-18.744 2.045-4.378 4.904-8.95 10.098-12.705 3.37-2.34 1.92-5.699-.542-7.549-4.75-5.612-8.456-11.758-10.51-17.472-.696-6.12-7.465-6.084-8.666-1.304-6.115 26.558 1.231 50.81.426 77.452 0 2.368 1.974 4.207 4.316 4.207 1.106 0 8.705-5.125 16.079-8.665zM71.002 344.925c20.095.468 27.99-11.63 43.643-22.654 20.122-14.722 39.288-26.184 62.038-31.719 21.719-4.828 44.612-5.355 65.437-12.723 34.965-12.143 57.18-36.752 62.51-69.329 4.12-21.874 8.9-37.087 24.195-53.282 3.39-3.215-.296-9.422-6.581-6.426-13.847 4.632-42.088 15.82-48.67 31.48-3.092 7.89-8.079 16.006-12.981 21.363-28.288 33.788-72.51 20.892-96.757 52.734-8.558 7.873-24.018 35.392-24.647 36.467-8.627 15.247-23.318 27.132-41.481 33.448-8.556 3.078-17.621 4.6-26.3 4.6-7.69 0-15.123-1.251-21.117-3.8-4.582-1.983-7.677-1.331-10.75-.677-6.156 1.833-7.889-.542-10.046 3.213-1.482 4.028 1.76 5.822 4.465 7.556 13.724 8.702 25.9 9.151 37.042 9.749zm239.892 106.667c36.613-25.47 71.505-65.354 93.383-98.834 2.059-2.874.519-5.307-1.233-6.44-4.778-2.14-8.956-5.46-12.046-8.523-14.937-14.66-24.331-40.423-27.673-76.329-1.994-20.016-3.332-39.127-16.234-60.683-5.446-7.988-10.756-16.362-15.498-25.034-1.263-2.864-6.187-3.086-7.543.135-5.026 8.808-8.394 19.299-10.891 33.965-4.065 24.892-17.189 45.894-37.771 60.663-3.855 2.691-1.838 7.037 1.432 7.975 5.459 2.536 10.35 6.13 14.389 11.046 15.085 17.898 19.446 50.172 11.872 88.485-4.216 23.164-5.78 48.285 1.11 71.484.863 2.608 3.68 4.462 6.703 2.09zm102.9-114.642c12.988-22.757 20.272-41.526 23.511-50.733.875-2.343-.525-4.528-1.974-5.304-20.531-9.814-40.107-24.357-58.167-42.946-3.102-3.524-8.24-.612-7.394 3.652 4.114 28.49 4.034 64.126 26.828 89.447 3.362 3.361 7.033 6.026 10.647 7.697 3.375 2.098 5.723-.302 6.548-1.813zM68.311 239.11c-2.552-.513-5.11-.844-7.259-.853-7.98.16-14.947 3.236-20.111 6.304-5.569 3.472-10.085 5.046-13.847 5.046-8.873.078-11.79-9.387-17.898-9.24-3.12-.144-5.436 1.297-7.394 4.188-1.36 3.395 1.144 5.799 3.348 6 4.041-.082 7.184 3.051 10.172 6.061 2.764 2.786 3.828 7.257 1.733 13.496-1.264 3.99-1.845 8.343-1.846 12.472.31 5.026 2.53 6.555 4.485 7.665 1.874 1.327 3.71.652 4.484-.974 1.075-4.168 7.53-2.708 8.375.542.413 1.284 1.097 2.103 2.239 2.794 3.498 2.083 10.092 1.091 10.459-.8.09-.845-.493-1.819-1.117-2.53-3.489-4.771-6.26-9.137-8.097-13.4-2.787-6.982-2.652-13.725.4-18.493 2.407-3.613 6.056-5.637 11.228-5.711 5.171-.074 7.387 4.756 8.354 7.989.44 1.497 1.852 2.49 3.543 2.49 1.385-.058 1.068.143 3.647-1.733 1.93-1.405 3.153-3.007 3.044-6.074 0-2.4.987-5.607 3.49-7.717 2.864-1.984 1.72-6.548-1.432-7.523zm198.836-123.476c-.406-4.822-5.967-5.477-7.974-1.8-13.847 21.389-28.384 31.46-33.3 34.532-1.232 5.73-6.123 21.957-24.144 33.835-11.528 7.748-26.199 11.397-40.262 10.472-18.472-2.652-23.628 9.259-25.59 16.66-4.227 17.472-7.935 33.246-13.71 46.694-7.033 16.208-19.285 19.13-30.067 21.68-6.265 1.528-12.137 2.922-16.937 6.71-9.918 8.237-20.237 14.677-29.77 17.046-3.316.345-4.548 2.33-4.6 4.458.028 4.293 8.236 9.338 12.155 11.027 28.042 11.188 65.88-7.147 78.452-30.331 20.56-34.2 31.954-55.275 75.768-65.864 23.027-4.714 49.4-18.299 58.018-43.63 6.92-19.846 3.1-40.535 1.961-61.49zM36.586 188.763c.41-.541.284-.962 0-1.658-.98-1.968-2.064-4.646-2.935-7.975-.182-1.414-1.712-2.368-2.807-2.4-1.629.035-2.605 1.057-2.768 2.097-3.147 10.097-7.381 17.207-7.556 17.937.05.756.606 1.203.994 1.787.942 1.67 2.646 3.361 4.588 3.361 2.11 0 4.213-1.826 5.168-3.632a260.97 260.97 0 0 1 5.316-9.517zm-17.885 17.195c-.827-1.659-2.973-1.81-3.923-.549-3.267 5.787-4.361 12.205-4.73 17.892.014 1.643 1.142 2.485 2.259 2.517 1.182.034 1.787-.967 2.94-1.861 1.792-1.499 2.942-2.622 4.306-3.998 3.632-3.368 2.077-8.536-.852-14.001zm3.187 92.97c-4.314-1.358-8.759-3.52-12.136-5.569-1.358-.818-2.46-1.693-3.497-2.542-1.922-1.156-4.306-.865-5.6.852-.672 1.087-.765 2.277-.556 3.355.196.47.386 1.086.555 1.651 3.447 7.757 9.65 18.495 18.899 18.202 1.548-.22 3.229-1.082 4.032-2.116 2.176-2.559 2.709-6.322 2.394-8.917-.284-2.265-1.82-4.207-4.09-4.917zm220.774-248.72c-.27.969-1.245 3.085-1.245 3.085-1.961 4.983 2.02 8.332 5.181 8.123 3.81-.457 8.197-2.433 11.227-4.065-4.794-3.711-10.014-5.643-15.163-7.142zM28.624 315.839c4.81 3.645 7.15 1.867 10.911 1.13-3.362-3.085-5.884-6.691-7.69-10.737-.143 3.181-1.001 6.536-3.22 9.607z"/></svg>