<svg version="1.1" xmlns="http://www.w3.org/2000/svg" width="449px" height="512px"><path d="m135.85475 160.96358c29.98626 22.70778 63.16557 30.10634 77.25213 18.10316 11.07313-2.4218 26.09672-38.58382 34.56059-84.355497 8.00961-43.35144 7.50341-80.7192-0.59702-89.89504-1.17168-1.4777066-4.66253-4.67124-8.66721-4.80248-14.30251-0.46878666-44.02911 11.097693-75.50337 30.283759-34.94278 21.228507-60.54415 44.867707-63.248804 57.45568-12.312669 16.267657 3.995314 48.908337 36.203684 73.210417zm51.24518-97.50559c-3.15777 3.773187-18.13825 24.551787-21.65353 30.46868-6.29343-3.69436-12.572-6.715107-18.64733-9.01856 11.50377-5.017493 39.32024-20.839373 40.30086-21.45012zm20.17158 23.2438c-0.0307 0.165-4.21292 26.52708-5.101 38.07395-3.95938-4.75816-8.51634-9.47079-13.60446-14.00332 4.55922-5.11759 18.70546-24.07063 18.70546-24.07063zm29.86318 295.22819c7.31083 1.68849 12.88499 4.34845 12.52615 5.98554-0.35707 1.63708-6.59489 1.63708-13.85521-0.0507-7.31083-1.6371-12.88322-4.29778-12.52615-5.93487 0.35887-1.63708 6.59669-1.63708 13.85521 0zm10.32784-13.30194c-2.76096-6.65132-3.78346-12.58546-2.25058-13.25053 1.58514-0.61424 5.06201 4.24636 7.82297 10.89697 2.81143 6.65134 3.78345 12.58547 2.25057 13.25126-1.53464 0.6135-5.01153-4.24708-7.82296-10.8977zm-9.8157 8.69779c-5.06202-4.55348-8.18004-9.41425-6.85094-10.84631 1.27678-1.43277 6.4416 1.07426 11.55412 5.62775 5.06202 4.55276 8.18004 9.46475 6.85096 10.89697-1.27857 1.43278-6.44161-1.07426-11.55414-5.67841zm25.61312-83.44507c-7.26032 1.63746-13.49632 1.63746-13.85519 0-0.35707-1.63565 5.26581-4.29741 12.52613-5.93485 7.3108-1.63565 13.49634-1.63565 13.85522 0 0.35706 1.63744-5.21532 4.2992-12.52616 5.93485zm-17.33028-21.64032c2.81145-6.65078 6.33882-11.56314 7.87166-10.8977 1.53468 0.66544 0.56264 6.6003-2.24877 13.25109-2.76096 6.70128-6.28833 11.56133-7.87349 10.89771-1.53283-0.61495-0.51214-6.54982 2.2506-13.2511zm10.8887 5.93486c5.06202-4.60398 10.17454-7.11244 11.50362-5.68058 1.27677 1.38138-1.78894 6.24323-6.85095 10.8472-5.06205 4.5535-10.22505 7.11246-11.50364 5.67879-1.27677-1.43187 1.73844-6.29192 6.85097-10.84541zm-242.89576-22.56364c7.25919 1.68976 12.883509 4.3497 12.525541 5.98716-0.357785 1.63745-6.594887 1.63745-13.906248-0.0523-7.3106404-1.63563-12.883451-4.2956-12.525596-5.93487 0.35785511-1.68793 6.5949411-1.63562 13.906303 0zm10.327068-13.35207c-2.760766-6.6508-3.732055-12.58565-2.198478-13.25109 1.53412-0.66544 5.06131 4.24692 7.822074 10.8977 2.811978 6.65079 3.783448 12.58566 2.24987 13.2511-1.534298 0.61313-5.061309-4.24692-7.873466-10.89771zm-9.764924 8.74809c-5.1128145-4.60397-8.2313646-9.46402-6.9020901-10.8977 1.2785641-1.43187 6.4420881 1.07481 11.554126 5.67878 5.112888 4.55348 8.180761 9.41354 6.90218 10.84722-1.277862 1.48416-6.492818-1.07482-11.554216-5.6283zm54.44803 213.29221c7.311363 1.68848 12.884285 4.34843 12.526319 5.98552-0.357787 1.6371-6.595608 1.6371-13.855575-0.0507-7.31064-1.63783-12.883383-4.29778-12.525596-5.93486 0.357967-1.63728 6.595608-1.63728 13.854852 0zm10.327843-13.35334c-2.760764-6.65062-3.732234-12.58548-2.198656-13.25055 1.533577-0.6649 5.061489 4.24637 7.822073 10.89697 2.812159 6.65134 3.783629 12.58619 2.250052 13.2511-1.534299 0.61369-5.061311-4.24619-7.873469-10.89752zm76.329898-121.25287c-13.85484-17.95605-21.42192-35.35126-16.92253-38.77945 4.4992-3.47868 19.32552 8.28825 33.12897 26.24611 13.8554 17.95696 21.42228 35.35162 16.92292 38.77945-4.49938 3.47921-19.32589-8.28771-33.12936-26.24611zm52.81304-17.95605c13.24024-14.63245 27.40206-23.43285 31.59486-19.59531 4.19281 3.78526-3.17031 18.72428-16.41058 33.35675-13.24206 14.63247-27.40386 23.43141-31.59668 19.64581-4.19098-3.83702 3.11983-18.77658 16.4124-33.40725zm-175.61606-12.07529c-5.777064-21.9487-6.135031-40.87856-0.766428-42.31043 5.317025-1.43187 14.365563 15.2474 20.143349 37.19429 5.777062 21.8964 6.083453 40.8268 0.766428 42.25958-5.367882 1.43222-14.366287-15.24524-20.143349-37.14344zm42.996606 3.94033c13.241351-14.63245 28.527707-22.40855 34.100457-17.34471 5.57292 5.06564-0.61351 21.02718-13.906253 35.71014-13.241351 14.63264-28.527529 22.35824-34.100453 17.29332-5.572743-5.06492 0.613684-21.02808 13.906249-35.65875zm137.47589 141.81821c-19.01825-12.38042-31.90324-26.24521-28.83392-31.00372 3.11799-4.75781 21.01095 1.43294 39.97868 13.81408 19.01824 12.32976 31.90143 26.19452 28.83573 30.95215-3.11981 4.75781-21.01274-1.43206-39.98049-13.76251zm33.48657-24.55744c0-19.74824 4.54988-35.76134 10.17458-35.76134 5.57238 0 10.12225 16.0131 10.12225 35.76134 0 19.74823-4.54987 35.76225-10.12225 35.76225-5.6247 0-10.17458-16.01402-10.17458-35.76225zm184.46027-49.21693c6.33881-15.04111 13.80472-26.24592 16.56386-25.06869 2.81146 1.17634-0.0505 14.32464-6.3893 29.36645-6.34062 15.04129-13.80472 26.24537-16.61615 25.06888-2.76093-1.17635 0.1028-14.32536 6.44159-29.36664zm-361.71123 88.04832c-5.112705-4.60416-8.231256-9.46476-6.901998-10.8968 1.27786-1.43296 6.442141 1.07426 11.554125 5.67841 5.112887 4.55349 8.180041 9.41408 6.90218 10.84613-1.277861 1.48435-6.492817-1.07426-11.554307-5.62774zm41.411094 36.93866c-19.018412-12.38122-31.901796-26.24601-28.833922-31.00362 3.118551-4.7578 21.011852 1.43276 39.979582 13.81318 19.01841 12.33048 31.9018 26.19527 28.83464 30.95303-3.11855 4.75777-21.01256-1.43283-39.9803-13.76259zm33.53834-24.55734c0-19.74823 4.60128-35.76152 10.27627-35.76152 5.67498 0 10.27626 16.01329 10.27626 35.76152 0 19.74806-4.60128 35.76213-10.27626 35.76213-5.67499 0-10.27627-16.01407-10.27627-35.76213zm256.08666-50.08704c10.78771-12.27817 21.31931-20.61819 23.62039-18.6224 2.29929 1.99487-4.55168 13.60905-15.28705 25.8874-10.73723 12.32974-21.31935 20.61818-23.62041 18.6224-2.30108-1.99488 4.54987-13.60833 15.28707-25.8874zm-60.48109 35.5058c23.67092-9.25971 44.47808-12.53408 46.5231-7.31552 2.04501 5.21838-15.43858 16.93392-39.1113 26.19453-23.66909 9.25971-44.47806 12.53407-46.52308 7.31624-2.045-5.21839 15.49087-16.93464 39.11128-26.19525zm-196.32114-64.25717c-6.28851 4.60417 0.76636 24.96624 15.79701 45.43094 14.64113 19.98381 31.36535 32.7274 38.03433 29.11879-1.06984 4.23002 1.86132 15.47844 46.98687 24.59896 27.96468 4.0927 51.63852 0.56349 52.81429-7.82718 1.22631-8.39049-20.44946-18.46953-48.41597-22.56224-21.99816-3.17965-41.33504-1.70149-49.18471 3.15675 2.79872-7.19804-4.24622-25.09815-17.48236-43.1644-13.15245-17.95081-29.06892-32.48886-38.54946-28.75162zm-29.60143-45.94434c-5.87985-27.6264-3.93709-51.41632 4.34574-53.15656 8.28211-1.79073 19.73415 19.18595 25.61329 46.76167 5.82865 27.62747 3.8857 51.41703-4.3964 53.15691-8.28265 1.73934-19.73471-19.18612-25.56263-46.76202zm-0.10207-118.38769c5.92999-33.40724 17.79123-59.24399 26.58478-57.70932 8.74214 1.53465 11.09425 29.87807 5.21494 63.3376-5.8793 33.40905-17.79194 59.29628-26.58548 57.71112-8.74197-1.53645-11.09409-29.87987-5.21424-63.3394z"/></svg>