<svg xmlns="http://www.w3.org/2000/svg" width="512" height="512"><path d="M460.792 512H51.208C22.972 512 0 489.028 0 460.792V51.208C0 22.972 22.972 0 51.208 0h409.584C489.028 0 512 22.972 512 51.208v409.584C512 489.028 489.028 512 460.792 512zM51.208 21.872c-16.176 0-29.336 13.16-29.336 29.336v409.584c0 16.176 13.16 29.336 29.336 29.336h409.584c16.176 0 29.336-13.16 29.336-29.336V51.208c0-16.176-13.16-29.336-29.336-29.336H51.208zm285.785 205.743h-85.697c-14.593-22.173-45.217-31.847-71.002-16.982-35.254 20.324-35.254 71.41 0 91.734 25.497 14.7 55.725 5.403 70.506-16.246h86.193v-58.506zm63.702-161.992H111.624v164.015h11.857c9.3-23.341 29.419-47.828 56.085-50.918V136.8h221.129V65.623zm-289.071 386.03h67.942V332.768c-26.666-3.09-46.785-27.577-56.085-50.918h-11.857v169.801z"/></svg>