<svg version="1.1" xmlns="http://www.w3.org/2000/svg" width="489px" height="512px"><path d="M264.2288208,117.0202866v-14.8398743c64.5797424-30.4906387,130.1121521-33.0009842,106.8297424,72.2634354C318.2828674,142.8234253,263.0491943,134.9685669,264.2288208,117.0202866z M164.3218231,136.5549469c-18.6291656-14.8072662-51.2380295-40.8922882-56.7741776-46.4285049c-7.8293762-7.8293076-5.8720474-23.4880676,5.8719864-33.9272537c11.7440948-10.4391289,24.1405487-59.372654-9.1342239-32.6223526c-33.2748337,26.7503643-81.8821487,91.0163727-91.9950638,101.1293488c-10.112915,10.1129227-26.9408226,58.7421341,13.0489407,26.7502975c32.6223526-26.0978775,39.7992401-29.3601074,50.2384262-18.2684937c5.1601715,5.4827118,17.9717407,17.5007782,29.6103516,28.2544708C123.2698135,153.1292114,142.9217834,144.8327332,164.3218231,136.5549469z M302.8147278,338.0944824l57.8824158,50.2003174c26.2724304,20.8598328,25.3706665,35.2886963,2.825531,61.7416077c-17.1560974,22.1400452-6.0119934,46.8938293,24.57724,16.5520935l86.7755127-96.5621948c29.3287048-40.8316345,7.6853943-45.0400391-22.0741272-17.0841064c-19.0640259,16.0729065-30.9619141,20.7414856-54.2622681,0.1204224l-41.7439575-37.9103394C342.1820068,322.020874,321.6899109,330.2880554,302.8147278,338.0944824z M93.6938782,314.4478149c-12.8207474,57.2935486,2.7284088,103.0921631,93.3042755,71.2709961v-23.1027832C186.7887726,349.9675598,130.01474,331.8044739,93.6938782,314.4478149z M254.6005402,362.6160278c0,38.2145081,0,96.6942749,0,96.6942749c0,13.8961792,22.5944061,20.9925537,52.5690765,20.2652893C339.2453613,494.4477539,311.7775269,512,272.2120667,512h-92.4514008c-39.5655365,0-67.0333481-17.5523071-34.9576111-32.424469c29.9746704,0.7272339,52.5690765-6.3690491,52.5690765-20.2652283c0,0,0-58.4798279,0-96.6943359S39.6648903,312.2422791,39.6648903,241.2655792c0-46.0144043,81.9014587-76.7044373,124.5349121-93.4614868c28.8985443-11.35849,33.9179535-20.8329849,33.9179535-30.7839355c0-17.2126236,0-57.1918755,0-69.4038849c0-19.4737492-67.8100586-16.1710548-68.779068-29.2544384C128.2047882,3.0521481,159.2155914,0,159.2155914,0l133.5414886,0.0001266c0,0,31.0107422,3.0521481,29.8768311,18.3618336c-0.9689941,13.0833855-68.7789917,9.7806263-68.7789917,29.2544384c0,12.2120132,0,52.1912041,0,69.4038849c0,9.9508896,5.0194092,19.4253769,33.9179382,30.7839279c42.6334534,16.7569885,124.5349121,47.4470215,124.5349121,93.461441C412.3077698,312.2424011,254.6005402,324.4015503,254.6005402,362.6160278z M316.6056824,240.2625122c0-59.6021729-74.0595551-97.0558319-132.9872131-67.254715c-58.9276581,29.8010559-58.9276581,104.7082977,0,134.5094147C242.5461273,337.3182678,316.6056824,299.8646851,316.6056824,240.2625122z"/></svg>