<svg version="1.1" xmlns="http://www.w3.org/2000/svg" width="512px" height="512px"><path d="M294.1026306,133.4326477l-23.0425415,19.7507782c-15.9909363-15.3435974-35.542572-26.9988174-57.2769165-33.5910873l8.8499298-28.9322739C249.9164124,98.9505844,274.3556213,113.8301163,294.1026306,133.4326477z M307.5768433,148.4429474l-22.9781799,19.6955261c13.1948853,16.8088074,22.7041321,34.6253204,27.2833862,56.2592926l30.798584,2.0165253C337.6412048,197.2917938,325.2827148,170.6454773,307.5768433,148.4429474z M194.0639038,115.1202393l8.9256744-29.1799774c-34.0143738-5.9883499-67.4975586-1.8453674-97.3126297,10.7583923l12.6243439,27.5145874C142.0020599,114.6562653,166.8510284,111.2504578,194.0639038,115.1202393z M219.8615265,422.0571899L206.587204,394.279541C127.7976685,413.7834778,38.2585907,362.4085999,30.2473221,263.4888L0,264.176239C9.619113,396.039856,134.2608643,448.6663818,219.8615265,422.0571899z M30.6145916,243.3100586c4.141077-46.8777924,31.080019-87.30159,69.6333694-110.0883026l-12.6681595-27.6100388C38.4808617,133.4578857,4.2953577,184.6539764,0.2200665,244.0008392L30.6145916,243.3100586z M212.5442047,280.8608093L512,257.6706238v-8.0661469l-303.4888916-21.173645C220.3304596,243.583847,220.1985016,261.3880005,212.5442047,280.8608093z M203.4697723,253.637558c0-21.6520844-23.6006012-35.2580872-42.3791504-24.4320526c-18.7785187,10.8260345-18.7785187,38.0380554,0.0000153,48.8641052C179.8691711,288.8956299,203.4697723,275.2896118,203.4697723,253.637558z"/></svg>