<svg xmlns="http://www.w3.org/2000/svg" width="512" height="512"><path d="M0 107.722h73.512c7.708 0 13.035 1.194 17.406 9.329l28.044 48.835-42.55 73.495L0 107.722zm157.804 273.494c10.603 18 26.506 23.179 40.684 23.179h38.256l43.76-75.168h-67.051l-41.995-71.992 85.755-149.513h-86.108L85.35 256.176s61.852 107.04 72.454 125.04zM298.18 183.122l42.721 72.785-85.613 148.488h86.272l84.783-148.488s-52.055-89.83-69.28-119.763c-11.609-20.172-23.217-28.422-45.6-28.422h-36.307L232.561 182.6l65.62.522zm94.504 163.227s22.263 39.015 27.056 46.475c4.793 7.46 6.825 11.571 15.762 11.571H512l-76.444-132.723-42.872 74.677z"/></svg>