<svg xmlns="http://www.w3.org/2000/svg" width="512" height="512"><path fill-rule="evenodd" d="M94.38 193.573c-3.746.53-5.005-5.056-.876-5.922 16.509-1.793 24.29 4.717 24.705 13.434.192 3.639-5.447 4.585-5.977.332-.087-7.89-10.9-8.712-17.851-7.844zm14.313 145.315-39.844-36.8c-2.496-2.12-5.49 1.375-3.25 3.516l39.845 36.8c2.355 2.066 5.481-1.131 3.25-3.516zm106.491-20.371-31.847-18.199c9.615-8.35 12.721-15.54.33-29.623l34.225-22.511c2.567 9.198 6.286 18.436 10.058 25.313 4.366 25.096-1.279 40.58-12.766 45.02zm-11.458-19.222-9.157-4.71c-.842 1.612-1.948 3.19-3.323 4.737l24.107 13.776c13.1-7.58 8.637-34.66 8.035-37.975-4.054-7.612-6.85-15.286-8.224-19.413l-24.46 16.089a41.55 41.55 0 0 1 1.747 2.565l17.196-9.524c2.73-1.408 5.083 2.485 2.32 4.19l-17.25 9.555c.67 1.531 1.168 3.037 1.47 4.513h14.321c3.093 0 3.093 4.79 0 4.79h-13.99a16.28 16.28 0 0 1-.31 2.156l9.708 4.993c2.89 1.632.491 5.608-2.19 4.258zm-35.852 58.436c-2.458 1.679-.276 5.632 2.657 3.984 8.45-5.633 4.275-14.445 2.033-19.18-1.024-2.03.76-4.115 5.121-6.247 2.784 3.191 3.892 5.93 1.825 8.896-1.712 2.611 1.957 5.291 3.929 2.738 7.813-11.546-10.925-20.937-11.247-24.586-.022-3.214-4.526-3.431-4.782-.263-.425 3.166 3.695 6.77 6.754 9.622-16.186 9.468 3.719 17.55-6.29 25.036zm67.606-94.817c8.905 12.822 10.3 25.768 4.262 39.579-1.145 2.812 2.92 4.851 4.388 1.917 6.665-15.245 5.078-30.127-4.717-44.229-2.038-2.586-5.653.204-3.933 2.733zm25.995 77.94c3.944-4.996 1.631-10.595-.238-13.649 8.037-5.794 5.81-14.276-.226-21.235-2.43-2.232-5.53 1.113-3.433 3.34 9.006 10.889 1.09 14.077-3.562 16.473 4.327 4.455 6.074 8.923 3.7 12.103-1.864 2.606 1.65 5.348 3.76 2.967zm7.035-9.143c5.958-4.512 5.903-7.609 3.03-16.767-.759-3.208-5.205-2.203-4.724.788 1.123 6.315 4.116 8.223-1.168 12.14-2.386 1.814.034 5.567 2.862 3.84zm29.367-84.758c8.113-12.195-1.216-15.337-2.492-19.086-.553-3.253-5.011-2.575-4.768.44.906 6.501 9.985 6.501 3.331 15.907-1.727 2.475 1.907 5.374 3.929 2.739zm-3.486 22.619c5.832-6.24 6.398-13.058 1.637-19.717-2.114-2.577-5.65.358-3.895 2.785 3.456 4.834 3.073 9.047-1.24 13.66-2.033 2.232 1.071 5.511 3.498 3.272zm11.91-32.409c-2.328-2.457-5.572.633-3.723 3.011 3.337 4.2 3.935 7.497-.21 10.754-2.36 2.006.357 5.664 2.995 3.736 6.164-4.902 5.995-11.361.938-17.501zm11.757 33.671c-.052-2.503-3.405-2.48-3.584-.215.18 6.088 6.415 9.671-.128 15.068-1.753 1.47.265 4.249 2.245 2.803 2.49-1.99 3.699-3.995 4.155-5.91 3.989 3.044 6.514 4.372 4.189 11.486-.696 2.24 2.629 3.367 3.416 1.111 5.176-14.573-7.695-11.48-10.293-24.343zm-2.782 20.363c-2.14-.938-3.665 2.154-1.51 3.258 5.73 2.636 4.234 5.63-1.549 11.604-1.69 1.654.79 4.19 2.512 2.567 6.676-6.147 9.631-13.144.547-17.429zm117.146-44.607-23.945 2.395c-2.222.11-2.045 3.692.176 3.583l24.127-2.403c2.364-.237 2.006-3.811-.358-3.575zm18.22-35.838-27.237 21.55c-1.826 1.567.371 4.272 2.228 2.817l27.238-21.55c1.852-1.657-.404-4.208-2.228-2.817zm3.248 14.797-23.048 12.572c-2.058 1.123-.337 4.276 1.721 3.153l23.048-12.571c2.064-1.127.343-4.28-1.721-3.154zm-.002 49.13-26.04-15.863c-2.096-1.15-3.846 1.75-1.868 3.068l26.04 15.864c2.047 1.14 3.866-1.697 1.868-3.068zm-9.733 8.479-22.748-17.061c-1.966-1.394-4.01 1.431-2.156 2.874l22.748 17.06c1.96 1.354 3.998-1.337 2.156-2.873zm44.97-43.648c7.53-17.47 4.887-36.796-8.078-59.083-1.178-2.024-4.283-.217-3.106 1.807 12.353 21.232 14.932 39.503 7.884 55.854-.932 2.165 2.367 3.586 3.3 1.422zm21.694-17.157c-1.058-22.554-5.867-40.06-14.292-52.033-1.366-1.941-4.303.126-2.937 2.067 8.025 11.405 12.616 28.273 13.642 50.134.11 2.337 3.697 2.168 3.587-.168zm-26.925 105.049c7.794-15.59 12.326-40.946 4.879-62.452-.781-2.254-4.174-1.078-3.393 1.176 7.104 20.518 2.76 44.754-4.7 59.67-1.058 2.117 2.155 3.724 3.214 1.606zm23.656 3.315c5.946-19.369 5.933-37.214-.036-53.042-.863-2.287-4.223-1.02-3.36 1.268 5.68 15.065 5.67 32.13-.037 50.72-.679 2.21 2.754 3.265 3.433 1.054zM57 279.74c-14.822 2.435-21.852 9.832-16.854 16.67 3.146 4.095 41.243 53.238 78.786 81.396 4.455 3.341 14.069 5.548 26.448 6.928l19.805 28.397c.782 1.032 2.04 1.02 2.85.125l7.56-9.024c10.295 9.816 18.13 1.021 23.394-17.59 36.154-.941 72.876-2.073 92.345-8.391 8.92 11.341 19.766 12.201 31.09 6.092 19.745-10.905 52.892-47.868 55.384-65.374-.045-2.534.699-1.923-14.135-3.067 14.452-26.818 10.397-45.325 36.371-43.004l58.938 49.027c2.293 1.904 5.77 1.326 7.212-1.292 9.486-16.476 14.198-41.76-.018-64.515 12.118-19.666 12.373-42.533.806-69.785a4.796 4.796 0 0 0-4.87-2.896c-4.369-1.707-54.055 48.977-66.719 48.8-2.65-.747-11.863-6.812-19.95-12.2 3.949-.997 13.895-4.47 11.704-7.854-23.696-31.725-51.258-45.662-83.432-42.614l-26.931 19.983c-48.916 1.955-110.375-1.836-170.191 26.845-14.796-6.583-24.759-1.09-30.356 15.31-16.94 9.518-30.15 18.669-36.673 24.424-7.958 9.951 12.716 20.405 17.436 23.61zm302.413-70.282a942.444 942.444 0 0 1 11.91 7.835c5.271-1.035 9.156-2.46 11.888-4.36a147.246 147.246 0 0 0-8.821-10.535l-14.977 7.06zm-17.667-10.633c4.459 2.41 9.234 5.284 14.087 8.35l15.946-7.518a107.81 107.81 0 0 0-11.94-10.496l-18.093 9.664zm-19.392-6.097c13.93 2.402 9.056 1.229 15.52 4.093l18.796-10.033a82.01 82.01 0 0 0-13.828-7.737c-.339.674-7.185 4.759-20.488 13.677zm-21.533-2.21c6.326.432 11.684.958 16.099 1.49l22.049-14.53c-2.415-.902-4.858-1.612-7.339-2.254l-30.809 15.294zm-18.177-.845c3.902.103 7.552.246 10.976.419l32.408-16.145c-6.774-1.199-13.785-1.5-21.068-.852l-22.316 16.578zm-176.07 51.799c4.966 8.276 2.003 27.85-19.256 29.8 1.767 4.948 4.04 8.68 6.827 11.139 3.68 3.244 8.336 4.43 14.664 3.727 13.028-1.447 18.488-17.926 18.077-28.607-.434-11.297-7.49-25.809-22.05-32.647-14.252-7.296-17.422.52-21.379 11.802 5.606-5.876 15.17-8.46 23.117 4.786zm-23.653 1.85c.173 4.524.508 8.676.986 12.492 13.235-3.92 4.929-17.202-.986-12.492zm91.32 147.327-4.436-4.265-7.318-.315 7.33 8.552c1.477 1.922-1.127 4.085-2.726 2.339l-9.582-11.179a292.545 292.545 0 0 1-7.419-.572l16.699 23.942 16.646-19.873-3.153-2.646a568.927 568.927 0 0 1-5.131-.097l1.583 1.527c1.65 1.865-.819 4.129-2.492 2.587zm13.1-.44-9.439 11.268c8.126 8.386 12.776-1.072 17.329-14.798-3.393.02-6.562.027-9.294.01 1.3.991 2.527 1.959 1.404 3.52zm139.913-13.23c-6.049-1.193-18.296-4.385-18.265-5.492a117.8 117.8 0 0 1-13.969 5.608c9.41 10.799 20.337 8.82 32.234-.115zm4.158-3.16c3.82-3.055 7.754-6.59 11.622-10.41-5.404-1.274-9.693-4.447-11.676-6.127a109.68 109.68 0 0 1-18.337 12.173c6.973 2.17 13.873 4.277 18.391 4.364zm25.958-26.226-12.607-3.33a113.607 113.607 0 0 1-10.618 10.653c2.205 1.774 6.724 4.85 11.978 5.364a196.47 196.47 0 0 0 11.247-12.687zm12.144-17.364-13.677-.696a130.032 130.032 0 0 1-8.506 11.693l12.474 3.295c3.862-4.984 7.202-9.87 9.71-14.292zm-7.652-10.871a151.718 151.718 0 0 1-3.836 6.69l13.347.679c1.141-2.331 1.999-4.486 2.494-6.385l-12.005-.984zM74.55 243.645a318.819 318.819 0 0 0-9.148 5.608c7.172 13.242-1.658 17.233-5.383 3.516-4.947 3.32-9.062 6.342-12.131 8.859 7.5 7.32 14.014 7.32 22.307 17.653 8.456 7.665 19.101 19.455 22.586 27.816 1.21 2.901-3.211 4.744-4.42 1.843-2.585-6.201-10.172-15.156-17.286-22.202-1.496-.16-9.522-.744-22.004 5.54 7.505 9.55 42.392 52.953 75.609 77.865 13.087 8.772 86.577 7.988 142.029 3.318 68.393-7.79 88.61-59.757 98.326-84.73 5.792-20.483 20.916-27.887 38.977-24.99l56.492 46.991c6.464-14.435 8.31-34.274-3.977-51.845a4.789 4.789 0 0 1-.03-5.444c10.988-16.099 12.258-35.091 3.834-57.92-25.185 21.426-50.922 45.989-65.172 46.3-6.33 1.492-57.518-37.882-67.046-38.4-1.476 19.08-12.245 25.4-12.245 25.4-5.731-3.822-12.729-21.605-15.325-28.642-7.246-.501-15.848-.883-25.866-1.003-9.992 14.928 6.321 22.56-16.676 36.229-8.994-4.919-17.403-24.524-19.998-35.554-6.181.283-12.689.658-19.536 1.142-6.97 8.638 3.035 23.646-16.339 39.002-5.388 2.993-8.3-25.009-18.477-35.784-3.577.351-6.873.69-10.24 1.197-1.08 17.204-6.571 31.381-8.617 36.142 7.521 17.436-2.823 59.311-22.508 72.877l-2.717-3.942c20.505-14.668 26.283-58.44 21.253-66.7-10.536-17.298-10.504-19.369-28.734-27.48a307.026 307.026 0 0 0-15.361 6.053c60.071 54.173-39.81 122.026-42.177 21.285zm-2.49-130.244c0-7.156-7.8-11.654-14.007-8.075s-6.207 12.573 0 16.15c6.207 3.58 14.008-.918 14.008-8.075zm-17.007 13.257c-10.189-5.874-10.189-20.64 0-26.513 10.189-5.874 22.994 1.508 22.994 13.256s-12.805 19.13-22.994 13.257zm10.053 50.197c0-3.965-4.322-6.456-7.76-4.474-3.44 1.983-3.44 6.966 0 8.948 3.438 1.983 7.76-.509 7.76-4.474zm-10.76 9.655c-7.421-4.278-7.421-15.031 0-19.31s16.746 1.099 16.746 9.655-9.326 13.933-16.747 9.655zm-17.788-28.156c0-10.346-11.277-16.847-20.25-11.674s-8.972 18.175 0 23.348 20.25-1.328 20.25-11.674zm-25.05 19.963c-15.343-8.846-15.343-31.08 0-39.926s34.628 2.271 34.628 19.963-19.283 28.809-34.627 19.963z" clip-rule="evenodd"/></svg>