<svg xmlns="http://www.w3.org/2000/svg" width="310" height="512"><path d="M252.398 291.155c3.228-2.033 9.937-3.06 20.11-3.06 2.773 0 5.082.515 6.932 1.53 1.842 1.027 3.348 3.7 4.507 8.023 1.15 4.335 1.842 10.96 2.082 19.87.228 8.918.347 21.529.347 37.827 0 34.138 1.04 61.78 3.121 82.912 2.078 21.133 3.12 39.093 3.12 53.877 0 7.128-1.278 12.226-3.815 15.283-2.545 3.057-7.975 4.583-16.294 4.583-2.773 0-5.095-.763-6.937-2.293-1.85-1.527-3.704-4.464-5.545-8.787-1.854-4.335-3.585-10.58-5.199-18.723-1.626-8.155-3.36-18.851-5.202-32.093-1.854-13.245-8.786-19.87-20.801-19.87-1.854 0-5.202.512-10.057 1.526-4.85 1.027-10.52 2.042-16.985 3.057a1020.556 1020.556 0 0 1-20.805 3.057c-7.4 1.027-14.333 1.53-20.801 1.53-31.897 0-58.136-6.617-78.702-19.87-20.573-13.242-36.867-29.42-48.882-48.523-12.027-19.107-20.457-39.093-25.312-59.99C2.43 290.136 0 271.797 0 256.002c0-31.581 4.387-62.663 13.177-93.23 8.775-30.57 22.536-57.816 41.255-81.77 18.723-23.937 42.405-43.423 71.074-58.459C154.162 7.523 188.368 0 228.129 0c26.35 0 46.456 3.188 60.325 9.553 13.869 6.377 20.805 16.43 20.805 30.187 0 3.568-1.39 7.26-4.163 11.08s-6.014 7.14-9.705 9.933c-3.708 2.805-7.4 5.098-11.096 6.877-3.704 1.794-6.705 2.677-9.014 2.677-3.24 0-6.589-1.53-10.053-4.587-3.468-3.057-10.293-9.67-20.458-19.867-4.627-4.586-9.014-7.511-13.173-8.79-4.16-1.262-9.254-1.91-15.255-1.91-22.655 0-44.032 7.524-64.138 22.543-20.11 15.032-37.79 34.007-53.045 56.934-15.255 22.922-27.282 48.023-36.06 75.269-8.787 27.262-13.174 53.11-13.174 77.566 0 27.51 2.657 49.933 7.975 67.246 5.31 17.325 12.71 30.698 22.188 40.12 9.47 9.434 20.457 15.927 32.935 19.487 12.483 3.568 25.884 5.35 40.22 5.35 12.482 0 23.922-1.65 34.322-4.967 10.4-3.308 19.415-7.512 27.043-12.61 7.627-5.086 13.629-10.7 18.028-16.813 4.387-6.114 7.044-12.227 7.975-18.34l5.546-45.85c.923-4.587 3-7.891 6.24-9.933z"/></svg>