<svg version="1.1" xmlns="http://www.w3.org/2000/svg" width="310px" height="512px"><g><path d="M252.3979034,291.1552734c3.2284241-2.0337524,9.9370575-3.0606384,20.109848-3.0606384c2.7729492,0,5.0823975,0.5154419,6.932373,1.5303345c1.8419189,1.0268555,3.3482666,3.6999207,4.507019,8.0231628c1.1506958,4.3352051,1.84198,10.9599304,2.0817261,19.8700867c0.2277222,8.9181824,0.3475952,21.5282898,0.3475952,37.826355c0,34.1383972,1.0388794,61.7799377,3.1205444,82.9126587c2.0776978,21.1327209,3.1205444,39.092926,3.1205444,53.8766479c0,7.1281433-1.2785645,12.226532-3.8157959,15.2831726C286.2565918,510.4736938,280.8265991,512,272.5077515,512c-2.7729492,0-5.0944214-0.7631531-6.9363403-2.2934875c-1.8499756-1.5263062-3.7039185-4.4630737-5.5458984-8.7863159c-1.8540039-4.3352051-3.5840454-10.5803223-5.198288-18.7233582c-1.6262207-8.1550293-3.3602905-18.8512573-5.2022705-32.0926514c-1.8539429-13.2454224-8.7863159-19.8701172-20.8010864-19.8701172c-1.8539429,0-5.2022705,0.5114441-10.0569153,1.5263062c-4.850647,1.026886-10.5204163,2.0417786-16.9852905,3.0566406c-6.4808655,1.026886-13.413208,2.041748-20.8050537,3.0566406c-7.3998718,1.0268555-14.3322144,1.530304-20.8010864,1.530304c-31.8968658,0-58.1359558-6.6166992-78.7012939-19.8701172c-20.5733337-13.241394-36.8673706-29.4195862-48.8821411-48.522522c-12.0267487-19.1069641-20.4574585-39.0929565-25.3121109-59.9899292C2.4293213,290.1363831,0,271.7966003,0,256.0019836c0-31.581192,4.3871689-62.6629639,13.1774826-93.2292938c8.7743301-30.5703125,22.5351639-57.8163071,41.2545395-81.7699203c18.7233734-23.9376297,42.4052734-43.4241638,71.0736847-58.4596024C154.1621399,7.5237122,188.368454,0,228.1286469,0c26.3509521,0,46.4568024,3.1884878,60.3255157,9.5534763c13.8687134,6.3769751,20.8050537,16.4299011,20.8050537,30.1867466c0,3.5680695-1.3904419,7.2600021-4.1633911,11.0797958s-6.0133667,7.1401329-9.7053223,9.9330597c-3.7078857,2.8049088-7.3998413,5.0983849-11.0957642,6.8764229c-3.7039185,1.7940216-6.7045898,2.6770554-9.0140381,2.6770554c-3.2404175,0-6.5887451-1.5303192-10.0529175-4.5869522c-3.4682007-3.056633-10.2926788-9.6693459-20.4574738-19.8661156c-4.6269226-4.5869484-9.0140686-7.5117264-13.1734924-8.7903175c-4.1594238-1.2626076-9.2538147-1.909893-15.255188-1.909893c-22.6550293,0-44.0314941,7.5237122-64.1373291,22.5431671c-20.109848,15.0314369-37.7903595,34.0065346-53.0455627,56.9332848c-15.255188,22.9227448-27.2819366,48.0231018-36.060257,75.2690887c-8.7863159,27.2619629-13.1734924,53.1094971-13.1734924,77.5665436c0,27.5097046,2.657074,49.9330139,7.9752197,67.2459412c5.3101501,17.3249207,12.7099915,30.6981812,22.1875458,40.1197815c9.469574,9.4336243,20.4574585,15.9264832,32.9357147,19.4865417c12.4822388,3.5680847,25.8834839,5.3501282,40.2196808,5.3501282c12.4822388,0,23.9216309-1.6502075,34.3221741-4.9665527c10.4005432-3.3083496,19.4146118-7.5117188,27.0422058-12.6101074c7.627594-5.0863953,13.6289978-10.7001953,18.0281372-16.8134766c4.3871765-6.1132507,7.0442505-12.226532,7.9752197-18.3397827l5.5458984-45.8495178C247.0797577,296.5013733,249.1574554,293.1970215,252.3979034,291.1552734z"/></g></svg>