<svg version="1.1" xmlns="http://www.w3.org/2000/svg" width="512px" height="512px"><style type="text/css">.st0{fill-rule:evenodd;clip-rule:evenodd;}</style><path class="st0" d="M497.6150818,207.1244354c-13.7594299-49.8694153-125.5905762-152.0038452-217.0346375-193.115036C251.4322662,0.9049717,216.0166016-3.1670365,185.1700439,2.4740868C92.4628983,19.4281788,27.2413406,99.6205063,21.7171841,152.461792c-2.710371,25.9262543,11.2634716,45.3318939,18.9730549,53.8973846c20.8358879,23.149231,62.3616867,40.8252563,89.061348,55.4757538c-38.5994186,32.9112549-56.3065186,48.9818115-73.7415314,67.2901001C29.92099,356.520874,11.5599794,386.676239,11.5039062,408.2749634c-0.0197287,6.9570923-1.143014,29.1433716,7.9069195,46.6559448c3.4033375,6.5857849,13.0848446,28.5576477,42.2507935,45.0148315c18.6413307,10.5185852,45.2048912,14.3886108,71.2044373,10.6781311c80.4651337-11.4836121,188.2283325-79.7288513,265.1300964-143.2853394c49.0110168-40.5058899,84.8338013-79.7603149,95.1818237-99.0872498C501.5272522,252.6573334,502.4581604,224.6775665,497.6150818,207.1244354z M271.6337585,189.9962463c-19.9453278,7.1608887-83.2007294-17.5865631-81.2643585-51.3590546c2.8237305-49.8882904,37.5935059-59.4165802,81.5854645-38.1476135C307.9838562,117.9086761,344.9829407,163.6620636,271.6337585,189.9962463z M198.6979523,13.1998215c-49.8703766,5.2555161-59.4214935,11.6740837-104.6001892,45.8555946c-15.1418228,11.4560966-43.0104904,39.3307076-50.1511269,72.3997345c-2.7195435,12.5944824,0.4950905,23.4676056,9.5656357,31.093277c29.0443764,24.4178772,77.6557007,44.2282257,117.5366364,63.3781738c11.6811829,5.6090546,3.9468842,15.7793884-14.8901672,32.0871582c-47.5327759,41.1504211-111.7977295,91.2418213-116.2841797,129.4113159c-2.1141281,17.9863586,4.0434303,42.4263306,25.8748436,54.9335327c25.502533,14.610321,78.4420471,5.0743408,113.7917786-8.0891724c51.6569366-19.2359314,119.5133514-61.6893005,173.3847809-103.4199524c56.0195007-43.3946228,108.1053467-98.5115814,110.6817932-107.5010681c3.1638184-11.0389557,2.8484497-21.2348633-3.2573242-32.957489c-9.5883179-18.4087372-22.4072571-32.087616-36.1714478-47.398407c-36.9316711-38.9351807-76.0075989-73.1471863-122.759491-99.3641968C267.6581726,24.6960449,237.9538422,9.062892,198.6979523,13.1998215z M155.7414093,241.5993805c-25.2700806,21.3361359-42.0719376,35.7225189-63.1364365,54.9751129C41.8775558,342.9384155,7.4105,378.2295532,25.1802845,426.4712219c20.498682,55.6500854,65.4336395,52.8283081,118.1264191,42.4845276c135.8224487-26.788147,359.0899048-198.4322815,347.7099915-261.8312378c-9.2080688-51.2992554-133.9450684-153.2896729-207.7991638-189.5826874C260.14505,6.2036104,233.5543213,0.3395815,206.8834534,1.5944668C105.3308334,6.3876009,26.0239429,98.8466339,30.0752258,148.9427185C34.0165939,197.679657,157.1949921,240.1457825,155.7414093,241.5993805z M275.2205505,173.7200165c-0.3341064,0.2514496-0.7272644,0.4812775-1.1731567,0.6898041c0.1644592-9.1709137-41.7307587-19.836853-45.803772-10.065033c-11.0205536-8.3250427-16.4232178-21.3586273-4.5421295-39.7645721C236.1229858,105.3371353,320.8495789,139.3791504,275.2205505,173.7200165z"/></svg>