<svg version="1.1" xmlns="http://www.w3.org/2000/svg" width="512px" height="512px"><path d="M256.791626,12.0860119c-140.4002686,0-255.9001312,108.4139633-256.7864075,242.3774872c-0.431334,65.2795105,25.8778915,126.7778625,74.0821457,173.1602173c48.0218506,46.2085266,112.8732376,71.8825378,181.1270142,72.2902832c140.4002838-0.0128784,255.9011993-108.4150391,256.7853394-242.3775024c0.0236206-3.5129089-1.3562317-6.8884735-3.8305054-9.3799133c-2.4764099-2.4914398-5.8412476-3.8927307-9.3541565-3.8927307H248.3065796c-7.2811737,0-13.1846466,5.9034729-13.1846466,13.1846619v215.2141724c-54.0937958-4.5923157-104.2047119-26.9487-142.7500916-64.0391235c-42.9424095-41.3200989-66.3803711-96.0072327-65.9973145-153.9862366C27.164238,135.1406555,130.7562714,38.4553223,256.7133179,38.4553223c69.9790955,0.4173851,135.7811279,30.4605484,179.2514343,82.4223404c4.6738586,5.5869522,12.9893799,6.3219376,18.5709534,1.6523743c5.585907-4.6727829,6.3262329-12.9883041,1.6523743-18.5731125C407.7327576,46.038002,334.5368958,12.5506077,256.791626,12.0860119z M261.4912415,473.4867249v-86.3890991h116.464447c7.281189,0,13.1846619-5.9034729,13.1846619-13.1846619c0-7.2811584-5.9034729-13.1846619-13.1846619-13.1846619h-116.464447v-90.0951233h223.628418C477.2547913,382.2241821,380.2690125,470.842926,261.4912415,473.4867249z"/></svg>