<svg xmlns="http://www.w3.org/2000/svg" width="512" height="512"><path d="m256 491.816 94.272-290.14H161.734L256 491.816zM29.606 201.676l-28.65 88.17a19.517 19.517 0 0 0 7.093 21.822L256 491.816 29.606 201.676z"/><path d="M29.606 201.676H161.73L104.946 26.927c-2.92-8.991-15.64-8.991-18.56 0l-56.78 174.75zm452.787 0 28.651 88.17a19.517 19.517 0 0 1-7.093 21.822l-247.95 180.148 226.392-290.14z"/><path d="M482.394 201.676H350.271l56.783-174.749c2.922-8.991 15.642-8.991 18.562 0l56.778 174.75z"/></svg>