<svg xmlns="http://www.w3.org/2000/svg" width="512" height="512"><path d="M144.02 255.51 0 152.094l55.831-7.613c46.36 22.95 134.657 75.417 162.737 90.409 8.131 3.737 2.46 12.762 94.215-12.055l-35.529-20.62c27.962-6.337 28.399-12.87 54.563.635 33.291-50.035 20.049-58.257 55.197-57.735-3.946 21.045-9.747 43.114-19.668 64.397l11.103 2.538v8.565l75.182 28.55-32.992 12.055-51.39-18.4c-35.327 1.312-28.805 12.342-74.548 25.696L512 349.408c-21.36 4.864-38.994 25.197-68.52 15.544l-217.3-72.962c-23.332 6.718-84.567 28.75-111.714 31.912-18.109 2.11-73.82-5.167-2.803-39.208z"/></svg>