<svg xmlns="http://www.w3.org/2000/svg" width="512" height="512"><path d="M219.23 296.46c-5.671 12.448-16.372 19.836-28.558 22.77-75.797 17.209-92.672-96.291-38.338-125.741 37.824-15.714 60.188 1.858 66.929 15.109v-17.766h20.228c.759 139.008 24.696 193.732-118.867 193.06C48.694 359-.008 311.063 0 256.024c.011-80.634 104.555-145.983 233.504-145.96 84.195.014 157.833 29.383 198.9 71.181-37.626-24.945-94.208-39.318-157.315-39.318-113.28 0-205.113 51.101-205.113 114.139 0 39.521 36.227 74.39 91.075 94.877 42.964 13.611 60.959-12.234 58.18-54.483zm212.717 34.84c-57.002 35.728-133.006 43.277-197.245 36.688-12.235 11.105-34.088 23.78-63.85 28.757 106.144 17.176 203.316-9.18 261.095-65.445zm-68.122-114.36h38.234v-26.107H295.115v26.107h38.234v102.437l30.475.073V216.94zm84.571 50.199h55.677V241.03h-55.677v-24.092H512v-26.107h-94.081v128.69l30.476.073v-52.457zm-191.176 52.09 21.228.073V158.751H257.22v160.478zm-38.955-65.31c0-37.5-31.573-61.065-56.694-42.315s-25.122 65.88 0 84.63 56.694-4.815 56.694-42.315"/></svg>