<svg version="1.1" xmlns="http://www.w3.org/2000/svg" width="512px" height="512px"><path d="M265.3861084,218.7819061c1.113739-2.1760559,2.1938171-4.7673187,2.0918884-10.3500977c-0.0383301-2.1082611-1.1240234-7.5026093-1.9759521-9.1970673c-0.5021667-0.9963989-1.0828857-1.7608643-1.6981812-2.570694c-0.374054-0.4918823-0.7602844-1.0001373-1.1324768-1.5719604c-0.1683044-1.0595245-0.3076477-2.0736694-0.4432373-3.0532227c-0.6611328-4.8023987-1.2334595-8.9506683-4.5270081-13.5496826l-0.3160706-0.447464c-0.9229736-1.3105927-1.4803314-2.1021881-3.3318939-2.6015472c-4.2567444-1.1483459-13.5777283,0.4338989-17.6002197,1.6430359c-6.1630249,1.8534393-10.8097229,5.1152039-15.7294769,8.5686646l-4.5143738,3.1565552l3.6816406-1.4204712c1.7833099-0.6882629,3.6442261-1.488739,5.614563-2.335968c4.3572693-1.8744965,8.8627625-3.812561,12.92453-4.688324c3.4230652-0.7382812,12.5037231-1.7019501,14.5535431-0.2197571c2.8400116,2.0535736,3.1317596,7.1238861,3.3655548,11.1977997c0.0448914,0.7799072,0.0878906,1.5153961,0.145874,2.177002c-0.6153107,0.1239166-1.2072601,0.2646484-1.8001404,0.4049225c-1.4672241,0.3483276-2.8531036,0.6770325-4.5999298,0.7761536c-1.2203522,0.0696716-2.6211853-0.0570374-4.1066589-0.1907654c-1.6911926-0.1510162-3.4403687-0.3071899-5.0048523-0.1720581c-1.6233978,0.1430664-2.963913,0.5447083-4.3834534,0.9701996c-1.1100159,0.3324432-2.2578888,0.6765747-3.5759735,0.8939972c-1.8183746,0.2987671-3.2580109,0.4563446-4.5279236,0.5952148c-3.726532,0.4072418-5.7791595,0.6316833-10.4454803,3.7410126c-2.5809784,2.3471985-1.0969238,7.2379608,0.2445374,10.7124634c1.7856445,4.6284637,9.1839752,9.8455963,13.6155853,11.6822052c5.3494568,2.2181396,12.6729889,3.6442261,18.6957397,3.6437531c0.0411377,0,0.0832214,0,0.1243744,0C258.018158,226.5529022,262.6751404,224.0761871,265.3861084,218.7819061z M252.4924316,220.8485565c-3.1963043,0.4909515-8.4354095,0.0621948-12.2082214-0.5788422c-3.4651489-0.5900726-6.6118774-2.1003265-8.9665527-3.3501282c-4.6088257-2.444458-6.3841858-4.7275848-9.1545258-8.7715912c4.6279907-3.8560333,4.7682648-3.86586,10.8644257-4.2791901l0.6069031-0.0416107c-0.0060883,0.5283508-0.0486298,1.0861664-0.0935211,1.6687469c-0.1295166,1.6902618-0.2767944,3.605896,0.520874,5.2910156c2.462677,5.2040405,5.6533661,6.8676453,12.1988678,6.3612671c4.4970703-0.3488007,9.0670929-3.9565582,8.931488-9.3906403c-0.1000519-3.9893036-1.355011-6.043335-3.5179901-7.8252411c0.4862823-0.0621796,0.9772186-0.1295166,1.470047-0.1973114c2.9625244-0.4081879,6.0260315-0.8299255,8.1225891-0.013092c1.0333252,0.3506775,1.8973999,2.9896393,2.203186,6.722702v0.000473c0.2824097,3.4445801-0.5704346,8.2207947-3.109314,10.5679779C257.7825012,219.3981628,255.8701477,220.3300323,252.4924316,220.8485565z M222.848587,164.6969604c2.5059357-6.5603943,2.5864105-11.5809631,2.2570038-18.5541077c-2.2675934,3.2395477-4.0707092,6.2654724-7.8407135,8.078186c-2.1268005,1.0217438-5.2226257,0.6004028-6.8151093,1.5560608c-1.5904846,0.955658-0.3331909,2.5471344-2.5222321,3.1667328c-2.1899719,0.6195221-6.7011414-0.5438995-9.5939789,0.5323792c-2.8928528,1.0754089-4.7410278,4.0371552-6.2061005,6.0097809c-1.4651337,1.9726105-2.8421173,3.3745575-3.5334778,5.3490448c-0.6913605,1.9745331,0.1704254,4.4584961-1.9726105,4.8760376c-2.1430969,0.4174805-2.72435,1.5502777-4.3838043,3.1877594c-1.6604614,1.6364899-1.5024719,5.0694427-2.5691681,6.889801c-2.0109558,3.4338837-8.2265778,7.0180817-11.429718,9.3814087c4.6902313-2.2493591,10.1561127-4.2899323,14.1999359-7.6328735c1.9707489-1.6288452,4.0592041-4.6404419,6.1668243-6.2127686c2.1076813-1.5733032,4.1990051-1.3434906,5.4965515-2.9819183c1.2994385-1.6384125,0.1005402-3.1197968,1.3118896-5.6085358c3.236618-6.6513367,5.4505005-10.2327423,10.9709625-8.7561035c-0.2192841,1.1816559-0.4864349,1.1299438-0.6568756,3.5439911c-0.1704865,2.4149933,0.3954468,8.0676117-0.3619537,10.9183197c-0.7593842,2.8487701-2.6687622,3.6387939-4.0026703,5.4582214c2.2876282-0.8206482,5.0339508-1.3636169,7.7937164-2.9273376C217.166275,176.430191,220.0265656,172.0808716,222.848587,164.6969604z M264.8413391,164.3312073c1.253418,0.9537201,0.9766846,2.4293671,2.3642578,2.8573761c1.3875122,0.4280548,3.6473694,0.0957947,5.4725342-0.1464691c2.5490723,5.3758087,5.9599609,11.9256897,7.6472473,16.1275482s0.353363,4.5858612,2.4370422,8.9974213c2.0856323,4.4125061,6.9204712,11.1730194,10.6626587,16.4751892c-1.4737244-3.4329376-3.1418152-6.3439636-4.4211426-10.2997742c-1.2774048-3.9557495-1.875885-10.2556458-3.2222595-13.351532c-1.3482971-3.0967712-2.4791565-1.6642609-4.252594-4.7457733c-4.2325439-7.3551483-7.0861206-16.2616272-9.571991-24.3675079c-1.5799866,1.0523834-2.2828674,2.8756104-4.9688721,2.8085632c-2.6860046-0.0670319-6.5460205-2.2321014-9.5873108-3.8695984c0.1589661,2.7635651,0.5592041,5.8862915,2.3173218,7.4078674C261.4763489,163.7470398,263.585907,163.3774261,264.8413391,164.3312073z M508.0084534,89.5776291c-3.5995789-15.7933578-9.0328674-26.6580734-18.9716187-39.3211174c-7.9000244-10.0641785-18.6852722-20.7402306-29.8774414-27.0717525c-11.1395264-6.3037605-27.6070251-11.9544439-40.3083801-13.252882c-15.8460388-1.6212358-34.2852478-1.7954636-49.2962341,4.2563944c-5.8422241,2.3547335-12.1411743,7.0142889-16.5891724,9.6218023c-5.3997803,3.1647949-11.6632996,8.6268158-18.3529968,8.0618763c-2.9311218-0.2480469-6.2242737-1.5235157-8.578949-3.4635735c0.9106445,6.8485928,1.5809631,10.3523769,6.9108276,15.6047497c8.375,8.2533455,27.4577026,5.851738,38.1404724,5.1230316c8.8259888-0.6013489,16.0988464-3.8082848,25.6449585-3.6014442c7.790863,0.1704292,20.1503296,5.0282326,25.403656,7.6998596c9.3602905,4.7611351,18.356781,14.0151901,23.8552246,22.8584366c3.3782959,5.4333191,6.4980774,11.9860001,8.319458,18.5712967c1.8212891,6.5852966,2.4667053,14.2535934,2.4571228,20.57267c-0.0095825,6.3181381-1.1615601,11.3492355-2.0444336,17.0899277c-1.5580139,10.1312103-12.1698914,28.3961334-26.2721558,24.0726471c-12.9158936-3.9615326-21.9631042-16.6341095-29.6515198-27.2259369c-9.8735962-13.6005173-22.0923157-31.5034256-36.8821716-44.362793c-8.3059998-7.2220612-22.2263794-13.5286865-33.2663269-14.603096c-19.2081299-1.8691635-27.6051331,1.3138046-43.7662354,13.1255798c-4.5187988,3.3026733-7.5782776,7.6309586-12.5031433,10.5295334c-9.6351624-5.5137482-16.9788666-14.5332031-28.9294434-19.4302826c-11.9506531-4.8980179-15.736908-5.4007111-30.5545044-5.2187653c-14.8175964,0.1819382-28.5406799,3.6809311-42.4476318,15.0129242c-13.9059601,11.3319931-54.6596451,61.781189-62.6430206,66.9884949c-7.9823914,5.2063751-10.0181885,7.8473816-19.1372375,7.6951294c-9.1199799-0.1522522-25.2762871-14.1568756-26.3449173-32.9283447c-1.0686874-18.7704849-0.6301079-26.6829758,12.2292557-49.0664139c12.8593063-22.3834457,39.2569427-29.720417,55.3797607-32.414135c16.122757-2.6936646,26.8792267,4.5475693,44.3847656,4.0888863c17.5046082-0.4596214,37.0708313-2.3479538,36.2147675-24.0879059c-3.2069397,2.4571304-7.6989288,4.1855564-14.2976685,4.1271687c-6.5976868-0.0584469-16.9472504-8.1815739-28.2600708-14.6366501c-11.3138123-6.4550185-24.655777-7.9220734-44.6788101-8.260067c-20.0229874-0.3389874-41.685379,2.4446821-63.7940102,14.0668602C37.3919983,31.4238434,24.6341572,42.6304092,12.5169411,65.9101257C0.3997258,89.1898956-1.2090024,107.3656921,0.6467773,135.4113312c1.8557799,28.045578,8.7963095,46.4589081,26.7002125,68.8289642c17.9038448,22.3690643,33.9375916,30.5228729,62.227417,34.7726135c0.2776794,11.9582367,2.1267929,14.6528931-6.2434464,23.4578552c-8.3539276,8.7877197,2.2244568,14.8817139-12.9962997,23.6378784c-6.9692268,4.0093384-9.5949173,10.4835815-10.654953,17.7515869c-1.0600395,7.2689819,4.9841614,10.2843933,10.5812531,6.2970276c5.5970306-3.9883118,11.3750687-2.9522095,15.895813-1.4584045c2.713768,0.8963318,8.5262833,0.1867371,11.0073776-4.2621765c3.0393753-5.4476318,7.5697021-7.0065613,11.0495224-7.243103c-1.0762787,26.9079895-3.1312485,50.2767639,7.5708771,78.2209473c10.7000122,27.9403381,27.7956619,49.7501831,63.6044083,76.5777588c-27.1368713-27.5065613-47.2527771-46.6542969-57.1924667-79.1431274c-9.9396896-32.4897156-7.1885147-49.7348022-6.1897888-79.0195007c11.9688187-2.1143494,19.3230362-4.4642334,30.4634933-11.9477234l3.1935577,19.3976746c0.7048035,7.1291809-0.7785034,14.6777954,0.7861481,19.3977051c1.5647278,4.7208862,4.934433,0.2920837,6.6504059,5.041687c1.7160339,4.7495728,1.7504578,17.4767761,3.0259857,21.7466125c1.2754669,4.2689209,2.0913239,1.569458,4.1702423,2.3345642c2.0798645,0.7651367,6.0213013-0.1723328,8.2169952,2.2225952c2.196701,2.3948975,0.2949219,8.0762634,3.4013367,10.4481812c3.1063995,2.3719177,8.5100403,0.4213257,10.1589661,2.2684631c1.648941,1.848114,0.575531,2.8756104-0.6616669,4.1147156c-1.2372437,1.2391052-3.2883453,1.6575928-3.9711151,4.0486755s-0.5688019,6.007843,0.4385834,9.3096008c1.00737,3.3017273,2.2158661,6.1265869,5.1393433,8.402771c2.9234619,2.2752075,8.5875854,1.0944824,11.0619659,3.2098083c2.4753113,2.1152649-0.3658142,5.9724121,1.8299408,7.8081055c2.196701,1.8356628,6.6944122,0.2393799,9.0625305,1.2946472c2.3681183,1.0552368,4.9918823,1.6977844,4.3608398,4.6892395c-0.6320343,2.9924316-5.826889,6.6705017-7.3418121,9.4254761c-1.5148621,2.7539673-2.1622162,4.5005798-1.550293,6.7394104c0.6128082,2.2397766,2.076004,4.8606873,5.1249695,8.1068726c5.3969116,5.7454834,13.5497894,10.1379395,19.9052124,14.9047546c2.0817871,1.5627747,4.5034943,3.3362122,4.6299133,5.8153992c0.1273651,2.4791565-1.1203461,3.7278442-3.3448029,5.645874c-2.2244568,1.9180908-7.1943054,2.7530518-9.0098724,5.2475891c-1.8146362,2.4954529-1.6566467,4.9267578-1.3320465,7.7276611c0.3246765,2.8018494,2.6955872,4.716095,4.2411346,6.7882996c1.5455627,2.0722046,4.9737091,4.9937439,6.963562,5.9982605l-5.4007721-8.524353c-1.3166656-2.0760803-0.947052-5.2284241,0.4299316-7.3236084c1.3779907-2.0961609,4.9746399-0.9824829,7.2872314-2.394928c2.3125458-1.4114685,4.7505646-1.9237671,6.2616272-4.2209778c1.5100708-2.2972412,3.4463348-4.901886,2.5337524-9.1573486c-0.9135742-4.2554932-5.120224-10.9997253-7.6798096-16.4981384c2.9120178,2.4734192,6.2558899,4.3933716,8.7417145,7.4269714c2.4849548,3.0326538,3.5076447,7.3226624,5.941803,10.4922485c2.4351654,3.1705017,5.682312,5.5596619,8.5234222,8.3395386c-1.2793274,2.1057129-3.3266296,4.1357727-4.6949615,6.3171387c-2.7549744,4.3924561-6.3794556,9.6648865-4.9785004,15.4735413c1.4967499,6.2041626,5.0091248,8.1844482,11.2984924,13.3276367c-2.107605-3.592865-5.0885468-7.5409851-5.7502594-10.7709045c-0.6607361-3.2299194,0.6626587-4.9219055,2.1555328-6.7749023c1.4928894-1.8529053,3.8829956-2.5557861,5.8259277-3.8322449c-0.315979,2.3949585-2.0013123,4.3684998-0.947998,7.1905212c1.0514221,2.8210144,4.5255127,6.787262,7.3388977,9.8467407c2.8152771,3.0594788,6.2175293,6.0519714,9.5164185,8.4822693c3.2988586,2.4303284,6.2750549,3.6838074,9.4484558,4.4814758c3.1715088,0.7976685,6.1141357,0.1340942,9.1736145,0.2011108c-2.9330444-1.4181824-6.5593872-2.1871033-8.7905579-4.2516479c-2.2312012-2.0645447-2.6199646-5.0100708-3.9309082-7.5141296c2.7357788,1.8806763,5.1201477,4.112793,8.2084045,5.6430359c3.0900879,1.5302429,5.9273987,2.5184326,10.1503296,3.4501953c5.7043152,1.2572937,11.8041077,1.4564819,17.6089783,2.1152649c-4.5600281-2.2244568-8.8499756-3.5325317-11.6853638-6.1045532c-2.8353882-2.572052-3.3027344-5.5798645-3.9595947-8.0810547c6.7423401,3.4865417,11.8212891,8.5445251,17.3858337,9.8966064c5.5635376,1.3511658,9.3699036,1.8088989,15.5434265,1.1615601c6.1734924-0.6482849,10.8340454-2.8526306,13.6770935-4.4202271c-5.1862793,0.9317627-11.4124146,1.2956543-18.1078186-0.0497742c3.6694031-2.4371033,3.6244202-1.1835938,11.0063782-7.3092651c7.3819885-6.1256409,12.3173828-13.1016235,13.7518311-17.447113c-4.6251221,5.0033569-11.3119507,8.7781372-18.2074585,10.7498169c2.5462036-2.9905701,6.4435425-6.026062,6.7183838-10.5295715c-4.0562744,1.7121582-8.5396729,2.0971069-11.8797607,0.8762207c-5.5731201-2.0358582-13.2768555-10.5870361-14.2870789-15.8594666c-0.7344971-3.8389587,1.9457703-4.1175842,4.6385193-6.4378357c2.6907959-2.3192444,8.0924988-4.5666809,10.8378906-7.428894c2.7463074-2.8612366,4.1184998-5.1996765,4.9209595-8.4219055c0.8005371-3.2223206,0.6339111-6.6820374-0.2240601-9.8956909c-0.8580017-3.2135925-3.8867798-7.2096252-4.7763977-9.95401c-0.8896179-2.7444458-1.2094116-3.7077637-0.1493835-6.3956909c1.0581055-2.6869507,4.1463318-5.9953918,6.2203979-8.9935608c3.4128418-0.6779785,5.8633118-1.3387146,10.241333-2.0348511c4.3780823-0.6952209,11.2946472,0.1234741,14.8817749-1.5675964c3.5861511-1.6910706,5.0856934-8.28302,5.7608032-11.1902466c1.653717-7.1349487,0.7201233-12.2397766-0.4241943-19.3852844c6.8045044-2.9876404,12.4006042-4.1252441,17.1320496-10.4768677c1.8998413-2.5509949,2.0137634-5.5923157,1.9859924-7.9316711c-0.0258179-2.3403015-0.927887-3.8370361-2.7060852-5.9235535c-1.7801514-2.0865784-5.7809143-4.3034058-7.6999207-6.2817383c-1.9189758-1.9773865-2.4648132-3.6455078-3.6953125-5.467804c6.6829529-4.1175842,13.3802795-10.0286865,17.4930725-14.0572815c4.112793-4.0275574,5.4476929-5.8306885,6.9664307-9.8975525c1.5187073-4.0667725,2.0932312-8.6928406,1.8854675-13.8178711c-0.2078552-5.1249695-1.5992126-12.7923279-3.1159973-16.536438c-1.5167847-3.7441711-3.1274414-3.9634094-5.0014038-5.4639587c-1.8740234-1.5005188-3.9931641-3.101593-6.230072-3.5258179c-2.2349854-0.4251709-4.1444092,1.1270447-6.9931946,1.5100708c-2.8488159,0.3830566-7.2086792,1.48526-9.9933167,0.7775879c-2.7827454-0.7086182-3.3122559-2.9618225-4.9688721-4.4432068c-0.4098206-2.0568848-1.113678-4.0285034-1.4928894-6.5641785c-0.381134-2.5376282-0.0746765-5.474472-0.7928772-8.64505c-0.7162476-3.1705322-2.1526184-6.5958252-3.2298889-9.893692c1.9937134,1.1270599,3.1609802,1.1500397,6.620697,3.3802185c8.291687,5.3433228,16.2098999,12.8143768,26.5508423,13.9711151c6.6915894,0.7507629,10.3006897,5.5453186,16.3421021,6.602478c6.0423279,1.0581055,14.7285156,1.0342102,20.2939758,0.9230957c5.5654297-0.1110229,9.2329712-0.5180054,12.7080688-2.3919983c6.853363-3.6953125,8.1211853-11.9295502,5.6860962-14.0610809c-2.4370422-2.1315918-3.426239-1.6728973-5.274353-1.1433868c-4.6347046,1.3291321-6.8908081-2.8727417-8.0705261-6.6417542c-0.8302307-2.6553802-0.9336243-5.6755829-1.5617981-8.9141388c16.0471191-3.0728607,30.1580505-8.690979,42.3786621-20.3303986c12.3910828-11.8002625,26.9472656-35.8728638,31.3310852-51.5436554C513.8851318,140.0440674,512.6096191,109.7462006,508.0084534,89.5776291z M328.6458435,73.7411957c11.2889404,1.0332108,22.7846985,6.2558975,31.1807556,13.8447113c11.8602295,10.7229843,21.8688965,24.480896,31.4196777,37.6437683c-10.2850647-9.1012802-27.0468445-21.5597076-43.4526062-30.0444412c-11.5321655-6.9721451-21.8338318-10.5190048-33.7901306-8.1997452c-3.6716003,0.7116394-11.7725525,3.8330078-17.2681885,5.9132767c-0.5842285-0.2796021-1.1655884-0.5634766-1.7580566-0.8304596c-3.323761-1.4976196-6.489502-2.0683441-9.7328491-3.1025467C301.1862488,75.8258514,307.467041,71.8030701,328.6458435,73.7411957z M173.0161133,87.4738617c14.7831116-12.7482605,27.4500122-13.8160095,40.2135925-14.0984802c12.7635651-0.2834625,18.2495422,0.4701996,29.381424,5.4467087c11.1318665,4.9775009,16.5613861,10.9461288,24.4968414,18.1883011l0.0900269,0.0613098l3.9011536,4.6949768c0,0,12.5978699-0.5151443,23.4425354,24.5504456c1.2745361,3.4770203,3.8513794,3.1121368,6.2433777,4.8080139c1.448822,1.0256042,2.2551575,2.4342194,2.3786621,4.3215485c1.1222839-2.0923004,1.2362366-3.217453-0.1685181-4.7333069c-1.6135254-1.7437439-5.2475586-3.1235962-5.2887268-5.8833542c-0.0881348-5.9523239,2.1976318-8.5282211-0.4414368-15.3643646c-3.1610107-8.1854324-9.7481689-11.1021805-15.9963989-14.7640076c3.0518188,0.914505,5.2456665,1.0361328,9.1583252,2.7434616c8.5444641,3.7297897,22.8210449,11.355957,26.5163269,20.8599319c2.6314392,6.7653046,0.8474731,11.1596298-3.7986755,16.412941c-3.0192871,3.4137726-11.5637512,7.3379669-12.7368164,11.656662c-0.649231,2.395874-0.6520691,4.8242493,0.7258301,7.182785c1.3808594,2.3594666,5.8843689,3.4013367,6.8304443,5.7397614c1.9208679,4.7514801-2.6822205,9.3794861-6.7873535,8.7685394c2.3470154-1.3099518,4.2468567-4.6423035,3.1025391-7.7113647s-5.0665588-5.9724426-8.1614685-7.7047119c-6.5047913-3.639801-11.90271-2.5816345-20.3581543-8.8585663c-4.6174316-3.4281464-5.7770386-6.3784485-6.9816895-12.0684052c-1.0054932-4.7534256-1.8270874-12.3432312-1.3799133-17.1981735c0.2671509-2.8880539,1.3166809-6.0030518,1.977417-9.006012c-2.1047668,1.7025909-2.3642578,2.3153992-3.6416626,4.6279984c-12.0511627-10.3399887-17.530426-20.1551895-33.8935699-22.9819336c-17.4279785-3.0116119-30.082428,0.0928726-45.5971222,8.71875c-21.6317749,12.0262756-30.9394226,28.2658691-47.1790161,45.83078c-11.2378922,12.1543274-18.3882446,11.1546173-29.8637772,14.6426697c0.5384598-0.3636475,1.1012955-0.7430267,1.6947021-1.1398773C120.1346893,149.03862,158.2339325,100.2221222,173.0161133,87.4738617z M30.7636299,200.8964233c-15.848938-19.5337372-24.0802498-39.382431-26.0308876-66.0711823c-1.9505792-26.6887054-0.1426668-44.6854782,11.9573078-66.7280045C28.790081,46.0556412,43.0302353,34.1059914,63.8920937,22.8438435c20.8618584-11.2620916,41.9190407-12.5519381,58.7944679-12.2330561c16.8754349,0.318881,30.0326309,1.0073757,41.8558731,6.8869352c11.8232269,5.8804932,22.3336334,14.6566963,29.9138641,15.0540695c7.5801544,0.3974342,10.2757568-0.9527855,12.2876434-2.1506977c-1.196106,3.263979-3.2287445,5.7800846-5.8510437,7.7125454c-7.5819092,2.3796883-11.2525024,0.0400925-24.260849-4.4684944c-13.0628052-4.5275269-29.4925842-13.1140728-40.6523285-15.1161423c-16.1817932-2.9029589-30.3581848,1.5656528-30.3581848,1.5656528l-19.44384,5.5853405c0,0-29.2883797,9.5758629-42.3080025,24.8115845c-13.0196209,15.2357826-27.701334,44.8762398-27.4243584,76.7328033c0.2770348,31.8565521,14.6764526,54.1737823,14.6764526,54.1737823s12.1938972,19.234787,27.1526413,32.2544098c14.9586868,13.0196686,32.7382812,19.8887177,32.7382812,19.8887177C62.4518661,229.9877167,46.6125679,220.4300842,30.7636299,200.8964233z M370.9746094,274.7583008c4.1214294,1.9381104,6.7844849,0.1417236,9.6351929-0.1570435c2.8487549-0.2987976,4.7247009-2.5097961,7.464325-1.6355591c2.7386475,0.8742981,6.147644,1.995575,7.9153442,5.6908875c1.7696228,3.696228,1.967804,10.1340637,1.8500366,14.7218628c-0.1177673,4.5887146-0.4432983,8.7359924-2.5490723,12.4437561c-2.1037598,3.7077637-5.7645874,6.8323364-8.6181946,9.8659363c-2.8555298,3.0317078-5.3748779,4.5427551-9.321106,7.1483459c-3.946167,2.6046143-9.4982605,5.7435608-14.3876038,7.6558533c-4.8894348,1.9122314-9.3967285,3.0163574-14.094635,4.9516296c6.5498047-0.1781006,13.8082886-0.8283081,22.6324158-2.5213318c1.6719055,2.245575,2.8928528,4.6825867,5.0157776,6.7356262c2.1230164,2.0531006,6.0835571,3.1562195,7.5706482,5.4371948c1.4852295,2.2809753,1.5617981,4.8529968,0.5276489,6.9931641c-1.9151611,3.9672852-11.1634827,6.3267517-15.0857544,6.0969238c-11.5531921-0.678894-21.1921997-1.6240234-30.6913757,0.7220459c-12.9953613,3.2088623-25.7579956,7.4020996-38.9898376,5.7636719c-4.2516479-0.5257263-11.0054626-1.5100708-14.9382324-3.0795898c-10.8876953-4.3416748-19.2081299-19.9884949-25.1929932-29.8113403c1.754303-9.4973145,1.9333801-15.6076355,9.1305542-23.6742859c-8.9303894,5.8336182-8.2103271,9.9013977-11.2965698,20.2471008c-2.9129639-4.8444214-8.1528778-15.9772034-12.8344727-18.663208c-3.1159973-1.7868958-6.8610382-0.7009583-10.2911224-1.0514526c2.9751892,1.2151489,6.415802,1.3894348,8.9275208,3.6435852c2.5117798,2.255127,3.1772461,3.7662048,6.1955719,9.1679077c3.0202026,5.4017029,7.9833374,17.2163391,11.9180298,23.2385559c2.4159851,3.6972046,9.2214966,15.2121277,18.0178833,20.5736084c7.1980896,4.3876038,19.6112366,6.2539673,27.9938965,5.9934692c9.6418457-0.3006287,20.7114868-4.744751,30.0594177-5.4629517c9.5614319-0.7344971,19.4494019,0.6271973,28.9390564,1.7398682c1.4804382,6.8544006,2.821991,12.9158936,0.1005249,19.7223511c-0.9729004,2.4351501-0.2728882,4.6691895-3.5535889,5.6095276c-3.277771,0.9422607-9.3450012-0.6167297-14.0658569-0.5496826c-10.5707397,0.148468-20.9241028,1.1318665-31.3569641,2.8335266c-11.856781,1.9333496-29.1908875,3.9710693-33.6570435,8.2495422c3.5258179,0.4903259,7.0736694,0.3696289,10.5802917,1.4708557c3.5066528,1.1011963,5.9083252,5.1086731,10.1858215,5.0540771s9.071106-4.7514954,13.2567444-5.3528442c4.1836853-0.602356,7.2747192,1.2514954,10.9144897,1.8768311c0.1235046,3.983551-2.0157471,7.2287598-0.1982422,10.5343628c1.8194275,3.3065186,5.1977844,6.8121948,5.9360962,9.8352966c0.7382812,3.0230713,1.1442871,5.7894897,0.1531677,8.3912964c-0.992981,2.6017151-3.184906,4.2410583-5.1862183,6.1045532c-1.9994202,1.865387-4.2573853,3.3860168-6.2434387,5.3624268c-0.4395142-3.7441101,0.1627808-5.6870117-1.0322571-6.3956299c-1.7858887,4.2047424-5.3231506,8.5071411-10.8963013,11.1989136c1.3444519-3.4195557,4.520752-9.8985291,4.0361938-14.5178833c-0.4816589-4.6184082-0.6932983-5.9906616-2.1766052-10.4050903c-0.2987671,3.1513977,0.1513062,8.7992249-1.4660645,12.3049316c-1.6173096,3.5057068-3.0709229,5.7177429-7.576355,9.3287659c-4.5054321,3.6100464-14.0601501,6.8304138-18.1413879,10.5439148c-4.0811462,3.7124939-5.3355713,6.6781616-5.3825073,10.8617859c-0.046936,4.1846008,3.4204407,7.9613342,5.1297302,11.9419861c-3.1178589-2.1813965-6.4282227-3.8733826-8.4927979-6.8237c-2.0626221-2.9493713-3.1868286-6.1074829-3.6186829-9.6753845c-0.4318542-3.5679626,0.3140869-7.5773621,0.1867371-11.3655396c-2.5940552-1.2151489-4.4029236-1.3951721-7.7784119-3.6426086c-3.3764343-2.2464905-7.984314-5.0847473-10.6530762-8.9064636c-2.6678314-3.8236084-3.2327728-8.0560913-2.7626343-11.9084473c0.4701996-3.8542786,3.5976562-6.443573,5.3959656-9.6639404c-3.4328766,1.2697754-6.5306396,3.3850708-9.7931519,3.0345764c-7.2421722-0.7795105-5.807724-5.0933533-5.0722961-9.9530945c0.3610077-2.3901367,0.0210876-5.8029175,0.0545807-8.9772949c-2.3135223,2.4667053-4.0036163,5.3222046-6.9385986,7.401123c-2.9349823,2.0779419-8.5033264,2.8813477-10.3581696,7.5016785c-1.8539124,4.6203308,0.681778,9.619873,1.021759,15.757019c-3.1236572-3.5478516-2.9225311-1.1903381-8.3750305-6.6590576c-5.4524384-5.469696-1.9601593-8.9552917-0.3772736-11.819397c1.582901-2.8641357,2.7855988-6.2797852,2.8832703-9.2444458c0.0967255-2.9656372-0.4290009-4.9554749-2.3221283-7.7755737c-1.8931274-2.8210144-5.1153717-6.7021179-8.7005768-8.6498413c-3.5851898-1.9476929-8.4669037-1.1567078-11.9410553-2.5653076c-3.4740906-1.4085999-6.9597015-2.9454956-8.5339508-5.7368774c-1.574234-2.7904053-1.7207642-4.9056702-0.4108124-7.9450684c1.3109436-3.0383606,4.2957306-4.4096375,4.9660492-7.3982544c0.6693268-2.9885864,0.2451172-6.3238831-2.5481262-7.7113953c-2.7932587-1.3875732-6.9807434-0.1627502-9.6648865-1.6087341c-2.6850128-1.4449463-0.8493347-5.8957825-2.168869-7.7784119c-1.3205414-1.8835754-2.1277924-3.8466187-4.5964355-5.2791138c-2.4686432-1.4315796-7.5619812,1.2582092-9.6380463-3.174408c-2.076004-4.4326477-0.0382843-13.4233704-1.3769989-17.9709167c-1.3386993-4.5475159-5.4380493-1.9908142-7.2105408-6.4827881c-1.7725067-4.4920654,1.9409943-12.3537598-0.3887939-19.173645c-2.329834-6.8208313-2.1909637-14.2555237-1.6259613-21.383728c14.1894226-11.4900208,16.5373688-14.3589783,26.7518768-30.3965149l4.5657501,12.3173828c1.9793396,5.3394775,8.5541077,12.83255,11.9199524,17.4260559l-5.6535492-10.7910156c-9.0740356-17.3206635-4.766861-31.7810974-2.7683563-44.655777c0.4178314-2.6917419,0.7063904-5.0346069,0.9060364-7.1250458c1.2479401-5.4364166,2.0547943-11.056778,2.2444458-16.8094482l-6.6993256-0.2206879c-1.3737183,41.6631622-38.3420258,77.7734833-38.7151489,78.1335297l0.0735931,0.0763855c-9.0661011,6.1741638-17.1190948,9.0935669-22.4816971,10.848175c-8.5713501,2.8047485-20.9250946,2.9991455-27.355217,9.358429c-12.023407,11.8864136-12.073204,5.7186584-16.7576599,5.8881531c-5.2896576,0.1905518-11.3138123,3.3486633-15.4457779,6.0653076c-0.1206284-9.7175293,2.3201981-8.858551,7.1148224-13.9978943c4.7946167-5.1393433,7.3733749-3.5219727,9.6007004-7.1809082c2.2273178-3.6598511,2.0453796-16.7088013,8.6144257-21.8022156c6.568985-5.0933228,3.6033173-12.1190796,4.5283432-22.5471497c8.8040237-34.3043976,24.3857498-64.1914368,36.2425308-74.1779938c7.8253479-6.5900879,21.3741302-14.794632,31.030426-18.1825867c6.2520294-2.1938171,15.5395813-1.4842377,17.8358612-2.2187195c13.8102264-4.4172974,27.7123871-9.1486816,38.3894348-6.3851166c6.0643005,1.5694427,8.2725067,2.2761841,19.353653-0.1082458c4.4000549-0.9451294,9.7558136-4.7639465,14.6021118-6.3678741c4.846344-1.6049347,8.1835022-1.6882172,11.8079224-2.0674133c2.0319824,8.4956665,2.1976318,11.4584045,9.7146606,16.8697052c7.4422913,5.3547668,13.0901184,4.852066,20.5678711,8.2610474c3.100647,1.4133453,6.2597046,3.4779053,6.3381958,5.9628448c0.1360168,4.2870789-3.1925659,4.9822998-8.4334106,5.7665253c4.1520691,3.7393799,10.1685486,4.0515442,15.2035217,1.2582855c3.9346924-2.1851807,5.3020935-10.4242096,2.3154602-12.6410065c-1.8816833-1.3971558-4.112793-2.5251617-5.3979187-4.0209198c-3.416626-3.9797058-0.0487976-6.7126465,2.6706848-9.2109833c1.870697-1.716095,4.8163147-3.7153015,7.243042-5.8924103c6.5884094-0.3400421,16.6113281-0.9181366,22.0053711-0.0091248c0.4634705,2.0779419,1.4516907,4.6260681,1.7973938,6.6398926c0.9422607,5.4821167,1.067688,10.3744049,4.2191162,13.5870667c4.3425903,4.4297485,7.409729,4.7562866,10.5649414,12.4897614c1.0830688,2.6572418,1.3847046,12.8928528,0.7727661,15.0981293c-0.9240417,3.324707-3.445343,5.621933-5.4237366,8.5349426c-2.3230591-0.1053772-5.8938904-0.4615479-8.1940308-0.3169556c-5.7378235,0.3591003-10.333252,2.17659-15.607605,4.4230347c-0.3734741-2.7721558-0.3303528-6.2060394,0.4106445-8.3147125c0.7411499-2.1124878,2.7156982-1.6786957,3.7297974-3.4866028c1.0140381-1.8079224,1.4363708-4.6730042,2.154541-7.0095062c1.9218445-0.2891846,4.0323792-0.9106445,5.7693787-0.867569c3.7911072,0.0957947,5.3002625,1.3319855,8.3377075,4.0257111c-1.2917786-3.6062469-3.6618347-5.2935181-6.2070312-5.9638367c-1.950592-0.5132751-5.1604004-0.3322754-7.5352173-0.2939911c0.8302307-2.9369049,1.709259-4.6653442,3.9069214-7.0209503c1.2946472-1.388504,3.2002258-1.4631958,4.0285339-4.2133789c0.7536011-2.5011902-1.1280212-4.666275-3.0470276-5.3758698c-1.9170532-0.7105255-4.6308594-0.3772583-6.7758484,0.4634857c-5.3614807,2.0999603-7.7333984,7.5083923-9.3641663,12.6285553c-2.1277161,6.6839447-2.0099487,13.806427-1.3836975,20.662674c0.3590698,3.9347076,1.4382935,7.9431763,2.1564636,10.8436737c8.7245483,11.7619171,17.8474121,23.6197052,25.1681213,36.3133698c4.2468567,7.3638,7.2258606,16.9357452,11.3913574,22.7923431C361.9675903,268.874939,366.8531494,272.8201599,370.9746094,274.7583008z M332.2319946,211.1291046c-1.6498718-2.5701752-3.3007507-5.140274-4.9526062-7.7104492c3.0470276-2.148819,3.9500122-1.647995,7.7583008-1.8959808C332.5805664,205.0388947,332.0864563,206.0558624,332.2319946,211.1291046z M342.8391418,227.175293c2.2608032-0.5650024,4.5877686-0.761322,6.2912903-1.5206451c1.7054749-0.7593994,2.5136719-1.6987457,3.5737-2.6132507c1.8500366,6.0720215,3.4568481,12.0138245,4.7619934,16.3813324c1.3070984,4.3675537,2.6257019,6.9137573,3.0786743,9.8228455c0.4529419,2.9100952,0.2690735,6.230011,0.4060059,9.3440857c-2.9005127-5.4333344-5.533844-11.1146393-8.5732117-16.3027802C349.3401489,237.0977478,346.0096436,232.1106567,342.8391418,227.175293z M445.4917603,252.3883972c-0.5572815,5.2388916-6.7652893,7.7046509-11.5436096,8.17099c-4.2085266,0.4108276-14.4087219,0.2633667-19.869812-0.4672546c-5.4610596-0.7306519-9.8764343-5.2255554-15.4256592-6.2721558c-5.5501099-1.0466461-8.7130127-2.3738403-14.0247192-4.8127899c-5.3117065-2.4389648-10.2020569-6.9109039-14.2813721-9.4111176c-4.0773621-2.4992676-7.1128845-3.5660248-10.3485718-5.5903625c-1.5254211-4.4355316-3.0518188-8.8710022-4.578186-13.3074646c2.0808411-1.7954712,3.4482422-3.5919189,5.5319824-5.3873901c-2.6448669,0.4127502-4.8013611,0.3993073-7.2192078,1.23526c-2.4169922,0.8360138-4.4364624,2.8095703-6.3200684,3.6905212c-1.8835449,0.881012-4.4795532,0.8091888-7.9823914,1.3157349c-0.7306213-1.6298218-1.9668884-3.0575409-2.6965332-4.6873779c1.5742493,0.2863312,4.446991,0.881958,6.2558289,0.655014c4.1425476-0.5209351,6.7012024-2.7252808,7.4806519-7.0774689c0.3590698-1.9937134-0.0162659-4.1932831-0.789032-6.3919067c1.5043335,0.1905975,2.6390686-0.0018616,4.0007629,0.8781586c1.3597412,0.8809509,1.9927063,2.9387817,3.0527344,3.8475647c1.0629578,0.9087219,2.4600525,0.7057343,3.4846802,1.0063782c0.2489929-1.6882172,0.3035583-5.8326263-0.8656311-8.5128937c-1.1673584-2.6792908-3.2002869-3.7987061-4.6740112-4.9200592c-1.4736938-1.1212921-1.9170837-1.2218628-3.0805054-1.6805573c2.2052917-2.2493591,4.8587341-4.2918701,6.0002441-7.6692352c1.1002502-3.2528687,0.7315674-15.2398682-0.5381775-18.8154907c-1.9764099-5.5721893-7.0036926-9.3612976-10.3964233-12.8670197c-2.0272217-2.0970917-3.1437073-6.2223358-2.5624695-9.0155945s3.8561707-3.9749146,6.2443848-5.0445404c5.868988,1.5158539,12.1181335,2.1536255,17.6069946,4.5465851c11.4124756,4.9755707,16.9989929,11.7159729,23.9261169,21.5791016c3.1724548,4.513092,7.2660828,9.2425537,9.9799194,15.0972137c2.7137756,5.8555908,3.4692993,13.2576752,6.6771545,19.7922363c3.2098083,6.5354919,8.9275208,14.2296295,12.4227295,19.1075439c3.4951172,4.8778992,6.4205322,6.1486359,8.5186157,10.1082458c2.0989685,3.9586029,1.4267883,10.1149139,2.7980652,13.4625854C435.366333,252.4898682,441.4852905,253.3766022,445.4917603,252.3883972z M504.075531,157.4978638c-3.8226624,15.0292358-17.9393005,38.7245636-29.7500916,50.0891113c-12.9675598,12.478241-24.0304565,16.7433319-40.956665,19.033844c-5.4630127-7.8415985,2.3441467-10.6070862,2.3441467-10.6070862s8.4674377-2.9951935,15.4969788-5.8280182s15.7377625-9.0229645,22.6624146-17.5213623c6.9245605-8.4984131,12.6269226-20.8505249,14.8984375-29.482132c5.7704773-21.9279175,5.1409607-40.4985123,2.7749023-56.7731781c-2.3660889-16.2746582-5.2254944-24.4958572-5.2254944-24.4958572l-9.1870422-22.6439362c0,0-6.1317444-12.0626297-19.8379211-19.4711342c-24.9338074-13.4772568-38.4959717-16.3346863-38.4959717-16.3346863s-9.7706299-3.1179218-26.5671387-1.4900227c-21.2469482,2.0592308-49.2853088,17.5508289-54.8613892,20.735323c-2.847229-1.7679367-4.7199402-4.1099854-6.4927368-7.6566696c2.9455872,1.5733109,5.9437256,1.5283051,9.6840515,0.0871429c11.4689331-4.4220886,20.4912415-13.3707085,31.772522-17.4729805c6.4512024-2.3460836,13.6790161-4.4182892,24.4690247-4.5657492c19.4867859-0.2652283,41.4115601,2.4858875,58.5100708,12.6888762c11.6480103,6.9511108,20.6741333,17.247963,29.8516235,26.9951897c9.6016541,13.7182846,14.9755859,21.7485428,19.1104126,38.5598602C508.5713806,108.804924,508.4373169,140.3476257,504.075531,157.4978638z M332.1266785,276.9981689c-4.1636047-2.9014282-7.2738037-4.6356506-11.6460876-7.2229919c-4.373291-2.5864258-7.7660217-6.1256714-12.7463989-8.3989258c-6.4856262-2.9598999-17.2680054-3.3400879-21.7006836-2.8200989c-4.6145325,0.5419617-9.6361084,2.8478394-12.8956909,4.6308594c-6.3028259,3.4491882-8.8413696,9.3804321-9.1870422,16.4138794c-0.1847839,3.7843323,0.983429,7.6089172,2.7080383,11.0552979c1.7226562,3.4444275,4.4517822,5.9283752,7.1186218,8.5961914c-0.5927429-1.9429626-1.4584045-4.0534668-1.7801514-5.8297424c-0.3236084-1.7772827-0.093811-3.1590881-0.1387939-4.7391052c1.0897217,1.0802002,2.4216919,1.6796265,3.8618774,2.0607605c0.4204102-1.4086304,1.0093079-2.664978,1.262085-4.2248535c0.5516052-3.3822021-0.4902649-6.4234619,3.3400574-8.4784241c3.2442932-1.7399292,5.8632507-2.107605,9.3268433-0.9125671c1.4755859,0.5084229,3.3448181,2.1487732,4.3617554,2.8957214c-1.5110474-4.3426208-3.8140564-6.9846191-8.3883972-7.5802307c-4.0716553-0.5295105-7.8254089-0.3945007-11.0964661,2.3997498c-1.5790405,1.3501587-2.62854,3.631134-4.2047119,5.4466858c-0.9442139-4.9344177,0.6454163-8.2773438,4.8309631-12.0769958c4.2133789-3.8226624,12.0942383-4.7209167,17.539093-4.8798523c3.9518738-0.1158752,10.3427734,0.8781128,13.8925781,2.664917c2.7922363,1.4066772,7.836792,5.5626221,10.7430725,7.456665c2.9043579,1.8941345,7.2565613,3.7087097,9.8994751,5.2485352c4.4268799,2.5844727,6.5297241,4.2564392,10.5860596,7.6826782c2.2952881,1.9391174,6.4320374,4.6442261,9.3909912,5.5903625c2.3728638,0.7583923,5.2475281,0.038269,7.4470825-0.6148071c-2.8286743-0.8637085-5.8258972-0.6540222-7.9564819-2.0664062C342.2636108,286.3556824,338.5175781,281.4518738,332.1266785,276.9981689z M312.2750549,291.5725098c-1.7561951-1.7877808-3.8102112-2.81427-5.7454834-4.0706482c-1.9343262-1.2563477-5.2820129-1.9553528-8.0369873-2.0789185c-3.7575073-0.1665649-10.1101074-0.1560669-11.7772827,3.9346924c-1.3990173,3.4329529-0.4883118,7.4279785,2.1842346,9.7893677c2.6506042,2.3431702,6.4656067,3.5143127,9.8975525,1.8490601c2.1287231-1.0322571,2.4092712-3.4884644,2.3719177-4.7438354c-0.0373535-1.2554016-0.8924561-1.9736023-1.402832-2.8305969c1.1414795-0.1589661,2.525177-0.325592,4.5992432,0.5726013c6.284668,2.7167053,11.3454285,8.6163025,14.3244934,14.660553c1.8892822,3.8331909,2.7808228,8.2946167,4.1070557,12.5730286c-0.3370972-4.6289062-0.4749756-9.684906-1.4009399-13.6272888C319.9433594,301.4164734,316.6569214,296.0348816,312.2750549,291.5725098z M221.5002899,296.7492065c-2.524231,2.042511-1.09552,5.4142151-1.21521,8.6871948c1.2123413-0.7268372,2.8019104-1.1204224,3.638855-2.1833191c0.8359528-1.0619507,0.6817627-2.4896851,1.0226898-3.7355042l10.9853516-2.813385C230.8367004,296.339386,224.0244598,294.7057495,221.5002899,296.7492065z M271.3111267,230.927002c1.7187805-2.5496521,1.7533875-5.941864,1.7879944-9.2223206c0.0140076-1.4041138,0.0289917-2.8559113,0.1730042-4.2282257l0.91922-8.7416534l-2.7792053,8.3386078c-0.4021301,1.2058563-0.7378235,2.5075684-1.0623169,3.7667389c-0.6574097,2.5533905-1.3381958,5.1932831-2.57724,7.0331573c-1.1810913,1.7505798-2.8091736,2.697876-4.5335693,3.7008057c-0.920166,0.5353699-1.8721313,1.088501-2.7792053,1.7800446l-4.1501465,3.163559l5.0029907-1.4840546c0.8668518-0.2571716,1.7926636-0.3983765,2.7717285-0.5475311C266.6064453,234.1013336,269.4651794,233.6650848,271.3111267,230.927002z"/></svg>