<svg xmlns="http://www.w3.org/2000/svg" width="512" height="512"><path d="M512 0H0v512h512V0zM13.17 253.485l86.139.133v61.78l-19.725 23.105-66.415-77.798v-7.22zm485.663 133.307h-25.309V253.485h25.31v133.307zM351.858 318.85v-40.184l39.05 45.746c2.519 2.902 7.212 3.202 10.017 0l60.55-70.928h2.834v133.307h-39.336l-60.548-70.93c-2.688-3.043-8.165-4.239-12.567 2.989zm-182.384-65.366h51.501v54.547l-30.064 32.609-47.919-56.134 26.482-31.022zm-35.139 20.881-17.825-20.88h35.65l-17.825 20.88zm217.523-20.88h92.301l-48.242 56.51-44.059-51.612v-4.899zm-45.948-37.58-26.147 28.361h-49.57v-51.113l26.883 31.49c2.889 3.274 7.956 2.949 10.322-.386l75.245-102.834v122.843h-2.835l-24.05-28.172c-2.661-2.965-7.09-3.152-9.848-.188zm16.583 28.361h-24.82l12.887-13.978 11.933 13.978zm-51.229 9.218-41.071 44.548v-44.548h41.071zm-50.289-9.218h-43.632l43.632-51.112v51.112zm0 83.191v48.4l-21.453-25.13 21.453-23.27zm-7.98 59.334h-46.722l24.259-26.313 22.462 26.313zm17.198-.136V317.46l58.982-63.975h41.187l12.28 14.387v61.774l-48.783 57.146-63.666-.136zm55.799 9.351-23.908 28.007-23.908-28.007h47.816zm56.65-46.078v36.863h-31.468l31.469-36.863zm9.216-10.795 7.559-8.855 48.241 56.513h-55.8v-47.658zm100.17-94.867h-100.17V110.962h112.45v118.92l-12.28 14.385zM340.725 101.744H230.193V13.169h112.45v85.954l-1.918 2.62zm-119.75 0H108.527V13.169h112.448v88.575zM108.527 244.267V110.962h112.448v62.002l-60.946 71.303h-51.502zm0 20.149 17.151 20.091-17.151 20.092v-40.183zm25.808 30.232 47.586 55.744-33.56 36.4h-39.834v-61.91l25.808-30.234zm5.53 101.36L108.528 430v-33.993h31.339zm17.911 0 63.2.133v102.692h-112.45v-49.407l49.25-53.419zm109.316 42.422 36.215-42.423h39.336v102.826h-112.45V406.94l26.883 31.49c2.643 2.907 7.02 3.24 10.016 0zm84.766-42.423h63.667l48.784 57.149v45.677h-112.45V396.007zm80.982 0h31.469v36.865l-31.47-36.865zm40.684 0h25.31v77.308l-25.31-29.647v-47.66zm25.31-151.74h-25.31v-4.897l25.31-29.647v34.544zm-25.31-25.18V110.962h25.31v78.478l-25.31 29.647zm25.31-117.343h-25.31V13.169h25.31v88.575zm-34.525-88.575v88.575H357.042l64.812-88.575h42.455zm-112.45 73.36v-73.36h53.677l-53.678 73.36zm-252.55-73.36v88.575h-86.14V13.169h86.14zm-86.14 97.793h86.14v122.374L13.169 132.43v-21.468zm78.158 133.305H13.169v-91.556l78.158 91.556zM84.592 352.92l14.717-17.24v51.113h-86.14V280.986l61.408 71.933c2.874 3.379 7.68 2.769 10.015 0zM13.169 498.833V396.007h86.14v43.99l-54.244 58.836H13.17zm86.14-39.408v39.408H62.976l36.333-39.408zm399.524 39.408h-25.309v-34.882l25.31 29.648v5.234zm-237.147-289.07-31.493-36.89v-61.911H333.98l-72.294 98.802z"/></svg>