<svg version="1.1" xmlns="http://www.w3.org/2000/svg" width="512px" height="512px"><path d="M510.1680603,222.2162781c-6.4400024-54.1005249-29.6100464-105.4719849-65.2418518-144.6517944c-5.6831665-6.2484131-13.6708069-9.9062729-22.1148987-10.124939c-8.4101257-0.2319336-16.6100769,3.0188522-22.6095581,8.9642105l-152.97966,151.6076965c-12.1523743,12.0430298-12.2404785,31.6571045-0.1974335,43.8099976c12.042511,12.1497192,31.6554871,12.2399292,43.8094788,0.1963806l127.9201965-126.7727509c15.7874146,25.1135864,26.3502197,54.5452881,29.8923645,84.2949066c12.6454468,106.2336121-63.4935608,202.9505005-169.7266541,215.598053C172.6901703,457.7749634,75.9695587,381.6444397,63.3230705,275.411377c-5.5977249-47.0188599,6.1348305-94.3344116,33.034893-133.2302704c26.6750336-38.5694656,66.2433548-66.1525955,111.4168167-77.6686096c16.5782166-4.226284,26.5917053-21.0921669,22.3654175-37.6703873c-4.2262878-16.5787487-21.0895081-26.5927658-37.6703796-22.3659458C132.8097687,19.6850739,80.5801086,56.0737228,45.4010162,106.9393845C9.9002953,158.2705078-5.5840669,220.7026062,1.8006604,282.7355957c8.0831823,67.8944702,42.1217117,128.5783081,95.8459473,170.8719788c45.5821381,35.8833923,100.7001038,54.8849792,157.8295593,54.8839111c10.2040405,0,20.4781189-0.6071777,30.7680969-1.8321228c67.8945007-8.0821228,128.5783386-42.120636,170.8720093-95.8453979C499.4099426,357.0902405,518.2512207,290.1118164,510.1680603,222.2162781z"/></svg>