<svg version="1.1" xmlns="http://www.w3.org/2000/svg" width="391px" height="512px"><path d="M288.7470093,197.0755615c-13.9434814,3.3101807-24.3894043,11.1757507-32.7796936,21.4636536c-1.5933533-11.1550598-4.6728668-20.6681061-11.2440033-26.6970978C268.1151428,183.7285309,279.1047974,184.3498688,288.7470093,197.0755615z M110.4417038,19.4794369c-29.7054443-2.9977951-59.0016747,6.9008293-80.2668915,27.407877C7.1200452,41.6563263-11.5821562,76.6078644,8.592926,92.4903717c-2.3159828,38.2689667,16.0028439,77.9688721,58.5169983,142.012619c13.9832458,21.0644989,35.3918686,52.6760864,56.8769302,73.1389771c15.1034622,9.7216187,27.7788925,18.062439,46.5028458,13.5341492c-0.2284088,20.9067993,7.0719452,37.9880066,19.2238007,33.0889282c10.4831543-3.793396-0.375351-20.5623169-3.8859558-37.7423706c58.6972809-51.4966736,61.6071472-84.4223938,60.8614044-108.1401978c-6.7269287-20.6084442-18.6419373-13.8681793-45.1708679-70.846405c0,0,31.4812317-27.9446793,17.0874329-41.0494156c-13.7934265-12.558197-28.5476227,12.6954346-28.5476227,12.6954346l-7.4647217-21.2303467c13.3878021-20.1328812-0.1022797-45.4777946-22.1087646-47.4877396l-2.4187012-2.2824554C173.7019348,1.4927114,121.4790115-16.2896538,110.4417038,19.4794369z M108.6195984,379.372406l35.689682-52.344574c-35.3075562-13.1362915-65.4814911,0.2552795-89.4630432,45.6461487c-1.9892921,5.4683838,3.5938683,10.0184326,9.4029579,7.3157654C77.0976868,374.012146,94.1090393,372.8739929,108.6195984,379.372406z M178.409668,457.201355c4.6713104,14.374939,2.2913971,31.5908508-6.3769073,45.1953735c-3.2022705,7.2219849,2.9295807,11.6505127,9.390625,8.6541748c50.8010406-20.394043,61.100296-53.5534363,53.4198456-83.2708435L178.409668,457.201355z M250.7283325,233.987381c-4.4031677,21.4586029-18.1701508,48.5686798-58.4420776,84.632431c7.2071381,22.463623,13.1917114,35.120697-0.3869476,41.0811462c-14.1599579,6.0187073-25.3992157-7.3580627-27.081543-31.7485657c-4.9237976,0.507843-9.3655853,0.2398682-13.5247803-0.5704956c-16.5819855,25.0486755-31.1487656,43.6669922-42.2865219,63.5463867c-31.8130188,11.8599243-41.0789185,31.3455811-37.3791046,91.3231201c50.2604141,13.7409668,75.4691696,5.1563416,97.5221329-27.1525269c148.7526398-70.8969421,240.4801788-142.3504944,218.5552826-254.4302979C351.7185059,190.1097717,275.3298035,187.2880249,250.7283325,233.987381z M170.3816071,367.8208923c19.5638275-16.3559875,49.664566,9.8681335,25.4170685,29.0673828c-13.0941925,11.6316833-28.0818329,23.6951904-44.7774811,36.0611572c3.7444305,4.7559814,7.4479065,9.8852234,11.3353882,15.7330322c-21.1208191,35.0196533-44.6774368,35.1560059-82.7631149,26.3670044c-4.3945007-56.3961182,10.2538376-65.917511,37.3532639-76.9037781l11.7985077,10.7445984C142.2025146,394.444458,156.068634,380.7590637,170.3816071,367.8208923z M304.3544617,288.4403076c-19.8273926-11.4307251-19.8273926-40.1627045,0-51.5934296c19.8274231-11.4307251,44.7462463,2.935257,44.7462463,25.7967072S324.1818848,299.8710327,304.3544617,288.4403076z M75.9044571,132.4116058c-18.5989761-11.2044144-19.4020576-41.4525757-0.8030853-52.6569901s42.7769928,4.9621735,42.7769928,27.3710098S94.5034256,143.6160126,75.9044571,132.4116058z M146.8465729,92.1777039c-16.7196655-10.0722809-16.5700836-35.3621597,0.3043823-45.1728973c13.4118195-7.7975731,37.4283447,2.2973328,37.4283447,22.4419022S163.5662537,102.2499924,146.8465729,92.1777039z M141.730896,119.5585022c1.895401,2.7795563,4.2369537,6.5758438,5.9616089,10.5540619c1.5064087,9.0153809-6.0514679,11.9575653-13.7028656-2.6483002C136.7581482,125.1028519,138.5587158,122.5282135,141.730896,119.5585022z M153.5193024,115.1848373c9.2118073,11.9062424,3.6159515,21.11483-4.7204895,13.7729568c-1.7456512-3.9027634-4.0097809-7.5576935-5.8602295-10.2584839C147.344162,116.2957535,150.5540009,116.1943893,153.5193024,115.1848373z M133.0620422,126.3296051c-10.7143402,3.6253815-10.1522675-4.3971329-3.569809-12.6506424c4.3186188,3.0584564,15.4671021-2.0453949,13.9960327-8.8311996c12.3291016-4.3256683,18.9719391,6.2006836,8.7811279,9.2145767C139.108078,116.771492,140.6410522,119.428627,133.0620422,126.3296051z M91.1719742,112.1776428c0-5.0889893-5.5469666-8.2868805-9.9605713-5.7423859c-4.4136124,2.5444946-4.4136047,8.9402695,0,11.4847641C85.6250153,120.4645157,91.1719742,117.2666321,91.1719742,112.1776428z M164.2091217,72.9337997c0-5.0889893-5.5469666-8.2868729-9.9605713-5.7423782s-4.4136047,8.9402618,0,11.4847565S164.2091217,78.022789,164.2091217,72.9337997z M175.1721344,373.3587952c-25.0783081,22.6696167-47.8992615,46.8808594-68.9999847,72.2672424c-2.6889267,3.9790039,1.2494125,9.873291,6.2234192,5.6138611c31.3657837-21.1427307,57.5522766-41.1534119,78.8379517-60.0931702C207.2562103,380.1135254,188.5924835,362.7530212,175.1721344,373.3587952z"/></svg>