<svg version="1.1" xmlns="http://www.w3.org/2000/svg" width="512px" height="512px"><path d="M80.2714157,285.2679138c0-37.3234253-1.504982-100.2396851-1.504982-118.2993927s10.0268173-59.8966446,54.3377228-62.1689987c44.3108978-2.2723465,106.9957428-1.9347534,121.7445221-1.9347534c12.0398102,0,11.1368256,17.7587204,11.1368256,17.7587204v27.1871643c0,0-1.5049744,7.5248718-13.8457947,7.5248718h-94.2115173c0,0-15.0497589,1.2039795-15.0497589,20.166687s0,96.2209015,0,96.2209015s-2.407959,18.3607178,21.6716614,18.3607178s38.8283844,0,38.8283844,0s18.9627075-0.3009949,18.9627075-17.4577332s-3.009964-28.2935486-15.350769-28.2935486s-26.1865845,4.5149231-26.1865845-8.7288666s0-24.982605,0-24.982605s-0.6019897-9.4813538,9.4813538-9.4813538s85.0311584,0,85.0311584,0s10.8358459-1.9564667,10.8358459,17.0062408c0,11.8516846,0.2993774,65.210144-0.0016174,96.2126465c-0.1753845,18.0650635-4.7014465,19.3695374-13.8441772,19.3695374c-24.3806152,0-98.7264557,5.4179077-129.4279633,6.0198975S80.2714157,322.5913086,80.2714157,285.2679138z M402.8009949,355.4642334c-27.1490784-2.1433411-64.9369202-0.710022-75.3744202-3.2149963c-17.8612366-4.2867126-17.146759,8.216156-17.146759,8.216156s0,25.0057373,0,32.8646851c0,7.8589172,8.4530029,10.0071411,8.4530029,10.0071411s50.5039978,1.7407532,126.9500732,5.6702271s65.8135071-73.0412903,65.8135071-73.0412903c0-25.9900208-2.2424622-74.5952454-63.6850891-74.5952454c-47.5108948,0-62.0498352,0-62.0498352,0c-20.025116,0-17.8947754-38.2669678-0.4260559-38.2669678s95.1842651,0.2220612,95.1842651,0.2220612c12.3649292-0.9511566,13.3789062-12.3749084,13.3789062-12.3749084V183.843399c0,0,2.8534241-12.8404846-12.3649292-12.8404846s-108.9063416,0-108.9063416,0s-65.6291199-6.6636963-65.6291199,73.238327c0,73.2383118,59.4466858,70.3848877,59.4466858,70.3848877s53.2642212,2.3778687,66.5802917,2.3778687s25.3474731,32.637207,1.5688171,40.2463684C434.5939941,357.2503662,418.5188904,359.750946,402.8009949,355.4642334z M41.4164276,320.5574341v-20.4512024c0-5.4996643-4.4997406-9.9994202-9.9994297-9.9994202H9.9994307C4.4997439,290.1068115,0,294.6065674,0,300.1062317v20.4512024c0,5.4996948,4.4997439,9.9994202,9.9994307,9.9994202h21.4175682C36.916687,330.5568542,41.4164276,326.0571289,41.4164276,320.5574341z"/></svg>