<svg xmlns="http://www.w3.org/2000/svg" width="393" height="512"><path d="M208.288 180.752V143.65c16.953 7.231 31.75 7.007 47.895 0v37.102c0 14.793-47.895 14.793-47.895 0zm-7.67 0v-43.695L181.89 94.071 71.31 155.539v178.185L0 369.38v53.483L160.448 512 393 387.207V155.539l-110.793-61.06-18.354 42.578v43.695c0 25.453-63.235 25.453-63.235 0zm5.479-51.398L167.7 43.622C151.038 20.48 176.966.95 228.15.022c32.68-.591 85.526 10.356 70.984 39.223l-40.76 90.118c-8.243 14.846-44.487 17.19-52.277-.009zM230.589 6.127c-30.683 0-61.62 10.796-63.386 24.089 7.429 31.646 121.472 32.355 127.95 0 .175-15.236-33.5-24.09-64.564-24.09zm17.164 353.476-.235-44.08c-23.509 1.39-6.864-42.215 13.318-33l31.233-33.473c-9.035-25.609 30.447-42.192 29.347-13.671l30.644 5.775c17.916-27.014 39.322 1.528 14.85 20.625l.943 38.776c23.82-1.838 5.997 40.935-11.786 33.237l-31.469 37.715c4.406 12.77-5.151 25.01-14.378 28.229-7.91 2.76-15.64-1.228-13.437-15.854l-33.59-4.714c-18.146 29.073-40.622-.475-15.44-19.565zm107.253-49.501-43.255-58.459c-2.239 1.532-4.714 2.711-7.071 3.183l-43.137 103.363c1.65 1.178 2.829 2.828 3.536 4.832l85.566-42.43c.686-3.634 2.201-7.119 4.361-10.49zm-5.893-62.348-29.583-5.54a17.096 17.096 0 0 1-2.71 4.48l43.018 58.104a8.26 8.26 0 0 1 1.179-.943l-.943-39.13c-9.442 1.312-13.827-7.612-10.961-16.971zm-94.76 64.94.236 43.727 42.489-102.362-32.117 34.239c2.375 9.046-2.984 19.516-10.607 24.397zm64.706 53.863 31.94-38.246-85.095 42.253-.354 1.768 33.59 4.714c5.282-8.566 13.657-12.915 19.919-10.49zm-125.851 52.142v7.964l-49.151 25.6-118.278-65.157v-7.964l49.151-25.6L193.208 418.7zM91.49 319.335V191.827l119.273 67.148v127.508L91.49 319.335z"/></svg>