<svg xmlns="http://www.w3.org/2000/svg" width="512" height="512"><path d="M33.596 351.454c-12.018-27.53-18.32-56.076-19.508-84.386L164.753 97.161l76.385-67.593L33.596 351.454zM223.83 17.346C177.639 66.21 102.338 140.708 16.016 225.13 29.873 122.482 109.463 31.848 223.83 17.346zm14.68 478.789c5.548-155.043 52.5-314.589 122.752-456.198 94.66 46.966 151.783 154.309 130.608 262.186-85.413 59.85-165.822 154.6-194.99 190.947-19.093 3.235-38.5 4.557-58.37 3.065zM512 256C512 59.662 297.992-63.716 127.711 34.453s-170.281 344.925 0 443.094S512 452.338 512 256z"/></svg>