<svg xmlns="http://www.w3.org/2000/svg" width="512" height="512"><path d="M258.827 509.357C129.245 512.528.175 412.685.175 257.133-4.98 128.9 102.76 5.06 254.315 2.57c58.963.093 63.202 83.154 3.712 88.7C151.696 95.66 86.724 177.022 89.88 255.716c0 102.32 83.746 166.923 166.614 164.894 81.485-2.247 139.647-58.516 158-117.517h-16.926c-25.463 0-46.108-20.348-46.108-45.444 0-25.1 20.646-45.443 46.112-45.443h67.198c24.408 0 45.018 18.687 46.686 42.338 9.213 118.238-98.863 250.575-252.628 254.813zm43.215-251.644c0-35.117-38.277-57.185-68.734-39.626s-30.457 61.693 0 79.252 68.734-4.509 68.734-39.626z"/></svg>