<svg xmlns="http://www.w3.org/2000/svg" width="512" height="512"><path d="m256.133 91.132 58.773 97.724c-10.715.723-21.245 6.414-29.192 17.85-6.883-7.097-14.93-14.135-29.146-14.697-17.282-2.97-26.498 4.697-38.129 18.032-3.455-11.58-16.845-14.317-28.493-8.866l66.187-110.043zm-144.99 73.558C109.544 210.286 77.19 250.893 54 236.051c-17.523-14.262 4.734-50.352 18.75-63.083-1.04 9.73 7.81 15.807.737 24.44-14.166 17.294-8.592 29.77-2.484 31.7 16.303 5.15 31.91-39.014 31.91-69.989 0-19.862-11.624-19.494-34.511 4.316-31.248 32.508-48.118 63.984-36.879 85.562 6.263 12.024 15.417 20.673 30.474 18.87 29.404-3.52 47.15-39.883 49.068-63.2 4.689-.118 3.449.282 4.697-.668 0 4.114 5.643 24.004 10.093 37.074 5.823 22.312 30.652 67.08-43.517 84.503-14.03 3.535-19.543 4.712-33.385 10.16-6.785-14.054-8.38-18.59-22.166-32.168 18.704-6.53 18.837-5.886 30.9-10.083 46.646-16.229 60.67-30.1 59.045-49.902 0 0 .57-10.204-5.9-18.713-3.266 11.392-9.317 20.518-9.317 20.518-13.87 21.618-41.182 35.003-65.45 26.48-13.27-4.66-18.982-14.82-18.982-32.286 0-22.33 50.91-86.951 75.892-97.92 17.648-5.252 18.406 9.31 18.167 23.028zm206.713 41.35c8.257.153 17.275 4.212 23.37 10.788 18.884 20.373 16.824 45.049 5.202 60.573-13.827 18.468-48.71 10.275-56.949-15.536-3.828-11.992 3.01-41.701 15.101-51.628 3.65-2.997 8.322-4.29 13.276-4.198zm-67.157 2.079c1.22.03 2.467.213 3.726.549 15.977.965 19.372 9.924 22.283 17.81 7.334 19.876 5.499 38.5-9.589 53.747-22.6 22.839-48.933 12.747-48.835-18.046.467-21.899 14.107-54.501 32.415-54.06zm59.393 1.216c-12.183 9.115-13.762 32.512-2.562 41.192 4.404 4.111 6.85 6.974 19.488 8.121 8.678.788 22.375-8.014 23.059-16.751.309-3.952-.402-10.573-9.938-21.303-7.987-8.987-18.388-11.077-21.002-9.533-8.41 4.97.675 8.921 3.96 12.2 5.163 5.157 6.401 7.412 3.998 8.945-4.779 3.051-10.09 2.616-11.84 1.805-3.324-1.54-14.477-7.817-5.163-24.676zm119.487.078c5.308 8.27 6.84 10.058 12.772 30.679 7.66 26.63 17.385 36.98 25.97 32.13 23.529-13.292 4.674-46.948-3.61-62.77 5.309-.075 4.257.221 9.083.157 3.822 14.975 2.753 12.312 12.966 57.63 12.22 54.227 14.047 68.665-16.809 93.017-14.179 11.19-35.065 11.78-52.988 10.789l-20.225-2.982c13.936-9.14 17.321-17.702 17.235-35.504 40.628 17.033 62.277 4.202 70.924-16.712 4.163-10.07 2.72-23.36-1.281-46.763.25 19.07-.162 22.585-2.679 32.012-5.049 18.91-17.403 24.192-25.815 10.788-3.237-5.157-10.975-22.286-13.354-40.721-2.379-18.435-4.202-44.371-15.916-55.198 1.281-2.55 2.607-5.42 3.727-6.552zm-39.635.314c8.2 2.18 18.177 6.506 23.544 16.544 7.413 13.866 12.322 21.246 11.918 46.005-.431 26.432-10.822 33.523-17.682 34.508-8.861 1.273-24.223 1.091-33.346-50.804-3.023-17.19-8.541-33.55-14.325-38.917 2.872-3.467 3.099-3.033 5.24-6.473 2.914 3.186 5.43 8.57 9.473 24.716 6.434 25.69 12.309 30.993 23.68 32.444 17.764 2.266 24.75-24.818 10.132-44.253-3.209-4.266-11.599-9.755-16.008-7.488.255 7.49 3.606 5.138 3.644 10.097-.837 5.895-1.69 6.95-3.591 10.18-4.515-1.774-6.706-2.475-10.647-9.258-4.98-9.844-1.744-19.084 7.968-17.3zM243.79 212.16c-8.36 5.889-18.865 25.421-9.666 42.92 4.542 6.5 9.44 11.826 20.302 9.532 7.762-1.639 21.323-10.805 23.214-23.813 1.621-11.15-14.503-32.676-23.486-27.658-10.399 5.81-4.056 9.978 2.368 16.242 5.875 5.727 1.657 9.18-2.445 10.867-8.211 3.378-12.811.09-14.868-6.434-2.057-6.524-.281-12.08 4.58-21.656zm-91.149 2.04c1.786 5.469 3.215 12.752 6.95 19.812.878.73 4.18.039 8.54-4.982 2.745-3.162 5.865-7.562 11.335-14.712 3.33 3.031 3.62 5.286 4.542 6.944 2.296 4.131 7.14 3.805 8.656 3.374 5.35-5.295 6.199-8.73 9.744-9.18.33 6.847.661 11.111-8.19 21.498-5.186 6.085-13.138 6.23-15.917 5.454-3.83-1.07-6.312-3.43-12.35-6.509-8.208 1.26-6.033 10.01-4.575 17.375 3.843 19.42 15.932 27.162 26.475 21.46 3.668-1.984 2.829-1.972 9.899-4.865-1.184 12.325-1.893 14.712.31 28.482-17.197 9.572-31.194 7.917-35.015-16.085-2.9-20.113-8.303-44.523-13.199-49.47-4.622-4.671-6.521-6.199-6.521-6.199l9.316-12.397zM.002 244.486c-.146 17.216 9.282 32.226 25.504 41.035-3.363 1.722-10.196 4.408-12.228 8.2-9.3 17.355 4.4 21.363 13.276 35.19 10.01 18.076 12.164 30.035 35.792 19.89 8.098-3.477 17.867-4.726 24.107-6.67-22.016 34.752-27.48 44.306-66.032 104.139 154.194-60.188 158.336-61.677 234.586-91.82 109.623 42.538 115.913 46.037 236.295 91.918-16.815-26.247-28.305-42.698-40.528-63.436 4.815-.39 15.364-1.45 24.73-7.403 6.759-4.296 14.698-9.138 21.854-18.254 14.078-17.934 17.53-40.58 12.383-68.85-2.447-13.444-6.136-23.813-6.754-26.992-2.448-12.591-11.607-49.98-11.607-49.98-1.123-13.153-7.736-19.917-28.028-19.262-7.588 1.243-12.36 3.835-15.916 14.162-11.343-20.912-27.014-14.76-33.657-4.472-8.76-8.95-29.174-11.962-39.44-5.414-7.566-3.541-16.36-3.555-24.068 5.65-5.584-4.66-7.3-5.975-19.527-10.868L255.745 65.632 176.864 197.33c-4.905 1.838-5.45 1.322-10.83 6.591-13.02-14.925-28.514-1.315-32.687 7.022-1.814-18.032-4.81-18.04-8.85-22.087 2.333-15.773 10.036-41.479-7.687-59.905-34.276-23.121-73.934 33.4-96.04 63.005C6.357 213.018-.129 228.532.002 244.486zm363.467 37.505c3.328 13.666 8.021 20.364 8.021 20.364 6.422 11.048 14.45 17.32 26.715 20.48 2.7 4.327 3.652 5.18 4.72 7.507 1.17 14.54.327 16.345-10.966 24.618-6.63 6.49-6.912 15.787-.074 24.44 7.352 6.97 15.078 9.484 43.711 2.04 5.535 9.513 13.272 20.755 24.65 38.683-38.324-14.442-91.174-35.06-204.423-79.13 0 0-132.52 51.45-203.57 79.169 29.716-46.874 32.167-50.823 53.3-83.64 7.153-2.787 4.742-1.643 11.102-4.904 14.596-7.772 26.307-19.36 32.686-36.407 11.695 26.374 24.76 29.405 52.018 20.832 5.624-2.59 12.083-6.369 13.47-16.477 14.606 13.152 45.526 15.584 68.09-12.122 19.455 22.767 63.628 24.934 80.55-5.453zm68.556 27.461s1.299 4.106 2.057 5.375c-3.229.107-6.793.039-6.793.039 1.617-1.33 2.919-2.952 4.736-5.414z"/></svg>