<svg xmlns="http://www.w3.org/2000/svg" width="225" height="512"><path d="M224.554 127.78C192.116 151.486 18.714 150.239 0 126.534c4.787-7.862 78.472-5.422 74.849-14.967-4.982-17.467-5.239-35.925-18.706-49.9L9.98 10.516 22.955 0s24.225 24.478 31.94 31.727c20.608 19.361 36.173 41.167 39.915 69.858 1.248 12.476 7.486 13.724 17.467 14.967 54.065 3.88 106.629 2.881 112.277 11.229zM39.924 389.756C29.943 387.26 26.2 381.022 26.2 371.04L0 137.76c80.842 21.927 162.183 18.933 224.554 0l-22.457 232.032c-1.247 12.476-8.733 18.714-19.962 21.21-60.706 9.88-95.072 11.262-142.211-1.248zm140.964 31.182c-2.466 19.96-3.743 41.167-4.99 62.376-1.248 7.486-3.744 11.229-9.982 13.716L121.01 512H96.473s-29.102-12.476-40.33-17.458c-2.495-1.248-4.99-4.99-6.238-8.733-5.333-44.92 1.829-73.338-13.724-89.816v-2.495c52.391 12.476 104.791 12.476 158.43-2.495-12.106 18.253-13.129 25.12-13.723 29.934z"/></svg>