<svg version="1.1" xmlns="http://www.w3.org/2000/svg" width="225px" height="512px"><path d="M224.554306,127.7806168C192.1161041,151.4854126,18.714304,150.237793,0,126.5330048c4.786603-7.8621445,78.4716873-5.4222412,74.8485489-14.9671173C69.8667297,94.099205,69.6103668,75.6408997,56.14291,61.6654129L9.9809618,10.517314L22.9551659,0c0,0,24.224781,24.4780293,31.9401245,31.7268581c20.6075706,19.3615131,36.1723213,41.1671371,39.9151802,69.8580704c1.2476273,12.4761963,7.4857254,13.7238159,17.4666824,14.9671097C166.3417816,120.4314499,218.905777,119.4333954,224.554306,127.7806168z M39.9238472,389.7548828c-9.9809628-2.4952698-13.7238216-8.7333374-13.7238216-18.7142944L0,137.7615814c80.8421021,21.9265289,162.1832428,18.932373,224.5543213,0l-22.4572449,232.0313568c-1.2475433,12.4762268-8.7332764,18.714325-19.9619293,21.2095642C121.4294968,400.8836975,87.0633698,402.2645264,39.9238472,389.7548828z M180.8876038,420.9367065c-2.4658508,19.9612427-3.7428589,41.1671448-4.9904785,62.3766785c-1.2476196,7.4857483-3.7429352,11.2286072-9.980957,13.7151794L121.010498,512h-24.537056c0,0-29.1019516-12.4761963-40.3305321-17.4580078c-2.4952393-1.2476196-4.9904785-4.9904785-6.2380981-8.7333679c-5.3323708-44.9188232,1.8290901-73.3378601-13.7238274-89.8156738c0-1.2475891,0.0000038-2.4952087,0.0000038-2.4952087c52.3913841,12.4761963,104.7914429,12.4761963,158.4304504-2.4952393C182.5051117,409.2559814,181.4821472,416.1238708,180.8876038,420.9367065z"/></svg>