<svg version="1.1" xmlns="http://www.w3.org/2000/svg" width="397px" height="512px"><path fill-rule="evenodd" clip-rule="evenodd" d="M311.877594,473.262207v-44.159729h36.9874573C376.8444824,429.102478,397,406.440918,397,381.9662476V233.5323029c0-24.5007935-20.5754089-47.2739105-48.0574646-47.2739105H311.877594v-17.2258759c53.0607605-10.1676636,42.2963257-85.2197037-11.0424194-81.0642471c14.8663025-30.8087654-20.3473511-67.2504196-55.6758575-47.6563301c-12.2150726-52.0367813-86.8842621-55.8038483-101.1082153,1.0762138c-18.0656738-9.3072968-41.1047363-3.585186-53.3566513,12.2898445c-35.2891502-24.9201164-70.3625946,14.5519676-60.9547806,37.39851c-40.9395523,11.2818527-39.0149994,68.0561066,2.0938263,79.3362579v307.6092529C31.833498,523.517334,311.877594,524.6879883,311.877594,473.262207z M68.8772202,450.7175598c-2.8365936-1.6346741-4.5857468-4.6613464-4.5857468-7.937561V178.1634827l-20.3255424-5.1806488l-0.0000916,306.6692505c57.1713295,28.4996948,216.7803802,26.9910583,255.7849579-4.987854l0.0000305-42.4688416c0-8.2800598,6.6022339-15.2179565,15.5355225-15.2179565h33.6473083c20.0153198,0,35.1513367-16.9389038,35.1513367-35.012207V233.5323029c0-18.9237671-15.3988647-35.1468964-35.1424561-35.1468964h-33.9710083c-8.3926086,0-15.2209473-6.8283539-15.2209473-15.2214355V172.358551c-6.3342285,2.3272247-12.907959,4.4682465-19.6704102,6.399292l-0.0250549,260.3750305c0,3.0999756-1.5751343,5.9915771-4.1828308,7.6720276C221.8270721,478.0648499,121.0509262,474.3045349,68.8772202,450.7175598z M309.8850403,157.0728607c45.5821228-10.710434,21.7134705-72.2359314-18.2645264-53.5693359c-4.8167419,3.0097351-11.5689697-2.6660461-8.087616-8.5470276c8.1418457-14.0737839,12.6542053-24.2266006,4.193512-36.1655655c-8.6100464-12.1497307-27.0741882-18.0494614-42.7180786-3.0749893c-4.4994659,4.4173546-10.5362244,1.2791405-10.7019348-3.9693069c-1.7624359-52.6035233-78.0496216-52.1804924-79.1704559,0c-0.024353,4.8660278-5.4464569,8.6136589-10.9269257,4.1084595c-16.5305481-13.2804756-39.2715302-5.3911438-46.3452377,9.2329254c-1.8016968,3.5939713-6.2747269,4.3665771-9.3572769,1.9353104C57.2243004,40.6514626,31.3117561,79.3336105,43.9268265,90.931427c4.1275024,3.475769,2.2071457,10.3816605-3.7467575,10.7108078c-34.4300346,3.4751816-44.3024216,53.6661911,10.0480194,60.6425705c15.3586044,4.1410217,78.2877655,19.220932,144.3487549,17.0359497c8.1993561,0.3721924,2.926178,7.2965698,16.8256226,18.1576843c8.6846466,5.0116577,12.3967285,11.7554626,12.5888824,19.6910858c-0.0644684,18.8045197,31.9232788,20.1302032,28.9457245-1.4191589c-0.6868896-10.0106049,1.4418488-19.9753113,6.1621704-28.8317413c5.6305542-9.607605,1.0706482-14.59758,8.2534485-17.2958832C297.5681152,162.0657501,292.5131531,160.2275848,309.8850403,157.0728607z M113.1069107,425.729248V206.3615112c0-13.4466095-20.2116776-13.4466095-20.2116776,0V425.729248C92.8952332,439.3101196,113.1069107,439.3101196,113.1069107,425.729248z M346.4239502,391.1809082h-29.1628418c-9.6990967,0-17.5105286-8.0637512-17.5105286-17.5105286V240.4578552c0-8.7869415,7.8114319-17.5110168,17.5105286-17.5110168h29.1628418c10.210022,0,17.5115356,9.0061035,17.5115356,17.5110168v133.2125244C363.9354858,383.9632263,354.6598206,391.1809082,346.4239502,391.1809082z M351.8084717,373.6703796V240.4578552c0-2.9686127-2.4581604-5.3840179-5.3845215-5.3840179h-29.1628418c-2.852417,0.0342865-5.2720337,2.1022034-5.3835144,5.3840179v133.2125244c0.032074,2.7254944,2.1262207,5.3835144,5.3835144,5.3835144h29.1628418C349.3013916,379.053894,351.8046875,376.7115173,351.8084717,373.6703796z"/></svg>