<svg version="1.1" xmlns="http://www.w3.org/2000/svg" width="512px" height="512px"><path d="M238.7845917,504.8088684L7.1857433,273.1699524c-9.4673491-9.8526611-9.6934023-24.2095337-0.0016632-34.4034424L238.7845917,7.1275854c9.3521271-9.2337961,24.4514618-9.7693272,34.3975067,0L504.7809448,238.76651c9.5128174,10.1134644,9.7373657,24.3363037,0,34.4067688L273.1820984,504.8088684C264.3674011,513.7608643,249.3018494,515.0128174,238.7845917,504.8088684z M16.2146912,264.1394653l231.5988617,231.638916c4.3647614,4.365509,11.9781647,4.365509,16.3362579,0l231.6021729-231.638916c4.428894-4.593811,4.6877441-11.3570862,0-16.3424377L264.1531677,16.1580963c-4.4720459-4.4269924-11.6720734-4.5654783-16.3396149,0.0016651L16.2146912,247.7970276C11.7966747,252.3489075,11.5923052,259.3474121,16.2146912,264.1394653z M340.0687561,217.5267029c10.4142151,6.4166718,26.9400635-5.0056,25.507019-6.5112762c-10.697876-5.4996948-20.7635193-10.2520142-19.3187561-15.4953918c1.8960876-4.0408936,6.5020447-5.8926392,13.9077148-2.5504761c4.1888428,1.8904266,10.8379517,8.3761292,17,13.4368286c3.8330994,3.2455292,6.8422241,1.1359711,12.6992188,5.7156067c2.5092468,2.0563202,5.2549133,3.6547089,12.1898193,7.0960541c9.8479919,4.8868866,15.7322693,9.3742676,15.7322693,11.9974976c-0.5185242,1.8330383-7.3536377,9.0879059-23.8808594,5.3916016c-18.9538574-3.8500977-23.2112122,3.4044495-37.3028259,16.3072815c-27.9544373,28.9649963-17.018219,3.740387-40.457489,36.9025269c-8.6621704,13.4271545-22.1536865,18.5060425-25.4751892,16.6670837c-3.0010681-1.6963501-5.4496765-6.3160095-5.6634827-8.9103394c-0.4242249-4.4375305,8.1386414-8.420929,8.8075256-4.434967c1.4880981,4.3920898,8.6869202,1.3005371,13.9062195-11.6616516c4.688385-12.5493469-5.1755981-18.8074341-9.9080505-20.4378052c-9.934082,3.885498-18.0738831,8.8921509-18.2606201,24.861145c1.0833435,18.7202148,1.0833435,37.8339844,7.4572449,41.0367737c15.9448853,8.6561279,50.6785278,17.5851746,81.6929932,28.6311035c13.0601196,4.5110474,12.9214783,8.0611572,2.4116211,9.7529907c-36.7547607-8.791687-74.9263611-11.3048096-92.7630615-18.6886902c-6.0878296-2.9268494-8.0057373-4.7718811-11.177002-10.7518005c-9.461731-17.5410461-9.2757263-41.723938-23.8317871-65.5421143c-4.4794769-5.4563293-32.6244659-15.2384033-42.3446198-33.4021301c-1.4384155-2.7301178-2.4537201-2.7517395-6.5899658-0.1399536c-26.5395966,16.0441132-52.8461304,26.108551-74.4209747,24.6203613c-26.3486557-1.8174438-45.1622162-12.2062531-47.7370224-25.0863953c-14.476635-23.8374329,0.2165756-29.7901459,1.2685471-19.3485107c13.3622589,30.1112061,38.2849197,46.4811707,86.575531,7.3341675c42.4349365-36.6004944,80.054718-94.2722321,131.284668-55.6042786C304.1076355,178.279129,319.1104431,198.7306213,340.0687561,217.5267029z"/></svg>