<svg xmlns="http://www.w3.org/2000/svg" width="512" height="512"><path d="M238.785 504.809 7.185 273.17c-9.467-9.853-9.693-24.21 0-34.403l231.6-231.64c9.352-9.233 24.451-9.769 34.397 0l231.599 231.64c9.513 10.113 9.737 24.336 0 34.406L273.182 504.81c-8.815 8.952-23.88 10.204-34.397 0zm-222.57-240.67 231.599 231.64c4.364 4.365 11.978 4.365 16.336 0l231.602-231.64c4.429-4.593 4.688-11.357 0-16.342L264.153 16.158c-4.472-4.427-11.672-4.565-16.34.002L16.216 247.797c-4.418 4.552-4.623 11.55 0 16.342zm323.854-46.612c10.414 6.416 26.94-5.006 25.507-6.512-10.698-5.5-20.764-10.252-19.319-15.495 1.896-4.04 6.502-5.893 13.908-2.55 4.189 1.89 10.838 8.376 17 13.436 3.833 3.246 6.842 1.136 12.699 5.716 2.51 2.056 5.255 3.655 12.19 7.096 9.848 4.887 15.732 9.374 15.732 11.998-.518 1.833-7.354 9.087-23.88 5.391-18.955-3.85-23.212 3.405-37.304 16.307-27.954 28.965-17.018 3.74-40.457 36.903-8.662 13.427-22.154 18.506-25.475 16.667-3.001-1.696-5.45-6.316-5.664-8.91-.424-4.438 8.139-8.421 8.808-4.435 1.488 4.392 8.687 1.3 13.906-11.662 4.688-12.55-5.176-18.807-9.908-20.438-9.934 3.886-18.074 8.892-18.26 24.861 1.083 18.72 1.083 37.834 7.457 41.037 15.944 8.656 50.678 17.585 81.693 28.631 13.06 4.511 12.921 8.061 2.411 9.753-36.755-8.791-74.926-11.305-92.763-18.688-6.088-2.927-8.006-4.772-11.177-10.752-9.462-17.541-9.276-41.724-23.832-65.542-4.48-5.457-32.624-15.239-42.344-33.402-1.439-2.73-2.454-2.752-6.59-.14-26.54 16.044-52.846 26.108-74.421 24.62-26.349-1.817-45.162-12.206-47.737-25.086-14.477-23.838.216-29.79 1.268-19.349 13.363 30.111 38.285 46.481 86.576 7.334 42.435-36.6 80.054-94.272 131.284-55.604 12.73 9.567 27.733 30.019 48.692 48.815z"/></svg>