<svg version="1.1" xmlns="http://www.w3.org/2000/svg" width="512px" height="512px"><path d="M356.7312622,487.7902527H155.2685547c-19.4002075,0-37.4155655-10.4726868-47.0163345-27.3300171L7.0552797,282.7772522c-9.4069586-16.517334-9.4069586-37.038147-0.0004854-53.5544891L108.2527084,51.538784c9.600769-16.8573341,27.616127-27.3290462,47.0158463-27.3290462h201.4627075c19.3987427,0,37.4150696,10.4717121,47.0163269,27.3290462l101.1964722,177.6839752c9.4079285,16.5158539,9.4079285,37.0371552,0,53.5554352L403.7475891,460.4602356C394.1463318,477.3185425,376.1309814,487.7902527,356.7312622,487.7902527z M155.2685547,53.0591698c-9.0557556,0-17.4654846,4.888546-21.947464,12.7576332L32.1236649,243.4998169c-4.3906593,7.7102356-4.3906593,17.2896423,0.0004845,25.0003662L133.3210907,446.183197c4.4819794,7.8690796,12.8912201,12.7576294,21.947464,12.7576294h201.4627075c9.0562439,0,17.4654846-4.8885498,21.947937-12.7576294l101.1964722-177.6830139c4.3921204-7.7107239,4.3921204-17.2896423,0-24.9994049L378.6791992,65.8163147c-4.4824524-7.8685989-12.8916931-12.7571449-21.947937-12.7571449H155.2685547z M186.5505219,134.0200806l31.2906189,54.348053l-76.6833801,135.1491699l31.3512115,55.5001221c5.7349854,5.7478638,10.8868408,3.6287842,15.6756134-3.3893127l61.4314423-107.6109314c4.5902405-4.9277344,8.9646301-4.8467102,13.1336365,0l60.1604309,105.0689392c5.2659912,11.5188904,13.6989136,10.2591553,16.9465942,5.5076599l31.5528259-56.5109558l-115.2909851-200.381897h-62.3331146C186.871933,122.2092667,184.4463501,127.1056671,186.5505219,134.0200806z"/></svg>