<svg version="1.1" xmlns="http://www.w3.org/2000/svg" width="456px" height="512px"><path d="M182.3744507,500.8088989L44.0750618,421.2050171c-27.1840649-15.6472168-44.0724792-44.853241-44.0750618-76.2187195V173.7541199c-0.0032289-31.6412354,16.0682735-60.4591141,42.990799-77.0866318l135.9623108-83.930603c26.8295288-16.5597115,60.427475-17.0007782,87.6819305-1.1546526l151.3150635,88.0028839c23.3294067,13.5684662,38.053772,38.7609558,38.0498962,65.746109v180.4338837c-0.0038757,29.3274231-16.112793,56.4811401-41.6662598,70.8677979l-150.1746216,84.5647583C236.9529877,515.7598877,209.6911774,515.5683594,182.3744507,500.8088989z M194.3569336,485.9414062c18.2845154,10.0107727,37.4979553,11.1163025,57.9575195,0.2753906l155.3789062-87.4960938c17.9736328-10.1201172,29.140625-29.2207031,29.1416016-49.8466797V162.1884766c0.0029297-18.359375-9.8554688-35.4990234-25.7265625-44.730957L254.0415039,26.1289062c-21.4335938-10.8588867-42.3813477-10.5371094-62.2661133,0.9584961L50.8549805,114.0737305c-19.8461914,12.2573242-31.6928711,33.5019531-31.6899414,56.828125v177.168457c0.0009766,22.8427734,12.3007812,44.1123047,32.0981445,55.5078125L194.3569336,485.9414062z M201.9047852,44.3330078L61.362793,131.0913086c-13.9008789,8.5854492-22.199707,23.4677734-22.1977539,39.809082v177.1699219c0.0009766,15.7089844,8.4594727,30.3369141,22.0756836,38.1738281l143.0927734,82.3632812c11.737793,6.7558594,26.3647461,6.8242188,38.1694336,0.1806641l155.3779297-87.4951172c11.6904297-6.5820312,18.953125-19.0048828,18.9541016-32.4199219V162.1870117c0.0009766-11.2636719-6.0458984-21.777832-15.7822266-27.440918L244.7529297,43.8442383C229.6625977,36.277832,215.6416016,36.4384766,201.9047852,44.3330078z M123.0221634,393.0299683V118.9700241H180.35495v99.8264694h95.1181946v-99.8264694h57.5046997v274.0599365h-57.5046997v-119.836792H180.35495v119.836792H123.0221634z"/></svg>