<svg xmlns="http://www.w3.org/2000/svg" width="456" height="512"><path d="M182.374 500.809 44.075 421.205C16.891 405.558.003 376.352 0 344.986V173.754c-.003-31.641 16.068-60.459 42.99-77.087l135.963-83.93a85.165 85.165 0 0 1 87.682-1.155L417.95 99.585c23.33 13.569 38.054 38.761 38.05 65.746v180.434c-.004 29.328-16.113 56.481-41.666 70.868l-150.175 84.565c-27.206 14.562-54.468 14.37-81.785-.39zm11.983-14.868c18.284 10.011 37.498 11.117 57.957.276l155.38-87.496c17.973-10.12 29.14-29.221 29.141-49.847V162.188c.003-18.359-9.856-35.499-25.727-44.73l-157.066-91.33c-21.434-10.858-42.382-10.536-62.267.96l-140.92 86.986c-19.846 12.257-31.693 33.502-31.69 56.828V348.07c.001 22.843 12.3 44.113 32.098 55.508l143.094 82.363zm7.548-441.608L61.363 131.091c-13.901 8.586-22.2 23.468-22.198 39.81v177.17c.001 15.708 8.46 30.336 22.076 38.173l143.092 82.363c11.738 6.756 26.365 6.825 38.17.181l155.378-87.495a37.258 37.258 0 0 0 18.954-32.42V162.187c0-11.264-6.046-21.778-15.782-27.44l-156.3-90.903c-15.09-7.566-29.111-7.406-42.848.489zM123.022 393.03V118.97h57.333v99.826h95.118V118.97h57.505v274.06h-57.505V273.193h-95.118V393.03h-57.333z"/></svg>