<svg xmlns="http://www.w3.org/2000/svg" width="487" height="512"><path d="M433.564 329.127c-.446 17.167-33.615 29.09-20.112 46.152 29.805 4.185 16.249 23.939 32.578 30.662-28.865 47.002-75.448 52.873-119.742 23.44-12.886-7.684-27.396-10.94-39.291-7.736-6.776 10.84 3.305 12.118 9.732 13.688 31.15 6.201 62.553 54.347 167.968 8.487 14.046-5.912 11.916-23.308 5.834-36.985 11.683-4.978 12.384-17.96 14.106-34.646 11.46-37.616-26.181-34.365-51.073-43.062zm-165.728-81.688c-12.854.288-31.777 12.464-44.28 18.524 17.643 10.378 24.651 22.727 44.28 18.87 19.636-3.856 19.278-16.5 11.553-31.189-2.423-4.607-6.523-6.317-11.553-6.205zM350.783.014c-23.986 1.1-44.619 65.358-69.083 110.904-70.332 29.251-87.93-8.677-110.895-2.439C131.69 28.753 73.613-51.179 57.92 43.822c3.47 71.804-25.19 77.72-22.655 180.173 0 0-51.119 102.887-30.263 193.927 14.695 64.151 66.371 88.362 101.08 94.078 3.592-26.24 44.78-85.41 33.515-99.217-28.108-34.451-19.29-118.846 51.948-127.569 9.732-70.992 58.03-57.629 53.089-78.164-15.482-64.332 51.32-34.302 62.531-13.222 20.144 33.427 34.308 66.281 50.774 81.853 20.941 19.805 49.347 30.623 51.01 31.247-5.968-3.73-57.183-47.055-72.168-81.854-9.012-20.93-8.106-68.08-8.106-68.08 25.985-4.065 36.469 39.655 64.69 79.32 1.168 2.857.962 5.144 0 7.05-3.893-2.053-5.246-7.202-9.918-7.82-4.254 0-7.703 6.036-7.703 13.479s5.614 10.1 13.347 13.58c10.781 18.973 21.986 25.945 32.767 30.699L387.07 191.65c-1.29-63.662 5.444-127.327-31.442-190.99a13.923 13.923 0 0 0-4.845-.646zm.333 20.297c1.927-.033 3.707 1.267 5.282 4.227 19.253 36.195 19.963 121.15 19.831 151.184-9.143-20.808-22.843-55.803-66.035-66.473 0 0 25.231-88.665 40.922-88.938zM92.392 28.385c8.777-.037 18.752 5.106 30.324 26.207 18.515 33.762 31.801 56.222 38.25 67.847 13.201 23.796-5.78 4.98-11.722 66.035-1.174 12.056-5.726 17.854-14.65 23.973-19.315-19.306-32.938-52.81-42.343-92.643-18.44 27.387 11.933 69.735 12.473 105.95-20.488 4.683-33.772 3.045-41.352.518-9.505-4.752-12.637-62.723 4.994-107.725C83.052 81.063 76.071 33.4 82.6 31.323c4.492-1.43 4.525-2.916 9.792-2.938z"/></svg>