<svg version="1.1" xmlns="http://www.w3.org/2000/svg" width="512px" height="512px"><path d="M256.0663452,486.7324829c-65.7959595,0.002533-131.5702362-25.1257629-181.5315094-75.3428345C26.2959042,362.9025574-0.1745572,298.5316772,0.0008664,230.136261C0.1762899,161.7401886,26.9759102,97.5064545,75.4629898,49.2675247l27.6429291,27.7845459c-84.7736053,84.3391953-85.1257324,221.9223328-0.7865372,306.6959229c42.3089752,42.525238,98.0273285,63.8069763,153.7456818,63.8095398c55.3522034,0.002533,110.703125-20.9946899,152.9502258-63.0249023c84.7723389-84.338562,85.1244507-221.9216919,0.7859192-306.6953125l27.7845459-27.6422882c99.5806274,100.0935059,99.1647339,262.5402222-0.9288025,362.1221008C386.7817993,461.9371643,321.4132385,486.7286377,256.0663452,486.7324829z M258.3589783,412.0823975c48.4245605-0.6136475,93.7119141-20.0480347,127.51828-54.7232056l-24.3220215-23.7121887c-27.4719543,28.178772-64.2739258,43.9720154-103.6262207,44.4708557c-39.3516388,0.5383911-76.5439911-14.3554077-104.7227631-41.8299255c-28.1794052-27.4719543-43.9732666-64.2739258-44.4721069-103.6268616c-0.4988403-39.3522797,14.3560257-76.5433655,41.8292694-104.7221298c56.7160492-58.1717377,150.1830139-59.3531342,208.3509216-2.6428375l23.7121582-24.3207245c-71.5843201-69.7905197-186.5971069-68.3290787-256.3837891,3.2513962c-33.8069916,34.675827-52.0867691,80.4409637-51.4731064,128.8648834c0.6143036,48.4245758,20.049324,93.7119293,54.7245102,127.5182648c34.1125488,33.257782,78.9527283,51.487793,126.5033569,51.487793C256.782074,412.0977173,257.5730896,412.0926208,258.3589783,412.0823975z M275.6563721,130.1977539H241.68927v201.1910706h33.9671021V130.1977539z"/></svg>