<svg xmlns="http://www.w3.org/2000/svg" width="512" height="512"><path d="m0 302.61 51.237-59.053s40.914 47.4 90.04 65.54l-52.702 59.448S42.235 352.391 0 302.61zm148.023-1.195 51.112-57.858c-52.567-20.924-90.166-66.6-90.166-66.6l-51.371 59.314c45.801 50.841 90.425 65.144 90.425 65.144zm57.993-65.405 48.192-54.552c-50.968-20.26-90.561-67.264-90.561-67.264l-48.191 55.477c45.675 52.036 90.56 66.34 90.56 66.34zm162.282-44.58 45.9-51.37c-73.086-27.187-134.305 26.035-134.305 26.035l-27.536 32.577c60.338-32.127 115.94-7.241 115.94-7.241zm-174.015 72.431c58.29-30.195 115.33-7.133 115.33-7.133l51.578-57.454s-54.093-24.105-118.465 12.165l-48.443 52.422zm-62.17 69.574c58.289-30.196 115.32-7.134 115.32-7.134l55.047-61.137s-51.156-22.65-117.864 11.212l-52.504 57.059zm108.466.629c-59.09-21.958-116.642 11.374-116.642 11.374L98.34 371.905c87.12 28.022 142.238-37.841 142.238-37.841zm224.82-70.957L512 210.325c-40.6-48.73-88.09-66.735-88.09-66.735l-46.07 51.551c53.132 23.656 87.559 67.966 87.559 67.966zm-57.382 65.315 50.85-57.903c-41.489-50.842-87.74-67.607-87.74-67.607l-52.08 58.074c53.491 22.955 88.97 67.436 88.97 67.436zm-150.584 1.59c51.73 20.834 89.68 67.794 89.68 67.794l54.372-61.963c-44.13-51.552-88.97-67.265-88.97-67.265l-55.082 61.434z"/></svg>