<svg xmlns="http://www.w3.org/2000/svg" width="512" height="512"><path d="M12.16 13.293s18.9 32.964 112.181 72.289 249.141 46.195 281.937 45.201c2.83.734 11.072 5.743 11.483 14.42.563 11.893-8.693 28.982-30.147 33.29-121.522 6.771-223.491-9.233-308.999-42.613C-6.434 107.073.116 24.532.116 24.532c1.227-10.609 5.27-14.324 12.043-11.239zm354.92 241.809c34.587-20.197 25.498-47.714 7.069-45.442-70.183 5.806-109.26 1.3-155.513-1.767-49.482-3.282-119.917-21.207-119.917-21.207-27.518-7.573 8.33 60.337 49.229 68.164 45.947 12.875 165.359 16.914 219.132.252zm-167.519 41.876c-21.512 3.074 9.499 45.539 54.339 53.082 26.964 2.075 56.438-.3 81.577-15.366 0 0 22.63-19.556 20.953-31.849-4.19-20.953-22.629-14.248-22.629-14.248-34.057 8.116-79.722 10.452-134.24 8.381zm165.262 71.272c-10.63 26.771-20.361 52.737-26.849 75.794-2.795 26.787 16.433 49.468 30.044 54.752 8.913 3.46 15.509-2.496 17.32-16.91-.532-.575 17.674-53.093 45.235-116.368 28.79-66.098 57.964-137.799 61.29-144.245 9.011-17.46 19.232-53.446 19.232-53.446 8.138-36.904-41.066-59.84-51.583-42.007l-24.692 71.79-69.997 170.64z"/></svg>