<svg version="1.1" xmlns="http://www.w3.org/2000/svg" width="360px" height="512px"><path d="M337.0706482,407.1837463H22.1335068C9.9296064,407.1837463,0,397.2554016,0,385.0489807V168.2498322c0-12.2038879,9.9296064-22.1334991,22.1335068-22.1334991h314.9371338c12.2039185,0,22.1322632,9.9296112,22.1322632,22.1334991v216.7991486C359.2029114,397.2554016,349.2745667,407.1837463,337.0706482,407.1837463z M26.2601776,380.9261169h306.6850586V172.3765106H26.2601776V380.9261169z M60.1224518,292.9064941c0.4628868,10.4354248,15.056076,10.2423706,15.5690918,0c1.4648972-41.9944763,59.2248688-43.2855835,61.160141,0c0.460083,10.3693237,15.0469513,10.2333069,15.5691071,0C148.0056305,227.2612915,62.1941147,231.0075073,60.1224518,292.9064941z M252.6600647,433.9782104L106.5440292,512l0.0000687-78.021759L252.66008,511.9999695L252.6600647,433.9782104z M294.9134216,12.8543482c-9.8808289-17.1390915-34.7171631-17.1391506-44.5980225-0.0000601c-8.6369476,14.9814644-0.2352905,33.3240814,15.2151794,37.7054596l-11.8584747,67.6096344h37.8847504l-11.85849-67.6096344C295.1488037,46.1783676,303.5503845,27.8356915,294.9134216,12.8543482z M206.7833862,292.9064941c0.4628754,10.4354248,15.056076,10.2424011,15.5690918,0c1.4648895-41.9944763,59.2248535-43.2855835,61.1601257,0c0.460083,10.3693237,15.0469666,10.2333069,15.5691223,0C294.6665649,227.2612915,208.8550415,231.0075073,206.7833862,292.9064941z"/></svg>