<svg xmlns="http://www.w3.org/2000/svg" width="512" height="512"><path d="m291.592 309.307 149.865 130.37-127.877-152.34c.218-.376.465-.731.675-1.112L512 255.76s-121.735-14.147-197.09-26.683c-1.047-2.005-2.17-3.962-3.428-5.827L436.29 77.906l-133.615 131.89 22.08-123.014h34.894c5.566 0 10.078-4.512 10.078-10.078s-4.512-10.077-10.078-10.077h-97.937v-64.9l-7.788 64.9h-31.907c-5.565 0-10.077 4.512-10.077 10.077s4.512 10.078 10.077 10.078h29.488l-13.744 114.535c-3.138 1.33-6.11 2.96-8.952 4.776L79.923 78.143l130.76 145.89a60.252 60.252 0 0 0-2.059 3.389L0 256.448l207.475 27.989c2.08 4.077 4.577 7.903 7.49 11.38L79.924 430.859 229.79 308.542c1.18.724 2.367 1.431 3.598 2.075l-20.591 114.711H170.42c-5.565 0-10.078 4.513-10.078 10.078 0 5.565 4.513 10.078 10.078 10.078h81.07l2.045 64.79 7.424-64.79h47.093c5.565 0 10.077-4.513 10.077-10.078 0-5.565-4.512-10.078-10.077-10.078H263.99l20.163-112.336a60.055 60.055 0 0 0 7.439-3.685zM273.567 86.782l-11.854 66.035V86.782h11.854z"/></svg>