<svg version="1.1" xmlns="http://www.w3.org/2000/svg" width="512px" height="512px"><path d="M481.1863403,185.5431976c-28.418335-89.9212341-113.055542-155.1675568-213.073822-155.1675568c-123.3166656,0-223.2845612,99.1702194-223.2845612,221.5028687c0,6.1664734,0.2674332,12.2702332,0.7704124,18.3077393C-8.393014,333.102417-68.8668518,538.1339722,213.59021,466.7200623c17.4502106,4.346344,35.7129974,6.6613159,54.5223083,6.6613159c59.3296509,0,113.230957-22.9776611,153.2156372-60.4256592h8.9630737L512,334.0247192V185.5431976H481.1863403z M265.0713196,425.5844421c-34.5541687,14.8293152-83.6889191,29.1526794-115.9978943,32.3093872c-9.934967,0.9706726-43.0395737,0.8109436-50.168251-0.6029358c-37.2899399-7.3963318-66.0761566-29.1976929-70.804512-52.8401489c-4.7283554-23.6424866-4.8925266-26.4336243-0.5175209-51.5751343c2.2191505-12.7528381,12.6062336-35.289032,23.6672802-53.1834412c21.0629578-32.0105591,49.6387863-72.0650635,96.6793594-102.5679474c-18.8990936,28.318222-35.9323883,57.256958-45.5586853,77.8330231c-8.3463593,17.8401794-13.2452087,32.7373352-14.9764862,45.5427246c-2.00103,14.7998352,0.3688736,23.5048218,7.0438919,32.6829224c12.4193726,17.0765686,35.5746841,25.7351685,64.2827835,25.7351685c44.429718,0,94.5740814-17.47052,121.8822021-29.9427185c40.5623169-18.5255737,78.2362976-41.9903259,98.3199463-61.2372131l23.0959473-22.1336365l-76.0046082,0.7917175l56.5393677-60.3087006H487.177002v119.2689667l-59.0821533,56.3966064v-78.5800476l-22.1448059,25.0436096C362.4795837,377.3773804,305.3458557,408.3002014,265.0713196,425.5844421z"/></svg>