<svg xmlns="http://www.w3.org/2000/svg" width="512" height="512"><path d="M150.848 230.395v82.68H124.53V209.15l54.337.054c23.078 0 30.94 16.275 30.94 31.058v72.813h-26.271v-72.677c0-6.192-3.206-10.003-10.938-10.003h-21.749zm157.583 20.934h40.491c.631-30.563-40.534-28.566-40.49 0zm66.763 17.913h-66.763c-.796 24.687 30.53 31.48 47.435 13.462l16.256 15.521c-10.409 10.276-21.33 16.516-40.574 16.516-25.194 0-49.306-13.738-49.306-53.776 0-34.21 21.052-53.576 48.714-53.576 30.121.56 46.618 23.957 44.238 61.853zm-115.17 43.703c-21.44 0-30.538-14.926-30.538-29.668V180.835h26.278v28.315h19.81v21.245h-19.81v51.235c0 6.038 2.851 9.389 9.12 9.389h10.69v21.926h-15.55zM101.112 194.788h-26.5v-25.172h26.5v25.172zm.067 119.38c-19.845-1.907-26.595-13.944-26.595-27.834l.029-77.184h26.566v105.017zm315.84-2.22c-19.803-1.911-26.521-13.929-26.521-27.8V166.034h26.522v145.914zm92.718-128.845C485.701 65.92 258.23 58.501 111.61 147.76v9.854c146.471-75.274 354.203-74.83 373.129 33.101 6.332 35.689-13.779 72.898-49.696 94.286v27.982c43.231-15.816 87.567-67.102 74.694-129.88zM243.215 388.13c-101.191 9.354-206.64-5.334-221.394-84.406-7.222-38.98 10.536-80.3 34.093-105.968v-13.725C13.506 221.22-9.51 268.298 3.74 323.927c16.911 71.333 107.412 111.758 245.546 98.333 54.653-5.334 126.186-22.907 175.917-50.202V333.28c-45.125 26.87-119.797 49.09-181.99 54.849z"/></svg>