<svg xmlns="http://www.w3.org/2000/svg" width="512" height="512"><path d="M462.24 104.425c5.712-8.209 8.391-18.639 6.213-29.714-5.523-28.08-38.356-40.483-61.316-24.702C329.785-6.322 222.04-19.929 127.711 34.453c-170.281 98.169-170.281 344.924 0 443.093S512 452.338 512 256c0-58.237-18.83-110.054-49.76-151.575zm-324.66 356.08c-157.183-90.618-157.183-318.392 0-409.01 86.492-49.864 185.203-37.8 256.5 13.33-10.235 20.246-1.097 46.787 22.557 54.767 10.843 3.659 21.695 2.388 30.7-2.196 27.977 38.106 44.97 85.456 44.97 138.604 0 181.235-197.545 295.122-354.728 204.504zM137.845 256C137.63 181.518 172.062 138.144 256 137.846c76.905-.273 118.103 37.476 118.154 118.154.046 73.018-33.87 119.075-118.154 118.153C170.322 373.216 138.051 326.7 137.846 256z"/></svg>