<svg xmlns="http://www.w3.org/2000/svg" width="512" height="512"><path d="m484.947 58.629-13.52 74.63c-3.681 2.233-3.937 6.068-1.217 7.333h27.828c4.98.553 6.442-7.403.687-6.414zm-14.357 82.957v60.143l-8.527.057c-1.107 6.495.974 13.568 5.589 16.63l-.191 142.693c-5.553 1.291-7.34 7.78-.782 9.416l-4.965 44.118-5.254.002v-45.047h-15.083l-.36-91.457c5-4.189 3.326-8.781 3.779-13.62h-4.831l-.378-41.362c2.2-1.644 3.556-5.985-.253-6.373l-9.32-51.278c-.818-1.114-1.552-.657-2.016 0l-8.575 51.16c-4.673 1.474-3.933 3.529-1.091 5.125l.216 43.272s-4.158.04-5.69.114c-.924 7.802 3.219 11.874 3.219 11.874l-.355 61.883-15.691.18v-8.527h-10.846l.06-25.414h3.324s.36-2.513-.785-2.549c-.633-.02-1.467-.013-2.533-.016l.068-29.022-19.865.092v-4.24h-6.997c-16.964-35.405-50.637-57.697-94.868-60.534h-.062l.039-6.467c-.547-2.602-1.708-5.055-4.63-7.657 0 0-.018-.913 0-2.278.224-.04 1.068-.014 1.393-.603l-.093-2.556s-.16-1.024-1.383-1.37c.623-4.28-.874-4.198-.874-4.198l.077-1.647c1.056-1.041 1.402-3.142-.198-3.105 0 0 .056-4.69-.688-4.876-.744-.186-1.034 3.936-1.034 3.936-1.144.68-1.597 2.844-.287 4.17l-.353 5.649c-1.14 1.238-1.717 2.726-.235 4.313l.148 2.221c-2.656 1.014-4.883 5.752-5.008 7.77l-.055 6.52c-39.34 2.542-78.161 23.41-94.194 60.626l-7.427.055.027 4.277-20.521.064v29.058c-.866-.007-1.532-.02-2.194 0-1.146.036-1.576 2.578-1.576 2.578h3.77v25.644l-9.621-.134v8.197l-27.24-.109-.566-60.455c3.899-4.952 3.554-7.795 3.517-13.785h-4.4l-.67-43.366c3.632-1.116 3.866-5.45.075-6.095l-9.805-50.607c-.1-.422-.306-.84-.622-.774-.19.04-.418.254-.685.742l-8.772 50.922c-5.368 2.424-3.369 4.591-1.423 5.862l.095 43.316h-6.063c.052 4.01-1.487 8.917 4.05 13.616l.182 91.215h-16.47l.315 45.186-5.293.002-4.177-44.528c7.397-1.981 4.484-7.442-.235-9.176 0 0 .276-136.846-.137-141.11-.412-4.263 5.086-4.813 5.086-13.89 1.078-6.28-5.39-4.424-8.154-4.554v-59.78h-28.96v59.794c-3.062-.044-5.377-.057-5.794.002-1.926.275-2.339 3.438-1.651 8.664.687 5.226 4.749 8.632 4.749 8.632l.742 139.103c.34 4.684-1.481 4.068-3.289 4.514-3.564.572-2.683 7.425 2.061 7.425C9.833 376.461 0 452.93 0 452.93l512 .442-9.723-83.245c8.037-.95 4.8-8.976-1.187-8.84l-.13-142.296c2.546-1.389 7.698-8.301 5.077-17.499l-7.475.05v-59.955zM258.694 276.459c2.627.077 5.179 1.9 5.943 5.136v18.792h-12.744l.41-18.59c1.062-3.748 3.764-5.416 6.391-5.338zm-45.083.025c2.81-.054 5.734 2.084 6.52 5.746v18.153l-12.148-.052.33-19.426c.994-3.01 3.111-4.38 5.298-4.421zm118.132.1c2.261.207 4.302 2.143 4.892 5.612v18.308H325.57l-.036-19.167c1.467-3.44 3.948-4.96 6.209-4.753zm-57.902.005c2.639.112 5.17 1.897 5.87 5.152v18.724l-12.557-.052.163-18.936c1.136-3.44 3.885-5 6.524-4.888zm-74.445.018c2.53-.133 5.176 1.592 6.036 4.742v19.039h-11.156l.328-19.898c.929-2.554 2.825-3.78 4.792-3.883zm172.167.032c1.941.14 3.857 1.76 4.997 5.507l-.091 5.289c-7.349-.091-7.015 1.145-10.719 3.667l-.191-9.065c.973-3.318 3.508-5.58 6.004-5.398zm-186.218.025c2.53-.133 5.176 1.592 6.036 4.742v19.041h-11.156l.328-19.9c.929-2.554 2.825-3.78 4.792-3.883zm57.745 0c2.722-.133 5.499 1.592 5.945 4.742v19.041h-11.402l.33-19.9c.929-2.554 3.01-3.78 5.127-3.883zm44.565 0c2.66-.133 5.443 1.592 6.347 4.742v19.04H282.27l.346-19.9c.977-2.554 2.97-3.78 5.039-3.882zm57.004.036c2.532-.107 5.091 1.647 5.537 4.797v19.041l-10.716-.091.328-19.9c.929-2.554 2.882-3.763 4.851-3.847zm-185.657.014c2.18.157 4.226 1.922 5.134 5.063l.1 18.868h-3.838c-.31-2.458-.973-8.697-5.195-9.637-.274-1.218-1.418-1.926-2.157-2.425l.027-7.277c1.437-3.296 3.75-4.749 5.929-4.592zm12.634.007c2.53-.133 5.176 1.592 6.036 4.742v19.041h-11.156l.33-19.897c.929-2.555 2.823-3.783 4.79-3.886zm55.975 0c2.53-.133 5.177 1.592 6.036 4.742v19.041h-11.156l.33-19.897c.93-2.555 2.823-3.783 4.79-3.886zm130.268.046c2.449-.15 4.852 1.685 5.956 4.539l.027 11.941c-.74.5-1.974 2.35-1.99 5.433-.813.617-1.561 1.051-1.55 1.965h-7.65V281.17c1.37-2.97 3.302-4.286 5.207-4.402zm-54.559.036c2.274.118 4.336 1.928 5.009 5.186l-.276 18.399h-11.156l.146-18.615c1.52-3.515 4.004-5.088 6.277-4.97zm-157.672.141c2.17-.146 4.366.951 5.252 3.615v7.39h-10.46l.1-7.153c.792-2.315 2.938-3.706 5.108-3.852zm171.5.084c2.565.012 5.135 1.767 5.605 5.205v18.15l-11.179-.052v-18.053c.45-3.53 3.009-5.262 5.574-5.25zm-156.315 28.393h3.87v25.316h-3.87zm195.914 0h3.87v25.316h-3.87zm-211.301 15.81h2.728v17.446h-2.728zm228.267 0h2.73v17.446h-2.73zm-201.651 9.976h3.077v113.07h-3.077zm174.121.005h3.836v113.06h-3.836zm-86.732 19.806c4.501-.091 9.029 2.842 9.153 9.074v28.817h-18.052l-.1-28.817c.021-5.868 4.497-8.983 8.999-9.074zm-22.135 12.789c3.376-.029 6.771 2.177 6.865 6.78v17.848h-13.613v-18.002c.016-4.335 3.373-6.598 6.748-6.626zm44.314 0c3.376-.029 6.77 2.177 6.865 6.78v17.848h-13.613v-18.002c.016-4.335 3.373-6.598 6.748-6.626zm-136.191 1.146h2.742v9.01h-2.742zm228.267 0h2.742v9.01h-2.742zm-228.233 33.485h2.74v9.346h-2.74zm228.267 0h2.742v9.346h-2.742zm-182.115 4.809c2.913-.029 5.845 2.177 5.926 6.782v17.855h-11.75v-18.01c.014-4.335 2.91-6.599 5.824-6.627zm22.892.287c2.914-.029 5.843 2.177 5.924 6.782v17.855h-11.75v-18.01c.014-4.335 2.913-6.599 5.826-6.627zm22.642.145c3.163-.028 6.342 2.179 6.43 6.783v17.852h-12.752v-18.007c.015-4.335 3.16-6.6 6.322-6.628zm22.604 0c3.162-.028 6.341 2.179 6.43 6.783v17.852H253.44v-18.007c.015-4.335 3.16-6.6 6.323-6.628zm22.027 0c3.162-.028 6.344 2.179 6.432 6.783v17.852h-12.755v-18.007c.015-4.335 3.16-6.6 6.323-6.628zm23.323 0c3.162-.028 6.344 2.179 6.432 6.783v17.852H298.79v-18.007c.015-4.335 3.16-6.6 6.323-6.628zm22.43 0c3.162-.028 6.344 2.179 6.432 6.783v17.852H321.22v-18.007c.016-4.335 3.16-6.6 6.323-6.628zM27.578 59.937l-13.52 73.679c-3.681 2.203-3.937 5.99-1.217 7.239h27.828c4.98.545 6.222-7.31.467-7.214z"/></svg>