<svg xmlns="http://www.w3.org/2000/svg" width="512" height="512"><path d="M213.374 0h281.031v73.373h-46.012c-19.112 0-29.322 12.866-29.322 27.934V375.65c0 75.834-55.365 106.904-55.365 106.904s-37.867 29.128-104.861 29.128-158.248 7.303-207.766-48.04c-21.664-24.213-34.243-46.003-33.449-81.146.718-31.777 12.833-54.756 46.057-71.798 59.215-30.372 149.942-3.077 126.764 74.276-6.463 21.566-29.638 28.811-30.546 37.562-1.599 15.402 3.91 30.575 16.299 30.575 39.146 0 58.845 8.053 79.001-.124 36.733-14.901 33.739-60.73 33.739-60.73V97.093c0-16.407-15.535-23.72-27.186-23.72h-48.384V0z"/></svg>