<svg version="1.1" xmlns="http://www.w3.org/2000/svg" width="512px" height="512px"><style type="text/css">.st0{fill-rule:evenodd;clip-rule:evenodd;}</style><path class="st0" d="M511.9984741,287.8019409c0.0123901,11.5829468-10.9869385,14.7887573-20.1360474,16.729248c-12.7141724,2.6965942-24.9186401,7.2724915-36.938324,12.1377563c-21.8998108,8.8645325-43.7413635,17.8674011-65.5403442,26.9772644c-47.2445374,19.7435913-95.4436646,34.387207-144.5337219,48.6912537c-21.9259033,6.388855-43.766861,13.0741882-65.6488647,19.6116028c-22.786087,6.8074951-45.5922394,14.2304382-69.6639709,13.8157043c-43.5091782-0.7496643-78.3115463-21.694397-96.0611267-61.8427734C-6.474896,318.7942505-5.5371289,269.9910278,24.8266869,229.4442291c11.4224281-15.2530975,27.4346275-25.4920197,45.8790169-30.1310577c9.8220444-2.4703827,19.946991-3.4075317,30.0569-3.1783905c2.1355515,0.0484009,15.5677032,2.3342438,17.1981049,0.9308624c1.212944-1.0440521,1.4435806-7.9025269,1.7083435-9.3515015c4.2500381-23.2590942,7.6990814-45.9044037,25.450119-63.1285782c16.9249725-16.4226074,41.7386627-23.2916031,63.99263-29.0488205c21.2266693-5.4914551,45.1067047-10.8869171,67.164444-8.8955917c11.8291931,1.0679169,21.0093384,6.2829132,32.0175781,9.539299c7.2322388,2.1393967,15.5925293,1.7375565,23.079895,2.5370941c23.4064026,2.4994812,43.6815491,9.1049042,49.0019836,34.5972137c5.6065063,26.8630066,7.2161865,54.6956329,8.3467407,82.0371094c0.2198792,5.3180237-0.8954773,14.7392731,0.7866516,19.7194214c1.7539673,5.1928558-2.3441162,1.9109039,4.0904846,4.7654572c3.3755188,1.497467,7.9672241,1.6500549,11.6305237,2.532074c14.0078735,3.3726654,27.7224121,7.8399506,41.3412781,12.5144043c13.1157227,4.5017548,26.190033,9.088028,39.385498,13.3548126C495.9058228,271.4550781,511.9842224,274.2626038,511.9984741,287.8019409C512.0037231,292.7247009,511.9933167,282.907196,511.9984741,287.8019409z M107.6845016,210.8129883c6.6120605,0.6208191,19.5190735,4.5508118,23.1231003-2.2116394c2.239624-4.2023468,1.959259-11.1049805,2.7821045-15.8396301c1.0491486-6.0368042,2.1063385-12.0725708,3.2341156-18.0952759c3.4621735-18.4891052,9.7058258-35.0358582,25.8694611-46.0323334c16.5458069-11.2564697,38.728653-16.7713699,58.0007629-21.1194916c20.5784302-4.6428528,46.3584137-10.8900528,66.9321136-3.6935806c-21.1760559,2.2653427-40.7940674,10.7297745-60.8247681,17.3606262c-9.5484924,3.1608734-19.2577209,5.8026733-28.9208679,8.5824509c-8.3262787,2.3952179-21.5252838,4.1863861-25.6697845,12.985321c-3.1817169,6.7549286,0.1715546,14.8346405,7.7827301,16.1295929c9.2562256,1.5748291,20.460083-8.0554504,27.7263794-12.7375183c15.6705475-10.0974121,30.8474121-22.0849838,48.3000793-28.9850693c19.8630066-7.8530426,41.1759949-9.0393143,62.2097168-6.5099106c14.3131409,1.7212296,35.4486694,2.028862,44.2294617,15.6352005c4.4078369,6.8302078,4.8902893,15.3005295,6.0794983,23.1379166c1.8452759,12.161377,3.3348389,24.347641,4.2067261,36.619278c0.7554932,10.633316,1.2486877,21.2847748,1.6998596,31.9346619c0.3570557,8.4276123-1.7280884,22.1713257,1.3059082,30.0487213c2.9885254,7.7592926,20.727478,7.0214386,28.4308777,8.9366455c11.7802124,2.9287415,23.2975464,6.8069763,34.8050842,10.6434021c19.1105957,6.3711548,40.5128784,11.0596619,58.4561768,20.1824951c-8.0223999,4.9957581-21.0765686,5.4077454-30.2384949,8.730957c-12.1920776,4.4223328-24.1981506,9.4824219-36.1914978,14.4145203c-23.8450928,9.8059998-47.469635,20.1521912-71.5011292,29.5014954c-48.7720947,18.9745178-99.5875549,32.394043-149.6797638,47.368103c-42.5153046,12.7091064-89.0281525,33.0106506-133.5892487,18.2166443c-40.2017822-13.3467712-61.6257896-59.5416565-62.7349548-99.7348938c-0.6497231-23.5443115,9.3459291-51.7007599,24.2780228-70.0660553C54.2672653,215.9451752,82.4963913,208.4441681,107.6845016,210.8129883C110.0524979,211.0353241,104.4145203,210.5054626,107.6845016,210.8129883z M328.0379944,319.4745483c16.1848145-5.0291443,35.2536621-10.6388245,48.2402344-22.1528625c11.7004395-10.3737183,7.9132996-22.8256226,4.419281-36.1788025c-6.8903198,10.2167358-11.3659668,14.1018982-21.7588806,20.4388733c-12.4884644,7.6146851-23.1147766,12.9263-37.0539856,17.0961304c-28.1286011,8.4144897-57.5046387,12.3045654-86.8122711,13.0545959c-29.3603821,0.7513733-59.7215118-0.4801941-87.7149353-10.1202087c-9.4816132-3.2651367-22.0404053-7.2909546-28.569931-15.502533c-5.5256042-6.9490356-7.1163483-11.2076416-9.8925552-19.2750549c-6.5846481,15.9893494-6.5667038,33.8215637,10.8303452,45.2807922c16.9215393,11.1459656,38.9914093,16.4889832,58.7731934,19.4291382C227.4342194,338.8179016,280.8607788,334.1339111,328.0379944,319.4745483C343.363739,314.7123413,296.1207886,329.3921509,328.0379944,319.4745483z M322.7833557,208.6748047c-14.7626648-4.0592346-77.035202-15.2253723-55.6122742-42.7159576c9.7859192-12.5576019,30.6425171-17.1100159,45.7109375-17.1665649c13.0776367-0.0490723,33.6877441,4.9515686,42.421875-8.9466858c7.0210571-11.172287-17.5688782-15.713089-24.8259888-17.344902c-15.5559082-3.4978638-32.2610779-4.9429855-47.9812012-1.7231064c-23.7211609,4.8587036-64.4098663,29.7423401-42.3548584,57.6521454c10.1906586,12.8958893,27.4082947,22.1901398,42.7372437,27.326889c8.8153687,2.9540558,17.8232727,4.425705,27.0543823,5.3201447C313.9488525,211.4658203,323.4974976,215.1938629,322.7833557,208.6748047z M178.53862,395.1765442c26.062149-9.7366943,51.4646759-21.1313477,77.4612122-31.0349731c26.2171478-9.9877014,53.2714386-17.5964355,79.8735809-26.4781799c26.6355286-8.8928833,53.131012-18.3654785,80.0963135-26.225769c22.2349548-6.4814148,32.3352661-17.2998657,54.0411377-22.3089294c-12.98526-1.7612-14.3806152-3.7373657-27.065155-1.1749268c-17.282074,3.4912109-34.2799683,8.1332092-51.0851135,13.4482727c-32.223938,10.1916504-63.8849792,22.1003113-95.1526184,34.9103088c-29.3067932,12.0066528-58.4434357,24.5595093-87.0413513,38.1733398c-27.5762939,13.127533-60.9965973,30.0359497-92.398262,29.0874329c-26.8686752-0.8116455-54.5744171-10.6150513-72.2508545-31.0683289c8.2982063,22.1381836,31.4429779,32.3632202,53.8234406,35.2860107C125.8129807,411.3132324,153.4181061,404.5623779,178.53862,395.1765442C192.322998,390.0267639,154.0343628,404.3321228,178.53862,395.1765442z M24.7362309,299.9866638c9.3095608-21.4003296,16.8121662-48.6936646,38.8139496-60.64888c15.277977-8.3016663,45.7069626-15.3760681,59.7591782-2.4871216c0.8735199-4.9778442,5.3815155-16.0020294-0.0683365-19.2502747c-4.3932419-2.6184845-17.0709763-1.0004425-21.7922287-0.6654358c-14.7702255,1.0480804-29.7423019,5.1928406-42.161068,13.4275513c-22.8244743,15.1345978-37.7442703,46.1428375-36.2056732,73.4258881C23.6265488,302.5369873,24.2940998,301.2771912,24.7362309,299.9866638z"/></svg>