<svg xmlns="http://www.w3.org/2000/svg" width="512" height="512"><path d="M236.158 211.998h39.653l9.85-13.56V92.204h-59.35v106.24l9.847 13.553zm-25.562 47.385 12.252-37.71-9.854-13.563-101.033-32.828L93.62 231.73l101.048 32.831 15.928-5.177zm37.165 38.947-32.077-23.307-15.943 5.189-62.442 85.944 48.014 34.881 62.448-85.947v-16.76zm48.532-23.307L264.21 298.33v16.76l62.444 85.947 48.02-34.88-62.453-85.954-15.928-5.18zm-7.18-53.36 12.258 37.717 15.942 5.171 101.033-32.822-18.338-56.447-101.04 32.833-9.856 13.547zm121.928 91.192-76.804-24.96 5.082-15.645 76.799 24.959-5.077 15.646zm-97.953-123.303-13.308-9.668 47.462-65.338 13.312 9.666-47.466 65.34zm-113.385-.6-47.457-65.334 13.312-9.67 47.457 65.339-13.312 9.665zm-99.09 122.921-5.08-15.643 76.797-24.945 5.078 15.643-76.795 24.945zm146.64 107.289h16.448v-80.756h-16.447v80.756zm-119.542 58.385c-170.281-98.17-170.281-344.925 0-443.094S512 59.662 512 256 297.993 575.716 127.711 477.547zM460.152 256c0-156.574-170.664-254.964-306.459-176.677s-135.794 275.067 0 353.354S460.153 412.574 460.153 256z"/></svg>