<svg xmlns="http://www.w3.org/2000/svg" width="383" height="512"><path d="M204.96 110.031c-28.595-6.66-42.803 11.967-51.47 31.285-7.74-1.876-4.66-12.4-2.705-17.764 5.118-14.074 25.744-32.81 42.597-30.27 7.252 1.092 17.067 7.723 11.577 16.75m139.32 32.562c.451.019.907.034 1.357.053 6.462 13.424 12.055 27.643 20.206 39.493-5.46 12.718-41.35 23.973-40.795 1.136 7.76-3.393 21.16-.692 28.04-5.026-3.98-10.918-9.72-20.212-8.807-35.656m-124.681.35c6.13 11.238 8.126 23.047 16.84 31.542 3.926 3.824 11.558 8.485 7.775 19.12-.885 2.508-7.346 8.1-11.076 9.2-13.624 4.022-45.372.83-34.62-16.156 11.267.526 26.412 7.318 34.834-.862-6.467-10.34-17.998-30.794-13.753-42.845m119.567 114.23c-20.515 13.177-43.39 27.507-77.003 24.183-7.182-6.244-9.92-20.14-2.943-29.317 3.632 6.244 1.35 17.729 11.472 19.457 19.073 3.263 41.271-11.668 54.99-16.886 8.508-14.342-.733-19.617-8.397-28.848-15.69-18.912-36.735-42.354-35.97-70.667 6.341-4.598 6.889 7.018 7.799 9.133 8.192 19.174 28.81 43.695 43.858 60.105 3.695 4.041 9.778 7.919 10.455 10.59 1.951 7.771-5.077 17.081-4.261 22.25m13.06 13.407c-9.548 18.176-23.056 38.193-51.077 38.775-.57-5.87-1.007-14.802.031-18.336 21.421-2.059 34.646-12.961 51.047-20.44m-134.244 11.784c17.872 9.398 50.717 10.409 75.008 9.697 1.303 5.322 1.272 11.897 1.322 18.387-31.225 1.558-68.143-6.169-76.33-28.084m-3.397 17.525c12.358 31.03 54.835 27.457 90.655 26.6-1.577 4.03-4.995 8.788-9.244 10.51-11.478 4.67-43.137 8.214-59.072-.249-10.106-5.372-16.6-17.512-22.136-24.628-2.674-3.437-15.99-12.214-.203-12.233m95.483-273.396c16.844 12.74 43.77 39.64 53.4 59.116 25.437 51.418 23.63 137.35 5.838 199.896-14.406 50.2-44.434 86.14-55.003 91.08-78.15 36.528-102.493 17.304-120.482 8.045-19.8-10.19-62.002-50.83-61.708-77.068 23.244 32.248 42.447 60.414 84.716 74.595 31.981 10.73 84.494-7.582 101.17-28.589 48.512-61.107 55.723-120.049 53.265-171.22-1.07-22.26-1.097-44.439-8.564-59.414-7.807-15.658-34.205-29.667-49.658-15.504-2.864-15.227 12.85-24.644 31.31-19.164-13.163-16.986-26.976-37.397-45.684-47.953-32.57-18.379-87.704-32.202-122.351-14.928-27.958 13.939-65.748 37.003-78.632 66.23 12.036 28.203-3.565 54.045-4.561 82.68-.529 15.236 7.174 28.536 7.764 45.123-4.119 6.795-16.702 7.632-25.413 7.166-2.932-14.672-8.065-31.164-23.174-32.82-21.38-2.338-37.012 15.356-37.983 33.846-1.15 21.745 16.701 57.785 42.003 55.283 9.774-.966 12.175-10.764 22.824-10.663 5.772 11.516-8.903 15.132-10.413 23.369-.393 2.128 1.217 10.443 2.154 14.342 4.596 18.988 14.84 43.563 24.924 58.018l6.848 33.55c-2.852-2.033-22.148-27.139-24.791-26.097-4.631-3.886-24.33-63.607-24.995-73.635-42.099-5.052-69.19-73.067-41.835-112.325-8.768-49.69 5.16-85.432 26.086-94.753 9.299-37.041 42.577-49.358 73.932-67.765 77.153-42.015 161.26-29.12 199.013-.441zm-64.804 425.56c-.696 7.727 1.101 10.254 2.656 19.11 25.399 7.941 20.964-34.86-2.656-19.11zm-28.166-9.247c-10.944-5.98-27.386-12.488-41.521-15.19-17.523-3.347-15.877 23.902-15.137 40.16.587 12.873 7.272 26.488 10.186 35.037 1.362 3.995 1.672 8.23 5.086 9.023 6.034 1.407 25.938-6.553 31.61-9.646 11.995-6.541 21.302-16.927 31.49-23.901.132-3.393.26-6.783.396-10.175-6.125-3.053-13.203-5.219-22.195-5.612 6.1-3.069 15.073-3.025 20.63-6.676.054-1.36.111-2.716.158-4.063-10.147-.78-14.015-5.3-20.703-8.957zm110.062 16.486c-.492-10.245-3.182-31.313-9.514-35.002-13.291-7.758-36.918 15.664-46.927 19.237 1.09 3.134 2.886 5.618 3.025 9.624 5.92-1.457 13.127-.46 18.257 2.062-5.932.664-12.51.62-16.435 3.446-1.438 4.158.353 9.823-.604 15.595 14.08 3.972 30.164 6.087 47.965 6.61 3.462-4.501 4.641-13.074 4.233-21.572zM64.64 251.405c-6.43-3.67-7.96-19.835-15.51-20.294-10.788-.655-8.82 20.97-8.778 33.616-7.425-6.741-8.731-27.498-3.276-38.158-6.217-3.053-8.993 3.368-12.442 5.63 4.432-32.196 47.1-14.933 40.006 19.206"/></svg>