<svg xmlns="http://www.w3.org/2000/svg" width="512" height="512"><path d="M346.747 44.65c76.194-9.395 128.042-34.726 149.398-28.086 4.491 2.296 3.368 16.915-9.119 20.037-6.3 1.575-98.348 33.346-189.644 60.874C207.72 124.51 118.916 147.3 98.147 149.833 56.23 154.945 0 237.757 0 237.757c27.604-53.163 50.096-134.952 193.226-174.824 44.08-11.605 110.13-12.934 153.52-18.284zM14.087 459.592s24.37-84.288 37.46-131.112c5.35-19.138 21.766-61.036 71.8-69.458C280.993 232.49 512 191.906 512 191.906c-1.75 56.031-22.054 83.362-54.582 96.765-85.4 153.453-213.048 244.764-408.992 193.555-31.004-7.11-35.496-13.848-34.34-22.633zm33.558 6.244c75.705 15.294 294.519 26.832 389.942-170.94-25.533 5.974-56.324 6.643-90.3 6.868-2.943 37.527-18.635 97.491-88.926 96.955-68.995-.527-84.672-49.033-87.574-80.522C64.99 345.816 42.45 399.908 34.377 429.157c-5.463 19.799 7.036 32.25 13.268 36.68zM276.97 303.022c.334 13.78 3.955 42.063 28.217 40.287 22.39-1.638 22.616-26.583 20.733-41.417-15.824.114-32.204.343-48.95 1.13z"/></svg>