<svg version="1.1" xmlns="http://www.w3.org/2000/svg" width="512px" height="512px"><path d="M346.7468567,44.6491585c76.1941528-9.3937988,128.0426025-34.7255936,149.3977051-28.0852051c4.491394,2.2958508,3.3685913,16.9154587-9.1182556,20.0371742c-6.2997437,1.5749321-98.3486023,33.3460541-189.6440735,60.8734131c-89.6636353,27.0353088-178.466156,49.8260727-199.2355652,52.3589401C56.2298622,154.945282,0,237.7565308,0,237.7565308C27.6037502,184.59375,50.0956955,102.804863,193.2262573,62.9327774C237.3065033,51.3277092,303.355957,49.9987221,346.7468567,44.6491585z M14.086731,459.5932922c0,0,24.370121-84.2885132,37.4605751-131.1119385c5.3504219-19.138092,21.7661705-61.0367126,71.799408-69.4581604C280.9932556,232.4886627,512,191.9063416,512,191.9063416c-1.750946,56.0306854-22.0535278,83.3611755-54.5817566,96.7643738C372.017395,442.1244202,244.3702698,533.4353027,48.42556,482.225708C17.4222298,475.1164856,12.9302101,468.3784485,14.086731,459.5932922z M47.6451225,465.836731c75.7052612,15.2939758,294.5184631,26.8317871,389.9420471-170.9390564c-25.5330811,5.973175-56.3240967,6.6421204-90.2999878,6.8677368c-2.9436646,37.5263672-18.6355591,97.4910583-88.9263916,96.9544678c-68.9949646-0.5266418-84.6716461-49.0326538-87.5740509-80.5223694c-105.7960358,27.618866-128.3370056,81.7106323-136.408844,110.9590759C28.9138775,448.9555664,41.4126053,461.4077148,47.6451225,465.836731z M276.9703064,303.0215454c0.3333435,13.7812195,3.9545593,42.0631714,28.216217,40.2879028c22.38974-1.6382446,22.6160583-26.5831909,20.7336426-41.4173584C310.0958557,302.0056763,293.7159729,302.2353516,276.9703064,303.0215454z"/></svg>