<svg xmlns="http://www.w3.org/2000/svg" width="512" height="512"><path d="M284.096 382.755c126.41-96.067 39.609-294.896-69.513-277.86C9.315 136.94 60.658 422.223 129.047 475.258 22.042 422.39-22.426 291.217 10.82 179.74 37.161 91.427 119.287 3.962 243.708.61c196.367-17.91 254.873 364.165 40.388 382.145zM219.247 130.2c-112.3 5.728-136.522 119.158-127.29 201.114 13.467 119.577 89.242 197.216 207.553 177.684 181.777-30.01 331.904-318.726 76.441-480.015 94.11 109.624 94.983 331.713-59.624 371.13-142.981 43.102-208.076-187.725-97.08-269.913z"/></svg>