<svg version="1.1" xmlns="http://www.w3.org/2000/svg" width="512px" height="512px"><path d="M305.0437927,303.2127991l-90.7636261-45.3817749l90.7636871-45.3818665l90.7626953,45.3818665L305.0437927,303.2127991z M107.1400833,97.1206284l90.7632523,45.3818436l90.7636261-45.3818436l-90.7636871-45.38134L107.1400833,97.1206284z M205.2273102,245.980545l92.4925079-46.2462616v-90.7631912l-92.4925079,46.2462692V245.980545z M90.7632446,105.3091431L0,150.690918l90.7632446,45.3813477V105.3091431z M205.2273102,460.2607117l91.6276398-45.8138123l-91.6276398-44.9488525V460.2607117z M419.5074768,460.2607117L512,414.0144348V323.25177l-92.4925232,46.2462769V460.2607117z M419.5074768,245.980545L512,199.7342834v-90.7631912l-92.4925232,46.2462692V245.980545z M321.4207764,97.1206284l90.7626648,45.3818436l90.7637024-45.3818436l-90.7637024-45.38134L321.4207764,97.1206284z M404.8594055,269.6816101l-83.4386292,41.719696l83.4386292,41.7197571V269.6816101z M419.5074768,353.1211243l83.4396667-41.7198181l-83.4396667-41.7198181V353.1211243z"/></svg>