<svg xmlns="http://www.w3.org/2000/svg" width="512" height="512"><path fill-rule="evenodd" d="M337.927 348.171c-7.563 2.676-29.153 5.641-74.62-18.744-49.223-26.427-56.535-48.514-57.616-55.14.71-8.048.245-16.07-1.13-23.896l.32.465s-4.026-21.496 52.314-56.466c50.423-31.308 73.345-25.077 77.61-23.431 2.751 1.84 5.597 3.58 8.568 5.176a92.736 92.736 0 0 0 17.445 7.117c6.947 6.627 19.705 25.372 21.03 74.67 1.37 49.664-13.229 68.804-21.175 75.575-8.198 3.707-15.88 8.663-22.746 14.674zm105.438-12.293c-3.191-1.696-6.457-3.14-9.718-4.416l2.33-.195s-20.854-9.227-22.67-76.265c-1.821-67.064 19.875-78.496 19.875-78.496l-3.122.119c16.396-8.392 30.48-21.69 39.782-39.21 24.241-45.593 6.891-102.222-38.701-126.47C385.53-13.27 328.919 4.03 304.697 49.667c-9.956 18.726-12.808 39.286-9.667 58.721l-1.056-1.646s5.497 24.342-51.554 59.752c-57.025 35.435-82.76 17.79-82.76 17.79l1.639 2.405c-1.615-1.005-3.185-2.035-4.906-2.92-45.618-24.242-102.247-6.917-126.47 38.694-24.215 45.618-6.89 102.229 38.696 126.47 34.009 18.06 74.105 13.028 102.347-9.618l-.609 1.175s20.755-17.074 80.607 15.07c47.231 25.346 54.248 50.178 55.159 59.525-1.25 34.624 16.81 68.608 49.493 85.958 45.593 24.241 102.222 6.917 126.444-38.695 24.241-45.617 6.916-102.253-38.695-126.469zM331.74 40.715c-27.213 29.762-27.778 73.564-1.57 98.32-12.954-12.462-12.658-38.45.42-63.306 1.69-2.211 6.57-7.488 13.713-5.082.71.245 1.18.295 1.451.27 1.614.345 3.26.54 4.981.465 10.817-.49 19.21-9.643 18.72-20.485-.22-4.862-2.23-9.152-5.352-12.469 25.127-16.464 53.985-18.355 65.813-7.557l.44.025c-26.993-24.636-71.134-20.245-98.616 9.819zM58.19 216.746c-27.212 29.788-27.777 73.565-1.57 98.321-12.953-12.463-12.683-38.45.42-63.307 1.69-2.23 6.578-7.481 13.714-5.075.716.245 1.18.295 1.45.27 1.621.339 3.286.54 4.982.465 10.842-.49 19.21-9.643 18.72-20.491-.22-4.856-2.23-9.153-5.346-12.463 25.127-16.44 53.978-18.355 65.807-7.557l.44.044c-27.012-24.656-71.16-20.265-98.617 9.793zm289.573 149.046c-27.212 29.762-27.777 73.564-1.57 98.346-12.96-12.488-12.664-38.476.414-63.307 1.696-2.237 6.577-7.488 13.72-5.107.71.245 1.174.32 1.444.27 1.621.345 3.292.54 4.982.49 10.823-.515 19.215-9.693 18.725-20.51-.22-4.862-2.236-9.152-5.352-12.469 25.127-16.44 53.96-18.355 65.788-7.557l.44.05c-26.967-24.661-71.134-20.27-98.59 9.794z" clip-rule="evenodd"/></svg>