<svg xmlns="http://www.w3.org/2000/svg" width="512" height="512"><path d="M127.452 34.272c-169.936 97.97-169.936 345.463 0 443.432C297.39 575.673 512 451.956 512 255.988 512 109.013 391.281 2.678 257.166.002c-44.779-.18-88.557 10.544-129.714 34.27zm267.827 107.49c28.84 106.822-12.553 207.36-109.503 229.069 75.788-57.075 61.787-161.174 22.898-209.064-52.618-65.755-135.38-45.601-180.33 2.461-67.501 78.114-50.141 213.822 10.902 289.25-149.083-90.652-151.481-307.363.856-395.186 97.904-59.405 212.154-37.902 255.177 83.47zm19.423 150.344c31.355-79.34 10.607-179.454-46.635-237.62 68.994 38.409 117.659 111.381 118.606 201.502 1.589 151.218-191.4 297.129-303.397 190.716C71.17 340.187 100.496 158.268 225.804 142.2c-92.96 78.878-51.162 218.174 29.027 243.668 72.458 23.037 137.556-37.298 159.871-93.763zM254.543 150.882c82.91 40.65 77.58 173.012-2.21 209.868-82.206-56.1-63.282-170.22 2.21-209.868z"/></svg>