<svg xmlns="http://www.w3.org/2000/svg" width="512" height="512"><path fill-rule="evenodd" d="M153.408 411.35v27.932h-12.406c-32.204 0-53.792-4.78-64.784-14.358-10.854-9.561-16.295-28.632-16.295-57.212v-46.348c0-19.53-3.49-33.039-10.465-40.542-6.858-7.5-19.33-11.244-37.431-11.244H0v-27.732h12.027c18.222 0 30.763-3.693 37.617-11.058 6.858-7.368 10.279-20.757 10.279-40.152v-46.548c0-28.566 5.44-47.585 16.295-57.012 10.992-9.575 32.58-14.358 64.784-14.358h12.406v27.732H139.83c-18.102 0-29.925 2.842-35.487 8.538-5.43 5.565-8.15 17.522-8.15 35.883v48.096c0 20.299-2.976 35.046-8.917 44.217-5.817 9.186-15.837 15.396-30.06 18.626 14.344 3.49 24.43 9.82 30.25 19.006 5.816 9.171 8.726 23.853 8.726 44.03v48.097c0 18.491 2.72 30.508 8.151 36.07 5.562 5.56 17.385 8.337 35.487 8.337h13.578zm205.184 27.932h12.026c32.19 0 53.713-4.78 64.585-14.358 10.854-9.561 16.281-28.632 16.281-57.212v-46.348c0-19.53 3.434-33.039 10.292-40.542 6.976-7.5 19.582-11.244 37.818-11.244H512v-27.732h-12.406c-18.236 0-30.842-3.693-37.818-11.058-6.858-7.368-10.292-20.757-10.292-40.152v-46.548c0-28.566-5.427-47.585-16.281-57.012-10.872-9.575-32.394-14.358-64.585-14.358h-12.026v27.732h13.185c18.236 0 30.128 2.842 35.694 8.538 5.547 5.685 8.337 17.647 8.337 35.883v48.096c0 20.299 2.906 35.046 8.727 44.217 5.937 9.186 16.026 15.396 30.249 18.626-14.344 3.49-24.433 9.82-30.25 19.006-5.82 9.171-8.726 23.853-8.726 44.03v48.097c0 18.222-2.79 30.184-8.337 35.88-5.566 5.685-17.458 8.527-35.694 8.527h-13.185v27.932zm7.61-70.022c-13.296 25.036-44.38 34.545-69.405 21.24-17.94-9.524-27.853-28.178-27.167-47.183-.5-5.13-4.351-18.76-30.277-32.673-32.852-17.644-44.245-8.272-44.245-8.272l.335-.645c-15.502 12.43-37.51 15.192-56.178 5.28-25.023-13.307-34.532-44.38-21.24-69.42 13.295-25.035 44.38-34.545 69.418-21.239.945.486 1.807 1.052 2.693 1.603l-.9-1.32s14.127 9.685 45.428-9.765c31.315-19.436 28.298-32.797 28.298-32.797l.579.903c-1.724-10.668-.159-21.953 5.306-32.232 13.296-25.05 44.37-34.545 69.405-21.253 25.026 13.309 34.549 44.393 21.243 69.418a50.897 50.897 0 0 1-21.836 21.523l1.714-.066s-11.91 6.275-10.91 43.086c.997 36.797 12.444 41.862 12.444 41.862l-1.28.107c1.79.7 3.583 1.493 5.335 2.424 25.036 13.292 34.545 44.38 21.24 69.419zM283.69 137.827c-14.937 16.336-15.247 40.38-.862 53.968-7.11-6.841-6.948-21.105.23-34.75.928-1.213 3.608-4.11 7.528-2.789.39.135.648.163.796.149.887.19 1.79.296 2.735.255 5.937-.269 10.544-5.293 10.275-11.244-.121-2.669-1.224-5.024-2.938-6.844 13.792-9.037 29.632-10.075 36.125-4.148l.241.014c-14.816-13.523-39.045-11.113-54.13 5.389zm-96.02 91.248-.241-.025c-6.493-5.927-22.33-4.875-36.122 4.148 1.71 1.817 2.814 4.176 2.935 6.841a10.76 10.76 0 0 1-10.275 11.248c-.931.041-1.845-.07-2.735-.256-.148.014-.403-.013-.796-.148-3.917-1.32-6.6 1.562-7.527 2.786-7.193 13.644-7.34 27.908-.231 34.75-14.385-13.59-14.075-37.619.862-53.969 15.071-16.499 39.304-18.909 54.13-5.375zm158.932 81.81-.241-.027c-6.493-5.927-22.32-4.876-36.111 4.148 1.71 1.82 2.817 4.175 2.938 6.844.268 5.937-4.338 10.975-10.279 11.258-.927.027-1.845-.08-2.734-.27-.149.028-.404-.013-.793-.148-3.92-1.306-6.6 1.576-7.53 2.804-7.18 13.63-7.341 27.894-.228 34.749-14.385-13.603-14.075-37.646.862-53.982 15.07-16.502 39.314-18.913 54.116-5.376zm-47.03-12.35c4.361-3.717 12.374-14.224 11.623-41.483-.728-27.06-7.73-37.35-11.544-40.987a50.902 50.902 0 0 1-9.575-3.906 56.724 56.724 0 0 1-4.703-2.841c-2.342-.904-14.923-4.324-42.6 12.86-30.926 19.196-28.715 30.995-28.715 30.995l-.176-.256c.755 4.297 1.01 8.7.62 13.117.593 3.637 4.607 15.76 31.625 30.266 24.957 13.385 36.808 11.758 40.96 10.289a50.687 50.687 0 0 1 12.484-8.055z" clip-rule="evenodd"/></svg>