<svg version="1.1" xmlns="http://www.w3.org/2000/svg" width="512px" height="512px"><style type="text/css">.st0{fill-rule:evenodd;clip-rule:evenodd;}</style><path class="st0" d="M337.9270935,348.1714172c-7.5631409,2.6760254-29.1533203,5.6409607-74.6200867-18.7444763c-49.2232361-26.4270325-56.5351257-48.5134583-57.6155548-55.1405945c0.7098236-8.046875,0.2449951-16.068573-1.1307068-23.8955078l0.3203888,0.4648285c0,0-4.0265961-21.4958954,52.3137817-56.4660187c50.4230652-31.3078918,73.3449097-25.0764923,77.6101685-23.4306793c2.7513733,1.8405151,5.5969849,3.5805511,8.5682068,5.1761322c5.6660767,3.0214539,11.5331421,5.3770905,17.4442139,7.1171112c6.9475708,6.627182,19.705658,25.3717194,21.0310669,74.6703339c1.3694153,49.6629639-13.2292175,68.8032532-21.1755371,75.5748901C352.4754333,337.2036438,344.7929382,342.1598511,337.9270935,348.1714172z M443.3650513,335.8781738c-3.1911011-1.6960449-6.45755-3.1408386-9.7177429-4.4159851l2.3304749-0.1947327c0,0-20.8551636-9.2277832-22.6705322-76.2659149c-1.8216858-67.0631714,19.8751831-78.4958344,19.8751831-78.4958344l-3.1219482,0.119339c16.3951416-8.3923187,30.4786987-21.6906128,39.7818604-39.2102356c24.2409668-45.5924454,6.8910217-102.2217865-38.701416-126.4690704C385.5296326-13.270112,328.9191284,4.0296202,304.6970215,49.6660194c-9.9564819,18.7257042-12.8083801,39.2856102-9.667511,58.7211876l-1.0553284-1.6458511c0,0,5.49646,24.3415146-51.5537567,59.7513504c-57.0251007,35.4349365-82.7611389,17.7897186-82.7611389,17.7897186l1.6395264,2.4058533c-1.6143799-1.0050507-3.1847992-2.0352478-4.9059753-2.9209595c-45.6175613-24.2410126-102.2468948-6.9161224-126.4690704,38.6951752c-24.2158699,45.6175232-6.8910027,102.2280273,38.6951675,126.4690247c34.0089951,18.059845,74.1049576,13.0281982,102.3473892-9.6172485l-0.609314,1.1746521c0,0,20.7546692-17.0735474,80.6065063,15.0697632c47.2319183,25.3466187,54.2485809,50.1780701,55.1594086,59.5252075c-1.2500305,34.6246033,16.8097839,68.6085205,49.4933472,85.9585266c45.5924377,24.2409668,102.2217712,6.9161072,126.4439392-38.6951599C506.301178,416.7296753,488.9763489,360.0940552,443.3650513,335.8781738z M331.7396545,40.7146072c-27.2122498,29.7626419-27.7776184,73.5647888-1.5704346,98.3208542c-12.9528503-12.4628601-12.6575928-38.4501266,0.4208374-63.3067398c1.6897888-2.2111816,6.5706787-7.4877701,13.7129517-5.0819168c0.7098083,0.2449951,1.1809082,0.2952271,1.4510193,0.2701111c1.6144104,0.3455429,3.2602234,0.5402145,4.9813843,0.4648743c10.8170471-0.4899902,19.2094116-9.6423988,18.7194214-20.4845657c-0.2198792-4.8620338-2.230011-9.1524124-5.3519897-12.4691391c25.1267395-16.4642963,53.9847107-18.3550491,65.8131409-7.556879l0.4397278,0.0251141C403.3633423,6.2595897,359.2219849,10.6505156,331.7396545,40.7146072z M58.1913261,216.7461395c-27.2122154,29.7877045-27.7775669,73.564743-1.5704193,98.3208466c-12.9528008-12.4628601-12.6826935-38.4501648,0.4208794-63.306778c1.6897774-2.2299652,6.5769234-7.4814453,13.7128983-5.075592c0.7161255,0.2449951,1.1809769,0.2952728,1.451088,0.2701111c1.6206665,0.3392181,3.2853088,0.5402069,4.9813614,0.4648743c10.8421707-0.4899902,19.2093735-9.6424103,18.7194061-20.4908447c-0.2198563-4.8557587-2.2299957-9.15242-5.3457184-12.4628601c25.1267166-16.4391937,53.9784851-18.3551025,65.8068848-7.5568848l0.4397125,0.0439911C129.7962036,182.2973938,85.6485596,186.6882782,58.1913261,216.7461395z M347.7641602,365.7915344c-27.2122192,29.7626038-27.7775574,73.5647888-1.5704041,98.3460083c-12.9590759-12.4880066-12.6638489-38.4752808,0.4146118-63.3067627c1.6960144-2.2362976,6.5768738-7.487793,13.7191772-5.1070557c0.7098083,0.2449951,1.1746826,0.3204041,1.4447937,0.2701721c1.620636,0.345459,3.291626,0.5402222,4.9813538,0.4899292c10.8233337-0.5151062,19.2156677-9.692627,18.725708-20.5096741c-0.2198792-4.86203-2.2362976-9.1524048-5.3520203-12.4691467c25.126709-16.4391174,53.9596558-18.3550415,65.7880249-7.5568237l0.4397278,0.0502319C419.3878784,331.3365173,375.221405,335.7274475,347.7641602,365.7915344z"/></svg>