<svg version="1.1" xmlns="http://www.w3.org/2000/svg" width="512px" height="512px"><path d="m321.09936 131.90734s-67.56036-0.39661-123.72917 0l-12.93997 108.17215 38.96526 9.15974c9.87643-13.37481 60.83719-23.19304 54.97203 28.66291 0 0 0.82377 34.48225-28.35276 29.25035-18.59605-3.33461-20.51279-23.74599-20.51279-23.74599h-49.14273c-1.51745 78.90658 153.80559 93.53206 147.08464-12.34287-2.95633-46.57076-34.94587-82.99677-95.03406-59.04492l4.79796-42.01849h83.89159zm-236.04465 238.29859c-7.475063-3.07979-12.40562-9.08973-15.120819-15.84781-5.849037-17.8524-3.925607-36.15617-3.925607-55.68539-0.1529-20.15749-11.021702-37.03709-27.04305-45.07172 29.763104-14.2169 27.601467-39.88921 27.04305-74.58643-0.224184-15.64069 5.876414-36.08778 19.046426-42.01849l-9.159742-25.58911c-34.390891 10.37953-52.179329 30.42104-52.341346 67.6076-0.936274 13.47607 1.702966 28.76328-1.308527 41.4369-3.867986 11.16656-11.824035 16.65507-22.245091 16.72016v33.00413c17.391655 0.29244 23.441863 14.88665 23.553618 28.49696 0.24717 16.86797-1.18112 36.01751 2.617055 51.32363 7.93549 25.346 15.360524 37.24811 49.724291 45.94407zm25.298372-144.69446c-17.84523-9.34967-17.845235-32.85079-1e-5 -42.20047 17.84523-9.34968 40.27289 2.40087 40.27289 21.10024 0 18.69936-22.42765 30.44992-40.27288 21.10023zm-1e-4 118.48903c-17.845045-9.34967-17.845052-32.85079-1e-5 -42.20047 17.84504-9.34968 40.27246 2.40087 40.27246 21.10023 0 18.69937-22.42742 30.44992-40.27245 21.10024zm316.59231 26.20544c7.47507-3.0798 12.40562-9.08974 15.12082-15.84781 5.84904-17.85241 3.92561-36.15618 3.92561-55.68539 0.1529-20.1575 11.0217-37.03709 27.04305-45.07172-29.7631-14.2169-27.60147-39.88921-27.04305-74.58643 0.22418-15.6407-5.87641-36.08779-19.04643-42.01849l9.15975-25.58911c36.38931 19.03938 52.17933 30.42104 52.34134 67.6076 0.93628 13.47606-1.70296 28.76328 1.30853 41.43689 3.86798 11.16656 11.82403 16.65508 22.24509 16.72017v33.00412c-17.39165 0.29245-23.44186 14.88666-23.55362 28.49697-0.24717 16.86796 1.18112 36.0175-2.61705 51.32363-7.93549 25.346-15.36053 37.24811-49.72429 45.94406zm-19.55132-32.42257c-0.30498 18.1572-8.28902 36.90795-18.31949 50.16047-3.58634 4.84641-7.46349 9.06281-11.63141 12.64917-7.7193-6.24437-15.34122-9.46018-24.71674-11.63141-1.83573-14.83376 11.29915-22.19225 13.95768-33.14954 2.80015-16.0654 1.59932-32.03846 1.59932-49.14273h39.25602c-0.0482 10.37134-0.0973 20.74276-0.14538 31.11404z"/></svg>