<svg xmlns="http://www.w3.org/2000/svg" width="376" height="512"><path d="M363.175 34.339c.84 19.792-14.37 36.52-33.98 37.369-19.6.848-36.176-14.508-37.016-34.3S306.549.882 326.154.033s36.181 14.513 37.021 34.306M193.535 384.5c-78.216 0-146.328-28.41-181.787-70.378 26.834 75.24 98.09 129.035 181.788 129.035s154.953-53.795 181.787-129.035C339.863 356.09 271.752 384.5 193.536 384.5m0-273.167c78.216 0 146.328 28.407 181.787 70.379-26.834-75.24-98.09-129.04-181.787-129.04s-154.954 53.8-181.788 129.04c35.46-41.972 103.571-70.379 181.788-70.379M101.392 467.56c.997 23.512-17.078 43.388-40.37 44.4-23.29 1.006-42.979-17.24-43.976-40.753-1.002-23.513 17.073-43.393 40.364-44.4 23.291-1.006 42.985 17.24 43.982 40.753M26.918 95.018C12.676 95.633.634 84.476.024 70.095-.59 55.718 10.462 43.56 24.71 42.946c14.241-.615 26.284 10.542 26.893 24.918.614 14.382-10.442 26.539-24.684 27.154z"/></svg>