<svg xmlns="http://www.w3.org/2000/svg" width="472" height="512"><path fill-rule="evenodd" d="M150.308 182.819c-7.814-15.421-10.87-33.354-8.88-52.529-51.56.435-56.84-20.355-57.715-40.875l1.854-29.93c1.215-19.6 18.697-34.919 38.338-34.919 41.422 1.62 45.335 2.598 56.818 15.284L209.103 0l23.498 13.825c-15.545 33.091-10.105 41.39-10.046 41.458 71.697 1.631 113.497 60.152 89.407 123.388C456.277 233.618 507.277 377.208 446.714 512H415.48c27.055-45.44 34.305-102.158 25.54-153.485-72.846 107.605-171.848-71.037-366.178 90.307l21.625-67.794-45.546 48.305c5.46 30.528 17.9 58.664 35.651 82.667H53.58a224.483 224.483 0 0 1-25.328-58.626l-27.2 28.848c-7.765-144.584 26.024-244.466 149.256-299.403zm56.376 273.007c0-18.139-19.77-29.537-35.502-20.468s-15.732 31.866 0 40.935 35.502-2.329 35.502-20.467zm126.412 0c0-18.139-19.771-29.537-35.503-20.468s-15.731 31.866 0 40.935 35.503-2.329 35.503-20.467zM162.187 69.553c-6.145 11.102-11.254 22.234-14.946 33.664l-26.94-1.667c-5.425-.332-9.576-5.017-9.26-10.442l1.854-29.928c.324-5.225 4.658-9.268 9.866-9.268.197 0 30.513 1.87 30.513 1.87 8.238 1.306 10.363 6.505 8.913 15.771zm73.157 113.457 77.43 95.3c6.872 8.423-5.703 18.684-12.576 10.261l-7.71-9.505-32.092 26.12-20.398-24.869 32.225-26.23-11.242-13.857-15.472 12.697-10.374-13.122 15.31-12.564-27.676-33.97c-6.61-8.1 5.966-18.36 12.575-10.261z" clip-rule="evenodd"/></svg>