<svg xmlns="http://www.w3.org/2000/svg" width="434" height="512"><path d="M0 270.382h433.607c-.993 11.851-6.983 19.237-19.13 21.123H15.144C5.813 288.98.068 282.675 0 270.382zM207.165 2.71c-11.137-3.494-51.331-4.485-59.175 2.402-7.424 6.519-9.001 9.282-19.532 11.157H86.674c-16.23 0-29.387 13.157-29.387 29.387V72.31H43.44c-12.81-.589-22.577 11.746-23.093 21.898l-8.391 162.226h408.898L413.68 93.433c-.606-11.463-12.399-21.58-23.514-21.123H70.44V44.46c0-8.966 7.269-16.235 16.235-16.235h46.733c11.335 0 7.897 14.34 24.825 14.34H200.4c5.004 0 9.958-1.515 13.875-4.631 9.141-6.387 8.732-30.71-7.11-35.224zm29.099 475.813v-178.07H190.83v178.07h-83.805V512H320.07v-33.477h-83.805z"/></svg>