<svg xmlns="http://www.w3.org/2000/svg" width="512" height="512"><path d="M318.369 123.89c-14.522-1.363-39.283-4.667-79.339 1.146-51.892 7.092-103.692 29.723-134.085 54.843-53.001 41.623-58.26 99.13 14.003 138.91 43.204 22.988 77.723 31.43 127.017 37.727l-1.833.47c-82.692-2.87-195.573-41.671-219.08-97.998-20.336-51.224-.35-110.975 95.018-153.48C176.637 81 262.284 73.969 328.26 80.097c93.667 8.708 182.945 58.63 183.053 58.774.855 26.197.948 51.262.072 74.889-32.387-26.969-89.773-82.292-193.016-89.869zm160.946 118.698c-30.684-55.205-148.282-89.314-231.143-88.82l-1.736.543c107.847 8.443 182.1 50.397 192.353 90.725 9.034 37.249-7.57 59.931-28.983 79.677-52.573 48.476-128.278 69.457-205.705 64.528C116.547 386.45 56.105 349.398 0 307.465l9.685 74.683c256.551 122.788 545.713 7.693 469.63-139.56z"/></svg>