<svg version="1.1" xmlns="http://www.w3.org/2000/svg" width="512px" height="512px"><path d="M0,0v512h512V0H0z M407.6596069,42.0140381c34.5601196-19.9243164,77.994873,5.116333,77.994873,44.9649658s-43.4346924,64.8892212-77.994873,44.9649048C373.0994873,112.0195923,373.0994873,61.9383545,407.6596069,42.0140381z M223.2701416,455.0969238c4.2844849-18.4424438-3.3591919-28.7300415-18.1851196-51.9573975l-75.0783081-102.355957v103.6549072c-0.0001831,24.0735474,4.8491821,40.9597778,14.5480347,50.6584473H22.4550171C35.1600342,440.8978882,37.3603516,432.7554321,37,404.6981812V118.6731567c-0.0045166-28.401062-1.3139038-35.4966431-14.5449829-50.3987427h122.0997314c-9.6988525,9.6989746-14.5482178,26.4985962-14.5480347,50.3987427v95.3417358l74.5587769-94.3024292c14.6218872-19.0511475,27.1481323-37.5650635,21.5622559-51.4378052h130.1531372c-24.487793,16.2039795-37.1495361,35.071228-58.1921997,60.789978l-97.6798096,121.5802002l116.6442261,160.5480957c13.7973633,18.4342651,29.4298706,37.0852051,39.7473755,43.9039917H223.2701416z M376.5441895,455.0969238c8.7683105-10.3731079,12.4020386-16.0053711,11.9501343-45.7226562v-193.28125c0.5737915-23.6783447-0.8546753-32.6720581-11.6903687-45.2030029c0,0,102.0961304,0,102.0961914,0.0002441v238.4840088c0.2631226,25.4750366,0.3855591,32.1329346,11.9501953,45.7226562H376.5441895z"/></svg>