<svg version="1.1" xmlns="http://www.w3.org/2000/svg" width="512px" height="512px"><path fill-rule="evenodd" clip-rule="evenodd" d="M0.8002262,309.8923035l43.9221573-191.0728455c2.2659149-9.8478012,9.2421684-18.5207672,18.4169388-22.9041367l178.0283203-85.0611115c9.162323-4.4253368,18.8868713-4.2012329,29.5525208,0l178.0492859,85.0146942c9.1747437,4.3833694,16.1510315,13.0563354,18.4214783,22.907753l43.9850159,191.0700989c2.2704163,9.854187-0.2240906,20.6764832-6.5773315,28.5744019L381.4212646,491.6528015c-6.3578491,7.8869934-16.4360962,12.6893311-26.6181335,12.6820374l-197.6046143,0.0464478c-10.1856995,0.0036316-20.263916-4.8096008-26.6181488-12.7038879L7.3566275,338.4667053C0.4271332,329.8007507-1.2119793,320.1770325,0.8002262,309.8923035z M246.7908478,327.4226379l-29.9634857,54.1347656c26.5865173,8.5083313,52.7902527,8.9454041,78.5525513,0.0746765l-30.0133972-54.232666C259.9699707,319.7934265,250.8058167,320.5657043,246.7908478,327.4226379z M202.0333557,297.0080261l-60.8836517,10.3323975c9.3949432,25.9963989,26.9610596,47.1853943,49.015976,61.3372803l23.5861359-57.0057068C216.3495483,303.169342,210.7651062,296.2111816,202.0333557,297.0080261z M298.2266235,311.3211975l23.8421936,57.5843506c22.9803162-14.639801,40.1764526-36.5173035,49.1661682-61.7697449l-61.415863-10.3797913C300.8644409,295.899231,295.505127,303.3179016,298.2266235,311.3211975z M234.6686707,260.9705505l4.2368011,18.396759l17.0862579,8.2145081l17.0338745-8.1903381l4.2327881-18.396759l-11.7930908-14.7425842h-18.9753571L234.6686707,260.9705505z M318.0094299,261.1207581l59.6750183,17.1870728c2.7200623-27.3953552-3.9840393-52.782608-17.7667236-76.6615143l-46.0664673,41.2268677C308.4487,249.1948395,308.8798218,257.0343628,318.0094299,261.1207581z M198.052597,243.0505981l-46.3184662-41.4284668c-13.7466431,22.393631-20.2595978,49.2559204-17.239502,76.8872986l59.3755951-17.1366882C201.8505707,258.1444397,204.4632416,249.9580994,198.052597,243.0505981z M291.044342,214.2700195l50.4020386-35.7340393c-19.014679-18.6215057-43.8305969-30.7694397-70.6616211-34.0727692l3.5009155,61.7697144C275.6146851,216.6031342,283.5397339,218.2578125,291.044342,214.2700195z M170.1308594,178.511795l50.728653,35.9628601c8.2972717,5.1307983,16.1743164-0.3522491,16.8605042-8.1429443l3.5009155-61.8684998C213.4891968,148.2541351,189.0535278,159.7226562,170.1308594,178.511795z M444.8219604,320.897583c-5.0469055-1.6317444-20.7459412-8.5874634-31.1474609-10.1308289c-3.200531-0.2519836-4.8315125,1.275177-6.6036377,2.444519l-5.0402222-0.8820496c-11.3001404,35.5142822-35.3671265,66.2676392-67.991333,85.5302429l1.9646606,4.7650452c-0.7479553,1.987854-1.8658752,3.894043-0.9092407,6.9534302c4.4415283,10.7107544,11.0513306,19.1382446,16.7858887,28.1263733c10.6455688,17.8268127-10.2826843,30.1829834-20.553772,12.2665405c-3.9439087-11.0152893-7.3485107-24.7470398-12.2075195-32.6793213c-1.7993774-2.657196-4.0039673-2.9959106-6.0240784-3.6541748l-2.5201416-4.5361938c-36.7866821,13.5519409-73.0581055,13.2178345-108.8411407-0.2792358l-2.6733246,4.8395996c-1.9888611,0.5312195-3.9061584,1.0745544-5.0835571,2.4768066c-5.5699158,7.0865479-10.1005096,26.4445496-13.9946136,34.9981689c-8.1739502,15.7394104-28.410614,4.976532-21.3180695-10.0572815c4.698288-9.6661377,10.8059387-14.6474304,18.5146942-31.7844849c0.574585-1.9727783,0.0745239-4.9916687-1.0513916-6.6702271l2.1420898-5.1430664c-31.3954315-18.6013184-56.1861572-48.2478333-68.0155182-84.9274292l-5.1420288,0.8820496c-1.1999435-1.3040771-4.1500931-2.5987244-6.7810822-2.394104c-6.2962189,0.9132996-13.4451752,1.7973022-20.5620117,6.0482483c-32.8491211,19.6211243-44.6738281-22.4781799-4.5361862-19.8574219c15.6425247,1.0213928,21.9873123-1.3021851,26.209053-8.5925293l4.9373932-1.4364624c-5.532135-38.3297424,3.8315582-75.9458008,24.0669708-106.3997345l-3.7801514-3.3749084c-0.2399216-1.4727478-0.5554428-4.8748932-2.36689-6.8042755c-14.8753433-12.7072144-21.0864182-12.6812286-29.7644043-20.0106049c-13.6674194-10.7004089,0.8745651-29.2745819,14.5419846-18.5741882c8.0941925,6.4007568,12.5733109,14.4322662,26.2836609,24.6970062c2.77211,1.6138916,4.9020844,0.9647217,7.0089111,0.6814575l4.2569427,3.0241089c21.9705963-23.1391144,55.3659973-43.2722321,98.3858032-47.3033447l0.2761841-4.9887695c1.5715179-1.5201187,3.3315735-3.7055893,3.831543-6.099678c1.2021637-12.1556931-2.8962402-26.6172409-2.922287-35.9628372c0.2112427-16.9591484,22.9543304-17.9244766,23.5871429,0c0.2657776,10.4563904-3.1790466,16.0211334-2.9223022,35.9628372c0.4646912,3.1733246,2.3194885,4.4293747,3.8547363,5.8980637l0.2762146,5.2650146c37.5021362,3.3315735,72.3269043,20.4793396,97.9059448,47.303299l4.4847717-3.2015076c1.5201111,0.0906982,4.8708496,0.5513916,7.1590881-0.7792206c5.9284973-3.8070374,14.7999268-13.2020416,23.6889648-22.6305389c13.197937-13.6151199,31.9387512,2.4880981,17.3141174,16.3534851c-7.3193665,6.2936249-16.6999512,8.8239136-29.9388123,20.1375885c-2.1934814,2.3426819-2.0271912,4.5634003-2.2207031,6.6782684l-4.1813965,3.7559814c21.6262817,33.6914978,30.0501709,67.2161713,24.5710144,106.1437073l4.7640076,1.3860474c0.8548279,1.212677,2.6148682,4.1581421,5.0875549,5.1188354c10.2700195,3.2744141,20.5796814,3.3516541,34.1751099,4.7866516C472.3372192,300.4338989,464.5526733,326.9841003,444.8219604,320.897583z"/></svg>