<svg xmlns="http://www.w3.org/2000/svg" width="512" height="512"><path d="M512 509.388 2.612 0H512v509.388zM290.92 189.212l32.177-32.178a3.808 3.808 0 0 0 0-5.386l-32.178-32.177a3.808 3.808 0 0 0-5.386 0l-32.177 32.178a3.808 3.808 0 0 0 0 5.386l32.177 32.177a3.808 3.808 0 0 0 5.386 0zm71.06-72.336 32.179-32.178a3.808 3.808 0 0 0 0-5.386L361.98 47.135a3.808 3.808 0 0 0-5.386 0l-32.178 32.177a3.808 3.808 0 0 0 0 5.386l32.178 32.178a3.808 3.808 0 0 0 5.386 0zm.582 144.445 32.178-32.178a3.808 3.808 0 0 0 0-5.385l-32.178-32.178a3.808 3.808 0 0 0-5.386 0l-32.178 32.178a3.808 3.808 0 0 0 0 5.386l32.178 32.177a3.808 3.808 0 0 0 5.386 0zm71.062-72.336 32.177-32.178a3.808 3.808 0 0 0 0-5.386l-32.177-32.177a3.808 3.808 0 0 0-5.386 0l-32.178 32.178a3.808 3.808 0 0 0 0 5.386l32.178 32.177a3.808 3.808 0 0 0 5.386 0zm-269.868 54.19-35.621-35.62L.98 333.502l35.621 35.622 127.154-125.948zm70.948 70.949-35.622-35.622L0 476.38 35.621 512l199.083-197.876zm70.948 70.948L270.03 349.45 142.876 475.398l35.622 35.621 127.154-125.947z"/></svg>