<svg version="1.1" xmlns="http://www.w3.org/2000/svg" width="498px" height="512px"><path d="M204.7864075,56.4892998L108.4022903,1.0734509c-2.4808197-1.4312679-5.5312805-1.4312679-8.0121002,0L4.0060658,56.4892883C1.3135121,57.9790154,0.0353165,60.332077,0,63.4438057v329.6691895c0,2.8625488,1.5436094,5.5232544,4.0244322,6.9545288l192.7866364,110.831665c2.7863464,1.4797668,5.1275482,1.4495544,7.9936829,0.0183716l192.7866821-110.831665c2.4991455-1.4312744,4.0244141-4.0736084,4.0244141-6.9545288V287.8779907l92.3597107-53.1037903C496.4747314,233.342926,498,230.7005768,498,227.8197021V117.9238205c0-1.9845428-1.1927795-5.3144302-4.098053-6.9544601L397.5177917,55.553524c-2.480835-1.4312706-5.531311-1.4312706-8.012085,0l-96.3841248,55.4158363c-2.6286926,1.4968796-4.006012,3.9390411-4.006012,6.9544601v105.2533951l-80.3231506,46.1859741V63.4438057C208.7924194,61.0236855,207.3720245,57.8744125,204.7864075,56.4892998z M200.6699829,383.8831787l-80.1761703-45.3052063l176.5787048-101.5101013l80.2496338,46.1309204L200.6699829,383.8831787z M385.4444885,177.9821014v91.3810883l-80.3415833-46.1859894v-91.3811035L385.4444885,177.9821014z M393.4750061,71.7561951l80.286438,46.1676254l-80.286438,46.1676407l-80.2864075-46.1676407L393.4750061,71.7561951z M112.3347244,324.7790527V123.502121l80.3415451-46.1860123v201.2585754L112.3347244,324.7790527z M104.3042297,17.2945328l80.2864227,46.1676407l-80.2864227,46.1676407L24.0178051,63.4621735L104.3042297,17.2945328z M208.718811,490.0723877v-92.2985535l176.7257385-100.7394104v91.4361572L208.718811,490.0723877z M401.5054932,269.3631897v-91.3810883l80.3414917-46.1859741v91.3810883L401.5054932,269.3631897z M192.7130432,397.7738953l-0.0000153,92.2802429L15.9322081,388.4705811v-311.15448l80.3415527,46.1860123l-0.0000381,219.7778473L192.7130432,397.7738953z"/></svg>