<svg version="1.1" xmlns="http://www.w3.org/2000/svg" width="497px" height="512px"><path d="M177.8025818,358.1992798l40.9700012,44.931366c-30.6515198-0.4619751-61.4128265,4.5504761-87.3280182,9.7536011C144.0805664,388.9997864,158.4914703,367.5675964,177.8025818,358.1992798z M250.9129486,404.6510925l-48.1689301-52.6473694c9.5428925-1.2687988,20.2020111-2.0935669,31.8041382-3.4396667c32.4707031,7.3217468,54.0886536,25.0912781,68.926239,49.3883057C287.4214783,401.355011,270.2854309,404.649353,250.9129486,404.6510925z M182.4731598,35.6504822c47.9577484,7.4943428,64.7084198,28.8649521,60.8471069,63.4599152C159.6086731,143.1952667,109.3961105,255.611496,97.7693863,308.3311462c-9.3922958,42.5880432-10.3892822,77.5671692-33.8255272,113.913208C28.3568287,423.1338806,21.7850609,419.375,4.3801999,432.6842957L0,454.1472778c15.1587591-13.4169922,19.4604416-7.006012,47.0468903-10.000885c-4.5848923,5.0862122-9.6733208,10.2278748-15.4024734,15.4544678c-19.7058544,23.8801575,21.5435753,72.5545959,46.2751617,43.3263855c15.7497559-11.8411255,28.0307312-38.095459,41.1973038-65.365387c24.4427032-1.8043823,55.5211639-3.5083618,86.4612274-4.8189392c2.8130646,9.247345,7.4207001,17.8182068,15.2834778,25.162323c3.0071716-8.622345,9.1082001-17.4447327,17.081604-26.3882141c23.5322723-0.7821045,45.4912262-1.2590637,62.5605316-1.285614c0,0,16.8624268-29.9776306,82.4385071-29.9776306c65.5762024,0,66.9512024,20.7303772,70.4475403,6.7449341c5.2460022-20.9843445,45.0873718-21.8974915,42.7180786-28.4787903c-6.7449341-18.7360535-31.2709656-5.2577209-50.9619446,7.4944458h-35.2237854c-5.808197-24.54422-48.807312,2.7167053-78.2294006,6.3805847c-15.713623-17.4511414-30.1180115-35.8239441-53.7345886-52.1022949c49.4009705-14.2451782,166.0229797-104.5899811,114.7268677-224.8266907c-15.4231262-36.1512909-36.4666138-86.4099579-57.7070312-101.1746597c-49.4037781-34.3415985-101.9207306,3.9974003-101.9207306,3.9974003h-33.0543671C191.1106567,19.4977703,189.1477661,20.8998299,182.4731598,35.6504822z"/></svg>