<svg xmlns="http://www.w3.org/2000/svg" width="460" height="512"><path d="M156.483 498.57c-28.154 26.468-77.292 11.408-108.562-24.176C6.4 427.148-8.631 337.668 4.754 257.873l151.729 240.696zm32.732-30.512c-18.228-7.747-91.458-45.553-62.463-179.76C80.302 257.764 13.644 234.8 9.378 229.82c0 0 .174 8.073-1.962 23.902l157.637 235.35c3.916-7.718 14.3-13.878 24.162-21.014zm-49.786-79.579c15.543 51.182 43.043 57.232 63.315 69.89L408.585 17.992h2.435L219.913 472.995c19.381 18.274 45.235 36.647 84.038 27.902C463.908 472.324 500.428 214.25 413.902 0 312.147 69.794 235.998 107.428 186.32 181.314c-38.638 57.467-68.612 138.396-46.891 207.165z"/></svg>