<svg version="1.1" xmlns="http://www.w3.org/2000/svg" width="512px" height="512px"><path d="M0,349.5206604l86.1545334,38.8540344c28.758255-10.4260254,58.1446304-19.0303345,87.9846268-25.7619019l-96.0088196-53.7762146l32.8006744-51.3830261l-15.6260681-29.5628357C56.1644745,260.1979675,23.5040417,299.7446594,0,349.5206604z M85.7322159,179.886322l36.3200455,68.5576172c51.6823425,9.7025757,93.8140411-37.9758759,93.8971863-53.635437c0.9854126-12.6697845-7.3203125-29.703598-30.5482635-62.0819244c32.8006592,21.9609528,55.18396,57.1547852,37.1647034,82.4943542c-27.2419434,33.3251801-54.4503632,52.7212982-98.5427856,47.8636322l-26.043457,40.8248596l69.6838226,38.5724792c71.7954407-3.8009338,118.251297-47.3005066,163.1586761-118.6736755c-34.3492126,72.9216614-76.8634033,119.6590881-142.4647064,130.6395874l37.4462585,21.1163025c70.3876801-4.6455994,112.9018402-43.2180481,157.3868866-113.8872986c-33.9268799,72.0769958-73.062439,114.591156-136.552124,125.5716553l39.4171143,20.4124146c70.1061096-4.5048218,109.2416992-38.1501465,153.7267151-108.819397C407.122345,368.2437744,372.210083,406.534668,313.5067444,418.5005798c42.9364929,12.6697998,77.7080078,4.9271545,112.6202698-16.8930359C438.092926,393.8648987,466.8111267,353.0400391,512,278.8514099L338.001709,92.1832657l-74.0478516,132.0473022c-35.5248413,59.2988739-70.8040314,84.223587-130.2172394,84.3244781c51.8654633-10.9852295,90.7428589-43.0306091,117.9698029-91.3632202l72.9216309-129.7949371c-37.1723633,9.8842773-72.6627045,25.2571182-105.2999878,45.6112213l-15.2037506-7.0387573c2.520401-1.6168594,5.0544586-3.2123642,7.6018677-4.7863541C170.4372101,111.6975403,104.023056,138.450943,85.7322159,179.886322z"/></svg>