<svg version="1.1" xmlns="http://www.w3.org/2000/svg" width="512px" height="512px"><path d="M217.1964874,372.6972656c-34.7018127,6.2263489-68.9736633,14.0566406-102.9165192,23.1142578L0,344.4178162c23.379612-52.96875,56.4690208-95.8819122,98.2678452-129.775528l-17.0451431-32.282486c21.5105743-55.6309509,105.6550598-81.5769958,144.4963684-62.4988708c32.153183-17.8336029,65.4058075-30.5966873,99.6882782-38.6098404L512,281.4024048c-51.7878418,102.4445801-63.6797791,159.0213623-157.9258423,147.9828796C314.1976929,424.245697,270.3015137,403.1073608,217.1964874,372.6972656z M17.0451412,337.8321838l79.0274887,35.6398621c26.3792572-9.5635376,53.3346863-17.4560547,80.706192-23.6307678l-88.0665894-49.3276367l30.0872726-47.1324158l-14.3334198-27.1172791C68.5634689,255.8986053,38.6048355,292.1738586,17.0451412,337.8321838z M95.6852493,182.2306671l33.3155136,62.886261c47.4069672,8.8999481,86.0533752-34.8343658,86.1296387-49.1985016c0.9039001-11.6216888-6.7147522-27.2463989-28.0211945-56.9462738c30.087265,20.1442566,50.618927,52.4267273,34.0903015,75.670105c-24.9883881,30.5683899-49.9460144,48.3599701-90.3909454,43.9041595l-23.8890381,37.4476624l63.9192963,35.3816223c65.8562469-3.4865112,108.469101-43.3876343,149.6615448-108.8565216c-31.5076904,66.8892975-70.5049438,109.7604218-130.6794586,119.8325653l34.3485565,19.3694763c64.5649414-4.2612915,103.5621643-39.6428833,144.367218-104.466095c-31.1203003,66.114502-67.0184021,105.1117249-125.2559814,115.1838684l36.1563721,18.7238159c64.3066711-4.1321411,100.2048035-34.9942017,141.0098267-99.8174133c-29.9581604,63.6610413-61.9823608,98.7843628-115.8295288,109.7604065c39.384613,11.6217041,71.2796936,4.5195618,103.303894-15.495575c10.9760437-7.1021423,37.3185425-44.5498047,78.7692261-112.6012573L327.0860291,101.7827454l-67.9223328,121.1238403c-32.5860901,54.3934326-64.9468384,77.2562866-119.4451599,77.3488159c47.5749512-10.0764771,83.2362518-39.4709473,108.2108765-83.8052826l66.8892822-119.0577927c-34.0973206,9.0666122-66.6517639,23.1677475-96.5891724,41.8380814l-13.9460297-6.4564819c2.3119049-1.4831085,4.6363373-2.9466248,6.9730072-4.3904114C173.3831177,119.682724,112.4630051,144.2229767,95.6852493,182.2306671z"/></svg>