<svg version="1.1" xmlns="http://www.w3.org/2000/svg" width="305px" height="512px"><path d="M12.5749416,153.2963867c-2.0359793-13.8683319-4.2416353-27.7177734-4.0075512-34.0641937c0.350131-11.150383,3.894866-26.9476776,8.0151024-43.5821228c2.6716995-7.9316101,4.0955391-16.5764275,9.0169907-19.5368118c3.3293018-3.1928368,5.7684536-6.544136,7.5141602-10.0188789c1.9976006-4.4518166,3.5223351-6.9755211,9.0169907-7.0132141c0.3339577,0,2.8386765-1.8367958,3.5066071-2.5047188c0.9652443-1.5320282,2.474678-2.527401,4.5084953-3.0056648c2.1483345-0.2840729,5.3912888-3.9312553,10.0188789-7.013216c3.3396225-3.3396244,6.4287758-5.7608547,9.2674599-7.2636871c2.8386917-1.5028305,44.2066803-15.9853783,47.0887299-16.5311489c3.5901031-0.6798525,5.1644974,2.1349752,7.9316177,1.9918487c10.1143799-0.5231566,19.8469238-4.961731,24.8802185-4.7470403c5.1982727,0.2656905,10.6929474,2.8725877,14.303009,3.300601c16.7338104,1.9839809,17.9118042-1.902702,40.299881,0.7069504c11.7236786,3.1685219,7.1572571,6.8216667,15.5292511,13.2750149c5.5639191,3.1263714,6.9704742,3.2435856,13.0293274,4.6902618c4.2229309,1.0083122,9.2570038,3.7107048,14.2721252,4.827673c8.6369629,1.4202614,19.1407471-1.4773312,18.2844543,8.2655735c-1.2263794,7.2804527,13.1488953,6.2085304,24.2957764,8.0151024c3.184021,1.217041,4.4498291,5.4227333,2.755188,7.5141602c-6.2737427,7.4162979-16.0302124,15.0283203-16.0302124,15.0283203c5.9346008,2.158432,9.8684082,5.1965256,12.0226746,9.0169907c1.8422241,4.2507248-1.3606873,8.0005264-5.7070923,7.3666763c-3.14505-0.4586563-7.3174438-1.8562927-12.5773621-3.3591232c-10.2660217-1.8084183-6.4380798,1.3670273-6.2618103,7.5141525c-0.447937,12.6872253,11.7763062,25.5452957,15.0283203,26.0490875c5.7009277,0.4387207,6.8025513,5.2819061,8.0151062,10.0188828c0,2.6716995,0.3339844,4.1745377,1.0018921,4.5084915c5.7608337,1.2523575,13.1655273-1.3577194,14.5273743,3.5066071c0.6679077,2.6717072-1.1688538,6.5122681-5.510376,11.5217133c-2.3377686,2.6717072-3.5708313,3.598175-4.2580261,5.510376c-1.4402466,4.0075531,3.0682678,4.0075531,0.500946,10.5198212c-1.2851562,3.0749359-4.1940308,5.3895569-9.2674866,4.2580261c-1.3358459-0.1669769-2.337738-0.5844269-3.0056458-1.2523499c-1.3358765-0.6679382-2.3377686-0.5844421-3.0056763,0.250473c-2.8283081,5.4328766-4.926178,10.4408264-5.0094299,14.2769012c1.3777161,9.9166412,2.0210876,18.3760376,0.500946,22.5424652c-1.0018921,3.0056763-0.8349304,7.8481293,0.500946,14.5273743c1.3358459,6.6792603,2.6031189,8.8814392,6.011322,17.5330505c3.256134,8.265564,6.1365662,8.76651-2.0037842,23.5443573c-3.6275024,6.5853271-7.0623779,10.7033691-11.521698,13.0245361c7.45755,7.4738464,16.4190369,16.6884766,21.0396423,15.0283203c2.0448914-0.7347107,2.1637878-7.3013306,1.3030701-8.9721069c-2.6339417-5.1130066-2.2570496-9.0724792,3.2054138-9.5628052c3.9240723-0.0834961,8.2625427,6.1620789,10.3771057,10.1370544c5.6255798,10.5751038,2.4460449,24.2356567-3.8648376,31.9422302c-10.7702942,16.2806702-23.3565063,9.8936462-43.0811615,12.022644c-1.6698456,0.3339844-1.6698303,1.3358765,0,3.0056763c0.667923,0.6679077,1.1688385,2.337738,1.5028229,5.0094299s0.500946,5.510376,0.500946,8.5160522c0,0-1.5289612,3.9602661-6.5644531,7.9298401c-3.5082855,2.7656555-6.0564575,5.2019958-8.9315338,6.3954163c-3.8960724,1.6172485-25.0804749,2.7068481-25.0804749,2.7068481c-0.8909912,0.075592-1.557251,2.6287842-1.5028229,4.0075378c-0.5537262,7.322937-9.1843414,23.1203613-16.5311584,37.5708008l15.2787933,70.6330872c4.919754,22.1223755,0.9893036,24.664856,3.7570801,37.0698547c0.4370728,1.5200806-1.3398285,5.0053711-4.5084991,8.0986023c-3.5066071,3.4231262-6.011322,4.4250183-7.2219391,3.7570801c-1.3663025-0.7538147-4.5502472-3.3396301-4.5502472-3.3396301c-2.8386536-2.3377075-5.9278564-5.1764526-9.2674561-8.5160522c-34.5651398-31.0585327-82.9062195-66.6255493-133.7520294-105.1982117c-1.8235664-5.6184998-3.0065269-10.8001404-1.7533035-14.5273743c2.3443642-6.9724426,7.3546486-14.6880493,11.7721825-22.5424805L63.6712227,328.62677c-2.0730286-16.1386719-4.7495956-31.7271423-11.5217094-43.5821228c-3.4807243-6.5393066-6.8093529-13.4163513-11.5217094-16.5311584c-6.5645523-4.3390808-10.2792282-10.2418213-10.519825-16.5311432c-0.0638313-1.6685944-1.1688671-4.4250031-3.5066071-8.2655792L0.0513432,206.3964386C-0.3591902,173.4418182,1.5029124,164.6789856,12.5749416,153.2963867z M159.8524628,363.6928406l-41.5783539-26.5500183c-20.5489426-22.0086365-40.0245132-43.591217-58.1094933-64.6217957c-1.7258492-2.0744934-8.3313408-0.9884338-8.0151024,1.0018921c2.3734589,7.9010925,8.7064629,15.3516235,11.7721825,27.8023987c1.3772545,5.5934448,6.5957603,36.9863586,8.5160484,52.5991211c0.4285507,3.484314-0.250473,6.2617798-1.2523651,8.265564l-9.0169868,16.7816162c-2.4376373,5.8480835,0.0309563,11.2220154,5.7608528,16.2807007c63.8703613,51.0962524,112.3396454,82.7261963,138.0100555,112.2114258l7.0132141-4.5084839c-0.8348999-42.7472229-15.195282-80.3180237-20.0377502-111.7105103c3.8983307-6.9706726,9.0484161-15.605835,12.022644-22.5424805L159.8524628,363.6928406z M159.8524628,300.5739136c6.3452606,0,11.8556519-1.3358765,16.5311432-4.0075684c10.7702942-5.8860779,28.3033295-27.3014526,34.0641937-29.0547485c6.3394928-0.0577393,3.6068573-3.5666504-0.500946-6.011322c-6.8104401-4.0090942-7.3422089-8.6083832-3.4924316-16.0559387c0.8661041-1.6754913,1.8017426-4.1070557,3.2419586-5.4846497c1.0792999,1.0375977-2.3168793,8.0151062-1.1244049,12.5179138c0.9976807,3.7673035,7.8245239-1.5910797,13.8984833-2.4990387c5.1707916-0.7142944,10.6972961,1.1823578,15.4726562-0.024231c8.3326721-2.1054077,9.5745392,1.1931,15.0849152,2.5289459c5.0361786,1.1390076,11.0242157,2.179306,13.2750092,1.2523651c6.0328064-3.948822,10.8085327-8.266449,11.5217285-13.7759552c-1.7533264-13.2750092-5.9278259-9.0169983-7.7646484-21.0396423c-0.5844421-9.2674713-4.17453-11.9391632-1.5028381-20.5387115c0,0,2.7849731-4.3857422-0.6557312-21.1146698c-1.102356-5.3596954,1.9005737-8.6287384,1.4071655-9.9438477c-1.2148132-0.742218-2.2782288,1.5547485-10.7702942,1.0018921c-4.1745453-0.3757172-6.8879852-2.2125092-6.0113373-2.7552032c2.0037842-0.3757019,1.8487091,0.4290466,2.8804321,0.250473c2.1707611-0.3757019,3.5901031,0.7514191,3.6318512-2.0037689c0.041748-4.8007202-1.6698303-1.9620361-2.0037842-3.7570801v-1.7533112c1.5386353-3.4741058-2.9263153-1.3223419-7.5141602-0.500946c-1.4333954-13.6695862-3.0652771-27.5952301,0.500946-34.8155975c6.5411072-1.8756866,8.0361328,4.2257004,17.0321045-7.2636871c-0.9423828,5.5718765-2.0664062,10.3319702-4.0075684,13.5254822c-2.5673218,2.7552032-2.723877,6.7001343-0.2504578,4.5084991c6.6375122-6.7627411,10.0544739-12.7310486,9.2674561-16.0302048c-1.9202881-7.5976486-8.5995483-14.2351608-11.521698-21.5405884c-2.9221802-7.3054352-0.6679382-12.1896362-4.5085144-21.0396423c-1.0084839-1.955162-3.2890167-3.9823074-7.5795593-6.5241776c-9.2216644-5.4632416-1.0306854-3.6240082-12.2077179-10.5079193c-5.5457306-2.5535469-8.2497101-4.6032066-17.8786316-7.5594482c-7.9821167-2.4506531-9.3755188-5.8280258-20.4435883-4.9641495c6.0413513,4.7567444,10.9520721,9.8438148,15.5292664,15.0283165c-1.1010742,1.0219765-5.0769958-1.7266273-9.8576508-1.7266273c-5.914917,0-10.9976196-0.843708-13.9371796-2.0304527c-12.8018951-4.1050453-26.5839996-10.5247307-27.8023987-8.7665176c-0.651825,3.4376831-10.4537506,4.2125435-16.3796082,0.2170753c-0.8072205-0.5442581-1.8688507-1.1250916-2.6562653-1.2189636c-1.8858948,0.0530396-1.6239319,3.2611275-3.8527832,3.7444229c-2.2290955,0.483345-2.5333862,0.6771736-2.6526642,1.4694824c-0.8488922,5.6391068-10.0674438,1.7575645-16.5379639,4.3040314c-4.7927551,3.2766762-10.6868057,9.4761887-13.7759628,14.2769012c-2.26017,3.5124359-1.87854,6.4287796-1.2523575,10.2693481c2.1775208,7.3999634,1.0553284,15.0685501,2.0037766,26.5500336L92.475502,124.2416306c-7.1552505,7.6055374-13.6787186,11.7805557-19.7872849,21.791069c-4.7589722,20.0377502,5.5103836,36.3184357,11.5217056,70.3826141c4.2580261,28.0528717-4.2580185,23.5443726-23.0434189,24.5462646v15.5292664c0,0,45.0014496,44.667511,52.8495865,51.8476868c26.2995529,23.7948303,53.5174942,37.8212585,103.9458694,37.3203125c20.5144806-0.249115,35.6450653-5.2926331,34.0641785-21.5405884c0,0-15.6127319,0.918396-17.7835083,0.7514343c-14.3603821-1.9620361-8.0151062-7.5141602-32.3108826-4.2580261c-19.1611023,4.0075378-47.7149048-4.3832703-57.358078-8.2655945c-4.633728-3.0056458-26.4247894-32.5613403-13.7759552-42.8306885c3.2844238-3.1670227,4.4459381-2.3262634,2.8160553,1.2052002c-0.8891144,1.9263916-3.2597961,4.346405-3.8179474,7.0603638c-0.250473,3.5901184,10.0207977,17.6951904,14.0264282,19.2863464C149.2108917,299.2078247,154.1319275,300.4119873,159.8524628,300.5739136z M135.8071442,143.7784424c2.7667694-0.4824524,2.3477631-3.491684,2.7552032-4.2580109c1.0781403-0.8716125,3.173172,1.1853333,2.2542419-1.2523651v-4.0075531c0-1.0018921,0.1669922-1.5028381,0.500946-1.5028381c0.6084442,0.0631256,0.6549377,0.9916382,0.9355011,1.3755188c1.2980042,1.776001,1.9228363,1.9455109,1.8196869,0.3777924c-0.3945465-3.480484-2.7023315-5.6163025-2.504715-7.0132141c4.6396332,0.8303375,6.4885712,4.6484833,9.5179291,7.7646332c1.847168-4.6803131,2.3231659-9.1640015,5.0094452-12.5236053c2.2663269-3.2899246,9.5351105-2.3698273,13.6755524-2.9218826c5.5205841-2.9443283,4.4164886,0.9200974,9.8688049,1.1685791c3.840683-1.0765762-4.1641846-7.7012939,6.7627411-2.2542419c10.2353821,5.0420914,9.5913086,1.6377182,15.5292664,4.7589645c5.5103912,4.5502472,4.4667511,9.9771271,7.2636871,9.7684021c2.4707184-1.0816956-0.2282257-7.7677536,3.256134-8.0150986c1.2081451,0.5847092,0.8827057,1.9482117,0.500946,3.5066147c-1.0018921,2.3377228-1.419342,4.5084839-1.2523651,6.5122681c0.1669922,2.0037689,3.1726532,21.4570923,3.0056763,23.2938843c-0.1669922,1.836792-0.7514191,4.0910339-1.7533112,6.7627411c-1.6698151,3.3396301-2.755188,5.1764374-3.256134,5.5103912s-1.7532959-0.1669922-3.7570801-1.5028381c-8.1749878-2.0365295-14.2213593-1.1631622-18.2844543-1.7532959c-2.5207367-0.3504028,5.7426453-0.2160492,7.5141602-2.755188c0.500946-1.0018921-0.5844116-2.8386841-3.256134-5.5103912c-4.5254364-4.400589-8.1467896-6.1833954-9.0169983,0c-0.3339386,4.0075531-0.6679382,6.5122681-1.0018768,7.5141602c-0.1012268,0.4827576-0.4842529,1.1083984-1.0853882,1.3358459c-0.7722778,0.2922211-2.3557892,0.2418365-2.4212189-0.3339539c0.020874-0.4174652,0.4454956-0.9944,1.0018768-1.5028381c1.2106171-1.1062469,2.1115723-5.4678192,1.0018921-6.261795c-2.4718781-0.4161682-4.8261719,1.4174652-5.510376-0.7514191c0-1.3358459-0.7514191-1.7532959-2.2542572-1.2523651c-3.8405609,1.3776093-2.337738,4.0075531-6.0162048,6.4741211c-0.7500916,0.5029602-2.0823822,0.4138641-2.7503052,1.5409851c-0.4222107,0.6846161-0.1764221,1.8078156,0.0549774,2.4442291c1.5525208,4.2697906-2.108902,3.712616-2.5597076-1.191864c-0.7819824-1.8631439-1.1972809-2.9336395-1.889328-2.7980804c-1.8770752,0.3676605-3.7149811,3.0172424-3.621048,4.0504456c0,0.8348999,0.8348846,1.419342,2.504715,1.7532959c1.9353485-0.0186462-1.3915253,1.0209656-1.6812897,1.026886c-1.045517,0.0213318-3.2690582,0.5498047-4.8309784,1.227356c-5.3293152,2.2987061-7.9203949,6.3898621-14.5273743,7.2636871c-4.7573242-0.1919556,7.2433929-3.3285065,6.261795-4.7589569c-2.6549988-1.342453-8.0644073,2.7941589-15.2787933,0.7514191c-2.6043854-1.5483856-3.4226227-1.093811-3.6953659,1.4972534c-0.1946945,1.8496094-3.9436035,1.1830292-4.7730255,0.1363678c-3.8184052-4.8184662-5.4094086,4.9093933-7.0608597,1.3720398c1.2625351-3.9617615,4.0577087-4.2825165,3.8196945-7.5141602c-0.167305-2.2715607-1.1478271-1.9360962-0.0626221-5.0094452c1.1651459-3.2997437,3.9385681,1.8005371,6.7627487-10.5198212c1.5432053-6.7980194,3.1788712-11.9284668,5.510376-4.5084991c0.6679382,2.6717072,1.4193573,3.8405762,2.2542572,3.5066071C133.317276,153.3140564,131.2984314,149.5429993,135.8071442,143.7784424z M157.3477325,177.3416901c-0.3339539-0.3339539,0-0.5844269,1.0018921-0.7514191c1.0018921-0.1669769,2.6717072-0.0834808,5.0094452,0.250473c5.6773682,0.3339539,8.76651,0.6679382,9.2674561,1.0018921s-1.419342,0.500946-5.760849,0.500946c-2.0037842,0-3.9240723-0.0834808-5.7608643-0.250473C159.2680359,177.9261169,158.0156708,177.6756439,157.3477325,177.3416901L157.3477325,177.3416901L157.3477325,177.3416901z M191.4119263,173.835083c-2.7507629,0.0052185,7.125-4.3280182,9.5179291-3.7570801C202.7021942,170.4812012,193.666214,173.8403015,191.4119263,173.835083z M221.4685669,136.7652283c-1.168869,4.59198-2.1707611,4.2580261-2.4069672-0.8514404c0.15271-11.6721573-2.4735413-13.1558151-1.851059-14.6778183c0.1670074,0,0.9184113,0.8348999,2.2542419,2.5047226C223.6177521,127.7162247,222.8987427,132.2033997,221.4685669,136.7652283z M245.5138702,316.1031494L245.5138702,316.1031494L245.5138702,316.1031494c10.1244659-3.6403809,7.4518127-9.9953918-1.7532959-6.7627258c-6.7121124,2.0532837-7.6623993,6.3295288-15.5022125,7.6955566l-6.2888489,2.5737915C227.308075,318.9959412,235.7418213,318.5802002,245.5138702,316.1031494z M54.9394073,170.4764099c-2.6603165-6.8126373-9.0004959-10.7807617-15.5639648-14.4248352c-13.0945339-7.2701569-17.51791-5.2045135-20.538702-1.5028381c-15.404026,14.1516724-13.0245419,24.9219666-13.7759581,49.3429871c15.6544981,22.9181824,29.4509392,40.6407318,29.5556908,45.5858917c0.250473,9.3927155,8.3997993,15.986557,13.0245438,16.5311432c3.3571701-1.5296326,7.095787-6.3052673,9.5179329-9.0169678v-16.5311584C55.4056473,217.4172058,62.9198074,199.8841705,54.9394073,170.4764099z M47.3905449,230.1912842c1.4590187,3.6171417,1.0645027,6.1052399-0.0939255,7.2636871c-0.5462341,0.5462189-0.9639473,0.4864197-1.1584358-1.0018921c-1.0853729-5.9278412-10.3528404-2.504715-18.0339794-21.5405884c-6.1365643-18.6601715-2.7551918-22.2920074-3.2561359-32.8118286c-0.3198929-3.1874695-4.439909-1.4597168-5.9683018,1.4641571c-1.5733051,3.0098114,0,9.9013367-2.5477448,8.053772c-4.1638908-5.1963501-2.4937744-12.1761475,0.5009441-17.5330353c10.0188789-14.5273743,32.8118286,1.0018921,31.3089943,35.8174896c-5.8230858,1.8332367-8.9228439,2.6529846-9.1342506,5.0489044C38.7211227,218.1999512,44.2223549,221.3645477,47.3905449,230.1912842z M244.1163635,156.0553131c0.0465546-0.9154053-4.5460052-1.8773651-10.2866974-0.8843842c-4.608078,0.9154053-5.0735321,2.3273163-0.0310364,2.5910797C238.8721619,158.0257721,244.1473999,156.939682,244.1163635,156.0553131z"/></svg>