<svg version="1.1" xmlns="http://www.w3.org/2000/svg" width="512px" height="512px"><path d="M441.7919922,121.3415985c-3.7529602-18.5430908,10.1162415-35.8082123,29.7063599-43.9975357c7.1088867-2.9717407,16.579895-2.0892258,26.8527832-2.2325668c7.071106-0.098671,9.4719849-3.1902237,13.6488647-1.3813324c-3.3086853-4.4286652-8.1369934-8.9898453-13.6488647-10.5244293c-5.9490967-1.6563187-12.2346497,2.5653458-14.2342529-0.9891701c12.1100159-12.1702347-9.4070129-19.6637344-17.1145935-7.1388931c-22.9622192-9.7682991-37.1090393-16.7707558-53.0700378-14.3446846c-30.1077881,4.5763855-72.6820374,52.0625992-105.2568359,74.1856155c-73.5971527,35.007164-151.2615662,72.2586899-222.3159485,191.9672546L1.1737007,358.0386658c-2.8323092,2.2658386-0.131552,4.0122375,3.7742844,4.4864197c2.9095459,0.4062805-2.9791479,3.4498596-0.2861342,4.8416138c23.3141289,5.5768738,49.0749168,9.6788025,74.9848099,11.6159973c-37.3484993,30.0900269,42.2966537,42.6148682,70.4878006,1.1253662l10.892334-0.2408447c7.7494049,2.1485291,17.1602325,3.3551636,25.8783569,4.0444031c0,0-0.0168762,0.5332947-0.705658,0.5199585c-17.0830994-0.3311157-23.1909332,1.2501831-23.8594666,11.9464722c0.4837646,4.2863159,3.6131287,4.2415161,4.6177826-0.1780396c6.6638641,1.2444153,10.9580688,0.8292236,13.568573-2.1677856c4.5348511-0.0231018,8.4838257-0.5651245,11.2803955-2.127655c10.7722626-1.5913391,20.9607391-1.7590637,30.5895233-0.5619812l25.9426575,34.6760864c0.7453308,0.4635925,0.6542358,3.700531-0.5043945,4.1613464c-4.8476562,1.2878418-14.1335144,1.2301025-24.0867767,0.1956177c-10.8010254-9.5690918-25.9060669-6.9582214-28.5287933,5.0848999c4.4382629-2.6331787,8.5852203-4.8121643,12.1233978-5.218689c1.7605286,0.6974487-2.9752808,3.8027039,0.0176086,8.3934326c6.8721313,4.2876282,15.7321167,1.4484558,43.5115814,4.9008179c7.2663574,0.7132874,12.3442993,3.0610657,16.6864014,7.2593079c6.3797302,4.1824951,13.7934265,9.5770264,21.5170288,15.3348999c5.9911804-0.2162476,11.0863342,1.9912109,15.6560364,5.6201477c2.515686-6.637085-6.4229431-15.3616638-13.086853-16.4589233c-0.0896301-1.45224-3.7139282-2.3587646-8.5639648-6.3427124c-1.4987183-1.2310791-3.7403259-2.9382019-5.2989807-4.0946655c-1.5205078-1.1281433-3.103302-1.9361572-4.4760132-3.3720398c1.7997742-0.0535583,1.1842346-1.3916626,4.6633301-1.257843c1.5389099,0.0592041,5.0244141-0.4776917,8.6978455-0.6289368c4.1211853-0.1696777,8.3766479,0.0401611,8.3766479,0.0401611s8.9776611,0.9148254,12.7389526,0.6422729c3.6932068-0.2676086,7.2276306,0.782196,11.507843,0.5352478c5.5666199-0.3211365,3.8465271-4.0814209,5.513092-4.2284546c1.8198242-0.1605835,2.1409912,2.1409912,5.5130615,2.6227112c2.3565674,0.3366699,1.2846069,2.4621582,4.9242859,2.5692139c0,0-4.8117371-11.3666687-15.6828003-12.150177c-5.9412842-0.4281921-11.7234497,1.6772461-20.7677002,1.8733826c-22.2128601,0.48172-21.5705566-1.4451904-21.5705566-1.4451904c0.6690063-2.006958,8.1358032-2.4085999,18.0914307-7.6540527c3.0416565-1.6026001,3.9608459-0.1605835,9.2062988-4.7972107c-0.4282837-0.9593201-1.2674866-1.9359131-2.7297668-2.2145386c1.9269104-2.4086304,5.7271729,0.2140808,7.4934998,0.0535278c0.7668152-1.7510681-2.0874634-4.7637634-4.5496216-5.9413147c-3.2409668-1.5500183-8.8876648-0.5239563-10.8120422,3.2650146c-1.0169678,1.2310791-2.2480469,0.9099426-4.0679016,3.5861816c-6.637085,3.0509338-11.1331787,7.6540833-24.6214905,7.1188049c-6.9047241-6.2088623-13.6634369-14.1012573-18.9478455-21.4635315l0.8564301-0.3746338c6.375061,2.7772217,12.0000153,5.0540161,17.5644379,6.7122803c1.9804077,0.7493286,5.119751,0.0195312,7.3781738,0.620636c3.3389587,2.2701721,6.5863037,1.7278442,9.7950745,0c1.5522156-2.8903503-1.8733826-4.3354797-1.6057434-5.0313416c2.2644653,0.0960999,4.4840393,0.9204102,6.5835571,3.6932068c0.9342346,0.8490601,2.7832947,1.0705261,2.5692139-0.3746338c-2.2494202-1.9994812-3.4623108-7.5444946-10.4622498-8.3711853c-2.9925842-0.3533936-4.4176941,0.6635437-7.3080444,0.3424072c-13.2242432-2.0170898-18.5257111-5.1785278-25.8525696-9.3668823c0,0-0.296463-0.8563843,0.7121582-0.6267395c0.6307373,0.1435852,12.7430115,1.8482056,24.9024048,2.5291443c5.9900513,0.3354187,6.7936707,1.8492432,10.8461609,1.8482056c2.2718201-0.0005798,7.7536621-1.4837341,8.1710815-3.9882507c0.4377441-2.6264343-3.161438-5.1555786-4.5232849-5.9337769c1.5940552-2.6911621,11.4360352,1.2471313,11.4360352,1.2471313c1.2097168-1.2471313-1.0332642-2.3277588-1.622345-3.2340698c-1.2050476-1.8540039-3.0166321-2.9262085-7.9168396-2.8282166c33.6254272-11.1727295,90.6294861-12.2967529,134.1452942-82.4680176c1.2644653,1.3410645,1.0077515,11.3056335,2.5692139,12.6854553c1.8982849-1.686676,1.8179626-9.4545593,1.1240234-19.108429c4.0145264-4.007843,7.8533325-9.2284851,11.8295288-14.7106018c0.8264771-0.413208,2.8926697,6.8700867,5.4754028,8.4197388c-0.7610474-4.3834839-1.7374878-8.1403503-3.2542419-13.0169983c2.6860352-3.5125427,4.0848083-6.6937561,5.2182922-10.559082c5.3306274,3.277832,10.846344,6.4266663,13.8939819,7.1498413l-11.3247986-11.9670868c1.7224426-0.1655579,2.5338745-1.9144287,3.0509338-4.1749573c0.0466003,0.8843384,0.2706604,1.5333099,0.8356018,1.7303619c2.289032-3.1244202,3.5125122-10.4859467,6.8719788-17.4666748c1.3940125-0.0319366-0.4687195,4.6233826-0.1051941,7.7555695c2.3024292-4.8892822,4.3321838-9.6229401,5.3720703-13.7918396c3.865387-2.5291901,4.6799927-8.8968506,5.2687683-16.8394623C476.4659424,178.9421234,464.9740601,141.7266693,441.7919922,121.3415985z"/></svg>