<svg xmlns="http://www.w3.org/2000/svg" width="434" height="512"><path fill-rule="evenodd" d="M385.73 346.223c-3.122 19.866-15.777 28.48-27.457 32.272 3.174-21.045 7.32-44.192 8.606-61.164 0 0 21.973 9.025 18.851 28.892zM92.877 423.629c8.005 12.635 20.016 33.081 30.485 45.446 14.542 17.175 120.422 43.39 145.401 42.919 34.29-.647 68.578-74.4 68.578-74.4s44.026-8.982 58.792-26.409c17.05-20.121 26.93-55.432 35.017-76.781 6.626-17.493-.973-36.912-4.044-42.376-16.497-29.356-57.704-37.803-57.704-37.803s7.727-99.029 7.484-129.84c-.116-14.817-8.976-44.398-20.136-59.44C322.7 19.053 156.27-5.052 118.623.89 77.587 7.366-5.385 112.173.276 152.285c6.623 46.934 46.419 198.454 92.601 271.344zM26.288 151.141C3.968 74.477 90.221 13.308 169.775 13.93c70.24.55 163.396 29.376 179.446 83.44 7.324 24.67.845 91.654-61.243 124.599-44.642 23.687-113.59 22.75-168.104 3.801-48.568-16.881-86.88-51.598-93.586-74.628zm119.378 68.672c-4.11-8.574 21.201-62.19 45.624-91.141-14.548-41.31-70.405-19.97-83.261-32.908-4.27-4.298-3.365-8.922.658-12.646-34.27 17.534-58.852 47.494-59.561 88.947 16.994 15.342 40.828 30.246 67.837 39.634a251.757 251.757 0 0 0 28.703 8.114zm140.485-13.096c-41.308-4.739-74.907-47.456-74.907-47.456s-20.621 32.813-21.046 47.855c-.264 9.34-2.546 12.988-6.488 18.144 36.4 2.569 75.026-2.618 102.44-18.543zM123.658 76.469c40.306-3.57 68.602 12.01 98.2 53.254 19.336 26.943 29.599 34.45 48.037 42.942 20.76 9.56 41.238 14.589 41.238 14.589 21.023-19.916 21.355-29.63 21.355-29.63C335.537 119.418 315.021 80.958 215 66.73c-30.721-4.37-63.28-.984-91.342 9.738zm181.578 260.24c-2.684 3.718-6.227 6.712-11.241 8.41-5.333 1.806-12.2 1.193-12.2 1.193 3.7-7.885 8.393-21.646 12.968-36.088 3.062-9.667 5.693-19.338 9.34-28.871 0 0 1.482-2.809-.603-2.635-2.085.174-7.066 1.564-8.252 3.727-1.185 2.163-1.884 4.96-1.884 4.96-.712-4.293-5.413-5.142-8.455-4.17-9.788 3.128-18.81 16.751-23.181 37.259-5.095 8.734-12.024 11.398-11.131 4.663.667-5.034 2.131-9.37 3.302-13.469 2.426-8.491 3.722-14.757-.291-17.318-6.369-4.063-15.13 6.109-17.007 9.89.082-1.256 1.05-4.12 1.442-5.85.611-2.703-1.483-1.792-1.483-1.792-.88.32-1.916.762-5.295 2.143-1.506.615-2.776 3.156-3.098 4.912-.96 5.223-6.389 30.003-6.389 30.003-4.61 11.079-9.245 8.444-9.77 6.903-.561-1.647-.51-4.757-.117-6.481 1.635-7.182 5.372-27.325 5.372-27.325s1.858-4.91-1.065-3.928c-2.192.737-3.46 1.175-4.635 1.621-1.12.427-1.63 1.005-2.238 1.67-.513.56-.777 2.28-.947 3.543-.03.221-.342.137-.342.137-.94-2.85-4.644-3.891-7.446-3.272-8 1.768-16.983 14.92-18.557 33.791-5.459 12.191-11.447 13.313-14.458 9.616-2.342-2.876-2.972-9.098-2.807-12.86 22.123-22.595 24.905-55.253 22.64-63.825-.693-2.625-4.852-18.115-19.247 7.764-6.112 10.987-11.423 31.023-12.615 46.257-1.456 18.6 2.203 24.24 2.203 24.24-4.063 6.49-11.524 6.005-13.707.122-2.226-5.999-.85-16.015.91-20.258 4.124-9.947-3.748-11.046-5.17-6.398-2.001 6.539-5.835 5.649-7.446 4.194 1.04-6.132-1.577-15.284-6.874-14.192-2.449.505-2.455 4.082-1.577 7.4 1.175 4.435 3.957 9.048 4.194 9.03-.51 4.33-1.879 14.937-6.874 23.864-2.222-9.97-7.71-14.086-14.404-15.164-4.148-.668-7.46.425-9.704 1.88-2.526 1.639-3.773 5.324-3.942 7.521-.364 4.731 1.395 8.31 3.942 11.767 2.08 2.824 5.061 5.344 10.414 6.6-8.232 3.143-19.07 2.164-25.638-7.207-11.455-16.345-3.073-32.388 10.224-33.817 2.539 1.116 6.433 2.098 8.867 1.55 2.221-.5 3.742-2.598.396-4.757-4.608-2.972-5.797-.396-9.91-2.626-4.306-2.335-7.63-8.43-6.985-13.377.523-4.012 3.353-7.318 7.035-7.829 7.338-1.016 10.441 2.292 11.552 3.558 3.074 3.503 1.084 5.546 2.168 8.286.808 2.045 3.25 1.721 3.25 1.721 3.33-.588 5.163-7.306 2.359-13.513-3.888-8.605-9.561-10.644-15.49-11.728-7.422-1.357-13.198 2.939-16.02 8.433-3.65 7.11-2.449 18.378 7.377 26.172 0 0-19.516 2.321-22.256 19.343-2.582 16.037 9.707 33.88 28.472 36.901 14.314 2.305 22.49-3.36 27.657-11.402 8.573-13.344 10.675-33.602 10.675-33.602s3.305 1.95 6.808 1.043c-2.641 11.353-4.281 20.06-1.35 25.568 3.957 7.432 15.346 7.537 23.66-4.502 0 0 .492-.07.925.616 1.74 2.75 12.861 8.327 22.24-8.856 5.427 10.538 14.33 5.475 20.62-5.858 1.942 8.082 13.345 8.082 21.19-.166 2.378-2.502 4.756-6.984 5.984-11.97 2.587-10.512 3.209-17.354 6.47-21.43 1.94-2.426 3.881-5.337 6.792-4.69 1.528.34 1.675 3.21 1.052 6.065-2.912 13.344-6.147 19.247-4.53 25.07 1.823 6.559 9.058 4.286 13.344 1.051 4.287-3.235 8.168-9.543 8.168-9.543 3.073 13.587 15.366 3.559 17.792-.242 0 0-3.963 12.94-7.036 19.328-15.062-1.89-25.92-4.134-37.675-2.104-12.735 2.199-19.19 7.99-20.759 13.625-1.88 6.75.158 11.916 7.276 15.408 11.142 5.465 26.394 4.85 38.307-1.998 8.089-4.65 14.896-12.091 18.846-19.637 0 0 19.344 3.43 28.883-13.182.996-1.736-1.302-3.26-3.015-.887zm-126.74-59.34c1.537-2.366 7.213.709 1.537 21.874-5.667 21.136-14.945 32.25-14.945 32.25 1.618-30.731 10.497-50.566 13.408-54.125zm-76.884 82.11c-1.857-3.142-4.303-8.285-1.85-12.69 1.286-2.305 4.725-2.798 7.616-2.176 3.442.742 6.374 3.175 7.668 7.497 2 6.678-1.678 11.32-1.678 11.32s-2.9.788-5.607.25c-2.626-.522-5.235-2.653-6.149-4.2zm103.75-36.235c-2.427 15.77-6.066 16.659-7.117 17.79-2.374 2.557-7.25 1.308-7.198-5.417.062-7.929 4.367-23.372 10.756-23.695 6.389-.324 3.807 9.705 3.558 11.322zm44.96 46.243c-11.196 2.939-22.914 1.078-23.613-8.703-.356-4.993 1.95-9.325 8.061-11.485 5.921-2.092 15.669-1.847 36.31.856-5.065 10.415-15.052 17.834-20.759 19.332zm23.047-47.412c-4.642-1.273-.497-14.072 2.395-20.888 5.466-12.877 13.507-14.536 14.225-9.059.599 4.567-5.166 18.867-5.166 18.867s-4.95 12.863-11.454 11.08z" clip-rule="evenodd"/></svg>