<svg version="1.1" xmlns="http://www.w3.org/2000/svg" width="512px" height="512px"><path d="M424.7277222,238.0618896h-52.3676147v-25.697998h-23.2711182v-57.1100464c27.9407654-10.2701263,51.7779236,7.9856567,57.2382812,28.5015259h18.3961792C460.8667908,185.4254913,460.6575012,236.1463318,424.7277222,238.0618896z M161.831604,258.906189l-7.1113892,47.9997559h31.4577637c43.1625366-2.3695679,41.9445801-62.1154175,0-64.0010376h-20.7974854c-4.359375-13.8153076-13.6642456-23.8081055-25.744873-30.5410156v46.5422974H161.831604z M477.8092651,127.8914795C379.9924316-42.4698486,133.2375488-42.6707153,34.7164917,127.5307617s24.4139404,384.3093262,220.7518311,384.4691162C451.8062134,512.159729,575.6261597,298.2528076,477.8092651,127.8914795z M185.3051758,418.0600586l13.30896-89.8247681l109.5004272-35.5831299l12.0872803,81.571228L185.3051758,418.0600586z M302.5423584,212.3596191h-93.0889893v-67.2913818L256,115.9848633l46.5423584,29.083374V212.3596191z M380.6115723,464.4165649l-30.4439697-205.510376h22.1925049v-12.1170654h52.3676147c47.3716431-2.270752,48.487915-68.9682617,0-71.7609863h-12.328064c-11.3234253-24.835144-36.2303467-36.7653809-63.3106689-29.0444946v-26.7130127L256,61.0905762l-93.0932007,58.1800537v93.0932617h-7.1654663c-10.4970093-9.1533813-24.1295776-14.5482178-38.6524658-14.5482178c-79.3607178,3.5865479-77.546814,115.074646,0,117.8175049h36.3383179l1.2930298-8.7271729l-37.6313477-0.000061c-65.8723755-2.1085815-66.9887085-97.7363281,0-100.3630371c8.3128052,0,15.4960938,2.0960083,22.5467529,5.8209839h16.0905151c6.7329102,5.8683472,12.1898193,13.2658081,15.7352905,21.8137817h14.7165527c54.4265747,2.9259644,53.9700928,79.3397217,0,81.4555054h-32.7507935l-22.0820923,149.0471191C24.1221313,399.9933472-24.116394,255.2858276,46.0592041,134.0529175c93.4830322-161.4980469,327.619812-161.3074341,420.4346924,0.3422241C536.0010986,255.4512939,487.5635986,399.6766968,380.6115723,464.4165649z"/></svg>