<svg version="1.1" xmlns="http://www.w3.org/2000/svg" width="512px" height="512px"><path d="M174.7352142,329.7614746c3.1530457,1.8704529,6.3654022,3.7023315,9.6878357,5.4634399c11.1051636,34.5723267,29.7150116,46.9990234,44.8462524,51.0243835c11.4328766,19.136261,24.9120178,36.0153809,40.0536346,50.6127319c-20.7630005,28.2622986-48.5525055,37.8986816-54.9933319,39.8091736C183.6904602,455.1984863,170.411087,405.7525635,174.7352142,329.7614746z M386.8210144,356.9266968c45.141449-9.9079895,86.5580444-31.7187805,124.9345398-65.8200989c-26.0913086-20.0796814-55.8521118-33.2436218-91.6697998-40.0418091c-7.9385376,11.9942932-16.9827576,23.5179138-27.3753357,34.555542c31.6070251,13.4855652,39.9107666,38.5060425-13.8129272,55.8967285L386.8210144,356.9266968z M311.2194824,105.6420822c14.2950134,22.2882233,19.9381714,48.9795456,17.021698,80.66436c21.381958-10.6387939,42.0330811-17.5209503,61.7686157-20.7529755c9.9601746-66.3000183-9.0002747-117.0671234-9.0002747-117.0671234C352.1096802,63.1133499,328.6149902,81.9837189,311.2194824,105.6420822z M169.0706024,326.2178345c-32.1193695-20.4163208-54.8689499-46.9932861-68.714386-80.2412262c-38.8360672,13.4966583-69.8250885,35.3159943-78.907196,42.0995331c48.8498268,44.7769165,97.3015442,70.1138306,146.7689056,76.6786499C167.9602661,352.7029724,168.2125702,339.9013977,169.0706024,326.2178345z M455.5239868,337.7486267c-21.0942688,11.2352295-43.0315552,19.447876-65.9183655,24.6103821c7.8245239,15.29599,14.9339905,29.5498962,20.8126526,42.8381958C459.0919189,403.1530762,488.4785156,389.082489,512,361.3927002C507.0933533,354.3089905,482.3371582,349.9866333,455.5239868,337.7486267z M85.4540405,184.6178894c3.5589218-1.4230347,7.1875305-2.7122345,10.8768005-3.8842163c-21.665329-13.9719543-52.7840729-23.348175-95.7652283-13.7839813c-5.2922373,11.0258331,27.4996929,53.6875,58.808197,90.6420441c11.4603767-6.0098419,24.5896568-12.0368195,38.8003273-16.9924164C91.605835,223.4196472,87.5690231,204.6298676,85.4540405,184.6178894z M168.3740997,370.7088623c-29.9308624-3.8198853-59.4571762-14.3650513-88.8769989-31.6808777c-31.2902756,23.700531-74.4075928,61.8311768-76.4803162,93.4427185c38.0337791,23.4739685,112.4817505,8.8390808,172.3456116-9.2979736C171.4713898,408.0164795,169.1188507,390.5480652,168.3740997,370.7088623z M278.9541626,72.0770798c11.4378662,7.2508011,22.1697083,19.3418274,28.771698,28.45681c5.2825928-7.0415497,11.1598206-13.6453171,17.4927368-19.899231c-12.2759094-28.2883987-23.4711304-51.780941-25.6353149-55.8406219c-4.7840881-8.9720383-14.438324-7.1791325-21.7436218,1.0138474c-20.7390137,29.5745621-37.5023651,58.8017654-50.2574768,92.578949c2.387207,3.3506699,4.5188904,6.8303452,6.3053741,10.4790573C241.2383118,105.4019318,257.1885071,85.3986206,278.9541626,72.0770798z M144.7050171,180.7929993c-14.9815216-34.949707-7.823822-71.1966629,2.4476013-101.604599c-11.5368652-8.5928726-23.1351852-14.7763824-33.570282-15.9960709c-24.7497559,12.2097778-10.6244965,69.8125687,4.3541565,113.3687363C126.7042007,175.8300629,136.47229,177.3538361,144.7050171,180.7929993z M423.5572205,245.7707672c6.9765015,1.3872833,13.6617432,3.0955048,20.2083435,4.9680939c32.1368713-35.9764099,52.4102478-71.6465759,64.4842224-109.6735687c-27.7262573-0.2991028-65.7078552,1.013504-111.7105408,19.8327637l-0.4524231,3.7391205c21.0895996-2.3477173,40.5549927-0.9071655,58.4011536,4.309845C448.2451477,197.414093,437.9754944,223.0506592,423.5572205,245.7707672z M293.8643494,356.2183838c-43.2063141,42.9007568-87.1387787,31.6362-104.5743256-25.0542297c-61.3944473-31.753418-90.3471909-81.2601013-97.4941635-142.7002869c33.0320816-12.4299164,55.7305527-5.1257172,72.4395828,13.6163635c-28.145462-35.506485-27.5990448-78.5548248-8.714386-129.0839233c40.1304474,19.8620605,74.6831207,42.3353958,78.9754486,78.975441c6.2095947-39.5175552,23.8638458-58.9439926,45.2068329-71.8949432c38.8993225,30.3886414,48.2055054,70.7338715,41.3937378,116.5567932c45.1289368-24.1429443,87.5297241-33.4719849,126.3607788-23.4203491c-9.2207642,38.8600159-27.6715698,77.1732483-64.8140869,114.3782959C444.1525879,312.9459839,405.6324158,335.5783386,293.8643494,356.2183838z M345.5076904,244.4031219c-4.9602356-4.0578918-31.702301,1.2911682-40.7501221,13.232193c8.1697693-10.8932343,10.8928833-45.2064667,10.8928833-45.2064667l-13.6163635,5.4466095l7.0805054-30.5008545c-9.6392517,5.6764069-18.440094,15.9145966-26.1745911,31.9528351c3.5593872-16.3130493,4.3945312-29.1818085,1.1203613-36.8548279c-6.7435303,14.5887756-11.2216797,27.559021-20.0825806,39.488266c0,0-1.0531616-16.8551788,4.287323-30.77388c-5.3404846,2.5944824-12.5270996,18.5183563-15.7948608,23.4203491c-3.2681122,4.9019928,4.9019775-21.2414856,4.9019775-29.9562225c-10.5126343-0.0875549-25.0542145,19.6076202-34.3135834,33.2243347c-9.2593536,13.6163788-1.6338806-24.5095978-1.6338806-24.5095978s-10.3486023-0.544632-15.2506104,7.6251221c-4.9019928,8.169754-6.5358582,49.5638428-6.5358582,49.5638428s-0.0007172,0.3041229,0.0028534,0.76297c-8.2108459-22.2095947-3.6190491-29.6338806-3.6190491-29.6338806s-6.6759644-0.5367584-12.451355,15.1902161c-5.7757568,15.7269745-6.1792145,24.8123016,19.0787201,60.8744965c18.2749939,26.0923767,50.3882751,23.7319641,66.7953339,20.4356079c2.9843445-0.4424133,10.2138672-1.3847656,12.4842224-4.3405457c4.0582581-4.0582581,9.4691467-15.3310242,16.6836548-15.3310242s26.6037598-7.2145081,30.2110291-18.4872742c3.6072388-11.2727661-6.3128967-9.4691467-1.8036194-13.5273743C331.5293274,262.4397583,341.6098938,247.4711151,345.5076904,244.4031219z M237.0052185,387.672699c39.3739014,62.9218445,101.2651062,100.685791,175.5454712,105.5059509c23.0914001-33.5917969-6.1520691-85.4548645-39.2641907-149.7693481c-17.6878662,5.7536011-42.2646484,11.8452759-76.4888916,18.2199707C279.8087158,379.2442932,257.8656616,389.8059998,237.0052185,387.672699z"/></svg>