<svg xmlns="http://www.w3.org/2000/svg" width="405" height="512"><path d="M362.097 165.33 206.84 249.841l.236-170.316 155.022 85.805zM207.09 443.141l155.205-93.67-155.205-80.577v174.247zm164.69-102.757-.008-165.648-155.653 84.89 155.66 80.758zM194.022 73.038 37.019 160.092l156.777 88.176.227-175.23zM32.618 172.58v174.174l153.514-87.833L32.618 172.58zm161.428 96.063-149.967 86.52 149.967 87.243V268.644zM176.2 512v-45.865L3.46 366.74 0 147.036 223.305 0v50.266l179.309 101.052 1.738 204.979L176.2 512zm17.845-54.183v22.964l190.78-129.835.83-187.216L207.09 59.585V34.057L17.942 159.336l1.612 196.652 174.491 101.829z"/></svg>