<svg xmlns="http://www.w3.org/2000/svg" width="512" height="512"><path d="M512 137s-3.18-13.162-20.664-31.726c-18.375-19.508-35.924-13.5-36.348-15.525-.424-2.025 2.331-6.075 2.331-6.075s-7.841 2.025-25.22 18.563c-11.073 10.536-20.62 21.975-25.38 27.929a5.992 5.992 0 0 0-.478-.342c1.628-7.072 7.714-23.863 38.145-66.4-36.556 40.77-42.14 59.248-42.743 65.69-2.578.716-4.485 3.216-4.485 6.199 0 2.793 1.672 5.162 4.001 6.042.814 7.94 1.733 24.415 1.488 46.947-.268 24.6-6.678 45.172-9.33 52.659-.35-.193-.655-.3-.875-.279-1.11.11-5.836 8.038-7.328 11.578-1.492 3.539.05 6.1.05 6.1l-.054.139c-.324.402-.522.9-.619 1.514-1.241 2.952-4.197 9.562-8.784 17.337-.323-.24-.567-.369-.567-.369s-1.392-.253-2.404.507c-1.013.76-3.23 4.146-10.632 7.847-2.522 1.26-4.814 1.998-6.841 2.438 2.368-11.936 4.266-25.812 5.196-41.927 3.383-58.649-35.945-88.09-67.08-89.102-.89-.029-1.775-.04-2.656-.038 0-.164.009-.323.04-.468.45-2.085.506-2.7-1.856-.675-.48.41-.913.818-1.298 1.215a71.99 71.99 0 0 0-3.018.2c-.07-.62-.124-1.429-.072-2.428.085-1.603.507-2.7-1.856-.674-1.616 1.384-2.724 2.737-3.11 3.727-.564.09-1.124.186-1.681.29-.332-.886-1.134-2.24-1.031-3.427.218-2.508.928-2.953-.787-1.365-2.082 1.929-4.3 4.816-4.69 6.365-.69.205-1.37.424-2.045.652-.4-.394-1.575-1.51-1.844-3.796-.277-2.36-.253-3.544-1.687-1.097-1.53 2.61-2.426 5.453-2.8 7.446a53.63 53.63 0 0 0-1.978.99c-.57-.692-1.139-1.786-1.202-3.696-.102-3.077.863-5.57-1.44-1.44-1.218 2.185-2.405 5.498-3.111 8.651a48.6 48.6 0 0 0-2.241 1.678 53.463 53.463 0 0 1-.175-3.63c-.046-3.014.455-6.286-1.436-.53-.556 1.692-1.116 4.1-1.495 6.868-8.616 8.2-13.852 19.565-13.739 33.53.068 8.345 1.046 14.943 2.591 20.098-2.033 2.77-2.201 14.687-.228 17.45 1.591 2.228 10.714 7.538 12.572 8.522 4.303 2.278 4.81 13.163 2.531 18.225s2.279 6.076 6.076 6.835 8.86-.506 9.872-2.531c1.012-2.025-3.291-6.582-5.063-15.948-1.772-9.365 2.784-10.125 2.784-10.125s2.026.506 5.063 5.316c2.36 3.736 4.842 6.685 7.156 8.801-.728.976-2.01 2.259-4.287 3.687 2.543.115 5.125-1.095 6.5-1.87a15.7 15.7 0 0 0 1.505.961 22.19 22.19 0 0 1-1.086 1.078c.85-.069 1.628-.242 2.335-.472.652.264 1.26.43 1.8.472 3.29.253 12.15-7.848 12.15-9.366 0-1.52-4.557-3.797-7.594-7.594-3.038-3.797-3.038-8.86-3.038-8.86s6.328-5.569-9.619-23.541a64.98 64.98 0 0 0-19.719-15.07c-1.298-14.86 8.218-28.277 32.123-27.034 35.691 1.856 51.368 39.707 46.829 76.024a76.954 76.954 0 0 1-.385 2.674l-.017.015c-1.872 1.756-1.425 1.859-.312 1.892a82.35 82.35 0 0 1-1.293 5.774c-.213.117-.428.238-.646.369-2.644 1.576-1.523 1.545-.002 1.96a91.24 91.24 0 0 1-1.441 4.506c-.605.168-1.254.385-1.938.658-2.892 1.151-1.724 1.287-.265 1.957.386.178.73.356 1.043.53-.657 1.69-1.35 3.344-2.076 4.957-.59.09-1.227.22-1.899.394-3.012.78-1.871 1.061-.508 1.909.378.235.711.465 1.009.685a118.77 118.77 0 0 1-2.286 4.463c-.947.025-2.112.202-3.404.537-3.013.78-1.872 1.061-.508 1.909.762.473 1.349.93 1.8 1.316a140.752 140.752 0 0 1-2.583 4.253c-1.054-.131-2.607.03-4.404.496-3.013.78-1.872 1.06-.509 1.908a14.495 14.495 0 0 1 2.231 1.7 183.05 183.05 0 0 1-2.687 3.865c-.99-.378-2.765-.44-4.91-.128-3.08.448-1.977.852-.714 1.842 1.43 1.122 2.164 2.099 2.531 2.514-.463.62-.91 1.216-1.34 1.784-.937-1.24-3.17-2.633-5.243-4.113-1.772-1.266-5.189-2.785-6.201-2.785-1.013 0-4.22 5.738-21.685 4.22-17.466-1.52-18.563-3.207-20.082-3.207-1.452 0-4.593 1.154-4.867 1.255a74.355 74.355 0 0 1-4.415-2.605c-20.588-13.163-32.4-25.988-32.4-25.988s2.362-2.7-1.013-6.075c-2.447-2.448-8.427-7.022-12.313-9.353-3.192-4.391-8.545-12.855-15.025-27.436-10.126-22.783-10.948-38.54-10.442-45.422a8.752 8.752 0 0 0 3.354-6.892c0-4.45-3.316-8.118-7.61-8.689-4.462-9.283-21.54-32.311-86.217-81.087 62.998 53.963 75.295 75.067 78.557 83.89a8.796 8.796 0 0 0-.36.418c-8.025-6.225-22.32-16.802-38.708-26.594-27.676-16.538-40.164-18.563-40.164-18.563s4.388 4.05 3.713 6.075c-.675 2.025-28.621-3.983-57.883 15.525C5.063 166.026 0 179.189 0 179.189s11.727-16.375 33.68-27.836c-.288 7.536-.906 42.33 9.521 87.912 10.976 47.98 31.563 93.329 34.426 99.516.09 3.802.337 5.786.337 5.786s3.155-38.163 16.123-77.799c3.726 6.032 16.174 23.837 44.291 44.724 33.741 25.064 49.725 32.378 51.18 33.022.033 3.373.122 5.116.122 5.116s.109-2.107.373-5.607c1.423-2.05 6.71-9.492 11.777-14.306 5.841-5.55 10.416-8.57 11.543-9.282.665 2.342 1.33 4.359 1.957 5.907a250.57 250.57 0 0 1-1.1-6.033c2.328.21 11.543 1.443 25.738 8.396 7.331 3.59 13 8.44 17.045 12.728-.113.033-.225.062-.338.097 0 0 2.644 2.372 5.743 8.577-6.67-.238-12.01.814-15.578 1.792a61.688 61.688 0 0 0-2.084-4.024 10.235 10.235 0 0 0-.823-2.887c-.586-1.295-2.041-2.107-3.497-2.978-.72-.675-1.462-1.205-2.218-1.554-.495-.45-.915-.958-1.191-1.567-1.777-3.927-17.026.253-20.085 3.832-3.729 4.363-4.46 9.91-2.999 12.976.466.978 1.52 1.757 2.951 2.354.039 4.729 2.93 16.019 8.624 24.186-3.02-14.118-2.534-17.835-2.036-21.982.973 7.093 3.64 14.772 12.358 24.288-5.556-12.08-4.64-19.107-4.08-25.33l.236-.028c.782 5.62 3.039 11.397 10.298 20.562-4.815-9.088-4.398-16.454-3.581-22.123l.17-.064c.995.643 1.948 1.49 2.857 2.701 2.742 3.656 4.028 7.437 4.533 10.023-.564 3.022-.029 5.982 1.425 8.194-14.201 10.388-27.757 18.896-40.343 25.619-22.249-12.884-38.212-21.465-56.72-24.797-19.854-3.574-38.118 6.021-42.305 23.075-3.307 13.473 3.301 35.345 38.47 37.028 20.796.995 45.999-8.699 70.89-20.957a586.45 586.45 0 0 1 6.536 3.54c54.33 29.94 87.409 33.827 131.268 15.528-20.887 6.316-58.318 16.912-108.647-10.816a1221.66 1221.66 0 0 1-21.454-12.126c14.459-7.412 28.643-15.409 41.62-22.382a.764.764 0 0 0 .167-.034s1.772-.38 3.417-.886c3.645-1.122 8.75-3.168 14.827-6.038.597 2.497 2.023 4.579 4.158 5.405 5.231 2.025 8.998.448 11.454-2.552 1.635-.887 4.024-2.618 5.506-3.017a30.414 30.414 0 0 0 3.249-1.091c-3.16 6.364-1.984 12.482-1.984 12.482.911-7.924 4.685-12.971 8.36-15.261 1.378-.575 2.785-1.078 4.277-1.43 1.354-.015 2.458.484 3.058 1.503 1.507 2.564 4.644 4.131 7.78 4.821.498 3.202-.963 8.605-8.54 18.467 9.26-6.172 13.335-11.553 14.722-15.824.326 4.253-.764 10.83-6.622 22.406 5.054-4.827 8.62-9.373 10.962-13.464.135 4.073-.206 9.469-1.343 16.754 7.624-14.876 6.904-23.783 4.889-28.836a10.606 10.606 0 0 0-.226-1.584c.291-.37.588-.775.906-1.22 2.531-3.545-1.012-7.342-3.29-8.86-1.268-.846-4.273-3.278-9.673-3.353-4.801-5.739-10.867-3.205-20.45 3.1-1.232.81-2.41 1.46-3.524 1.98a15.402 15.402 0 0 0-1.18-2.499 306.795 306.795 0 0 0 10.526-6.57c6.786-4.43 11.834-8.896 15.586-13.164 10.838-10.997 14.693-21.725 25.759-30.795-.088.005-.18.017-.269.025.428-.238.855-.472 1.28-.7 17.674-9.468 27.377-11.558 28.563-11.79-.017.897-.038 1.803-.066 2.73.129-.775.258-1.67.386-2.665 1 .469 5.766 2.834 10.27 7.337 4.702 4.703 7.365 9.695 7.72 10.38.605 3.994.932 6.44.932 6.44s.03-2.417-.203-7.033c3.736-3.735 22.005-22.807 36.776-52.65 14.783-29.868 20.129-53.76 21.708-62.364 9.696 27.778 14.169 52.6 14.169 52.6s-.031-2.789-.652-8c2.128-7.38 11.005-40.102 13.376-80.114 2.118-35.759-1.375-59.25-2.976-67.705 13.82 11.463 21.202 27.88 21.202 27.88zM136.185 422.533c-24.337-6.93-13.543-44.931 27.372-29.087 10.012 3.877 21.657 8.801 34.884 15.197-27.39 13.286-49.406 17.548-62.256 13.89zm118.61-121.755a81.41 81.41 0 0 1-.743-.398c.18.085.442.217.743.398zm.385 59.463c-1.183.27-2.341.782-3.417 1.5-.833-1.063-1.773-2.589-2.682-4.77l-.352-.839c1.864.929 4.04 2.242 6.45 4.11z"/></svg>