<svg xmlns="http://www.w3.org/2000/svg" width="411" height="512"><path fill-rule="evenodd" d="M45.527 430.023s8.255-27.747 32.806-30.862c24.552-3.116 31.591 26.245 31.591 26.245-23.331 42.04-46.385 39.435-64.397 4.617zm36.05-91.346c14.236 8.891 31.072.139 50.055-6.162-.76 20.863-8.868 74.118-16.408 80.567-7.83-32.02-57.229-38.038-73.61 7.043-6-20.003-6.992-42.158-5.905-65.386 16.912.489 32.289-4.552 45.868-16.062zm-4.843-11.43c-.38-4.223 5.782-2.48 6.316.633 1.737 6.65 24.47 1.176 45.127-6.766 13.917-5.351 23.69-14.147 23.885-20.645 1.139-3.952 7.693-3.021 7.225 6.393-.104 7.389-7.25 14.604-17.909 21.051-3.7 84.872-35.927 141.308-68.598 140.27-36.753-2.6-45.674-61.868-44.688-113.875-7.815-1.15-11.195-7.085-8.698-14.482.675-2.436 3.441-4.299 4.039-2.09 2.664 8.34 11.778 9.59 27.269 5.717 13.548-3.387 24.695-10.75 26.032-16.207zm1.987-22.851c-1.544-.077-9.641-17.365 1.145-20.035 15.103-4.656 4.925 18.628-1.145 20.035zm12.149-12.427c4.031-1.568 27.934-11.693 59.984-13.859 6.44-.435 10.145-.066 13.338.246 6.776.662 8.425 6.265 5.285 7.983-3.758.056-2.729-4.812-17.975-3.543-19.55 1.627-43.806 7.556-59.766 13.504-2.907-.538-2.049-3.87-.866-4.33zm3.141-8.303c24.397-19.743 62.64-37.359 92.631-42.79 3.212 1.316 3.305 4.983.328 7.05-31.177 9.24-52.716 14.828-88.204 38.691-4.163.864-5.642-.195-4.755-2.95zm-3.235-4.958c11.518-18.629 27.309-31.88 47.073-44.612 20.821-13.411 46.504-26.043 65.14-33.378 3.341-.147 3.561 1.54.83 5.808 0 0-39.544 15.81-63.276 31.606-23.732 15.798-35.857 29.13-41.678 37.88-5.821 8.75-8.09 2.696-8.09 2.696zM67.96 299.035c-21.13 7.481-39.91 14.274-53.41 28.832-1.755 2.946-.707 5.808 1.451 3.422 13.194-13.423 33.57-20.902 54.655-27.794 1.953-.59 2.263-5.696-2.696-4.46zm-1.651-5.46c-26.132-.76-44.928 3.937-59.906 14.857-.927 3.73 1.35 3.308 3.566 2.972 16.855-11.221 34.262-13.538 56.34-13.907 3.466-1.347 1.732-3.407 0-3.922zM0 292.896l.339-6.318c41.655-18.421 57.61-10.6 72.717-1.249-.97 1.167-2.212 2.834-2.553 4.63C45.88 273.482 20.57 284.209 0 292.896zm128.429-114.428c-2.723-3.206.491-10.126 3.214-13.332 2.723-3.205 4.57.55 4.57 6.96 0 6.412-5.062 9.577-7.784 6.372zm-11.75-.665c0-17.972 22.88-24.678 22.88-13.796l-1.658 50.82c-.505 10.82-22.113 24.134-22.113 9.202zm-65.06 25.823c-4.476.433-9.98 4.792-10.739 11.947-1.1 10.381-3.227 45.19-3.227 45.19.255 9.976 16.997 1.491 17.061-10.836l2.345-37.62c-4.448 9.895-8.134 12.423-8.255 3.423-.089-6.572 4.68-8.355 8.714-6.767-.113-3.988-2.744-5.642-5.899-5.337zM320.786 0c-27.918 16.273-57.57 41.192-90.931 99.188L207.19 84.486V512l203.479-19.87-18.089-280.003-62.286-44c11.433-42.652 16.237-121.4-9.508-168.127zm-5.94 21.292c18.446 54.349 8.187 120.153-1.632 154.834l-20.09-11.736c9.918-36.063 7.779-77.564-.694-82.756-15.111 6.232-26.874 21.271-35.351 36.307l-18.429-12.518c20.188-33.576 46.84-70.452 76.196-84.131zm-25.337 71.532c5.068 10.505 4.92 37.548.905 49.174l-27.452-18.405c6.857-15.041 16.783-25.477 26.547-30.769zM92.515 154.502c.13-11.563-.053-23.954 5.722-35.485 12.693.905 17.215 7.046 26.915 15.345l-6.483 4.492c-5.13-3.736-8.103-8.292-16.27-10.408-1.833 7.061-3.59 14.138-2.072 21.87zm-28.412 17.927c-5.013-60.658-1.872-99.11 8.754-116.684 42.664 5.042 64.21 30.876 84.569 58.125l-11.65 8.234c-10.803-14.538-36.919-48.88-64.436-49.743-10.652 38.377-7.628 64.554-6.269 92.661z"/></svg>