<svg version="1.1" xmlns="http://www.w3.org/2000/svg" width="329px" height="512px"><path d="M157.640625,197.4334717c0-19.8963928-7.0402832-37.9562073-18.6720276-51.7306366l-21.4268875,21.4268799c6.7341614,8.2646484,10.7134476,18.9781036,10.7134476,30.3037567c0,13.1622314-5.2036667,24.7939606-13.4683304,33.6708221l18.0598221,24.7939606C148.1516113,241.2055206,157.640625,220.3908539,157.640625,197.4334717 M151.2125854,94.2783051c0-5.5097656,1.5304871-10.7134399,4.2853699-15.3049164l-13.7744446-12.8561401c-5.5097656,7.9585571-8.5707703,17.7537079-8.5707703,28.1610565c0,11.0195389,3.6731873,21.1207962,9.795166,29.3854523l13.1622314-13.1622238C152.7430725,105.9100418,151.2125854,100.4002762,151.2125854,94.2783051 M78.9733505,246.7153015c-27.2427673,0-49.2818451-22.0390778-49.2818451-49.2818298s22.0390778-49.2818451,49.2818451-49.2818451c11.0195312,0,21.1207886,3.6731873,29.0793457,9.4890442l21.7330093-21.7329712c-13.774437-11.9378433-31.5281448-18.9781036-50.8123398-18.9781036C35.5074081,116.9295959,0,153.0491943,0,197.1273804c0,44.3842621,35.2013092,80.1977539,78.9733963,80.1977539c14.0805206,0,27.2427521-3.6731567,38.5683899-10.1012573l-18.3659058-25.1000519C93.0538712,245.1848145,86.0136185,246.7153015,78.9733505,246.7153015 M299.6703186,299.3642273c-38.5684204-47.1391602-103.767334-59.3831024-156.4163208-28.1610413l22.3452148,32.4464111c32.4464417-19.2842102,73.7697144-12.8561096,99.7880554,17.4476013c14.6927185,17.14151,23.5695496,40.4049683,23.2634888,63.9745789c-0.9183044,25.7122498-10.1012573,48.9757385-30.3037109,67.3416443c-33.6708374,30.3037109-82.9526978,27.2427368-113.2564392-6.4281006c-33.6708145-37.3439941-30.6098251-96.7270813,5.2036743-131.0101013l-22.651268-33.0586548c-31.5281372,25.1000671-45.6086578,59.0769958-47.1391449,93.9721985c0,40.7110901,11.0195312,70.0965271,32.1403198,94.5843811c44.6903763,52.0367432,127.0308304,55.7098999,176.3126831,7.9585876C337.9326172,431.2926331,342.5240784,351.7070618,299.6703186,299.3642273 M181.2102051,44.9964676c-11.6317444,0-22.3452148,4.2853775-30.9159851,11.3256416l13.7744446,13.1622353c4.8976135-3.3670883,10.7134399-5.5097694,17.1415405-5.5097694c16.8354187,0,30.3037109,13.4683342,30.3037109,30.3037453s-13.4682922,30.3037415-30.3037109,30.3037415c-5.8158569,0-11.3256226-1.836586-15.9171143-4.5914764l-13.4683228,13.468338c8.2646484,6.4280548,18.3659058,10.4073486,29.3854675,10.4073486c26.6305542,0,48.3635559-22.0390854,48.3635559-49.2818375C229.573761,67.0355453,208.1468811,44.9964676,181.2102051,44.9964676 M113.5624771,48.3635521c-10.1012573,0-18.3659058-8.2646599-18.3659058-18.3659077s8.2646484-18.3659019,18.3659058-18.3659019s18.3658981,8.2646551,18.3658981,18.3659019c0,2.7548885-0.6121826,5.2036762-1.5304871,7.346365l8.5707703,7.9585571c2.7548523-4.5914764,4.2853394-9.7951508,4.2853394-15.3049221c0-16.5293102-13.1622314-29.9976425-29.6915207-29.9976425c-16.2232208,0-29.6915436,13.4683313-29.6915436,29.9976425s13.1622467,29.9976444,29.6915436,29.9976444c6.1219635,0,11.6317444-1.8365936,16.2232285-4.8975754l-8.8768692-8.2646599C118.7661362,47.7513504,116.3173447,48.3635521,113.5624771,48.3635521"/></svg>