<svg version="1.1" xmlns="http://www.w3.org/2000/svg" width="377px" height="512px"><style type="text/css">.st0{stroke:#FFFFFF;stroke-width:0.25;}</style><path class="st0" d="M0.0521198,222.2590179c-0.524025,6.78302,3.0424118,47.2108917,4.4684601,70.8294525c1.7229767,28.9301453,0.0623169,57.7251587,4.8937612,86.8016968c4.6595306,36.505188,20.6568756,73.2393494,50.7379074,94.4217529c32.5997963,22.9879761,74.2686615,32.372345,113.9251251,36.6741333c33.1640015,3.6111145,78.0880737-2.6689148,110.4386444-14.9286499c40.6369629-15.3678589,59.3644104-51.9518738,66.7104797-71.6853333c9.8460999-28.6373596,7.9992676-64.6958618-7.8077698-90.5178833c-16.1861877-26.4076233-48.9319763-41.0810242-78.8264771-49.1665955c-37.5115814-10.1351013-79.0558167-6.7567444-116.5677643,3.4872437c-26.6170807,7.8903809-46.2874603,20.5142212-70.7198639,41.7979736c-9.5529022,8.3295593-8.1051025,18.6185913-2.5623016,24.7672424c6.4444275,7.1433716,15.0480194,8.5697937,28.8862152,0c10.8284302-6.7154541,21.7450714-22.627594,37.6804962-24.7897644c5.6009674-0.5705566,7.030777,3.3183289,4.6775513,7.8078003c-1.4260559,0.5067444-12.5518036,30.210144-1.5728302,56.1748352c8.6880646,18.8287964,28.0652771,34.9924316,48.3846893,39.0239563c23.427887,4.6434021,52.5228271-2.7252197,68.6891022-20.2739868c14.7364502-16.0472717,21.7270813-43.9413757,13.2664795-64.0089111c-2.646759-6.2349548-10.4327698-11.6441345-17.1741333-10.9158936c-3.2957916,0.3565979-6.3603668,3.7800293-7.0311737,7.0119934c-0.5679321,2.7514954,4.3036804,5.26651,3.1268921,7.8078003c-1.82547,9.0878296-14.3990173,14.0240173-23.4057617,7.8078003c-6.7818909-4.0728149-7.9328003-16.6028442-3.9042664-23.4008484c5.6051025-9.489502,20.235321-11.8618774,31.2143097-10.938446c18.6842957,1.5953369,40.0115662,10.9571838,49.1650696,27.3085327c11.6925659,20.9083557,9.380249,51.3700256-3.1306152,71.7941895c-14.3588257,23.4458923-44.9203491,34.804718-71.7904205,40.5780029c-34.5716553,4.9511719-72.6335449,2.8941345-102.2307281-9.3656006c-35.6459656-11.3776245-63.4983826-40.1763611-71.0133972-73.3444824c-6.1951828-27.372345-3.4861069-59.3880615-4.8937607-90.7055664c-0.8393402-18.6411133-1.7852783-42.6575928-14.0619125-58.5246887c-7.3280716-9.5119934-19.7770004-17.6951752-31.7638397-16.9857025C2.9481387,216.2154846-0.4095882,218.5878448,0.0521198,222.2590179z M61.3695869,35.8103867c-12.6358643,2.8566017-18.5964355,17.2972679-18.5341263,28.4609146c12.7420959,67.2596588,33.1016731,145.6867065,50.6095314,197.9576416c5.6268616,6.7192078,15.5536499,13.3708801,23.9519196,10.8520813c7.8487091-2.349823,11.5878143-12.7364502,13.1200867-20.8032532c-10.4147644-79.5344238-27.5814056-171.1671448-37.9740295-200.1986389C88.6172943,41.0994148,72.7077789,32.8261566,61.3695869,35.8103867z M165.7631989,0.1047294c-12.932785,1.1711694-21.0964355,16.876852-22.610321,28.6711273c3.1306305,72.9503403,12.2619934,158.8060608,22.254837,216.5987854c3.2515106,9.9924622,12.4857178,17.9691772,22.2071838,14.9699402c9.7180634-0.2740173,15.2826385-10.4354095,15.9312897-20.052536c0.9237976-85.5854492-3.1670532-184.9396515-9.35849-217.1392975C191.8341217,10.975584,177.8750458-1.2616348,165.7631989,0.1047294z M277.5216675,30.5851612c-11.6902771-1.2387371-21.7233124,11.2725048-25.14711,21.4939594c-10.0957031,65.4090576-17.1707764,143.3556366-18.4939575,196.5049591c1.1328735,9.4669495,7.9365234,18.1794128,17.1118164,17.2372131c8.6876984,1.4677124,15.4256744-6.5953369,17.7128448-15.0337677c15.9353943-75.904541,29.8542786-164.973465,30.0190735-194.6956482C298.7904053,44.8569107,288.5445557,31.5085831,277.5216675,30.5851612z M361.7632751,94.3350677c-9.6996765-2.225975-19.455658,6.9481888-23.4684143,14.9699478c-15.4954834,52.4548721-29.786377,115.5178452-36.608429,158.8435974c-0.0623169,7.8753662,4.7432251,15.7056885,12.5513916,15.8896179c7.1388855,2.1208496,13.6666565-3.7762756,16.4782104-10.4316711c21.5577698-60.4541168,42.8039856-131.8729248,46.1222839-156.1784363C378.0958557,108.2314453,370.914917,96.2682495,361.7632751,94.3350677z"/></svg>