<svg xmlns="http://www.w3.org/2000/svg" width="377" height="512"><path stroke="#fff" stroke-width=".25" d="M.052 222.259c-.524 6.783 3.043 47.21 4.469 70.83 1.723 28.93.062 57.725 4.893 86.801 4.66 36.505 20.657 73.24 50.738 94.422 32.6 22.988 74.269 32.372 113.925 36.674 33.164 3.611 78.088-2.669 110.439-14.929 40.637-15.367 59.364-51.951 66.71-71.685 9.847-28.637 8-64.696-7.807-90.518-16.186-26.407-48.932-41.08-78.827-49.166-37.511-10.136-79.056-6.757-116.568 3.487-26.617 7.89-46.287 20.514-70.72 41.798-9.552 8.33-8.104 18.618-2.562 24.767 6.445 7.143 15.048 8.57 28.887 0 10.828-6.715 21.745-22.628 37.68-24.79 5.601-.57 7.03 3.319 4.678 7.808-1.426.507-12.552 30.21-1.573 56.175 8.688 18.829 28.065 34.992 48.384 39.024 23.428 4.643 52.523-2.725 68.69-20.274 14.736-16.047 21.727-43.941 13.266-64.009-2.647-6.235-10.433-11.644-17.174-10.916-3.296.357-6.36 3.78-7.031 7.012-.568 2.752 4.303 5.267 3.127 7.808-1.826 9.088-14.4 14.024-23.406 7.808-6.782-4.073-7.933-16.603-3.904-23.401 5.605-9.49 20.235-11.862 31.214-10.939 18.684 1.596 40.011 10.958 49.165 27.309 11.693 20.908 9.38 51.37-3.13 71.794-14.36 23.446-44.921 34.805-71.791 40.578-34.572 4.951-72.634 2.894-102.23-9.365-35.647-11.378-63.5-40.177-71.014-73.345-6.195-27.372-3.486-59.388-4.894-90.706-.84-18.64-1.785-42.657-14.062-58.524-7.328-9.512-19.777-17.695-31.764-16.986-4.912-.586-8.27 1.787-7.808 5.458zM61.37 35.81c-12.636 2.857-18.597 17.298-18.535 28.461 12.743 67.26 33.102 145.687 50.61 197.958 5.627 6.72 15.554 13.37 23.952 10.852 7.849-2.35 11.588-12.736 13.12-20.803-10.415-79.535-27.581-171.167-37.974-200.199C88.617 41.1 72.708 32.826 61.37 35.81zM165.763.105c-12.933 1.17-21.096 16.877-22.61 28.67 3.13 72.951 12.262 158.807 22.255 216.6 3.251 9.992 12.485 17.969 22.207 14.97 9.718-.274 15.283-10.436 15.931-20.053.924-85.585-3.167-184.94-9.358-217.14-2.354-12.176-16.313-24.414-28.425-23.047zm111.759 30.48c-11.69-1.239-21.724 11.273-25.147 21.494-10.096 65.41-17.171 143.356-18.494 196.505 1.132 9.467 7.936 18.18 17.111 17.237 8.688 1.468 15.426-6.595 17.713-15.033 15.936-75.905 29.855-164.974 30.02-194.696.065-11.235-10.18-24.583-21.203-25.507zm84.241 63.75c-9.7-2.226-19.455 6.948-23.468 14.97-15.496 52.455-29.787 115.518-36.609 158.844-.062 7.875 4.744 15.705 12.552 15.89 7.139 2.12 13.666-3.777 16.478-10.432 21.558-60.455 42.804-131.873 46.122-156.179 1.258-9.197-5.923-21.16-15.075-23.093z"/></svg>