<svg version="1.1" xmlns="http://www.w3.org/2000/svg" width="512px" height="512px"><style type="text/css">.st0{fill-rule:evenodd;clip-rule:evenodd;}</style><path class="st0" d="M255.915802,63.516674c106.2735291,0,192.4252014,86.1516876,192.4252014,192.4252014S362.1893311,448.3670654,255.915802,448.3670654S63.4906044,362.2153931,63.4906044,255.9418793S149.6422882,63.516674,255.915802,63.516674z M335.6239929,119.8806305c31.125946,0,56.3585205,25.2325592,56.3585205,56.3585052s-25.2325745,56.3585052-56.3585205,56.3585052s-56.35849-25.2325745-56.35849-56.3585052S304.4980774,119.8806305,335.6239929,119.8806305z M97.316803,74.1991501L87.2961807,62.6979103c8.4264221-7.3416252,17.4377975-14.2020416,26.7835464-20.3905144l8.4218979,12.718502C113.7128983,60.8454132,105.2393951,67.2961731,97.316803,74.1991501z M43.0599403,398.9603577c6.240345,9.3119812,13.1505051,18.2850647,20.538681,26.6707764l11.4453773-10.0839233c-6.9463348-7.884552-13.4439125-16.3218994-19.3123741-25.078949L43.0599403,398.9603577z M179.2882538,27.2799244l-4.8488464-14.4629993c-10.6055756,3.5554981-21.0856018,7.8536987-31.1487885,12.7746296l6.7013397,13.7032719C159.4568939,34.6662407,169.3136444,30.6239433,179.2882538,27.2799244z M74.8859863,96.5182419l-11.450695-10.0783463c-7.3879128,8.3939667-14.2935486,17.3707581-20.5243149,26.6811295l12.677002,8.4841461C61.4468613,112.8504944,67.9396515,104.4099731,74.8859863,96.5182419z M39.7441177,149.0149078l-13.6782665-6.7524109c-4.9515228,10.0299225-9.2901554,20.4897308-12.8953981,31.0886536l14.4417181,4.9121552C31.0040722,168.2916412,35.0857391,158.4510956,39.7441177,149.0149078z M143.5002441,486.4220276c10.0581207,4.896698,20.5410767,9.177887,31.1578217,12.724884l4.8339539-14.467804c-9.9889679-3.3373718-19.8518524-7.3652954-29.3149109-11.9725952L143.5002441,486.4220276z M13.2167387,338.7781372c3.6161489,10.5526428,7.9792547,21.0036621,12.9685507,31.0620422l13.6654987-6.7779541c-4.6958847-9.4673157-8.8017597-19.301178-12.2035046-29.2286987L13.2167387,338.7781372z M496.4293213,237.3557129l15.2094421-1.1688538c-0.8581543-11.1660614-2.4717712-22.3802643-4.7956543-33.331131l-14.9221191,3.1671295C494.1059875,216.316925,495.6228027,226.8589325,496.4293213,237.3557129z M19.3919106,208.8444214l-14.9583111-2.9894257c-2.1951199,10.984375-3.6831834,22.2110901-4.4226933,33.3691711l15.2205973,1.0087128C15.9271212,229.7379608,17.32687,219.1770782,19.3919106,208.8444214z M15.2211294,271.8908081L0,272.8910217c0.7347214,11.1766968,2.223583,22.4076538,4.4256191,33.3816528l14.9561825-3.0005798C17.3117065,292.955658,15.9119587,282.3977051,15.2211294,271.8908081z M87.4722824,449.3603516c8.43573,7.3418884,17.4505615,14.1975098,26.7941895,20.3769531l8.414444-12.7238464c-8.7863312-5.8101807-17.2627563-12.2566833-25.1938629-19.159668L87.4722824,449.3603516z M391.5397339,455.39505l8.5612793,12.6248779c9.2789917-6.2922058,18.2142944-13.2521057,26.5579834-20.6860657l-10.1477661-11.3894958C408.6665649,442.9335327,400.2648926,449.4779358,391.5397339,455.39505z M241.3152771,15.2261829L240.3927612,0c-11.1764374,0.6772631-22.413269,2.1025481-33.3979034,4.2367516l2.9096222,14.9742718C220.2352753,17.2037067,230.8033447,15.8632784,241.3152771,15.2261829z M438.6938477,413.3781433l11.5608215,9.9509277c7.2956238-8.4756165,14.1017456-17.5279541,20.2290344-26.9059143l-12.7695618-8.3442078C451.9523621,396.8971863,445.5526733,405.4089966,438.6938477,413.3781433z M473.256073,360.4963074l13.751709,6.6023865c4.8413696-10.0844727,9.065094-20.5908203,12.5546265-31.2280579l-14.4943848-4.7541504C481.7854614,341.1243286,477.8112488,351.0093079,473.256073,360.4963074z M496.7692871,269.0157776c-0.579895,10.5004883-1.863678,21.07547-3.8156433,31.4312744l14.9902344,2.8255615c2.0754089-11.0091248,3.440033-22.25177,4.0561218-33.4162598L496.7692871,269.0157776z M497.6923523,170.4513702c-3.730011-10.5090179-8.2069702-20.9113617-13.3058472-30.9178772l-13.5910339,6.9253235c4.7988586,9.4188995,9.0119324,19.2078247,12.5216675,29.0951691L497.6923523,170.4513702z M207.2089996,507.7055359c10.9942169,2.1355286,22.2294312,3.5624084,33.394165,4.2407227l0.9246521-15.2264404c-10.5007629-0.6379089-21.068573-1.9796448-31.409729-3.9885559L207.2089996,507.7055359z M307.4064331,4.7506843c-10.9638977-2.245662-22.1842346-3.7855976-33.349762-4.5769792l-1.078949,15.2158089c10.5021057,0.744298,21.0558167,2.1927252,31.3674622,4.3051157L307.4064331,4.7506843z M273.1878662,496.5554199l1.084259,15.2158203c11.1697998-0.7964478,22.3927917-2.3478088,33.3572083-4.6110229l-3.0835876-14.9391785C294.2383728,494.3486023,283.6878662,495.8068542,273.1878662,496.5554199z M370.8824158,26.7431145c-10.0041199-5.0196209-20.4381409-9.4226284-31.0131226-13.0861282l-4.9935608,14.4135208c9.9445496,3.4453697,19.7576904,7.5860901,29.1659546,12.3067169L370.8824158,26.7431145z M335.0603638,483.786377l5.0244141,14.4028931c10.5334778-3.6746826,20.960022-8.0947266,30.9902344-13.1377563l-6.8524475-13.6282349C354.7823792,476.1694336,344.9708557,480.3293152,335.0603638,483.786377z M448.3464355,119.8806229c31.1289673,0,56.3639832-25.2350006,56.3639832-56.3639641S479.4754028,7.1527271,448.3464355,7.1527271s-56.3639526,25.2349987-56.3639526,56.3639297S417.2174683,119.8806229,448.3464355,119.8806229z"/></svg>