<svg xmlns="http://www.w3.org/2000/svg" width="388" height="512"><path d="M77.028 206.474c34.465 57.87 93.666 138.396 135.702 184.665-88.273 1.15-174.042-86.851-135.702-184.665zm93.353-75.187C-8.805-75.622-60.629-25.425 82.595 194.124c33.408 57.642 99.9 148.863 144.395 196.143 201.213 217.182 194.387 111.83 84.6-67.194 35.68-105.434-49.523-203.064-141.209-191.786zm96.855 245.319c9.682-5.655 18.239-13.051 25.662-21.72 36.588 82.39 37.033 110.079-35.661 26.99-3.31-4.106-122.007-151.638-150.472-219.04C55.967 69.46 70.792 68.732 137.617 141.5c-8.176 4.09-15.569 8.63-22.03 13.706 29.602 63.846 97.57 155.448 151.649 221.399z"/></svg>