<svg xmlns="http://www.w3.org/2000/svg" width="512" height="512"><path d="m505.522 240.361-78.34-78.34 64.392-60.65c16-14.017 20.247-27.043-4.372-27.153H339.427l-67.788-67.74c-8.637-8.637-22.64-8.637-31.278 0l-67.74 67.74H50.824c-20.502 0-22.73 32.954 0 32.954H68v71.667L6.478 240.36c-8.637 8.637-8.637 22.64 0 31.278L68 333.161v126.346c-.441 25.64 13.068 28.24 32.523 10.193l53.564-50.452 86.274 86.274c8.637 8.637 22.64 8.637 31.278 0L505.522 271.64c8.637-8.637 8.637-22.64 0-31.278zM188.102 74.218l57.753-57.753c5.604-5.603 14.688-5.603 20.29 0l62.226 62.225c-9.408 9.002-5.387 28.482 12.094 28.482h16.387l9.15 9.15L190.075 279.61c-11.945 9.35-18.387 7.772-18.86-12.021V107.172h21.891c22.617-.985 23.187-32.954-5.003-32.954zM16.465 266.145c-5.603-5.603-5.603-14.687 0-20.29L68 194.32v123.36l-51.535-51.535zm479.07.001-229.39 229.39c-5.603 5.602-14.688 5.602-20.29 0l-83.796-83.797 257.15-242.209 76.326 76.326c5.603 5.603 5.603 14.687 0 20.29z"/></svg>