<svg xmlns="http://www.w3.org/2000/svg" width="512" height="512"><path d="M206.268 491.4 20.6 305.732c-27.467-27.466-27.467-71.998 0-99.464L206.268 20.6c27.466-27.467 71.998-27.467 99.464 0L491.4 206.268c27.467 27.466 27.467 71.998 0 99.464L305.732 491.4c-27.466 27.467-71.998 27.467-99.464 0zm72.789-113.33-5.588-102.477c-23.267 17.816-93.923 20.922-122.633 0l-5.587 102.37c2.19 31.855 133.136 31.207 133.808.107zm-105.905-84.84c-4.816-1.248-9.156-2.714-12.895-4.367l-4.602 94.182c4.402 2.469 10.03 4.626 16.599 6.359l.898-96.174zm38.55-42.78-22.489-62.287h-23.701v65.958c3.824 1.322 8.576 2.474 14.074 3.407v-46.782l18.618 48.858c9.048.576 17.653.645 25.867.266l20.21-48.979v47.129c5.553-.82 10.5-1.847 14.662-3.043v-66.814h-23.4l-23.84 62.287zm1.032 14.624c-43.511.254-84.191-11.732-59.99-25.06v-15.573c-35.157 5.042-48.55 13.526-48.55 23.146 0 15.467 48.285 28.006 108.436 28.006s109.836-12.539 109.836-28.006c0-9.62-18.548-18.104-46.673-23.146v15.573c17.642 11.502-8.113 24.355-63.06 25.06zm220.364 42.638 6.841-6.841a5.053 5.053 0 0 0 0-7.126L257.064 110.869c-2.115-2.085-5.066-1.86-7.126 0l-6.841 6.842a5.053 5.053 0 0 0 0 7.126l182.875 182.875c2.157 2.18 5.465 1.756 7.126 0zm-144.02-144.407 6.842-6.712-42.419-42.677-6.841 6.84 42.418 42.549zm-53.675-11.25h-16.555V135.5h-11.036v16.555h-16.554v11.036h16.554v16.554h11.036v-16.554h16.555v-11.036zm16.248-90.167h-16.554V45.334h-11.036v16.554h-16.555v11.037h16.555v16.554h11.036V72.925h16.554V61.888zm92.888 52.754v-11.036h-44.145v11.036h44.145z"/></svg>