<svg xmlns="http://www.w3.org/2000/svg" width="338" height="512"><path d="M176.048 281.787s23.56-38.72 26.78-84.437c3.22-45.717-6.654-73.404-6.654-73.404l55.375-42.498 35.2-38.204s-75.55 6.868-85.853 14.166c12.02-11.161 46.79-22.751 100.019-27.473 0 0 17.38-3.804 7.937 6.499-1.035 1.129-14.766 14.663-18.595 19.563l47.574-34.648-.429-9.443s-88.336-43.128-212.486 34.77C89.315 33.898 55.381 17.162 0 22.639c0 0 101.681 41.497 84.565 57.092C73.36 89.942 37.25 150.092 57.33 213.416c28.99 91.422 79.843 144.095 121.103 193.3C171.872 448.041 189.995 512 189.995 512s-.855-48.19 20.878-64.253c21.732-16.063 63.106-19.122 63.106-19.122-25.783-22.453-49.571-29.475-55.713-28.53-15.959 2.455-38.686-66.872-56.37-107.215-7.56-19.843-7.071-102.36-2.992-105.449 1.067-.807 7.075-2.787 8.976 6.615 5.37 26.55 8.168 87.741 8.168 87.741z"/></svg>