<svg xmlns="http://www.w3.org/2000/svg" width="512" height="512"><path d="M120.039 323.98 222.01 222.01 120.04 120.037l-33.992 33.99 67.982 67.983-67.982 67.98zm101.971-33.99h135.959v33.99H222.01z"/><path d="M387.505 33.99H52.058l-.675.014c-14.018.522-26.466 5.837-36 15.372C5.84 58.918.523 71.37.012 85.387L0 425.95l.012.66c.512 14.02 5.826 26.473 15.37 36.015 9.528 9.532 21.976 14.846 35.996 15.372l408.902.014.338-.014c14.022-.526 26.468-5.84 35.998-15.372 9.528-9.527 14.844-21.974 15.372-35.994l.01-218.21.002.002v-47.427L387.505 33.99zm88.36 138.957-94.803-.001V77.48l94.803 95.467zm-4.801 264.129c-3.078 3.077-6.636 4.562-11.508 4.799H52.44c-4.87-.237-8.428-1.722-11.505-4.8-3.085-3.084-4.57-6.64-4.8-11.496V86.418c.23-4.856 1.715-8.41 4.8-11.494 3.079-3.077 6.636-4.566 11.5-4.799h294.637v136.81h128.793v218.633c-.237 4.87-1.724 8.43-4.801 11.508z"/></svg>