<svg version="1.1" xmlns="http://www.w3.org/2000/svg" width="512px" height="512px"><style type="text/css">.st0{fill-rule:evenodd;clip-rule:evenodd;}</style><path class="st0" d="M82.2715836,395.3265991c-8.3867645,2.1001587-36.6121216,7.3333435-37.3930817-12.1907349c-0.9175148-24.7728577,129.0025024-139.4620209,129.0025024-139.4620209s-7.8907166-24.5893555-31.3789215-53.7662659c-26.4244308-33.2139893-33.5810852-37.9850769-91.567894-52.481781C7.2604456,126.4156418-17.5124207,82.7420273,14.6005535,37.4168472C43.0434723-2.586715,73.8720169,3.6523087,103.2324524,23.1036587c38.1686554,25.5068607,28.8098297,70.4650116,68.2629089,104.2294922c39.6365509,33.5809708,73.0341797,42.9396133,96.5223999,23.4883194c23.4884338-19.4512939,15.9646301-51.3807449,30.4613953-84.2277145s47.5272522-49.1786919,76.1536255-37.4345322s42.7562256,34.865509,48.0776062,49.9127502c11.7442322,32.6634521-29.1769714,61.6569061-29.1769714,61.6569061s52.1148071-20.1852951,62.757843-11.1936646c10.6432495,8.9916077,5.1381531,16.6987457-21.2862854,43.3066406C402.3414307,205.6888123,332.2434692,281.658905,332.2434692,281.658905s11.5607605,19.6348267,35.4161072,40.1870728c43.6737366,37.8015747,104.0459595,28.2593994,120.9283447,49.5457458c41.8387146,52.4817505,20.7359009,90.6502991-9.9092102,112.3036194c-30.6448364,21.836792-55.0508118,23.1213379-83.4937134,3.6700439c-28.4429321-19.4512634-13.2121277-56.8858032-60.0053101-102.9449768c-27.5253906-27.1583862-70.6485291-69.3639832-86.9803162-48.6282043s-21.2862701,56.3353271-20.9193573,72.6670532c0.917511,43.8571472-25.5069275,88.6318054-55.9683228,92.6688538c-30.4614105,4.0370789-57.0693054,10.643158-93.4029236-31.0119324C57.265625,446.4201355,75.270607,405.8851929,82.2715836,395.3265991z M70.2936935,19.6170635c-13.2121048,0.5504856-18.9925995,12.111187-7.9824371,22.3873501c11.0101624,10.4596748,11.7442169,11.1936722,18.5337296,6.7896194c11.0101624-6.7896194,18.5337296-16.5152397,8.0741653-22.3873482S70.2936935,19.6170635,70.2936935,19.6170635z M92.5892029,64.5752182c13.7627029,14.4967041,38.1686554,42.5726395,40.1871338,40.1870728c2.0184937-2.3855133,2.0184937-5.688591-5.68853-19.0842667s-25.5069275-36.8840485-30.0944901-33.2139931C92.5892029,56.1340828,92.5892029,64.5752182,92.5892029,64.5752182z M359.5856934,36.1323051c-4.4041138-11.0101604-29.5439148,1.4679985-45.8757324,20.5523186c-13.9433289,26.3906326-14.5302124,75.0495834-25.1397705,87.163765c-4.2206421,5.8721161-23.4884338,18.1667633-19.6347046,19.4513092c3.8535156,1.1010132,24.7728577-10.0926514,33.0304871-25.1398926c8.4410706-14.8637314,6.6060486-42.0221024,15.5977173-56.8858337c2.9360046-4.77108,16.1483459-25.3233452,23.1213074-30.2779388C347.6582031,46.2249527,359.5856934,36.1323051,359.5856934,36.1323051z M375.275116,41.9126282c-9.9092102-1.4679985-22.1120605,0.2752991-21.9286194,14.2214546c0.1834717,13.7626991,1.8350525,13.2122154,11.5607605,14.8637276c18.1668091,2.7525406,22.5709229-12.8451843,21.4697266-18.5337791C385.2760315,46.7754364,375.275116,41.9126282,375.275116,41.9126282z M162.6873779,390.29245c-1.2844391-8.9916077,3.1194458-15.7812195,16.6987-9.7256165c13.7626953,6.0555725,16.5152435,18.7173157,10.8267059,19.8182678C184.5242462,401.486145,162.6873779,390.29245,162.6873779,390.29245z M453.9060974,377.4472961c9.725708,7.8905945,34.865509,25.5068359,27.5253906,34.4984741c-7.3401184,8.8081055-3.6700439,1.835022-27.892334-10.2761841c-24.0387878-11.9276733-69.5476685-34.1314697-74.6856079-43.3066101C367.0931396,331.833313,417.161499,352.1532593,453.9060974,377.4472961z M97.5259018,436.5682983c-5.1381683-16.1481934-4.6794128-11.6524353-4.6794128-22.6625977c0-9.9091187,17.6162186-27.8924255,9.9091949-25.5068359c-7.7070236,2.5690002-20.9193573,20.1852722-22.3872452,31.3789673c-5.1381607,38.1685181,6.7895126,50.8302612,13.5792465,54.1332703c24.2222672,12.1112061,21.4697266-7.5236206,17.2492981-13.3956604C106.9763336,454.8268433,99.9115219,444.2754517,97.5259018,436.5682983z M151.2930603,325.8320923c-13.2120972-5.6885986,40.7376251-43.4901733,40.5541687-63.3084412c-0.1834564-27.7089081-17.9833527-51.5642548-25.5069275-63.6754456c-7.3401031-12.294693-12.6617279-13.5791779-11.7442169-19.4512939c1.1009827-5.8721008,27.3419495,15.0472412,39.6365509,41.6551361c10.8266907,23.3048553,15.7811737,32.6634521,6.2391357,59.8218842C195.884201,293.9026184,151.2930603,325.8320923,151.2930603,325.8320923z M265.2651978,204.0373077c-7.890686,3.4865417-20.0018311,7.3401031-21.2862549,13.0287018c-1.4681091,5.6885986,14.6802063,10.8266449,17.7996826,4.9545898c3.1194458-5.8721008,5.1381531-12.4781494,16.6987-17.0657196c11.7442017-4.5875702,163.3173828-62.2073975,164.0514526-66.2444763c0.7340698-3.8535767,5.5050964-4.5875702-8.0741577,0.3670197C420.8753662,143.8485107,273.1559143,200.550705,265.2651978,204.0373077z M58.9257927,375.0863953c0,0,44.5912514-54.7755432,58.7208672-67.0702515c13.9461594-12.2946777,60.1889725-55.2342987,60.1889725-55.2342987s-32.1129608,38.1685333-49.3622742,53.3992767C95.6263351,335.7250671,98.0119629,335.2662964,58.9257927,375.0863953z"/></svg>