<svg xmlns="http://www.w3.org/2000/svg" width="512" height="512"><path d="m503.243 344.02-69.284-85.847 66.48-82.731-94.872-22.236 6.5-100.554L315 87.898 262.847 0l-55.025 85.77-99.81-41.11 9.453 110.7-99.144 18.305 73.093 75.51-82.657 84.417 109.733 19.571-12.997 115.208 99.545-53.017 42.504 77.343v1.058h.582L258.15 512l10.334-18.245h.373v-.659l42.88-75.707 94.028 50.191-1.166-109.582 98.644-13.978zm-153.898-18.633 44.006-14.593 39.593 16.275-48.297 6.84-35.302-8.522zm-53.454 1.604-37.405 51.26-38.766-54.764 40.184-46.065 35.987 49.569zm37.832-175.094V220.8l-65.99 24.075v-66.976l65.99-26zm-87.305 23.79v64.703l-56.306-22.237-4.188-66.82 60.494 24.355zm-63.337 62.606 61.486 24.285-41.822 47.939-63.75-20.34 44.086-51.884zm93.618 26 63.896-23.31 36.325 52.8-62.393 20.698-37.828-50.187zm161.903 42.057-37.874-15.568-26.938-39.157 31.276 13.167 33.536 41.558zm14.565-114.62-42.141 52.441-49.004-20.628 32.58-45.539 58.565 13.726zm-75.025-27.355-23.104 32.295v-59.74l26.873-30.782-3.77 58.227zm-19.513-63.973-24.981 28.616-49.955 19.681 24.133-29.853 50.803-18.444zm-96.667-49.68 31.12 52.457-34.427 42.59-30.115-42.95 33.422-52.097zm-50.013 65.564 22.026 31.415-51.09-20.57-26.48-33.724 55.544 22.879zm-48.267 20.91 3.498 55.795-22.083-27.21-5.008-58.633 23.593 30.047zM72.03 190.842l57.363-10.59 32.575 40.142-46.197 15.63-43.74-45.182zm49.384 65.776 25.443-8.609-32.58 38.347-33.336 11.597 40.473-41.335zm-38.346 63.16 37.59-13.077 46.813 14.936-30.503 7.754-53.9-9.613zm62.687 29.374 53.967-13.716V388l-62.08 33.059 8.113-71.905zm75.282 39.998v-26.91l26.505 37.443v37.697l-26.505-48.23zm47.82 10.717 27.034-35.735v27.172l-27.034 47.726v-39.163zm48.35-9.761V339.56l60.705 14.654.73 68.686-61.436-32.793z"/></svg>