<svg xmlns="http://www.w3.org/2000/svg" width="512" height="512"><path d="M21.412 150.621C9.655 150.621 0 160.276 0 172.033v172.555C0 356.345 9.655 366 21.412 366h469.176c11.757 0 21.412-9.655 21.412-21.412V172.033c0-11.757-9.655-21.412-21.412-21.412H21.412zm329.154 40.766 45.442 45.443 45.443-45.443 15.897 15.898-45.442 45.444 44.36 44.36-15.895 15.897-44.361-44.361-44.364 44.361-15.896-15.896 44.361-44.361-45.443-45.444 15.898-15.898zm-103.158 1.394h22.713v84.98l31.06-30.218 15.678 16.115-58.293 56.711-55.365-56.637 16.078-15.716 28.13 28.775v-84.01zm-196.9 3.008 60.625 59.871 61.752-59.353V314.7h-23.078v-64.203l-38.893 37.38-37.328-36.864V314.7H50.508V195.79z"/></svg>