<svg xmlns="http://www.w3.org/2000/svg" width="512" height="512"><path d="M319.541 392.522c28.573-5.53 72.436 2.218 90.793-19.58 16.056-19.068-.67-112.73-16.726-162.239-7.791-24.023-21.662-31.727-31.61-29.738-24.592 10.126-27.612 63.903-44.007 105.115-11.504 28.916-34.459 39.545-75.248 40.43-104.355 2.263-42.52-136.276-100.204-144.968-21.987-4.286-58.012 98.808-46.328 163.446 3.667 20.291 25.438 43.007 52.534 46.352 9.304 1.148 49.507-6.022 50.845 29.102 0 0 7.32 26.933-12.711 37.131-29.058 14.795-102.638 10.176-136.481 2.007C30.996 454.897-3.06 412.132.22 349.86 6.6 228.757 53.743 102.32 53.743 102.32c9.868-22.286 12.042-57.536 85.635-57.536 25.089 0 67.814.326 78.276 29.438 15.388 42.817-5.352 110.389 28.1 115.74 60.546 0-17.395-144.174 117.748-144.174 26.259 0 63.672-.533 80.952 35.124 51.839 106.97 87.243 283.79 55.529 344.214-10.652 20.294-33.419 34.973-60.177 36.627-62.255 3.849-115.777.503-115.777.503-34.12-16.056-30.285-61.495-4.488-69.734z"/></svg>