<svg xmlns="http://www.w3.org/2000/svg" width="512" height="512"><path d="M512 442.906c-.208-181.326-96.982-349.46-253.943-440.03l-.025-.002C99.38 92.458.902 260.305 0 442.61c165.995 90.503 360.947 86.76 512 .297zm-168.523-245.93c23.524 15.986 20.034 54.467 16.245 80.82-4.82 29.028-32.64 76.76-68.798 107.903 4.68 6.706 7.38 14.965 7.343 23.776-22.406 11.325-44.625-1.448-71.514-24.475-26.889-23.027-55.892-69.171-65.517-116.59-8.536.903-17.272-1-24.77-5.73 1.957-26.589 30.178-42.395 55.189-51.718 25.01-9.323 89.45-12.465 134.88 3.685a38.704 38.704 0 0 1 16.943-17.644v-.027z"/></svg>