<svg version="1.1" xmlns="http://www.w3.org/2000/svg" width="512px" height="512px"><path d="m495.15879 79.285305s-128.12547 0.37745-128.90817 2.98171c-0.4201 1.26233 91.30118 53.472775 91.30118 53.472775v194.31946h37.60699zm-369.80214 120.72102c25.81968-0.68226 32.63616 3.66657 34.92196 21.7496 0.83952 29.63139-15.36806 30.99977-34.92196 30.99977zm0 80.43396 17.59982-0.92373c20.31333-1.06618 30.22878-6.09348 40.79964-20.6861 15.83142-21.85462 12.66407-61.98849-6.14077-77.81177-10.09645-8.49559-18.83067-9.91285-51.73637-8.39499l-29.77221 1.37328s0.62683 160.1709 1.39286 160.93694c0.76603 0.76595 27.85703 1.39286 27.85703 1.39286zm315.4809-140.50559h-150.42799v33.42842h114.91024v66.85691h-114.91024v29.24983h114.91024v20.89283h-114.91024v31.33917h114.91024v20.89275h-114.91024v31.33916h114.91024v20.89275h-114.91024v31.33916h150.42799zm-440.83755 306.1133v-380.31456l290.40956-50.71761v108.20464h60.87177s-1.30457-44.223945 0-47.966325c4.16524-11.9484 8.49433-12.62268 81.0337-12.62268 68.51288 0 73.06615 0.57328 77.23826 9.73044 3.26227 7.15974 3.26227 257.52102 0 264.68084-3.47414 7.62492-10.45281 9.73044-32.25168 9.73044h-19.89353v60.5785c0 32.15621-2.39405 35.47668-29.39837 35.52825h-137.6003v54.10425z"/></svg>