<svg xmlns="http://www.w3.org/2000/svg" width="512" height="512"><path d="M291.593 13.486v50.542h204.495c8.788 0 15.912 7.124 15.912 15.913v347.875c0 8.788-7.124 15.912-15.912 15.912H291.593v54.786L0 446.909V65l291.593-51.513zm-96.76 212.215c.981-15.538-2.708-31.289-13.16-41.363-12.438-11.991-20.73-14.091-56.289-12.25l-28.886 1.496v163.155h29.37V280.1c54.185 4.625 66.744-26.631 68.964-54.399zm-33.756 0c-1.535 26.512-13.814 25.396-35.21 25.03v-49.298c24.047-.848 34.427 2.446 35.21 24.268zm311.348-.143-55.112 57.482-57.61-57.482h43.073v-75.52H291.593v147.641l44.272-43.566 65.862 65.909s-64.46 62.87-65.989 62.87c-1.527 0-44.145-40.643-44.145-40.643v84.697h203.485V80.81H291.593v41.955h138.454v102.792h42.378z"/></svg>