<svg version="1.1" xmlns="http://www.w3.org/2000/svg" width="512px" height="512px"><path d="M488.8765564,52.4466248l-186.5710449,0.0001831V5.9203677h-34.7785034L0,52.5631256v406.9899902l265.9566956,46.5264282h36.3488159v-46.3522644l174.5904541,0.0003052c9.8868713-0.46521,20.8787231,0.290802,29.369812-5.7575989c6.8044739-10.4103088,5.0597534-23.4377441,5.6413269-35.1856384V75.0121536C513.128479,61.7521095,502.1365356,51.1089706,488.8765564,52.4466248z M194.0152588,335.0367737c-9.7124176,5.0596924-24.2518921-0.2326355-35.7672272,0.581543c-7.7350159-38.5005798-16.749527-76.7685852-23.6703033-115.4437103c-6.8044739,37.5701141-15.6445007,74.7912445-23.4376755,112.1287079c-11.1663818-0.581604-22.3908691-1.2795105-33.6153488-2.0355225c-9.6542511-51.1790771-20.9950562-102.0092163-30.0095596-153.3046265c9.9449844-0.465271,19.9481964-0.8723907,29.8932419-1.221283c5.990242,37.0466766,12.7947693,73.9188538,18.0289536,111.0236816c8.2002792-38.0353699,16.5750351-76.0707245,24.7171631-114.1060333c11.0500717-0.6397552,22.1000748-1.1050262,33.1500778-1.686615c7.7350769,39.2566528,15.6445007,78.4551849,24.0193176,117.5374298c6.5718384-40.3617401,13.841568-80.6070709,20.8787384-120.9106445c11.6315918-0.4071045,23.2631836-1.0467987,34.8366852-1.7447052C219.8955994,222.2101135,208.3803101,279.0305481,194.0152588,335.0367737z M484.2270508,432.1057739H302.3055115v-36.5264587H453.516449v-23.2632446H302.3055115v-29.07901H453.516449V319.973877H302.3055115v-29.0791016H453.516449v-23.2631836H302.3055115v-29.07901H453.516449v-23.2632599H302.3055115v-29.07901H453.516449V162.947113H302.3055115v-29.07901H453.516449v-23.2632599H302.3055115V79.8942337h181.9215393V432.1057739z"/></svg>