<svg version="1.1" xmlns="http://www.w3.org/2000/svg" width="512px" height="512px"><path fill-rule="evenodd" d="m352.70367 354.48711c-22.01602 0.72521-43.92121-3.67799-63.03916-14.82558l-0.22304-72.40244c13.59957 33.8327 42.69521 57.79852 63.2622 87.22802zm48.71297-137.11228c29.81945 4.01183 41.52391 44.25506 20.23312 64.82204-21.62605 16.99981-51.22247 10.14322-76.58262 10.75622-20.06479 0.33525-40.57707-15.77241-39.51799-36.89769-1.67207-16.60985 9.81075-31.10016 24.69243-37.06461 23.18591-4.57013 47.54309-2.28506 71.17506-1.61596zm-261.79571-50.83251v147.313l55.4582 2.22895v34.66874l-89.23465-5.68531v-176.90942zm326.89689 18.1697c30.32024 29.09564 37.84594 77.97694 18.78409 115.15237-11.76057 24.02333-33.8888 41.3023-58.3568 50.99944 6.35301 10.31169 16.83149 20.17689 15.21552 33.38677-2.34117 13.09865-16.83288 21.5151-29.42949 18.22581-9.14026-4.23628-14.93639-12.81978-21.17998-20.28769l-56.96248-72.68189c25.63929-1.33682 52.0024 3.12249 77.30643-2.67503 32.77362-9.25248 48.10137-51.72325 29.81946-80.2606-17.16674-25.52848-38.68057-47.82223-56.90638-72.56939 29.76335-0.11226 60.75269 8.63949 81.70963 30.71021zm-130.48011-70.06128 67.66539 85.61206c-24.91547 0.89214-50.10869-2.11814-74.79973 1.72818-19.50791 4.29238-32.71752 21.06915-39.12664 39.01582l0.55688-73.01545 21.2908-8.86252c-6.9113-10.92454-19.17266-22.0707-15.0486-36.28467 4.29239-16.55375 29.15036-22.46208 39.4619-8.19342zm-46.26098-98.319475-0.22304 85.499835c10.36625-5.573085 21.01305-14.212565 33.66437-11.481435 25.47237 3.90243 36.61994 30.265545 51.72466 47.934455 33.38662-2.06203 69.0569 3.84491 94.47317 27.30995 35.95083 28.87261 51.83546 80.2059 37.12071 124.1271-8.24811 28.7604-29.42809 51.83547-54.28745 67.5529 5.07231 14.21271 10.14461 31.10029 0.27915 44.58919-11.37063 19.34071-40.24183 25.24933-57.35386 10.31169-12.26135-12.42955-22.01602-27.03235-33.49744-40.131-24.58022 0.44607-49.16045-2.73142-71.95639-12.20652l0.0561 135.8313h-34.5579l-255.16292-44.58905-0.05589052-390.04728 256.50092-44.701139z"/></svg>