<svg xmlns="http://www.w3.org/2000/svg" width="512" height="512"><path fill-rule="evenodd" d="M352.704 354.487c-22.016.725-43.922-3.678-63.04-14.825l-.223-72.403c13.6 33.833 42.696 57.799 63.263 87.228zm48.713-137.112c29.82 4.012 41.524 44.255 20.233 64.822-21.626 17-51.223 10.143-76.583 10.756-20.065.335-40.577-15.772-39.518-36.898-1.672-16.61 9.81-31.1 24.693-37.064 23.185-4.57 47.543-2.285 71.175-1.616zM139.62 166.542v147.313l55.458 2.23v34.668l-89.235-5.685v-176.91zm326.897 18.17c30.32 29.096 37.846 77.977 18.784 115.152-11.76 24.024-33.889 41.303-58.357 51 6.353 10.312 16.832 20.177 15.216 33.387-2.342 13.098-16.833 21.515-29.43 18.225-9.14-4.236-14.936-12.82-21.18-20.287l-56.962-72.682c25.639-1.337 52.002 3.122 77.306-2.675 32.774-9.253 48.101-51.723 29.82-80.26-17.167-25.53-38.681-47.823-56.907-72.57 29.764-.112 60.753 8.64 81.71 30.71zm-130.48-70.061 67.665 85.612c-24.915.892-50.109-2.118-74.8 1.728-19.508 4.292-32.717 21.07-39.126 39.016l.557-73.016 21.29-8.862c-6.91-10.925-19.172-22.07-15.048-36.285 4.292-16.554 29.15-22.462 39.462-8.193zm-46.261-98.32-.223 85.5c10.366-5.573 21.013-14.212 33.664-11.481 25.472 3.902 36.62 30.265 51.725 47.934 33.386-2.062 69.057 3.845 94.473 27.31 35.95 28.873 51.835 80.206 37.12 124.127-8.248 28.76-29.427 51.836-54.287 67.553 5.072 14.213 10.145 31.1.28 44.59-11.371 19.34-40.243 25.249-57.355 10.31-12.26-12.429-22.016-27.031-33.497-40.13-24.58.446-49.16-2.731-71.956-12.207l.056 135.832h-34.558L.056 451.079 0 61.033l256.5-44.7z"/></svg>