<svg xmlns="http://www.w3.org/2000/svg" width="512" height="512"><path d="M493.653 64.008c-12.39-11.776-22.772-26.23-37.729-34.826-21.153-8.539-35.161 13.674-48.277 26.008-11.441 13.562-33.487 27.069-25.45 47.719 3.684 13.172 30.696 15.292 30.696 15.292v20.595l-122.785.39V16.011h-33.654L0 60.77v390.57l255.059 44.648h35.05l-.057-48.053c9.767.949 20.957 6.088 29.86-.391 13.862-10.09 24.668-23.72 36.835-35.72 18.62-17.523 30.41-44.75-16.409-51.57v-20.37h100.684c34.182-1.57 38.566 1.841 39.013-39.236l-.168-182.392s28.932-3.802 31.757-19.59c2.673-14.937-9.488-25.003-17.971-34.659zM122.339 347.084l.056-184.233 33.375-1.786.39 189.926-33.821-3.907zm235.301 32.37c-7.87 21.433-28.631 34.716-43.254 51.515-8.595 9.823-17.971-2.902-24.39-8.372V155.818l122.897-.279v33.487h-89.298v190.429h34.045zM340.338 205.77h72.555v66.973h-72.555V205.77zM463.124 99.95l-.224 222.8-122.562.223v-33.487h89.299V99.95c-11.665-.223-23.274-.558-34.77-1.284 9.766-20.65 28.965-34.603 44.09-51.179 6.419-8.204 15.628-.502 20.371 5.247 12.949 15.069 30.25 27.18 38.51 45.82-11.608.838-23.217 1.173-34.714 1.396z"/></svg>