<svg version="1.1" xmlns="http://www.w3.org/2000/svg" width="512px" height="512px"><path d="M448.1760559,0H63.8244247C28.6316319,0,0,28.6316319,0,63.8244247v384.3516235C0,483.368866,28.6316319,512,63.8244247,512h384.3516235C483.368866,512,512,483.368866,512,448.1760559V63.8244247C512,28.6316319,483.368866,0,448.1760559,0z M448.1760559,483.9451904H63.8244247c-19.7235985,0-35.7696037-16.0460205-35.7696037-35.7691345V63.8244247c0-19.7235985,16.0460052-35.7696037,35.7696037-35.7696037h209.1185913v70.4203186c0,13.4688263,15.5022888,35.6073608,38.0744019,34.0666962H483.946167v315.6342163C483.946167,467.8991699,467.9001465,483.9451904,448.1760559,483.9451904z M250.9004364,393.0507812H68.6884232l97.1899185-213.4170532H74.5552902v-50.0978851h169.1861267l-99.1939545,213.417038h106.3529663V393.0507812z M320.7428894,273.0220337c2.5252991,25.8331909,3.1069336,49.6569214,2.2080078,77.8829041c-0.4481506,14.068512-0.9119263,28.6164551-0.9119263,42.1458435h-50.0979004v-119.205658c-0.908844-11.2794495-2.2780457-20.7408905-4.2661438-26.7685699c-5.5029602-18.3468781-19.1128845-27.0305176-28.8043518-36.5978851l42.0881042-24.4992065c6.3581848,6.7997894,12.3574219,10.6875,24.3809204,30.0586853c23.7095337-19.7791901,59.2229309-41.3569641,92.2611389-27.9396973c16.6330872,6.7539215,28.7977295,15.3378143,35.9895325,31.2796173c6.3395386,14.0513763,6.7051086,18.7756805,6.7051086,44.0315704v129.6411438h-49.6174011l0.5215149-132.7049255C386.2240601,223.1924591,345.8173828,226.226944,320.7428894,273.0220337z"/></svg>