<svg xmlns="http://www.w3.org/2000/svg" width="512" height="512"><path d="M448.176 0H63.824C28.632 0 0 28.632 0 63.824v384.352C0 483.369 28.632 512 63.824 512h384.352C483.369 512 512 483.369 512 448.176V63.824C512 28.632 483.369 0 448.176 0zm0 483.945H63.824c-19.723 0-35.77-16.046-35.77-35.769V63.824c0-19.723 16.047-35.77 35.77-35.77h209.119v70.421c0 13.469 15.502 35.608 38.074 34.067h172.93v315.634c0 19.723-16.047 35.77-35.77 35.77zM250.9 393.051H68.688l97.19-213.417H74.555v-50.098h169.186l-99.194 213.417H250.9v50.098zm69.843-120.029c2.525 25.833 3.107 49.657 2.208 77.883-.448 14.068-.912 28.616-.912 42.146h-50.098V273.845c-.909-11.28-2.278-20.74-4.266-26.768-5.503-18.347-19.113-27.031-28.804-36.598l42.088-24.5c6.358 6.8 12.357 10.688 24.38 30.06 23.71-19.78 59.224-41.358 92.262-27.94 16.633 6.753 28.797 15.337 35.99 31.28 6.339 14.05 6.704 18.775 6.704 44.03v129.642h-49.617l.521-132.705c-4.975-37.154-45.382-34.12-70.456 12.676z"/></svg>