<svg xmlns="http://www.w3.org/2000/svg" width="300" height="512"><path d="M283.817 58.795c20.706-27.974 2.515-33.916-23.231-35.629 0 0-10.266-23.166-36.254-23.166s-35.298 19.448-35.298 19.448c-5.169 16.2-27.073 16.2-27.073 21.399 0 17.202-22.856 22.833-28.073 23.847-53.231 2.147-12.706 8.87-17.962 12.915-7.645 5.882-19.715 8.312-19.908 9.725-.706 5.177 14.352 2.588 17.437 7.09 3.085 4.501-3.556 21.384 2.797 30.797 2.823-6.824 15.057-12.237 15.057-12.237 7.058-.941 4.235 14.826 10.352 18.826 14.496-.935 31.09-32.54 61.672-44.285 2.487-6.262 3.84-12.426 3.743-18.464-3.616-2.63-13.024 3.103-16.765.328-4.602-1.972-3.944-44.056 1.644-46.029 0 0 11.176-2.301 12.49 9.206s.635 9.063 6.904 21.37c8.875 17.426 44.169 35.3 48.977 52.277 5.46 19.276-52.769-3.789-59.849-11.08-23.657 28.002-49.749 40.703-45.94 51.359 1.558 4.362 5.887 13.992 9.497 23.051-1.257 2.362-2.337 4.311-3.186 5.727-8.91 14.854-22.76 4.67-28.216 17.825-4.891 11.792-20.539 45.99-11.137 57.185 15.592 18.567 2.774 16.346 1.485 22.28-3.713 17.082-40.467 6.685-79.078 44.56-8.728 8.563-8.718 31.353-20.096 50.688-26.682 45.341-32.25 62.942-9.975 77.795 32.67 32.677 66.083 28.221 43.065 62.384 74.251 2.228 118.233 13.564 184.05-15.759 10.488-96.384-19.213-36.228-13.503-161.414 35.128-44.885-.512-119.895 1.548-141.276l37.48-74.356 20.134 11.463c32.397-44.208-4.357-52.378-2.788-67.85z"/></svg>