<svg version="1.1" xmlns="http://www.w3.org/2000/svg" width="300px" height="512px"><path d="M283.816864,58.79496c20.7062378-27.9740677,2.51474-33.9154854-23.2311401-35.6288567c0,0-10.2657928-23.1661034-36.2536621-23.1661034c-25.987793,0-35.2982941,19.4482822-35.2982941,19.4482822c-5.1684265,16.1999531-27.072464,16.1999531-27.072464,21.3986759c0,17.2021141-22.8565674,22.8331413-28.0733185,23.846653c-53.2314377,2.1468964-12.7058411,8.8713303-17.9622345,12.9155884c-7.6450195,5.8819962-19.7151871,8.311409-19.9078445,9.7245178c-0.7058182,5.1771698,14.3517456,2.5885849,17.4371643,7.0901718c3.08535,4.5015869-3.5559692,21.3841934,2.7964401,30.797226c2.823288-6.8244476,15.0574951-12.2369461,15.0574951-12.2369461c7.0582275-0.9412994,4.2349396,14.825531,10.352066,18.8260727c14.4963379-0.9354553,31.0904846-32.5397034,61.671814-44.2849197c2.4874725-6.26194,3.8392334-12.4258347,3.74263-18.4648209c-3.6157837-2.6301956-13.0234985,3.1037064-16.7640991,0.3288193c-4.601944-1.972702-3.9445343-44.0566025,1.6435242-46.0292969c0,0,11.1760406-2.3014469,12.4908905,9.2058582s0.6343079,9.063076,6.9029083,21.3707352c8.8751678,17.4253998,44.1687775,35.3001785,48.9775848,52.2761383c5.4604492,19.276535-52.769104-3.7883987-59.8492279-11.0805054c-23.6571503,28.0023499-49.7491455,40.7039642-45.9408417,51.359726c1.5588226,4.3615875,5.8878326,13.9920654,9.4981232,23.0513916c-1.2569275,2.3618317-2.3372498,4.3108673-3.1868439,5.7271118c-8.9101105,14.8534698-22.7588806,4.6698608-28.215332,17.8241119c-4.8913345,11.7919312-20.5392227,45.9908752-11.1376266,57.1857605c15.5926895,18.5667267,2.7748871,16.3454437,1.484993,22.2801361c-3.7125244,17.0814209-40.4667892,6.6840515-79.0772858,44.5603027c-8.7286034,8.5626526-8.7179985,31.3522034-20.0961456,50.6869202c-26.6822662,45.3412781-32.250679,62.9418335-9.9754038,77.7952271c32.6704445,32.6775513,66.0833588,28.2214966,43.0655479,62.3844299c74.2509384,2.2279968,118.2326431,13.5640869,184.0501404-15.7590332c10.4872742-96.3843994-19.2131042-36.2279968-13.5037842-161.4144592c35.1286926-44.8852844-0.511734-119.8951721,1.5486908-141.2763062l37.479599-74.3559799l20.133667,11.4632492C319.0019836,82.4365463,282.2477722,74.2671814,283.816864,58.79496z"/></svg>