<svg xmlns="http://www.w3.org/2000/svg" width="512" height="512"><path d="M39.264 228.915V2.781h101.059v39.31C160.285 6.897 188.906.862 217.718 3.568c39.41 3.701 60.915 20.546 79.259 60.625V35.436c9.837-34.894 74.587-44.155 115.99-17.985 25.235 15.95 36.14 48.956 37.074 86.037v124.324c-29.884-14.525-69.67-16.165-102.162-3.31v-102.11c.77-18.261-23.115-21.91-48.335-15.995v122.518H197.796V122.391c-.272-21.727-43.41-21.051-58.226-10.93v117.454H39.264zm82.814 13.918H0v87.909h122.078v-87.909zm199.986 0H136.795V496.2h109.066V349.777h76.203V242.833zm-199.986 103.7H0v149.666h122.078V346.533zm249.749 55.175c-14.337-27.35-17.895-61.801-17.895-61.801 52.141 48.537 129.967 44.28 158.068-29.78-33.353-77.474-113.979-99.797-176.94-65.526v118.425H264.6c-.434 45.106 17.584 88.322 49.312 115.479 48.403 41.43 124.78 46.596 177.33-16.368 0 0-14.428-9.84-50.602-15.007-44.096-6.3-55.502-20.03-68.813-45.422zm66.833-128.021c15.383-10.255 44.06 41.21 26.967 48.997-15.193 7.407-37.639-41.883-26.967-48.997zm-33.615 18.041c15.383-10.255 44.06 41.211 26.968 48.998-15.193 7.406-37.64-41.883-26.968-48.998z"/></svg>