<svg xmlns="http://www.w3.org/2000/svg" width="310" height="512"><path d="M183.07 153.302C262.738 94.654 165.275 41.29 183.07 0c-73.318 74.216 2.44 95.303 0 153.302zm-59.535 4.466c54.06-40.562-16.164-78.526 0-102.698-48.117 52.093-.763 57.18 0 102.698zm186.046 40.186c0-7.442-5.953-14.884-14.883-14.884H14.884C7.442 183.07 0 189.023 0 197.954c0 50.604 7.442 224.744 81.86 309.58 2.977 2.979 5.954 4.466 10.42 4.466h125.023c4.465 0 7.442-1.488 10.419-4.465 74.418-83.349 81.86-257.489 81.86-309.581zm-110.14 270.883h-87.813c-4.465 0-7.442-1.488-10.419-4.465-50.604-59.535-56.558-178.605-58.046-220.279 0-7.442 5.953-14.884 14.884-14.884h196.465c7.441 0 14.883 5.954 14.883 14.884 0 41.674-7.442 159.256-58.046 220.28-4.465 2.976-7.442 4.464-11.907 4.464zm46.14-138.418c-5.953 40.186-17.86 86.325-43.162 116.093-2.977 2.976-5.954 4.465-8.93 4.465h-74.42c-2.976 0-7.441-1.488-8.93-4.465-17.86-22.326-29.767-52.093-37.209-83.35 77.212 9.986 156.606 2.312 172.651-32.743z"/></svg>