<svg xmlns="http://www.w3.org/2000/svg" width="512" height="512"><path d="M399.537 165.003c-6.143-44.655-48.907-51.034-114.827 4.726-3.544-49.144-42.01-48.621-81.009-25.082-21.336 12.878-42.257 33.176-67.378 58.297C111.513 227.754 58.492 286.725 0 352.958c11.962 7.225 21.801 17.575 28.326 29.984l142.62-174.397s48.277-55.947 74.84-45.511c26.563 10.435 5.868 49.449.106 61.639-18.489 39.112-73.405 133.765-73.405 133.765s84.67-123.804 134.833-169.341c6.701-6.084 29.885-26.659 47.671-27.394 15.37-.634 28.047 12.638 18.144 38.778-11.078 29.242-31.796 70.257-59.901 113.304 0 0-.997 7.7 8.786-6.083 29.77-41.94 102.345-143.864 144.68-147.303 16.982-1.38 25.344 14.455 22.057 32.73-5.882 32.703-37 77.792-37 77.792-1.469 2.049.425 4.088 1.899 3.558 29.409-42.691 56.946-68.486 58.344-102.933 0 0-2.372-91.074-112.463-6.543zm9.617 175.919c-18.257-10.526-18.257-36.982 0-47.508s41.203 2.703 41.203 23.754c0 21.05-22.946 34.279-41.203 23.754z"/></svg>