<svg version="1.1" xmlns="http://www.w3.org/2000/svg" width="512px" height="512px"><path d="M511.9737549,261.9127197c-0.9396973-31.3826447-29.2383118-53.5191193-58.8832703-48.3509064c-1.9597473,0.3417358-3.7731628,0.7209625-5.4542236,1.1378784c-7.985321-15.8857117-16.7364502-31.6480713-28.3710632-45.0374603c-14.0829468-16.2064819-31.8403625-33.1355743-50.4562073-43.8304596c-16.4502563-9.4509506-34.6203308-15.6009674-53.1336365-19.7482224c-16.9292603-3.7948685-34.8041382-1.9183884-51.3477478-3.186409c-9.3906708-0.7198563-19.3355408,0.4759216-27.6480713-3.9483566c-6.9844055-3.7165527-8.0625305-6.1711578-1.7047882-20.6427078c-11.6283417,8.0233688-16.7634735,14.0559235-19.3175201,23.190506c-0.8733521,3.1202316-5.4090271-9.824295-0.9546051-18.8535461c-9.3968964,4.6560822-13.5590515,17.0465622-15.1011505,17.197113c-3.3851166,0.3343735-5.0959625-11.2910309-5.6047974-18.8566742c-7.1169281,7.3185883-8.664917,22.6787415-8.664917,22.6787415c-1.7558746,0.6715088-8.122818-15.6943512-4.5869598-23.699707c-10.3695068,6.7252045-6.9632568,24.4043045-10.3213501,26.1210403c-3.9724426,2.0299683-2.4125061-16.5676956-27.0818787-24.5940094v0.0029373c9.6707916,12.4627228,11.4597778,17.5285492,5.0417328,26.130043c-1.4034882,1.8823624-2.7829132,3.6834717-4.0808868,5.3459778c-11.4658508,14.6704483-27.5157166,26.6482468-39.4993896,40.8999405C93.1232071,167.761673,81.7388,182.1911316,73.203476,198.2077332c-2.8939438,5.4308929-5.5615997,11.0123444-7.9674835,16.7073975c-1.9634285-0.5023956-4.056633-0.9575348-6.3264923-1.3533173C29.264555,208.3936005,0.9659388,230.5300751,0.02623,261.9127197c-0.9031277,30.1572571,21.6190014,53.3916931,51.7986908,51.4091492c1.8540497,15.7548218,6.1654587,34.0354004,13.2226486,47.4674377c8.0051727,15.2366028,18.6849823,26.4342651,32.1085587,37.2045288c8.7763138,7.0413818,19.0132904,12.3812866,29.560379,16.3086853c21.4831543,8.0022278,45.0953674,10.4959717,67.7860565,13.7606812c24.1182709,3.469696,48.5166931,5.8851318,72.882019,5.6049805c22.193634-0.2529297,44.3784485-2.8882446,66.2559204-6.6259155c19.1307373-3.2676697,36.355072-6.2434082,54.0251465-14.2697144c14.763855-6.7071838,27.8710632-15.9654846,39.2434998-27.5216064c12.6945496-12.8963623,24.783905-25.7566833,32.1085815-42.3034363c4.1314392-9.3334961,6.7229919-19.433136,8.0009155-29.6114807C493.6900635,311.6709595,512.8074341,289.7418213,511.9737549,261.9127197z M55.9002991,243.3720245c-3.1636124,14.4601593-5.2864151,30.6390533-5.3937683,44.9012299c-3.3599358,1.5584717-6.7325554,1.990448-9.4959831,0.7454224c-9.74617-4.3880615-16.7665958-12.4897461-14.7426929-25.1572571c2.027029-12.6706238,8.8456173-18.4140167,19.1971188-21.0855408C49.5868607,241.7128296,53.0504761,242.0655823,55.9002991,243.3720245z M421.4036255,316.9437561c-1.0601196,10.0834961-2.7014771,20.4680786-7.2071838,29.5515747c-6.1831055,12.4687805-16.1340637,22.7419739-26.816803,31.6688232c-10.5200806,8.7914124-23.2418213,14.9022522-36.0389099,19.8204651c-15.6671448,6.0206299-31.102478,9.0654907-47.7396545,11.2761536c-21.5642395,2.8672791-43.5109863,3.4424744-65.2288971,2.1625061c-20.742157-1.2228088-41.7251282-3.3943176-61.6270142-9.3696899c-14.826889-4.4513245-29.1359406-9.8485718-41.655838-18.9500732c-10.4507599-7.5957947-20.4800186-16.9533691-26.816803-28.2142334c-7.9059067-14.0500488-12.7910385-30.3767395-13.3331299-46.4898682c-0.7137909-21.1245117,5.2314453-40.2793274,13.5891953-59.6933746c6.0445023-14.0469055,15.1551895-27.0004425,25.9464035-37.8398132c9.3816528-9.4208069,20.5011597-19.1699066,32.7951355-24.2328033c12.0743103-4.9724426,25.5157013-7.3185883,38.5628052-6.8487244c11.2669525,0.4036713,22.0822296,3.3069916,32.5392456,7.5233612c7.185318,2.9001923,15.7200928,9.0375366,20.9182587,12.0643768c6.4537048-2.9761047,13.2417908-10.30867,21.0328064-13.3564758c12.7487488-4.9843903,26.6781921-7.8035126,40.3637085-7.5685883c11.5682373,0.2018433,22.7147827,2.5419159,33.3674011,7.0595856c11.2549744,4.7737274,20.4108887,12.0893707,29.1028442,20.6908722c9.1678467,9.0715332,15.8570251,20.5434418,21.6245117,32.07547c6.7132568,13.4204407,12.8241272,27.5125885,15.540863,42.2701569C422.5210876,292.4822693,422.6716614,304.8725891,421.4036255,316.9437561z M474.0644531,289.0186768c-1.8062439,0.8137817-3.8783264,0.8860168-6.0314636,0.4277649c-0.2801208-11.1004028-1.5273743-22.4396057-3.9194946-32.6326599c-1.1507263-4.9025726-2.4906311-9.4231873-3.9985352-13.7950745c2.666748-0.9812469,5.8086548-1.1935577,9.4950562-0.2428284c10.3515015,2.671524,17.170105,8.414917,19.1971436,21.0855408C490.8310547,276.5289307,483.8106384,284.6306152,474.0644531,289.0186768z M193.1201782,278.7004089c0,11.1465759-9.0353088,20.1818848-20.1818848,20.1818848c-11.1465912,0-20.1819-9.0353088-20.1819-20.1818848s9.0353088-20.1819153,20.1819-20.1819153C184.0848694,258.5184937,193.1201782,267.553833,193.1201782,278.7004089z M366.589325,278.7004089c0,11.1465759-9.0353088,20.1818848-20.1818848,20.1818848s-20.1819153-9.0353088-20.1819153-20.1818848s9.0353394-20.1819153,20.1819153-20.1819153S366.5893555,267.553833,366.589325,278.7004089z M251.0365906,315.293457c-1.1233978,2.276886-5.4121552,2.5871277-9.5804596,0.6927185s-6.6379547-5.2766418-5.5145569-7.5565491c1.1233978-2.276886,5.4121399-2.5871277,9.5804443-0.6927185S252.1599731,313.0135193,251.0365906,315.293457z M269.2397766,315.293457c1.1233826,2.276886,5.4121399,2.5871277,9.5804443,0.6927185s6.6379395-5.2766418,5.5145569-7.5565491c-1.1233826-2.276886-5.4121399-2.5871277-9.5804443-0.6927185S268.1163635,313.0135193,269.2397766,315.293457z M209.6608429,345.9081421c0.7163544,0.2558594,0.7345123,2.0107727,0.9213104,2.6493225c0.4987488,1.7048645,1.3794098,2.9491272,2.7993317,4.0291138c3.1324158,2.3824768,7.342514,3.3179321,11.1294098,4.0689697c8.718277,1.7289734,17.7431793,2.0136414,26.6083984,1.9819946c7.8614502-0.0280457,15.7342834-0.4338074,23.5582275-1.2003479c8.9741516-0.8792419,18.2392578-1.9850464,26.7894897-4.9664001c2.5415039-0.8861694,7.2409058-2.3430176,7.6004333-5.5416565c0.1773071-1.5774841-2.333374-6.2505798,1.2809448-4.0679321c4.0116272,2.4225159,3.4917908,7.4746399,1.0063171,10.7322388c-2.5689697,3.3670654-6.6481323,5.4910889-10.4479065,7.1612854c-15.1055603,6.6397705-32.9374695,8.1817627-49.2953033,7.8457031c-10.2642975-0.2108765-20.9045258-1.2319336-30.5889435-4.8435974c-4.395752-1.6393433-9.1899261-3.9942017-11.896759-7.9905396C207.8334045,353.8582458,205.5947266,346.3345032,209.6608429,345.9081421z"/></svg>