<svg version="1.1" xmlns="http://www.w3.org/2000/svg" width="415px" height="512px"><path d="m231.37781 267.57445c-3.3702 1.8594-9.34777 16.23497-8.51684 22.29587 0.8309 6.0609 6.23186 10.60678 13.2946 10.39032 10.62333-1.11355 14.85737-14.92766 14.12549-21.43003-1.54366-9.99406-10.90912-15.53704-18.90325-11.25616zm-117.03445-4.14984c2.85324 0.6248 11.24258 5.59673 11.71629 16.70477 0.48676 11.41387 6.84028 8.75468 0.73011 13.39014-10.15136 6.28924-24.77491 2.77962-29.417464-7.43404-1.81577-4.18921-0.293274-14.31161 2.442339-17.21206 2.878655-3.05232 11.393585-6.13527 14.528725-5.44881zm-66.538229 133.78374c-8.415237 1.0392-37.349282 10.7924-43.996584 19.4508-6.6473016 8.6587-4.7421142 16.705 6.8906579 14.1075 5.816376-1.299-1.7268517-8.4843 5.461747-8.4357 1.52233 0-0.341691 6.6398 3.425496 8.2682 3.260161 1.4094 14.501992 2.179 14.522659-1.6152 0.02083-4.4063 7.596395-8.0657 11.488417-6.3072 4.391798 1.9844 0.943093 9.1678 5.93446 8.6584 5.573019-0.5687 4.464153-11.187 9.164496-11.379 4.759656-0.1938-4.427444-23.793-12.891349-22.7478zm266.45567-3.274c-2.49274 3.0307 9.37523 32.115 0.8309 38.5306-8.07415 6.0628-20.23405 18.413-16.20278 21.2136 3.73911 2.5975 11.05746 4.2857 17.2893-1.7752 6.4429-6.2663 9.38339-7.7239 12.70705-4.2603 3.32364 3.4634 0.24738 14.7452 10.51672 13.8462 9.68583-0.8479 6.60018-11.0853 10.15528-13.0239 3.08566-1.6827 10.70505 18.8242 19.02745 18.5596 3.86769-0.1229 8.96262-9.958 6.14703-13.5283-4.46384-5.6604-3.97223-8.1361-1.36316-7.7773 2.03046 0.2789 12.88366 20.231 17.46644 21.1931 4.01675 0.8433 7.31835-13.4006 3.2473-16.5054-2.18391-1.6654-16.39515-13.262-11.77127-11.9359 3.40808 0.9775 18.83266 16.0295 23.7828 16.7216 4.3724 0.6113 5.04151-1.519 4e-3 -8.4597-4.71951-6.5021-42.40978-27.138-52.65362-32.2589-9.90744-4.9527-2.2076-28.33237-2.2076-28.33237-11.76813 1.33273-28.3365-1.85877-36.97601 7.79257zm-164.31126 2.203c-2.10553 8.614 5.8495 27.4717 7.84685 29.3086 1.69233 1.5563 25.19521 1.3984 26.9089-0.2973 1.99735-1.9763 10.85226-23.1423 8.55249-29.9643-7.05797-9.05715-41.02251-7.0813-43.30824 0.953zm-95.917278-182.59993c-13.221499-2.12842-21.607444-16.08038-26.558727-26.68081-4.97568 25.43459-5.804439 51.83909-5.277558 65.5647 0.830905 21.64634 1.625414 55.46316 7.478915 75.33046 5.619915 19.07438 42.992885 93.12058 49.854064 105.63258 5.971753 10.8901 16.053425 29.1714 22.774494 34.8962 1.67211 3.1088 1.64496 4.9926-0.76905 8.5043-2.937715 3.9796-7.049135 7.0397-4.992717 16.2233 2.056397 9.1839 3.818567 10.7168 7.637607 9.7984 3.81902-0.9185 5.57947-3.3662 5.2857-8.2642-0.29377-4.8982-0.2929-13.4722 1.17595-11.023 1.46887 2.4489 5.58114 6.4296 6.16869 14.0828s4.7017 14.6943 11.45846 14.3883c6.75676-0.3063 4.69891-5.5126 3.52381-9.7984-1.17507-4.2857-5.28889-13.1627-4.11382-14.6933 1.1751-1.5307 6.75727 7.3457 10.28251 12.2439 3.52527 4.8979 7.05035 10.4094 13.51332 10.1034 6.00406-0.2844 8.88859-2.2115 5.98152-8.3661 3.43187-0.2744 6.17555-2.4826 8.39853-4.0649 7.6131 2.1234 14.18405-2.8729 10.51443-7.8411 4.87007-2.7336 6.90334-8.3134 10.37609-12.1543 0.75665 5.2209-1.7591 12.6916-4.1829 19.1733-0.93053 2.443-5.58221 10.2401 3.10062 10.4412 8.97657 0.2021 10.75624-15.2639 11.85723-17.7492 0.93593-2.1127 3.73946-6.9784 3.73946-6.9784s4.56707-6e-4 7.0598 3.4628c2.49273 3.4633-0.15667 11.103 0.41504 12.9885 0.48674 1.6048 5.52535 8.7142 8.30901 6.494 6.16459-4.2994 5.34227-14.8639 2.90936-20.3492-1.66456-3.5959-11.16708-11.3793-10.57953-11.9916 8.6747 5.6088 14.05549 13.4064 14.78287 19.735 1.24637 3.8963 6.60576 4.0728 9.50531 3.0803 2.99839-1.0265-1.39172-14.5348-2.9053-19.0473-1.38891-4.1409-12.20128-4.8901-14.5428-5.1961-1.516-1.4171-0.71989-3.5953 4.11788-6.6936 23.13991-12.7868 45.05347-33.7608 61.25556-52.141 9.81613-13.2091 17.95009-28.70034 24.3777-41.76882 20.02645-34.46766 27.21215-76.93167 33.01224-109.08723l10.25402 1.83919c-3.74218 43.80944-20.24109 88.43159-38.48104 120.93632 6.62055-4.82089 13.20235-8.20342 18.88448-8.32926 19.111-0.43292 29.91316 3.89921 36.56046-5.19214 24.87137-26.08987 44.36315-52.85328 45.69954-85.72281 2.49271-20.78064 4.98463-51.51902 0.83009-66.6715-4.04494-14.75266-21.6008-51.08474-35.72631-73.59698-14.37938-22.91688-53.17895-78.790953-77.2754-101.30319-23.63945-22.08524-55.03806-43.93956-87.71775-43.75064-32.67968 0.18896-60.93486 10.80155-77.51852 23.77138-9.68996 7.57833-37.026782 40.7085-60.510934 72.64889 11.173164 15.422363 18.575703 31.864733 30.892274 47.241733 17.0491-17.07052 44.98803-33.42247 65.98587-34.11902 39.36942-0.77351 62.89165 24.2541 77.48908 50.02902 4.18072 7.38196 17.65399-8.34484 21.42763-16.18263 9.33431-21.00819 28.99605-33.26805 48.47059-23.76732 8.83554 4.03169 17.76961 14.58143 19.62505 29.56576 0.20834 28.68404-7.50433 60.9092-33.59412 76.40464-5.29682 2.86395-9.93554 5.10383-15.12466 6.77497 4.98178 31.50028 0.66261 67.0215-4.46784 94.61764-1.61989 14.91078-11.93863 24.86068-20.13774 34.75392-15.56438 15.96038-23.6038 38.45808-34.78228 55.48558-13.54319 16.7287-20.16742 31.8556-37.44344 40.1615-8.07757 4.1653-19.4479 16.1346-28.29631 22.3355-4.62301-7.2712-17.64769-9.2354-23.8324-21.2284-0.4633-3.3336-24.43129-40.3559-35.78329-58.7-14.382385-19.42856-30.245516-44.12571-40.30398-63.59134-12.57747-35.67122-5.638582-76.22603 1.92873-111.45546-2.499298-4.14221-6.635198-9.3715-11.995568-11.21023zm-14.221364-94.19486c-7.184161 17.1194-9.576583 36.46721-5.537998 54.30153 3.152639 10.80268 9.015724 25.16636 19.759341 29.47624 6.764657 0 11.206851 4.51353 14.473616 8.23982 6.442674-20.94887 16.352636-43.7401 29.405883-59.98876-9.894546-13.30379-22.196951-26.87439-27.257506-42.68163-1.472141-3.78671-3.54708-4.67493-6.811574-5.02935-11.045204 0.14605-20.346097 6.78585-24.031762 15.68215zm131.19039 0.61443c-27.79033 3.65395-46.88764 17.71144-64.74273 38.13516-14.971851 22.54156-25.899866 49.94432-30.782398 72.05891-4.445924 29.95018-15.470565 73.94504-2.124044 101.27054 11.393478 22.0492 31.302712 52.31599 46.818532 71.88805 11.3386 13.6148 18.7401 36.9146 34.67648 41.5003 13.31423 4.4813 27.11867 7.4378 37.26849 0.7081 12.85731-8.6695 21.63881-23.0659 28.97573-34.0702 10.93784-20.2466 20.02567-38.43433 35.42519-56.34828 4.71437-7.13404 13.74503-13.80036 16.0036-21.59461 4.16652-24.2461 9.29101-51.80327 8.70369-73.011-0.71296-13.18819 0.0337-21.78378-5.52576-37.50852-14.07566-24.89179-26.84459-46.72465-43.16862-66.8505-12.97591-15.94775-27.89588-36.6536-61.52816-36.17795zm108.29382 27.65328c-5.50523 10.5163-13.67828 16.39347-24.75207 20.44701 10.22045 19.14423 28.37925 33.33772 33.79346 53.5895 0.14479-0.0494 0.12937-0.0227 0.27671-0.0773 26.75454-12.17872 41.82997-43.05478 38.91642-71.09859-2.37003-12.57709-11.02397-22.96083-23.10813-24.10922-10.92114 0.44559-21.3441 13.27831-25.12639 21.24859zm-136.65107 335.98198c3.86073 2.6525 7.56746 6.0867 11.30791 8.5165l-0.48015 3.0803c-4.01592-4.7618-7.98125-7.2516-10.82776-11.5968z" fill-rule="evenodd"/></svg>