<svg xmlns="http://www.w3.org/2000/svg" width="415" height="512"><path fill-rule="evenodd" d="M231.378 267.574c-3.37 1.86-9.348 16.235-8.517 22.296.83 6.061 6.232 10.607 13.295 10.39 10.623-1.113 14.857-14.927 14.125-21.43-1.544-9.993-10.91-15.536-18.903-11.256zm-117.035-4.15c2.854.625 11.243 5.597 11.717 16.705.486 11.414 6.84 8.755.73 13.39-10.152 6.29-24.775 2.78-29.418-7.434-1.815-4.189-.293-14.311 2.443-17.212 2.878-3.052 11.393-6.135 14.528-5.448zM47.805 397.209c-8.415 1.04-37.35 10.793-43.996 19.451-6.648 8.659-4.743 16.705 6.89 14.108 5.817-1.3-1.727-8.485 5.462-8.436 1.522 0-.342 6.64 3.425 8.268 3.26 1.41 14.502 2.18 14.523-1.615.02-4.406 7.597-8.066 11.489-6.307 4.391 1.984.943 9.168 5.934 8.658 5.573-.569 4.464-11.187 9.164-11.379 4.76-.194-4.427-23.793-12.89-22.748zm266.456-3.274c-2.493 3.031 9.375 32.115.83 38.53-8.073 6.064-20.233 18.414-16.202 21.215 3.739 2.597 11.057 4.285 17.29-1.776 6.442-6.266 9.383-7.724 12.706-4.26 3.324 3.463.248 14.745 10.517 13.846 9.686-.848 6.6-11.085 10.155-13.024 3.086-1.682 10.705 18.825 19.028 18.56 3.867-.123 8.962-9.958 6.147-13.528-4.464-5.66-3.972-8.136-1.363-7.778 2.03.28 12.883 20.231 17.466 21.193 4.017.844 7.318-13.4 3.247-16.505-2.184-1.665-16.395-13.262-11.77-11.936 3.407.978 18.832 16.03 23.782 16.722 4.372.611 5.041-1.52.004-8.46-4.72-6.502-42.41-27.138-52.654-32.259-9.907-4.953-2.207-28.332-2.207-28.332-11.768 1.333-28.337-1.859-36.976 7.792zm-164.311 2.203c-2.106 8.614 5.849 27.472 7.846 29.309 1.693 1.556 25.196 1.398 26.91-.297 1.997-1.977 10.852-23.143 8.552-29.965-7.058-9.057-41.023-7.081-43.308.953zm-95.918-182.6c-13.221-2.128-21.607-16.08-26.558-26.68-4.976 25.434-5.805 51.839-5.278 65.564.83 21.647 1.625 55.463 7.479 75.33 5.62 19.075 42.993 93.121 49.854 105.633 5.972 10.89 16.053 29.172 22.774 34.897 1.673 3.108 1.645 4.992-.769 8.504-2.937 3.98-7.049 7.04-4.992 16.223 2.056 9.184 3.818 10.717 7.637 9.799 3.82-.919 5.58-3.367 5.286-8.265-.294-4.898-.293-13.472 1.176-11.023 1.469 2.45 5.581 6.43 6.169 14.083s4.701 14.694 11.458 14.388c6.757-.306 4.699-5.512 3.524-9.798-1.175-4.286-5.289-13.163-4.114-14.693 1.175-1.531 6.757 7.345 10.283 12.244 3.525 4.898 7.05 10.409 13.513 10.103 6.004-.284 8.889-2.211 5.981-8.366 3.432-.274 6.176-2.483 8.399-4.065 7.613 2.123 14.184-2.873 10.514-7.841 4.87-2.734 6.904-8.313 10.376-12.154.757 5.22-1.759 12.691-4.182 19.173-.93 2.443-5.583 10.24 3.1 10.441 8.977.202 10.756-15.264 11.857-17.75.936-2.112 3.74-6.977 3.74-6.977s4.567-.001 7.06 3.462c2.492 3.464-.157 11.103.415 12.989.486 1.605 5.525 8.714 8.309 6.494 6.164-4.3 5.342-14.864 2.91-20.35-1.665-3.595-11.168-11.379-10.58-11.99 8.674 5.608 14.055 13.405 14.782 19.734 1.247 3.896 6.606 4.073 9.506 3.08 2.998-1.026-1.392-14.534-2.906-19.047-1.388-4.14-12.2-4.89-14.542-5.196-1.516-1.417-.72-3.595 4.118-6.694 23.14-12.786 45.053-33.76 61.255-52.14 9.816-13.21 17.95-28.701 24.378-41.77 20.026-34.467 27.212-76.931 33.012-109.087l10.254 1.84c-3.742 43.809-20.241 88.431-38.481 120.936 6.62-4.821 13.202-8.204 18.884-8.33 19.111-.432 29.914 3.9 36.561-5.192 24.871-26.09 44.363-52.853 45.7-85.722 2.492-20.781 4.984-51.52.83-66.672-4.045-14.753-21.601-51.085-35.727-73.597-14.38-22.917-53.179-78.79-77.275-101.303-23.64-22.085-55.038-43.94-87.718-43.75-32.68.188-60.935 10.8-77.518 23.77-9.69 7.579-37.027 40.71-60.511 72.65 11.173 15.422 18.575 31.864 30.892 47.241 17.049-17.07 44.988-33.422 65.986-34.119 39.37-.773 62.891 24.254 77.489 50.03 4.18 7.381 17.654-8.346 21.428-16.183 9.334-21.009 28.996-33.268 48.47-23.768 8.836 4.032 17.77 14.582 19.625 29.566.209 28.684-7.504 60.91-33.594 76.405-5.297 2.864-9.935 5.104-15.125 6.775 4.982 31.5.663 67.021-4.467 94.617-1.62 14.911-11.94 24.861-20.138 34.754-15.565 15.96-23.604 38.458-34.782 55.486-13.544 16.729-20.168 31.855-37.444 40.161-8.077 4.166-19.448 16.135-28.296 22.336-4.623-7.271-17.648-9.236-23.833-21.229-.463-3.333-24.43-40.355-35.783-58.7-14.382-19.428-30.245-44.125-40.304-63.59-12.577-35.672-5.638-76.227 1.929-111.456-2.5-4.143-6.635-9.372-11.996-11.21zm-14.221-94.194c-7.184 17.119-9.577 36.467-5.538 54.301 3.153 10.803 9.016 25.166 19.76 29.476 6.764 0 11.206 4.514 14.473 8.24 6.443-20.949 16.352-43.74 29.406-59.989-9.895-13.303-22.197-26.874-27.258-42.681-1.472-3.787-3.547-4.675-6.811-5.03-11.046.146-20.346 6.786-24.032 15.683zm131.19.614c-27.79 3.654-46.887 17.711-64.742 38.135-14.972 22.542-25.9 49.944-30.783 72.06-4.446 29.95-15.47 73.944-2.124 101.27 11.394 22.049 31.303 52.316 46.819 71.888 11.338 13.614 18.74 36.914 34.676 41.5 13.314 4.481 27.119 7.438 37.269.708 12.857-8.67 21.638-23.066 28.975-34.07 10.938-20.247 20.026-38.434 35.426-56.348 4.714-7.134 13.745-13.8 16.003-21.595 4.167-24.246 9.291-51.803 8.704-73.011-.713-13.188.034-21.784-5.526-37.509-14.076-24.891-26.845-46.724-43.169-66.85-12.975-15.948-27.895-36.654-61.528-36.178zm108.294 27.653c-5.505 10.517-13.678 16.394-24.752 20.447 10.22 19.145 28.38 33.338 33.793 53.59.145-.05.13-.023.277-.078 26.755-12.178 41.83-43.054 38.917-71.098-2.37-12.577-11.024-22.96-23.109-24.11-10.92.446-21.344 13.279-25.126 21.25zM142.644 483.592c3.86 2.653 7.567 6.087 11.308 8.517l-.48 3.08c-4.016-4.762-7.981-7.252-10.828-11.597z"/></svg>