<svg xmlns="http://www.w3.org/2000/svg" width="512" height="512"><path d="M55.156 248.581c1.436-7.967-2.535-15.098-10.912-14.423-11.363.917-19.27 24.568 4.904 32.438 19.818 6.453 34.247-8.485 57.08-31.534 51.017-51.5 112.62-56.495 150.188-4.506 15.484-28.493 76.52-75.99 169.716 22.532 34.236 36.192 64.826 2.156 48.067-16.523-7.624-8.497-22.525 3.369-15.021 12.016h-1.503c-34.978-31.02 38.085-60.006 52.563-7.51 14.96 79.017-68.393 91.862-135.167 63.077-129.057-64.588-130.434-47.237-255.335 6.009-38.332 15.713-85.277 6.735-104.227-11.434-22.507-21.578-21.115-72.856 8.103-83.188 29.82-11.962 55.048 13.647 31.544 33.046z"/></svg>