<svg version="1.1" xmlns="http://www.w3.org/2000/svg" width="408px" height="512px"><path d="M397.6039429,76.4978104h-48.365387c-11.817749-49.7380981-79.4342346-36.9720306-77.9454651-8.6629028c0.5642395,42.364357,90.8006592,21.3692703,124.48703,68.0396042c30.690918,49.2371063-5.3418274,115.2393799-82.2770386,115.037384c-60.1751862-0.9466248-94.5617371-37.6143341-94.2800293-79.3703156h47.5446777c10.9215698,34.1959076,58.213501,47.2383118,83.874176,20.4112549c9.2921753-13.7349701,12.7682495-32.3684998-39.927063-43.8245087c-62.7950134-13.6517181-90.0728149-30.294487-90.8308411-78.2481232C222.8884735,32.544281,249.2481842,6.8647065,292.9851074,0h27.1977234C361.2591553,4.4863391,391.7620544,29.3961697,397.6039429,76.4978104z M0,0h69.3507156l36.6131668,143.1241913L133.2641754,0h78.4926147l0.0455933,248.9512787h-47.3053131l-3.1004944-136.0568848l-28.0640106,136.0568848H83.0635605L49.2317123,112.8943939l-0.2963676,136.0568848H0V0z M103.8778992,451.3382263c33.5063782-1.7054138,35.1165924-51.2371521,37.8735352-88.5617371c2.3303528-31.5494995,24.8687439-61.2321472,71.2250214-59.8971558c7.6372223-15.6506653,19.8226166-28.8505249,34.0028076-38.835907C129.3097229,229.0518188,60.0282516,334.9056702,103.8778992,451.3382263z M272.2391968,397.0567932c-86.6949921-15.1938782-80.9690704-148.7989655,46.7011414-137.219574c51.4433899,6.6105957,76.6083374,34.0263062,79.9744568,77.0107727h-47.852417c-8.9422913-54.1676636-99.7803497-37.4040222-87.9650879-2.3710022C275.7709351,368.828949,274.7270813,367.9292603,272.2391968,397.0567932z M185.4823914,315.5548706c44.7028809,82.2134094,6.1058502,195.0354614-104.6074219,189.9735413L0,502.2341614v-236.036377l87.771286-2.2227783c14.4879608-0.0455933,29.7429886,3.1725464,43.5356293,7.6636963c-8.5889053,5.8850098-25.2895432,21.6313171-32.0341721,41.8302002H48.6845665v145.9966736c0,0,50.9301491,0.17099,60.8357658,0c27.5680771-5.9863586,39.4032059-34.9824219,39.868721-77.7720032C149.7189026,351.3747559,158.3635712,326.7333679,185.4823914,315.5548706z M270.449585,327.3413391c1.4948425-12.8501892,23.0028381-18.5062866,45.0026855-15.7532654c26.3037415,48.3088989,24.1774597,97.3788757-0.6611023,147.0567932c-20.9547729,2.4888611-46.3589478-6.7998657-43.8970642-21.6350403C294.2308655,366.1696167,275.3565063,365.3213501,270.449585,327.3413391z M312.2947998,466.3277283c51.5485535,1.4241638,58.7059631-36.9077759,26.1490173-51.4544983c3.1330872-16.8726807,4.1524048-32.6244507,2.3139648-46.8607483c82.7856445,16.1728516,72.9091797,88.103302,51.0783386,110.7514038c-48.5106812,55.1543274-187.8416901,37.3403015-180.4554901-50.7705688h46.8037567C262.2080688,454.5504456,278.6306152,466.2551575,312.2947998,466.3277283z M154.2494965,500.6326294c7.7812805-6.159729,24.6603851-19.784668,35.4960785-38.1235352c6.1325836-0.957489,13.2680206-0.9602966,18.7739258,0.1026001c8.0932007,18.4661865,23.6298676,32.3499756,40.3063812,43.0534973C218.4916534,515.4607544,188.6709747,513.9813843,154.2494965,500.6326294z"/></svg>