<svg version="1.1" xmlns="http://www.w3.org/2000/svg" width="512px" height="512px"><path d="M512,354.5478516c0,15.1922302-12.3207397,27.521698-27.5258484,27.521698c-15.1968384,0-27.5171204-12.1861572-27.5171204-27.521698c0-15.335144-0.5292664-21.3340149-5.0744934-27.5212708c-4.4822693-6.1109924-14.6578979-8.9282532-22.420105-8.9282532c-15.6135559,0-27.5212402-12.3161621-27.5212402-27.5171204c0-15.2055664,12.3202515-27.5212402,27.5212402-27.5212402c15.2009583,0,27.521698,12.289032,27.521698,27.5212402c0,15.2276001-1.7320862,22.9539795,3.7733765,28.5935974c5.4512329,5.5950317,8.3227234,7.8563843,23.7166443,7.8563843C499.8768005,327.031189,512,339.3514709,512,354.5478516z M82.5375748,324.3076477c-15.3893356,0-18.2700119-2.2613831-23.7166481-7.8518066c-5.5054436-5.6350098-3.7779579-13.356781-3.7779579-28.5889893c0-15.2326965-12.3202896-27.5217285-27.5212536-27.5217285S0,272.6612854,0,287.8668518c0,15.1963806,11.9169025,27.5212402,27.5217152,27.5212402c7.7663403,0,17.9419727,2.8131104,22.4242496,8.9195557c4.5406494,6.1959534,5.0703583,12.1861267,5.0703583,27.521698c0,15.3397217,12.3202858,27.5258484,27.5212517,27.5258484s27.5212555-12.3253479,27.5212555-27.5258484C110.0588303,336.6283875,97.9356689,324.3076477,82.5375748,324.3076477z M150.7622833,324.3076477c-15.4072571,0-18.2787476-2.2613831-23.7258148-7.8518066c-5.5096054-5.6350098-3.7775269-13.356781-3.7775269-28.5889893c0-15.2326965-12.3207474-27.5217285-27.5217133-27.5217285s-27.5212555,12.3161621-27.5212555,27.5217285c0,15.1963806,11.9077148,27.5212402,27.5212555,27.5212402c7.7622299,0,17.9378357,2.8131104,22.4247131,8.9195557c4.5406265,6.1959534,5.0698929,12.1861267,5.0698929,27.521698c0,15.3397217,12.3202896,27.5258484,27.5304489,27.5258484c15.1917725,0,27.5171204-12.3253479,27.5171204-27.5258484C178.2794037,336.6283875,166.1516113,324.3076477,150.7622833,324.3076477z M217.573761,324.3076477c-15.3939362,0-18.2654266-2.2613831-23.716629-7.8518066c-5.5054779-5.6350098-3.7733917-13.356781-3.7733917-28.5889893c0-15.2326965-12.3207245-27.5217285-27.5212555-27.5217285c-15.2009583,0-27.5217133,12.3161621-27.5217133,27.5217285c0,15.1963806,11.9077454,27.5212402,27.5217133,27.5212402c7.7617493,0,17.9378357,2.8131104,22.4196625,8.9195557c4.5452118,6.1959534,5.0744934,12.1861267,5.0744934,27.521698c0,15.3397217,12.3207397,27.5258484,27.5171204,27.5258484c15.2055511,0,27.5258484-12.3253479,27.5258484-27.5258484C245.0996094,336.6283875,232.9764099,324.3076477,217.573761,324.3076477z M217.573761,132.034668c-15.3939362,0-18.2654266-2.2613525-23.716629-7.8563843c-5.5054779-5.6396408-3.7733917-13.3655167-3.7733917-28.5935898c0-15.2322083-12.3207245-27.5212555-27.5212555-27.5212555c-15.2009583,0-27.5217133,12.3156967-27.5217133,27.5212555c0,15.2009659,11.9077454,27.5171204,27.5217133,27.5171204c7.7617493,0,17.9378357,2.8177338,22.4196625,8.9282608c4.5452118,6.1872559,5.0744934,12.1861267,5.0744934,27.5217133s12.3207397,27.521225,27.5171204,27.521225c15.2055511,0,27.5258484-12.3294525,27.5258484-27.521225C245.0996094,144.3549652,232.9764099,132.034668,217.573761,132.034668z M283.6313171,132.034668c-15.3981018,0-18.2741699-2.2613525-23.721283-7.8563843c-5.5049744-5.6396408-3.7733459-13.3655167-3.7733459-28.5935898c0-15.2322083-12.3294525-27.5212555-27.5212555-27.5212555c-15.2009735,0-27.5258484,12.3156967-27.5258484,27.5212555c0,15.2009659,11.9123383,27.5171204,27.5258484,27.5171204c7.762207,0,17.9378357,2.8177338,22.4155121,8.9282608c4.5452271,6.1872559,5.0744934,12.1861267,5.0744934,27.5217133s12.3248901,27.521225,27.5258789,27.521225c15.1963501,0,27.521698-12.3294525,27.521698-27.521225C311.1530151,144.3549652,299.0252075,132.034668,283.6313171,132.034668z M335.3539124,288.7103882c0,15.2009583,12.3207397,27.5212402,27.521698,27.5212402s27.5212708-12.1815491,27.5212708-27.5212402c0-15.3356018,0.533844-21.3344727,5.0698853-27.5171204c4.4868774-6.1197205,14.6625061-8.9241333,22.4247131-8.9241333c15.6089478,0,27.5258484-12.3156891,27.5258484-27.5166626c0-15.2101593-12.3294678-27.5258789-27.5258484-27.5258789c-15.2009583,0-27.5258484,12.2932129-27.5258484,27.5258789c0,15.2276154,1.7362061,22.9493866-3.7733765,28.5935822c-5.4425049,5.5812531-8.318573,7.8472137-23.7166443,7.8472137C347.4770813,261.1932678,335.3539124,273.5140076,335.3539124,288.7103882z M267.1383972,288.7103882c0,15.2009583,12.320282,27.5212402,27.5166626,27.5212402c15.2055664,0,27.5258484-12.1815491,27.5258484-27.5212402c0-15.3356018,0.5343018-21.3344727,5.0744934-27.5171204c4.4735413-6.1197205,14.6537476-8.9241333,22.4201355-8.9241333c15.609375,0,27.5216675-12.3156891,27.5216675-27.5166626c0-15.2101593-12.3207397-27.5258789-27.5216675-27.5258789c-15.2009888,0-27.5213013,12.2932129-27.5213013,27.5258789c0,15.2276154,1.7275085,22.9493866-3.7687683,28.5935822c-5.45578,5.5812531-8.3272705,7.8472137-23.7304077,7.8472137C279.2657166,261.1932678,267.1383972,273.5140076,267.1383972,288.7103882z M200.3135834,288.7103882c0,15.2009583,12.3202972,27.5212402,27.5212555,27.5212402c15.2009735,0,27.5212555-12.1815491,27.5212555-27.5212402c0-15.3356018,0.5297699-21.3344727,5.0745087-27.5171204c4.4776611-6.1197205,14.6578979-8.9241333,22.420105-8.9241333c15.6135254,0,27.5212402-12.3156891,27.5212402-27.5166626c0-15.2101593-12.320282-27.5258789-27.5212402-27.5258789s-27.5212555,12.2932129-27.5212555,27.5258789c0,15.2276154,1.7316132,22.9493866-3.7692261,28.5935822c-5.4557953,5.5812531-8.3272858,7.8472137-23.7253876,7.8472137C212.4363251,261.1932678,200.3135834,273.5140076,200.3135834,288.7103882z M69.6829605,222.6569824c0,15.2055511,12.3161545,27.5217133,27.5217133,27.5217133c15.196373,0,27.5166626-12.1769867,27.5166626-27.5217133c0-15.3355865,0.5338669-21.3252869,5.0790787-27.5212555c4.4776917-6.1063995,14.6533508-8.9195404,22.4201202-8.9195404c15.6089478,0,27.5166626-12.311554,27.5166626-27.5217133c0-15.2009583-12.320282-27.5258789-27.5166626-27.5258789c-15.1963654,0-27.5258484,12.2982635-27.5258484,27.5258789c0,15.2368011,1.7316208,22.9498444-3.7733383,28.5940399c-5.4512558,5.5904541-8.3227463,7.8472137-23.7166748,7.8472137C81.8061523,195.1357269,69.6829605,207.4606018,69.6829605,222.6569824z M267.1383972,416.4152832c0,15.2009888,12.320282,27.5212708,27.5166626,27.5212708c15.2055664,0,27.5258484-12.1769409,27.5258484-27.5212708c0-15.3447571,0.5343018-21.3431702,5.0744934-27.5350037c4.4735413-6.1018066,14.6537476-8.9149475,22.4201355-8.9149475c15.609375,0,27.5216675-12.3207397,27.5216675-27.5217285c0-15.1917725-12.3207397-27.5166626-27.5216675-27.5166626c-15.2009888,0-27.5213013,12.2890625-27.5213013,27.5166626c0,15.232666,1.7275085,22.9585876-3.7687683,28.598175c-5.45578,5.5863342-8.3272705,7.8518066-23.7304077,7.8518066C279.2657166,388.8935852,267.1383972,401.2097473,267.1383972,416.4152832z M200.3135834,416.4152832c0,15.2009888,12.3202972,27.5212708,27.5212555,27.5212708c15.2009735,0,27.5212555-12.1769409,27.5212555-27.5212708c0-15.3447571,0.5297699-21.3431702,5.0745087-27.5350037c4.4776611-6.1018066,14.6578979-8.9149475,22.420105-8.9149475c15.6135254,0,27.5212402-12.3207397,27.5212402-27.5217285c0-15.1917725-12.320282-27.5166626-27.5212402-27.5166626s-27.5212555,12.2890625-27.5212555,27.5166626c0,15.232666,1.7316132,22.9585876-3.7692261,28.598175c-5.4557953,5.5863342-8.3272858,7.8518066-23.7253876,7.8518066C212.4363251,388.8935852,200.3135834,401.2097473,200.3135834,416.4152832z"/></svg>