<svg xmlns="http://www.w3.org/2000/svg" width="512" height="512"><path d="M512 354.548c0 15.192-12.32 27.522-27.526 27.522a27.433 27.433 0 0 1-27.517-27.522c0-15.335-.53-21.334-5.074-27.521-4.483-6.111-14.658-8.929-22.42-8.929-15.614 0-27.522-12.316-27.522-27.517 0-15.205 12.32-27.521 27.521-27.521s27.522 12.289 27.522 27.521c0 15.228-1.732 22.954 3.774 28.594 5.45 5.595 8.322 7.856 23.716 7.856 15.403 0 27.526 12.32 27.526 27.517zm-429.462-30.24c-15.39 0-18.27-2.262-23.717-7.852-5.506-5.635-3.778-13.357-3.778-28.59 0-15.232-12.32-27.52-27.521-27.52S0 272.66 0 287.865c0 15.197 11.917 27.522 27.522 27.522 7.766 0 17.942 2.813 22.424 8.92 4.54 6.196 5.07 12.186 5.07 27.521 0 15.34 12.32 27.526 27.522 27.526s27.52-12.325 27.52-27.526c0-15.2-12.122-27.521-27.52-27.521zm68.224 0c-15.407 0-18.278-2.262-23.726-7.852-5.51-5.635-3.777-13.357-3.777-28.59 0-15.232-12.32-27.52-27.522-27.52s-27.521 12.315-27.521 27.52c0 15.197 11.908 27.522 27.521 27.522 7.762 0 17.938 2.813 22.425 8.92 4.54 6.196 5.07 12.186 5.07 27.521 0 15.34 12.32 27.526 27.53 27.526 15.192 0 27.517-12.325 27.517-27.526 0-15.2-12.127-27.521-27.517-27.521zm66.812 0c-15.394 0-18.266-2.262-23.717-7.852-5.505-5.635-3.773-13.357-3.773-28.59 0-15.232-12.321-27.52-27.522-27.52-15.2 0-27.521 12.315-27.521 27.52 0 15.197 11.908 27.522 27.521 27.522 7.762 0 17.938 2.813 22.42 8.92 4.545 6.196 5.075 12.186 5.075 27.521a27.434 27.434 0 0 0 27.517 27.526c15.205 0 27.526-12.325 27.526-27.526 0-15.2-12.124-27.521-27.526-27.521zm0-192.273c-15.394 0-18.266-2.262-23.717-7.857-5.505-5.64-3.773-13.365-3.773-28.593 0-15.233-12.321-27.522-27.522-27.522-15.2 0-27.521 12.316-27.521 27.522 0 15.2 11.908 27.517 27.521 27.517 7.762 0 17.938 2.818 22.42 8.928 4.545 6.187 5.075 12.186 5.075 27.522s12.32 27.521 27.517 27.521c15.205 0 27.526-12.33 27.526-27.521 0-15.197-12.124-27.517-27.526-27.517zm66.057 0c-15.398 0-18.274-2.262-23.721-7.857-5.505-5.64-3.773-13.365-3.773-28.593 0-15.233-12.33-27.522-27.522-27.522-15.2 0-27.525 12.316-27.525 27.522 0 15.2 11.912 27.517 27.525 27.517 7.763 0 17.938 2.818 22.416 8.928 4.545 6.187 5.074 12.186 5.074 27.522s12.325 27.521 27.526 27.521c15.197 0 27.522-12.33 27.522-27.521 0-15.197-12.128-27.517-27.522-27.517zm51.723 156.675c0 15.201 12.32 27.522 27.522 27.522s27.52-12.182 27.52-27.522c0-15.335.535-21.334 5.07-27.517 4.488-6.12 14.663-8.924 22.425-8.924 15.61 0 27.526-12.316 27.526-27.517 0-15.21-12.33-27.525-27.526-27.525-15.2 0-27.525 12.293-27.525 27.525 0 15.228 1.736 22.95-3.774 28.594-5.442 5.581-8.318 7.847-23.716 7.847-15.399 0-27.522 12.321-27.522 27.517zm-68.216 0c0 15.201 12.32 27.522 27.517 27.522 15.206 0 27.526-12.182 27.526-27.522 0-15.335.534-21.334 5.074-27.517 4.474-6.12 14.654-8.924 22.42-8.924 15.61 0 27.522-12.316 27.522-27.517 0-15.21-12.32-27.525-27.521-27.525s-27.522 12.293-27.522 27.525c0 15.228 1.728 22.95-3.769 28.594-5.455 5.581-8.327 7.847-23.73 7.847-15.39 0-27.517 12.321-27.517 27.517zm-66.824 0c0 15.201 12.32 27.522 27.52 27.522 15.202 0 27.522-12.182 27.522-27.522 0-15.335.53-21.334 5.075-27.517 4.477-6.12 14.658-8.924 22.42-8.924 15.613 0 27.52-12.316 27.52-27.517 0-15.21-12.32-27.525-27.52-27.525s-27.522 12.293-27.522 27.525c0 15.228 1.732 22.95-3.769 28.594-5.456 5.581-8.327 7.847-23.725 7.847-15.399 0-27.521 12.321-27.521 27.517zM69.683 222.657c0 15.206 12.316 27.522 27.522 27.522a27.427 27.427 0 0 0 27.516-27.522c0-15.336.534-21.325 5.08-27.521 4.477-6.107 14.653-8.92 22.42-8.92 15.608 0 27.516-12.311 27.516-27.522 0-15.2-12.32-27.525-27.516-27.525-15.197 0-27.526 12.298-27.526 27.525 0 15.237 1.731 22.95-3.774 28.595-5.45 5.59-8.322 7.847-23.716 7.847-15.399 0-27.522 12.325-27.522 27.521zm197.455 193.758c0 15.201 12.32 27.522 27.517 27.522 15.206 0 27.526-12.177 27.526-27.522 0-15.344.534-21.343 5.074-27.535 4.474-6.102 14.654-8.915 22.42-8.915 15.61 0 27.522-12.32 27.522-27.521 0-15.192-12.32-27.517-27.521-27.517s-27.522 12.289-27.522 27.517c0 15.232 1.728 22.958-3.769 28.598-5.455 5.586-8.327 7.852-23.73 7.852-15.39 0-27.517 12.316-27.517 27.521zm-66.824 0c0 15.201 12.32 27.522 27.52 27.522 15.202 0 27.522-12.177 27.522-27.522 0-15.344.53-21.343 5.075-27.535 4.477-6.102 14.658-8.915 22.42-8.915 15.613 0 27.52-12.32 27.52-27.521 0-15.192-12.32-27.517-27.52-27.517s-27.522 12.289-27.522 27.517c0 15.232 1.732 22.958-3.769 28.598-5.456 5.586-8.327 7.852-23.725 7.852-15.399 0-27.521 12.316-27.521 27.521z"/></svg>