<svg xmlns="http://www.w3.org/2000/svg" width="512" height="512"><path d="M511.31 58.832c-5.611 36.685-47.118 54.658-77.515 35.635l-32.494 32.49c114.438 126.46 55.254 332.993-111.943 377.216C118.557 549.35-38.015 391.566 8.205 220.845 53.37 54.019 259.375-4.001 384.999 110.584l32.4-32.4c-16.235-25.855-6.165-62.6 24.787-74.649 36.553-14.228 75.047 16.567 69.123 55.297zM338.461 321.24h16.83c2.396-.02 3.01-.738 3.213-3.212v-47.436c6.26-3.155 11.528-4.936 15.687-4.271 4.682.748 6.697 4.099 6.502 11.461v40.246c.027 1.337.164 3.247 3.37 3.212h16.83c2.018-.012 2.959-.659 3.054-3.212v-43.615c.223-13.208-1.702-25.37-13.419-28.819-10.221-3.041-23.205-.487-34.936 9.234-3.132-6.933-9.908-10.027-18.285-10.414-7.58-.35-16.312 2.193-24.26 8.629l.01-3.881c-.165-1.812-.506-3.376-3.346-3.366h-16.718c-1.858-.03-3.177.723-3.191 3.366v68.863c.023 2.21.891 3.21 3.191 3.212h16.718c2.76.034 3.238-1.323 3.346-3.212v-47.436c16.266-8.035 22.55-4.677 22.188 6.732v40.707c.057 2.202.795 3.168 3.216 3.212zm-60.606-67.244c.513-1.958.28-3.317-.689-4.09-9.161-5.606-31.288-7.598-43.69-3.083-11.559 4.209-15.362 13.493-15.606 21.993-.107 16.758 12.263 21.088 30.144 23.322 6.055.792 8.814 1.686 8.568 6.288.33 8.978-20.141 5.354-32.591 3.687-4.424-.827-4.285.595-4.901 2.597l-1.681 7.285c-.776 3.905-.483 5.166 5.2 7.284 22.641 5.993 46.638 4.552 55.011-9.864 4.991-9.07 3.862-24.67-6.148-30.448-6.433-3.987-14.035-4.562-20.157-5.553-6.314-1.25-10.4-1.526-10.183-5.433.338-5.15 2.92-5.552 13.164-5.037 10.898.436 19.062 2.497 20.577 1.531 1.372-.902 1.953-6.042 2.982-10.48zm-80.997-3.03c-8.518-7.535-30.323-8.841-52.604-3.028-3.536 1.64-5.307 2.213-4.898 5.967 1.281 5.342 1.553 10.119 3.29 10.56 5.042.673 20.084-2.583 31.14-.846 4.973 1.167 6.902 2.859 6.578 10.94h-17.599c-21.352-.177-29.616 9.182-29.382 25.401-.028 12.38 3.908 21.939 20.777 22.505 9.55.32 20.455-3.621 28.235-10.614.825 3.173 1.687 5.421 4.38 7.52 2.874 2.239 10.326 3.509 17.545 2.406 4.962-.758 7.967-1.892 7.877-4.668v-9.798c-.059-2.04-.724-2.385-3.216-2.6-5.006-.414-5.658-1.428-5.655-7.348v-24.174c-.631-9.093-.64-17.068-6.468-22.223zm-36.395 53.708c-2.385-.617-3.57-2.206-3.514-5.927-.061-6.81 2.996-9.109 9.186-9.336h13.772v10.256c-6.519 3.779-14.267 6.347-19.444 5.007zm-59.996 13.354c0 2.14.971 3.212 3.219 3.212h16.83c1.333-.079 3.149.033 3.21-3.209V274.57c.272-13.501-2.013-20.495-7.094-25.186-8.684-8.017-26.833-6.062-40.493 3.942v-4.157c-.167-2.768-.999-3.308-3.216-3.366H56.247c-2.545-.007-3.292 1.134-3.366 3.366v68.862c.188 1.268-.014 3.222 3.366 3.213h16.677c1.99-.045 3.057-.37 3.216-3.213v-47.436c12.464-5.463 24.515-8.646 24.328 7.34v40.093z"/></svg>