<svg xmlns="http://www.w3.org/2000/svg" width="512" height="512"><path d="M62.132 127.995c-12.784-11.937-9.956-24.391-5.666-28.683L96.511 59.25c12.157-12.161 23.599-6.438 26.459-3.577 2.86 2.862 39.33 40.777 39.33 40.777v164.538c5.71 126.604 190.215 115.654 190.215-14.308V96.45l38.377-37.438s12.517-13.166 23.481-2.196 41.476 41.492 41.476 41.492 11.32 14.119-3.936 29.38l-34.064 35.029c-1.903 32.757 1.523 47.993 24.749 48.374l53.684.761c7.829 1.982 14.127 5.457 15.094 14.136 0 0 1.678 58.25-.468 64.689-2.145 6.438-7.352 10.95-18.963 11.54h-54.297l-23.225 26.19c-3.412 5.774-3.73 12.187-.62 19.676 0 0 32.332 32.238 42.501 43.553 6.644 7.393 5.144 17.437 2.045 22.206 0 0-35.99 36.48-42.906 43.4-8.104 8.108-21.69.715-21.69.715l-41.476-41.015c-36.03-.793-44.336 3.815-49.103 18.838 0 0-.7 40.896-.7 56.512s-11.958 19.125-19.077 19.125c-7.12 0-34.979.583-53.635.583s-18.12-18.512-18.12-18.512V441.98c0-5.647-21.649-24.083-21.649-24.083-6.488-3.643-17.08-5.598-26.1-1.502 0 0-30.435 30.832-40.446 40.37-10.012 9.538-23.36.477-23.36.477s-33.371-30.523-42.429-40.062-2.384-22.892-2.384-22.892l41-42.923c.953-21.461 2.861-39.784-17.64-48.169H18.09c-25.266 0-16.686-70.823-16.686-70.823 0-19.315 17.162-21.462 17.162-21.462h53.632c6.05 0 16.384-11.052 24.149-20.613C107 177.25 99 159.75 62.132 127.995zM301.6 174.999l-.333-158.91c.923-22.291-90.288-20.9-89.625.953v157.385c38.975-17.698 53.94-15.668 89.958.572z"/></svg>