<svg version="1.1" xmlns="http://www.w3.org/2000/svg" width="486px" height="512px"><path d="M65.5011139,418.1153259c0,0,30.5650558-36.0254822,76.4179688-43.6674194c-28.3848801-1.0914001-38.2089767,7.6419373-45.8529129,1.0914307c-8.7313461-5.4584351,10.9168549-24.0172119,10.9168549-24.0172119S44.7601624,387.5482788,65.5011139,418.1153259z M131.0022278,223.7954865c0,0,44.7601624,37.117569,55.6770172,20.7422791C197.5960999,227.0704041,163.7527924,222.704071,131.0022278,223.7954865z M353.7049561,223.7954865c0,0-44.7601624,37.117569-55.677002,20.7422791C288.2038574,227.0704041,320.9544067,222.704071,353.7049561,223.7954865z M423.5717468,418.1153259c0,0-30.565033-36.0254822-76.4179688-43.6674194c28.3848877-1.0914001,38.2089844,7.6419373,45.8529358,1.0914307c7.6439209-6.5505066-10.9168701-24.0172119-10.9168701-24.0172119S444.3180542,387.5482788,423.5717468,418.1153259z M49.1258392,74.2344666c-2.1855049,7.6419296,1.0927505,27.2921295,1.0927505,27.2921295s15.2825241,19.6502075,21.8337021,39.3003998s8.7313538,31.6591492-10.916851,75.3265533c-15.2825279,30.5670624-16.3752785,54.5842743-20.7409515,63.3176117c-7.6439323,15.2838745-14.1897774,8.7333679-12.0096054,48.0344238c0,0,54.5842628-42.5759888,37.11623-52.4007568c-13.1023521-7.6419373,9.8241043-27.2921295,52.3987656-32.7505646c-17.4680328-16.3752747-3.2729263-40.3924866,26.199379-37.117569c29.4776306,4.3670197,51.3113403,25.1086273,77.5107269,38.2089844c6.551178,3.2749329,9.8240967-9.8254242,4.3656769-16.3752747c-7.6439362-8.7333527-20.7409668-10.9168549-20.7409668-19.6501923c0-6.5498505,19.6482086-10.9168549,15.2825317-21.8337097c-6.551178-17.4667053-32.7505493-4.3670044-39.3017273-15.2838593s-1.0927582-18.5587921,12.0095978-20.7422943s-1.0927582-42.5759888-34.9360657-28.3835449c-33.8433075,14.1917725-45.8529129,3.2749176-66.5938644-17.4666977C77.5107193,88.426239,63.3156128,79.692894,49.1258392,74.2344666z M62.2281952,106.9850235c43.6674118,15.2838593,56.7697678,41.4839096,56.7697678,41.4839096s-13.102356,13.1003571-32.7505646,19.6502075C93.8860016,121.1768036,62.2281952,106.9850235,62.2281952,106.9850235z M432.3084412,74.2344666c2.1855164,7.6419296-1.0927429,27.2921295-1.0927429,27.2921295s-15.2825317,19.6502075-21.8337097,39.3003998s-8.7313538,31.6591492,10.9168396,75.3265533c15.2825317,30.5670624,16.3752747,54.5842743,20.7409668,63.3176117c7.6439209,15.2838745,14.1897583,8.7333679,12.009613,48.0344238c0,0-54.5842896-42.5759888-37.1162415-52.4007568c13.102356-7.6419373-9.8240967-27.2921295-52.3987732-32.7505646c17.4680481-16.3752747,3.2729187-40.3924866-26.1993713-37.117569c-29.4776306,4.3670197-51.3113403,25.1086273-77.5107117,38.2089844c-6.5511932,3.2749329-9.8241119-9.8254242-4.3656921-16.3752747c7.6439209-8.7333527,20.7409668-10.9168549,20.7409668-19.6501923c0-6.5498505-19.6482239-10.9168549-15.2825317-21.8337097c6.551178-17.4667053,32.7505493-4.3670044,39.3017273-15.2838593c6.551178-12.0082703,1.0927429-18.5587921-12.009613-20.7422943s1.0927734-42.5759888,34.9360657-28.3835449s45.8529358,3.2749176,66.5938721-17.4666977C403.9235535,88.426239,417.0259094,79.692894,432.3084412,74.2344666z M419.2060852,106.9850235c-43.6674194,15.2838593-56.7697754,41.4839096-56.7697754,41.4839096s13.102356,13.1003571,32.7505798,19.6502075C386.4555359,121.1768036,419.2060852,106.9850235,419.2060852,106.9850235z M7.643929,0C0,76.4179688,44.7601624,145.1940155,48.0384178,155.0194397c3.2729225,8.7333527,2.1855011,24.0172119-7.6439285,33.84198C10.916853,225.9789886,0,337.3303528,0,379.9063416c1.0927514,42.5759888,12.0096045,48.0344238,12.0096045,48.0344238s1.0927515-5.4584351,7.6439295-15.2838745c1.0927505,20.7423096,7.6439285,60.0426941,46.9403381,97.1602783c10.9168472-87.3348389,88.4275665-90.6097412,110.2612762-87.3348389c1.0927582,10.9168701,21.8337097,68.776062,25.1066284,72.0509644c2.1855011,3.2749329,53.4915161,20.7422791,79.6909027,1.0914307c26.1993713-20.7422791,8.7313538-43.6674194,29.4776306-72.0509644C395.1921997,412.6568909,421.3916016,483.6164551,418.1133423,512c32.7505493-32.7505493,39.3017273-72.0509644,39.3017273-72.0509644s8.7313538,5.4584351,14.1897888,10.9168396c41.4818726-126.6352234-24.0192261-257.6374512-39.3017578-282.7467346c49.1258545-101.5266037,42.5746765-139.7355957,39.3017578-162.661377C436.6687927,36.0248146,360.250824,87.3341599,336.2369385,87.3341599c-24.0191956,0-36.0234985-14.1917801-68.7740479-19.6502075c0,13.1003571-24.0192108,40.3924942-24.0192108,40.3924942s-17.4680176-20.7422867-26.1993713-40.3924942c-30.5650635-1.0914154-49.1258392,24.0172119-73.14505,18.5587845C92.793251,72.0509644,7.643929,0,7.643929,0z M213.9713898,282.7467651c-5.4584351,8.7333374,8.7313385,22.9251099,12.0095978,30.5670471c6.551178,12.0082703-26.1993866,31.6591492-49.1258392,26.2007141c-21.8337097-5.4584351,1.0927582-26.2007141,18.5607758-27.2921448c21.8337097-2.1835022,0-18.5587769-30.5650482-18.5587769s-42.5746613,5.4584351-58.9499435,12.0082703c-16.3752747,6.5498657-39.3017349,10.9168701-82.9691467,49.1258545c-6.551178-82.9678345,31.6578083-147.3775177,38.2089844-156.1108704s13.1023521-20.7422943,7.6439247-32.7505646C41.492569,102.6186829,32.761219,43.6674118,32.761219,43.6674118s32.7505608,25.1086273,69.8667908,50.2172546s62.2281876,15.2838593,101.5246048,2.1835022c10.9168396,58.9512711,40.3944855,82.9678116,40.3944855,82.9678116c24.0192108-20.7422791,32.7505646-58.9512634,29.4776154-69.8681183c-2.1854858-10.9168549-1.0927429-22.9251251,24.0192261-13.1003571c40.3944702,13.1003571,48.0330811,12.0082703,84.0618896-4.3670044c33.8273315-17.4660339,67.6706238-50.2165947,67.6706238-50.2165947s6.551178,16.3752823,2.1855164,24.0172081c-14.8240662,29.6849747-16.3247986,57.77005-28.3848877,80.7849884c-6.551178,9.8254242-14.1897888,20.7422791,10.9168701,65.5011139c25.1066284,44.7588348,38.2089844,141.9190826,25.1066284,141.9190826c-14.1897888,0-34.9360657-36.0254822-63.3156433-48.0344238C363.5,290.3333435,291.3333435,287.5,288.2091675,308.9474792c-1.0927429,6.5498352,9.8241272,4.3670044,25.1066284,8.7333374c16.3753052,4.3670044,13.102356,12.0082703,9.8241272,18.5587769c-3.2729492,7.6419373-18.560791,1.0914307-32.7505798-2.1835022c-14.1897583-3.2749023-31.6578064-9.8254395-29.4776306-15.283844c4.3656921-14.1917725,17.4680481-16.3752747,17.4680481-30.5670776C274.5,265.1666565,223,261.3333435,213.9713898,282.7467651z M213.9607239,473.7923584c-7.6439362-9.8254395-18.560791-61.1341248-29.4776306-73.1430664c-19.6482086-8.7333374-100.4371872,5.4584351-132.0950012,53.4928589c-17.4520378-57.8605347-7.6279373-123.3616333,82.979805-128.8200684c21.8337097,27.2921448,21.8337097,27.2921448,46.9403381,29.475647c9.8240967,27.2921143,4.3656769,36.0254822,36.0234833,91.7018127c0-2.1835022,1.0927582-88.426239,1.0927582-88.426239s9.8240967,2.1835022,8.7313385,10.9168701c1.0927582,9.8254089,0,19.650177,0,19.650177l8.7313538-9.8254089l7.6439362,9.8254089l8.7313385-8.7333374l7.6439209,8.7333374c0,0,1.0927734-14.1917725,1.0927734-20.7422791c0-4.3670044,9.8240967-10.9168396,9.8240967-10.9168396v43.6673889l-5.4584351,48.0344238c0,0,24.0192261-33.84198,31.6578064-88.426239c31.6578064-10.9168396,46.9403381-22.9251099,46.9403381-34.9340515c22.9264526-4.3670044,97.1589355,18.5587769,101.5245972,69.8681335c-1.0927429,26.2007141-12.0095825,55.6756592-12.0095825,55.6756592s-33.8433228-55.6756592-129.9094849-50.2172546c-18.560791,30.5670776-22.9264832,53.4928589-25.1066284,69.8681335C276.1663208,491.7460938,235.272522,497.3014832,213.9607239,473.7923584z M225.9809875,447.5909729h33.8433228v-20.7422791l-9.8241119,9.8254089l-7.6439362-8.7333374l-7.6439209,7.6419373l-8.7313538-8.7333679V447.5909729z"/></svg>