<svg xmlns="http://www.w3.org/2000/svg" width="486" height="512"><path d="M65.501 418.115s30.565-36.025 76.418-43.667c-28.385-1.091-38.209 7.642-45.853 1.091-8.731-5.458 10.917-24.017 10.917-24.017s-62.223 36.026-41.482 66.593zm65.501-194.32s44.76 37.118 55.677 20.743c10.917-17.468-22.926-21.834-55.677-20.743zm222.703 0s-44.76 37.118-55.677 20.743c-9.824-17.468 22.926-21.834 55.677-20.743zm69.867 194.32s-30.565-36.025-76.418-43.667c28.385-1.091 38.209 7.642 45.853 1.091 7.644-6.55-10.917-24.017-10.917-24.017s62.228 36.026 41.482 66.593zM49.126 74.235c-2.186 7.641 1.093 27.292 1.093 27.292s15.282 19.65 21.833 39.3 8.732 31.66-10.917 75.327c-15.282 30.567-16.375 54.584-20.74 63.317-7.644 15.284-14.19 8.734-12.01 48.035 0 0 54.584-42.576 37.116-52.401-13.102-7.642 9.824-27.292 52.399-32.75-17.468-16.376-3.273-40.393 26.2-37.118 29.477 4.367 51.31 25.108 77.51 38.209 6.551 3.275 9.824-9.826 4.366-16.376-7.644-8.733-20.741-10.916-20.741-19.65 0-6.55 19.648-10.917 15.282-21.833-6.551-17.467-32.75-4.368-39.302-15.284s-1.092-18.56 12.01-20.743-1.093-42.576-34.936-28.383c-33.843 14.192-45.853 3.275-66.594-17.467-14.184-15.284-28.38-24.017-42.57-29.476zm13.102 32.75c43.668 15.284 56.77 41.484 56.77 41.484s-13.102 13.1-32.75 19.65c7.638-46.942-24.02-61.134-24.02-61.134zm370.08-32.75c2.186 7.641-1.092 27.292-1.092 27.292s-15.283 19.65-21.834 39.3-8.731 31.66 10.917 75.327c15.282 30.567 16.375 54.584 20.74 63.317 7.645 15.284 14.19 8.734 12.01 48.035 0 0-54.584-42.576-37.116-52.401 13.103-7.642-9.824-27.292-52.399-32.75 17.468-16.376 3.273-40.393-26.199-37.118-29.478 4.367-51.311 25.108-77.51 38.209-6.552 3.275-9.825-9.826-4.366-16.376 7.644-8.733 20.74-10.916 20.74-19.65 0-6.55-19.648-10.917-15.282-21.833 6.551-17.467 32.75-4.368 39.302-15.284 6.551-12.009 1.093-18.56-12.01-20.743s1.093-42.576 34.936-28.383 45.853 3.275 66.594-17.467c14.185-15.284 27.287-24.017 42.57-29.476zm-13.102 32.75c-43.667 15.284-56.77 41.484-56.77 41.484s13.103 13.1 32.75 19.65c-8.73-46.942 24.02-61.134 24.02-61.134zM7.644 0C0 76.418 44.76 145.194 48.038 155.02c3.273 8.733 2.186 24.017-7.644 33.841C10.917 225.98 0 337.331 0 379.906c1.093 42.576 12.01 48.035 12.01 48.035s1.092-5.459 7.644-15.284c1.092 20.742 7.643 60.043 46.94 97.16 10.917-87.335 88.427-90.61 110.261-87.335 1.093 10.917 21.834 68.776 25.107 72.051 2.185 3.275 53.491 20.743 79.69 1.092 26.2-20.743 8.732-43.668 29.478-72.051 84.062-10.917 110.262 60.042 106.983 88.426 32.75-32.75 39.302-72.051 39.302-72.051s8.731 5.458 14.19 10.917c41.482-126.635-24.02-257.638-39.302-282.747C481.43 66.593 474.878 28.384 471.605 5.458 436.669 36.025 360.25 87.334 336.237 87.334c-24.02 0-36.024-14.192-68.774-19.65 0 13.1-24.02 40.392-24.02 40.392s-17.467-20.742-26.199-40.392c-30.565-1.091-49.126 24.017-73.145 18.559C92.793 72.05 7.644 0 7.644 0zM213.97 282.747c-5.458 8.733 8.732 22.925 12.01 30.567 6.551 12.008-26.2 31.659-49.126 26.2-21.834-5.458 1.093-26.2 18.56-27.292 21.835-2.183 0-18.558-30.564-18.558s-42.575 5.458-58.95 12.008c-16.375 6.55-39.302 10.917-82.97 49.126-6.55-82.968 31.659-147.378 38.21-156.111s13.102-20.742 7.644-32.75C41.493 102.618 32.76 43.666 32.76 43.666s32.75 25.109 69.867 50.218 62.228 15.284 101.525 2.183c10.916 58.951 40.394 82.968 40.394 82.968 24.02-20.742 32.75-58.951 29.478-69.868-2.186-10.917-1.093-22.925 24.019-13.1 40.394 13.1 48.033 12.008 84.062-4.367 33.827-17.467 67.67-50.217 67.67-50.217s6.552 16.375 2.186 24.017c-14.824 29.685-16.325 57.77-28.385 80.785-6.551 9.826-14.19 20.742 10.917 65.501 25.107 44.76 38.209 141.92 25.107 141.92-14.19 0-34.936-36.026-63.316-48.035-32.785-15.339-104.952-18.172-108.076 3.275-1.093 6.55 9.824 4.367 25.107 8.734 16.375 4.367 13.102 12.008 9.824 18.559-3.273 7.642-18.56 1.091-32.75-2.184-14.19-3.275-31.658-9.825-29.478-15.284 4.365-14.192 17.468-16.375 17.468-30.567-3.88-23.038-55.38-26.872-64.409-5.458zm-.01 191.045c-7.644-9.825-18.561-61.134-29.478-73.143-19.648-8.733-100.437 5.459-132.095 53.493-17.452-57.86-7.628-123.361 82.98-128.82 21.834 27.292 21.834 27.292 46.94 29.476 9.824 27.292 4.366 36.025 36.024 91.702 0-2.184 1.092-88.427 1.092-88.427s9.825 2.184 8.732 10.917c1.093 9.826 0 19.65 0 19.65l8.731-9.825 7.644 9.825 8.731-8.733 7.644 8.733S262 374.45 262 367.898c0-4.367 9.824-10.917 9.824-10.917v43.668l-5.458 48.034s24.019-33.842 31.658-88.426c31.657-10.917 46.94-22.925 46.94-34.934 22.926-4.367 97.159 18.559 101.525 69.868-1.093 26.2-12.01 55.676-12.01 55.676s-33.843-55.676-129.91-50.218c-18.56 30.567-22.926 53.493-25.106 69.868-3.296 21.23-44.19 26.784-65.501 3.275zm12.02-26.201h33.843v-20.742L250 436.674l-7.644-8.733-7.644 7.642-8.731-8.734v20.742z"/></svg>