<svg xmlns="http://www.w3.org/2000/svg" width="512" height="512"><path d="M301.608 191.931c33.264-2.61 59.69 6.059 77.52 24.17 0 0-38.647 3.237-57.875 13.898-7.039 3.903-12.24 15.713-9.139 27.415 1.566 5.908 8.187 11.042 9.139 18.467 7.6 13.83 15.674 24.432 15.674 24.432s12.09 6.409 18.974 13.643c2.824 2.856-3.807 12.565 5.902 21.132 3.504 3.092 9.7 8.653 15.008 15.421 9.4 11.984 15.23 24.337 15.23 24.337 14.31 15.643 43.439 14.5 54.861 28.779-37.885-1.523-52.005-17.547-59.303-16.341 5.356 8.014 32.46 21.671 49.023 31.761-8.453 5.32-24.978-.989-56.733-23.416-14.278.952 35.6 29.128 29.318 38.456-20.18 7.235-37.892-38.943-44.612-33.253-6.219 5.268 20.625 28.875 15.675 38.393-.843 1.62-9.138 6.664-14.088-11.422-3.983-14.552-11.486-17.325-11.486-17.325-9.456.952 8.054 19.71-4.887 19.038-14.659-.761 1.904-21.703-13.897-23.226-7.974-.769-11.482 9.074-17.007-6.473-21.349 1.223-16.056-5.902-22.02-14.659-28.114 1.904-12.756-2.665-26.464-10.979-23.797-6.726-16.943-18.149-24.876-21.83-7.932-3.68-13.56-2.7-14.096-15.317-19.864-2.415-3.717-11.668-10.526-13.62-8.666-2.485-3.298-10.27-7.361-14.215-11.58-.59-13.002-12.598-11.498-27.563 0 0 1.04-12.485-18.38-8.67-16.128 2.08-50.115 30.172-50.115 30.172-16.316 14.077-17.86.694-33.22-1.554 0 0-8.744-.353-16.894.34 7.283-7.977 1.04-10.404 1.04-10.404-28.785-1.214-11.877-21.349-7.879-27.25-5.521-13.517-1.237-14.65 18.968-15.316 17.18.983 77.744-6.959 77.633-14.253-.08-5.202-5.554-3.653-8.12-6.82-3.734-4.61-4.841-11.08-4.841-11.08-3.116-8.327-14.516-9.587-17.826-14.742-4.628-7.208 5.874-7.297-1.068-13.26-19.662-9.676-7.476-14.507-10.939-21.454-18.786-15.48-2.69-6.817-2.96-23.232.774-9.929-10.584-2.78-9.597-13.993.482-5.477-8.7-11.75-8.7-11.75 9.148-13.455 16.324-3.498 19.614-9.703-2.147-6.607-1.718-12.19-14.886-21.922 9.094-3.373 21.04 5.439 30.057 7.013 0 0 .437-5.08-8.587-14.599-13.606-14.353-9.332-19.419-7.3-20.18 3.435-1.29 21.47 32.06 34.73 31.411 7.903-.386-14.334-20.272-19.129-34.418-2.375-7.007.696-12.5 2.883-13.303 3.525-1.295 9.406 11.855 15.294 24.61 5.145 11.145 10.592 22.042 10.592 22.042s5.09-1.81 2.624-16.4c-1.09-6.447-8.144-15.406-7.399-22.608 1.542-14.9 10.365-15.767 10.365-15.767 1.183 40.332 6.933 57.93 16.627 55.908 3.141-2.475-7.125-14.375-7.615-26.272-.526-12.732 2.393-22.157 13.245-28.473 1.807 4.338-3.495 21.087-1.003 38.363 1.242 8.609 2.934 7.093 5.845 11.405 2.993 4.432 5.964 11.767 8.554 12.546 9.137-1.945-4.408-19.444.581-24.72 0 0 18.293 8.854 27.13 58.39 1.378 7.72 7.491 20.59 17.507 34.632 10.828 15.181 5.581 21.432 13.054 31.141 12.886 12.957 15.951-4.517 29.659-5.533zM511.998 256C511.34 61.114 296.92-61.35 126.968 36.092s-169.123 342.373 1.487 439.815S512.657 450.885 511.998 256z"/></svg>