<svg version="1.1" xmlns="http://www.w3.org/2000/svg" width="512px" height="512px"><path d="M301.6075439,191.9313202c33.2645569-2.610733,59.6908875,6.0585938,77.5200806,24.1704254c0,0-38.6468506,3.2364349-57.8750916,13.897644c-7.038269,3.9024048-12.2387695,15.7123718-9.1381836,27.4145203c1.5654297,5.9082642,8.1862793,11.0419617,9.1381836,18.4667358c7.5996704,13.83078,15.6744995,24.4319153,15.6744995,24.4319153s12.0890503,6.4094238,18.9743958,13.6437988c2.8239441,2.8556824-3.8075562,12.5650024,5.9017334,21.132019c3.5042725,3.0920105,9.6993103,8.6530762,15.0081787,15.4206848c9.4004822,11.98349,15.2302856,24.336731,15.2302856,24.336731c14.3101501,15.6427612,43.4381104,14.5004883,54.8607788,28.7789001c-37.8853455-1.5230408-52.0050964-17.5465698-59.302948-16.3408508c5.3554077,8.0145874,32.4595642,21.6714478,49.022522,31.7615051c-8.453186,5.3192444-24.9780884-0.9891663-56.7328491-23.4165649c-14.2783813,0.9519043,35.6007996,29.1279297,29.3183289,38.4564819c-20.1801453,7.2344055-37.8927917-38.9436035-44.6120605-33.2528076c-6.2190552,5.2671509,20.6243286,28.874115,15.6744995,38.3930359c-0.8425903,1.6203613-9.1381836,6.6632385-14.0880127-11.4227295c-3.9825745-14.5516663-11.4861755-17.3244324-11.4861755-17.3244324c-9.4554749,0.9518738,8.0545044,19.7101135-4.8863831,19.0378418c-14.6591492-0.7615051,1.9037781-21.7031555-13.897644-23.2261963c-7.9732666-0.7684937-11.4819336,9.0739746-17.0071411-6.4728699c-21.3482361,1.223053-16.0552979-5.9017334-22.0204773-14.6591492c-28.1126099,1.9037781-12.7553711-2.6652832-26.4626465-10.9784851c-23.7973175-6.7267151-16.9436798-18.1494446-24.8761292-21.8300781c-7.9324341-3.6806641-13.5596313-2.7011414-14.0964661-15.3170471c-19.8633575-2.415802-3.7171936-11.6683044-10.5258331-13.6205139c-8.6664581-2.4848938-3.2979889-10.2691956-7.3612976-14.2149353c-11.5791779-0.5904541-13.0021515-12.5974426-11.4976501-27.5631409c0,0,1.0404358-12.485199-18.3809509-8.6702576c-16.1266632,2.0808411-50.1140747,30.1724854-50.1140747,30.1724854c-16.3159714,14.0769958-17.8607178,0.6936035-33.2191544-1.5542297c0,0-8.744873-0.353241-16.8949127,0.3403931c7.2830124-7.9766541,1.0404282-10.4043274,1.0404282-10.4043274c-28.7852478-1.2138367-11.8773346-21.3485413-7.8793793-27.2502747c-5.5209808-13.5168915-1.2370834-14.649826,18.9678345-15.315918c17.1793671,0.9833984,77.7445068-6.9583893,77.6330261-14.2528534c-0.0794983-5.201767-5.5535889-3.6531372-8.1197662-6.8206177c-3.7343445-4.609375-4.8414154-11.0783386-4.8414154-11.0783386c-3.1159515-8.3278961-14.5161133-9.5874023-17.8255615-14.7425079c-4.6278076-7.2086945,5.8737488-7.297699-1.0679474-13.260437c-19.6623611-9.6761322-7.4756927-14.5063934-10.9386749-21.4542236c-18.7860947-15.479248-2.6909103-6.8169861-2.9599991-23.2315674c0.7736588-9.9289551-10.584259-2.7805939-9.5975952-13.9927368c0.482048-5.4777832-8.7006149-11.7503204-8.7006149-11.7503204c9.1491013-13.4545593,16.3248749-3.4981842,19.6144562-9.7032852c-2.1469116-6.6071091-1.7175369-12.1891174-14.8853149-21.9218216c9.0935593-3.3727798,21.0398254,5.4388657,30.0568848,7.0132904c0,0,0.4364624-5.0794907-8.587677-14.5990753c-13.6059265-14.3529129-9.3320618-19.4188538-7.29953-20.1810532c3.4350739-1.2881508,21.4691925,32.0606766,34.72995,31.412323c7.9033508-0.3864212-14.3340607-20.2719269-19.1289978-34.4180107c-2.3750916-7.0070076,0.6955414-12.5000038,2.8833618-13.303566c3.524826-1.2946396,9.4058533,11.855423,15.2938995,24.6106758c5.1446991,11.1449738,10.5914764,22.0417175,10.5914764,22.0417175s5.09021-1.8092804,2.6240082-16.401001c-1.0894318-6.4457779-8.1435852-15.4055519-7.3986206-22.6068878c1.5413818-14.8999939,10.3651581-15.767334,10.3651581-15.767334c1.1825256,40.3316956,6.9330292,57.930687,16.6263885,55.9078445c3.1412659-2.4749069-7.1243591-14.375061-7.6151276-26.2722321c-0.5251923-12.7315369,2.3932953-22.1570511,13.2451477-28.4728432c1.8074493,4.3378792-3.4944,21.0869179-1.0023804,38.3634682c1.2417145,8.6084671,2.9335327,7.0929489,5.8451233,11.405098c2.992569,4.4321136,5.9632721,11.7667007,8.5538177,12.5456085c9.136322-1.945343-4.4086761-19.4443512,0.5810547-24.7192154c0,0,18.2922516,8.8537521,27.1297607,58.3888855c1.3774872,7.7209015,7.491272,20.5899048,17.5066223,34.6320801c10.8278809,15.1813812,5.5813599,21.4325256,13.0542908,31.1413574C284.8354797,210.420517,287.900238,192.9466553,301.6075439,191.9313202z M511.9984741,256C511.3401489,61.1144829,296.9201965-61.3502655,126.9689178,36.0924911s-169.1238403,342.3722839,1.4857788,439.8150024S512.6567993,450.885498,511.9984741,256z"/></svg>