<svg xmlns="http://www.w3.org/2000/svg" width="470" height="512"><path d="M220.395 99.647v139.505h-49.127v-130.62c0-73.632-122.141-73.632-122.141 0v130.62H0V99.647c0-132.863 220.395-132.863 220.395 0zm29.21 272.848V512h49.127V381.38c0-73.632 122.141-73.632 122.141 0V512H470V372.495c0-132.862-220.395-132.862-220.395 0zM470 188.742H350.848c-25.47 0-47.479-11.442-47.479-41.03h165.296s17.713-146.54-111.37-146.54-111.37 113.025-111.37 146.54 21.45 99.646 104.923 99.646H470v-58.616zM303.369 102.76c0-68.338 112.008-68.338 112.008 0H303.369zM54.254 426.213c0 44.778 111.887 44.778 111.887 0V360.39c0-52.838-111.887-52.838-111.887 0v65.824zM1.514 349.63c0-103.817 217.367-103.817 217.367 0v82.198c0 104.69-217.368 104.69-217.368 0V349.63z"/></svg>