<svg version="1.1" xmlns="http://www.w3.org/2000/svg" width="512px" height="512px"><path d="m302.1321 73.922069c-9.30491-14.64563-6.32907-24.304287-1.1936-34.275436 4.59699-8.925656 6.47434-24.437213-9.76802-36.644934 14.95458-5.5042765 38.55341 4.2278168 38.95994 22.055318-8.67813 11.940547-32.38239 16.685289-27.99832 48.865053zm107.37131 329.11377c-7.261 23.53463-3.94994 36.05661-35.52619 84.91955 55.82887-37.68846 82.16945-86.34931 90.86259-141.57663 5.45854 23.02878 5.97411 43.9183 3.82994 63.65669 46.26414-60.90761 77.96333-183.72841-28.65864-307.18953-4.28882 54.57255-57.06814 97.54218-117.93682 80.69298 104.3656-11.50519 111.05487-144.21443 21.39498-174.85831 1.75098 36.920425-48.62229 24.830624-33.80845 74.222241-51.30826-29.02881-163.40839-34.994944-207.97358 9.046298-22.974166 22.704032-38.656285 41.481252-67.36875 42.721542-23.707695 1.0241-55.013058 39.4939-14.28164 59.16861 3.890334 16.39427 17.56184 25.72977 25.48927 27.3383-1.971628 29.19522 4.238808 14.30952 13.339044 1.58483-3.057785 36.90452 1.981383 23.60984 16.24432 4.62236 120.66905-24.40425 187.31087 74.00281 188.06447 134.44493-0.53029-10.96604-18.06118-23.71929-27.33799-20.20634-6.26784 13.27945-13.09792 24.5509-21.52706 30.11142 0.88123-8.80452 0.2795-17.60904-1.32065-26.41357-2.77851 10.64701-8.01182 21.70311-16.37647 33.28112-16.63731 0.92852-39.92261-11.4466-33.14924-31.96044 9.55475-19.94981-9.18642-24.09818-24.28479-18.38656-11.34505 4.29173-19.01137 16.17804-20.06039 19.87354-3.78431 13.33145-2.53892 43.09379 23.34639 62.83045-6.78602 1.24958-13.75302 2.36345-18.48922 5.15043 44.03256 26.63067 88.9772 17.63267 114.00544 7.58355 40.97817-16.45326 69.24127-61.99437 73.66284-97.12527 11.37397 49.41377-9.00297 104.33158-54.67799 133.78547 13.04942 1.38191 38.59297-7.45938 64.71353-16.77286-19.74586 24.85017-43.34928 48.41446-82.01403 66.95833 76.15734-6.37931 131.86317-44.61769 169.83909-107.50313"/></svg>