<svg xmlns="http://www.w3.org/2000/svg" width="512" height="512"><path d="M413.258 269.166c0 69.058-56.186 125.24-125.247 125.24-54.213 0-100.476-34.633-117.865-82.933 57.915 72.31 172.94 33.075 171.56-57.525-1.04-68.13-58.492-103.559-116.534-93.042 18.485-10.771 39.945-16.976 62.839-16.976 69.061 0 125.247 56.18 125.247 125.236zm-113.8 186.726C160.162 486.184 27.761 421.24 3.757 310.845-20.241 200.451 73.232 86.395 212.531 56.107c139.315-30.289 271.706 34.65 295.71 145.044 24.004 110.394-69.469 224.456-208.783 254.741zm-11.43-329.96c-74.815-.656-151.191 65.5-143.233 143.234 1.63 83.702 66.804 141.713 143.234 143.239 186.583-6.367 194.65-277.447 0-286.473z"/></svg>