<svg version="1.1" xmlns="http://www.w3.org/2000/svg" width="478px" height="512px"><path fill-rule="evenodd" clip-rule="evenodd" d="M238.6781158,512l204.4352875-111.6410217l34.2428284-317.3314209L238.6781158,0L0,83.0275421l34.2428207,317.3314209L238.6781158,512z M137.1082153,129.7177429c8.7647552-0.5982971,21.3273468-2.4389267,41.0216064-25.7296677c9.2341614-10.9204559,37.086319-8.49263,50.1371918,6.6621017c50.2751923-3.7342377,120.2537384,39.9385071,125.6131439,83.5700226c-3.6257629,30.6866913-44.8479004,29.8844757-123.4845428-2.4141083c-84.1095734,18.944931-78.807251,125.5493774-9.0505371,153.4912415c-16.7803802-16.4745483-23.9266815-30.3214111-21.5200653-41.7889099c34.9026031,41.334137,74.6593933,56.7834473,119.2008667,46.3510742c-19.6374817,0.6856079-35.1921997-5.6332092-46.8989258-19.0513306c30.1068115-0.73172,58.5279846-14.7076416,85.2917175-42.0699463c-15.4496765,12.2941589-31.616272,16.9495239-48.7329712,14.0211792c46.3596802-36.4476318,62.743042-79.0348969,49.1929016-127.6259918c22.414978,25.0289917,22.0273743,61.2163696-0.1506348,96.067215c8.7046814-6.7667542,18.7572327-21.3736267,30.1246033-43.6509552c4.9107361,45.1478729-13.334259,79.4411163-54.9055481,102.9275055c13.272522-1.2239685,30.894104-9.9621582,52.7498169-26.2451782c-47.9693298,127.2627869-232.1549988,113.8674622-279.2186584-20.2869568c-36.3166656-39.1723175-2.3319321-29.797226-9.1119614-57.1613312c-17.8065491-37.5657654,7.6175766-37.2419434,17.5436859-54.7381897C119.2166748,161.358902,105.4849319,132.4748993,137.1082153,129.7177429z M280.5629883,162.7893982c0-5.2188416-5.6884766-8.4983215-10.2147217-5.8889008c-4.5262146,2.6094208-4.5262146,9.1683807,0,11.7778015C274.8745117,171.2877197,280.5629883,168.0082397,280.5629883,162.7893982z"/></svg>