<svg xmlns="http://www.w3.org/2000/svg" width="478" height="512"><path fill-rule="evenodd" d="m238.678 512 204.435-111.641 34.243-317.331L238.678 0 0 83.028l34.243 317.331L238.678 512zm-101.57-382.282c8.765-.599 21.328-2.44 41.022-25.73 9.234-10.92 37.086-8.493 50.137 6.662 50.275-3.734 120.254 39.939 125.613 83.57-3.626 30.687-44.848 29.885-123.484-2.414-84.11 18.945-78.808 125.55-9.05 153.491-16.781-16.474-23.928-30.321-21.521-41.789 34.903 41.335 74.66 56.784 119.2 46.351-19.637.686-35.191-5.633-46.898-19.05 30.107-.733 58.528-14.708 85.292-42.07-15.45 12.293-31.617 16.949-48.733 14.02 46.36-36.447 62.743-79.034 49.193-127.626 22.415 25.03 22.027 61.217-.151 96.068 8.705-6.767 18.757-21.374 30.125-43.651 4.91 45.148-13.335 79.44-54.906 102.927 13.273-1.224 30.894-9.962 52.75-26.245-47.97 127.263-232.155 113.867-279.219-20.287-36.316-39.172-2.332-29.797-9.112-57.161-17.806-37.566 7.618-37.242 17.544-54.738 4.307-10.687-9.425-39.571 22.198-42.328zm143.455 33.071c0-5.218-5.688-8.498-10.215-5.889-4.526 2.61-4.526 9.169 0 11.778 4.527 2.61 10.215-.67 10.215-5.889z" clip-rule="evenodd"/></svg>