<svg version="1.1" xmlns="http://www.w3.org/2000/svg" width="423px" height="512px"><path d="M292.1383057,461.6577454c118.1775208-42.6624451,175.5065613-171.4753113,89.4493408-275.3063354c-5.2230225-29.8352051-14.3403015-57.5273895-26.5656128-81.9514313l10.5341492-93.8895264c0.764679-6.8309016-5.913269-12.0659075-12.3442383-9.6936045L288.421875,24.6619492C236.6896667-8.9358015,185.5200195-7.6593604,134.859314,25.15905L68.730423,0.8168591c-6.4426994-2.3723028-13.1168365,2.8627031-12.360054,9.6936045l10.9204407,97.173233c-11.4067726,23.6069412-19.9242783,50.1670609-24.9019966,78.6732407c-77.9911118,93.6444397-48.4447479,223.320282,89.3373566,275.2780762C107.9396362,471.53479,106.5783386,507.7452698,128.3378754,512c8.501236,0,15.4027405-10.1246643,15.4027405-22.6180115c0,12.4933472,6.8818817,22.6180115,15.3833466,22.6180115c8.5091248,0,15.3948364-10.1246643,15.3948364-22.6180115c0,12.4933472,6.8976746,22.6180115,15.3989105,22.6180115c8.497406,0,15.4330139-10.2782898,15.4330139-22.7716675c4.2439117,0.3641663,8.4576721,0.3226318,12.6425781-0.1101074c0,12.4933777,6.874939,22.8817749,15.3682709,22.8817749c8.5093689,0,15.3950806-10.1246643,15.3950806-22.6180115c0,12.4933472,6.9015045,22.6180115,15.3988953,22.6180115c8.5053101,0,15.3989258-10.1246643,15.3989258-22.6180115c0,12.4933472,6.8974304,22.6180115,15.4027405,22.6180115C314.7595215,510.0802307,316.8569641,472.9648438,292.1383057,461.6577454z M140.53302,254.1753082C32.792141,245.3482208,34.2512054,76.4595795,141.4858246,68.6629944c29.5726471,0,55.4602356,17.960289,69.725174,44.8260422c14.264679-26.8726959,40.1532288-44.8377686,69.7199097-44.8377686c108.9713135,6.7139969,108.6065674,175.9673767,2.4390564,185.4814453c84.6460266,54.6855316,65.6779785,204.8437347-71.3871155,204.8437347C82.9775085,458.9764404,55.0431099,316.1136475,140.53302,254.1753082z M146.6227875,320.8294373c0,21.8390808,32.5545349,21.8390808,32.5545349,0H146.6227875z M196.0702362,320.8294373c0,21.8390808,32.5545349,21.8390808,32.5545349,0H196.0702362z M245.5294342,320.8294373c0,21.8390808,32.5545502,21.8390808,32.5545502,0H245.5294342z M146.6227875,385.0248413c0,21.8391113,32.5545349,21.8391113,32.5545349,0H146.6227875z M196.0702362,385.0248413c0,21.8391113,32.5545349,21.8391113,32.5545349,0H196.0702362z M245.5294342,385.0248413c0,21.8391113,32.5545502,21.8391113,32.5545502,0H245.5294342z M121.8990707,352.5683594c0,21.8390808,32.5545425,21.8390808,32.5545425,0H121.8990707z M171.3465118,352.5683594c0,21.8390808,32.5545502,21.8390808,32.5545502,0H171.3465118z M220.8057251,352.5683594c0,21.8390808,32.5545349,21.8390808,32.5545349,0H220.8057251z M270.2453308,352.5683594c0,21.8390808,32.5545349,21.8390808,32.5545349,0H270.2453308z M171.3465118,288.3807983c0,21.8390808,32.5545502,21.8390808,32.5545502,0H171.3465118z M220.7978821,288.3807983c0,21.8390808,32.5545349,21.8390808,32.5545349,0H220.7978821z M171.3465118,416.7637634c0,8.9993286,7.2857666,16.281189,16.2851105,16.281189c8.9875946,0,16.2694397-7.2818604,16.2694397-16.281189H171.3465118z M220.7939606,416.7637634c0,8.9993286,7.2857666,16.281189,16.281189,16.281189c8.9954376,0,16.281189-7.2818604,16.281189-16.281189H220.7939606z M253.2779541,229.3262024c-9.3051605,14.8302307-20.5829315,25.9785309-34.962265,37.0325317c-3.5172882,2.7018433-8.4464111,2.7018433-11.9639435,0c-14.3793335-11.0501709-25.6568604-22.202301-34.966095-37.0325317c-2.41539-3.8430328-2.2035675-8.8346405,0.7254333-12.301178c9.2778625-10.9599304,18.3321991-18.1321259,33.1899719-23.9786377c4.4937897-1.7725372,9.5287018-1.7174835,13.9794006,0.1450348c14.1988831,5.9053802,24.3627777,13.1599121,33.2955322,23.7081909C255.5365753,220.4013367,255.7129669,225.4479828,253.2779541,229.3262024z M128.3783264,110.031105c-31.5237198,18.1737747-31.5237198,63.8549576,0.0002441,82.0287247c31.5237122,18.1740265,71.1425171-4.6668091,71.1425171-41.0143585C199.5210876,114.6976852,159.9022827,91.8570862,128.3783264,110.031105z M154.0823364,149.5682831c-7.3004761-4.2089691-7.3004761-14.7881165,0-18.9970856c7.3007202-4.2089767,16.4759216,1.0808411,16.4759216,9.4985352C170.5582581,148.487442,161.3830566,153.7772522,154.0823364,149.5682831z M244.3035583,110.031105c-31.5239563,18.1737747-31.5239563,63.8549576,0,82.0287247c31.5237122,18.1740265,71.1425171-4.6668091,71.1425171-41.0143585C315.4460754,114.6976852,275.8272705,91.8570862,244.3035583,110.031105z M270.0193176,149.5682831c-7.3007202-4.2089691-7.3007202-14.7881165,0-18.9970856c7.3004761-4.2089767,16.4759216,1.0808411,16.4759216,9.4985352C286.4952393,148.487442,277.3197937,153.7772522,270.0193176,149.5682831z"/></svg>