<svg xmlns="http://www.w3.org/2000/svg" width="512" height="512"><path d="m190.467 258.45-13.682 4.548c-2.766-4.428-4.728-7.818-11.69-14.51l-6.553-20.076-10.853 9.86c-7.163-3.79-14.176-7.627-22.103-8.637l-9.734-15.391-9.525 11.786c-7.462-1.854-13.853-.651-20.187.419l-9.242-12.676-5.385 16.055c-5.566 3.597-7.107 5.925-9.259 8.865l-9.89-7.38L69.18 310.11c22.55 61.558 83.673 66.956 98.81 29.159l22.478-80.819zm-22.575 44.2-10.975 16.885-14.757 2.054-26.308-28.644-24.84 14.111-12.757-9.343-8.997-20.34c15.495-49.797 89.62-18.475 98.634 25.276zM512 119.482v256L256 477 0 375.483v-256l114.844-37.836 256.448 85.79-.092 67.673c12.647-12.546 7.296-7.96 23.955-4.762 10.536 2.919 7.914-3.962 21.77-9.744v-68.636l-256.2-85.436L256.427 35 512 119.483z"/></svg>