<svg version="1.1" xmlns="http://www.w3.org/2000/svg" width="512px" height="512px"><path d="M443.8374939,360.7163696l47.5727539-129.2435455L512,138.5458679c0,0-26.3238525,9.6174011-39.3942261,14.973114c-6.6862488-8.7049408-17.4068298-19.5414886-33.2573242-27.3705902c-9.4327393-19.0745773-25.4602051-49.556366-25.4602051-49.556366s-20.2876282,16.6728973-38.3841553,30.7671204c-24.6057434-5.0322342-54.558075-10.9860764-80.3112488-9.8188095c-17.0467529-15.6475296-37.1024475-36.2448959-37.1024475-36.2448959S236.302887,80.4157944,217.5853577,96.420372c-20.9742584-0.3738327-57.0146942,4.6217804-77.9355316,12.3456039c-18.2933502-13.0520706-38.9654846-31.1928329-38.9654846-31.1928329s-16.8773575,32.3662033-26.0049591,48.7034149c-12.2723618,7.2752304-25.162693,15.5834427-37.1512489,26.8365402C23.9084492,147.0554962,0,135.797821,0,135.797821l21.3145142,97.0543671c0,0,27.9572754,75.5475922,46.5542603,125.5128632c38.5672379,56.4318237,109.955368,91.2744751,187.5124969,92.3395081C331.5681763,450.7015076,403.1157837,416.9223633,443.8374939,360.7163696z M259.6681213,167.0165863c92.5393982,0,159.0722961,34.8334961,182.2315674,95.6368561l-36.1533508,45.7905884l-51.6986694,15.2614746l-96.950592-55.7360229l-98.3040161,54.570282l-51.7566299-14.6755676l-34.5054398-48.8727722C91.2454681,206.619873,171.5857391,167.1371307,259.6681213,167.0165863z"/></svg>