<svg xmlns="http://www.w3.org/2000/svg" width="512" height="512"><path d="m443.837 360.716 47.573-129.243L512 138.546s-26.324 9.617-39.394 14.973c-6.686-8.705-17.407-19.542-33.258-27.37-9.432-19.075-25.46-49.557-25.46-49.557s-20.287 16.673-38.384 30.767c-24.606-5.032-54.558-10.986-80.311-9.819-17.047-15.647-37.103-36.245-37.103-36.245s-21.787 19.12-40.505 35.125c-20.974-.373-57.014 4.622-77.935 12.346-18.294-13.052-38.966-31.193-38.966-31.193S83.807 109.94 74.68 126.277c-12.272 7.275-25.162 15.583-37.15 26.836C23.908 147.055 0 135.798 0 135.798l21.315 97.054S49.272 308.4 67.869 358.365c38.567 56.432 109.955 91.275 187.512 92.34 76.187-.003 147.735-33.783 188.456-89.989zm-184.169-193.7c92.54 0 159.072 34.834 182.232 95.637l-36.154 45.791-51.698 15.262-96.95-55.737-98.305 54.57-51.757-14.675-34.505-48.873c18.714-52.371 99.055-91.854 187.137-91.974z"/></svg>