<svg xmlns="http://www.w3.org/2000/svg" width="512" height="512"><path d="M201.217 172.498 76.491 388.505l-29.12-49.363 33.614-57.85-66.757-.176L0 256.45l14.529-25.228 95.022.3 34.15-58.875 57.516-.15zm9.569 172.673 249.43.012-28.19 49.9-66.907-.185 33.227 57.901-14.247 24.655-29.113.032-47.251-82.442-68.062-.138-28.887-49.735zm145.177-94.65L231.258 34.503l57.31-.537L321.86 92l33.53-57.726 28.476.011 14.584 25.196-47.771 82.142 33.911 59.013-28.628 49.885zm-199.757 10.957 124.705 216.02-57.31.537L190.308 420l-33.53 57.726-28.476-.011-14.584-25.196 47.772-82.142-33.912-59.013 28.628-49.885zm144.846-95.195-249.43-.012 28.189-49.9 66.907.185-33.227-57.901L127.74 34l29.112-.032 47.252 82.442 68.062.138 28.887 49.735zm9.73 173.173L435.51 123.45l29.12 49.363-33.614 57.85 66.757.176L512 255.504l-14.529 25.228-95.022-.3-34.15 58.875-57.516.15z"/></svg>