<svg version="1.1" xmlns="http://www.w3.org/2000/svg" width="512px" height="512px"><path d="M486.9100037,256.8062134L377.4249878,361.7457275l109.4850159,104.9459839V256.8062134z M475.8175049,246.1757202H256.8399963l109.4945068,104.9410095L475.8175049,246.1757202z M475.8150024,231.140213L366.3359985,126.1967163L256.8399963,231.140213H475.8150024z M347.4024963,123.0832138H128.4259949l109.4819946,104.9449997L347.4024963,123.0832138z M486.9100037,10.6262131l-109.4850159,104.939003l109.4850159,104.946991V10.6262131z M347.4035034,108.0487137L237.9064941,3.1092148L128.4205017,108.0487137H347.4035034z M218.9710083-0.0002823H0l109.487999,104.9355011L218.9710083-0.0002823z M25.0889969,255.1972046L134.571991,150.2512207L25.0889969,45.3087158V255.1972046z M145.6644897,160.8832092L36.1779938,265.8302307h218.9775085L145.6644897,160.8832092z M36.1774979,280.8622131L145.661499,385.8087158l109.4929962-104.9460144L36.1774979,280.8622131z M25.0889969,291.4932251v209.8759766l109.4820023-104.9309998L25.0889969,291.4932251z M383.5784912,388.9232178L274.0905151,283.975708L164.5979919,388.9232178H383.5784912z M164.5950012,403.9577026l109.4924927,104.928009l109.4865112-104.9295044L164.5950012,403.9577026z M293.0249939,511.9992065L512,511.9987183L402.5119934,407.0686951L293.0249939,511.9992065z"/></svg>