<svg xmlns="http://www.w3.org/2000/svg" width="512" height="512"><path d="M103.853 86.647h24.7l32.23 48.964V86.647h24.933v88.5h-24.932l-32.057-48.592v48.592h-24.874v-88.5zm130.328 52.218c-30.779-6.736-32.353-20.907-32.29-27.83.211-23.4 25.825-26.168 36.377-25.897 30.468.78 34.178 17.205 35.268 26.38l-24.933 1.51c-.662-3.984-3.055-11.737-12.963-11.41-8.437.278-9.26 5.01-9.284 6.943-.05 4.06 6.131 6.057 10.802 7.063 11.562 2.575 17.12 4.138 24.846 7.817 17.267 8.224 21.934 36.884-2.95 49.502-11.558 4.605-31.905 5.7-45.773-1.31-9.148-4.622-13.93-16.205-14.602-25.765l25.166-1.63c.545 4.226 1.655 7.446 3.329 9.66 7.408 9.504 23.84 5.751 23.503-4.379-.203-6.096-8.796-8.968-16.496-10.654zm132.896 0c-30.778-6.736-32.352-20.907-32.29-27.83.212-23.4 25.825-26.168 36.378-25.897 30.468.78 34.178 17.205 35.268 26.38l-24.933 1.51c-.662-3.984-3.055-11.737-12.963-11.41-8.437.278-9.26 5.01-9.284 6.943-.05 4.06 6.131 6.057 10.802 7.063 11.562 2.575 17.12 4.138 24.846 7.817 17.267 8.224 21.934 36.884-2.95 49.502-11.558 4.605-31.905 5.7-45.773-1.31-9.148-4.622-13.93-16.205-14.602-25.765l25.166-1.63c.545 4.226 1.655 7.446 3.329 9.66 7.408 9.504 23.84 5.751 23.503-4.379-.203-6.096-8.796-8.968-16.497-10.654zm-76.374-52.218h26.509v88.5h-26.51v-88.5zM256 0C114.615 0 0 114.615 0 256s114.615 256 256 256 256-114.615 256-256S397.385 0 256 0zm-.45 496.022c-91.485 0-165.649-52.76-165.649-117.842s74.164-117.843 165.65-117.843c91.485 0 165.648 52.76 165.648 117.843S347.036 496.022 255.55 496.022zM22.626 205.774C45.762 98.177 141.59 17.264 256 17.264s210.238 80.913 233.374 188.51H22.626zM148.792 381.15l104.386 109.271 109.13-109.271H310.86v-95.64H197.125v95.64h-48.333z"/></svg>