<svg xmlns="http://www.w3.org/2000/svg" width="512" height="512"><path d="m486.91 256.806-109.485 104.94L486.91 466.692V256.806zm-11.092-10.63H256.84l109.495 104.94 109.483-104.94zm-.003-15.036L366.336 126.197 256.84 231.14h218.975zM347.402 123.083H128.426l109.482 104.945 109.494-104.945zM486.91 10.626l-109.485 104.94L486.91 220.511V10.626zM347.404 108.05 237.906 3.109 128.421 108.05h218.983zM218.97-.001H0l109.488 104.936L218.971 0zM25.089 255.198l109.483-104.946L25.089 45.31v209.888zm120.575-94.314L36.178 265.83h218.978L145.664 160.883zM36.177 280.863l109.484 104.946 109.493-104.946H36.177zm-11.088 10.63V501.37l109.482-104.93L25.089 291.492zm358.49 97.43L274.09 283.976 164.598 388.923h218.98zm-218.984 15.035 109.492 104.928 109.487-104.93-218.979.002zm128.43 108.041H512l-109.488-104.93-109.487 104.93z"/></svg>