<svg xmlns="http://www.w3.org/2000/svg" width="512" height="512"><path d="M219.023 70.401H371.2c77.762 0 140.8 63.038 140.8 140.8v152.177c0 77.762-63.038 140.8-140.8 140.8H219.023c-77.761 0-140.8-63.038-140.8-140.8V211.201c0-77.762 63.039-140.8 140.8-140.8zm-119.466-12.8c0-38.178-41.613-62.168-74.724-43.08s-33.11 67.07 0 86.16 74.724-4.903 74.724-43.08zm142.22 139.377c0-40.377-43.99-65.75-78.991-45.561s-35.002 70.934 0 91.123 78.992-5.184 78.992-45.562zM448 363.378c0-69.823-76.092-113.7-136.636-78.788s-60.545 122.665 0 157.576S448 433.201 448 363.378z"/></svg>