<svg version="1.1" xmlns="http://www.w3.org/2000/svg" width="480px" height="512px"><path d="M203.5571289,104.0314026l-85.5129776-43.1698227l-93.8829498,46.8550644l87.8459167,44.1122284L203.5571289,104.0314026z M242.7817078,123.8224411l89.6654663,45.2887039l-93.0251617,46.7120514l-87.9823761-44.1772461L242.7817078,123.8224411z M362.5479736,61.505024L454.6763,107.7166443l-82.4067078,41.375946l-89.8473816-45.3341675L362.5479736,61.505024z M322.88797,41.6034584L239.9483948,0l-82.0363007,40.9600105l85.4674835,43.0983696L322.88797,41.6034584z M258.0530396,398.7977905V512l100.4658813-50.1503296l-0.0909729-113.2477112L258.0530396,398.7977905z M358.3824158,309.0783691l-0.1169434-112.0517883L258.0530396,246.858429v112.0907898L358.3824158,309.0783691z M479,288.0914307v113.6376343l-85.7014465,42.7539062l-0.0714417-113.1112366L479,288.0914307z M479,248.3533325V136.9969788l-85.7924194,42.6823883v112.2792511L479,248.3533325z M222.5845642,246.858429l-67.6682739-34.0509949v147.0647278L64.4905167,167.9086914c-0.9877663-2.0473175-5.0427856-4.2831573-6.0825348-4.8356171L0,133.2662659v259.9159546l60.1625519,32.2506104V289.514801l82.7316437,159.1148376c0.8513031,1.7223816,9.0263367,18.2896729,17.8252258,24.1132507c11.6776886,7.7669067,61.8196564,37.9182129,61.8196564,37.9182129L222.5845642,246.858429z"/></svg>