<svg version="1.1" xmlns="http://www.w3.org/2000/svg" width="512" height="512"><path d="M349.255 148.215l-3.226 2.018c-0.655-1.228-1.315-2.458-2.13-3.645-6.421-9.267-16.19-14.296-24.668-13.548 0.092-6.605-2.411-13.931-7.588-20.158-7.552-9.078-18.325-13.123-26.911-10.993 0.379-1.362 0.587-2.77 0.596-4.219 0.082-11.469-12.317-20.936-27.404-20.997-15.012 0.031-27.33 9.222-27.407 20.629-0.005 0.63 0.164 1.213 0.231 1.829-7.552 0.471-15.78 5.038-21.54 12.774-4.992 6.784-7.086 14.618-6.394 21.366-7.495 0.174-15.824 4.326-21.906 11.679-1.034 1.27-1.984 2.667-2.809 4.014l-4.296-2.949-173.804 253.245 41.457 28.447 173.798-253.24-3.108-2.135c0.286-0.317 0.605-0.578 0.881-0.911 5.668-6.856 8.151-14.981 7.495-22.026 7.726-0.246 16.19-4.726 22.119-12.692 4.613-6.196 6.804-13.246 6.645-19.584 2.703 0.697 5.545 1.172 8.545 1.183 5.38 0.020 10.378-1.177 14.628-3.2-1.536 7.546 0.904 16.855 7.216 24.448 6.728 7.997 16.033 12.067 24.010 11.366-0.266 6.22 1.749 13.246 6.029 19.425 0.414 0.589 0.955 1.153 1.39 1.705l-4.496 2.806 162.75 260.479 42.639-26.629-162.745-260.483zM188.294 150.296c5.566-6.727 14.19-8.724 19.295-4.474s4.746 13.020-0.824 19.753c-0.558 0.676-1.167 1.27-1.781 1.848l-19.195-13.179c0.666-1.331 1.498-2.718 2.506-3.947zM216.864 116.874c5.218-7.010 13.725-9.445 19.038-5.46s5.407 12.759 0.19 19.769c-5.218 7.010-13.783 9.513-19.097 5.535-5.284-3.958-5.281-12.843-0.131-19.843zM258.384 109.755c-8.739-0.035-15.841-5.438-15.795-12.078 0.051-6.605 7.199-11.874 15.887-11.894 8.74 0.035 15.745 5.438 15.697 12.078s-7.050 11.93-15.79 11.894zM286.32 133.3c-5.586-6.723-5.962-15.588-0.841-19.817 5.115-4.229 13.671-2.253 19.257 4.465s6.006 15.636 0.891 19.866c-5.104 4.208-13.715 2.138-19.306-4.512zM316.88 164.702c-4.971-7.183-4.577-16.051 0.891-19.814 5.473-3.763 13.819-1.044 18.796 6.139 0.86 1.239 1.5 2.535 2.043 3.845l-19.712 12.309c-0.697-0.743-1.397-1.603-2.017-2.479v0z"></path></svg>