<svg xmlns="http://www.w3.org/2000/svg" width="512" height="512"><path d="M191.034 187.695v-30.604c2.97-.212 5.971-.37 9.03-.466 83.702-2.63 138.617 71.92 138.617 71.92s-59.31 82.378-122.903 82.378c-9.159 0-17.356-1.477-24.744-3.957v-92.802c32.585 3.937 39.136 18.33 58.732 50.985l43.57-36.736s-31.805-41.714-85.42-41.714c-5.833 0-11.409.41-16.882.996m0-101.096v45.713c3.004-.238 6.012-.427 9.03-.538 116.399-3.921 192.235 95.461 192.235 95.461s-87.108 105.92-177.85 105.92c-8.315 0-16.1-.768-23.415-2.064v28.258c6.256.795 12.735 1.263 19.499 1.263 84.448 0 145.52-43.123 204.655-94.166 9.797 7.85 49.94 26.948 58.195 35.319-56.233 47.07-187.266 85.006-261.551 85.006-7.159 0-14.045-.431-20.798-1.08v39.71H512V86.599H191.034zm0 220.367v24.125c-78.106-13.924-99.783-95.115-99.783-95.115s37.499-41.549 99.783-48.28v26.468c-.05 0-.08-.013-.122-.013-32.682-3.925-58.22 26.615-58.22 26.615s14.307 51.405 58.342 66.2M52.311 232.458s46.29-68.306 138.723-75.367v-24.779C88.657 140.528 0 227.235 0 227.235S50.209 372.401 191.034 385.69v-26.34C87.695 346.346 52.311 232.457 52.311 232.457z"/></svg>