<svg version="1.1" xmlns="http://www.w3.org/2000/svg" width="512px" height="512px"><path d="M191.0339813,187.6952515v-30.6044769c2.9695435-0.2116394,5.9712524-0.3696442,9.0296326-0.4659271c83.7025299-2.6307678,138.6174469,71.9204254,138.6174469,71.9204254s-59.3109131,82.3776398-122.9028778,82.3776398c-9.1587524,0-17.3559113-1.4768066-24.7442017-3.9570007v-92.8017426c32.58461,3.9366302,39.1360168,18.3306427,58.7318268,50.9846344l43.5707397-36.736145c0,0-31.8055115-41.7133789-85.4198151-41.7133789C202.0831451,186.6992798,196.5073547,187.1096039,191.0339813,187.6952515 M191.0339813,86.5989609v45.7132645c3.0039215-0.238327,6.0119476-0.4274139,9.0296326-0.5385895C316.4630127,127.8529892,392.298645,227.23526,392.298645,227.23526s-87.1071472,105.9196777-177.849762,105.9196777c-8.3146515,0-16.0992737-0.7683716-23.4149017-2.0635071v28.257782c6.2555237,0.7950439,12.7353821,1.2631836,19.498642,1.2631836c84.4485779,0,145.5194397-43.1229858,204.6552429-94.1664734c9.796936,7.8509216,49.9394226,26.9477234,58.1954651,35.3190918c-56.23349,47.0692139-187.2661133,85.0064087-261.5514221,85.0064087c-7.158493,0-14.0445251-0.4317932-20.7979279-1.0813293v39.7109375H512V86.5989609H191.0339813z M191.0339813,306.9659119v24.1255188c-78.1054993-13.9248047-99.7827606-95.1151886-99.7827606-95.1151886s37.4988251-41.5490417,99.7827606-48.2809906v26.4689178c-0.0492401,0-0.0800934-0.0129395-0.1219025-0.0129395c-32.681778-3.9247742-58.2199402,26.6144867-58.2199402,26.6144867S146.9994965,292.1711731,191.0339813,306.9659119 M52.310627,232.4584961c0,0,46.2903557-68.3063965,138.7233582-75.3677216v-24.7785492C88.6565628,140.5275269,0,227.23526,0,227.23526s50.2088203,145.1657715,191.0339813,158.454834v-26.3408813C87.6949539,346.3466187,52.310627,232.4584961,52.310627,232.4584961z"/></svg>