<svg version="1.1" xmlns="http://www.w3.org/2000/svg" width="512px" height="512px"><path d="M167.8213043,392.5391541c-20.4925995,0-6.9634552-100.8713989,0.5968323-103.8556519C176.3764343,291.468811,191.2982941,393.9317627,167.8213043,392.5391541z M256.5527649,296.2618103c-8.5233765,4.124176-22.1348572,161.4830933-0.184082,161.4830933C279.9256592,458.5480652,264.5110474,300.5335083,256.5527649,296.2618103z M343.3485413,289.7086487c-7.5602722,2.984375-21.230896,102.6300354-0.7382812,102.6300354C366.0872498,393.7314148,351.3068237,292.4940796,343.3485413,289.7086487z M502.8878784,195.460083c0,0-59.491333,26.4477692-80.3233948,40.7339325c-7.3574829,4.5276794-3.6742859,2.6626129-6.5808105,22.0113373c-6.0564575,40.3184814-11.593689,43.9523926-17.2844543,45.4507141c-4.3158569,1.1362915-0.9251709-34.0731812-39.0764771-40.1770325c2.0999451,30.4486389-37.7982788,27.2986755-34.3899231,0.6769104c-15.8226624,3.0059204-33.1292725,5.2608032-51.7127991,6.8695374c4.8428955,29.5581665-38.7887573,29.387085-33.9408417,0.3562012c-18.7158356-1.7979736-36.6220703-4.2506104-53.6462402-7.4165955c2.5152893,26.8538513-37.4705353,28.8487854-35.1112061-0.3816223c-17.8697052,2.5705566-32.8296356,17.8912659-36.8635254,40.5433044c-10.4672623-1.5818176-17.0005188-32.5619507-18.6657104-54.8548737c-0.7561951-10.1234741-0.8778534-9.6070862-4.1793137-12.0164185c-23.7354126-16.2399902-85.3048248-43.0091858-85.3048248-43.0091858s-11.6041279-8.2157898-2.0087469-11.7468719c9.5952644-3.5310822,25.6289387-6.1460266,44.8797684-18.4163055c-1.514843-18.5387878-13.7455406-27.663208-17.0085983-33.299408c13.9707146-4.5199432,42.2203293,11.9678192,46.2570267,15.6352081c0,0,4.5471115,0.7442474,3.1913986-10.5296783c-4.0871658-33.9888611-19.3844337-50.7591782-5.5322189-69.421608c6.7399292-9.0804062,23.9036789-12.2155952,23.9036789-12.2155952c-4.8083496,24.1725273,7.5552521,46.9579506,28.6232681,60.6812477c85.5697937-48.6560516,171.2453461-44.2014465,256.998291-0.818718c23.879425-13.7766953,32.6435547-42.9388275,27.5169678-59.4809227c25.9667358,5.2791824,32.7480164,18.2997932,26.7215271,41.9035912c-5.8197937,22.7942123-13.6781921,46.3437958-4.5202942,49.5243073c18.812561-11.9598541,33.890625-18.0884399,46.0430908-15.3476257c-9.2354126,8.2092285-15.9569702,20.9203644-17.8673401,33.0697937c0,0,24.6488647,13.6871185,39.3092346,16.6014709C515.7264404,184.1918945,514.5353394,189.7104187,502.8878784,195.460083z M365.5976562,141.4757843c-45.3751831,99.4057159-172.2381744,101.5173035-219.4047241,0.116394c-27.4969406,9.1694031-56.867897,23.2497101-69.440979,35.4974976c-4.4370346,4.322403-5.7564545,8.7021942-6.4562073,13.5489502c5.6975555,7.4784393,24.015152,3.5764008,29.3261795,5.8525848c10.0753555,4.3180695,3.1284027,5.8546906,12.7281189,12.0319824c3.445488,2.2170563,18.5249557-0.8016205,40.1145096,6.3100891c31.8201599,10.4815369,48.0318298,21.4731445,104.3865814,21.4731445c43.7760315,0,58.052948-6.0108948,91.6037598-17.7893829c27.7489319-9.7416229,50.3262634-8.9231415,50.3262634-8.9231415c7.6712036-4.1238098,5.647583-8.7363739,12.487854-12.767334c5.2050476-3.0671539,20.2622986,1.9518433,30.4862366-5.2979126C443.2424622,173.032486,405.0075989,156.0626373,365.5976562,141.4757843z M283.2816772,125.485672c-0.9468384,23.0743713-15.8790894,45.8781128-18.0886536,55.8262939c37.4864502-3.8411255,73.8926697-20.9734497,82.6280518-44.9676971C329.5387878,130.7140961,308.4038696,126.8591232,283.2816772,125.485672z M223.835083,125.9739532c-24.6334991,2.1704254-45.411499,5.0076141-59.7117462,10.2875214c11.4419403,26.004425,45.0587158,41.5110931,79.7151337,44.6595154C237.2502899,167.4516754,226.9210815,151.5960999,223.835083,125.9739532z M244.3615265,124.682991c0.9120483,11.363121,5.0382538,49.4310989,9.7315063,48.2578201c5.7172394-1.429245,8.3830414-33.1603088,9.5176849-48.3897858C257.4110107,125.0939026,251.0157776,125.2095032,244.3615265,124.682991z"/></svg>