<svg xmlns="http://www.w3.org/2000/svg" width="512" height="512"><path d="M167.821 392.54c-20.492 0-6.963-100.872.597-103.856 7.958 2.785 22.88 105.248-.597 103.855zm88.732-96.278c-8.524 4.124-22.135 161.483-.184 161.483 23.557.803 8.142-157.211.184-161.483zm86.796-6.553c-7.56 2.984-21.231 102.63-.739 102.63 23.477 1.392 8.697-99.845.739-102.63zm159.539-94.249s-59.491 26.448-80.324 40.734c-7.357 4.528-3.674 2.663-6.58 22.011-6.057 40.319-11.594 43.953-17.285 45.451-4.316 1.136-.925-34.073-39.076-40.177 2.1 30.449-37.799 27.299-34.39.677-15.823 3.006-33.13 5.26-51.713 6.87 4.843 29.558-38.789 29.387-33.94.356-18.717-1.798-36.623-4.25-53.647-7.417 2.515 26.854-37.47 28.849-35.111-.382-17.87 2.571-32.83 17.892-36.864 40.544-10.467-1.582-17-32.562-18.666-54.855-.756-10.124-.877-9.607-4.179-12.017-23.735-16.24-85.305-43.009-85.305-43.009S-5.796 186.031 3.8 182.5c9.595-3.53 25.629-6.146 44.88-18.416-1.515-18.539-13.746-27.663-17.01-33.3 13.971-4.52 42.221 11.969 46.258 15.636 0 0 4.547.744 3.191-10.53-4.087-33.989-19.384-50.759-5.532-69.421 6.74-9.08 23.904-12.216 23.904-12.216-4.809 24.173 7.555 46.958 28.623 60.681 85.57-48.656 171.245-44.201 256.998-.818 23.88-13.777 32.644-42.94 27.517-59.481 25.967 5.279 32.748 18.3 26.722 41.903-5.82 22.794-13.678 46.344-4.52 49.525 18.812-11.96 33.89-18.089 46.043-15.348-9.236 8.21-15.957 20.92-17.868 33.07 0 0 24.649 13.687 39.31 16.601 13.41 3.807 12.22 9.325.572 15.075zm-137.29-53.984c-45.376 99.406-172.239 101.517-219.405.116-27.497 9.17-56.868 23.25-69.441 35.498-4.437 4.322-5.757 8.702-6.456 13.549 5.697 7.478 24.015 3.576 29.326 5.852 10.075 4.318 3.128 5.855 12.728 12.032 3.446 2.217 18.525-.801 40.115 6.31 31.82 10.482 48.031 21.473 104.386 21.473 43.776 0 58.053-6.01 91.604-17.789 27.749-9.742 50.326-8.923 50.326-8.923 7.671-4.124 5.648-8.736 12.488-12.767 5.205-3.068 20.262 1.951 30.486-5.298 1.487-18.497-36.747-35.466-76.157-50.053zm-82.316-15.99c-.947 23.074-15.88 45.878-18.089 55.826 37.486-3.841 73.893-20.973 82.628-44.968-18.282-5.63-39.417-9.485-64.54-10.858zm-59.447.488c-24.633 2.17-45.411 5.008-59.712 10.287 11.442 26.005 45.06 41.512 79.715 44.66-6.588-13.47-16.917-29.325-20.003-54.947zm20.527-1.291c.912 11.363 5.038 49.431 9.731 48.258 5.717-1.43 8.383-33.16 9.518-48.39-6.2.543-12.595.659-19.25.132z"/></svg>