<svg xmlns="http://www.w3.org/2000/svg" width="512" height="512"><path d="m255.687 301.598-64.94-101.508-.097 85.288L78.733 96.958H0v318.083h78.107V226.857L188.87 406.608l66.817-105.01zm-64.92-122.874h77.931V96.96h-77.852l-.079 81.765zM425.03 285.672c-22.742-29.86-65.596-22.8-78.342 9.743 32.403-38.776 58.43-2.92 78.342-9.743zm8.433 4.167a15.946 15.946 0 0 0 17.824 7.122c10.507-2.25 9.783 7.69 25.651 11.055.515-12.492-3.629-13.779-15.966-18.49-12.383-3.78-21.758-9.281-27.392-20.172-18.452-35.375-74.146-21.543-85.483 12.209 22.257-29.816 67.85-27.632 85.366 8.276zm-132.148-52.378-32.812-51.575h-77.736l73.862 115.673-72.081 113.482h75.505l32.85-50.46 33.439 50.46h75.524l-68.48-107.769c-6.815-11.1 4.56-42.359 23.781-54.638 22.722-14.514 59.244-15.834 75.692 18.324 13.52 17.61 40.52 9.9 40.52 32.87 1.071 20.187 30.24 19.557 30.19-.9-1.797-117.272-147.22-159.362-210.254-65.467zm196.657 104.345s-6.183-3.013-2.427-8.785c4.168-6.437 12.405-5.694 16.103-13.637 1.944 10.917-4.382 26.273-13.676 22.422z"/></svg>