<svg version="1.1" xmlns="http://www.w3.org/2000/svg" width="512px" height="512px"><path d="M160.3864594,303.0882874c-6.2985229-5.736084-11.3129272-12.3292236-14.9740143-19.6266479c39.4665985-19.8889465,89.2997589-41.3403168,152.1368103-63.339798c2.8450012,10.4012146,3.4059448,23.1162109,2.8530273,36.6392975C248.9908905,267.2109375,200.0310211,286.0720825,160.3864594,303.0882874z M225.7397614,119.3004074c82.2811432,0.5280304,133.5928497,46.7718735,142.9805756,107.4897995c7.9538269,88.0313568-57.0009766,143.8755951-163.2916718,143.0641327c-65.4801636,0.6652832-116.7131958-24.0500488-131.851181-85.8629761C52.0297432,191.6591797,123.4078064,120.9897156,225.7397614,119.3004074z M216.0739288,335.5267334c52.8444061-2.769165,99.7552948-30.075531,96.6714325-88.6406708c0.5315552-50.5245056-26.1460571-88.380661-96.1413574-90.6794281c-54.1382599,0-90.512558,38.2910309-90.512558,95.2830658C126.1733627,297.7099609,163.3362732,335.7150879,216.0739288,335.5267334z M76.4896927,322.824585C13.1585951,364.4368896,0,392.5792847,0,392.5792847l90.6498947-50.7425232C85.3004379,336.1502991,80.5993958,329.8367004,76.4896927,322.824585z M353.9486084,392.699585h48.9996338c24.0542603-17.7792664,48.0410156-43.4029541,72.0046082-71.7209167c34.4011841-37.5125427,56.386261-103.1877441,12.86203-121.0993195c-24.9984131-12.6445923-93.4274597-4.7736816-113.9236755-1.5444336c6.0378723,15.9201813,9.3986511,35.2446442,7.6077271,55.943634c38.8079834,9.6893158,40.4620361,39.375351,26.2877808,65.0796967C391.1113281,349.5982056,370.1114197,379.090332,353.9486084,392.699585z"/></svg>