<svg version="1.1" xmlns="http://www.w3.org/2000/svg" width="512px" height="512px"><path d="M278.005249,143.727356l-14.04245-8.7510223c-3.1818542,3.2918854-8.3012238,4.1184082-12.4090424,1.6788788c-4.2382812-2.5171967-5.9538422-7.644516-4.3372345-12.1149979l-38.674408-24.1014709l41.2623138,20.210083c3.1985168-3.0207672,8.1012115-3.7328415,12.0717926-1.3747482c3.4797363,2.0666885,5.2367249,5.8948975,4.8704834,9.6730347l15.7886353,7.7332458L278.005249,143.727356z M469.0107422,460.405426C474.6419373,476.549408,468.0948181,512,433.6210632,512c-34.4736023,0-338.7076721,0-367.3137817,0c-28.6062622,0-36.4110298-34.3928223-33.0485306-44.3747253c9.1527557-27.1708679,26.614933-78.1192017,31.1791916-87.9324951c4.5643921-9.8132019,10.9185181-26.973114,39.2529755-26.973114c6.2563705,0,23.4639664,0,46.632431,0l-3.6047516-22.7407532l19.0549469-25.008667c9.9351654-12.914856,15.407135-28.0019836,15.407135-42.4787598v-40.5317078c-0.0023804-0.0002594-0.004776-0.0007935-0.0071564-0.0010529c-3.6581268-0.4981689-7.2714996-1.0381775-10.8426208-1.6160889l-0.0009155-0.0001221v42.1489716c0,11.9230347-4.795929,24.9926147-13.1723633,35.8835754l-12.7882538,16.782959l-16.5202866-104.2208557c-60.0862579-17.4437714-99.6022873-49.4123993-99.6022873-95.7674637C28.2467785,46.0767822,129.2436829,0,253.8298645,0c124.5860291,0,229.9233704,46.0767822,229.9233704,115.1697006c0,51.4523239-42.8043518,82.5887375-106.1057129,98.4068832l-8.4573669,55.6545868c18.539032,4.1099548,53.9390564,12.8525391,61.0400696,14.847168c15.1815796,4.2645264,10.0641785,50.4913635-11.769928,44.6917114c-8.1704712-2.1702576-40.5047913-10.9740601-55.9585571-15.5238953l-5.9985046,39.4735107c23.5988159,0,40.1490479,0,43.7688904,0c15.508606,0,30.9475403,3.9785461,39.7692871,29.2337036C447.2593994,402.6171265,463.3795471,444.2614441,469.0107422,460.405426z M420.1250305,321.239624c4.4530029,1.0931396,9.6820374-4.6159363,11.6793213-12.751709c1.9974365-8.1358948,0.0067749-15.6174622-4.446106-16.7107544c-4.4530029-1.0932617-9.6819153,4.6159363-11.6793213,12.7516785C413.681488,312.6646118,415.6721497,320.1463318,420.1250305,321.239624z M118.2284775,124.8945312c0-5.9510574-4.8242645-10.7754593-10.7754593-10.7754593s-10.7754593,4.8244019-10.7754593,10.7754593c0,5.9511871,4.8242645,10.775589,10.7754593,10.775589S118.2284775,130.8457184,118.2284775,124.8945312z M160.0745239,124.8945312c0-9.885498-8.0137787-17.8992767-17.8992767-17.8992767s-17.8992767,8.0137787-17.8992767,17.8992767s8.0137787,17.8994141,17.8992767,17.8994141S160.0745239,134.7800293,160.0745239,124.8945312z M385.919342,124.8945312c0,5.9511871,4.8244019,10.775589,10.7755737,10.775589c5.9512024,0,10.7754822-4.8244019,10.7754822-10.775589c0-5.9510574-4.8242798-10.7754593-10.7754822-10.7754593C390.7437439,114.119072,385.919342,118.9434738,385.919342,124.8945312z M344.0734253,124.8945312c0,9.885498,8.0137939,17.8994141,17.899292,17.8994141s17.8992615-8.013916,17.8992615-17.8994141s-8.0137634-17.8992767-17.8992615-17.8992767S344.0734253,115.0090332,344.0734253,124.8945312z M190.140564,125.578392c0,35.0642319,28.4252014,63.489296,63.4892883,63.489296c35.0642395,0,63.4892883-28.4250641,63.4892883-63.489296c0-35.0640869-28.4250488-63.4892845-63.4892883-63.4892845C218.5657654,62.0891075,190.140564,90.5143051,190.140564,125.578392z M296.7444153,284.7412415c-0.0013123-0.0098267-0.0025024-0.0198669-0.0036926-0.0298157C296.7419128,284.7213745,296.743103,284.7312927,296.7444153,284.7412415z M315.8569336,223.8043518c-42.8488464,3.5710449-84.7788849,3.4237061-125.7233429-0.7204742l0,0l-0.0008392,21.3909607c0,0,4.4551239,7.7981415,15.5890045,11.6699371v10.8544006c0,0,2.4414062,10.3081665,18.1749115,10.3081665c3.7472839,0,7.9629211,0,12.3696899,0v8.5939331c0,2.4347839,1.9921112,4.4269104,4.4268951,4.4269104h5.1707764v5.782959c0,1.593689,1.3038788,2.897583,2.897583,2.897583h8.5924835c1.593689,0,2.8977051-1.303894,2.8977051-2.897583v-5.782959h5.1706238c2.4349365,0,4.427063-1.9921265,4.427063-4.4269104v-8.5939331c2.2372742,0,4.3153687,0,6.1305237,0c3.5276794,0,6.8484497-0.4677124,9.8571472-1.2619019c-0.0143127,0.2692871-0.0252991,0.5336609-0.0252991,0.7788391c0,3.4036865,7.0700378,5.3130188,10.7658081,6.0798035c-0.3518066-6.7430115,1.9399109-14.9035339,6.4220581-20.0971069c-0.9111633-0.2625122-1.7714539-0.4650269-2.6056519-0.6324768v-5.4075928c7.5296631-2.8219452,13.5505371-8.9708862,14.8640747-12.9118195C316.0740662,241.4074554,316.0813293,232.5563049,315.8569336,223.8043518z"/></svg>