<svg xmlns="http://www.w3.org/2000/svg" width="512" height="512"><path d="m278.005 143.727-14.042-8.75c-3.182 3.291-8.301 4.118-12.41 1.678-4.238-2.517-5.953-7.644-4.336-12.115l-38.675-24.101 41.262 20.21c3.199-3.02 8.102-3.733 12.072-1.375 3.48 2.067 5.237 5.895 4.87 9.673l15.79 7.733-4.53 7.047zm191.006 316.678c5.63 16.144-.916 51.595-35.39 51.595H66.307c-28.606 0-36.41-34.393-33.048-44.375 9.153-27.17 26.615-78.119 31.179-87.932 4.564-9.813 10.918-26.973 39.253-26.973h46.632l-3.604-22.741 19.055-25.009c9.935-12.915 15.407-28.002 15.407-42.479V221.96l-.007-.001a436.855 436.855 0 0 1-10.843-1.616h-.001v42.148c0 11.924-4.796 24.993-13.172 35.884l-12.789 16.783-16.52-104.22c-60.086-17.445-99.602-49.413-99.602-95.768C28.247 46.077 129.244 0 253.83 0s229.923 46.077 229.923 115.17c0 51.452-42.804 82.588-106.105 98.407l-8.458 55.654c18.54 4.11 53.94 12.853 61.04 14.847 15.182 4.265 10.064 50.492-11.77 44.692-8.17-2.17-40.504-10.974-55.958-15.524l-5.999 39.474h43.77c15.508 0 30.947 3.978 39.768 29.233 7.218 20.664 23.339 62.308 28.97 78.452zM420.125 321.24c4.453 1.093 9.682-4.616 11.68-12.752 1.997-8.136.006-15.618-4.447-16.71-4.453-1.094-9.682 4.615-11.68 12.75-1.997 8.137-.006 15.618 4.447 16.712zM118.228 124.895c0-5.952-4.824-10.776-10.775-10.776s-10.775 4.824-10.775 10.776c0 5.95 4.824 10.775 10.775 10.775s10.775-4.824 10.775-10.775zm41.847 0c0-9.886-8.014-17.9-17.9-17.9s-17.899 8.014-17.899 17.9 8.014 17.899 17.9 17.899 17.899-8.014 17.899-17.9zm225.844 0c0 5.95 4.825 10.775 10.776 10.775s10.775-4.824 10.775-10.775c0-5.952-4.824-10.776-10.775-10.776-5.951 0-10.776 4.824-10.776 10.776zm-41.846 0c0 9.885 8.014 17.899 17.9 17.899s17.899-8.014 17.899-17.9-8.014-17.899-17.9-17.899-17.899 8.014-17.899 17.9zm-153.932.683c0 35.065 28.425 63.49 63.489 63.49 35.064 0 63.49-28.425 63.49-63.49 0-35.064-28.426-63.489-63.49-63.489-35.064 0-63.49 28.425-63.49 63.49zm106.603 159.163-.003-.03.003.03zm19.113-60.937c-42.849 3.571-84.779 3.424-125.723-.72l-.001 21.39s4.455 7.799 15.589 11.67V267s2.441 10.308 18.175 10.308h12.37v8.594a4.44 4.44 0 0 0 4.426 4.427h5.171v5.783a2.906 2.906 0 0 0 2.898 2.898h8.592a2.906 2.906 0 0 0 2.898-2.898v-5.783h5.17a4.44 4.44 0 0 0 4.427-4.427v-8.594h6.131c3.528 0 6.848-.467 9.857-1.262-.014.27-.025.534-.025.78 0 3.403 7.07 5.312 10.766 6.08-.352-6.744 1.94-14.904 6.422-20.098a32.277 32.277 0 0 0-2.606-.633v-5.407c7.53-2.822 13.55-8.971 14.864-12.912.816-2.448.823-11.299.599-20.05z"/></svg>