<svg version="1.1" xmlns="http://www.w3.org/2000/svg" width="512px" height="512px"><style type="text/css">.st0{fill:#181816;}</style><path class="st0" d="M0,223.6L0,97.4c0-35.6,28.9-64.5,64.5-64.5h383c35.6,0,64.5,28.9,64.5,64.5V479l-212.5,0c0,0-14.1-37-16.8-55.2c-0.7-4.7,0.7-9.4-0.8-13.8c-1.2-3.8-4-4.2-5.8-7.3c-4.8-8.2-9.8-18.8-10.2-28.8c-0.4-9-3.7-17.2-4.2-26.1c-0.2-4.3,0.3-8.8,0.1-13c-0.1-2.1-0.3-6.9-1.3-9.9l1.1-2.8c-0.5-1,9.6-0.6,12.6-0.6c5.1,0.1,9.9,0.3,15,0.6c10.4,0.5,19.8,0.4,29.9-1.2c22.5-3.5,32.9-12.7,38.2-16.5c20.7-14.9,30.1-39.3,30.1-39.3c3.4-7.6,3.4-21.2,10.7-27.3c8.6-7.2,23.1-6.7,33-11.1c5.8-2.6,10-4,15.9-2.7c4.4,0.9,12.3,6,14.1-1.1c-1.5-0.9-2-2.7-2.8-3.6c8.2-0.8,0.2-19.7-3.1-23.5c-5-5.8-13.3-8.5-22.1-10.8c-10.5-2.8-20-6-29.9-4.1c-17.3,3.4-16-6.5-26.2-6.5c-12.2,0-33.9,0.6-37.7,12.5c-1.7,5.5-3.6,5.8-6.6,10c-2.6,3.6,0.5,6.9-0.9,11c-1.3,4.3-3.3,19.3-5.4,24.6c-3.5,8.9-7.6,20-15.3,20c-10.7,1.3-19.2,1.7-27.9-1.5c-5.2-1.9-14-4.9-18.4-6.7c-20.1-8.4-23.4-17.7-23.4-17.7c-2.2-3.6-23.4-47.8-26.5-55.4c-4-9.9-9.6-17.2-13.6-20.9c-6.2-5.6-12-14.2-24.7-11.7c-2.3,0.4-10.5,0.8-16.8,6.1c-4.3,3.6-5.6,11-9.6,17.3c-2.3,3.6-6.3,14-10,22.6c-2.6,6-3.8,10.5-6.5,12.7c-2.2,1.7-7.5,6-14.4-1c-2.6-2.7-9-13.9-13.7-22c-13.7-23.8-19.1-34.5-34.8-34.6c-20-0.1-21.5,11.2-30.3,27.5C40.5,167.1,31.7,200.3,0,223.6z M0,369.7L0,479h99.2c0,0,8-30.9,9.8-37.2c1.5-4.8,3.4-8.7,4.2-13.6c0.7-4.7-0.1-9.2-0.5-13.4c-1-10.7,7.8-14.5,12-23.7c3.8-8.3,6-17.7,9.1-26.2c3-8.1,7.7-19.6,15.8-23.7c-1-1.1-16.8-1.6-21-2.1c-13-1.4-31.5-5.3-39.9-7.3c-5.1-1.2-22.1-7.3-25.8-9c-8.7-4-14.4-14.8-21.2-13.7c-4.3,0.7-8.5,2.2-11.2,6.5c-2.2,3.6-2.9,9.7-4.5,13.8c-1.8,4.8-4.8,9.2-7.5,13.7C13.8,351.4,3.1,360.4,0,369.7z M275.9,462.3c-1.9-4-4.3-11.8-5.9-15.3c-1.5-3.2-6.1-11.6-8.4-14.3c-5-5.9-6.2-6.3-7.7-13.7c-2.6-12.9-9.3-36.3-17.3-52.4c-4.1-8.3-11-15.3-17.3-21.3c-5.5-5.3-17.8-14.2-20-13.8c-20.2,4-26.4,23.8-35.9,39.5c-5.3,8.7-10.8,16-15,25.3c-3.8,8.5-3.5,17.9-10,25.2c-6.7,7.5-11.1,15.4-14.4,25.1c-0.6,1.8-6.3,32.4-6.3,32.4h164.7l-0.3-0.7C279.9,472,277,464.7,275.9,462.3z"/></svg>