<svg xmlns="http://www.w3.org/2000/svg" width="512" height="512"><path d="M0 223.6V97.4c0-35.6 28.9-64.5 64.5-64.5h383c35.6 0 64.5 28.9 64.5 64.5V479H299.5s-14.1-37-16.8-55.2c-.7-4.7.7-9.4-.8-13.8-1.2-3.8-4-4.2-5.8-7.3-4.8-8.2-9.8-18.8-10.2-28.8-.4-9-3.7-17.2-4.2-26.1-.2-4.3.3-8.8.1-13-.1-2.1-.3-6.9-1.3-9.9l1.1-2.8c-.5-1 9.6-.6 12.6-.6 5.1.1 9.9.3 15 .6 10.4.5 19.8.4 29.9-1.2 22.5-3.5 32.9-12.7 38.2-16.5 20.7-14.9 30.1-39.3 30.1-39.3 3.4-7.6 3.4-21.2 10.7-27.3 8.6-7.2 23.1-6.7 33-11.1 5.8-2.6 10-4 15.9-2.7 4.4.9 12.3 6 14.1-1.1-1.5-.9-2-2.7-2.8-3.6 8.2-.8.2-19.7-3.1-23.5-5-5.8-13.3-8.5-22.1-10.8-10.5-2.8-20-6-29.9-4.1-17.3 3.4-16-6.5-26.2-6.5-12.2 0-33.9.6-37.7 12.5-1.7 5.5-3.6 5.8-6.6 10-2.6 3.6.5 6.9-.9 11-1.3 4.3-3.3 19.3-5.4 24.6-3.5 8.9-7.6 20-15.3 20-10.7 1.3-19.2 1.7-27.9-1.5-5.2-1.9-14-4.9-18.4-6.7-20.1-8.4-23.4-17.7-23.4-17.7-2.2-3.6-23.4-47.8-26.5-55.4-4-9.9-9.6-17.2-13.6-20.9-6.2-5.6-12-14.2-24.7-11.7-2.3.4-10.5.8-16.8 6.1-4.3 3.6-5.6 11-9.6 17.3-2.3 3.6-6.3 14-10 22.6-2.6 6-3.8 10.5-6.5 12.7-2.2 1.7-7.5 6-14.4-1-2.6-2.7-9-13.9-13.7-22-13.7-23.8-19.1-34.5-34.8-34.6-20-.1-21.5 11.2-30.3 27.5 0-.1-8.8 33.1-40.5 56.4zm0 146.1V479h99.2s8-30.9 9.8-37.2c1.5-4.8 3.4-8.7 4.2-13.6.7-4.7-.1-9.2-.5-13.4-1-10.7 7.8-14.5 12-23.7 3.8-8.3 6-17.7 9.1-26.2 3-8.1 7.7-19.6 15.8-23.7-1-1.1-16.8-1.6-21-2.1-13-1.4-31.5-5.3-39.9-7.3-5.1-1.2-22.1-7.3-25.8-9-8.7-4-14.4-14.8-21.2-13.7-4.3.7-8.5 2.2-11.2 6.5-2.2 3.6-2.9 9.7-4.5 13.8-1.8 4.8-4.8 9.2-7.5 13.7-4.7 8.3-15.4 17.3-18.5 26.6zm275.9 92.6c-1.9-4-4.3-11.8-5.9-15.3-1.5-3.2-6.1-11.6-8.4-14.3-5-5.9-6.2-6.3-7.7-13.7-2.6-12.9-9.3-36.3-17.3-52.4-4.1-8.3-11-15.3-17.3-21.3-5.5-5.3-17.8-14.2-20-13.8-20.2 4-26.4 23.8-35.9 39.5-5.3 8.7-10.8 16-15 25.3-3.8 8.5-3.5 17.9-10 25.2-6.7 7.5-11.1 15.4-14.4 25.1-.6 1.8-6.3 32.4-6.3 32.4h164.7l-.3-.7c-2.2-6.3-5.1-13.6-6.2-16z"/></svg>