<svg xmlns="http://www.w3.org/2000/svg" width="512" height="512"><path d="M46.235 162.886h-18.92C12.229 162.886 0 175.116 0 190.201v119.488c0 15.086 12.23 27.315 27.315 27.315h55.711C164.823 487.181 331 551.757 436.613 478.002h58.885c9.114 0 16.502-7.388 16.502-16.502v-80c0-5.682-2.873-10.692-7.245-13.66 13.325-65.887-2.74-143.958-45.633-212.661a11.525 11.525 0 0 0 1.666-5.966V87.129c0-6.405-5.192-11.597-11.597-11.597h-57.784C251.625-45.66 71.637-12.475 46.235 162.886zM165.46 329.63c5.325-4.985 8.657-12.072 8.657-19.94V190.2c0-15.085-12.23-27.314-27.315-27.314h-18.125C152.183 53.562 263.246 12.585 375.51 87.927v61.286c0 6.405 5.192 11.597 11.597 11.597h57.803c42.842 66.63 52.124 146.053 24.143 204.188h-53.554c-9.114 0-16.502 7.389-16.502 16.503v49.595c-76.79 27.361-169.39-6.81-233.536-101.466z"/></svg>