<svg xmlns="http://www.w3.org/2000/svg" width="461" height="512"><path d="m136.445 387.686-121.982 42.59c-11.366 3.346-16.457-11.5-13.75-17.96l197.041-205.251c4.97-5.157 9.764-10.182 8.402-17.214l-16.35-88.15c-4.342-18.092 18.014-23.463 24.449-9.65l49.938 103.395a21.358 21.358 0 0 1-1.773 21.888L144.689 381.52a17.064 17.064 0 0 1-8.244 6.167zm219.138-142.755-72.196 184.77a25.755 25.755 0 0 1-9.952 12.221l-105.046 68.285c-13.573 7.553-23.243-10.697-17.158-18.746l141.451-245.438c3.08-5.371 3.74-10.139 1.184-15.778l-36.598-79.27c-8.244-15.159 10.764-26.12 17.606-19.114l77.481 92.42a20.76 20.76 0 0 1 3.228 20.65zm49.786 98.85c-8.295 17.804-28.121 4.25-23.67-12.745l19.482-86.168a10.11 10.11 0 0 0-2.32-9.234L205.097 21.93c-9.644-10.583 1.412-26.136 15.111-20.874L341.26 48.08l116.254 173.475a19.814 19.814 0 0 1 1.123 20.164L405.37 343.782z"/></svg>