<svg xmlns="http://www.w3.org/2000/svg" width="512" height="512"><path d="M395 512H117C52.65 512 0 459.35 0 395V117C0 52.65 52.65 0 117 0h278c64.35 0 117 52.65 117 117v278c0 64.35-52.65 117-117 117zm11.577-275.806c-21.41-15.052-49.892-5.508-59.482 16.544l-85.787-8.043c-.485-7.603-2.37-14.682-5.356-21.065l52.314-42.272c20.48 13.308 49.805 4.754 58.548-20.187 10.076-28.747-14.686-57.88-44.466-52.312-25.044 4.682-37.976 30.977-29.739 53.009l-52.44 42.953c-14.765-12.56-28.278-17.302-54.665-13.06l-16.243-28.765c17.402-16.472 16.81-46.041-4.572-61.052-25.347-17.792-61.067-1.904-64.143 28.531-2.68 26.51 15.345 45.88 46.118 43.346l17.97 30.442c-28.332 24.092-28.493 68.905 1.739 91.569l-20.847 44.136c-23.434-2.55-46.116 15.829-45.033 40.77 1.296 29.84 35.64 46.871 61.67 30.584 22.745-14.23 24.37-44.653 6.191-61.15l20.677-43.775c14.18 3.242 28.597.928 40.794-5.529l52.085 55.653c-12.433 20.559-2.735 49.82 22.473 58.415 29.063 9.91 57.122-15.024 50.384-44.773-5.625-24.833-32.003-37.597-53.554-29.603l-52.162-55.735a57.95 57.95 0 0 0 8.64-15.36l87.083 8.165c5.381 23.758 32.017 38.581 55.858 27.513 27.76-12.887 31.07-51.284 5.945-68.949z"/></svg>