<svg xmlns="http://www.w3.org/2000/svg" version="1.1" width="374" height="512"><path d="m222.90165.00194509c-7.5743.1383-14.4779 6.24062-14.47265 14.70703.007 11.28856 12.28915 18.39007 22.05469 12.75196 9.76592-5.63813 9.757-19.82413-.0156-25.47461-2.44316-1.4126-5.04164-2.03048-7.56641-1.98438zm3.13282 47.64258c-5.79183.10576-11.06941 4.77174-11.06641 11.24609h.002c.005 8.6325 9.39745 14.06348 16.86524 9.75196 7.46668-4.31153 7.45962-15.16153-.0137-19.48242-1.8683-1.08023-3.85651-1.55088-5.78711-1.51563zm123.28515 13.67578c-2.52477-.0461-5.1252.56982-7.56836 1.98242-9.77217 5.65049-9.78112 19.83843-.0156 25.47657 9.7655 5.63811 22.04769-1.46337 22.05469-12.75196.005-8.4664-6.89639-14.56874-14.47071-14.70703zm-242.31445 17.12305c-2.52756-.0476-5.12928.56703-7.574217 1.97656-9.779716 5.63813-9.779714 19.809145 0 25.447275 9.779757 5.63808 22.070307-1.44834 22.070307-12.724615 0-8.45717-6.91341-14.55631-14.49609-14.69922zm121.85352 8.90234c-4.79657.0876-9.16902 3.95087-9.16602 9.3125h.002c.005 7.148775 7.78247 11.646695 13.9668 8.076185 6.18328-3.57053 6.17718-12.554515-.0117-16.132825-1.5472-.89458-3.19216-1.28505-4.79101-1.25586zm83.6875 2.19336c-1.93073-.0352-3.91881.43735-5.78711 1.51758h-.002c-7.47217 4.321-7.47756 15.168935-.01 19.480475 7.4678 4.31152 16.86123-1.11749 16.86523-9.75.004-6.474355-5.27424-11.142295-11.0664-11.248055zm-165.79102 11.785165c-1.93285-.0364-3.92329.43188-5.79297 1.50976-7.47865 4.31154-7.47866 15.1494 0 19.46094 7.47869 4.3115 16.87891-1.10739 16.87891-9.73047 0-6.46728-5.28738-11.13095-11.08594-11.24023zm134.45117 11.45117c-1.59836-.0292-3.24621.36192-4.79297 1.25586-6.18847 3.57893-6.19361 12.5645-.01 16.13477 6.18433 3.57053 13.96279-.92731 13.96679-8.07618.003-5.36163-4.36738-9.22686-9.16406-9.31445zm-100.37695 6.94531c-1.60066-.0302-3.24854.35737-4.79688 1.25-6.19333 3.57053-6.19333 12.54665 0 16.11719 6.19336 3.5705 13.97852-.91752 13.97852-8.05859 0-5.35578-4.37966-9.2181-9.18164-9.3086zm50.69726.59961c-3.77646.15332-7.28514 3.19259-7.3789 7.30078-.12493 5.47758 5.91453 8.78451 10.8457 5.9375 4.93113-2.84698 5.08942-9.73069.2832-12.36132-1.20155-.65764-2.49117-.92806-3.75-.87696zm24.04883 12.17383c-1.25883-.0511-2.54845.21931-3.75.87695-4.80619 2.63062-4.64795 9.51433.28321 12.36133 4.93113 2.84699 10.9705-.45795 10.8457-5.93554-.0937-4.10819-3.60243-7.14943-7.37891-7.30274zm-46.87695 2.36914c-7.59565.64096-8.2193 8.40944-5.5586 12.09961l-158.55273 23.8125v14.82031l35.0625 11.82618c-74.165996 73.95502-119.03023 178.42178-31.65625 250.93945 30.817866 25.57787 110.71791 69.45255 139.5918 62.99805 88.05411-1.76934 172.31111-130.69413 95.17383-171.59376l-65.2168-23.93359c-38.40433 6.1581-53.07082 27.03252-59.27149 46.0625l56.69336 29.31055c8.50905-15.89258 17.5385-32.93114 48.64063-39.61914 4.69745 46.28699-32.31079 130.63765-148.82031 111.13476-33.505095-77.97773 59.09206-175.31607 130.45898-218.40429l51.86133 15.14062v-15.46289l-39.47852-69.74805c6.97803-1.41503 9.40078-10.57251 2.92578-13.81445-3.41633-2.07769-7.46147-.72213-9.40429 2.36914l-12.02149-21.24023-24.03906 3.61133c2.79496-5.83224-2.37987-10.10381-6.38867-10.3086zm76.09961 35.94336c-4.80198.0906-9.17967 3.95282-9.17969 9.30859.00051 7.14019 7.78319 11.62724 13.97656 8.05665 6.19328-3.57053 6.19335-12.54468 0-16.11524v.002c-1.54833-.89259-3.19621-1.28214-4.79687-1.25195zm34.07422 14.53125c-5.79856.10928-11.08593 4.77488-11.08594 11.24219.00056 8.62209 9.40024 14.04013 16.87891 9.72851 7.4786-4.31152 7.47815-15.1466 0-19.45898-1.86968-1.07788-3.86012-1.54815-5.79297-1.51172zm39.75 15.96289c-7.58268.14292-14.49607 6.24203-14.4961 14.69922-2e-4 11.27659 12.29055 18.36271 22.07032 12.72461 9.77923-5.63786 9.78004-19.80823.002-25.44727h-.002c-2.44452-1.4089-5.04718-2.02419-7.57422-1.97656z"/></svg>