<svg version="1.1" xmlns="http://www.w3.org/2000/svg" width="512px" height="512px"><path d="M292.1618042,35.2697296c-4.3180542,10.0361443-3.1095276,21.7456589-6.2557373,32.1764221c-0.7252502,2.4024887-3.1004944,9.6603851-6.575531,9.1578598c-7.1045532-1.0273895-3.4236145-14.6769524-11.6228333-14.9496117c2.3050232,5.6542473,2.8690186,12.5063438,2.5741882,19.9493752c-12.3197937,1.5473633-19.0468292-37.6536255-24.047699-45.4663124c0,0,1.2480621,24.058567,1.6335907,28.0910454c0.24646,2.5844116,0.7683563,5.1447525,1.0778961,7.7223434c0.5386353,4.4857178,0.6659546,8.388649,0.0998077,12.8705597c0,0-13.5043945-23.0262947-22.0724182-27.5623055c5.5674896,11.9459801,9.3625336,22.5492439,6.6277008,28.2058449c-13.0508118-0.1094055-21.1529541-10.6407471-26.8829803-20.6308899c-2.3926392-4.1699982-11.8225098-12.1702232-11.8225098-12.1702232c2.6822815,11.5932198,11.6965942,23.9583855,12.3439636,36.0187416c0.1673584,3.1182251-2.775528,11.0339355-7.1000366,9.5774307c-9.9927368-3.3661575-13.8470917-10.6102829-19.9759521-18.6090927c-6.1288452-7.9988022-18.78685-22.3093834-18.78685-22.3093834c0.0061798,9.6172676,19.8302002,35.8521767,23.1920166,44.8551369c0.7233429,1.9363785,2.7542877,8.7442627-1.4640045,8.6174927c-7.5395508-0.2265167-9.4167328-14.8437653-17.0741425-13.1221771c0.9370117,3.942894,3.2794647,7.1431503,4.5858307,10.9399796c0.7979431,2.3199158,2.2761383,4.6642914,2.7047729,7.0781631c0.9356537,5.2788925-5.7512207,5.7067719-9.2211304,4.6842346c-8.197937-2.4170914-14.0855255-9.118782-19.9493866-14.9800491c-1.6248932-1.6242599-8.1979828-4.82061-16.9616852-5.5217056c0,0,11.2433014,8.733551,12.9189911,10.6699371c5.008606,5.7898254,10.4277649,12.571312,12.8204498,19.9493866c1.0282745,3.1699829,1.2297363,7.6747437-1.9177246,9.8498535c-3.122406,2.1576996-8.2017517-1.7587433-10.7211761-3.4165344c-7.7152557-5.0767975-39.664032-22.0086517-39.664032-22.0086517s3.0058975,5.4203415,8.5495453,10.1876602l9.9360199,11.8229446l16.0302277,18.0187988l-18.6622696-7.7223053c0.75354,4.8785858,12.4419937,10.7906647,10.1407166,15.8185272c-1.3637161,2.9802246-8.1259155,3.0297699-10.7842712,2.6507263c-9.5145798-1.3559113-40.527916-18.058548-49.3782654-20.5979309c0,0,41.9011383,35.9447784,45.5171051,40.0967865c-2.8276825,6.7193756-4.7830276,15.5184174-5.9632416,21.8799896c-5.20298-0.0138855-43.4981346-16.1924591-43.4981346-16.1924591s30.3118477,26.0673828,35.9439812,30.4337769c2.149353,1.666748,5.2634354,4.5150146,2.8321304,7.3600006c-4.8013535,5.619339-24.0653534,1.5657501-24.0653534,1.5657501c5.868988,3.4254761,17.9029694,5.3798676,21.3567657,11.6954346c2.7009125,4.9391479-4.9795914,16.1351776-10.4167862,15.6969757c-4.8444748-0.3913269-9.2970505-5.859314-12.8705597-8.7294769c-8.5524902-6.8696442-17.7028275-14.9511108-27.6717033-19.6913452C30.5272484,221.1020966,13.5498037,234.0479279,0,242.4858551c0,0,8.5737467-0.3520203,12.8705626,0.622345c5.7832613,1.3108063,10.1768236,6.6913605,13.884511,10.9611816c17.9157066,20.6328278,32.9108047,44.0269928,39.6100616,70.7881317c2.6966934,16.0706177-11.8720932,29.3016357-11.8720932,29.3016357s9.4936943-1.2242126,20.2336197-4.719635s16.9336548-5.0090942,21.2228012-14.2855225c2.6680527-5.7705688,3.6069794-16.9975586,10.2327042-19.3058167c1.4659653,6.184906,8.4211884,14.3674011,7.7442017,20.5928345c-0.6017075,5.5298767-6.4249344,11.9368286-9.8305588,16.030365c-1.2059555,1.4498596-4.1173096,4.6288452-2.3751831,6.7107239c1.7336502,2.0715027,5.311676-2.3894653,6.3921204-3.4100342c4.8836899-4.6116028,15.5586014-11.8956299,18.4569626-1.3122253c2.5200882,9.203125-5.5767746,24.0821228-9.6213531,32.1763916c-1.1254959,2.2517395-6.3091202,9.2906189-4.2852325,11.8016663c2.3334274,2.8946228,7.2152328-4.647522,8.255188-6.0098572c4.0561066-5.3123474,18.2600784-21.0556335,25.8060989-15.3977356c9.2031555,6.9005737,6.0299072,11.8332214,2.5419312,21.1894836c-0.9826202,2.6352844-4.611496,9.2430115-2.1442261,11.7495422c2.3875275,2.4248047,5.5227356,0.2040405,6.7429504-2.1088562c2.2085266-4.1874695,8.1508789-16.6300354,14.0958099-13.4542542c3.7208557,1.9878845,9.4109955,5.3580322,11.5751801,9.0718384c3.3830261,5.8052673,0.4408417,17.3913879-0.4608154,23.7004395c-0.5192719,3.6327209-4.4248657,14.9678345-1.182785,17.592804c2.9949646,2.4248047,5.416626-4.866333,6.3161926-6.6527405c3.1700439-6.2956543,6.8169556-12.7425537,11.5359192-18.0187988c1.6937714-1.8939819,4.0883026-5.0677795,6.9667969-4.5291748c14.9472046,2.7980347-0.3237,17.6873169,5.8098297,25.2881165c1.2413483,1.5380249,4.607666,1.4273376,6.4172974,1.7644958l7.7223206-19.9493713c3.9274292,1.5129395,9.7043915,2.037384,12.6009216,5.2859192c2.4338379,2.7299194,2.9120026,7.3414001,3.6152954,10.8022766c1.9692535,9.690918,3.0471344,19.1134949,1.802597,28.9588013c1.2233582,0.8796997,3.1525726,2.9222412,4.7948456,1.8751831c2.0773163-1.3256836,2.342453-6.7338257,3.0522461-8.9540405c2.2704468-7.1000671,5.7339325-13.8886414,8.9521332-20.5928345c2.119812-4.416626,7.8987427-9.1201172,12.0693665-3.0380859c4.2781982,6.2376709,2.565155,17.1486816,5.2383423,24.2745361c6.8349304-3.368866,7.5801086-17.59729,7.7223206-24.454071l8.864563,1.2928772l5.3252563,10.9341431l9.6207886,27.6717224c4.9789124-1.9048462,3.4022522-11.4798584,3.9608459-16.0881958c0.7574463-6.2473755,2.2066345-18.7980957,6.7872314-23.4476318c1.8469849-1.8745728,5.5196533-2.0335693,7.9141846-2.9370117c2.7311707,6.6586304,4.2292786,14.2103577,7.5350952,20.5832214c1.2889709,2.4840393,4.2260437,5.1617737,7.1958618,3.6385193c2.8425293-1.4582214,2.7357178-4.7763062,2.3707886-7.4899902c-0.8964539-6.6682434-2.4132385-13.2251587-2.9440918-19.9493408c12.7579346-0.9009705,20.242157,9.4141846,28.2579041,18.0187683c3.0973816,3.3251343,5.7943726,7.7293701,10.3537292,9.0094299l-6.6147766-19.3059082l-3.6816406-18.0188293c4.6295471-1.9375916,14.4266357-11.4065247,19.3058167-10.0274353c7.267395,2.0541382,12.8197632,22.304718,21.8420715,17.5445251c3.8482666-2.0296936,1.85849-5.4699402,0.0515137-8.1605835c-2.6913147-4.0066528-10.7836304-13.6286926-9.9071045-18.65979c0.649231-3.7285767,6.8947449-8.0717468,10.5371094-8.0215759c8.3432312,0.114624,22.8484497,6.4655762,27.6716919,13.1672058l5.791748-0.6435547c-0.8681335-11.5209961-18.1347046-16.7760925-20.6045227-28.3145752c-0.2464294-1.149353-0.2046814-2.5367432,0.0779419-3.6784058c1.834137-7.3960876,6.2827454-4.1661377,10.8737183-2.1789246c1.4318848,0.6196594,4.5606995,2.2085571,5.7454224,0.4368896c1.306366-1.9530945-1.0084839-4.5291443-1.8571777-6.1636658c-1.7331238-3.3360291-3.3226013-7.1888733-2.6012268-10.9399414c6.0125427,1.5726929,9.723114,5.1488342,14.801178,8.5267334c1.2008362,0.7985535,3.8502808,2.7993164,5.3657837,1.6840515c1.5939941-1.1731567-0.7593994-3.5400696-1.5174255-4.4190979c-2.2678223-2.6294861-9.2121277-8.979187-8.5267639-12.8126526c0.4626465-2.587616,4.8290405-5.3599243,6.6090393-7.1367188c5.8837585-5.8747253,12.5841675-11.8608398,17.3752136-18.662262h0.6435547c11.3673706,13.2592163,46.9981689,3.9608765,42.4729614-16.0883179c-2.834137,0.4054871-5.4661865,2.6333618-8.3658752,1.6339417c-12.6749268-4.3695374-9.6117554-24.6741028-23.8105164-24.8008728c-1.0464172-13.2355347-6.364563-26.4651489-12.7817993-37.9681854c-2.9421997-5.2744141-9.0582886-10.0995483-11.1947632-15.4697876c-1.1841431-2.9776459-0.9826965-7.697937-1.1210327-10.9149017c7.4449463-1.159668,3.7756042-8.6959686,1.065033-12.8705444c-3.0201111-4.6520844-6.2151489-10.1716003-10.1342468-14.0977478c-4.8149414-4.8226776-11.9857483-7.9663086-11.3680115-16.1474457c0.5746765-7.6200104,13.7046509-6.6515656,15.9325256-13.5147095c-3.8933411,0.1672516-7.7422791,1.1319733-11.5835266,1.7715912c-9.5614929,1.5927582-11.2269592-1.6235962-6.7621765-10.1374664c3.901062-7.4386139,10.1098633-13.0829315,15.5875854-19.3058472c1.75354-1.9911346,7.1598206-6.5286255,4.3746643-9.412941c-2.3012695-2.3836136-6.1012878,1.2549133-8.0518188,2.5484314c-7.1039124,4.7092667-15.0347595,8.1894913-23.1670227,10.7089157c-2.4216003,0.7503815-9.5635071,3.5438995-10.3723755-0.7484131c-1.0920715-5.7943726,9.8774719-6.8761139,8.4417725-13.3924713c-4.3882141,1.0425491-13.0114746,7.9681854-17.2278748,4.7576141c-5.0735779-3.8637466,2.3771667-13.7271118,3.1738892-18.27108c0.8069763-4.6025162-2.8945312-4.771759-5.4995728-1.8932571c-0.9125061,1.0084152-1.7401428,2.1114197-2.5812378,3.1796799c-1.4549561,1.8482208-2.6615906,3.6410751-3.6062622,5.7917633c-10.5397339-6.1534271,9.4012451-13.3030243,5.6482239-18.9985123c-1.3372498-2.029747-3.8045349,0.0018616-5.0046692,1.0524292c-2.5020142,2.1899261-11.9072571,13.0275955-13.9530334,5.0722885c-2.2633057-8.7985764,2.3057251-19.36763,4.6726685-27.6685028c0.6177979-2.1678467,3.408783-8.0170746,0.7007446-9.5744858c-3.9519043-2.272995-5.6842041,5.3951569-6.610321,7.6439056c-2.8514709,6.92379-7.5639954,12.9434128-13.1253967,17.907074c-1.8321228,1.6350784-4.9396973,4.8085098-7.6843567,4.0528183c-3.98349-1.0966949-3.998291-12.1459579-3.8733826-15.5246124c0.059845-1.6086273,0.9639893-4.3839722-0.6074829-5.549469c-2.0495911-1.5202026-3.1204529,1.5296097-3.4255066,2.9783249c-0.9962769,4.7380981-3.9364929,18.2734375-10.960022,9.3987274c-6.3547974-8.0309143,3.4731445-24.6892967-9.4868774-28.0640259c-0.2935791,9.306076-2.25,17.1648178-7.0787964,22.5234985c-8.4830017-1.8516312-6.600647-13.9805908-4.5046387-20.5929146c0,0,2.0253601-7.4758644-0.9821167-10.3806686c-3.4286804,9.6255798-13.2675781,28.3161354-16.806366,17.4594917c-2.7008362-8.2860756-1.7432861-17.2258415-3.0869446-25.7411385c-0.5361023-3.3958054-0.8539429-6.8404732-4.2222595-8.3658676L292.1618042,35.2697296z"/></svg>