<svg version="1.1" xmlns="http://www.w3.org/2000/svg" width="512px" height="512px"><path d="M194.1598053,346.7045898c-81.4760132-2.2305298-130.1515503-92.2525787-87.4056473-161.6507416s143.4521484-67.9549332,182.1822815,3.6737976S275.6358337,348.9351501,194.1598053,346.7045898z M266.7775269,202.8306885c-28.8969269-54.5507355-104.710968-57.71492-136.6040955-4.8629303s2.2104187,123.341568,65.4525299,124.1938019C256.4159851,323.8602905,295.6744385,257.3814087,266.7775269,202.8306885z M369.6627197,78.1505356c0-16.5369415-17.9274292-26.9286423-32.191925-18.6601715s-14.2644653,29.0518723,0.0000305,37.320343C351.7352905,105.0791702,369.6627197,94.6874695,369.6627197,78.1505356z M361.6187744,138.9239044h-26.492157v202.9052887h26.492157V138.9239044z M86.2642593,319.5690308c-176.2157898,115.0671997-74.113739,200.1036377,230.197876,71.2651978c217.7547302-92.1922913,276.0112-231.3290863,59.3876648-191.1717224l3.3935852,2.2624054c184.9501038-37.894989,146.4895325,89.3642731-89.3642883,181.5565338c-179.2941742,76.9211731-390.2617493,79.7491455-202.8598022-60.1113281L86.2642593,319.5690308z"/></svg>