<svg xmlns="http://www.w3.org/2000/svg" width="512" height="512"><path d="M391.712 251.71h39.942v50.301h-13.29l-2.128-10.552c-14.55 21.9-70.98 18.484-72.937-35.662-.394-61.263 80.46-63.914 86.883-16.317h-19.998c-3.9-16.672-22.15-18.816-33.214-12.207-9.551 5.706-13.221 17.662-12.787 28.558.091 19.066 10.118 33.098 29.446 30.944 9.446-1.052 17.931-6.091 19.149-19.76h-21.066V251.71zm73.887 32.964v-75.739h-20.884v93.005H512v-17.266h-46.4zm-320.832-4.865c-9.64 23.197-40.294 30.325-61.768 19.033 52.96 45.031 184.53 66.036 283.835 14.66C239.861 417.295-1.159 358.054.004 255.838c1.229-107.937 252.207-157.533 367.221-57.282-85.962-48.636-225.9-34.066-282.672 12.365 31.824-16.503 83.72 12.321 60.214 68.887zm-69.012-4.255c11.93 26.045 47.916 23.162 57.857-.597 10.969-26.222-.704-57.079-28.944-57.78-27.123-.673-41.46 32.828-28.913 58.377zm258.67 26.386v-38.966c.631-12.34-5.523-19.036-14.229-20.933-9.022-1.967-21.212-.202-26.722 10.043v-9.397h-9.45v59.253h10.04v-33.442c0-11.634 8.726-21.518 23.09-17.244 3.983 1.186 6.95 4.234 7.231 10.6v40.086h10.04zM168.99 242.687v8.02c3.634-9.817 28.583-14.895 40.602-.128 4.316 5.302 6.731 12.805 6.731 21.75 0 4.707-1.11 16.172-8.085 23.471-8.55 8.947-29.558 11.4-39.248-1.85v30.555h-10.041v-81.818h10.04zm9.292 49.534c11.882 5.81 27.549 2.76 28.24-19.83.563-18.335-15.706-27.696-28.112-19.675-12.63 8.167-12.304 30.676-.128 39.505zM232 275.255c-.265 5.809 1.825 11.62 6.492 15.508 7.754 6.462 25.598 5.866 28.047-7.66h9.852c-3.548 22.02-29.84 23.788-42.87 15.358-9.236-5.976-11.704-16.838-12.164-26.36.334-41.183 57.926-42.141 56.025 3.154H232zm0-8.633h34.74c-2.8-23.661-33.377-21.188-34.74 0z"/></svg>