<svg version="1.1" xmlns="http://www.w3.org/2000/svg" width="481px" height="512px"><path d="M295.9779663,407.6113586l-0.0001526,12.725708h184.9472656v-5.0902405c-116.6587524-11.6301575-115.3226013-16.7838745-142.0734558-53.0274353l-77.1451111-99.0351562l137.3334351-117.706665c30.2643738-27.3864517,31.6337585-56.8591385,11.1921387-77.5453644C291.4389954-39.3914795,133.9564819-7.2410417,55.2821884,79.1243591c125.9111862-92.3349457,252.7355652-60.0295944,291.9079285-16.860096c14.8586426,16.3747292,23.7481079,37.106411,2.2846985,59.2302132L230.2568665,222.8106689l-70.5149994-90.5237274c-10.8367004-13.737381-2.1318817-22.1178589,27.0281677-22.2706757V98.5882492H0v2.8765411c85.8539429,8.0056152,114.7478867,12.7937393,137.6978149,44.9898148l73.0191193,92.9617615L72.003624,357.3003235c-26.9127769,24.050415-31.4498215,62.5120544-8.362114,87.4639587c39.606842,40.4740906,104.5166779,65.2616577,163.7792053,67.090332c96.454071,2.9763794,175.2166443-40.2067566,206.9509583-87.7029419c-39.3288574,36.3041992-113.6766052,86.269043-213.9101257,66.1984558c-151.5956726-30.3547974-104.8600769-104.5910339-93.2986526-111.8505859l115.2271347-98.759613l80.9481354,103.0562439C333.2831726,395.7353821,323.3362427,408.6352539,295.9779663,407.6113586z"/></svg>