<svg version="1.1" xmlns="http://www.w3.org/2000/svg" width="512px" height="512px"><path d="M391.7124023,251.7098999h39.9418335v50.3013916h-13.2902222l-2.128418-10.5524292c-14.5505371,21.9005737-70.9798584,18.4840088-72.9368286-35.6621704c-0.3933716-61.2629395,80.4608154-63.9138794,86.883667-16.3168335H410.18396c-3.8998413-16.6723022-22.149353-18.8163452-33.2137451-12.2067871c-9.5514526,5.7057495-13.2216187,17.6619873-12.7871704,28.5574341c0.0909424,19.0661011,10.117981,33.0980835,29.4458618,30.9448242c9.446167-1.0523682,17.9315186-6.0913086,19.1486206-19.7606201h-21.0651245V251.7098999z M465.5994873,284.673584v-75.7381592H444.715271v93.0048218H512V284.673584H465.5994873z M144.7668457,279.8087158c-9.6394958,23.1973267-40.2937622,30.3251343-61.7679443,19.0335083c52.9602051,45.03125,184.5293579,66.0358887,283.8353882,14.6589966C239.8608398,417.2963867-1.1591797,358.0551758,0.0042114,255.8394165C1.232666,147.9024048,252.2114258,98.3060303,367.2254639,198.557373c-85.9623413-48.6368408-225.9011841-34.0661621-282.6722412,12.3648071C116.376709,194.4189453,168.2722015,223.2433319,144.7668457,279.8087158z M75.7553101,275.5535889c11.9292603,26.0456543,47.9160156,23.1627808,57.8571167-0.5964355c10.9681396-26.2217407-0.7040405-57.0787964-28.944519-57.7800903C77.5446777,216.50354,63.2086182,250.0049438,75.7553101,275.5535889z M334.4259033,301.9402466v-38.9666138c0.6300659-12.34021-5.5241699-19.0352173-14.2294312-20.9328613c-9.0223389-1.9667969-21.2120361-0.2017822-26.7224121,10.043396v-9.3967896h-9.4509277v59.2528687h10.0404663v-33.4418335c0-11.6340332,8.7266235-21.5182495,23.0899048-17.2442017c3.9834595,1.1853638,6.9497681,4.2335205,7.2318726,10.6005859v40.0854492H334.4259033z M168.9887695,242.6873779v8.0199585c3.6342163-9.8171387,28.5830688-14.8952026,40.6027222-0.1281128c4.3153687,5.3017578,6.7307739,12.8049316,6.7307739,21.7497559c0,4.7070312-1.1108398,16.1723022-8.0854492,23.4713135c-8.5493164,8.9469604-29.5581665,11.3991089-39.2480469-1.8497314v30.5543213h-10.0410156v-81.8175049H168.9887695z M178.2810669,292.2214966c11.8815918,5.8095093,27.5484619,2.7587891,28.2406616-19.8306274c0.5618286-18.3345947-15.7063599-27.6960449-28.1124878-19.6744995C165.7788086,260.8828735,166.1054077,283.3915405,178.2810669,292.2214966z M231.9989014,275.2553711c-0.2644043,5.8082886,1.8255615,11.6194458,6.4920044,15.5081177c7.7540283,6.4616699,25.5982666,5.8652344,28.046814-7.6596069h9.8521118c-3.5476685,22.0188599-29.8406982,23.7874756-42.8692627,15.3571777c-9.236145-5.9763184-11.7044067-16.8378296-12.1646118-26.3604736c0.3344727-41.1824341,57.9259033-42.140686,56.0254517,3.1547852H231.9989014z M231.9989014,266.6220703h34.7401123C263.9387207,242.9605103,233.3617554,245.4336548,231.9989014,266.6220703z"/></svg>