<svg xmlns="http://www.w3.org/2000/svg" width="512" height="512"><path d="M292.162 35.27c3.368 1.525 3.686 4.97 4.222 8.366 1.344 8.515.386 17.455 3.087 25.74 3.539 10.857 8.123 8.983 11.552-.643.904-2.539 1.768-5.097 2.375-7.722l3.862 1.287c-2.096 6.612-3.979 18.741 4.504 20.593l7.08-22.524c12.96 3.375 3.131 20.034 9.486 28.064 7.024 8.875 9.964-4.66 10.96-9.398.305-1.449 1.376-4.499 3.426-2.979 1.571 1.166.667 3.941.607 5.55-.125 3.379-.11 14.428 3.873 15.524 2.745.756 5.853-2.417 7.685-4.052 5.561-4.964 10.274-10.984 13.125-17.907.926-2.25 2.659-9.917 6.61-7.644 2.708 1.557-.082 7.406-.7 9.574-2.367 8.301-6.936 18.87-4.673 27.669 2.046 7.955 11.451-2.883 13.953-5.073 1.2-1.05 3.667-3.082 5.005-1.052 3.753 5.695-16.188 12.845-5.648 18.998.944-2.15 2.15-3.943 3.606-5.791.84-1.069 1.669-2.172 2.581-3.18 2.605-2.878 6.307-2.71 5.5 1.893-.797 4.544-8.248 14.408-3.174 18.271 4.216 3.21 12.84-3.715 17.228-4.757 1.435 6.516-9.534 7.598-8.442 13.392.809 4.293 7.95 1.499 10.372.749 8.132-2.52 16.063-6 23.167-10.71 1.95-1.293 5.75-4.931 8.052-2.548 2.785 2.885-2.621 7.422-4.375 9.413-5.477 6.223-11.686 11.867-15.587 19.306-4.465 8.514-2.8 11.73 6.762 10.138 3.841-.64 7.69-1.605 11.583-1.772-2.227 6.863-15.357 5.895-15.932 13.515-.618 8.18 6.553 11.324 11.368 16.147 3.92 3.926 7.114 9.446 10.134 14.098 2.71 4.174 6.38 11.71-1.065 12.87.139 3.217-.063 7.938 1.121 10.915 2.137 5.37 8.253 10.196 11.195 15.47 6.417 11.503 11.735 24.733 12.782 37.968 14.199.127 11.135 20.432 23.81 24.801 2.9 1 5.532-1.228 8.366-1.634 4.525 20.05-31.105 29.348-42.473 16.089h-.643c-4.791 6.8-11.492 12.787-17.376 18.662-1.78 1.777-6.146 4.549-6.609 7.136-.685 3.834 6.26 10.184 8.527 12.813.758.88 3.112 3.246 1.518 4.42-1.516 1.115-4.165-.886-5.366-1.685-5.078-3.378-8.789-6.954-14.801-8.527-.722 3.752.868 7.604 2.6 10.94.85 1.635 3.164 4.211 1.858 6.164-1.185 1.772-4.314.183-5.745-.437-4.591-1.987-9.04-5.217-10.874 2.18-.283 1.14-.324 2.528-.078 3.678 2.47 11.538 19.736 16.793 20.604 28.314l-5.791.644c-4.824-6.702-19.329-13.053-27.672-13.168-3.642-.05-9.888 4.293-10.537 8.022-.877 5.031 7.216 14.653 9.907 18.66 1.807 2.69 3.797 6.13-.051 8.16-9.023 4.76-14.575-15.49-21.843-17.544-4.879-1.38-14.676 8.09-19.305 10.027l3.681 18.02 6.615 19.305c-4.56-1.28-7.256-5.684-10.354-9.01-8.015-8.604-15.5-18.92-28.258-18.018.531 6.724 2.048 13.28 2.944 19.95.365 2.713.472 6.03-2.37 7.49-2.97 1.522-5.907-1.155-7.196-3.64-3.306-6.372-4.804-13.924-7.535-20.583-2.395.904-6.067 1.063-7.914 2.937-4.581 4.65-6.03 17.2-6.788 23.448-.558 4.608 1.018 14.183-3.96 16.088l-9.621-27.671-5.326-10.935-8.864-1.292c-.142 6.856-.888 21.085-7.722 24.454-2.674-7.126-.96-18.037-5.239-24.275-4.17-6.082-9.95-1.378-12.07 3.038-3.217 6.704-6.68 13.493-8.951 20.593-.71 2.22-.975 7.628-3.053 8.954-1.642 1.047-3.571-.995-4.794-1.875 1.244-9.845.166-19.268-1.803-28.959-.703-3.46-1.181-8.072-3.615-10.802-2.897-3.249-8.674-3.773-12.601-5.286l-7.723 19.95c-1.81-.338-5.175-.227-6.417-1.765-6.133-7.601 9.138-22.49-5.81-25.288-2.878-.539-5.273 2.635-6.966 4.529-4.72 5.276-8.366 11.723-11.536 18.019-.9 1.786-3.322 9.077-6.317 6.652-3.242-2.625.664-13.96 1.183-17.593.902-6.309 3.844-17.895.461-23.7-2.164-3.714-7.854-7.084-11.575-9.072-5.945-3.176-11.887 9.267-14.096 13.454-1.22 2.313-4.355 4.534-6.743 2.11-2.467-2.507 1.162-9.115 2.144-11.75 3.488-9.356 6.662-14.29-2.542-21.19-7.546-5.658-21.75 10.086-25.806 15.398-1.04 1.362-5.921 8.905-8.255 6.01-2.024-2.511 3.16-9.55 4.285-11.802 4.045-8.094 12.142-22.973 9.622-32.176-2.899-10.584-13.574-3.3-18.457 1.312-1.08 1.02-4.659 5.482-6.392 3.41-1.742-2.082 1.169-5.26 2.375-6.71 3.405-4.094 9.229-10.501 9.83-16.031.677-6.225-6.278-14.408-7.744-20.593-6.626 2.308-7.564 13.535-10.233 19.306-4.289 9.276-15.072 14.372-24.517 16.648-2.894.697-7.192 2.068-10.14 1.166-1.597-.488-1.657-1.968-.493-3.013 1.557-1.397 3.663-1.618 5.075-3.31 5.265-6.313 2.254-14.743.491-21.787-6.7-26.762-21.694-50.156-39.61-70.789-3.708-4.27-8.101-9.65-13.884-10.96-4.297-.975-11.138 4.846-12.871-.623 13.55-8.438 30.527-21.384 47.621-13.256 9.969 4.74 19.12 12.822 27.672 19.692 3.573 2.87 8.026 8.338 12.87 8.73 5.438.437 13.118-10.759 10.417-15.698-3.454-6.315-15.488-8.27-21.357-11.695v-1.287c6.324-1.869 19.264 5.34 24.066-.279 2.431-2.845-.683-5.693-2.832-7.36-5.633-4.366-14.449-7.559-18.85-13.163-2.936-3.74-.33-7.74 4.052-8.048 3.67-.258 7.068 2.075 10.296 3.48 4.736 2.06 8.955 3.476 14.158 3.49l3.217-12.87-18.018-8.367v-1.287l18.662.644c-3.616-4.152-7.036-8.325-10.94-12.227a140.266 140.266 0 0 0-7.722-7.163c-1.486-1.278-2.967-2.553-4.504-3.768-4.431-3.501-5.885-9.563 1.93-7.321 8.85 2.54 15.583 9.624 25.097 10.98 2.659.379 9.42.33 10.784-2.65 2.302-5.029-9.387-10.94-10.14-15.82l18.662 7.723-16.03-18.019-6.194-8.366 2.275-5.791c9.712.207 17.382 9.078 25.097 14.155 2.52 1.658 7.599 5.574 10.721 3.417 3.148-2.175 2.946-6.68 1.918-9.85-2.393-7.378-7.812-14.16-12.82-19.95-1.676-1.936-7.585-7.008-4.576-9.895 2.706-2.596 6.993 3.123 8.618 4.747 5.864 5.862 11.752 12.563 19.95 14.98 3.47 1.023 10.157.595 9.22-4.684-.428-2.414-1.906-4.758-2.704-7.078-1.306-3.797-3.649-6.997-4.586-10.94 7.658-1.722 9.535 12.896 17.074 13.122 4.219.127 2.188-6.681 1.464-8.617-3.361-9.003-7.592-20.629-7.598-30.246 1.848-.08 4.508-.922 6.191.043 8.327 4.77 6.985 22.9 16.978 26.266 4.325 1.457 7.268-6.46 7.1-9.577-.647-12.06-6.994-23.158-9.676-34.751 5.734-2.575 8.916 5.483 11.309 9.653 5.73 9.99 11.678 21.77 24.729 21.88l-.644-18.662c8.638 2.385 4.316 17.88 16.088 18.018.567-4.481.44-8.384-.1-12.87-.309-2.578-.83-5.138-1.077-7.722-.386-4.033 1.004-17.138 6.774-8.123 5.001 7.813 3.32 27.045 15.64 25.498l-2.574-19.95c8.199.273 4.518 13.923 11.623 14.95 3.475.503 5.85-6.755 6.575-9.158 3.146-10.43 1.938-22.14 6.256-32.176zm.643 19.306c-.38 18.386-5.932 32.162-26.384 32.176l7.079 28.959c-7.68-8.049-10.481-19.314-13.944-29.603-2.198-6.53-4.997-13.093-6.006-19.949h-.643c.24 11.618 2.689 23.145.354 34.75-1.284 6.38-4.88 11.34-6.79 17.376h-.643l3.86-28.315c-14.366 1.135-26.769 3.312-36.182-10.297-2.045-2.957-3.624-6.342-5.003-9.653h-.643c1.612 10.768 11.201 23.333-.058 32.365-1.72 1.379-3.705 2.226-5.734 3.03l10.173 15.419 5.915 7.747c-16.28-10.782-25.966-29.56-34.107-46.977h-.643c2.076 13.86 10.5 26.39 12.595 40.542.728 4.917 2.632 11.873-1.655 15.445l-5.149-24.454c-7.495 3.889-13.264 15.58-23.167 13.929-4.212-.702-7.62-4.112-11.583-5.564 1.865 5.896 7.03 11.47 4.084 18.02-1.09 2.422-3.216 4.28-4.728 6.435l20.593 7.722c-3.757 4.496-11.58.966-16.088-1.147-8.544-4.005-16.147-9.296-23.81-14.754-4.355-3.102-9.48-7.524-14.802-8.553 3.278 7.028 11.69 12.984 17.376 18.128 4.7 4.252 8.211 9.169 12.175 14.048 3.904 4.806 9.007 10.23 7.13 16.732-6.844-6.901-12.821-11.918-23.167-9.502-3.755.877-6.922 3.083-10.94 2.984-7.154-.177-14.064-3.82-20.592-6.353 3.79 8.127 13.778 12.503 15.908 21.88 1.566 6.89-3.403 15.683-4.325 22.524l21.88 3.218v1.287c-18.763 4.964-31.983-5.341-49.552-8.366v.643c11.85 5.606 25.28 15.074 33.728 25.098 3.073 3.645 6.84 7.879 6.815 12.87-3.458-2.8-9.99-10.118-14.801-9.38-3.839.588-5.108 4.848-5.615 8.093-1.371 8.76-1.464 18.167-1.464 27.029-3.686-3.22-3.218-7.704-3.218-12.227-4.579 3.015-9.526 6.798-15.445 5.612-5.987-1.201-11.951-8.575-16.088-12.69-8.173-8.13-17.233-16.15-28.959-17.747-6.115-.832-24.636.028-16.358 9.368.853.962 1.709 1.963 2.87 2.568 4.357 2.272 13.656-.626 18.637-.626v.644l-16.089 3.218c6.464 13.547 20.461 1.402 28.316 9.653-5.367-1.587-14.583-1.587-19.95 0l8.991 11.583 4.13 5.404 15.194 1.675v.643H52.77c.799 7.088 8.995 5.158 14.158 4.505v.644l-10.94 1.93c1.719 3.988 5.918 15.816 9.904 17.628 3.12 1.419 7.457-1.322 10.045-2.827-3.552 6.477-9.902 3.867-6.435 12.87l10.297-5.147c-2.295 2.587-6.153 4.634-7.702 7.732-1.788 3.574 1.232 10.05 2.553 13.504l10.297-7.722-9.8 11 .79 11.523c8.627-3.592 15.616-9.967 19.297-18.662 1.527-3.607 1.686-8.122 3.506-11.498 1.33-2.467 5.175-2.07 5.949-4.737 1.482-5.104-1.671-9.25.85-14.654h.644l1.93 10.296c6.501-1.826 10.375-12.047 12.228-18.019h1.287c1.795 8.257-5.678 13.606-8.366 20.593 4.543 1.052 12.713 3.256 12.227 9.01l-16.088-5.792 12.227 27.028h.644c5.887-8.897 11.575-23.047 19.949-29.602 2.924 9.492-7.208 17.208-10.94 25.097 5.518-1.509 15.524-8.918 20.593-5.791-7.092 2.952-13.393 7.207-18.603 12.87-1.712 1.863-4.848 4.99-4.81 7.723.038 2.795 3.474 6.177 5.023 8.365 5.624 7.944 12.423 16.305 20.964 21.237 3.496-6.644 6.45-13.288 8.284-20.593.843-3.353.707-7.87 3.943-9.653 3.15 17.755-9.55 37.326-13.514 54.056 12.097-10.26 19.403-26.85 34.75-33.463-.352 8.273-13.653 12.652-14.365 21.87-.25 3.234 3.77 4.918 5.999 6.461 6.24 4.323 11.522 9.13 18.663 12.017 2.568 1.038 4.995 3.222 7.382.73 4.337-4.529 4.71-13.333 4.018-19.198-.439-3.715-1.983-9.394.827-12.227l4.48 26.384-2.55 30.89h.644c6.016-15.29 11.347-31.907 23.167-43.76.07 8.064-9.053 19.405-12.227 27.028 12.068 5.644 26.209 9.053 39.255 11.584 1.021-8.084.723-15.896-1.387-23.811-.945-3.545-4.047-8.284-1.83-11.584 7.981 17.177 16.718 34.598 16.731 54.057h.644c.007-11.8 2.065-23.839 4.376-35.394.422-2.112 1.03-10.807 4.012-10.807 3.255 0 1.98 5.21 1.658 6.946-1.464 7.9-3.242 15.841-4.254 23.81l27.671-.692 9.635-1.716-.257-9.819-13.239-23.167c5.034-1.15 10.008 7.813 12.347 11.584 8.521 13.743 14.263 31.26 17.899 46.977h.643c-1.681-21.271-7.224-40.898-4.504-62.422 6.263 2.515 2.889 18.362 3.68 24.454.254 1.96-.04 7.082 2.315 7.859 2.203.726 6.062-1.17 8.162-1.855 7.573-2.468 14.652-6.03 21.88-9.336 2.761-1.263 6.676-2.807 6.874-6.324.697-12.395-10.454-15.918-17.814-22.52 6.495-.675 11.236 3.585 16.089 7.352 7.247 5.626 14.387 12.013 20.31 19.032 3.413 4.045 5.94 9.472 9.935 12.87-2.202-6.91-7.51-13.403-10.78-19.949-6.34-12.687-11.237-26.431-13.03-40.542h.643l12.227 32.177c6.647-2.26 12.04-10.155 16.339-15.445 1.933-2.38 4.328-4.568 4.254-7.722 10.804-3.886-3.049-12.46-5.148-16.089 7.482-1.124 14.213 6.116 21.237 7.723-3.131-6.707-8.576-15.471-7.08-23.167h1.288l4.504 12.87c11.274-10.422 24.622-21.117 33.014-34.107 11.852-18.344 11.776-41.542 3.485-61.135-2.27-5.364-4.433-12.97-8.434-17.28-5.695-6.132-10.624 4.188-11.333 8.914 2.799.42 5.358 1.361 7.72 2.96 8.727 5.907 9.176 16.26 5.503 25.355-1.558 3.857-4.442 7.303-4.72 11.584-.344 5.303 2.509 10.34 3.425 15.445 1.522 8.473-2.625 17.493-8.71 23.107-5.646 5.207-13.559 8.08-21.237 6.945-3.55-.525-7.328-3.877-10.937-2.544-5.661 2.092-6.76 10.658-10.299 14.964-1.597-9.675 5.748-15.246 7.282-23.81.798-4.453-2.463-11.827-3.852-16.088-1.098-3.371-2.795-12.854-7.928-10.922-3.313 1.248-4.979 5.01-6.921 7.704-4.584 6.354-8.753 14.136-16.896 16.088 2.992-7.722 11.104-14.186 15.643-21.236 9.005-13.988 18.553-37.634 6.63-52.769-3.593-4.56-9.36-7.783-14.55-10.22-7.142-3.353-15-4.397-22.524-6.512v-1.287l9.009-1.287-1.93-14.158-5.792 1.93c.065-23.56 23.645-36.414 39.898-48.908l-2.97 8.366 8.021 12.227 16.186 25.098-6.435-.644c1.241 9.218 3.443 17.853.193 27.029-2.089 5.897-7.227 10.812-8.783 16.731-.785 2.985.645 6.01.648 9.01.005 4.184-1.433 8.204-2.355 12.227 11.526-5.485 13.73-22.302 25.741-26.385-.98-5.695-3.4-10.837-3.804-16.732-.871-12.716 1.642-25.287-.34-37.968-2.167-13.877-8.209-26.31-13.23-39.255l5.79 2.574c1.335-8.9 8.67-13.712 13.515-20.593-7.44 2.708-18.868 11.932-27.028 7.073-5.629-3.35-7.672-10.725-13.514-13.508l-7.723 30.89h-.643c-3.396-14.263 3.896-27.754 7.079-41.187-9.806 7.933-16.656 17.943-30.246 19.95l18.662-13.571 4.282-6.266-5.569-4.812-14.158-10.102 6.436 1.287 2.574-20.592h-.644a38.172 38.172 0 0 1-5.206 7.078c-2.66 2.87-6.15 7.465-9.966 8.776-7.485 2.574-17.825-6.144-24.727-8.132v29.602c-6.574-1.098-5.72-7.736-5.789-13.514-.152-12.72-.549-25.237-.003-37.968h-.643c-1.926 14.307-6.617 34.694-20.593 41.83 4-6.424 7.804-11.911 9.924-19.307.624-2.179 2.455-5.903.158-7.632-6.486-4.883-16.432-.71-21.76-8.466-5.237-7.622-1.8-17.333-5.054-25.087zm-68.214 304.388c4.854-2.78 11.174-11.068 13.514-16.088-5.152 1.543-7.404 6.592-10.94 10.297l-1.93-13.514c15.05-1.314 21.662-17.759 30.521-27.647 5.392-6.017 12.146-8.624 19.03-12.252-4.057-4.855-9.701.275-13.513 3.21-10.215 7.866-16.109 17.397-25.098 26.392l5.148-13.514h-.643c-2.796 6.715-6.138 13.882-12.87 17.375l2.573-9.01h-.643c-2.706 6.465-5.757 9.65-12.87 9.654l6.434-14.801h-.643l-8.366 14.157-2.574-.643 6.435-12.227h-.643c-3.254 5.207-6.685 12.612-13.514 10.94l5.791-10.94c-3.224 2.524-4.62 8.56-8.425 10.06-1.737.683-5.008-.588-4.312-2.884.905-2.984 5.815-5.922 7.75-8.463 6.591-8.655 11.934-22.764 21.719-28.088 8.012-4.36 20.204 1.164 28.959 1.057 5.016-.062 10.728-1.782 12.227-7.076-4.092-.442-7.96 2.2-12.227 2.206-10.816.018-28.565-5.37-37.859 1.973-8.461 6.683-8.941 15.652-14.263 24.133-2.598 4.141-7.189 6.943-10.94 9.929-1.39 1.106-3.908 2.714-3.381 4.833.647 2.606 5.084 4.005 7.238 4.991a72.415 72.415 0 0 0 15.445 5.058c2.811.575 6.996.483 9.383 2.212 4.358 3.158 2.887 13.918 3.487 18.67zM370.03 207.735c14.724-3.545 30.824-5.64 45.69-2.574-2.214-7.687-7.954-14.002-13.045-19.95-1.74-2.033-3.959-5.795-6.907-6.018-3.49-.265-6.538 3.102-9.007 5.047-7.228 5.695-13.458 14.847-16.731 23.495zm65.64-15.444 1.287 15.444 14.157 1.93c-2.37-6.25-9.13-14.927-15.444-17.374zm-29.603 54.7c4.882-2.326 7.219-7.888 8.537-12.871 1.623-6.133 3.73-22.307-4.06-25.353-4.285-1.676-11.443.255-16.06.255-4.181 0-13.101-.637-16.344 2.48-2.992 2.878-.755 13.727 1.449 16.65 2.288 3.035 7.734 3.637 11.034 5.184 6.578 3.084 11.87 7.242 15.444 13.655zm29.603-34.751v5.792c11.668-4.22 14.312 12.851 1.93 12.227l2.574 14.801c8.624-4.024 12.595-23.429 5.514-30.685-2.136-2.188-7.125-1.907-10.018-2.135zm-32.82 2.574c-1.319 1.355-3.241 2.34-4.21 3.998-6.802 11.629 18.903 11.93 11.64-.644-.828-1.432-2.294-2.365-3.57-3.354l-3.86 1.93v-1.93zm35.394 90.738c-1.477-4.364-.803-9.64-3.638-13.486-3.704-5.026-12.012-4.6-17.599-4.53-1.927.023-5.143-.095-6.391 1.736-1.489 2.182 1.22 7.518 1.805 9.844 2.422 9.64 4.583 22.94 12.955 29.4 5.502 4.246 16.574 1.463 21.166-3.085 7.325-7.253 9.302-24.204 1.86-32.036-9.201-9.685-9.06 7.544-10.158 12.157zm.95-18.28c1.04.189 2.06.388 2.268.442.208.055 1.654-.255 3.212-.688 7.24-2.01 13.848-14.079 11.813-21.573-2.192-8.073-11.932-13.916-19.496-11.696-4.784 1.403-8.416 4.779-15.86 14.74-4.075 5.453-8.484 10.82-9.797 11.924-1.314 1.105-2.388 2.243-2.388 2.529 0 .286 2.983.377 6.63.202 7.85-.375 13.483-2.664 21.35-8.678 7.112-5.437 7.577-5.558 3.733-.975-4.819 5.746-6.002 7.61-6.002 9.458 0 1.957 1.991 3.851 4.537 4.315zM287.013 98.979l-10.296 46.334c7.932-4.834 9.608-22.456 10.297-30.89h.643c1.379 7.42 2.048 14.853 5.067 21.88 1.195 2.785 2.509 6.49 5.873 6.436l-8.239-28.959-3.344-14.801zm-63.065 8.366c.136 16.454 8.273 31.432 5.148 48.265 3.087-1.889 3.175-6.298 3.215-9.653.093-7.786-1.263-15.418-1.284-23.167h.643c2.24 7.777 8.32 23.243 17.375 24.454-1.087-4.181-4.507-7.345-6.798-10.94-5.089-7.99-10.072-24.108-18.3-28.96zm131.923 7.079c-7.155 11.236-15.684 26.567-26.385 34.75v.644c8.115-1.448 16.883-11.701 19.306-19.306h.644c-.095 11.447-5.357 23.583-.644 34.75h.644c3.424-11.584 1.64-25.25 4.588-37.324.924-3.787 4.331-10.1 1.847-13.514zm-42.473 25.74c-3.8 8.573-5.654 16.535-13.514 22.524v1.287c5.649 1.488 9.585-5.602 10.94-10.296h.644c.558 4.324 1.084 13.315 5.791 14.801l-3.16-14.801-.7-13.514zm-137.715.644c1.39 15.83 22.68 26.527 19.95 43.76 3.422-2 2.523-5.73 1.374-9.01-2.377-6.781-6.353-12.715-9.097-19.305 6.158 5.62 15.257 11.975 23.81 8.366l-13.504-5.596-22.533-18.215zm88.807 5.149c-1.947 6.405-7.41 18.91-5.148 25.097h1.287l4.505-15.444h.643c1.59 5.825 3.256 14.66 10.297 15.444l-10.297-25.097h-1.287zm-43.116 16.088 3.217 27.028h1.287l-.643-19.306c4.196 2.922 9.874 10.125 15.445 7.722-2.15-2.328-5.264-2.736-7.72-4.725-3.994-3.233-6.1-10.287-11.586-10.72zM106.182 268.227c.834 4.8 5.594 2.223 9.01 1.99 4.907-.337 14.02 1.253 16.731 5.732l4.505-.643c-1.151-7.284-11.652-7.27-17.375-7.723 4.214-4.26 10.25-5.527 11.583-12.227l-24.454 12.871zm92.668-5.792-7.722 7.08c3.014 1.017 9.975 4.982 12.227 1.93l-8.366-3.218 3.861-5.792zm-39.899 2.574c-3.895 8.734-9.895 15.846-16.731 22.514-3.924 3.828-10.041 7.385-11.584 12.88l28.315-6.01 14.802-3c-8.824-6.286-24.301.711-32.82 4.506 5.852-11.75 17.342-16.408 19.95-30.246l-.645-.644h-1.287zm13.515 37.968c4.258-.182 19.092.388 21.236-2.574l-14.158-1.93 7.723-14.801c-4.683 1.464-12.722 14.765-14.801 19.305m6.435 5.149c-2.016 9.64-8.906 18.318-15.081 25.74-2.943 3.538-7.47 7.095-8.73 11.584 10.665-3.072 22.654-13.906 34.107-12.87-2.946-5.707-16.688 2.21-21.88 3.217 4.175-6.186 9.882-11.575 12.57-18.662 1.128-2.973 1.839-6.972-.986-9.01zm19.95 36.037c0 12.63-1.719 24.504-5.149 36.681 4.478.165 6.823-4.492 9.25-7.722 4.791-6.378 9.596-13.41 17.135-16.732v-.643c-7.645-.99-17.2 10.44-19.95 16.732h-.643c2.266-8.759 4.282-19.707.643-28.316h-1.287zm-19.307-159.595v.644c5.425 5.473 9.888 13.012 13.274 19.95 1.864 3.819 1.335 8.028 5.389 10.296-.323-7.524-3.54-13.23-6.436-19.95 4.558 2.66 10.669 6.635 16.089 5.149v-1.288c-7.303-3.245-12.957-6.007-19.306-11.064-2.706-2.154-5.473-4.94-9.01-3.737zm-43.116 5.792c.604 5.427 5.046 7.453 9.01 10.45 5.438 4.114 10.493 8.568 14.649 14.004 2.706 3.54 4.375 9.662 7.874 12.227-.753-9.462-6.336-20.597-15.445-24.454v-.643c9.263 1.796 18.485 5.24 27.672 1.287v-1.287l-10.94-.431-32.82-11.153zm92.668 28.959c1.137 4.154 2.921 7.702 6.435 10.296l-3.86-8.366 7.722.644c-1.994-3.616-6.664-2.574-10.297-2.574zm-32.82 3.861 9.01 10.94-5.149-9.01 7.723-1.286-.644-2.575-10.94 1.931zm-64.996 18.019v1.287l18.662 6.435c-.38-4.89-6.704-6.35-10.94-7.079l12.87-11.583c-6.84-.803-15.049 7.532-20.592 10.94zm27.028-2.574v1.287l14.158 5.087 8.365 5.853c-.915-6.835-8.167-7.983-12.87-11.584 5.978-1.126 14.092-1.221 16.732-7.722l-26.385 7.079zm79.154 129.992-.644.644c3.15 8.65 6.248 15.817 7.774 25.098.71 4.31.27 9.92 3.81 12.87 3.618-6.866 4.921-14.832 8.226-21.88 1.896-4.046 4.991-7.598 4.001-12.227-6.185 3.043-9.836 16.779-11.583 23.167-3.192-8.507-2.216-23.29-11.584-27.672zM362.95 165.906c-6.788 6.807-12.458 11.482-21.88 14.158v1.287c5.574 1.6 10.964-1.491 15.445-4.505-.733 3.778-5.551 13.67-1.93 16.088l6.18-18.662 2.185-8.366zm-110.043 14.801-3.862 19.95c3.23-2.448 3.98-10.26 4.505-14.158l5.792 6.435c-.676-4.338-3.21-9.247-6.435-12.227zm63.065 1.93-12.227 12.228 11.584-8.366 1.93 11.583c2.25-3.298 1.071-12.336-1.287-15.444m25.742 25.74-10.94 8.367 9.653-5.149-1.288 7.723c2.737-1.91 3.758-7.908 2.575-10.94zm-74.006 9.01c0 3.277-.632 6.598 2.574 8.366v-6.435l7.722 2.574-10.296-4.505zm39.255 9.01 3.218-5.792 3.86 2.574c-2.827-7.57-7.034-2.148-7.078 3.218zm-84.302 36.037 7.722 1.93-4.285-4.13 2.355-6.166c-3.104 1.609-5.005 5.015-5.792 8.366zm32.176-1.93-7.079 9.01 9.01 3.217-6.436-3.861c1.34-2.81 6.597-5.25 4.505-8.366zm110.687 1.93 6.907 7.08-6.263 5.79c4.403-.359 8.158-1.696 11.583-4.504-2.503-4.239-7.39-7.433-12.227-8.366zm-58.561 7.723.644 7.078c2.984-1.58 4.935-3.788 5.791-7.078l-4.504 3.217-1.931-3.217zm24.454 12.87-.643 9.01-5.792-3.862c.604 3.905 3.334 5.757 7.079 6.436l.643-11.584h-1.287zm-43.116 14.158 7.078 7.722 3.218-7.722-3.218 5.148-7.078-5.148zm64.996 0-.643 9.653-6.436-3.862c-.358 4.243 6.14 9.065 9.653 10.94l-1.287-16.731h-1.287zm-30.89 26.384c-2.721-2.715-5.494-6.464-9.652-5.791l12.227 14.8 3.217-18.661c-4.903.775-4.664 5.64-5.791 9.652zm-60.491-3.217-.644-3.218h-1.93l.643 8.366c3.748-.649 7.65-7.388 8.366-10.94l-6.435 5.792zm23.81 4.504-3.217 8.366h-.644l-5.148-7.078 4.505 14.8h.643c1.712-4.3 7.773-12.209 3.862-16.088zm69.502 4.505 3.86 21.237c-4.101-3.584-16.752-20.097-21.88-14.158 11.84 3.772 16.773 17.604 27.029 23.81l-3.209-12.226-3.87-19.306-1.93.643zm34.107 4.505c-3.26 7.978 4.695 16.54 7.722 23.81-8.367-4.312-15.795-11.5-25.741-11.583v2.574c14.33 1.251 21.971 15.913 33.463 22.524-.107-11.995-10.402-25.785-14.157-37.325h-1.287zm-130.637 9.653-4.504.643c1.518 3.61 4.196 6.526 5.455 10.297 1.394 4.178.49 9.944 4.841 12.227 2.016-4.525 6.969-11.902 5.792-16.732-3.656 1.798-5.388 5.711-5.792 9.653h-.643l-5.149-16.088zm49.552 14.801-14.801-10.296c.824 2.633 2.914 3.418 4.866 5.227 3.839 3.561 7.192 11.892 12.51 12.791l1.286-21.236c-5.194 1.98-3.861 8.952-3.861 13.514zm36.681-1.287c-4.538 8.045 2.076 24.623 3.218 33.463h-.644c-3.586-7.576-10.496-13.833-16.088-19.949-.788-.862-4.864-6.415-6.323-4.079-1.519 2.435 5.93 8.213 7.328 9.87 5.143 6.096 9.788 12.99 13.682 19.95 2.25 4.023 4.212 9.403 8.48 11.584-3.22-16.6-8.319-33.841-8.366-50.84h-1.287zm-63.71 18.019c7.277 14.451 12.665 28.043 16.733 43.76 4.538-2.544 3.913-7.037 3.863-11.584-.117-10.59 3.95-21.133 3.215-31.533-3.037 1.04-3.58 4.152-4.108 7.079-1.269 7.022-1.293 14.271-2.97 21.237-3.49-8.108-6.257-27.282-16.732-28.96zm196.92-83.659-3.439 16.088-2.438 8.338 4.59 3.246-1.287-5.792h.644c2.976 7.147 6.112 8.366 13.514 8.366l-4.505-9.653c2.968 3.415 4.044 8.24 9.01 9.01l-4.505-8.367c4.119 4.471 6.153 7.558 12.227 4.505v-1.287c-10.723-5.102-11.696-22.26-23.81-24.454z"/></svg>