<svg xmlns="http://www.w3.org/2000/svg" width="512" height="512"><path d="M47.075 330.25a183.478 183.478 0 0 1 10.894-26.404L14.74 278.03a222.762 222.762 0 0 0-11.374 41.226l43.71 10.994zm-1.968-107.426c-9.917 13.37-18.421 27.71-25.264 42.868l44.536 26.596a177.589 177.589 0 0 1 19.867-26.901l-39.14-42.563zm212.511-103.036-19.868 94.198c19.014 4.09 36.856 11.608 52.926 21.969l56.526-100.604c-27.86-9.878-58.036-15.38-89.584-15.563zm-108.001 21.487c-17.878 7.603-34.644 17.05-50.025 28.101l30.001 60.091c11.182-6.032 23.079-10.772 35.53-14.006l-15.506-74.186zm195.269 150.84 116.514-76.47c-24.312-30.318-56.222-55.052-93.099-71.81l-69.331 97.853a171.808 171.808 0 0 1 30.308 28.497l-131.634 84.198c-12.206 8.39-10.672 22.314-2.814 30.936 7.858 8.621 21.217 9.24 29.839 1.381l114.117-104.017a179.886 179.886 0 0 1 6.1 9.432zM1.449 332.393C.506 340.693 0 349.113 0 357.645c0 5.152.238 10.25.585 15.322h37.95c.834-10.283 2.528-20.298 4.928-30.006L1.449 332.393zm474.978-95.699-124.586 68.069c10.334 20.647 16.993 43.706 18.982 68.204h140.592c.347-5.071.585-10.17.585-15.322 0-44.172-13.001-85.505-35.573-120.95zM93.445 255.877a168.627 168.627 0 0 1 23.97-19.115l-31.36-56.97a247.255 247.255 0 0 0-32.666 32.524l40.056 43.56zm132.775-43.921 11.69-91.55c-24.894 1.618-48.816 6.497-71.242 14.26l12.666 77.827a157.51 157.51 0 0 1 25.345-2.071c7.306 0 14.484.56 21.541 1.534z"/></svg>