<svg xmlns="http://www.w3.org/2000/svg" width="512" height="512"><path fill-rule="evenodd" d="M71.212 316.895c-1.563-39.321-.765-78.627 2.836-116.932 3.05-29.275 21.785-40.74 44.85-42.45 22.787-.714 43.257 13.19 46.778 42.291 1.173 36.742.793 73.919-1.947 111.176-3.985 40.382-19.889 42.844-43.147 45.56-25.468 2.89-45.853-9.776-49.37-39.645zm44.426 16.078c18 1.605 16.36-38.733 15.508-75.157.138-49.19 2.492-76.704-11.499-76.832-16.939-.076-16.213 28.064-15.845 75.839.26 43.792-2.194 74.9 11.836 76.15zm119.283-111.815h28.214l-.208-36.502c-1.936-17.363-18.017-30.829-43.333-31.494-29.158.542-43.948 16.753-44.931 49.49-.769 29.3 10.893 44.681 35.187 62.725 37.032 28.96 31.626 60.573 11.19 61.943-16.119-1.195-15.998-20.489-16.976-42.906l-29.97-.65.52 44.395c1.446 13.407 25.894 29.78 52.792 29.868 23.783-1.155 43.187-24.988 42.41-50.758-2.096-18.641.202-43.845-36.586-70.9-40.51-22.821-30.896-53.013-15.447-54.034 18.471 1.194 17.575 14.56 17.138 38.823zm117.094-113.746L270.3 406.116l-12.627-.326 83.213-299.906 11.128 1.528zm26.468 114.708-32.885 2.411-.885-31.803c.805-26.346 25.803-45.889 51.871-44.719 29.524 2.087 40.76 14.207 44.509 37.607 3.02 22.841-9.011 47.673-34.589 75-21.124 23.737-29.587 42.426-32.878 60.43l59.615-1.238-1.317 35.411-90.694 2.03-.128-41.169c.598-15.352 12.361-39.822 32.25-62.701 33.286-34.295 44.853-69.991 19.447-71.29-11.47 1.138-17.374 9.578-14.312 40.03M127.711 477.548c-170.281-98.17-170.281-344.925 0-443.094S512 59.662 512 256 297.993 575.716 127.711 477.547zm6.463-11.161c-161.703-93.224-161.703-327.548 0-420.772S499.104 69.553 499.104 256s-203.227 303.61-364.93 210.386z" clip-rule="evenodd"/></svg>