<svg version="1.1" xmlns="http://www.w3.org/2000/svg" width="318px" height="512px"><path d="M177.1659088,98.5239868c-0.4777527-12.2625656-15.1632996-18.3797607-22.2088623-23.1278687c-5.6726227-3.8228455-38.5994034,14.7747574-51.5245132,23.1760864C87.5071182,108.9237213,91.16996,131.3785553,91.16996,131.3785553c-4.2998657,4.6183624-6.4464722,7.121109-7.8034515,14.8106232c-0.9555206,5.4146423,1.3743744,10.9297485,2.5480652,16.084671c0.9488068,4.1671753,0.7962646,7.3256836,0.7962646,7.3256836c-10.5107727,3.1850891-18.1549683,14.8106384-18.1549683,14.8106384h-3.1850739c-2.0703125-3.0258331-3.8220978-24.5251312-0.318512-30.4175415c25.814743-19.3298798,0.4777679-39.335762-25.7991638-50.1650391c-6.1508026-2.534874-10.7149487-0.8425598-15.4476452,0.1592484c-21.8178177,4.6183701-3.9813538,56.057457-3.9813538,56.057457v6.051651c0,0-21.3376694-45.3694229-19.7385254-57.2487946c1.1672821-8.6712189,9.4949341-16.8252335,17.8190536-18.7328491c2.8833847-0.6607742,0.0290375-8.0671997,1.5991516-15.7630081c2.0232239-9.9167175,11.008255-22.5105515,11.008255-22.5105515c5.2490139,6.2903671,12.2710476,33.129776,12.2710476,33.129776l18.4555359,0.0684052c0,0,78.8267746-34.3623466,88.6271286-36.9279633L169.0234833,0c12.9934387,8.7955809,20.8135681,26.2432289,21.4168701,48.5650558c0,0,18.5036011,2.3787918,28.9580383,14.1773758c21.1152344,23.8300552,24.6912537,58.0101318,54.2963104,81.4445038c12.7090149,10.0600281,24.1901245,18.1225739,31.84198,34.7772064c17.3318176,37.7234802,16.907959,99.4996948-8.2055664,139.0116272c0,0-62.7482758,92.6744385-58.8868561,116.8084106c3.8614502,24.1339417,29.9261017,25.5820007,66.1270599,25.5820007l-27.1192322,37.6230469c-52.2786102,10.3759155-114.6483612,35.0211487-108.5136261-24.1080322c0,0-99.5287247,55.1700134-137.0809326,29.9261169c-13.4040833-9.0106812-39.5802536-88.7986145-19.7892609-147.4891663c4.834671-14.3372803,15.1015472-33.4532776,28.9601574-49.4440002c31.3741608-36.2009277,55.0254517-52.61203,72.3824158-68.6036377c13.327179-12.2788086,24.7576981-16.3253632,29.4629288-24.0707855c9.8209686-16.1665649,1.9080963-28.8708038,1.9080963-28.8708038c18.8557281-7.6291962,31.5509186-19.5251617,36.1467438-27.8562164c5.2427673-9.5038147-5.6375732-8.7879791-5.6375732-8.7879791s10.421875-12.4470062,13.0990601-22.7160721c0.4460754-1.7110214-3.1622314-4.7722702-2.8187866-6.4666138c1.2121582-5.9801254,2.1555481-14.2597275,0.6632385-16.7468948C181.4450836,94.7726898,177.1659088,98.5239868,177.1659088,98.5239868z M99.067955,432.2235107c60.2422409-6.3479309,73.5710373-32.1922607,73.4101486-33.318512c0,0-26.7534943-0.7502441-30.3467865-1.4121704c-5.0093231-0.92276-6.5866699-3.3294067-6.5866699-3.3294067c67.92659,1.775238,96.4194794-39.4826355,116.4146271-73.7742615c28.4467621-48.7861023,10.0609589-104.3470764-4.7010803-140.4788208c-46.6015015,35.7982483-137.2880249,98.3562927-176.3036499,154.476532c-29.709671,42.7345276-2.3574982,141.9972229,6.9750671,151.4547119c9.33255,9.457489,82.7073746-53.6930847,82.7073746-53.6930847C133.4900055,439.4997253,110.057869,442.7422485,99.067955,432.2235107z M64.7381821,130.5410156c0.5777893,8.2333984-4.915451,20.5597534-20.5839386,21.865448c-15.6684856,1.3057098-25.2504177-13.5948334-25.3497524-17.9654236c-0.288887-12.7112045,9.3889618-18.0556946,21.089056-18.0556946S64.1603928,122.3076172,64.7381821,130.5410156z M55.0971298,136.8200684c0.7947235-8.9406204-3.3775635-12.5168686-13.9076233-12.9142303c-10.5300732-0.3973618-13.9076366,7.351181-10.7287502,14.9010315C33.6396408,146.3567352,54.3024063,145.7606964,55.0971298,136.8200684z M103.1308823,121.6157074c1.4389038-7.4343185,5.7642822-19.6557312,29.9771042-20.6242447c29.9771118-1.1990814,34.1836243,21.6711426,29.7373047,32.375267c-6.4750671,15.588089-27.8187561,26.3798523-43.406868,15.1084595S101.6919785,129.0500336,103.1308823,121.6157074z M116.8004379,129.5296631c0,0,5.5157928,11.7510223,18.2260971,10.5519409c12.7102814-1.1990814,16.3075409-10.7917633,16.7871704-16.0677261c0.2156982-2.3726425-1.630722-8.6862946-6.4750519-11.5112076c-5.9278564-3.4567566-15.5370483-3.0707779-21.3437119-0.9592667C113.4430008,115.3804703,116.8004379,129.5296631,116.8004379,129.5296631z"/></svg>