<svg xmlns="http://www.w3.org/2000/svg" width="512" height="512"><path d="M286.871 165.886c-41.319-.105-83.144 3.484-148.02 35.701C66.86 237.34 29.795 319.928 29.795 319.928c.78-33.438 8.986-66.014 24.04-95.22-14.14-18.257-32.068-27.373-53.834-27.22 3.697-4.525 5.662-9.54 2.406-16.038 36.99 4.175 48.486 19.963 53.962 38.492 12.106-22.082 28.205-42.11 48.083-58.93 45.868-38.81 119.96-60.862 169.158-63.476-16.871 25.224-12.15 55.979 13.262 68.35zm48.712 75.746c-10.298 11.87-81.572 108.967-80.722 213.363 26.438 1.559 55.82-3.513 84.718-13.329 0 0-11.865-80.792 42.166-149.282 36.215-45.907 59.742-85.156 69.37-125.478 9.906-41.484-2.088-74.739-10.541-86.373C408.949 37.007 322.618 66.48 322.618 66.48c-68.052 21.534-85.431 104.81 20.12 108.885 0 0 44.618 6.588-7.155 66.267zm43.625-138.664c0 4.994-7.573 9.043-16.915 9.043s-16.914-4.049-16.914-9.043 7.573-9.043 16.914-9.043 16.915 4.05 16.915 9.043zm101.45 226.736c52.08-88.088 36.65-183.892-27.006-254.62-8-8.89-25.719-12.216-25.719-12.216 25.076 22.504 64.464 67.805-5.787 181.963-30.863 50.152-85.516 93.231-77.157 193.536 0 0 83.587-20.575 135.668-108.663z"/></svg>