<svg xmlns="http://www.w3.org/2000/svg" width="375" height="512"><path d="M39.755 140.93C33.007 72.327 59.163 31.293 96 12.874c18.067-9.033 47.043-16.543 94.747-10.953 84.912 9.95 165.708 124.871 183.6 291.841-45.32 10.125-55.001 54.48-85.857 116.191-31.352 62.706-80.593 97.942-116.634 101.75-40.087 4.663-100.954-46.217-120.926-108.986-9.093-28.58-.047-64.214 9.033-82.463 30.91 9.034 69.428 7.806 93.68-12.165 8.559-80.839-11.413-159.3-113.888-167.16zm134.056-69.588c-14.273 0-25.844 11.722-25.844 26.183s11.57 26.184 25.844 26.184 25.845-11.723 25.845-26.184-11.571-26.183-25.845-26.183zm0 8.473c-9.874 0-17.879 7.93-17.879 17.71s8.005 17.71 17.88 17.71c9.874 0 17.879-7.929 17.879-17.71s-8.005-17.71-17.88-17.71z"/><path d="M36.114 149.04C6.004 160.415-10.724 256.1 7.677 317.658c.332.813.954 1.48 1.672 1.004 30.11-19.07 26.682-98.779 98.361-88.993-16.477 33.373-33.913 56.515-65.156 65.992-3.307.94-2.056 4.406-1.37 5.313 16.115 21.307 82.899 23.625 106.004 1.964 3.648-74.407-10.354-149.951-111.074-153.898z"/></svg>