<svg xmlns="http://www.w3.org/2000/svg" width="242" height="512"><path d="M209.567 372.69c24.317-13.791 29.456-34.85-22.945-53.796 0 0-35.535-78.34-36.808-105.474-.817-17.416.481-19.187.481-19.187 58.89-8.827 37.203-32.487 21.22-34.54 21.991-15.956 36.346-42.107 36.346-71.686C207.861 39.402 169.142 0 121.38 0S34.898 39.402 34.898 88.007c0 29.518 14.295 55.622 36.21 71.587-34.662 9.467-13.136 31.161 19.246 34.44 2.506.003 2.288 4.33 2.288 18.896 0 19.868-23.542 77.036-36.715 106.481 0 0-19.252 3.704-32.959 15.67-12.438 10.859-11.632 26.056 10.421 37.841C-6.579 419.111.481 475.246.481 475.246c20.319 50.797 233.15 47.18 240.898 0-.133-25.784.861-60.612-31.812-102.556z"/></svg>