<svg version="1.1" xmlns="http://www.w3.org/2000/svg" width="242px" height="512px"><path d="M209.5670929,372.6899719c24.3164368-13.7913818,29.4562073-34.8504944-22.9450989-53.7955933c0,0-35.5352173-78.3403015-36.808136-105.4748688c-0.8170471-17.4157715,0.4814148-19.1864014,0.4814148-19.1864014c58.8903809-8.8270569,37.203125-32.4872589,21.2196655-34.5397034c21.991333-15.9561462,36.346405-42.1071014,36.346405-71.6866379C207.8613434,39.4019318,169.1422272,0,121.379715,0S34.8981209,39.4019318,34.8981209,88.0067673c0,29.5181198,14.2953491,55.6221695,36.209301,71.5875168c-34.6615868,9.4667969-13.135067,31.1611786,19.2469482,34.4403839c2.5058441,0.0021973,2.2875214,4.3302002,2.2875214,18.8951263c0,19.8679504-23.5417633,77.0361481-36.7145348,106.4811859c0,0-19.2526855,3.704071-32.9591217,15.6700439c-12.4379578,10.858551-11.6326294,26.0561829,10.4208851,37.8414001C-6.5787792,419.1108398,0.4811268,475.2457886,0.4811268,475.2457886c20.3188171,50.7969971,233.1495972,47.1809692,240.8983154-0.0003052C241.2459869,449.4617615,242.2403717,414.6337585,209.5670929,372.6899719z"/></svg>