<svg version="1.1" xmlns="http://www.w3.org/2000/svg" width="512px" height="512px"><path d="M244.3971558,223.1343994c-0.495636-6.5728455,0.0175476-13.4645081,0.5140381-20.1295929c0.9324188-12.5224609,1.8133698-24.350708-3.2626648-34.6354523c-0.0263062-0.0531769-0.0509186-0.1072235-0.0738373-0.1618195l-4.7832336-11.3911591l-4.0516663,6.8169861l2.9616547,0.5802307l-1.1219635,5.7281036l-7.0249176-1.3760071c-0.9313049-0.1824646-1.7157745-0.8062592-2.1033478-1.6725006c-0.3872833-0.8662262-0.3292999-1.8668365,0.1555939-2.6827087l9.1251526-15.3534393c0.5626831-0.9471283,1.6105347-1.496521,2.7109985-1.4204254c1.09935,0.0763855,2.0620422,0.7655182,2.4886627,1.7816925l6.9912415,16.648819c5.7363281,11.6927338,4.7566528,24.8483276,3.8092194,37.5713654c-0.5024261,6.747406-0.9771271,13.1205139-0.5145874,19.2568512L244.3971558,223.1343994z M270.101532,202.9454041c-0.95224-12.5015411-1.8518372-24.3096924,3.2154236-34.5760498c0.0260315-0.0531769,0.050354-0.1072235,0.0735474-0.1618195l4.7832336-11.3911591l4.0516663,6.8169861l-2.9619446,0.5802307l1.1225586,5.7281036l7.0249023-1.3760071c0.9313049-0.1824646,1.7154846-0.8062592,2.1030579-1.6725006c0.3875732-0.8662262,0.3292847-1.8668365-0.1555786-2.6827087l-9.1251526-15.3534393c-0.5624084-0.9474182-1.619873-1.4976501-2.7107239-1.4204254c-1.0999146,0.0763855-2.0623474,0.7655182-2.4889526,1.7816925l-6.9909668,16.648819c-5.7297974,11.6791534-4.7289124,24.8163605-3.7608337,37.5215759c0.5154419,6.765213,1.0020142,13.1555939,0.5380554,19.3066406l5.8209229,0.4390564C271.1375122,216.541748,270.6107483,209.629715,270.101532,202.9454041z M201.009903,239.9970245c-9.269989,0-16.8018951,7.5318604-16.8018951,16.8018646c0,9.269989,7.5319061,16.8018494,16.8018951,16.8018494c9.2699585,0,16.7294464-7.5318604,16.7294464-16.8018494C217.7393494,247.5288849,210.2798615,239.9970245,201.009903,239.9970245z M312.2498474,238.2589264c-9.3424072,0-16.8019104,7.4594269-16.8019104,16.7294159c0,9.1975708,7.4595032,16.7294312,16.8019104,16.7294312c9.2699585,0,16.7294312-7.5318604,16.7294312-16.7294312C328.9792786,245.7183533,321.5198059,238.2589264,312.2498474,238.2589264z M254.3732758,398.405426l-11.5178986-19.1029663V358.343689h-5.0010681v21.6541443c0,0.454895,0.1241913,0.9013062,0.3592682,1.2911377l11.877182,19.6987305L254.3732758,398.405426z M280.8075256,398.4778442l-11.5184631-19.1029663v-21.031189h-5.0005188v21.7265625c0,0.454895,0.1239319,0.9013062,0.3587341,1.2911377l11.8771667,19.6987305L280.8075256,398.4778442z M463.3417053,260.3569641c-16.7519226,12.2700195-35.4251709,19.663208-54.0510254,22.3810425c5.052063,2.5164795,9.9843445,5.5027466,14.7259216,8.9776001c40.0493164,29.3308411,51.4194946,82.1263733,25.2752075,117.7579041c-26.1442261,35.7039795-79.8088379,40.7734985-119.930542,11.4426575c-23.7549744-17.4403381-37.4191589-43.0849915-39.1506958-68.5010376c-9.9862366,3.3514709-20.9570923,5.2043457-32.4744873,5.2043457c-10.5455475,0-20.6309662-1.5565186-29.9240112-4.3911438c-2.1801605,24.909668-15.7819824,49.848999-39.0940094,66.8912048c-40.1216888,29.4032593-93.7862625,24.3337097-119.930542-11.3702393c-26.0718613-35.6315308-14.7016335-88.3546448,25.4200592-117.6854858c6.2118378-4.5605774,12.7533493-8.2901306,19.4694519-11.206665c-22.07724-1.2066956-44.7250824-8.9518127-64.660675-23.5558167C-0.8822836,219.8007355-15.0045404,154.186554,17.4404392,109.8643951c32.5174026-44.3221588,99.2179108-50.62286,149.1165466-14.0498352c43.341629,31.7041779,59.683609,85.3160248,41.9230804,127.904068c4.7695923,1.2011871,9.1321106,3.4218903,12.8465271,6.4145203c11.0093536-4.2514954,23.3573914-6.6389008,36.4094849-6.6389008c11.9982605,0,23.3970947,2.0245209,33.7130127,5.6524048c3.480011-2.5380096,7.4653625-4.4227142,11.7777405-5.4782104c-14.8535767-41.5645447,1.7164612-92.3390045,43.2984009-122.8567734c49.5365295-36.2833405,115.874939-29.9826355,148.1026611,14.0498352C526.9280396,158.9664001,512.8781738,224.0736237,463.3417053,260.3569641z M172.1535645,274.5335693c-1.3624115-2.0846863-2.50354-4.3257751-3.3797913-6.6954041c-3.0279541,1.6654053-6.1483154,3.1644897-9.3491974,4.4914246C163.7517395,272.7399292,168.0072327,273.4790344,172.1535645,274.5335693z M226.0079651,256.7988892c0-13.8418427-11.1383972-25.0883331-24.9802399-25.0883331c-13.8417969,0-25.0883179,11.2464905-25.0883179,25.0883331c0,13.8418274,11.246521,25.0883179,25.0883179,25.0883179C214.8695679,281.887207,226.0079651,270.6407166,226.0079651,256.7988892z M287.9693604,312.5917664v-1.5491333h-7.4934082c0,0-0.3100891,0.8308105,0.0922241,2.7797546c1.407135,6.2384644,0.3197021,10.5452881-3.3246155,13.1660461c-7.0271606,5.0548401-23.3845978,3.2980347-35.0043488-3.7574463c-3.2089081-1.9486084-10.5721588-7.1748352-9.6391754-13.6056824l-7.4153137-1.0761414c-1.1098022,7.6467285,3.6889954,15.332489,13.1654968,21.0866394c6.3974609,3.8847351,14.4880524,6.6079102,22.1972961,7.4713135c1.7568054,0.1968994,3.4654846,0.29422,5.1159363,0.29422c6.4528809,0,12.0039062-1.4880371,15.9548645-4.3294678C285.8742065,330.0114746,290.3977661,323.9812317,287.9693604,312.5917664z M337.2478333,254.9883423c0-13.8417969-11.1383667-24.9800873-24.9801331-24.9800873c-13.9499512,0-25.0882874,11.1382904-25.0882874,24.9800873c0,13.7336731,11.1383362,24.9801331,25.0882874,24.9801331C326.1094666,279.9684753,337.2478333,268.7220154,337.2478333,254.9883423z M349.4907532,274.4422913c-2.6673584-1.2585449-5.2688293-2.6464233-7.8013306-4.1526794c-0.7101746,1.5326538-1.530365,3.0037842-2.454895,4.4013977c0.2399597,0.7889709,0.4649353,1.5826416,0.6691284,2.3823853C343.0272522,276.0046082,346.2288818,275.1268005,349.4907532,274.4422913z"/></svg>