<svg xmlns="http://www.w3.org/2000/svg" width="448" height="512"><path d="m124.194 355.742-24.387 32.064v-14l24.387-18.064zm-2.71 93.935-1.806 30.71 10.838 6.774-8.129-34.322-.903-3.162zm326.399-107.032-13.549 12.193-11.29-.451 7.226-10.839-3.787-9.784-37.192-12.797-23.875-.06-42 11.742-44.193 37.63 5.745 13.55 11.765 8.44 9.01-21.624 23.032 10.839.452 6.322-16.71-7.226-2.71 4.517 16.258 8.58 5.871 14-14.451-12.645-2.71 1.806 2.258 37.033-18.516-23.033-.276-2.832-38.111 15.93-13.097-30.08-3.415-16.695-2.775 1.882 2.577 52.696 24.2 23.719 8.768-17.974 23.484 10.387v5.42l-15.355-6.775-3.162 5.42 14.452 7.677 6.323 14.903-13.549-13.097-4.064 1.807 2.71 36.58-17.162-19.419.047-2.04-23.53 8.814-13.55-28.421-.312 16.94 13.67 32.125-53.102-69.464 6.777 10.885 5.42 62.774-38.84-71.807-13.096 30.71v31.613l-18.968-61.871 1.625-41.443-.951.551-27.32 36.123 9.724-38.937 30.097-41.284 70.873-47.87-49.725 6.86 17.89-12.158-44.987-17.266 22.458 1.959-56.33-31.245 30.71 5.42 12.145 7.511-83.198-63.58 31.81 11.231-62.086-56.882 31.227 11.405 8.922 1.037-22.937-17.625-46.66-66.846 49.788 29.778L0 38.257l163.44 86.66-46.286-49.723-7.235-39.134 44.906 39.36L126.055 0l194.793 160.775 5.085 21.48 31.485 63.293-21.516-21.184 8.216 34.71 6.119 6.68 39.054 9.149 39.503 12.224 18.644 30.186.445 25.332z"/></svg>