<svg xmlns="http://www.w3.org/2000/svg" width="512" height="512"><path d="M498.078 206.996c-5.726 15.102-25.904 21.707-39.45 6.88-42.695-49.28-126.365-49.78-149.623 24.662-17.773 53.559 26.508 109.562 104.785 102.477 17.175-1.356 29.315 14.028 23.919 30.97l-38.935 106.407c-9.87 26.178-35.227 40.29-65.212 30.48L35.314 400.157c-26.855-9.482-41.57-38.743-32.759-65.034l110.464-301.9C124.93 6.29 145.487-5.889 178.23 2.741l298.21 108.702c26.916 9.537 41.601 38.774 32.798 65.048l-11.16 30.505zM441.157 260.1c0-40.223-43.843-65.5-78.729-45.388s-34.885 70.664 0 90.776 78.729-5.164 78.729-45.388z"/></svg>