<svg version="1.1" xmlns="http://www.w3.org/2000/svg" width="370px" height="512px"><path d="M284.775238,86.2230988h41.796814c0,0,0,16.927124,0,30.2865982c0,6.8754349,7.8742981,24.2002029,24.0365906,39.8051529c4.5360718,4.3796539,19.253418,27.30867,19.253418,75.4189758c0,0,0,93.6420593,0,152.2174072C369.8620605,447.8790894,318.453064,512,243.7565613,512H114.8161087C61.8734818,508.7095032,0,457.2376099,0,389.8104553c0,0,0.0000076-114.7610474,0.0000076-170.5521851c0-69.3526001,41.7684402-67.1233215,41.7684402-107.9360199c0-13.7308197,0-25.0991516,0-25.0991516h41.6106644c0,0,0,15.7827225,0,29.9795532s-5.7869873,29.8051147-12.1600647,40.9177094c45.4081879,40.5290375,164.3030396-41.9542847,230.3178101,6.330307c-15.6757202-23.0448914-16.2400513-49.5488052-16.2400513-49.5488052L284.775238,86.2230988z M45.1789093,0C28.5210342,3.9640658,17.0527725,13.1765661,13.4107895,33.1676674v16.0185814c0,0,0.214241,18.2119522,20.7727432,20.6667023c0,0,8.9472198,2.2637482,15.1994858-3.5573273c4.9296112-4.5896416,9.8451691-25.2219124,20.0503693-24.3622818c10.9146423,0.9193916,19.4434662,27.9763641,30.0309753,28.2704697c9.5075073,0.2641068,17.0545502-27.6843872,27.9377136-27.8608475s18.2356186,27.174614,28.3329391,28.1549377c10.0973511,0.9803238,18.0379944-31.5664673,27.93927-28.723526c11.2227173,3.2223625,18.0379944,28.331398,28.6255188,28.331398c10.5874939,0,19.3089905-29.1753197,29.1670532-28.3201294c12.3006897,1.0670891,18.3786926,28.9083176,27.9859009,28.1240616c11.3681335-0.928009,17.013916-26.9373207,29.6058044-27.7432022c12.2540588-0.7842598,22.1916199,27.2530365,27.77948,28.4294281c17.4535828,0.0635452,27.9432678-6.2103348,28.136261-19.8931732V33.9831696c-1.1695557-14.6764164-10.1963196-27.4243565-29.3521729-33.9831352L45.1789093,0z M313.9729004,213.4869843c0,0-2.3638611-7.5642853-5.83078-7.7218475c-2.7789001-0.1262665-15.4751587,7.9505157-23.3283691,17.9773712c-29.0223389-17.7715759-96.3641968,37.8000336-123.2304688,66.4221954c-28.2886658,30.1375122-115.8486176,115.071167-86.3033218,151.2252197c33.3876801,40.8560791,149.2814026-83.1932983,149.2814026-83.1932983s91.1303406-96.0014343,66.0547791-129.202713C299.0638428,215.8864899,313.9729004,213.4869843,313.9729004,213.4869843z"/></svg>