<svg xmlns="http://www.w3.org/2000/svg" width="512" height="512"><path d="M460.529 128.764c-.282-2.22-19.953 3.386-45.114 12.531-7.403 2.915-56.702 21.562-64.686 25.264.678-3.086 1.058-9.84-1.707-18.297-4.214-12.882-13.739-12.456-22.93-9.186-12.227 4.34-19.378 9.997-26.04 15.538-5.082 4.231-9.549 8.79-13.791 13.78-6.6 1.281-11.945 3.592-15.67 5.822-4.214 2.524-9.416 7.174-11.393 10.98-.736 1.396-1.317 2.305-.73 2.5 1.264.408 13.376-3.46 14.865-3.869a103.3 103.3 0 0 1 1.903-.517c-4.996 7.812-12.222 19.671-11.888 20.355.443.931 1.224-.103 1.224-.103s8.692-9.778 16.89-18.62c3.62 5.697 6.863 9.888 9.662 12.365 2.88 2.558 7.778 5.525 12.583 6.715 4.145 1.029 12.382 1.109 13.56.827 2.685-.155 3.76-1.138 3.513-1.77-.259-.632-8.68-1.489-11.68-2.127-3.013-.632-6.876-2.03-10.043-4.438-2.426-1.845-5.507-4.593-7.784-9.375-1.046-2.156-2.374-7.381-2.374-7.381s7.134-1.593 10.865-1.708c4.007-.115 7.858.615 9.496 1.064 1.65.442 4.91 2.368 4.91 2.368s-2.472 3.926-2.283 6.237c0 4.593 1.61 6.335 4.846 7.985 3.323 1.425 6.703 1.172 9.376-1.363 1.736 1.138 2.943 3.288 5.127 4.507 2.294 1.707 4.748 1.506 6.203-.115.988-1.08.034-5.214.034-5.214s-.931-1.155-2.276-2.857c-.61-.781-2.639-4.202-4.375-7.013-2.598-4.196-3.506-5.633-7.237-8.852-5.145-4.438-12.63-6.904-23.655-7.33 6.06-4.477 12.198-8.145 20.24-10.657 7.537-2.362 13.705-1.805 16.107 1.127 2.409 2.926 3.059 8.795 2.685 12.22-.322 2.875-1.794 5.243-2.127 8.031-.34 2.794-.586 4.599.506 5.283 1.73 1.104 14.02-6.45 16.331-7.685 2.932-1.576 12.98-6.013 19.878-9.192 10.686-4.926 27.126-11.974 36.49-15.894 9.221-3.863 45.476-17.688 47.925-18.999 2.426-1.305 3.236-2.483 2.564-2.937zm-140.876 57.04s2.754 2.76 3.26 4.025c-.92.914-.978.747-1.874 1.293-.972-1.08-3.168-2.667-3.168-2.667l1.782-2.65zm-60.668-14.968c-.834-1.661-25.017 6.272-27.23 6.686-3.179.597-8.266.224-11.807-1.386-1.575-.718-24.793-13.29-24.793-13.29s-22.016-14.4-24.523-15.44c-3.719-1.558-7.507-2.472-11.692-.995-8.416 2.966-18.125 9.537-24.281 14.262-11.336 8.697-18.66 21.068-19.309 24.034-.971 4.409-1.11 6.645 3.46 10.364 7.6 6.191 38.429 21.08 39.498 21.223 1.08.144 6.714 1.006 8.663.512 1.96-.494 4.65-1.385 4.742-2.656.092-1.276-2.592-.385-6.42-2.334-4.209-2.144-30.875-17.578-32.45-18.843-.788-.632-5.053-2.679-4.622-5.91.385-2.862 8.875-12.26 13.555-15.503 9.036-6.242 15.888-8.806 18.228-9.398 4.897-1.236 11.255.063 14.589 1.719 3.34 1.65 21.367 10.416 27.058 13.135 5.679 2.724 17.831 7.973 20.625 8.312 1.89.23 8.898-.173 13.348-2.334 1.822-.891 12.358-6.254 14.066-6.892 1.73-.644 10.14-3.605 9.295-5.266z"/><path d="m154.054 168.198 11.284-3.898 39.825 28.219zM141 176.636l9.484-6.91 39.083 28.61zm-9.244 10.664 6.283-7.52 39.02 25.886zm38.141 107.65c1.764 1.218-27.185 35.484-36.129 48.062-9.22 12.945-24.126 34.61-24.126 34.61s-1.46 2.45.793 3.128c2.254.684 23.839 1.253 23.839 1.253s25.885 1.155 29.506-1.012c3.616-2.161 10.554-22.442 11.767-25.868 1.213-3.431 14.653-44.078 14.676-37.433.023 6.662-5.72 36.623-5.72 36.623s-4.541 19.883-5.754 23.315c-1.219 3.432-3.932 11.606-18.849 14.342-14.911 2.73-46.78 1.012-58.53.656-11.744-.357-7.622-12.848-5.915-15.987 1.701-3.138 29.661-38.445 36.174-45.371 9.514-10.106 36.497-37.537 38.268-36.319z"/><path d="m149.565 378.715 7.536.172 23.12-61.628zm-15.952-.546 8.318-.023 25.281-58.007zm-17.233-.633 9.202.167 31.754-55.483zm135.793-127.55c2.064 3.224-17.28 15.612-28.092 33.748-1.65 3.334-8.174 15.389-7.669 22.338.506 6.945 6.893 14.078 14.435 15.078 7.542 1.006 26.408-4.184 33.743-7.288 7.329-3.11 17.595-7.784 19.895-8.577 15.934-4.444 19.625.236 19.625.236s-14.923 3.575-19.516 5.984c-4.587 2.408-28.386 14.468-38.56 17.877-9.945 3.328-29.639 5.42-37.336 2.156-7.68-3.254-8.64-9.462-8.502-13.038.305-15.267 7.232-28.322 16.326-40.761 8.973-12.262 24.936-24 26.948-25.138 2.012-1.132 6.398-4.323 8.703-2.615zm191.737 52.557s-58-1.35-71.947-2.19c-13.95-.84-33.829-5.386-39.847-4.49-6.019.903-17.832 10.135-17.832 10.135s8.996-1.443 10.514-1.207c1.518.241 4.45 1.167 5.001 2.483.54 1.322 1.54 7.731 1.54 7.731s12.705-5.708 16.9-7.19c4.209-1.478 11.302-2.237 13.032-.38 1.708 1.85.363 9.692.604 10.663.247.983 1.724 1.863 1.724 1.863s5.565-5.151 6.927-6.335c1.363-1.179 9.772-5.8 13.147-6.45 3.38-.65 7.392 1.253 8.03 2.96.638 1.708-.62 4.938-.62 4.938s1.799-.017 2.644-.517c.85-.483 5.811-3.702 6.984-4.208 1.885-.805 8.168-2.288 10.956-2.77 2.783-.478 26.564-1.932 28.662-2.673 2.11-.742 3.581-2.363 3.581-2.363zm-288.775-72.355s-71.527 59.33-74.022 61.83c-2.49 2.506-35.726 35.686-39.773 37.744-4.059 2.069-10.031 2.328-11.595 2.73-1.563.397-13.836 4.547-18.182 6.266-4.351 1.73-10.358 6.783-11.175 9.29-.833 2.494-.483 5.523 2.616 8.696 3.087 3.174 13.716 4.858 13.716 4.858s11.07 3.443 13.916 5.633c2.84 2.19 1.73 6.847 1.978 8.657.247 1.811 3.46 10.37 6.254 11.531 2.782 1.167 4.547-.942 6.691-2.316 2.156-1.38 6.961-13.63 6.961-13.63s2.472-10.818 5.726-16.842c3.265-6.03 14.158-13.17 14.158-13.17s-1.207 7.996-.035 9.364c1.185 1.363 15.561.225 19.58-.379 4.006-.598 4.437-2.598 5.478-7.53 1.138-5.387 1.787-11.06 2.707-14.003.828-2.645 3.38-5.956 6.26-7.726 2.886-1.77 11.79-5.254 11.79-5.254s-11.853-.748-28.42 6.15c-7.34 3.053-13.325 8.157-17.337 10.422-4.007 2.265-18.556 13.854-21.286 18.705-2.725 4.852-4.616 10.537-5.726 14.354-1.12 3.823-2.19 7.007-3.995 7.255-1.805.253-1.132-2.007-1.765-2.88-.643-.88.575-3.478-.368-5.53-.93-2.052-10.34-7.168-16.9-8.422-6.559-1.253-12.876-3.196-13.715-4.024-.834-.827-1.277-1.759-.598-3.178s7.524-4.818 11.485-6.45c3.955-1.621 13.491-5.076 15.641-4.788 2.156.287 2.748.965 2.754 2.632.006 1.662-.77 6.025-.77 6.025s10.243-13.003 13.658-16.786c3.414-3.77 48.752-45.843 62.33-57.185 13.566-11.347 34.369-26.2 41.106-29.972 6.61-3.696 11.342-5.8 11.342-5.8l-10.485-6.277zm-75.47 105.057c3.511-4.633 15.687-9.588 15.687-9.588s-2.024 2.282-2.955 10.537c-.414 3.685-1.179 6.858-3.65 7.789-2.466.937-10.497 2.03-10.813.448-.39-1.983-.39-6.38 1.73-9.186z"/><path d="m80.98 343.759 6.077-.707.477-12.083zm359.24-52.977 2.604-13.624-10.388 10.95c-13.664-5.046-31.478-12.99-31.478-12.99s-24.677-11.009-25.92-12.802c-.988-1.42-.114-3.72-.114-3.72s-11.238 3.26-12.032 4.295c-.781 1.029-.373 2.592.455 3.42.833.833 27.43 12.21 32.041 13.957 4.604 1.748 41.193 13.095 42.958 13.48 1.765.39 6.174 1.35 7.34 1.058 1.173-.3 2.397-1.23 1.604-2.696-1.063.276-3.656-.282-7.07-1.328zm67.17-26.069c-.598-.443-2.202-1.092-4.438-1.857l-4.18-18.406-4.719 15.664a291.02 291.02 0 0 0-3.575-1.023l-3.932-15.889-4.329 13.613c-7.266-1.972-13.807-3.674-15.854-4.271-5.104-1.483-42.71-11.675-45.435-9.25 4.127 1.46 59.203 17.211 75.672 25.949 2.517 1.333 4.024 3.978 2.943 7.478-2.61 6.174-10.497 10.922-22.35 14.498-.81.241-1.765.42-2.753.552l-2.466-13.912-6.416 13.889c-2.374-.27-4.828-.466-6.737.482-1.805.903-2.782 3.41-1.529 6.324 1.581 3.65 13.032 1.73 16.619 1.098 9.364-1.644 20.424-5.795 27.397-10.991 6.127-4.57 8.99-8.876 9.944-12.095 1.415-4.725 1.179-8.1-3.863-11.853zm2.414-142.364c-1.627-2.288-3.346-3.748-9.611-3.835-4.559-.057-10.18 1.633-14.82 3.128-9.042 2.914-30.035 13.997-43.095 23.81-15.038 11.3-39.446 31.627-50.965 42.87-5.479 5.358-44.608 43.309-47.919 46.678-6.3 6.38-2.558 12.922-1.38 14.29 1.19 1.385 10.049 7.254 11.382 7.542 1.765.385 4.357.77 5.72-.408 1.195-1.03 1.46-1.616-.403-4.059-.89-1.172-4.472-4.351-5.3-5.323-1.77-2.046-1.184-4.696-.212-5.771.977-1.08 18.521-20.32 23.758-25.368 3.397-3.276 15.33-14.451 28.425-26.017l7.75 9.267-.415-15.682a706.46 706.46 0 0 1 6.145-5.237l5.749 9.52 2.224-16.067a232.002 232.002 0 0 1 6.019-4.696c5.346-4.013 14.974-10.934 23.821-17.044l5.329 11.525 1.719-16.325a343.178 343.178 0 0 1 4.77-3.15l5.939 13.727 1.213-17.981c5.783-2.99 10.151-4.001 15.543-4.243 2.656-.114 6.105 2.668 5.887 6.002-.328 5.283-12.417 20.832-14.56 23.04-2.15 2.207-33.22 35.668-35.716 38.174-2.535 2.547-23.028 24.977-25.994 28.851-2.977 3.875-4.673 8.675-4.673 8.675s39.428-39.952 43.527-44.32c2.368-2.53 11.755-11.468 20.935-20.706l8.692 12.359-.58-20.7a283.848 283.848 0 0 0 3.442-3.702l7.927 17.78-.781-26.287c4.673-6.065 11.75-15.975 12.25-22.66.224-3.162-.127-5.364-1.742-7.657zm-249.29 68.946-13.181 6.926 7.421-17.147-20.085 10.52-16.222 1.483-53.414 32.386 10.934 12.043-30.104 15.532-47.384 38.002-44.987 42.607 23.04-17.486-1.443 5.777 10.433-13.043.701 6.059 7.197-14.302.224 9.1 7.496-14.797-.66 10.571 10.036-17.946-.65 12.244 10.215-18.826-.052 14.584 9.922-21.66.834 14.779 10.019-21.27-.84 16.447 10.894-24.402-.632 18.89 10.6-23.914-1.909 18.803 12.17-24.31-1.616 19.97 12.756-25.293-.822 19.78 16.75-30.88-3.063 24.086 16.158-29.898-1.799 22.517 15.963-32.346-.132 24.177 13.509-32.145 1.644 26.23z"/></svg>