<svg version="1.1" xmlns="http://www.w3.org/2000/svg" width="512px" height="512px"><path d="M460.5287476,128.7638092c-0.2816467-2.2188797-19.9525757,3.385788-45.1133118,12.5314636c-7.4038696,2.9144287-56.7019653,21.5621643-64.6864929,25.2641144c0.6782837-3.0868835,1.0577393-9.8412323-1.7072449-18.2970886c-4.2135925-12.8821106-13.7386169-12.4567261-22.9302673-9.1859131c-12.2268066,4.3400269-19.3778076,9.9964294-26.0401611,15.5378723c-5.0815735,4.2308044-9.5480042,8.7892609-13.7903442,13.7788544c-6.5991211,1.2818909-11.9451599,3.5927429-15.6700745,5.8231049c-4.213562,2.5235443-9.4158325,7.1739807-11.3932495,10.9794006c-0.7358093,1.3968506-1.3164062,2.3050995-0.7300415,2.5005493c1.2646484,0.4081268,13.3764648-3.4605255,14.8652954-3.8686676c0.5920715-0.1667023,1.2416687-0.3448944,1.9026794-0.5173492c-4.9953613,7.8120422-12.2210999,19.6709442-11.8876038,20.3549957c0.4425964,0.9312439,1.2243958-0.1034698,1.2243958-0.1034698s8.6914978-9.7779846,16.8887329-18.618988c3.621521,5.69664,6.8635864,9.887207,9.6630249,12.3647614c2.8799744,2.5580139,7.7775269,5.5241852,12.5831604,6.7140961c4.1445618,1.0289612,12.3820496,1.109436,13.5603943,0.827774c2.6844788-0.1552124,3.759491-1.1381836,3.512207-1.7705078c-0.258667-0.632309-8.6799927-1.4888153-11.6806641-2.1268921c-3.0121765-0.6323242-6.875061-2.0291748-10.0423889-4.4377441c-2.4258118-1.8452301-5.506897-4.5929565-7.7833252-9.3756104c-1.0462341-2.1556396-2.374054-7.3809204-2.374054-7.3809204s7.133728-1.5923004,10.8644409-1.7072601c4.0066528-0.114975,7.8580322,0.6150818,9.4962769,1.063446c1.6497803,0.442627,4.9091187,2.3683319,4.9091187,2.3683319s-2.4717407,3.9261322-2.2821045,6.2369843c0,4.5929565,1.6095276,6.3347168,4.8458862,7.9844971c3.3225708,1.4255981,6.7026062,1.1726685,9.3755798-1.3623657c1.7360229,1.1381836,2.9431458,3.2880707,5.127533,4.5067291c2.2936096,1.7072601,4.7481995,1.506073,6.2024841-0.114975c0.9887085-1.0806885,0.0344543-5.2137756,0.0344543-5.2137756s-0.9312439-1.155426-2.2763367-2.8569336c-0.6093445-0.7817841-2.6384888-4.2020721-4.3745117-7.0130157c-2.5982361-4.1963196-3.5065002-5.6334076-7.2372131-8.8525085c-5.1448364-4.4377441-12.6292114-6.9037933-23.6546021-7.3291779c6.0587769-4.4779816,12.1980286-8.1454468,20.2399902-10.657486c7.5361633-2.3625793,13.7041626-1.8049927,16.1069641,1.1266785c2.4086304,2.9259186,3.058136,8.7950134,2.6844788,12.2210541c-0.3218994,2.874176-1.7934875,5.2425079-2.1268616,8.0304718c-0.3392029,2.7937164-0.5863647,4.5987091,0.5058289,5.2827606c1.7302246,1.1036835,14.0202637-6.4496765,16.3311462-7.6855774c2.9316406-1.575058,12.9798279-6.0128021,19.8778687-9.1916504c10.6861877-4.9263611,27.1265259-11.973877,36.4907227-15.8942719c9.2204285-3.8628998,45.4753723-17.6877441,47.9242554-18.9983826C460.3907776,130.396347,461.2012329,129.217926,460.5287476,128.7638092z M319.6532593,185.8049469c0,0,2.7535095,2.7592163,3.2593384,4.0238647c-0.9197693,0.9139862-0.9772034,0.7472839-1.8739929,1.2933807c-0.9714966-1.0806885-3.1673279-2.6672363-3.1673279-2.6672363L319.6532593,185.8049469z"/><path d="M258.9848938,170.8361816c-0.8335266-1.6612854-25.0169525,6.2714691-27.2300568,6.6853485c-3.1788025,0.5978394-8.2661743,0.2241974-11.8071594-1.3853607c-1.5750732-0.7185364-24.7927704-13.2902374-24.7927704-13.2902374s-22.0162964-14.3996887-24.5226135-15.4401398c-3.719223-1.5578156-7.50737-2.4718018-11.6921692-0.9944763c-8.4156494,2.9661713-18.1246338,9.5365601-24.2811432,14.261734c-11.3358002,8.6972809-18.6592407,21.0677948-19.308754,24.0339508c-0.9715195,4.4090118-1.1093979,6.6451263,3.4605484,10.3643341c7.5993881,6.1909943,38.427887,21.0792847,39.4971008,21.2229919c1.080719,0.1437073,6.7141113,1.0059662,8.6628265,0.5116119c1.9602203-0.4943542,4.6504669-1.3853455,4.7424011-2.6557465c0.0920105-1.2761383-2.5925446-0.3851318-6.4209595-2.333847c-4.2077942-2.1441345-30.8745422-17.578537-32.4496155-18.8431702c-0.7874908-0.6323242-5.0528107-2.6787415-4.6217041-5.9093323c0.3851471-2.8626862,8.8755341-12.2612762,13.5546875-15.5033722c9.0364838-6.2427368,15.8884583-8.8065033,18.2281342-9.3985901c4.897644-1.2359009,11.2552795,0.0632324,14.5893402,1.7187653c3.3397675,1.6497803,21.366684,10.4160461,27.0576172,13.135025c5.6794281,2.7247314,17.8314819,7.9730072,20.6251526,8.3121643c1.8911896,0.2299347,8.8985138-0.1724548,13.3477631-2.333847c1.8222504-0.8909912,12.3589783-6.2542419,14.0663147-6.8923035C251.4199829,175.4578705,259.8299255,172.4974518,258.9848938,170.8361816z"/><polygon points="154.0540466,168.1976624 165.3381042,164.3002625 205.1628113,192.519043 "/><polygon points="140.9994202,176.6362915 150.4842987,169.7267456 189.5674896,198.3364105 "/><polygon points="131.7561188,187.2995148 138.0390167,179.7806396 177.0590515,205.6655884 "/><path d="M169.8965607,294.9493713c1.7647858,1.2186584-27.1840973,35.4847107-36.1285706,48.0621643c-9.2204132,12.945343-24.1259689,34.6109619-24.1259689,34.6109619s-1.4600754,2.448822,0.7932739,3.1271057c2.2533569,0.6840515,23.8385391,1.2531433,23.8385391,1.2531433s25.8849792,1.155426,29.5063934-1.0116882c3.6157074-2.1614075,10.5540009-22.4416809,11.7669067-25.8677063c1.2128906-3.4317932,14.6525879-44.0785522,14.6755676-37.4334412c0.0229797,6.662384-5.7196045,36.6228943-5.7196045,36.6228943s-4.5411835,19.8836365-5.7541656,23.3154297c-1.218689,3.4317627-3.9319305,11.605957-18.8489685,14.3421936c-14.9112549,2.7304688-46.7802887,1.0116882-58.5300064,0.655304c-11.743927-0.3564148-7.6223679-12.8476257-5.9151154-15.9862366c1.7015457-3.1386108,29.6616364-38.4451294,36.1745224-45.3719482C141.1431885,321.1619568,168.1260681,293.7307129,169.8965607,294.9493713z"/><polygon points="149.5645294,378.7147217 157.1006775,378.887146 180.2206726,317.2588196 "/><polygon points="133.6128235,378.1686096 141.9306793,378.1455994 167.2120972,320.1387329 "/><polygon points="116.3791885,377.5362854 125.5823288,377.7029724 157.3363647,322.2196655 "/><path d="M252.1730804,249.9855652c2.0636292,3.2248535-17.2795868,15.6125793-28.0922699,33.7487183c-1.6497955,3.3340454-8.1741791,15.3883972-7.668335,22.3381958c0.5058441,6.9440308,6.892334,14.0777893,14.4341888,15.0780029c7.5418396,1.0059509,26.4080048-4.184845,33.7429352-7.2889709c7.3291321-3.1098633,17.5957947-7.7832947,19.8951111-8.5765686c15.9345398-4.4434814,19.6249695,0.2356873,19.6249695,0.2356873s-14.9227295,3.5755005-19.5157471,5.9840698c-4.5872498,2.4085388-28.385498,14.4686279-38.5600739,17.8774414c-9.9446716,3.3283081-29.6386566,5.4207153-37.3356781,2.1556396c-7.6798248-3.2535706-8.6398468-9.4618225-8.5018616-13.037323c0.3046265-15.2676697,7.2314301-28.3222656,16.3253632-40.7617493c8.9732361-12.261261,24.9364471-23.9994507,26.94841-25.1376343C245.4819641,251.4686432,249.867981,248.2782898,252.1730804,249.9855652z"/><path d="M443.9101562,302.5429688c0,0-58.0010986-1.3508606-71.9467163-2.1901245c-13.9513245-0.8392639-33.8291626-5.3862305-39.8477783-4.4894714c-6.0185547,0.9024963-17.8315125,10.1343689-17.8315125,10.1343689s8.9962463-1.4428406,10.5137634-1.2071533c1.5176086,0.2414246,4.4492493,1.1669312,5.0010681,2.4833069c0.5403137,1.322113,1.5405884,7.7315674,1.5405884,7.7315674s12.703949-5.7081299,16.900238-7.1912231c4.2077942-1.4773254,11.3013306-2.2361145,13.0315552-0.3793945c1.7072449,1.8509521,0.3621826,9.6917725,0.6035461,10.6632385c0.2471924,0.9829712,1.7245483,1.8624573,1.7245483,1.8624573s5.5644226-5.1505432,6.9267883-6.3347168c1.3623657-1.1784058,9.7722473-5.8000793,13.1465759-6.4496765c3.3800049-0.6495667,7.3923645,1.2531433,8.0304871,2.9604187c0.638031,1.7072754-0.6208496,4.9378662-0.6208496,4.9378662s1.7992859-0.0172424,2.6443176-0.5173645c0.850708-0.4828491,5.811615-3.7019653,6.9842529-4.2077942c1.8854675-0.8047791,8.168457-2.2878418,10.9564209-2.7707214c2.782196-0.4771118,26.5632629-1.9314575,28.6614685-2.6730042C442.4385986,304.1640015,443.9101562,302.5429688,443.9101562,302.5429688z"/><path d="M155.1346741,230.1881561c0,0-71.5270004,59.3289948-74.0218277,61.8295441c-2.4890442,2.5062866-35.7261391,35.6859131-39.773056,37.7438354c-4.0583153,2.069397-10.0308876,2.328064-11.5944633,2.7304688c-1.5635777,0.396637-13.8363295,4.5469666-18.1821251,6.2657166c-4.3515429,1.7302551-10.3585854,6.7830811-11.1748457,9.2893982c-0.8334953,2.4947815-0.4828615,5.5241699,2.6155217,8.6972961c3.0868928,3.1730957,13.7156353,4.8573608,13.7156353,4.8573608s11.0713863,3.4432983,13.9168053,5.6334229c2.8397179,2.1901245,1.7302322,6.8463135,1.9774055,8.6570435c0.2471771,1.81073,3.4605522,10.3700867,6.2542191,11.53125c2.782177,1.1669312,4.5469704-0.942749,6.6911201-2.3165894c2.1556396-1.3796082,6.9612732-13.6293945,6.9612732-13.6293945s2.4717598-10.8184509,5.7253952-16.8427429c3.2650414-6.0300293,14.1582375-13.1695251,14.1582375-13.1695251s-1.2071991,7.9959717-0.0344696,9.3641052c1.1841278,1.3623657,15.5608597,0.2242126,19.5790024-0.3793945c4.0066528-0.5978394,4.437767-2.5982666,5.4782181-7.5303955c1.1381683-5.3862305,1.7877731-11.0598755,2.7074432-14.0030518c0.8277512-2.6442261,3.3800354-5.9552917,6.2600098-7.7258301c2.8856812-1.7704773,11.7898941-5.2539978,11.7898941-5.2539978s-11.8531342-0.7473145-28.4199753,6.1507568c-7.3406372,3.0523682-13.3246994,8.1569214-17.3371429,10.4217834c-4.0066528,2.2648926-18.5557404,13.8536072-21.2862511,18.7052307c-2.7247276,4.8516541-4.6159134,10.5367737-5.7253952,14.3536987c-1.1209755,3.8226929-2.1901131,7.0072937-3.9951668,7.2544861c-1.8049622,0.2528992-1.1324654-2.0061951-1.7647896-2.8799438c-0.6438141-0.8795166,0.5748711-3.4777832-0.3678703-5.5299377c-0.9312515-2.0521851-10.3413048-7.1682434-16.9002399-8.4213867c-6.5588903-1.2531433-12.8763504-3.196106-13.7156343-4.0238647c-0.8334951-0.8277893-1.2761402-1.7590027-0.5978098-3.1788635s7.5246134-4.8171387,11.4852619-6.4496765c3.9548588-1.6210632,13.491396-5.0758362,15.6413364-4.7884216c2.1556396,0.2874146,2.7477036,0.9657288,2.7534943,2.632782c0.0057907,1.6612854-0.770298,6.024292-0.770298,6.024292s10.2435951-13.0028381,13.6581841-16.7852783c3.4145012-3.7709351,48.7519951-45.8432922,62.3296547-57.184845c13.5661697-11.34729,34.3695602-26.2010956,41.1066513-29.9720306c6.6105957-3.6962128,11.3415833-5.8001251,11.3415833-5.8001251L155.1346741,230.1881561z M79.6642609,335.2454834c3.5122147-4.6331787,15.6873398-9.5882874,15.6873398-9.5882874s-2.0234604,2.2821045-2.9547119,10.5367737c-0.4139175,3.6847229-1.1784286,6.8578186-3.6501846,7.7890625c-2.4660568,0.9369507-10.4965591,2.0291748-10.8126755,0.4483643C77.5431747,342.4481812,77.5431747,338.0506897,79.6642609,335.2454834z"/><polygon points="80.9806595,343.7588196 87.0567322,343.0517578 87.5338058,330.968689 "/><path d="M440.219696,290.7817993l2.6040344-13.6236572l-10.3873596,10.9506531c-13.6638794-5.0470581-31.4780884-12.9913025-31.4780884-12.9913025s-24.6777649-11.0081482-25.9194336-12.8016357c-0.9887085-1.4198608-0.1149902-3.7192078-0.1149902-3.7192078s-11.2380981,3.2593384-12.0313721,4.2940369c-0.7817993,1.0289612-0.3736572,2.5925293,0.4541016,3.4202881c0.8335266,0.8334961,27.4312439,12.2095337,32.0414734,13.9570618c4.6044006,1.7474976,41.1928711,13.0947876,42.9576416,13.4799194c1.764801,0.3908997,6.1737976,1.3508911,7.3406372,1.0577087c1.1726379-0.2989197,2.3971252-1.2301636,1.6038513-2.6959839C446.2267456,292.3855896,443.6342163,291.8280029,440.219696,290.7817993z"/><path d="M507.3894653,264.7129211c-0.5978394-0.442627-2.2015991-1.0921936-4.4377747-1.8567505l-4.1790771-18.4062805l-4.7194214,15.6643372c-1.1611328-0.3391724-2.356842-0.684082-3.5754395-1.0232239l-3.9319458-15.888504l-4.3285522,13.6121368c-7.2659912-1.9716797-13.8075562-3.6732025-15.8540039-4.2710266c-5.1045532-1.483078-42.7103882-11.6749573-45.4352112-9.2491455c4.1273499,1.4600983,59.2025146,17.2106323,75.6716309,25.9481812c2.5178223,1.3336182,4.0238647,3.9778748,2.9431458,7.4786377c-2.6097412,6.1737366-10.4965515,10.9219055-22.3497009,14.497406c-0.8105469,0.2414246-1.7647705,0.4196167-2.753479,0.5518494l-2.4660645-13.9110718l-6.4151611,13.8880615c-2.374054-0.2701721-4.8286133-0.4656067-6.7370911,0.4828796c-1.8049622,0.9024963-2.7821655,3.408783-1.5291138,6.3232117c1.58078,3.6502075,13.0315552,1.7302551,16.6185913,1.0979309c9.3641052-1.6440125,20.4239502-5.794342,27.3968201-10.9909058c6.1277161-4.5699463,8.9904175-8.8754883,9.9446411-12.094574C512.6665039,271.8408813,512.4307861,268.4665833,507.3894653,264.7129211z"/><path d="M509.803772,122.3486176c-1.6268005-2.2878494-3.3455505-3.7479401-9.6112671-3.8341675c-4.5584412-0.0574799-10.1803589,1.6325378-14.8193359,3.127121c-9.0421753,2.9144287-30.0352783,13.9972992-43.09552,23.8097687c-15.0377502,11.3013153-39.4453735,31.6275635-50.9651184,42.8713989c-5.4782104,5.3574829-44.6073608,43.3082733-47.9184265,46.6768188c-6.3002014,6.3807068-2.558075,12.922348-1.3796692,14.2904663c1.1899414,1.3853607,10.0481873,7.2544403,11.3817749,7.5418854c1.764801,0.3851318,4.3572388,0.7702637,5.7196045-0.4081421c1.1956177-1.0289612,1.460083-1.6152954-0.4024353-4.0583496c-0.8909912-1.1726685-4.472229-4.3515167-5.2999878-5.322998c-1.7704773-2.0464325-1.1841125-4.6964264-0.2127075-5.7713776c0.9772339-1.0806885,18.5212708-20.3205109,23.7580261-25.3675842c3.3973083-3.2765656,15.3309631-14.451416,28.4257507-26.0171509l7.7488708,9.2663879l-0.4139404-15.6815643c2.0694275-1.7877502,4.1158752-3.5237579,6.1450195-5.2367706l5.7483826,9.5193024l2.2245789-16.0667114c2.0867004-1.6785278,4.1273499-3.2765656,6.0185547-4.6964264c5.3459473-4.0123596,14.9744873-10.9334106,23.821228-17.0439301l5.3287659,11.5254974l1.71875-16.3253937c1.7072449-1.1439209,3.3110962-2.2073822,4.7711487-3.150116l5.9381104,13.7271271l1.2128906-17.9809265c5.7828674-2.989151,10.1516724-4.0008545,15.5435791-4.2422943c2.6557922-0.1149597,6.1047668,2.6672516,5.8863525,6.0013123c-0.3276978,5.2827454-12.4165039,20.8321075-14.5606689,23.0394897c-2.1498413,2.2073669-33.2199097,35.6686707-35.7146301,38.1749573c-2.5350037,2.5465393-23.0279846,24.9766998-25.9941711,28.8511047c-2.9776917,3.8744049-4.6734619,8.6743011-4.6734619,8.6743011s39.4280701-39.9512177,43.5267334-44.3199921c2.3683472-2.5292816,11.7554321-11.4680023,20.9355774-20.7056427l8.6915283,12.3590088l-0.5805969-20.6999054c1.2129211-1.2818909,2.3568726-2.5120392,3.4432678-3.7019501l7.927002,17.7797241l-0.7817688-26.287323c4.6734314-6.0645447,11.7496948-15.9747467,12.2497559-22.6601105C511.7696838,126.8438492,511.4190979,124.6422195,509.803772,122.3486176z"/><polygon points="260.513916,191.2946472 247.332901,198.2214355 254.7540436,181.0740356 234.6692963,191.5935669 218.4473419,193.0766449 165.0333862,225.4629974 175.9668427,237.5058441 145.8625946,253.0379486 98.4787521,291.0404663 53.4919357,333.6474304 76.5314026,316.1608887 75.0886078,321.9379883 85.5219269,308.894928 86.2231903,314.9537048 93.4201508,300.6517639 93.6443481,309.7514343 101.1402359,294.9551086 100.4791412,305.5263672 110.5158234,287.5799561 109.8662186,299.8240051 120.0811234,280.9980469 120.0293732,295.5816956 129.9510651,273.921814 130.7846069,288.7008972 140.8040009,267.4318848 139.9647522,283.8779907 150.8579559,259.4761353 150.2256317,278.3652954 160.8256073,254.4520569 158.9171448,273.2550049 171.0864716,248.9451141 169.4711456,268.914978 182.2268524,243.6221161 181.4048004,263.4022827 198.1555786,232.5220032 195.0916595,256.6076965 211.2503815,226.7103882 209.4511108,249.2267761 225.4143982,216.880661 225.282135,241.0583344 238.7908478,208.9134216 240.4348602,235.1432495 "/></svg>