<svg version="1.1" xmlns="http://www.w3.org/2000/svg" width="512px" height="512px"><path d="M146.7036896,143.9069519c-1.1917572-0.8575439-2.3304138-1.7491455-3.3917542-2.6875153c7.5972443-6.2881317,14.087738-10.9683685,18.8748627-14.1808472C158.206543,131.0549164,152.8816223,136.6926422,146.7036896,143.9069519z M201.3900452,241.2840118c-5.3548126,0.4872131-10.6806946,0.7458038-15.9525757,0.7458038c-4.3590088,0-8.678009-0.1825104-12.9536591-0.5180359c-2.1513519,21.542511-3.6372833,43.9919434-4.0268555,66.58255c13.1277161,1.2717896,26.8263855,1.223877,40.9580841-0.1227722c-2.1425476-14.6221619-3.9251709-28.5788574-5.3972473-41.5334473C203.0377808,257.8140259,202.1661682,249.411499,201.3900452,241.2840118z M169.4747772,65.7074356c-1.396286,0.7647247-2.762207,1.558754-4.1029205,2.3758011c3.2596741,1.2769241,6.5681458,2.5860367,9.920929,3.9273453C173.6314087,69.8901138,171.6581116,67.7835083,169.4747772,65.7074356z M205.7646942,129.9255829c0.024765,3.0215149,0.1317139,11.3472595,0.5738373,23.7853088c4.2030334-0.7516632,8.4280853-1.7452393,12.6423035-3.0014496l-7.4451904-22.1602325C209.6038513,129.0918579,207.6769409,129.5568542,205.7646942,129.9255829z M164.1157074,152.136261c6.6979218-12.2405243,11.7437744-20.3755035,13.5447388-23.2160187c-0.5315399-0.1638336-1.0521851-0.3408051-1.5690765-0.5219421c-2.1813049,2.0100403-9.7188721,9.1582336-19.8726349,20.877243c2.1879425,0.9596558,4.4881134,1.8314209,6.9247589,2.5841675C163.4635773,151.9585876,163.7931061,152.0415039,164.1157074,152.136261z M136.395401,133.0690002c2.8174286-2.3376312,5.4884796-4.4605408,7.9940491-6.3815994c-2.937088,1.5015182-5.8869324,3.1454391-8.8460999,4.939537C135.8115387,132.115036,136.1014557,132.5928802,136.395401,133.0690002z M221.5439911,124.9236145l7.4848022,22.2780914c3.1488953-1.2622681,6.2003784-2.651062,9.1451721-4.1552582c-7.0360413-10.1005707-11.9719696-16.8332062-13.8946838-19.4279099C223.385437,124.0704803,222.4726868,124.5048752,221.5439911,124.9236145z M250.3831024,64.949852c3.0236053-1.0978661,6.4844208-2.301033,10.3251801-3.5570259c-0.5758667-0.3540726-1.1627502-0.6987648-1.7607727-1.0340691C255.8504944,61.9800835,252.9827728,63.5226669,250.3831024,64.949852z M258.9085388,73.279274c3.9425049-0.3585434,8.541687-0.7367935,13.694397-1.0956268c-0.6565247-0.9128265-1.3652649-1.7948303-2.1142578-2.6514969C266.2399597,70.8276215,262.3633118,72.0940094,258.9085388,73.279274z M254.2263641,84.4155807c7.2843781,0.4909821,15.4158173,1.1716232,24.2194061,2.1178665c-0.1966553-1.3569641-0.4963684-2.6955261-0.8664856-4.0190735C267.898407,83.127037,259.8867493,83.8418884,254.2263641,84.4155807z M149.3997192,80.346138c5.544693,1.0165253,16.383606,0.6975937,16.383606,0.6975937s-6.4131622-3.8851852-10.8631592-5.606102C152.9838867,77.012619,151.1448212,78.6519165,149.3997192,80.346138z M220.7880707,59.8427315c2.1328735-1.8734932,5.1865845-4.5112762,8.9602051-7.6544762c-1.2901459-0.0973587-2.595932-0.1654167-3.9136353-0.2092247C224.1129303,54.6342812,222.4231873,57.267952,220.7880707,59.8427315z M211.0845032,229.3658752c10.460144-1.5989532,21.0912476-4.1813812,31.7090759-7.7789764l-20.4201202-60.77948c-5.1937256,1.5641632-10.4145203,2.7588196-15.6088257,3.6214752C207.5128326,181.4836731,208.8166809,203.7718048,211.0845032,229.3658752z M167.1781464,197.1751404c1.5699463-10.9420319,3.291153-21.7430267,5.1199799-32.3390503c-0.9020691-0.1411743-1.8014679-0.2877502-2.6920624-0.4542542c-8.2453461,15.5964966-18.2930145,36.3474426-27.6955566,60.4360199c6.6894836,2.1748047,13.7584991,3.8166962,21.1154175,4.913269C164.2169647,219.0743256,165.5921173,208.2288055,167.1781464,197.1751404z M403.900238,302.9114075c-10.8893127-18.717804-23.0492249-36.4418335-35.4234009-52.7247314c-10.6989746,10.2727051-22.8141174,19.6012573-36.2050476,27.8891907c9.8182983,19.0339966,19.6708374,39.5136719,28.8487549,60.828186C376.6182251,328.5623779,390.9904785,316.4616394,403.900238,302.9114075z M428.4765625,272.837677c3.824707-5.4997864,7.3683777-11.1000061,10.6654663-16.7694702c-12.4326477-15.167572-26.2060852-29.365097-40.9290161-42.6466217c-1.2767639,2.0914612-2.599884,4.1605988-3.9698486,6.2051392c-5.3786926,8.0270996-11.4638062,15.6641846-18.2001953,22.8887329c13.4295349,17.5366669,25.2713928,34.9390106,35.4320679,52.0819855C417.5214233,287.6618652,423.2131042,280.4060669,428.4765625,272.837677z M361.9289551,241.7256927c-7.8010559-9.9033356-15.6116333-19.2101746-23.1687012-27.8022156c-7.3480225-8.354538-14.6918945-16.3135834-21.8838806-23.8237915c-7.1765747,6.6882477-15.0484924,12.8914337-23.5194397,18.5177612c4.8193665,7.9837189,9.7477112,16.3398438,14.7172852,25.013382c6.2065735,10.8325348,12.698822,22.5705872,19.2590332,34.9911194C340.1669617,260.6183167,351.7462463,251.6221619,361.9289551,241.7256927z M360.4718018,112.3440323c-0.6021729,4.5918198-1.5474854,9.2115707-2.8280334,13.839325c1.4002686,0.6036453,2.8031311,1.2139206,4.2112732,1.8384933c17.1730042,7.6169434,33.2562866,16.1073761,48.1879883,25.4027405c1.4133911-7.6492004,2.2501526-15.3772278,2.4925842-23.1161346c-15.4158325-6.6461105-32.1973877-12.4911804-50.3468628-17.5043335C361.6197815,112.6469345,361.0424805,112.4992676,360.4718018,112.3440323z M348.5121765,55.2700386c2.5303345,4.0695877,4.7210083,8.3530922,6.5414429,12.8416328c0.4866028,1.199707,0.9337769,2.409874,1.3628845,3.6247253c17.3495178,1.146225,33.3592529,3.1082764,48.0204163,5.8686066c-2.5680847-7.1771393-5.7065125-14.0035973-9.3695679-20.3552399C379.3427734,54.8989334,363.606842,54.4703789,348.5121765,55.2700386z M408.0368042,89.2837448c-16.2314453-3.3903885-32.8720093-5.4511642-48.5746765-6.6411209c1.289856,6.1993637,1.8854065,12.542923,1.7900085,18.9755402c17.0092163,4.5328522,34.3210754,10.1810455,51.2097778,17.2010651c-0.105072-2.317131-0.2610474-4.632164-0.4750366-6.9429398C411.2720337,104.1613998,409.9327393,96.5934601,408.0368042,89.2837448z M318.1726379,274.0401306c-5.9653931-11.2908936-12.3552856-22.9391785-19.2601013-34.993576c-4.9234619-8.5953064-9.8056335-16.8757172-14.5795288-24.786911c-8.4553528,4.9739685-17.4143372,9.4022522-26.7901611,13.2048798c-0.454895,0.1844635-0.9121704,0.3554382-1.3677368,0.536438l21.6092224,64.3184052C292.2329407,287.1570129,305.7263489,281.0334473,318.1726379,274.0401306z M133.1009369,105.7145233c3.2339935-1.1901016,6.4180298-2.2474823,9.5401611-3.1578445c-2.9167175,0.2551193-5.8827515,0.6161194-8.884201,1.0695038C133.5157013,104.3230667,133.3025818,105.0190125,133.1009369,105.7145233z M131.99823,121.3419724c8.2264404-4.8221207,16.1434631-8.4787445,23.7416534-10.9694443c-7.4928131,1.303772-15.6277313,3.846077-24.1219177,7.2947769C131.6768494,118.9031601,131.8010559,120.1287003,131.99823,121.3419724z M159.0034637,161.6935425c-3.502182-1.13237-6.7998962-2.4598846-9.8752594-3.9753418c-10.967926,13.4634705-23.849617,31.1982422-36.0477753,52.686203c5.712059,4.1468201,12.0402451,7.7089691,18.8744965,10.6584625C141.082489,197.6712341,150.8165131,177.3473206,159.0034637,161.6935425z M139.5005646,92.1783829c3.9354248-0.4024963,7.7213898-0.6256485,11.360611-0.6740723c-3.1599426-0.6432648-6.4101715-1.2003555-9.7312622-1.6782684C140.5624237,90.607872,140.0185394,91.3917923,139.5005646,92.1783829z M246.1833801,231.6764374c-11.3124695,3.8358154-22.7505188,6.6258087-34.1167603,8.3306427c1.9841309,20.6826172,4.5922546,43.2242737,8.0197296,66.7113037c15.4607239-2.1548767,31.3865356-5.8217773,47.6133575-10.9996948L246.1833801,231.6764374z M223.2530823,384.3237c-4.9487762-22.5454712-8.9783173-44.7782593-12.2486877-65.8213501c-7.8136749,0.7625732-15.5116119,1.1576843-23.0646057,1.1576843c-6.6424255,0.0003662-13.1738434-0.2987061-19.5842438-0.8894958c-0.0316772,21.3763123,0.9816132,42.7674866,3.3966064,63.5298462C189.0856476,384.8264465,206.3861694,385.3582764,223.2530823,384.3237z M278.2611084,97.1617355c-8.049469-0.8588409-16.2005005-1.563446-24.447998-2.1094208c6.4091492,1.1255798,14.4973755,2.7139969,23.870697,4.9028091C277.9123535,99.0214462,278.1048584,98.0903625,278.2611084,97.1617355z M88.8664856,182.3678436c3.790863-4.8559723,7.5131683-9.3682556,11.1087341-13.5074921c9.9757233-11.4837341,19.5953445-21.0018921,28.2696075-28.7635345c-0.5801163-0.8657684-1.1287613-1.7482758-1.6435623-2.6489105c-14.0305862,9.7231293-28.0998535,22.1938782-41.5653381,35.8239136c0.4354095,1.269928,0.8970871,2.5326996,1.4040222,3.7825623C87.1765289,178.870575,87.9966049,180.6352997,88.8664856,182.3678436z M336.7729492,81.4466019c-17.6283264-0.5389709-34.2331848-0.1968079-48.3624268,0.4701233c0.4317322,1.9429169,0.7301636,3.9059753,0.8892212,5.8844757c18.6151123,2.3382034,39.5586243,5.844429,61.2763062,11.1020966c-0.0941772-5.7365952-0.8069458-11.4128647-2.1888733-16.9688187C344.4242554,81.7248917,340.5391235,81.5617142,336.7729492,81.4466019z M403.6000061,203.9418335c14.690033,13.1156769,28.4989014,27.1250458,41.0592957,42.0831757c6.628479-12.7880859,11.9098206-25.8895416,15.7717896-39.1017151c-2.6395264-2.6928406-5.3242798-5.3591461-8.106842-7.9675446c-10.741333-10.0693359-22.5664368-19.5126495-35.3819275-28.3071442C413.7000122,182.0914307,409.233551,193.2610779,403.6000061,203.9418335z M419.661499,159.6339111c14.4859924,9.6919403,27.7927551,20.1834717,39.8117371,31.4366913c1.3783264,1.2904968,2.7140503,2.6064606,4.0588989,3.9170227c1.8547363-8.1987915,3.1775513-16.4138947,3.9064941-24.5966644c0.2487488-2.7938843,0.4165649-5.5685883,0.530304-8.3297119c-13.1846008-10.0349731-28.1932373-19.0523224-44.9913025-27.0293427C422.4950256,143.2834625,421.3831482,151.5084534,419.661499,159.6339111z M81.1300964,144.8799591c-0.2772141,5.5274506,0.0145798,10.9770203,0.8788986,16.3052063c14.1436768-13.894104,27.6347122-25.1728821,40.4323273-33.8058548c-0.4678192-1.7188339-0.8395691-3.4529572-1.0897903-5.2037582C108.1612396,128.3865967,94.4225845,136.3441925,81.1300964,144.8799591z M129.5532837,311.0803223c-4.0202179-1.2697754-7.9566574-2.6893005-11.8131256-4.2363586c-3.8540802,19.8586121-6.0454865,39.1089783-6.5167694,57.5883484c3.9440842,1.8337402,7.9507446,3.5616455,12.0348358,5.1540222c12.3674774,4.8217773,24.9151611,8.3771362,37.4899139,10.8369446c-0.4637146-4.2253418-0.8812103-8.5072327-1.2403412-12.8600464c-1.3091888-15.8665466-1.9188843-32.5811768-1.8516998-50.0676575C147.9601898,316.0664368,138.5756226,313.929718,129.5532837,311.0803223z M147.6474762,237.5240326c-3.2552795-0.8132935-6.4275055-1.728363-9.5135345-2.7411346c-2.0475006,5.5652618-4.0475159,11.2801361-5.9703674,17.1320648c-4.9442291,15.0467682-9.0226974,29.8437958-12.2335968,44.3368683c4.1690445,1.7333984,8.448288,3.2969971,12.8288574,4.6806641c8.0380096,2.5386047,16.3966522,4.4682617,25.025589,5.8110657c0.4098511-21.0822754,1.7863007-43.250885,4.1176453-66.4117126C157.0680542,239.6200256,152.3090057,238.6885834,147.6474762,237.5240326z M5.6557679,201.1233368C2.7106059,214.2026978,0.7946048,227.6616974,0,241.4179535c1.7005699,4.1481171,3.459887,8.2299652,5.3011909,12.2170715c7.3787112-10.4485931,16.3933258-22.7413635,26.5427608-35.6509094c-3.5467091-10.6119843-5.8067493-21.6048889-6.7393456-32.7290649C16.7565632,191.8598633,10.0412502,197.4246979,5.6557679,201.1233368z M106.2891922,428.7963257c-12.9325714-5.6867371-25.3629837-12.421814-37.0531235-19.9794617c0.7494965,7.7281799,1.7650146,15.4625549,3.0559387,23.1967773c7.7490997,7.8287659,16.0026627,15.170105,24.7231827,21.9582214c6.0150375,2.7187805,12.2912598,5.227356,18.7827682,7.521759C111.8869324,450.9726562,108.7034607,440.0721436,106.2891922,428.7963257z M326.8895569,471.8939209c-20.2607727,6.5508423-41.3438721,11.2504883-62.7820129,14.0194092c2.8783875,7.4031067,5.9000549,14.6581726,9.0690918,21.7362976c21.4269104-1.4147034,42.129364-5.4223633,61.7921143-11.7081909L326.8895569,471.8939209z M24.6170902,172.0154572c0.0902138-8.1546936,0.8932629-16.3252563,2.4276943-24.4138489c0.3272247-1.7249603,0.6946468-3.4394684,1.0843716-5.1477509c-0.5671921,0.2974091-1.1120129,0.5848694-1.6452141,0.8669891c-6.4837151,12.7701111-11.8977823,26.1559906-16.1304054,40.0471497C14.5303707,179.9685059,19.3177032,176.1388245,24.6170902,172.0154572z M40.705349,326.1970215c-2.6860695-2.8644104-5.2985229-5.8277588-7.8582153-8.8601685c-3.4799519,11.9856873-6.5786953,24.6499329-9.2134495,37.9881897c9.619482,11.3807373,20.9546185,22.1607971,33.5672607,31.9588318c-0.4407501-14.686676,0.0922318-29.3287048,1.5822067-43.8859253C52.4810181,338.0510864,46.4469986,332.3200378,40.705349,326.1970215z M498.5445557,175.0748749c-5.7064514-16.6081848-13.1368408-32.4308472-22.0545959-47.285202c1.5728455,9.5050964,2.3391418,19.2665405,2.2417908,29.2433319C485.7159119,162.6129303,492.3451843,168.6197357,498.5445557,175.0748749z M47.2116547,249.8357849c-1.6808662-2.5858917-3.2863159-5.2238159-4.7967148-7.9225922c-2.2407722-4.0037689-4.2671242-8.105835-6.0918274-12.2833862c-10.013752,12.9419556-18.7455292,25.0275269-25.6855831,34.9758759c5.5193634,10.7138977,11.5983448,20.7600403,18.2023697,30.1305542C34.4169273,278.4594727,40.6342583,263.5057983,47.2116547,249.8357849z M460.5778198,107.1123352c-12.3399048-6.5083237-26.3440857-11.4345093-40.9659729-15.1521912c1.3673706,6.1874466,2.3763123,12.5148392,2.9709167,18.9346161c0.3890076,4.1984863,0.599762,8.409317,0.6541138,12.6223068c15.6364441,7.1487045,30.7546692,15.5622025,44.7584534,25.459404C467.4524841,134.4543915,464.9769287,120.4552765,460.5778198,107.1123352z M309.4446716,182.4413147c-17.276825-17.5743408-33.3300171-32.3313293-45.9754944-43.4096832c-3.12854,2.6365662-6.4745483,5.1204834-10.0146942,7.4354401c9.4814911,13.8962097,21.4028168,31.9745789,34.350235,53.0368042C295.6578064,194.2537231,302.8918152,188.5272217,309.4446716,182.4413147z M271.2339172,131.692337c12.6960144,11.1503754,28.6402893,25.8401031,45.7671509,43.2580414c4.2948608-4.5576782,8.2226257-9.2770386,11.7567139-14.1172638c-18.0476379-11.6272888-36.5270081-22.2781677-54.9372253-32.0208435C272.9848022,129.7865143,272.1229248,130.7465973,271.2339172,131.692337z M280.2658691,120.1725082c18.230072,9.6927414,36.5298157,20.2718735,54.4267578,31.8103256c3.9663696-6.4601898,7.2414246-13.0800934,9.7664795-19.7703705c-21.9344177-8.8630524-42.6812439-15.167778-60.0148926-19.5793915C283.2624817,115.1658478,281.8587646,117.6813812,280.2658691,120.1725082z M232.4211273,157.2986755l20.3607941,60.6025848c0.25354-0.1016235,0.5075073-0.1954346,0.7608948-0.2982178c8.9083252-3.6130371,17.3451233-7.7928925,25.249115-12.4411621c-13.0569458-21.2451019-25.0599518-39.4276276-34.530899-53.2906189C240.4699554,153.8669281,236.5142517,155.6795044,232.4211273,157.2986755z M288.0413818,102.4959106c17.2682495,4.4391785,37.7929382,10.731926,59.6620483,19.5430222c1.0757751-4.133316,1.8634644-8.2748642,2.3395691-12.404068c-19.5285034-4.8358307-39.974823-8.5959473-61.1846313-11.2510529C288.644165,99.7532578,288.3781128,101.1240768,288.0413818,102.4959106z M273.2615967,115.2179565c1.1300354-1.7113953,2.1384888-3.4320984,3.0314636-5.1577835c-8.8485413-2.0391235-16.4682922-3.5274429-22.4772797-4.5856171C260.2640686,108.6124878,266.7528381,111.8592529,273.2615967,115.2179565z M407.5961304,164.4645538c-15.3174744-9.7701721-31.9353027-18.6620331-49.7815247-26.5933533c-1.1763-0.5227356-2.349823-1.0356598-3.5216675-1.5435333c-2.7601013,7.2068024-6.3285522,14.3970032-10.7078857,21.4951782c17.902771,11.9613037,35.3138733,24.9102631,51.7520752,38.9188232C400.6035461,186.3733368,404.7122498,175.5422516,407.5961304,164.4645538z M104.7534561,203.5272827c11.9639664-20.8602905,24.3842697-38.099823,35.1310654-51.410141c-1.6669312-1.2310181-3.236084-2.5309753-4.7002258-3.9007874c-8.4617081,7.5665131-17.8508224,16.8522644-27.5329437,28.0360565c-4.1544647,4.7988129-8.4817047,10.1064301-12.892952,15.9014893C97.6878281,196.2496796,101.042778,200.037735,104.7534561,203.5272827z M247.4218445,137.7078705c2.7689819-1.8003845,5.4086456-3.7081451,7.8936462-5.7229614c-11.6575928-9.934433-18.8960724-15.4910355-19.0862427-15.6363144c0,0-1.3665619,0.5760651-2.8509064,1.6765366C235.7067261,121.1824722,240.6442413,127.9613724,247.4218445,137.7078705z M99.427803,213.1430054c-4.1656494-3.6981201-7.9291611-7.7114105-11.2677994-12.0147705c-9.6163788,13.5292969-19.4406815,29.4180603-28.6632957,47.8280029c4.7669792,6.6461029,10.1497231,12.8471069,16.0915031,18.5381775C81.9446182,249.028183,89.9168625,230.8652191,99.427803,213.1430054z M243.8710175,54.4552231c-2.7752686,2.21912-5.3269501,4.306385-7.5996246,6.196331c2.6738739-1.5568047,6.0031281-3.4530296,9.8755493-5.5784721C245.3977203,54.8557739,244.6381989,54.6507339,243.8710175,54.4552231z M43.8905525,220.0050507c2.1997757,5.7228088,4.7910843,11.314209,7.8113747,16.7106628c0.3617249,0.646286,0.7362938,1.2844238,1.1087685,1.9238586c9.4034729-18.0453949,19.333149-33.6347351,29.0030785-46.9210052c-1.8581924-3.1994934-3.508316-6.5267334-4.9422836-9.9746399C65.1402054,194.2241211,53.9976234,207.3513489,43.8905525,220.0050507z M324.4321899,182.6053619c7.29245,7.610733,14.7385864,15.6761627,22.188385,24.141983c8.0117188,9.1038971,15.6056519,18.1943512,22.7927551,27.255661c5.8901672-6.438385,11.2367554-13.2090607,15.9880066-20.3000946c1.6356812-2.4411926,3.1929932-4.9227142,4.6868591-7.4338379c-16.5894165-14.271286-34.2395935-27.4451904-52.4258118-39.5949249C333.6661987,172.2023163,329.2409668,177.5221252,324.4321899,182.6053619z M503.9024048,197.6311798c-7.4064331-9.7533569-16.0103149-18.8677826-25.7869873-27.3356323c-0.0289612,0.3473663-0.0464783,0.6921997-0.0774536,1.0399933c-0.9726562,10.9228973-2.9216309,21.8179932-5.7191162,32.5910645c9.3862,10.0175781,17.8604126,20.5653992,25.3814392,31.6274414C500.9146423,222.9775696,502.9912415,210.2514801,503.9024048,197.6311798z M281.4946594,66.3659286c1.1508484,1.6322937,2.1842651,3.3290405,3.0959167,5.088501c15.0732422-0.7851562,33.1996155-1.2356415,52.5080261-0.6452866c2.5837097,0.0789566,5.1322327,0.1796341,7.663269,0.2909927c-2.2440796-5.3034286-5.0863342-10.2850418-8.4855347-14.9115028C315.8207092,58.1705246,296.9701233,62.1748009,281.4946594,66.3659286z M145.5822906,35.9329185c7.3580017-4.4294338,15.1103363-8.4390488,23.1953888-11.9815006l-1.7532501-4.7037563c-9.9705963,3.6255913-19.6464386,7.8478947-28.9890747,12.6165352C140.4118042,33.0973129,142.9438629,34.4528313,145.5822906,35.9329185z M257.6090088,7.5259042c9.0348206,0.6218266,17.8644104,1.9899764,26.375061,4.1161399c0.7943726,0.1984701,1.5785217,0.4094267,2.3630066,0.6199503c3.4476318-1.9172277,6.9027405-3.7085171,10.3369446-5.3565459c-11.5805969-1.8295398-23.4180298-2.8988285-35.4622498-3.1459427C260.1429443,4.7627578,258.9326477,6.0279908,257.6090088,7.5259042z M220.483429,9.0264158c7.9610748-1.1540179,15.8834381-1.7848663,23.6977844-1.8768125c0.9068298-1.1486769,1.7906342-2.2348533,2.6618195-3.2884083c-8.571991,0.2895508-17.0370941,0.9901886-25.3752594,2.0892119C221.1461182,6.9473076,220.8197479,7.9648495,220.483429,9.0264158z M3.8403738,274.4911194c-1.1476665,1.6945801-2.2057683,3.2710876-3.1804404,4.7325745c2.0699422,22.2915039,7.0713334,43.7471924,14.6454124,63.9810486c2.7770748-12.6065674,5.9458237-24.6238708,9.4611378-36.0032349C17.1475143,297.0967407,10.1635809,286.1827087,3.8403738,274.4911194z M89.1408844,65.3639755c-5.1271896,4.26474-9.9150238,8.7389221-14.3554306,13.400238c7.5885086-0.8547974,15.4142532-1.4387283,23.3060989-1.7089386c4.7249756-5.9548492,9.9507446-11.6464844,15.6306915-17.0273514c-2.4652939-0.8997574-4.8687363-1.7751961-7.1996536-2.6241455c-2.0304642-0.7394676-4.0059357-1.4590111-5.9345627-2.1626816c-4.0776749,3.061142-8.0654221,6.2320557-11.9457092,9.5234909L89.1408844,65.3639755z M122.8003006,52.0160522c4.0257797-3.3201599,8.2285233-6.5014687,12.6039047-9.5232048c-3.0967255-1.6544533-6.0402985-3.1418266-8.7435379-4.4530334c-5.309494,3.0563774-10.4969406,6.2945557-15.5540466,9.7076035C114.8407516,49.1074104,118.7401657,50.5285339,122.8003006,52.0160522z M57.9077148,401.0849609c-8.9283714-6.4554138-17.3104057-13.399231-25.0512733-20.7014465c7.7344437,13.4061584,16.682518,26.0418396,26.6930962,37.7715149C58.861599,412.4623108,58.311657,406.7714844,57.9077148,401.0849609z M469.7212524,300.4181213c-6.9688416-12.3051147-14.8279419-24.0762939-23.434845-35.3309631c-8.3460388,13.8380127-18.1315002,27.0325623-29.1686401,39.3091736c0.8807678,1.57724,1.7611694,3.15448,2.612793,4.7267151c6.1946716,11.4360962,11.5899963,22.7441711,16.2358704,33.9121704C448.9398499,329.8040771,460.2036133,315.5907593,469.7212524,300.4181213z M478.0552979,286.0883179c6.3741455-11.9074707,11.6315308-24.3416748,15.734314-37.0276489c-7.2800598-11.6186981-15.5997314-22.6912689-24.9502869-33.1763763c-4.319397,13.3934631-9.9683533,26.5270233-16.8275757,39.2002106c8.7171936,11.0981445,16.7459412,22.6959839,23.9385071,34.8204346C476.6590576,288.6365967,477.3696594,287.3692017,478.0552979,286.0883179z M300.4487,16.8963242c5.4690552,2.1535149,10.634491,4.6316586,15.4633789,7.4240341c8.2186584-2.6193104,16.5469971-4.8317184,24.7612915-6.4323311c-8.1586609-2.8202333-16.5042419-5.2464848-25.0168457-7.2532768C310.7566833,12.2231665,305.6454468,14.3606606,300.4487,16.8963242z M409.3867188,312.6316528c-13.2206116,13.5030823-27.9945679,25.7301025-44.0523682,36.256134c5.2565002,12.6590576,10.2443237,25.5648499,14.8144226,38.6015625c17.6277466-11.0595093,33.4876709-23.1929321,47.5469666-36.3711853C422.4165649,337.9793396,416.2141113,325.1094055,409.3867188,312.6316528z M327.3797913,32.0230446c5.0787659,3.9417038,9.6538391,8.3002663,13.6822205,13.0448723c14.6131592-1.1014061,30.2853394-1.1841125,46.2572021,0.4970436c-0.3514099-0.4621124-0.6916199-0.9370003-1.04953-1.3916054c-3.0925903-3.9284935-6.3849792-7.5341682-9.8551941-10.810955c-4.9945984-2.629488-10.0805664-5.1124649-15.2658691-7.4187679C350.3912354,26.5198479,338.8955078,28.7754135,327.3797913,32.0230446z M416.4911804,80.1167755c11.7219543,2.7092361,22.4508667,6.0012512,32.2125854,9.8479004c-8.6026611-9.684433-17.9484558-18.7098007-27.9442444-27.0017662c-4.0889282-1.2238808-8.2011719-2.3047867-12.3298645-3.2256927C411.5955811,66.2051315,414.3016357,73.0257416,416.4911804,80.1167755z M178.6356201,19.9275131c9.9391937-3.7631493,20.0083771-6.7088175,30.0711365-8.8167934c0.3560944-1.1483879,0.7046051-2.2604742,1.0487213-3.3517747c-11.1525421,1.9919248-22.0485229,4.7045512-32.6480103,8.0687389L178.6356201,19.9275131z M487.4386902,291.1114197c-1.7235718,3.2198486-3.5302429,6.4043274-5.4052429,9.558136c3.8208008,7.0955811,7.3628845,14.360199,10.5890198,21.8048706c6.649353-12.4750671,12.7131653-25.9754944,18.0391235-40.5801086c0.0191345-0.1842651,0.0346985-0.3694458,0.0534058-0.553772c-2.9631958-6.8953857-6.2364502-13.6395874-9.8378906-20.21698C497.1166992,271.3675537,492.6322021,281.4090271,487.4386902,291.1114197z M190.2766113,487.7537537c-19.1522827-1.5229492-37.5952759-4.5966492-54.9988556-9.1181641c19.6359863,10.3237305,40.7910919,18.2118225,63.059082,23.2343445C195.5100403,497.3569336,192.8130035,492.6647339,190.2766113,487.7537537z M510.3938904,227.7328491c-1.3762207,6.6614075-3.0375366,13.3002167-5.0127869,19.8799896c2.3034973,3.8431244,4.4861755,7.7493134,6.5758972,11.7029266C511.9717712,258.1992798,512,257.0860901,512,255.966156C512,246.4200745,511.442627,237.0034637,510.3938904,227.7328491z M253.1966858,487.1574707c-11.5775604,1.1356201-23.2301788,1.7272949-34.8884125,1.7272949c-4.4307404,0-8.8568573-0.0831604-13.2852783-0.2494202c-0.750946-0.0282288-1.4930725-0.0783997-2.2421417-0.1112366c3.1549683,5.6385193,6.5719147,11.0447998,10.2556763,16.2016602c13.9030457,2.2993469,28.1795959,3.51474,42.7464142,3.51474c2.0085907,0,4.0100555-0.0296021,6.0075226-0.0748596C258.7952271,501.2963257,255.9246216,494.2915955,253.1966858,487.1574707z M443.1244202,404.4979248c-15.3881836,14.3389893-31.4010925,26.1239014-47.1939697,35.801178c1.9143372,7.870697,3.5912476,15.7214966,5.044281,23.5338745c16.3327026-11.0809326,31.3038025-23.9672546,44.5942688-38.3869934C445.1177979,418.4483337,444.3023376,411.4599915,443.1244202,404.4979248z M490.6806946,347.0291748c-11.7272949,18.5658264-24.7326965,34.6343079-38.388855,48.541626c1.2624207,6.3019714,2.2468262,12.5397339,2.9625549,18.7113037c15.2131042-18.559021,27.8097839-39.2796021,37.2365723-61.6274719C491.9014893,350.7722473,491.3106079,348.8905945,490.6806946,347.0291748z M296.461731,381.327301c-19.2616272,6.1492615-39.216095,10.4042053-59.2792511,12.5408936c-0.2781525,0.0296021-0.5552826,0.0488586-0.8333588,0.0776672c3.4551239,14.8536377,7.3004761,29.646637,11.5800171,44.1747437c19.618866-2.6829529,40.4294434-7.7568665,62.2469177-15.9733582L296.461731,381.327301z M485.990448,334.2690125c-3.1470947-7.9177551-6.6649475-15.6348877-10.5111694-23.1620483c-10.0103455,15.0870361-21.8122253,29.3318176-35.2836914,42.6103821c3.7164612,9.9229736,6.8015442,19.7215576,9.2599792,29.382843C462.5487976,369.0834656,474.9320068,352.916687,485.990448,334.2690125z M323.5006104,461.8070679l-9.9383545-29.5809631c-21.855896,8.2035522-42.7540588,13.3858948-62.5051575,16.2142029c2.8775482,9.2251282,5.9384766,18.3197937,9.1931763,27.2314758C281.8580322,473.0409546,303.1102905,468.3916016,323.5006104,461.8070679z M249.3794098,476.84198c-3.2008667-8.8985596-6.2119141-17.9444275-9.0361176-27.0878601c-9.5007629,0.9822388-18.7267761,1.4491882-27.6378174,1.4491882c-9.2391357,0-18.1300507-0.5049744-26.6901398-1.3764343c3.1823883,9.6575623,6.8652191,18.9380798,11.0942383,27.7554321c2.7632141,0.173645,5.5345917,0.3146057,8.3129578,0.4190369C220.089386,478.5500488,234.7937622,478.1539917,249.3794098,476.84198z M431.7365417,361.7348328c-1.4342651,1.3049316-2.8818665,2.6018677-4.3500366,3.8861389c-13.2001343,11.54776-27.8256836,22.2720337-43.7434692,32.1366882c3.4940796,10.5350952,6.6956787,21.1271057,9.5281677,31.7159729c15.9664307-10.0386353,32.1084595-22.3360291,47.4942932-37.3803406C438.3435059,381.8768921,435.3265381,371.7394409,431.7365417,361.7348328z M386.326355,445.9511108c-14.0493469,7.9260559-27.7817993,14.2323914-40.5856934,19.2430115c-2.9021606,1.1356812-5.8315735,2.2194824-8.7747192,3.2756348l8.072937,24.0286255c16.269104-5.9541321,31.7524414-13.4931335,46.2677002-22.4189758C390.0235291,462.7287598,388.3920898,454.688385,386.326355,445.9511108z M341.8618774,455.2841492c13.1524353-5.1469421,27.3205566-11.7132263,41.7918396-20.0719604c-2.5653381-9.8254395-5.6573792-20.429718-9.3774414-31.8223572c-15.5417786,9.015686-32.2348328,17.243927-50.0056763,24.6274719c-0.2643738,0.1098328-0.525116,0.2077026-0.7891846,0.3166809l10.0976868,30.0551147C336.3581848,457.38974,339.1206055,456.356842,341.8618774,455.2841492z M173.6034851,230.9148865c3.853653,0.2904816,7.7661896,0.4472351,11.7346649,0.4474487c4.9522552,0.0002899,9.9874115-0.2399597,15.0770721-0.7015686c-2.2424316-25.4512482-3.5365295-47.7398834-4.2827148-64.937912c-2.7668915,0.2051086-5.5154572,0.3124237-8.2348785,0.3124237c-1.6711121,0-3.3267212-0.0532532-4.974472-0.1307678c-1.8695221,10.7597809-3.6227722,21.7136383-5.2108917,32.7821808C176.2217102,209.0749359,174.8329163,219.8560181,173.6034851,230.9148865z M103.4154739,87.6368713c-2.1722031,2.9451599-4.236084,5.9423599-6.138298,9.0078278c-1.2167358,1.9608231-2.3578339,3.928566-3.4392471,5.9002838c11.5691833-3.7889862,22.3663559-6.6099396,32.3638-8.4562988c0.9030762-1.8807831,1.9117355-3.7528992,3.0421524-5.6113052C120.8249741,87.7618713,112.1265411,87.4970703,103.4154739,87.6368713z M192.2231445,56.3806801l2.1440582,5.7523308c0.5927429-2.308033,1.1828918-4.582077,1.7693481-6.8147621C194.8340759,55.6471329,193.5296631,56.0020676,192.2231445,56.3806801z M189.5006256,131.0205688c-1.6130219,7.9420013-3.1841888,16.0611115-4.6937866,24.3151245c3.5758667,0.1159058,7.2184906,0.0301666,10.9064331-0.2571564c-0.4160614-11.8002014-0.5430145-20.1140289-0.5813446-23.9715118C193.2193909,131.1638947,191.3383942,131.1371918,189.5006256,131.0205688z M156.0510864,42.1799126c5.6980591,3.614048,10.7400818,7.2083893,15.0852203,10.773716c2.375946-1.109848,4.8075409-2.1493301,7.2891541-3.1185875l-5.9226685-15.8895721C166.8293457,36.4515419,161.3458557,39.2105026,156.0510864,42.1799126z M112.1228638,76.9155502c8.2742767,0.1224747,16.4991913,0.6099167,24.4654541,1.5287323c2.1810913-2.5365295,4.5415192-4.9787292,7.073288-7.3145523c-6.4958496-2.4605331-12.7373505-4.7840881-18.674736-6.9725342C120.4092712,68.2189178,116.1022339,72.4724045,112.1228638,76.9155502z M134.5001831,56.3288612c5.9817657,2.220562,12.2324524,4.5676422,18.7175293,7.0488892c2.4310913-1.738533,4.9593964-3.3972435,7.5862732-4.9623489c-4.7308197-3.5748558-9.8862915-6.9618492-15.0186768-10.0447159C141.8871307,50.9000702,138.1243439,53.5562592,134.5001831,56.3288612z M179.6391602,60.8140106c1.9697723,2.0794678,3.70224,4.1465988,5.1895447,6.1999359l-2.6868591-7.2085266C181.302124,60.134449,180.4655151,60.4673004,179.6391602,60.8140106z M320.187439,418.1904602c18.1586304-7.5449219,35.0404053-15.9031372,50.6430359-25.0447693c-4.1620483-12.0397339-9.0055847-24.8904114-14.6324158-38.5559998c-3.3448486,1.9995728-6.7229004,3.9507751-10.1652527,5.8014832c-12.5976257,6.7730408-25.8354187,12.6373901-39.4868774,17.5352783l13.5412598,40.3048706C320.1206665,418.2174072,320.1539612,418.2044067,320.187439,418.1904602z M188.4940643,46.3761635c3.5792542-1.0612755,7.1702728-1.9522285,10.7563171-2.6807976c2.0528412-7.5143929,4.0394287-14.4991951,5.9173126-20.8700352c-7.6339111,1.8541508-15.2624054,4.2042618-22.8175659,7.0675812L188.4940643,46.3761635z M232.5367432,41.7909126c2.9010773,0.2839928,5.749527,0.7015038,8.5435638,1.234993c9.1793823-7.2031898,20.2943878-15.3958492,32.0197601-22.8525047c-7.7035522-1.4172249-15.6511841-2.1926327-23.7477875-2.3553066C244.1693726,24.7171555,238.322998,33.1235123,232.5367432,41.7909126z M269.9027405,54.7981834c1.2052612,0.8669167,2.352478,1.7751198,3.4555359,2.7136345c7.7765198-2.2342033,16.5296021-4.4754066,26.0507812-6.4718056c8.507843-1.7838554,18.0371094-3.4401131,28.276886-4.669117c-3.9212036-3.7927399-8.2926636-7.2576065-13.0873718-10.362484C298.5354309,41.4694595,282.9711914,48.3723488,269.9027405,54.7981834z M210.7922211,41.9258728c3.1199493-0.3244095,6.2218018-0.5329857,9.2897339-0.5995293c4.9296417-7.5107117,10.4630127-15.7009144,15.8767853-23.2184105c-6.2742767,0.3929729-12.6065674,1.1366959-18.9613953,2.2437305C215.0608521,26.8089657,212.9745331,34.032795,210.7922211,41.9258728z M204.9067993,64.0090332c0.2606812-0.0360146,0.5223083-0.0762863,0.7822571-0.109127c1.6513519-2.6667976,4.1616821-6.6874542,7.2283173-11.4962921c-1.6998596,0.1614456-3.409668,0.3576088-5.1328888,0.6047211C206.8361511,56.5688286,205.8754883,60.2384453,204.9067993,64.0090332z M254.0301971,46.5453339c1.6006165,0.5818443,3.1389313,1.2204132,4.6446381,1.8874931c12.2422791-6.2617188,27.3074951-13.3059158,43.3512268-19.2982178c-4.5026855-2.0649624-9.2690125-3.8731384-14.2846375-5.405405C275.8648071,30.6603088,264.1155396,38.9081039,254.0301971,46.5453339z M184.9073639,476.5641174c-3.939682-8.8301392-7.4564362-18.2277527-10.5489044-28.1783752c-21.2026672-3.1208191-39.9958954-8.5292664-56.0057831-14.6445312c2.7407761,11.0758972,6.278389,21.7468262,10.5672302,32.009491C146.5151825,470.9510803,165.4156647,474.6081543,184.9073639,476.5641174z M122.1346664,248.3456726c1.9453735-5.9104004,3.9680405-11.6838074,6.0386276-17.3078918c-7.3675919-3.1304932-14.149086-6.8717804-20.2694168-11.1842194c-9.550705,18.0158844-17.4492645,36.4902496-23.6435699,55.2626495c7.8655014,6.358551,16.5021591,11.9272156,25.7887115,16.5999451C113.2745667,277.5117798,117.297821,263.040741,122.1346664,248.3456726z M171.0965424,437.1021423c-3.8055878-14.1977234-6.8090668-29.4290466-9.0019073-45.6635132c-14.8374634-2.6665039-29.1531219-6.6550598-42.7024765-11.9376831c-2.7716599-1.0806274-5.5024719-2.2324219-8.2130814-3.4188232c0.2207718,15.6298828,1.7031708,30.6949768,4.4508667,45.137146C131.1604004,427.6423645,149.8003387,433.5524597,171.0965424,437.1021423z M237.2153931,439.3647156c-4.3077545-14.7506409-8.1497955-29.6756592-11.5904846-44.5296326c-5.9782257,0.3882751-11.9337921,0.6058655-17.8443909,0.6058655c-11.7325897,0-23.3077698-0.7620544-34.6230621-2.2721558c2.2380371,15.7299194,5.3385162,31.0217896,9.4682922,45.5844116C199.417099,440.7611389,217.6806641,441.2281799,237.2153931,439.3647156z M271.0902405,305.8102417c-16.8141632,5.3743896-33.3446808,9.1795959-49.422699,11.4264526c3.348175,21.6343079,7.399353,43.9365845,12.3045502,66.2159119c20.7526855-2.0947876,40.6977692-6.4765015,59.0680695-12.3093872L271.0902405,305.8102417z M340.9935303,351.0169983c3.7390442-2.0102539,7.4165344-4.1377869,11.0499268-6.3412476c-8.0855713-18.9147949-17.6578674-39.3200989-28.9423218-61.1977844c-12.9436951,7.2504578-26.9523315,13.5900574-41.9277039,18.9289856l21.9507141,65.3347778C316.9030762,362.8181458,329.6494446,357.1158142,340.9935303,351.0169983z M37.50037,149.5842896c-0.879982,4.6390991-1.4691162,9.3082886-1.8327866,13.9841156c10.6776543-8.0167847,22.6907654-16.6117859,35.2702751-24.8403931c0.6529388-5.8942871,1.869812-11.8385315,3.6445084-17.7918549c-12.5984955,5.0485153-24.2148819,10.3978424-33.7435722,15.0721588C39.4910698,140.4682007,38.3708992,144.9949951,37.50037,149.5842896z M39.9151459,207.8934174c0.7955437-0.9770508,1.5917358-1.9543915,2.3981781-2.9341888c10.5365601-12.8009949,20.7772903-24.3576965,30.7163467-34.6918182c-1.5307465-5.978241-2.393631-12.1060028-2.6073303-18.3288269c-12.70718,8.5800018-24.721447,17.4005585-35.1125832,25.3675385C35.6092682,187.6493378,37.1721344,197.9187164,39.9151459,207.8934174z M82.9672852,131.0964203c12.7074738-7.8115234,25.7171249-14.9696121,38.2766418-20.5540695c0.1921234-1.5790405,0.487442-3.1618958,0.8433228-4.7455521c-11.498024,2.517334-23.2506027,6.1292114-34.5549927,10.2064514C85.5670395,121.0446243,84.0434265,126.0859985,82.9672852,131.0964203z M80.8733826,285.9940491c-2.8644028,9.7721252-5.2839432,19.6131897-7.2192841,29.5054626c-1.5155258,7.7477417-2.7325439,15.5317688-3.6717072,23.342926c9.6351395,7.729248,19.91362,14.5188293,30.7787704,20.3531494c0.7515259-18.2804871,3.0913849-37.2416382,6.9957733-56.7500305C98.1404114,297.8148499,89.1387863,292.3017578,80.8733826,285.9940491z M46.0846291,121.669487c5.624733-2.6182251,11.7231293-5.3372803,18.1646919-8.0304871c5.2064362-2.1769028,10.2859116-4.1906967,15.2425613-6.0485306c2.4346924-5.5513306,5.3457947-11.0822449,8.743103-16.5572205c0.5977936-0.9634171,1.2095184-1.9209824,1.832428-2.873497c-8.8227844,0.5485001-17.4999237,1.4856415-25.7413025,2.7596817C56.8540154,100.5697327,50.7471771,110.8696442,46.0846291,121.669487z M63.2591362,313.2062073c2.2793083-11.6050415,5.1944466-23.1394653,8.7091179-34.5735474c-6.461853-5.7744141-12.3785896-12.0769043-17.6731415-18.8598328c-6.3865738,13.8078003-12.3836403,28.901825-17.6985435,45.3458862c3.8056602,4.8034973,7.7584038,9.4121399,11.8720894,13.7988281c3.8198776,4.0737,7.7773132,7.962738,11.8596764,11.6761475C61.1528206,324.781311,62.1243896,318.9840088,63.2591362,313.2062073z M103.9172134,416.0144348c-2.3185043-14.4443359-3.463501-29.4437561-3.4151459-44.9580383c-11.1717377-5.6392212-21.7740479-12.2179871-31.7595062-19.7142029c-1.1780548,14.6038513-1.3655548,29.2905273-0.5441742,44.016571C79.3748932,403.0965881,91.3680878,410.0559998,103.9172134,416.0144348z M261.550415,128.0167999l5.286438-4.54879v-2.3358688l-22.5301971-9.7262421L261.550415,128.0167999z"/></svg>