<svg xmlns="http://www.w3.org/2000/svg" width="512" height="512"><path d="M146.704 143.907a43.27 43.27 0 0 1-3.392-2.688c7.597-6.288 14.088-10.968 18.875-14.18-3.98 4.016-9.305 9.654-15.483 16.868zm54.686 97.377a176.24 176.24 0 0 1-15.953.746c-4.359 0-8.678-.183-12.953-.518-2.152 21.542-3.637 43.992-4.027 66.582 13.128 1.272 26.826 1.224 40.958-.122a1298.234 1298.234 0 0 1-5.397-41.534c-.98-8.624-1.852-17.027-2.628-25.154zM169.475 65.707a102.476 102.476 0 0 0-4.103 2.376 1482.7 1482.7 0 0 1 9.92 3.928c-1.66-2.12-3.634-4.227-5.817-6.304zm36.29 64.219c.024 3.021.131 11.347.574 23.785a115.336 115.336 0 0 0 12.642-3.002l-7.445-22.16a71.29 71.29 0 0 1-5.771 1.377zm-41.65 22.21c6.699-12.24 11.744-20.375 13.545-23.216a43.32 43.32 0 0 1-1.569-.522c-2.18 2.01-9.719 9.159-19.872 20.878a64.885 64.885 0 0 0 6.924 2.584c.32.099.65.182.973.276zm-27.72-19.067a265.903 265.903 0 0 1 7.994-6.382 139.867 139.867 0 0 0-8.846 4.94c.269.488.558.966.852 1.442zm85.149-8.145 7.485 22.278c3.149-1.263 6.2-2.651 9.145-4.156-7.036-10.1-11.972-16.833-13.895-19.427-.894.451-1.806.886-2.735 1.305zm28.84-59.974a339.714 339.714 0 0 1 10.324-3.557 50.723 50.723 0 0 0-1.76-1.034 491.994 491.994 0 0 0-8.565 4.59zm8.525 8.33c3.942-.36 8.541-.738 13.694-1.096a35.743 35.743 0 0 0-2.114-2.652 352.98 352.98 0 0 0-11.58 3.747zm-4.683 11.136a612.068 612.068 0 0 1 24.22 2.117 31.937 31.937 0 0 0-.867-4.019 626.288 626.288 0 0 0-23.353 1.902zM149.4 80.346c5.544 1.017 16.383.698 16.383.698s-6.413-3.885-10.863-5.606a84.195 84.195 0 0 0-5.52 4.908zm71.388-20.503a453.439 453.439 0 0 1 8.96-7.655 93.193 93.193 0 0 0-3.913-.209 989.289 989.289 0 0 0-5.047 7.864zm-9.703 169.523c10.46-1.6 21.09-4.182 31.709-7.78l-20.42-60.779a125.337 125.337 0 0 1-15.61 3.622 1472.485 1472.485 0 0 0 4.32 64.937zm-43.907-32.19a1153.456 1153.456 0 0 1 5.12-32.34 92.415 92.415 0 0 1-2.692-.454c-8.245 15.596-18.293 36.347-27.695 60.436 6.689 2.175 13.758 3.817 21.115 4.913a1051.006 1051.006 0 0 1 4.152-32.556zM403.9 302.91c-10.89-18.717-23.049-36.441-35.423-52.724-10.7 10.272-22.814 19.6-36.205 27.889 9.818 19.034 19.67 39.514 28.849 60.828a253.592 253.592 0 0 0 42.78-35.993zm24.577-30.073a245.6 245.6 0 0 0 10.665-16.77c-12.433-15.167-26.206-29.365-40.929-42.646-1.277 2.091-2.6 4.16-3.97 6.205-5.379 8.027-11.464 15.664-18.2 22.888 13.43 17.537 25.271 34.94 35.432 52.082a252.713 252.713 0 0 0 17.002-21.76zm-66.548-31.112a669.301 669.301 0 0 0-23.169-27.803 764.394 764.394 0 0 0-21.884-23.823c-7.176 6.688-15.048 12.891-23.52 18.517a1267.3 1267.3 0 0 1 14.718 25.014 1165.486 1165.486 0 0 1 19.26 34.99c12.833-8.003 24.412-16.999 34.595-26.895zm-1.457-129.382a101.277 101.277 0 0 1-2.828 13.84c1.4.603 2.803 1.213 4.211 1.838 17.173 7.617 33.256 16.107 48.188 25.403a153.726 153.726 0 0 0 2.493-23.117c-15.416-6.646-32.198-12.49-50.347-17.504-.57-.157-1.147-.305-1.717-.46zm-11.96-57.074a84.305 84.305 0 0 1 6.542 12.842c.486 1.2.933 2.41 1.363 3.624 17.349 1.147 33.359 3.109 48.02 5.869-2.568-7.177-5.707-14.004-9.37-20.355-15.724-2.351-31.46-2.78-46.555-1.98zm59.525 34.014c-16.232-3.39-32.872-5.451-48.575-6.641a86.691 86.691 0 0 1 1.79 18.975c17.01 4.533 34.321 10.181 51.21 17.201a142.407 142.407 0 0 0-4.425-29.535zM318.173 274.04a1168.806 1168.806 0 0 0-19.26-34.993 1264.566 1264.566 0 0 0-14.58-24.787 204.269 204.269 0 0 1-26.79 13.205c-.455.184-.912.355-1.368.536l21.61 64.318c14.448-5.162 27.941-11.286 40.388-18.279zM133.1 105.715a146.105 146.105 0 0 1 9.54-3.158 142.35 142.35 0 0 0-8.884 1.07 42.8 42.8 0 0 0-.656 2.088zm-1.103 15.627c8.227-4.822 16.144-8.479 23.742-10.97-7.493 1.304-15.628 3.847-24.122 7.295.059 1.236.183 2.462.38 3.675zm27.005 40.352c-3.502-1.133-6.8-2.46-9.875-3.976a384.178 384.178 0 0 0-36.048 52.686c5.712 4.147 12.04 7.71 18.875 10.659 9.127-23.392 18.862-43.716 27.048-59.37zM139.5 92.178c3.935-.402 7.721-.625 11.36-.674-3.16-.643-6.41-1.2-9.731-1.678a62.874 62.874 0 0 0-1.63 2.352zm106.682 139.498c-11.312 3.836-22.75 6.626-34.116 8.331 1.984 20.683 4.592 43.224 8.02 66.711 15.46-2.154 31.386-5.821 47.613-11l-21.517-64.042zm-22.93 152.648c-4.949-22.546-8.978-44.779-12.249-65.822-7.813.763-15.511 1.158-23.064 1.158a213.27 213.27 0 0 1-19.584-.89c-.032 21.377.981 42.768 3.396 63.53 17.334 2.526 34.634 3.058 51.501 2.024zM278.26 97.162a610.63 610.63 0 0 0-24.448-2.11 440.693 440.693 0 0 1 23.87 4.903 38.88 38.88 0 0 0 .578-2.793zM88.866 182.368a334.672 334.672 0 0 1 11.11-13.508c9.975-11.483 19.595-21.002 28.269-28.763a43.858 43.858 0 0 1-1.644-2.65c-14.03 9.724-28.1 22.195-41.565 35.825.435 1.27.897 2.533 1.404 3.782a72.935 72.935 0 0 0 2.426 5.314zM336.773 81.447c-17.628-.54-34.233-.197-48.362.47.431 1.943.73 3.906.889 5.884 18.615 2.338 39.558 5.845 61.276 11.102-.094-5.736-.807-11.413-2.189-16.969a519.65 519.65 0 0 0-11.614-.487zM403.6 203.942c14.69 13.116 28.499 27.125 41.06 42.083 6.628-12.788 11.91-25.89 15.771-39.102-2.64-2.693-5.324-5.359-8.107-7.967-10.741-10.07-22.566-19.513-35.382-28.307a171.781 171.781 0 0 1-13.342 33.293zm16.061-44.308c14.486 9.692 27.793 20.183 39.812 31.437 1.379 1.29 2.714 2.606 4.06 3.917 1.854-8.2 3.177-16.414 3.906-24.597.248-2.794.416-5.569.53-8.33-13.185-10.035-28.193-19.052-44.991-27.03a165.257 165.257 0 0 1-3.317 24.603zM81.131 144.88a77.457 77.457 0 0 0 .878 16.305c14.144-13.894 27.635-25.173 40.432-33.806a42.961 42.961 0 0 1-1.09-5.203c-13.19 6.21-26.928 14.168-40.22 22.704zm48.422 166.2a166.311 166.311 0 0 1-11.813-4.236c-3.854 19.859-6.045 39.109-6.517 57.588a206.317 206.317 0 0 0 12.035 5.154c12.368 4.822 24.915 8.377 37.49 10.837a478.258 478.258 0 0 1-1.24-12.86c-1.31-15.866-1.92-32.58-1.852-50.067-9.696-1.43-19.08-3.566-28.103-6.416zm18.094-73.556a137.01 137.01 0 0 1-9.513-2.741 517.425 517.425 0 0 0-5.97 17.132c-4.945 15.047-9.023 29.844-12.234 44.337a155.073 155.073 0 0 0 12.829 4.68c8.038 2.54 16.396 4.469 25.025 5.812.41-21.083 1.787-43.251 4.118-66.412a147.427 147.427 0 0 1-14.255-2.808zm-141.991-36.4A248.58 248.58 0 0 0 0 241.417c1.7 4.148 3.46 8.23 5.301 12.217 7.379-10.449 16.394-22.741 26.543-35.65a140.231 140.231 0 0 1-6.74-32.73 811.452 811.452 0 0 0-19.448 15.868zm100.633 227.672a264.543 264.543 0 0 1-37.053-19.98 340.54 340.54 0 0 0 3.056 23.198 256.364 256.364 0 0 0 24.723 21.958 239.019 239.019 0 0 0 18.783 7.522 234.83 234.83 0 0 1-9.509-32.698zm220.6 43.098c-20.26 6.55-41.343 11.25-62.781 14.02a470.104 470.104 0 0 0 9.069 21.736c21.427-1.415 42.129-5.423 61.792-11.709l-8.08-24.047zM24.618 172.015c.09-8.154.893-16.325 2.428-24.413.327-1.725.694-3.44 1.084-5.148-.567.297-1.112.585-1.645.867a248.31 248.31 0 0 0-16.13 40.047c4.176-3.4 8.964-7.23 14.263-11.353zm16.088 154.182a226.961 226.961 0 0 1-7.858-8.86c-3.48 11.986-6.579 24.65-9.213 37.988 9.62 11.38 20.954 22.16 33.567 31.959a332.72 332.72 0 0 1 1.582-43.886 218.971 218.971 0 0 1-18.078-17.201zm457.84-151.122c-5.707-16.608-13.137-32.431-22.055-47.285a168.837 168.837 0 0 1 2.242 29.243c6.984 5.58 13.613 11.587 19.813 18.042zm-451.333 74.76a139.998 139.998 0 0 1-4.797-7.922 139.35 139.35 0 0 1-6.092-12.283 885.133 885.133 0 0 0-25.685 34.976c5.519 10.714 11.598 20.76 18.202 30.13 5.577-16.277 11.794-31.23 18.372-44.9zm413.366-142.723c-12.34-6.508-26.344-11.434-40.966-15.152a153.315 153.315 0 0 1 2.97 18.935c.39 4.198.6 8.41.655 12.622 15.636 7.149 30.755 15.562 44.758 25.46-.543-14.523-3.018-28.522-7.417-41.865zm-151.133 75.33a856.167 856.167 0 0 0-45.976-43.41 103.069 103.069 0 0 1-10.015 7.435 1337.56 1337.56 0 0 1 34.35 53.037c7.854-5.25 15.088-10.977 21.64-17.063zm-38.211-50.75A867.944 867.944 0 0 1 317 174.95a147.113 147.113 0 0 0 11.757-14.117c-18.048-11.627-36.527-22.278-54.937-32.02a85.157 85.157 0 0 1-2.587 2.88zm9.032-11.52c18.23 9.693 36.53 20.272 54.427 31.81 3.966-6.46 7.241-13.08 9.766-19.77-21.934-8.863-42.681-15.167-60.015-19.579-1.182 2.533-2.585 5.048-4.178 7.54zM232.42 157.3l20.36 60.602c.254-.101.508-.195.762-.298a192.649 192.649 0 0 0 25.249-12.441 1325.36 1325.36 0 0 0-34.531-53.29 120.879 120.879 0 0 1-11.84 5.427zm55.62-54.803c17.269 4.44 37.793 10.732 59.662 19.543a90.352 90.352 0 0 0 2.34-12.404c-19.529-4.836-39.975-8.596-61.185-11.251-.214 1.37-.48 2.74-.817 4.112zm-14.78 12.722a56.41 56.41 0 0 0 3.032-5.158 441.592 441.592 0 0 0-22.477-4.585 926.01 926.01 0 0 1 19.446 9.743zm134.335 49.247c-15.317-9.77-31.935-18.662-49.781-26.594a416.817 416.817 0 0 0-3.522-1.543c-2.76 7.206-6.329 14.397-10.708 21.495 17.903 11.961 35.314 24.91 51.752 38.919a160.744 160.744 0 0 0 12.26-32.277zm-302.843 39.062c11.964-20.86 24.385-38.1 35.132-51.41a52.667 52.667 0 0 1-4.7-3.9c-8.462 7.566-17.852 16.852-27.534 28.035a326.106 326.106 0 0 0-12.893 15.902c2.93 4.096 6.285 7.884 9.995 11.373zm142.669-65.82a93.175 93.175 0 0 0 7.893-5.722c-11.657-9.935-18.896-15.491-19.086-15.636 0 0-1.366.576-2.85 1.676 2.328 3.157 7.265 9.936 14.043 19.683zM99.428 213.144a89.093 89.093 0 0 1-11.268-12.015c-9.616 13.53-19.44 29.418-28.663 47.828a133.024 133.024 0 0 0 16.091 18.538c6.357-18.466 14.329-36.629 23.84-54.351zM243.87 54.455a511.907 511.907 0 0 0-7.6 6.197 450.905 450.905 0 0 1 9.876-5.579 72.023 72.023 0 0 0-2.276-.618zM43.89 220.005a128.831 128.831 0 0 0 7.81 16.71c.363.647.737 1.285 1.11 1.925 9.403-18.046 19.333-33.635 29.003-46.921a84.32 84.32 0 0 1-4.943-9.975c-11.73 12.48-22.873 25.607-32.98 38.261zm280.541-37.4a774.293 774.293 0 0 1 22.189 24.142 695.248 695.248 0 0 1 22.792 27.256c5.89-6.438 11.237-13.21 15.988-20.3a163.726 163.726 0 0 0 4.687-7.434c-16.59-14.271-34.24-27.445-52.426-39.595a157.354 157.354 0 0 1-13.23 15.931zm179.47 15.026c-7.406-9.753-16.01-18.868-25.787-27.335-.029.347-.046.692-.077 1.04-.973 10.922-2.922 21.818-5.72 32.59 9.387 10.018 17.861 20.566 25.382 31.628 3.215-12.576 5.291-25.303 6.202-37.923zM281.495 66.366a43.778 43.778 0 0 1 3.096 5.088c15.073-.785 33.2-1.235 52.508-.645 2.583.08 5.132.18 7.663.291a73.542 73.542 0 0 0-8.486-14.911c-20.455 1.982-39.306 5.986-54.781 10.177zM145.582 35.933a202.74 202.74 0 0 1 23.196-11.982l-1.754-4.703a256.794 256.794 0 0 0-28.989 12.616 263.058 263.058 0 0 1 7.547 4.069zM257.61 7.526c9.035.622 17.864 1.99 26.375 4.116.794.199 1.579.41 2.363.62a194.078 194.078 0 0 1 10.337-5.357 261.538 261.538 0 0 0-35.462-3.145c-1.08 1.003-2.29 2.268-3.613 3.766zm-37.126 1.5c7.962-1.154 15.884-1.784 23.698-1.876.907-1.15 1.79-2.235 2.662-3.289-8.572.29-17.037.99-25.375 2.09-.322.996-.648 2.014-.985 3.075zM3.84 274.491a797.537 797.537 0 0 0-3.18 4.733c2.07 22.291 7.071 43.747 14.645 63.98 2.777-12.606 5.946-24.623 9.461-36.002-7.618-10.105-14.602-21.02-20.926-32.71zm85.3-209.127a169.597 169.597 0 0 0-14.355 13.4 300.87 300.87 0 0 1 23.307-1.709 163.327 163.327 0 0 1 15.63-17.027c-2.465-.9-4.868-1.775-7.2-2.624l-5.934-2.163a256.719 256.719 0 0 0-11.946 9.524l.499.599zm33.66-13.348a185.403 185.403 0 0 1 12.604-9.523 251.773 251.773 0 0 0-8.743-4.453 256.968 256.968 0 0 0-15.554 9.707c3.734 1.36 7.633 2.782 11.693 4.27zM57.908 401.085a250.058 250.058 0 0 1-25.052-20.701 252.822 252.822 0 0 0 26.694 37.771 347.546 347.546 0 0 1-1.642-17.07zM469.72 300.418c-6.969-12.305-14.828-24.076-23.435-35.33-8.346 13.837-18.131 27.032-29.168 39.308a421.17 421.17 0 0 1 2.613 4.727c6.194 11.436 11.59 22.744 16.235 33.912 12.974-13.23 24.238-27.444 33.755-42.617zm8.334-14.33a225.731 225.731 0 0 0 15.735-37.027c-7.28-11.619-15.6-22.692-24.95-33.177-4.32 13.394-9.969 26.527-16.828 39.2 8.717 11.099 16.746 22.696 23.938 34.82.71-1.267 1.42-2.535 2.105-3.816zM300.45 16.896c5.469 2.154 10.634 4.632 15.463 7.424 8.219-2.619 16.547-4.831 24.761-6.432a257.202 257.202 0 0 0-25.016-7.253c-4.9 1.588-10.012 3.726-15.208 6.261zm108.938 295.736c-13.22 13.503-27.995 25.73-44.053 36.256 5.257 12.659 10.245 25.565 14.815 38.601 17.628-11.06 33.487-23.193 47.547-36.37-5.28-13.14-11.482-26.01-18.31-38.487zM327.38 32.023c5.079 3.942 9.654 8.3 13.682 13.045 14.613-1.101 30.285-1.184 46.257.497-.351-.462-.691-.937-1.05-1.392a99.456 99.456 0 0 0-9.855-10.81 256.807 256.807 0 0 0-15.265-7.42c-10.758.577-22.253 2.832-33.77 6.08zm89.111 48.094c11.722 2.709 22.451 6.001 32.213 9.848a255.94 255.94 0 0 0-27.944-27.002 178.645 178.645 0 0 0-12.33-3.226 141.002 141.002 0 0 1 8.061 20.38zm-237.855-60.19c9.939-3.763 20.008-6.708 30.07-8.816.357-1.149.705-2.26 1.05-3.352a257.629 257.629 0 0 0-32.649 8.069l1.529 4.1zm308.803 271.184a244.624 244.624 0 0 1-5.406 9.559 285.048 285.048 0 0 1 10.59 21.804c6.649-12.475 12.713-25.975 18.039-40.58.019-.184.034-.37.053-.553a236.45 236.45 0 0 0-9.838-20.217 235.661 235.661 0 0 1-13.438 29.987zM190.277 487.754c-19.153-1.523-37.596-4.597-55-9.118a256.93 256.93 0 0 0 63.06 23.234 196.001 196.001 0 0 1-8.06-14.116zm320.117-260.021a233.32 233.32 0 0 1-5.013 19.88 249.81 249.81 0 0 1 6.576 11.703c.015-1.117.043-2.23.043-3.35 0-9.546-.557-18.963-1.606-28.233zM253.197 487.157a357.55 357.55 0 0 1-34.889 1.728c-4.43 0-8.857-.083-13.285-.25-.751-.028-1.493-.078-2.242-.11a174.112 174.112 0 0 0 10.256 16.2 261.804 261.804 0 0 0 42.746 3.516c2.009 0 4.01-.03 6.007-.075a494.018 494.018 0 0 1-8.593-21.009zm189.927-82.66c-15.388 14.34-31.4 26.125-47.194 35.802a440.09 440.09 0 0 1 5.045 23.534 256.445 256.445 0 0 0 44.594-38.387 204.375 204.375 0 0 0-2.445-20.948zm47.557-57.468c-11.728 18.566-24.733 34.634-38.39 48.542a230.327 230.327 0 0 1 2.963 18.711c15.213-18.559 27.81-39.28 37.237-61.627a259.19 259.19 0 0 0-1.81-5.626zm-194.22 34.298c-19.26 6.15-39.215 10.405-59.279 12.541-.278.03-.555.05-.833.078 3.455 14.853 7.3 29.646 11.58 44.175 19.619-2.683 40.43-7.757 62.247-15.974l-13.714-40.82zm189.53-47.058a270.376 270.376 0 0 0-10.512-23.162c-10.01 15.087-21.812 29.332-35.283 42.61 3.716 9.923 6.801 19.722 9.26 29.383 13.093-14.017 25.476-30.183 36.534-48.831zM323.5 461.807l-9.939-29.58c-21.856 8.203-42.754 13.385-62.505 16.213a601.817 601.817 0 0 0 9.193 27.232c21.608-2.631 42.86-7.28 63.25-13.865zm-74.122 15.035a625.2 625.2 0 0 1-9.036-27.088 268.9 268.9 0 0 1-27.638 1.45c-9.239 0-18.13-.506-26.69-1.377 3.183 9.657 6.866 18.938 11.095 27.755 2.763.174 5.534.315 8.313.42 14.666.548 29.37.152 43.956-1.16zm182.358-115.107a298.503 298.503 0 0 1-4.35 3.886c-13.2 11.548-27.826 22.272-43.744 32.137 3.494 10.535 6.696 21.127 9.528 31.716 15.967-10.039 32.109-22.336 47.494-37.38-2.321-10.217-5.338-20.355-8.928-30.36zm-45.41 84.216c-14.05 7.926-27.782 14.233-40.586 19.243a329.167 329.167 0 0 1-8.775 3.276l8.073 24.028a256.844 256.844 0 0 0 46.268-22.419c-1.283-7.35-2.915-15.39-4.98-24.128zm-44.465 9.333c13.152-5.147 27.32-11.713 41.792-20.072-2.566-9.825-5.658-20.43-9.378-31.822-15.542 9.016-32.235 17.244-50.005 24.627-.265.11-.526.208-.79.317l10.098 30.055c2.78-1 5.542-2.032 8.283-3.105zm-168.259-224.37c3.854.291 7.767.448 11.735.448 4.952 0 9.988-.24 15.077-.701a1472.728 1472.728 0 0 1-4.282-64.938 111.53 111.53 0 0 1-8.235.312c-1.671 0-3.327-.053-4.975-.13a1125.306 1125.306 0 0 0-5.21 32.782 1023.285 1023.285 0 0 0-4.11 32.228zM103.415 87.638c-2.172 2.945-4.236 5.942-6.138 9.008a127.04 127.04 0 0 0-3.44 5.9c11.57-3.789 22.367-6.61 32.365-8.456a64.54 64.54 0 0 1 3.042-5.612c-8.419-.715-17.117-.98-25.829-.84zm88.808-31.256 2.144 5.752c.593-2.308 1.183-4.582 1.77-6.815-1.303.33-2.607.684-3.914 1.063zm-2.722 74.64a1272.081 1272.081 0 0 0-4.694 24.315 99.13 99.13 0 0 0 10.906-.257c-.416-11.8-.543-20.114-.581-23.972-1.913.057-3.794.03-5.631-.086zM156.05 42.18c5.698 3.614 10.74 7.208 15.085 10.774 2.376-1.11 4.808-2.15 7.29-3.119l-5.923-15.89a193.35 193.35 0 0 0-16.452 8.235zm-43.928 34.736c8.274.122 16.5.61 24.465 1.528a88.195 88.195 0 0 1 7.074-7.314 2222.725 2222.725 0 0 0-18.675-6.973c-4.578 4.062-8.885 8.315-12.864 12.759zM134.5 56.329c5.982 2.22 12.233 4.568 18.718 7.049a108.609 108.609 0 0 1 7.586-4.963c-4.73-3.574-9.886-6.961-15.019-10.044a178.267 178.267 0 0 0-11.285 7.958zm45.14 4.485c1.969 2.08 3.701 4.147 5.189 6.2l-2.687-7.209c-.84.33-1.676.662-2.503 1.009zM320.186 418.19c18.16-7.544 35.04-15.903 50.643-25.044-4.162-12.04-9.005-24.89-14.632-38.556-3.345 2-6.723 3.95-10.165 5.801-12.598 6.773-25.836 12.638-39.487 17.535l13.541 40.305.1-.04zM188.494 46.376c3.58-1.061 7.17-1.952 10.756-2.68 2.053-7.515 4.04-14.5 5.918-20.87a192.822 192.822 0 0 0-22.818 7.067l6.144 16.483zm44.043-4.585c2.9.284 5.75.701 8.543 1.235 9.18-7.203 20.295-15.396 32.02-22.853-7.703-1.417-15.651-2.192-23.748-2.355-5.183 6.9-11.029 15.306-16.815 23.973zm37.366 13.007a53.899 53.899 0 0 1 3.455 2.714 368.043 368.043 0 0 1 26.051-6.472 329.597 329.597 0 0 1 28.277-4.67c-3.921-3.792-8.293-7.257-13.087-10.362-16.064 5.461-31.628 12.364-44.696 18.79zm-59.11-12.872c3.12-.325 6.221-.533 9.289-.6 4.93-7.51 10.463-15.7 15.877-23.218a173.815 173.815 0 0 0-18.962 2.244 1043.403 1043.403 0 0 0-6.205 21.574zm-5.886 22.083c.26-.036.522-.076.782-.11a1039.18 1039.18 0 0 1 7.228-11.495c-1.7.161-3.41.357-5.133.604-.948 3.56-1.909 7.23-2.877 11.001zm49.123-17.464c1.6.582 3.14 1.22 4.645 1.888 12.242-6.262 27.307-13.306 43.351-19.298a114.493 114.493 0 0 0-14.285-5.406c-11.876 6.931-23.625 15.18-33.71 22.816zm-69.123 430.02c-3.94-8.831-7.456-18.229-10.549-28.18a265.27 265.27 0 0 1-56.005-14.644 219.888 219.888 0 0 0 10.567 32.01c17.595 5.2 36.496 8.857 55.987 10.813zm-62.772-228.22a526.99 526.99 0 0 1 6.038-17.307c-7.367-3.13-14.149-6.872-20.27-11.184-9.55 18.015-17.448 36.49-23.643 55.262 7.866 6.359 16.502 11.927 25.789 16.6 3.226-14.204 7.249-28.675 12.086-43.37zm48.962 188.757c-3.806-14.198-6.81-29.429-9.002-45.663-14.838-2.667-29.153-6.655-42.703-11.938a217.844 217.844 0 0 1-8.213-3.419c.22 15.63 1.703 30.695 4.45 45.137a254.952 254.952 0 0 0 55.468 15.883zm66.118 2.263c-4.307-14.75-8.15-29.676-11.59-44.53-5.978.388-11.934.606-17.844.606-11.733 0-23.308-.762-34.624-2.272 2.238 15.73 5.339 31.022 9.469 45.584 16.791 2.008 35.055 2.475 54.59.612zM271.09 305.81c-16.814 5.375-33.344 9.18-49.422 11.427 3.348 21.634 7.399 43.936 12.304 66.216 20.753-2.095 40.698-6.477 59.068-12.31l-21.95-65.333zm69.904 45.207a245.79 245.79 0 0 0 11.05-6.341c-8.086-18.915-17.658-39.32-28.943-61.198-12.944 7.25-26.952 13.59-41.928 18.929l21.951 65.335c13.78-4.924 26.525-10.626 37.87-16.725zM37.5 149.584c-.88 4.64-1.469 9.309-1.832 13.984 10.677-8.016 22.69-16.611 35.27-24.84.653-5.894 1.87-11.839 3.644-17.792-12.598 5.049-24.215 10.398-33.743 15.072a131.899 131.899 0 0 0-3.339 13.576zm2.415 58.31a739.09 739.09 0 0 1 2.398-2.935c10.537-12.8 20.778-24.357 30.717-34.692a85.614 85.614 0 0 1-2.608-18.328c-12.707 8.58-24.721 17.4-35.112 25.367a129.526 129.526 0 0 0 4.605 30.587zm43.052-76.798c12.708-7.811 25.717-14.97 38.277-20.554a48.3 48.3 0 0 1 .843-4.745c-11.498 2.517-23.25 6.129-34.555 10.206-1.965 5.042-3.489 10.083-4.565 15.093zm-2.094 154.898a330.532 330.532 0 0 0-7.219 29.506 321.447 321.447 0 0 0-3.672 23.342 201.331 201.331 0 0 0 30.78 20.354c.75-18.28 3.09-37.242 6.995-56.75-9.617-4.631-18.618-10.144-26.884-16.452zM46.085 121.669a502.03 502.03 0 0 1 18.164-8.03 438.39 438.39 0 0 1 15.243-6.049c2.435-5.55 5.346-11.082 8.743-16.557.598-.963 1.21-1.92 1.832-2.873-8.822.548-17.5 1.485-25.74 2.76-7.473 9.65-13.58 19.95-18.242 30.75zm17.174 191.537a342.027 342.027 0 0 1 8.71-34.573 144.756 144.756 0 0 1-17.674-18.86c-6.386 13.808-12.384 28.902-17.698 45.346a218.658 218.658 0 0 0 11.872 13.799 209.491 209.491 0 0 0 11.86 11.676 332.56 332.56 0 0 1 2.93-17.388zm40.658 102.808c-2.318-14.444-3.463-29.443-3.415-44.958a211.803 211.803 0 0 1-31.76-19.714 323.205 323.205 0 0 0-.544 44.017 255.177 255.177 0 0 0 35.72 20.655zM261.55 128.017l5.287-4.549v-2.336l-22.53-9.726 17.243 16.61z"/></svg>