<svg version="1.1" xmlns="http://www.w3.org/2000/svg" width="512px" height="512px"><path d="M254.3304291,455.6140137c75.1956635-1.7466125,161.4138641-32.4683838,235.0676422-83.4595337l-15.1547241-21.888855c-9.2144165,6.3791504-18.5058289,12.3786926-27.8523254,18.0146484c-29.9362488-29.0696716-63.7392273-91.213562-63.7392273-91.213562c4.5076599-15.7768555,15.7768555-65.8621674,38.9413147-97.9167786c3.9752808-5.500946,9.0299072-5.096756,9.0299072-5.096756s5.2472839,18.2639618,25.050415,17.2314453c5.6123047,2.1396332,12.539856,4.6048889,18.3005981,7.9828949c31.8876343,18.6985321,37.8978577-8.3475342,37.8978577-8.3475342c2.4989014-23.0984802-32.3884888-60.7702026-32.3884888-60.7702026s-4.1457214-10.371788-8.6855469-14.142128c-6.5380554-5.4299011-20.0300293-18.2463455-20.0300293-18.2463455c-2.1286316-7.3875885-5.0085449-37.8144112-14.3995361-41.4455986c-14.2743225,4.3824654-18.3576355,18.097477-19.6584778,46.9549828c-38.1550903,10.9008942-69.3278198,30.537735-93.9051514,60.5348663c-21.65271,26.427536-72.1076813,23.5770264-103.931839,8.082016c-21.0650635-10.256485-40.5367584-22.4691925-59.14328-23.793457c-19.0494232-1.355835-33.940567,3.3901062-45.241188,11.6253815l-1.1128006-0.785202c-58.6915817-55.4101868-97.9806137-19.8635559-111.3510437,41.7566681C-5.4204268,235.0026398,18.5329723,257.9849548,0,300.7127075c31.8940487,2.9284668,38.9867554-28.4718933,40.2204857-60.8546906c0.9482117-24.8867493-1.8217659-47.4354706,8.863121-63.963623c14.0155106-21.6802368,44.7317696-9.8986969,52.9626503-4.0581207c-20.191864,25.9218445-20.7372284,65.8544769-9.3884277,83.1929169c20.2385712,30.9200287,29.5503311,25.0426483,22.0375366,49.3340302c-7.043251,22.7731018-17.8680801,44.6714783-32.9134827,69.694397c-9.7384567-7.3383179-19.1781769-15.3782959-28.2840195-24.1246033l-18.4425468,19.2006836c32.647892,31.3590698,69.3119049,54.5606995,108.9741974,68.9612122C176.4264984,449.8571472,218.5354462,456.4454346,254.3304291,455.6140137z M415.1876831,385.6070251c-51.4118042,26.1030579-103.8952332,40.8840942-154.4603577,43.2338562c-37.7493744,1.7617798-73.9560699-3.5509644-107.61203-15.7710266c-17.0747375-6.1994629-33.5531158-14.232605-49.3548737-23.9919739c24.7784119-36.7168884,51.0632324-80.714325,74.3454437-100.0591431c5.0154419-4.1672668,13.3983154-0.3887939,16.7259979,1.5710144c42.2386322,24.8757019,100.5982208,27.5147705,151.7584991,5.5093994C375.3378296,336.9744263,410.1213074,366.5679932,415.1876831,385.6070251z"/></svg>