<svg xmlns="http://www.w3.org/2000/svg" width="371" height="512"><path d="M324.269 260.466c-45.185 44.792-124.495 62.78-163.407 54.75C107.915 391.61 58.93 460.337 18.767 512c3.85-49.287 23.01-135.111 47.74-225.724-47.247-28.595-60.902-65.19-60.902-65.19 20.924 21.605 42.67 38.611 66.023 46.64a3445.67 3445.67 0 0 1 19.705-67.851c23.103 32.527 69.918 53.503 113.389 51.679a17752.41 17752.41 0 0 1-16.45 23.957c51.556-12.718 98.249-41.373 113.098-89.971 16.846-55.131-24.206-122.06-115.298-135.806C100.752 36.858 44.732 68.878 0 114.554 0 114.553 41.158-3.024 188.806.06c54.573 1.139 110.832 28.225 145.556 69.049 62.244 73.178 33.055 148.584-10.093 191.357zm-63.608-112.98c0-41.16-33.999-74.527-75.938-74.527-41.94 0-75.94 33.367-75.94 74.528s34 74.527 75.94 74.527 75.938-33.367 75.938-74.527z"/></svg>