<svg version="1.1" xmlns="http://www.w3.org/2000/svg" width="371px" height="512px"><path d="M324.2687378,260.466217c-45.1847534,44.7918091-124.4951324,62.7791138-163.4068756,54.7499695C107.9149017,391.608551,58.9296875,460.3373413,18.7671051,512c3.8494339-49.2872925,23.009819-135.1113586,47.7403717-225.7242126c-47.2470398-28.5944824-60.9025955-65.189682-60.9025955-65.189682c20.9237595,21.6053467,42.6702118,38.6110687,66.0229874,46.6406403c6.3155823-22.6171265,12.9331665-45.3960419,19.7047882-67.8517914c23.103363,32.5271301,69.9181519,53.5026245,113.3890076,51.6786804c-5.513092,8.0431671-10.9957275,16.0272369-16.4501343,23.9569244c51.5561523-12.717865,98.2492828-41.3726349,113.0987701-89.970993c16.845459-55.1307373-24.206604-122.0588531-115.2983246-135.8059387C100.7516632,36.8575401,44.7316437,68.8781586,0,114.5530777c0,0,41.1582565-117.5759048,188.8062286-114.4935074c54.5730896,1.1393676,110.832016,28.22509,145.556076,69.0493164C396.605957,142.2872467,367.4172363,217.6928711,324.2687378,260.466217z M260.6612549,147.4865875c0-41.1601791-33.9989471-74.5271072-75.9386749-74.5271072c-41.9398193,0-75.9387665,33.3669281-75.9387665,74.5271072s33.9989471,74.5270081,75.9387665,74.5270081C226.6623077,222.0135956,260.6612549,188.646759,260.6612549,147.4865875z"/></svg>