<svg version="1.1" xmlns="http://www.w3.org/2000/svg" width="512px" height="512px"><path d="M115.8550949,202.8218689L56.9807587,357.6006165H0l76.9190826-203.2074127h57.9213562c37.0362396,0,80.7124176,18.0385284,56.027771,78.8064423c-24.6846466,60.7741089-57.9213562,69.3199768-84.5119553,69.3199768h-18.038559l17.0917664-47.475708c18.9915161-0.9467926,28.4903641-18.9915161,31.3307419-27.5312042C142.8166504,210.0654755,137.0653229,201.6130219,115.8550949,202.8218689z M268.90979,202.8280487l-58.861969,154.7787628h-56.986969L229.97995,154.3993683h57.9275208c37.0300598,0,80.7124329,18.0385437,56.0215759,78.8064575c-24.6784363,60.7740936-57.9151611,69.3199615-84.5057678,69.3199615h-18.0447235l17.0917511-47.4756927c18.9976807-0.9467926,28.490387-18.9915161,31.3369141-27.5312195C294.7584839,212.3315277,292.8621521,201.3749695,268.90979,202.8280487z M345.9959106,254.1404419c-20.3776855,81.0527649,10.575592,103.460144,57.760498,103.460144h32.2836914l21.8380737-58.8743286h-38.9297791c-21.8380737,0-20.4271851-19.9444885-12.8219299-44.6291504L345.9959106,254.1404419z M409.6784363,244.1341553c9.703064-20.9779205,27.438446-41.3122864,51.0525208-41.3122864h34.1772766L512,154.3993683h-53.1687927c-30.9161682,0-85.8610535,6.5842285-110.1310425,89.7162323L409.6784363,244.1341553z"/></svg>