<svg xmlns="http://www.w3.org/2000/svg" width="512" height="512"><path d="M492.758 334.265c-5.266-2.563-111.972-48.31-173.234-74.548 46.085-33.22 134.216-96.802 138.654-100.374 5.987-4.816 5.027-6.539-2.203-3.82-4.447 1.682-81.08 32.404-139.42 55.808 32.674-64.31 77.831-153.37 79.941-158.494 1.883-4.583 2.06-6.963.817-6.963-.941 0-2.718 1.386-5.223 4.246-4.459 5.137-87.882 116.28-124.453 165.042-21.8-60.173-73.512-202.69-76.661-209.31-3.998-8.384-6.627-7.674-5.827 1.582.545 6.466 20.252 129.436 32.13 203.275-30.796-24.909-72.175-58.313-75.096-60.338-1.777-1.244-3.074-1.848-3.784-1.848-1.173 0-.853 1.563 1.172 4.476 1.869 2.706 35.472 46.786 63.719 83.794-65.685-1.327-177.02-3.528-182.8-3.315-8.244.32-8.582 2.7-.765 5.312 6.058 2.01 136.33 30.28 194.644 42.899-24.629 33.845-79.654 109.48-82.34 113.335-3.464 5.01-2.202 6.253 2.79 2.789 3.92-2.721 80.496-64.773 113.188-91.286 16.124 51.958 60.255 193.95 62.895 200.113 3.25 7.585 5.596 7.053 5.223-1.173-.258-5.69-15.947-112.817-25.594-178.313 47.957 39.098 114.849 93.55 118.667 96.201 5.987 4.175 7.515 2.665 3.358-3.34-3.022-4.333-64.845-75.965-98.764-115.203 65.68 12.974 171.896 33.87 177.545 34.445 8.19.854 8.83-1.385 1.421-4.992z"/></svg>