<svg xmlns="http://www.w3.org/2000/svg" width="512" height="512"><path d="M267.78 87.938c52.32-4.454 93.544-1.05 139.224 8.869C465.335 109.473 512 113.473 512 81.974c0-66.344-192.518-11.35-244.817-.691a11.793 11.793 0 0 0-10.96-7.358c-5.796 0-10.606 4.133-11.6 9.577-50.947 2.3-84.239 3.864-152.033-10.774C32.322 59.716-.956 65.28.02 90.474c2.382 61.428 164.405 17.637 245.475-.06a11.751 11.751 0 0 0 5.516 5.616v11.855c-3.899 1.903-6.587 5.86-6.587 10.447 0 4.767 2.9 8.86 7.05 10.667-6.867 2.216-11.843 8.72-11.843 16.404 0 5.617 2.67 10.59 6.781 13.733C50.995 180.444 24.672 370.564 28.285 413.904c8.054 63.705 446.671 65.17 455.458 0 1.425-116.824-73.79-240.798-217.033-254.639a17.244 17.244 0 0 0 6.95-13.862c0-7.88-5.234-14.508-12.372-16.554 3.978-1.875 6.734-5.873 6.734-10.517 0-4.753-2.883-8.835-7.012-10.65v-11.45c3.428-1.507 5.998-4.574 6.77-8.294zm-20.377 71.91c.741.486 1.521.916 2.336 1.283-38.214 18.491-50.328 146.46-53.452 203.076-39.863 2.708-75.867 6.919-106.44 13.246 12.969-105.2 62.277-207.251 157.556-217.605zM469.409 412.25c0 17.433-95.903 35.286-216.902 35.286-93.494 0-195.252-12.03-210.774-35.83 0 0 30.066-34.148 206.958-34.148 196.312 0 220.718 34.692 220.718 34.692zm-46.739-33.79c-34.953-8.335-70.771-12.815-107.329-13.999-2.532-60.463-14.2-183.859-52.012-203.222a16.91 16.91 0 0 0 3.166-1.812C354.08 166.8 417.68 283.817 422.67 378.462z"/></svg>