<svg xmlns="http://www.w3.org/2000/svg" width="512" height="512"><path d="M0 0h512v512H0V0zm72.796 179.496v149.973c-.17 46.93-.797 46.302-35.648 49.307v15.918h114.27v-16.341c-43.837-1.597-38.278-9.69-39.278-48.873l-.104-180.436c-.1-12.035-2.079-12.56 19.472-12.56 44.992-.234 63.607 31.247 61.71 64.974-1.602 28.478-7.259 51.823-57.377 62.555-5.314 1.594-5.516 11.677.759 13.986 55.7-.723 100.395-26.98 99.9-78.749-.75-78.5-65.25-89.75-199.352-77.871v15.87c41.472.691 34.313 9.735 35.648 42.247zM335.378 324.6l-.205-140.519c.72-49.189.515-47.083 36.234-50.294V117.88h-113.44v15.97c32.157 2.167 38.945-3.563 38.067 49.244l.192 145.364c-.312 47.316-.295 47.717-38.26 50.265v15.971h198.632c5.692-10.978 17.419-55.533 18.254-59.928.92-4.848-11.564-9.13-15.086-4.745-22.301 45.463-22.143 44.1-74.9 44.1-42.306-.447-50.023-3.815-49.488-49.52z"/></svg>