<svg xmlns="http://www.w3.org/2000/svg" width="512" height="512"><path d="M348.012 250.498c18.588 22.588 11.882 32.47 12 54.118 0 26.955-3.259 41.908-8.28 50.31l12.28-4.663c.547 15.08.702 22.54-10.353 28.589a286.617 286.617 0 0 1-85.324 17.311c10.253 6.726 14.564 20.901 7.556 32.678-9.495 15.956-32.853 15.633-41.944-.58-6.577-11.73-2.205-25.464 7.784-32.068a286.46 286.46 0 0 1-85.838-17.341c-7.361-2.97-12.247-8.698-10.706-28.589l15.954 5.746c-5.438-8.15-9.013-23.217-9.013-51.51 0-21.53-6.706-31.413 11.882-54.001 17.883-22.118 52.236-43.883 92.001-43.883 39.647 0 74 21.765 92 43.883zm-327.65-51.53c20.706 10.588 47.412 45.295 46.824 38.706-11.294-130 119.648-148.118 119.648-148.118s-19.22-28.06-103.177-12.706c-84.763 15.5-103.65 92.994-63.295 122.118zm470.945 0c-20.706 10.588-47.412 45.295-46.824 38.706 11.294-130-119.648-148.118-119.648-148.118S344.482 59.32 428.012 76.85C530.39 100.053 522.474 185 491.307 198.968zm-266.238 37.53c-3.744 8.283 8.602 21.596 28.589 22.532v67.049c-7.114 1.099-15.927 5.023-24.47 7.596-9.295 3.177-18.236 4.47-14.707 5.059 12.118.47 25.53-4.118 42.118-3.882 16.47-.236 29.883 4.352 42.118 3.882 3.53-.47-5.412-1.765-14.706-5.059-8.917-2.686-18.219-6.832-25.412-7.713V259c19.708-1.121 31.833-14.285 28.118-22.502-8.784-16.55-56.04-15.569-61.648 0zm-81.53-40.706c0-6.497-7.08-10.58-12.715-7.331-5.634 3.248-5.634 11.413 0 14.661 5.634 3.249 12.716-.834 12.716-7.33zm-33.272 43.112c-21.833-12.587-21.833-44.226 0-56.813 21.833-12.587 49.273 3.233 49.273 28.407s-27.44 40.993-49.273 28.406zm291.98-43.112c0-6.497-7.08-10.58-12.715-7.331-5.635 3.248-5.635 11.413 0 14.661 5.634 3.249 12.715-.834 12.715-7.33zm-33.272 43.112c-21.833-12.587-21.833-44.226 0-56.813 21.833-12.587 49.272 3.233 49.272 28.407s-27.44 40.993-49.272 28.406z"/></svg>