<svg version="1.1" xmlns="http://www.w3.org/2000/svg" width="512px" height="512px"><path d="M426.0101013,122.5177765c26.7707825,13.1977234,87.9188538,79.9567871,85.9431458,84.3625946c-2.0053711,4.3959503-31.1865234,28.7761383-39.9783936,38.3681793c-19.0941772,43.8211517-36.3135986,75.1986237-42.4973755,40.2549896c-7.0298462,42.0255127-22.0791626,38.3467712-27.9562378,58.8759766c-8.5766296,42.2392273-33.2511292,43.6812134-44.4533386,51.5658875c-10.2736511,10.2736511-24.9926453,4.3465576-36.3529663,10.1748657c-28.8551025,10.766571-97.0196838,12.6688232-124.2718201,0.3951416c-14.5780334-6.2840576-21.8765717,3.4932251-63.0249786-24.6963196c-21.9219894-21.7985535-15.7251205-31.713562-23.3133163-46.3598938c-12.5281982-21.60495-16.9644775-7.5050659-26.6226578-55.7741089c-2.925415,38.9703674-23.9554863,18.1190186-43.3370819-34.6637268c0,0-38.1212196-33.7944336-40.0969238-38.1409912c-2.0053403-4.4058075,59.1427155-71.1648712,85.9431534-84.3625946C161.972641,88.0678864,342.2584534,88.9784164,426.0101013,122.5177765z M296.1593933,238.6003113C337.2086182,252.5040588,376,296.6666565,369.5938721,337.1879578c0,21.0412598-1.8769226,35.2663269-4.93927,44.8485107c35.0485229-22.9987793,19.6923218-30.3924866,33.6363525-52.504364c13.1598206-22.457489,15.8022766-14.2365723,22.6020508-44.6311646c-4.0699463-30.4258423-8.0015869-84.3428192-12.8618469-100.444809c-4.2477417-13.8299408-24.795105-42.5764313-38.0520935-60.1700897c-64.6457214-24.9527054-192.6457367-16.9527054-225.4871063-0.9878845c-13.2372131,17.4849854-34.6736221,47.2193298-39.0201721,61.444397c-4.5935135,15.2524414-8.7668381,67.6916199-12.6194611,98.7102051c3.1755066,29.5047913,25.4312668,42.5512695,28.7510834,58.1706238c3.5529327,25.1438293,15.0324402,33.6990967,30.9592743,42.289978c-3.5562592-9.7797241-5.6307526-24.5975037-5.6307526-47.3181152c-6.6401215-46.8892212,38.9199066-86.7896118,75.820755-98.2912903C232.9546204,211.2216187,288.1470947,213.7232513,296.1593933,238.6003113z M303.3089294,351.6056824c0-28.6477051-23.480011-52.4598999-41.0637817-53.8922729l1.0360107-42.131897c33.969635-2.1593018,30.0265198-27.0314331-4.2773743-28.7761536c-26.3598785,0.2281036-44.8623199,24.4936218-4.4169464,28.7267303l-0.0308685,42.0331268c-17.5837708,0-40.7365723,24.2835693-40.7365723,53.4647217c2.7403412-29.2825012,25.5482635-44.4291992,46.3904419-43.7988892C280.512085,307.8450623,298.8362732,323.4831543,303.3089294,351.6056824z M166.2350922,210.4169617c0-7.0460205-7.6801147-11.4736786-13.7910309-7.9506683c-6.1109009,3.5230103-6.1109009,12.3783417,0,15.9013519C158.5549774,221.8906555,166.2350922,217.4629822,166.2350922,210.4169617z M130.2373352,256.4598694c-23.3922424-13.4858704-23.3922501-47.3836365-0.0000153-60.8695221c23.3922424-13.4859009,52.7913055,3.4629822,52.7913055,30.4347687S153.6295624,269.9457703,130.2373352,256.4598694z M350.4494629,256.4597473c-23.3922424-13.4858551-23.3922729-47.3836212-0.0000305-60.8695068c23.3922424-13.4859009,52.7913208,3.4629822,52.7913208,30.4347687S373.8416748,269.9456482,350.4494629,256.4597473z M368.0730896,210.4169922c0-7.0460205-7.6801147-11.4736786-13.7910156-7.9506683s-6.1109009,12.3783417,0,15.9013519S368.0730896,217.4630127,368.0730896,210.4169922z"/></svg>