<svg version="1.1" xmlns="http://www.w3.org/2000/svg" width="293px" height="512px"><path d="M273.6832275,257.6192932C240.4484406,157.8477173,173.0552063,99.4250793,130.3793182,0C87.7081604,100.4350739,34.636837,202.3334961,17.9155216,249.5289001c-44.9245605,126.8045349-4.8945665,250.9099426,114.8423843,262.4401245C261.8609009,514.0366821,327.7614441,412.4643555,273.6832275,257.6192932z M141.2086487,53.8357315c31.4013672,69.057312,63.1271515,144.7242432,62.3677521,179.6591492c33.7094727,7.6613312,42.9876099,31.736969,53.6287689,46.7337036c-20.1671753-61.9953918-63.6386414-135.6474304-109.8226776-219.5259705c10.0311432,16.8363342,21.0968475,33.4360886,32.5218201,50.5537643c27.6876984,41.4815826,59.0702515,88.4983215,82.3731232,150.6395111c20.4716492,54.5914612,28.9291382,130.7675476-5.5541992,182.9790955c-14.9191132,22.5892029-31.236496,32.7875671-71.0100861,46.0454102C66.6717072,447.3113098,109.5011292,224.9812775,141.2086487,53.8357315z M22.9926796,294.4320068c11.3315086-58.9238434,52.4742546-134.4568939,96.0912018-226.1769257c-7.7054367,68.8955841-42.6782913,110.5470734-38.9803925,151.3889923C60.144928,231.9656525,39.9709282,262.5030823,22.9926796,294.4320068z"/></svg>