<svg xmlns="http://www.w3.org/2000/svg" width="454" height="512"><path d="m454 305.83-91.12 33.691v106.481L181.946 512V298.297l179.884-66.863V58.824L454 92.497v213.332zm-177.16 57.555c-15.718 5.724-28.458 23.924-28.453 40.648.007 16.717 12.753 25.633 28.464 19.92 15.718-5.725 28.46-23.922 28.455-40.647-.003-16.725-12.75-25.642-28.467-19.921zM334.615 212.5l-180.392 66.878.296 135.76-64.21 22.992L0 405.26V191.926l90.704-33.692V51.755L232.972 0l101.644 32.464V212.5zM215.214 94.833c-15.717 5.722-28.462 23.925-28.458 40.65.002 16.725 12.75 25.646 28.468 19.925 15.718-5.722 28.462-23.925 28.46-40.65-.003-16.725-12.752-25.646-28.47-19.925z"/></svg>