<svg version="1.1" xmlns="http://www.w3.org/2000/svg" width="512px" height="500px"><path fill-rule="evenodd" d="m275.96476 340.57478v8.81666c-8.42581 4.13308-16.42176 7.24663-25.69916 7.89764v-11.16338c-0.64492-6.05997-8.33137-4.50759-8.40228 0v11.06903c-7.17368-0.59262-15.41477-2.44051-25.06326-6.08017v-9.74797c-0.66628-5.95249-8.20662-3.8084-8.40229 0v6.25659c-2.87885-1.29122-5.82944-2.67963-8.94794-4.28319-5.04545-2.76672-9.02651 4.9785-3.8401 7.47098 4.46678 2.29684 8.71689 4.27008 12.78804 5.98169v9.79309c-0.0802 5.68131 8.48264 5.68131 8.40229 0v-6.57248c9.35143 3.26319 17.65103 5.00854 25.06326 5.56733v5.28836c-0.0805 5.68131 8.48263 5.68131 8.40228 0v-5.02988c9.03304-0.32723 17.56903-3.31582 25.69916-7.07302v6.54787c-0.0804 5.68129 8.48263 5.68129 8.40228 0v-10.69158c3.91669-2.04258 7.74317-4.117 11.467-6.00631 4.7249-2.2144-0.75222-8.96644-3.74164-7.52021-2.71634 1.37547-5.20557 2.6907-7.72536 4.0083v-4.52935c-0.66628-5.95252-8.20661-3.8084-8.40228 0zm-101.13694-74.94992c-16.99679-10.16431-16.9968-35.71303-1e-5 -45.87733 16.9968-10.1643 38.35814 2.61006 38.35814 22.93865 0 20.32861-21.36134 33.10298-38.35813 22.93868zm-2.54167-140.88565 57.48699 81.40086c2.99378 76.83783 33.62661 92.86972 83.93283 65.62019 5.39359-0.8732 11.68484 0.93217 15.72622 6.82007 6.89396-12.21276 12.85257-18.16388 17.21672-25.3647-9.86897-26.0345-27.187-90.94355-105.17031-66.40698l-49.85674-72.23165c-7.5341 1.57265-13.82827 5.21181-19.33571 10.16221zm162.13684 204.67883s77.32237 93.55051 103.09648 87.82293c25.77413-5.72758 37.99151-17.18275 45.62829-3.8184 7.63679 13.36436 29.55673 20.12944-47.53748 33.82598 0 0-1.9747 9.48361-5.49681 22.9501-4.41498 16.88035-34.36131 8.62358-35.53361 0.35319-2.88812-20.37514-6.43733-29.51602-8.95171-39.32212-5.3954-21.04207-54.4936-77.96361-54.4936-77.96361zm-203.06714-201.32063c-18.56344-10.84654-28.44235-37.659733-57.896599-34.290493-22.284456 2.5491-29.880813 10.118293-45.639388 6.278493-7.432076-1.810923-6.999218-12.368783-7.510054-18.164283-2.885127-32.73218 64.899409-13.57658 64.899409-13.57658s-17.681943-41.57376-3.297243-45.79176c27.471515-8.05542 30.015795 35.08288 36.457545 42.72806l33.2089 48.775193c-5.35236 4.47433-11.39113 10.00192-20.22257 14.04137zm19.089 196.94331s-53.012093 88.18297-71.854799 90.43657c-83.856002 10.02926-16.973543 38.28866-4.880622 37.10597 0 0-3.546179 28.02002 14.277299 24.48865 3.61437-0.71611 13.517292-0.69342 12.393152-5.36942-2.420264-10.06728 1.34833-22.14829 1.34833-22.14829 9.44193-36.16059 31.96925-66.71317 55.28031-96.92986-3.26404-8.21281-5.37236-17.03897-6.56367-27.58362zm-31.93787-178.02754c0.32184-6.25787-17.24615-19.5161-32.721823-31.9556-30.377455-2.75431-75.320303 22.69521-85.178589-23.021103-3.4666897-30.11002 7.0080188-51.43505 55.397101-48.86883-1.928681-24.15587 6.011128-41.57976 39.817016-41.33409 14.510135 0.10544 36.009625 22.86542 39.703385 57.05691l35.3919 45.330213s110.28392-41.498563 181.26449 28.38384c28.26461 27.82731 39.39963 85.36244 28.10663 115.47708-12.78781 25.84309-37.27333 29.92313-42.32228 58.13762l78.54822 81.53396c25.30665 26.25837 50.4267-17.84019 76.70913 8.0376 15.17828 16.63915 33.82293 35.67456-1.11343 56.37705-9.00937 5.33875-21.58198 8.28907-38.69615 14.28496-15.52853 37.44112-43.71366 40.93054-71.43606 23.29799-10.2179-6.49897-6.85501-43.22012-17.3733-58.51944l-42.56225-56.34059c-18.07045 55.83939-113.92482 71.16062-156.93944-0.61114-26.41752 29.82422-36.08748 54.77991-46.08939 78.23982 3.96657 28.00546-1.86886 37.46298-24.321516 43.01712-10.624818 2.62828-31.325277 4.52631-41.36429-26.09806-32.137118-15.46236-38.424722-29.84234-33.341426-46.08709 3.279781-10.48121 2.27268-17.76755 53.705986-27.18214 35.244556-37.90871 50.248096-68.26118 72.419786-98.90719-9.07575-18.22449-39.01017-22.073-45.67092-47.26242-10.883959-41.16051 8.10587-87.81921 18.06722-102.98648z"/></svg>