<svg version="1.1" xmlns="http://www.w3.org/2000/svg" width="382px" height="512px"><path d="M368.7327881,82.0465164c0,0-79.5389099-44.2729454-167.1467133-23.2052422C133.2315063,75.2790146,60.4281273,138.6916504,60.4281273,259.690979c0,114.2860107,63.42239,177.2789001,126.9524231,193.6257935c95.2806091,24.5166626,181.3522339-26.7643127,181.3522339-26.7643127v55.1502075c-39.8413696,25.0267029-141.9503174,45.7995911-226.6577911,14.5324707C72.5980682,470.5898743,0,401.1563416,0,259.690979c0-88.0269623,33.1065598-149.3011475,73.7124634-189.7254028c87.0088959-86.6196899,231.7667236-80.2844009,295.0203247-47.8028183V82.0465164z M185.9962006,327.8031616l31.1015015,23.5466614h35.2891083l-46.1452637-33.4015503c0,0,24.3165894-18.3136902,29.4293671-49.4349976c8.5436859-52.0050201-13.3148193-111.9944916-82.4650879-106.6102753c-60.8272781,4.7361755-90.0222626,77.6287842-58.5752792,135.4451752C116.1986923,337.0020142,168.908844,334.8609619,185.9962006,327.8031616z M131.2894287,306.7741089c-35.2891083-14.4871216-50.1476822-120.3544617,24.1451874-127.2962036c82.0936279-2.3448639,63.8918762,98.6934509,49.0332947,113.552002C197.03862,306.0311584,171.0361176,325.3473206,131.2894287,306.7741089z M347.338623,232.9690247l-6.9234924,33.2689514h30.7432556l-2.6192322,13.9763794h-31.0326233l-9.0832825,43.6470947h-14.2755432l9.0832825-43.6470947H293.58078l-9.0832825,43.6470947h-14.2755432l9.0832825-43.6470947h-30.052597l2.6192322-13.9763794h30.3419647l6.9234619-33.2689514h-31.0306702l2.6192932-13.9763794h31.3199768l9.3876343-45.1099091h14.2755737l-9.3876343,45.1099091h29.650177l9.3876343-45.1099091h14.2755737l-9.3876343,45.1099091L380,218.9925995l-2.606842,13.9764252H347.338623z M333.0630493,232.9690247h-29.650177l-6.9234924,33.2689514h29.6502075L333.0630493,232.9690247z"/></svg>