<svg xmlns="http://www.w3.org/2000/svg" width="512" height="512"><path d="M127.711 477.547c-170.281-98.17-170.281-344.925 0-443.094S512 59.662 512 256 297.993 575.716 127.711 477.547zm211.575-153.49a780.83 780.83 0 0 1-22.03 1.876l46.417 69.863c13.969-6.163 29.935.833 34.433 16.127 114.69-29.73 77.668-69.916-58.82-87.866zM175.906 90.392a24.912 24.912 0 0 1-6.114 13.588l53.517 80.55c38.537-1.37 77.495-.39 115.878 3.424 270.075-39.435 57.001-123.186-163.28-97.562zm.338 223.52c37.095-4.134 76.35-5.494 117.958-3.82l-71.917-108.245c-15.95-.76-31.445-2.016-46.245-3.739-188.473 22.155-229.922 86.51.204 115.803zm162.997-115.474c-33.071 3.869-67.902 4.963-104.096 3.907l72.06 108.46a672.1 672.1 0 0 1 31.788 2.777c201.71-24.413 209.525-89.157.248-115.144zm162.09 47.161c-1.495-35.888-10.727-69.806-26.079-100.129-6.822 22.366-46.52 37.66-97.862 47.396 56.715 9.841 110.262 24.688 123.941 52.733zm-325.245-57.984a800.587 800.587 0 0 1 34.64-2.529l-49.371-74.875c-13.582 5.79-26.86-.23-32.857-11.986-122.863 28.526-89.793 71.642 47.588 89.39zm-38.25 4.698c-53.5-10.58-98.96-28.082-95.828-56.721-18.468 32.71-29.648 70.054-31.332 109.825 13.877-27.162 64.733-43.116 127.16-53.104zm.133 127.399c-63.9-9.65-115.879-27.341-127.293-53.242 1.686 39.757 12.86 77.098 31.318 109.815-3.429-29.534 45.315-46.464 95.975-56.573zM349.056 420.85c-.455-6.669 1.292-13.136 6.212-18.848L305.236 326.7c-42.117 2.643-85.29 1.421-129.148-2.308-246.918 34.267-86.732 123.29 172.968 96.459zm126.183-54.396c15.322-30.27 24.552-64.114 26.082-99.916-10.508 24.898-62.471 42.797-123.94 52.65 48.314 8.86 90.751 24.371 97.858 47.266zM309.287 30.264c-12.33-14.83-92.07-15.934-106.574 0 11.387 15.278 96.084 15.139 106.574 0zm143.248 78.66c-35.745-47.629-88.387-81.882-148.938-93.832 32.55 12.396 15.828 37.086-47.662 37.086-60.58.18-81.378-23.81-47.498-37.117C144.322 27.673 89.1 65.307 53.388 117.346c15.644-13.107 41.096-22.173 72.658-29.257-.76-28.245 39.147-36.477 48.94-8.098 110.695-12.123 218.67-1.371 277.55 28.932zM202.713 481.736c8.317 14.243 92.146 16.452 106.574 0-4.769-12.707-89.167-17.636-106.574 0zm53.222-21.915c58.26-.384 82.29 22.498 48.066 37.004 60.27-12.014 112.672-46.156 148.334-93.572-15.427 8.277-33.314 14.682-53.633 19.238-3.426 22.606-33.76 29.776-46.52 8.404-122.838 14.752-253.282.442-298.727-36.234 35.707 52.01 90.887 89.64 154.949 102.266-34.427-13.256-12.33-38.083 47.53-37.106z"/></svg>