<svg version="1.1" xmlns="http://www.w3.org/2000/svg" width="512px" height="512px"><path d="M127.711113,477.5468445c-170.2814331-98.1691284-170.2814941-344.92453-0.000061-443.093689S512,59.6616783,512,256S297.9925537,575.7160034,127.711113,477.5468445z M339.286377,324.0565186c-7.2199097,0.7207031-14.5706787,1.3459473-22.0299988,1.8761902l46.4170227,69.8633118c13.9685364-6.1626282,29.9348755,0.8331909,34.4324951,16.1270752C512.796936,382.1925354,475.7737427,342.0065918,339.286377,324.0565186z M175.9065247,90.3921967c-0.618866,5.1861496-2.8244324,9.8734894-6.1148834,13.588295l53.5169525,80.5495224c38.5376282-1.3701172,77.4951172-0.3894806,115.8780212,3.4244385C609.2618408,148.5186005,396.1884766,64.7682495,175.9065247,90.3921967z M176.2443542,313.9110718c37.0950775-4.1334839,76.3495636-5.4930115,117.9580994-3.8194275L222.28479,201.846817c-15.9496002-0.7598724-31.4446564-2.0162506-46.2448273-3.7384644C-12.4325752,220.2633057-53.8815269,284.6182556,176.2443542,313.9110718z M339.241333,198.4378204c-33.0716858,3.8690948-67.9025879,4.9631805-104.0965881,3.9070892l72.0603638,108.4594727c10.8727722,0.6953735,21.4930725,1.6260376,31.7876587,2.777771C540.7038574,289.1694641,548.5177612,224.425415,339.241333,198.4378204z M501.3310547,245.5990448c-1.4949036-35.8885345-10.7270813-69.8060455-26.0789185-100.1290588c-6.8220825,22.3664703-46.5194092,37.6604767-97.8617554,47.3955383C434.1045837,202.7072296,487.6521606,217.5538025,501.3310547,245.5990448z M176.0861511,187.6146545c11.2695007-1.0738068,22.840683-1.919754,34.6391602-2.528595l-49.3707733-74.8745956c-13.581955,5.7888794-26.8599091-0.2299728-32.856842-11.9869385C5.6351624,126.7511978,38.7048645,169.8673859,176.0861511,187.6146545z M137.8358307,192.312973c-53.5004654-10.5790863-98.9595261-28.0817566-95.827713-56.721405C23.53965,168.3018341,12.3595543,205.6461029,10.6756372,245.4172821C24.5529385,218.2550812,75.409317,202.3009949,137.8358307,192.312973z M137.9687042,319.7120361c-63.9003067-9.6508789-115.8787384-27.3412476-127.2924271-53.2418823c1.6860666,39.7563477,12.8603506,77.0982361,31.3177567,109.8147278C38.5653267,346.7507629,87.3094177,329.8205566,137.9687042,319.7120361z M349.0562134,420.849762c-0.4547729-6.6682739,1.2922058-13.1361389,6.2117004-18.84729l-50.0316772-75.3037415c-42.1174316,2.6435852-85.2906952,1.4212646-129.1486511-2.3080444C-70.8298035,358.6577148,89.3559265,447.6807861,349.0562134,420.849762z M475.2386169,366.4537354c15.322052-30.2692566,24.5523071-64.1137695,26.0822449-99.9161682c-10.5081177,24.8981323-62.4708252,42.7970276-123.9390869,52.6504822C425.6946716,328.0485535,468.1324463,343.5592957,475.2386169,366.4537354z M309.2871704,30.2634563c-12.3303833-14.8288822-92.0710907-15.9333239-106.5742798,0C214.0998535,45.542057,298.7973633,45.402523,309.2871704,30.2634563z M452.5351257,108.9234085C416.789978,61.2951431,364.148407,27.0423565,303.5973816,15.0915604c32.5503235,12.3963528,15.8271484,37.0867844-47.6625824,37.0867844c-60.5796509,0.1801758-81.377594-23.8108101-47.4976959-37.1174393C144.3219757,27.6734085,89.1000824,65.3066101,53.3879776,117.3460999c15.6439133-13.1066895,41.0959854-22.173233,72.6576462-29.2574081c-0.7595367-28.2443352,39.1473541-36.4768791,48.9405212-8.0976868C285.6811218,67.8675919,393.6558838,78.6197739,452.5351257,108.9234085z M202.7128906,481.7365417c8.3175964,14.2437744,92.145874,16.4526672,106.5742798,0C304.51828,469.0295715,220.1204376,464.1011658,202.7128906,481.7365417z M255.9347992,459.8216553c58.2597809-0.3835144,82.2893524,22.4978943,48.06633,37.0039673c60.2702026-12.013916,112.6719666-46.1558838,148.3338928-93.5714722c-15.4267578,8.2764893-33.3141785,14.6818542-53.6335144,19.2380371c-3.425354,22.6056824-33.759613,29.7755737-46.519104,8.4037476c-122.8388367,14.7520142-253.2819366,0.441803-298.7278748-36.2344055c35.7078857,52.0114136,90.8879013,89.6410217,154.9493713,102.2660217C173.9768829,483.671936,196.0735779,458.8451538,255.9347992,459.8216553z"/></svg>