<svg xmlns="http://www.w3.org/2000/svg" width="512" height="512"><path d="M150.923 271.668c-23.059-63.814 31.889-128.906 98.668-116.885 66.779 12.022 95.759 92.223 52.038 144.016-43.72 51.792-127.647 36.683-150.706-27.13zM226.526 7.985C73.085 12.178-41.146 168.01 14.156 321.055c54.331 150.36 236.286 198.404 357.214 110.43l85.68 72.594L512 437.386l-81.122-68.789C547.777 181.252 394.531 4.06 226.526 7.985zm2.83 88.612c9.853-.27 19.977.468 30.262 2.32 109.71 19.75 157.326 151.52 85.498 236.609-71.828 85.089-209.716 60.27-247.6-44.57-34.33-95.011 36.583-191.757 131.84-194.36z"/></svg>