<svg version="1.1" xmlns="http://www.w3.org/2000/svg" width="512px" height="512px"><path fill-rule="evenodd" clip-rule="evenodd" d="M70.3722916,68.1558456H512v304.5291748l-71.3586426,71.1591187H0V138.4062347L70.3722916,68.1558456z M135.6135101,147.2055359c16.7674408-11.0933228,37.5023346-13.8971405,57.2176514-13.7198181c18.7733459,0.2327271,38.4775848,3.5241547,54.0370636,14.728302c11.303894,7.9459839,18.6514282,20.214035,23.5497742,32.9032135c7.9238281,20.8346252,10.2510986,43.331604,10.5170593,65.4739227c0.0332642,22.2975159-0.9752502,45.0826111-8.3560181,66.327301c-4.942688,14.4512329-14.3515015,27.2844849-26.7636261,36.1946106c8.9322815,14.4734192,18.0418854,28.8360291,26.9741974,43.3094482c-11.2263184,5.1753845-22.4194031,10.3840637-33.6567993,15.5372925c-9.5639954-15.7810974-19.0836334-31.5954895-28.6808777-47.3544312c-12.9772949,2.1277771-26.25383,1.9615479-39.2976532,0.5208435c-15.6259766-1.8728638-31.5511627-6.6382751-43.6086578-17.155304c-9.2647552-8.0235596-15.0829391-19.2498779-19.06147-30.6645813c-6.5163574-19.3052979-8.2673569-39.8517761-8.5665741-60.1101379c-0.155159-21.8985291,1.2412033-44.1406097,7.8462296-65.1525574C112.8727264,172.2403412,121.3284912,156.4703064,135.6135101,147.2055359z M325.9400635,298.7442627v-75.359314h-24.5582275v-30.2656403h24.5582275v-46.6230316h34.5101624v46.6230316h45.8251038l-0.8200989,30.2656403h-45.0050049v76.4010315c-0.3455505,33.8500366,12.9257812,28.0884705,44.184906,26.4311523l1.6401978,27.8053894C355.8506165,361.4819336,324.3355408,364.7442627,325.9400635,298.7442627z M139.7582703,285.4455566c-4.4107361-26.7747192-5.4746399-54.4803619,0.5541077-81.0999298c5.2416382-56.6619415,106.4199219-59.8824768,101.3139343,24.5582733c1.263382,18.8619995,1.0860596,37.9013062-1.5182495,56.6524658C240.0406952,346.5630493,139.690918,346.45224,139.7582703,285.4455566z"/></svg>