<svg version="1.1" xmlns="http://www.w3.org/2000/svg" width="512px" height="512px"><path d="M471.9603577,224.4398804c-16.845459,17.2665405-79.2438049,64.0898438-79.2438049,64.0898438c22.631897-23.6526184,38.2575684-54.6876678,49.087738-88.6003571c7.5142517,3.1654205,17.5666809,3.3724365,28.23703,2.858551c-9.6349487-2.7030182-17.8687744-7.7357483-24.4376831-15.5389709c0.0138855-0.0496521,0.028656-0.0988464,0.0425415-0.1484985c19.0509644,2.8415833,36.5309143-1.7386169,48.9891663-12.8348541c-15.0296631,5.4652863-35.2348022,5.3787537-44.7478027-2.2203674c-0.8541565-4.0990753,21.3491211-3.7575226,36.5498962-18.9583282c-13.4533081,6.2413177-25.4525452,8.668045-33.7776794,4.9575348c0.224823-1.0879211,0.4447021-2.1773834,0.6622009-3.2672119c21.7441406-13.5535431,41.2424622-45.4469528,44.5704346-81.1800308c12.6378784-1.822403,3.3025208-35.9128876-20.2461243-24.3823586c-14.9100037,7.3006516-2.1913452,26.7661095,8.1565247,26.2509499c0,0,3.1972046,37.3013-42.4845886,66.4073105c-10.672821-9.5075989-26.967926-18.6995621-46.2698059-26.801239c7.8544006-6.1907501,19.2748718-7.0832367,36.3696289,0.4551849c-15.3280334-12.194191-29.2520752-9.6593857-42.7893982-3.065567c-0.8168945-0.3220215-1.6365662-0.6428528-2.4624329-0.9608536c3.8218079-15.4017944,13.7019958-24.474823,33.8276367-20.9799881c-12.0852051-4.6637115-30.0354919,0.0020065-48.6448975,15.6485062c-0.7022705-0.2359467-1.4078064-0.4697037-2.1142883-0.7026367c3.7270508-7.4152908,20.1099548-22.261673,12.9323425-39.444603c2.3233032,20.0530853-10.4336853,26.325882-31.5691833,33.7940216c-0.626709-0.174057-1.2547607-0.345932-1.8833008-0.5173416c7.0941162-17.7066727,2.8511658-31.7318497-18.7180786-40.1309967c20.5605774,12.0576401,16.5692749,22.7748184,1.0144348,33.045845c1.4186707-7.9160309-6.2728882-14.6331635-22.6558838-20.2064285c11.8976135,7.1805344,15.0231628,13.9611893,11.1907959,20.4243927c-10.2441101-2.0321579-20.4771423-3.6627884-30.4586487-4.8143158c-31.085083-22.2090073-66.3613129-41.9930534-65.1557159-60.9383163c10.8249817-1.5745888,23.3625031-23.127924-3.0932617-22.121439c-32.5412903,1.2380018-8.9628143,21.0880604-8.9628143,21.0880604c4.4461975,22.4911366,24.2843933,51.4966736,42.9041443,63.0837936c-3.713974,6.7554626-7.148941,13.3942795-10.3221283,19.9351578c-6.8623505-1.1755371-21.8470917-12.7230453-36.3555756-26.4359665c16.1629333,19.084198,27.6251831,34.9515839,27.8957367,43.1612396c-18.6274567-6.6569748-35.4902039-11.6948242-54.5045776-32.7882614c8.5843506,18.0161819,29.3456421,37.0257187,44.1761322,48.1485214c-9.2690887,2.913147-17.6792908,1.2202606-35.1561279-5.7546234c19.2422028,19.4071198,26.6505585,22.9832001,35.6499329,19.657486c-7.4339142,24.5691986-10.4595947,47.9646912-8.9835815,70.9425201C154.1623688,105.5337677,96.1917114,36.9041748,46.3355217,27.5037346c-31.7365913,4.4431877-74.2637482,180.2641602,8.2515564,238.0247955c-7.7542877,25.3728638-7.1960487,45.3866272,5.7125549,55.2218018c13.3294716,10.1557312,72.0374451,4.2738647,75.7553558-8.8820801c6.4887543,1.616394,11.5671387,3.4705505,14.2999115,5.7200317C32.5829849,429.2896729,52.0481644,510.5354309,0,502.9187012c82.9384537,10.5788574,212.8471527,5.9241333,284.1626282-48.5111694c19.0282288,3.2335205,30.6650085-3.5370178,41.6671448-14.7506409c22.4271545,15.8684082,71.9362183,19.2536926,87.1697998-0.6347046c3.1738281-1.9042053,5.9147339-32.8447876,5.9243164-50.1438904C461.133667,366.4511414,504.6128235,271.2411804,512,192.9248047C501.408783,177.4256287,482.2930908,213.8488464,471.9603577,224.4398804z"/></svg>