<svg xmlns="http://www.w3.org/2000/svg" width="512" height="512"><path d="M471.96 224.44c-16.845 17.266-79.243 64.09-79.243 64.09 22.631-23.653 38.257-54.688 49.087-88.6 7.515 3.165 17.567 3.372 28.237 2.858-9.635-2.703-17.868-7.736-24.437-15.54l.042-.148c19.051 2.842 36.531-1.738 48.99-12.834-15.03 5.465-35.235 5.378-44.748-2.22-.855-4.1 21.349-3.758 36.55-18.96-13.454 6.242-25.453 8.669-33.778 4.958.225-1.087.444-2.177.662-3.267 21.744-13.553 41.242-45.447 44.57-81.18 12.638-1.822 3.303-35.913-20.246-24.382-14.91 7.3-2.191 26.766 8.157 26.25 0 0 3.197 37.302-42.485 66.408-10.673-9.508-26.968-18.7-46.27-26.801 7.855-6.19 19.275-7.083 36.37.455-15.328-12.194-29.252-9.66-42.79-3.066a316.28 316.28 0 0 0-2.462-.96c3.822-15.402 13.702-24.475 33.828-20.98-12.085-4.664-30.036.002-48.645 15.648-.702-.236-1.408-.47-2.114-.703 3.727-7.415 20.11-22.261 12.932-39.444 2.323 20.053-10.434 26.326-31.57 33.794-.626-.174-1.254-.346-1.882-.517 7.094-17.707 2.85-31.732-18.719-40.131 20.561 12.057 16.57 22.774 1.015 33.045 1.419-7.916-6.273-14.633-22.656-20.206 11.898 7.18 15.023 13.961 11.19 20.424-10.243-2.032-20.476-3.662-30.458-4.814-31.085-22.209-66.361-41.993-65.156-60.938 10.825-1.575 23.363-23.128-3.093-22.122-32.541 1.238-8.963 21.088-8.963 21.088 4.447 22.492 24.285 51.497 42.904 63.084a440.233 440.233 0 0 0-10.322 19.935c-6.862-1.175-21.847-12.723-36.355-26.436 16.163 19.085 27.625 34.952 27.896 43.162-18.628-6.657-35.49-11.695-54.505-32.789 8.584 18.017 29.346 37.026 44.176 48.149-9.269 2.913-17.68 1.22-35.156-5.755 19.242 19.407 26.65 22.983 35.65 19.658-7.434 24.569-10.46 47.964-8.984 70.942C154.162 105.534 96.192 36.905 46.336 27.504c-31.737 4.443-74.264 180.264 8.251 238.025-7.754 25.372-7.196 45.386 5.713 55.221 13.33 10.156 72.037 4.274 75.755-8.882 6.489 1.617 11.567 3.47 14.3 5.72C32.583 429.29 52.048 510.535 0 502.918c82.938 10.58 212.847 5.925 284.163-48.51 19.028 3.233 30.665-3.537 41.667-14.751 22.427 15.868 71.936 19.254 87.17-.635 3.173-1.904 5.914-32.845 5.924-50.144 42.21-22.427 85.689-117.637 93.076-195.953-10.591-15.5-29.707 20.924-40.04 31.515z"/></svg>