<svg xmlns="http://www.w3.org/2000/svg" width="512" height="512"><path d="M338.23 83.722C338.23 8.173 0 8.173 0 83.722v56.371c3.966 38.402 97.904 59.156 191.663 55.807v-35.911H338.23V83.722zM6.166 182.372c31.565 32.912 108.476 44.095 185.497 41.399v84.872C106.571 313.133 2.18 291.855 0 252.837v-56.372c.244-5.03 2.728-9.648 6.166-14.093zM0 365.58v-56.372c.294-4.99 2.349-9.689 6.166-14.092 30.024 35.291 120.146 44.303 185.497 41.399v84.872C119.191 424.787 5.336 410.122 0 365.58zm370.28-64.778h-67.39v-60.303h67.39s22.463 10.001 22.463 30.614c0 20.614-22.463 29.689-22.463 29.689zm-7.781 90.37C378.466 422.245 409.475 485 409.475 485H512l-71.057-119.452c-7.717-12.051-43.213-20.301-43.213-20.301s83.817-4.06 82.802-88.314c-.759-62.964-63.198-80.193-94.535-80.193h-173.45V485h90.343V360.473h33.498c5.895 0 15.635 13.053 26.11 30.699zM112.616 107.704c-74.992-10.724-74.992-37.68 0-48.404s169.242 2.754 169.242 24.202-94.25 34.926-169.242 24.202z"/></svg>