<svg xmlns="http://www.w3.org/2000/svg" width="512" height="512"><path d="M454.836 55.392C423.376-3.975 326.805 26.25 255.94 68.795 186.506 27.66 87.605-5.542 57.077 55.392c-42.99 23.707-49.643 80.738 9.549 179.597 44.156 73.999 96.229 121 154.286 167.981-58.447 35.014-128.82 70.2-184.089 49.845-17.318-45.125 7.11-97.878 33.37-144.553 12.234 46.392 42.629 91.463 92.535 119.076 14.882-7.38 29.878-15.727 44.986-25.037-42.876-33.93-99.97-88.7-144.304-156.857-52.808 68.684-95.77 178.436-30.149 210.99 35.386 62.497 137.027 29.039 222.743-28.35 75.85 50.313 185.665 94.757 222.859 28.249 61.076-32.788 28.373-124.32-22.842-200.28a225.567 225.567 0 0 0 1.645-28.358c-38.979 71.225-99.058 132.132-153.67 174.606 13.878 8.478 28.394 16.433 43.357 24.02 32.48-20.689 73.496-60.628 95.215-116.657 32.896 62.508 50.132 106.612 32.57 143.166-51.754 22.228-122.526-13.395-184.026-49.84 67.785-52.673 122.58-114.207 164.354-184.624 24.434-42.125 58.652-132.74-.63-162.974zm-198.88 381.513c6.877 4.437 13.776 8.461 20.56 12.417-13.607 1.722-27.508 1.908-41.73.407 6.993-4.064 14.08-8.249 21.17-12.824zM81.97 182.075C62.752 140.354 44.097 94.883 60.639 59.01c37.442-14.115 83.54-1.887 133.187 21.137-47.016 15.761-85.876 49.358-108.45 92.747 43.88 76.733 103.738 141.689 171.221 195.736 67.227-51.076 123.935-116.046 168.31-192.276-21.966-44.464-60.82-79.085-108.165-95.54 42.997-20.03 92.438-38.575 134.602-21.771 14.81 34.588.599 80.318-22.06 124.312-40.184 74.16-97.591 139.412-173.278 195.208-71.015-53.57-130.262-117.933-174.037-196.488z"/></svg>