<svg xmlns="http://www.w3.org/2000/svg" width="512" height="512"><path d="M234.518 388.333v45.972l-110.635-63.88V242.653l39.794 22.966c-14.135 54.515 12.719 107.317 70.841 122.715zM373.264 194.01V66.24L262.61 2.355v127.77l110.653 63.885zm-123.878-63.885V2.355L138.735 66.24v127.77l110.651-63.885zm151.96 112.527v127.77L512 434.307v-127.77l-110.654-63.885zm-124.097 145.71v45.937l110.872-63.884V242.649l-39.813 23c15.7 55.241-11.772 105.898-71.059 122.712zm-166.598-17.94v-127.77L0 306.537v127.77l110.65-63.885zm216.189-141.96 39.806-22.994-110.652-63.886-110.649 63.883 39.809 22.97c38.444-40.568 100.251-41.979 141.686.026zM6.612 445.76l110.65 63.885 110.654-63.885-110.653-63.886L6.612 445.76zm277.471 0 110.652 63.885 110.652-63.885-110.652-63.886-110.652 63.886zm43.437-151.62c0-54.851-59.788-89.32-107.36-61.894s-47.573 96.363 0 123.789c47.572 27.426 107.36-7.043 107.36-61.894z"/></svg>