<svg version="1.1" xmlns="http://www.w3.org/2000/svg" width="512px" height="512px"><path d="M234.51828,388.3327637l-0.0000153,45.9723206l-110.6353607-63.8794556V242.65242l39.7944641,22.9658966C149.5417023,320.1332397,176.3959961,372.9346008,234.51828,388.3327637z M373.2638245,194.0096283V66.2398682L262.6106567,2.35499v127.7697678L373.2638245,194.0096283z M249.3863678,130.1247559V2.35499L138.7346802,66.2398682v127.7697601L249.3863678,130.1247559z M401.3458557,242.6519318v127.7697601L512,434.3070679V306.5372925L401.3458557,242.6519318z M277.2490234,388.3614197v45.9377441l110.871521-63.8843994V242.6494598l-39.8122559,22.9994965C364.008606,320.8903503,336.5356445,371.5465088,277.2490234,388.3614197z M110.6506882,370.4216919V242.6519318L0,306.5372925v127.7697754L110.6506882,370.4216919z M326.8399353,228.4612122l39.8063049-22.9930725L255.993576,141.5817719l-110.6482239,63.8829041l39.8083038,22.9708405C223.5984497,187.8672028,285.4052734,186.4560852,326.8399353,228.4612122z M6.61166,445.7596436l110.6511841,63.885376l110.6526642-63.885376l-110.6526642-63.885376L6.61166,445.7596436z M284.0830078,445.7596436l110.6521606,63.885376l110.6521912-63.885376l-110.6521912-63.885376L284.0830078,445.7596436z M327.5196228,294.1405029c0-54.8517303-59.7880249-89.3201904-107.3601532-61.8943176s-47.572113,96.362793,0.0000153,123.7886353C267.7315979,383.4606934,327.5196228,348.992218,327.5196228,294.1405029z"/></svg>