<svg xmlns="http://www.w3.org/2000/svg" width="512" height="512"><path d="M290.583 477.715c9.087-6.49 22.07-16.877 29.21-23.368 124.456 49.444 165.06-47.194 161.818-84.077-3.59-40.84-54.299-157.39-226.728-157.393-8.108 19.003-31.817 28.536-51.427 17.177-24.066-13.94-24.066-48.977 0-62.916 18.695-10.83 41.111-2.668 50.188 14.581 104.685-.532 222.046 43.93 254.864 167.65 23.67 89.225-75.634 193.24-217.925 128.346zm64.406-126.193c17.32-2.041 32.333-16.497 32.333-36.085 0-27.879-30.405-45.398-54.598-31.458-21.223 12.228-23.823 40.69-7.81 56.904C267.471 447.981 139.18 489.856 71.48 449.208c-37.49-22.51-76.15-103.092 13.982-177.262-2.597-8.438-6.492-22.719-8.439-33.105-162.047 122.116-45.399 316.424 137.312 240.755 49.398-20.458 102.958-56.213 140.653-128.074zm-197.604 41.46c24.227 13.94 54.675-3.58 54.675-31.458 0-23.266-21.205-39.3-42.303-35.873C35.742 75.325 317.897-73.33 354.196 163.544l32.456 9.737C363.052-17.261 220.585.174 174.945 38.765 140.74 67.688 49.3 169.46 143.772 343.792c-9.103 16.39-4.566 38.73 13.613 49.19z"/></svg>