<svg xmlns="http://www.w3.org/2000/svg" width="512" height="512"><path d="M256.064 461.36s-63.704-64.52-63.666-64.557l195.963-69.268c.014.013-132.297 133.825-132.297 133.825zm31.464-139.05-23.047-65.322c-2.802-8.022-11.587-12.096-19.482-9.295L96.867 300.458l77.624 78.286 103.742-36.953c8.021-2.802 12.096-11.587 9.295-19.482zm151.638-210.22-84.431-35.108 4.969 58.462c1.123 13.758-8.985 25.69-22.602 26.954l-112.028 9.827c-13.758 1.123-25.69-8.985-26.954-22.602l-7.379-86.577-117.78 49.044L0 202.623l77.29 78.092 336.155-117.947c11.715-4.202 24.703 2.037 28.777 13.752l25.267 71.101L512 202.623l-72.834-90.533zM306.774 59.14c0-6.52-7.106-10.616-12.76-7.356s-5.653 11.452 0 14.712c5.654 3.26 12.76-.837 12.76-7.356zm-64.31 11.112c-5.653-3.26-5.653-11.453 0-14.712 5.654-3.26 12.76.837 12.76 7.356s-7.106 10.615-12.76 7.356zm83.367 72.152c-5.654-3.26-5.654-11.452 0-14.712s12.76.837 12.76 7.356-7.106 10.616-12.76 7.356zm-51.55 3.756c-5.654-3.26-5.654-11.452 0-14.712s12.76.837 12.76 7.356c0 6.52-7.106 10.616-12.76 7.356zm-51.5 3.5c-5.654-3.26-5.654-11.452 0-14.712s12.76.837 12.76 7.356c0 6.52-7.106 10.616-12.76 7.356zm98.47-59.164c-5.654-3.26-5.654-11.453 0-14.712 5.654-3.26 12.76.837 12.76 7.356s-7.106 10.615-12.76 7.356zm-51.55 3.756c-5.654-3.26-5.654-11.453 0-14.712 5.654-3.26 12.76.837 12.76 7.356s-7.106 10.615-12.76 7.356zm-51.5 3.5c-5.654-3.26-5.654-11.453 0-14.712 5.654-3.26 12.76.837 12.76 7.356s-7.106 10.615-12.76 7.356zm79.813 20.244c-5.653-3.26-5.653-11.453 0-14.712s12.76.837 12.76 7.356-7.106 10.615-12.76 7.356zm-51.55 3.756c-5.653-3.26-5.653-11.453 0-14.712 5.654-3.26 12.76.837 12.76 7.356s-7.106 10.615-12.76 7.356zm39.21 124.535c-5.655-3.26-5.655-11.453 0-14.712 5.653-3.26 12.759.837 12.759 7.356s-7.106 10.615-12.76 7.356zm55.28-19.31c-5.654-3.26-5.654-11.453 0-14.712 5.654-3.26 12.76.837 12.76 7.356s-7.106 10.616-12.76 7.356zm54.83-19.608c-5.654-3.26-5.654-11.452 0-14.712s12.76.837 12.76 7.356c0 6.52-7.106 10.616-12.76 7.356zm-73.052 56.9c-5.654-3.26-5.654-11.453 0-14.712s12.76.837 12.76 7.356-7.106 10.616-12.76 7.356zm54.985-19.263c-5.653-3.26-5.653-11.452 0-14.712s12.76.837 12.76 7.356-7.106 10.616-12.76 7.356zm55.4-19.42c-5.654-3.26-5.654-11.453 0-14.712 5.654-3.26 12.76.837 12.76 7.356s-7.106 10.615-12.76 7.356zm-127.885 75.683c-5.654-3.26-5.654-11.453 0-14.712s12.76.837 12.76 7.356-7.106 10.616-12.76 7.356zm54.985-19.263c-5.653-3.26-5.653-11.452 0-14.712s12.76.837 12.76 7.356-7.106 10.616-12.76 7.356zm55.4-19.42c-5.654-3.26-5.654-11.453 0-14.712 5.654-3.26 12.76.837 12.76 7.356s-7.106 10.615-12.76 7.356zm-73.385 56.683c-5.654-3.26-5.654-11.453 0-14.712s12.76.837 12.76 7.356-7.106 10.616-12.76 7.356zm54.985-19.263c-5.653-3.26-5.653-11.452 0-14.712s12.76.837 12.76 7.356-7.106 10.616-12.76 7.356z"/></svg>