<svg xmlns="http://www.w3.org/2000/svg" width="512" height="512"><path d="m0 178.145 32.48-32.48 32.478 32.48-32.479 32.48L0 178.144zm96.98-96.978 32.479-32.48 32.479 32.48-32.48 32.479-32.478-32.48zm.45 129.466-32.48 32.48 55.837 55.837 194.426-194.426L226.905 16.2l-32.48 32.479L226.9 81.162l-32.484 32.484 32.48 32.48-32.476 32.476-64.953-64.964-32.48 32.479 64.954 64.964-32.032 32.031-32.48-32.479zm258.386 100.722L458.08 209.09c12.046-12.046 12.046-31.646 0-43.694l-37.688-37.687c-15.705-14.473-35.476-11.255-48.172 4.479l-13.374-13.374c-12.37-11.984-30.436-10.403-40.593 0L135.098 301.972c-10.638 10.853-12.437 26.79 0 40.59l42.268 42.266c12.53 12.136 30.42 10.362 40.59 0l183.155-183.155c11.19-11.192 11.19-29.402 0-40.593l-13.374-13.374c5.166-5.739 9.885-10.338 17.14-4.478l37.686 37.686c3.49 3.492 3.49 9.173 0 12.663L340.3 295.84c-11.664 11.602-12.869 30.625 0 43.694l23.416 23.416c-10.476 11.239-10.27 28.89.678 39.84l84.532 84.53c12.331 11.494 29.174 11.115 40.591.003l14.09-14.09c11.19-11.19 11.19-29.398 0-40.59l-84.534-84.533c-10.95-10.948-28.598-11.156-39.84-.677l-23.42-23.419c-3.888-4.2-3.12-9.303.002-12.66z"/></svg>