<svg xmlns="http://www.w3.org/2000/svg" width="512" height="512"><path d="M191.618 353.588c.312 8.898-5.463 11.084-9.938 2.342-49.747-90.96-114.894-109.275-171.508-91.166-20.399-.625-4.58-47.04 0-59.53 4.58-12.488 50.37-3.746 71.184 3.33 22.895-79.093-5.204-107.4-11.031-114.893-5.827-7.493 1.56-10.303 1.56-10.303s47.456-14.986 67.438-19.045c19.981-4.059 24.873 2.29 29.035 20.19 15.82 63.691-45.27 143.409-45.27 143.409s5.724 11.448 21.897 16.027c45.31-42.46 58.03-104.695 60.216-147.052 0 0-1.563-15.09 10.614-7.597 12.176 7.493 55.886 44.646 63.691 99.44 2.601 22.218-16.651 32.105-16.651 32.105-46.831 33.511-90.72 44.397-96.392 48.624 24.146 34.221 26.248 74.909 25.155 84.119zm13.894-58.227c-.624 3.278 2.81 22.479 0 38.402-4.683 11.863-6.264 19.045 2.957 26.225 9.22 7.182 78.114 39.65 118.493 82.944 15.455 15.715 23.26-3.798 11.864-12.852-3.122-3.435-17.796-16.547-17.483-21.074.312-4.527 8.741 4.215 11.863 7.493-8.43-17.016 9.991-38.714 29.66-14.206 8.014 7.753 2.394 26.07-4.474 31.065 7.525-7.524-5.568-26.278-16.028-15.819-5.411 5.204 9.47 16.963 12.801 19.878 3.331 2.913 15.194-6.974 19.357-13.842 3.064-4.264 7.468-7.857 13.843-35.384 2.029-7.129 4.659-9.711 11.03-16.083 6.373-6.373 99.284-84.24 109.587-117.024 6.036-17.067 3.122-23.103-9.678-10.927-12.801 12.176-83.674 65.253-110.524 72.746-26.85 7.493-31.533-6.088-27.63-9.366 2.373-2.376 62.075-66.918-4.27-32.158-24.297 8.95-48.025-10.824-53.02-28.516-10.538-33.693-10.2-40.38-34.136-19.774-12.906 10.616-35.8 22.064-44.542 25.185-26.226 6.245-36.633 35.593-15.403 38.507 21.23 2.914 32.73-.416 26.954 5.672-5.776 6.089-14.362 11.552-4.683 16.86 9.678 5.307 28.16 18.42 29.222 19.669 1.062 1.249 9.648 2.342 12.146-3.902 2.497-6.245.312-7.962-1.405-8.899-1.718-.937.156-3.747 4.215-3.278 4.059.468 13.737-3.278 16.079-4.996 2.341-1.717 29.816-6.244 36.529 3.279-7.62 2.38-9.834-2.55-20.606 1.248-5.906 2.284-20.249 4.1-27.007 19.358-5.048 11.396-6.921 34.915-27.526 28.255-20.607-6.661-41.785-12.957-38.506-33.719 3.278-20.762 1.873-34.187-9.68-34.967z"/></svg>