<svg xmlns="http://www.w3.org/2000/svg" width="446" height="512"><path d="M195.015 0c-15.778 2.159-32.218 4.222-48.314 10.182-31.792 13.401-32.956 12.208-68.294 31.214C65.819 46.576 26.693 74.598 6.52 87.97c-5.267 3.669-5.3 7.947-5.827 9.116-3.134 5.208 4.542 18.487 19.364 6.423a1844.003 1844.003 0 0 0 31.757-24.6c9.524 11.849 7.69 5.568 23.242 41.677 7.495 17.21 14.124 33.884 15.464 51.679 4.487 30.488 5.035 49.403 9.181 75.736.653 14.311.66 31.15.725 45.636-4.066 2.803-3.408 6.73-2.3 11.421.376 1.595.634 2.906 1.064 3.857-.15 1.605-1.398 8.236-4.059 35.297-.316 3.786-1.187 5.503-1.754 9.633-.627 4.643-.94 8.959-1.57 12.862-3.905 6.61-1.765 18.17-13.014 55.448-5.256 18.794-13.6 47.119-22.335 76.644-1.385 4.789.184 6.969.17 6.86 1.782 9.142 13.07 8.191 17.148-1.512 19.95-62.329 39.153-139.8 42.223-196.145 3.52-.296 14.706-9.973 37.714-8.633 27.532 3.24 38.77-.594 68.404 20.054 20.484 16.753 26.71 21.942 37.563 45.216 9.045 15.1 6.365 18.928 11.61 31.571 12.948 36.204 14.543 31.42 28.43 52.65 12.734 14.987 31.103 22.211 43.804 26.377 13.587 3.952 14.376-.385 20.83.98 49.568 6.055 68.605-37.836 75.195-57.5 4.562-15.284 6.713-31.053 5.21-47.117-1.01-10.827.519-23.96-5.052-37.36-10.018-25.428-13.976-25.903-23.573-36.74-13.172-14.714-16.378-12.69-24.144-18.217-6.743-5.523-23.024-8.728-31.055-8.482-18.066-.492-39.825 18.859-41.5 25.63-4.076 10.498-9.205 21.97-9.37 35.54-.14 11.405-2.913 25.4 3.98 39.576 3.286 17.29 11.433 31.437 28.69 37.937 10.865 4.064 21.993 4.48 32.854.43 3.663-1.213 6.24-.973 9.835-4.437 14.088-11.78 28.895-29.76 19.654-52.938-4.897-9.413-11.452-22.618-21.46-27.035-7.106-3.002-12.513-5.083-17.02-4.84-9.67.523-13.93 4.97-16.097 8.723-7.374 13.67-8.817 24.091-1.11 29.504 8.592 6.156 21.653 7.924 27.534.936 4.89-4.19 2.76-11.285-3.03-12.617-4.448-.877-7.954-1.517-11.344-2.253.513-2.808 1.997-5.032 3.089-5.286 3.119.337 6.41 1.046 9.698 2.125 2.485.822 4.233 4.476 9.364 9.86 6.023 7.238 6.746 19.301 1.652 26.322-4.187 5.194-7.91 9.989-11.403 12.113-3.702 2.257-9.526 3.652-15.147 4.162-1.898.173-6.352-1.637-12.729-2.601-8.45-.689-16.327-15.108-19.956-38.095-2.17-20.674 2.844-31.857 7.2-45.83 2.902-10.078 10.57-14.103 21.083-17.515 9.443-3.061 18.507-.36 28.059 5.6 9.276 6.763 13.936 4.979 21.936 16.3 5.485 10.195 13.516 8.608 20.487 38.022 3.638 26.244 1.92 29.813 1.354 38.075-.635 18.643-7.667 37.034-17.259 50.252-9.729 13.407-22.134 21.497-39.183 20.06-3.68-.305-7.789-.77-12.289-.575-6.555.273-11.894.217-16.767-1.706-23.078-9.369-28.354-17.942-38.13-32.683-10.521-15.649-12.734-26.377-19.374-48.318-2.977-11.392-8.896-20.284-13.043-28.751-13.204-24.38-28.672-34.493-44.428-46.085-31.365-21.345-49.574-15.479-72.298-19.297 22.987-14.36 46.14-32.768 69.475-57 14.408-15.564 27.94-31.757 41.476-47.739 4.256-5.023 5.899-9.919 7.812-12.366 9.018-13.294 28.584-41.32 21.974-100.61C292.42 25.08 258.201 5.358 232.587.872 224.5-.175 201.763.141 195.015 0zM68.648 67.895c10.524-7.452 18.035-10.57 28.725-16.046 6.178-3.262 11.272-6.828 16.055-8.749 17.444-7.005 33.417-15.422 50.143-19.018 17.393-3.549 35.918-6.107 45.114-5.82 10.263.437 17.423.405 23.84 1.813 39.484 12.738 46.868 34.77 45.604 71.25.066 3.036-.566 6.754-1.097 11.05-.756 27.28-14.246 46.628-30.836 70.767-25.148 31.01-43.804 49.207-62.082 63.78-11.587 11.15-14.93 11.74-24.512 19.209-11.72 9.426-25.421 16.864-42.326 27.835 1.542-39.951-4.248-61.208-7.486-97.891-2.229-45.549-27.675-103.68-41.142-118.18z"/></svg>