<svg xmlns="http://www.w3.org/2000/svg" width="387" height="512"><path d="M0 424.238V0h214.427c59.985.905 112.37 32.842 141.955 80.522-21.714-26.69-55.28-41.71-88.575-41.71-63.333 0-79.256 22.53-200.855 246.094C39.169 335.59 15.839 382.82 0 424.238zM386.272 512l-96.396-190.872c82.741-42.782 118.753-147.246 69.944-234.725-38.096-38.688-117.315-47.147-138.065-.181-19.962 46.579 31.16 98.239 56.374 97.673 23.538-1.063 16.086-35.014-3.039-76.23 20.56 38.782 30.08 55.38 27.1 68.62-3.758 17.057-28.122 28.489-76.002 74.33C141.141 332.044 55.821 503.139 39.91 512h346.362z"/></svg>