<svg xmlns="http://www.w3.org/2000/svg" width="512" height="512"><path d="m322.384 145.576 68.549 70.284-17.354 31.67-119.31 149.246L134.96 251.002l-17.354-35.142 68.549-70.284h136.23zM300.275 36.01 274.6 69.955C398.01 82.03 472.097 207.912 433.042 318.339l19.875 39.53 39.495-2.99c64.934-154.268-38.1-336.945-212.732-353.124l20.595 34.255zM17.586 348.692C-48.537 180.316 80.158-5.433 263.924.755l20.696 34.423-25.624 33.876C124.323 66.643 31.098 205.172 83.364 328.798l-42.77-11.221-23.008 31.115zm468.708 19.675-41.073 3.108-18.668-37.127c-54.109 124.883-250.588 162.181-335.908 9.787l-44.839-11.764-22.3 30.16c104.505 213.922 381.574 180.62 462.788 5.836z"/></svg>