<svg xmlns="http://www.w3.org/2000/svg" width="512" height="512"><path d="M409.695 176.312v-44.758H0v204.134h102.305v44.758H512V176.312H409.695zM93.502 218.007c-7.717 2.82-12.9 14.95-12.9 32.555v51.58L59.53 306.72v-81.933c0-12.13-2.815-16.22-12.788-17.13v-4.083h33.436v15.652c2.938-6.957 5.011-12.277 13.145-15.614 4.64-1.903 14.872-2.236 21.68 2.617l-8.387 16.982c-4.876-4.616-9.047-6.69-13.114-5.205zm41.415 15.616s9.759 6.941 27.766 15.694c18.008 8.752 13.232 29.535 13.232 29.535-5.982 18.917-37.994 35.882-64.221 11.634l16.573-12.112s30.246 22.072 31.553 2.072c1.087-16.64-29.143-15.866-40.028-34.245-4.967-8.386-4.818-22.305 4.996-33.725 4.886-5.686 10.35-10.528 17.51-11.39 26.106-3.14 36.963 12.912 36.963 12.912l-14.152 13.735c-13.91-13.969-27.081-15.799-32.291-9.547-3.569 4.282-3.1 9.715 2.1 15.437zm91.343 83.001c-7.368 17.314-24.004 24.828-46.721 23.316v-4.044c27.787-7.243 21.978-11.42 40.535-43.777l-40.922-87.078 18.796-3.807 31.167 70.9 30.692-71.376 20.557 6.198-54.104 109.668zm150.126-17.427c-5.888 0-28.788 1.011-28.788 1.011s7.138-48.476 7.376-60.431c-.53-15.904-7.251-25.505-24.268-24.625-8.034.774-13.867 6.584-14.662 21.294-2.29 42.409-3.658 62.81-3.658 62.81l-21.174 2.142a875.415 875.415 0 0 0 3.33-87.614c0-3.628-5.621-6.813-13.897-8.698v-5.892h34.32l-1.59 17.114s14.036-17.97 30.892-17.394c20.878.714 30.165 13.816 31.406 26.945 2.14 22.661-6.9 66.855-6.9 66.855h12.372s1.13 6.483-4.759 6.483zm47.057-29.27c7.052 11.07 13.521 24.17 35.917 11.426 7.495-4.104 4.104 6.067 4.104 6.067s-16.768 13.026-29.977 13.026c-17.728 0-29.264-13.561-33.19-25.249-5.187-15.443-6.792-31.46-5.22-42.336 4.417-30.556 38.945-33.768 38.945-33.768 9.979-.017 21.081 6.84 32.744 17.13l-15.554 10.65s-15.606-19.075-26.17-15.104c-4.863 1.827-8.148 8.64-9.19 20.87-1.362 15.965 2.093 28.656 7.591 37.288z"/></svg>