<svg version="1.1" xmlns="http://www.w3.org/2000/svg" width="512px" height="512px"><path d="M509.7500916,257.3449402c-1.9150696-9.274292-9.8805237-14.9545288-18.2485046-15.239151l-20.184082-67.5014954c4.6647949-2.4540253,8.0708618-7.2675476,8.0708618-13.2608185c0-10.9533234-11.3346863-18.0177307-21.0434265-13.7640381L365.118866,33.3521652c2.79953-6.4580975,0.9181519-14.6224136-5.8313904-18.811512c-7.9579773-4.9392157-17.8817139-1.3721256-21.5462036,6.3036661l-145.6098175-5.0066719c-1.3456879-7.5684118-7.1781616-13.9020205-15.1740112-15.4737682C166.561203-1.679724,156.477005,5.091188,154.4334106,15.4871016c-1.2597046,6.4083014,0.8377533,12.6911268,5.0610657,17.0523186l-46.0855637,53.4237518c-5.6238556-2.5168762-12.2202606-2.8335266-18.3715744-0.3125916c-10.7256241,4.3956299-16.3900604,15.8624802-13.867691,26.8008881L41.501152,138.5667267c-6.3983192-6.200119-16.8789082-7.6961823-24.9334335-1.6785736c-11.7421551,8.7727203-9.6176071,26.996994,3.7539902,32.8840942l-7.430542,140.1639709c-9.507597,2.589386-14.31322,14.0243225-8.5691547,22.7637024c4.1350255,6.2911377,11.7155037,8.0928955,17.9319706,5.7445984l101.634201,104.280304c-2.1069946,6.4109192,0.3050308,13.6660767,6.2770081,17.4169922c6.100647,3.8317566,13.8889771,2.737915,18.7312317-2.2082214l54.6977234,29.4150391c-3.2659149,10.8876343,3.8499603,23.1126099,16.1605988,24.521698c12.9383392,1.4809265,23.0428314-9.9651794,21.1716461-21.9674072L391.9694214,445.8013c4.7142639,11.266449,19.3905334,15.6782227,29.6013184,7.5236511c10.073761-8.0450745,9.2241821-23.0724487-0.328064-30.2996521l65.0837708-143.231781C499.8078308,283.1665955,512.6246338,271.2648315,509.7500916,257.3449402z M150.2897186,109.4718399l-6.3805542,29.0198593l-3.8967896,0.4359894l-16.6574631-18.844635c1.5758057-2.3932648,2.6954422-5.0604095,3.3105392-7.8584061L150.2897186,109.4718399z M169.6773987,38.0285835c10.3052063,1.9587059,20.2689667-4.7258835,22.3683929-15.0007095l144.2975616,4.9613724c0.2640076,6.061924,4.0402832,10.9011116,9.0607605,13.0825844l-2.9982605,14.2845917c-10.7633667,0.900383-19.4458313,9.3259659-21.0787659,19.7124405L157.3319855,94.1777267L169.6773987,38.0285835z M424.3922119,270.9765015l19.7515869-55.4648438l29.3943176,37.6079865c-1.0154419,2.1773071-1.5663757,4.4917145-1.7121277,6.8168793L424.3922119,270.9765015z M411.0407715,297.7506104c-7.2667847-0.612793-13.8883057,4.4618835-15.062439,11.7797852c-1.2070618,7.5242004,3.7972107,14.5963135,11.2266541,16.0292969l-1.3798218,93.9780579c-5.8215027,1.2147217-10.8212585,5.1245728-13.4333496,10.4601746l-83.0740662-17.924408c0.5497131-6.353241-2.9098816-12.9237671-9.6796875-15.4723206c-10.2741699-3.8677368-20.880249,4.2667542-20.2727051,14.8666687l-26.1345673,6.4032593l26.253891-81.2832947c17.5231934,2.49823,33.0172424-11.4286804,33.1300049-28.5256653l103.3172913-24.0466309L411.0407715,297.7506104z M211.1728668,476.9993591l-38.0594482-35.796936l66.5146637-16.2965088l-15.7867889,48.8751221C219.4713135,473.3526306,214.9725952,474.4072266,211.1728668,476.9993591z M169.9909668,438.265686l-97.1385345-91.3635559c2.1243286-2.8474731,3.4740753-6.2962036,3.7448883-10.052948l179.5540771-19.2900391c2.2742615,6.4221191,6.7652283,12.0743713,13.1102295,15.6025391l-28.3351135,87.7241516L169.9909668,438.265686z M112.0932693,129.0493774l10.4585419,11.8318634l-25.4875488,2.8516388l2.5972824-13.5674896C103.7057495,130.9143066,107.9851227,130.5969849,112.0932693,129.0493774z M125.4604797,144.1718292l13.7736969,15.5823517l-8.598877,39.1096649c-2.9919205-0.2086182-6.1064606,0.456604-8.9644547,2.2537537c-9.2772598,5.8336792-9.2546692,19.1790619-0.5122147,25.1334839l-56.4809341,86.6641998L96.356926,147.4279633L125.4604797,144.1718292z M220.089386,144.2963104c10.9651642,0.9794769,19.0179291-9.7573395,15.5226898-19.8315506l89.1785431-33.1629028c1.446167,2.2580338,3.2318115,4.1821899,5.2559814,5.7455978l-46.5848389,181.7392883c-5.4156799-0.0172119-10.8897095,1.4533081-15.7445679,4.6132507L146.0028992,145.7046356l0.8635254-3.9278259l60.669693-6.7879181C209.5551605,139.8943176,214.0745087,143.7590942,220.089386,144.2963104z M74.3161392,326.2515869c-1.955307-3.5682068-5.0198288-6.4300232-8.7205124-8.1620178l58.760025-90.1612091c9.8014374,3.7289734,20.7227325-3.7504883,20.3247986-14.6418304c-0.2484283-6.8027191-4.8139648-11.922699-10.5151367-13.7426605l8.0155792-36.4561157l115.7235565,130.9189606c-2.212616,4.0681152-3.3265381,8.4847107-3.4436798,12.8912964L74.3161392,326.2515869z M310.6793518,297.442627c-2.5820618-6.8295898-7.4225464-11.9849854-13.2802429-15.1265259l46.2383423-180.3878784c3.4533691,0.1236115,6.9463196-0.5072861,10.2052917-1.9508133l87.6791992,112.1796112l-21.2915344,59.7880859L310.6793518,297.442627z M480.8432922,244.9581909l-32.4161682-41.4743042l10.0772705-28.2983856c1.9200134,0.8150482,3.8972473,1.1916962,5.8389587,1.1835785l19.9967346,66.8764191C483.1411438,243.685318,481.9713745,244.2533722,480.8432922,244.9581909z M318.241272,89.9019775l-84.1809845,31.3044434c-5.6052094-8.7934494-18.7425232-9.4036179-24.9703979-0.5320663c-2.366394,3.3708649-3.0821838,7.2110672-2.5322418,10.807991l-58.8760681,6.5873108l6.3845062-29.0377579L318.241272,89.9019775z M92.8023376,127.7649918l-3.2168732,16.8046494l-42.5819855,4.7641602c-0.2648811-1.7337494-0.7355309-3.3610992-1.3989983-4.8629761l38.3104057-25.2213516C86.1154404,122.916481,89.2031097,125.8246002,92.8023376,127.7649918z M47.2390785,152.9234924l41.6389351-4.6587524L56.709053,316.31073c-7.8130035,0.3128052-14.4116058,5.2835083-17.1012383,12.223114l-7.9245491-1.5096741c1.3886871-7.8451233-3.7803116-15.6187744-11.5824585-17.3128052l7.3329239-138.322403C37.6792717,171.7243652,46.8979645,163.6280518,47.2390785,152.9234924z M153.1284027,446.0989685l7.4994202-1.8374023l29.3422394,27.5977478L152.55159,451.7366333C153.1097565,449.8848877,153.293808,447.9742126,153.1284027,446.0989685z M233.8735962,477.8017883l18.0586548-55.9104919l28.0430298-6.8707275c3.0001526,10.0354004,15.5369568,14.1855774,23.9362183,7.2845764c2.2825928-1.8753662,3.8135376-4.2118225,4.6627197-6.7150879l82.5054626,17.8016663c-0.1324768,0.4953308-0.2075195,1.0129089-0.2997437,1.5239258L236.251297,480.0351257C235.515213,479.211853,234.7210083,478.4677734,233.8735962,477.8017883z M409.4258118,419.1381836l1.370697-93.3470459c6.4065552-0.4171448,11.9086609-5.195343,12.9686279-11.8028259c1.0925598-6.8096313-2.9031677-13.250824-9.1784363-15.4768372l5.5070496-15.4645386l54.0761414-12.585968c0.7580261,1.3939514,1.6889954,2.6955566,2.7916565,3.8767395l-65.8213806,144.8548584C410.5652161,419.1462708,409.993988,419.1314697,409.4258118,419.1381836z M165.4141541,36.6801491c0.2654266,0.1187859,0.5329437,0.2327461,0.8053894,0.3400154l-12.6639252,57.597496l-28.3074799,3.2984848c-1.3716888-3.1455841-3.3592453-5.8322525-5.7626038-7.9942017L165.4141541,36.6801491z M360.5662231,39.1441078l92.053833,112.7909241c-5.151123,6.397995-4.2516174,16.2671051,2.7156372,21.4317169l-9.5305481,26.7624969L362.4010315,93.4192734c10.9127502-13.2779236,4.0628662-33.6574593-12.7640686-37.5272713l2.8557129-13.6057129C355.3144531,42.0844727,358.1202087,41.0553207,360.5662231,39.1441078z M152.3840485,442.5795898c-3.457962-10.2639771-16.5711365-13.6220093-24.541214-6.0938416L28.2284908,334.2780151c0.1419277-0.164856,0.2726707-0.3434143,0.4084568-0.5160522l9.6705856,1.8423462c0.0809441,10.5257568,8.6316719,19.0350342,19.1764259,19.0350342c2.3206596,0,4.5349274-0.4329224,6.5938835-1.1878662l93.4276657,87.8733521L152.3840485,442.5795898z"/></svg>