<svg version="1.1" xmlns="http://www.w3.org/2000/svg" width="500px" height="512px"><path d="M492.6213684,62.1949997L390.7018738,1.6948824c-3.774231-2.2409391-8.4657898-2.264528-12.2557068-0.0419357l-73.5673523,42.9526482L231.7052612,1.8285525c-3.7663574-2.2016246-8.4238434-2.2016246-12.1901855,0L5.9837012,126.6344528C2.277633,128.7993927,0,132.7675476,0,137.0607147v233.8256378c0,4.2197876,2.2016246,8.1302795,5.8054743,10.3214111l212.3938599,129.0361938C220.1257629,511.4129028,222.2985535,512,224.471344,512c2.1282349,0,4.256485-0.5608826,6.154068-1.6826782l212.7162323-125.9433899c3.6694031-2.175415,5.9234314-6.1278687,5.9234314-10.3948364V252.5883484c0-4.3220062-2.3117065-8.3163757-6.0597229-10.4708252c-3.7427368-2.157074-8.3609314-2.1439667-12.0932007,0.0340729l-88.772644,51.6726532v-48.0848541l32.9195251,18.8084869c1.8556519,1.0641174,3.926239,1.5935669,5.9915771,1.5935669c2.0758057,0,4.1568604-0.5346985,6.0177612-1.6092834l105.2062073-60.4922638c3.7480164-2.1544495,6.0597229-6.148819,6.0597229-10.4708252V72.5793304C498.5343018,68.3176117,496.2854919,64.3704147,492.6213684,62.1949997z M384.4848938,26.0962219l77.8929443,46.2344437l-80.3645325,45.4890976l-77.1256409-45.2479706L384.4848938,26.0962219z M253.4096069,133.1187592l13.1835327-7.7911911v16.030571L253.4096069,133.1187592z M225.6088562,26.2456169l55.3233643,32.3412743l-8.3527527,4.8766632c-3.7060852,2.1649323-5.9863281,6.1357193-5.9863281,10.4288864v23.3785019l-42.5778351,25.1620789c-3.6326904,2.1465836-5.881485,6.0308762-5.9339142,10.2480392c-0.0524139,4.2171631,2.099411,8.1564941,5.6770477,10.3921967l83.2833405,52.0500641l-80.3271942,47.6664886L41.4036446,133.9089813L225.6088562,26.2456169z M24.1549664,151.7893219l190.513916,111.9408112v216.1025696L24.1549664,364.0927734V151.7893219z M425.1101074,273.59552v93.500885L238.8238373,477.38797V263.691803l79.3607025-47.0911713v98.2281647c0,4.3246155,2.3117065,8.3137512,6.0597229,10.4682007c3.7375183,2.1544495,8.3556824,2.1439514,12.0932007-0.0314636L425.1101074,273.59552z M336.6624756,185.1504822l-45.9143677-28.695816V92.2796097l79.0802612,46.3956375v94.9532471l-27.4888611-15.7085266V195.39328C342.3395081,191.2285461,340.1955566,187.3573608,336.6624756,185.1504822z M393.9833374,232.8104248v-94.0103607l80.3959961-45.5071182v93.2885971L393.9833374,232.8104248z"/></svg>