<svg version="1.1" xmlns="http://www.w3.org/2000/svg" width="271px" height="512px"><path d="M191.9683533,72.1841354l0.7890015-51.234417c2.4916534-29.1699524,50.8782654-28.896904,49.6808929,7.2546883l-5.6077881,159.6142578c-0.5323944,28.0308685-48.7078094,33.9503021-52.0380859-3.5297699c2.2875214-63.6658325-66.5992126-132.6057129-95.6330643-96.1638489c-7.3811035,8.993309-29.7646027,105.2089691-2.703949,131.436554c19.7108383,24.8869934,56.7939682,5.1761475,131.9624634,44.5978546c51.2780762,26.8924866,52.4255371,75.8170166,51.9830933,93.5177002c-10.9011536,96.1555176-117.392334,145.7863464-220.0264282,81.5413513v51.4195557c-1.3606911,31.7199097-51.7080765,26.5491943-50.3473854-5.1707153l2.8871458-163.7898254c2.4614704-38.2304382,50.2547417-37.665741,50.6558037,0.7649536c-0.9734077,55.821228,36.4286118,91.879303,88.358078,96.1579285c33.5011597,1.454895,75.8695374-24.7679749,77.1966705-66.287262c0,0,7.9314117-28.8210144-37.6521606-50.2336731c-42.5030975-19.9656372-102.9795685-9.811554-135.3062134-50.7061157c-36.0758781-45.6374817-21.0816841-139.7191162-2.6726837-186.8094482C54.539135,36.3097076,123.0938263-7.9685497,191.9683533,72.1841354z"/></svg>