<svg version="1.1" xmlns="http://www.w3.org/2000/svg" width="512px" height="512px"><path d="M141.0864716,343.9068298V322.417511l8.0607452,0.0709534c2.0587006,13.6219788,11.4105835,17.9640808,20.9205933,18.0386353c9.708252,0,18.8766632-4.9871826,18.8766632-19.7471924c0-14.7600403-17.1723938-19.770752-26.7138062-25.2795105s-20.5383301-12.8378296-20.5383301-29.1045532c0-16.2666931,16.4377289-25.5121002,28.8574219-26.4237366s15.2164764-0.0364227,30.4940186,3.2940674v20.8390198h-8.1719818c-2.4904633-12.2599182-10.3076477-16.9921875-19.3354645-16.9921875c-9.027832,0-17.1576233,5.8581543-17.4501343,16.6758423s6.4036865,14.8458252,20.0971527,22.75177c13.6934662,7.9059143,26.747879,12.8907471,26.7097931,32.5325623c-0.6942291,20.6507568-15.3713074,28.8987122-31.9185333,28.8987122c-11.8370819,0-19.7747498-1.3552246-29.8881531-4.0651245 M230.1450958,310.7396545c1.7573853,12.3456421,7.9884644,27.6372986,24.0366669,27.6074524s24.3857727-13.4067993,26.4457703-16.9748535l6.5709229,4.9561157c-3.9408875,7.9596863-16.4625854,23.75177-37.7489624,23.75177s-35.9659119-19.7115784-35.9659119-48.434082c0-14.2269897,10.5496979-37.0409546,36.5023041-37.0409546s30.4408722,26.2689819,32.7950287,34.4933167L230.1450958,310.7396545z M265.0774536,295.1763c-2.9116821-8.6863403-7.6929321-24.4442444-22.0089417-22.3013306s-15.9490509,19.214386-14.4629974,30.3031006L265.0774536,295.1763z M316.0333252,332.0063171c0,9.8535461,5.8010559,9.868927,8.751709,10.6595459v4.1587524h-30.8530579v-4.1587524c2.3344421-0.8928223,8.8552856-0.6087341,8.8552856-10.6595459v-81.6979065c-0.1817017-4.0448761-0.7894287-8.7759705-10.3746948-8.7759705v-5.8173981h23.6207581 M388.1896057,250.6115417h-8.2958984c-0.4473267-0.774826-0.97229-7.9408264-9.1141357-7.8329468c-8.1418762,0.1079407-11.0129395,7.5739441-11.0129395,18.8491211v10.8531799h18.0085449v8.208374h-18.0085449v51.3170471c0,9.5029907,5.3739624,10.0532227,8.8716736,10.6595459v4.1587524h-31.5178528v-4.1587524c3.5585938-0.9535217,8.6441956-1.1393127,8.6441956-10.6595459V280.68927h-9.0148926v-4.0352783c12.4213562-1.9769592,5.9749756-4.9779053,11.1420593-21.5036011s19.4747009-19.4353485,29.7373047-19.4353485s10.5605164,0.5487823,10.5605164,0.5487823v14.3476715 M81.9689178,317.7991638l-9.4202805-14.2823486l60.4720993,20.9677124l-53.4828568,36.1616821l6.0776062-17.0172729c-206.3537903-9.907959-1.5168915-142.2502899,211.7308655-180.0351105s300.6860657,15.6641541,107.3951111,108.786087l6.9371033-17.4838867l-16.679718-6.6669159c183.1995239-97.177124,0.6079712-105.7042999-155.2291718-65.5561981S-49.7846756,305.6774597,81.9689178,317.7991638z"/></svg>