<svg version="1.1" xmlns="http://www.w3.org/2000/svg" width="512px" height="512px"><path d="M178.4720154,12.2050247C69.6462784,46.7262878,6.2192116,142.6915283,0.7114322,243.0170593c-9.7951984,124.1054688,82.5644455,244.031189,214.8091888,265.9665527c126.2607269,19.6512756,259.6798096-57.9085083,290.3675537-197.8204956C547.9656372,119.3228683,365.630127-47.1645432,178.4720154,12.2050247z M485.5054016,302.6965637c-27.4394226-26.7459717-59.085144-43.9360046-92.6201477-50.4067841c5.1985168-50.8199768,34.6385498-75.9634399,80.1427917-84.0914154C489.6981201,208.6949158,495.2267151,254.7782288,485.5054016,302.6965637z M185.0603638,32.9021759C304.611969-5.0215359,422.0074158,57.7559738,468.9239502,158.8331451c-53.185791,10.8272705-80.7861938,42.2875824-85.9163208,91.8687286c-19.2679443-2.8304443-41.8843994-1.3237-64.0927124,4.7366486c-39.2710266-29.3353424-111.4211884-25.3299408-118.0083923-68.163147c-4.6607513-37.3445129,26.8130798-57.6554565,52.439621-57.6554565c33.4440765,0,52.2126312,16.1153412,52.2126312,62.6573944h20.626709c5.1026306-59.5453491-34.0890198-84.508873-72.0310364-83.3935699c-62.9127197,1.8492966-76.8047028,54.3082123-74.3642273,80.0675812c5.0887146,50.6156616,68.5650482,55.5649109,112.65625,76.1725464c-20.092865,9.2869568-38.0991364,22.1712952-53.4335632,38.2625427c-64.9711456-46.8974304-137.7675781-66.3066101-216.1541595-66.0794678C30.3339901,147.9953003,87.937973,63.7109337,185.0603638,32.9021759z M255.5598297,382.9869385c-20.7198486-0.3628845-35.5543976-5.072113-46.1618042-11.9108887c14.5392303-43.8685303,48.3586884-81.4901733,94.3750763-100.0168762C350.605957,299.3265381,333.3891602,384.3500671,255.5598297,382.9869385z M22.2235088,247.3284912c85.4379425,0.0627136,153.2313232,22.9068909,210.0467987,63.5231628c-13.586731,15.935791-24.2263336,34.1456909-31.1902771,53.6799011c-22.0833588-21.1405334-17.3631744-52.8715515-17.3631744-52.8715515H162.472168c-1.3759918,33.7182922,11.2167969,58.9111023,32.564209,74.3222961c-6.8069,32.3809204-3.6244965,66.0665283,9.4099731,98.7053223C79.8991241,455.5344238,18.1283684,346.2400208,22.2235088,247.3284912z M216.2960205,487.1012878c-13.8848572-31.4663391-17.9973755-64.0794678-12.1977081-95.4421387c14.6212921,7.9029236,32.3304901,11.9913635,51.8997955,11.9533691c89.6397705,0,118.6708069-87.1190186,71.8728943-140.21521c58.4611206-13.6993561,115.1023865,8.6047363,154.9990234,50.8036194C451.4185486,438.3451233,330.2926331,506.2166443,216.2960205,487.1012878z"/></svg>