<svg xmlns="http://www.w3.org/2000/svg" width="512" height="512"><path d="M178.472 12.205C69.646 46.726 6.219 142.692.712 243.017-9.085 367.123 83.275 487.048 215.52 508.984c126.26 19.65 259.68-57.909 290.367-197.82 42.079-191.842-140.257-358.33-327.415-298.96zm307.033 290.492c-27.439-26.746-59.085-43.936-92.62-50.407 5.199-50.82 34.639-75.964 80.143-84.092 16.67 40.497 22.199 86.58 12.477 134.499zM185.06 32.902C304.612-5.022 422.007 57.756 468.924 158.833c-53.186 10.827-80.786 42.288-85.916 91.869-19.268-2.83-41.885-1.324-64.093 4.737-39.271-29.336-111.421-25.33-118.008-68.164-4.661-37.344 26.813-57.655 52.44-57.655 33.443 0 52.212 16.115 52.212 62.657h20.626c5.103-59.545-34.089-84.509-72.03-83.393-62.913 1.849-76.805 54.308-74.365 80.067 5.089 50.616 68.565 55.565 112.656 76.173-20.092 9.287-38.099 22.171-53.433 38.262-64.971-46.897-137.768-66.306-216.154-66.08 7.475-89.31 65.079-173.595 162.201-204.404zm70.5 350.085c-20.72-.363-35.555-5.072-46.162-11.911 14.54-43.868 48.359-81.49 94.375-100.017 46.833 28.268 29.616 113.291-48.213 111.928zM22.224 247.328c85.437.063 153.23 22.907 210.046 63.524-13.586 15.935-24.226 34.145-31.19 53.68-22.083-21.141-17.363-52.872-17.363-52.872h-21.245c-1.376 33.718 11.217 58.911 32.564 74.322-6.807 32.381-3.624 66.067 9.41 98.706C79.9 455.534 18.128 346.24 22.224 247.328zm194.072 239.773c-13.885-31.466-17.997-64.08-12.198-95.442 14.622 7.903 32.33 11.992 51.9 11.954 89.64 0 118.67-87.12 71.873-140.216 58.461-13.699 115.102 8.605 154.999 50.804-31.451 124.144-152.577 192.016-266.574 172.9z"/></svg>