<svg version="1.1" xmlns="http://www.w3.org/2000/svg" width="452px" height="512px"><path d="M321.7590027,65.0911484l27.7839355,27.6068344l41.3181458,3.0802841c1.8679504,0.1567078,4.1277161,1.5834427,4.4823303,4.1648178l56.0352478,379.0511475l-151.456543,32.7654724L321.7590027,65.0911484z M285.757843,512L0,458.4588623l38.992485-300.789856c1.884449-13.52948,2.3380623-13.9830933,16.6963654-18.4860229l46.3323822-14.3705902C111.9385147,82.7560043,143.5662994,0,209.7661438,0c8.6471405,0,18.6591034,4.6431279,26.741333,15.3314257c30.2951965-1.4114237,46.9716187,24.1270752,56.1259766,50.4643059l15.1674805-4.6819534L285.757843,512z M227.6171417,36.374012c-16.1438599,6.9275894-34.6091614,25.2899055-44.4604492,63.3092613l51.1612244-15.8427353C234.5043945,61.4985847,231.6870422,46.575798,227.6171417,36.374012z M122.4371033,118.4868011l40.4398193-12.5233536c9.6038818-50.2126923,32.3454132-75.3582916,53.5610962-85.3414764c-2.7544708-1.8968544-5.6327515-2.8658791-8.4904327-2.8658791C160.3986511,17.756094,133.6862183,80.1870346,122.4371033,118.4868011z M238.9074554,183.4248047c0,0-13.2201691-7.6657104-39.9822235-7.6657104c-69.4533386,0-103.8603897,46.3901978-103.8603897,94.3267212c0,56.9548035,56.8269882,58.5011292,56.8269882,93.1639099c0,8.3791199-5.9256744,19.8467407-20.4900818,19.8467407c-22.2920151,0-48.7076492-22.6796265-48.7076492-22.6796265l-13.4551697,44.4562378c0,0,25.6980057,31.2772522,75.9520035,31.2772522c41.8790741,0,72.9378357-31.532959,72.9378357-80.5003357c0-62.2412109-69.2678223-72.4223022-69.2678223-98.9946594c0-4.8699188,1.5504303-24.1971588,32.3452911-24.1971588c21.0054932,0,38.1430664,9.1461487,38.1430664,9.1461487L238.9074554,183.4248047z M251.682312,78.4674835l24.7702942-7.6657104c-6.2760925-19.1746368-16.0283508-35.8339005-30.6711731-37.6729469C250.2825317,46.0965157,251.8783722,61.5236053,251.682312,78.4674835z"/></svg>