<svg xmlns="http://www.w3.org/2000/svg" width="452" height="512"><path d="m321.759 65.091 27.784 27.607 41.318 3.08c1.868.157 4.128 1.584 4.482 4.165l56.036 379.051-151.457 32.766L321.76 65.09zM285.758 512 0 458.459l38.992-300.79c1.885-13.53 2.339-13.983 16.697-18.486l46.332-14.37C111.94 82.755 143.566 0 209.766 0c8.647 0 18.66 4.643 26.741 15.331 30.296-1.411 46.972 24.128 56.126 50.465l15.168-4.682L285.758 512zm-58.14-475.626c-16.145 6.928-34.61 25.29-44.461 63.31l51.16-15.843c.187-22.342-2.63-37.265-6.7-47.467zm-105.18 82.113 40.439-12.524c9.604-50.212 32.345-75.358 53.561-85.341-2.754-1.897-5.633-2.866-8.49-2.866-47.55 0-74.262 62.431-85.51 100.73zm116.47 64.938s-13.22-7.666-39.983-7.666c-69.453 0-103.86 46.39-103.86 94.327 0 56.955 56.827 58.5 56.827 93.164 0 8.379-5.926 19.846-20.49 19.846-22.292 0-48.708-22.68-48.708-22.68L69.24 404.874s25.698 31.277 75.952 31.277c41.879 0 72.938-31.533 72.938-80.5 0-62.241-69.268-72.422-69.268-98.995 0-4.87 1.55-24.197 32.345-24.197 21.006 0 38.143 9.146 38.143 9.146l19.558-58.18zm12.774-104.958 24.77-7.665c-6.275-19.175-16.028-35.834-30.67-37.673 4.5 12.968 6.096 28.395 5.9 45.338z"/></svg>