<svg xmlns="http://www.w3.org/2000/svg" width="512" height="512"><path d="M328.876 132.542c42.457 68.612 149.227-58.938 170.989-115.976 61.182 226.687-128.532 308.915-135.427 328.892 7.255 69.326 51.51 118.195 131.396 156.386-99.151 29.826-238.608-6.45-316.8-121.723C143.066 327.1 30.801 430.328 13.78 496.201c-34.377-113.443 2.418-172.508 35.594-230.973 38.4-67.671 102.25-75.349 97.414-117.266-6.702-58.084-73.653-117.459-132.202-134.62C131.638-32.989 279 51.94 328.876 132.541zM303.85 263.71c0-40.71-44.372-66.29-79.679-45.936s-35.306 71.518 0 91.872c35.307 20.355 79.68-5.227 79.68-45.936z"/></svg>