<svg version="1.1" xmlns="http://www.w3.org/2000/svg" width="512px" height="512px"><path d="M360.8483582,22.5090694L0,113.4565048l85.1634369,376.0344238L512,357.7737732L360.8483582,22.5090694z M465.5678406,335.8240356l-57.3692627,17.3511963l-15.8345337-86.2480164l-12.8896179,3.2724609l-63.5795288-158.1084747l47.7706909-12.6709442L465.5678406,335.8240356z M360.3253479,91.671196l-47.6316833,12.4593353l-15.9507751-39.666275l46.6970825-11.9655228L360.3253479,91.671196z M287.7737732,66.7624741l15.7247314,39.7732925L129.265564,152.1110535l-3.3776855-10.9774475l-77.6119537,36.7906952l-11.4697914-46.8546906L287.7737732,66.7624741z M112.8096008,442.5943604L73.4953613,281.9041138l160.3921509-44.4082642l51.4170227,152.6829529L112.8096008,442.5943604z M274.245575,169.8210297L60.4875565,227.8092804l-12.0572319-49.2542419l86.4529724-7.4103394l-3.2956085-10.1671753l175.0753021-46.4376602l62.8414307,158.9477844l-13.3635864,4.2368469l50.8757324,75.808197l-59.0628662,17.8634338L274.245575,169.8210297z M148.5649414,378.2078247c-33.1066818-19.0863647-31.3467407-66.6447449,3.1610107-85.0840149c33.704361-18.0099487,74.8106995-1.3170776,76.918045,40.8297729C230.617569,373.4248962,181.6716156,397.2941895,148.5649414,378.2078247z M221.0874939,332.5817566c-3.0040894-35.5266113-36.7787781-49.6937561-66.1385803-34.0053406c-30.0596313,16.0624084-29.8657227,58.0713806-0.7527466,74.2132263C181.4972076,387.9268494,224.1533356,368.8386841,221.0874939,332.5817566z M161.2669678,361.1423645l4.7891235-46.585144l9.8394775-3.1347046l27.9510803,36.0490723l-7.5795135,4.2120056l-8.0357056-10.171051l-17.4762573,5.1136169l-0.7807007,11.9910278L161.2669678,361.1423645z M171.1064453,339.4606934l13.1788483-3.9422913l-11.6962585-15.7108154L171.1064453,339.4606934z"/></svg>