<svg version="1.1" xmlns="http://www.w3.org/2000/svg" width="512px" height="512px"><path d="M98.9898987,408.3973694c0,0,4.8887482-4.4425659,8.3940964-1.6098938c0.3435516,0.2775574,0.4868698,0.6761475,0.462204,1.1778259L430.0724182,86.5906906c-0.2324829-0.2334061-0.1917114-0.5343399,0.1421509-0.7676773c2.0213623-1.4125443,11.6708069-20.7640152,8.6517944-20.8660889l-28.6508789,27.3828888c-2.8591003,1.8184586-4.6833496,2.6924973-5.7475586,2.8916092c-10.4347839,8.6355133-27.8795776,27.212471-55.6937866,56.8895187l55.3128357-59.9222794c2.0321045-3.8046036,7.2014771-10.0628357,9.1075439-12.4622955c5.9515686-7.4922867,15.4932556-15.7972984,15.4932556-15.7972984l-4.3258972-0.2544632c0,0-6.5274353,5.9919014-9.3564148,8.6147041c-2.8289795,2.6228561-6.1659241,2.3272705-6.1659241,2.3272705c-8.3973083,9.6696472-26.1250305,21.2053452-26.1250305,21.2053452l14.5828247-23.9015198c0,0-23.1736755,19.7910156-50.0381775,38.8301239c-26.5961304,18.848938-57.4756775,36.6327515-63.5621338,40.5722198c-11.6044006,7.5110626,1.5432434-8.5835724,2.9996033-16.6525726c0,0-14.9072266,21.1155243-30.870163,34.7353363c-18.0827484,15.4283295,10.5129852-22.5210419,10.5129852-22.5210419L12.9083548,402.4118042l-2.3904505,4.3756714c0,0,31.5535908-31.2142639,35.9642868-30.875c0.6277122,0.0482483,1.1414871,0.2089233,1.5718307,0.4418335l0.0834961-0.0999756l63.4256325-61.2839355c-28.5530701,28.7171631-54.3763657,54.3171082-62.9729919,61.7563477c1.9209099,1.6897888,1.0595436,5.5888367-1.090107,8.0071716c-2.7143097,3.0535889-31.5463219,30.778656-34.0354271,33.0187988c-2.4890423,2.2401733-2.6074524,4.6419373-2.6074524,4.6419373c1.0360603,2.0390625,15.621357-11.8686829,17.6428471-13.2321472C30.7503128,407.6447144,0,440.37677,0,440.37677l4.7500234-2.3749695c0,0,19.6785622-20.0179138,22.3928699-16.964325c2.7143097,3.0535583-8.9910545,13.0625305-8.9910545,13.0625305c-0.5089302,4.9196472-8.0687475,12.6314087-17.8125114,20.8660889c0,0,1.0178578,1.8660583,4.2410326-0.6785889c3.2232366-2.5446472,61.5803909-58.3571472,61.5803909-58.3571472s9.990715-3.7685852,49.9321823-43.15271c0,0-40.3440399,43.7918396-43.3161087,47.7330627c-7.8035278,10.348175-33.2499733,32.7410583-33.2499733,32.7410583l-0.5089302,8.4821777l-24.4285851,24.5982056v2.5446472l66.160759-62.089325l32.4002914-30.7254639l-30.076004,34.8022156l58.8630447-55.4257812l-125.955307,128.321228c0,0,4.4277802-2.9518127,9.1507168-4.4277344C29.4117641,477.994751,75.6256409,433.1632996,98.9898987,408.3973694z M140.4398346,284.3061523l69.6377716-69.3705902c0,0-12.5610809,13.5497437-47.2203674,48.6732941L140.4398346,284.3061523z M511.1342468,35.6087151c-2.0357056,3.5625038-72.5223694,96.0178833-72.5223694,96.0178833s-56.745575,71.5045166-78.6295166,111.2009583c-9.086853,11.515213-21.6427612,20.5570221-26.4642944,26.2098541c-3.9614563,4.6445312-5.3039246-2.703125-7.6339417,0c-2.3299866,2.703125-188.3036652,192.3750916-188.3036652,192.3750916l52.1652069-66.4152222l-84.7366562,86.5179138v-2.0357056l43.5134201-59.0357361l-71.2500458,69.9776917l12.4687576-20.6116028l-27.7366219,23.4107361l116.5447083-130.0313416c0,0-116.0357742,120.8706055-115.2723846,116.2902527s29.7723351-44.0223389,29.7723351-44.0223389s-39.9509125,40.4598389-46.0580597,45.8035889s-9.0307541,0.9265442-9.0307541,0.9265442s20.7940178-21.1085815,40.3877792-41.2470398c12.4408035-12.7867737,25.3996658-24.7976074,28.7009277-30.7415466L431.1581726,86.946167c2.156189,0.113945,7.0976257-1.6172333,14.493927-9.7749481c11.535675-12.7232208,21.2053223-22.7321358,21.2053223-22.7321358l8.1428833-1.0178566l29.6875305-34.6071625c0,0,4.5803528-0.5089283,4.5803528,2.3749809s3.7321167-0.1696644,1.8660583,3.2232361c-1.8660583,3.3928394-4.9196167,7.1250038-2.3749695,6.9553413C511.3039246,31.197958,513.1699829,32.0462151,511.1342468,35.6087151z"/></svg>