<svg version="1.1" xmlns="http://www.w3.org/2000/svg" width="512px" height="512px"><path d="M96.0850525,361.4189148C47.1109505,296.5057373,12.9898958,218.4307098,0,133.0338287c13.9435587-20.1493378,83.3449707-78.4126587,108.2520752-94.5447159c4.4654236,96.1178665,65.8648682,181.8043518,122.0546875,237.5005493C188.7038574,310.7930603,143.9754028,341.7447205,96.0850525,361.4189148z M172.4889374,41.8886337c-11.0284576-6.9414673-23.4442596-10.8794403-36.5605774-12.852972c-0.4105835,12.088522,0.8598022,24.976862,4.0467682,36.323616L172.4889374,41.8886337z M236.7226562,228.8044281c73.3686218-68.8101807,150.0097961-114.766922,236.1289978-121.1565933C458.5152283,84.8518295,407.2774353,19.0300674,379.2433472,0c-78.4285583,7.5986705-174.587738,51.8380394-228.1174622,96.2498322C171.8278046,144.3369598,200.6355133,188.3845367,236.7226562,228.8044281z M448.8079224,139.2428436l21.6539612,33.8735962c6.3790588-11.8387604,10.843689-24.6021576,13.4209595-38.2771606C471.2711182,134.8288422,460.14151,136.4634247,448.8079224,139.2428436z M282.0311279,235.9405518c71.5661011,74.5661926,124.287384,162.4317322,119.8219604,239.68927c0,0,93.9847412-73.7938538,110.1469116-98.3066101c-6.6981201-73.2060242-55.4455566-183.1082458-96.5646057-226.8828583C372.076416,168.6921997,327.5411377,197.8132477,282.0311279,235.9405518z M36.6891556,403.5880127C73.2089462,448.8243713,109.0600739,492.7388916,132.439743,512c88.7721863-7.6413574,190.1522675-66.3138733,228.8525238-95.7453308c-17.7806396-42.3049011-47.8435974-87.3222656-85.959259-134.1179504C218.7711029,332.8035278,144.8997345,399.6099548,36.6891556,403.5880127z M376.5490723,482.1959839c0.2153625-13.3111572-1.1917114-25.6706238-4.1390076-35.2054749l-32.8813171,22.7273254C353.9871216,476.6689453,366.9810181,481.6899414,376.5490723,482.1959839z M27.8507347,375.874939c11.2257729,1.6067505,23.537159,0.0820007,36.3953362-2.9497375l-22.7037582-34.3554077C35.2125359,349.9938354,30.5834026,362.3915405,27.8507347,375.874939z"/></svg>