<svg version="1.1" xmlns="http://www.w3.org/2000/svg" width="280px" height="512px"><path d="M192.1924591,467.8479919c19.9330444-11.0666809,23.4502106-27.0832214,29.1260529-55.4499207l15.526413-48.2515869c10.2921906-13.5228577,22.3249359-30.2219238,25.4815521-38.3391418c5.1133423-13.1237183-1.6600647-80.2962799-5.0656738-111.2111206l20.9466248-56.7153015C278.6167603,124.3939133,243.1586761,60.3871498,211.9544067,0l-21.1604309,147.842926l-9.76651,16.0587616c-27.5761871-10.2483368-55.2897568-9.2015381-83.1023788-0.0100708l-9.7715836-16.0512238L66.9604263,0C38.3304558,52.9690437-0.8978561,126.9166641,0.0156676,157.8834534l21.3264046,56.7077789c-3.4105835,30.9198303-9.9199543,98.0824127-4.8065357,111.2085724c3.1867981,8.2076111,15.4509239,25.1551819,25.8235989,38.7383423l15.4308014,48.9797363c4.8561592,29.936676,11.778904,44.4761658,29.0053215,54.3526917C89.6287842,527.5216675,191.1123505,525.8997803,192.1924591,467.8479919z M163.2550201,266.7645874c18.1071777-24.6425323,60.239563-25.3967743,37.1420288,0H163.2550201z M162.2916565,279.0321045h10.3023376c0.8022003,20.0834045,29.463089,21.0054932,30.9143677,0h12.8753662C214.9413147,313.0718689,164.525116,313.9475708,162.2916565,279.0321045z M83.0232773,286.1952515c5.0581284-0.2953491,4.8012543-6.1349487,2.6873474-7.1631165l7.6250458-0.0000305c2.2158432,0,3.5413666,3.9267883,3.1590652,6.6785889C94.8810959,293.9645996,84.432518,292.9122314,83.0232773,286.1952515z M62.806057,279.0321045h10.3023338c0.8022079,20.0834045,29.463089,21.0054932,30.9143677,0h12.8753586C115.455719,313.0718689,65.0395126,313.9475708,62.806057,279.0321045z M126.6663055,469.9067383c2.7516632-1.2227173,5.2366791-2.6789551,7.4274139-4.2807617c3.4591064,0.8140564,7.0503387,0.8824158,10.7525177,0.0125122c2.1958008,1.5892944,4.6858063,3.0455322,7.4374695,4.2682495C144.2168579,475.5970154,133.4580536,474.9714966,126.6663055,469.9067383z M78.5001144,266.7645874c-23.105854-24.3998413,18.348793-25.1130524,37.144577,0H78.5001144z M30.5074883,179.4231873l-9.3213139-25.0623322c1.1670151-16.3274536,18.1823826-55.4473648,34.4130325-88.4160461l4.3261642,30.1440582C58.2753754,107.3596191,50.7347641,151.5613403,30.5074883,179.4231873z M83.9908447,434.1336365c-5.643013-16.2131653-8.3951263-36.6812439-8.5642471-60.9509888l-16.6907387-21.258606l24.3470039-7.112854l27.3805161-31.2186279l4.2323761,79.5900879c-1.6763,3.037384-5.7993546,10.8035278-5.7993546,13.7293701c0,7.164978,12.8529434,17.1173401,21.6647415,23.098877l-0.6024323,9.3676758C118.6380234,460.776001,91.5786057,455.3852539,83.9908447,434.1336365z M108.3204193,473.4619751c2.2534943,0.1002197,4.7608719-0.0722046,7.4449997-0.4343262c11.9796371,15.4966125,39.3770218,12.3690491,47.4996567,0.0100403c2.6342621,0.3609314,5.1472778,0.5556335,7.422348,0.4242859C162.1481781,498.7826233,115.4850388,497.6567078,108.3204193,473.4619751z M203.5561218,373.1952209c-0.2093811,22.8778992-2.7096558,46.1474915-8.5642395,60.9509277c-10.1994171,25.9647522-38.212326,22.4315796-46.1464844,5.3027344l-0.6791229-10.1950378c9.2521515-6.1398315,21.9200439-15.7479248,21.9200439-22.3418274c0-3.8633728-3.8464203-10.7951355-5.5441895-13.6679077l4.2237396-79.6365051l27.385498,31.2237244l24.1272583,7.0453186C215.1008759,358.6229858,209.4863739,365.7657776,203.5561218,373.1952209z M248.7066345,178.8306427c-21.8546295-30.6713257-28.7111206-80.5323486-29.3046875-85.0893555l3.986557-27.7939453c16.2281189,32.9661484,33.2535553,72.0885925,34.420639,88.4160461L248.7066345,178.8306427z M182.5088196,286.1952515c5.0581207-0.2953491,4.8012543-6.1349487,2.6873322-7.1631165l7.6250458-0.0000305c2.2158508,0,3.5413818,3.9267883,3.1590729,6.6785889C194.3666229,293.9645996,183.918045,292.9122314,182.5088196,286.1952515z"/></svg>