<svg xmlns="http://www.w3.org/2000/svg" width="280" height="512"><path d="M192.192 467.848c19.934-11.067 23.45-27.083 29.127-55.45l15.526-48.252c10.292-13.522 22.325-30.221 25.481-38.339 5.114-13.123-1.66-80.296-5.065-111.21l20.946-56.716c.41-33.487-35.048-97.494-66.253-157.881l-21.16 147.843-9.767 16.059c-27.576-10.249-55.29-9.202-83.102-.01l-9.771-16.052L66.96 0C38.33 52.969-.898 126.917.016 157.883l21.326 56.708c-3.41 30.92-9.92 98.083-4.806 111.209 3.186 8.207 15.45 25.155 25.823 38.738l15.43 48.98c4.857 29.937 11.78 44.476 29.006 54.353 2.834 59.65 104.317 58.029 105.397-.023zm-28.937-201.083c18.107-24.643 60.24-25.397 37.142 0h-37.142zm-.963 12.267h10.302c.802 20.084 29.463 21.006 30.914 0h12.876c-1.443 34.04-51.859 34.916-54.092 0zm-79.269 7.163c5.058-.295 4.802-6.135 2.688-7.163h7.625c2.216 0 3.541 3.927 3.159 6.679-1.614 8.254-12.062 7.201-13.472.484zm-20.217-7.163h10.302c.803 20.084 29.463 21.006 30.915 0h12.875c-1.442 34.04-51.858 34.916-54.092 0zm63.86 190.875a40.343 40.343 0 0 0 7.428-4.281c3.459.814 7.05.882 10.752.012a41.305 41.305 0 0 0 7.438 4.269c-8.067 5.69-18.826 5.064-25.618 0zM78.5 266.765c-23.106-24.4 18.349-25.113 37.145 0H78.5zm-47.993-87.342-9.32-25.062c1.166-16.328 18.182-55.448 34.412-88.416l4.326 30.144c-1.65 11.27-9.19 55.472-29.418 83.334zm53.484 254.71c-5.643-16.213-8.395-36.68-8.564-60.95l-16.691-21.259 24.347-7.113 27.38-31.218 4.233 79.59c-1.677 3.037-5.8 10.803-5.8 13.729 0 7.165 12.853 17.117 21.665 23.099l-.602 9.368c-11.321 21.397-38.38 16.006-45.968-5.245zm24.33 39.329c2.253.1 4.76-.072 7.444-.434 11.98 15.496 39.377 12.369 47.5.01 2.634.36 5.147.555 7.422.424-8.539 25.32-55.202 24.195-62.367 0zm95.235-100.267c-.21 22.878-2.71 46.148-8.564 60.951-10.2 25.965-38.212 22.432-46.147 5.303l-.679-10.195c9.252-6.14 21.92-15.748 21.92-22.342 0-3.863-3.846-10.795-5.544-13.668l4.224-79.636 27.385 31.223 24.128 7.046c-5.178 6.746-10.793 13.889-16.723 21.318zm45.15-194.364c-21.854-30.672-28.71-80.533-29.304-85.09l3.987-27.794c16.228 32.966 33.253 72.089 34.42 88.416l-9.102 24.468zM182.51 286.195c5.058-.295 4.801-6.135 2.687-7.163h7.625c2.216 0 3.542 3.927 3.16 6.679-1.614 8.254-12.063 7.201-13.472.484z"/></svg>