<svg xmlns="http://www.w3.org/2000/svg" width="512" height="512"><path d="M45.584 235.888C115.814 106.2 230.539 61.27 316.172 65.708 325.866 36.634 332.308 13.822 334 0h27c-6.519 18.978-15.163 41.811-25.422 67.621 22.488 3.318 42.273 10.255 57.754 20.053C241.5 59.5 140.195 131.102 73.582 227.763c-10.975-1.056-20.367 1.794-27.998 8.125zm445.374 28.7-65.91.152c29.159-70.106 15.526-141.448-61.972-168.711 66.97 32.493 77.037 100.204 49.044 168.74l-159.4.369c27.035-62.906 52.241-121.978 72.631-172.1l-19.313 2.073c-16.973 47.926-39.905 107.433-64.148 170.052l-73.89.17c-17.333 4.667-14.667 52-14.667 52 12.615-10.198 35.554-19.395 77.314-27.297-18.048 46.61-36.424 94.343-53.378 139.746l5.688-.152c7.731-19.166 15.56-38.422 24.376-58.963 11.964-27.873 23.889-55.552 35.55-82.652 40.049-6.885 94.292-12.597 166.478-16.755-19.432 43.853-54.195 87.6-99.361 122.24 52.039-31.027 91.611-76.451 112.544-122.973 21.29-1.137 44.056-2.146 68.414-3.015v-2.924zM23 307c-10.441 98.736 51.04 157.918 141.32 156.99-6.012 16.457-9.952 32.617-15.32 48.01 7.243-16.758 13.77-32.529 20.036-47.92C210.632 463.061 257.78 449.37 306 421 157.333 476 36 444.667 23 307z"/></svg>