<svg version="1.1" xmlns="http://www.w3.org/2000/svg" width="512px" height="512px"><path d="M45.5838623,235.8880005C115.8141479,106.1999512,230.5392456,61.2702026,316.171875,65.7085571C325.8660278,36.6331787,332.3076172,13.821167,334,0h27c-6.5185547,18.9777832-15.1633301,41.8113403-25.421875,67.6212769c22.487854,3.3174438,42.2724609,10.2550049,57.7542725,20.0526123C241.5,59.5,140.1949463,131.1019287,73.5822144,227.7628174C62.6069946,226.7074585,53.2147217,229.5568237,45.5838623,235.8880005z M490.9577026,264.5876465l-65.9088135,0.1521606c29.157959-70.1057739,15.5254517-141.4480591-61.9725342-168.7108765c66.9703979,32.4934692,77.0363159,100.2039185,49.0431519,168.7407227l-159.3988037,0.368042c27.03479-62.9057007,52.2404785-121.9779663,72.6303711-172.0991211l-19.3129883,2.0724487c-16.9729004,47.9262085-39.9049072,107.4328613-64.1478882,170.0516968L168,265.333313c-17.333313,4.666687-14.666687,52-14.666687,52c12.6146851-10.1986694,35.5534821-19.3957825,77.3135529-27.2969666c-18.0482788,46.6099854-36.4235077,94.342926-53.3777924,139.7459412l5.6874695-0.1520386c7.7314453-19.1662598,15.5597534-38.421814,24.37677-58.963562c11.9636841-27.8726807,23.8885498-55.5514526,35.5489502-82.6512451c40.0493164-6.8853149,94.2929688-12.5971069,166.4784546-16.7559204C389.9291992,315.112854,355.1655884,358.8602905,310,393.5c52.0385742-31.0267334,91.611145-76.4512329,112.5440063-122.9727173c21.2894287-1.1370239,44.0559082-2.1459351,68.4136963-3.015564V264.5876465z M23,307c-10.44104,98.736145,51.0401993,157.9184875,141.3196869,156.9908142C158.3080902,480.4465027,154.3675537,496.6073608,149,512c7.2426758-16.7575073,13.770813-32.5285645,20.0355835-47.9206543C210.6317749,463.0621338,257.7808228,449.3703003,306,421C157.333313,476,36,444.666687,23,307z"/></svg>