<svg xmlns="http://www.w3.org/2000/svg" width="458" height="512"><path d="m228.502 233.071-14.428 45.75c-7.693 28.4-7.039 37.358-3.137 43.966.963 1.624 3.597 6.94 7.278 21.14 5.344 20.554 10.05 51.587 10.165 53.072-.773 18.97-.355 39.069 1.179 58.313H39.147C17.617 455.312 0 437.695 0 416.166V61.88c0-21.53 17.616-39.15 39.147-39.15h293.008c-44.876 47.605-89.341 137.936-103.653 210.341zM435.338 11.136c53.695 47.899.376 157.402-48.565 234.483-35.586 11.437-77.064 36.696-77.064 36.696s3.45-1.832 16.255-7.203c8.68-3.649 34.598-9.811 50.381-13.41-26.349 39.726-48.896 67.532-48.896 67.532s-45.97 18.681-60.187 62.14c8.24-46.357 21.913-94.74 41.208-146.3 17.232-46.042 74.796-170.377 117.328-208.788-46.664 37.193-97.65 115.072-134.4 212.138-21.751 64.3-33.523 125.992-35.44 177.149-1.267 33.467 1.626 62.488 8.749 84.632L261.414 512c-6.987-18.132-13.399-49.997-11.865-115.295-.23-2.913-.367-4.806-.367-4.806s-4.242-28.568-10.343-52.035c-2.702-10.417-5.778-19.836-9.007-25.295-1.664-2.817.18-14.388 4.824-31.527 7.864 13.692 16.348 28.515 19.607 40.643 0 0-6.284-32.33-16.595-51.197 2.26-7.627 4.96-16.057 8.015-25.07 7.605 13.3 15.361 25.955 18.455 38.63-3.384-16.193-7.965-32.32-15.101-48.307 12.97-67.496 54.719-155.876 99.696-203.59 24.007-25.617 57.092-48.544 86.605-23.015z"/></svg>