<svg xmlns="http://www.w3.org/2000/svg" width="512" height="512"><path d="M329.828 11.148C141.64-45.619-38.12 123.392 7.036 314.638c45.156 191.246 281.667 262.59 424.699 128.112s86.28-374.834-101.907-431.602zm144.159 293.625L190.072 468.634c-19.288-6.022-37.785-14.596-54.888-25.545l265.24-153.086c5.393-3.117 5.348-10.426.638-13.884L252.244 165.816l144.047-83.138c66.146 53.432 95.245 141.017 77.696 222.095zM324.06 315.024l-41.708 24.072-147.617-105.458 44.701-25.8L324.06 315.024zM195.034 198.835l41.612-24.016 144.63 107.183-41.63 24.026-144.612-107.193zM306.61 39.1 42.587 191.48C75.277 84.637 187.593 10.99 306.61 39.1zM37.04 213.75 328.634 45.458c19.482 6.676 37.25 15.66 53.198 26.496L115.37 225.746c-4.717 2.784-6.116 9.734-.67 13.867l151.925 108.56-146.373 84.481c-71.585-57.003-98.028-138.982-83.21-218.904zm430.77 113.642C432.882 433.496 320.56 497.903 212.92 474.5l254.89-147.108z"/></svg>