<svg version="1.1" xmlns="http://www.w3.org/2000/svg" width="512px" height="512px"><path d="M128.3923187,245.844223c-2.0006332,25.1821747,20.1226044,43.7289581,35.2209015,43.7289581c15.1183929-0.7039795,74.0012817-50.3247681,74.0012817-50.3247681c27.6941833-35.0258179,27.8144226-50.5993195,27.8144226-62.8411865C263.1181946,122.3653107,164.6588287,204.6786194,128.3923187,245.844223z M371.9573364,224.9264374c13.3643188-28.2860718-4.616394-59.7038727-43.7280273-32.1088104c-31.0805054,19.7546997-71.3176575,60.392868-90.5743103,76.3005676c-8.9318848,18.0408936,13.709198,67.5510864,49.5897217,41.4095459C329.6556702,279.7156067,360.6256409,250.7425537,371.9573364,224.9264374z M408.3573914,53.8140755L416.9686279,0H512v98.2340088l-34.8270264,0.4158325L435.2381592,240.684494c2.6099854,50.1272125-22.8096008,50.9437408-26.0568237,73.9447174c-8.1614685,57.8103638-72.8106689,105.1114502-97.5272217,105.1114502c-16.4852295-0.4781189-28.536499-19.3716125-32.5836792-35.8358459c46.4796143-51.4093323,108.9837952-91.8113098,108.9837952-91.8113098c3.9032593-27.0368652-4.6752625-35.6441345,24.1730347-58.6837616l27.5281677-144.7380371C416.2441711,73.1468124,405.2745667,73.3879013,408.3573914,53.8140755z M222.869873,293.513855c24.1022339,48.5646362,58.927124,49.8310547,112.9198608-11.9985352c1.2836914,5.7158813,2.6879272,11.7051392,0.109436,26.0842896C226.0648193,405.8389893,122.6154785,501.4510498,91.1260986,512H0v-24.4407959C14.8198853,467.0081177,136.447876,366.6885986,222.869873,293.513855z M385.1978149,387.5437622C380.2531128,429.5804443,341.9286499,466.3630981,290.7155151,512H128.4122314l136.8272095-115.2553711C288.8598022,450.5002441,330.8127441,442.7125854,385.1978149,387.5437622z M193.2601318,292.1309204L0,456.8539429V349.9845581l113.7296143-92.5857544C119.8138428,291.8602295,157.0846558,322.2045898,193.2601318,292.1309204z"/></svg>