<svg xmlns="http://www.w3.org/2000/svg" width="455" height="512"><path fill-rule="evenodd" d="M245.976 416.188c33.24-24.575 60.408-54.075 60.975-96.334-.567-42.26-27.77-70.327-60.975-95.027-37.44-40.31-25.041-97.189 29.5-97.899 106.284 12.382 175.226 129.037 178.65 192.926-.236 71.144-96.298 165.176-138.295 183.12-76.821 36.411-121.734-46.453-69.855-86.786zM138.97 8.622C96.77 26.576.326 119.007 0 191.844c.568 75.298 96.77 165.27 138.969 183.224 77.379 45.933 118.373-63.549 70.224-94.285-33.398-24.587-60.732-46.655-61.302-88.94.57-42.282 27.904-71.794 61.302-96.383 67.045-61.63-15.661-117.386-70.224-86.838z"/></svg>