<svg xmlns="http://www.w3.org/2000/svg" width="512" height="512"><path d="M127.711 34.453c-170.281 98.17-170.281 344.925 0 443.094S512 452.338 512 256 297.992-63.716 127.711 34.453zm211.832 125.715-7.287-5.07c36.438-41.508-7.288-71.609-27.883-40.557-19.329 29.15 6.97 65.272 22.813 112.166 25.032 74.144 21.23 114.068-11.09 152.724-81.431 96.957-233.838 59.885-181.24-40.558 18.06-34.537 49.429-59.251 102.977-53.231 5.07 6.337-.317 8.872-4.119 10.773-43.409 21.546-68.44 108.047-30.735 106.146 18.061-.634 44.994-18.694 58.935-49.43 16.16-35.804-3.802-80.797-18.06-123.255-33.27-100.126 42.141-186.627 128.325-141.634 32.636 17.11 11.09 76.995-32.636 71.926z"/></svg>