<svg version="1.1" xmlns="http://www.w3.org/2000/svg" width="512px" height="512px"><path d="M78.9087906,343.3270874c13.2801056-15.8840637,14.8424683-32.2888794,4.5569-62.7550354c-6.5098572-19.269165-17.3162231-34.1116486-9.3741989-46.0897827c8.4628143-12.7593079,26.4300156-0.3905792,11.4573517,16.6652374l2.9945297,2.0831604c17.9672089,2.0831451,26.82061-22.5241089,13.4103088-29.5547485c-35.41362-18.4879913-66.4005432,17.0558167-52.7298393,58.1981049c5.8588715,17.4464417,14.0612907,35.9344177,7.4212379,50.646698c-5.7286758,12.6291199-16.795433,20.050354-24.2166672,20.3107605c-15.4934578,0.7811584-5.2078857-34.7626343,12.6291199-43.6160583c1.5623665-0.7811584,3.7757187-1.8227539,1.6925621-4.4266968c-22.0033131-2.4737549-34.8928299,7.6816406-42.314064,21.8731079C-17.176693,367.9343567,45.4481277,383.1674194,78.9087906,343.3270874z M465.5942688,221.9833527c5.0776672,12.4989166,12.7593079,24.8676453,8.2023926,35.8042145c-3.7756958,9.3742065-8.7232056,13.2801208-14.1914673,14.1914978c-7.6816406,1.3019714-5.5984802-22.7845154,7.5514221-29.9453583c1.1717834-0.6509857,2.8643494-3.7757111,1.3019714-5.5984802c-16.6652222-0.911377-26.0394287,7.0306549-31.1170959,17.5766144c-14.7122803,30.85672,33.3304443,39.3195496,56.8961182,8.9836121c9.3742065-12.1083374,9.764801-24.0864716,0.781189-45.8293915c-5.7286682-13.8009033-14.4518738-24.0864716-8.9835815-33.2002716c5.8588562-9.6345825,19.9201355-1.3019714,9.374176,11.5875397l2.3435669,1.3019714c13.6706848,0.781189,19.2691345-17.4464111,8.8533936-22.0033112C479.1347656,163.1342468,453.4859314,192.6889954,465.5942688,221.9833527z M161.8443604,351.0086975c-32.2888947,12.6291504-51.8184586,40.491333-44.9180145,54.6828003c5.8588715,12.2385559,37.4967804,7.8118286,52.4694519-0.260376c36.7155762-19.920166,63.4059906-58.9793091,81.6335907-112.8809204c15.8840637-47.7823486,35.9344177-101.9443512,40.6214905-103.5067139c-9.504364-7.5514374-36.1947937,5.0776825-43.7462158,23.8260651c-9.5043945,23.8260651-23.5656891,58.5886993-37.3665771,73.8217621c-14.582077,16.0142517-16.0142517,3.6455383-14.582077-5.5984497c3.3851166-21.7429199,24.607254-72.1292267,36.1947937-86.3207092c-4.2965088-6.3796539-32.4190826-5.468277-51.9486542,24.8676453c-7.2910309,11.4573517-23.9562683,49.6051025-42.4442596,79.6806641c-4.0361176,6.5098572-9.1138,1.9529419-5.2078857-13.2801208c4.4266968-17.5765991,17.4464111-65.8797455,34.2418518-103.8973083c44.0066223-8.7232056,90.7473907-14.8424683,126.55159-14.9726715c4.8172913-1.3019714,8.0722351-5.5984802,0-5.8588715c-30.85672-1.0415802-77.2068787,2.6039429-120.5625305,8.0722198c8.3326111-16.6652222,17.3162231-29.945343,26.4300232-35.543808c-9.894989-6.2494659-29.945343-3.7757263-41.4026947,13.1499023c-5.0776825,7.5514374-10.155365,16.6652374-14.9726715,26.5602112c-31.7680969,4.9474945-58.9792938,10.5459747-72.7801895,15.7538605c-14.321682,5.468277-12.7593155,22.7845001-4.0361099,19.5295715c18.0974045-6.7702637,42.5744629-13.8009033,69.7856598-20.0503693c-17.3162155,39.0591431-30.85672,85.1489258-34.1116486,103.8973083c-8.0722198,45.5690002,20.1805573,45.3085938,33.9814453,27.3414001c14.9726715-19.6597595,46.219986-88.7944489,51.0372772-96.0854797c1.4321747-2.4737396,3.3851318-1.1717682,2.3435516,1.0415802c-34.8928375,69.6554718-31.8983002,96.6062775-3.6455231,90.6172028c12.7593231-2.7341309,34.7626343-24.6072693,40.4913025-35.9344177c1.1717834-2.7341309,3.6455231-2.4737244,3.1247406-1.3019714c-22.1335144,57.4169312-50.2560883,103.8973389-69.1346741,118.4794006c-17.1860199,13.1499023-29.945343-15.3632507,30.85672-56.2451782c8.9835968-6.1192627,4.8172913-14.4518738-5.338089-11.5875244c-31.3775024,4.9474792-121.2135239,33.4606628-160.6632538,60.802063c-2.9945335,2.0831604-5.7286739,3.7757263-5.5984764,8.0722351c0.1301975,2.4737244,4.4267025,1.5623474,6.5098572,0.260376c51.0372696-30.5963135,92.8305511-42.5744629,140.743103-52.5996399C174.4181824,344.5525513,168.091629,348.3670959,161.8443604,351.0086975z M486.0352173,323.4069214c7.9420166,1.4321594,31.7680664-22.3939209,19.0087585-24.0864563c-59.7604675-7.8118286-188.6556396,2.6039429-245.5517578,17.7067871c-16.9256439,4.4266968-12.2385406,13.4103088-3.6455383,11.7177429C318.75,316,426.1666565,311.8333435,486.0352173,323.4069214z M308.3161316,292.2897949c16.6652222-8.3326111,41.4026794-59.8906708,57.6773071-88.1434479c1.1717834-2.0831604,3.2549438-0.3905945,2.0831604,1.0415802c-41.1422729,70.82724-23.6958618,79.0296631-7.4212341,77.9880676c21.7429199-1.3019714,41.7932739-32.5492706,46.2200012-39.5799255c1.8227539-2.7341309,2.8643188-0.5207825,1.8227539,1.4321747c-1.0415955,3.2549286-4.8172913,8.9835968-8.3326111,16.7954254c-4.9475098,11.0667725,0.260376,15.3632812,4.5568848,17.3162231c6.7702637,3.2549438,25.2582397,1.1717834,28.1225891-10.155365c-18.4880066-0.3905945,25.7790222-87.6226807,30.335907-92.9607544c-12.3687134-7.1608429-31.5076904,0.6509857-40.230896,17.8370056c-18.6181946,36.8457794-34.2418518,66.5307312-44.0066223,67.0515137c-19.0087891,1.0415955,21.8731079-82.1543884,28.5131531-84.7583313c-4.0361023-5.8588715-29.945343-3.3851166-44.3972168,19.0087891c-5.2078857,8.0722198-36.9759827,64.3173828-44.7878113,73.5613708c-13.8009033,16.4048462-14.8424683,2.3435669-10.936554-14.0612946c1.3019714-5.5984802,3.5153198-12.7593231,6.3796692-20.7013397c9.1138-20.5711365,18.8785706-27.0809937,24.8676453-33.7210541c40.230896-44.657608,63.2757874-80.852417,54.1619873-95.0438995c-8.0722046-12.6291199-35.0230103-7.0306473-52.3392334,19.0087814c-31.8982849,47.782341-61.3228455,113.271492-65.0985718,143.2168274C271.8609314,297.3674927,293.6038513,299.5808411,308.3161316,292.2897949z M325.2417603,204.6671295c1.4321594-3.2549286,2.3435364-4.1663055,4.8172913-9.6345825c14.3216858-31.5077057,32.2888794-64.7079773,44.6576233-80.2014313c7.6816101-8.0722198,18.4879761,2.8643417-1.0415955,32.8096771c-11.4573364,17.7068176-24.4770508,34.0465546-38.6685486,48.3682404c-3.6455078,4.0361023-6.9004517,7.4863281-8.3326111,9.4392853C325.6323547,206.7502899,324.4605713,206.4898987,325.2417603,204.6671295z"/></svg>