<svg version="1.1" xmlns="http://www.w3.org/2000/svg" width="525" height="512"><path d="M266.135 500.973c57.436-205.351 55.769-206.284 97.28-352.702l9.978 5.776c5.435 3.112 9.873 0.552 9.873-5.697v-69.842c11.027-38.571 19.64-68.398 22.187-77.325h44.964l74.713 69.186-49.073 42.404 37.114 40.133-244.565 348.068c-1.182 1.969-2.849 1.523-2.468 0v0z"></path><path d="M292.851 58.342c2.232 0 4.017 1.221 4.017 2.757v35.775c0 1.496-1.798 2.718-4.017 2.718h-60.389c-2.232 0-4.030-1.221-4.030-2.731v-35.788c0-1.51 1.798-2.757 4.017-2.757l60.403 0.026zM367.419 18.721l-66.455 38.361c0.762 1.181 1.234 2.534 1.234 4.004v35.8c0 1.838-0.735 3.519-1.916 4.858l67.125 38.754c4.569 2.652 8.324 0.486 8.324-4.792v-112.18c0-5.291-3.728-7.444-8.31-4.805v0zM223.088 96.886v-35.813c0-1.471 0.472-2.822 1.234-3.991l-66.455-38.387c-4.569-2.625-8.323-0.473-8.323 4.805v112.181c0 5.278 3.755 7.444 8.337 4.792l67.112-38.755c-1.181-1.352-1.891-3.019-1.891-4.858l-0.013 0.026z"></path><path d="M256.525 500.973h2.468c-57.423-205.351-55.769-206.284-97.28-352.702l-9.977 5.776c-5.422 3.112-9.873 0.552-9.873-5.697v-69.842c-11.028-38.557-19.64-68.398-22.186-77.325h-44.951l-74.725 69.186 49.060 42.404-37.114 40.146 244.578 348.055z"></path><path d="M278.882 156.186c0 10.020-8.123 18.143-18.143 18.143s-18.143-8.123-18.143-18.143c0-10.020 8.123-18.143 18.143-18.143s18.143 8.123 18.143 18.143z"></path><path d="M278.882 264.034c0 10.020-8.123 18.143-18.143 18.143s-18.143-8.123-18.143-18.143c0-10.020 8.123-18.143 18.143-18.143s18.143 8.123 18.143 18.143z"></path><path d="M278.882 371.909c0 10.020-8.123 18.143-18.143 18.143s-18.143-8.123-18.143-18.143c0-10.020 8.123-18.143 18.143-18.143s18.143 8.123 18.143 18.143z"></path></svg>