<svg xmlns="http://www.w3.org/2000/svg" width="512" height="512"><path d="M510.19 413.166c-2.674-32.106-29.75-309.246-29.75-309.246-1.59-24.952-14.565-35.395-25.393-39.774-2.36-23.781-20.668-29.085-26.732-29.085-6.203 0-322.62-.098-344.746-.098-24.734 0-28.463 18.842-28.463 18.842l-1.087 11.088C33.79 73.268 33.784 92.2 33.784 92.2S0 408.4 0 443.322s29.77 33.709 29.77 33.709h438.787c50.835 0 44.31-31.759 41.634-63.865zM165.555 266.779c3.957-10.35 22.028-14.18 32.552-10.702.171.056 13.655 5.733 36.12 8.918 26.234 3.718 47.532-6.179 48.16-16.499.16-2.635 4.235-16.722-7.804-23.188-9.142-4.91-19.226-7.291-32.999-10.925-15.887-4.192-31.855-5.305-45.038-12.709-24.132-13.552-26.309-24.971-26.309-36.788 0-15.342 14.593-32.624 28.985-41.47 27.675-17.01 72.425-17.077 98.548-5.798 10.175 4.394 23.236 11.3 18.843 21.475-4.394 10.174-22.146 14.164-32.24 9.588-18.621-8.442-41.37-6.813-50.433-1.669-5.86 3.326-27.04 24.423 22.874 33.448 16.55 2.993 36.733 6.35 50.544 13.634 27.317 14.407 33.803 35.994 32.998 49.943-1.338 23.188-15.95 37.066-31.66 47.713-15.249 10.334-36.781 14.564-56.739 14.564-36.185.001-66.113-8.767-74.14-12.557-10.021-4.732-18.06-11.817-12.262-26.978zm310.23 145.702s-8.4 19.067-27.095 19.067H58.7c-18.694 0-27.095-19.067-27.095-19.067l-5.728-52.894c1.234 8.63 7.275 21.125 31.988 21.125H447.6c26.082 0 32.593-14.651 34.22-23.061l-6.035 54.83z"/></svg>