<svg xmlns="http://www.w3.org/2000/svg" width="512" height="512"><path d="M217.456 512 0 396.13V109.755l22.719 12.105v253.872l172.018 91.66.001-221.37-131.503-70.07v158.445l92.122 49.086v-95.8l-50.629-26.977v33.154l28.447 15.157v32.503L82.01 314.257V216.1l96.067 51.188v160.805l-137.56-73.298v-223.45l176.94 94.282V512zm16.989-326.542 218.546-61.653L283.683 38.22 113.778 86.15l121.842 61.592 118.655-33.474-74.374-37.596L216.703 94.5l24.627 12.449 35.137-9.912 25.12 12.698-62.534 17.642-72.587-36.694 113.783-32.099 120.054 60.688-162.424 45.82L70.148 80.304l212.467-59.938 192.359 97.239 28.06-7.916L286.05 0 17.46 75.77l216.985 109.688zm277.554-34.332-256.265 74.5V512l26.773-7.783V250.345l202.719-58.934v221.37l-154.971 45.052V299.388l108.563-31.56v95.8l-59.665 17.345v-33.154l33.524-9.746v-32.502L352.38 323.1v98.158l113.211-32.913V227.541l-162.11 47.128v223.45L512 437.499V151.126z"/></svg>