<svg xmlns="http://www.w3.org/2000/svg" width="512" height="512"><path d="M127.711 34.453c-170.281 98.17-170.281 344.925 0 443.094S512 452.338 512 256 297.992-63.716 127.711 34.453zm48.663 374.1c-122.14 0-19.93-137.333-104.776-134.965v-36.702c80.039 9.931-15.39-146.212 104.184-132.597v28.414c-66.693 1.578-.395 86.82-60.38 122.534 60.38 39.66-3.156 130.032 60.972 120.167v33.15zm-4.286-133.422c-13.78-7.945-13.78-27.915 0-35.86 13.781-7.945 31.101 2.04 31.101 17.93s-17.32 25.875-31.1 17.93zm73.53 0c-13.782-7.945-13.782-27.915 0-35.86 13.78-7.945 31.1 2.04 31.1 17.93s-17.32 25.875-31.1 17.93zm73.529 0c-13.781-7.945-13.781-27.915 0-35.86 13.78-7.945 31.1 2.04 31.1 17.93s-17.32 25.875-31.1 17.93zm16.479 133.422v-33.15c64.128 9.867.592-80.505 60.971-120.166-59.984-35.715 6.314-120.956-60.379-122.534v-28.414c119.575-13.615 24.145 142.528 104.184 132.597v36.702c-84.847-2.368 17.364 134.965-104.776 134.965z"/></svg>