<svg xmlns="http://www.w3.org/2000/svg" width="512" height="512"><path d="M219.429 0H73.143L0 73.143v146.286L292.571 512 512 292.571 219.429 0zM36.57 201.143V91.429L91.43 36.57h109.714l256 256L292.57 457.143l-256-256zM256 146.286 146.286 256 292.57 402.286 402.286 292.57 256 146.286zM201.143 256 256 201.143l91.429 91.428-54.858 54.858L201.143 256zm-82.306-112.175c-12.163-7.012-12.163-24.638 0-31.65 12.162-7.012 27.449 1.801 27.449 15.825s-15.287 22.837-27.45 15.825zM182.857 128c0-42.072-45.859-68.51-82.347-47.474s-36.49 73.912 0 94.948 82.347-5.402 82.347-47.474z"/></svg>