<svg version="1.1" xmlns="http://www.w3.org/2000/svg" width="242px" height="512px"><style type="text/css">.st0{fill-rule:evenodd;clip-rule:evenodd;}</style><path class="st0" d="M55.4519844,427.6439209v49.6585693L79.6314392,512v-78.2810059c2.943718-12.6582336,6.3989868-21.370636,11.3643417-27.1414185s11.426445-8.7339478,20.6734314-9.8531494l3.3246689-0.4231262l-14.7494659-6.9515991c27.9620667-16.8361206,59.2784424-58.10672,67.5211182-97.3222961l0.3627014-1.5716858l-16.0188904,4.3522949c12.8885803-12.1018066,25.8723297-36.0787048,38.203537-64.0150909c13.0782623-29.6289368,25.2892303-63.1851501,35.3019867-90.0080414l0.5440369-1.4507599l-12.6941986,0.906723c13.8250275-14.6736526,21.5091248-38.9055176,25.2675171-64.4986954c3.9117737-26.6376762,3.6372833-54.6862946,1.4507751-74.7145233L240.0621033,0l-1.0276337,0.1813459c-38.0770264,6.6416326-75.353714,20.6322155-91.7005768,54.101532l-7.4956207-13.1173553l-0.9067383,0.9067307c-18.7510834,17.9428635-38.8815384,41.1835365-53.7388229,64.0151062c-13.946167,21.4314499-23.1962776,42.4070663-22.1846466,58.4538345l-10.6994095-13.3591461l-0.6649323,1.3903198c-11.8458633,25.5895844-23.8009186,57.0713806-30.9496994,85.9579773c-6.7779837,27.3882599-9.2052336,52.3186493-2.901535,68.004715L0.4437321,296.440155l-0.1208973,1.5716553c-3.0158741,45.6837463,15.5487423,67.4961243,36.8736649,88.557251l-21.3383675,5.3194885l3.5664701,0.9671631c10.2028198,2.7648621,19.8759537,5.8777466,26.5973969,11.0621033S56.6048241,416.2618103,55.4519844,427.6439209z M157.8217316,59.7232513l-11.5759125,19.2830811l-1.0276489,1.753067l-5.9843597-15.9584579c-37.8968964,38.002243-66.4616089,80.5902634-65.4054108,123.0129776l0.0604019,1.8738861l-15.0516815-10.0949097C40.0863876,231.8085022,20.7567463,271.5455017,33.206871,326.90625l0.362709,1.8134766l-17.8928146-7.5560913c0.0521755,0.3317261,0.1269217,0.6391907,0.1813545,0.9671936c7.8324251,23.3239441,15.7567225,40.5699463,38.868454,53.6178894l28.7131386,0.3022461c-7.1234665-99.7521057,42.6569214-187.8009796,84.9302826-275.5853271l-1.4507599-1.3298874c-63.8115921,71.3505554-95.3498917,169.8582153-109.1097717,255.3351135c-28.2233791-66.0856323-3.7252007-114.6708221,7.4351997-158.3755035l17.1673965,9.91362c-2.3713455-40.922226,21.6536636-85.0544128,52.8925476-123.557045l9.0673218,15.9584579c23.2291718-47.7802429,41.6009979-66.959198,85.2685699-82.4165421C197.2637634,24.8265038,176.8417816,33.5259056,157.8217316,59.7232513z"/></svg>