<svg version="1.1" xmlns="http://www.w3.org/2000/svg" width="491px" height="512px"><path d="M128.1893921,512c0,0,50.4274902-29.690918,67.8649597-44.7720642c17.4375763-15.0811462,87.658905-89.0727539,103.6826477-104.6251526c16.0236206-15.5523682,39.4684448-36.6994324,54.7007751-62.7787476c15.6554565-33.2149353,24.752533-42.2545776,23.5324402-51.2721558c-4.367981-11.4261627-21.1990967-19.9297028-33.9324951-30.6335297c48.4446411-4.3416138,48.8811951-12.63591,64.5660095-9.8969421c13.6672363,1.8851318,18.3800659-0.4712524,29.6909485,4.2415771c5.0635681,2.4120483,8.6456299,5.6564026,11.3049316,9.4191895l26.8867188,29.690918c-26.1983643-45.2337799-22.3219604-32.1040344-40.0768738-56.0763855c22.4321899,12.0804596,34.8525391,25.6859894,54.221344,43.8289032c0.1383057,0.0179596-18.6021729-25.4824219-28.0802307-35.3591614c0.0001831,0.000061,0.003418,0.0009766,0.003418,0.0009766c-7.8751526-20.8462982-2.5021667-13.6325684-12.7011108-27.7940063c-27.7001038-29.855835-24.9490967-10.5988617-75.6530151-21.2071991c-9.0909119-2.0200653-16.7599792-5.6233521-18.618866-13.8226624c-6.791748-29.9571609-3.1243286-45.2380295,21.9179382-70.5370865c11.782074-11.3108521,21.8742371-14.1900063,19.7939453-21.6791077c-6.140686-38.1671906-83.8726196-42.7735291-141.8566895-47.5998039c-53.6577759-3.7097497-61.0049896,2.6707268-87.1876221,5.655489c21.5701294,0.9094477,11.5665131,4.5357604,14.609848,6.5979686c2.3563843,1.8851433,47.1284485,4.7128868,55.1402588,9.8969536c19.4795074,10.1085777,49.1052399,23.2202339,52.7838593,32.5186653c-1.9861145,8.5521889-20.6818848,26.4176292-31.0218506,48.0556602c-12.2832947,25.7047424-16.7825317,55.2100525-23.6470947,59.397171c-51.1043396,11.4044037-99.7516327,18.7642365-140.914093,17.851059c-10.3682556-0.9425964-73.5203857-4.1837616-73.5203857-4.1837616l58.9105453,8.0118103C44.9148521,188.005249,9.9431543,191.1121826,0,195.2967682c59.4224548-7.6038818,97.4896393,1.2655029,121.5914307,1.1149139c49.3148804,1.4311066,69.2057495,13.7794342,116.4072418,17.265213c-6.2481384,21.2228241,37.9345245,61.4040375,31.1048126,83.4174042C227.4003296,348.7556458,137.6666718,490.3333435,128.1893921,512z"/></svg>