<svg xmlns="http://www.w3.org/2000/svg" width="491" height="512"><path d="M128.19 512s50.427-29.69 67.864-44.772c17.438-15.081 87.66-89.073 103.683-104.625 16.024-15.553 39.468-36.7 54.7-62.779 15.656-33.215 24.753-42.255 23.533-51.272-4.368-11.426-21.199-19.93-33.932-30.634 48.444-4.341 48.88-12.636 64.566-9.897 13.667 1.886 18.38-.47 29.69 4.242 5.064 2.412 8.646 5.656 11.306 9.42l26.886 29.69c-26.198-45.234-22.322-32.104-40.077-56.076 22.433 12.08 34.853 25.686 54.222 43.829.138.018-18.602-25.483-28.08-35.36l.003.001c-7.875-20.846-2.502-13.632-12.701-27.794-27.7-29.855-24.95-10.598-75.653-21.207-9.091-2.02-16.76-5.623-18.619-13.822-6.792-29.958-3.124-45.238 21.918-70.538 11.782-11.31 21.874-14.19 19.794-21.679-6.14-38.167-83.873-42.773-141.857-47.6-53.658-3.71-61.005 2.671-87.187 5.656 21.57.91 11.566 4.536 14.61 6.598 2.356 1.885 47.128 4.713 55.14 9.897 19.48 10.109 49.105 23.22 52.784 32.519-1.987 8.552-20.682 26.417-31.022 48.055-12.284 25.705-16.783 55.21-23.647 59.397-51.105 11.405-99.752 18.765-140.915 17.852-10.368-.943-73.52-4.184-73.52-4.184l58.91 8.012C44.916 188.005 9.944 191.112 0 195.297c59.422-7.604 97.49 1.265 121.591 1.115 49.315 1.43 69.206 13.78 116.408 17.265-6.248 21.223 37.934 61.404 31.104 83.417C227.4 348.756 137.667 490.334 128.19 512z"/></svg>