<svg version="1.1" xmlns="http://www.w3.org/2000/svg" width="512px" height="512px"><path d="M512,96.0502319c0-13.3425369-10.7705078-24.1130295-24.1130371-24.1130295H24.1130295C10.7704878,71.9372025,0,82.707695,0,96.0502319v319.8995361c0,13.3425293,10.7704878,24.1130371,24.1130295,24.1130371h463.7739258C501.2294922,440.0628052,512,429.2922974,512,415.9497681V96.0502319z M195.5566559,352.2109985c-4.0188293,2.3309326-8.6003113,4.5010986-13.7444305,6.5105286c-5.144104,2.0897827-10.7704773,3.77771-16.8791199,5.144104c-6.1086426,1.3664246-12.4583893,2.0898132-19.1296692,2.0898132c-14.9500885,0-26.1224518-3.8580933-33.4367294-11.6546326c-7.3142853-7.7965698-11.0919952-20.3353271-11.0919952-37.6967163V211.7927856H73.9466095v-13.4229279c8.8414459-5.6263733,17.6828918-9.6452026,27.3281021-12.0565186v-27.8907318c1.6075363-1.366394,6.4301453-3.4562073,13.6640549-6.1086273c7.233902-2.6524353,15.4323273-4.8226013,24.3541565-6.4301453h11.8153992v44.2072144h45.0109863v21.7017365h-45.0109863v88.9770813c0,14.1463318,1.687912,23.9522705,5.3048706,29.4179077c3.5365753,5.4656067,9.4040833,8.1984253,17.6828918,8.1984253c4.0992126,0,8.7610626-0.3215027,13.9051666-0.8841248c5.144104-0.5626526,9.8863373-1.6879272,14.3070526-3.2954712l2.4113007,11.3331299C202.629837,347.7098999,199.5755005,349.8800659,195.5566559,352.2109985z M280.3541565,357.1943359c-5.54599,4.9029846-12.6191711,7.3946838-21.2998352,7.3946838c-8.7610779,0-15.7538605-2.4916992-20.9783478-7.3946838c-5.3048859-4.9029846-7.8769226-11.493866-7.8769226-19.7726746s2.65242-14.8697205,7.8769226-19.9334412c5.3048706-5.0637207,12.2976227-7.5554199,20.9783478-7.5554199c8.6806641,0,15.8342285,2.4916992,21.2998352,7.5554199s8.2787781,11.7350159,8.2787781,19.9334412C288.6329651,345.6200867,285.900177,352.2109985,280.3541565,357.1943359z"/></svg>