<svg version="1.1" xmlns="http://www.w3.org/2000/svg" width="331px" height="512px"><path d="M308.725769,292.2842712C364.4269714,395.037323,313.0292969,504.4221497,177.3249054,512C51.4282951,510.3526611-14.6730518,390.3864441,2.7546935,296.2319641c8.6599674,59.0203857,66.1654053,102.5723267,112.2543106,63.2487488c37.2094116-38.4779053,33.4039001-55.8140869-5.2464142-137.2271881c61.8317108,39.4640961,121.2171936,36.4610138,177.4395905-6.7738953C282.4404907,245.1722565,298.2333069,270.4510803,308.725769,292.2842712z M87.4320984,226.9192505c-1.8752441-20.0918732-31.2540436-38.687973-53.5783043-11.9881134c-9.6071434,12.1193542-16.4474087,27.3143158-22.5603275,45.2661591c-7.4504828,71.3679199,38.0195999,104.2157898,73.4966202,103.3313904C63.6027031,352.85495,59.5015335,301.81604,75.1314163,268.5094299C82.7418594,247.690506,89.1328201,238.8054962,87.4320984,226.9192505z M194.3297882,236.2356873C66.9134064,231.6190033,23.4230652,88.628006,87.3071671,0c23.7085571,13.0714273,40.1831589,33.0368576,52.3424301,57.1148605c35.2555389-5.8363876,71.6448364-6.0616531,109.3036804-0.0033798C259.417511,35.1566696,277.2207642,14.7046928,301.5534058,0C363.7002563,98.331192,327.1965637,225.6885071,194.3297882,236.2356873z M308.5855713,108.1841431c-3.2989197-28.7330399-45.7298584-5.8750534-95.5479584,21.1188507c-19.344101,10.3797607-21.3339081,6.9942627-37.236969-0.000061c-50.9000854-24.6472015-88.8466339-53.0877762-95.5479507-21.1187897c-2.910347,49.6788177,30.6635513,77.8999176,77.5971909,89.8790436c-2.3744049,10.940567,14.3243713,21.096817,36.5469208,11.450943c24.8419495,9.9991608,38.3208313-1.66716,36.541748-11.4388275C280.7782593,185.7806091,311.2550964,155.5456238,308.5855713,108.1841431z M208.4164886,188.9758148c-18.3952332,11.5416565-9.5994568,11.5416565-28.0170135,0C187.7922668,181.6952362,200.2146454,180.7739716,208.4164886,188.9758148z M99.8311234,131.2675171c6.2731018,30.8298187,43.6663132,52.6183624,67.5533218,26.9454041c-10.6237335-15.0254669-24.0408936-26.3482208-36.1209564-33.5621948c4.6548615,11.2172394,3.9949951,24.9573364-1.875,35.593689c-6.1063538-10.2563324-6.4920959-26.3414001-1.1592102-37.3362122C106.8933182,111.2005234,95.8333817,111.7004929,99.8311234,131.2675171z M261.4537659,122.9000015c5.336853,10.9949875,4.9521484,27.0855484-1.1556091,37.3444138c-5.7461853-10.0921783-6.6008606-23.8673401-1.789978-35.6511841c-12.0710144,7.2112732-25.5550232,18.5556793-36.2060242,33.6196899c23.8646851,25.6729584,61.2802124,3.8844147,67.4863586-26.9454041C293.6907959,112.3392258,283.7749939,111.1392288,261.4537659,122.9000015z"/></svg>