<svg version="1.1" xmlns="http://www.w3.org/2000/svg" width="512px" height="512px"><path d="M467.6877136,171.1025085c-4.0116577,10.7409668-14.0951843,10.7410278-18.1068115,0.0001068c-4.0115967-10.740921,1.0301819-24.2400208,9.0534668-24.2400818C466.6576233,146.8624878,471.6993713,160.3615417,467.6877136,171.1025085z M488.6554565,140.7281647c-7.3264465,0.0000305-11.9303589,12.9281464-8.2671509,23.2147522c3.663208,10.2865906,12.8710022,10.2865295,16.5342407-0.0001068C500.5857849,153.6561584,495.9819031,140.7281189,488.6554565,140.7281647z M494.8858032,187.5176392c7.4603577-7.6156921,11.9989319-19.7892303,11.9623413-34.7390137c-0.092804-37.9211121-27.6644592-54.2151566-45.3240356-34.1164169c-13.1878357-8.5847549-28.3920593-1.9633102-35.5212402,15.8677139c-11.3334656,9.8932343-13.2916565,13.8100281-18.6290283,48.2851257c-7.4418335,14.8829193-11.0715332,32.198349-36.9693604,31.2902374c10.644043-13.736084-7.5495911-31.7024078-26.1695557-24.2424622c-4.6660156-12.2580872-40.1668396-33.8788757-60.4598694-41.6676025c-37.8046875-14.5096893-82.9765167-12.2982178-115.6649017-0.9545135c-45.1325073,15.6620178-73.758194,55.7399445-84.1839447,96.5545044l-58.359272-20.4806213C0.7199896,212.9281616-7.7027307,222.0340271,7.8373771,237.66185c42.4073906,34.6933746,57.0397835,36.9756317,66.2219467,47.8017731c-31.0636978,33.3400574-30.1496925,43.658844-21.3981781,74.6867371c5.9064445,20.9419556,61.0297165,32.4732666,71.4456406,26.6596375c7.7187271-4.3081055,15.674614-13.5693359,15.7111893-15.6695251c0.2096252-12.1231689-25.9418716-35.1539001-11.0542297-55.714386c10.4843445,8.3444519,42.4341278,19.0840759,55.1425476,20.8884888c-6.3437958,10.5067749-7.2172852,23.3827209-5.2358856,33.5622559c2.0514069,19.6960144,30.8800201,26.9263,55.4339752,30.9661865c23.2777252-1.8626404,45.4597321,10.0057068,61.9319305-15.621521c2.7923584-16.2692871-0.0582275-37.2277527-9.2293701-50.0986023c6.6320801,2.083252,12.8673096,1.0583496,19.1418762-1.3556824c0.7004395,24.3695068,13.0875244,45.7299194,33.036438,45.5611877c27.9629822,2.3271179,43.0197449-1.5090332,56.1682434-23.163269c7.5617981-22.2677307-11.1961975-47.4835815-38.4229431-71.2505493c47.5555725,3.0011902,40.9974365-36.9823303,71.9879761-38.0654602c27.8041077-0.414917,38.1464844-2.4922791,42.7932129-10.7372437c-16.9885864-2.0002747-27.7270203-9.2572784-36.0600586-24.0548553c-1.9723511-3.8381195,3.4200439-6.8212433,5.6130371-3.158905c6.8904724,12.2329254,15.9204102,20.5392303,37.5797424,21.3163605c18.7788696,0.3897552,22.2653809-0.8384857,31.8282471-16.3892212C515.4624023,205.6629028,507.6953125,198.9498138,494.8858032,187.5176392z M338.4315186,246.9497986c-6.9903564,34.4511108-26.6938477,81.0226746-45.3323059,76.4243164c-37.872345-10.3954773-74.7473145-9.9549866-99.2509155,1.1389771c-17.8601379-0.2733459-34.3295898-11.6162415-51.6973267-15.6938782c-10.621994-4.7824402-30.1544037-32.9735413-58.9024048-32.45755c-16.4336624-16.1080017-17.808609-19.2704468,0.3838577-19.23349c33.5587311,8.3535156,43.0858154,13.7620544,71.01577,34.2194519c39.9111633,22.4463196,71.5644073-1.1731873,96.5356293-3.0047302c21.9247894-1.9979248,36.1163177,15.6793213,50.5363312,9.1558228c11.6539917-5.1536865,19.0317383-23.210083,26.8381653-53.5851135c11.3287659-47.811615,25.1950073-46.4236908,32.1932373-39.0774078C358.9384766,211.1524506,345.5799561,213.2211609,338.4315186,246.9497986z M467.9776306,175.5623779c-7.9692383,23.5970612-27.9995728,23.5970612-35.9684143,0.0003815c-7.9688721-23.5970612,2.0462952-53.2535629,17.9840088-53.253952C465.9313354,122.3088074,475.9465027,151.9653015,467.9776306,175.5623779z M471.3890381,185.8626709c10.5594788-19.6755676,8.7460022-46.6309509-4.2554016-62.1793137c3.2737427-3.9454956,7.2652588-6.3811493,11.7570496-6.3811493c15.8606262,0,25.8273926,29.656105,17.8970947,53.2535629C491.370575,186.6744232,480.3560791,191.7647858,471.3890381,185.8626709z"/></svg>