<svg xmlns="http://www.w3.org/2000/svg" width="490" height="512"><path d="M205.104 486.668c-.641 17.871-103.067-17.955-157.514-62.433C207.356 603.212 479.462 485.516 490 277.01c-32.478 102.337-163.149 121.458-290.755 36.823C44.54 201.04 82.455 29.796 240.085 13.781c104.997-7.412 213.17 84.438 177.076 156.376-44.044 80.68-192.551 16.031-180.758-67.355 2.698-26.808 29.886-43.467 21.985-16.431-19.25 61.4 96.173 107.697 122.241 49.57 24.814-63.948-116.182-111.916-160.476-69.133C108.662 178.728 370.73 322.64 443.377 213.09 495.075 130.758 374.634-5.624 238.056.18 17.39 3.457-73.14 248.895 66.988 390.456c79.87 78.047 140.09 84.322 138.116 96.21z"/></svg>