<svg xmlns="http://www.w3.org/2000/svg" width="512" height="512"><path d="M454.528.001H57.469C27.102-.228.403 23.534 0 57.471v397.058c.404 33.937 27.102 57.698 57.47 57.47h397.058c39.276-.56 56.791-30.223 57.472-57.47V57.471C511.32 30.224 493.805.56 454.528 0zM170.433 308.45h-48.83v155.887H82.417V308.45h-48.83v-39.185h136.845v39.185zm114.01 149.193c-31.375 13.921-87.05 8.847-106.163-33.191l31.487-18.193c15.744 29.913 56.577 29.842 64.593 10.14 7.829-19.236-15.787-26.758-45.095-39.755-12.747-6.574-32.472-16.927-38.392-42.224-4.467-19.09-.481-47.937 29.388-61.11l.004.002c41.429-15.204 73.237 4.198 82.567 26.59l-30.09 19.592c-4.448-8.028-13.928-16.237-24.873-16.824-9.926-.533-19.154 4.657-19.448 18.08.589 19.56 26.308 19.557 57.15 39.094 22.594 14.313 26.826 25.253 28.915 45.026 1.548 14.655-1.209 39.977-30.044 52.773zm152.738 6.693-37.786-67.173-37.785 67.174h-38.485l54.579-100.06-51.08-95.164.002-.001h39.184l33.586 62.275 33.587-62.275h38.485l-50.38 95.163 54.578 100.06H437.18z"/></svg>