<svg version="1.1" xmlns="http://www.w3.org/2000/svg" width="512px" height="512px"><path d="M454.5278931,0.0014648H57.4691162C27.1020508-0.2275391,0.4030151,23.5335083,0,57.4705811v397.0587769c0.4039917,33.9370728,27.1020508,57.6981201,57.4691162,57.4691162h397.0587769c39.276123-0.5599976,56.7911377-30.2220459,57.4721069-57.4691162V57.4705811C511.3200073,30.2235107,493.8049927,0.5604858,454.5278931,0.0014648z M170.4328003,308.4498596l-48.8304977-0.000061v155.8872375H82.4177322V308.4497986l-48.8294067-0.000061v-39.1846924l136.8444824,0.0001221V308.4498596z M284.4420776,457.6425476c-31.3735962,13.9215393-87.0491028,8.8470764-106.1618958-33.1907654l31.4871826-18.1925049c15.7441254,29.913208,56.5766296,29.8414307,64.5922241,10.1404114c7.8291931-19.2371521-15.7870178-26.7588501-45.0947571-39.7557068c-12.7472687-6.5734863-32.4718781-16.927002-38.3917236-42.2243042c-4.4669342-19.0903625-0.4810791-47.9363403,29.3881531-61.1100159l0.0032501,0.0021057c41.429306-15.204071,73.2378998,4.1980286,82.5671844,26.5895386l-30.0888977,19.5928345c-4.448761-8.0285339-13.9290771-16.23703-24.8741302-16.8241882c-9.9260254-0.5325317-19.1534882,4.6566162-19.4481201,18.0799561c0.5892792,19.5596313,26.3087769,19.5574646,57.1508636,39.094574c22.5940552,14.3126526,26.8252563,25.2522888,28.9145813,45.0251465C316.0342712,419.5251465,313.2774048,444.8471069,284.4420776,457.6425476z M437.1806335,464.3359375l-37.7852783-67.1734009l-37.7851868,67.1744995h-38.4849243l54.5783386-100.0609741l-51.0799866-95.1633606l0.0021057-0.0010681h39.1845703l33.5861816,62.2757568l33.5861816-62.2757568h38.4849243l-50.3803406,95.1633301l54.5783691,100.0609741H437.1806335z"/></svg>