<svg xmlns="http://www.w3.org/2000/svg" width="512" height="512"><path d="M302.164 262.849C344.5 279.578 435.685 312.384 512 320.939v112.306H0v-102.85c50.119-9.772 148.187-31.485 199.164-60.242 16.376-9.24 64.943-21.299 103-7.304zm-42.81-82.76c22.83 0 41.146 6.652 54.076 19.771 13.606 13.806 21.533 34.517 23.71 61.67 44.336 16.083 111.946 38.717 174.86 45.995v-94.19c-64.28-9.967-120.488 21.608-153.579 46.65-2.586-32.397-12.56-57.61-29.799-75.1-17.174-17.427-40.658-26.233-69.513-26.129-27.31.084-50.867 10.163-68.12 29.15-18.625 20.495-28.03 49.507-26.984 82.454C98.628 214.919 33.123 207.038 0 218.698v98.166c53.435-10.534 137.927-30.486 185.312-54.457.565-24.28 7.946-45.277 21.465-60.153 13.118-14.435 31.416-22.1 52.577-22.164z"/></svg>