<svg xmlns="http://www.w3.org/2000/svg" width="512" height="512"><path d="M481.4 510.44a14.116 14.116 0 0 1-6.447 1.56c-5.156 0-10.128-2.821-12.637-7.727l-137.99-269.75-37.039 53.202a14.166 14.166 0 0 1-11.652 6.08c-2.797 0-5.621-.825-8.09-2.544-6.43-4.476-8.012-13.314-3.537-19.743l45.68-65.612-81.474-159.27-91.336 198.379c-3.276 7.114-11.698 10.226-18.814 6.951-7.115-3.276-10.227-11.699-6.952-18.814L214.66 8.25a14.183 14.183 0 0 1 25.509-.527l247.399 483.632c3.568 6.974.806 15.518-6.168 19.085zM152.158 348.335c-4.242-7.767-15.185-5.622-22.74-6.04-20.173-1.116-39.992-.77-60.169-1.082-10.294-.16-50.147-10.318-46.087 13.418 2.502 14.626 34.395 11.432 44.906 11.393-3.467 25.441-5.498 51.16-8.593 76.659-.994 8.182-7.702 25.688-1.522 32.167 9.555 10.015 21.297-3.01 24.266-11.777 2.99-8.83 2.606-19.235 3.981-28.447 2.126-14.239 3.399-28.566 4.86-42.882.633-6.209.65-12.909 2.066-18.983 1.554-6.674-.466-5.858 6.199-7.048 12.13-2.167 26.438 1.866 38.854 1.866 9.124 0 18.994-10.062 13.98-19.244zm126.873 10.457c6.842-6.473 6.536-19.301-4.49-20.48-4.748-.507-8.335 2.62-11.97 5.332-17.369 12.955-31.416 31.075-46.141 46.817-5.77-9.325-42.597-78.003-56.107-42.85-4.06 10.567 11.52 24.826 16.828 33.39 3.079 4.968 6.382 9.75 9.614 14.622 1.494 2.251 7.095 8.692 7.523 11.716.682 4.826-3.065 6.58-7.028 10.277-11.989 11.184-24.025 22.314-36.238 33.252-7.057 6.32-29.818 23.605-12.045 31.738 12.538 5.738 26.826-13.668 34.793-20.936 11.395-10.396 22.847-20.724 34.073-31.304 8.357 14.856 15.905 39.893 29.573 50.567 5.872 4.587 12.085 5.415 18.161.324 8.698-7.289 4.695-14.47-.202-22.616-5.836-9.708-11.571-19.389-16.953-29.362-2.076-3.845-6.334-9.04-7.25-13.401-3.712-3.465-3.168-6.35 1.635-8.655 2.464-2.56 4.918-5.13 7.36-7.71 12.92-13.67 25.226-27.735 38.864-40.721 2.709-2.562-9.677 9.215 0 0zm83.246 115.05c7.257-3.014 13.773-12.2 8.26-19.86-5.075-7.05-14.086-3.134-20.78-1.35-16.078 4.282-32.757 8.117-49.474 8.397 8.341-35.238 18.16-70.633 22.984-106.592 1.144-8.528 1.427-17.915-9.59-18.252-6.113-.186-11.312 4.028-13.948 9.234-4.297 8.488-4.323 21.89-6.1 31.173a1625.111 1625.111 0 0 1-5.255 26.315c-3.646 17.476-7.708 34.853-11.846 52.218-1.69 7.089-5.546 16.773-1.316 23.624 6.861 11.114 26.714 6.964 37.313 5.725 16.556-1.936 34.208-4.273 49.752-10.631 5.729-2.38-7.76 3.174 0 0z"/></svg>