<svg xmlns="http://www.w3.org/2000/svg" width="512" height="512"><path d="M374.834 462.805H137.678v26.332h237.156v-26.332zm43.772-41.448V397.23H94.258v24.128h324.348zm15.646-32.483v-24.123H78.463v24.123h355.789zm-31.446 64.956v-24.123H109.909v24.123h292.897zm-62.337-165.973-36.334.021c-32.635-1.272-31.135-44.606 0-44.63h104.109l.042-44.24H104.584l.032 44.24h104.108c30.058.41 33.575 42.97 0 44.63l-36.323-.021c-32.278 0-32.278 44.62 0 44.62h168.068c31.31 0 31.31-44.62 0-44.62zM109.482 23.947l.102 156.886h293.713l.112-156.886H109.482zM457.614 158.85h38.522c8.756 0 15.864 7.119 15.864 15.902v42.854c0 8.783-7.108 15.902-15.864 15.902h-38.522l-.01 231.795c0 23.62-19.094 42.758-42.648 42.758H97.044c-23.56 0-42.652-19.138-42.652-42.758v-231.8H15.859C7.097 233.503 0 226.383 0 217.6v-42.855c0-8.782 7.102-15.902 15.86-15.902h38.52l-.02-28.124h33.014V3.94H424.62v126.78h33.015l-.021 28.13z"/></svg>