<svg version="1.1" xmlns="http://www.w3.org/2000/svg" width="395px" height="512px"><path fill-rule="evenodd" d="m79.715473 408.79369c-21.242049-12.24628-21.242053-43.0282-4e-6 -55.27448 21.242041-12.24627 47.938781 3.14468 47.938781 27.63724s-26.69672 39.88354-47.938777 27.63724zm5.980535-10.33719c-13.301628-7.66853-13.301632-26.94396-5e-6 -34.6125 13.301624-7.66854 30.018937 1.96917 30.018937 17.30625 0 15.33707-16.717305 24.97479-30.018932 17.30625zm288.0843-140.31929c-56.3946 27.62368-46.40634 93.8933 0 112.98672 11.71527-38.03352 11.05542-78.03769 0-112.98672zm-105.91136 146.81909c24.62653 0.75371 49.24615 11.28924 67.78082 33.02206-44.35416 44.68864-105.46104 69.25448-166.69277 59.73833 4.84884-59.99013 51.89765-94.19928 98.91195-92.76039zm-196.0953-226.56095v38.9058c0 69.25381 56.341952 125.61201 125.59578 125.61201 69.25797 0 125.60389-56.35404 125.60389-125.61201v-38.89769c20.40579 18.8305 36.57221 42.17931 46.93205 68.43006-69.41725 28.69812-55.94409 112.95538 0 135.5941-6.60834 16.72536-15.57881 32.27324-26.49717 46.22601-72.49189-79.38949-192.06454-14.91711-186.35667 66.91244-82.902716-18.4646-145.08925-92.55136-145.08926-180.9355 0-53.81551 23.068851-102.33333 59.81138-136.23522zm59.811372-161.791v203.60215c3.90113 85.39273 126.39171 88.91489 131.5688 0v-203.59403c16.99852 6.4827 33.0854 15.49515 47.85722 26.99222v173.69646c0 62.67206-50.98202 113.64973-113.64162 113.64973s-113.64162-50.98182-113.64162-113.64973v-173.70458c14.76883-11.49736 30.857287-20.50829 47.857217-26.99222zm119.60652-16.60435v220.2065c-1.01914 69.54946-104.2471 72.73183-107.64424 0v-220.2065c-24.65909 6.03748-72.083655 31.68267-71.773652 40.69933v121.83017c-43.800522 36.22889-71.773655 90.9552-71.773655 152.10107 0 108.82327 88.542004 197.36943 197.36943 197.36943 108.82327 0 197.36943-88.54616 197.36943-197.36943 0-61.14176-27.97009-115.86401-71.76554-152.09295v-121.83017c2.2869-8.35321-51.97678-36.77094-71.78177-40.70745z"/></svg>