<svg xmlns="http://www.w3.org/2000/svg" width="512" height="512"><path d="M284.002 327.455V202.47c0-27.474-16.64-37.147-16.64-37.147s20.51-1.161 29.022 8.126c32.117-38.696 96.352-56.495 96.352-56.495l-44.5 59.977v150.525c16.252 27.86 56.882-12.382 69.652-29.021-7.352 20.895-41.017 73.908-92.482 103.703l-34.44-29.795-37.92 38.695c-40.028-5.088-83.582-15.865-118.795-53.786 17.022 4.99 25.457-1.25 25.457-10.061V221.785c-5.234-31.656-42.402-5.584-68.409 24.41-21.652 24.971-33.366 52.14-32.92 55.81-8.445-78.41 103.139-180.344 170.089-197.232-44.3 30.753-26.694 77.188-6.96 70.223v156.716c20.446 27.465 41.431 14.508 62.494-4.257z"/><path d="M482.006 256c0 124.82-101.187 226.006-226.006 226.006S29.994 380.819 29.994 256 131.181 29.994 256 29.994 482.006 131.181 482.006 256zM256 0C114.615 0 0 114.615 0 256s114.615 256 256 256 256-114.615 256-256S397.385 0 256 0z"/></svg>