<svg xmlns="http://www.w3.org/2000/svg" width="512" height="512"><path d="M182.847 333.44c-23.663-2.15-109.708-189.299-32.267-277.495 71.876-72.786 211.444-34.51 268.892 32.267C264.053 47.216 221.823 339.47 182.847 333.44zm73.138 139.824C51.53 474.744-63.574 207.681 118.313 62.398c-92.5 103.254 10.755 326.972 68.836 333.426 73.139 4.302 101.103-228.02 187.149-258.136 126.127-41.076 153.569 320.597-118.313 335.576zm8.605-434.529c-87.847 1.385-90.397 37.97-2.151 38.72 87.195-.936 89.276-37.718 2.15-38.72zM512 256C512 59.662 297.992-63.716 127.711 34.453s-170.281 344.925 0 443.094S512 452.338 512 256z"/></svg>