<svg version="1.1" xmlns="http://www.w3.org/2000/svg" width="512px" height="512px"><path d="M256.4324951,176.5348816l0.0531921-75.524231c28.5213013,0,49.6716003,18.3731537,52.5561829,48.3899231l-27.2608948,36.4028015c3.8482361,3.2377014,7.0827026,7.1837616,9.4727173,11.6542053l67.9926453-39.296936c14.3143616,24.6762543,8.6526489,52.1296539-15.9161682,69.6476746l-47.8985291-5.6553345c-0.8275146,5.3458252-2.7282104,10.3374481-5.471344,14.7493896l69.2860413,40.0446777c-14.3143311,24.6752014-40.8062134,33.6490784-68.2585754,21.0439758l-19.4814758-45.4160309c-4.6289368,1.920929-9.7003174,2.9909363-15.0216675,3.0058289v80.5467377c-28.5212708,0-49.4577942-18.4795532-52.3423767-48.6036987l29.3647614-39.2533722c-4.2460175-3.0228424-7.8793793-6.8497772-10.6512146-11.2787476l-69.1339417,39.9564362c-14.3143463-24.6762848-8.6526489-52.1296844,15.9161835-69.6477051l47.3529053,5.5915222c0.4435425-5.5808716,2.0517426-10.8330841,4.5715027-15.5205078l-67.8395233-39.2097168c14.4196625-24.6762543,40.9125977-33.6490631,68.2585907-21.0439606l18.3646698,42.8122253c4.9001465-2.178299,10.3757324-3.394043,16.0852814-3.394043L256.4324951,176.5348816z M209.3271484,402.4519958v69.6063538h96.3140259v-71.103363C282.000061,406.4969788,253.4256287,412.3592224,209.3271484,402.4519958z M168.5081787,48.1121674L0,48.1121826l53.6310425,100.3300171l26.8328171-0.0000153C93.9998703,103.9965973,128.4165039,70.8437042,168.5081787,48.1121674z M433.0512085,148.443161l34.3144531,0.0000153L512,48.1121826l-167.9939575-0.0000153C385.6191711,70.806015,416.0178528,105.3162994,433.0512085,148.443161z M434.546936,218.0086212c0,136.5678864-148.8579712,222.3861237-267.3013306,154.1022491s-118.4434204-239.9205475-0.000061-308.2044678S434.546936,81.4407501,434.546936,218.0086212z M393.3319702,218.0086212c0-104.9581909-114.4036865-170.913208-205.4324341-118.434082c-91.0287476,52.4790649-91.0286865,184.3891144,0.000061,236.8681793S393.3319702,322.9668274,393.3319702,218.0086212z"/></svg>