<svg xmlns="http://www.w3.org/2000/svg" width="512" height="512"><path d="m256.432 176.535.054-75.524c28.521 0 49.671 18.373 52.556 48.39l-27.261 36.402a39.74 39.74 0 0 1 9.473 11.655l67.992-39.297c14.315 24.676 8.653 52.13-15.916 69.647l-47.898-5.655a39.29 39.29 0 0 1-5.472 14.75l69.286 40.044c-14.314 24.675-40.806 33.65-68.258 21.044l-19.482-45.416a39.387 39.387 0 0 1-15.021 3.006v80.547c-28.522 0-49.458-18.48-52.343-48.604l29.365-39.254a39.759 39.759 0 0 1-10.651-11.278l-69.134 39.956c-14.314-24.676-8.653-52.13 15.916-69.648l47.353 5.592a39.3 39.3 0 0 1 4.571-15.52l-67.84-39.21c14.42-24.676 40.914-33.65 68.26-21.044l18.364 42.812a39.615 39.615 0 0 1 16.085-3.394l.001-.001zm-47.105 225.917v69.606h96.314v-71.103c-23.64 5.542-52.215 11.404-96.314 1.497zm-40.819-354.34H0l53.631 100.33h26.833C94 103.997 128.417 70.844 168.508 48.112zm264.543 100.331h34.315L512 48.113H344.006c41.613 22.693 72.012 57.203 89.045 100.33zm1.496 69.566c0 136.568-148.858 222.386-267.301 154.102s-118.444-239.92 0-308.205 267.3 17.535 267.3 154.103zm-41.215 0c0-104.959-114.404-170.914-205.432-118.434-91.03 52.479-91.03 184.389 0 236.868s205.432-13.476 205.432-118.434z"/></svg>