<svg version="1.1" xmlns="http://www.w3.org/2000/svg" width="512px" height="512px"><path d="M510.4569397,468.7502136c-3.8006897-26.9465942-33.7511292-40.6468811-56.3921509-27.6358948l-22.5231323-22.7742615L319.41922,110.2847748l0.6298523-35.6119461c23.775238-5.6634827,36.9967346-33.4051666,23.9266663-55.8965149c-14.6066589-25.1355419-51.1828613-25.0094814-65.6791992,0.2264252c-12.5497437,21.8470402-0.4685059,48.4399414,21.8826599,55.1274643l-0.6039429,34.144989L96.4881592,350.7257385l-24.6376953,6.8389282c-10.8709145-18.4612427-36.5358467-25.2772522-55.46418-11.1834717c-23.3636303,17.3962097-19.0927773,53.7146606,7.669096,65.2163086c25.3778496,10.9068604,53.0742073-8.1949463,52.9753838-34.8416748l30.1549301-8.3704224l306.5500488,60.2149048l26.2261963,26.5185547c-10.9411621,18.9629822-3.5753784,45.1257629,18.6915588,54.0931702C485.6713562,520.0927734,514.5203247,497.559967,510.4569397,468.7502136z M398.0691223,384.4941711l-82.0330505-82.947876l2.4026489-135.8357239L398.0691223,384.4941711z M299.0158691,139.8963013l-2.7484131,155.3748474l-165.9948425,46.0766602L299.0158691,139.8963013z M149.9166107,356.5240784l151.0671539-41.9334106l87.8910522,88.8714294L149.9166107,356.5240784z"/></svg>