<svg xmlns="http://www.w3.org/2000/svg" width="512" height="512"><path d="M378.04 424.23H133.96c-26.104 0-47.462-21.357-47.462-47.461v-244.08c0-26.105 21.358-47.462 47.462-47.462h244.08c26.104 0 47.462 21.357 47.462 47.461v244.08c0 26.105-21.358 47.462-47.462 47.462zm-39.847-253.059H177.9v160.294h160.294V171.17zM182.351 0H152.5v71.768h29.85V0zm59.879 0h-29.851v71.768h29.85V0zm59.88 0h-29.851v71.768h29.85V0zm59.879 0h-29.851v71.768h29.85V0zM73.039 329.684H0v29.851h73.04v-29.85zm0-59.878H0v29.85h73.04v-29.85zm0-59.88H0v29.85h73.04v-29.85zm0-59.88H0v29.851h73.04v-29.85zM512 329.684h-73.04v29.851H512v-29.85zm0-59.878h-73.04v29.85H512v-29.85zm0-59.88h-73.04v29.85H512v-29.85zm0-59.88h-73.04v29.851H512v-29.85zM182.35 440.232H152.5V512h29.85v-71.768zm59.88 0h-29.851V512h29.85v-71.768zm59.879 0h-29.851V512h29.85v-71.768zm59.88 0h-29.851V512h29.85v-71.768zM151.55 128.902c0-12.272-13.376-19.983-24.018-13.847-10.643 6.135-10.643 21.557 0 27.693s24.018-1.576 24.018-13.847z"/></svg>