<svg xmlns="http://www.w3.org/2000/svg" width="512" height="512"><path d="M292.571 384H219.43v-73.143h73.142V384zm73.143-62.407-41.927-41.951a18.227 18.227 0 0 0-12.93-5.356H201.143c-10.1 0-18.286 8.186-18.286 18.285v109.715c0 4.76 1.819 9.094 4.798 12.347l42.52 42.51H164.57c-10.099 0-18.285-8.186-18.285-18.286V256c0-10.1 8.186-18.286 18.285-18.286h182.86c10.099 0 18.285 8.187 18.285 18.286v65.593zM475.43 384l-36.572-36.571.047-73.191 36.525-36.525V384zM274.244 96.35c-24.325 14.025-24.325 49.275 0 63.3 24.326 14.024 54.899-3.602 54.899-31.65s-30.573-45.674-54.899-31.65zM475.43 201.143l-73.143 73.143v-36.572c0-17.5-12.295-32.12-28.715-35.716 17.834-19.51 28.715-45.482 28.715-73.997 0-60.594-49.12-109.715-109.715-109.715-57.784 0-105.134 44.673-109.4 101.367-19.448-17.542-45.204-28.224-73.457-28.224C49.121 91.429 0 140.549 0 201.144c0 60.593 49.121 109.713 109.714 109.713H73.143V384h36.571v73.143c0 20.198 16.373 36.571 36.572 36.571h219.428c20.199 0 36.572-16.373 36.572-36.571V420.57l73.143 73.143H512v-292.57h-36.571zm-329.144 0c0-28.048-30.135-44.886-54.899-31.65-27.322 14.605-25.533 65.4 18.328 68.221v36.57C29.015 271.71 12.667 172 73.06 137.845c48.882-27.646 109.797 7.202 109.797 63.299h-36.572zm109.633-9.844c-48.652-28.048-48.652-98.55 0-126.598C304.57 36.652 365.715 71.903 365.715 128s-61.145 91.348-109.797 63.3z"/></svg>