<svg xmlns="http://www.w3.org/2000/svg" width="510" height="512"><path d="M493.89 58.275 355.178 83.558 379.282 0 186.79 37.718l-2.999 50.64L15.145 58.214C3.53 57.538-3.238 65.879 1.558 77.46l244.056 427.983c5.253 8.575 17.347 8.91 22.65 0L507.575 77.419c5.4-9.676-2.874-21.018-13.685-19.144zm-237 435.435L17.87 74.556l164.993 29.491-7.778 131.365 67.632-15.608-18.858 92.344 51.374-15.608-25.495 123.397c-1.27 8.069 9.241 12.362 14.44.812l150.22-299.792-74.135 14.308 10.086-34.962 140.91-25.684L256.89 493.71z"/></svg>