<svg version="1.1" xmlns="http://www.w3.org/2000/svg" width="512px" height="512px"><path d="M118.9127808,8.3083162c-20.4592285,0-36.8681564,16.0765915-36.8681564,35.8296165v122.5476608H36.8681526C16.408926,166.6855927,0,182.8244934,0,202.515213v265.3468628c0,19.7530518,16.408926,35.8296204,36.8681526,35.8296204h274.1744385c20.4592285-0.0000305,37.3874207-16.0765991,37.3874207-35.8296204v-43.6186523h126.7018127C495.570282,424.2434387,512,408.1044922,512,388.4137878V123.0669403c0-19.7114868-16.429718-35.3103485-36.8681641-35.3103485h-45.1764526v-43.61866c0-19.7530231-16.45047-35.8296165-36.8681641-35.8296165H118.9127808z M118.9127808,28.5598373h274.1744385c8.9522095,0.0000019,16.0973511,6.8959007,16.0973511,15.5780945v43.61866H200.9573975c-20.4176788,0-37.3874207,15.5988617-37.3874207,35.3103485v43.6186523h-60.7545624V44.1379318C102.8154144,35.4557381,109.8982544,28.5598373,118.9127808,28.5598373z M200.9573975,107.4888458h208.2271729v201.4766693c0,8.6822205-7.1451416,16.0973511-16.0973511,16.0973511h-44.657196V202.515213c0.0000305-19.6907196-16.9281921-35.8296204-37.3874207-35.8296204h-126.701828v-43.6186523C184.3407745,114.4055099,192.0052032,107.4888458,200.9573975,107.4888458z M429.9553833,107.4888458h45.1764526c8.9729919,0,16.0973816,6.9166718,16.0973816,15.5780945v265.3468628c0,8.6614075-7.1243896,15.5780945-16.0973816,15.5780945H348.4300232v-58.6774902h44.657196c20.4176636-0.0000305,36.8681641-16.5958557,36.8681641-36.348877V107.4888458z M36.8681526,186.9371185h45.1764717v122.0283966c0,19.7530518,16.4089279,36.348877,36.8681564,36.348877h44.657196v43.0993958c0,19.6907043,16.9697418,35.8296204,37.3874207,35.8296204h126.7018433v43.6186523c0.0000305,8.6614685-7.6021423,15.5780945-16.6166382,15.5780945H36.8681526c-9.0768337-0.0000305-16.0973606-6.9166565-16.0973606-15.5780945V202.515213C20.7707939,193.8745575,27.7913189,186.9371185,36.8681526,186.9371185z M102.8154144,186.9371185h60.7545624v138.1257477h-44.657196c-9.0145264,0-16.0973663-7.4151611-16.0973663-16.0973511V186.9371185z M184.3407745,186.9371185h126.701828c9.0144958,0,16.6166382,6.937439,16.6166382,15.5780945v122.5476532H184.3407745V186.9371185z M184.3407745,345.3143921h143.3184662v58.6774902H200.9573975c-8.9521942,0-16.6166229-6.916687-16.6166229-15.5780945V345.3143921z"/></svg>