<svg xmlns="http://www.w3.org/2000/svg" width="512" height="512"><path d="M118.913 8.308c-20.46 0-36.868 16.077-36.868 35.83v122.548H36.868C16.408 166.686 0 182.824 0 202.516v265.346c0 19.753 16.409 35.83 36.868 35.83h274.175c20.459 0 37.387-16.077 37.387-35.83v-43.619h126.702c20.438 0 36.868-16.139 36.868-35.83V123.068c0-19.712-16.43-35.31-36.868-35.31h-45.177v-43.62c0-19.752-16.45-35.829-36.868-35.829H118.913zm0 20.252h274.174c8.952 0 16.098 6.896 16.098 15.578v43.619H200.957c-20.417 0-37.387 15.598-37.387 35.31v43.619h-60.755V44.138c0-8.682 7.083-15.578 16.098-15.578zm82.044 78.929h208.228v201.477c0 8.682-7.146 16.097-16.098 16.097H348.43V202.515c0-19.69-16.928-35.83-37.387-35.83H184.34v-43.618c0-8.661 7.664-15.578 16.616-15.578zm228.998 0h45.177c8.973 0 16.097 6.917 16.097 15.578v265.347c0 8.661-7.124 15.578-16.097 15.578H348.43v-58.678h44.657c20.418 0 36.868-16.595 36.868-36.348V107.489zM36.868 186.937h45.177v122.029c0 19.753 16.409 36.348 36.868 36.348h44.657v43.1c0 19.69 16.97 35.83 37.387 35.83H327.66v43.618c0 8.662-7.602 15.578-16.616 15.578H36.868c-9.077 0-16.097-6.917-16.097-15.578V202.515c0-8.64 7.02-15.578 16.097-15.578zm65.947 0h60.755v138.126h-44.657c-9.015 0-16.098-7.415-16.098-16.097V186.937zm81.526 0h126.702c9.014 0 16.616 6.938 16.616 15.578v122.548H184.341V186.937zm0 158.377h143.318v58.678H200.957c-8.952 0-16.616-6.917-16.616-15.578v-43.1z"/></svg>