<svg version="1.1" xmlns="http://www.w3.org/2000/svg" width="512px" height="512px"><path d="M212.1440277,306.7405701l48.3848114-192.8371277l47.8457642,189.4749146l28.2218323-163.118103c3.3505554-23.2881622-0.6054688-26.5026932-11.6362305-35.9091568l109.1490784,0.1842499c-12.3432617,10.6467209-22.0771484,25.9615402-30.6175537,48.6248093c-15.7217407,71.423996-30.2530212,147.8040161-42.0431824,227.6177063c-2.3466492,12.9977417,0.9198608,26.2226562,13.0315247,39.8054504H273.1235962c4.470459-13.1298523,4.737915-27.6260681,2.4144287-42.9646301l-14.5508728-81.2958069c0,0-18.9549713,80.2427368-20.2186432,94.3536682c-1.4898682,16.6368713,6.4686279,29.9067688,6.4686279,29.9067688H144.2218933c21.1186981-17.1608276,20.7266998-22.956604,14.5400085-51.8102722c-14.6965179-70.7435913-33.1136093-145.6206512-55.5222778-224.9324188c-2.3167191-24.8520584-24.088623-40.4372711-24.088623-40.4372711l103.3572845-0.0000153c0,0-7.7662811,24.6414795-0.8161316,58.1286011C188.4772034,204.8533325,199.3845825,254.3988647,212.1440277,306.7405701z M115.0701141,81.4654922V45.169426c3.1176529-8.5297203,13.6475983-18.6390514,25.9420166-28.5640697l-0.0000153-5.3260736H0v5.0891161c13.5703583,11.328474,25.8580761,23.179533,25.8869591,30.6965504v417.9565125c0,6.2966614-14.2841749,21.9258728-25.8869591,29.6370544v6.0621948h140.3724213v-5.393219c-5.0540619-3.8036804-27.7766266-21.0841675-26.0368195-32.5366821V264.2308044l-32.531456-126.1819763c-1.9458008-8.671463-7.3285446-17.3984146-18.6390686-26.2210617c-12.6366463-11.6888962,0.3660774-31.8587799,11.5492783-30.3622742H115.0701141z M435.0215149,80.3335266c15.8583069,0,26.5757446,19.7013245,13.6893005,32.5877838c-13.9071655,12.8864594-20.8925781,27.180954-22.8383789,35.852417c-9.1087036,38.3741302-18.1123352,86.4005585-27.0760498,138.0978241l0.9775085,174.3596191c1.7398071,11.4525146-21.9602661,30.2926025-27.0143127,34.0963135v5.393219H512v-6.0622253c-11.6027832-7.7111816-25.8869629-23.3403931-25.8869629-29.6370544l-0.000061-417.9563904c0.0289001-7.5170174,12.3166199-19.3680725,25.8869629-30.6965446v-5.0891142l-139.8800964-0.000001v5.3260727c12.2944031,9.9250164,22.8243408,20.0343437,25.9420166,28.564064v35.1640167H435.0215149z M300.5703735,46.7490196c1.2636719-8.2138252,14.4798584-21.3506794,26.7742615-31.2756996v-4.1940384H186.3325195v5.0891161c13.5703583,11.328474,27.0449524,22.7986279,27.0449524,33.5397797L212.429718,222.714386l29.1605835-117.5864639c5.8021698-18.5384979,29.3120728-18.7901154,35.4344177-0.3792496l29.2321167,117.9657135C306.4688721,179.6889191,303.8507996,115.5004578,300.5703735,46.7490196z M214.6985168,434.0946045v30.9275818c-4.1069183,11.6889038-16.2696991,22.4300537-26.536972,30.0120544v5.054657h141.0302887v-5.054657c-11.0273743-6.9856262-20.3473511-15.1329651-28.2481689-28.4324951v-32.5071411H214.6985168z"/></svg>