<svg xmlns="http://www.w3.org/2000/svg" width="512" height="512"><path d="M492.784 351.932c-30.597 75.382-96.33 136.816-187.153 154.837-127.539 25.304-241.804-47.441-286.108-153.433 17.22-16.146 48.53-49.366 81.291-80.98 48.267 45.898 102.808 90.765 155.494 90.765 52.078 0 107.647-43.654 156.404-91.131 28.291 27.003 57.194 58.094 80.072 79.942zm-65.348-93.516c26.656 26.925 51.685 54.184 72.469 73.73 15.015-47.609 16.463-99.514 2.021-148.91-21.037 19.988-47.184 47.598-74.49 75.18zm-214.11-31.403v59.445l37.49 20.073c3.653 1.915 9.009 1.937 12.682.06l35.459-19.3v-59.279l-37.458-18.662c-3.673-1.878-9.03-1.856-12.683.06l-35.49 17.603zm-113.03 17.928c48.155-46.202 103.502-93.23 156.012-93.23 51.962 0 107.4 45.12 156.079 92.77 28.285-28.57 58.943-60.279 82.401-82.169-10.36-26.451-25.533-51.87-45.904-75.15C322.43-57.356 87.828-14.452 18.324 161.647c16.779 16.098 48.348 50.878 81.973 83.294zm155.013-73.237c46.409 0 92.806 39.269 143.107 86.712-45.56 44.92-92.387 84.712-142.108 84.712-48.28 0-97.938-42.848-141.994-84.75 43.895-42.203 92.723-86.674 140.995-86.674zm9.979 17.65c-6.737-2.079-17.143-1.657-20.12 0 0 0-35.46 17.94-43.974 22.124-8.514 4.184-7.24 15.114-7.24 15.114l.138 62.457c0 6.298 1.644 9.558 6.569 13.004l45.272 22.798c6.044 2.619 17.642 2.333 21.537.453l42.978-21.779c5.476-4.144 8.24-7.873 8.375-11.198v-65.553c.066-5.899-3.017-11.342-10.833-15.569l-42.702-21.85zm-179.39 69.573c-32.322-31.601-59.393-61.628-74.785-76.586-15.81 52.17-14.068 104.035.9 150.651 15.535-14.65 42.188-43.075 73.884-74.065z"/></svg>