<svg version="1.1" xmlns="http://www.w3.org/2000/svg" width="512px" height="512px"><path d="M380.1212158,196.5252533l32.3232422-55.5959625l-60.7676697,36.2020264c-7.1789856,8.1586761-6.0070496,18.9196014,0.259552,24.9963074C357.644989,207.6632843,374.2519531,208.7012177,380.1212158,196.5252533z M107.3131409,310.3030396c0,12.9292908,18.1010056,64.6464844,151.2727356,64.6464844c129.3740845,4.8244324,149.4670715-94.524231,113.777771-156.4444733c-23.3190613,7.1300201-44.5894165-13.3806763-37.4949646-36.2020111c-14.222229-9.0505066-31.0302734-12.9292908-46.5454407-11.6363525c-87.9192047,0-102.1414185,41.3737488-102.1414185,93.0909119c4.2397461,61.8101196-45.5417175,64.0888367-64.6464691,46.5454407c26.2895966,0.5954895,43.3091278-19.2002563,40.0808105-49.1313171c-26.0167694-1.0696411-36.3919907-0.0394897-50.4242401,16.808075c-12.8360214-12.182373-18.905777-16.9963074-51.7171783-15.5151367C57.4344406,292.9554138,77.4489746,312.6112976,107.3131409,310.3030396z M142.9373932,451.2520142C-7.1337628,364.734314-7.1338167,147.2657013,142.9373474,60.7479973S481.6159973,82.9645844,481.6159973,256S293.0085754,537.7697144,142.9373932,451.2520142z M512,256C512,59.6616783,297.9924927-63.7160034,127.7110519,34.4531555s-170.2813721,344.9245605,0.000061,443.093689S512,452.3383179,512,256z"/></svg>