<svg xmlns="http://www.w3.org/2000/svg" width="512" height="512"><path d="m380.121 196.525 32.323-55.596-60.767 36.202c-7.18 8.159-6.007 18.92.26 24.997 5.708 5.535 22.315 6.573 28.184-5.603zM107.313 310.303c0 12.93 18.101 64.647 151.273 64.647 129.374 4.824 149.467-94.525 113.778-156.445-23.32 7.13-44.59-13.38-37.495-36.202-14.223-9.05-31.03-12.93-46.546-11.636-87.919 0-102.141 41.373-102.141 93.09 4.24 61.81-45.542 64.09-64.647 46.546 26.29.596 43.31-19.2 40.081-49.131-26.017-1.07-36.392-.04-50.424 16.808-12.836-12.183-18.906-16.997-51.717-15.515-2.04 30.49 17.974 50.146 47.838 47.838zm35.624 140.949c-150.07-86.518-150.07-303.986 0-390.504S481.616 82.965 481.616 256 293.009 537.77 142.937 451.252zM512 256C512 59.662 297.992-63.716 127.711 34.453s-170.281 344.925 0 443.094S512 452.338 512 256z"/></svg>