<svg xmlns="http://www.w3.org/2000/svg" width="302" height="512"><path d="M0 48.74C13.706 5.565 150.764-14.994 170.638 12.418c0 0 94.44 200.134 15.954 313.503-7.962 31.183 13.355 123.045 34.757 121.657 21.403-1.387 55.123-7.201 76.634 6.752 14.685 9.525-15.936 35.95-88.284 49.442-96.907 18.073-129.64 3.353-112.874-15.14 9.099-10.037 55.412-22.528 62.163-29.76 19.188-20.56 1.46-108.545-23.21-124.307C35.78 295.032 0 48.74 0 48.74zm159.962 273.136c82.09-52.888 17.728-251.873 17.728-251.873-56.685-35.755-35.78 113.919-147.405 51.13 0 0 33.958 175.058 129.677 200.743z"/></svg>