<svg version="1.1" xmlns="http://www.w3.org/2000/svg" width="512px" height="512px"><path d="M507.5220642,65.8525391c5.5254822-9.8598747,7.7204285-17.5728226-4.0679321-16.2716789h-74.239563c-20.5299683-1.1490669-49.2863464,26.2208824-77.2904663,58.9848442c-11.5109863-31.2486725-26.4667053-57.0888062-57.967865-56.9508858h-85.1164856c0,0-26.8477325-0.404892-48.2162933,56.030056c-7.6476593-16.7041321-52.6197281-52.7081108-67.4756775-58.0562553c-14.855957-5.3482094-76.1725235-3.9673042-86.9969254-1.0247383C-4.6735549,51.506443,2.0829322,60.767643,2.0829322,60.767643C21.134922,82.4641266,79.964592,225.6756439,152.4616699,260.1414795L52.9319382,445.1861267c-7.2722397,9.9501953-5.4621086,16.9174194,5.5933914,20.8480835l88.9858856-1.5254517c20.2584076-2.7384338,34.6078033-12.9460754,44.7471161-28.4754639l64.4656982-97.1641235l73.8434753,106.8254395c10.7620239,11.671936,30.4800415,16.6562805,39.1537476,16.7801819h80.8499146c11.9613037-0.6691895,14.8203125-2.6055908,12.2037659-13.2207336L360.8450623,260.1808472C440.9098511,218.3995667,478.5037231,102.0125656,507.5220642,65.8525391z M294.7578735,98.3146515l28.7632751-0.2765884c-7.0490417,9.2713165-16.8968811,13.6332703-29.5929871,12.9988327L294.7578735,98.3146515z M308.0628052,119.3997345c11.6074829,2.1773453,14.8789062,7.4326324,12.2205811,30.8423615c-2.6583557,23.4097137-29.5610352,15.0714569-30.8196411,1.8561249C288.2051697,138.8828735,296.4553528,117.2223892,308.0628052,119.3997345z M277.2441406,164.5966949c-0.9208984,9.7557831-1.7458191,20.1736145-21.5314941,21.9194489c-22.2420349,1.9625092-23.4712372-20.1736298-23.4712372-20.1736298C252.6090088,180.5028381,264.4549255,177.7066345,277.2441406,164.5966949z M215.6738892,98.3146515l0.8297119,12.7222443c-12.696167,0.6344376-22.5439453-3.7275162-29.5930328-12.9988327L215.6738892,98.3146515z M220.9679718,152.0982208c-1.2586212,13.215332-28.1613007,21.5535889-30.8195648-1.8561249c-2.6583405-23.409729,0.6130829-28.6650162,12.22052-30.8423615C213.9764252,117.2223892,222.2266083,138.8828735,220.9679718,152.0982208z M333.8746338,255.8570099c0,0,94.5898743,164.7053375,99.4078674,179.159317c-30.5093994,11.5257568-78.7732544,9.2146912-97.0788879-9.0909424c-18.3056641-18.3056335-75.8077393-124.1334534-75.8077393-124.1334534l-84.1143188,124.1334534c-9.6190948,14.7333069-18.8172302,15.2827759-35.9201813,17.6881714l-66.4155502-0.0295715l59.0483475-106.9895935c65.764679-93.5621796,123.3771057-116.5853729,191.5912476-140.3418884c48.0384216-16.7300262,85.9229126-30.0153198,130.5349731-71.9781647C435.79776,162.411087,381.3479309,231.0835114,333.8746338,255.8570099z"/></svg>