<svg xmlns="http://www.w3.org/2000/svg" width="512" height="512"><path d="M127.711 477.547c-170.281-98.17-170.281-344.925 0-443.094S512 59.662 512 256 297.993 575.716 127.711 477.547zm164.302-281.128c1.98-39.975 2.641-56.99 1.32-89.702L256 142.73c2.641 8.483 6.552 31.39 6.552 31.39s19.658 12.445 29.46 22.299zm45.612 275.733-75.073-122.595c-30.108-.87-64.746-10.311-131.606-.604a99.398 99.398 0 0 1 24.229-55.67 206.573 206.573 0 0 0-31.442-10.464c3.962-14.425 41.905-31.441 47.188-33.371-2.642 3.25-13.105 15.035-17.067 24.228 13.765 1.93 32.102 13.054 32.102 13.054s-19.658 18.337-28.8 41.245c55.61-9.544 58.744.306 240.253 15.745 23.2-29.316 21.24-18.046 7.213-43.225-43.835-22.247-109.308-75.936-152.533-119.162L218.667 69.384c-36.623 27.48-42.515 79.848-62.832 115.25-39.06 29.309-63.441 129.373-83.048 212.268 21.79 32.863 123.632 126.298 264.838 75.25zM252.09 245.486c22.248-3.251 38.603 8.533 53.689 19.657l-24.89 7.213c-12.444-7.213-23.567-11.124-34.031-9.854l5.232-17.016zM486.425 256c0-176.724-192.628-287.776-345.898-199.414C29.614 120.529-.956 254.29 48.655 356.942c30.433-86.657 62.5-152.146 96.716-189.983 18.337-54.35 43.835-100.876 77.258-128.356l27.479 84.47 54.35-53.029c0-.66 8.532 78.578 4.57 138.16 34.692 35.352 136.178 99.504 136.178 99.504s-35.352 49.778-41.905 52.368c-12.237 4.95-63.327-3.408-104.076-7.212l78.916 98.252C441.761 411.445 486.425 341.259 486.425 256z"/></svg>