<svg version="1.1" xmlns="http://www.w3.org/2000/svg" width="512px" height="512px"><path d="M440.1227112,332.943634c2.7596741,8.147583,4.1467896,20.7048035,4.1467896,37.6716309c0,16.1783752-1.3871155,28.5603638-4.1467896,37.1314087c-2.7742615,8.5856018-8.6002502,12.878418-17.4924927,12.878418c-8.877655,0-14.7620239-4.2928162-17.6385193-12.878418c-2.8618774-8.5710449-4.2928162-20.9530334-4.2928162-37.1314087c0-16.9668274,1.4309387-29.5240479,4.2928162-37.6716309c2.8764954-8.1621704,8.7608643-12.2359619,17.6385193-12.2359619C431.5224609,320.7076721,437.3484497,324.7814636,440.1227112,332.943634z M512,0v512H0V0H512z M281.6574402,380.5004578l-88.936264-150.7084656L281.47052,83.2814407h-40.958374l-68.7375031,116.7747726L103.9811707,83.2814407H60.9384422l87.4127197,148.5109558L58.2745628,380.5004578h40.7527275l70.2704086-118.9649963l69.1207428,118.9649963H281.6574402z M357.2095947,298.8639526h-24.9976196l-26.5161743,24.851593v18.8358154h20.8508301v97.0993652h30.6629639V298.8639526z M475.1369019,370.6152649c0-23.2454224-3.9131775-41.1759644-11.7103577-53.7915649c-7.8117371-12.6302185-21.4056702-18.9380493-40.7963257-18.9380493c-19.3760681,0-32.9845886,6.3078308-40.7817383,18.9380493c-7.8117676,12.6156006-11.7103271,30.5461426-11.7103271,53.7915649c0,23.2454529,3.8985596,41.1321716,11.7103271,53.6893921c7.7971497,12.5572205,21.4056702,18.8358154,40.7817383,18.8358154c19.3906555,0,32.9845886-6.278595,40.7963257-18.8358154C471.2237244,411.7474365,475.1369019,393.8607178,475.1369019,370.6152649z"/></svg>