<svg xmlns="http://www.w3.org/2000/svg" width="512" height="512"><path d="M147.733 27.608c-13.828.03-27.364 7.9-34.326 19.906L5.14 236.094c-6.853 12.038-6.853 27.774 0 39.812l108.267 188.58c6.962 12.006 20.498 19.879 34.326 19.906h216.535c13.828-.03 27.363-7.9 34.325-19.906l108.268-188.58c6.852-12.038 6.852-27.774 0-39.812L398.593 47.514c-6.962-12.006-20.497-19.879-34.325-19.906H147.733zm40.222 110.321c1.653.034 3.257.992 4.082 2.431l63.96 114.202 63.81-114.202c.851-1.482 2.53-2.446 4.233-2.431h37.35c3.306.03 5.783 4.206 4.233 7.142L303.778 256l61.845 110.777c1.697 2.953-.84 7.323-4.234 7.294H324.04c-1.733-.015-3.421-1.045-4.233-2.583l-63.81-114.237-63.96 114.237c-.788 1.495-2.4 2.515-4.082 2.583h-37.35c-3.393.03-5.93-4.341-4.233-7.294L208.217 256l-61.845-110.929c-1.483-2.679.326-6.57 3.326-7.142h38.257z"/></svg>