<svg xmlns="http://www.w3.org/2000/svg" width="512" height="512"><path d="M256 0C114.615 0 0 114.615 0 256s114.615 256 256 256 256-114.615 256-256S397.385 0 256 0zM23.79 256c0-124.887 101.24-226.128 226.127-226.128 62.444 0 113.064 50.62 113.064 113.064S312.361 256 249.917 256v.15c-66.337 3.172-119.146 57.957-119.146 125.08 0 32.043 12.04 61.27 31.837 83.418C81.072 430.488 23.789 349.937 23.789 256zM256 97.524c18.362 0 33.247 14.885 33.247 33.247S274.362 164.017 256 164.017s-33.247-14.885-33.247-33.246S237.638 97.524 256 97.524zm0 250.459c18.362 0 33.247 14.885 33.247 33.246 0 18.362-14.885 33.247-33.247 33.247s-33.247-14.885-33.247-33.247c0-18.361 14.885-33.246 33.247-33.246z"/></svg>