<svg version="1.1" xmlns="http://www.w3.org/2000/svg" width="512px" height="512px"><path d="M267.5360718,333.6285095c23.0762939,21.4926453,39.4855652,29.0739441,77.528656,29.0379639h89.1769409c0,0,1.0315857,17.7850647-3.0172729,25.0729675c-5.829895,10.4938354-16.2591858,17.887085-29.6087952,17.887085H243.9241791v63.0753174H395.632782c31.4000244-0.4154358,52.9220581-3.3233337,79.203125-22.159668C489.9017334,435.7441406,510.8118591,432.5591431,512,375.7170105l-0.0000305-299.0701904h-77.7583008v222.9444275h-71.2337646c-30.0929871,0-45.1317444-14.318634-45.1317444-42.960022V76.6468201h-78.8459473v185.9684753C238.3757477,291.9100342,247.4986267,314.9661865,267.5360718,333.6285095z"/><path d="M169.2950439,95.209938c-45.6383514-3.9399948-46.1894608,13.00634-40.7310944,50.1158524c7.157547,38.1363678,26.2309113,66.6500854,20.9357452,82.3556824c-2.367218,7.5262451-16.5480957,10.0170288-32.830162,15.1285248c-21.3245239,6.6945038-42.9627228,12.1514282-42.0401535,13.8618164c21.2517853,7.798584,47.6937943,15.9434509,54.8453674,19.0360107c13.2920074,5.553833,9.947525,18.7351074,3.7465057,28.1795349c-14.3780212,23.1404419-26.8321915,37.6906128-37.3580017,53.734436c-5.0127563,7.6406555-7.0277481,14.4918213-13.7257309,25.0273438c-5.3505402,8.6585388-4.5912552,17.2757568-0.1037674,24.54422c5.5518799,8.9924927,9.1488724,9.1488953,36.4198837,8.000824c4.259819-0.2960205,11.5809402,5.3287659,5.0094147,17.2397156c-12.3562469,23.5339661-7.8921509,35.6763-14.6033783,36.2536621h-66.172699c-18.6890278-0.5822144-35.7826042-21.779541-40.5055771-38.8518982c-8.5967951-31.0752563,9.0873528-72.3220825,37.7359734-104.7140503c11.9392586-15.6708679,22.6777039-26.4093018,17.953064-29.1152344c-37.0676956-16.8716125-41.5360107-11.8075562-40.8103867-26.4245911c0.7024136-9.5222168,2.2033501-19.1803894,4.4531918-28.9661255c4.6264629-13.2805481,10.7194786-9.4724121,27.2863388-16.4597168c18.1218224-7.4143829,26.2227669-5.1987457,24.0755806-14.8048248C61.4361916,170.4000854,46.95961,130.5338135,52.9729614,98.6853333c4.3205948-22.8831482,20.2642517-43.5602341,51.4238739-55.3868332l78.3744202-0.0002632c2.9633179,0.5528831,1.4473724,10.5783386,1.4146576,21.4190941C183.2198639,84.4734116,190.1790924,97.1595078,169.2950439,95.209938z"/></svg>