<svg xmlns="http://www.w3.org/2000/svg" width="512" height="512"><path d="M267.536 333.629c23.076 21.492 39.486 29.073 77.529 29.037h89.177s1.031 17.786-3.018 25.073c-5.83 10.494-16.259 17.888-29.608 17.888H243.924v63.075h151.709c31.4-.416 52.922-3.323 79.203-22.16 15.066-10.798 35.976-13.983 37.164-70.825V76.647h-77.758V299.59h-71.234c-30.093 0-45.132-14.318-45.132-42.96V76.647H239.03v185.968c-.654 29.295 8.469 52.351 28.506 71.014zM169.295 95.21c-45.638-3.94-46.19 13.006-40.731 50.116 7.157 38.136 26.23 66.65 20.936 82.355-2.368 7.527-16.548 10.018-32.83 15.129-21.325 6.695-42.963 12.151-42.04 13.862 21.251 7.798 47.693 15.943 54.845 19.036 13.292 5.554 9.947 18.735 3.746 28.18-14.378 23.14-26.832 37.69-37.358 53.734-5.013 7.64-7.027 14.492-13.725 25.027-5.351 8.659-4.592 17.276-.104 24.544 5.552 8.993 9.149 9.15 36.42 8.001 4.26-.296 11.58 5.329 5.01 17.24-12.357 23.534-7.893 35.676-14.604 36.254H42.687c-18.69-.583-35.783-21.78-40.506-38.852-8.596-31.076 9.088-72.322 37.736-104.714 11.94-15.671 22.678-26.41 17.953-29.116-37.067-16.871-41.536-11.807-40.81-26.424.702-9.522 2.203-19.18 4.453-28.966 4.627-13.28 10.72-9.473 27.287-16.46 18.121-7.414 26.222-5.199 24.075-14.805-11.439-38.95-25.915-78.817-19.902-110.666 4.32-22.883 20.264-43.56 51.424-55.386h78.374c2.964.552 1.448 10.578 1.415 21.418-.966 19.756 5.993 32.443-14.891 30.493z"/></svg>