<svg version="1.1" xmlns="http://www.w3.org/2000/svg" width="417px" height="512px"><path d="M395.587616,331.4094238c-3.9661255-26.7703247,43.9515686-108.1063538,7.5024719-201.8924103C380.3110046,77.4499207,319.7828369-0.0139519,207.1880188,0.0000019C114.3922195,0.01163,32.1124344,68.3381119,14.5399895,118.4525986c-33.5964851,95.8121567,4.8466091,140.2651367,7.8099232,202.410553c-1.3018856,11.0643921-12.5318785,9.7248535-12.5318785,9.7248535c-7.8513193,3.6949463-11.6360464,12.6523438-8.9685507,20.9092407c10.3271828,31.9690247,25.2735271,59.497467,52.7629128,58.8207092c7.7741089-0.1911621,22.8558044,3.0558777,27.4805527,9.3081055c0,0,15.2384415,13.4049072,23.2623215,32.0555115C115.6364288,477.9030457,122.0774841,512,134.1833038,512c0,0,139.3223114,0,151.6900177,0c15.4747314,0,20.5087891-21.9632263,20.9562378-56.413208c0.2269592-17.4640808,24.668396-32.9076538,35.4137268-32.9076538c10.7457886,0,27.1154175,0,27.1154175,0c26.1265869-3.5442505,45.1920776-54.2299194,43.4678345-82.8495483C406.7529297,336.1941528,396.6508789,345.941803,395.587616,331.4094238z M158.013092,312.0918274c-55.293663,31.900177-80.1048584,53.1671143-94.9916687,8.5066833c0,0-13.0542145-30.076416-7.7978287-52.8122253c3.5428581-15.3244934,23.0958099-25.4302826,30.4824677-29.4191895c17.7222137-9.5699615,71.2437515-2.8354034,71.2437515-2.8354034C184.596405,252.5450439,186.3685455,295.0784607,158.013092,312.0918274z M204.7940216,376.2014771c0,0-8.7555237,25.946106-9.3811188,35.6755981c-0.6255951,9.72995-11.0346375,19.8831787-16.0375214,10.802063c-5.0033569-9.0806274-14.6072693-15.9909973-11.4802399-34.1532288c3.1270447-18.1622314,11.2574463-45.2427673,18.1366425-57.2937012c6.8796692-12.0514221,18.7622375-20.3808899,18.7622375-20.3808899V376.2014771z M231.1243134,422.6791382c-6.8899078,7.4206238-12.1997681-6.5745544-12.7597809-16.3045044c-0.5600128-9.7294922-3.8833313-30.1731567-3.8833313-30.1731567v-65.3501587c0,0,10.6401978,8.3294678,16.7998657,20.3808899c6.1601257,12.0509338,13.4398041,39.1314697,16.2398529,57.2937012C250.3209839,406.6881409,240.3398438,412.7547607,231.1243134,422.6791382z M359.9659729,320.5985107c-14.8868103,44.6604309-39.6980286,23.3934937-94.9916687-8.5066833c-28.3559265-17.0133667-26.5838013-59.5467834,1.0632629-76.5601349c0,0,53.5215454-6.7345581,71.2437439,2.8354034c7.3862,3.9889069,26.9396057,14.094696,30.4824829,29.4191895C373.0201721,290.5220947,359.9659729,320.5985107,359.9659729,320.5985107z"/></svg>