<svg xmlns="http://www.w3.org/2000/svg" width="512" height="512"><path fill-rule="evenodd" d="M511.226 478.951c4.523-15.116-11.31-44.064-33.636-77.425-58.472-84.53-166.298-129.453-224.974-121.029l.357-2.313c19.638-23.57 40.077-49.711 60.693-65.676 39.285 21.842 72.98 13.037 105.902-22.25 15.838-15.84 22.244-28.12 19.399-36.843-4.807-14.418-16.373-21.359-34.707-21.178-17.111.728-44.093 17.658-55.35 27.765-40.404-18.156-69.242-28.836-86.685-31.862-65.852-11.747-122.807 9.259-170.686 62.828-25.808 29.368-37.554 46.455-35.062 51.441 2.104 2.822 8.543 2.164 15.306 1.246 16.233-4.654 53.98-17.528 53.93-25.276.258-21.375 1.175-32.374 25.63-49.48 36.166-23.641 63.414-22.392 108.037 9.966 16.2 11.212 29.277 19.518 36.573 23.607-30.831 25.767-57.063 53.15-76.441 82.473-77.375 19.718-187.678 79.842-215.897 150.399-4.147 10.296-5.095 15.427-.89 17.976 43.981 18.15 144.037-40.706 206.64-120.494 60.097-6.83 229.085 12.168 217.68 66.207-4.913 11.571-4.802 13.829-4.097 16.732 6.246 16.967 47.132 48.319 74.93 62.118 7.658 3.38 12.103 3.738 13.348 1.068M370.978 167.117c-3.715-2.432 18.803-13.31 35.243-16.017 16.48-2.593 24.896 4.407 18.863 10.325-13.09 12.08-47.838 10.206-54.106 5.692zM76.588 422.174c-20.278 11.09-38.95 19.1-45.741 8.187-2.315-16.908 10.5-34.353 38.266-52.33 32.034-20.528 66.672-33.836 103.588-40.935l4.093.532c-27.154 32.638-62.155 62.862-100.206 84.546zm43.607-239.925c-4.45 7.297-7.298 14.596-8.543 21.893-1.246 5.874-2.85 9.966-4.984 12.283-4.45 4.625-8.009 6.583-10.68 5.87-1.779-.178-2.135-1.245-1.067-3.026 1.601-2.671 5.163-10.321 10.5-22.96 5.519-11.747 10.324-18.334 14.596-19.933 3.027-.891 3.027 1.067.178 5.873zm103.767-50.193c17.263-.355 36.844 3.738 58.913 12.283 12.283 4.806 28.476 11.92 48.764 21.715 20.65 9.077 35.423 14.057 44.5 14.947 1.955 1.603 1.064 2.315-2.67 2.315-16.728-.89-32.754-4.45-48.236-10.678l-43.958-20.467c-19.94-8.722-39.338-14.772-58.203-18.334-1.425-.714-1.069-1.246.89-1.78zm148.436 192.225c-24.025-11.925-51.255-20.111-81.691-24.917-35.065-2.136-52.685-4.094-53.219-5.697-.357-1.422 1.958-2.668 7.12-3.557 43.304-4.434 90.978 9.182 140.963 37.196 14.017 9.095 2.58 5.158-13.173-3.025zm54.466 34.884c-3.379-3.739-4.27-4.983-3.025-4.093 6.05 3.916 12.283 9.967 18.863 18.334 9.793 12.102 12.818 22.248 9.438 30.61l-1.96 1.782c-1.601-.178-3.382-3.203-5.163-9.254-3.477-16.164-3.18-20.895-18.153-37.379zm22.25 63.363c-3.686-8.116.79-15.034 5.87-6.763l12.639 18.866c1.781 2.317 1.955 3.561.708 3.384-5.09.035-14.84-7.683-19.216-15.487zM270.419 52.497c-6.767 10.502-9.258 20.648-7.303 30.435 1.78 9.256 6.942 16.552 15.663 21.713 8.368 5.164 21.36 6.942 39.34 5.519 22.959-1.603 34.526-6.409 34.707-14.241 1.244-12.99-3.742-27.23-14.954-42.358-12.103-16.197-25.095-23.673-39.16-22.07-10.856 1.423-20.287 8.365-28.293 21.002zm29.54 5.34c-3.837-3.13-2.43-8.864 1.78-11.214l7.477.534c3.026 1.958 5.16 4.273 6.232 7.299 2.928 8.62-9.946 7.12-15.49 3.381zm33.817 37.376c1.961.534 2.67 1.427 2.496 2.317-.354 1.6-3.742 2.667-9.967 3.199l-8.722-.532c-5.16-1.158.922-5.84 9.612-5.694l6.58.71z" clip-rule="evenodd"/></svg>