<svg version="1.1" xmlns="http://www.w3.org/2000/svg" width="512px" height="512px"><style type="text/css">.st0{fill-rule:evenodd;clip-rule:evenodd;}</style><path class="st0" d="M511.2259521,478.9509888c4.5233765-15.1156006-11.3092041-44.0636597-33.6360779-77.4247437c-58.4718323-84.5303955-166.2977905-129.4527893-224.9738312-121.0291748l0.3567657-2.3129883c19.6380005-23.5705414,40.077301-49.7111816,60.6933899-65.6759644c39.2845764,21.8421631,72.9789429,13.0369415,105.9015503-22.2497711c15.8377991-15.8404083,22.243988-28.1201782,19.399292-36.8433533c-4.8067017-14.4175568-16.3729553-21.3588409-34.7070618-21.178009c-17.1114197,0.7283478-44.0934143,17.6582336-55.3508301,27.7650146c-40.4030762-18.1556854-69.2407532-28.8360748-86.6838684-31.8623047c-65.8518524-11.7471466-122.8070831,9.2590637-170.686554,62.8286896c-25.8079834,29.3677826-37.5534821,46.4542847-35.0620728,51.4408417c2.1041336,2.8216705,8.5429459,2.1639709,15.3068161,1.2453766c16.2321472-4.6534424,53.9795685-17.5275726,53.9290009-25.2754669c0.2588882-21.3751221,1.1754913-32.3743591,25.6303482-49.4805145c36.1660156-23.6410675,63.4141541-22.3911591,108.036972,9.9667969c16.1995544,11.2120056,29.2770691,19.5171051,36.5734253,23.6061401c-30.8314514,25.767868-57.0631866,53.150528-76.441452,82.4737549C142.1369324,304.6633606,31.8339424,364.7870789,3.6145833,435.3439941c-4.1468196,10.2956238-5.0950389,15.4265747-0.890151,17.9757385c43.9820099,18.1506348,144.0371857-40.7054138,206.6413574-120.4941711c60.0957947-6.8303223,229.0842896,12.1683655,217.6791382,66.2077637c-4.9124451,11.5707092-4.8023376,13.8285217-4.0965881,16.7313232c6.2454529,16.9668884,47.1315918,48.3190613,74.9301453,62.1178894C505.536438,481.263092,509.9806824,481.6206665,511.2259521,478.9509888 M370.9781494,167.1174316c-3.7148438-2.4320068,18.8025513-13.3096619,35.2430115-16.017746c16.4799805-2.5923615,24.8960876,4.4071655,18.8625488,10.325058l0,0C411.9935303,173.5056152,377.2459106,171.6307526,370.9781494,167.1174316z M76.5884933,422.1741638c-20.2789078,11.0897827-38.9505768,19.0995789-45.7414856,8.1864929c-2.3145905-16.9081116,10.5002804-34.3528442,38.2660065-52.3294678c32.0343246-20.5284729,66.6717758-33.8360901,103.5877914-40.9347839l4.0932617,0.5317078C149.6403046,370.2655945,114.6388016,400.4901428,76.5884933,422.1741638z M120.1946945,182.2493744c-4.4498672,7.2962494-7.2979431,14.5958862-8.5431595,21.8922272c-1.2460098,5.8743896-2.8487854,9.9660034-4.9834366,12.2829895c-4.4499588,4.6250916-8.008873,6.5829163-10.6802139,5.8703003c-1.7786179-0.177536-2.1345673-1.2452087-1.0668869-3.0255127c1.6011734-2.6713409,5.1625748-10.3218689,10.5002823-22.9600067c5.5184402-11.7471008,10.3235474-18.3341064,14.5959702-19.9335938C123.0435715,175.4848328,123.0435715,177.4434662,120.1946945,182.2493744z M223.9617157,132.0561523c17.2631378-0.3550568,36.8440704,3.7381439,58.9131012,12.2830811c12.2830505,4.8058167,28.4759521,11.9204559,48.7637634,21.7146912c20.6511841,9.0766449,35.4238586,14.0567017,44.5004883,14.9468536c1.9545593,1.6027832,1.0643921,2.3153992-2.6705017,2.3153992c-16.7280273-0.889267-32.7532959-4.4507599-48.2352905-10.6785278l-43.9579163-20.4669952c-19.9402161-8.7216644-39.3378906-14.7718964-58.2037964-18.3333893C221.647171,133.1230469,222.0030365,132.591156,223.9617157,132.0561523z M372.397583,324.2807312c-24.0243225-11.9246521-51.2542419-20.111145-81.6905823-24.9169617c-35.0653992-2.135437-52.6852875-4.0932922-53.218689-5.6969299c-0.3574982-1.421875,1.95784-2.6678772,7.1188202-3.5572205c43.3049164-4.4335632,90.978775,9.1823425,140.9636078,37.1967163C399.5881348,336.4007568,388.1514282,332.4635315,372.397583,324.2807312z M426.8640442,359.1653442c-3.3789368-3.7390137-4.269989-4.983429-3.0246582-4.0932922c6.0501709,3.9157715,12.282959,9.9668884,18.8625183,18.3341064c9.7926025,12.1022644,12.8181152,22.2473755,9.438385,30.6105347l-1.9612122,1.781189c-1.6003418-0.1783447-3.3806152-3.203064-5.1617126-9.2541809C441.5395203,380.3803711,441.8369141,375.6486206,426.8640442,359.1653442z M449.1146545,422.5284119c-3.6863098-8.1167297,0.7901306-15.0348511,5.8702698-6.7637634l12.638092,18.8659363c1.781189,2.3170776,1.9545593,3.5614014,0.7084656,3.3839722C463.2400513,438.0501099,453.4907227,430.3318787,449.1146545,422.5284119z M270.417511,52.4968872c-6.7669983,10.5018806-9.2574158,20.64785-7.302887,30.4354248c1.780304,9.255867,6.9420471,16.5521622,15.6636658,21.7131348c8.3673096,5.1633759,21.3604736,6.9412384,39.3394775,5.518486c22.959137-1.6027679,34.5262146-6.4086304,34.7071228-14.2409058c1.2443542-12.990715-3.7423096-27.2298889-14.9543152-42.3576126c-12.1022034-16.1978989-25.094574-23.6734619-39.1587524-22.0698471C287.8549194,32.9175148,278.4240112,39.8595924,270.417511,52.4968872z M299.9578857,57.8369942c-3.8371887-3.1304321-2.4295959-8.8638687,1.780304-11.2137032l7.4772034,0.5334435c3.0255432,1.9586792,5.1600952,4.2732658,6.2311096,7.2987862C318.3749084,63.0756454,305.5007935,61.5757484,299.9578857,57.8369942z M333.7748413,95.2128983c1.9611206,0.5342407,2.6696167,1.4268799,2.4962158,2.3170319c-0.3542175,1.6002808-3.7422791,2.6671677-9.9667969,3.1989136l-8.7223816-0.5317535c-5.160614-1.1578827,0.9223022-5.8395081,9.6125793-5.6943283L333.7748413,95.2128983z"/></svg>