<svg xmlns="http://www.w3.org/2000/svg" width="476" height="512"><path d="M85.981 89.783a4.898 4.898 0 0 0 4.899-4.899V2.816c0-2.501-3.023-3.756-4.795-1.99L.871 84.813c-1.849 1.823-.559 4.97 2.037 4.97h83.073zm8.999-16.636-.205 172.06c0 1.076.68 2.17 1.964 2.17h169.115c2.888 0 4.324-3.5 2.27-5.528L98.27 72.506c-1.055-1.117-3.292-.192-3.292.64zm1.711 177.58h168.865a4.027 4.027 0 0 1 4.027 4.026v167.324c0 2.72-3.293 4.077-5.21 2.147L95.328 253.99c-1.196-1.21-.338-3.262 1.363-3.262zm-6.126 85.928v-118.39c0-2.581-3.122-3.87-4.943-2.043L27.218 274.85a4.293 4.293 0 0 0 .014 6.074l58.19 57.87c1.902 1.893 5.143.545 5.143-2.138zm96.046 141.91-57.91-57.98c-1.76-1.764-1.78-4.588-.042-6.28l58.242-56.694c1.707-1.662 4.471-1.605 6.202.128l57.91 57.98c1.76 1.764 1.78 4.588.042 6.28l-58.242 56.694c-1.707 1.662-4.471 1.605-6.202-.128zm-17.405 29.009 84.289-84.602c1.945-1.448 3.894-1.146 5.846.344l82.54 82.195c1.752 2.454 2.11 5.75-1.72 6.489H173.333c-3.342-.203-6.563-1.628-4.127-4.426zm120.907-57.683c-1.912-2.685-1.36-4.307 2.103-4.673h121.507l61.104 60.987c2.391 1.788.741 4.551-2.22 4.44H350.75l-60.637-60.754z"/></svg>