<svg xmlns="http://www.w3.org/2000/svg" width="470" height="512"><path d="M.759 165.51 62.419 0h395.17v15.415L288.02 237.72c69.901 28.187 114.194 1.22 154.035-44.834 5.58-1.708 12.537 1.018 18.7 9.038-51.748 76.819-116.878 126.876-208.38 85.34l-139.602 184.93 214.072-.812c78.347-.973 113.262-56.177 124.252-132.299h18.66c-1.691 50.342-7.911 109.574-16.226 172.918H0v-16.227l177.33-230.722c-43.532-14.035-95.486-18.806-145.688 52.178-7.57 2.133-14.044-.919-19.472-8.925 55.771-83.546 112.226-119.778 201.21-90.868L347.953 38.944H150.907C97.854 45.704 50 96.117 26.774 165.51H.759z"/></svg>