<svg xmlns="http://www.w3.org/2000/svg" width="20" height="20" viewBox="0 0 20 20"><path d="M3.81 16.5h5.44v-1.75H4.14zm.61-3.25h4.83V11.5H4.74zm10.84-1.75h-4.51v1.75h4.83zm-4.51 3.25v1.75h5.44l-.33-1.75z" opacity=".3"/><path d="M16.5 10h-13L2 18h16l-1.5-8zm-5.75 1.5h4.51l.33 1.75h-4.83V11.5zm-1.5 5H3.81l.33-1.75h5.11v1.75zm0-3.25H4.42l.33-1.75h4.51v1.75zm1.5 3.25v-1.75h5.11l.33 1.75h-5.44zM9.25 7h1.5v2h-1.5zm3.974-.72 1.06-1.06L15.7 6.634l-1.061 1.06zm-8.919.358L5.72 5.224l1.06 1.06L5.366 7.7zM3 2.05h2v1.5H3zm12 0h2v1.5h-2zM10 6c2.21 0 4-1.79 4-4h-1.5a2.5 2.5 0 0 1-5 0H6c0 2.21 1.79 4 4 4z"/><path d="M12.5 2a2.5 2.5 0 0 1-5 0h5z" opacity=".3"/></svg>