<svg xmlns="http://www.w3.org/2000/svg" width="20" height="20" viewBox="0 0 20 20"><path d="M12.27 3H7.73c-.4 0-.78.16-1.06.44L3.44 6.67c-.28.28-.44.67-.44 1.06v4.53c0 .4.16.78.44 1.06l3.23 3.23c.28.29.67.45 1.06.45h4.53c.4 0 .78-.16 1.06-.44l3.23-3.23c.28-.28.44-.66.44-1.06V7.73c0-.4-.16-.78-.44-1.06l-3.23-3.23c-.27-.28-.66-.44-1.05-.44zm.48 9.75c-.29.29-.77.29-1.06 0L10 11.06l-1.69 1.69c-.29.29-.77.29-1.06 0a.754.754 0 0 1 0-1.06L8.94 10 7.25 8.31a.754.754 0 0 1 0-1.06c.29-.29.77-.29 1.06 0L10 8.94l1.69-1.69c.29-.29.77-.29 1.06 0 .29.29.29.77 0 1.06L11.06 10l1.69 1.69c.29.29.29.77 0 1.06z"/></svg>