<svg xmlns="http://www.w3.org/2000/svg" width="20" height="20" viewBox="0 0 20 20"><path d="M7.49 19.25c0 .41-.34.75-.75.75s-.75-.34-.75-.75.34-.75.75-.75.75.34.75.75zm5.77-.75c-.41 0-.75.34-.75.75s.34.75.75.75.75-.34.75-.75-.34-.75-.75-.75zm-1.01-14c.96 0 1.75-.78 1.75-1.75S13.22 1 12.25 1s-1.75.78-1.75 1.75.79 1.75 1.75 1.75zm4.75 12c0 .12-.04.24-.13.34-.41.45-1.29 1.16-2.61 1.16H5.74c-1.25 0-2.13-.62-2.61-1.16A.533.533 0 0 1 3 16.5c0-.26.2-.5.5-.5.14 0 .28.06.38.17.46.51 1.12.83 1.86.83H6l2-3-1.49-3.93L8.73 6.5H6.8L5.27 8.9 4 8l2-3h4.5c.68 0 1.11.43 1.3.76l.75 1.27C13.25 8.21 14.53 9 16 9v1.5c-1.95 0-3.66-1.02-4.64-2.55L10 10.13l3.5 2.37V17h.76c.74 0 1.4-.32 1.86-.83a.5.5 0 0 1 .38-.17c.3 0 .5.24.5.5zm-5-3.1-3-1.65.7 2.45L7.8 17H12v-3.6z"/></svg>