<svg xmlns="http://www.w3.org/2000/svg" width="20" height="20" viewBox="0 0 20 20"><path d="M12.12 10.5c-.65.31-1.36.5-2.12.5s-1.47-.19-2.12-.5c-.3 0-.21-.02-.37.08L10 15.61l2.49-5.04c-.16-.09-.07-.07-.37-.07zm2.33-3.92-.87-.28-.15-.9C13.15 3.72 11.7 2.5 10 2.5S6.85 3.72 6.56 5.41l-.15.9-.86.27C4.92 6.79 4.5 7.36 4.5 8a1.498 1.498 0 0 0 2.37 1.22l.74-.53c.9.46 1.47.81 2.39.81.92 0 1.45-.33 2.39-.81l.74.53A1.498 1.498 0 0 0 15.5 8c0-.64-.42-1.21-1.05-1.42z" opacity=".3"/><path d="M14.92 5.16C14.51 2.8 12.47 1 10 1S5.49 2.8 5.08 5.16C3.88 5.55 3 6.66 3 8c0 1.66 1.34 3 3 3h.04L10 19l3.96-8H14c1.66 0 3-1.34 3-3 0-1.34-.88-2.45-2.08-2.84zM10 15.61l-2.49-5.04c.16-.1.07-.08.37-.08.65.32 1.36.51 2.12.51s1.47-.19 2.12-.5c.3 0 .21-.02.37.08L10 15.61zm4-6.11c-.39 0-.69-.15-.87-.28l-.74-.53c-.94.48-1.47.81-2.39.81-.92 0-1.49-.35-2.39-.81l-.74.53A1.498 1.498 0 0 1 4.5 8c0-.64.42-1.21 1.05-1.42l.87-.28.15-.9C6.85 3.72 8.3 2.5 10 2.5s3.15 1.22 3.44 2.91l.15.9.87.28c.62.2 1.04.77 1.04 1.41 0 .83-.67 1.5-1.5 1.5z"/></svg>