<svg xmlns="http://www.w3.org/2000/svg" width="20" height="20" viewBox="0 0 20 20"><path d="M9.89 7.93c.07.04.11.12.11.2v2.62c0 .14-.11.25-.25.25h-2.5c-.14 0-.25-.11-.25-.25V8.13c0-.08.04-.16.11-.21l1.14-.76V6H6v6c0 .55.45 1 1 1h5c.55 0 1-.45 1-1V6H8.75v1.17l1.14.76z" opacity=".3"/><path d="M4 15h11v1H4zM15 5H5v7c0 1.1.9 2 2 2h5c1.1 0 2-.9 2-2V9h1c.55 0 1-.45 1-1V6c0-.55-.45-1-1-1zM8.5 8.2l.5.34V10H8V8.54l.5-.34zM13 9v3c0 .55-.45 1-1 1H7c-.55 0-1-.45-1-1V6h2.25v1.17l-1.14.76a.23.23 0 0 0-.11.2v2.62c0 .14.11.25.25.25h2.5c.14 0 .25-.11.25-.25V8.13a.26.26 0 0 0-.11-.21l-1.14-.75V6H13v3zm2-1h-1V6h1v2z"/></svg>