<svg xmlns="http://www.w3.org/2000/svg" width="20" height="20" viewBox="0 0 20 20"><path d="M5.5 7.75H11v1.5H5.5zm0 3H11v1.5H5.5zm0-6.25H11v1.75H5.5zm0 9.25H11v1.75H5.5zm7-9.25h2v1.75h-2zm0 9.25h2v1.75h-2zm0-6h2v1.5h-2zm0 3h2v1.5h-2z" opacity=".3"/><path d="M16 15.5V3H4v12.5H2V17h8.5a1.25 1.25 0 0 0 2.5 0h5v-1.5h-2zm-5 0H5.5v-1.75H11v1.75zm0-3.25H5.5v-1.5H11v1.5zm0-3H5.5v-1.5H11v1.5zm0-3H5.5V4.5H11v1.75zm3.5 9.25h-2v-1.75h2v1.75zm0-3.25h-2v-1.5h2v1.5zm0-3h-2v-1.5h2v1.5zm0-3h-2V4.5h2v1.75z"/></svg>