<svg xmlns="http://www.w3.org/2000/svg" width="20" height="20" viewBox="0 0 20 20"><path d="M4.75 16c.41 0 .75-.34.75-.75V4.75c0-.41-.34-.75-.75-.75S4 4.34 4 4.75v10.5c0 .41.34.75.75.75zm10.5-12c-.41 0-.75.34-.75.75v5c0 .41.34.75.75.75s.75-.34.75-.75v-5c0-.41-.34-.75-.75-.75zM10 11.5c.41 0 .75-.34.75-.75v-1.5c0-.41-.34-.75-.75-.75s-.75.34-.75.75v1.5c0 .41.34.75.75.75zM10 7c.41 0 .75-.34.75-.75v-1.5c0-.41-.34-.75-.75-.75s-.75.34-.75.75v1.5c0 .41.34.75.75.75zm0 9c.41 0 .75-.34.75-.75v-1.5c0-.41-.34-.75-.75-.75s-.75.34-.75.75v1.5c0 .41.34.75.75.75zm7.47-2.97a.754.754 0 0 0-1.06 0l-1.16 1.16-1.16-1.16a.754.754 0 0 0-1.06 0c-.29.29-.29.77 0 1.06l1.16 1.16-1.16 1.16c-.29.29-.29.77 0 1.06.29.29.77.29 1.06 0l1.16-1.16 1.16 1.16c.29.29.77.29 1.06 0 .29-.29.29-.77 0-1.06l-1.16-1.16 1.16-1.16c.29-.29.29-.77 0-1.06z"/></svg>