<svg xmlns="http://www.w3.org/2000/svg" width="1000" height="1000" viewBox="0 0 1000 1000"><path d="M-6.945-39.393A40.004 40.004 0 0 0-20-34.64l-121.244 70-34.64 20 40 69.282 34.64-20L0 46.187l161.865 93.454 34.64 20 40-69.282-34.64-20L20-34.64a40.004 40.004 0 0 0-26.945-4.752ZM380 0c0-209.394-170.606-380-380-380S-380-209.394-380 0-209.394 380 0 380 380 209.394 380 0Zm-80 0c0 166.159-133.841 300-300 300S-300 166.159-300 0-166.159-300 0-300 300-166.159 300 0z" style="-inkscape-stroke:none" transform="rotate(-90 500 0)"/></svg>