<?xml version="1.0" encoding="UTF-8" standalone="no"?>
<svg
   height="1000"
   width="1000"
   version="1.1"
   id="clock"
   viewBox="0 0 1000 1000"
   sodipodi:docname="clock_08_30.svg"
   xmlns:inkscape="http://www.inkscape.org/namespaces/inkscape"
   xmlns:sodipodi="http://sodipodi.sourceforge.net/DTD/sodipodi-0.dtd"
   xmlns="http://www.w3.org/2000/svg"
   xmlns:svg="http://www.w3.org/2000/svg">
  <defs
     id="defs10" />
  <sodipodi:namedview
     id="namedview8"
     pagecolor="#ffffff"
     bordercolor="#000000"
     borderopacity="0.25"
     inkscape:showpageshadow="2"
     inkscape:pageopacity="0.0"
     inkscape:pagecheckerboard="0"
     inkscape:deskcolor="#d1d1d1" />
  <g
     id="container">
    <g
       transform="translate(500,500) rotate(270)"
       id="g4">
      <path
         id="clock_08_30"
         style="color:#000000;fill:#000000;stroke-linecap:square;stroke-linejoin:round;-inkscape-stroke:none"
         d="m -55.359375,-175.88477 -69.281255,40 20,34.64063 L -69.28125,-40 H -210 -250 v 80 h 40 210 a 40.004,40.004 0 0 0 34.640625,-60 l -70,-121.24414 z M 380,0 C 380,-209.39421 209.39421,-380 0,-380 -209.39421,-380 -380,-209.39421 -380,0 -380,209.39421 -209.39421,380 0,380 209.39421,380 380,209.39421 380,0 Z M 300,0 C 300,166.15904 166.15904,300 0,300 -166.15904,300 -300,166.15904 -300,0 c 0,-166.15904 133.84096,-300 300,-300 166.15904,0 300,133.84096 300,300 z" />
    </g>
  </g>
</svg>
