<svg xmlns="http://www.w3.org/2000/svg" width="20" height="20" viewBox="0 0 20 20"><path d="M6 14v-3h3.37c.65-.31 1.37-.5 2.13-.5h5c.17 0 .33.03.5.05V4.5c0-.83-.67-1.5-1.5-1.5h-11C3.67 3 3 3.67 3 4.5v11c0 .83.67 1.5 1.5 1.5h2.25c-.15-.48-.25-.97-.25-1.5s.1-1.02.25-1.5H6zm5-8h3v3h-3V6zM6 6h3v3H6V6z"/><path d="M9.53 15.16c.16-.98 1.09-1.66 2.08-1.66h.89c.41 0 .75-.34.75-.75s-.34-.75-.75-.75h-.8c-1.9 0-3.6 1.42-3.7 3.31C7.9 17.33 9.5 19 11.5 19h1c.41 0 .75-.34.75-.75s-.34-.75-.75-.75h-1c-1.21 0-2.18-1.09-1.97-2.34zM16.3 12h-.8c-.41 0-.75.34-.75.75s.34.75.75.75h.89c1 0 1.92.68 2.08 1.66.21 1.25-.76 2.34-1.97 2.34h-1c-.41 0-.75.34-.75.75s.34.75.75.75h1c2 0 3.6-1.67 3.5-3.69-.1-1.89-1.8-3.31-3.7-3.31z"/><path d="M12.5 16.25h3c.41 0 .75-.34.75-.75s-.34-.75-.75-.75h-3c-.41 0-.75.34-.75.75s.34.75.75.75z"/></svg>