<svg xmlns="http://www.w3.org/2000/svg" width="20" height="20" viewBox="0 0 20 20"><path d="M16.5 14H16v-1c0-.82-.67-1.5-1.5-1.5S13 12.18 13 13v1h-.5c-.28 0-.5.22-.5.5v3c0 .28.22.5.5.5h4c.28 0 .5-.22.5-.5v-3c0-.28-.22-.5-.5-.5zm-2.75-1c0-.41.34-.75.75-.75s.75.34.75.75v1h-1.5v-1zM8.5 4.2v1.58c-1.74.62-3 2.27-3 4.22 0 1.32.59 2.5 1.5 3.32V12h1.5v4h-4v-1.5h1.55A5.975 5.975 0 0 1 4 10c0-2.79 1.91-5.14 4.5-5.8zm6 5.8c-.08-1.32-.59-2.5-1.5-3.32V8h-1.5V4h4v1.5h-1.55C15.2 6.6 16 8.2 16 10h-1.5z"/></svg>