<svg xmlns="http://www.w3.org/2000/svg" width="20" height="20" viewBox="0 0 20 20"><path d="M8.5 6c.83 0 1.5.67 1.5 1.5S9.33 9 8.5 9 7 8.33 7 7.5 7.67 6 8.5 6m0-1a2.5 2.5 0 0 0 0 5 2.5 2.5 0 0 0 0-5z"/><path fill-rule="evenodd" d="M10.99 9.95A2.5 2.5 0 1 0 11.5 5c-.17 0-.34.02-.51.05.62.63 1.01 1.5 1.01 2.45s-.39 1.82-1.01 2.45z"/><path d="M8.5 12c2.15 0 4.38.77 4.5 1.23V14H4v-.77C4.12 12.77 6.35 12 8.5 12m0-1c-1.84 0-5.5.66-5.5 2.23V15h11v-1.77C14 11.66 10.34 11 8.5 11z"/><path fill-rule="evenodd" d="M13.73 11.23c.75.48 1.27 1.12 1.27 2V15h2v-1.77c0-1.05-1.64-1.69-3.27-2z"/></svg>