<svg xmlns="http://www.w3.org/2000/svg" width="20" height="20" viewBox="0 0 20 20"><path d="M6.5 12H7c1.1 0 2 .9 2 2s-.9 2-2 2h-.5v2.5c0 .28-.22.5-.5.5s-.5-.22-.5-.5V16H5c-1.1 0-2-.9-2-2s.9-2 2-2h.5v-1h-2c-.28 0-.5-.22-.5-.5v-3c0-.28.22-.5.5-.5h2V6H5c-1.1 0-2-.9-2-2s.9-2 2-2h.5v-.5c0-.28.22-.5.5-.5s.5.22.5.5V2H7c1.1 0 2 .9 2 2s-.9 2-2 2h-.5v1h2c.28 0 .5.22.5.5v3c0 .28-.22.5-.5.5h-2v1zm8-1h2c.28 0 .5-.22.5-.5v-3c0-.28-.22-.5-.5-.5h-2V6h.5c1.1 0 2-.9 2-2s-.9-2-2-2h-.5v-.5c0-.28-.22-.5-.5-.5s-.5.22-.5.5V2H13c-1.1 0-2 .9-2 2s.9 2 2 2h.5v1h-2c-.28 0-.5.22-.5.5v3c0 .28.22.5.5.5h2v1H13c-1.1 0-2 .9-2 2s.9 2 2 2h.5v2.5c0 .28.22.5.5.5s.5-.22.5-.5V16h.5c1.1 0 2-.9 2-2s-.9-2-2-2h-.5v-1z"/></svg>