<svg xmlns="http://www.w3.org/2000/svg" width="20" height="20" viewBox="0 0 20 20"><path d="m2 18 11.49-4.07-7.42-7.42L2 18zm8.75-4.69-6.29 2.22 2.22-6.29 4.07 4.07zm1.5-7.68L9.78 8.1l.71.71 2.47-2.47c.78-.78.78-2.05 0-2.83L11.55 2.1l-.71.7 1.41 1.41c.39.39.39 1.03 0 1.42z"/><path d="m8.36 6.69.71.71.71-.71c.78-.78.78-2.05 0-2.83l-.71-.71-.71.71.71.71c.39.39.39 1.02 0 1.41l-.71.71zm7.43 1.89c-.51 0-1.02.2-1.41.59l-1.77 1.77.71.71 1.77-1.77c.2-.2.45-.29.71-.29s.51.1.71.29l1.41 1.41.71-.71-1.43-1.42c-.39-.39-.9-.58-1.41-.58zm2.83-3.66c-.39-.39-.9-.59-1.41-.59s-1.02.2-1.41.59l-4.6 4.6.71.71 4.6-4.6c.2-.2.45-.29.71-.29s.51.1.71.29l.71.71.71-.71-.73-.71z"/></svg>