<svg xmlns="http://www.w3.org/2000/svg" width="20" height="20" viewBox="0 0 20 20"><path d="M15.66 13.88c-.14-.21-.33-.4-.54-.54-.32-.21-.71-.34-1.12-.34s-.8.13-1.12.34c-.21.14-.4.33-.54.54-.03.04-.04.08-.06.12H7.72l1.36-2.09a4.705 4.705 0 0 0 1.84 0l.77 1.19c.22-.26.47-.49.76-.66l-.54-.83c1.64-.68 2.84-2.2 3.05-4.03.04-.31-.18-.58-.49-.58H5.53c-.31 0-.53.27-.5.58a4.986 4.986 0 0 0 3.05 4.03l-3 4.62a.5.5 0 0 0 .15.69.5.5 0 0 0 .69-.15L7.07 15H12c0 1.1.9 2 2 2s2-.9 2-2c0-.41-.13-.8-.34-1.12zM14 16c-.55 0-1-.45-1-1s.45-1 1-1 1 .45 1 1-.45 1-1 1zM8.7 5.72a.242.242 0 1 0 .48.06c.06-.54.04-.85-.56-1.56-.22-.26-.37-.42-.32-.96.02-.14-.1-.26-.24-.26h-.01c-.12 0-.23.1-.24.22-.06.58.11 1.07.56 1.56.12.12.4.34.33.94zm1.5 0a.242.242 0 1 0 .48.06c.06-.54.04-.85-.56-1.56-.22-.26-.37-.42-.32-.96.02-.14-.1-.26-.24-.26h-.01c-.12 0-.23.1-.24.22-.06.58.11 1.07.56 1.56.12.12.4.34.33.94zm1.5 0a.242.242 0 1 0 .48.06c.06-.54.04-.85-.56-1.56-.22-.26-.37-.42-.32-.96.02-.14-.1-.26-.24-.26h-.01c-.13 0-.23.1-.24.22-.06.57.11 1.07.56 1.56.12.12.4.34.33.94z"/></svg>