<svg xmlns="http://www.w3.org/2000/svg" width="20" height="20" viewBox="0 0 20 20"><path d="M16.5 3h-7C8.67 3 8 3.67 8 4.5v5c0 .83.67 1.5 1.5 1.5h7c.83 0 1.5-.67 1.5-1.5v-5c0-.83-.67-1.5-1.5-1.5zm-7 6.5V6h7v3.5h-7z"/><path d="M5.75 7c-.41 0-.75.34-.75.75v4.75c0 .83.67 1.5 1.5 1.5h6.75c.41 0 .75-.34.75-.75s-.34-.75-.75-.75H6.5V7.75c0-.41-.34-.75-.75-.75z"/><path d="M2.75 10c-.41 0-.75.34-.75.75v4.75c0 .83.67 1.5 1.5 1.5h6.75c.41 0 .75-.34.75-.75s-.34-.75-.75-.75H3.5v-4.75c0-.41-.34-.75-.75-.75z"/></svg>