<svg xmlns="http://www.w3.org/2000/svg" width="20" height="20" viewBox="0 0 20 20"><path d="M5.5 15c.83 0 1.5.67 1.5 1.5S6.33 18 5.5 18 4 17.33 4 16.5 4.67 15 5.5 15zm9 0c.83 0 1.5.67 1.5 1.5s-.67 1.5-1.5 1.5-1.5-.67-1.5-1.5.67-1.5 1.5-1.5zM1 2.75c0 .41.34.75.75.75h1.04l2.73 6.37-1.08 1.88c-.58 1 .14 2.25 1.3 2.25h9.52c.41 0 .75-.34.75-.75s-.34-.75-.75-.75H5.73L6.6 11h6.67c.6 0 1.14-.36 1.38-.91l2.06-4.81a.745.745 0 1 0-1.37-.59L13.27 9.5H6.99L4.03 2.61A.98.98 0 0 0 3.12 2H1.75c-.41 0-.75.34-.75.75zm8.47 4.72c.29.29.77.29 1.06 0l1.76-1.76a.996.996 0 0 0 0-1.41l-1.76-1.76c-.29-.29-.77-.29-1.06 0s-.29.77 0 1.06l.66.66H7.75A.74.74 0 0 0 7 5c0 .41.34.75.75.75h2.38l-.66.66c-.29.29-.29.77 0 1.06z"/></svg>