<svg xmlns="http://www.w3.org/2000/svg" width="20" height="20" viewBox="0 0 20 20"><path d="M16.93 9.12c.12-.3.09-.23.13-.35a2.01 2.01 0 0 0-1.19-2.34l-1.66-.67c-.39-.16-.8-.18-1.2-.08a1.95 1.95 0 0 0-.44-.78c-.38-.41-.91-.64-1.46-.64H8.88c-.55 0-1.09.23-1.46.64-.21.23-.35.5-.44.79-.39-.11-.81-.09-1.2.07l-1.66.67c-.91.37-1.42 1.38-1.18 2.34l.14.35C1.06 13.03 1 13 1 13.66c0 1.58 1.65 2.56 3.01 1.87l1.22-.61h9.54l1.22.61c1.38.7 3.01-.31 3.01-1.87 0-.67-.07-.65-2.07-4.54zM3.34 14.19c-.49.25-.84-.22-.84-.53 0-.2-.05-.05 1.31-2.69l.98 2.48-1.45.74zm3.04-.78-2-5.04a.51.51 0 0 1 .3-.55l1.66-.67c.31-.12.64.09.66.42l.52 5.84H6.38zm4.58 0H9.04l-.65-7.12c-.02-.31.22-.54.49-.54h2.24c.27 0 .51.23.49.54l-.65 7.12zm2.66 0h-1.15l.52-5.84c.03-.33.36-.54.66-.42l1.66.67c.22.09.34.32.3.55l-1.99 5.04zm3.04.78-1.45-.73.98-2.48 1.24 2.4c.27.51-.26 1.06-.77.81z"/></svg>