<svg xmlns="http://www.w3.org/2000/svg" width="20" height="20" viewBox="0 0 20 20"><path d="M8.66 3.81 5.19 8.24l1.35 5.05c.22.11.46.21.8.21.72 0 .99-.42 1.67-.65l-.83-3.09 3.86-1.04 1.24 4.65c.55-.24.99-.79 2.41-.65L13.86 5.9l-5.2-2.09z" opacity=".3"/><path d="M12.67 16.5c-.96 0-1.13-.8-2.66-.8-1.56 0-1.68.8-2.67.8-1 0-1.1-.8-2.66-.8s-1.68.8-2.67.8V18c1.56 0 1.68-.8 2.67-.8 1 0 1.1.8 2.66.8s1.68-.8 2.67-.8c.96 0 1.13.8 2.66.8 1.55 0 1.68-.8 2.66-.8.96 0 1.13.8 2.66.8v-1.5c-1 0-1.1-.8-2.66-.8s-1.66.8-2.66.8zm4.77-3.11L15.62 6.6l1.28.51.56-1.39L8.17 2 2 9.87l1.18.93.85-1.08.8 3c-.06 0-.1-.01-.16-.01-1.56 0-1.68.8-2.67.8V15c1.56 0 1.68-.8 2.67-.8 1 0 1.1.8 2.66.8s1.68-.8 2.67-.8c.96 0 1.13.8 2.66.8 1.55 0 1.68-.8 2.66-.8.96 0 1.13.8 2.66.8v-1.5c-.2 0-.38-.04-.54-.11zm-4.15-.02-1.24-4.65-3.87 1.04.83 3.09c-.69.23-.96.65-1.67.65-.34 0-.57-.1-.8-.22L5.19 8.24l3.47-4.42 5.22 2.1 1.83 6.82c-1.42-.15-1.87.4-2.42.63z"/></svg>