<svg xmlns="http://www.w3.org/2000/svg" width="20" height="20" viewBox="0 0 20 20"><path d="M11 10.25h1V11h-1zM11 9h1v.75h-1z" opacity=".3"/><path d="M4.5 15.5h11v-11h-11v11zm5.5-7c0-.28.22-.5.5-.5h2c.28 0 .5.22.5.5v3c0 .28-.22.5-.5.5h-2c-.28 0-.5-.22-.5-.5v-3zM7 8h2v4H8V9H7V8z" opacity=".3"/><path d="M15.5 3h-11C3.67 3 3 3.67 3 4.5v11c0 .83.67 1.5 1.5 1.5h11c.83 0 1.5-.67 1.5-1.5v-11c0-.83-.67-1.5-1.5-1.5zm0 12.5h-11v-11h11v11z"/><path d="M8 12h1V8H7v1h1zm2.5 0h2c.28 0 .5-.22.5-.5v-3c0-.28-.22-.5-.5-.5h-2c-.28 0-.5.22-.5.5v3c0 .28.22.5.5.5zm.5-3h1v.75h-1V9zm0 1.25h1V11h-1v-.75z"/></svg>