<svg xmlns="http://www.w3.org/2000/svg" width="20" height="20" viewBox="0 0 20 20"><path d="M16 11c.01-2.39-1.2-4.96-3-6l-.33.41c-.31.39-.74.57-1.16.57-.77 0-1.51-.59-1.51-1.5V2s-6 3.75-6 9c0 3.31 2.69 6 6 6s6-2.69 6-6zm-6 4.5c-.73 0-1.5-.58-1.5-1.5 0-.47.21-.8.39-1L10 11.75 11.11 13c.18.2.39.53.39 1 0 .83-.67 1.5-1.5 1.5zm2.96-1.13c.03-.25.19-1.35-.73-2.37L10 9.5 7.77 12c-.92 1.02-.76 2.12-.73 2.36C6.1 13.53 5.5 12.34 5.5 11c0-2.41 1.62-4.52 3.06-5.92.28 1.37 1.5 2.39 2.95 2.39.57 0 1.11-.16 1.58-.46.85.99 1.41 2.55 1.41 3.98 0 1.35-.6 2.56-1.54 3.38z"/></svg>