<svg xmlns="http://www.w3.org/2000/svg" width="20" height="20" viewBox="0 0 20 20"><circle cx="10" cy="5.5" r="1.5"/><path d="M16 12v-1c-1.67 0-3.28-.85-4.11-2.16-.34-.55-.98-.84-1.62-.84h-.54c-.64 0-1.28.29-1.62.84C7.28 10.15 5.67 11 4 11v1c2 0 3.51-.75 4.5-1.96v2.45l-2.77 1.19c-.44.2-.73.63-.73 1.11 0 .67.54 1.21 1.21 1.21H8v-.25c0-.96.79-1.75 1.75-1.75h2c.14 0 .25.11.25.25s-.11.25-.25.25h-2c-.69 0-1.25.56-1.25 1.25V16h5.29c.67 0 1.21-.54 1.21-1.21 0-.48-.29-.92-.73-1.11L11.5 12.5v-2.45C12.49 11.25 14 12 16 12z"/></svg>