<svg xmlns="http://www.w3.org/2000/svg" width="20" height="20" viewBox="0 0 20 20"><path d="M10 4.5c1.1 0 2 .9 2 2 0 .92-.62 1.68-1.46 1.92l1.62 1.62c.93.45 2.07.12 2.6-.79.55-.96.22-2.18-.73-2.73-.01-.01-.03-.01-.04-.02.01-.01.03-.01.04-.02a1.997 1.997 0 1 0-2-3.46c-.01.01-.02.02-.03.02V3c0-1.1-.9-2-2-2s-2 .9-2 2v.04c-.01 0-.02-.01-.03-.02a2 2 0 0 0-2.46.37l2.57 2.57c.24-.84 1-1.46 1.92-1.46zM3 11c0 3.86 3.15 7 7 7 0-3.86-3.15-7-7-7zm13.25 3.13c.47-.94.75-2 .75-3.13-1.12 0-2.19.27-3.13.75l2.38 2.38z"/><path d="M2.93 2.93 1.87 3.99 5.2 7.32c-.31.59-.32 1.31.04 1.93.54.93 1.71 1.26 2.66.77l.12.12c.07.99.86 1.78 1.85 1.85l1.66 1.66A6.952 6.952 0 0 0 10 18c1.64 0 3.15-.57 4.35-1.53l1.66 1.66 1.06-1.06L2.93 2.93z"/></svg>