<svg xmlns="http://www.w3.org/2000/svg" width="20" height="20" viewBox="0 0 20 20"><path d="m13.59 6-.29-.29L11.59 4H8.41l-1.7 1.71-.3.29H4v9h12V6h-2.41zM10 14c-2.21 0-4-1.79-4-4H4.5l2-2 2 2H7c0 1.65 1.35 3 3 3 .44 0 .85-.1 1.23-.27l.73.73c-.58.34-1.24.54-1.96.54zm3.5-2-2-2H13c0-1.65-1.35-3-3-3-.44 0-.85.1-1.23.27l-.73-.73C8.62 6.2 9.28 6 10 6c2.21 0 4 1.79 4 4h1.5l-2 2z" opacity=".3"/><path d="M10 13c-1.65 0-3-1.35-3-3h1.5l-2-2-2 2H6c0 2.21 1.79 4 4 4 .72 0 1.38-.2 1.96-.54l-.73-.73c-.38.17-.79.27-1.23.27z"/><path d="M16 5h-2l-2-2H8L6 5H4c-.55 0-1 .45-1 1v9c0 .55.45 1 1 1h12c.55 0 1-.45 1-1V6c0-.55-.45-1-1-1zm0 10H4V6h2.41l.29-.29L8.41 4h3.17l1.71 1.71.3.29H16v9z"/><path d="M10 6c-.72 0-1.38.2-1.96.54l.73.73C9.15 7.1 9.56 7 10 7c1.65 0 3 1.35 3 3h-1.5l2 2 2-2H14c0-2.21-1.79-4-4-4z"/></svg>