<svg xmlns="http://www.w3.org/2000/svg" width="20" height="20" viewBox="0 0 20 20"><path d="M15.33 14.28c-1.95 1.59-3.31 1.65-5.33 0-1.95 1.59-3.31 1.65-5.33 0C3.17 15.5 2.54 15.5 2 15.5V17c.93 0 1.85-.28 2.67-.82a4.79 4.79 0 0 0 5.33 0 4.79 4.79 0 0 0 5.33 0c.82.54 1.74.82 2.67.82v-1.5c-.51 0-1.17 0-2.67-1.22zm1.17-3.78H18V9h-1.5c-1.6 0-2.9-1.3-2.9-2.9 0-.57.18-1.31.46-1.91l.46-.92C13.44 3.1 12.92 3 12.01 3 6.3 3 2 7.08 2 12.5V14c.93 0 1.85-.28 2.67-.82a4.79 4.79 0 0 0 5.33 0 4.79 4.79 0 0 0 5.33 0c.82.54 1.74.82 2.67.82v-1.5c-.51 0-1.17 0-2.67-1.22-1.95 1.59-3.31 1.65-5.33 0-.16.13-.59.47-.65.51-.51-.77-.79-1.66-.79-2.61 0-2.2 1.51-3.92 3.73-4.35-.1.44-.17.88-.17 1.27a4.383 4.383 0 0 0 4.38 4.4z"/></svg>