<svg xmlns="http://www.w3.org/2000/svg" width="20" height="20" viewBox="0 0 20 20"><path d="m5.2 12.44.3.09.3-.09c.42-.13.7-.51.7-.94v-1h-2v1c0 .43.28.81.7.94zM13 3.5h1v1h-1zm-2.5 8h6v2h-6z" opacity=".3"/><path d="M3 11.5c0 1.12.74 2.05 1.75 2.37v2.63H3V18h5v-1.5H6.25v-2.63A2.488 2.488 0 0 0 8 11.5V5H3v6.5zm1.5-5h2V9h-2V6.5zm0 4h2v1c0 .43-.28.81-.7.94l-.3.09-.3-.09a.984.984 0 0 1-.7-.94v-1zm12.56-2.88-.61-.25c-.58-.22-.95-.77-.95-1.39V3c0-.55-.45-1-1-1h-2c-.55 0-1 .45-1 1v2.98c0 .61-.37 1.17-.94 1.39l-.62.25c-.57.23-.94.78-.94 1.4v7.48c0 .83.67 1.5 1.5 1.5h6c.83 0 1.5-.67 1.5-1.5V9.02c0-.62-.37-1.17-.94-1.4zM13 3.5h1v1h-1v-1zm3.5 13h-6V15h6v1.5zm0-3h-6v-2h6v2zm0-3.5h-6v-.98l.61-.25A2.998 2.998 0 0 0 13 6h1c.01 1.23.74 2.31 1.88 2.77l.61.25V10z"/></svg>