<svg xmlns="http://www.w3.org/2000/svg" width="20" height="20" viewBox="0 0 20 20"><path d="M10.75 6v2.63l-1.5-1.5V6h1.5zm-3.43-.8c.79-.45 1.71-.7 2.68-.7 1.64 0 3.11.74 4.12 1.88L12.5 8H17V3.5l-1.82 1.82A6.95 6.95 0 0 0 10 3a7 7 0 0 0-3.77 1.1l1.09 1.1zm8.58 8.57A6.94 6.94 0 0 0 17 10h-1.5c0 .97-.25 1.89-.7 2.68l1.1 1.09zm1.17 3.3-1.06 1.06-2.24-2.24C12.69 16.59 11.39 17 10 17c-3.87 0-7-3.13-7-7a7 7 0 0 1 1.1-3.77L1.87 3.99l1.06-1.06 14.14 14.14zm-4.39-2.27L5.2 7.32c-.45.79-.7 1.71-.7 2.68 0 3.03 2.47 5.5 5.5 5.5.97 0 1.89-.25 2.68-.7z"/></svg>