<svg xmlns="http://www.w3.org/2000/svg" width="20" height="20" viewBox="0 0 20 20"><path d="m17.27 5.31.66-.59-.53-.93-.85.28c-.1-.08-.21-.14-.33-.19L16.04 3h-1.07l-.18.87c-.12.05-.24.12-.34.19l-.85-.27-.54.93.66.59c-.01.13-.01.25 0 .37l-.66.61.54.93.86-.27c.1.07.2.13.31.18l.19.87h1.07l.19-.87c.11-.05.22-.11.32-.18l.85.27.54-.93-.66-.61c.01-.13.01-.25 0-.37zM15.5 6.39c-.49 0-.89-.4-.89-.89s.4-.89.89-.89.89.4.89.89-.4.89-.89.89zm-.29 3.39.47-.42-.38-.64-.59.2c-.07-.05-.15-.1-.23-.13l-.13-.61h-.75l-.13.61c-.08.04-.17.08-.24.14l-.59-.19-.38.65.46.41c-.01.09-.01.18 0 .26l-.46.42.38.65.6-.19c.07.05.14.09.22.12l.14.62h.75l.13-.61c.08-.04.15-.08.22-.13l.59.19.38-.65-.46-.42c.01-.11.01-.19 0-.28zm-1.24.76c-.35 0-.62-.28-.62-.62s.28-.62.62-.62.62.28.62.62-.27.62-.62.62z"/><path d="M6.75 6c.14 0 .25-.11.25-.25v-.7c-.17.04-.34.09-.5.16v.54c0 .14.11.25.25.25zm1.5 0c.14 0 .25-.11.25-.25v-.54c-.16-.07-.33-.12-.5-.16v.7c0 .14.11.25.25.25zM7.5 9.5C8.33 9.5 9 8.83 9 8H6c0 .83.67 1.5 1.5 1.5zm0 3.5c-2.29 0-4.45 1.1-4.5 1.97h9C11.95 14.1 9.79 13 7.5 13z" opacity=".3"/><path d="M7.5 12C5 12 2 13.24 2 15v.97h11V15c0-1.76-3-3-5.5-3zM3 14.97C3.05 14.1 5.21 13 7.5 13s4.45 1.1 4.5 1.97H3zM4.82 8H5a2.5 2.5 0 0 0 5 0h.32c.14 0 .25-.11.25-.25s-.12-.25-.25-.25H10c0-1.02-.62-1.9-1.5-2.29v.54c0 .14-.11.25-.25.25S8 5.89 8 5.75v-.7C7.84 5.02 7.67 5 7.5 5s-.34.02-.5.05v.7c0 .14-.11.25-.25.25s-.25-.11-.25-.25v-.54C5.62 5.6 5 6.48 5 7.5h-.18c-.14 0-.25.11-.25.25s.11.25.25.25zM9 8c0 .83-.67 1.5-1.5 1.5S6 8.83 6 8h3z"/></svg>