<svg xmlns="http://www.w3.org/2000/svg" width="16" height="16" viewBox="0 0 16 16"><path fill-rule="evenodd" d="M8.617 1.045c-.335.28-.628.607-.87.97-.34.02-.68.086-1.01.196a3.877 3.877 0 0 0-1.435.838 3.85 3.85 0 0 0-.97 1.34 3.918 3.918 0 0 0-.346 1.615v2.2c0 .616-.071 1.23-.206 1.834L2.268 11.55l.33-.977a7.61 7.61 0 0 0 .383-2.368V6.004c0-.706.156-1.388.43-2.022A4.923 4.923 0 0 1 4.62 2.307a4.777 4.777 0 0 1 1.795-1.053 4.874 4.874 0 0 1 2.202-.21Zm4.397 7.694a4.475 4.475 0 0 1-.991.231c.058.656.193 1.307.41 1.938l.37 1.113H6.318l-.98.981h.646c0 .526.215 1.04.586 1.412.37.37.885.586 1.412.586.526 0 1.04-.215 1.411-.586s.587-.886.587-1.412h3.505l.478-.658-.586-1.77a7.655 7.655 0 0 1-.363-1.835Zm-4.326 4.98a.997.997 0 0 1-.706.3.997.997 0 0 1-.706-.3.997.997 0 0 1-.3-.705h1.999a.939.939 0 0 1-.287.706Zm6.561-12.053a4.024 4.024 0 0 0-.682-.733l.575-.575.707.707-.6.6ZM8.933 6.567 1 14.5l.707.707L9.666 7.25a4.023 4.023 0 0 1-.733-.682Z" clip-rule="evenodd"/><path d="M12 7a3 3 0 1 0 0-6 3 3 0 0 0 0 6Z"/></svg>