<svg xmlns="http://www.w3.org/2000/svg" width="16" height="16" viewBox="0 0 16 16"><path d="M4.497 5.85a2.496 2.496 0 0 0 1.538-2.31 2.493 2.493 0 0 0-1.538-2.35A2.504 2.504 0 0 0 3.499 1a2.49 2.49 0 0 0-1.388.42A2.487 2.487 0 0 0 1.05 3.987c.095.486.331.932.68 1.283a2.6 2.6 0 0 0 1.269.68v5.088c-.48.101-.92.337-1.269.68-.349.35-.585.797-.68 1.283a2.486 2.486 0 0 0 1.062 2.565 2.48 2.48 0 0 0 1.388.419 2.44 2.44 0 0 0 1-.19 2.485 2.485 0 0 0 1.538-2.349 2.51 2.51 0 0 0-1.998-2.45V5.989s.31-.078.458-.138Zm-.189 6.36a1.5 1.5 0 0 1 .48 2.12 1.551 1.551 0 0 1-.68.559 1.492 1.492 0 0 1-.86.08 1.487 1.487 0 0 1-1.18-1.18 1.49 1.49 0 0 1 .08-.86c.117-.276.312-.512.56-.68a1.49 1.49 0 0 1 .83-.25c.271-.003.538.07.77.211Zm-.77-7.22a1.52 1.52 0 0 1-.83-.25 1.551 1.551 0 0 1-.56-.68 1.491 1.491 0 0 1-.08-.86 1.486 1.486 0 0 1 1.18-1.179 1.49 1.49 0 0 1 .86.08c.276.117.512.312.68.56A1.49 1.49 0 0 1 4.86 4.2a1.52 1.52 0 0 1-.552.579c-.232.136-.499.21-.77.21Z"/><path fill-rule="evenodd" d="M15.054 13.5a2.5 2.5 0 1 1-5 0 2.5 2.5 0 0 1 5 0Zm-2.5 1.5a1.5 1.5 0 1 0 0-3 1.5 1.5 0 0 0 0 3Z" clip-rule="evenodd"/><circle cx="12.554" cy="7.751" r="1"/><circle cx="12.554" cy="3.501" r="1"/></svg>