<svg xmlns="http://www.w3.org/2000/svg" width="16" height="16" viewBox="0 0 16 16"><path fill-rule="evenodd" d="M5 2.41 5.78 2l9 6v.83L9 12.683v-1.2l4.6-3.063L6 3.35V7H5V2.41Z" clip-rule="evenodd"/><path fill-rule="evenodd" d="M4.872 7.808c-.85-.053-1.705.159-2.403.641-.753.485-1.233 1.184-1.499 2.03-.269.81-.213 1.72.106 2.518a3.774 3.774 0 0 0 1.658 1.873c.756.432 1.616.537 2.467.378.861-.162 1.61-.645 2.143-1.285l.005-.006c.529-.687.852-1.489.852-2.352a3.882 3.882 0 0 0-1.066-2.72l-.006-.005c-.585-.585-1.388-1.018-2.257-1.072ZM2.951 9.183c.512-.373 1.172-.517 1.792-.47h.001c.656.048 1.22.328 1.697.804.516.516.803 1.274.803 2.038v.014c.047.649-.183 1.26-.566 1.789-.426.518-.993.85-1.61.991a2.512 2.512 0 0 1-1.83-.282c-.572-.333-1-.808-1.288-1.43-.28-.607-.282-1.265-.091-1.885v-.004a2.865 2.865 0 0 1 1.092-1.565Zm1.554 1.83L3.292 9.748l-.638.637 1.22 1.27-1.22 1.27.638.637L4.505 12.3l1.213 1.264.638-.637-1.219-1.27 1.219-1.27-.638-.637-1.213 1.263Z" clip-rule="evenodd"/></svg>