<svg xmlns="http://www.w3.org/2000/svg" width="20" height="20" viewBox="0 0 20 20"><path d="M7.13 11.23c.65.95 1.73 1.52 2.87 1.52s2.22-.57 2.87-1.52c.36-.53.93-.86 1.56-.94C13.91 9.78 12.01 9 10 9c-2.02 0-3.91.79-4.43 1.29.62.08 1.19.41 1.56.94z"/><circle cx="10" cy="5.5" r="2.5"/><circle cx="3.5" cy="7.5" r="2.5"/><circle cx="16.5" cy="7.5" r="2.5"/><path d="M17.5 11h-2.78c-.49 0-.95.25-1.23.65A4.27 4.27 0 0 1 10 13.5c-.31 0-2.25-.03-3.49-1.85-.24-.35-.67-.65-1.23-.65H2.5c-.83 0-1.5.67-1.5 1.5v3c0 .28.22.5.5.5h5c.28 0 .5-.22.5-.5v-1.37c.89.55 1.92.87 3 .87s2.11-.32 3-.87v1.37c0 .28.22.5.5.5h5c.28 0 .5-.22.5-.5v-3c0-.83-.67-1.5-1.5-1.5z"/></svg>