<svg xmlns="http://www.w3.org/2000/svg" width="20" height="20" viewBox="0 0 20 20"><path d="M4.4 8.3c1.11.35 3.02.7 5.6.7s4.49-.35 5.6-.7c0-.21-2.38-.8-5.6-.8s-5.6.59-5.6.8zm12.1 1.26c-1.45.57-3.82.94-6.5.94s-5.05-.37-6.5-.94v5.7c.43.35 1.82.88 4 1.13V13h5v3.39c2.18-.24 3.57-.78 4-1.13v-5.7z" opacity=".3"/><path d="M6 4.5 3 6V3l3 1.5zM15 3v3l3-1.5L15 3zM9 2v3l3-1.5L9 2zm9 6.25v7.25c0 1.27-3.05 2.35-7 2.5v-3.5H9V18c-3.95-.15-7-1.23-7-2.5V8.25C2 7.01 5.58 6 10 6s8 1.01 8 2.25zM4.4 8.3c1.11.35 3.02.7 5.6.7s4.49-.35 5.6-.7c0-.21-2.38-.8-5.6-.8s-5.6.59-5.6.8zm12.1 1.26c-1.45.57-3.82.94-6.5.94s-5.05-.37-6.5-.94v5.7c.43.35 1.82.88 4 1.13V13h5v3.39c2.18-.24 3.57-.78 4-1.13v-5.7z"/></svg>