<svg xmlns="http://www.w3.org/2000/svg" width="20" height="20" viewBox="0 0 20 20"><path d="M11.5 6.25c0 .97-.78 1.75-1.75 1.75S8 7.22 8 6.25 8.78 4.5 9.75 4.5s1.75.78 1.75 1.75zm1.38 6.42 3.01-6.77.79-.3a.48.48 0 0 0 .28-.26l.83-1.86c.11-.25 0-.55-.25-.66l-1.36-.62c-.25-.11-.55 0-.66.25l-.83 1.87a.5.5 0 0 0-.01.38l.3.8-1.33 3-2.45 1.3-2-1.12c-.13-.08-.28-.13-.44-.16-.74-.13-1.46.33-1.7 1.05L6 12.83c-2.04.33-3.72.83-4.78 1.2-.44.15-.44.78 0 .94.62.22 1.45.48 2.45.73.36-.19.69-.46.98-.77.19-.21.52-.21.71 0C5.93 15.55 6.68 16 7.5 16c.82 0 1.56-.44 2.14-1.06.2-.21.53-.21.72 0 .58.62 1.32 1.06 2.14 1.06.82 0 1.57-.45 2.15-1.07.19-.21.52-.21.71 0 .29.31.62.58.98.77 1-.25 1.83-.51 2.45-.73.44-.15.44-.78 0-.94-1.26-.43-3.37-1.06-5.91-1.36zm-1.05-.1c-.59-.05-1.2-.07-1.83-.07-.25 0-.5.01-.74.02l.57-1.77.87.49c.3.17.67.17.97.01l.98-.53-.82 1.85zM5 18.4c-.7.36-1.46.55-2.22.59a.748.748 0 0 1-.78-.75c0-.39.3-.72.71-.75.68-.04 1.36-.29 1.98-.75.18-.14.43-.14.61 0 1.37 1.01 3.02 1.01 4.39 0 .19-.14.43-.14.61 0 1.37 1.01 3.02 1 4.39 0 .18-.14.43-.14.61 0 .62.46 1.3.7 1.98.75.42.03.72.36.72.75 0 .46-.39.77-.78.75-.76-.04-1.52-.24-2.22-.59-1.57.8-3.43.8-5 0-1.57.8-3.43.8-5 0z"/></svg>