<svg xmlns="http://www.w3.org/2000/svg" width="20" height="20" viewBox="0 0 20 20"><path d="M4.5 12.5V16h11v-3.5h-11zm2 2.75c-.55 0-1-.45-1-1s.45-1 1-1 1 .45 1 1-.45 1-1 1zm7 0c-.55 0-1-.45-1-1s.45-1 1-1 1 .45 1 1-.45 1-1 1z" opacity=".3"/><path d="m11.87 1 1.06 1.06L9.4 5.6 7.28 3.47l1.06-1.06L9.4 3.47 11.87 1zM17 12v6.5c0 .28-.22.5-.5.5h-1c-.28 0-.5-.22-.5-.5v-1H5v1c0 .28-.22.5-.5.5h-1c-.28 0-.5-.22-.5-.5V12l1.62-4.06c.23-.57.78-.94 1.4-.94h7.97c.61 0 1.16.37 1.39.94L17 12zM6.02 8.5l-1 2.5h9.97l-1-2.5H6.02zM15.5 16v-3.5h-11V16h11zm-9-2.75c-.55 0-1 .45-1 1s.45 1 1 1 1-.45 1-1-.45-1-1-1zm7 0c-.55 0-1 .45-1 1s.45 1 1 1 1-.45 1-1-.45-1-1-1z"/></svg>