<svg xmlns="http://www.w3.org/2000/svg" width="20" height="20" viewBox="0 0 20 20"><path d="M4 6.5c-1.1 0-2 .9-2 2V15c0 1.1.9 2 2 2s2-.9 2-2V8.5c0-1.1-.9-2-2-2zm12 1h-1.4V4H7v12h11V9.5c0-1.1-.9-2-2-2zm-7.5-2h4.6v2H8.5v-2zm2.5 8H8V10h3v3.5zm1.5 0c-.41 0-.75-.34-.75-.75s.34-.75.75-.75.75.34.75.75-.34.75-.75.75zm0-2c-.41 0-.75-.34-.75-.75s.34-.75.75-.75.75.34.75.75-.34.75-.75.75zm2.25 2c-.41 0-.75-.34-.75-.75s.34-.75.75-.75.75.34.75.75-.34.75-.75.75zm0-2c-.41 0-.75-.34-.75-.75s.34-.75.75-.75.75.34.75.75-.34.75-.75.75z"/></svg>