<svg xmlns="http://www.w3.org/2000/svg" width="20" height="20" viewBox="0 0 20 20"><circle cx="6" cy="7" r="3"/><path d="M11.03 12.37C9.56 11.5 7.84 11 6 11s-3.56.5-5.03 1.37c-.61.35-.97 1.02-.97 1.72V16h12v-1.91c0-.7-.36-1.37-.97-1.72zm4 0c-.92-.54-1.94-.92-3.02-1.14.92.64 1.48 1.71 1.48 2.86V16H16v-1.91c0-.7-.36-1.37-.97-1.72zM10 10c1.66 0 3-1.34 3-3s-1.34-3-3-3c-.21 0-.42.02-.62.06A4.45 4.45 0 0 1 10.5 7c0 1.13-.43 2.14-1.12 2.93.2.05.41.07.62.07zm9.5-2.25h-1.75V6h-1.5v1.75H14.5v1.5h1.75V11h1.5V9.25h1.75z"/></svg>