<svg xmlns="http://www.w3.org/2000/svg" width="20" height="20" viewBox="0 0 20 20"><path d="m6 6.5-1.8.71c-.52.2-.77.79-.56 1.31L5.88 14h1.46l-.66-7.08A.501.501 0 0 0 6 6.5zm9.81.72L14 6.5a.501.501 0 0 0-.68.42L12.67 14h1.46l2.24-5.48c.2-.51-.05-1.1-.56-1.3zM11.38 5H8.62c-.59 0-1.05.51-1 1.09L8.35 14h3.3l.73-7.91c.05-.58-.41-1.09-1-1.09zm6.72 8.04-1.39-2.71-1.6 3.91 1.22.62c.88.45 1.92-.2 1.92-1.2 0-.22-.05-.43-.15-.62zm-16.2 0c-.1.19-.15.4-.15.62 0 1 1.04 1.65 1.92 1.2l1.22-.62-1.6-3.91-1.39 2.71z"/></svg>