<svg xmlns="http://www.w3.org/2000/svg" width="20" height="20" viewBox="0 0 20 20"><circle cx="8" cy="8" r="3"/><path d="M13.03 13.37C11.56 12.5 9.84 12 8 12s-3.56.5-5.03 1.37c-.61.36-.97 1.02-.97 1.72v.41c0 .83.67 1.5 1.5 1.5h9c.83 0 1.5-.67 1.5-1.5v-.41c0-.7-.36-1.36-.97-1.72zm4.16-11.78c-.27-.33-.75-.37-1.05-.07l-.07.07c-.26.26-.26.67-.02.96 1.43 1.75 2.4 5.26 0 8.21-.24.29-.24.7.02.96l.07.07c.3.3.78.26 1.05-.07 3-3.65 1.77-7.98 0-10.13z"/><path d="M15.07 3.75A.705.705 0 0 0 14 3.66l-.07.07c-.23.23-.28.61-.08.88.94 1.31.81 2.97 0 4.09-.19.27-.15.64.08.88l.07.07c.31.31.82.26 1.07-.09 1.32-1.84 1.16-4.19 0-5.81z"/></svg>