<svg xmlns="http://www.w3.org/2000/svg" width="20" height="20" viewBox="0 0 20 20"><path d="M2.5 18c.83 0 1.5-.67 1.5-1.5v-6C4 9.67 3.33 9 2.5 9S1 9.67 1 10.5v6c0 .83.67 1.5 1.5 1.5zm10.08-8.1c.38.34.96.34 1.34 0 .98-.88 1.9-1.71 2.62-2.5.88-.97 1.46-1.89 1.46-2.79 0-.73-.29-1.39-.76-1.86-1.03-1.03-2.36-.8-3.04-.49-.37.17-.7.42-.95.72-.26-.3-.59-.55-.95-.72-.68-.32-2.01-.54-3.04.49a2.64 2.64 0 0 0-.76 1.86c0 .89.58 1.81 1.46 2.78.72.79 1.64 1.62 2.62 2.51zM10.5 14l-1.03-.34a.516.516 0 1 1 .37-.96l.66.3h2.62c.49 0 .88-.39.88-.88 0-.37-.23-.7-.58-.83l-6.17-2.2C7.08 9.03 6.91 9 6.74 9H5.5v7.36l5.53 1.51c.31.08.64.07.93-.05L18 15.5c0-.83-.67-1.5-1.5-1.5h-6z"/></svg>