<svg xmlns="http://www.w3.org/2000/svg" width="20" height="20" viewBox="0 0 20 20"><path d="M19 5c0 2.21-1.79 4-4 4s-4-1.79-4-4 1.79-4 4-4 4 1.79 4 4zm-3.5 1.5c0-.28-.22-.5-.5-.5s-.5.22-.5.5.22.5.5.5.5-.22.5-.5zM16 16c.55 0 1-.45 1-1v-4.88a5.515 5.515 0 0 1-2.94.3 1.003 1.003 0 0 1-.56 1.83c-.55 0-1-.45-1-1 0-.51.39-.93.88-.99A5.605 5.605 0 0 1 10.39 8H5.02l1-2.5h3.51c-.06-.51-.02-1.11.06-1.5H6.02c-.62 0-1.17.37-1.4.94L3.11 8.73c-.07.18-.11.37-.11.56V15c0 .55.45 1 1 1s1-.45 1-1v-.5h10v.5c0 .55.45 1 1 1zm-9.5-3.75c-.55 0-1-.45-1-1s.45-1 1-1 1 .45 1 1-.45 1-1 1zm9-8.75c0-.28-.22-.5-.5-.5s-.5.22-.5.5v1c0 .28.22.5.5.5s.5-.22.5-.5v-1z"/></svg>