<svg xmlns="http://www.w3.org/2000/svg" width="20" height="20" viewBox="0 0 20 20"><path d="M9.5 11.5V2L3 11.5h6.5zM8 10H5.84L8 6.85V10zm9 1.5C17 5.5 12.03 1 10.5 1c0 0 .8 2.5.8 5.5s-.8 5-.8 5H17zm-4.32-7.15c1.15 1.34 2.33 3.32 2.7 5.65h-2.92c.18-.92.34-2.12.34-3.5 0-.76-.05-1.48-.12-2.15zM17.5 17.5h.5V19h-.5c-.86 0-1.71-.2-2.5-.6-1.58.8-3.43.8-5 0-1.58.8-3.42.8-5 0-.79.4-1.64.6-2.5.6H2v-1.5h.5c.87 0 1.74-.33 2.5-1 1.53 1.33 3.47 1.33 5 0 1.53 1.33 3.48 1.33 5 0 .76.67 1.63 1 2.5 1zm-1.42-1.95c-.41-.27-.78-.64-1.08-1.05-.61.84-1.5 1.5-2.5 1.5s-1.89-.66-2.5-1.5c-.61.84-1.5 1.5-2.5 1.5s-1.89-.66-2.5-1.5c-.3.41-.67.78-1.08 1.05A4.908 4.908 0 0 1 2 12.5h16a4.908 4.908 0 0 1-1.92 3.05z"/></svg>