<svg xmlns="http://www.w3.org/2000/svg" width="20" height="20" viewBox="0 0 20 20"><path d="M16.85 8c.67 0 1.19-.66.96-1.29C17.02 4.59 13.82 3 10 3 6.19 3 2.99 4.59 2.19 6.71c-.24.63.29 1.29.96 1.29h13.7zM2 15.5c0 .83.67 1.5 1.5 1.5h13c.83 0 1.5-.67 1.5-1.5v-1c0-.83-.67-1.5-1.5-1.5h-13c-.83 0-1.5.67-1.5 1.5v1zm13.34-6.25c-1.58 0-1.72 1-2.67 1s-1.08-1-2.67-1c-1.58 0-1.72 1-2.67 1s-1.09-1-2.67-1c-1.28 0-1.61.65-2.19.9-.28.13-.47.39-.47.7 0 .53.54.91 1.03.71.7-.29.96-.82 1.65-.82.95 0 1.09 1 2.67 1 1.58 0 1.72-1 2.67-1s1.08 1 2.67 1c1.58 0 1.72-1 2.67-1 .69 0 .94.53 1.64.81a.758.758 0 0 0 .55-1.41c-.6-.24-.94-.89-2.21-.89z"/></svg>