<svg xmlns="http://www.w3.org/2000/svg" width="20" height="20" viewBox="0 0 20 20"><path d="M3.54 10.72c-.23.33.01.78.41.78H9c.28 0 .5-.22.5-.5V3.62c0-.49-.64-.69-.91-.28l-5.05 7.38zm7.93-9.38a.502.502 0 0 0-.74.55c.24.99.56 2.7.56 4.61 0 1.99-.35 3.54-.59 4.36-.09.32.15.64.48.64h5.3c.28 0 .51-.24.5-.52-.22-4.78-3.55-8.53-5.51-9.64zm4.61 14.21c-.26-.17-.5-.37-.71-.6a.502.502 0 0 0-.73 0c-.58.61-1.32 1.05-2.14 1.05-.82 0-1.56-.44-2.13-1.06a.502.502 0 0 0-.73 0C9.06 15.56 8.32 16 7.5 16c-.82 0-1.56-.44-2.13-1.06a.502.502 0 0 0-.73 0c-.22.23-.46.44-.71.6-.8-.59-1.42-1.42-1.75-2.39-.11-.32.13-.66.48-.66h14.71c.34 0 .58.33.48.66-.35.98-.97 1.81-1.77 2.4zM5 18.4c-.7.36-1.46.55-2.22.59a.748.748 0 0 1-.78-.75c0-.39.3-.72.71-.75.68-.04 1.36-.29 1.98-.75.18-.14.43-.14.61 0 1.37 1.01 3.02 1.01 4.39 0 .19-.14.43-.14.61 0 1.37 1.01 3.02 1 4.39 0 .18-.14.43-.14.61 0 .62.46 1.3.7 1.98.75.42.03.72.36.72.75 0 .46-.39.77-.78.75-.76-.04-1.52-.24-2.22-.59-1.57.8-3.43.8-5 0-1.57.8-3.43.8-5 0z"/></svg>