<svg xmlns="http://www.w3.org/2000/svg" width="20" height="20" viewBox="0 0 20 20"><path d="M15.46 13.34c.17.04.35.06.54.06.98 0 2-.76 2-2.08C18 8.52 16.49 7 14.8 7c-.83 0-1.29.22-3.01.91-.14-.12-.28-.22-.44-.31.22-.99.64-1.47 1.1-1.78.64-.43.95-1.07.95-1.82 0-.98-.76-2-2.08-2C8.69 2 7.2 3.34 7.03 4.91l8.43 8.43zM2.4 3.46c-.29.29-.29.77 0 1.06l2.14 2.14c-.17-.04-.35-.06-.54-.06-.98 0-2 .76-2 2.08C2 11.48 3.51 13 5.2 13c.83 0 1.29-.22 3.01-.91.14.12.28.22.44.31-.22.99-.64 1.47-1.1 1.78-.64.43-.95 1.07-.95 1.82 0 .98.76 2 2.08 2 2.63 0 4.12-1.34 4.29-2.91l2.51 2.51c.29.29.77.29 1.06 0 .29-.29.29-.77 0-1.06L3.46 3.46a.754.754 0 0 0-1.06 0z"/></svg>