<svg xmlns="http://www.w3.org/2000/svg" width="20" height="20" viewBox="0 0 20 20"><path d="m18.84 8.68-1.43-2.85c-.25-.51-.77-.83-1.34-.83h-.57V3.5c0-.28-.22-.5-.5-.5h-1.5c-.28 0-.5.22-.5.5V5h-1.5c-.83 0-1.5.67-1.5 1.5v3H2.5c-.83 0-1.5.67-1.5 1.5v2.5c0 .83.67 1.5 1.5 1.5h.55a2.5 2.5 0 0 0 4.9 0h4.1a2.5 2.5 0 0 0 4.9 0h.55c.83 0 1.5-.67 1.5-1.5V9.35c0-.23-.05-.46-.16-.67zM5.5 15.5c-.55 0-1-.45-1-1s.45-1 1-1 1 .45 1 1-.45 1-1 1zm9 0c-.55 0-1-.45-1-1s.45-1 1-1 1 .45 1 1-.45 1-1 1zm3-6h-6v-3h4.57l1.43 2.85v.15z"/><path d="M8.5 7.5H8V6h.5c.28 0 .5-.22.5-.5S8.78 5 8.5 5h-7c-.28 0-.5.22-.5.5s.22.5.5.5H2v1.5h-.5c-.28 0-.5.22-.5.5s.22.5.5.5h7c.28 0 .5-.22.5-.5s-.22-.5-.5-.5zm-4 0H3V6h1.5v1.5zm2.5 0H5.5V6H7v1.5z"/></svg>