<svg xmlns="http://www.w3.org/2000/svg" width="20" height="20" viewBox="0 0 20 20"><path d="M18.72 5.92C16.29 4.09 13.28 3 10 3S3.71 4.09 1.28 5.92c-.71.54-.76 1.61-.13 2.24l7.79 7.78c.59.59 1.53.59 2.12 0l.93-.93C10.52 14.27 9.5 12.76 9.5 11c0-2.49 2.01-4.5 4.5-4.5 1.76 0 3.27 1.02 4.01 2.5l.84-.84c.63-.63.58-1.7-.13-2.24z"/><path d="M16.58 12.52c.26-.45.42-.96.42-1.52 0-1.66-1.34-3-3-3s-3 1.34-3 3 1.34 3 3 3c.56 0 1.07-.16 1.52-.42l1.89 1.89c.29.29.77.29 1.06 0s.29-.77 0-1.06l-1.89-1.89zM12.5 11c0-.83.67-1.5 1.5-1.5s1.5.67 1.5 1.5-.67 1.5-1.5 1.5-1.5-.67-1.5-1.5z"/></svg>