<svg xmlns="http://www.w3.org/2000/svg" width="20" height="20" viewBox="0 0 20 20"><path d="m7.08 4.96 2.56-2.6c.2-.2.52-.2.71 0l4.17 4.23c1.07 1.1 1.72 2.6 1.72 4.24 0 .96-.23 1.86-.62 2.67L10 7.88V4.14L8.14 6.02 7.08 4.96zm8.4 12.64-1.8-1.8A6.23 6.23 0 0 1 10 17c-3.45 0-6.25-2.76-6.25-6.16 0-1.39.47-2.67 1.26-3.7L2.4 4.52a.754.754 0 0 1 0-1.06c.29-.29.77-.29 1.06 0l13.08 13.08c.29.29.29.77 0 1.06-.29.29-.77.29-1.06 0zM10 12.12 6.09 8.21a4.57 4.57 0 0 0-.84 2.63c0 2.57 2.13 4.66 4.75 4.66v-3.38z"/></svg>