<svg xmlns="http://www.w3.org/2000/svg" width="20" height="20" viewBox="0 0 20 20"><path d="M3.5 3.5v10.88l.88-.88h8.12V9.4c-.31-.57-.5-1.21-.5-1.9s.19-1.34.5-1.91V3.5h-9zM8 12H5v-1.5h3V12zm3-2.75H5v-1.5h6v1.5zm0-2.75H5V5h6v1.5z" opacity=".3"/><path d="M12.5 9.4v4.1H4.38l-.88.88V3.5h9v2.09c.35-.64.87-1.18 1.5-1.54V3.5c0-.83-.67-1.5-1.5-1.5h-9C2.67 2 2 2.67 2 3.5V18l3-3h7.5c.83 0 1.5-.67 1.5-1.5v-2.56c-.63-.37-1.15-.9-1.5-1.54z"/><path d="M5 5h6v1.5H5zm0 5.5h3V12H5zm0-2.75h6v1.5H5zm12-2.54c-.31-.13-.64-.21-1-.21a2.5 2.5 0 0 0 0 5 2.5 2.5 0 0 0 2.5-2.5v-5H20V1h-3v4.21z"/></svg>