<svg xmlns="http://www.w3.org/2000/svg" width="20" height="20" viewBox="0 0 20 20"><path d="M5.67 7h8.67c.17 0 .33.02.49.05.1-.34.17-.69.17-1.06 0-1.23-.65-2.38-1.71-3.01L10 1 6.71 2.98A3.508 3.508 0 0 0 5 5.99c0 .37.07.72.18 1.06.16-.03.32-.05.49-.05z"/><path d="M19.75 5.5c0-.83-1.5-2.5-1.5-2.5s-1.5 1.67-1.5 2.5c0 .55.3 1.03.75 1.29V11H16V9.67C16 8.75 15.25 8 14.33 8H5.67C4.75 8 4 8.75 4 9.67V11H2.5V6.79c.45-.26.75-.74.75-1.29 0-.83-1.5-2.5-1.5-2.5S.25 4.67.25 5.5c0 .55.3 1.03.75 1.29V17h7v-3c0-1.1.9-2 2-2s2 .9 2 2v3h7V6.79c.45-.26.75-.74.75-1.29z"/></svg>