<svg xmlns="http://www.w3.org/2000/svg" width="20" height="20" viewBox="0 0 20 20"><circle cx="10" cy="5.5" r="1.5"/><path d="M16 11.48a.5.5 0 0 0-.45-.5c-1.46-.13-2.83-.9-3.6-2.04-.37-.57-.98-.94-1.66-.94h-.5c-.76 0-1.37.37-1.75.94-.76 1.14-2.13 1.91-3.6 2.04-.25.02-.44.24-.44.5 0 .3.26.52.55.5 1.73-.13 3.05-.84 3.95-1.94v2.45l-2.72 1.17c-.38.16-.69.5-.76.91-.14.77.45 1.43 1.19 1.43H8v-.25c0-.97.78-1.75 1.75-1.75h2c.14 0 .25.11.25.25s-.11.25-.25.25h-2c-.69 0-1.25.56-1.25 1.25V16h5.23c.59 0 1.14-.39 1.25-.97.11-.57-.19-1.13-.71-1.35L11.5 12.5v-2.45c.9 1.09 2.22 1.81 3.95 1.94.29.01.55-.21.55-.51z"/></svg>