<svg xmlns="http://www.w3.org/2000/svg" width="20" height="20" viewBox="0 0 20 20"><path d="M11.67 12.5 10 10.63 8.33 12.5c-.37.42-.58.95-.58 1.5 0 1.24 1.01 2.25 2.25 2.25s2.25-1.01 2.25-2.25c0-.55-.21-1.08-.58-1.5z"/><path d="M12.67 5.41c-.88 1.11-2.67.48-2.67-.94V3.11c0-.47-.54-.74-.91-.46C7.41 3.94 4 7.04 4 11c0 2.2 1.18 4.12 2.95 5.16a3.69 3.69 0 0 1-.7-2.16c0-.92.34-1.81.96-2.5l2.36-2.65c.23-.25.62-.25.85 0l2.29 2.56c.46.52.82 1.14.96 1.83.21 1.08-.04 2.09-.59 2.89 1.43-.86 2.5-2.3 2.81-3.99.46-2.47-.62-5.46-2.46-6.85-.23-.18-.57-.11-.76.12z"/></svg>