<svg xmlns="http://www.w3.org/2000/svg" width="20" height="20" viewBox="0 0 20 20"><path d="M16.49 9.06a.5.5 0 0 0 .5-.49v-.24a.508.508 0 0 0-.2-.43l-6.5-4.61a.512.512 0 0 0-.58 0l-6.5 4.62c-.13.1-.21.25-.21.42v.24c0 .27.23.49.5.49H5v7H3.52c-.28 0-.5.22-.5.5s.22.5.5.5h12.97c.28 0 .5-.22.5-.5s-.22-.5-.5-.5H15v-7h1.49zM13 14.56c0 .28-.22.5-.5.5s-.5-.22-.5-.5v-3.17l-1.6 2.13c-.2.27-.6.27-.8 0L8 11.39v3.17c0 .28-.22.5-.5.5s-.5-.22-.5-.5v-5c0-.28.22-.5.5-.5h.23c.17 0 .32.08.42.22L10 12.06l1.85-2.78c.09-.14.25-.22.42-.22h.23c.28 0 .5.22.5.5v5z"/></svg>