<svg xmlns="http://www.w3.org/2000/svg" width="20" height="20" viewBox="0 0 20 20"><path d="M12 3.75c0-.97.78-1.75 1.75-1.75s1.75.78 1.75 1.75-.79 1.75-1.75 1.75S12 4.72 12 3.75zM6.83 6.38c-.89.5-1.13 1.7-.37 2.43l3.1 2.94L8 15.8l-5.66-2.04-.34.94 10.85 3.9c.67.26 1.39.4 2.15.4 1.09 0 2.12-.29 3-.8l-.74-.74c-.68.35-1.45.54-2.26.54-.6 0-1.14-.1-1.67-.29l-.35-.12 1.9-5.83c-.34-.04-.67-.11-.98-.2l-1.85 5.7-2.62-.94 1.91-4.98-2.6-2.6L10.9 7.5c.65 1.8 2.31 3.12 4.3 3.28l.8-2.47-.95-.31-.38 1.17a3.506 3.506 0 0 1-2.47-2.55l-.24-.97a1.503 1.503 0 0 0-2.21-.95L6.83 6.38z"/></svg>