<svg xmlns="http://www.w3.org/2000/svg" width="20" height="20" viewBox="0 0 20 20"><path d="M11.25 5h-7.5c-.41 0-.75.34-.75.75s.34.75.75.75h7.5c.41 0 .75-.34.75-.75S11.66 5 11.25 5zm-7.5 7.75h4.5c.41 0 .75-.34.75-.75s-.34-.75-.75-.75h-4.5c-.41 0-.75.34-.75.75s.34.75.75.75zm7.5-4.63h-7.5c-.41 0-.75.34-.75.75s.34.75.75.75h7.5c.41 0 .75-.34.75-.75s-.34-.75-.75-.75zm3.5 3.13v-2.5c0-.41-.34-.75-.75-.75s-.75.34-.75.75v2.5h-2.5c-.41 0-.75.34-.75.75s.34.75.75.75h2.5v2.5c0 .41.34.75.75.75s.75-.34.75-.75v-2.5h2.5c.41 0 .75-.34.75-.75s-.34-.75-.75-.75h-2.5z"/></svg>