<svg xmlns="http://www.w3.org/2000/svg" width="20" height="20" viewBox="0 0 20 20"><path d="m16.57 13.59-1.63-1.55C15.31 10.33 13.96 9 12.5 9c-1.18 0-2.5.96-2.5 2.5 0 .69.28 1.32.73 1.77l-.71.71A3.516 3.516 0 0 1 9 11.5c0-1.36.78-2.52 1.91-3.1-.48-.25-1-.4-1.55-.4C6.44 8 6 10.79 6 11.47c-1.12-.13-2-1.07-2-2.22C4 8.01 5.01 7 6.25 7H8.5c.83 0 1.5-.67 1.5-1.5S9.33 4 8.5 4H7v1h1.5c.28 0 .5.22.5.5s-.22.5-.5.5H6.25C4.46 6 3 7.46 3 9.25c0 1.71 1.32 3.1 3 3.22 0 .6.34 3.53 3.36 3.53h6.24c1.26 0 1.87-1.55.97-2.41zM14.25 15c-.41 0-.75-.34-.75-.75s.34-.75.75-.75.75.34.75.75-.34.75-.75.75z"/></svg>