<svg xmlns="http://www.w3.org/2000/svg" width="20" height="20" viewBox="0 0 20 20"><path d="m17.09 18.5-3.47-3.47L12.5 18 10 10l8 2.5-2.97 1.11 3.47 3.47-1.41 1.42zM10 3.5c-3.58 0-6.5 2.92-6.5 6.5s2.92 6.5 6.5 6.5c.15 0 .3-.01.45-.02l.46 1.46c-.3.04-.6.06-.91.06-4.42 0-8-3.58-8-8s3.58-8 8-8a7.998 7.998 0 0 1 7.95 8.91l-1.46-.46c.01-.15.02-.3.02-.45-.01-3.58-2.93-6.5-6.51-6.5m0 3c-1.93 0-3.5 1.57-3.5 3.5 0 1.76 1.31 3.23 3.01 3.47L10 15h-.01C7.23 15 5 12.76 5 10s2.24-5 5-5 5 2.23 5 4.99V10l-1.53-.49A3.512 3.512 0 0 0 10 6.5"/></svg>