<svg xmlns="http://www.w3.org/2000/svg" width="20" height="20" viewBox="0 0 20 20"><path d="M14.5 7.5h-1.1l-.19-1.26A3.258 3.258 0 0 0 10 3.5c-1.32 0-2.45.78-2.96 1.91L6.75 6h-.5C4.73 6 3.5 7.23 3.5 8.75s1.23 2.75 2.75 2.75h8.25c1.1 0 2-.9 2-2s-.9-2-2-2z" opacity=".3"/><path d="M14.69 6.01a4.738 4.738 0 0 0-4.58-4C10.07 2 10.04 2 10 2 8.19 2 6.6 3.02 5.8 4.52A4.258 4.258 0 0 0 2 8.65 4.26 4.26 0 0 0 6.15 13h8.35c1.93 0 3.5-1.57 3.5-3.5 0-1.87-1.46-3.4-3.31-3.49zm-.19 5.49H6.25c-1.52 0-2.75-1.23-2.75-2.75S4.73 6 6.25 6h.5l.29-.59A3.239 3.239 0 0 1 10 3.5c1.62 0 2.96 1.19 3.21 2.74l.19 1.26h1.1c1.1 0 2 .9 2 2s-.9 2-2 2zM12.55 14l-2.49 2.68 1.78 1.02L9.87 20h1.97l2.32-2.7-1.72-.98L14.6 14zm-5 0-2.49 2.68 1.78 1.02L4.87 20h1.97l2.32-2.7-1.72-.98L9.6 14z"/></svg>