<svg xmlns="http://www.w3.org/2000/svg" width="20" height="20" viewBox="0 0 20 20"><path d="M2.5 9h2v6.5h-2zm1-3.5c-.55 0-1 .45-1 1v1h2.01v-1c0-.55-.45-1-1.01-1zm2.51 3.16v6.84H7.5V14a2.5 2.5 0 0 1 5 0v1.5h1.49V8.66L10 5.03 6.01 8.66zm5.24-.41a1.25 1.25 0 1 1-2.5 0 1.25 1.25 0 0 1 2.5 0zM16.5 5.5c-.55 0-1 .45-1 1v1h2.01v-1c-.01-.55-.46-1-1.01-1zm-1 3.5h2v6.5h-2z" opacity=".3"/><circle cx="10" cy="8.25" r="1.25"/><path d="M16.5 4A2.5 2.5 0 0 0 14 6.5v.13L10 3 6.01 6.63V6.5C6.01 5.12 4.89 4 3.5 4A2.5 2.5 0 0 0 1 6.5V17h8v-3c0-.55.45-1 1-1s1 .45 1 1v3h8V6.5A2.5 2.5 0 0 0 16.5 4zm-12 11.5h-2V9h2v6.5zm.01-8H2.5v-1c0-.55.45-1 1-1s1 .45 1 1v1zm9.48 8H12.5V14a2.5 2.5 0 0 0-5 0v1.5H6.01V8.66L10 5.03l3.99 3.63v6.84zm3.51 0h-2V9h2v6.5zm0-8h-2.01v-1c0-.55.45-1 1-1s1 .45 1 1v1z"/></svg>