<svg xmlns="http://www.w3.org/2000/svg" width="20" height="20" viewBox="0 0 20 20"><path d="M16.5 14H16v-1c0-.82-.67-1.5-1.5-1.5S13 12.18 13 13v1h-.5c-.28 0-.5.22-.5.5v3c0 .28.22.5.5.5h4c.28 0 .5-.22.5-.5v-3c0-.28-.22-.5-.5-.5zm-1.25 0h-1.5v-1c0-.41.34-.75.75-.75s.75.34.75.75v1zM4 10c0-2.39 1.4-4.45 3.42-5.41.5-.24 1.08.13 1.08.68 0 .29-.17.56-.44.68C6.55 6.68 5.5 8.21 5.5 10c0 1.32.59 2.5 1.5 3.32v-.54c0-.41.32-.77.73-.78.42-.01.77.33.77.75v2.75c0 .28-.22.5-.5.5H5.28c-.41 0-.77-.32-.78-.73-.01-.42.33-.77.75-.77h.8A5.975 5.975 0 0 1 4 10zm8.25-2c-.41 0-.75-.34-.75-.75V4.5c0-.28.22-.5.5-.5h2.75c.41 0 .75.34.75.75s-.34.75-.75.75h-.8C15.2 6.6 16 8.2 16 10h-1.5c-.08-1.32-.59-2.5-1.5-3.32v.57c0 .41-.34.75-.75.75z"/></svg>