<svg xmlns="http://www.w3.org/2000/svg" width="20" height="20" viewBox="0 0 20 20"><path d="M15.75 9v-.5c.41 0 .75-.34.75-.75S16.16 7 15.75 7h-4c-.41 0-.75.34-.75.75s.34.75.75.75V9s-1.25 1-1.25 2.5v5c0 .83.67 1.5 1.5 1.5h3.5c.83 0 1.5-.67 1.5-1.5v-5.25C17 10 15.75 9 15.75 9zm-.25 7.5H12V15h3.5v1.5zm0-4.5H12v-.5c0-1.13 1.25-1.25 1.25-2.5v-.5h1V9c0 1.25 1.25 1.37 1.25 2.5v.5zM6 10.5c0 .28.22.5.5.5H8v1.5H4.5v-6H8V8H6.5c-.28 0-.5.22-.5.5s.22.5.5.5H8v1H6.5c-.28 0-.5.22-.5.5zM2.25 5.75c0 .41.34.75.75.75v6c0 .83.67 1.5 1.5 1.5h1v3L7 18.5V14h1c.83 0 1.5-.67 1.5-1.5v-6c.41 0 .75-.34.75-.75S9.91 5 9.5 5H7V3.5h.5c.41 0 .75-.34.75-.75S7.91 2 7.5 2H5c-.41 0-.75.34-.75.75s.34.75.75.75h.5V5H3c-.41 0-.75.34-.75.75z"/></svg>