<svg xmlns="http://www.w3.org/2000/svg" width="20" height="20" viewBox="0 0 20 20"><path d="M3.5 6.5v9h5.03a4.07 4.07 0 0 1-.03-.5c0-3.04 2.46-5.5 5.5-5.5.9 0 1.75.22 2.5.61V6.5h-13z" opacity=".3"/><path d="M3.5 15.5v-9h13v3.61c.56.29 1.07.67 1.5 1.13V6.5c0-.83-.67-1.5-1.5-1.5H13V3.5c0-.83-.67-1.5-1.5-1.5h-3C7.67 2 7 2.67 7 3.5V5H3.5C2.67 5 2 5.67 2 6.5v9c0 .83.67 1.5 1.5 1.5h5.38c-.18-.47-.31-.97-.36-1.5H3.5zm5-12h3V5h-3V3.5z"/><path d="M14 11c-2.21 0-4 1.79-4 4s1.79 4 4 4 4-1.79 4-4-1.79-4-4-4zm-.5 2h1v1.79l1.35 1.35-.71.71-1.65-1.65V13z"/></svg>