<svg xmlns="http://www.w3.org/2000/svg" width="20" height="20" viewBox="0 0 20 20"><path d="M5.56 2.02a4.017 4.017 0 0 0-3.54 3.53C2 5.81 1.79 6 1.53 6c-.28 0-.5-.22-.5-.5v-.04a5.007 5.007 0 0 1 4.41-4.43h.06c.28 0 .5.22.5.5 0 .25-.19.47-.44.49zm12.42 12.42c-.21 1.85-1.68 3.33-3.53 3.53a.5.5 0 0 0-.45.5c0 .28.22.5.5.5h.04a5.007 5.007 0 0 0 4.43-4.41v-.06c0-.28-.22-.5-.5-.5a.49.49 0 0 0-.49.44zm-7.51-6.33c-.2.2-.51.2-.71 0-.2-.2-.2-.51 0-.71L14 3.16a.996.996 0 1 0-1.41-1.41L6.21 8.14c.91 1.22.93 2.9.04 4.13-.18.25-.54.27-.75.05a.5.5 0 0 1-.06-.64c.7-.98.61-2.34-.27-3.22-.2-.2-.2-.51 0-.71l3.18-3.18a.996.996 0 1 0-1.41-1.41L3.05 7.05c-2.73 2.73-2.73 7.17 0 9.9s7.17 2.73 9.9 0l5.66-5.66a.996.996 0 1 0-1.41-1.41l-3.18 3.18c-.2.2-.51.2-.71 0-.2-.2-.2-.51 0-.71l5.13-5.13a.996.996 0 1 0-1.41-1.41l-4.42 4.42c-.2.2-.51.2-.71 0-.2-.2-.2-.51 0-.71l5.3-5.3a.996.996 0 1 0-1.41-1.41l-5.32 5.3z"/></svg>