<svg xmlns="http://www.w3.org/2000/svg" width="20" height="20" viewBox="0 0 20 20"><path d="M10 3c-3.87 0-7 3.13-7 7s3.13 7 7 7 7-3.13 7-7-3.13-7-7-7zm.5 2.45 1.55-1.08c1.14.41 2.11 1.16 2.81 2.12l-.48 1.67-.68.23-3.2-2.24v-.7zm2.51 3.68-1.14 3.37H8.12L6.99 9.13 10 7.02l3.01 2.11zM7.95 4.37 9.5 5.45v.7L6.31 8.39l-.68-.24-.48-1.66c.69-.96 1.67-1.71 2.8-2.12zM6.8 13.55l-1.52.13c-.79-1-1.26-2.26-1.27-3.63l1.3-.95.69.24 1.19 3.53-.39.68zm4.73 2.25c-.49.13-1 .2-1.53.2s-1.04-.08-1.53-.2l-.81-1.74.32-.55h4.04l.32.55-.81 1.74zm3.19-2.11-1.52-.13-.4-.68L14 9.34l.69-.24 1.3.95a5.953 5.953 0 0 1-1.27 3.64z"/></svg>