<svg xmlns="http://www.w3.org/2000/svg" width="20" height="20" viewBox="0 0 20 20"><path d="M15.5 12c.28 0 .5-.22.5-.5v-1.25c0-.28-.22-.5-.5-.5H14V9h1.07c.09.15.25.25.43.25.28 0 .5-.22.5-.5V8.5c0-.28-.22-.5-.5-.5h-2c-.28 0-.5.22-.5.5v1.25c0 .28.22.5.5.5H15V11h-1.07a.504.504 0 0 0-.43-.25c-.17 0-.32.09-.41.22L14.12 12h1.38zM3.46 3.46a.754.754 0 0 0-1.06 0c-.29.29-.29.77 0 1.06l3.7 3.7c-.06.08-.1.17-.1.28v1H5v-1c0-.28-.22-.5-.5-.5s-.5.22-.5.5v3c0 .28.22.5.5.5s.5-.22.5-.5v-1h1v1c0 .28.22.5.5.5s.5-.22.5-.5V9.12l2 2v.38c0 .28.22.5.5.5h.38l5.6 5.6c.29.29.77.29 1.06 0 .29-.29.29-.77 0-1.06L3.46 3.46z"/></svg>