<svg xmlns="http://www.w3.org/2000/svg" width="20" height="20" viewBox="0 0 20 20"><path d="m17.48 16.41-3.74-3.74A6.002 6.002 0 0 0 14.9 7.9c-.44-2.47-2.48-4.45-4.97-4.83A6 6 0 0 0 3.09 8h1.53a4.505 4.505 0 0 1 5.19-3.43c1.76.31 3.22 1.7 3.59 3.45A4.51 4.51 0 0 1 9 13.49c-1.76 0-3.27-1.02-4.01-2.5H3.35c.82 2.33 3.04 4 5.65 4 1.39 0 2.66-.48 3.68-1.27l3.74 3.74c.29.29.77.29 1.06 0 .29-.28.29-.76 0-1.05z"/><path d="m7 7.56.95 3.81a.835.835 0 0 0 1.6.06l.74-2.23.76 1.52c.09.17.26.28.45.28h.5c.28 0 .5-.22.5-.5s-.22-.5-.5-.5h-.19l-.76-1.52a.883.883 0 0 0-.78-.48.87.87 0 0 0-.83.6l-.66 1.97-.98-3.95A.834.834 0 0 0 7 6c-.38 0-.7.26-.8.62L5.61 9H1.5c-.28 0-.5.22-.5.5s.22.5.5.5H6c.23 0 .43-.16.49-.38L7 7.56z"/></svg>