<svg xmlns="http://www.w3.org/2000/svg" width="20" height="20" viewBox="0 0 20 20"><circle cx="10.5" cy="4.5" r="1.5"/><path d="m15.25 15.05-.64-4.92c-.06-.5-.49-.88-.99-.88H12c-.48-.16-.93-.41-1.3-.78L8.66 6.44s-.01 0-.01-.01l-.01-.01c-.59-.57-1.52-.57-2.1.01l-2.31 2.3c-.25.35-.34.8-.25 1.22l.76 3.28-2.32 3.09 1.22.88 2.68-3.59-.19-1.19 1.11 1.08V17h1.5v-4.2l-2.2-2.2 2.08-2.08c1.09 1.09 1.34 1.42 2.23 1.87L10 17h1.01l.39-3h2.71l.16 1.26c-.31.23-.52.57-.52.99a1.25 1.25 0 0 0 2.5 0c0-.6-.44-1.08-1-1.2zM11.53 13l.36-2.75h1.73l.35 2.75h-2.44z"/></svg>