<svg xmlns="http://www.w3.org/2000/svg" width="20" height="20" viewBox="0 0 20 20"><path d="M4 3h5v1H4zm0 2v1h2v3h.99V6H9V5zm6.993 11.15 5-5 .7.7-5 5zm1.717-3.44a.996.996 0 1 0-1.41-1.41.996.996 0 1 0 1.41 1.41zm4 2.58a.996.996 0 1 0-1.41 1.41.996.996 0 1 0 1.41-1.41zM12.5 9c.83 0 1.5-.67 1.5-1.5V4h2V3h-3v3.09a1.64 1.64 0 0 0-.5-.09c-.83 0-1.5.67-1.5 1.5S11.67 9 12.5 9zm-4.46 3.67-1.41 1.41-.71-.71.35-.35c.59-.59.59-1.54 0-2.12-.29-.29-.68-.44-1.06-.44s-.77.15-1.06.44a1.49 1.49 0 0 0 0 2.12l.35.35-1.06 1.06a1.49 1.49 0 0 0 0 2.12c.29.3.68.45 1.06.45s.77-.15 1.06-.44l1.06-1.06 1.41 1.41.71-.71-1.41-1.41 1.41-1.41-.7-.71zm-3.19-.35a.502.502 0 0 1-.15-.35c0-.08.02-.23.15-.35.13-.13.28-.15.35-.15.08 0 .23.02.35.15s.15.28.15.35c0 .08-.02.23-.15.35l-.35.35-.35-.35zm0 3.53c-.12.13-.27.15-.35.15s-.23-.02-.35-.15c-.13-.12-.15-.27-.15-.35s.02-.23.15-.35l1.06-1.06.71.71-.71.7-.36.35z"/></svg>