<svg xmlns="http://www.w3.org/2000/svg" width="20" height="20" viewBox="0 0 20 20"><path d="M10 5.76C8.27 7.19 8 9.08 8 10c0 .91.27 2.81 2 4.24 1.73-1.43 2-3.33 2-4.24 0-.92-.27-2.81-2-4.24z"/><path d="M13.5 4.5c-.96 0-1.86.25-2.65.69.42.38.77.77 1.04 1.18.49-.23 1.03-.37 1.61-.37 2.21 0 4 1.79 4 4s-1.79 4-4 4c-.58 0-1.12-.14-1.61-.36-.27.4-.62.8-1.04 1.18.79.43 1.69.69 2.65.69 3.04 0 5.5-2.46 5.5-5.5 0-3.05-2.46-5.51-5.5-5.51zm-7 9.5c-2.21 0-4-1.79-4-4s1.79-4 4-4c.58 0 1.12.14 1.61.36.27-.4.62-.8 1.04-1.18A5.497 5.497 0 0 0 1 10c0 3.04 2.46 5.5 5.5 5.5.96 0 1.86-.25 2.65-.69-.42-.38-.77-.77-1.04-1.18-.49.23-1.03.37-1.61.37z"/></svg>