<svg xmlns="http://www.w3.org/2000/svg" width="20" height="20" viewBox="0 0 20 20"><path d="M6 1.75c0 .41-.34.75-.75.75H3.5v1.75c0 .41-.34.75-.75.75S2 4.66 2 4.25v-2.5c0-.41.34-.75.75-.75h2.5c.41 0 .75.34.75.75zm8 0c0-.41.34-.75.75-.75h2.5c.41 0 .75.34.75.75v2.5c0 .41-.34.75-.75.75s-.75-.34-.75-.75V2.5h-1.75c-.41 0-.75-.34-.75-.75zM17.25 15c.41 0 .75.34.75.75v2.5c0 .41-.34.75-.75.75h-2.5c-.41 0-.75-.34-.75-.75s.34-.75.75-.75h1.75v-1.75c0-.41.34-.75.75-.75zm-14.5 0c.41 0 .75.34.75.75v1.75h1.75c.41 0 .75.34.75.75s-.34.75-.75.75h-2.5c-.41 0-.75-.34-.75-.75v-2.5c0-.41.34-.75.75-.75zM13.57 4H6.43C5.64 4 5 4.67 5 5.5v9c0 .83.64 1.5 1.43 1.5h7.14c.79 0 1.43-.67 1.43-1.5v-9c0-.83-.64-1.5-1.43-1.5zM8 12.25c0-.41.34-.75.75-.75h2.5c.41 0 .75.34.75.75s-.34.75-.75.75h-2.5c-.41 0-.75-.34-.75-.75zM8 10c0-.41.34-.75.75-.75h2.5c.41 0 .75.34.75.75s-.34.75-.75.75h-2.5c-.41 0-.75-.34-.75-.75zm0-2.25c0-.41.34-.75.75-.75h2.5c.41 0 .75.34.75.75s-.34.75-.75.75h-2.5c-.41 0-.75-.34-.75-.75z"/></svg>