<svg xmlns="http://www.w3.org/2000/svg" width="20" height="20" viewBox="0 0 20 20"><path d="M17 10c0-.68-.1-1.34-.29-1.97.49-.55.6-1.36.21-2.03-.39-.67-1.15-.98-1.87-.83a6.98 6.98 0 0 0-3.4-1.96C11.42 2.51 10.77 2 10 2s-1.42.51-1.65 1.21a6.98 6.98 0 0 0-3.4 1.96c-.73-.15-1.49.16-1.88.83-.39.67-.27 1.48.22 2.03C3.1 8.66 3 9.32 3 10s.1 1.34.29 1.97a1.732 1.732 0 0 0 1.65 2.86c.33.35.69.66 1.09.93l-.55 1.17A.76.76 0 0 0 6.17 18c.29 0 .56-.17.68-.43l.51-1.09c.32.13.65.23.99.32.23.69.88 1.2 1.65 1.2s1.42-.51 1.65-1.21c.34-.08.67-.19.99-.32l.51 1.09a.752.752 0 0 0 1.36-.64l-.55-1.17c.4-.27.76-.59 1.09-.93.72.15 1.48-.16 1.87-.83.39-.67.27-1.48-.21-2.03.19-.62.29-1.28.29-1.96zm-5.54 5.3c-.31-.48-.85-.8-1.46-.8s-1.15.32-1.46.8c-.19-.05-.37-.11-.55-.18l1.06-2.28c.3.09.62.16.95.16s.65-.07.95-.17l1.06 2.28c-.18.07-.36.13-.55.19zm3.86-3.92c-.57.03-1.11.34-1.42.87-.31.53-.3 1.16-.04 1.67-.17.16-.35.32-.53.46l-1.1-2.37c.47-.54.77-1.23.77-2.01 0-1.66-1.34-3-3-3s-3 1.34-3 3a3 3 0 0 0 .78 2.01l-1.1 2.37c-.19-.14-.37-.29-.53-.46.26-.51.26-1.14-.04-1.67a1.75 1.75 0 0 0-1.42-.87c-.12-.44-.19-.9-.19-1.38s.07-.94.18-1.38c.57-.03 1.12-.34 1.42-.87.31-.53.3-1.16.04-1.67.66-.64 1.48-1.12 2.4-1.38.31.48.85.8 1.46.8s1.15-.32 1.46-.8c.91.25 1.73.73 2.39 1.38-.26.51-.26 1.14.04 1.67.31.53.85.84 1.42.87.11.44.18.9.18 1.38s-.06.94-.17 1.38z"/></svg>