<svg xmlns="http://www.w3.org/2000/svg" width="20" height="20" viewBox="0 0 20 20"><path d="M15 11V8.85c0-.53-.28-1.02-.73-1.29l-3.52-2.11v-1.2h1c.41 0 .75-.34.75-.75s-.34-.75-.75-.75h-1v-1c0-.41-.34-.75-.75-.75s-.75.34-.75.75v1h-1c-.41 0-.75.34-.75.75s.34.75.75.75h1v1.2L5.73 7.56c-.45.27-.73.76-.73 1.29V11l-1.97.66c-.62.2-1.03.78-1.03 1.42v3.42c0 .83.67 1.5 1.5 1.5H8v-1.89c0-1 .68-1.92 1.66-2.08A2 2 0 0 1 12 16v2h4.5c.83 0 1.5-.67 1.5-1.5v-3.42c0-.65-.41-1.22-1.03-1.42L15 11zm-5 .25a1.25 1.25 0 1 1 0-2.5 1.25 1.25 0 0 1 0 2.5z"/></svg>