<svg xmlns="http://www.w3.org/2000/svg" width="20" height="20" viewBox="0 0 20 20"><path d="M16.5 4h-13C2.67 4 2 4.67 2 5.5v9c0 .83.67 1.5 1.5 1.5h13c.83 0 1.5-.67 1.5-1.5v-9c0-.83-.67-1.5-1.5-1.5zM8.75 14h-2.5c-.14 0-.25-.11-.25-.25v-2.5c0-.14.11-.25.25-.25h2.5c.14 0 .25.11.25.25v2.5c0 .14-.11.25-.25.25zm0-5h-2.5C6.11 9 6 8.89 6 8.75v-2.5c0-.14.11-.25.25-.25h2.5c.14 0 .25.11.25.25v2.5c0 .14-.11.25-.25.25zm5 5h-2.5c-.14 0-.25-.11-.25-.25v-2.5c0-.14.11-.25.25-.25h2.5c.14 0 .25.11.25.25v2.5c0 .14-.11.25-.25.25zm0-5h-2.5c-.14 0-.25-.11-.25-.25v-2.5c0-.14.11-.25.25-.25h2.5c.14 0 .25.11.25.25v2.5c0 .14-.11.25-.25.25z"/></svg>