<svg xmlns="http://www.w3.org/2000/svg" width="20" height="20" viewBox="0 0 20 20"><path d="M16.72 17.42c-.2.2-.51.2-.71 0l-4.68-4.68c-.04.03-.08.06-.11.09-.57.43-.98.75-1.21 1.43-.42 1.27-.97 1.99-1.93 2.49-.36.17-.76.25-1.16.25-.92 0-1.76-.5-2.3-1.23-.24-.32.01-.77.41-.77.15 0 .31.06.4.19.36.48.91.81 1.49.81.25 0 .5-.05.73-.15.6-.32 1.03-.74 1.42-1.9.33-.99.95-1.46 1.56-1.92l-2.1-2.1c-.73-.17-1.29-.73-1.47-1.45L5.24 6.66c-.1.29-.18.59-.22.91a.48.48 0 0 1-.49.43c-.3 0-.53-.26-.5-.56.06-.55.23-1.06.45-1.54l-1.9-1.91c-.2-.2-.2-.51 0-.71s.51-.2.71 0l13.44 13.44c.18.19.18.51-.01.7zM7.81 6.4l2.79 2.79c.25-.34.4-.74.4-1.19 0-1.1-.9-2-2-2-.45 0-.85.15-1.19.4zM9.04 4C11.26 4 13 5.71 13 7.9c0 .72-.22 1.51-.63 2.24-.1.19-.21.34-.32.49l.72.72c.16-.22.32-.45.47-.72.49-.87.76-1.85.76-2.73C14 5.15 11.83 3 9.04 3c-1.29 0-2.46.48-3.35 1.27l.71.71C7.11 4.37 8.03 4 9.04 4zM15 8c0 1.55-.6 2.96-1.56 4.02l.71.71A6.972 6.972 0 0 0 16 8c0-2.01-.85-3.82-2.2-5.09a.513.513 0 0 0-.71 0c-.2.2-.2.52 0 .71A5.994 5.994 0 0 1 15 8z"/></svg>