<svg xmlns="http://www.w3.org/2000/svg" width="20" height="20" viewBox="0 0 20 20"><path d="M8.26 3c0 .97-.78 1.75-1.75 1.75S4.76 3.97 4.76 3s.78-1.75 1.75-1.75S8.26 2.03 8.26 3zm8.07-2h-1.41L12.4 3.51l.71.71L16.33 1zM15 16.5c-1.53 1.33-3.48 1.33-5 0-1.52 1.33-3.47 1.33-5 0-.76.67-1.63 1-2.5 1H2V19h.5c.86 0 1.71-.2 2.5-.6 1.58.8 3.42.8 5 0 1.57.8 3.42.8 5 0 .79.4 1.64.6 2.5.6h.5v-1.5h-.5c-.87 0-1.74-.33-2.5-1zm.52-6.5c-1.1 0-2.7.49-4.39 1.25L10 10H8V7h1c1.51 0 2.86-.67 3.78-1.72l-1.07-1.07A3.48 3.48 0 0 1 9 5.5H6.5C5.67 5.5 5 6.17 5 7v3.52c0 .32.07.63.22.91l1.28 2.52c-.42.31-.82.63-1.19.94C5.9 15.53 6.66 16 7.5 16c1 0 1.89-.66 2.5-1.5.55.76 1.33 1.37 2.22 1.48C14.85 14.3 17 12.3 17 11.02c0-.82-.81-1.02-1.48-1.02zm-7.64 3-.58-1.5h2.03l.39.44c-.48.25-1.36.75-1.84 1.06z"/></svg>