<svg xmlns="http://www.w3.org/2000/svg" width="20" height="20" viewBox="0 0 20 20"><path d="m14.53 13.47 2.76-2.76a.996.996 0 0 0 0-1.41l-2.76-2.76a.754.754 0 0 0-1.06 0c-.29.29-.29.77 0 1.06l1.66 1.66H8.75A.74.74 0 0 0 8 10c0 .41.34.75.75.75h6.38l-1.66 1.66c-.29.29-.29.77 0 1.06.29.29.77.29 1.06 0z"/><path d="M15.5 15.5h-11v-11h11v.75c0 .41.34.75.75.75s.75-.34.75-.75V4.5c0-.83-.67-1.5-1.5-1.5h-11C3.67 3 3 3.67 3 4.5v11c0 .83.67 1.5 1.5 1.5h11c.83 0 1.5-.67 1.5-1.5v-.75c0-.41-.34-.75-.75-.75s-.75.34-.75.75v.75z"/></svg>