<svg xmlns="http://www.w3.org/2000/svg" width="20" height="20" viewBox="0 0 20 20"><path d="M2.5 9c-.55 0-1-.45-1-1s.45-1 1-1 1 .45 1 1-.45 1-1 1zM5 17.5c-.55 0-1-.45-1-1s.45-1 1-1 1 .45 1 1-.45 1-1 1zm4-15c0-.55.45-1 1-1s1 .45 1 1-.45 1-1 1-1-.45-1-1zm1 10c-1.24 0-2.25-1.01-2.25-2.25S8.76 8 10 8s2.25 1.01 2.25 2.25S11.24 12.5 10 12.5zm5 3c.55 0 1 .45 1 1s-.45 1-1 1-1-.45-1-1 .45-1 1-1zM17.5 9c-.55 0-1-.45-1-1s.45-1 1-1 1 .45 1 1-.45 1-1 1z" opacity=".3"/><path d="M17.5 5.5a2.5 2.5 0 0 0-2.49 2.72l-1.59.48c-.52-1.15-1.61-2-2.92-2.17V4.95a2.5 2.5 0 1 0-1 0v1.58c-1.3.18-2.39 1.02-2.92 2.17l-1.59-.48C5 8.15 5 8.08 5 8a2.5 2.5 0 0 0-5 0 2.5 2.5 0 0 0 2.5 2.5c.95 0 1.78-.53 2.2-1.32l1.6.48c-.18 1.12.15 2.3.99 3.18l-1.15 1.43C5.8 14.1 5.41 14 5 14a2.5 2.5 0 0 0 0 5 2.5 2.5 0 0 0 1.92-4.1l1.15-1.43c1.18.71 2.68.71 3.86 0l1.15 1.43a2.5 2.5 0 1 0 4.42 1.6A2.5 2.5 0 0 0 15 14c-.41 0-.8.1-1.14.27l-1.15-1.43c.84-.88 1.17-2.06.99-3.18l1.59-.48c.42.78 1.25 1.32 2.2 1.32a2.5 2.5 0 0 0 2.5-2.5c.01-1.38-1.11-2.5-2.49-2.5zM2.5 9c-.55 0-1-.45-1-1s.45-1 1-1 1 .45 1 1-.45 1-1 1zM5 17.5c-.55 0-1-.45-1-1s.45-1 1-1 1 .45 1 1-.45 1-1 1zm4-15c0-.55.45-1 1-1s1 .45 1 1-.45 1-1 1-1-.45-1-1zm1 10c-1.24 0-2.25-1.01-2.25-2.25S8.76 8 10 8s2.25 1.01 2.25 2.25S11.24 12.5 10 12.5zm5 3c.55 0 1 .45 1 1s-.45 1-1 1-1-.45-1-1 .45-1 1-1zM17.5 9c-.55 0-1-.45-1-1s.45-1 1-1 1 .45 1 1-.45 1-1 1z"/></svg>