<svg xmlns="http://www.w3.org/2000/svg" width="20" height="20" viewBox="0 0 20 20"><path d="M11 15v-3c0-.55.45-1 1-1h5c.55 0 1 .45 1 1v3c0 .55-.45 1-1 1h-5c-.55 0-1-.45-1-1zm0-10v3c0 .55.45 1 1 1h5c.55 0 1-.45 1-1V5c0-.55-.45-1-1-1h-5c-.55 0-1 .45-1 1zm1.5.5h4v2h-4v-2zm-6.4 5.91c.29-.29.77-.29 1.06 0l1.99 1.99c.2.2.2.51 0 .71l-2 2c-.29.29-.77.29-1.06 0a.754.754 0 0 1 0-1.06l.53-.53v-.02h-.14c-2.74 0-5.19-2-5.45-4.73A5.245 5.245 0 0 1 6.25 4h2.5c.41 0 .75.34.75.75s-.34.75-.75.75H6.46c-2.03 0-3.85 1.52-3.96 3.55A3.755 3.755 0 0 0 6.25 13h.37v-.01l-.52-.52a.754.754 0 0 1 0-1.06z"/></svg>