<svg xmlns="http://www.w3.org/2000/svg" width="20" height="20" viewBox="0 0 20 20"><path d="M16.18 14.18c-.35-.35-.9-.38-1.31-.09-.81.57-1.8.91-2.87.91a4.99 4.99 0 0 1-3.99-2h3.37c.38 0 .73-.21.89-.55.33-.66-.15-1.45-.89-1.45H7.11c-.13-.63-.14-1.31-.01-2h4.28c.38 0 .73-.21.89-.55A.994.994 0 0 0 11.38 7H8c.76-1 1.88-1.72 3.16-1.93 1.39-.23 2.7.12 3.73.84.4.29.95.26 1.3-.09.43-.43.39-1.15-.1-1.51-1.49-1.07-3.42-1.57-5.46-1.18-2.19.42-4.02 1.9-4.95 3.87H3.62c-.38 0-.73.21-.9.55-.33.67.15 1.45.9 1.45h1.46c-.09.69-.1 1.36-.01 2H3.62c-.38 0-.73.21-.89.55-.34.67.14 1.45.89 1.45h2.07c1.12 2.36 3.53 4 6.32 4 1.53 0 2.94-.49 4.09-1.32.48-.35.51-1.07.08-1.5z"/></svg>