<svg xmlns="http://www.w3.org/2000/svg" width="20" height="20" viewBox="0 0 20 20"><path d="M3.5 10c0-1.54.54-2.95 1.43-4.07L7.5 8.5v1c0 .83.67 1.5 1.5 1.5v4.17c0 .22.07.43.2.6l.55.73c-3.47-.14-6.25-3-6.25-6.5zm7 6.48V15l3.32-4.74c.12-.17.18-.37.18-.58V9c0-.55-.45-1-1-1h-1.2l-1.15-1.44C10.37 6.21 9.93 6 9.48 6H6.5V4.52A6.523 6.523 0 0 1 10 3.5c3.58 0 6.5 2.92 6.5 6.5 0 3.42-2.65 6.22-6 6.48z" opacity=".3"/><path d="M10 2c-4.42 0-8 3.58-8 8s3.58 8 8 8 8-3.58 8-8-3.58-8-8-8zm-6.5 8c0-1.54.54-2.95 1.43-4.07L7.5 8.5v1c0 .83.67 1.5 1.5 1.5v4.17c0 .22.07.43.2.6l.55.73c-3.47-.14-6.25-3-6.25-6.5zm7 6.48V15l3.32-4.74c.12-.17.18-.37.18-.58V9c0-.55-.45-1-1-1h-1.2l-1.15-1.44C10.37 6.21 9.93 6 9.48 6H6.5V4.52A6.523 6.523 0 0 1 10 3.5c3.58 0 6.5 2.92 6.5 6.5 0 3.42-2.65 6.22-6 6.48z"/></svg>