<svg xmlns="http://www.w3.org/2000/svg" width="20" height="20" viewBox="0 0 20 20"><path d="M9.11 7.82 7.7 6.4a4.004 4.004 0 0 0-2.83-1.17c-.73 0-1.42.19-2.03.55l1.03 1.03h2.09L5.8 8.69c.35.23.76.36 1.19.36.57 0 1.11-.22 1.52-.63l.6-.6z" opacity=".3"/><path d="M8 5.37c.14.11.28.2.4.33l4.6 4.6v.7h-.71L9.82 8.53l-.6.6c-.36.35-.78.59-1.22.74V12h5v2c0 .55.45 1 1 1s1-.45 1-1V5H8v.37z" opacity=".3"/><path d="M7 4v.73a5 5 0 0 0-2.13-.5c-1.28 0-2.56.49-3.54 1.46l2.12 2.12h1.41l-.1 1.32c.62.62 1.42.92 2.23.92H7V12H5v2.5c0 .83.67 1.5 1.5 1.5H14c1.1 0 2-.9 2-2V4H7zm-.01 5.05c-.43 0-.84-.12-1.19-.36l.15-1.87H3.87L2.84 5.79a3.99 3.99 0 0 1 2.03-.55c1.07 0 2.07.42 2.83 1.17l1.41 1.41-.6.6c-.41.4-.95.63-1.52.63zM15 14c0 .55-.45 1-1 1s-1-.45-1-1v-2H8V9.87c.44-.15.86-.39 1.22-.74l.6-.6L12.29 11H13v-.71L8.4 5.7c-.12-.13-.26-.22-.4-.33V5h7v9z"/></svg>