<svg xmlns="http://www.w3.org/2000/svg" width="20" height="20" viewBox="0 0 20 20"><path fill-rule="evenodd" d="M11.37 3.13a7.016 7.016 0 0 0-8.24 8.24c.52 2.76 2.74 4.98 5.5 5.5 4.93.93 9.17-3.31 8.24-8.24-.52-2.76-2.74-4.98-5.5-5.5zM6.35 7.06c-.2-.2-.2-.51 0-.71.2-.2.51-.2.71 0l.71.71.71-.71c.2-.2.51-.2.71 0 .2.2.2.51 0 .71l-.72.71.71.71c.2.2.2.51 0 .71-.2.2-.51.2-.71 0l-.7-.72-.71.71c-.2.2-.51.2-.71 0-.2-.2-.2-.51 0-.71l.71-.71-.71-.7zm5.02 8.79c-2.18.49-4.23-.22-5.62-1.61l8.48-8.48c1.38 1.38 2.09 3.43 1.61 5.61-.48 2.21-2.26 3.98-4.47 4.48z"/><path fill-rule="evenodd" d="m13.15 10.85-1.73 1.73-.65-.65c-.2-.2-.51-.2-.71 0s-.2.51 0 .71l1 1c.2.2.51.2.71 0l2.09-2.09c.2-.2.2-.51 0-.71a.523.523 0 0 0-.71.01z"/></svg>