<svg xmlns="http://www.w3.org/2000/svg" width="20" height="20" viewBox="0 0 20 20"><path d="M12.67 16.5c-.96 0-1.13-.8-2.66-.8-1.56 0-1.68.8-2.67.8-1 0-1.1-.8-2.66-.8s-1.68.8-2.67.8V18c1.56 0 1.68-.8 2.67-.8 1 0 1.1.8 2.66.8s1.68-.8 2.67-.8c.96 0 1.13.8 2.66.8 1.55 0 1.68-.8 2.66-.8.96 0 1.13.8 2.66.8v-1.5c-1 0-1.1-.8-2.66-.8s-1.66.8-2.66.8zm4.77-3.11L15.62 6.6l1.28.51.56-1.39L8.17 2 2 9.87l1.18.93.85-1.08.8 3c-.06 0-.1-.01-.16-.01-1.56 0-1.68.8-2.67.8V15c1.56 0 1.68-.8 2.67-.8 1 0 1.1.8 2.66.8s1.68-.8 2.67-.8c.96 0 1.13.8 2.66.8 1.55 0 1.68-.8 2.66-.8.96 0 1.13.8 2.66.8v-1.5c-.2 0-.38-.04-.54-.11zm-8.43-.54-.83-3.09 3.86-1.04 1.24 4.65c-1.28.56-1.53-.67-3.28-.67-.42 0-.73.06-.99.15z"/></svg>