<svg xmlns="http://www.w3.org/2000/svg" width="20" height="20" viewBox="0 0 20 20"><path d="M4.25 3.45c.31-.64.94-1.2 2-1.2.24-.01.52-.08.66-.34a.76.76 0 0 1 .67-.41c.54 0 .91.57.68 1.05-.31.64-.94 1.2-2 1.2-.25.01-.53.08-.67.34a.76.76 0 0 1-.67.41c-.54 0-.91-.57-.67-1.05zm13.54 6.95c-.25.33-.72.39-1.05.14L16 9.97V16c0 .55-.45 1-1 1H5c-.55 0-1-.45-1-1V9.97l-.74.57a.749.749 0 1 1-.91-1.19L4 8.08V6.25c0-.41.34-.75.75-.75s.75.34.75.75v.69l3.89-2.97c.36-.27.86-.27 1.21 0l7.05 5.38c.33.25.4.72.14 1.05zM8.54 6.5h2.91L10 5.39 8.54 6.5zM14.5 14h-9v1.5h9V14zm0-3h-9v1.5h9V11zm0-2.18L13.42 8H6.58l-1.08.82v.68h9v-.68z"/></svg>