<svg version="1.1" xmlns="http://www.w3.org/2000/svg" xmlns:xlink="http://www.w3.org/1999/xlink" x="0px" y="0px" width="512px" height="512px"><path d="M164.9662018,114.0946121c0-16.9178391-10.4087982-38.4572296-54.2274094-38.4572296h-67.353775l-19.122406,88.5745316h70.2048645C149.3084106,164.2119141,164.9662018,138.2804108,164.9662018,114.0946121z M346.4202881,114.0946121c0-16.9178391-10.4144592-38.4572296-54.1243286-38.4572296h-67.3486023l-19.122406,88.5745316h70.199707C330.8759155,164.2119141,346.4099731,138.2804108,346.4202881,114.0946121z M140.703598,247.4341125c0-16.9178314-10.4067383-38.5410156-54.227417-38.5410156h-67.353775L0,297.5398254h70.1739197C125.0148697,297.5398254,140.703598,271.5049438,140.703598,247.4341125z M322.1576538,247.4341125c0-16.9178314-10.4165344-38.5410156-54.1242981-38.5410156h-67.4517365l-19.1275635,88.6467285h70.1997223C306.4947205,297.5398254,322.1524963,271.5049438,322.1576538,247.4341125z M512,193.4240265c0.0018311-17.003952-10.4985046-38.5417938-54.2016296-38.5417938h-67.3537903l-19.122406,88.5642242l70.1739197,0.0077362C496.3370361,243.4464569,511.997406,217.4943237,512,193.4240265z M485.8561096,332.2427063c0.0018005-17.0250854-10.4144897-38.4660339-54.232605-38.4660339h-67.3485718l-19.122406,88.574585h70.1687622C470.1931458,382.3512573,485.8535156,356.2897949,485.8561096,332.2427063z M296.0910645,386.3306274c0-17.1111755-10.408783-38.6508179-54.1191559-38.6508179h-67.4620361l-19.122406,88.6828003h70.2048645C280.4332886,436.3626099,296.0910645,410.4066162,296.0910645,386.3306274z"/></svg>