<svg xmlns="http://www.w3.org/2000/svg" width="365" height="512"><path d="M187.248 147.898 173.44 69.064l-24.603 2.51s-5.686-23.297-.682-33.038c9.746-19.99 40.508-17.488 46.697 6.607 4.657 21.087 17.676 36.373 39.646 40.543 34.987 6.68 64.498-23.164 58.083-58.771-9.262-.389-17.868 1.46-24.593 4.332 6.457 32.817-40.185 43.446-48.508 10.94-8.184-42.689-62.87-60.196-91.81-18-10.81 18.624-7.105 35.6-3.191 51.933l-24.37 5.923 13.623 79.044C6.12 204.199-37.814 342.98 38.039 441.187c85.567 110.785 259.957 87.579 313.148-41.67 49.398-120.03-39.825-248.668-163.939-251.62z"/></svg>