<svg version="1.1" xmlns="http://www.w3.org/2000/svg" xmlns:xlink="http://www.w3.org/1999/xlink" x="0px" y="0px" width="365px" height="512px"><path d="M187.2483673,147.8978119l-13.8081665-78.8335648l-24.6030121,2.5098572c0,0-5.685791-23.2970963-0.6821442-33.0381889c9.7462311-19.9889717,40.5077972-17.4880295,46.6970825,6.6073456c4.6572723,21.0866127,17.6754761,36.3727608,39.6455994,40.5428429c34.9872284,6.6802521,64.4983368-23.1642952,58.08284-58.77108c-9.2616577-0.3890018-17.8673706,1.4598389-24.5923767,4.3320141c6.4569397,32.8170395-40.1856079,43.4460373-48.5084381,10.9397259c-8.1833801-42.6886749-62.8706512-60.1952667-91.8093414-18.000185c-10.8107147,18.6246243-7.1049118,35.5995789-3.1915741,51.9336777l-24.3697662,5.9225159l13.6224976,79.0440369C6.1197729,204.1991577-37.813633,342.9803467,38.0388908,441.1874695c85.5668182,110.7843933,259.9566345,87.5782776,313.1482849-41.6708374C400.5848389,279.4864807,311.3618774,150.8493652,187.2483673,147.8978119z"/></svg>