<svg xmlns="http://www.w3.org/2000/svg" width="512" height="512"><path d="M313.009 365.186v54.855c-68.005 47.082-167.948 47.652-229.023 10.955-50.36-30.26-83.4-86.086-83.98-174.74-.64-98.136 43.627-161.136 111-188.461 47.665-19.334 138.998-21 202.01 23.896l-.004 55.377c-88.008-83.94-262.006-69.94-257.64 109.191-4.366 177.53 166.965 194.197 257.637 108.927zm-63.566-186.618v67.293h67.292v20.537h-67.292v67.293h-20.296v-67.293h-67.292v-20.537h67.292v-67.293h20.296zm195.265 0v67.293H512v20.537h-67.292v67.293h-20.296v-67.293h-67.293v-20.537h67.293v-67.293h20.296z"/></svg>