<svg xmlns="http://www.w3.org/2000/svg" width="469" height="512"><path d="M332.004 196.19s-7.547-70.368-77.364-72.32c-69.818-1.954-105.677 52.775-105.677 130.957s39.628 140.736 107.559 140.736 75.482-78.183 75.482-78.183l130.201 7.818s7.667 70.612-46.818 124.487c-54.486 53.87-121.364 62.67-168.065 62.305-46.702-.373-111.456.731-174.074-63.404C10.625 384.451 0 322.147 0 260.944s11.875-142.285 86.33-203.77C136.935 15.394 188.23 0 239.533 0 453.71 0 468.097 197.537 468.097 197.537l-136.093-1.347z"/></svg>