<svg version="1.1" xmlns="http://www.w3.org/2000/svg" xmlns:xlink="http://www.w3.org/1999/xlink" x="0px" y="0px" width="469px" height="512px"><path d="M332.0035095,196.1897278c0,0-7.5469055-70.3682022-77.3634338-72.3202133c-69.8178101-1.9539795-105.6770935,52.7758408-105.6770935,130.9571838s39.6276398,140.7363739,107.5587158,140.7363739s75.4818115-78.1826172,75.4818115-78.1826172l130.2019653,7.817627c0,0,7.6665955,70.6114197-46.8186646,124.4867859c-54.4859314,53.8695984-121.3635559,62.6708984-168.0645142,62.3048096c-46.7022095-0.3728027-111.4563141,0.7316895-174.0740967-63.4036865C10.6253109,384.451416,0,322.1472473,0,260.9438477S11.8752337,118.6586533,86.3298492,57.1736717C136.9347839,15.393713,188.2309418,0.0003891,239.533493,0.0003891c214.1766205,0,228.563858,197.5365753,228.563858,197.5365753L332.0035095,196.1897278z"/></svg>