<svg version="1.1" xmlns="http://www.w3.org/2000/svg" xmlns:xlink="http://www.w3.org/1999/xlink" x="0px" y="0px" width="512px" height="512px"><path d="M211.9633179,272.7376709c4.524353-11.6448364,13.4279785-25.0490112,23.2398071-32.6901855C252.8333282,253,273.7006226,243.2333832,278.8890991,227.328064c12.1013184,1.1079102,23.9672852,7.7529297,34.057251,14.7403564C295,271.875,259.2884521,289.4006042,219.1552124,279.9889526C216.1279144,277.2376099,213.3164215,274.600769,211.9633179,272.7376709z M207.9810791,268.2205811c4.8522491-13.0539093,12.6538391-23.1465302,22.8236694-31.026123c-1.4193115-1.9423828-3.5115356-6.7567139-4.3983154-9.0343018c-11.8279419-3.597168-22.3149414-10.3444214-30.4315796-19.2574463c-1.2873535,7.03479-3.4123535,12.97229-2.020874,25.2605591c5.5040894,1.0263672,9.7567139,5.7232666,9.9854126,11.4713745c-1.0669556,2.8538208-3.0750732,5.8131714-4.7549438,7.3700562C201.1685638,257.9155579,204.0773163,262.983551,207.9810791,268.2205811z M215.2799072,139.0527954l0.8321533,4.7549438c1.9589233-5.0776978,2.4368896-10.8769531,2.4368896-10.8769531C219.90625,144.40625,224.875,151.8125,230.2579956,143.2133179c0.0114136-0.024353,0.0475464-0.0352173,0.0594482-0.0594482c2.227356-4.7913818,3.8039551-9.5098877,3.8039551-9.5098877s-0.8345337,2.4691772-1.6047974,5.6464844c2.5977173-5.0670776,4.5870361-10.8606567,4.8439941-11.6204834c-0.3912354,1.1652832-4.8468628,14.7303467-1.7468262,18.7497559l3.1584473-0.3088379l16.9246826-16.9246826c0,0-3.2669067,11.2958984-2.6287842,15.9012451l4.2108765-0.1730957c5.7730713-5.8696289,16.1894531-22.2068481,16.1894531-22.2068481s-9.6881714,16.6921997-0.5349121,18.3065796c9.1508789,1.6166382,22.5265503-11.352478,22.5265503-11.352478s-4.1290283,4.6122437-6.062561,8.4994507c1.6691895-1.4035034,2.7935181-2.4369507,2.7935181-2.4369507s-1.8375854,2.1071167-3.6256104,4.6361084c-0.326355,1.3466187-0.0999146,2.3828125,1.0698242,2.793457c19.9208374,6.9993896,36.0186768-18.8413696,36.0186768-18.8413696c-2.2842712,6.3271179-6.7728577,14.5396271-12.34375,23.6778564l3.6870117,0.5999146c16.0307617,0.0569458,28.1415405-20.0145264,31.1237793-25.4665527l-14.2381592,28.9887695l3.7467041,0.9671631c11.7144165-4.6037598,35.9958191-32.5115051,35.9958191-32.5115051s-1.7552185,3.134552-4.3923035,7.3703308c0.1911011-0.2174072,1.1293335-1.3076172,1.1293335-1.3076172s-11.057373,19.227417-20.3867798,29.5995483c7.3532104-0.5358887,22.0509644-13.6109619,22.0509644-13.6109619s-3.2694702,4.0704346-6.2408447,8.5588379c1.7032471-1.3965454,2.9718628-2.4369507,2.9718628-2.4369507s-3.8883667,4.8228455-7.0432739,9.7773132c-0.3720703,0.9389648-0.6358643,1.8090515-0.6907349,2.5090637c1.8981323,0.8035889,3.7489014,1.6342773,5.553833,2.4896851c11.8578491-3.5924072,36.1185303-36.470459,36.1185303-36.470459c-5.2792664,10.3699188-16.2442932,29.6139374-25.9989014,41.822876l4.6728516,2.9372559c17.6555786-7.0241089,43.9714355-41.015625,43.9714355-41.015625s-0.411499,5.2693481-6.062561,14.5025024c-2.6793823,5.7539062-8.0222778,14.3076172-18.425354,24.9039307c19.7172852-6.6188354,42.7944336-40.4764404,42.7944336-40.4764404c-6.8757935,17.8309021-18.7311707,37.6120758-29.1240234,48.6785889c20.09198-6.9730835,48.5003662-50.8183594,48.5003662-50.8183594C456,144.5,442.5,169.6666718,428.4319458,182.4415894c27.7736206,2.6912231,65.2615356-36.0187378,65.2615356-36.0187378c-9.3855591,18.0971985-20.2524719,32.4181824-32.6901855,42.7349854C483.6605835,193.0498047,512,160.3905029,512,160.3905029s-5.171936,7.932251-14.5620117,17.2366333c6.8043213-5.9667358,11.2929688-11.114624,11.2929688-11.114624s-28.6305542,44.131897-74.8157959,46.7752075c9.4759521,3.7375488,18.2793579,10.9482422,18.2793579,10.9482422s-7.6675415-3.1437988-14.0864868-4.9926758c8.4376221,3.9057617,15.7507324,9.8665771,15.7507324,9.8665771s-15.5429077-6.5251465-20.8623047-6.3596802c8.7512817,6.3850708,31.3231812,16.8799438,31.3231812,16.8799438s-8.5942993-2.7402344-16.4639893-4.2200317c8.9312134,4.7530518,18.0687866,9.0343628,18.0687866,9.0343628s-25.4035034-7.9588623-28.767395-4.041748c7.8361816,10.2241211,36.850769,33.1062012,36.850769,33.1062012s-13.1019897-9.928772-25.2606201-17.9498291c11.4176025,10.5820923,26.8654175,22.8236084,26.8654175,22.8236084s-41.8232727-31.557251-45.3204651-27.251709c4.5373535,6.7354126,16.2558899,16.7314453,16.2558899,16.7314453s-3.8303223-2.3153687-9.2126465-5.1709595c5.0535278,5.1911621,10.8174438,10.0447388,10.8174438,10.0447388c-27.0549927-15.2510376-42.8917236-19.7499084-48.5597534-14.5025024c4.3676147,5.8695679,15.616394,14.4935303,24.4284668,20.8028564c-4.7886353-3.065979-10.2449951-6.2260132-15.0374756-8.0834351c5.1220093,4.454834,11.2718506,9.0519409,16.6422729,12.8977661c-9.130188-5.8457642-20.9719238-12.2151489-25.0822754-8.7371826c-0.7757568,0.6569214-0.9230347,1.8691406-0.6538086,3.4473267c6.9778442,15.5463257,32.3930054,46.1229858,32.3930054,46.1229858s-5.5877686-6.1203003-12.9572144-13.7893066c7.6295776,10.1768188,14.5620117,18.6037598,14.5620117,18.6037598s-45.7115479-49.49646-50.2834473-47.0739136c-0.6633301,0.3510742-1.0205994,1.5107727-0.7132568,2.2884216c3.6135254,7.7825928,11.7090454,18.9306335,11.7090454,18.9306335s-2.15448-2.2858887-5.1710205-5.2897949c3.3876953,5.4299927,6.7758179,10.1636963,6.7758179,10.1636963s-22.5788574-24.7541504-28.767395-20.446167c-0.8765869,0.6102295-0.8572388,2.4476929-0.1782837,5.1116333c7.2053833,19.1314697,30.8476562,58.6640015,30.8476562,58.6640015s-3.1259155-4.9490967-7.9645386-11.8278198c5.3464355,9.4528198,9.5693359,16.7017822,9.5693359,16.7017822s-41.0769653-64.9177856-58.5452271-55.1573486C354.25,329.5,363.5416565,361.5416565,357.7496338,369.6186523c0,0-0.1402588-2.6060181-0.6538086-6.5975342c-0.4788208,1.3045654-0.9509277,1.7831421-0.9509277,1.7831421C354,339.1666565,345.3053589,309.7624817,320.6017456,310.6574707c-7.1908264,0.2605286-7.0352173,8.7341919-3.9525757,17.9498596c3.7887878,11.3267822,10.3717041,22.4671326,10.3717041,22.4671326s-1.7709961-3.1734009-4.5766602-7.5484619c3.2036743,6.9494629,6.2409058,12.362854,6.2409058,12.362854s-22.2341309-39.0414429-37.5640259-39.7037354C307.6836243,350.3610229,313.5,376,308.4766235,391.4320679c0,0,0.4732056-4.6884766-0.1188965-11.8278198c-0.4804688,4.7423096-1.4859009,6.9540405-1.4859009,6.9540405c1.8781738-28.1416321-10.0806885-50.8480835-30.0750122-64.8453979C286.5,341,265.6821899,391.432251,265.6821899,391.432251s2.1014404-8.6308594,3.8039551-19.8518677c-2.8848267,8.7888794-5.4087524,14.9780273-5.4087524,14.9780273s9.3912354-38.9855957,4.4577637-59.3771973c-3.0150757-6.6004639-8.5484009-9.5921631-18.1876221-5.2304688c-5.7130737,2.5795898-0.4160767,42.8539429-0.4160767,42.8539429s-0.9359131-5.7468872-2.5557861-12.9572144c0.4825439,4.7074585,0.9509888,8.0834351,0.9509888,8.0834351s-1.876709-13.9356384-5.9436646-25.8847351c-2.6591797-7.8129272-6.5523071-13.7773743-10.6392212-12.8680115c-6.3549805,1.4099121-40.3574829,63.7756348-40.3574829,63.7756348s4.8747559-11.8599243,9.9259033-25.3794556c-6.5097046,11.3615112-11.5307007,20.5651855-11.5307007,20.5651855s18.3612061-44.4520264,20.7434082-59.6744385c-6.2304077,2.6627808-17.5338135,29.7778931-17.5338135,29.7778931s1.2890015-6.2512817,2.020813-12.9572144c-2.1466064,4.5878906-3.6256104,8.0834351-3.6256104,8.0834351s3.8637085-20.9525452,1.9911194-23.9827271c-6.2940826-2.2198181-37.5343323,28.8565063-37.5343323,28.8565063s9.1011963-10.6817627,14.9780884-20.0896606c-8.6295166,7.5040283-16.5828247,15.2158813-16.5828247,15.2158813s17.7683105-20.7909546,19.6735229-29.8967285C160.3305206,299.9723816,140.6666718,317,124.3416748,338.9500122c0,0,7.93573-10.9180298,11.8873291-20.5056763c-7.4557495,7.5437622-13.4921265,15.631897-13.4921265,15.631897s13.5011597-18.5770264,14.0270386-28.5296631c-8.9630737-7.1395264-51.1749878,28.5296631-51.1749878,28.5296631s11.4683838-10.725769,18.1281738-20.0301514c-10.6287231,7.5215454-19.7329712,15.2158203-19.7329712,15.2158203s19.8596802-18.7306519,22.467041-28.1135864C84.875,290.875,30.5,308.875,1.6047974,282.4257202c7.3181152,3.6708374,14.5220337,5.9346924,21.694397,7.310791C12.2601318,286.7858276,5.8538208,282.189209,0,277.5519409c42.3950195,21.2664795,82.625-4.4269409,134.0355835,11.7189941C97,273.6666565,75.2702179,246.3865204,93.0986328,213.1870117c-30.133667,19.5334473-55.0753174,41.9552002-89.3540039,60.430603c0,0,6.7439575-6.7059326,10.104248-9.9259033c-2.2507324,1.291626-4.5025635,2.6060181-6.8352051,3.8634033c45.8757362-48.647644,121.9176483-103.3463745,206.0509338-118.0457306C214.7336731,144.6912079,215.2799072,139.0527954,215.2799072,139.0527954z M305.8139038,187.3272705c-4.0359192-1.0446472-8.388855,1.5956421-9.5098877,4.6956177c0.1654663,2.1316528,1.3342285,5.6682129,2.4368896,7.0135498c-5.3659058,7.713562-12.4165344,13.6862488-19.435791,18.3659058c-2.239624-13.21875-13.7227783-23.2991943-27.5786743-23.2991943C234.3125,194.1875,222.875,209.375,223.7911377,223.524353c-16.1244659-6.5660248-20.8744659-13.024353-26.9842529-18.1877441c2.0874023-5.5656738,6.3264771-14.4644775,9.8070679-19.1385498c3.9102936,1.2949829,12.1798859,1.1661682,11.7684937-5.7653809c-0.3663177-1.9819946-1.0031891-3.7985687-1.7830811-5.5276489c2.7457886-2.2165527,5.7285767-4.2611694,8.8812866-6.1177979l-8.1223145,0.861145l-4.741272,3.2952271c-5.2357788-1.9897461-10.2851257,0.8955841-11.9467773,4.81427c0.0744629,1.2848511,0.831665,4.2678223,1.1887207,5.2304688c-4.119751,4.9342499-7.4339294,10.5282135-9.9259033,15.9290771c-5.0686646-6.925354-8.9683228-14.7431641-11.4127808-23.0342407l-0.9425049,0.2166138c1.8952637,9.6931763,5.8059082,18.9189453,10.9882202,26.5028076c-4.9827576,10.0863647-3.569519,21.1139526-2.75354,32.0536499c-13.625,5.34375-7.875,20.53125,6.5574951,19.4778442c3.9105072,8.9458618,8.4134064,18.3155212,11.59021,20.8623657l-0.0594482,0.4160156C168,256.6666565,148.6666718,218,158.4094238,181.8820801c-7.472229,2.3677368-14.4973755,4.9597778-21.157959,7.7374268C127.5658417,238.446701,167,297.6666565,240.8376465,298.8779297c78.495697-1.5445862,118.82901-66.2112579,100.4146118-121.7926025c-7.2119751-2.0375977-14.914856-3.8809814-23.1431274-5.4238281C334.6666565,187,323.5,225,314.9671631,239.0371094c-9.6279602-8.1957703-20.7171631-12.7558594-34.2355347-15.2753906c8.1571045-5.2874756,17.3436279-15.8196411,22.5859375-24.0123901c4.7657776,1.1256714,14.2657776-3.8743286,4.9332886-11.8276978C310.125,182.6875,312.25,176.46875,313.3831177,170.8226929l-1.7423096-0.2899323C310.3926392,176.3431854,308.4005737,182.0111694,305.8139038,187.3272705z M420.0892334,211.6672974c-3.2904053-1.3453979-7.2660522-3.4186401-11.993103-5.9545288c0.4558105,1.9205322,0.7775879,3.8711548,0.9474487,5.8526611c0.5349731,6.2321167-0.4041138,12.4212036-2.6573486,18.4763184c2.2451782-3.4210205,4.3549805-6.9500122,6.28302-10.6187744C414.2873535,215.0144653,416.9182129,212.6544189,420.0892334,211.6672974z"/></svg>