<svg xmlns="http://www.w3.org/2000/svg" width="512" height="512"><path d="M196.139 59.954h42.247V209.35L256 226.969l18.337-18.338V59.42h40.99L255.994.088 196.14 59.954zm87.01 139.869 86.293-86.294-45.124-45.303h-41.169v131.597zm98.874-86.292-98.878 98.878v16.36h16.72l98.698-98.7 44.944 44.945V68.225H336.72l45.304 45.306zM69.392 68.944v105.17l43.865-43.865 98.52 98.52h17.798v-15.82l-99.595-99.416 44.584-44.584-105.172-.005zm117.756 0-44.585 44.585 87.01 86.83V68.945h-42.425zm211.416 73.709-85.934 86.113h130.878v-41.169l-44.944-44.944zm-285.305.178-43.864 43.866v42.068h129.798L113.26 142.83zm-52.853 52.855L0 256.092l60.406 60.406v-43.146H209.62l17.079-17.08-18.518-18.696H60.402l.004-41.89zm392.093.9v40.99H303.645l-18.337 18.517 17.079 17.259H452.5v42.247l59.5-59.515-59.501-59.497zm-196.497 42.968-17.618-17.798v15.82h-17.618l18.517 18.698-17.079 17.079h16.54v16.899l16.899-16.9 18.697 18.697v-18.696h15.46l-17.258-17.259 18.517-18.517H274.34v-16.36l-18.338 18.337zm-186.61 42.604v43.147l44.045 44.224 87.374-87.373H69.394l-.002.002zm144.001 0-99.953 99.954-44.046-44.225v104.812h104.27l-43.686-43.686 99.774-99.774v-17.08l-16.359-.001zm69.755 18.697 98.157 98.156-43.686 43.686h105.888v-105.53l-44.945 44.945-99.773-99.953h-15.641v18.696zm28.227-18.697 87.19 87.373 44.944-45.123V282.16l-132.134-.002zm-72.63 20.858V451.51h-43.686l60.59 60.401 60.586-60.406h-41.888V304.449l-18.697-18.517-16.906 17.084zm-8.988 8.807-87.19 87.19 43.686 43.685h43.506l-.002-130.875zm53.391 130.879h41.889l43.685-43.686-85.57-85.571-.004 129.257z"/></svg>