<svg version="1.1" xmlns="http://www.w3.org/2000/svg" xmlns:xlink="http://www.w3.org/1999/xlink" x="0px" y="0px" width="512px" height="512px"><path d="M403.9338074,47.3536873c73.7184448,51.2835732,116.3982239,143.7570648,106.7026672,233.1356659c-4.4158325,36.1968689-28.8563843,70.0449829-63.4468994,82.8380432c-23.864624,9.9259644-50.084259,8.8316345-75.3823853,8.9468384C500.8075562,234.2119751,353.76828,39.0194778,190.6437225,104.7208252c-42.3341675-25.0165329-96.4886627-25.7013016-139.8596191-2.7006836C139.0174866-10.3419828,291.010376-31.6743164,403.9338074,47.3536873z M215.1981964,126.6933289c124.8085785-42.7067261,250.8039703,126.285675,119.7823944,239.2214355C268.1436768,327.3649597,272.011261,198.9815369,215.1981964,126.6933289z M0.132801,252.9537964c2.0791302-60.5131836,56.2218971-137.6350098,146.1115265-120.1234436c-131.2210236,120.8152924-7.2268372,348.8045959,182.1432495,270.9394531c44.2297974,13.0797424,90.9849243,11.8747253,135.6742249,1.6062927c-35.9152527,48.3627625-88.0861511,85.1626892-146.9761353,99.0741577C137.9486542,546.767395-4.97576,401.6387024,0.132801,252.9537964z M178.0215302,145.3360596c31.7810669,19.9063416,44.6310425,56.7930908,57.9405823,89.8905334c-20.3652191,42.9677734-46.5240936,83.4716187-60.8658905,129.1336975C98.0194092,302.4766846,105.5190582,196.4816589,178.0215302,145.3360596z M209.689621,383.7512817c-2.925705-43.1968689,19.1604614-81.9162903,35.2225037-120.4682617c13.1367035,42.0500183,21.3974762,88.2842102,52.0316925,121.9595947C268.2032776,392.7578125,238.142807,392.1269836,209.689621,383.7512817z"/></svg>