<svg xmlns="http://www.w3.org/2000/svg" width="512" height="512"><path d="M403.934 47.354c73.718 51.283 116.398 143.757 106.702 233.135-4.415 36.197-28.856 70.045-63.446 82.838-23.865 9.926-50.085 8.832-75.383 8.947 129-138.062-18.039-333.255-181.163-267.553-42.334-25.017-96.489-25.701-139.86-2.7C139.017-10.343 291.01-31.675 403.934 47.353zm-188.736 79.34c124.809-42.707 250.804 126.285 119.783 239.22-66.837-38.549-62.97-166.932-119.783-239.22zM.133 252.953C2.212 192.44 56.355 115.319 146.244 132.83c-131.22 120.816-7.227 348.805 182.144 270.94 44.23 13.08 90.985 11.875 135.674 1.606-35.915 48.363-88.086 85.163-146.976 99.074C137.949 546.767-4.976 401.64.133 252.954zm177.889-107.618c31.78 19.906 44.63 56.793 57.94 89.89-20.365 42.968-46.524 83.472-60.866 129.134-77.077-61.883-69.577-167.878 2.926-219.024zM209.69 383.75c-2.926-43.197 19.16-81.916 35.222-120.468 13.137 42.05 21.398 88.284 52.032 121.96-28.74 7.515-58.801 6.884-87.254-1.492z"/></svg>