<svg version="1.1" xmlns="http://www.w3.org/2000/svg" xmlns:xlink="http://www.w3.org/1999/xlink" x="0px" y="0px" width="410px" height="512px"><path d="M239.8721008,512l-81.3232422-17.29953l-81.7647934-53.2370911l-58.8892822-90.60495L2.2235641,268.4433594L0,200.0031891c0,0,8.8342628-45.986084,13.3645229-55.0438995c4.5300541-9.0599976,36.6085968-58.5197296,36.6085968-58.5197296l60.7873802-52.4641113L194.567749,0l56.6256866,2.2651548l57.1785431,12.0618725l47.0128174,24.1787338l38.505188,56.6257477c0,0,6.7948608,29.445137,9.0599976,38.5051346c2.2650146,9.0599976,6.7948608,67.9487152,6.7948608,67.9487152l-22.650238,65.6860657l-47.5651855,47.5651245L276.1109009,342.01651l-65.686203-20.384491l-40.7702942-36.2406311l-15.8548889-56.6257324l15.8548889-52.0954437l40.7702942-36.239975l47.7909088-4.7555847l33.7496643,18.1199951l24.9154053,36.4658661l-43.0354004-33.9754486l-27.1800385-6.7948303l-31.7102814,9.0599823l-18.1199951,18.1199951l-18.1200104,29.4451447v45.2999725l22.6502686,31.7102814l43.0354309,27.1806335h43.0354156l45.3005371-22.6502991l22.6502686-31.7103119c0,0,13.590271-33.9754486,13.590271-47.5651245c0-13.5903015,0-43.0354462-4.5300293-54.3580933c-4.5300598-11.3251495-27.1800232-56.6257553-27.1800232-56.6257553s-20.3851624-18.1199875-29.4451599-22.6502991c-9.0600281-4.5299911-38.6894531-16.4078407-38.6894531-16.4078407s-33.7911377-6.2424545-45.116272-6.2424545s-54.3580017,13.5903053-54.3580017,13.5903053l-47.5651627,24.915451l-43.0354156,31.7102966l-29.4451561,52.0954437l-9.060009,52.0954285l2.2650261,49.8302917l4.530056,38.505127l18.120018,40.7709045l22.6502686,45.2999878l33.9754105,36.2399902l33.9754105,36.2406006l51.1944885,27.180603L239.8721008,512z"/></svg>