<svg version="1.1" xmlns="http://www.w3.org/2000/svg" xmlns:xlink="http://www.w3.org/1999/xlink" x="0px" y="0px" width="512px" height="512px"><path d="M60.233963,0.0000081C26.8623695,0.0000081,0,26.8623753,0,60.2339706v391.532074C0,485.137085,26.8623657,512,60.233963,512h391.5321045C485.1370544,512,512,485.137085,512,451.7660522V60.2339554c0-33.3715973-26.8629456-60.233963-60.2339478-60.233963L60.233963,0.0000081z M349.1510315,56.0037079c142.7569885,95.7553864,121.9914246,252.1145172,54.7601013,324.3292847c-157.2124634,168.8746643-342.4483643,8.8632812-347.7219849-37.0289917c0,0,131.6124573,80.708313,246.0444641-24.1436462C424.2546082,207.3509216,349.1510315,56.0037079,349.1510315,56.0037079z M147.911972,73.1193008l115.2446747-0.0034103c8.8251648,0,15.6188354,7.3528824,15.6188354,15.6188507v28.4376221c0,81.6867523-78.1425934,165.7116394-157.866684,165.7116394H85.1905365c-8.5048904,0-15.4942627-9.6853027-15.4942627-17.0501709v-100.306488C69.6962738,127.8122787,100.1435013,73.1193008,147.911972,73.1193008z"/></svg>