<svg xmlns="http://www.w3.org/2000/svg" width="512" height="512"><path d="M60.234 0C26.862 0 0 26.862 0 60.234v391.532C0 485.137 26.862 512 60.234 512h391.532C485.137 512 512 485.137 512 451.766V60.234C512 26.862 485.137 0 451.766 0H60.234zm288.917 56.004c142.757 95.755 121.991 252.114 54.76 324.329C246.7 549.208 61.463 389.196 56.19 343.304c0 0 131.613 80.708 246.045-24.144C424.254 207.35 349.15 56.004 349.15 56.004zM147.912 73.119l115.245-.003c8.825 0 15.618 7.353 15.618 15.619v28.437c0 81.687-78.142 165.712-157.866 165.712H85.19c-8.505 0-15.495-9.685-15.495-17.05V165.527c0-37.715 30.448-92.408 78.216-92.408z"/></svg>