<svg version="1.1" xmlns="http://www.w3.org/2000/svg" xmlns:xlink="http://www.w3.org/1999/xlink" x="0px" y="0px" width="503px" height="512px"><path d="M38.5841408,111.1426849C23.1424885,100.4632645,11.0791788,85.4428787,2.7910993,65.5715637C-0.2798883,54.5102463-1.0011122,20.9931564,1.5567104,8.203887c1.794469-8.9722662,8.7544012-10.7465725,17.7447109-4.5237908c2.7889481,1.9304295,7.8175888,4.3677278,11.1746178,5.4161611c18.8008842,7.8784571,37.5783577,23.7751656,56.3421516,44.3616333C124.1198959,20.0840759,241.0094757,5.221827,310.9945068,32.8495522c68.5953979,22.9842567,56.1969299,38.9603996,85.1313782,31.2900887c48.5541077-11.9021683,99.1659546,44.1323547,63.8240356,84.0536118c49.1968994,92.5300598,59.5593567,168.8679962,12.3666382,270.7598267c-46.1946716,91.2680359-183.1051941,126.2637634-321.0501709,55.1990662C46.595192,400.8789978-42.5352249,262.0688782,38.5841408,111.1426849z M105.2085953,402.614563c-15.3757935-16.8399048-27.2827988-38.9117737-28.1362228-64.5479126c0.4523621-48.2528381,45.8852692-97.0293579,87.3516388-101.7824707c-18.6183624-15.9526978-26.2250366-31.193512-28.2144165-46.7330933c0.8945007-33.1569977,68.6151733-39.7777252,78.9677734-14.5687561c6.2485962,12.4124908,4.6395264,35.3427887-14.9698792,59.127655c45.7707825-1.5871735,107.0708008,13.0980072,155.7931519,32.2036438c52.4158936,30.7417297,85.3301697,71.5028381,63.1962585,122.9146423c-10.9299622,20.1599121-34.4319458,39.4720764-65.7668762,51.8284912c-68.8441467,0.0777893-97.1764221,0.9738464-141.3922119-6.0431213c-50.2594147-7.8933105-75.8977203-13.2411804-84.4755325-17.6206665c-4.2514954-2.1706543-7.8194733-3.7902527-7.8194733-3.7902527c19.786705,19.5039368,92.4134598,59.4791565,161.7059021,63.1564636c19.6377258,1.9987488,59.1684265-0.6112366,70.6964111-4.6676025c56.4998169-17.9227295,116.6221619-86.8563843,123.6100464-152.500824c3.5858765-35.1996765-3.3766174-126.2476807-45.124939-148.2667847c-16.8948059-7.0591125-43.2793884-3.4486694-45.8208008,6.2701721c-1.8929138,7.2387543-21.0034485,7.3371277-24.8616333,0.1280212c-5.4349365-10.1552582-2.9186401-16.313324,12.8894653-31.5435181c14.7922668-14.2515564,17.2401733-20.0408859,8.4737549-20.0408859c-2.1726685,0-7.3103027-1.9847183-11.4167175-4.4104309c-5.7235107-3.3809586-7.4662781-6.2975464-7.4662781-12.4950638c0-17.995842-3.3145142-32.1562653-8.1299744-34.7334671c-8.8511353-5.4094772-10.8595581,20.4990387-25.8071594,36.4500275c-14.0882263,13.9804306-38.4693909,19.0864334-57.7853088,12.1017075c-9.6361389-3.4844437-10.1150208-5.3632507-4.6813354-18.3677979c8.2823486-19.822319,2.9781189-53.8420601-9.6351929-61.7983818c-11.5619812-5.1544342-29.4244232,7.2254753-41.0373535,19.7518196c1.7074738,26.6209564-0.111969,51.7697067,6.7002563,61.5735168c2.5941467,3.8883133,3.608078,7.069603,2.2533569,7.069603c-5.0789642-1.3136902-35.5814819-22.6242523-56.32341-38.1119766c1.9745331-14.7104721,5.1171265-33.8514977,3.2073364-42.6520767c-3.018158-19.451849-50.416687,4.6490936-60.8314972,86.5482941c-1.7951813,12.3718109-4.0872726,22.4942017-5.0936737,22.4942017c-4.3473587-3.7975159-4.8447952-41.4365082-15.1409302-77.9543762c-6.9748306,1.1431656-47.143074,50.3492584-54.6793251,88.5449066c-5.002594,18.432663-5.8498917,27.8557281-5.8667583,65.2471008c-0.0205555,47.5337067,1.8759041,56.3957367,19.5008945,91.0800629C65.8413696,358.055603,95.8012848,399.8747864,105.2085953,402.614563z M330.3999634,234.419342c-13.6763306,6.212265-33.796875,6.2156372-43.9776306,0.00737c-20.8929749-12.7407074-32.9236755-42.6227417-26.8866577-66.7815857c7.8820496-31.5419617,48.2589722-49.8447952,71.2590637-32.3016968C364.8623657,161.8639679,367.1673584,221.1352692,330.3999634,234.419342z M323.3683167,192.3434906c0.7460938-8.8039856-6.5968323-27.94133-12.0030518-31.2825012c-8.7176514,1.5101929-27.7264099,10.7430267-18.19104,32.2954865c4.8695984,11.7562103,11.7371216,15.4488525,21.4200134,11.517395C321.171936,202.2032318,322.7200012,199.9924774,323.3683167,192.3434906z M363.3829651,412.949585h-0.0001526c52.7601929-28.9412537,58.0301514-73.5679016,1.2905579-117.3990479c-28.9405823-17.3238831-94.9403687-40.7476044-160.3473969-39.1777649c-40.8457489-0.4083557-41.234726-0.358551-55.8321228,7.1538391c-38.4328384,17.6510315-71.6396866,74.4605408-33.5056381,116.5494995c15.7172318,19.5904236,31.6602554,24.4870911,118.9015884,36.5189819C296.3264465,421.7915649,349.3294983,423.8495789,363.3829651,412.949585z M319.2822876,381.7730713c-14.4971008-10.1542358-18.0840149-36.7621155-7.1290588-52.8838501c24.5460205-30.5467834,60.9449158-6.6040344,53.0048218,32.3996277C359.3428345,396.8300171,324.9545898,384.4058838,319.2822876,381.7730713z M149.9981232,312.9640808c2.0757294-8.2705688,17.4601593-15.6600342,28.1513519-13.5217896c19.5238037,3.9047241,26.2146454,24.2789612,13.0940552,39.8719177c-5.491272,6.5259399-8.5266418,7.8995667-17.3526764,7.852417C143.9331055,346.530426,149.1643219,317.9455872,149.9981232,312.9640808z M184.5909882,197.2635498c0.6306-3.2511902-1.0760803-4.2858429-7.0696106-4.2858429c-9.068924,0-9.4527283,0.6515656-3.7463226,6.3580475C178.6562805,204.21698,183.4193573,203.3043976,184.5909882,197.2635498z M440.058136,135.0149384c2.7380371-0.0757599,12.0483704-7.4430542,12.3468933-16.6756363c0-9.8922119-18.2953796-29.8763046-30.7746582-33.6151581c-14.3164062-3.3453827-18.8588257-1.0996704-27.4066772,0.3368149C416.0936279,107.0480194,436.7865906,128.0823822,440.058136,135.0149384z M69.3607025,68.354805c0-7.3496284-37.7191582-39.9062042-46.2342758-39.9062042c-3.8267307,0-3.1925888,27.0558186,0.8606377,36.7159653c3.2374649,7.7160721,21.4772148,27.704361,25.2592316,27.704361C55.3139305,88.0864639,64.1354294,77.183876,69.3607025,68.354805z"/></svg>