<svg version="1.1" xmlns="http://www.w3.org/2000/svg" xmlns:xlink="http://www.w3.org/1999/xlink" x="0px" y="0px" width="385px" height="512px"><path d="M289.6487122,285.1774292c0-7.7825012,33.4186707-111.2794952-31.6522522-142.5784607c-74.9679871-36.0606232-95.6889038-64.8251572-95.0693817-110.9159927c-0.0460815,1.868824-45.3381882,74.8553696-15.8414917,110.9159927c45.7836304,55.8189545,26.4502563,99.0374146,0,95.0591278c-44.4421692-6.6611938-39.0763397-64.5998688-31.6983261-79.2176666c-23.2246094-2.4473877-50.0844803,11.9963074-63.3761749,31.6829681c-39.9774742,59.3825226,46.6642838,116.2050018,15.8568497,158.435318C44.4231491,380.7383423,4.358633,317.3775024,4.491755,316.8757324c-47.5654144,248.2924805,297.8956604,254.6004028,316.8757629,47.5346985c5.6525269-62.0961609,61.5636597-95.87323,63.3608093-95.0744934C325.1973267,241.8872528,289.6487122,287.1640015,289.6487122,285.1774292z M178.7788086,459.4900513c-83.0628357,3.0617981-74.5327988-59.1828308-63.3915482-79.2227783c14.1467514-25.5184021,49.9718399-30.561676,31.6983261-63.3915405c0.2355194,0.50177,38.8561859,6.3027954,63.3505707,31.6829834C248.0072174,387.3432007,243.7319489,457.0375061,178.7788086,459.4900513z M210.4310455,47.5244484c0-16.4917297,13.4709015-32.3434525,31.7085724-47.5244484c1.8278503,13.2046499-7.9002533,33.0090637,0,47.5244484c6.1287079,10.7418976,15.856842,22.8969383,15.856842,31.6932106c0,11.7863922-4.3878937,22.5282898-15.856842,31.6829681C231.6782074,73.8412399,213.1847687,75.0279846,210.4310455,47.5244484z"/></svg>