<svg xmlns="http://www.w3.org/2000/svg" width="512" height="512"><path d="M132.35 41.233C100.878 23.41 60.77 3.926 31.806 4.089 2.181 4.048-7.99 28.172 6.571 70.848c7.26 22.17 19.377 46.117 30.833 66.343-20.016 35.964-31.647 77.175-31.647 121.203 0 137.998 112.123 250.127 250.127 250.127S506.01 396.391 506.01 258.394c0-43.681-5.855-80.578-25.847-116.617 11.466-20.633 21.92-45.833 27.577-69.2 6.386-28.994 11.41-68.141-30.32-69.098-32.226 1.405-65.555 13.992-99.525 33.072C296.01-5.747 199.808 2.511 132.35 41.233zM18.99 66.769c-3.568-10.894-5.776-20.961-6.004-28.898-.227-7.936 1.523-13.225 4.478-16.18 2.768-2.768 7.435-4.54 14.45-4.579 22.41-.127 62.96 17.92 93.722 35.184-31.37 19.725-57.92 46.364-77.504 77.77C37.127 110.52 25.68 87.196 18.99 66.769zm458.126-50.266c19.844.305 20.818 10.769 21.879 22.389.315 8.447-1.096 19.188-3.867 30.63-5.454 22.524-16.096 48.092-27.358 67.902-11.659 20.506-22.59 36.591-26.779 40.78-12.573 12.57-45.54.053-73.576-27.985-28.034-28.034-40.562-60.996-27.987-73.57 4.25-4.25 20.828-15.353 41.727-27.226 20.118-11.429 45.28-22.667 67.061-28.547 10.891-2.939 20.916-4.496 28.9-4.373z"/></svg>