<svg version="1.1" xmlns="http://www.w3.org/2000/svg" xmlns:xlink="http://www.w3.org/1999/xlink" x="0px" y="0px" width="489px" height="512px"><path d="M118.3482666,261.4525452C44.0672226,226.0783234-12.6154928,191.624115,20.6732292,118.494133C61.3361092,40.0923386,146.2940979-16.1555252,243.1033173,4.1912937c90.9864349,26.9091682,244.1736603,154.7471924,244.7909698,218.8503113c2.7264404,35.3870392-6.6107178,53.1203156-51.7256165,98.2378082C284.9483948,464.09021,140.1875,529.6656494,71.1814499,507.9182129v0.0010681C4.9553757,488.8596802-38.1711426,404.3317261,48.6443901,326.4333801C75.1772919,299.9849243,99.5449982,276.679718,118.3482666,261.4525452z M314.3667297,129.0451508c-35.1026306-50.4722595-80.9072876-66.8878021-122.1605682-47.3694534c-53.4767456,25.7791748-34.0542603,99.7624893,31.9313202,121.6317673C292.127655,216.9326172,331.0924683,170.9741364,314.3667297,129.0451508z M264.3005676,172.2889862l6.1359253-6.454071c12.3317566-12.9710083,5.699585-28.7004547-16.7642059-39.7593231c-11.6628113-5.7415161-16.5043793-6.9183731-26.15979-6.3585739c-14.7252197,0.8536606-20.6751709,7.3088303-21.0081787,22.7919846c-0.1329346,6.1802063,0.539978,10.3131256,2.8047791,13.0435028c3.8678131,8.2863617,11.7629089,15.8065186,24.4055023,19.6336365C250.8290253,178.2166595,261.356842,175.3454437,264.3005676,172.2889862z M233.8526611,174.6041565c-13.2380524-4.0162048-19.8666992-11.6938477-23.1396179-17.6886749c3.3487091,2.6051331,9.0590057,3.460495,18.3973236,3.5633087c18.499649-0.0362244,23.9618683,5.3610687,34.6563263,11.5037689C263.0760193,172.6713257,256.4029236,178.5049896,233.8526611,174.6041565z"/></svg>