<svg xmlns="http://www.w3.org/2000/svg" width="499" height="512"><path d="M450.738 236.402C450.738 106.046 359.638 0 247.676 0S44.62 106.051 44.62 236.402c0 89.23-19.464 139.315-32.346 172.453-6.85 17.64-12.27 31.58-12.27 44.577-.188 7.618 5.76 9.087 12.155 9.134 10.407 0 25.834-4.452 40.754-8.762 15.208-4.403 30.632-9.254 43.727-8.87 24.291.713 34.458 18.572 42.505 32.743 9.552 16.969 16.905 25.95 30.816 25.981 23.791.053 70.788-28.168 93.765-28.33 30.772-.588 66.521 37.411 87.357 36.661 7.335-.49 26.344-6.565 36.624-28.041 12.164-25.458 31.038-30.083 67.297-29.074 23.993 0 43.74.116 43.742-14.93-.252-47.952-47.251-86.952-48.008-203.542zm-226.683-43.955c-6.982 21.01-24.72 35.127-44.14 35.127-26.064 0-47.266-24.55-47.266-54.717s21.202-54.71 47.265-54.71c19.426 0 37.159 14.099 44.14 35.071.677 2.265 4.157 2.628 5.087 0 6.976-20.977 24.708-35.072 44.134-35.072 26.064 0 47.26 24.545 47.26 54.711s-21.202 54.717-47.26 54.717c-19.415 0-37.147-14.116-44.134-35.127-1.042-2.716-4.384-2.153-5.086 0zm-42.101 9.08c-14.388-8.329-14.388-29.263 0-37.591 14.387-8.328 32.47 2.139 32.47 18.795s-18.083 27.124-32.47 18.795zm68.635 0c-14.388-8.329-14.388-29.263 0-37.591s32.47 2.139 32.47 18.795-18.082 27.124-32.47 18.795z"/></svg>