<svg xmlns="http://www.w3.org/2000/svg" width="512" height="512"><path d="M232.41 74.888c-52.858 14.65-85.397 63.738-72.672 109.637 10.909 39.372 51.576 63.588 96.28 60.442-9.996 18.206-3.932 35.529 10.778 52.377-88.296-1.344-140.611 31.122-135.919 94.44 1.8 24.289 37.623 59.216 77.838 63.02l-.005.023c113.944 18.658 198.472-62.965 149.828-138.415-33.538-41.079-63.253-39.994-60.528-63.944 0-7.668 6.872-19.81 25.563-34.19 18.694-14.378 33.095-32.912 33.065-55.679-.03-22.493-8.718-40.38-8.718-40.38-4.871-11.533-12.45-21.483-21.955-29.48 0 0-1.275-3.713.803-6.268 2.076-2.557 16.614-22.527 16.614-22.527s2.557-3.675 1.597-5.592c-.958-1.918-12.94-11.662-12.94-11.662s-2.556-.799-5.432 1.437c-2.875 2.238-33.233 20.822-40.582 21.515-20.103 1.982-31.443-.718-53.615 5.246zm-29.3 99.92c-12.58-38.755.618-77.767 29.483-87.133 28.863-9.37 62.464 14.452 75.04 53.205 12.58 38.757-.62 77.768-29.484 87.134-28.861 9.369-62.464-14.454-75.04-53.207v.001zM180.375 351c9.375-21 32.375-38.75 103.686-40.015 27.106 21.015 49.424 45.52 52.45 58.908 6.45 23.652-14.497 56.886-53.804 62.757C207.75 441 158.152 403.358 180.375 351zM20.687 434.424V77.576c-.441-30.918 26.338-58.064 56.889-56.89h356.848c32.973.32 56.224 26.643 56.893 56.894v356.848c-.715 33.895-27.42 56.545-56.893 56.885H77.576c-32.937-2.84-53.663-19.77-56.89-56.889zM434.424 0H77.576C34.909 0 0 34.91 0 77.576v356.848C0 477.091 34.91 512 77.576 512h356.848C477.091 512 512 477.09 512 434.424V77.576C512 34.909 477.09 0 434.424 0z"/></svg>