<svg xmlns="http://www.w3.org/2000/svg" width="512" height="512"><path d="m442.956 82.513-377.947.356c.834 61.01 48.437 127.562 121.87 153.653 25.241 12.792 46.92 42.915 33.83 97.17-6.938 26.07-9.061 31.657-21.019 55.326-4.896 9.69-8.901 18.385-8.901 19.322 2.808 22.25 99.606 31.831 126.414 4.159 2.212-3.315 1.969-5.1-1.5-11.018-14.942-27.608-25.43-55.406-30.306-79.492-4.956-45.377 10.916-69.452 34.808-85.324 62.075-19.573 122.513-84.433 122.751-154.152zm-300.42 182.122c3.905-6.085 5.934-7.484 14.217-9.797 6.811-1.903 17.52-6.95 17.52-8.259-44.49-16.467-77.658-42.843-101.781-85.975H0c2.13 43.76 33.868 79.319 73.172 93.595 21.989 4.168 37.385 37.826 10.7 89.271-3.636 7.266-6.612 13.958-6.612 14.867 6.435 17.138 72.933 16.483 78.437-.216-8.756-19.81-32.959-61.438-13.162-93.486zm292.507 93.36c-11.816-25.76-36.384-69.655-6.879-100.378 35.027-8.259 80.888-43.637 83.836-96.67h-75.206c-18.871 35.194-58.247 70.738-99.99 84.862-.299.9 8.547 5.889 13.01 7.338 9.22 2.997 14.868 5.483 16.987 7.48 3.162 2.98 8.702 14.333 10.132 20.763.907 4.076 1.098 7.243.825 13.646-.67 15.678-4.795 29.567-14.396 48.48-3.716 7.32-6.756 13.721-6.756 14.224 9.888 19.71 76.256 14.905 78.437.256z"/></svg>