<svg version="1.1" xmlns="http://www.w3.org/2000/svg" xmlns:xlink="http://www.w3.org/1999/xlink" x="0px" y="0px" width="512px" height="512px"><path d="M127.7111053,477.5468445c-170.2814484-98.1691284-170.2814941-344.92453-0.000061-443.093689S512,59.6616783,512,256S297.9925537,575.7160034,127.7111053,477.5468445z M199.6118011,270.747467c14.9032288,5.5831604,25.4702148,24.5091248,28.6636353,36.8658142c7.8326111,42.3913574-19.2744293,86.5967102-25.4690857,101.099884c0,1.9686279,2.3914948,5.2149048,5.3529358,7.2524109c28.0587311,15.9362488,85.0977325,10.3837891,96.1780548-3.8853149c1.7765503-2.6624146,1.5775757-4.1386414-1.2087097-8.8923645c-26.4170532-48.0588989-40.9559937-103.7399292,3.6259766-132.3526611C368,250.9640045,405.5,192.9640045,405.2645874,147.0289764l-302.781311,0.0000305C102.3585587,205.438858,151.5,254.9640045,199.6118011,270.747467z M189.5052948,278.7777405c-33.0110321-11.6556702-63.8802948-34.938736-81.7599945-68.9822693H49.5548248l0.0062904,0.0076141c2.7626381,33.4646759,21.2908211,59.2092438,58.7969398,75.1133881c9.6357727,2.8569641,11.3253632,4.223999,15.8770142,12.6821899C136.625,324.2139893,117.75,353.7139893,111.6299057,368.5670776c3.6200943,13.4802551,58.4534225,13.3969116,62.9392471-0.1724854c-5.0937958-11.1374512-18.4858246-33.930603-16.4902191-57.0682068C165,278.5889893,171.6014099,291.3054504,189.5052948,278.7777405z M344.1341553,290.0864868c2.5394592,2.394104,6.9667053,11.4989624,8.1156311,16.6629333c3.9611206,24.868866-9.4104309,46.0706177-16.3172913,61.2988281c6.0327759,14.7365112,60.4008484,13.2490845,63.0256042,0.2587891c0-0.5601196-2.1067505-5.118988-4.6621704-10.1011963C391.5,353.7139893,381.875,333.2139893,382.5039062,310.6551514c0.3113708-11.1689453,7.2984924-18.8224487,10.928833-22.9845276C443,273.5889893,461.625,230.5890045,460.5156555,210.0543365l-60.1769409-0.0003967c-10.3383179,23.2437897-48.2041016,59.1122894-80.7582397,67.982193C328.3958435,285.1098328,336.8401184,284.9455261,344.1341553,290.0864868z"/></svg>