<svg xmlns="http://www.w3.org/2000/svg" width="512" height="512"><path d="M127.711 477.547c-170.281-98.17-170.281-344.925 0-443.094S512 59.662 512 256 297.993 575.716 127.711 477.547zm71.9-206.8c14.904 5.584 25.471 24.51 28.664 36.866 7.833 42.392-19.274 86.597-25.469 101.1 0 1.969 2.392 5.215 5.353 7.253 28.059 15.936 85.098 10.383 96.178-3.886 1.777-2.662 1.578-4.138-1.208-8.892-26.417-48.059-40.956-103.74 3.626-132.353C368 250.964 405.5 192.964 405.265 147.03H102.483c-.124 58.41 49.017 107.935 97.129 123.718zm-10.106 8.03c-33.01-11.655-63.88-34.938-81.76-68.982h-58.19l.006.008c2.763 33.465 21.29 59.21 58.797 75.113 9.636 2.857 11.325 4.224 15.877 12.683 12.39 26.615-6.485 56.115-12.605 70.968 3.62 13.48 58.453 13.397 62.94-.172-5.095-11.138-18.487-33.931-16.491-57.069 6.921-32.737 13.522-20.02 31.426-32.548zm154.63 11.31c2.539 2.394 6.966 11.498 8.115 16.662 3.96 24.87-9.41 46.071-16.318 61.3 6.033 14.736 60.401 13.248 63.026.258 0-.56-2.107-5.119-4.662-10.101-2.796-4.492-12.421-24.992-11.792-47.55.311-11.17 7.298-18.823 10.929-22.985 49.567-14.082 68.192-57.082 67.083-77.617h-60.177c-10.339 23.244-48.204 59.112-80.759 67.982 8.816 7.074 17.26 6.91 24.554 12.05z"/></svg>