<svg xmlns="http://www.w3.org/2000/svg" width="512" height="512"><path d="M222.913 106.383c9.967-20.04 16.67-26.295 37.575-36.153 4.278-1.643 2.109-7.512-2.218-6.156-5.853 1.434-10.682 2.747-14.998 4.42-.298-1.9-2.093-3.092-3.945-2.684-13.196 3.308-16.474 5.775-20.524 19.102-.481 1.884.774 4.26 3.473 4.104-1.91 4.263-3.622 8.926-5.365 14.998-.914 3.95 4.195 5.585 6.002 2.37zm58.708 288.45c-5.051 3.247-23.988 19.106-32.047 25.1-3.543 4.708-6.471 10.004-9.946 11.84-6.369 3.369-10.396 1.965-14.997-1.894-6.003-5.116-15.823-20.244-19.576-29.995-1.08-3.678-2.083-8.037.632-9.156 7.378-3.91 12.1-7.277 18.786-11.682 1.13 1.434 2.37 3.08 3 4.104 1.754 3.046 6.53 1.497 5.999-2.21-.309-2.48-.642-4.956-.95-7.406-.99-5.229-.022-13.877.79-24.945.157-3.94-5.195-4.797-6.314-1.263-2.126 5.92-4.933 11.85-5.684 15.787-17.241 3.309-34.23 3.622-51.462.793-1.121-6.219-2.374-12.715-3.476-17.368-.658-4.388-6.817-3.493-6.472.632-.404 6.345-.127 22.394-.158 31.416.481 12.295-3.846 11.515-13.102 30.31a3.244 3.244 0 0 0-.474 1.579c.391 5.919.528 9.254-.947 14.524-2.474 6.005-32.744-1.244-46.689-6.555-3.856-1.47-7.226-4.686-5.565-8.6 4.077-10.455 6.568-21.307 8.525-35.679a3.244 3.244 0 0 0-.47-2.364c-15.61-22.49-29.096-53.783-32.993-80.515-8.42-57.76 30.543-117.287 102.46-128.818-12.806 15.777-25.086 25.56-37.573 53.36-3.844 7.793-6.07 13.615-5.684 19.576 1.188 14.504 16.93 24.113 24.628 44.519-2.74 6.178-3.921 12.065-4.894 20.207a3.242 3.242 0 0 0 .79 2.526c10.593 11.579 18.748 20.022 30.152 22.733 32.6 8.96 48.694-24.65 89.194-26.364a3.244 3.244 0 0 0 3-2.051c18.624-45.215-.108-71.69-1.105-123.455.123-4.328-5.788-4.849-6.473-.632-12.761 51.647 12.715 72.628-4.894 112.877-20.565 2.29-37.77 14.152-55.256 23.207-6.62 3.644-24.49 7.596-39.151-12.788-.711-13.204 11.277-30.52 28.574-59.674 1.73-3.588-2.595-6.394-5.21-3.788-9.069 10.947-17.595 20.65-25.258 31.573-3.171-6.365-6.998-11.418-12.787-19.26-4.758-7.348-8.129-10.045-2.21-21.944 5.422-11.36 9.777-20.912 18.628-30.468 16.076-17.36 30.496-36.494 47.676-53.2 5.912-4.71 5.74-7.883 24.154-9.946 11.437-1.733 22.638-3.93 34.257-6.63 3.408-1.244 2.581-6.38-1.105-6.315-8.611.803-17.01.983-25.417 1.263 7.748-9.55 14.107-16.18 28.1-22.26 40.329-16.862 66.893-21.12 100.413 7.217 6.865 5.771 13.245 11.244 20.05 16.576-1.26.364-2.404.403-3.79.947-3.457 1.633-1.845 6.802 1.895 6.157 3.54-.674 8.179-.012 12.63.79 1.135.72 2.332 1.537 3.472 2.21 7.462 4.764 10.13 4.305 19.891 22.417-3.274-1.025-6.709-.464-11.05 1.579-3.19 1.5-8.96 3.48-11.84 3.947a3.244 3.244 0 0 0-2.526 3.83c.62 2.706 3.154 2.857 6.945 3.116-.56 2.14-.024 5.018 1.263 7.894l-1.894.789c-3.13 1.433-2.256 6.375 1.733 6.168 4.618-.704 8.842-.804 13.103-.79-9.249.383-18.722 3.86-22.575 12.63-2.368 5.307-3.121 10.944-6.788 17.682-1.975 3.4 2.583 6.92 5.367 3.63 4.45-5.438 6.373-10.81 8.683-14.68 1.555-2.607 3.571-4.414 6.157-5.842-.178.394-.485.694-.631 1.105-3.895 11.023-1.71 19.327-5.368 28.417-1.56 4.103 3.802 6.52 5.841 2.841 5.396-9.348 5.526-17.84 9.63-26.206 2.218-3.215 4.985-5.463 8.367-6.63.59 7.494 3.023 8.283-3.315 38.204-.834 3.529 3.566 5.58 5.683 2.841 5.197-6.007 14.438-38.643 8.84-58.569-.26-1.398.217-1.708.316-2.526 19.623 8.174 36.295-9.81 41.046-25.259.81.994 2.067 1.957 2.368 2.684 8.682 21.003 12.874 55.352 10.577 76.565-11.077 67.702-54.37 81.356-119.98 57.78-10.172-3.866-12.995-7.716-15.786-8.366 2.521-1.24 6.322-2.806 8.998-4.263 2.833-1.684 1.542-6.32-2.056-5.991-2.976.502-7.886 1.625-10.42 2.052-3.91.66-6.969 1.535-8.997 3.947-2.923 3.249-2.455 7.9-4.894 20.049.004 3.68 4.593 4.617 6.157 1.578 1.435-3.838 3.281-8.31 4.894-11.84 1.338-2.853 1.51-2.751 2.841-3.473a3.244 3.244 0 0 0-.158 1.737c4.066 17.448-3.469 21.777-3.157 36.309.206 5.518 1.611 9.173 4.263 10.893-5.592-3.296-16.054-13.353-26-21.863-12.965-4.03-23.12-8.806-34.785-17.44-3.13-2.493-7.126 1.61-4.42 4.736 7.888 9.271 14.437 15.136 24.943 20.05-7.469 35-14.418 56.002-36.942 83.67zm53.058-260.194c-19.975 4.642-31.56 14.261-27.153 34.415.723 3.095 5.105 3.749 6.314.158 2.468-10.929 6.25-20.353 23.049-28.416 4.214-1.528 2.204-7.5-2.21-6.157zm-134.033 61.728c-1.17 4.051 4.53 6.094 6.157 2.052 6.08-14.884 12.176-28.739 17.524-36.625-.243 3.753.175 7.468 1.105 13.418.887 3.497 5.6 3.146 6.314 0 1.571-12.026 5.374-16.507 12.314-25.575 7.866-2.02 15.264-4.416 23.364-7.577 3.883-1.538 2.206-6.89-1.42-6.157-9.426 1.065-18.857 2.108-28.259 3-10.903.615-11.458 2.46-16.734 6.946-7.278 6.873-13.956 25.966-20.365 50.518zm120.136-3.944c-2.082 2.056-.395 6.37 3.316 5.368 3.282-1.273 6.04-3.49 8.84-5.526.28 4.074 2.814 6.824 6.473 9.63-1.51 2.304-3.107 4.516-4.105 7.262-1.017 3.436 3.139 5.799 5.526 3.157 10.618-12.584 26.425-22.142 40.889-26.203 4.315-.927 3.223-6.854-.95-6.472-3.65-.052-7.791.979-11.998 2.053-.703-3.947-2.627-6.359-6.634-9.47 1.883-1.18 3.896-2.15 5.525-3.63 2.78-2.607-.057-6.905-3.626-5.378-8.092 3.687-15.71 2.22-23.364 7.42-6.136 4.254-12.848 15.05-19.892 21.79zM37.57 226.833c-6.436-6.549-3.227-15.52 7.578-25.415-2.874 12.064 1.122 18.683-7.578 25.414zm40.886 156.133c-16.43-2.328-35.662-22.56-34.099-35.837 7.262-8.369 18.002-17.693 18.155-19.102.059-.157.099-.316.157-.473 5.82 16.911 13.834 33.204 23.05 47.36-1.88 7.805-4.045 7.638-7.263 8.052zm215.965 18.628c13.803-16.21 22.024-30.642 30.784-59.516 1.37 6.142 4.765 8.405 5.052 19.892.219 7.778.41 15.57.631 23.364.045.504.207.99.474 1.42 2.453 4.3 2.478 3.56 2.052 8.368-.422 4.75-1.323 6.325-2.21 6.946-.954.545-2.848.774-4.973.807-10.114.154-27.488.44-31.81-1.28zM11.836 229.681c1.97-22.313 5.77-30.725 21.629-47.522 2.73-3.044-1.133-7.205-4.263-4.893-4.908 3.458-8.923 6.504-12.314 9.63a3.244 3.244 0 0 0-4.396-1.314c-5.54 3.754-9.025 6.76-10.917 10.79-1.893 4.03-1.746 8.528-1.263 14.839.216 1.947 2.384 3.72 4.736 2.526-.219 4.671-.123 9.648.473 15.944 1.28 3.713 5.664 2.95 6.315 0zM22.1 214.988c-.948 5.575 1.166 11.567 5.762 16.734 3.788 20.052 13.375 26.507 27.548 23.839-2.459 15.18-2.462 32.231.79 49.254-1.88 5.092-3.783 10.163-5.684 15.313-12.339 13.098-18.76 17.156-20.996 21.628-6.424 14.552 15.439 55.366 51.622 55.886-.834 2.513-1.55 4.935-2.684 7.42-4.86 11.791-1.437 18.58 6.157 23.364 6.903 4.357 16.193 6.227 23.522 8.21 6.15 1.663 16.92 4.743 27.153 5.367 20.315 1.45 26.7-7.752 25.575-29.837 3.605-8 4.566-9.19 7.735-13.892 3.739-6.384 5.562-7.35 3.473-20.366 8.571 1.05 17.03 1.292 25.417.948-9.78 4.606-11.788 12.79-8.21 22.574 5.032 13.755 19.904 36.925 30.47 43.099 9.903 5.786 19.674 3.949 28.89-.948 8.292-4.406 9.312-10.575 12.787-15.155 4.058-2.593 12.004-9.574 20.365-16.102 3.832 2.754 7.014 2.87 16.102 3.63 4.756.344 20.7.447 24.943.474 12.657.54 23.776-2.009 24.785-18.629.453-6.32-.252-9.391-3-14.523-1.558-29.22.396-29.22-5.998-43.888-6.362-17.792-8.422-18.62-7.578-20.207 11.856 11.219 19.202 20.293 30.875 22.405 21.221 3.838 42.522-10.951 46.639-35.665 98.214 17.27 123.44-84.01 88.562-166.391-6.083-11.03-24.392-15.802-29.994-8.367-10.232 10.332-8.095 17.008-23.522 21.943-5.95-12.757-13.756-25.304-29.999-34.73-12.23-7.66-21.98-17.556-33.624-27.155-39.93-30.52-65.575-28.323-111.134-10.098-20.765 8.741-31.262 21.192-43.572 37.573-15.288 1.041-22.942 10.571-38.046 25.259-39.987 6.448-66.001 14.58-92.826 38.362-10.884 9.65-18.714 20.436-24.943 32.362-7.228 8.19-13.538 14.296-20.231 15.584 4.21-4.14 6.09-9.152 6.023-16.531.801 1.219 1.705 2.629 3 4.262 1.524 1.878 4.896 1.587 5.682-1.42 2.311-9.909 2.03-17.784-4.42-23.365 1.025-2.688 2.085-5.32 3.157-8.367.777-2.497-1.26-4.706-3.632-4.268-12.75 2.916-34.563 18.817-36.941 34.414z"/></svg>