<svg xmlns="http://www.w3.org/2000/svg" width="471" height="512"><path d="m62.349 430.579 158.667 77.865c9.152 4.078 19.307 5.362 31.852 0l158.077-77.86c12.97-6.488 20.645-20.054 20.049-34.204l38.935-356.86C473.88 19.5 454.71.82 433.95 0H36.396C16.334 1.596-3.104 16.25.416 40.7l40.109 359.803c2.603 14.883 7.142 21.783 21.824 30.076zm93.785-81.988-87.887-87.875c-17.777-13.18-11.464-34.224 0-44.834l88.476-88.476c31.119-27.256 69.665 13.34 43.059 43.058l-67.242 68.422 66.652 66.652c27.637 33.794-16.384 68.894-43.058 43.053zm255.401-88.47-88.476 88.47c-30.173 26.646-70.552-12.57-43.059-43.053l66.652-66.652-67.242-67.242c-26.037-26.466 9.985-70.963 43.065-43.059l87.88 87.887c12.683 13.205 12.026 32.77 1.18 43.648z"/></svg>