<svg xmlns="http://www.w3.org/2000/svg" width="256" height="512"><path d="M163.671 3.653H44.185c-21.978 0-39.858 17.88-39.858 39.858v13.782C.334 57.25.167 58.77.001 59.933V80.19c.02.322.006 3.164 4.326 2.635v21.632c-4.472 0-4.326 2.842-4.326 3.137v11.984c.009 1.678-.136 3.983 4.326 3.678v21.598c-3.053-.255-4.2.832-4.326 2.64v12.803c0 1.281-.032 3.828 4.326 3.356v308.49C4.327 494.12 22.207 512 44.185 512h171.656c21.972 0 39.852-17.88 39.852-39.858V43.512c0-21.979-17.88-39.859-39.852-39.859h-6.463c.188-1.686-.464-3.522-2.611-3.653H166.31c-1.107.075-2.913.681-2.64 3.653zm-17.06 47.96h-36.58c-6.814-.285-6.576-8.568 0-8.699h36.58c7.031.44 6.284 8.633 0 8.7zm93.936 367.797H16.118V82.766h224.43V419.41zm-106.892 35.034H122.8a4.279 4.279 0 0 0-4.28 4.268v11.012a4.271 4.271 0 0 0 4.28 4.268h10.855c2.37 0 4.303-1.909 4.303-4.268v-11.012c.006-2.342-1.932-4.268-4.303-4.268zm-17.695 31.225c-16.421-9.468-16.421-33.264 0-42.732s37.061 2.431 37.061 21.366-20.639 30.833-37.06 21.366zM88.9 50.907c-2.8-1.614-2.8-5.672 0-7.286 2.8-1.614 6.319.415 6.319 3.643S91.7 52.521 88.9 50.907z"/></svg>