<svg xmlns="http://www.w3.org/2000/svg" width="512" height="512"><path d="M359.17 299.93c-9.907-10.027-6.92-24.075 2.663-31.263 8.667-6.5 32.795-9.258 44.824 16.142 0 0 37.134-23.858 37.134-24.2-34.458-63.942-139.458-42.276-137.185 25.6-.206 35.709 19.552 57.077 65.35 74.963 14.614 5.95 27.095 11.635 32.983 18.143 6.825 7.543 7.304 21.912-1.054 29.58-16.908 15.471-53.885 12.355-73.173-19.709-.438 0-37.77 21.586-38.543 22.314 22.831 50.75 106.581 65.25 147.61 27.295C455.334 425 466.934 387.906 448.25 357c-30.5-39.29-57.346-32.452-89.08-57.07zm-93.622 100.833c.29-2.705 0-175.314 0-175.314h-47.142V390.5c0 31.833-28.656 28.333-36.957 24.521-7.206-3.309-11.993-9.43-19.315-21.882-.194.097-38.496 23.275-38.496 23.275 19.512 42.259 64.827 49.363 101.029 38.92 34.051-9.824 40.948-46.895 40.881-54.571zM456.507 512H55.493C24.898 512 0 487.109 0 456.507V55.493C0 24.898 24.898 0 55.493 0h401.014C487.109 0 512 24.898 512 55.493v401.014C512 487.109 487.109 512 456.507 512zM55.493 25.754c-16.399 0-29.74 13.34-29.74 29.74v401.013c0 16.399 13.341 29.74 29.74 29.74h401.014c16.399 0 29.74-13.341 29.74-29.74V55.493c0-16.399-13.341-29.74-29.74-29.74H55.493z"/></svg>