<svg xmlns="http://www.w3.org/2000/svg" width="374" height="512"><path d="M239.012 406.423s11.631 7.366 27.875 13.746C167.713 463.1 42.43 417.677 120.33 395.694c-28.635 17.055 58.313 24.05 118.682 10.729zm16.004-53.604s8.105 8.3 20.851 12.838c-119.918 35.43-253.466 2.8-167.654-25.97-40.276 30.545 105.319 23.713 146.803 13.132zM210.37 244.663c24.437 28.416-6.42 53.988-6.42 53.988s62.05-32.353 33.552-72.864c-26.614-37.78-47.025-56.551 63.468-121.273 0 .002-173.431 43.752-90.6 140.149zm131.18 192.489s14.32 11.922-15.786 21.146c-57.245 17.515-238.268 22.804-288.542.697-18.978-8.154 19.8-22.892 43.96-23.259-20.102-14.303-129.934 28.085-55.788 40.224 202.215 33.113 368.618-14.909 316.155-38.808zm-46.355-136.865s-13.436 5.811-23.158 12.515C178.535 337.64-2.107 326.085 49.913 300.68c43.971-21.46 79.73-19.026 79.73-19.026-138.808 35.05 22.276 42.217 165.552 18.633zm-.374 74.594c95.049-49.884 51.102-97.827 20.427-91.367-7.518 1.58-10.87 2.95-10.87 2.95s2.79-4.416 8.122-6.327c60.684-21.548 107.352 63.552-19.59 97.257 0 .021 1.474-1.327 1.911-2.513zM237.512 0s52.639 53.181-49.926 134.961c-82.244 65.604-18.75 102.998-.03 145.744-48.01-43.734-83.242-82.257-59.605-118.101C162.62 109.99 258.732 84.478 237.512 0zM67.365 496.45c121.522 16.239 275.156 3.174 306.276-33.244-3.863 56.728-259.043 58.477-306.276 33.243z"/></svg>