<svg version="1.1" xmlns="http://www.w3.org/2000/svg" xmlns:xlink="http://www.w3.org/1999/xlink" x="0px" y="0px" width="284px" height="512px"><path d="M238.1550293,275.1130371c-5.6175537-19.2108612-3.0749969-41.928421,7.6382141-57.0771484c11.5809021-16.3762665,1.8192291-52.8237305,7.971283-68.8380737c6.1523743-16.0143585,20.4389954-11.4820404,25.0536804-36.3627319c4.6143188-24.8806839-15.0033569-41.9742813,0.1963806-73.5516357c15.2117004-31.5791302-8.6974487-31.4120083-19.1955872-23.7220116c-10.4922333,7.690587-13.1285248,26.4065666-17.4713898,41.1539688c-14.2937012-15.5618286-5.3657684-56.9261475-27.697876-56.6761665c-15.3733368-0.7082791-14.2900848,8.2493677-14.9131317,20.6694565c-0.4523468,12.9378872,1.7372437,22.1955433,7.6182098,44.4522858c-19.995285-15.1093063-18.5476837-48.1666451-36.0096588-41.742424c-17.4619598,6.4236317-12.8401947,21.4399624-6.5972137,37.8156281c6.2429657,16.3762589,14.5402527,32.1322861,28.7445068,46.3371201c-15.9237366,2.623764-37.2448273,9.6077881-31.4543762,26.0746765c5.79039,16.4662933,19.0590515,4.0431366,31.4543762,4.9478912s21.2581177,13.310379,33.6534424,14.2154236c12.3953247,0.9047546,15.22229,24.9695435,14.1365662,44.0597992c-0.9965515,17.5231476-22.6515961,29.9343719-33.9676971,18.7707062C155.9598389,130.0541382,89.2225571,70.3136597,61.3883934,54.7547607c8.4149818,17.6208572,5.6021385,119.0219727-2.1184578,187.1539001c-10.8329582,56.0037537-40.2706871,64.1480713-41.8230438,89.4165344c-1.6285648,26.5089417,8.5656281,29.0440369,7.9324436,53.5628052c-0.6333008,24.5187988-22.4297504,34.4508057-25.0536957,47.7506104c-2.6237679,13.2998047,11.2284107,17.5531921,19.280901,17.5531921c2.3554878,0,4.7150974-3.0197754,6.950304-7.8536072l-1.8063374,25.3285217c-1.2666607,24.7900696,2.5361462,34.5567322,18.7312756,34.5567322c28.5903473,0,64.8777466-60.2583313,110.3833618-58.9049072c45.5997925,1.3571167,60.0935516,69.1323242,81.4429016,68.6791992c21.3522644-0.4522705,38.538269-7.868866,38.7189331-73.8223267C274.2149963,379.7277832,259.7803345,324.4907532,238.1550293,275.1130371z M171.4681396,204.6802063c0.0899658-0.0206146,0.1848907-0.0200043,0.2749329-0.0388336c17.3756866,43.946579-39.7902832,76.2085724-70.291214,52.3062286c-0.0229568-0.0170593-0.0553131-0.0211792-0.0784988-0.0388184C52.4298248,211.2319794,140.1597748,158.3110046,171.4681396,204.6802063z M181.753479,202.9948883l3.4193268-0.3178101c28.1378174,43.8802948,75.7348175,143.4842682,74.375473,221.4728851c-1.359314,77.9945068-9.744873,73.0220032-22.5027161,73.4751282c-12.757843,0.4531555-33.4186554-68.7792053-85.8033905-69.2264404c-52.2905807-0.4531555-84.2145538,61.6941833-106.6525421,59.2520447c-22.4379921-2.4421082,21.6082649-195.4335022,28.6638985-229.9937744l10.0526657-6.8326111C112.1580734,302.1827393,202.6511383,264.6856079,181.753479,202.9948883z M43.2126465,312.866272c1.535881,0.0411987,2.3587837,2.1976624,1.8456459,7.3822327l-8.8357277,47.868866c-3.2989693-9.6242371-7.9324455-17.7850342-7.9324455-26.6637268C28.2901192,330.3988342,38.7264595,312.745636,43.2126465,312.866272z"/></svg>