<svg version="1.1" xmlns="http://www.w3.org/2000/svg" xmlns:xlink="http://www.w3.org/1999/xlink" x="0px" y="0px" width="512px" height="512px"><path d="M359.1700134,299.9296265c-9.9071045-10.0267029-6.9208069-24.0748596,2.6633301-31.26297c8.6666565-6.5,32.7946167-9.2580261,44.8236694,16.1426086c0,0,37.1337891-23.8581238,37.1337891-24.1993408c-34.4574585-63.9432526-139.4574585-42.2765961-137.1844482,25.5993652c-0.2059631,35.7087402,19.5512695,57.0765991,65.3504333,74.9630432c14.6134033,5.9502869,27.0940247,11.634552,32.9821472,18.1424561c6.8251343,7.5435486,7.3040771,21.9122314-1.053772,29.5794983C386.9769287,424.3660278,350,421.25,330.7119751,389.1861572c-0.4378357,0-37.770752,21.5863037-38.5433655,22.3138428C315,462.25,398.75,476.75,439.7796631,438.7945862C455.3333435,425,466.9327393,387.9062195,448.25,357C417.7504883,317.7099609,390.9041748,324.5481567,359.1700134,299.9296265z M265.5482483,400.7625427c0.2897034-2.7041321-0.0002441-175.3130798-0.0002441-175.3130798h-47.1419983L218.4057617,390.5c0,31.8333435-28.6557617,28.3333435-36.9566803,24.5213318c-7.2060394-3.3092041-11.9935303-9.4300537-19.3155518-21.881958c-0.193161,0.0965576-38.4956055,23.275116-38.4956055,23.275116c19.5124512,42.2580872,64.8271179,49.3620911,101.0287476,38.9188538C258.7180176,445.510376,265.6149902,408.43927,265.5482483,400.7625427z M456.5068054,512H55.4931717C24.8975658,512,0,487.1088867,0,456.5068054V55.4931717C0,24.8975658,24.897562,0,55.4931717,0h401.0136414C487.1088562,0,512,24.8975601,512,55.4931717v401.0136414C512,487.1088562,487.1088562,512,456.5068054,512z M55.4931717,25.7538795c-16.3987808,0-29.7392902,13.3405037-29.7392902,29.7392921v401.0136414c0,16.3987732,13.3405094,29.7393188,29.7392902,29.7393188h401.0136414c16.3987732,0,29.7393188-13.3405151,29.7393188-29.7393188V55.4931717c0-16.3987732-13.3405151-29.7392864-29.7393188-29.7392864L55.4931717,25.7538795z"/></svg>