<svg version="1.1" xmlns="http://www.w3.org/2000/svg" xmlns:xlink="http://www.w3.org/1999/xlink" x="0px" y="0px" width="512px" height="512px"><path d="M443.3587036,325.504425l-0.1513672-115.2625732c-1.7073364-64.9922028-75.3739929-86.325531-111.997467-48.4866791c-44.3765259-41.6721878-112.5431976-7.8388519-111.8442078,48.481369v92.3440552h41.885376v-92.3440552c-0.3061829-29.5005188,46.5247498-36.5517578,49.0939941,0v92.3440552h41.8853455v-92.3440552c0.505188-30.2616882,45.4854126-36.2073517,49.0940247,0v107.9027405c0,23.0171814-21.6924133,42.4161987-49.8525085,42.4161987l-135.0631409-0.5310059c-21.731369,0-40.2920227-21.1520691-40.2920227-48.3351746V108.4984741h-39.6088715v211.0097046c-0.1488495,43.0723572,35.2650452,78.1321411,72.5399475,82.0276489l150.3896027-0.0003357C404.4422302,401.8899841,439.1478577,366.4760742,443.3587036,325.504425z M238.2761841,485.2497864c-95.2088776,0-177.8290405-72.1748657-177.8290405-167.2993774l-0.085495-144.9522247H0V26.749651h334.1704712C429.4638672,26.749651,512,99.70858,512,194.9174652v290.3328857L238.2761841,485.2497864z M473.2124939,407.3685608l0.0000916-212.4522247c0-70.9767303-62.2451172-129.166687-139.0464478-129.166687H38.8632469v68.4617615h24.1498756c16.3959045,0,36.1251526,15.4078064,36.1251526,38.0186005l0.1714706,145.6360168c0,70.9767456,62.2451096,128.5157471,138.9619446,128.5157471h189.4101715C451.9642334,446.3817749,473.2124939,431.0019226,473.2124939,407.3685608z"/></svg>