<svg version="1.1" xmlns="http://www.w3.org/2000/svg" xmlns:xlink="http://www.w3.org/1999/xlink" x="0px" y="0px" width="448px" height="512px"><path d="M0,32.662178h189.5010529v18.3715172h-18.3817596v20.2352943L0,86.1484833V32.662178z M220.6988525,190.8886871l-60.7007599-60.8287659c-17.8642578-23.0532761,12.3251038-49.554924,32.6673126-28.1614685l46.1540833,46.3435211l63.2711182-63.281395c12.4985962-12.3654404,32.6672974-12.3654404,45.165863,0l94.5508423,94.4228439c3.6405029,3.6302643,5.8166199,8.6583862,5.8166199,14.0807343v283.3145752c-2.5072021,47.2476807-68.81427,46.6748047-70.756958,0V243.0590668l-88.1300354-88.2068329l-35.2376556,35.2428131C244,200.8894043,228.9764862,200.0690308,220.6988525,190.8886871z M100.2394562,98.6521683l-14.746376,84.3717575v326.8266296H210.253479V463.507019h-76.5684662l-0.5273895-280.4830933l-14.8692474-84.6380081h0.0000229C115.2268066,87.4617081,101.4465866,89.7129288,100.2394562,98.6521683z M312.6689148,43.7067146c0-33.5207138-36.5352783-54.5849075-65.6056519-37.8245468s-29.0703583,58.8887482,0.0000153,75.6491013S312.6689148,77.2274323,312.6689148,43.7067146z"/></svg>