<svg version="1.1" xmlns="http://www.w3.org/2000/svg" xmlns:xlink="http://www.w3.org/1999/xlink" x="0px" y="0px" width="240px" height="512px"><path d="M161.9922485,367.5692139h29.0779419c1.7674255,0,3.3562469-1.598175,3.3562469-3.3750305v-28.8617249c0-1.9836426-1.5981903-3.3938293-3.3562164-3.3938293h-29.0779419c-1.7674255,0-3.3562164,1.4101868-3.3562164,3.3938293v28.8617249C158.6360626,365.9710083,160.2342529,367.5692139,161.9922485,367.5692139z M81.1606293,367.5692139c1.9742432,0,3.3844376-1.598175,3.3844376-3.3750305v-28.8617249c0-1.9836426-1.4101944-3.3938293-3.3844376-3.3938293H52.2895088c-1.7768211,0-3.3656502,1.4101868-3.3656502,3.3938293v28.8617249c0,1.776825,1.5887947,3.3750305,3.3656502,3.3750305H81.1606293z M107.2207794,315.2702637h28.8899078c1.776825,0,3.3750458-1.4289856,3.3750458-3.3562012v-28.899353c0-1.7674255-1.5981903-3.3562012-3.3750458-3.3562012h-28.8899078c-1.7674255,0-3.3562164,1.598175-3.3562164,3.3562012v28.899353C103.864563,313.8413086,105.4533539,315.2702637,107.2207794,315.2702637z M81.1606293,471.7722168c1.9742432,0,3.3844376-1.4101868,3.3844376-3.3562622v-28.899292c0-1.7485962-1.4101944-3.3562622-3.3844376-3.3562622H52.2895088c-1.7768211,0-3.3656502,1.6169739-3.3656502,3.3562622v28.899292c0,1.9460754,1.5887947,3.3562622,3.3656502,3.3562622H81.1606293z M84.5450668,283.005249c0-1.7674255-1.4101944-3.3562317-3.3844376-3.3562317H52.2895088c-1.7768211,0-3.3656502,1.5982056-3.3656502,3.3562317v28.899353c0,1.9272461,1.5887947,3.3562012,3.3656502,3.3562012h28.8711205c1.9742432,0,3.3844376-1.4289856,3.3844376-3.3562012V283.005249z M191.0702209,419.6800842c1.7674255,0,3.3562164-1.598175,3.3562164-3.3750305V387.42453c0-1.7674255-1.5981903-3.3562012-3.3562164-3.3562012h-29.0779419c-1.7674255,0-3.3562164,1.598175-3.3562164,3.3562012v28.8805237c0,1.7768555,1.5981903,3.3750305,3.3562164,3.3750305H191.0702209z M158.6360321,283.005249v28.899353c0,1.9272461,1.5981903,3.3562012,3.3562164,3.3562012h29.0779419c1.7674255,0,3.3562469-1.4289856,3.3562469-3.3562012v-28.899353c0-1.7674255-1.5981903-3.3562317-3.3562164-3.3562317h-29.0779419C160.2342529,279.6490173,158.6360626,281.2472229,158.6360321,283.005249z M203.4609833,149.7242432c0-16.6495514-12.7480316-29.9522705-28.3540344-29.9522705H57.403759c-15.5778236,0-28.3634434,13.2933197-28.3634434,29.9522705v63.6274261c0,16.4897308,12.7762585,29.7830353,28.3634434,29.7830353h117.703186c15.5966034,0,28.3540344-13.293335,28.3540344-29.7830353V149.7242432z M52.2800789,384.0588989c-1.7768211,0-3.3656502,1.598175-3.3656502,3.3562012v28.8805542c0,1.7768555,1.5887909,3.375061,3.3656502,3.375061h28.8711128c1.9742508,0,3.3844452-1.5982056,3.3844452-3.375061v-28.8805237c0-1.7674255-1.4101944-3.3562012-3.3844452-3.3562012L52.2800789,384.0588989z M139.4904327,335.3230286c0-1.9836426-1.5934906-3.3938599-3.3703461-3.3938599h-28.8993378c-1.7674255,0-3.3562241,1.4102173-3.3562241,3.3938599v28.8617249c0,1.7767944,1.5981903,3.3750305,3.3562241,3.3750305h28.8899384c1.776825,0,3.3750458-1.598175,3.3750458-3.3750305L139.4904327,335.3230286z M103.8645248,387.4151306v28.8805237c0,1.7768555,1.5981903,3.375061,3.3562241,3.375061h28.8899384c1.776825,0,3.3750458-1.5982056,3.3750458-3.375061v-28.8805237c0-1.7674255-1.5981903-3.3562012-3.3750458-3.3562012h-28.8899078C105.4533539,384.0589294,103.864563,385.6477051,103.8645248,387.4151306z M103.8645248,468.4065552c0,1.9460754,1.5981903,3.3562622,3.3562241,3.3562622h28.8899384c1.776825,0,3.3750458-1.4101868,3.3750458-3.3562622v-28.899292c0-1.7485962-1.5981903-3.3562622-3.3750458-3.3562622h-28.8899078c-1.7674255,0-3.3562164,1.6170044-3.3562164,3.3562622L103.8645248,468.4065552z M194.4264374,439.5072632c0-1.7485962-1.5981903-3.3562622-3.3562164-3.3562622h-29.0779419c-1.7674255,0-3.3562164,1.6170044-3.3562164,3.3562622v28.899292c0,1.9460754,1.5981903,3.3562622,3.3562164,3.3562622h29.0779419c1.7674255,0,3.3562164-1.4101868,3.3562164-3.3562622V439.5072632z M68.2339935,8.6308689v78.3497009h138.4234467c18.4451599,0,33.1580811,14.5248795,33.1580811,32.4247818v360.0006104C239.8155212,497.4750671,225.1026001,512,206.6480408,512H32.9700508C14.8821211,512,0,497.4751587,0,479.4059753V119.4053497c0-17.8999023,14.8821211-32.4247818,32.9700508-32.4247818l0.3478355-78.3497009C33.1389542-2.0497782,67.4450684-3.6754627,68.2339935,8.6308689z"/></svg>