<svg xmlns="http://www.w3.org/2000/svg" width="487" height="512"><path d="M364.113 319.283c-3.753-2.033-10.325-3.173-12.805-6.562-5.86-8.024-9.086-18.186-13.605-27.53-38.278-72.975-31.464-142.687-172.069-234.812-20.116-10.232-38.131-15.377-67.066-16.166C51.925-3.976 13.376-11.327 2.056 17.895-6.79 41.06 15.292 63.779 23.184 75.517c19.33 25.552 18.834 32.98 21.928 45.297 11.46 47.47 32.248 73.11 37.614 81.791-4.656 6.998-4.905 17.864-7.523 26.73-14.513 61.579-1.841 135.941 37.575 141.698 26.636-1.291 16.95-40.12 25.009-55.504 18.057 48.47 34.964 57.281 80.67 98.517 32.59 28.33 194.704 88.95 267.785 97.954-4.385-14.698-28.813-40.516-45.57-54.771-20.22-17.203-34.763-19.258-42.786-35.987 13.764-2.558 20.694-5.624 33.465-7.825 7.314-1.261 14.99-.622 38.243-8.342v-3.2c-18.98-30.285-67.906-67.149-105.481-82.592zM126.262 63.675c14.316 13.197 6.997 36.415-8.643 45.297-5.558-12.774-9.978-26.23-19.684-36.017-10.87-7.123 1.141-18.9 12.485-16.806 6.98-1.467 8.645 1.865 15.842 7.526z"/></svg>