<svg xmlns="http://www.w3.org/2000/svg" width="486" height="512"><path d="M136.212 273.208c-4.875 8.124-12.057 14.692-15.828 24.285-7.877 16.989-4.83 53.767-9.798 53.83-5.8 2.782-14.942-13.921-18.84-23.877-9.87-25.18-11.702-65.727-3.02-94.71C100.75 194.5 101.5 196.5 84.96 178.497c-15.293-22.32-22.57-58.529-32.409-84.184C37.47 60.762 1.917 32.565 20.896 19.845c6.828-5.722 29.76 5.621 46.808 16.863 12.044 7.941 19.92 16.37 22.53 16.326C119 52.25 130.25 53.5 176.91 81.366c43.442 29.46 78.961 71.396 103.258 121.422 6.035 20.957 35.166 89.212 55.017 123.85 5.127 7.353 24.921 11.297 33.917 15.379 21.476 7.214 25.649 10.733 55.776 34 5.349 4.046 21.792 12.917 22.611 20.23-26.506-.771-46.75 1.872-64.06 9.712-4.919 2.228-12.762 2.286-13.565 8.907 4.262 4.634.387 11.384 22.608 33.188C415.078 468.332 426 470 453.522 486.1c26.372 18.274 26.716 23.95 32.406 25.9v-.808c-5.601-13.217-5.275-11.334-15.073-21.857-35.522-47.668-61.597-44.4-72.353-67.184 28.866-11.11 43.831-7.151 70.849-17v-3.238c-18.331-29.078-70.684-72.246-117.647-87.61-30.021-57.266-42.587-97.993-57.972-130.943C261.4 124.725 176 28 98.525 34.415c-5.06-2.272-10.325-8.922-15.073-12.142C64.547 9.447 16.058-18.452 2.056 18.227c-8.841 23.152 13.213 45.745 21.1 57.472 5.537 8.23 12.625 17.457 16.58 26.712 3.873 10.031 2.764 17.464 22.612 66.377 14.673 31.729 17.411 22.419 20.348 33.998-4.654 6.995-4.919 17.852-7.535 26.713C54 300 87.2 383.309 119.628 369.539c16.618-7.231 11.031-35.21 17.846-53.864 9.693 18.158 12.693 41.658 56.77 77.34 7.831 6.351 16.223 17.913 26.228 21.562-10.358-7.18-19.258-18.004-27.735-29.658-13.733-20.025-25.871-41.944-36.929-64.76-18.118-36.122-14.26-42.971-19.596-46.951zm-25.075-165.24C106 95.832 104.03 98.621 98.59 92.638c-5.463-.108-9.438.769-13.523 1.726-.224.144-.168.438.017.802 2.605 5.75 7.934 9.448 11.157 14.401l7.45 16.798c5.531-3.964 7.502-10.462 7.447-18.399z"/></svg>