<svg xmlns="http://www.w3.org/2000/svg" width="471" height="512"><path d="m.184 36.439 40.59 364.054c2.119 14.19 10.754 24.481 21.93 30.042l158.506 77.956c10.164 4.3 20.711 5.042 31.883 0l158.128-77.956c12.97-6.487 20.69-19.951 20.088-34.1l39.444-361.601C470.753 16.55 454.31 0 434.258 0L36.719.002C16.667.002-2.063 17 .184 36.44zm324.42 268.026v-23.591c.267-29.19-10.107-33.814-35.387-32.986v-27.465c21.565.432 35.291-.841 35.386-32.803v-25.431c-.002-30.024 13.524-45.844 47.365-45.342h24.7v27.832c-14.44-.667-24.46.894-28.758 5.343-14.976 17.31 11.357 76.642-27.46 83.305 38.7 8.985 13.168 64.635 27.46 83.487 3.52 4.806 14.285 5.923 28.757 5.532v27.643h-24.7c-29.63 0-47.388-10.79-47.364-45.524zM123.155 202.547c17.122-21.92 51.09-20.644 60.451 3.131V189.46h23.78v85.516c31.076-3.027 41.235-56.634 16.773-89.385-37.575-51.335-113.23-34.69-135.647 14.744-38.91 91.995 54.423 168.661 124.771 107.822l12.161 19.898c-61.176 49.94-121.842 12.608-137.858-6.817-44.876-45.972-42.9-145.74 33.363-181.72 78.319-30.853 137.853 27.095 137.853 88.465-1.546 51.962-33.118 71.514-75.196 70.401V279.4c-9.538 24.119-41.818 23.561-58.056 5.983-20.04-21.695-18.26-62.526-2.395-82.835zm58.057 39.81c0-43.59-44.233-43.59-44.233 0-1.544 43.515 45.257 44.076 44.233 0z"/></svg>