<svg version="1.1" xmlns="http://www.w3.org/2000/svg" xmlns:xlink="http://www.w3.org/1999/xlink" x="0px" y="0px" width="512px" height="512px"><path d="M0,33.4387093v445.1225586h512V33.4387093H0z M171.3612823,110.2387085h169.2774811c80.4659119,0,145.761261,65.4540863,145.761261,145.9200134c0,80.4710388-65.2953491,145.6025696-145.761261,145.6025696H171.3613129c-80.4454422,0-145.7612915-65.1315308-145.7612915-145.6025696C25.600029,175.6928101,90.9158707,110.2387314,171.3612823,110.2387085z M175.042572,161.7612762c-52.095993,0-94.2438354,42.3065491-94.2438354,94.3974457c0,52.0959778,42.1478424,94.2438049,94.2438354,94.2438049h161.9148865c52.1216125,0,94.2438354-42.1478271,94.2438354-94.2438049c0-52.0908966-42.1222229-94.3974457-94.2438354-94.3974457H175.042572z"/></svg>