<svg xmlns="http://www.w3.org/2000/svg" width="512" height="512"><path d="M508.684 369.767c-6.469-95.507-15.572-235.898-17.64-271.558-2.043-35.328-3.275-41.706-10.431-52.275-5.098-7.52-16.137-15.705-24.216-18.136-3.306-.987-23.836-4.426-45.588-7.578C307.655 5.273 278.869 1.145 266.125 1.716c-4.256.187-6.751.992-9.556 1.989-17.657 6.25-25.346 19.853-25.341 44.826 0 7.066 2.053 77.728 4.597 156.95 2.533 79.215 5.45 170.984 6.452 203.88 1.307 43.312 2.315 62.088 3.594 68.173 3.168 14.974 12.985 26.076 26.946 30.545 3.653 1.184 10.175 2.218 14.531 2.256 8.618.069 186.524-29.959 196.464-33.174 8.32-2.672 18.11-12.377 22.605-22.21 6.997-15.247 7.023-14.937 2.267-85.184zm-26.829-5.21c-3.151 10.836-13.795 20.243-26.823 23.698-2.549.683-35.248 4.346-72.662 8.223-37.403 3.85-70.705 6.965-73.883 6.938-10.463-.085-20.488-5.098-25.949-13.038-6.388-9.263-7.321-14.084-8.441-45.562-.56-15.982-2.618-72.982-4.586-126.778-3.322-90.105-3.402-98.253-1.75-103.932 2.368-8.036 7.808-14.59 15.145-18.003 3.099-1.456 6.111-2.266 12.81-2.48 11.123-.362 32.501 1.078 82.079 4.848 60.237 4.575 67.505 5.338 71.91 7.583 7.37 3.749 13.593 10.132 17 17.133 3.013 6.138 3.168 7.38 5.834 53.524 1.515 26.039 4.682 77.632 6.954 114.608 3.813 62.141 3.983 67.634 2.362 73.238zm-271.12 8.815c-24.034 2.421-30.065 2.08-37.382-1.722-6.655-3.488-12.025-11.386-14.025-20.627-.607-2.762-2.111-50.596-3.231-106.273-2.293-114.193-2.57-107.597 6.58-115.862 7.167-6.474 11.06-6.98 36.513-5.338 12.153.779 23.32 1.642 24.839 1.99l2.864.74-.736-25.458c-.395-13.987-1.014-29.622-1.365-34.758l-.747-9.438-32.161-3.232c-19.421-1.989-27.154-2.778-32.044-2.618-2.943.101-4.879.55-7.577 1.248-9.818 2.533-14.756 5.695-18.872 12.169-7.05 11.092-6.698-5.445-3.237 184.268 3.135 171.475 3.418 181.954 6.708 189.377 4.746 10.665 12.937 17.16 24.84 19.73 4.03.886 8.366 1.568 9.689 1.622 3.28.138 64.69-7.813 65.33-8.431.496-.512-1.963-78.923-2.485-79.483-.176-.16-10.746.822-23.501 2.096zm141.96-270.07-27.821-2.234c-12.334-.955-20.808-1.45-26.818-1.37-10.014.133-13.374 1.919-17.896 6.206-4.8 4.581-7.044 10.479-7.087 18.51 0 5.636-1.424 5.093 24.471 7.31 16.409 1.403 23.005 4.086 29.196 11.551 6.437 7.786 6.5 9.194 10.682 105.18 4.239 97.31 4.399 94.958-1.99 103.31-1.711 2.234-6.255 5.508-10.43 7.577-6.453 3.162-9.716 3.877-25.33 5.455-9.839.997-18.024 2.032-18.275 2.24-.23.208.208 3.077.997 6.458 2.96 12.803 10.244 20.813 21.005 22.978 2.805.56 6.944.88 9.173.618 2.24-.26 14.835-1.669 27.958-2.991 13.097-1.323 24.173-2.661 24.59-3.093.404-.443-2.235-65.383-5.84-144.29l-6.586-143.415zM124.921 335.255c-.106-.155-7.684.282-16.76.98-20.338 1.574-25.607.902-31.164-3.972-7.759-6.8-7.503-4.42-9.326-85.183l-1.728-73.377 2.48-4.847c1.866-3.648 3.839-5.445 7.828-7.205 4.932-2.186 6.724-2.271 25.708-1.487l20.37.869-.746-23.576c-.432-12.984-1.37-23.959-1.989-24.343-1.664-1.018-38.81-4.085-48.319-3.967-13.22.154-22.36 6.804-24.466 17.752-.448 2.314-.17 39.744.619 83.205 2.357 129.582 3.349 163.956 4.97 169.374 1.957 6.548 8.793 13.123 15.769 15.267 7.412 2.282 11.193 2.181 35.136-.496 11.193-1.258 21.059-2.34 21.858-2.357 1.136-.016 1.2-6.084.619-28.172-.39-15.523-.747-28.31-.859-28.465zm76.683-16.644-2.32 3.728c-5.273 5.626-11.688 8.212-23.756 9.065l-10.265.747-.23 6.346c-.837 13.934 3.888 23.815 13.236 28.055 2.58 1.167 7.092 2.01 9.966 1.989 7.85-.048 33.441-2.741 34.295-3.59 1.05-1.05.837-26.177-1.099-113.61-2.538-113.276-2.853-117.046-7.578-119.584-2.666-1.424-21.613-2.293-33.03-1.99-3.802.108-6.83.347-8.068.747-8.874 2.933-13.14 12.367-11.796 25.709l.747 7.695 12.91.618c15.47.688 19.96 2.95 24.925 10.436l2.063 4.832v138.813-.006zM.355 184.341c-.84 39.363-.216 77.711 2.15 114.854.046 20.34 3.772 23.734 20.226 25.864 6.483.262 20.034.266 20.034.266l-.613-31.238-10.798-.603c-17.086-.933-15.865 2.256-16.275-44.826-.38-43.978-.512-43.423 7.94-45.695 5.228-1.099 8.933-.672 14.563.25v-25.692c-20.437-2.518-35.907-.922-37.227 6.82zm75.409 133.46c.714 3.551 1.013 3.615 7.428 3.6 7.487 0 13.374-2.539 16.808-7.205 2.25-3.06 2.293-4.063.902-62.695-1.232-51.45-1.664-60.126-3.35-63.57-3.978-7.708-6.644-8.896-22.706-9.684v20.46c8.818.108 12.305 5.768 14.633 8.341 2.005 3.6 2.778 74.832.88 79.44-2.798 5.414-8.519 9.99-15.529 9.028-.221 8.584-.017 16.243.934 22.285z"/></svg>