<svg version="1.1" xmlns="http://www.w3.org/2000/svg" xmlns:xlink="http://www.w3.org/1999/xlink" x="0px" y="0px" width="380px" height="512px"><path d="M110.3500977,0.3229776c0,0-111.7854843,1.4698508-110.3361282,102.7307892c1.4544865,101.2660751,21.7814465,190.7989197,55.1731796,240.697052c33.3866081,49.9032288,119.0323181,180.5202332,216.3087921,167.3171387c0,0,47.9109802-10.2786865,84.1963501-33.7655945l-117.588089-92.4623413c0,0-34.8411102,22.0170593-56.6174316-7.3389893c-21.7814484-29.3458252-90.0091553-165.8370819-90.0091553-165.8370819s-18.8724747-44.0340576,23.2308044-63.1114044L110.3500977,0.3229776z M127.7680817,144.1481323c-2.8936157-5.8640442-4.3480911-143.8251495-4.3480911-143.8251495c15.4529648-2.7417765,39.6619034,12.6080408,40.6436691,22.0067902l1.4544983,101.2763138C152.3759613,142.8967438,130.6499786,150.1580353,127.7680817,144.1481323z M299.0748596,362.822998c11.615387,7.3544006,72.5911255,55.7877808,72.5911255,55.7877808c13.4507446,14.0565796,7.5651245,17.492981-2.9038391,51.3679504l-120.881134-95.9602661C282.8291321,358.4570312,276.327301,350.7048645,299.0748596,362.822998z"/></svg>