<svg version="1.1" xmlns="http://www.w3.org/2000/svg" xmlns:xlink="http://www.w3.org/1999/xlink" x="0px" y="0px" width="512px" height="512px"><path d="M479.2884827,92.2716064c54.638092,38.6431427,36.9982605,128.3169861-24.5369568,115.8046112c-69.2944946-14.0891724-83.6559143-48.72789-46.8504944-82.3343201c0,0-63.9230957-28.4279251-151.9010468-28.4279251c-87.9836273,0-151.901062,28.4279251-151.901062,28.4279251c36.8054276,33.6064301,22.443985,68.2451477-46.8504829,82.3343201c-61.5352097,12.5123749-79.1750488-77.1557922-24.5369453-115.8046112C102.9125137,40.5405769,344,15.2009211,479.2884827,92.2716064z M183.4044342,118.8731308c-17.3789215,0-29.9650269,5.9782639-29.9650269,5.9782639c-3.2557068,47.570816-11.7012787,81.2396545-44.9900742,126.9443817c-37.0096054,50.8151855-60.2306633,60.1739502-65.3240967,106.0431519C31.9004116,458.9191284,171.8222656,468.4877319,255.9999847,468.4877319c84.1720123,0,224.0995331-9.5686035,212.8633881-110.6488037c-5.0934448-45.8692017-28.3144531-55.2279663-65.3297424-106.0431519c-33.2831116-45.7047272-41.7286987-79.3735657-44.9900818-126.9443817c0,0-12.5860901-5.9782639-29.9650269-5.9782639C333.0974731,192.7244873,177.537384,193.4396973,183.4044342,118.8731308z M214.5125732,367.6376953c-55.0674133-31.7481384-55.0674286-111.549408-0.0000153-143.2975464s124.2754364,8.1524963,124.2754364,71.6487732S269.5799866,399.3858337,214.5125732,367.6376953z"/></svg>