<svg xmlns="http://www.w3.org/2000/svg" width="472" height="512"><path d="m.38 40.702 40.112 359.825c2.096 13.538 9.263 23.638 21.825 30.078l158.677 77.87c10.481 4.537 20.499 4.86 31.854 0l158.087-77.864c12.971-6.489 20.646-20.056 20.05-34.207l38.938-356.882C472.892 22.562 459.2.427 433.94 0H36.363C20.694.083-3.31 11.769.38 40.702zm61.462 258.502 26.135-132.31h60.44c26.135 1.634 39.203 14.702 39.203 37.57 0 39.203-31.036 62.073-58.805 60.439H99.412l-6.534 34.303-31.036-.002zm52.271-107.81h21.235c11.434 0 19.602 4.901 19.602 14.702-1.634 27.77-14.702 32.67-29.403 34.303h-19.601l8.167-49.004zm71.705 73.508 26.135-132.31h31.036l-6.534 34.304h29.402c26.136 1.633 35.937 14.701 32.67 31.036l-11.434 66.974h-32.67l11.434-60.438c1.634-8.168 1.634-13.068-9.8-13.068h-24.503l-14.701 73.505-31.035-.003zm103.909 32.45 25.972-131.482h60.061c25.973 1.623 38.958 14.61 38.958 37.335 0 38.958-30.841 61.685-58.437 60.061h-29.219l-6.493 34.089-30.842-.002zm43.828-58.437 8.116-48.697h21.103c11.362 0 19.479 4.87 19.479 14.61-1.623 27.595-14.61 32.465-29.219 34.088h-19.479z"/></svg>