<svg xmlns="http://www.w3.org/2000/svg" width="512" height="512"><path d="M242.954 115.154c152.398-5.973 293.397 67.434 265.495 165.219C467.55 421.47 141.044 428.8 40.585 334.287c-102.453-92.565-2.157-212.003 202.369-219.133zM462.383 219.21C343.612 94.964 21.769 152.935 34.995 264.063c65.402 173.4 527.843 96.105 427.388-44.853zm-309.546 49.237 6.38-38.28h16.588c8.932 0 15.312 3.828 15.312 11.484-1.276 21.692-11.484 25.52-22.968 26.796h-15.312zm-10.208 45.935 5.104-26.795h22.968c21.691 1.276 45.935-16.588 45.935-47.211 0-17.864-10.208-28.072-30.623-29.348H138.8l-20.415 103.354h24.243zm72.35-26.799h24.243l11.484-57.42h19.14c8.932 0 8.932 3.828 7.656 10.208l-8.932 47.212h25.52l8.932-52.314c2.551-12.76-5.104-22.967-25.52-24.243h-22.968l5.104-26.796h-24.243l-20.416 103.353zm80.385 26.799 20.416-103.354h47.211c20.416 1.276 30.623 11.484 30.623 29.348 0 30.623-24.243 48.487-45.935 47.21h-22.967l-5.104 26.796h-24.244zm49.763-45.935c11.484-1.276 21.692-5.104 22.968-26.796 0-7.656-6.38-11.484-15.312-11.484h-16.588l-6.38 38.28h15.312z"/></svg>