<svg xmlns="http://www.w3.org/2000/svg" width="448" height="512"><path d="M176.18 194.456c-4.287 18.815-8.915 35.96-13.884 51.438l-15.836 45.773-20.977.318 4.987-45.61c2.074-15.432 5.255-32.556 9.543-51.371l14.393-63.165 36.167-.548-14.393 63.165zm-57.74 174.308c-32.452.88-21.741-45.067 10.259-45.02 31.388-.89 23.213 43.466-10.259 45.02zM39.773 508.769 433.16 278.991c19.372-12.202 17.661-37.615 2.512-49.649L140.107 5.696c-16.552-12.879-38.392-2.542-42.633 17.232L.536 476.495c-4.34 26.046 18.495 42.906 39.237 32.274z"/></svg>