<svg version="1.1" xmlns="http://www.w3.org/2000/svg" xmlns:xlink="http://www.w3.org/1999/xlink" x="0px" y="0px" width="448px" height="512px"><path d="M176.1797333,194.4559326c-4.2872314,18.814621-8.9149475,35.9602203-13.8833466,51.4377899l-15.8363495,45.7731171l-20.9767914,0.3178101l4.9862823-45.6087494c2.0748138-15.4327545,5.2559509-32.5566864,9.5432892-51.3720245l14.3930054-63.164917l36.1669159-0.5479279L176.1797333,194.4559326z M118.4404373,368.763916c-32.452446,0.8808899-21.7414474-45.0667114,10.2585373-45.0205078C160.0868835,322.8546753,151.9116516,367.2096252,118.4404373,368.763916z M39.7726326,508.7691345L433.1608276,278.991333c19.3726196-12.2021484,17.6612549-37.6154327,2.5120544-49.6490936L140.1073456,5.6963949C123.5548019-7.1826258,101.7152939,3.15363,97.4741058,22.9280033L0.5358546,476.4954224C-3.8043983,502.5414734,19.0306721,519.401001,39.7726326,508.7691345z"/></svg>