<svg xmlns="http://www.w3.org/2000/svg" width="512" height="512"><path d="M195.2 193.432c-36.847-21.242-36.847-74.638 0-95.88s83.155 5.455 83.155 47.94-46.308 69.183-83.155 47.94zm195.784 62.744c0-42.461-46.287-69.144-83.118-47.913s-36.83 74.595 0 95.826c36.83 21.23 83.118-5.452 83.118-47.913zM278.167 367.162c0-42.485-46.31-69.183-83.156-47.94s-36.847 74.638 0 95.88c36.847 21.243 83.156-5.455 83.156-47.94zM459.782 256c0-156.28-170.355-254.486-305.903-176.346s-135.548 274.552 0 352.692S459.782 412.28 459.782 256zm-332.07 221.547c-170.282-98.17-170.282-344.925 0-443.094S512 59.662 512 256 297.993 575.716 127.711 477.547z"/></svg>