<svg xmlns="http://www.w3.org/2000/svg" width="512" height="512"><path d="M201.147 32.406C69.963-8.852-5.063 28.696.266 139.184c.571 10.62 4.381 32.648 10.97 59.992 6.588 27.342 15.855 59.444 27.252 88.272 11.396 28.824 24.553 54.242 40.964 69.074 8.206 7.416 17.937 12.42 28.624 11.998 10.687-.422 20.853-6.235 29.995-16.454 21.81-24.397 39.692-41.993 43.192-45.42 9.426 4.715 18.626 7.683 31.674 7.814-11.288 13.63-13.085 18.076-31.773 20.628-20.586 2.812-40.121 9.865-29.676 26.925 7.502 12.254 63.52 24.925 95.935-3.776.595 85.552-2.36 155.506 80.558 142.946 67.416-10.213 63.415-54.894 75.758-148.775 62.319 11.92 125.328-27.235 104.039-45.763-10.89-10.276-48.021 10.877-76.098-2.401 44.41-56.016 98.78-197.128 67.529-242.186-44.463-51.479-116.602-64.497-191.12-42.336-47.508-10.07-81.197-3.482-106.942 12.684zm133.336-4.29c83.519-16.393 163.733 21.112 159.228 74.562-5.992 71.104-34.171 131.537-71.131 187.853-.901-1.031-1.808-2.012-2.743-3.086 22.242-38.217 8.836-63.383 8.228-95.81-.297-15.78 7.327-49.713 4.755-56.586-13.62-36.393-31.175-76.433-98.337-106.933zm-65.986 1.547c79.886 2.498 124.426 49.109 147.06 101.81-57.117-4.964-73.92 21.285-63.244 61.017 7.577 24.702 19.269 47.84 32.909 68.73 7.85 11.48 5.69 15.8 27.252 41.307-19.275 5.09-23.366 18.202-23.143 34.791-.994 12.317-9.477 78.823-13.712 101.64-6.383 36.5-26.38 43.264-50.905 47.99-63.784 9.207-61.323-33.038-61.195-155.965-1.324-17.45-17.508-30.645-34.274-27.423 8.77-36.993 40.407-62.723 20.91-139.001-10.558-38.698-52.152-37.369-91.183-18.169 7.187-72.05 41.062-117.252 109.525-116.727zm-127.52 200.194c-4.13 27.461 7.45 52.933 27.08 68.56-10.283 11.166-27.242 26.316-34.662 36.123-29.297 38.727-48.18 18.578-80.17-52.238C19.614 176.54-5.684 105.12 40.027 54.346c35.636-32.14 88.698-27.263 147.055-11.142-14.635 13.317-24.447 29.731-31.023 45.934-22.925 62.123-7.63 92.714-15.083 140.72zm268.925 44.22c-16.098-27.726-37.772-65.479-42.336-85.014-8.005-31.464.847-48.127 50.05-42.678-.294 14.366-4.506 26.173-5.143 44.735-.11 27.118 10.809 61.236-2.571 82.956zm-196.079 25.707c-34.032-.05-62.998-30.77-57.42-67.873 3.398-21.491 3.254-44.164 1.543-67.36 25.052-16.854 71.316-28.358 76.959 3.089 18.115 76.837-7.893 85.09-21.082 132.144zm189.221-143.456c-.948-7.3-27.343-3.871-26.395 3.428 2.243 7.738 18.248 12.907 26.105-1.462.274-.503.344-1.438.29-1.966zm-177.227 11.829c10.322-11.27-25.376-17.21-27.252-7.027-1.125 5.885 14.38 20.077 27.252 7.027zm265.665 151.17c-28.022 23.93-73.286 23.68-86.382 17.651.134-10.81-.283-18.812 16.454-21.593 12.728 9 35.154 10.742 69.928 3.942zM166 354.292c5.744-3.657 25.125-5.408 37.13-10.66 9.626-4.211 15.379-13.004 24.507-22.632 8.628-10.628 25.2 4.603 18.577 16.495-23.204 31.02-64.717 25.143-80.214 16.797z"/></svg>