<svg version="1.1" xmlns="http://www.w3.org/2000/svg" xmlns:xlink="http://www.w3.org/1999/xlink" x="0px" y="0px" width="512px" height="512px"><path d="M201.1470947,32.4058418C69.9627762-8.8521557-5.0629663,28.6968517,0.2659378,139.1842957c0.5711254,10.6201019,4.3810415,32.6478882,10.96947,59.9920349c6.5882635,27.3414001,15.8558168,59.443573,27.2525482,88.2713013c11.396183,28.8244934,24.5535088,54.2424011,40.9643898,69.0747681c8.205162,7.4153442,17.9367294,12.4196167,28.6237335,11.9978638c10.6870041-0.421875,20.8529663-6.2355957,29.9949188-16.4542236c21.809494-24.396637,39.691925-41.9933167,43.1922913-45.420166c9.4255066,4.7151184,18.6257629,7.683197,31.6733856,7.8143311c-11.2876282,13.6299133-13.0849762,18.0757446-31.7726288,20.6279907c-20.5860291,2.811554-40.1211548,9.8644714-29.6759033,26.9250488c7.5023346,12.2538147,63.5197601,24.924408,95.935318-3.7765808c0.5947266,85.5520325-2.3613739,155.5067444,80.5575867,142.9458618c67.4163208-10.2124939,63.4151001-54.8930359,75.7575989-148.7745056c62.3192139,11.920105,125.328125-27.2354126,104.0391541-45.7635193c-10.890564-10.2759705-48.020813,10.8770447-76.0973511-2.4009705c44.4086914-56.015686,98.7801819-197.1273041,67.5280762-242.1850433C454.7461548,10.5792103,382.6073303-2.4386888,308.0898132,19.7223911C260.5814819,9.6516094,226.8921967,16.2402077,201.1470947,32.4058418z M334.4826355,28.1162357c83.5192261-16.3935661,163.7330017,21.1120472,159.2287292,74.5622253c-5.9918823,71.1030807-34.1713562,131.5361023-71.1315308,187.8521423c-0.9007874-1.0306091-1.8081055-2.0116577-2.7423706-3.085144c22.2411194-38.2173157,8.8356934-63.3833618,8.2271118-95.8111877c-0.2961426-15.7786865,7.3277893-49.7127533,4.7559204-56.5849152C419.2002869,98.6557922,401.6447144,58.615715,334.4826355,28.1162357z M268.4971619,29.6629257c79.8855896,2.4976807,124.4257202,49.1086197,147.0594482,101.8093033c-57.1169739-4.9628601-73.9204102,21.2859802-63.2434387,61.0176697c7.5767822,24.7023926,19.2687988,47.8405762,32.9084167,68.730835c7.8507385,11.4798279,5.6906738,15.7998962,27.252594,41.3066711c-19.2753296,5.0899353-23.3664856,18.2012939-23.1434326,34.7910156c-0.9933777,12.3165588-9.4765015,78.8225098-13.7118225,101.6390381c-6.3826294,36.5010071-26.3794556,43.2646484-50.9049072,47.9914246c-63.7838135,9.2060852-61.322937-33.0392151-61.1954041-155.9655762c-1.3236694-17.4508972-17.5072632-30.6451721-34.2740784-27.4237061c8.7705383-36.9927063,40.4077148-62.7224579,20.910553-139.0007172c-10.5579529-38.6982803-52.1524658-37.3687057-91.1831665-18.168457C166.1593781,74.3404007,200.0338898,29.1376553,268.4971619,29.6629257z M140.9762421,229.8573761c-4.1300659,27.4609833,7.451004,52.9326324,27.0808716,68.5591888c-10.2835083,11.1664429-27.2424622,26.3164978-34.6618652,36.1239014c-29.2968521,38.7262878-48.1795654,18.577301-80.1703796-52.2380676C19.6137733,176.5388641-5.683979,105.118782,40.026947,54.3458672C75.6625443,22.2066631,128.7251129,27.0827675,187.0817413,43.20364c-14.6343536,13.3169327-24.447113,29.7316475-31.0227661,45.9346581C133.1344604,151.2614594,148.4297485,181.852005,140.9762421,229.8573761z M409.901886,274.0764465c-16.0981445-27.7255554-37.7720947-65.4781647-42.3356018-85.0134125c-8.0053406-31.4635925,0.8469849-48.12677,50.0487671-42.6778259c-0.2927856,14.3661804-4.505249,26.1726227-5.1419373,44.7346039C412.3639221,218.2376862,423.2816772,252.3556519,409.901886,274.0764465z M213.8231354,299.7844849c-34.0316925-0.0510254-62.9976654-30.7710266-57.419693-67.8736115c3.3979645-21.4913177,3.2532654-44.164093,1.5425873-67.3591309c25.0519257-16.8551788,71.3163147-28.3587646,76.9587708,3.0879059C253.0197449,244.4766693,227.0116425,252.729248,213.8231354,299.7844849z M403.044281,156.3276672c-0.9479065-7.2987366-27.3432007-3.8707733-26.3953247,3.4279633c2.2432861,7.7387543,18.2482605,12.9070282,26.1048889-1.4620209C403.0284424,157.7913666,403.0976868,156.8556519,403.044281,156.3276672z M225.8171387,168.1568604c10.3223419-11.2699432-25.3762665-17.2092896-27.2517242-7.027298C197.4399414,167.0150757,212.9447632,181.2069855,225.8171387,168.1568604z M491.4817505,319.3271179c-28.0215149,23.9302979-73.285614,23.6802063-86.3817749,17.6512451c0.1337891-10.8096008-0.2829895-18.8121033,16.4541626-21.5933838C434.282135,324.384613,456.7081299,326.1270752,491.4817505,319.3271179z M165.999527,354.2920227c5.7449188-3.6573181,25.125946-5.4078674,37.1296844-10.6594849c9.6270447-4.2118225,15.3797913-13.0040588,24.5076294-22.6320496c8.6276855-10.6282959,25.2010651,4.6027222,18.5769348,16.4945374C223.0104065,368.5152893,181.4974823,362.6384583,165.999527,354.2920227z"/></svg>