<svg version="1.1" xmlns="http://www.w3.org/2000/svg" xmlns:xlink="http://www.w3.org/1999/xlink" x="0px" y="0px" width="512px" height="512px"><path d="M203.9376678,45.5115433C80.2401733,6.5870929,9.4962273,42.0123329,14.5210056,146.2506256c0.5385313,10.0194244,4.131012,30.8013306,10.3434315,56.5988922c6.212265,25.7949829,14.9509087,56.0814514,25.6972198,83.278717c10.7457924,27.1941528,23.1522179,51.1744385,38.6265068,65.1678772c7.7368851,6.9959412,16.913063,11.7171631,26.9901505,11.3192749c10.0770874-0.3980103,19.6628571-5.8829346,28.2830811-15.5235596c20.5648041-23.0167847,37.4266663-39.6181946,40.7272644-42.8512268c8.8875885,4.4484253,17.5627594,7.2486572,29.8657532,7.3723755c-10.6434326,12.8590088-12.3382111,17.0533447-29.9593353,19.4612732c-19.4111633,2.6525269-37.8314056,9.3065186-27.9822693,25.4021606c7.074173,11.56073,59.8946228,23.514679,90.4601898-3.5629883c0.5607758,80.7132263-2.2266083,146.7113342,75.960083,134.8608704c63.5688171-9.6348572,59.795929-51.7882996,71.434021-140.3598328c58.7626038,11.2459106,118.1755371-25.6950073,98.101532-43.1751709c-10.2690125-9.6947327-45.2802124,10.2618408-71.7543945-2.2651367c41.8742676-52.8474579,93.1427307-185.977829,63.6741943-228.4871216c-41.9248657-48.5676117-109.9466553-60.8492203-180.2113647-39.9415703C259.980072,24.0442886,228.2134705,30.2602348,203.9376678,45.5115433z M329.6636047,41.4645576c78.7527161-15.4663486,154.3886108,19.9179535,150.1413879,70.3450012c-5.6499329,67.0814972-32.2211609,124.0964508-67.071991,177.2272797c-0.8493652-0.9723511-1.704895-1.8978882-2.5858459-2.910675c20.9717712-36.0557404,8.3314209-59.7984009,7.7575684-90.3921204c-0.2792358-14.8862305,6.9096069-46.901001,4.4844971-53.3844757C409.5463257,108.0144119,392.9927063,70.2389908,329.6636047,41.4645576z M267.4440002,42.9237671c75.3264465,2.356411,117.3246155,46.3310471,138.666626,96.0509796c-53.8572693-4.6821594-69.7016907,20.0820618-59.6340637,57.5665283c7.1443481,23.3052216,18.1690979,45.1347198,31.0302734,64.8434296c7.40271,10.8305054,5.3659058,14.90625,25.6972656,38.9703674c-18.1752625,4.8020325-22.032959,17.1718445-21.8226013,32.8232422c-0.9367065,11.6199341-8.9356689,74.3643188-12.9292908,95.8903503c-6.0183716,34.4365234-24.8739319,40.8175964-47.9996948,45.2770386c-60.1436157,8.6853943-57.8231812-31.1705322-57.7029419-147.1441956c-1.2481079-16.4638672-16.5080872-28.9118652-32.3180084-25.8726196c8.269989-34.9003906,38.1016083-59.174881,19.7171631-131.138855c-9.9553986-36.5095215-49.1760712-35.2551422-85.979248-17.1408539C170.9467316,85.0742874,202.8880005,42.4282074,267.4440002,42.9237671z M147.2008209,231.7952576c-3.8943481,25.9077759,7.0257721,49.9387817,25.5353394,64.681488c-9.6966095,10.5348816-25.6876984,24.828064-32.68367,34.0807495c-27.6248474,36.5359192-45.4299088,17.5265503-75.5949783-49.2834778C32.7646408,181.4924316,8.9106569,114.1118546,52.0128136,66.2106476c33.601841-30.3214188,83.6360626-25.7211075,138.6622162-10.5120277c-13.7991486,12.5637321-23.0518799,28.0500298-29.2522583,43.3366051C139.8065948,157.6446991,154.2289581,186.5050659,147.2008209,231.7952576z M400.778595,273.5132751c-15.1793823-26.1573792-35.6163635-61.774704-39.9194641-80.2050323c-7.5484314-29.6840363,0.7986755-45.4047394,47.1924438-40.2639923c-0.276062,13.5536346-4.2481079,24.6923065-4.8484802,42.2044373C403.1001587,220.8327789,413.3948059,253.0210266,400.778595,273.5132751z M215.890274,297.7672729c-32.0894623-0.0481262-59.4023285-29.0306091-54.1426849-64.034668c3.2040253-20.2757721,3.0675812-41.6661682,1.4545441-63.5493011c23.6221771-15.9018707,67.2462158-26.7548065,72.5666656,2.9132538C252.849884,245.5876923,228.3261108,253.3734894,215.890274,297.7672729z M394.3123779,162.4243622c-0.8937988-6.88591-25.7827148-3.6518402-24.888916,3.2340851c2.1152649,7.3010559,17.2068176,12.1770172,24.6150513-1.3793335C394.2974548,163.8052826,394.3627319,162.9225006,394.3123779,162.4243622z M227.1997681,173.5845032c9.7332458-10.6325073-23.928009-16.2359314-25.6964417-6.629837C200.4420929,172.5072937,215.0620422,185.8965149,227.1997681,173.5845032z M477.7026367,316.2045898c-26.4223022,22.5768127-69.1031189,22.3408813-81.4519043,16.6528931c0.1261597-10.1982117-0.2668152-17.7480774,15.5151367-20.3720703C423.7674561,320.9760437,444.9135742,322.6199646,477.7026367,316.2045898z M170.7960052,349.1918945c5.4170532-3.45047,23.6919861-5.1019897,35.0106659-10.0565796c9.0776062-3.9736328,14.5020447-12.2685547,23.1089478-21.3519897c8.1352997-10.0271606,23.7628174,4.3423767,17.5167236,15.561615C224.5532227,362.6106873,185.4094849,357.0662537,170.7960052,349.1918945z M10.8441372,206.2437592c-44.3859711-165.0783997,53.026123-216.4970093,191.22966-175.019577c27.5279083-15.1468563,62.0722351-19.2192268,103.8783875-11.8297272c73.8720398-20.3083344,150.0539551-6.1336775,193.5326233,50.0704269c23.8218384,39.2612381,0.3335266,137.7555847-53.84198,223.3164368c37.0108948-1.6631775,38.5432129-11.2401123,56.7202759,0.9723816c35.5631714,33.2941284-34.2318726,75.3212585-96.4237061,69.6845398c-0.4279175,2.0630798-0.7843933,4.3783569-1.1343689,6.9684143c-1.3875732,48.0677185-8.5271301,77.6902771-24.1467285,98.3691406c-15.787323,20.9004517-39.4969788,27.5541687-58.1787109,31.2766724c-75.9914398,11.1141968-86.49823-48.4242249-86.8626556-123.4874268c-33.0161438,14.2045593-76.9781799,4.4203186-89.4547272-11.0201721c-26.4282455,19.2514648-50.0690918,10.6918335-66.9294662-3.8891907C48.1692734,332.1128845,30.0153179,279.1033325,10.8441372,206.2437592z"/></svg>