<svg xmlns="http://www.w3.org/2000/svg" width="492" height="512"><path d="M70.575 382.105h41.41v-60.93s-2.232-72.682 68.28-72.682h117.582s66.059 1.118 66.059-66.88V60.214c-10.463-83.312-243.862-76.672-236.273-1.641v57.469H246.32v17.554H80.68c-111.863-2.479-99.911 248.51-10.105 248.51zm350.638-251.977h-41.41v60.93s2.232 72.683-68.28 72.683H193.94s-66.058-1.119-66.058 66.88v112.434c-10.137 88.454 238.335 91.225 236.272 11.602l-.139-58.465H245.468v-17.554h165.64c108.904 8.776 101.976-252.165 10.105-248.51zM168.05 82.134c-14.187-8.567-14.187-30.102 0-38.67s32.016 2.2 32.016 19.335-17.83 27.902-32.016 19.335zm134.31 386.635c-14.187-8.567-14.187-30.102 0-38.67 14.186-8.567 32.016 2.2 32.016 19.335s-17.83 27.902-32.016 19.335z"/></svg>