<svg version="1.1" xmlns="http://www.w3.org/2000/svg" xmlns:xlink="http://www.w3.org/1999/xlink" x="0px" y="0px" width="492px" height="512px"><path d="M70.5753708,382.1051941h41.4096069v-60.9300537c0,0-2.2320404-72.6823425,68.2803421-72.6823425h117.5815125c0,0,66.059021,1.1186981,66.059021-66.8795471V60.2141495C353.442688-23.0981102,120.0442886-16.4580421,127.6328888,58.572567l-0.0003281,57.4692802h118.6876755v17.554039H80.6805649C-31.1832695,131.1174774-19.2311478,382.1051941,70.5753708,382.1051941z M421.2127075,130.1283417l-41.4095764-0.0000153v60.9300537c0,0,2.2320251,72.6823425-68.2803345,72.6823425H193.941452c0,0-66.0588455-1.1186829-66.0588455,66.8795471v112.4350281c-10.1361084,88.4534302,238.3353271,91.2244873,236.2726135,11.6016846l-0.1387939-58.4653015H245.4680481v-17.5540466h165.6394958C520.0115967,387.4137878,513.0839844,126.4725876,421.2127075,130.1283417z M168.0507355,82.133873c-14.186615-8.5673676-14.186615-30.1020889,0-38.6694565s32.0161743,2.1999855,32.0161743,19.3347244S182.2373505,90.7012405,168.0507355,82.133873z M302.3607178,468.769104c-14.186615-8.5673523-14.186615-30.1020813,0-38.6694336c14.186615-8.5673828,32.0161743,2.1999817,32.0161743,19.3347168S316.5473328,477.3364868,302.3607178,468.769104z"/></svg>