<svg version="1.1" xmlns="http://www.w3.org/2000/svg" xmlns:xlink="http://www.w3.org/1999/xlink" x="0px" y="0px" width="398px" height="512px"><path d="M42.6380615,463.71698H61.82547v-19.5933228l17.46138,17.4613953h29.4406586l-23.349411-23.3493958c0,0,16.7985077-0.2713013,18.0705032-24.5676575c0-22.289856-16.8189926-25.1768188-36.2428741-25.1768188H42.6380615V463.71698z M62.7391548,408.8983765H79.28685v13.4007568H62.7391548V408.8983765z M147.8652649,388.7995605c-13.065918-0.1851196-27.1564407,0.9150391-27.1564407,20.7104797v52.2822571h19.6946793v-12.7915955h19.0855408v12.48703h19.796524v-54.821167C179.1215057,388.281189,158.1000824,388.9445496,147.8652649,388.7995605z M140.7082672,407.6826782h18.4764252v20.6088867h-18.4764252V407.6826782z M199.013504,388.8459167h20.3790436v71.963623H199.013504V388.8459167z M240.730835,389.8031006v71.963623h49.0375671v-19.1054993h-28.9763794v-53.1780701L240.730835,389.8031006z M354.7240601,408.5871582h-32.7975159v7.0054321h14.0108643c7.323822,0,22.6082458-0.3184204,22.6082458,22.6082153s-10.5081787,24.2001343-31.8423462,24.2001343h-25.7925415v-17.513092h29.6136475c8.915741,0,9.4076538-2.9023743,9.4076538-5.4314575c0-2.5291748-4.5584412-3.7055664-13.8291626-3.7055664c-9.2704468,0-26.4656677-4.5552979-26.4656677-22.3871155c0-17.8318481,8.9157104-24.5185547,26.7477112-24.5185547l28.3395996-0.0000916L354.7240601,408.5871582z M362.3646851,103.5388565l7.6422424-11.4633026c-95.0762329-85.9480133-185.9670868-35.5033073-230.3754578,24.3575058C86.4781952,188.081665,54.9879684,298.8344116,60.4992485,367.1968994l0.0025253-0.0030518l169.4030304-0.0000305C131.2730408,122.4694748,308.5149841,47.7175713,362.3646851,103.5388565z M26.7486267,281.8550415l33.1163826,2.5474243l-5.7319069,33.1158752l-31.2055779-3.8210754L26.7486267,281.8550415z M78.9700089,211.8006744l8.9157333-24.8368988l-29.2952805-11.4633179l-9.552494,26.7477264L78.9700089,211.8006744z M120.3648529,126.4669952l17.1947021-20.3790359l-22.289856-14.6476364l-17.8314667,19.7422714L120.3648529,126.4669952z M165.5833588,47.4958611l15.2844086,18.4687462l21.0158081-12.1000748l-15.2844086-17.1947021L165.5833588,47.4958611z M240.0910034,26.4800549l3.821106,18.4687443l26.1109619-0.6368675l-2.5474243-16.5579395L240.0910034,26.4800549z M328.6135864,46.2223282l-0.6368713,11.4633064l17.8320007,9.552494l3.821106-5.7319069L328.6135864,46.2223282z M324.7950439,95.2583466v9.5524979l17.1947327,1.9105453v-7.6422043L324.7950439,95.2583466z M270.0250854,103.54039l8.2789917,15.2844009l12.1000671-9.5524902l-2.5473938-10.1897736L270.0250854,103.54039z M243.9146423,123.2831726l12.7368469,19.1055145l-7.6422119,13.374115l-18.4687347-20.3790436L243.9146423,123.2831726z M218.4389191,176.1387482l-8.2789612,16.5579376l21.6530609,18.4687347l5.0947876-21.0158081L218.4389191,176.1387482z M209.5221863,234.0925598l-1.2737427,22.289856l26.7477112,11.4633179l-1.2736816-21.0158234L209.5221863,234.0925598z M217.1643829,313.0636902l6.3686829,22.9266052l33.7531586,1.9105835l-12.1000671-24.8369141L217.1643829,313.0636902z M5.0899172,42.5215111c-8.7985153,36.0831795-3.5190988,99.7530212-3.5190988,218.9826355L0.7710232,512h292.8850098c28.8253784,0,49.7516174-2.781189,65.2632751-9.1174011c15.5116577-6.3361816,25.5023193-16.5732727,31.0320435-30.2319641c11.0589294-27.3184509,6.5580444-66.8808289,6.5580444-123.3297119l0.005127-349.191864H93.5487823C36.6270409-1.1718156,14.7837439,6.9697776,5.0899172,42.5215111z M293.657074,502.2412109l-283.124939,0.0002441l0.7959557-240.7360535c0,0-4.723527-184.0885315,3.1991806-216.5819702C22.3277035,16.7915173,33.8042374,9.7500858,93.5475311,9.8910055l293.2041626-0.001133c0,0-3.1844482,205.1148071,0,339.4305115c1.4826355,62.5362549,3.4364319,103.2115479-9.1653442,125.8076782C364.9845886,497.7242126,337.8272705,502.2412109,293.657074,502.2412109z"/></svg>