<svg xmlns="http://www.w3.org/2000/svg" width="512" height="512"><path d="m131.73 495.826 332.013 13.164-450.394 1.717 118.382-14.88zM362.747 314.61l135.606 183.374-350.227-13.893 214.62-169.48zM512 495.64 372.167 306.537 492.898 80.542 512 495.639zM.387 451.67 16.4 298l27.82 23.836L0 459.956l.387-8.287zm52.31-110.258 69.85 138.896-117.424 14.82 47.574-153.717zm68.983 106.382L57.49 319.961l90.279-57.402-26.089 185.234zm229.017-144.698L133.62 474.537l28.947-210.854 188.129 39.412zM265.445 137.11l80.688 152.855-182.187-40.356L265.445 137.11zm14.734-.163 191.5-51.243-109.96 205.549-81.54-154.306zm-6.548-13.743 26.523-68.68 149.873 24.322-176.396 44.358zm217.374-51.266L330.902 43.84 458.806 2.264l32.199 69.674zM408.44 1.293l-120.869 39.29-21.878-5.886L408.441 1.293zM255.848 123.26l-108.71 121.261-97.049 60.615-27.463-23.522 38.91-72.474 91.935-102.62 87.782-61.312 40.598 10.919-26.003 67.133z"/></svg>