<svg version="1.1" xmlns="http://www.w3.org/2000/svg" xmlns:xlink="http://www.w3.org/1999/xlink" x="0px" y="0px" width="375px" height="512px"><path d="M344.1742554,301.2830811c14.4042358-5.5814819,26.1119995-11.7310791,30.3255615-18.5144043V162.3374023c-1.0535889-9.8987579-15.6605225-18.1988373-30.3745728-23.3015137c14.5270996-5.6049194,26.1351929-11.7832031,30.3745728-18.6022949V0C346.8872681,32.0734253,106.3778076,56.6987305,0.1647949,68.2875366L0.1644897,190.367981c51.7684326,2.477417,99.6187744,11.5853271,145.9473267,23.5211792C90.8790894,220.9069824,37.2027588,226.5657959,0,230.624939l0.0004883,121.8528442c50.3032227,2.4435425,96.9550171,11.2684937,142.1265259,22.9074097c-53.6967773,6.7631226-105.5472412,12.230896-141.7739258,16.1811523V512c102.1547241-9.1100464,348.440918-26.9063721,374.1467285-68.289917V331.2764893C374.3284912,313.6713257,359.372406,307.6621704,344.1742554,301.2830811z M321.5247192,147.9850616c13.2496338,0.5836792,28.5506592,6.4742279,37.984314,14.3457489c3.4392395,3.1824951,3.5750122,6.4119568-0.1645508,9.6965332c-32.4955444,14.5876465-105.5422974,27.3363647-181.0811157,37.633728c-39.5848389-11.0727539-80.2080688-20.6936035-123.2929077-26.4666748L321.5247192,147.9850616z M358.5437012,333.4840088c-33.6342773,14.6340332-107.8574219,27.3969727-183.9203491,37.6668701c-38.4979858-10.8549194-78.0177612-20.2473145-119.8710938-25.9230347l255.4281006-35.9048462c12.0409546-3.4555054,35.2902832,3.529541,48.5240479,14.9730225C361.3565979,327.210968,361.0602417,330.2868958,358.5437012,333.4840088z"/></svg>