<svg version="1.1" xmlns="http://www.w3.org/2000/svg" xmlns:xlink="http://www.w3.org/1999/xlink" x="0px" y="0px" width="471px" height="512px"><path d="M0.3801592,40.7015572l40.1116867,359.8253479c2.0965805,13.538208,9.2626991,23.6380615,21.82547,30.0778503L220.9944,508.4745178c10.4808197,4.5377502,20.4982758,4.8607483,31.8534088,0l158.0872192-77.8638611c12.971405-6.4886475,20.6457214-20.0558472,20.0499573-34.2069702L469.922821,39.5218086C472.8915405,22.5614071,459.2008667,0.427229,433.9402161,0H36.3626976C20.6944523,0.0833356-3.3098602,11.7690163,0.3801592,40.7015572z M338.1825562,116.8486252h61.1891785v90.4951401l-8.6638184,66.161026h-43.8616028l-8.6637878-66.161026L338.1825562,116.8486252z M150.5572968,120.5347214h37.7869263l-16.2188263,60.8235397h44.7816315l16.4075623-60.8235397h37.5981903l-16.4016418,60.8235397h46.9932861v33.5405273h-56.028656l-11.795517,43.3130951h48.2908173v34.0949097h-57.1374512l-16.218811,60.4519958h-37.5981903l16.4016418-60.4519958h-44.9644775l-16.2188263,60.4519958h-37.786911l16.2188263-60.4519958h-47.364872v-34.0949097h55.6630058l11.9783401-43.3131104H76.8353653v-33.5405273h57.3202744L150.5572968,120.5347214z M162.7243652,214.8987885l-11.795517,43.3130951h44.7875366l11.795517-43.3131104L162.7243652,214.8987885z M338.1825562,296.5473022h61.1891785v56.2114868h-61.189209L338.1825562,296.5473022z"/></svg>