<svg xmlns="http://www.w3.org/2000/svg" width="471" height="512"><path d="m.38 40.702 40.112 359.825c2.096 13.538 9.263 23.638 21.825 30.078l158.677 77.87c10.481 4.537 20.499 4.86 31.854 0l158.087-77.864c12.971-6.489 20.646-20.056 20.05-34.207l38.938-356.882C472.892 22.562 459.2.427 433.94 0H36.363C20.694.083-3.31 11.769.38 40.702zm337.803 76.147h61.189v90.495l-8.664 66.16h-43.862l-8.663-66.16v-90.495zm-187.626 3.686h37.787l-16.219 60.823h44.782l16.408-60.823h37.598l-16.402 60.823h46.993v33.54h-56.028l-11.796 43.314h48.291v34.095h-57.137l-16.22 60.452h-37.597l16.401-60.452h-44.964l-16.219 60.452H88.448l16.219-60.452H57.302v-34.095h55.663l11.978-43.313H76.835v-33.54h57.32l16.402-60.824zm12.167 94.364-11.795 43.313h44.787l11.796-43.313h-44.788zm175.459 81.648h61.189v56.212h-61.19v-56.212z"/></svg>