<svg version="1.1" xmlns="http://www.w3.org/2000/svg" xmlns:xlink="http://www.w3.org/1999/xlink" x="0px" y="0px" width="512px" height="512px"><path d="M358.7389832,269.2616882c-22.986969-50.0119019,37.2633972-66.0120087-11.5232544-120.8320007c28.7865295,58.5700226-46.7139282,49.3199615-38.8284302,99.7703552C328.0852966,253.2499847,345.0346985,260.8615417,358.7389832,269.2616882z M407.6691284,313.8265686c0.6670532-58.4929657,58.3336792-45.1598206,34.4308777-115.6611938c5.2360229,63.5013123-61.7643738,29.5011139-73.18927,77.8155823C383.6897583,286.5415649,396.7511292,299.3153076,407.6691284,313.8265686z M436.7554932,373.6506653C458.0027466,318.3337097,508.0030518,352.6672363,512,278.1088257c-18.3303833,62.5583496-69.3306885,3.2246704-97.0307312,45.2994385C427.004364,343.925354,432.9324341,359.6192322,436.7554932,373.6506653z M240.400528,138.3493347c47.827774,42.8246613-24.4432526,64.6934204,0.8033752,106.9368896c17.5476532-2.6613007,35.4227753-2.4738007,53.9260712,0.3973236C256.1682129,207.8330383,305.3351746,170.9994812,240.400528,138.3493347z M137.3341217,168.2970276c60.9805908,20.9130249,0.7884979,67.7290802,40.724411,99.055481c17.2161713-9.995697,32.8439026-15.6624451,50.3613892-19.6921997C175.6677246,224.4998169,211.5012665,175.1661835,137.3341217,168.2970276z M128.3060608,311.0431519c11.0767212-14.1042175,24.411499-26.6248474,39.1608276-36.7783813c-55.716217-1.514679-43.7161407-61.5150299-113.7754745-40.0208588C117.5007095,231.2498474,80.6839066,297.0965881,128.3060608,311.0431519z M120.227356,322.3481445C66.5003967,341.3338623,59.1670227,282.0001526,0,327.1026001c59.2125549-26.3319092,47.5169296,49.2398376,97.647049,43.989502C102.1172256,355.471405,109.3497314,338.6381531,120.227356,322.3481445z"/></svg>