<svg xmlns="http://www.w3.org/2000/svg" width="512" height="512"><path fill-rule="evenodd" d="m179.687 322.404 32.805 16.09c-9.589-58.32 21.754-67.156 55.431-60.82 17.888 3.364 29.26 12.754 60.344 48.897 2.814 1.982 41.053 19.493 41.528 19.018-15.66-28.488-27.083-43.759-16.604-67.452 13.263-22.97 64.598 14.024 140.038-20.99 9.972-4.875 12.091-6.757 14.248-12.586 2.057-5.558 3.032-10.876 1.984-10.876-.371 0-3.873 1.506-7.786 3.355-39.357 20.794-65.032 2.788-102.08-13.42l-8.404-20.128c78.42 50.924 99.427 29.042 120.809 14.95-9.92-34.631-14.505-52.637-34.276-62.028-35.97-15.622-66.517-20.465-99.462-25.49l-.341 16.923c-100.276-31.666-197.025-28.223-261.067 8.965C11.25 210.72-9.721 276.524 3.554 325.662c23.092 71.6 122.702 79.297 145.914 22.35 11.26-26.225 1.269-70.234-39.821-80.196-41.695-8.594-62.524 21.496-56.054 46.304 9.487 36.372 61.858 29.727 55.563 8.76-6.52-17.83-18.915-.565-28.474-9.572-11.196-9.751 2.934-30.383 29.456-18.355 19.69 10.922 26.752 47.717-5.269 59.873-33.842 8.49-69.685-11.632-71.458-52.765-1.895-66.234 118.81-90.241 146.276 20.343zm277.528-129.919c-6.11-2.352-6.11-8.266 0-10.618 6.11-2.353 13.79.604 13.79 5.31s-7.68 7.661-13.79 5.308zm-10.068 17.409c-14.119-8.168-14.119-28.699 0-36.867s31.863 2.097 31.863 18.433-17.744 26.602-31.863 18.434zm-4.664 8.147c-20.2-11.66-20.2-40.97 0-52.63s45.586 2.994 45.586 26.315-25.387 37.975-45.586 26.315z" clip-rule="evenodd"/></svg>