<svg xmlns="http://www.w3.org/2000/svg" width="512" height="512"><path d="M0 256.227c0-41.396 33.585-75.198 74.982-75.198-29.262-29.284-29.262-76.763 0-106.047 29.284-29.262 76.763-29.262 106.047 0C181.029 33.585 214.614 0 256.01 0s74.982 33.585 74.982 74.982c29.288-29.262 76.763-29.262 106.046 0 29.263 29.284 29.263 76.763 0 106.047 41.397 0 74.961 33.585 74.961 74.982L511.974 512H0V256.227zm283.244 17.018-27.677 133.702-27.698-133.702h-39.177L235.98 501.52h39.171l47.263-228.275h-39.171zm133.734 66.853h39.177c0-36.904-29.94-66.848-66.87-66.848-36.926 0-66.87 29.939-66.87 66.848l.021 94.547c0 36.926 29.94 66.87 66.87 66.87 36.904 0 66.849-29.94 66.849-66.87v-66.848h-66.87v39.171h27.693v27.698c-.46 34.853-52.796 38.604-55.375-.02v-94.548c1.079-35.919 52.664-37.919 55.375 0zM102.24 359.663c-5.003-5.011-8.101-11.923-8.101-19.565 1.4-36.094 53.22-37.358 55.396 0h39.156c0-36.925-29.94-66.848-66.849-66.848-36.925 0-66.87 29.918-66.87 66.848.03 41.251 33.492 66.714 66.87 66.87 37.354 1.975 35.761 53.951 0 55.375-15.29 0-27.698-12.388-27.698-27.698H54.968c0 36.926 29.939 66.87 66.87 66.87 36.904 0 66.848-29.94 66.848-66.87 0-18.444-7.472-35.17-19.585-47.263-12.113-12.091-28.798-19.596-47.263-19.596a27.614 27.614 0 0 1-19.597-8.123zM408.326 227.32h-83.03l58.77-58.77c13.585.01 27.174-6.614 34.997-19.937 15.762-26.842-3.59-60.89-34.751-61.139-23.698-.19-40.811 19.278-40.885 40.528l-58.725 58.725v-83.089c12.122-12.301 16.223-32.006 6.439-48.977-15.567-27-54.694-27-70.26 0-9.784 16.971-5.684 36.676 6.438 48.977v83.089l-58.777-58.777c-.135-17.262-11.168-34.083-30.078-39.162-30.097-8.085-57.762 19.58-49.677 49.677 5.08 18.91 21.9 29.943 39.162 30.078l58.777 58.777h-83.031c-22.193-23.321-68.265-11.18-69.275 28.69H477.6c-2.08-41.336-47.04-51.044-69.274-28.692z"/></svg>