<svg version="1.1" xmlns="http://www.w3.org/2000/svg" xmlns:xlink="http://www.w3.org/1999/xlink" x="0px" y="0px" width="512px" height="512px"><path d="M262.1863098,203.6340332C229.8355713,172,192.7518768,145.25,148.0197296,177.0046844c-25.8059921,21.1642761-27.3967209,53.1110382-3.0374756,82.206955c17.7949982,19.5533142,27.73703,24.5905457,22.9661102,41.1252747c-4.1098328,13.4507751-20.3151398,22.1385193-36.9395905,17.0325623c-7.424942-2.2753601-18.0887604-7.8059082-15.6990662-15.5791626C116.1261368,299.5,122.2511902,291.5,122.7011948,283.625c0.4550781-7.9637756-1.5164337-16.3445435-12.6335831-21.4303284c-9.9126129-3.0374451-20.0429688-0.6314697-23.9731827,12.1171265c-4.4582291,14.490448,2.4767914,40.7877502,39.6287079,52.2244263c43.5262527,13.3963318,80.3243179-10.309906,85.5500717-41.2014771c6.3955841-50.8347473-59.936676-64.2144318-36.9395905-98.3468018C204.7519989,154.5,248.0024261,207.75,258.6044617,214.7549744c-24.9355164,89.5783691-24.7271729,171.8700256-65.6214142,206.780304c-4.9916992,3.5545959-12.1335754,8.8673706-22.8899384,9.2538757c-8.9100342-0.3991089-10.6081848-8.097229-2.1284485-12.9554443c15.8602295-7.0286255,6.5370483-36.5003662-15.3506622-35.1320496C117.6678162,387,115.0011215,441,170.4305725,440.9520569C224.3355255,439,279.6694031,379.6666565,296.2353821,277.6485596l8.1870117-45.1751862c30.5808716,5.1932983,76.5813293-4.4733734,80.090271-36.857605c0.1577454-23.7824402-27.8425293-26.1157684-33.052948-5.4543304c-1.9573669,7.7618103,8.4629517,15.1303406,6.0371094,20.1076202c-6.1993713,12.7197418-36.286499,14.8572693-51.1800842,11.665802c7.3529968-42.601532,16.5157166-116.2643127,60.7875671-117.5349579c13.4201965,0.1939545,16.3190308,5.9664154,10.1358032,14.9204941c-8.7855225,12.9230881-0.5609131,30.0300369,16.8258972,28.8611679C422.2541199,147.5,426.5041504,92.75,367.9263916,94.7214813C310.4396667,97.5381699,273.6359558,162.425705,262.1863098,203.6340332z M127.7106018,477.5468445c-170.2814331-98.1691284-170.2814789-344.92453-0.0000534-443.093689S511.9995117,59.6616783,511.9995117,256S297.9920349,575.7160034,127.7106018,477.5468445z"/></svg>