<svg xmlns="http://www.w3.org/2000/svg" width="496" height="512"><path d="M447.201 50.56c0-27.941-22.6-50.56-50.56-50.56-27.965 0-50.56 22.619-50.56 50.56v12.16c0 27.935 22.6 50.56 50.56 50.56s50.56-22.625 50.56-50.56V50.56zM198.56 61.44c-2.576 1.39-1.55 4.371-1.598 17.92l40.96 64.963c1.04 1.648 3.16 2.355 4.962 1.597 86.617-35.587 159.45 32.747 165.755 91.361.312 1.936 2.048 3.359 4.003 3.359l77.118.159c4.216-.744 5.66-6.11 4.004-16.64-4.163-42.747-22.324-83.881-51.2-115.999-1.306-1.46-3.477-1.705-5.12-.64C379 141.667 326.783 91.736 328.479 48.64c.241-2.383.055-4.58-3.2-5.44-47.946-8.7-90.216.425-126.72 18.24zm13.059 103.535.026-15.275-41.563-66.019c-1.353-1.747-3.082-2.548-5.76-.962-33.464 25.774-58.66 62.003-70.881 102.082-.98 2.811-1.154 14.364 1.439 16.476C123.5 228 135.75 262 94.879 298.88c-3.186 2.471-2.056 14.227-1.439 16.318 12.124 39.741 37.028 75.883 70.083 101.6 2.018 1.47 4.513 1.014 5.754-.957L211.313 350v-15.018c-45.005-39.367-64.813-110.482.305-170.007zM103.68 244.96c0-28.6-23.22-51.84-51.84-51.84C23.221 193.12 0 216.36 0 244.96v12.16c0 28.595 23.22 51.676 51.84 51.676 28.62 0 51.84-23.08 51.84-51.676v-12.16zm138.557 108.96c-1.792-.764-3.901-.042-4.956 1.602L196 420.32c-1.83 2.75-2.404 15.723 1.602 17.757 45.426 22.913 90.241 25.402 128.318 18.723 1.735-.307 3.154-1.776 3.358-3.522C333.75 409.5 382.25 375 431.841 399.2c1.557.814 3.405.456 4.639-.803 32.317-32.958 52.7-76.237 57.283-121.918 2.041-15.761 3.237-16.658-4.004-16.481l-77.282.158c-1.945.006-3.527 1.444-3.84 3.364-14.387 81.729-100.083 119.45-166.4 90.4zm208.164 94.396c0-28.446-23.224-51.517-51.84-51.517-28.62 0-51.84 23.07-51.84 51.517v12.166c0 28.446 23.214 51.517 51.84 51.517 28.616 0 51.84-23.066 51.84-51.517v-12.166z"/></svg>