<svg version="1.1" xmlns="http://www.w3.org/2000/svg" xmlns:xlink="http://www.w3.org/1999/xlink" x="0px" y="0px" width="496px" height="512px"><path d="M447.201355,50.5600052c0-27.9413815-22.5997009-50.560009-50.5600281-50.5600128c-27.9654236,0-50.5599976,22.6186256-50.5599976,50.560009v12.159996c0,27.9347267,22.5997009,50.560009,50.5599976,50.560009c27.9603271,0,50.5600281-22.6252823,50.5600281-50.5600052V50.5600052z M198.5587463,61.4400024c-2.5760651,1.3904724-1.5499268,4.3711243-1.5974121,17.9200058l40.9600067,64.9625626c1.0393524,1.6486511,3.1590424,2.3551941,4.9612885,1.5974426C329.5,110.3333359,402.3333435,178.6666718,408.6375427,237.281311c0.3123169,1.9353638,2.0480042,3.3587189,4.0038452,3.3587189l77.1174316,0.1587067c4.2166748-0.7432709,5.6598511-6.109024,4.0038757-16.6400146c-4.1625977-42.7468872-22.3232117-83.8809662-51.2000122-115.9987411c-1.305603-1.459198-3.4765015-1.7049637-5.1199951-0.6399994C379,141.6666718,326.7837524,91.7358551,328.4787903,48.6399689c0.2414856-2.3828659,0.0556641-4.579689-3.2000122-5.4399986C277.3333435,34.5,235.0625,43.625,198.5587463,61.4400024z M211.6179504,164.9747772l0.0262451-15.2747803l-41.5628967-66.018692c-1.3529816-1.7468567-3.0818634-2.5483398-5.7599945-0.9625778c-33.464325,25.774086-58.6598511,62.0031967-70.8812866,102.0825882c-0.9799271,2.8111725-1.1540985,14.3641357,1.4387207,16.4761658C123.5,228,135.75,262,94.8787384,298.8800659c-3.1854935,2.4708862-2.0552979,14.2272339-1.4387207,16.3175049c12.1241608,39.7414246,37.0278473,75.8835449,70.0825653,101.6012878c2.01828,1.4682007,4.513504,1.0130005,5.7548676-0.957489L211.3133698,350v-15.0183105C166.3076935,295.615387,146.5,224.5,211.6179504,164.9747772z M103.6800156,244.9613037c0-28.6003265-23.2192001-51.8400116-51.8400078-51.8399963C23.2212505,193.1213074,0,216.3610077,0,244.961319v12.1599884c0,28.5951843,23.2207375,51.6761475,51.8400078,51.6761475c28.6208076,0,51.8400078-23.0809631,51.8400078-51.676178V244.9613037z M242.237442,353.9200745c-1.7919922-0.7628784-3.9014435-0.0409546-4.9561462,1.6026001l-41.2825623,64.7987061c-1.8302002,2.7505188-2.4041748,15.7224731,1.6025543,17.7561646c45.4262085,22.9135742,90.2408447,25.4025574,128.3174744,18.723877c1.7356873-0.3071899,3.1539001-1.7766418,3.3587036-3.522583C333.75,409.5,382.25,375,431.8413086,399.201416c1.556488,0.8140564,3.4048157,0.455658,4.6387024-0.803833c32.3174438-32.957428,52.7001648-76.2367859,57.2825623-121.91745c2.0415955-15.7614746,3.2369385-16.6579895-4.0038757-16.4813232l0.0000916-0.000061l-77.281311,0.1587219c-1.9455872,0.005127-3.52771,1.4438477-3.8399963,3.3638611C394.25,345.25,308.5536194,382.9702454,242.237442,353.9200745z M450.4013062,448.3174744c0-28.4467163-23.2243347-51.5174255-51.8399963-51.5174255c-28.6207886,0-51.8400269,23.0707092-51.8400269,51.5174255v12.1651001C346.721283,488.9292908,369.9353638,512,398.5613098,512c28.6156616,0,51.8399963-23.0655823,51.8399963-51.5174255V448.3174744z"/></svg>