<svg version="1.1" xmlns="http://www.w3.org/2000/svg" xmlns:xlink="http://www.w3.org/1999/xlink" x="0px" y="0px" width="512px" height="512px"><path d="M19.0675488,153.9086914l121.6511536,0.2918091v13.3063354c-37.4572372-4.5097198-34.1624832,14.9457703-28.856926,35.5896912l79.8592758,200.141571l58.6953735-137.5943604l-26.9469299-64.4784393c-9.7887573-17.2696075-9.9956665-36.4332733-50.0367126-34.6240845l0.5623779-12.2611542l178.4206085,0.4350586v13.7360992c-20.89328,1.2255859-46.046936-5.2525024-32.7140503,37.5368347l72.1609192,189.551712l39.4468079-110.6580811c27.4169922-109.6812897-67.2064819-171.8481445,19.1212158-198.2156677C286.7064514-77.212059,76.487587,17.661068,19.0675488,153.9086914z M500.4207764,175.6773987L383.7450867,477.1976013C409.8750916,454.4103394,547.6907959,383.1722717,500.4207764,175.6773987z M129.2958374,479.9247131L6.82232,180.5638123C-23.8781967,345.2230225,54.7104263,440.2423401,129.2958374,479.9247131z M261.2769165,293.5085449L175.5549927,500.335144c60.1703339,17.1740723,114.0111389,15.0253296,163.2997742-4.0799561L261.2769165,293.5085449z"/></svg>