<svg xmlns="http://www.w3.org/2000/svg" width="20" height="20" viewBox="0 0 20 20"><path d="M9.25 5h-.68c-.43 0-.66-.5-.39-.82l1.43-1.72c.2-.24.57-.24.77 0l1.43 1.72c.28.32.05.82-.38.82h-.68v3.63l-1.5-1.5V5zM13 10h.25v1.13l1.23 1.23c.17-.24.27-.54.27-.86V10H15c.28 0 .5-.22.5-.5v-2c0-.28-.22-.5-.5-.5h-2c-.28 0-.5.22-.5.5v2c0 .28.22.5.5.5zm-2.25 3v2.21c.47.27.78.78.75 1.37-.04.76-.66 1.38-1.43 1.42-.86.04-1.57-.65-1.57-1.5 0-.55.3-1.03.75-1.29V13h-2.5c-.83 0-1.5-.67-1.5-1.5V9.79c-.45-.26-.75-.74-.75-1.29 0-.51.26-.96.65-1.23L2.4 4.52a.754.754 0 0 1 0-1.06c.29-.29.77-.29 1.06 0l13.08 13.08c.29.29.29.77 0 1.06-.29.29-.77.29-1.06 0l-4.6-4.6h-.13zm-1.5-1.5v-.13L7.23 9.35c-.13.18-.29.33-.48.44v1.71h2.5z"/></svg>