<svg xmlns="http://www.w3.org/2000/svg" width="20" height="20" viewBox="0 0 20 20"><path d="M15 4H5c-.55 0-1 .45-1 1v10c0 .55.45 1 1 1h10c.55 0 1-.45 1-1V5c0-.55-.45-1-1-1zM6.5 7.27h2c.28 0 .5.22.5.5s-.22.5-.5.5h-2c-.28 0-.5-.23-.5-.5 0-.28.22-.5.5-.5zm3 5.23h-1v1c0 .28-.22.5-.5.5s-.5-.22-.5-.5v-1h-1c-.28 0-.5-.22-.5-.5s.22-.5.5-.5h1v-1c0-.28.22-.5.5-.5s.5.22.5.5v1h1c.28 0 .5.22.5.5s-.22.5-.5.5zm4 .75h-2c-.28 0-.5-.22-.5-.5s.22-.5.5-.5h2c.28 0 .5.22.5.5s-.22.5-.5.5zm0-1.5h-2c-.28 0-.5-.22-.5-.5s.22-.5.5-.5h2c.28 0 .5.22.5.5s-.22.5-.5.5zm.41-2.57c-.2.2-.51.2-.71 0l-.7-.71-.71.71c-.2.2-.51.2-.71 0-.2-.2-.2-.51 0-.71l.71-.71-.71-.71c-.2-.2-.2-.51 0-.71.2-.2.51-.2.71 0l.71.71.71-.71c.2-.2.51-.2.71 0 .2.2.2.51 0 .71l-.71.71.71.71c.19.2.19.52-.01.71z"/></svg>