<svg xmlns="http://www.w3.org/2000/svg" width="20" height="20" viewBox="0 0 20 20"><path d="M15 8H5v3h10V8zm-8 2.5c-.55 0-1-.45-1-1s.45-1 1-1 1 .45 1 1-.45 1-1 1zm6 0c-.55 0-1-.45-1-1s.45-1 1-1 1 .45 1 1-.45 1-1 1z" opacity=".3"/><circle cx="13" cy="9.5" r="1"/><circle cx="7" cy="9.5" r="1"/><path d="M4.5 13h1c.28 0 .5-.22.5-.5V12h8v.5c0 .28.22.5.5.5h1c.28 0 .5-.22.5-.5V7l-1.72-3.45c-.17-.34-.52-.55-.9-.55H6.62c-.38 0-.73.21-.9.55L4 7v5.5c0 .28.22.5.5.5zm2.12-9h6.76l1.5 3H5.12l1.5-3zM5 8h10v3H5V8zm2 7h2.5v-1l3.5 2h-2.5v1z"/></svg>