<svg xmlns="http://www.w3.org/2000/svg" width="20" height="20" viewBox="0 0 20 20"><path d="M2 8.5c0-.28.22-.5.5-.5s.5.22.5.5v1h1v-1c0-.28.22-.5.5-.5s.5.22.5.5v3c0 .28-.22.5-.5.5s-.5-.22-.5-.5v-1H3v1c0 .28-.22.5-.5.5s-.5-.22-.5-.5v-3zm8 3c0 .28.22.5.5.5s.5-.22.5-.5V9h1v1.5c0 .28.22.5.5.5s.5-.22.5-.5V9h1v2.5c0 .28.22.5.5.5s.5-.22.5-.5v-3c0-.28-.22-.5-.5-.5h-4c-.28 0-.5.22-.5.5v3zm-3 0c0 .28.22.5.5.5s.5-.22.5-.5V9h.5c.28 0 .5-.22.5-.5S8.78 8 8.5 8h-2c-.28 0-.5.22-.5.5s.22.5.5.5H7v2.5zm9 0c0 .28.22.5.5.5H18c.28 0 .5-.22.5-.5s-.22-.5-.5-.5h-1V8.5c0-.28-.22-.5-.5-.5s-.5.22-.5.5v3z"/></svg>