<svg xmlns="http://www.w3.org/2000/svg" width="20" height="20" viewBox="0 0 20 20"><path d="M14 8c-.43 0-.85.05-1.26.14L1.71 3.31c-.33-.14-.7.1-.7.46L1 8.04c0 .23.16.44.39.49L7.86 10l-6.47 1.47c-.23.05-.39.25-.39.49l.01 4.28c0 .36.37.6.7.46L8 13.94V14c0 3.31 2.69 6 6 6s6-2.69 6-6-2.69-6-6-6zm0 11c-2.76 0-5-2.24-5-5s2.24-5 5-5 5 2.24 5 5-2.24 5-5 5z"/><path d="M15.77 12.23c-.2-.2-.51-.2-.71 0L14 13.29l-1.06-1.06c-.2-.2-.51-.2-.71 0-.2.2-.2.51 0 .71L13.29 14l-1.06 1.06c-.2.2-.2.51 0 .71s.51.2.71 0L14 14.71l1.06 1.06c.2.2.51.2.71 0s.2-.51 0-.71L14.71 14l1.06-1.06c.19-.2.19-.51 0-.71z"/></svg>