<svg xmlns="http://www.w3.org/2000/svg" width="20" height="20" viewBox="0 0 20 20"><path d="M1 13c0 2.76 2.24 5 5 5s5-2.24 5-5V7H1v6zm5 1.51c-1.11 0-2-.67-2-1.51h4c0 .83-.89 1.51-2 1.51zm1.5-4.76c.41 0 .75.34.75.75s-.34.75-.75.75-.75-.34-.75-.75.34-.75.75-.75zm-3 0c.41 0 .75.34.75.75s-.34.75-.75.75-.75-.34-.75-.75.34-.75.75-.75z"/><path d="M9 2v4h2.95a.748.748 0 0 1-.2-.5c0-.41.34-.75.75-.75s.75.34.75.75-.34.75-.75.75c-.19 0-.37-.08-.5-.2v3.46c0-.84.89-1.51 2-1.51s2 .67 2 1.51h-4v3.07c.61.27 1.29.42 2 .42 2.76 0 5-2.24 5-5V2H9zm6.5 4.25c-.41 0-.75-.34-.75-.75s.34-.75.75-.75.75.34.75.75-.34.75-.75.75z"/></svg>