<svg xmlns="http://www.w3.org/2000/svg" width="20" height="20" viewBox="0 0 20 20"><path d="M17 6.25c0 .41-.34.75-.75.75H9.12l-1.5-1.5h8.63c.41 0 .75.34.75.75zM15 10c0-.41-.34-.75-.75-.75h-2.88l1.5 1.5h1.38c.41 0 .75-.34.75-.75zm-4.12 3H8.75c-.41 0-.75.34-.75.75s.34.75.75.75h2.5c.31 0 .57-.18.68-.44l3.55 3.55c.29.29.77.29 1.06 0s.29-.77 0-1.06L3.46 3.46c-.29-.29-.77-.29-1.06 0s-.29.77 0 1.06l1.05 1.05c-.27.11-.45.37-.45.68 0 .41.34.75.75.75h1.13l2.25 2.25H5.75c-.41 0-.75.34-.75.75s.34.75.75.75h2.88L10.88 13z"/></svg>