<svg xmlns="http://www.w3.org/2000/svg" width="20" height="20" viewBox="0 0 20 20"><path d="M10.5 4C8.22 4 6.35 5.71 6.06 7.91l-1.54 2.31a.5.5 0 0 0 .41.78H6v2c0 .55.45 1 1 1h1v2h5v-3.76c1.21-.81 2-2.18 2-3.74C15 6.01 12.99 4 10.5 4zm1.83 4.67c0 .09-.01.18-.02.26l.56.44c.05.04.07.11.03.17l-.53.92c-.03.06-.1.08-.16.06l-.66-.27c-.14.1-.29.19-.45.26l-.1.71c-.01.07-.06.11-.13.11H9.8a.13.13 0 0 1-.13-.11l-.1-.71c-.16-.07-.31-.15-.45-.26l-.66.27c-.06.02-.13 0-.16-.06l-.54-.92c-.03-.06-.02-.13.03-.17l.56-.44c-.01-.09-.02-.18-.02-.26s.01-.18.02-.26l-.56-.44c-.05-.04-.06-.11-.03-.17l.53-.92c.03-.06.1-.08.16-.06l.66.27c.14-.1.29-.19.45-.26l.1-.71c.02-.07.07-.12.14-.12h1.07c.07 0 .12.05.13.11l.1.71c.16.07.31.15.45.26l.66-.27c.06-.02.13 0 .16.06l.53.92c.03.06.02.13-.03.17l-.56.44c.02.09.02.18.02.27z"/><path d="M10.33 7.71c-.52 0-.95.43-.95.95s.43.95.95.95.95-.43.95-.95a.943.943 0 0 0-.95-.95z"/></svg>