<svg xmlns="http://www.w3.org/2000/svg" width="20" height="20" viewBox="0 0 20 20"><path d="m4.65 5.92-.98 1.66.98 1.67h2.04l.99-1.67-.99-1.66zm4.33 2.41L7.99 10l.99 1.67h2.04l.99-1.67-.99-1.67zm-4.33 2.42-.98 1.67.98 1.66h2.04l.99-1.66-.99-1.67zm4.33 2.42-.99 1.66.99 1.67h2.04l.99-1.67-.99-1.66zm4.33-7.25-.99 1.66.99 1.67h2.04l.98-1.67-.98-1.66zM8.98 3.5l-.99 1.67.99 1.66h2.04l.99-1.66-.99-1.67zm4.33 7.25-.99 1.67.99 1.66h2.04l.98-1.66-.98-1.67z" opacity=".3"/><path d="M18.08 7.58 16.2 4.42h-2.89L11.88 2H8.12L6.69 4.42H3.8L1.92 7.58 3.36 10l-1.43 2.42 1.88 3.17H6.7L8.12 18h3.75l1.43-2.42h2.89l1.88-3.17L16.64 10l1.44-2.42zm-11.39 6.5H4.65l-.99-1.67.99-1.67h2.04l.99 1.67-.99 1.67zm0-4.83H4.65l-.98-1.67.99-1.67H6.7l.99 1.67-1 1.67zm4.33 7.25H8.98l-.99-1.67.99-1.67h2.04l.99 1.67-.99 1.67zm0-4.83H8.98L7.99 10l.99-1.67h2.04l.99 1.67-.99 1.67zm0-4.84H8.98l-.99-1.66.99-1.67h2.04l.99 1.67-.99 1.66zm4.33 7.25h-2.04l-.99-1.67.99-1.67h2.04l.99 1.67-.99 1.67zm0-4.83h-2.04l-.99-1.67.99-1.67h2.04l.99 1.67-.99 1.67z"/></svg>