<svg xmlns="http://www.w3.org/2000/svg" width="20" height="20" viewBox="0 0 20 20"><path d="M1.5 15.5h.14C2.93 13.97 4.85 13 7 13s4.07.97 5.36 2.5h6.14v-11h-17v11zm11.08-7.82.5-.87 1.42.82V6h1v1.63l1.42-.82.5.87L16 8.5l1.42.82-.5.87-1.42-.82V11h-1V9.37l-1.42.82-.5-.87L14 8.5l-1.42-.82zM7 7a2.5 2.5 0 0 1 0 5 2.5 2.5 0 0 1 0-5z" opacity=".3"/><path d="M18.5 3h-17C.67 3 0 3.67 0 4.5v11c0 .83.67 1.5 1.5 1.5h17c.83 0 1.5-.67 1.5-1.5v-11c0-.83-.67-1.5-1.5-1.5zM3.85 15.5c.89-.63 1.98-1 3.15-1s2.26.37 3.15 1h-6.3zm14.65 0h-6.14C11.07 13.97 9.15 13 7 13s-4.07.97-5.36 2.5H1.5v-11h17v11z"/><path d="M7 12a2.5 2.5 0 0 0 0-5 2.5 2.5 0 0 0 0 5zm0-3.5c.54 0 1 .46 1 1s-.46 1-1 1-1-.46-1-1 .46-1 1-1zm6.08 1.68 1.42-.81V11h1V9.37l1.42.81.5-.86L16 8.5l1.42-.82-.5-.86-1.42.81V6h-1v1.63l-1.42-.81-.5.86L14 8.5l-1.42.82z"/></svg>