<svg xmlns="http://www.w3.org/2000/svg" width="20" height="20" viewBox="0 0 20 20"><path d="M4.5 5h9c.28 0 .5-.22.5-.5s-.22-.5-.5-.5h-9c-.28 0-.5.22-.5.5s.22.5.5.5zm8.5 9h1v-3h.61c.33 0 .56-.31.49-.62l-1-4a.513.513 0 0 0-.49-.38H4.39c-.23 0-.43.16-.48.38l-1 4a.5.5 0 0 0 .48.62H4v4.5c0 .28.22.5.5.5h5c.28 0 .5-.22.5-.5V11h3v3zm-4 1H5v-4h4v4zm7 0v-1.5c0-.28-.22-.5-.5-.5s-.5.22-.5.5V15h-1.5c-.28 0-.5.22-.5.5s.22.5.5.5H15v1.5c0 .28.22.5.5.5s.5-.22.5-.5V16h1.5c.28 0 .5-.22.5-.5s-.22-.5-.5-.5H16z"/></svg>