<svg xmlns="http://www.w3.org/2000/svg" width="20" height="20" viewBox="0 0 20 20"><path d="m8.76 14.83.41 1.67h1.65l.41-1.67c-.39.1-.8.17-1.23.17s-.84-.07-1.24-.17zm2.46-9.66-.4-1.67H9.18l-.4 1.67c.39-.1.8-.17 1.22-.17s.83.07 1.22.17z" opacity=".3"/><path d="M10 6.5c1.93 0 3.5 1.57 3.5 3.5 0 .41-.08.8-.21 1.16l1.14 1.14c.36-.68.57-1.47.57-2.3 0-1.65-.81-3.1-2.04-4.01L12 2H8l-.75 3.13 1.59 1.59c.36-.14.75-.22 1.16-.22zm-.82-3h1.63l.4 1.67C10.83 5.07 10.42 5 10 5s-.83.07-1.22.17l.4-1.67zm-7.31.49 3.7 3.7C5.21 8.38 5 9.17 5 10c0 1.64.8 3.07 2.01 3.99L8 18h4l.77-3.11 3.24 3.24 1.06-1.06L2.93 2.93 1.87 3.99zm8.96 12.51H9.17l-.41-1.67c.4.1.81.17 1.24.17s.84-.07 1.24-.17l-.41 1.67zM6.71 8.84l4.45 4.45c-.36.13-.75.21-1.16.21-1.93 0-3.5-1.57-3.5-3.5 0-.41.08-.8.21-1.16z"/></svg>