<svg xmlns="http://www.w3.org/2000/svg" width="20" height="20" viewBox="0 0 20 20"><path d="M8.9 10.6c-1.17-2.11-1.49-4.51-.95-6.77C5.37 4.69 3.5 7.13 3.5 10c0 3.59 2.92 6.5 6.5 6.5 1.53 0 3-.55 4.15-1.51-2.2-.74-4.07-2.28-5.25-4.39z" opacity=".3"/><path d="M10.28 2H10c-4.47 0-8 3.62-8 8 0 4.42 3.58 8 8 8 2.97 0 5.55-1.62 6.93-4.02-6.01-.2-9.67-6.74-6.65-11.98zM10 16.5c-3.59 0-6.5-2.92-6.5-6.5 0-2.87 1.87-5.31 4.45-6.17-.54 2.26-.22 4.66.95 6.77a9.434 9.434 0 0 0 5.25 4.39A6.472 6.472 0 0 1 10 16.5z"/></svg>