<svg xmlns="http://www.w3.org/2000/svg" width="20" height="20" viewBox="0 0 20 20"><path d="M3 14.5h14c0-2.49-2.01-4.5-4.5-4.5-2.03 0-3.72 1.35-4.28 3.19-.36-.27-.77-.46-1.22-.58V8h1c1.1 0 2-.9 2-2h6.5c.28 0 .5-.22.5-.5s-.22-.5-.5-.5H10c0-1.1-.9-2-2-2H3.5c-.28 0-.5.22-.5.5s.22.5.5.5H4v1h-.5c-.28 0-.5.22-.5.5s.22.5.5.5H4v1h-.5c-.28 0-.5.22-.5.5s.22.5.5.5H4v5.26c-.42.33-.77.75-1 1.24zM8.5 7H7V6h1.5v1zm0-3v1H7V4h1.5zM5 4h1v1H5V4zm0 2h1v1H5V6zm0 2h1v4.51c-.35.02-.68.08-1 .19V8zm-2.15 8.35.5.5c.1.1.22.15.36.15H16.3c.13 0 .26-.05.35-.15l.5-.5a.5.5 0 0 0-.35-.85H3.21a.5.5 0 0 0-.36.85z"/></svg>