<svg xmlns="http://www.w3.org/2000/svg" width="20" height="20" viewBox="0 0 20 20"><path d="M13.96 11.59C14.09 9.2 12.47 9 12 9c-1.76 0-2.69 2.14-1.41 3.41l-.71.71a2.99 2.99 0 0 1-.12-4.1C9.24 9.06 7 9.56 7 12.03A2.97 2.97 0 0 0 9.97 15h4.95c.98 0 1.46-1.21.73-1.88l-1.69-1.53zm-.41 2.61c-.41 0-.75-.34-.75-.75s.34-.75.75-.75.75.34.75.75-.34.75-.75.75z" opacity=".3"/><path d="m16.32 12.38-1.34-1.21c.13-2.27-2.05-3.63-3.93-3-.35-.1-.71-.17-1.08-.17-2.02 0-3.67 1.52-3.92 3.48A2.242 2.242 0 0 1 4 9.25C4 8.01 5.01 7 6.25 7H8.5c.83 0 1.5-.67 1.5-1.5S9.33 4 8.5 4h-1c-.28 0-.5.22-.5.5s.22.5.5.5h1c.28 0 .5.22.5.5s-.22.5-.5.5H6.25C4.46 6 3 7.46 3 9.25c0 1.72 1.35 3.12 3.04 3.23C6.27 14.46 7.93 16 9.97 16h4.95c1.91 0 2.79-2.35 1.4-3.62zM14.92 15H9.97A2.97 2.97 0 0 1 7 12.03c0-2.47 2.24-2.98 2.76-3.01a2.99 2.99 0 0 0 .12 4.1l.71-.71C9.31 11.14 10.24 9 12 9c.47 0 2.09.2 1.96 2.59l1.69 1.53c.73.67.25 1.88-.73 1.88z"/><circle cx="13.55" cy="13.45" r=".75"/></svg>