<svg xmlns="http://www.w3.org/2000/svg" width="20" height="20" viewBox="0 0 20 20"><path d="M15.25 8h-2.5c-.41 0-.75-.34-.75-.75v-2.5c0-.41.34-.75.75-.75s.75.34.75.75v.69l1.91-1.91c.29-.29.77-.29 1.06 0 .29.29.29.77 0 1.06L14.56 6.5h.69c.41 0 .75.34.75.75s-.34.75-.75.75zM4 7.25c0-.41.34-.75.75-.75h.69L3.53 4.59a.754.754 0 0 1 0-1.06c.29-.29.77-.29 1.06 0L6.5 5.44v-.69c0-.41.34-.75.75-.75s.75.34.75.75v2.5c0 .41-.34.75-.75.75h-2.5C4.34 8 4 7.66 4 7.25zm12 5.5c0 .41-.34.75-.75.75h-.69l1.91 1.91c.29.29.29.77 0 1.06-.29.29-.77.29-1.06 0l-1.91-1.91v.69c0 .41-.34.75-.75.75s-.75-.34-.75-.75v-2.5c0-.41.34-.75.75-.75h2.5c.41 0 .75.34.75.75zM4.75 12h2.5c.41 0 .75.34.75.75v2.5c0 .41-.34.75-.75.75s-.75-.34-.75-.75v-.69l-1.91 1.91c-.29.29-.77.29-1.06 0a.754.754 0 0 1 0-1.06l1.91-1.91h-.69c-.41 0-.75-.34-.75-.75s.34-.75.75-.75z"/></svg>