<svg xmlns="http://www.w3.org/2000/svg" width="20" height="20" viewBox="0 0 20 20"><path d="M14 11c-2.21 0-4 1.79-4 4s1.79 4 4 4 4-1.79 4-4-1.79-4-4-4zm1.5 5.5c-.2.2-.51.2-.71 0l-1.15-1.15a.51.51 0 0 1-.15-.35v-1.5c0-.28.22-.5.5-.5s.5.22.5.5v1.29l1 1c.21.2.21.51.01.71z"/><path d="M14 9.5c.71 0 1.38.14 2 .38V8.5c0-.83-.67-1.5-1.5-1.5H14V5c0-2.21-1.79-4-4-4S6 2.79 6 5v2h-.5C4.67 7 4 7.67 4 8.5v8c0 .83.67 1.5 1.5 1.5h3.9c-.56-.86-.9-1.89-.9-3 0-3.03 2.47-5.5 5.5-5.5zM7.5 5a2.5 2.5 0 0 1 5 0v2h-5V5z"/></svg>