<svg xmlns="http://www.w3.org/2000/svg" width="20" height="20" viewBox="0 0 20 20"><path d="M17.5 3.48c-.16-.53-2.72-1.98-7.5-1.98s-7.34 1.45-7.5 2v1.87C4.4 4.5 7.1 4 10 4c2.9 0 5.6.5 7.5 1.37V3.48z" opacity=".3"/><path d="M10 14.25c-.97 0-1.75-.78-1.75-1.75s.78-1.75 1.75-1.75 1.75.78 1.75 1.75-.78 1.75-1.75 1.75zm.5 1.25h-1c-2.21 0-4-1.79-4-4H4c0 2.33 1.45 4.32 3.5 5.12V20h5v-3.38c2.05-.8 3.5-2.79 3.5-5.12h-1.5c0 2.21-1.79 4-4 4zM19 3.48v3.17c0 .61-.68.95-1.19.61-.1-.07-.2-.13-.31-.19L16 10.5h-1.5L13 5.7c-.94-.13-1.95-.2-3-.2s-2.06.07-3 .2l-1.5 4.8H4L2.5 7.05c-.11.07-.21.13-.31.2-.51.34-1.19.01-1.19-.61V3.48C1 1.56 5.03 0 10 0s9 1.56 9 3.48zM5.84 5.89c-.92.19-1.74.43-2.44.72l1.32 3.03 1.12-3.75zm10.76.72c-.7-.29-1.52-.54-2.44-.72l1.13 3.75 1.31-3.03zm.9-3.13c-.16-.53-2.72-1.98-7.5-1.98s-7.34 1.45-7.5 2v1.87C4.4 4.5 7.1 4 10 4c2.9 0 5.6.5 7.5 1.37V3.48z"/></svg>