<svg xmlns="http://www.w3.org/2000/svg" width="20" height="20" viewBox="0 0 20 20"><path d="M13.5 8.85 10 6.75l-3.5 2.1v3.23l-3 1v3.42h4V15a2.5 2.5 0 0 1 5 0v1.5h4v-3.42l-3-1V8.85zm-3.5 2.4a1.25 1.25 0 1 1 0-2.5 1.25 1.25 0 0 1 0 2.5z" opacity=".3"/><path d="M15 11V8l-4.25-2.55v-1.2h1.75v-1.5h-1.75V1h-1.5v1.75H7.5v1.5h1.75v1.2L5 8v3l-3 1v6h7v-3c0-.55.45-1 1-1s1 .45 1 1v3h7v-6l-3-1zm1.5 5.5h-4V15a2.5 2.5 0 0 0-5 0v1.5h-4v-3.42l3-1V8.85l3.5-2.1 3.5 2.1v3.23l3 1v3.42z"/><circle cx="10" cy="10" r="1.25"/></svg>