<svg xmlns="http://www.w3.org/2000/svg" width="20" height="20" viewBox="0 0 20 20"><path d="M9.25 3.75C9.25 2.78 10.03 2 11 2s1.75.78 1.75 1.75S11.96 5.5 11 5.5s-1.75-.78-1.75-1.75zm-4.35 7 1.64.32.96-4.91-.66-.13a1.5 1.5 0 0 0-1.76 1.18l-.57 2.94c-.05.28.12.54.39.6zM14.5 8c-.28 0-.5.22-.5.5v.91c-2.11-.42-2.13-2.19-3.11-2.97-.21-.17-.45-.29-.7-.36-.81-.23-1.7.27-1.88 1.16-.13.67-1.46 7.41-1.94 9.87-.08.46.27.89.74.89.36 0 .67-.25.73-.6l1.07-5.41 1.58 1.58v3.68c0 .41.34.75.75.75s.76-.34.76-.75v-3.89c0-.27-.11-.52-.29-.71l-1.17-1.17.49-2.48A5 5 0 0 0 14 10.89v6.6c0 .28.22.5.5.5s.5-.22.5-.5v-9c0-.27-.22-.49-.5-.49z"/></svg>