<svg xmlns="http://www.w3.org/2000/svg" width="20" height="20" viewBox="0 0 20 20"><path d="m3.22 12.34.36.72c.14.28.51.37.76.17L5.9 12 5 10.43a.501.501 0 0 0-.86-.02l-.91 1.44a.53.53 0 0 0-.01.49zm1.63-3.59L6.64 12h1.37l-.59-4.49a.5.5 0 0 0-.74-.37l-1.64.93c-.24.13-.33.44-.19.68zm11.93 3.59-.36.72c-.14.28-.51.37-.76.17L14.1 12l.9-1.57c.19-.33.66-.34.86-.02l.91 1.44c.08.15.09.33.01.49zm-1.63-3.59L13.36 12h-1.37l.58-4.49c.05-.35.43-.55.74-.37l1.64.93c.25.13.34.44.2.68zM8.07 6.56 8.69 12h2.62l.62-5.44c.03-.3-.2-.56-.5-.56H8.57c-.3 0-.53.26-.5.56z"/></svg>