<svg xmlns="http://www.w3.org/2000/svg" width="20" height="20" viewBox="0 0 20 20"><path d="M10 3.5c-3.58 0-6.5 2.92-6.5 6.5s2.92 6.5 6.5 6.5 6.5-2.92 6.5-6.5-2.92-6.5-6.5-6.5zm0 12c-.55 0-1-.45-1-1h2c0 .55-.45 1-1 1zm2.5-1.75h-5v-1h5v1zm.12-1.75H7.38C6.54 11.27 6 10.2 6 9c0-2.21 1.79-4 4-4s4 1.79 4 4c0 1.2-.54 2.27-1.38 3z" opacity=".3"/><path d="M10 2c-4.42 0-8 3.58-8 8s3.58 8 8 8 8-3.58 8-8-3.58-8-8-8zm0 14.5c-3.58 0-6.5-2.92-6.5-6.5S6.42 3.5 10 3.5s6.5 2.92 6.5 6.5-2.92 6.5-6.5 6.5z"/><path d="M7.5 12.75h5v1h-5zM10 15.5c.55 0 1-.45 1-1H9c0 .55.45 1 1 1zM10 5C7.79 5 6 6.79 6 9c0 1.2.54 2.27 1.38 3h5.24c.84-.73 1.38-1.8 1.38-3 0-2.21-1.79-4-4-4zm2.22 6H7.78C7.28 10.45 7 9.75 7 9c0-1.65 1.35-3 3-3s3 1.35 3 3c0 .75-.28 1.45-.78 2z"/></svg>