<svg xmlns="http://www.w3.org/2000/svg" width="20" height="20" viewBox="0 0 20 20"><path d="M4.5 4.5v11h2c0-.53.1-1.02.25-1.5H6v-3h3v.19c.74-.43 1.58-.69 2.5-.69h4v-6h-11zM9 9H6V6h3v3zm2 0V6h3v3h-3z" opacity=".3"/><path d="M6 11v3h.75A4.995 4.995 0 0 1 9 11.19V11H6z"/><path d="M4.5 15.5v-11h11v6h1c.17 0 .33.03.5.05V4.5c0-.83-.67-1.5-1.5-1.5h-11C3.67 3 3 3.67 3 4.5v11c0 .83.67 1.5 1.5 1.5h2.25c-.15-.48-.25-.97-.25-1.5h-2z"/><path d="M6 6h3v3H6zm5 0h3v3h-3zm-1.5 9.5c0-1.1.9-2 2-2h1.75V12H11.5C9.57 12 8 13.57 8 15.5S9.57 19 11.5 19h1.75v-1.5H11.5c-1.1 0-2-.9-2-2zm7-3.5h-1.75v1.5h1.75c1.1 0 2 .9 2 2s-.9 2-2 2h-1.75V19h1.75c1.93 0 3.5-1.57 3.5-3.5S18.43 12 16.5 12z"/><path d="M11.75 14.75h4.5v1.5h-4.5z"/></svg>