<svg xmlns="http://www.w3.org/2000/svg" width="20" height="20" viewBox="0 0 20 20"><path d="M8.32 16c-.21 0-.39-.12-.47-.32-.32-.84-1.1-3.11-1.1-5.18 0-4.88 1.98-7.04 2.95-7.79.18-.14.42-.14.6 0 .97.75 2.95 2.91 2.95 7.79 0 2.08-.78 4.35-1.1 5.18-.08.2-.26.32-.47.32H8.32zm3.18-7c0-.82-.67-1.5-1.5-1.5-.82 0-1.5.68-1.5 1.5 0 .83.68 1.5 1.5 1.5.83 0 1.5-.67 1.5-1.5zm-6.92 2.8c-.37.28-.58.72-.58 1.18v4.21c0 .37.39.61.72.45l2.37-1.18c-.5-1.18-1.24-3.4-1.33-5.57l-1.18.91zm10.84 0c.37.28.58.72.58 1.18v4.21c0 .37-.39.61-.72.45l-2.37-1.18c.5-1.18 1.24-3.4 1.33-5.57l1.18.91z"/></svg>