<svg xmlns="http://www.w3.org/2000/svg" width="20" height="20" viewBox="0 0 20 20"><path d="M18.12 11.5c1.13-.87 1.87-2.22 1.87-3.75 0-2.62-2.13-4.75-4.75-4.75-.28 0-.55.04-.81.08C13.75 1.29 12.03 0 10 0S6.25 1.29 5.57 3.08C5.3 3.04 5.03 3 4.75 3 2.13 3 0 5.13 0 7.75c0 1.53.74 2.88 1.87 3.75C.74 12.37 0 13.72 0 15.25 0 17.87 2.13 20 4.75 20c1.24 0 2.36-.49 3.2-1.28.65.18 1.34.28 2.05.28.71 0 1.39-.1 2.05-.27.84.78 1.95 1.27 3.19 1.27 2.62 0 4.75-2.13 4.75-4.75 0-1.53-.74-2.88-1.87-3.75zm-8.12 6c-3.58 0-6.5-2.92-6.5-6.5 0-3.26 2.41-5.96 5.55-6.42C9.29 7.05 11.36 9 13.89 9c.74 0 1.46-.17 2.11-.49.32.77.5 1.61.5 2.49 0 3.58-2.92 6.5-6.5 6.5z"/><circle cx="7.5" cy="11.5" r="1"/><circle cx="12.5" cy="11.5" r="1"/></svg>