<svg xmlns="http://www.w3.org/2000/svg" width="20" height="20" viewBox="0 0 20 20"><path d="M6.75 3c2.37 0 4.33 1.73 4.69 4h3.69l-.66-.66a.754.754 0 0 1 0-1.06c.29-.29.77-.29 1.06 0l1.76 1.76c.39.39.39 1.02 0 1.41l-1.76 1.76c-.29.29-.77.29-1.06 0a.754.754 0 0 1 0-1.06l.66-.66h-3.69c-.74 0-1.36-.54-1.48-1.25A3.25 3.25 0 0 0 6.75 4.5C4.96 4.5 3.5 5.96 3.5 7.75a3.25 3.25 0 0 0 2.73 3.21c.72.11 1.27.67 1.27 1.4v3.89c0 .41-.34.75-.75.75S6 16.66 6 16.25v-3.81c-2.27-.36-4-2.32-4-4.69C2 5.13 4.13 3 6.75 3"/></svg>