<svg xmlns="http://www.w3.org/2000/svg" width="20" height="20" viewBox="0 0 20 20"><path d="m17.85 7.5-.78-5.08a.506.506 0 0 0-.5-.42h-1.14c-.25 0-.46.18-.49.42l-.79 5.08h3.7z"/><path d="M10.8 6.31 7.5 7.75v-.97c0-.36-.38-.61-.71-.46L2.88 8.1c-.54.24-.88.78-.88 1.37v7.03c0 .83.67 1.5 1.5 1.5h13c.83 0 1.5-.67 1.5-1.5v-8h-6.5V6.76c0-.36-.37-.6-.7-.45zm1.7 5.94c0-.41.34-.75.75-.75s.75.34.75.75v2c0 .41-.34.75-.75.75s-.75-.34-.75-.75v-2zm-5 2c0 .41-.34.75-.75.75S6 14.66 6 14.25v-2c0-.41.34-.75.75-.75s.75.34.75.75v2zm3.25 0c0 .41-.34.75-.75.75s-.75-.34-.75-.75v-2c0-.41.34-.75.75-.75s.75.34.75.75v2z"/></svg>