<svg xmlns="http://www.w3.org/2000/svg" width="20" height="20" viewBox="0 0 20 20"><path d="m17 14.88-1.5-1.5v-2.63c0-.41.34-.75.75-.75s.75.34.75.75v4.13zM10 3.75c0-.41-.34-.75-.75-.75H5.12l1.5 1.5h2.63c.41 0 .75-.34.75-.75zm5.03 2.28 1.12 1.12a.5.5 0 0 0 .85-.36V3.5c0-.28-.22-.5-.5-.5h-3.29c-.45 0-.67.54-.35.85l1.12 1.12-3.44 3.44 1.06 1.06 3.43-3.44zm.45 11.57-.6-.6H4.5c-.83 0-1.5-.67-1.5-1.5V5.12l-.6-.6a.754.754 0 0 1 0-1.06c.29-.29.77-.29 1.06 0l13.08 13.08c.29.29.29.77 0 1.06-.29.29-.77.29-1.06 0zm-2.1-2.1-3.91-3.91-.88.88c-.29.29-.77.29-1.06 0a.754.754 0 0 1 0-1.06l.88-.88L4.5 6.62v8.88h8.88z"/></svg>