<svg xmlns="http://www.w3.org/2000/svg" width="20" height="20" viewBox="0 0 20 20"><path d="M6 10c1.66 0 3-1.34 3-3S7.66 4 6 4 3 5.34 3 7s1.34 3 3 3zm5.03 2.37C9.56 11.5 7.84 11 6 11s-3.56.5-5.03 1.37c-.61.35-.97 1.02-.97 1.72V16h12v-1.91c0-.7-.36-1.37-.97-1.72zM16 14.09V16h-2.5v-1.91c0-1.15-.56-2.22-1.48-2.86 1.08.22 2.1.6 3.02 1.14.6.35.96 1.02.96 1.72zM9.38 9.93c.69-.79 1.12-1.8 1.12-2.93s-.43-2.15-1.12-2.94c.2-.04.41-.06.62-.06 1.66 0 3 1.34 3 3s-1.34 3-3 3c-.21 0-.42-.02-.62-.07zM14.5 8.5c0-.41.34-.75.75-.75h3.5c.41 0 .75.34.75.75s-.34.75-.75.75h-3.5c-.41 0-.75-.34-.75-.75z"/></svg>