<svg xmlns="http://www.w3.org/2000/svg" width="20" height="20" viewBox="0 0 20 20"><path d="M8 10c1.66 0 3-1.34 3-3S9.66 4 8 4 5 5.34 5 7s1.34 3 3 3zm0-4.5c.83 0 1.5.67 1.5 1.5S8.83 8.5 8 8.5 6.5 7.83 6.5 7 7.17 5.5 8 5.5zm5.03 6.87C11.56 11.5 9.84 11 8 11s-3.56.5-5.03 1.37c-.61.35-.97 1.02-.97 1.72V16h12v-1.91c0-.7-.36-1.37-.97-1.72zm-.53 2.13h-9v-.41c0-.18.09-.34.22-.42C5.02 12.9 6.5 12.5 8 12.5s2.98.4 4.28 1.16c.14.08.22.25.22.42v.42zm3.75-6.75V6h-1.5v1.75H13v1.5h1.75V11h1.5V9.25H18v-1.5z"/></svg>