<svg xmlns="http://www.w3.org/2000/svg" width="20" height="20" viewBox="0 0 20 20"><path d="M16.25 10.75c.41 0 .75-.34.75-.75s-.34-.75-.75-.75h-.75V4.5h.75c.41 0 .75-.34.75-.75S16.66 3 16.25 3H3.75c-.41 0-.75.34-.75.75s.34.75.75.75h.75v4.75h-.75c-.41 0-.75.34-.75.75s.34.75.75.75h.75v4.75h-.75c-.41 0-.75.34-.75.75s.34.75.75.75h12.5c.41 0 .75-.34.75-.75s-.34-.75-.75-.75h-.75v-4.75h.75zM10 13c-1.24 0-2.25-.99-2.25-2.21 0-.98.39-1.25 2.25-3.41 1.85 2.15 2.25 2.43 2.25 3.41 0 1.22-1.01 2.21-2.25 2.21z"/></svg>