<svg xmlns="http://www.w3.org/2000/svg" width="20" height="20" viewBox="0 0 20 20"><path d="M4.44 8.3c.24.33.71.41 1.05.16L6 8.09V11h-.97c-.27 0-.52-.11-.71-.29l-.51-.51c-.29-.3-.76-.33-1.06-.05-.31.29-.32.78-.02 1.08l.54.54c.47.47 1.1.73 1.77.73h9.93c.66 0 1.3-.26 1.77-.73l.52-.52c.29-.29.32-.77.04-1.07a.76.76 0 0 0-1.08-.02l-.54.54c-.19.19-.45.3-.71.3H14V8.09l.51.37c.33.24.8.17 1.05-.16s.17-.8-.16-1.05l-4.8-3.52a.99.99 0 0 0-1.18 0L4.6 7.26c-.33.24-.4.71-.16 1.04m6.31 2.7h-1.5V9.75c0-.41.34-.75.75-.75s.75.34.75.75V11zm4.59 2.5c1.29 0 1.61.66 2.2.91.27.11.46.38.46.7a.76.76 0 0 1-1.06.7c-.67-.29-.93-.8-1.61-.8-.95 0-1.08 1-2.67 1-1.58 0-1.72-1-2.67-1s-1.08 1-2.67 1c-1.59 0-1.72-1-2.67-1-.68 0-.94.51-1.62.8a.73.73 0 0 1-.3.06.768.768 0 0 1-.73-.76c0-.31.19-.58.46-.7.59-.25.92-.91 2.21-.91 1.58 0 1.72 1 2.67 1s1.08-1 2.67-1c1.58 0 1.72 1 2.67 1 .94 0 1.08-1 2.66-1z"/></svg>