<svg xmlns="http://www.w3.org/2000/svg" width="20" height="20" viewBox="0 0 20 20"><path d="M16.5 5.6h-13V8H2v1.25h5c.27 0 .53.15.66.39l.84 1.54 2.34-4.29c.26-.48 1.05-.48 1.32 0l1.29 2.36H18V8h-1.5V5.6z" opacity=".3"/><path d="m12.34 10.36-.84-1.54-2.34 4.29c-.13.24-.39.39-.66.39s-.53-.15-.66-.39l-1.29-2.36H2V12h1.5v2.4h13V12H18v-1.25h-5c-.27 0-.53-.15-.66-.39z" opacity=".3"/><path d="M16.4 4H3.6C2.72 4 2 4.72 2 5.6V8h1.5V5.6h13V8H18V5.6c0-.88-.72-1.6-1.6-1.6zm.1 10.4h-13V12H2v2.4c0 .88.72 1.6 1.6 1.6h12.8c.88 0 1.6-.72 1.6-1.6V12h-1.5v2.4z"/><path d="M12.16 6.89c-.26-.48-1.05-.48-1.32 0L8.5 11.18l-.84-1.54A.757.757 0 0 0 7 9.25H2v1.5h4.55l1.29 2.36c.13.24.38.39.66.39s.53-.15.66-.39l2.34-4.29.84 1.54c.13.24.38.39.66.39h5v-1.5h-4.55l-1.29-2.36z"/></svg>