<svg xmlns="http://www.w3.org/2000/svg" width="20" height="20" viewBox="0 0 20 20"><path d="M11.58 7.83 5 14.41V15h.59l6.58-6.58zm-2.04.63-.38-.38-.54.54-.67-.66.54-.55-1.05-1.06-.55.55-.66-.67.54-.54L6.08 5 5 6.08l3.46 3.46zm4.25 5.33-.67-.66.55-.55-1.06-1.05-.55.54-.66-.67.54-.54-.4-.4-1.08 1.08L13.92 15 15 13.92l-.67-.67z" opacity=".3"/><path d="m15.71 13.21-3.46-3.46 1.33-1.33-2-2-1.33 1.33-3.46-3.46c-.39-.39-1.03-.39-1.42 0L4.29 5.37c-.39.39-.39 1.03 0 1.42l3.46 3.46L4 14v2h2l3.75-3.75 3.46 3.46c.39.39 1.02.39 1.41 0l1.08-1.08c.4-.39.4-1.03.01-1.42zM5 6.08 6.08 5l.69.69-.54.54.66.67.54-.54 1.06 1.06-.54.54.67.67.54-.54.38.38-1.08 1.07L5 6.08zM5.59 15H5v-.59l6.58-6.58.59.59L5.59 15zm8.33 0-3.46-3.46 1.08-1.08.4.4-.54.54.67.67.54-.54 1.06 1.06-.54.54.67.67.54-.54.66.66L13.92 15zm1.7-8.62c.2-.2.2-.51 0-.71l-1.29-1.29c-.2-.2-.51-.2-.71 0l-1.34 1.34 2 2 1.34-1.34z"/></svg>