<svg xmlns="http://www.w3.org/2000/svg" width="20" height="20" viewBox="0 0 20 20"><circle cx="11.25" cy="10.38" r="1.25"/><path d="M12.78 13.73c.22-.45-.15-.98-.65-.98H12c-.26 0-.47.16-.6.38s-.37.37-.65.37c-.43 0-.66-.31-.73-.58-.22-.9-.77-1.7-1.69-2.44-.7-.56-.98-1.43-.76-2.33.14-.55.77-1.65 2.18-1.65.83 0 1.55.46 1.94 1.13.13.22.36.37.62.37h.12a.7.7 0 0 0 .62-1.04A3.76 3.76 0 0 0 9.75 5C7.81 5 6.47 6.37 6.12 7.8c-.39 1.59.23 3.06 1.36 3.92.52.39.94.93 1.09 1.56.23.94 1.06 1.72 2.18 1.72.89 0 1.66-.52 2.03-1.27z"/><circle cx="10" cy="2.75" r=".75"/><circle cx="10" cy="17.25" r=".75"/><path d="M4.92 5.95c.26-.32.21-.8-.12-1.05s-.8-.21-1.05.11-.21.8.12 1.05.79.21 1.05-.11zm10.16 8.1c-.26.32-.21.8.12 1.05.32.26.8.21 1.05-.12s.21-.8-.12-1.05-.79-.2-1.05.12zm-11.42-2.6a.742.742 0 0 0-.9-.56c-.4.09-.66.49-.56.9.09.4.49.66.9.56.4-.1.66-.5.56-.9zm12.68-2.9c.09.4.49.66.9.56.4-.09.66-.49.56-.9a.742.742 0 0 0-.9-.56c-.4.1-.66.5-.56.9zm-9.16 7.31a.752.752 0 0 0-1 .35c-.18.37-.02.82.35 1 .37.18.82.02 1-.35s.02-.82-.35-1zm5.64-11.72c.37.18.82.02 1-.35s.02-.82-.35-1a.75.75 0 1 0-.65 1.35zm0 11.72c-.37.18-.53.63-.35 1 .18.37.63.53 1 .35s.53-.63.35-1-.63-.53-1-.35zM7.18 4.14c.37-.18.53-.63.35-1a.752.752 0 0 0-1-.35c-.37.18-.53.63-.35 1s.63.53 1 .35zm10.06 6.74c-.4-.09-.81.16-.9.56-.09.4.16.81.56.9.4.09.81-.16.9-.56.09-.4-.16-.81-.56-.9zM2.76 9.12c.4.09.81-.16.9-.56.09-.4-.16-.81-.56-.9-.4-.09-.81.16-.9.56-.09.4.16.81.56.9zm13.38-3.05c.32-.26.38-.73.12-1.05a.748.748 0 1 0-1.18.92c.26.32.73.38 1.06.13zM3.86 13.93a.748.748 0 0 0 .93 1.17c.32-.26.38-.73.12-1.05a.755.755 0 0 0-1.05-.12z"/></svg>