<svg xmlns="http://www.w3.org/2000/svg" width="20" height="20" viewBox="0 0 20 20"><circle cx="8" cy="8" r="1.5" opacity=".3"/><path d="M8 13.5c-1.5 0-2.98.4-4.28 1.16-.14.08-.22.25-.22.42v.41h9v-.41c0-.18-.09-.34-.22-.42A8.488 8.488 0 0 0 8 13.5z" opacity=".3"/><path d="M8 11c1.66 0 3-1.34 3-3S9.66 5 8 5 5 6.34 5 8s1.34 3 3 3zm0-4.5c.83 0 1.5.67 1.5 1.5S8.83 9.5 8 9.5 6.5 8.83 6.5 8 7.17 6.5 8 6.5zm5.03 6.87C11.56 12.5 9.84 12 8 12s-3.56.5-5.03 1.37c-.61.35-.97 1.02-.97 1.72V17h12v-1.91c0-.7-.36-1.37-.97-1.72zm-.53 2.13h-9v-.41c0-.18.09-.34.22-.42C5.02 13.9 6.5 13.5 8 13.5s2.98.4 4.28 1.16c.14.08.22.25.22.42v.42zM16.66 1 15.6 2.06c2.53 2.53 2.53 6.66 0 9.19l1.06 1.06c3.12-3.12 3.12-8.19 0-11.31z"/><path d="m14.54 3.12-1.06 1.06a3.513 3.513 0 0 1 0 4.95l1.06 1.06a5.003 5.003 0 0 0 0-7.07z"/></svg>