<svg xmlns="http://www.w3.org/2000/svg" width="20" height="20" viewBox="0 0 20 20"><path d="M6.5 10.22v5.28h10v-5.28l-5 2.78z" opacity=".3"/><path d="m11.5 11.28 5-2.78h-10z" opacity=".3"/><path d="M12.5 5.5h2.42c-.13-.39-.41-.72-.79-.9L8.5 2 2.87 4.6c-.53.24-.87.77-.87 1.36v6.54c0 .83.67 1.5 1.5 1.5V5.96l5-2.31 4 1.85z"/><path d="M16.5 7h-10C5.67 7 5 7.67 5 8.5v7c0 .83.67 1.5 1.5 1.5h10c.83 0 1.5-.67 1.5-1.5v-7c0-.83-.67-1.5-1.5-1.5zm0 8.5h-10v-5.28l5 2.78 5-2.78v5.28zm-5-4.22-5-2.78h10l-5 2.78z"/></svg>