<svg xmlns="http://www.w3.org/2000/svg" width="20" height="20" viewBox="0 0 20 20"><path d="M10 14.5c.41 0 .75-.34.75-.75v-5c0-.41-.34-.75-.75-.75s-.75.34-.75.75v5c0 .41.34.75.75.75zm-5.25 0c.41 0 .75-.34.75-.75v-5c0-.41-.34-.75-.75-.75S4 8.34 4 8.75v5c0 .41.34.75.75.75zm12.57-9.84-6.65-3.32c-.42-.21-.92-.21-1.34 0L2.68 4.66c-.42.21-.68.64-.68 1.1C2 6.45 2.55 7 3.24 7h13.53C17.45 7 18 6.45 18 5.76c0-.46-.26-.89-.68-1.1zM12.5 15.5H2.75c-.41 0-.75.34-.75.75s.34.75.75.75h9.91c-.05-.22-.16-.71-.16-1.5zm3.5-4.68V8.75c0-.41-.34-.75-.75-.75s-.75.34-.75.75v2.82l1.5-.75zm.78 1.29-2.5 1.25c-.17.09-.28.26-.28.45v1.83c0 2.02 1.28 3.91 3 4.36 1.72-.46 3-2.35 3-4.36v-1.83c0-.19-.11-.36-.28-.45l-2.5-1.25a.487.487 0 0 0-.44 0zm-.72 5.03-.83-.83c-.2-.2-.2-.51 0-.71.19-.19.51-.2.71 0l.47.46 1.65-1.71c.19-.2.5-.2.7-.02.2.19.21.51.02.71l-2 2.08c-.2.21-.52.22-.72.02z"/></svg>