<svg xmlns="http://www.w3.org/2000/svg" width="20" height="20" viewBox="0 0 20 20"><path d="M10 3c-3.87 0-7 3.13-7 7s3.13 7 7 7 7-3.13 7-7-3.13-7-7-7zm0 13c-3.31 0-6-2.69-6-6s2.69-6 6-6 6 2.69 6 6-2.69 6-6 6z"/><path d="M6.72 8.71c.18.4.27.82.28 1.27.01.44-.09.88-.28 1.31l.91.41c.25-.56.38-1.14.37-1.73-.01-.59-.13-1.15-.37-1.68l-.91.42zm4.45-1.99c.55 1.11.83 2.21.83 3.27s-.28 2.17-.83 3.3l.9.44c.62-1.27.93-2.53.93-3.74 0-1.22-.31-2.46-.93-3.71l-.9.44zm-2.23.97c.37.75.56 1.56.56 2.39 0 .83-.19 1.57-.55 2.22l.87.49c.45-.8.68-1.71.68-2.71 0-.99-.23-1.95-.67-2.84l-.89.45z"/></svg>