<svg xmlns="http://www.w3.org/2000/svg" width="20" height="20" viewBox="0 0 20 20"><path d="M10 3c-3.87 0-7 3.13-7 7s3.13 7 7 7 7-3.13 7-7-3.13-7-7-7zm.5 1.04c2.66.22 4.84 2.17 5.37 4.73l-5.37-3.1V4.04zM7 4.81c.75-.43 1.6-.7 2.5-.78v5.68L7 11.15V4.81zm-2.42 7.74A5.89 5.89 0 0 1 4 10c0-1.77.78-3.35 2-4.45v6.18l-1.42.82zm.5.87L10 10.58l2.5 1.44-5.48 3.17c-.77-.45-1.44-1.04-1.94-1.77zM10 16c-.65 0-1.28-.11-1.87-.3l5.37-3.1 1.42.82A5.97 5.97 0 0 1 10 16zm.5-6.29V6.82L16 10c0 .91-.21 1.77-.58 2.55L10.5 9.71z"/></svg>