<svg xmlns="http://www.w3.org/2000/svg" width="20" height="20" viewBox="0 0 20 20"><path d="M14.62 8.99c-.32 0-.61.14-.81.35-1.91-.49-1.98-2.15-2.92-2.91-.26-.21-.57-.34-.89-.4-3.15-.58-4.5 8.23-4.5 8.97h1.6l-1.6 2 1 1L9 15h1.5v3H12v-3l-1.46-3.93.28-2.33c.02.03.91 1.44 2.68 2.02v.25h.75v-.88c0-.21.17-.38.38-.38s.37.16.37.37V18h.75v-7.88c0-.62-.5-1.13-1.13-1.13zM9.34 3.22c-.05.17-.09.34-.09.53 0 .97.79 1.75 1.75 1.75s1.75-.78 1.75-1.75S11.97 2 11 2c-.29 0-.57.08-.81.21a.746.746 0 0 0-.69-.46c-.41 0-.75.34-.75.75 0 .36.26.64.59.72z"/></svg>