<?xml version="1.0" encoding="UTF-8" standalone="no"?>
<svg
   height="1000"
   width="1000"
   version="1.1"
   viewBox="0 0 1000 1000"
   id="svg7"
   sodipodi:docname="clock_02_20.svg"
   xmlns:inkscape="http://www.inkscape.org/namespaces/inkscape"
   xmlns:sodipodi="http://sodipodi.sourceforge.net/DTD/sodipodi-0.dtd"
   xmlns="http://www.w3.org/2000/svg"
   xmlns:svg="http://www.w3.org/2000/svg">
  <defs
     id="defs11" />
  <sodipodi:namedview
     id="namedview9"
     pagecolor="#ffffff"
     bordercolor="#000000"
     borderopacity="0.25"
     inkscape:showpageshadow="2"
     inkscape:pageopacity="0.0"
     inkscape:pagecheckerboard="0"
     inkscape:deskcolor="#d1d1d1" />
  <path
     id="path15"
     style="color:#000000;fill:#000000;stroke-width:60;-inkscape-stroke:none"
     d="M 129 129 L 129 159 L 129 869 L 869 869 L 869 129 L 129 129 z M 629.9043 395 A 30 30 0 0 1 655.88477 410 A 30 30 0 0 1 644.9043 450.98047 L 560 500 L 714.18555 589.01953 A 30 30 0 0 1 725.16602 630 A 30 30 0 0 1 684.18555 640.98047 L 485 525.98047 A 30.003 30.003 0 0 1 470.6582 506.23633 A 30.003 30.003 0 0 1 485 474.01953 L 614.9043 399.01953 A 30 30 0 0 1 629.9043 395 z " />
</svg>
