<?xml version="1.0" encoding="UTF-8" standalone="no"?>
<svg
   height="1000"
   width="1000"
   version="1.1"
   viewBox="0 0 1000 1000"
   id="svg7"
   sodipodi:docname="clock_04_35.svg"
   xmlns:inkscape="http://www.inkscape.org/namespaces/inkscape"
   xmlns:sodipodi="http://sodipodi.sourceforge.net/DTD/sodipodi-0.dtd"
   xmlns="http://www.w3.org/2000/svg"
   xmlns:svg="http://www.w3.org/2000/svg">
  <defs
     id="defs11" />
  <sodipodi:namedview
     id="namedview9"
     pagecolor="#ffffff"
     bordercolor="#000000"
     borderopacity="0.25"
     inkscape:showpageshadow="2"
     inkscape:pageopacity="0.0"
     inkscape:pagecheckerboard="0"
     inkscape:deskcolor="#d1d1d1" />
  <path
     id="path15"
     style="color:#000000;fill:#000000;stroke-width:60;-inkscape-stroke:none"
     d="M 129 129 L 129 159 L 129 869 L 869 869 L 869 129 L 129 129 z M 500 470.00195 A 30.003 30.003 0 0 1 515 474.01953 L 644.9043 549.01953 A 30 30 0 0 1 655.88477 590 A 30 30 0 0 1 614.9043 600.98047 L 510.98047 540.98047 L 410.98047 714.18555 A 30 30 0 0 1 370 725.16602 A 30 30 0 0 1 355.25586 695.26953 A 30 30 0 0 1 359.01953 684.18555 L 474.01953 485 A 30.003 30.003 0 0 1 500 470.00195 z " />
</svg>
