<svg xmlns="http://www.w3.org/2000/svg" width="20" height="20" viewBox="0 0 20 20"><path d="M2 15.25c0 .41.34.75.75.75h14.5c.41 0 .75-.34.75-.75s-.34-.75-.75-.75H2.75c-.41 0-.75.34-.75.75zM10 3c-.41 0-.75.34-.75.75v1c0 .41.34.75.75.75s.75-.34.75-.75v-1c0-.41-.34-.75-.75-.75zm6.3 2.78a.754.754 0 0 0-1.06 0l-.71.71c-.29.29-.29.77 0 1.06.29.29.77.29 1.06 0l.71-.71c.29-.29.29-.77 0-1.06zm-10.89.71-.7-.71a.754.754 0 0 0-1.06 0c-.29.29-.29.77 0 1.06l.71.71c.29.29.77.29 1.06 0 .29-.29.29-.77-.01-1.06zM10 7c-3.31 0-6 2.69-6 6h12c0-3.31-2.69-6-6-6z"/></svg>