<svg xmlns="http://www.w3.org/2000/svg" width="1000" height="1000"><path d="M339 129c-115.82 0-210 94.18-210 210v320c0 115.82 94.18 210 210 210h320c115.82 0 210-94.18 210-210V339c0-115.82-94.18-210-210-210H339zm-72.826 206a30 30 0 0 1 15 4.02L515 474.02l155.885 90a30 30 0 0 1 10.98 40.98 30 30 0 0 1-40.98 10.98L485 525.98l-233.826-135a30 30 0 0 1-14.744-29.896A30 30 0 0 1 240.19 350a30 30 0 0 1 25.983-15z" style="-inkscape-stroke:none" stroke-width="60" stroke-linecap="round" stroke-linejoin="round"/></svg>