<svg xmlns="http://www.w3.org/2000/svg" width="1000" height="1000"><path d="M339 129c-115.82 0-210 94.18-210 210v320c0 115.82 94.18 210 210 210h320c115.82 0 210-94.18 210-210V339c0-115.82-94.18-210-210-210H339zm251 185.115a30 30 0 0 1 15 4.02 30 30 0 0 1 10.98 40.98L525.98 515A30.003 30.003 0 0 1 485 525.98l-233.826-135a30 30 0 0 1-14.744-29.896A30 30 0 0 1 240.19 350a30 30 0 0 1 40.983-10.98l207.846 120 75-129.905a30 30 0 0 1 25.98-15z" style="-inkscape-stroke:none" stroke-width="60" stroke-linecap="round" stroke-linejoin="round"/></svg>