<svg xmlns="http://www.w3.org/2000/svg" width="1000" height="1000"><path d="M339 129c-115.82 0-210 94.18-210 210v320c0 115.82 94.18 210 210 210h320c115.82 0 210-94.18 210-210V339c0-115.82-94.18-210-210-210H339zm71 185.115a30 30 0 0 1 25.98 15l90 155.885 135 233.826A30 30 0 0 1 650 759.81a30 30 0 0 1-40.98-10.983L474.02 515l-90-155.885a30 30 0 0 1-3.764-11.084A30 30 0 0 1 395 318.135a30 30 0 0 1 15-4.02z" style="-inkscape-stroke:none" stroke-width="60" stroke-linecap="round" stroke-linejoin="round"/></svg>