<svg xmlns="http://www.w3.org/2000/svg" width="1000" height="1000"><path d="M339 129c-115.82 0-210 94.18-210 210v320c0 115.82 94.18 210 210 210h320c115.82 0 210-94.18 210-210V339c0-115.82-94.18-210-210-210H339zm161 341a30.003 30.003 0 0 1 15 4.02l233.826 135A30 30 0 0 1 759.81 650a30 30 0 0 1-40.983 10.98L500 534.64l-140.885 81.34a30 30 0 0 1-40.98-10.98 30 30 0 0 1-3.764-11.084 30 30 0 0 1 14.744-29.896l155.885-90a30.003 30.003 0 0 1 15-4.02z" style="-inkscape-stroke:none" stroke-width="60" stroke-linecap="round" stroke-linejoin="round"/></svg>