<svg xmlns="http://www.w3.org/2000/svg" width="1000" height="1000"><path d="M339 129c-115.82 0-210 94.18-210 210v320c0 115.82 94.18 210 210 210h320c115.82 0 210-94.18 210-210V339c0-115.82-94.18-210-210-210H339zm26 107.172a30 30 0 0 1 25.98 15.002L517.32 470H680a30 30 0 0 1 30 30 30 30 0 0 1-30 30H500a30.003 30.003 0 0 1-25.98-15l-135-233.826a30 30 0 0 1-3.764-11.086A30 30 0 0 1 350 240.19a30 30 0 0 1 15-4.02z" style="-inkscape-stroke:none" stroke-width="60" stroke-linecap="round" stroke-linejoin="round"/></svg>