<svg xmlns="http://www.w3.org/2000/svg" width="1000" height="1000"><path d="M339 129c-115.82 0-210 94.18-210 210v320c0 115.82 94.18 210 210 210h320c115.82 0 210-94.18 210-210V339c0-115.82-94.18-210-210-210H339zm160.926 341.38A30.003 30.003 0 0 1 525.98 515l-90 155.885a30 30 0 0 0-.001.002l-44.999 77.94A30 30 0 0 1 350 759.808a30 30 0 0 1-14.744-29.897 30 30 0 0 1 3.764-11.086l45-77.941 90-155.885a30.003 30.003 0 0 1 25.906-14.62z" style="-inkscape-stroke:none" stroke-width="60" stroke-linecap="round" stroke-linejoin="round"/></svg>