<svg xmlns="http://www.w3.org/2000/svg" width="20" height="20" viewBox="0 0 20 20"><path d="M15.66 13.88c-.14-.21-.33-.4-.54-.54-.32-.21-.71-.34-1.12-.34s-.8.13-1.12.34c-.21.14-.4.33-.54.54-.03.04-.04.08-.06.12H7.72l1.36-2.09c.3.05.61.09.92.09s.62-.04.92-.09l.78 1.2c.22-.26.47-.49.76-.66l-.54-.83A5.01 5.01 0 0 0 15 7H5a5.01 5.01 0 0 0 3.08 4.62l-3 4.61a.5.5 0 0 0 .15.69.5.5 0 0 0 .69-.15L7.07 15H12c0 1.1.9 2 2 2s2-.9 2-2c0-.41-.13-.8-.34-1.12zM14 16c-.55 0-1-.45-1-1s.45-1 1-1 1 .45 1 1-.45 1-1 1zM8.64 6h.51c.09-.69.14-.98-.53-1.77-.25-.31-.41-.47-.28-1.23h-.5c-.13.67.02 1.23.53 1.78.14.14.48.4.27 1.22zm1.5 0h.51c.09-.69.14-.98-.53-1.77-.25-.31-.41-.47-.28-1.23h-.5c-.13.67.02 1.23.53 1.78.14.14.48.4.27 1.22zm1.5 0h.51c.09-.69.14-.98-.53-1.77-.25-.3-.41-.47-.28-1.23h-.5c-.13.67.02 1.23.53 1.78.14.14.48.4.27 1.22z"/></svg>