<svg xmlns="http://www.w3.org/2000/svg" width="20" height="20" viewBox="0 0 20 20"><path d="M15.5 7h-.68L13 2h-3v1h2.3l1.46 4H8.75l-.37-1H10V5H6v1h1.32l1.46 4h-.83C7.7 8.19 6.12 6.86 4.2 7.01c-1.64.13-3.01 1.46-3.18 3.1C.8 12.25 2.41 14 4.5 14c1.79 0 3.21-1.29 3.45-3h4.1c.25 1.81 1.83 3.14 3.75 2.99 1.64-.13 3.01-1.46 3.18-3.1C19.2 8.75 17.59 7 15.5 7zm-8.55 4c-.23 1.15-1.22 2-2.45 2C3.1 13 2 11.9 2 10.5S3.1 8 4.5 8c1.23 0 2.23.85 2.45 2H4v1h2.95zm5.1-1H9.84l-.73-2h3.92c-.53.52-.87 1.22-.98 2zm3.45 3c-1.4 0-2.5-1.1-2.5-2.5 0-.94.5-1.73 1.24-2.16l1.03 2.83.94-.34-1.02-2.8c.11-.01.21-.03.31-.03 1.4 0 2.5 1.1 2.5 2.5S16.9 13 15.5 13zm-6 3H7l3.5 2v-1H13l-3.5-2z"/></svg>