<svg xmlns="http://www.w3.org/2000/svg" width="20" height="20" viewBox="0 0 20 20"><path d="M14.45 5.55c-1.11.1-3.74.9-5.86 3.03-2.16 2.16-2.94 4.81-3.04 5.86 1.11-.1 3.73-.9 5.86-3.03 2.16-2.16 2.94-4.81 3.04-5.86z" opacity=".3"/><path d="M7.88 7.88c1.36-1.36 2.94-2.25 4.3-2.76-1.15.07-3.38.42-5.01 2.05-1.43 1.43-1.95 3.41-2.05 4.98.52-1.35 1.41-2.92 2.76-4.27zm4.24 4.24a12.246 12.246 0 0 1-4.3 2.76c1.15-.07 3.38-.43 5.01-2.06 1.43-1.43 1.95-3.41 2.05-4.98a12.38 12.38 0 0 1-2.76 4.28z" opacity=".3"/><path d="M15.3 4.7c-.35-.35-1.34-.6-2.6-.6-1.93 0-4.47.6-6.24 2.37-2.92 2.92-2.65 7.95-1.76 8.83.35.35 1.34.6 2.6.6 1.93 0 4.47-.6 6.24-2.37 2.92-2.92 2.65-7.95 1.76-8.83zm-9.75 9.75c.1-1.05.88-3.7 3.04-5.86 2.13-2.13 4.76-2.94 5.86-3.03-.1 1.05-.88 3.7-3.04 5.86-2.13 2.12-4.75 2.93-5.86 3.03zm1.62-7.28c1.63-1.63 3.86-1.98 5.01-2.06-1.36.52-2.94 1.4-4.3 2.76a12.38 12.38 0 0 0-2.76 4.28c.1-1.57.63-3.55 2.05-4.98zm5.66 5.66c-1.63 1.63-3.86 1.98-5.01 2.06 1.36-.52 2.94-1.4 4.3-2.76a12.38 12.38 0 0 0 2.76-4.28c-.1 1.57-.63 3.55-2.05 4.98z"/></svg>