<svg xmlns="http://www.w3.org/2000/svg" width="20" height="20" viewBox="0 0 20 20"><path d="M11.98 10.54c1.46-1.05 2.8-1.17 4.02-.94V7h-2V5.17c0-2.09-1.53-3.95-3.61-4.15A3.998 3.998 0 0 0 6 5v2H4v11h6.39c-.53-.81-.86-1.78-.89-2.81-.06-1.87.96-3.56 2.48-4.65zM7.5 5a2.5 2.5 0 0 1 5 0v2h-5V5z"/><path d="M15 11c-2.21 0-4 1.79-4 4s1.79 4 4 4 4-1.79 4-4-1.79-4-4-4zm0 1c.83 0 1.5.67 1.5 1.5S15.83 15 15 15s-1.5-.67-1.5-1.5.67-1.5 1.5-1.5zm0 6c-1.09 0-2.03-.58-2.56-1.45.73-.5 1.61-.8 2.56-.8s1.83.3 2.56.8C17.03 17.42 16.09 18 15 18z"/></svg>