<svg xmlns="http://www.w3.org/2000/svg" width="20" height="20" viewBox="0 0 20 20"><path d="m15.82 13.55-.62-5.76A2.01 2.01 0 0 0 13.21 6H6.79c-1.02 0-1.87.77-1.98 1.78l-.62 5.76c-.1.78.5 1.46 1.27 1.46.34 0 .67-.14.91-.38L8 13h4l1.62 1.62c.24.24.57.38.91.38.78 0 1.38-.68 1.29-1.45zm-1.06.35c-.03.04-.1.1-.22.1-.08 0-.15-.03-.21-.09L12.41 12H7.59l-1.91 1.91a.31.31 0 0 1-.22.09c-.11 0-.19-.06-.22-.1-.03-.04-.09-.12-.07-.25l.63-5.76c.06-.51.48-.89.99-.89h6.41c.51 0 .94.38.99.89l.63 5.78a.29.29 0 0 1-.06.23z"/><path d="M8 8h-.5v1.25H6.25v.5H7.5V11H8V9.75h1.25v-.5H8z"/><circle cx="12.5" cy="10.5" r=".5"/><circle cx="11.5" cy="8.5" r=".5"/></svg>