<svg xmlns="http://www.w3.org/2000/svg" width="20" height="20" viewBox="0 0 20 20"><path d="M8 11c1.66 0 3-1.34 3-3S9.66 5 8 5 5 6.34 5 8s1.34 3 3 3zm0-4.5c.83 0 1.5.67 1.5 1.5S8.83 9.5 8 9.5 6.5 8.83 6.5 8 7.17 6.5 8 6.5zm5.03 6.87C11.56 12.5 9.84 12 8 12s-3.56.5-5.03 1.37c-.61.35-.97 1.02-.97 1.72V17h12v-1.91c0-.7-.36-1.37-.97-1.72zm-.53 2.13h-9v-.41c0-.18.09-.34.22-.42C5.02 13.9 6.5 13.5 8 13.5s2.98.4 4.28 1.16c.14.08.22.25.22.42v.42zm0-14.5H11c0 4.42 3.58 8 8 8V7.5c-3.58 0-6.5-2.92-6.5-6.5z"/><path d="M15.5 1H14c0 2.76 2.24 5 5 5V4.5c-1.93 0-3.5-1.57-3.5-3.5z"/></svg>