<svg xmlns="http://www.w3.org/2000/svg" width="435" height="512"><path d="M63.65 200.466v122.338c0 20.554-14.32 37.381-31.817 37.381C14.338 360.185 0 343.375 0 322.804V200.466c0-20.554 14.32-37.381 31.833-37.381 17.513 0 31.817 16.827 31.817 37.381zm11.748-41.609c-4.44-47.926 16.356-85.98 70.568-113.815l-20.52-36.83c-1.671-2.991-1.17-6.467 1.086-7.737 2.256-1.27 5.48.15 7.152 3.142l20.988 37.665c45.716-16.9 86.116-14.04 123.558-.184L299.118 3.6c1.654-2.99 4.896-4.395 7.152-3.142s2.757 4.746 1.086 7.737l-20.42 36.647.033.016c67.966 33.433 74.266 85.986 70.986 114H75.398zm200.244-51.72c8.27 4.767 18.663-1.225 18.663-10.76s-10.393-15.527-18.663-10.76c-8.27 4.768-8.27 16.752 0 21.52zm-129.74 0c8.27 4.767 18.663-1.225 18.663-10.76s-10.393-15.527-18.663-10.76c-8.27 4.768-8.27 16.752 0 21.52zm-71.407 64.07v208.396c1.454 17.596 17.747 31.583 37.365 31.583h20.788v63.433c0 20.554 14.304 37.381 31.817 37.381 17.512 0 31.833-16.827 31.833-37.381v-63.433h42.411v63.433c0 20.554 14.321 37.381 31.834 37.381 17.512 0 31.833-16.827 31.833-37.381v-63.433h19.05c19.602 0 35.794-13.987 37.265-31.583V171.206H74.494zm328.378-8.122c-17.512 0-31.833 16.827-31.833 37.381v122.338c0 20.57 14.32 37.381 31.833 37.381s31.834-16.827 31.834-37.381V200.466c0-20.554-14.321-37.381-31.834-37.381z"/></svg>