<svg version="1.1" xmlns="http://www.w3.org/2000/svg" xmlns:xlink="http://www.w3.org/1999/xlink" x="0px" y="0px" width="512px" height="512px"><path d="M494.4000244,479.2824097H17.6058235C2.2135606,479.0921631-3.643049,465.0362854,2.2572262,454.5310669L240.6641998,41.6399689c5.8733215-10.8278713,22.6042328-12.9192352,30.677475,0l238.3871765,412.8911133C515.9725952,466.6081543,508.8495483,479.2375183,494.4000244,479.2824097z M208.6632843,353.6491089c0,23.329071,16.2967682,28.6625671,32.0009308,28.6625671c14.8152466,0,32.8898621-3.6741943,44.5840149-22.0648499v-38.3418579h-30.3416138C224.3674622,321.9049683,208.6632843,329.4113464,208.6632843,353.6491089z M285.2679749,269.1033936v20.2672424h-42.0357971c-39.9616699,0-78.1059875,16.9486389-78.1059875,67.6958313c0,50.2533264,29.1761627,62.7376404,60.1499176,62.7376404c41.7592316,0,60.6042328-31.5663452,60.6042328-31.5663452h1.7975769l-1.0321045,27.7970886l72.0465393-12.7250366l-0.6321106,17.8968201l46.5001526-42.2728577l-57.3449097-25.1464233l6.5384521,16.7510986l-22.9735107,4.3655701V259.2265625c0-50.2730713-40.9098511-59.2412415-75.0244141-59.2412415c-37.275177,0-73.2465973,4.4840851-73.2465973,4.4840851l0.0000305,37.4846954c8.0374908-1.0001678,39.5220795-4.7133636,64.0018616-4.7133636C271.6577148,237.2407379,285.2679749,248.8954163,285.2679749,269.1033936z"/></svg>