<svg version="1.1" xmlns="http://www.w3.org/2000/svg" xmlns:xlink="http://www.w3.org/1999/xlink" x="0px" y="0px" width="417px" height="512px"><path d="M416.9358826,375.6010742c-80.4916382-34.3610229-97.9071045-146.678009-13.4335938-201.0648804c-30.0910645-44.0022125-76.9591064-50.0323868-93.6365662-50.7090454c-39.8428345-4.0598984-77.8148804,23.4837799-98.0348206,23.4837799c-20.18013,0-51.4055939-22.8867188-84.4619751-22.3095856c-43.4847717,0.6567459-83.5664062,25.2947998-105.9356995,64.2221527c-45.1565132,78.3323517-11.5428705,194.4178009,32.459362,257.9832153c21.5135345,31.0662537,47.1665649,66.0332031,80.8199997,64.759491c32.4394531-1.2736816,44.6788788-20.9960938,83.8848724-20.9960938s50.227066,19.9197388,84.5416107,20.3194275C355.2742004,511.8968201,405.9293213,412.940979,416.9358826,375.6010742z M310.4229736,0c-54.1224976,2.8606303-108.7163544,57.8983574-102.5922852,117.9960022C269.6160583,118.2623138,315.3328857,61.0053253,310.4229736,0z"/></svg>