<svg xmlns="http://www.w3.org/2000/svg" width="512" height="512"><path d="M253.874 171.635c3.234-5.654 1.29-12.915-4.366-16.195l-30.852-17.642c-5.632-3.257-12.915-1.29-16.15 4.343L59.646 390.948c-3.257 5.654-1.29 12.893 4.365 16.127l30.83 17.733c5.654 3.235 12.938 1.267 16.195-4.343l142.838-248.83zm143.313 52.883 43.066 81.564a38.57 38.57 0 0 1 3.551 9.16h57.475c5.903 0 10.721-4.795 10.721-10.698V235.24c0-5.904-4.818-10.699-10.721-10.699l-104.092-.023zm-148.945 0-52.091 90.725h141.345l-42.117-90.725h-47.137zm-117.709 0H10.7c-5.904 0-10.699 4.796-10.699 10.7v69.303c0 5.904 4.795 10.699 10.699 10.699h67.743l52.091-90.702zM84.775 438.402l-30.83-17.688c-5.654-3.234-10.879-.588-11.625 5.881l-5.338 46.437c-.747 6.469 3.053 8.776 8.437 5.111l39.831-27.165c5.406-3.641 5.157-9.319-.475-12.576zm238.109-302.459c-29.262-46.728-68.83-124.245-79.822-118.726-15.38 7.668 32.254 106.24 47.997 143.29s77.289 178.983 89.616 185.18c18.658 11.646 50.992-12.354 40.82-29.26-36.322-69.563-71.974-137.948-98.611-180.484zm133.756 253.58-14.69-28.183c-3.325-6.379-11.152-8.957-17.394-5.79l-17.71 9.115c-6.244 3.234-8.189 10.789-4.366 16.873l18.592 29.36c3.846 6.061 11.943 8.03 17.96 4.41l12.644-7.6c6.039-3.619 8.267-11.807 4.964-18.185zm-4.535 40.815c-4.637 4.434-15.63 14.058-2.307 32.741 13.255 18.729 42.908 19.566 46.821 31.983 0 0 9.297-95.078-44.514-64.724z"/></svg>