<svg version="1.1" xmlns="http://www.w3.org/2000/svg" xmlns:xlink="http://www.w3.org/1999/xlink" x="0px" y="0px" width="512px" height="512px"><path d="M253.8738403,171.635498c3.2344971-5.6547089,1.2892761-12.9153595-4.3654327-16.1950836l-30.8520966-17.6426849c-5.6320801-3.2571106-12.9153595-1.2892761-16.1498413,4.3428345L59.6458778,390.9477844c-3.2571144,5.6546936-1.2892761,12.8927307,4.3654366,16.1272278l30.8294754,17.7331543c5.6547089,3.2344971,12.9379807,1.2666626,16.195076-4.342804L253.8738403,171.635498z M397.1867676,224.5183563l43.0662537,81.5635223c1.6059265,2.9630737,2.7821045,6.0392456,3.5511475,9.1606445h57.4744873c5.9035034,0,10.721344-4.7951965,10.721344-10.6987v-69.3041229c0-5.9035034-4.8178101-10.6987-10.721344-10.6987L397.1867676,224.5183563z M248.2417603,224.5183563l-52.0911865,90.7241669H337.495697l-42.116272-90.7241516L248.2417603,224.5183563z M130.5333099,224.5183563H10.6987114C4.7951913,224.5183563,0,229.3135376,0,235.2170563v69.3041229c0,5.9035034,4.7951913,10.6987,10.6987114,10.6987h67.7434082L130.5333099,224.5183563z M84.7754135,438.4020996l-30.8294792-17.6879272c-5.6547089-3.2344971-10.8796577-0.5880737-11.6260796,5.8808899l-5.338047,46.4364929c-0.7464218,6.4689636,3.0535469,8.7760925,8.4368286,5.1118469l39.831768-27.1652527C90.656311,447.3365479,90.4074936,441.6591797,84.7754135,438.4020996z M322.8839417,135.9430084c-29.2614441-46.7275467-68.8291321-124.2452774-79.8218994-118.7262802c-15.3808136,7.6677914,32.2544556,106.2406845,47.9971924,143.2903442S368.3478088,339.4899292,380.6750793,345.6875c18.6582642,11.6458435,50.9915771-12.3541565,40.819458-29.2612305l0,0C385.1730957,246.863678,349.5207825,178.4793243,322.8839417,135.9430084z M456.6404419,389.5227356l-14.6909485-28.1830444c-3.3249512-6.3785095-11.1510925-8.9570618-17.3938599-5.7904358l-17.7105713,9.115387c-6.2427673,3.2344666-8.1880188,10.7891541-4.365448,16.8736572l18.5926819,29.3592529c3.8452148,6.0618286,11.942749,8.0296631,17.9593811,4.410675l12.6439209-7.5999451C457.7148438,404.0892639,459.9427795,395.9012756,456.6404419,389.5227356z M452.1053467,430.3384705c-4.6368713,4.4332581-15.6296082,14.0576172-2.3070984,32.7407837c13.2546387,18.728363,42.9078979,19.5652771,46.8209839,31.9830017C496.6192322,495.0622559,505.9155579,399.9839478,452.1053467,430.3384705z"/></svg>