<svg version="1.1" xmlns="http://www.w3.org/2000/svg" xmlns:xlink="http://www.w3.org/1999/xlink" x="0px" y="0px" width="512px" height="512px"><path d="M62.3974648,89.8620148c-20.8334656,36.1247787,38.66856,43.6250305,23.5169182,92.1985626c-17.0407181,48.4935303-44.4023056,28.3435364-71.2373962,39.4428101c-21.068449,9.9859467-19.6145706,68.4889832,5.3976393,72.4771423c71.1947021,1.2391052,78.1045074,50.0684814,62.8643875,77.1118774c-25.7580986,30.9990234-28.5220222,44.818634-14.2665558,61.2240906c9.5173874,12.3783569,22.982872,21.2854004,39.0804291,20.8276367c15.6016541-0.4386902,23.6885681-18.1764832,35.7426605-26.2443542c34.7397766-16.9033203,77.4078979,10.0976257,72.6106415,52.3170776c0.2098083,21.113739,12.4546356,31.4894104,32.9008179,32.5956116c19.4543915,1.0490417,41.2829132-1.6578369,45.0693207-24.9283142c1.4999084-9.2181396-2.3845215-25.2311096,2.021759-33.3585205c9.141571-16.8615723,23.803009-28.6475525,44.0012512-32.4430542c31.8092651-3.752533,32.1426086,17.581543,57.2569275,29.7347107c17.3753967,6.6564636,30.7264709-6.5992432,41.8269348-18.0620728c8.0487976-8.3158264,14.2665405-21.6287231,9.8988342-33.1678467c-3.9099426-10.3375244-15.0078735-15.9419556-21.4188843-24.5849915c-15.7288513-21.2049255-7.7529297-69.0094604,26.3969116-79.2861938c9.4356384-2.8394775,19.3781128,0.686615,29.0289917-0.4386902c8.9451904-1.0490112,20.3699036-8.2776489,23.135437-17.5280457c5.3022766-17.7378235,7.7436523-48.2735901-12.3401489-57.905426c-21.3426208-10.242157-45.1645203,2.1392517-61.7009583-19.5115967c-18.7491455-24.5479279-22.606842-49.3447876,6.1987-72.5725098c14.8774414-17.4278259,16.3039246-35.845665-7.1332703-56.0934906c-14.0376587-11.7870674-32.7481995-15.1057549-47.1864014-2.2696762c-22.7375183,25.8389969-44.9882812,32.0892105-79.6294556,5.5692902c-16.5272217-20.9817009-8.425293-33.9408913-10.7761841-47.815834c-4.7409363-27.9809132-47.1483002-33.6827965-67.1558075-20.1028671c-12.4164734,8.430233-12.7025757,24.5087128-13.9613953,37.9742088c-0.3942413,41.5544014-48.1348572,60.0269051-76.2344971,38.1840172C105.0661621,46.9841003,81.0653458,61.4845963,62.3974648,89.8620148z M198.8057556,352.9667664c-73.7470245-42.5159607-73.7470474-149.3830261-0.0000305-191.8990021S365.23703,171.9853058,365.23703,257.0172729S272.5527649,395.4827271,198.8057556,352.9667664z"/></svg>