<svg xmlns="http://www.w3.org/2000/svg" width="512" height="512"><path d="M62.397 89.862c-20.833 36.125 38.669 43.625 23.517 92.199-17.04 48.493-44.402 28.343-71.237 39.442-21.068 9.986-19.615 68.49 5.398 72.478 71.194 1.239 78.104 50.068 62.864 77.111-25.758 31-28.522 44.819-14.267 61.224 9.518 12.379 22.983 21.286 39.08 20.828 15.603-.439 23.69-18.176 35.744-26.244 34.74-16.904 77.407 10.097 72.61 52.317.21 21.114 12.455 31.49 32.901 32.595 19.454 1.05 41.283-1.657 45.07-24.928 1.5-9.218-2.385-25.231 2.021-33.358 9.142-16.862 23.803-28.648 44.001-32.443 31.81-3.753 32.143 17.581 57.257 29.734 17.376 6.657 30.727-6.599 41.827-18.062 8.049-8.316 14.267-21.629 9.899-33.168-3.91-10.337-15.008-15.942-21.419-24.585-15.729-21.205-7.753-69.01 26.397-79.286 9.436-2.84 19.378.687 29.03-.439 8.944-1.049 20.369-8.277 23.134-17.528 5.303-17.737 7.744-48.273-12.34-57.905-21.342-10.242-45.164 2.14-61.7-19.512-18.75-24.547-22.607-49.344 6.198-72.572 14.878-17.428 16.304-35.846-7.133-56.094-14.038-11.787-32.748-15.105-47.187-2.27-22.737 25.84-44.988 32.09-79.629 5.57-16.527-20.982-8.425-33.94-10.776-47.816C288.916-.83 246.508-6.533 226.5 7.047c-12.417 8.43-12.703 24.51-13.961 37.975-.395 41.554-48.135 60.026-76.235 38.184-31.239-36.222-55.24-21.721-73.908 6.656zm136.409 263.105c-73.747-42.516-73.747-149.383 0-191.9s166.431 10.918 166.431 95.95-92.684 138.466-166.431 95.95z"/></svg>