<svg version="1.1" xmlns="http://www.w3.org/2000/svg" xmlns:xlink="http://www.w3.org/1999/xlink" x="0px" y="0px" width="512px" height="512px"><path d="M380.6599426,282.2611694l-69.8566589-39.4973755l71.9344482-41.5951996l-31.8520508-48.5143585l-65.3722534,43.2090454l1.0024414-82.7669296h-59.0442963l-1.351532,79.9831467l-66.3265076-41.4137268l-28.5639801,48.595047l69.8768463,42.079422l-69.8768463,42.0793762l28.584137,48.6152344l69.3926849-42.119751l-1.7348175,80.6488647h59.044281l-0.2420959-79.2368164l63.522583,39.1544189L380.6599426,282.2611694z M55.4623985,194.7739868c-1.7549896-1.7549896,14.5442314-33.1632538,25.8810463-49.9264221l12.1840668-18.0138474c-234.0131989,231.0443115,15.3873596,439.3789368,262.9862061,308.3941345l102.6769714,24.3076172l-37.0766602-76.3319702c105.4732361-114.1347656,128.5102234-245.6793671,12.8094177-324.6731873c-7.1611633-3.7722168-13.616272-6.8787537-14.4231873-6.8787537s3.3948364,3.7697067,9.2792358,8.5328751c20.6256409,16.695591,31.7015991,36.2737312,38.650116,49.7246895C359.078949-33.882267,130.9502563,53.3889999,55.4623985,194.7739868z M383.3630371,365.8753662l35.6470337,57.6037903l-73.4651489-25.7872009C143.9711761,502.7774048-66.3666382,334.5071411,122.5352631,140.0869293c91.9356079-83.470459,215.8559418-98.5775375,276.5122681-59.9883652C488.5245361,137.0233154,485.5197144,261.2227783,383.3630371,365.8753662z"/></svg>