<svg version="1.1" xmlns="http://www.w3.org/2000/svg" xmlns:xlink="http://www.w3.org/1999/xlink" x="0px" y="0px" width="512px" height="512px"><path d="M512,41.6669807L498.8024292,21.614912c-71.7578125,39.2857208-154.9330444,60.0539474-240.5431824,60.0744095C172.6491089,81.6688614,89.4738846,60.900631,17.7160625,21.614912C2.1225796,14.9082851-5.5434003,34.2557564,4.5799012,41.6874504c81.1304398,59.9341927,167.7337036,83.2758331,253.6793518,84.4029083C358.5742798,125.497673,440.7406616,93.1304016,512,41.6669807z M81.0438385,145.405838c16.5737991,144.9103546,205.9295502,218.2523346,216.1328278,337.447937c0.3683167,5.0335083,4.5628662,8.9211426,9.596344,8.9211426h58.5398254c5.2995911-0.0776672,9.6200256-3.9624634,9.6168213-10.1078491c-1.946106-47.6672058-28.0330505-97.6868286-60.8519592-138.0934143c-2.578125-3.2124023-1.4936829-7.1819153,0.4706116-9.1871033c40.4331055-39.4031372,118.4423523-120.079361,120.9467773-188.776062c-0.8457642-7.3657379-5.1532288-10.7223663-13.0133362-9.9646759c-20.7887268,7.9594574-41.9252319,13.9955444-61.1997681,18.4765778c-3.9285583,0.9207611-7.1000671,3.8467102-8.4300537,7.3456116c-14.036499,38.4672699-49.9051208,75.0930176-87.5335083,113.4784241c-4.7804565,4.4336243-9.4889984,4.5789185-14.1183014,0c-37.6283417-38.3649597-73.4765778-74.8679504-87.533493-113.3556671c-1.3095245-3.4989014-4.5014954-6.4248505-8.4300537-7.3456116c-19.2950134-4.5014954-40.4520187-10.7217407-61.220253-18.6607208C87.3577271,133.2552032,80.7768326,137.701767,81.0438385,145.405838z M195.4430237,371.6670227c-5.427002-4.2908936-10.3909912-4.1594543-14.7730713,1.575531c-24.635437,37.4646912-37.3419037,72.8422852-39.1015778,108.3835449c-0.0741119,6.5441895,3.6373596,9.4546509,9.6577454,10.1488647l58.4375-0.0000305c5.013031,0,9.2689819-3.9285583,9.6372833-8.9415894c1.2686005-17.1261292,6.6089935-34.2931824,16.307663-52.3400574c3.3556366-6.2406921,0.7570648-12.0926208-1.1867523-14.609375C224.7845459,403.3616028,212.9988251,389.9799194,195.4430237,371.6670227z M251.5070496,227.0055695c-20.645462-20.0725555-31.7354889-43.4802856-34.1703949-49.9869843c-2.543808-6.5002899,1.9474182-12.4287262,8.1436005-12.4609375c22.0233612,1.4543762,43.8717651,1.4179535,65.5580139,0c7.7461853,0.5053558,10.1034546,7.5778809,8.1436462,12.4609375c-2.4348755,6.5066986-13.5249023,29.9144287-34.1704102,49.9869843C262.1645813,230.0487671,255.8195801,231.0085144,251.5070496,227.0055695z"/></svg>