<svg xmlns="http://www.w3.org/2000/svg" width="455" height="512"><path d="M227.01 0C102.035 0 0 33.6 0 75.32c0 10.996 27.256 168.531 38.068 231.02 4.855 28.01 77.32 69.097 188.953 69.097s184.097-41.088 188.952-69.098c10.813-62.488 38.068-220.023 38.068-231.02C454.041 33.6 351.986 0 227.011 0zm156.934 359.32S328.046 403.59 227 403.59 70.056 359.32 70.056 359.32c-7.076-5.399-15.223-1.865-14.076 8.344 8.67 46.432 15.015 79.38 16.137 84.398C79.686 486.234 146.529 512 226.99 512c80.481 0 147.304-25.787 154.873-59.938 1.122-5.018 7.446-37.966 16.137-84.398 1.415-9.005-6.672-14.326-14.056-8.344zM209.4 287.258c-26.15-15.076-26.15-52.968 0-68.044 26.149-15.075 59.013 3.871 59.013 34.022s-32.864 49.097-59.013 34.022zM154.153 94.434c-96.706-11.864-96.706-41.686 0-53.55s218.244 3.047 218.244 26.775-121.539 38.639-218.244 26.775zM190.84 315.11c-47.997-27.67-47.997-97.223 0-124.894s108.318 7.106 108.318 62.447-60.322 90.117-108.318 62.447z"/></svg>