<svg xmlns="http://www.w3.org/2000/svg" width="512" height="512"><path d="M442.122 243.52h-69.629l18.986-88.184h66.868c43.38 0 53.653 21.43 53.653 38.378 0 23.987-15.456 49.806-69.878 49.806zm43.98 75.83c0 23.986-15.445 49.805-69.89 49.805h-69.629l18.986-88.252h66.823c43.38 0 53.71 21.565 53.71 38.446zm-206.06-154.76H210.47l18.985-88.184h66.755c43.448 0 53.79 21.43 53.79 38.379 0 23.986-15.513 49.806-69.958 49.806zm45.722 82.924c0 23.987-15.433 49.818-69.878 49.818h-69.561l18.94-88.14h66.846c43.38 0 53.653 21.373 53.653 38.322zm-25.842 138.274c0 24.054-15.433 49.806-69.765 49.806h-69.72l18.986-88.253h66.868c43.357 0 53.63 21.498 53.63 38.447zM93.717 164.59H24.19l18.873-88.185h66.868c43.38 0 53.766 21.43 53.766 38.379 0 23.986-15.535 49.806-69.98 49.806zm45.869 82.923c0 23.987-15.557 49.818-69.867 49.818H0l19.008-88.14h66.823c43.425 0 53.755 21.373 53.755 38.322z"/></svg>