<svg version="1.1" xmlns="http://www.w3.org/2000/svg" xmlns:xlink="http://www.w3.org/1999/xlink" x="0px" y="0px" width="512px" height="512px"><path d="M502.2200928,250.7922363c-26.3273315-25.3175812-158.0195312-41.1124115-199.5613708-45.7005615c2.0115662-4.7463379,3.7292786-9.6735077,5.1531982-14.7362823c5.6730042-2.4861755,11.7754517-4.7915497,18.1039429-6.7126923c0.7684631,2.2827606,4.4073181,10.9844055,6.4640503,15.1204987c83.5583496,2.3053741,87.8526306-62.0867462,91.2429199-79.7386475c3.3224182-17.2450485,3.1642151-33.9250946,31.8231506-64.3921204c-42.6945496-12.4535141-104.1032104,19.2792053-124.6707153,66.5166779c-7.7297668-2.8930206-15.4821472-5.0401611-23.144104-6.3510742c-5.492218-22.1496353-34.0832825-83.85215-109.0982056-83.85215c-48.5935516,0-97.593956,20.0702724-134.4346619,55.0576401c-19.8442574,18.8497696-35.4393921,41.2254257-46.355999,66.5392761C5.9668365,179.8682098,0,209.9510193,0,241.9775696c0,111.516571,76.1223755,209.2235413,119.1333237,209.2235413c18.7819901,0,34.9421463-14.0582275,38.7392349-26.6699524c3.1868286,8.6564026,12.9281464,35.5298157,16.1375732,42.3554993c4.7463531,10.1255493,26.6473541,18.8723755,36.2304535,8.3626404c12.3179016,6.8482971,34.9421844,10.9618225,47.2600861-7.3003235c23.73172,5.0175476,44.7286682-9.131073,45.1807251-26.0371399c11.6398315-0.61026,17.3580627-16.9738159,14.8266907-29.9923706c-1.875946-9.5830994-21.901001-44.0054626-29.7211914-55.8713074c15.4595337,12.5891113,54.6507874,16.1376038,59.3971558,0c24.929657,19.572998,63.8044739,9.3118896,66.8782959-6.6222839c30.3088074,7.865387,65.0475769-9.4248657,59.3519592-30.3540344C522.0982666,315.7041931,515.8733521,263.9218445,502.2200928,250.7922363z M375.4473572,164.9511414c-12.8151245-5.0401611-29.0770264-8.2270203-40.4682617-8.2270203c-16.1601868,0-26.0145264,9.1536713-41.2254028,9.1536713c-3.1868591,0-10.8036194,0.0226135-16.9286499-2.169754c4.0230713,4.2265167,9.0180664,6.5092773,18.7141418,6.5092773c5.7860413,0,17.2676697-2.9608002,26.5569458-5.7408142c0.1356201,1.9663391,0.3389893,3.8874817,0.6102295,5.8312378c-17.4032898,4.1587067-35.6653748,15.2335052-40.9541931,18.1039124c-11.7528687-25.9692993-1.6499329-50.5146942,7.6845703-61.8381271C331.2949829,126.6639175,365.1183777,155.4132385,375.4473572,164.9511414z M393.5626221,163.0073853l-6.3962402-5.9894562c-6.5771179-6.1702423-13.4253845-11.7302551-20.4771118-16.6800232c10.4871826-20.7935181,23.6639404-43.5081863,40.2987366-57.5664139c-18.3073425,7.3907318-36.4112854,29.4499741-47.1018677,53.0234909c-5.4469604-3.4580536-10.9844055-6.5544891-16.5669861-9.2440948c14.9170837-31.8457413,49.5654297-58.4252853,87.762207-60.5046387c-25.585083,23.2119141-15.9793701,69.5000916-37.5413208,96.9385071L393.5626221,163.0073853z M341.0024414,184.6936646c-2.8252258-6.1250458-5.6617126-16.2618866-5.3226929-22.2287292c4.7463379-0.1130066,13.8774414,1.6725311,15.3239136,2.0115509c-0.565033,2.802597-0.8588562,8.9502411-0.8588562,9.7413025c0.9040833-1.5595245,3.4128113-6.9161072,4.4299011-9.0406494c9.1310425,1.7403107,21.1325378,4.6559448,28.1616821,7.9331665C374.4641724,178.4669189,360.4398804,184.28685,341.0024414,184.6936646z M190.1304474,143.0594025c-10.3430939-3.7094727-10.3430939-13.0335083,0-16.7429733c10.3431091-3.7094727,23.3421936,0.9525452,23.3421936,8.3714828C213.472641,142.1068573,200.4735565,146.7688599,190.1304474,143.0594025z M224.6149597,146.5197296c0-20.4806061-22.3237305-33.3504791-40.0862579-23.1101761s-17.7625275,35.9800491,0,46.2203445S224.6149597,167.0003357,224.6149597,146.5197296z M283.9897766,112.9221191c-33.3826447,33.834671-20.2058411,76.6422119-8.0462036,95.9666443c-17.2902527,28.7719116-51.2831573,48.4353333-90.7682495,57.3855896c44.3218384,0,70.4041595-11.4138031,85.5698853-22.5790405c9.6734924-7.1421204,14.9170837-14.1712341,17.6066589-18.0813293c65.725647,4.2490997,169.7836914,25.4268646,179.9318237,32.2751465c4.0682983,2.7574158,8.2721863,8.8372803,8.9050293,14.6684875c-49.384613-6.9161072-138.4125671-14.1938477-161.7148743-15.4143066c16.5444336,2.3505859,137.2372742,25.2008362,158.1663818,30.5574341c-6.3736572,10.3741455-20.8839111,17.719696-42.7397461,12.6117249c11.8206787,16.0923767-11.1200256,35.3941956-43.0787659,24.7714233c7.0291443,15.7985535-21.4037781,30.0149841-53.7467651,13.5610046c0.4068298,15.7985535-40.1179199,17.629303-56.1199036,0.1582336c0.3164368,2.0793152,2.2149658,6.0572205,3.028656,7.8201599c-5.1531982,46.1525879-42.9657593,74.7889099-81.6824036,74.7889099c-94.7913589,0-177.3778076-77.0038452-177.3778076-179.4345703c0-108.2845306,80.0324707-189.1080627,176.6093445-189.1080627C253.8616943,52.8695641,278.8591309,96.4229584,283.9897766,112.9221191z"/></svg>