<svg xmlns="http://www.w3.org/2000/svg" width="512" height="512"><path d="m459.681 22.542-405.132.023C27.105 22.565 4.325 50.258 0 86.556v346.157c6.318 32.697 27.83 56.768 53.44 56.768h405.12c25.61 0 47.145-24.07 53.44-56.768V74.238c-7.45-30.071-28.067-51.696-52.319-51.696zm2.752 375.99c-5.073 26.38-22.44 45.797-43.092 45.797H92.636c-20.651 0-37.996-19.406-43.091-45.786V119.367C53.032 90.09 71.396 67.74 93.542 67.74h326.705c19.564 0 36.162 17.436 42.186 41.687v289.106zm-367.465-3.974h144.128v-63.063H158.01V180.596h81.087v-63.063H94.946l.022 277.025zm177.913-213.985h81.088v150.899H272.88v63.063h144.15V117.51H272.88v63.063z"/></svg>