<svg xmlns="http://www.w3.org/2000/svg" width="512" height="512"><path d="M147.234 340.51c-3.308 19.805-4.1 43.805 11.51 44.224 19.992.536 61.7.256 81.225.116.7-3.588.7-4.287.14-3.914-15.774-6.664-42.5-21.995-28.752-45.436-24.032 3.892-53.451 9.24-64.123 5.01zm134.77 2.167c-2.983 19.34-3.17 41.66 11.859 42.057 19.992.536 61.7.256 81.225.116.699-3.634.699-4.333.14-3.937-14.586-6.152-38.61-19.782-31.153-40.356-17.443 10.117-37.836 9.694-62.072 2.12zm-189.06-58.134c-3.96 18.058-23.37 87.26-90.148 104.874L0 395.708s85.442-7.759 135.444-60.277c-15.917-9.4-29.762-27.752-42.5-50.888zm247.822-138.31c-7.828-5.872-17.032-11.371-27.82-16.031-36.791 25.118-56.713 70.134-48.581 115.592C246.667 210 243.05 163.356 277.902 119.67c-9.972-1.84-20.853-3.029-32.737-3.378-34.973 33.808-45.458 86.956-24.209 132.089-26.623-29.548-40.831-77.131-19.083-126.684-16.053 5.08-29.73 13.398-41.404 23.557-15.215 38.678-8.761 83.88 19.293 116.967-23.512-14.721-45.116-41.834-51.447-77.403-24.652 41.637-31.176 86.817-31.176 86.817s28.706 62.328 59.509 62.328 49-8.388 79.104-8.388 53.917 14.702 77.73 14.702S385.596 328.36 382.1 200.93c0 0-4.753-16.439-20.294-34.869-30.477 18.64-51.634 51.004-54.873 88.494-6.974-38.432.214-75.06 33.832-108.323zm104.991-11.464s-28.59 10.95-41.148 33.04c-8.062 14.166-13.002 27.214-13.677 36.255.722 35.137-2.514 63.747-9.62 86.046 0 0 24.134 9.892 49.463-.278 25.105-10.08 61.583 42.733 67.222 55.338L512 346.591c0-.023-8.237-113.856-98.642-138.392 22.815-20.58 33.55-45.078 32.4-73.43zm-14.725 117.58c-7.207-4.164-7.207-14.63 0-18.794s16.264 1.07 16.264 9.397c0 8.328-9.058 13.56-16.264 9.397z"/></svg>