<svg version="1.1" xmlns="http://www.w3.org/2000/svg" xmlns:xlink="http://www.w3.org/1999/xlink" x="0px" y="0px" width="512px" height="512px"><path d="M55.38731,97.9553757l87.7576599,150.0569763c4.3448944-58.4749146,53.0211792-104.6053925,112.5370941-104.8995819l230.0074158-0.0113068C411.8648376-9.7273045,187.2698212-63.0436325,55.38731,97.9553757z M219.361496,509.7239075l88.2781525-152.138916c-15.4333801,7.8750916-32.8921509,12.3218384-51.4031677,12.3218384c-49.0836334,0-90.8692169-31.1723022-106.6647186-74.8022156L43.6651649,113.9771805C-71.1477585,296.5083618,59.8104744,490.4465027,219.361496,509.7239075z M355.96521,310.6963806L239.2756195,511.8510742c220.9071503,6.5864868,315.2227173-206.7536316,254.5831757-350.5101318H317.9587708C379.2085876,204.8709106,377.2092285,270.8498535,355.96521,310.6963806z M208.5503387,338.8916626c-63.3102112-36.499054-63.3102264-128.2420654-0.0000305-164.7411041s142.8776398,9.372467,142.8776398,82.3705597S271.8605347,375.390686,208.5503387,338.8916626z"/></svg>