<svg xmlns="http://www.w3.org/2000/svg" width="512" height="512"><path d="M22.16 293.773V269.08c-.87-14.465-21.512-13.683-22.16 0v24.692c1.627 13.847 20.79 13.47 22.16 0zm244.955 0V269.08c-.87-14.465-21.51-13.683-22.159 0v24.692c1.627 13.847 20.79 13.47 22.16 0zm-183.554.116v-55.587c-1.178-14.258-21.463-13.775-22.159 0v55.587c1.627 13.848 20.79 13.471 22.16 0zm122.427 0v-55.587c-1.178-14.258-21.463-13.775-22.16 0v55.587c1.627 13.848 20.79 13.471 22.16 0zm-61.371-97.724c-1.179-14.258-21.463-13.775-22.16 0v119.938c1.627 13.848 20.79 13.47 22.16 0V196.165zM512 293.773V269.08c-.87-14.465-21.511-13.683-22.16 0v24.692c1.627 13.847 20.79 13.47 22.16 0zm-183.554.116v-55.587c-1.179-14.258-21.463-13.775-22.16 0v55.587c1.627 13.848 20.79 13.471 22.16 0zm122.427 0v-55.587c-1.179-14.258-21.463-13.775-22.16 0v55.587c1.627 13.848 20.79 13.471 22.16 0zM389.5 196.165c-1.178-14.258-21.463-13.775-22.159 0v119.938c1.627 13.848 20.79 13.47 22.16 0V196.165z"/></svg>