<svg xmlns="http://www.w3.org/2000/svg" width="512" height="512"><path d="M245.02 260.493c-20.663 45.518-41.929 91.368-35.954 122.236 28.804 10.428 58.437 11.13 89.148 1.342-25.822-22.925-39.22-73.9-53.194-123.578zM1.58 228.333c-26.957 252.198 297.697 394.64 463.03 174.476-39.712 8.998-80.686 15.801-136.895-1.393C162.16 478.534 4.41 270.862 148.594 133.869 81.224 120.035 21.716 156.377 1.58 228.334zm333.826 136.51C464.453 259.173 345.555 83.41 213.17 127.649c0 0 26.972 26.371 47.098 102.266 15.673 59.1 45.665 132.802 75.138 134.928zm-159.04.439c8.284-34.56 29.087-66.177 60.266-129.592-13.651-39.959-32.621-77.15-58.692-90.232-83.007 62.504-68.03 175.825-1.575 219.824zm298.337-18.093c-22.945 19.306-53.53 25.526-81.844 25.526-7.975.052-15.77-.465-23.1-1.29 120.05-119.533-2.922-335.192-179.43-264.166-45.315-28.53-100.727-26.486-142.317-.18 66.862-94.267 199.083-140.052 323.484-78.833 131.785 64.852 181.38 252.6 103.207 318.943"/></svg>