<svg version="1.1" xmlns="http://www.w3.org/2000/svg" xmlns:xlink="http://www.w3.org/1999/xlink" x="0px" y="0px" width="512px" height="512px"><path d="M223.623291,352.4390869c2.3896484-5.4513245,26.4819031-21.3694153,30.4961395-46.2956238c1.1789093-7.3204041-2.5089722-11.4814758-15.3977356-9.9781494c-66.9430237,3.3366394-93.406601-153.9054108,22.1576691-150.6720734c116.1220093,3.2489471,78.8921814,153.0087433,6.1239624,226.5425873C255.0527039,383.556366,226.8733826,373.6613159,223.623291,352.4390869z M253.730957,250.3356476c7.5491943,6.6138763,19.3517761,5.9903717,22.6253052-4.6764984c2.0521851-12.0513916,0.9647217-24.9406738-3.8970337-38.8371277c-8.5177917-24.3151245-31.350174-18.8153534-30.1522675,9.4643097C242.3451385,231.2588196,247.1088104,243.1710052,253.730957,250.3356476z M389.5273132,415.9970093c27.2409668-3.0544434,49.1411438-15.1262817,67.0671082-23.8237915c40.766571-19.779541,60.756958-46.3746643,54.1698914-104.1707764c-5.1664429-45.3314209-48.7844543-91.2865906-118.1193237-85.701004c-8.4846497,1.4688568-9.6870117,0.4231262-11.6244202-7.5491791c-30.0828247-134.0735168-207.4086456-127.7404633-237.81073-4.5428619c-166.9228821-34.2013702-204.9212799,200.4812164-22.3803482,225.7876129H389.5273132z"/></svg>