<svg xmlns="http://www.w3.org/2000/svg" width="512" height="512"><path d="M485.448 149.528 267.965 4.31c-7.57-4.818-17.206-4.818-24.088 0L25.707 150.216C14.694 157.786.93 163.98.241 178.433v133.518c0 14.453-2.753 30.97 10.323 40.606 31.659 22.712 221.612 147.97 221.612 147.97 11.7 7.571 22.023 15.83 36.476 6.883 12.389-7.57 207.16-137.647 223.677-149.347 10.323-6.882 18.582-12.388 18.582-26.841V189.445c4.292-16.349-4.1-28.472-25.464-39.917zM255.577 308.51l-77.77-51.618 77.77-51.617 77.77 51.617-77.77 51.618zm-21.335-142.465-94.977 64.006-77.082-51.618L234.242 63.498v102.547zM99.348 256.204l-55.06 36.476v-72.952l55.06 36.476zm39.229 26.841 94.976 64.006v102.547L61.495 334.663l77.082-51.618zm139.024 63.318 94.976-64.006 77.082 51.618L277.601 448.91V346.363zm134.894-90.159 55.058-36.476v73.64l-55.058-37.164zm-39.23-26.153-95.664-64.006V64.186l172.058 114.936-76.394 50.93z"/></svg>