<svg version="1.1" xmlns="http://www.w3.org/2000/svg" xmlns:xlink="http://www.w3.org/1999/xlink" x="0px" y="0px" width="512px" height="512px"><path d="M337.0975037,12.61059C302.8947754,0.6706422,244.3086243-1.3153292,206.7089233,4.0098181l-0.0225677-0.0225832c-279.0072632,68.2050247-263.0585938,424.0598145-27.111618,496.4067383c45.9328308,14.2209473,97.6598511,13.4772339,154.3171997,0C557.6517334,426.0534668,583.5682983,102.0960236,337.0975037,12.61059z M337.0749512,313.2312927c-26.5930786,89.9493408-121.9874725,70.6246338-147.6127167,22.9579468h12.7544098c26.2444611-0.0962524,47.4263-21.2781067,54.2282715-41.5222778c8.7184143-25.9479065-5.9843903-61.0665436-30.9542542-110.5827026l34.7416992-53.8846283C325.6863708,233.6960144,344.0254517,289.7216492,337.0749512,313.2312927z M203.1647797,176.1381531c30.6940918,49.9891663,53.5185699,98.6590271,35.7124023,124.3386841c-31.5349884,46.8216248-83.639328,10.3001709-83.0674896-21.9844971C156.1727753,257.9929504,170.3934937,225.2563019,203.1647797,176.1381531z"/></svg>