<svg xmlns="http://www.w3.org/2000/svg" width="512" height="512"><path d="M167.833 58.43c35.369-3.003 41.983 11.64 29.806 16.766-56.516-18.709-70.488 23.594-16.765 19.094 48.9-4.191 48.434-37.257 120.155-43.777 55.887-5.123 87.09 12.109 91.281 33.066 3.26 16.3-10.318 31.33-50.763 35.395-52.864 5.312-80.379-24.506-39.586-30.738 1.862 7.917 11.643 16.3 34.929 13.972 16.765-1.397 30.737-7.452 28.874-16.766-1.863-9.78-19.56-15.369-47.503-13.04-56.818 5.123-70.79 36.326-119.224 40.517-62.96 7.314-97.307-47.7-31.204-54.489zM66.773 87.304c-115.82 44.087 42.73 89.609 203.053 88.953 152.28-.623 308.297-42.538 212.368-84.761 37.443 38.532-87.967 63.794-213.11 63.12-125.426-.674-250.573-27.37-202.312-67.312zM30.445 161.82c3.866 26.096 10.41 51.414 18.956 75.616-10.142 6.118-19.383 14.33-27.805 24.98C5.763 282.441-1.223 305.727.174 328.547c1.397 22.82 12.575 41.45 30.272 55.887 18.629 14.437 38.655 18.628 61.475 14.437 8.849-1.397 18.629-6.054 27.477-8.849-18.628 0-34.463-6.054-50.297-18.628-17.232-12.575-28.686-30.298-31.67-51.695-3.34-23.962.674-45.686 19.13-63.458 13.883 36.806 43.811 80.842 73.083 118.878 7.452 14.437 12.575 28.875 15.835 43.312 41.46 62.44 216.676 54.677 252.187 0 2.794-14.437 8.15-28.875 15.136-43.312 17.231-24.683 34.463-47.503 51.695-73.584 22.82-41.449 38.654-88.952 47.503-139.716-44.098 66.985-437.048 65.238-481.554 0z"/></svg>