<svg version="1.1" xmlns="http://www.w3.org/2000/svg" xmlns:xlink="http://www.w3.org/1999/xlink" x="0px" y="0px" width="512px" height="512px"><path d="M253.0609283,213.4992218c-14.4322815-26.3762817-39.1164856-36.8272095-67.7819519-36.8272095c-41.7043457,0-74.8488007,29.4618225-74.8488007,79.4272919c0,50.7618408,31.1538544,79.4273682,76.2422638,79.4273682c28.9640961,0,53.5487671-15.9252625,67.1847992-40.0123291l-31.7510529-16.1243896c-7.066864,17.0200806-17.8164062,22.0963135-31.4524384,22.0963135c-23.5893097,0-34.3388519-19.6080322-34.3388519-45.3869629s9.0575104-45.3869934,34.3388519-45.3869934c6.7682343,0,20.4042664,3.682785,28.3668976,20.7028809L253.0609283,213.4992218z M366.6280823,231.4151917c-7.9626465-17.0200958-21.5986633-20.7028809-28.3669128-20.7028809c-25.2813416,0-34.3388672,19.6080475-34.3388672,45.3869934s10.8490906,45.3869629,34.3388672,45.3869629c13.6360474,0,24.3855896-5.0762329,31.4524231-22.0963135l31.7510681,16.1243896c-13.6360474,24.0870667-38.2207031,40.0123291-67.1847839,40.0123291c-45.0884399,0-76.2422791-28.6655273-76.2422791-79.4273682c0-49.9654694,33.1444702-79.4272919,74.8488159-79.4272919c28.6654663,0,53.3496704,10.4509277,67.7819519,36.8272095L366.6280823,231.4151917z M151.0793762,436.8422546c-139.2640686-80.287262-139.2641144-282.0953064-0.0000458-362.3825989s314.2893677,20.6166916,314.2893677,181.1912994S290.3434448,517.1295166,151.0793762,436.8422546z M511.6509399,256c0-196.3383179-213.7156982-319.7160034-383.7649841-221.5468445s-170.0492096,344.9245605,0.000061,443.093689S511.6509399,452.3383484,511.6509399,256z"/></svg>