<svg xmlns="http://www.w3.org/2000/svg" width="478" height="512"><path d="M8.468 174.106c8.326 19.256 46.786 26.748 160.84 82.034 0 0-138.266 61.353-142.032 63.634-65.426 49.159 1.505 117.339 47.882 89.544 56.268-37.638 121.936-87.953 130.195-91.072-7.245 92.893-21.792 153.029-10.222 168.134 22.957 39.642 82.396 32.15 91.308-14.655 1.356-7.811-14.805-155.072-14.547-155.351 56.502 39.959 130.147 99.24 146.184 99.012 32.94 6.576 77.895-34.05 50.98-78.03-9.368-15.426-16.684-17.686-161.678-80.7 0 0 145.668-65.915 154.685-74.243 34.044-29.58 7.518-103.934-57.695-81.367-3.895 2.023-132.476 94.688-132.476 94.688s23.035-154.129 10.093-170.136C257.768-16.286 197.986-3.7 190.999 41.092l14.397 153.458-132.218-93.611C28.781 83.974-19.17 125.43 8.468 174.106z"/></svg>