<svg version="1.1" xmlns="http://www.w3.org/2000/svg" xmlns:xlink="http://www.w3.org/1999/xlink" x="0px" y="0px" width="512px" height="512px"><path d="M114.8274536,350.1002808l-0.4354019-232.3427277c-0.0560303-1.8386612,0.005722-4.5929184,1.3520279-4.2393951c1.1916199,0.6187363,314.8164673,314.4956665,314.8164673,314.4956665c0.9853516,0.9853516,1.8790894,2.0624084,3.1394348,2.7269592c0.3088074,0.7044067-0.5631409,1.4757385-5.4768677,3.7123108l-56.0061035,24.8406677c-1.5582886,0.6874695-2.9561157,0.4812012-4.4685364-0.0229187l-239.4924011-84.444519C114.1977539,370.2487183,116.4483261,371.2489929,114.8274536,350.1002808z M118.7689743,110.8828506h229.8677979c8.7901611,0.0492325,21.7518005,1.0078125,24.5198364,3.8269196c1.9707642,3.1852875,86.8048401,245.4734497,88.3172607,249.185791c0.7333069,1.833252,0.5041504,3.5061035-0.2979126,5.3393555l-25.6427307,57.7247314c-0.9307251,1.6636658-1.0289001,2.8663635-2.5665588,1.6957397c0,0-210.2060852-210.2060699-314.5872803-314.5872803C115.5276184,111.1856155,115.2554703,111.3489075,118.7689743,110.8828506z M376.3249207,108.5884628L364.6319885,75.340477c-0.6187439-1.8103409-1.5583191-3.2540131-2.9103699-4.5831528l-59.3746948-58.8246841c-8.4118042-7.2938061-20.4586182-14.6951218-34.1214905-10.9078941c-2.5207214,0.82498-159.8831329,105.5957413-159.8831329,105.5957413l252.2793732,0.0004807c6.3509827-0.0502701,11.6650085,0.9550858,15.2359009,2.7384415c0.7868958,3.026413,88.20578,250.8008423,91.5744019,260.1504822c0.5270996,1.4436646,0.343689,2.6123657-0.3208313,3.9185486c0,0-27.4579163,60.705719-27.7893677,63.1394043l0.4967651,0.1080017c0,0,64.7827759-20.5783691,68.4492798-21.7470398c2.2915649-0.7333679,1.9020081-0.7333679,1.9249573-2.6811829l0.1374817-191.0026398c0.0228882-1.6499634-0.4812622-2.8186646-1.6499634-3.9873505c-31.0141296-30.4310455-80.1892395-81.4565887-86.3694153-86.0486145C409.0306091,121.3414993,394.6296387,113.0155716,376.3249207,108.5884628z M375.2419434,465.3435364c-1.4436646,0.6645508-2.6582642,0.7562256-4.1248474,0.229187c-8.0204773-2.9103394-259.7219543-91.5729065-259.7219543-91.5729065c-0.0186234-0.5183411-0.2490234-1.019989-0.3717346-1.5108948c-2.0634003-5.7904358-2.2675552-15.3847351-2.6811142-27.6592712l-0.0229568-234.6342773c0-1.008316,0.2979355-2.0967941-0.3666077-3.0592575L4.6943879,262.585083c-5.7762647,8.6381836-3.7757506,24.6423035,10.3120995,39.3921204l57.9768143,58.5038757c0.9853592,1.0082397,2.0624237,1.7186279,3.3915558,2.177002l34.0548401,11.8441772c2.8641357,10.5897522,7.0652924,20.7818909,12.3266525,30.3895264c4.3539581,7.9059753,9.3037872,15.4223022,15.8347626,21.769989l84.0549164,83.5966187c0.9624786,1.0083313,1.9936829,1.3978882,3.3914948,1.3978882L412.6404114,512c2.3144531,0,2.3144531-0.0457764,3.0019226-2.245697l23.2595215-72.5513L375.2419434,465.3435364z"/></svg>