<svg version="1.1" xmlns="http://www.w3.org/2000/svg" xmlns:xlink="http://www.w3.org/1999/xlink" x="0px" y="0px" width="412px" height="512px"><path d="M258.4795837,276.5600281l8.3137512-7.1600952c-6.903717,1.6847229-13.9172668,1.721344-20.9857635,1.0804138C237.3290253,270.5902405,247.4190216,274.8569641,258.4795837,276.5600281z M291.3316956,259.1176453c5.0541687-6.9769592,8.7349243-14.6039734,10.0350952-22.4965363c-1.1353455,5.6218567-4.1934814,10.4745941-7.068512,15.6019897c-15.8583374,9.9801483-1.4832764-5.9331665,0-11.976181C277.2496338,261.7088013,291.9543152,253.1295624,291.3316956,259.1176453z M308.1422729,215.3972626c1.0254822-15.2723694-3.0031738-10.4562683-4.3583069-4.6146698C305.3588257,211.6066437,306.6223755,221.5501709,308.1422729,215.3972626z M213.6330261,6.5832396c4.5231171,0.8057351,9.7787323,1.4283533,9.0462189,2.5087729C227.6235504,8.0115929,228.7589111,7.0044203,213.6330261,6.5832396z M210.9136353,325.1972351c-12.2142334-5.7134094-23.3938141-14.356781-32.5865326-24.9229126c4.8710327,7.1417542,10.1449432,14.0820618,16.9387817,19.5391235c-11.5183716-3.9005127-26.8823242-27.8894958-31.3688049-28.8600464c19.8504181,35.5256653,80.5004578,62.2981262,112.27211,49.021759c-14.7047119,0.5310364-33.3648529,0.2929993-49.8824615-5.8049622c-6.3543396-3.2778931-14.7779388-9.7420654-14.8512115-11.8663025C211.1242065,323.1279297,210.5840302,323.9519958,210.9136353,325.1972351z M393.7975464,182.9663544c0.1464844-7.7826996,2.1517334-4.120224,2.9391479-6.0430145c-1.538208-0.8789978-5.548584-6.8487701-7.9841309-18.2938843c1.7763062-2.6919098,4.7245483,6.976944,7.1417542,7.3798065c-1.5565186-9.1011505-4.211792-16.0414886-4.3216858-23.0367584c-7.0318909-14.7046814-2.490448,1.9594116-8.2038574-6.3177032c-7.4897156-23.3663712,6.2078552-5.4204254,7.1417542-16.0231781c11.3535767,16.4443512,17.817749,41.9166412,20.7843323,52.4827728c-2.2707214-12.8734894-5.933136-25.3257904-10.4013367-37.3935089c3.442688,1.4466705-5.548584-26.479454,4.4865112-7.9841232c-10.712616-39.4261703-45.8537598-76.2703171-78.1931152-93.5570374c3.9554443,3.6258163,8.9546814,8.167244,7.1600952,8.8814201c-16.078125-9.5772858-13.2580566-10.328083-15.5470886-14.3567638c-13.1115112-5.3288498-13.9538879,0.4211807-22.6338806,0.0183105c-24.684845-13.0932226-29.4460144-11.7014961-52.1714478-19.9053612l1.0437927,4.8344202c-16.3527985-5.4387226-19.0630188,2.0692768-36.7342834,0.0183105c-1.0804291-0.8423615,5.6584625-3.0398226,11.2070465-3.8455629c-15.8217468,2.0875931-15.0709381-3.1130753-30.544754,0.5676765c3.8089447-2.6735797,7.8376312-4.4498653,11.9212494-6.7205796c-12.8917999,0.7874246-30.7828064,7.5080037-25.2708435,1.391727c-21.0407257,9.3941593-58.3976135,22.5606308-79.3650894,42.227932l-0.6592484-4.4132462c-9.6138916,11.5366898-41.8983154,34.4452515-44.4620209,49.3880081l-2.5637054,0.6043015c-4.9992256,8.4602356-8.2404861,18.0558243-12.1959229,26.7724457c-6.5374546,11.1338196-9.5955982,4.2850571-8.6616745,6.0247269c-12.8551674,26.076561-19.2461243,47.9779587-24.7581005,65.9422379c3.9371262,5.8782196,0.0915632,35.3791656,1.5748487,59.0019073c-6.46421,116.6304016,81.8555374,229.8547668,178.3791656,256.0045776C197.060379,511.6703491,218.10112,511.4872742,235.9921265,512c-21.1139526-6.0430298-23.8424835-3.2046204-44.4070892-10.3647156c-14.8328857-6.9952393-18.092453-14.9610596-28.603653-24.0805359l4.1568756,7.3431702c-20.6195526-7.288269-11.9944916-9.0279236-28.7684784-14.3384705l4.4498596-5.8049622c-6.6839447-0.5127258-17.6895752-11.2619934-20.7110825-17.2134705l-7.306572,0.2929993c-8.7898483-10.8408508-13.459465-18.6418152-13.1115341-24.684845l-2.3622665,4.211792c-2.6735764-4.596344-32.3027191-40.6347656-16.9387894-32.2477722c-2.8567047-2.6186218-6.6473236-4.2484436-10.7675781-11.7197876l3.1313782-3.5708923c-7.39814-9.5223389-13.6059685-21.7182617-13.1481705-25.7835693c3.9554291,5.3288574,6.6839523,6.317688,9.394165,7.2333069c-18.6784401-46.348175-19.7222404-2.5453796-33.8775673-47.1722412l2.98489-0.2380676c-2.2890244-3.460968-3.6807556-7.2149658-5.5302849-10.8957214l1.3001671-12.9833679c-13.4411583-15.5470581-3.7539978-66.125351-1.8129044-93.8500214c1.3367882-11.2803192,11.2253761-23.2931213,18.7333832-42.1180725l-4.5780487-0.7874146c8.7532349-15.2723694,49.973999-61.3092575,69.0736313-58.9469833c9.2476578-11.6099319-1.8312302-0.0366211-3.6441345-2.9665756c20.3082352-21.0224152,26.6991959-14.8511963,40.4150162-18.6418228c14.7779541-8.7715492-12.6903534,3.4243774-5.6767883-3.3511353c25.5638428-6.519146,18.1107788-14.8328857,51.4572754-18.1473961c3.5159607,1.9960327-8.1672363,3.0947647-11.0971832,5.6950912c21.2970734-10.4196396,67.3888855-8.0573692,97.3293457,5.7866554c34.7382202,16.2429276,73.7798462,64.2208786,75.3180542,109.3787766l1.7579956,0.47612c-0.8789978,17.9459534,2.7468262,38.7120056-3.5525818,57.7749939l4.2850342-9.0279236c0.4944458,13.7158356-4.010376,20.381485-8.0939636,32.1562195l-7.3432007,3.6624451c-6.0063782,11.6465759,0.5859985,7.3981323-3.7173462,16.6641235c-9.375824,8.3320312-28.4205322,26.0582581-34.5184937,27.6697083c-4.4498901-0.0915222,3.0215149-5.2556152,3.9920654-7.269928c-12.5255432,8.60672-10.0534058,12.9284058-29.2262878,18.1657104l-0.567688-1.2452393c-47.300415,22.2493286-112.9862823-21.8464661-112.1256104-82.0020447c-0.5127411,3.82724-1.42836,2.8567047-2.490448,4.4132385c-2.4355316-30.9659271,14.3018188-62.0417175,42.5209198-74.7320862c27.6147919-13.6609192,59.9724579-8.057373,79.7496185,10.3647003c-10.8591309-14.2285919-32.4858398-29.3178253-58.1046143-27.9078064c-25.1060333,0.4028778-48.5822601,16.3527985-56.4198914,33.6578369c-12.8551636,8.0940094-14.356781,31.2039795-19.9603119,35.4341125c-7.5446167,55.4127045,14.173645,79.3467865,50.9262238,107.5109406c2.9665833,1.9960327,3.3419647,3.0947571,3.0856018,4.1202393c43.344986,16.1879883,88.1457825,12.2325439,125.6491699-17.8360901c9.5406799-7.4347534,19.9603271-20.0701904,22.9818115-20.2532654c-4.5414124,6.8304443,0.769104,3.2778931-2.7102051,9.3025818c9.5039978-15.327301-4.1385803-6.2444458,9.8336487-26.4794312l5.164032,7.1051636c-1.92276-12.7269897,15.8034363-28.1824799,14.0088196-48.3076172c4.0653076-6.1529083,2.8636169,14.4194794,0.2197266,20.7843628c5.9880981-15.7118683,1.5748596-18.2389679,3.1130981-31.20401c1.6663818,4.3583069,3.84552,8.9913025,4.9625854,13.5876465c-3.9004822-15.1808014,3.9920654-25.5638275,5.9514771-34.3903046C398.8424683,193.3676758,394.7314453,200.8939972,393.7975464,182.9663544z M152.0124512,288.0600891c5.566925,7.5812378,9.9984741,15.7850952,17.1219177,21.6999512c-5.1274109-9.9984436-8.9180298-14.1370239-15.9315948-27.6514282C150.8523712,281.0575867,151.0195312,284.6514282,152.0124512,288.0600891z M166.3875275,281.5958557c-2.9482574-3.259552-4.7062225-7.1966858-6.6473236-11.115509c1.8678436,6.885376,5.6950989,12.7819214,9.2659607,18.8066406L166.3875275,281.5958557z M383.5885315,281.2113037c8.3503723-15.711853,13.7707825-32.8886871,16.0231934-50.3036041l-1.2452698,3.1313782C396.0774536,250.2636871,391.1514893,266.3234863,383.5885315,281.2113037z M235.4977722,0c-7.9291992,0.6592395-15.8217468,1.0529538-23.6227264,2.0601218l3.442688,0.4761176C221.0494537,0.4303361,229.4181366,1.3734159,235.4977722,0z M16.2824173,118.5074158c5.8965302-13.2580338-1.6297903-4.7611771-2.2890253-8.2954254C14.9090061,121.9867325,4.9288549,126.4365921,16.2824173,118.5074158z M4.5443001,148.4478607c-7.3431931,9.394165-3.3877561,11.3901825-4.1568651,17.7811432C3.0427036,158.0617523,3.5188215,153.1723938,4.5443001,148.4478607z"/></svg>