<svg xmlns="http://www.w3.org/2000/svg" width="512" height="512"><path d="M30.851 385.78c71.033-23.384 176.843-16.794 249.086 11.989-52.146-28.475-156.764-71.34-249.086-11.99zM47.03 274.262s-16.485 37.774 6.302 60.254l3.593 3.305s-2.402-1.21-3.593-1.806c-39.427-21.832-34.169-88.645 23.671-94.128-1.865-10.112-2.347-20.68-1.21-31.78-85.542 7.068-98.595 107.475-39.56 144.16 8.548-6.265 20.856-15.602 32.989-21.845-16.552-10.657-24.58-30.816-22.192-58.16zm210.716-96.491h34.47c-17.081-37.467-55.163-63.54-99.508-63.54-59.946 0-108.807 48.265-109.095 107.904 0 6.59.596 13.2 1.806 19.483a53.768 53.768 0 0 1 26.515 9.886s-4.957-43.471 26.207-65.356c30.877-21.884 76.74-8.396 76.74-8.396s-50.592-29.857-86.923-.884c32.391-38.102 94.064-41.859 129.788.903zM29.948 371.696c53.184-28.8 111.077-39.818 168.754-19.483 87.207 30.746 154.67 46.459 228.412 33.874 58.717-10.03 79.045-48.745 84.886-64.116-5.168 12.258-22.71 39.234-79.487 53.318-74.933 18.58-136.379-22.788-233.504-53.05-45.138-13.439-110.842-9.516-169.06 49.457zm356.116-3.305c41.969-1.653 57.843-31.184 57.843-31.184s-13.18 15.294-56.642 19.195c-43.769 3.9-89.92-19.79-89.92-19.79 0 .903 46.762 33.431 88.719 31.779zM261.665 186.745h38.965v38.965h-38.965v-38.965zm154.65 107.904h29.974v29.973h-29.973V294.65zM308.72 151.084h51.858v51.858H308.72v-51.858zm150.463 89.92h51.857v51.858h-51.857v-51.858zm-93.513-33.873h28.782v28.782H365.67V207.13zm19.194 56.949h28.782v28.782h-28.782V264.08zm-60.869 2.709h29.07v28.782h-29.07V266.79zm101.314-58.755h28.782v28.782h-28.782v-28.782z"/></svg>