<svg version="1.1" xmlns="http://www.w3.org/2000/svg" xmlns:xlink="http://www.w3.org/1999/xlink" x="0px" y="0px" width="512px" height="512px"><path d="M278.730835,170.4030762v27.2623291c0,0.9592285,0.1514282,2.2213745-1.2789917,2.305542c-1.480957,0.1009521-1.4725342-1.1191406-1.4725342-2.1119995l-0.0083618-27.708313c0.0167847-0.9592285-0.1346436-2.2550659,1.2957764-2.2886963C279.0505371,167.8114624,278.7139893,169.3428955,278.730835,170.4030762z M323.2782593,245.9630127c1.4304199-0.0841064,1.2789917-1.3462524,1.2789917-2.305481v-27.2623901c-0.0168457-1.0601807,0.3197632-2.5916138-1.4641113-2.5410767c-1.4304199,0.0336304-1.2789307,1.3294678-1.2957764,2.2886963l0.0084229,27.708252C321.8057861,244.8439331,321.7973633,246.0640259,323.2782593,245.9630127z M277.1332397,245.9630127c1.430481-0.0841064,1.2789917-1.3462524,1.2789917-2.305481v-27.2623901c-0.0168457-1.0601807,0.3197632-2.5916138-1.4640503-2.5410767c-1.430481,0.0336304-1.2789917,1.3294678-1.2958374,2.2886963l0.0084229,27.708252C275.6607666,244.8439331,275.6523438,246.0640259,277.1332397,245.9630127z M283.1578979,245.9798584c1.4472656-0.0841675,1.2285156-1.3630981,1.2453613-2.305542v-27.2286377c-0.0168457-1.0265503,0.4375-2.6084595-1.3799438-2.5747681c-1.4136353,0.0167847-1.262146,1.3294678-1.2789917,2.2886353v27.6578369C281.7443237,244.793457,281.677002,246.0471802,283.1578979,245.9798584z M283.3418579,167.8787842c-1.4135742,0.0168457-1.262146,1.3294678-1.2789917,2.2886963v27.6577759c0,0.9760742-0.0673218,2.2297974,1.4135742,2.1624756c1.4473267-0.0841064,1.2285156-1.3630981,1.2453613-2.305481v-27.2286987C284.7049561,169.427002,285.1593628,167.8450928,283.3418579,167.8787842z M270.8057251,245.9293823c1.8006592,0.1346436,1.5313721-1.3631592,1.5482178-2.4401855V216.210022c0-0.9423828,0.21875-2.2550049-1.2116699-2.3560181c-1.8006592-0.1346436-1.5313721,1.3631592-1.5482178,2.4401855v27.270752C269.5940552,244.5073242,269.3753052,245.8283691,270.8057251,245.9293823z M329.3029175,245.9798584c1.4472656-0.0841675,1.2284546-1.3630981,1.2453003-2.305542v-27.2286377c-0.0168457-1.0265503,0.437561-2.6084595-1.3799438-2.5747681c-1.4135742,0.0167847-1.262146,1.3294678-1.2789917,2.2886353v27.6578369C327.8892822,244.793457,327.8220215,246.0471802,329.3029175,245.9798584z M237.2094727,199.9877319c1.4472656-0.0841064,1.2285156-1.3630981,1.2453003-2.305481v-27.2286987c-0.0167847-1.0265503,0.437561-2.6084595-1.3799438-2.5747681c-1.4135742,0.0168457-1.262146,1.3294678-1.2789307,2.2886963v27.6577759C235.7958984,198.8013306,235.7285767,200.0550537,237.2094727,199.9877319z M251.4696655,243.4891968c0.0168457,1.043396-0.3533936,2.5916138,1.480896,2.4401855c1.4135742-0.1177979,1.1611938-1.4472656,1.1611938-2.3896484v-27.2286987c0-1.0601807,0.2692261-2.5916138-1.5145874-2.4401855c-1.4304199,0.1177979-1.1275024,1.4641113-1.1275024,2.3897095V243.4891968z M264.882019,245.9714355c1.4304199,0.0083008,1.3799438-1.2200928,1.3799438-2.2129517V216.041748c0-0.9928589,0.0673218-2.2382202-1.3799438-2.2382202c-1.4472046,0-1.3799438,1.2285156-1.3799438,2.2213745v27.6998901C263.5020752,244.7177124,263.4346924,245.9630127,264.882019,245.9714355z M258.7901001,245.9798584c1.4472656,0.0336304,1.3967896-1.2116699,1.3967896-2.2045288v-27.6998901c0-0.9760742,0.0841064-2.2213745-1.3463135-2.2550659c-1.4472656-0.0336304-1.3967896,1.2116699-1.3967896,2.2045898v27.6998291C257.4437866,244.7008667,257.3596802,245.946228,258.7901001,245.9798584z M283.4424438,153.961731c1.4472656-0.0841064,1.2285156-1.3630981,1.2453613-2.305481v-27.2286987c-0.0168457-1.0265503,0.437561-2.6083984-1.3799438-2.5747681c-1.4136353,0.0168457-1.262146,1.3294678-1.2789917,2.2886963v27.6577759C282.0288696,152.7753296,281.9615479,154.0290527,283.4424438,153.961731z M277.4178467,153.9449463c1.4304199-0.0841675,1.2789917-1.3463135,1.2789917-2.305542v-27.2623291c-0.0168457-1.0601807,0.3197021-2.5916138-1.4641113-2.5411377c-1.4304199,0.0336304-1.2789917,1.3294678-1.2957764,2.2886963l0.0083618,27.708313C275.9453125,152.8258057,275.9368896,154.0458984,277.4178467,153.9449463z M311.0270386,245.9714355c1.4304199,0.0083008,1.3799438-1.2200928,1.3799438-2.2129517V216.041748c0-0.9928589,0.0673218-2.2382202-1.3799438-2.2382202s-1.3799438,1.2285156-1.3799438,2.2213745v27.6998901C309.6470947,244.7177124,309.5797119,245.9630127,311.0270386,245.9714355z M271.090271,153.9112549c1.8006592,0.1346436,1.5313721-1.3630981,1.5482178-2.4401245v-27.2792358c0-0.9423828,0.21875-2.2550049-1.2116699-2.355957c-1.8006592-0.1346436-1.5313721,1.3630981-1.5482178,2.4401245v27.270752C269.8786011,152.4891968,269.6598511,153.8103027,271.090271,153.9112549z M304.9351196,245.9798584c1.4472656,0.0336304,1.3967285-1.2116699,1.3967285-2.2045288v-27.6998901c0-0.9760742,0.0841675-2.2213745-1.3462524-2.2550659c-1.4472656-0.0336304-1.3967896,1.2116699-1.3967896,2.2045898v27.6998291C303.5888062,244.7008667,303.5046387,245.946228,304.9351196,245.9798584z M271.4608765,167.8619385c-1.8007202-0.1346436-1.5314331,1.3630981-1.5482788,2.4401245v27.270752c0,0.9423828-0.21875,2.2634888,1.2116699,2.3644409c1.8006592,0.1346436,1.5313721-1.3630981,1.5482178-2.4401855v-27.2791748C272.6724854,169.2755127,272.8912354,167.9628906,271.4608765,167.8619385z M231.1848145,199.9709473c1.4304199-0.0841675,1.2789917-1.3463135,1.2789917-2.305542v-27.2623291c-0.0168457-1.0601807,0.3197632-2.5916138-1.4641113-2.5411377c-1.4304199,0.0336304-1.2789307,1.3294678-1.2957764,2.2886963l0.0084229,27.708313C229.7123413,198.8518066,229.7039185,200.0718994,231.1848145,199.9709473z M265.166626,153.9533081c1.4304199,0.0083618,1.3799438-1.2200317,1.3799438-2.2129517v-27.7167358c0-0.9928589,0.0673218-2.2381592-1.3799438-2.2381592s-1.3799438,1.2284546-1.3799438,2.2213745v27.6998901C263.7866821,152.699585,263.7192993,153.9448853,265.166626,153.9533081z M297.614624,243.4891968c0.0168457,1.043396-0.3533936,2.5916138,1.480957,2.4401855c1.4135742-0.1177979,1.1611938-1.4472656,1.1611938-2.3896484v-27.2286987c0-1.0601807,0.2692261-2.5916138-1.5145874-2.4401855c-1.4304199,0.1177979-1.1275635,1.4641113-1.1275635,2.3897095V243.4891968z M316.9506836,245.9293823c1.8006592,0.1346436,1.5314331-1.3631592,1.5482788-2.4401855V216.210022c0-0.9423828,0.21875-2.2550049-1.2116699-2.3560181c-1.8006592-0.1346436-1.5314331,1.3631592-1.5482178,2.4401855v27.270752C315.7390747,244.5073242,315.5202637,245.8283691,316.9506836,245.9293823z M259.1591797,167.8283081c-1.4472656-0.0336914-1.3967896,1.2116089-1.3967896,2.2045288v27.6998901c0,0.9760132-0.0841675,2.2213745,1.3462524,2.2550049c1.4472656,0.0336914,1.3967896-1.2116089,1.3967896-2.2045288V170.083313C260.5054321,169.1072388,260.5895996,167.8619385,259.1591797,167.8283081z M259.074646,153.961731c1.4472656,0.0336914,1.3967896-1.2116089,1.3967896-2.2045288V124.057312c0-0.9760742,0.0841675-2.2213745-1.3463135-2.2550049c-1.4472656-0.0336914-1.3967285,1.2116089-1.3967285,2.2045288v27.6998901C257.7283936,152.6827393,257.6442261,153.9281006,259.074646,153.961731z M265.2006226,167.8114624c-1.4472656,0-1.3799438,1.2284546-1.3799438,2.2213745v27.6998901c0,0.9928589-0.0673828,2.2381592,1.3799438,2.246582c1.4304199,0.0083618,1.3799438-1.2200317,1.3799438-2.2129517v-27.7167358C266.5805664,169.0567627,266.6478882,167.8114624,265.2006226,167.8114624z M254.4302979,170.3189087c0-1.0601807,0.2692871-2.5916138-1.5145874-2.4401245c-1.4304199,0.1177979-1.1275024,1.4640503-1.1275024,2.3896484v27.2286987c0.0168457,1.043335-0.3533936,2.5916138,1.480896,2.4401245c1.4136353-0.1177979,1.1611938-1.4472656,1.1611938-2.3896484V170.3189087z M251.7542114,151.4711304c0.0168457,1.043335-0.3533936,2.5916138,1.480896,2.4401245c1.4136353-0.1177979,1.1611938-1.4472656,1.1611938-2.3896484v-27.2286987c0-1.0601807,0.2692871-2.5916138-1.5145874-2.4401245c-1.4304199,0.1177979-1.1275024,1.4640503-1.1275024,2.3896484V151.4711304z M225.2172852,213.8540039c-1.8006592-0.1346436-1.5313721,1.3631592-1.5482178,2.4401855v27.270752c0,0.9423828-0.21875,2.2634277,1.2116089,2.3644409c1.8007202,0.1346436,1.5314331-1.3631592,1.5482788-2.4401855V216.210022C226.4289551,215.2676392,226.6477051,213.9550171,225.2172852,213.8540039z M162.1097412,216.3110352c0-1.0601807,0.2692871-2.5916138-1.5145874-2.4401855c-1.4304199,0.1177979-1.1275024,1.4641113-1.1275024,2.3897095v27.2286377c0.0168457,1.043396-0.3533936,2.5916138,1.480896,2.4401855c1.4136353-0.1177979,1.1611938-1.4472656,1.1611938-2.3896484V216.3110352z M145.0963135,245.9800415c1.4472656-0.0841675,1.2284546-1.3631592,1.2453003-2.305542v-27.2286377c-0.0168457-1.0265503,0.437561-2.6084595-1.3799438-2.5748291c-1.4135742,0.0168457-1.262146,1.3294678-1.2789307,2.2886963v27.6578369C143.6827393,244.7936401,143.6154175,246.0473633,145.0963135,245.9800415z M139.0716553,245.9631958c1.4304199-0.0841064,1.2789917-1.3462524,1.2789917-2.305481v-27.2623901c-0.0168457-1.0601807,0.3197632-2.5916138-1.4641113-2.5410767c-1.4304199,0.0336304-1.2789307,1.3294678-1.2957764,2.2886353l0.0084229,27.708313C137.5991821,244.8441162,137.5907593,246.0641479,139.0716553,245.9631958z M184.946167,213.8540649c-1.4304199,0.0336304-1.2789917,1.3294678-1.2957764,2.2886963l0.0083618,27.708252c0,0.9929199-0.0084229,2.2130127,1.4725342,2.1119995c1.4304199-0.0841064,1.2789307-1.3462524,1.2789307-2.305481v-27.2623901C186.3934326,215.3349609,186.7299805,213.8035278,184.946167,213.8540649z M179.1402588,213.8540039c-1.8006592-0.1346436-1.5313721,1.3631592-1.5482178,2.4401855v27.270752c0,0.9423828-0.21875,2.2634277,1.2116699,2.3644409c1.8006592,0.1346436,1.5313721-1.3631592,1.5482178-2.4401855V216.210022C180.3519287,215.2676392,180.5706787,213.9550171,179.1402588,213.8540039z M166.838562,213.8203735c-1.4472656-0.0336304-1.3967285,1.2116699-1.3967285,2.2045898v27.6998291c0,0.9760742-0.0841675,2.2214355,1.3462524,2.2550659c1.4472656,0.0336304,1.3967896-1.2116699,1.3967896-2.2045288v-27.6998901C168.1848755,215.0993652,168.269043,213.8540649,166.838562,213.8203735z M172.8800659,213.8035278c-1.4472656,0-1.3799438,1.2285156-1.3799438,2.2213745v27.6998901c0,0.9929199-0.0673828,2.2382202,1.3799438,2.2466431c1.4303589,0.0083008,1.3799438-1.2200928,1.3799438-2.2129517V216.041748C174.2600098,215.0488892,174.3272705,213.8035278,172.8800659,213.8035278z M191.0213013,213.8709106c-1.4136353,0.0167847-1.262146,1.3294678-1.2789917,2.2886353v27.6578369c0,0.9760742-0.0673218,2.2297974,1.4135742,2.1624756c1.4472656-0.0841675,1.2285156-1.3630981,1.2453613-2.305542v-27.2286377C192.3843994,215.4191284,192.8387451,213.8372192,191.0213013,213.8709106z M204.536499,325.6779785c0,8.5334473-9.2996826,13.895813-16.6992798,9.6290894s-7.3995972-14.9914551,0-19.2581787C195.2368164,311.7822266,204.536499,317.1445312,204.536499,325.6779785z M201.3547974,325.9832764c-0.0673218-1.7333374,0.2860718-3.2984009-2.6757202-2.1372681c-2.524353,0.9929199-4.4091187-1.0097046-3.5509033-3.5844727c1.0770264-3.2647705-1.0097046-2.5411377-2.5074463-2.4569702c-4.2072144,0.2355957-7.3373413,3.8873901-7.1690063,8.1619263c0.1682739,4.4091187,3.7695923,7.7748413,8.1787109,7.6906738C197.8712769,333.5730591,201.2538452,330.2072754,201.3547974,325.9832764z M113.40802,243.4893799c0.0168457,1.043396-0.3533936,2.5916138,1.480957,2.4401855c1.4135742-0.1177979,1.1611938-1.4472656,1.1611938-2.3896484v-27.2286987c0-1.0602417,0.2692261-2.5916138-1.5145874-2.4401855c-1.4304199,0.1177979-1.1275635,1.4641113-1.1275635,2.3896484V243.4893799z M429.3650513,283.1881104c-0.7404785,1.480896-1.4136353,2.5411377,1.1948242,2.6757202c14.6913452,0.7236328,28.9115601-0.6226807,41.6339722-8.9191284c2.4064941-1.5819092,4.5269165-3.5845337,7.1185303-5.6712646c-0.2524414,10.8881226,8.1113892,13.4460449,15.8861694,16.2732544c4.6952515,1.699646,14.5231323,4.4764404,14.5231323,4.4764404l-81.6524048-0.0673218c-2.5916138-0.0168457-4.1398315,0.6226807-5.5702515,2.9113159c-32.5633545,52.0340576-79.4983521,83.9579468-138.6004028,98.649292c-30.3756104,7.5392456-61.2729492,10.4842529-92.4732056,7.7075195c-40.2371826-3.5844727-75.2575073-18.326355-101.7794189-50.0482788c-13.4460449-16.0713501-21.9949951-34.4986572-25.7477417-55.0800781c-0.5722046-3.0964355-1.5314331-4.2071533-4.8803101-4.1734619L0,292.0062256c7.0679932-2.4401245,14.4725952-3.8200684,21.2040405-7.185791c6.5463257-3.2815552,8.5657959-6.2770996,9.1884155-13.664856c7.4887695,7.6401978,16.6434937,11.5444336,26.7238159,13.5639038c5.1327515,1.0264893,5.0991211,1.0264893,4.6447144-4.005249c-0.8582153-9.5418091-0.2019653-19.0499878,0.5216675-28.5749512c0.2019653-2.6589355,1.5650635-2.8609009,3.7023315-2.8440552l32.5465088,0.1009521c2.8776855,0.0505371,3.6350098-0.8077393,3.6013184-3.6349487l-0.1514282-39.4967651c-0.0673218-3.567627,1.1106567-4.2576294,4.3754272-4.2071533l38.2009277,0.1346436c2.8609009,0.0336914,3.6350098-0.7909546,3.6013184-3.6181641l-0.1346436-38.2009277c-0.0504761-3.3152466,0.7236328-4.3585815,4.223999-4.3417969l83.3352661,0.168335c3.7695923,0.0167847,4.8634644-0.8414307,4.7793579-4.7288818l-0.168335-37.7633667c-0.0336304-2.9281616,0.6226807-3.9884033,3.786438-3.9547119h48.1803589c3.2479248-0.0336914,3.7359619,1.1611328,3.7191162,4.005188l-0.0336304,82.4602051c0.0167847,6.6641235-0.9424438,5.8395386,6.0919189,5.8731689c11.7127075,0.0504761,23.4422607,0.1514282,35.1549683-0.0673218c3.6517944-0.0673218,4.9644165,0.6226807,4.8634644,4.6615601c-0.3197021,12.8570557,0,25.7477417-0.2019043,38.6216431c-0.0504761,3.2984009,0.9087524,4.1062012,4.1229858,4.0725098c15.8862305-0.1514282,31.8397217,0.6731567,47.3052368-4.2407837c5.6712646-1.8006592,11.1741943-3.9210815,16.4920654-6.5463257c2.0025635-0.9929199,2.6588745-1.7333984,1.2453003-4.1062012c-12.1502686-20.4299316-12.1671143-41.6339722-3.2816162-63.1746216c2.2213745-5.4019775,6.09198-9.7605591,10.2822876-13.7825928c4.6615601,2.4064941,8.3469849,6.0582886,12.0997925,9.5922852c11.2919922,10.6525269,19.7062988,23.0552368,22.4830322,38.6384888c0.5889893,3.3320923,2.4569702,1.9016113,4.0893555,1.5482178c18.8311768-4.0893555,36.7199707-2.2045288,53.4307861,8.0609131c2.2886963,1.4136353,2.3896484,2.2718506,1.3126221,4.5773926c-11.7127075,24.9736938-32.7484741,34.8856812-58.815979,35.44104c-7.7579346,0.168335-11.8596802,2.0040894-14.3043213,9.491333C436.1340332,271.2578735,432.394165,277.1297607,429.3650513,283.1881104z M293.9796753,246.9559326c-0.0336914,2.8608398,1.1948242,3.3320312,3.6349487,3.2815552l32.9504395,0.0168457c2.5411377,0.0672607,3.567688-0.5889893,3.5339966-3.3657227v-33.8255005c0.0168457-2.5579834-0.6394653-3.5508423-3.3825684-3.5172119l-33.4047241,0.0168457c-2.3223877-0.0168457-3.348938,0.5553589-3.3320923,3.130127V246.9559326z M248.1192627,154.9378052c-0.0336914,2.8608398,1.1947632,3.3320312,3.6349487,3.2815552l32.9504395,0.0168457c2.5410767,0.0673218,3.567627-0.5889893,3.5339966-3.3657227v-33.8255005c0.0167847-2.5579224-0.6395264-3.5508423-3.3825684-3.5171509l-33.4047852,0.0167847c-2.3223267-0.0167847-3.348877,0.5553589-3.3320312,3.130127V154.9378052z M284.8900757,163.553833l-33.4047852,0.0167847c-2.3223267-0.0167847-3.348877,0.5553589-3.3320312,3.130127v34.2630615c-0.0336914,2.8608398,1.1948242,3.3320312,3.6349487,3.2815552l32.9504395,0.0168457c2.5410767,0.0673218,3.567627-0.5889893,3.5339966-3.3657227v-33.8255005C288.2894287,164.5130615,287.6331787,163.5201416,284.8900757,163.553833z M247.8346558,246.9559326c-0.0336304,2.8608398,1.1948242,3.3320312,3.6350098,3.2815552l32.9503784,0.0168457c2.5411377,0.0672607,3.567688-0.5889893,3.5340576-3.3657227v-33.8255005c0.0167847-2.5579834-0.6395264-3.5508423-3.3825684-3.5172119l-33.4047852,0.0168457c-2.3223877-0.0168457-3.348938,0.5553589-3.3320923,3.130127V246.9559326z M201.8862305,200.9638062c-0.0336914,2.8608398,1.1948242,3.3320312,3.6350098,3.2815552l32.9503784,0.0168457c2.5411377,0.0673218,3.567688-0.5889893,3.5339966-3.3657227v-33.8255005c0.0168457-2.5579224-0.6394653-3.5508423-3.3825073-3.5171509l-33.4047852,0.0167847c-2.3223877-0.0167847-3.348938,0.5553589-3.3320923,3.130127V200.9638062z M238.6465454,209.5458984l-33.4047852,0.0168457c-2.3223877-0.0168457-3.348938,0.5553589-3.3320923,3.130127v34.2630615c-0.0336914,2.8608398,1.1948242,3.3320312,3.6349487,3.2815552l32.9504395,0.0168457c2.5411377,0.0672607,3.567688-0.5889893,3.5339966-3.3657227v-33.8255005C242.0458984,210.505127,241.3895874,209.5122681,238.6465454,209.5458984z M155.8322144,200.9638062c-0.0336304,2.8608398,1.1948242,3.3320312,3.6350098,3.2815552l32.9503784,0.0168457c2.5411377,0.0673218,3.567688-0.5889893,3.5340576-3.3657227v-33.8255005c0.0167847-2.5579224-0.6395264-3.5508423-3.3825684-3.5171509l-33.4047852,0.0167847c-2.3223877-0.0167847-3.348877,0.5553589-3.3320923,3.130127V200.9638062z M192.569519,209.5458984l-33.4047852,0.0168457c-2.3223267-0.0168457-3.348877,0.5553589-3.3320312,3.130127v34.2630615c-0.0336914,2.8608398,1.1947632,3.3320312,3.6349487,3.2815552l32.9504395,0.0168457c2.5410767,0.0672607,3.567627-0.5889893,3.5339966-3.3657227v-33.8255005C195.9688721,210.505127,195.312561,209.5122681,192.569519,209.5458984z M109.7730713,246.9560547c-0.0336914,2.8609009,1.1948242,3.3320923,3.6349487,3.2816162l32.9504395,0.0168457c2.5411377,0.0672607,3.567688-0.5890503,3.5339966-3.3657227v-33.8255005c0.0168457-2.5579834-0.6394653-3.5508423-3.3825073-3.5172119l-33.4047852,0.0168457c-2.3223877-0.0168457-3.348938,0.5553589-3.3320923,3.130127V246.9560547z M411.442749,291.9221191L73.524231,291.9725952c-1.6491699-0.0168457-2.5747681,0.0841675-2.1708984,2.3896484c3.0291748,16.8623047,9.659668,32.1427002,19.5548706,46.0767212c0.9087524,1.2789917,1.918457,1.867981,3.5339966,1.9857788c30.2243652,2.1270752,57.3270874,0.6131592,79.9359131-6.142395c5.619873-2.0020752,6.8499756,5.664856,2.0194092,6.5463257c-19.2313232,5.7542725-44.1595459,8.5926514-78.2362061,6.748291c-0.0336304,1.4976807,0.8078003,1.9520874,1.3967896,2.524292c72.567749,78.1592407,256.3188477,44.1941528,313.7105103-56.8049927C414.9177856,292.8392334,414.6569824,291.8884277,411.442749,291.9221191z M435.5411987,251.6177368c1.2453003-3.4498291,3.0459595-4.442749,6.3612061-3.8705444c29.6168213,2.0905151,47.8862305-7.1344604,58.597229-23.8966675c1.7669678-2.7261963,2.0362549-4.2576294-1.4641113-5.7385254c-17.6027222-7.4719238-35.003479-6.9334106-52.3201294,0.8919067c-1.1948242-0.0504761-1.2284546-0.7236328-1.1948242-1.7501831c0.0673218-2.305481,0.1009521-4.6278687-0.1514282-6.9165649c-1.8343506-16.4920044-10.753479-28.9620361-22.769165-39.5977173c-3.9041748-3.4498291-4.0388184-3.4161987-6.6304321,1.2285156c-6.6304321,11.8641968-7.7748413,24.7044067-6.09198,37.8475342c1.3126221,10.2485962,5.048584,19.588501,12.7392578,26.8753052c2.0026245,1.9016113,0.1177979,2.5074463-0.824585,3.1973877c-4.7792969,3.5340576-9.9793091,6.3444214-15.4486084,8.6835938c-14.321167,6.1256104-29.3828125,8.4984131-44.7977905,8.5152588l-288.9640503,0.0336304c-1.8174438-0.0336914-3.1974487,0.3365479-3.2479248,2.4738159c-0.1851196,8.0945435-0.7404175,16.1723022,0.4880371,24.2332153c0.2524414,1.6660156,1.0097046,2.1877441,2.5411377,2.1540527c5.6207275-0.1346436,11.2583618-0.0841675,16.6939697-1.8511353c7.3036499-0.8078003,14.0182495-3.2984009,20.2111816-7.1858521c1.262146-0.7908936,2.0531006-1.6323242,3.567627-0.0841064C125.8354492,290.2745361,172.75,290.625,201.178833,279.7080688c3.9638062-1.5221558,8.196167-7.1247559,10.3063354-6.3478394c3.2984009,0.605835,6.1760864,4.7962036,9.8110352,6.6641235c8.7677002,4.5100708,18.1917114,6.6978149,27.9187012,7.0848389c17.3502808,0.6731567,34.128418-1.1779785,47.9110107-13.4291992c0.6395264-0.5553589,1.1443481-1.8511963,2.3223877-0.4039307c5.1832275,6.4285278,12.8234253,8.0272827,20.1943359,9.9625244c11.6621704,3.0628052,23.6105347,4.223999,35.609314,4.1735229c14.8701782-0.1646729,29.477417-1.0617676,41.1459961-10.1477051c1.4135742-1.3462524,2.1708374-1.6491699,3.8705444-0.4206543c4.8466187,3.5507812,10.5515137,5.1326904,16.2732544,6.74823c2.6252441,0.7572632,3.8369141,0.1431274,5.1158447-2.1792603C426.9418335,271.7867432,431.7883911,261.9336548,435.5411987,251.6177368z M132.7440796,245.9295654c1.8007202,0.1345825,1.5314331-1.3631592,1.5482788-2.4401855v-27.2791748c0-0.9423828,0.21875-2.2550049-1.2116699-2.3560181c-1.8006592-0.1346436-1.5313721,1.3630981-1.5482178,2.4401855v27.270752C131.5324707,244.5075073,131.3136597,245.8285522,132.7440796,245.9295654z M126.8204346,245.9716187c1.4304199,0.0083008,1.3799438-1.2200928,1.3799438-2.2129517v-27.7167358c0-0.9929199,0.0673218-2.2382202-1.3799438-2.2382202s-1.3799438,1.2285156-1.3799438,2.2213745v27.6998901C125.4404907,244.7178955,125.3731079,245.9631958,126.8204346,245.9716187z M120.7285156,245.9800415c1.4472656,0.0336304,1.3967896-1.2116699,1.3967896-2.2045288v-27.6998901c0-0.9760742,0.0841064-2.2213745-1.3463135-2.2550659c-1.4472656-0.0336304-1.3967896,1.2116699-1.3967896,2.2045288v27.6998901C119.3822021,244.7010498,119.2980957,245.9463501,120.7285156,245.9800415z M208.1867676,216.3110352c0-1.0601807,0.2692261-2.5916138-1.5145874-2.4401855c-1.4304199,0.1177979-1.1275635,1.4641113-1.1275635,2.3897095v27.2286377c0.0168457,1.043396-0.3533936,2.5916138,1.480957,2.4401855c1.4135742-0.1177979,1.1611938-1.4472656,1.1611938-2.3896484V216.3110352z M224.8572388,199.9372559c1.8007202,0.1346436,1.5314331-1.3630981,1.5482788-2.4401855v-27.2791748c0-0.9423828,0.21875-2.2550049-1.2116699-2.355957c-1.8006592-0.1346436-1.5313721,1.3630981-1.5482178,2.4401245v27.270752C223.6456299,198.5151978,223.4268799,199.8363037,224.8572388,199.9372559z M212.9155884,213.8203735c-1.4472656-0.0336304-1.3967896,1.2116699-1.3967896,2.2045898v27.6998291c0,0.9760742-0.0841064,2.2214355,1.3463135,2.2550659c1.4472656,0.0336304,1.3967896-1.2116699,1.3967896-2.2045288v-27.6998901C214.2619019,215.0993652,214.3460083,213.8540649,212.9155884,213.8203735z M218.9570312,213.8035278c-1.4472656,0-1.3799438,1.2285156-1.3799438,2.2213745v27.6998901c0,0.9929199-0.0673828,2.2382202,1.3799438,2.2466431c1.4304199,0.0083008,1.3799438-1.2200928,1.3799438-2.2129517V216.041748C220.3369751,215.0488892,220.4042969,213.8035278,218.9570312,213.8035278z M231.0231323,213.8540649c-1.4304199,0.0336304-1.2789307,1.3294678-1.2957764,2.2886963l0.0084229,27.708252c0,0.9929199-0.0084229,2.2130127,1.4724731,2.1119995c1.4304199-0.0841064,1.2789917-1.3462524,1.2789917-2.305481v-27.2623901C232.4703979,215.3349609,232.8070068,213.8035278,231.0231323,213.8540649z M218.9335938,199.9793091c1.4304199,0.0083618,1.3799438-1.2200317,1.3799438-2.2129517v-27.7167358c0-0.9928589,0.0673218-2.2381592-1.3799438-2.2381592s-1.3799438,1.2284546-1.3799438,2.2213745v27.6998901C217.5536499,198.7255859,217.4862671,199.9708862,218.9335938,199.9793091z M205.5212402,197.4971313c0.0167847,1.043335-0.3534546,2.5916138,1.480896,2.4401245c1.4135742-0.1177979,1.1611938-1.4472656,1.1611938-2.3896484v-27.2286987c0-1.0601807,0.2692261-2.5916138-1.5145874-2.4401245c-1.4304199,0.1177979-1.1275024,1.4640503-1.1275024,2.3896484V197.4971313z M212.8416748,199.9877319c1.4472656,0.0336914,1.3967896-1.2116089,1.3967896-2.2045288V170.083313c0-0.9760742,0.0841064-2.2213745-1.3463135-2.2550049c-1.4472656-0.0336914-1.3967896,1.2116089-1.3967896,2.2045288v27.6998901C211.4953613,198.7087402,211.4112549,199.9541016,212.8416748,199.9877319z M185.1308594,199.9709473c1.4304199-0.0841675,1.2789307-1.3463135,1.2789307-2.305542v-27.2623291c-0.0168457-1.0601807,0.3197632-2.5916138-1.4640503-2.5411377c-1.4304199,0.0336304-1.2789917,1.3294678-1.2958374,2.2886963l0.0084229,27.708313C183.6583252,198.8518066,183.6499023,200.0718994,185.1308594,199.9709473z M178.8032837,199.9372559c1.8006592,0.1346436,1.5313721-1.3630981,1.5482178-2.4401855v-27.2791748c0-0.9423828,0.21875-2.2550049-1.2116699-2.355957c-1.8006592-0.1346436-1.5313721,1.3630981-1.5482178,2.4401245v27.270752C177.5916138,198.5151978,177.3728638,199.8363037,178.8032837,199.9372559z M237.0982666,213.8709106c-1.4135742,0.0167847-1.262146,1.3294678-1.2789307,2.2886353v27.6578369c0,0.9760742-0.0673218,2.2297974,1.4135742,2.1624756c1.4472656-0.0841675,1.2284546-1.3630981,1.2453003-2.305542v-27.2286377C238.4613647,215.4191284,238.9157715,213.8372192,237.0982666,213.8709106z M166.7876587,199.9877319c1.4472656,0.0336914,1.3967896-1.2116089,1.3967896-2.2045288V170.083313c0-0.9760742,0.0841064-2.2213745-1.3463135-2.2550049c-1.4472656-0.0336914-1.3967896,1.2116089-1.3967896,2.2045288v27.6998901C165.4413452,198.7087402,165.3572388,199.9541016,166.7876587,199.9877319z M172.8796387,199.9793091c1.4303589,0.0083618,1.3799438-1.2200317,1.3799438-2.2129517v-27.7167358c0-0.9928589,0.0672607-2.2381592-1.3799438-2.2381592c-1.4472656,0-1.3799438,1.2284546-1.3799438,2.2213745v27.6998901C171.4996948,198.7255859,171.432312,199.9708862,172.8796387,199.9793091z M191.1554565,199.9877319c1.4472656-0.0841064,1.2285156-1.3630981,1.2453613-2.305481v-27.2286987c-0.0168457-1.0265503,0.4375-2.6084595-1.3799438-2.5747681c-1.4136353,0.0168457-1.262146,1.3294678-1.2789917,2.2886963v27.6577759C189.7418823,198.8013306,189.6745605,200.0550537,191.1554565,199.9877319z M159.4672241,197.4971313c0.0168457,1.043335-0.3533936,2.5916138,1.480896,2.4401245c1.4136353-0.1177979,1.1611938-1.4472656,1.1611938-2.3896484v-27.2286987c0-1.0601807,0.2692261-2.5916138-1.5145874-2.4401245c-1.4304199,0.1177979-1.1275024,1.4640503-1.1275024,2.3896484V197.4971313z"/></svg>