<svg version="1.1" xmlns="http://www.w3.org/2000/svg" xmlns:xlink="http://www.w3.org/1999/xlink" x="0px" y="0px" width="388px" height="512px"><path d="M95.5532455,80.974678l49.9789047,49.9789047C61.8451424,152.1920929,0,228.0755768,0,318.4599609C0,425.3766174,86.6234055,512,193.5400543,512s193.5400543-86.6233826,193.5400543-193.5400696c0-58.1445007-25.6430969-110.3558502-66.3100281-145.7936249L162.4867706,14.0411472C106.9877777-30.7733402,55.7151489,42.6622925,95.5532455,80.974678z M205.0241394,186.5438385L316.848175,298.3678589c13.414856,13.414856,13.4048157,35.2668152-0.0100403,48.7017822L205.0040436,458.9037476c-37.6316223,31.477417-78.18573-17.0913391-48.6716156-48.6917114l53.0762024-53.0762024H94.6683197c-45.8080711-0.0000305-45.8080711-68.8241272,0-68.8240967h114.7403107l-53.0762024-53.0761871C123.6598969,202.5630188,172.3516083,153.8712921,205.0241394,186.5438385z"/></svg>