<svg xmlns="http://www.w3.org/2000/svg" width="447.874" height="512"><path d="M335.41 95.199c-26.137-16.304-50.794-22.693-75.458-38.977-15.293-10.36-36.51-35.025-54.26-56.222-3.448 34.034-13.808 47.842-25.655 57.708-25.16 19.73-40.948 25.654-62.64 37.481C99.15 104.559 0 163.753 0 291.015S107.036 512 225.918 512s221.956-86.314 221.956-217.023S351.206 105.052 335.41 95.199zm2.843 370.365c-2.476 2.477-25.15 18.246-51.775 20.722-26.625 2.476-62.64 3.942-84.352-15.789-3.447-3.447-2.457-8.38 0-10.36s4.437-3.448 7.389-3.448 2.456 0 3.942.99c9.866 7.885 24.664 14.304 56.222 14.304s53.766-8.875 63.631-16.284c4.438-3.447 6.419-.495 6.914 1.486.495 1.98 1.496 4.932-1.971 8.38zm-86.304-44.89c5.428-4.933 14.303-12.817 22.683-16.284 8.38-3.467 12.817-2.952 20.721-2.952s16.285.495 22.188 4.438c5.923 3.942 9.37 12.817 11.351 17.75s0 7.884-3.942 9.865c-3.447 1.981-3.942.99-7.409-5.428-3.467-6.418-6.419-12.817-23.673-12.817-17.255 0-22.683 5.923-31.083 12.817-8.38 6.914-11.351 9.37-14.303 5.428s-1.961-7.884 3.467-12.817zm130.709 3.932c-17.759-1.38-53.27-56.707-75.953-57.697-28.607-.99-90.752 59.688-139.584 59.688-29.597 0-38.472-4.437-48.338-10.856-14.798-10.36-22.187-26.15-21.712-47.842.495-38.472 36.49-74.487 81.876-74.982 57.708-.496 97.666 57.212 126.767 56.717 24.664-.495 72.011-48.833 95.19-48.833 24.663 0 31.577 25.655 31.577 40.929s-4.933 42.909-16.78 60.184c-11.846 17.274-19.241 23.765-33.043 22.692z"/></svg>