<svg xmlns="http://www.w3.org/2000/svg" width="512" height="512"><path d="M41.731 262.69C38.483 142.678 128.304 36.762 245.067 17.635c-91.775 1.5-164.831 39.05-210.855 119.33-48.59 84.71-45.251 171.17 8.928 252.427 47.636 71.42 117.535 104.405 202.882 104.973C125.874 473.807 44.639 370.457 41.732 262.69zm24.057-79.247c-2.499 6.633-2.18 6.747 5.043 6.747H503.6c-.44-1.305-.499-1.654-2.153-6.224-17.174-51.158-49.409-90.798-93.91-120.398-50.5-33.598-106.7-43.23-165.49-32.212C154.45 47.757 97 100.846 65.787 183.443zm-4.339 32.53c-2.953-.454-3.725 1-4.089 3.658-.886 6.656-1.658 13.312-2.112 20.036-.182 2.748.34 3.52 3.135 3.498l450.106.023c3.362.023 3.68-1.409 3.407-3.953-.681-6.11-1.726-12.221-1.953-18.355-.16-4.316-1.84-4.975-5.793-4.975l-442.7.068zm447.085 52.862c-23.17.136-450.038 0-450.038 0-2.59-.023-3.476.431-3.248 3.362.5 6.883 1.158 13.72 2.226 20.558.318 2.045.681 3.294 3.294 3.294l445.517-.045c1.886 0 3.18-.295 3.385-2.635a823.33 823.33 0 0 1 2.272-21.15c.34-2.793-.818-3.407-3.408-3.384zM130.69 285.69c-.022-.046-.022-.091-.045-.137.023.023.045.046.068.046 0 .022-.023.045-.023.09zm-65.577 37.345c-.6 2.325.29 3.999.971 6.089 30.282 90.616 129.848 179.21 268.579 149.93 56.087-11.836 99.407-43.73 133.846-88.527 15.106-19.673 27.55-41.073 33.484-65.288.74-3.018-2.522-3.43-4.203-3.43l-428.116-.068s-4.192-.138-4.56 1.294z"/></svg>