<svg xmlns="http://www.w3.org/2000/svg" width="512" height="512"><path d="M353.756 304.402s-2.37-8.378 6.446-24.501c8.816-16.124 15.685-7.307 15.685-7.307s7.517 8.167-1.072 20.41c-8.59 12.259-21.06 11.398-21.06 11.398zm-67.692 11.593c-10.1 26.434-34.6 15.685-34.6 15.685s-2.794-9.45 5.163-35.883c7.956-26.434 26.644-16.124 26.644-16.124s12.892 9.889 2.793 36.322zm-18.266-110.67s15.262-39.765 18.916-20.41-32.02 76.93-32.02 76.93c.422-12.892 13.103-56.52 13.104-56.52zM49.67 304.41c.65-25.573 17.406-36.752 23.202-31.167 5.797 5.586 3.653 17.618-7.306 25.151-10.96 7.518-15.896 6.016-15.896 6.016zm65.32-46.868c-2.37 5.797-10.96 44.278-12.03 56.521 0 0-22.57 16.123-37.394 16.334s-13.331-9.4-13.331-9.4 54.378-18.608 39.537-55.352c-6.657-9.45-14.402-12.422-25.362-12.21-10.96.21-24.567 6.9-33.367 26.677-4.205 9.433-5.748 18.38-6.608 25.15 0 0-9.515 1.949-14.679-2.354-5.163-4.303-7.81 0-7.81 0s-8.849 11.285-.048 14.727c8.816 3.442 22.56 5.05 22.56 5.05 8.736 33.634 37.598 38.765 75.397 16.156 0 0 .438 11.625 9.677 13.33 9.24 1.705 13.104-.032 29.227-39.13 9.45-19.989 10.1-18.917 10.1-18.917l1.07-.211s-7.306 38.254-4.513 48.565 15.035 9.238 15.035 9.238S169.11 353 174.484 334.1c5.374-18.916 15.685-39.764 15.685-39.764h1.282s-4.513 39.115 2.371 51.569c6.885 12.453 24.713 4.189 24.713 4.189s12.47-6.3 14.402-8.232c0 0 14.792 12.6 35.672 10.31 46.649-9.174 63.227-21.579 63.227-21.579s8.021 20.313 32.831 22.18c28.366 2.16 43.84-15.701 43.84-15.701s-.211 11.61 9.677 15.685c9.888 4.091 16.545-18.868 16.545-18.868l16.546-45.61h1.51s.86 29.666 17.195 34.39c16.334 4.725 37.605-11.073 37.605-11.073s5.18-2.858 4.319-11.447c-.861-8.59-8.59-5.407-8.59-5.407s-12.47 9.661-23.43 8.59c-10.96-1.072-7.517-25.59-7.517-25.59s2.37-22.456-4.076-24.34c-6.446-1.883-14.402 5.846-14.402 5.846s-9.888 10.96-14.613 24.924l-1.283.422s1.51-24.502-.211-30.087c-1.283-2.793-13.103-2.582-15.052 2.354-1.948 4.936-11.382 39.326-12.031 53.728 0 0-18.478 15.685-34.601 18.267-16.123 2.582-19.988-7.518-19.988-7.518s43.84-12.242 42.33-47.282c-1.51-35.023-35.348-22.082-39.18-19.192-3.702 2.793-23.495 14.71-29.259 47.753-.195 1.12-.536 6.04-.536 6.04s-16.983 11.382-26.433 14.402c0 0 26.433-44.489-5.797-64.688-11.744-7.87-26.223 9.678-26.223 9.678s43.63-48.565 33.952-89.612c-4.611-19.55-14.37-21.644-23.349-18.478-13.623 5.375-18.77 13.33-18.77 13.33s-17.617 25.574-21.709 63.617-10.099 84.026-10.099 84.026-8.378 8.167-16.123 8.59c-7.729.438-4.303-22.992-4.303-22.992s6.024-35.672 5.586-41.696c-.439-6.024-.861-9.24-7.957-11.382-7.095-2.144-14.824 6.884-14.824 6.884s-20.41 30.948-22.13 35.673c-1.412 2.287-.749 2.692-2.144.649 0 0 14.402-42.119.65-42.768-13.753-.65-22.781 15.035-22.781 15.035s-15.685 26.207-16.334 29.227l-1.072-1.283s6.446-30.51 5.163-38.027c.644-8.424-16.855-8.09-19.776-1.299z"/></svg>