<svg version="1.1" xmlns="http://www.w3.org/2000/svg" xmlns:xlink="http://www.w3.org/1999/xlink" x="0px" y="0px" width="512px" height="512px"><path d="M353.7557983,304.4021301c0,0-2.370575-8.3782654,6.4460449-24.5015564c8.8166504-16.1232605,15.6848755-7.3066101,15.6848755-7.3066101s7.5177002,8.1671753-1.0716248,20.40979C366.225769,305.2626343,353.7557678,304.4020996,353.7557983,304.4021301z M286.0640564,315.9952698c-10.0993652,26.4337158-34.6008911,15.6848755-34.6008911,15.6848755s-2.7927551-9.4499207,5.1633606-35.883606c7.9560852-26.4337158,26.6448059-16.123291,26.6448059-16.123291S296.1634521,289.561554,286.0640564,315.9952698z M267.7975159,205.3243561c0,0,15.2627258-39.7642365,18.9160156-20.4098206s-32.0192261,76.9305878-32.0192261,76.9305878C255.1164551,248.9530029,267.7974854,205.3243713,267.7975159,205.3243561z M49.6706047,304.4102173c0.6494751-25.5731506,17.4059868-36.7522888,23.2025719-31.1667786c5.7965775,5.5855103,3.6533051,17.6170654-7.3066177,25.151001C54.6066322,305.9121399,49.6706047,304.4102173,49.6706047,304.4102173z M114.9917755,257.5422363c-2.3705826,5.7966309-10.9599228,44.2781067-12.0315628,56.5207825c0,0-22.5693283,16.1232605-37.3936462,16.3343506s-13.3305206-9.4011841-13.3305206-9.4011841s54.3774719-18.6075134,39.5369186-55.3516846c-6.657135-9.4499207-14.402153-12.4212494-25.3620758-12.2101898c-10.9599228,0.2110443-24.5664749,6.9006805-33.3668938,26.6772614c-4.2053642,9.4336548-5.7478714,18.3802185-6.6084309,25.151001c0,0-9.5148392,1.9484558-14.6781836-2.3543701c-5.1633434-4.3027954-7.8099627,0-7.8099627,0s-8.8491268,11.284668-0.0487106,14.7268982c8.8166513,3.4422302,22.5612125,5.0497131,22.5612125,5.0497131c8.735466,33.6339722,37.5973701,38.7649841,75.3961792,16.1557312c0,0,0.4384003,11.6256409,9.6772156,13.3305054c9.2388153,1.704895,13.1032028-0.0324707,29.2264709-39.1309814c9.4498901-19.9876709,10.0993652-18.9160156,10.0993652-18.9160156l1.07164-0.2110901c0,0-7.3066254,38.2541809-4.5138702,48.5646362s15.0353851,9.2388306,15.0353851,9.2388306s6.6571503,1.2827148,12.0315704-17.6170959c5.3744354-18.9160156,15.6848755-39.7642212,15.6848755-39.7642212h1.2827148c0,0-4.513855,39.1147766,2.3705902,51.568512c6.8844604,12.4537048,24.712616,4.1891174,24.712616,4.1891174s12.4699554-6.2999573,14.4021606-8.2321472c0,0,14.7918396,12.599884,35.6725159,10.3104553c46.6486816-9.1738586,63.226593-21.5788879,63.226593-21.5788879s8.0210266,20.3124084,32.8310547,22.179657c28.3659363,2.1594849,43.8397217-15.7011414,43.8397217-15.7011414s-0.2110901,11.6094055,9.6772461,15.6848755c9.8882751,4.0917053,16.5454407-18.8673401,16.5454407-18.8673401l16.5454407-45.6095276h1.5100403c0,0,0.8605347,29.664856,17.1949158,34.3898315c16.3343506,4.7249451,37.6047058-11.0735779,37.6047058-11.0735779s5.1795959-2.8576355,4.3190308-11.446991c-0.8605652-8.5892944-8.5893555-5.4068298-8.5893555-5.4068298s-12.4699707,9.6609802-23.4299011,8.589325c-10.9599304-1.0716248-7.5177002-25.589386-7.5177002-25.589386s2.370575-22.4556732-4.07547-24.3391724c-6.4460449-1.8834839-14.4021301,5.8453064-14.4021301,5.8453064s-9.8882751,10.9598999-14.6132202,24.9236755l-1.2827454,0.4221497c0,0,1.5100403-24.5015564-0.2110901-30.0870514c-1.2827148-2.7927551-13.1031799-2.581665-15.0516357,2.3543549c-1.9484253,4.9360657-11.3820801,39.3258667-12.0315552,53.7280273c0,0-18.4776306,15.684845-34.6008911,18.2665405c-16.1232605,2.581665-19.9876404-7.5177002-19.9876404-7.5177002s43.8397217-12.2426453,42.3296814-47.2819519c-1.5100403-35.0230408-35.3478088-22.0822296-39.179718-19.1920319c-3.7020264,2.7927704-23.4948425,14.7106476-29.2589417,47.7528229c-0.1948242,1.1203308-0.5358276,6.0401306-0.5358276,6.0401306s-16.9838257,11.3820801-26.4337463,14.4021301c0,0,26.4337463-44.4891663-5.7965698-64.6879272c-11.7439575-7.8701935-26.2226562,9.6772461-26.2226562,9.6772461s43.6286316-48.5646667,33.951416-89.611618c-4.6112976-19.5492554-14.3696899-21.6438293-23.3486938-18.4776306c-13.6228027,5.3744354-18.7698975,13.3305206-18.7698975,13.3305206s-17.6170654,25.5731659-21.7087708,63.6163025s-10.0993652,84.026123-10.0993652,84.026123s-8.3782501,8.1671753-16.1232605,8.589325c-7.7287903,0.4384155-4.3027954-22.9914856-4.3027954-22.9914856s6.0238953-35.6725464,5.585495-41.6964722c-0.4384003-6.0238953-0.8605652-9.2388-7.9560852-11.3820801c-7.0955353-2.1432648-14.8243256,6.8844604-14.8243256,6.8844604s-20.4098053,30.9476013-22.1309357,35.6725464c-1.4115906,2.2875061-0.7482452,2.6928711-2.1432648,0.6494446c0,0,14.4021606-42.118576,0.6494751-42.7680817c-13.7526855-0.6494904-22.7804108,15.0354156-22.7804108,15.0354156s-15.6848755,26.2064209-16.3343506,29.2264709l-1.0716248-1.2827454c0,0,6.4460602-30.5091858,5.1633301-38.026886C135.4124451,250.4168396,117.9129944,250.7501678,114.9917755,257.5422363z"/></svg>