<svg version="1.1" xmlns="http://www.w3.org/2000/svg" xmlns:xlink="http://www.w3.org/1999/xlink" x="0px" y="0px" width="449px" height="512px"><path d="M382.3266907,3.943975c-15.0146179-8.3389568-58.013092-3.16925-109.6876831,12.8118839c-90.4024048,61.8117065-166.711792,152.8435059-172.0388184,299.0562744c-0.9665146,3.5064392-9.8898621-0.4719849-11.643074-1.5509033c-24.4100113-46.7970886-34.0975876-96.0666351-13.7109528-167.1613464c3.7986069-6.3160248-8.6311569-14.1155396-10.8563766-11.8903198c-4.4729271,4.4729156-23.1288261,24.3425751-35.5136337,45.8530426c-61.4071274,106.5409088-21.2632294,243.0436249,86.199234,302.7650146c107.4175034,59.8337708,243.0661011,21.2407532,302.8773804-86.2217102C487.1369629,273.5779114,422.8752136,26.6007729,382.3266907,3.943975z"/></svg>