<svg xmlns="http://www.w3.org/2000/svg" width="512" height="512"><path d="M69.72 93.973H0v324.02h80.29c-39.742-42.108-62.936-100.281-62.94-169.701-.002-61.379 19.212-114.166 52.37-154.32zm377.61 324.054c17.127-18.328 32.455-39.93 46.36-64.62l-77.136-38.575c-27.089 44.045-66.711 84.576-121.49 84.85-79.74-.274-111.064-68.443-110.893-156.208h297.945c.395-9.91 0-19.288 0-19.288 1.938-52.206-11.898-96.043-37.067-130.213H512V418.01l-64.67.017zM188.988 168.26c3.292-39.725 34.633-66.454 71.357-66.54 36.982.086 63.694 26.798 64.602 66.54h-135.96z"/></svg>