<svg xmlns="http://www.w3.org/2000/svg" width="512" height="512"><path d="M442.02 502.779H70.612l185.505-186.416z"/><path d="M66.372 410.325c-10.039 17.395-7.39 28.066.74 35.627l74.26-75.464c-55.292-69.152-41.86-179.943 40.32-228.84 98.255-58.462 221.742 15.012 221.741 131.937 0 36.764-12.221 69.216-32.018 94.634l76.41 74.859c7.228-13.915-.626-24.16-4.268-35.542-3.813-11.894-7.911-25.07-6.488-37.05 3.358-28.2 18.98-47.834 47.664-56.03 7.17-2.048 15.423-6.516 19.378-12.406 16.988-25.298 5.321-62.205-23.334-69.775-34.773-9.191-56.969-59.985-36.338-94.075 12.264-20.233 9.305-32.497-8.793-50.453-18.98-18.866-27.005-20.318-48.945-8.081-14.711 8.223-29.765 10.528-45.956 5.15-22.85-7.598-38.9-21.598-44.25-45.928C295 23.167 273.834 7.333 251.109 9.464c-22.764 2.192-32.952 16.363-37.76 37.335-3.273 14.313-13.318 24.187-26.38 31.188-21.313 11.41-41.915 12.976-63.513-.228-17.416-10.643-27.233-8.992-41.916 4.923-24.131 22.907-26.464 33.891-12.18 58.221 18.326 31.245-2.589 83.575-40.805 90.917-6.63 1.28-13.944 5.208-18.44 10.187-19.948 22.082-8.736 63.486 19.18 72.592 39.597 9.688 60.304 59.889 37.078 95.726z"/></svg>