<svg version="1.1" xmlns="http://www.w3.org/2000/svg" xmlns:xlink="http://www.w3.org/1999/xlink" x="0px" y="0px" width="512px" height="512px"><polygon points="442.0200195,502.7786255 70.6116028,502.7786255 256.1166382,316.3629761 "/><path d="M66.3716431,410.3248901c-10.0382729,17.3954468-7.3895645,28.0662537,0.7398682,35.6269531l74.2599487-75.4642944c-55.2911377-69.1517334-41.8599243-179.9420776,40.3205566-228.8396606c98.2554321-58.4622192,221.7415161,15.0123291,221.7414551,131.9367065c0,36.763916-12.2219238,69.2168579-32.0182495,94.6347046l76.4098511,74.8585205c7.2278442-13.9150391-0.6260376-24.1592407-4.2683716-35.541626c-3.8131714-11.8946533-7.9108276-25.0698242-6.4880371-37.0498047c3.3578491-28.1998901,18.9802246-47.8345947,47.6638794-56.0299683c7.1708984-2.0488281,15.4231567-6.5164185,19.3786011-12.4068604c16.9882202-25.2974243,5.3212891-62.2049561-23.3339844-69.774231c-34.7733154-9.1912842-56.9690552-59.9853516-36.3383789-94.0756836c12.2645264-20.2322388,9.3051147-32.4968262-8.7929077-50.4525757c-18.9802246-18.866394-27.0048218-20.317688-48.944397-8.081543c-14.711792,8.2237549-29.7650757,10.5287476-45.956543,5.1505127c-22.8502197-7.5977783-38.8994751-21.5981445-44.2492065-45.9280396C295,23.166666,273.8333435,7.3333335,251.1083984,9.4644775c-22.7648315,2.1911011-32.9521484,16.3622437-37.7612305,37.3343506c-3.2723999,14.3133545-13.3174438,24.1876221-26.3787231,31.1878052c-21.3135986,11.4108887-41.9157715,12.9759521-63.513916-0.2276611c-17.4151001-10.6425171-27.2324829-8.9920654-41.9157715,4.9229126C57.40802,105.5889893,55.074585,116.5730591,69.3595581,140.9029541c18.3256836,31.244751-2.5894775,83.5754395-40.8059692,90.9171143c-6.6303101,1.2805176-13.9434814,5.2074585-18.4395142,10.1872559c-19.9476929,22.0819092-8.7360229,63.4854736,19.1793213,72.5914307C68.890564,324.2871399,89.5983963,374.4879456,66.3716431,410.3248901z"/></svg>