<svg xmlns="http://www.w3.org/2000/svg" width="512" height="512"><path d="M251.694 17.684c30.093 0 59.304 5.566 86.976 16.54 16.155 2.783 37.672 8.168 55.615 18.372-40.252-28.6-89.464-45.388-142.59-45.388-68.875 0-131.165 28.26-175.897 73.807 2.082 2.534 4.593 4.978 7.58 7.24 39.637-38.886 91.949-68.271 168.316-70.571zM198.9 341.171c12.67.227 32.906-.022 43.36-3.507 15.724-5.249 40.907-25.183 40.907-25.183 6.29-6.29 13.644-3.145 19.934-3.145 6.29 0 8.395-9.435 0-18.893-8.394-9.435-37.763-18.893-59.801-4.185-12.528 10.535-50.49 10.535-76.793-17.129-3.763 24.786 5.18 55.993 32.393 72.042zm44.423-169.267c3.145-3.145 9.435-19.933 4.185-25.183-5.249-5.249-38.826-2.104-49.302-4.185-4.412-.883-8.643-4.005-12.06-7.309-6.45 24.258-.603 43.925 14.368 62.901 7.567-8.628 29.511-17.315 42.809-26.224zm-49.665 64.621c3.733-9.684 1.109-25.884.498-29.278-41.9-52.956-13.335-104.429 18.78-133.88-39.868-5.25-67.302 31.371-67.302 31.371-2.828 3.123-12.592 14.244-13.474 23.181 0 0 .34-16.065 4.344-27.287C56.584 84.176 15.318 151.437 0 233.9c2.104-9.435 11.54-20.974 11.54-20.974-10.5 15.748-8.395 88.129-8.395 88.129 0-11.54 6.29-25.183 6.29-25.183 4.052 90.02 82.474 199.91 206.668 224.52-13.643-4.208-16.788-10.498-16.788-10.498 44.053 17.83 71.34 14.684 71.34 14.684-7.353-4.186-8.394-7.354-8.394-7.354 47.22 2.105 110.167-14.684 124.851-25.183 14.685-10.498 27.288-31.473 27.288-31.473 35.904-17.483 89.102-69.931 71.34-112.271 15.43-36.666 39.074-64.305 17.762-137.5 0 8.53-7.693 20.477-9.186 22.717 1.959-29.972 2.733-59.567-10.748-84.622-14.684-32.537-36.722-48.262-36.722-48.262v7.354C443.7 77.485 414.332 57.55 414.332 57.55v10.5c52.447 48.262 57.697 81.84 57.697 81.84-9.435-30.433-36.723-53.512-59.801-75.527-23.08-22.016-71.341-33.578-71.341-33.578 51.407 29.37 76.59 75.527 76.59 75.527-26.224-25.183-47.221-23.079-47.221-23.079 15.748 11.54 23.079 24.12 37.763 47.221 14.684 23.101 13.644 77.63 13.644 77.63-7.354-17.829-22.038-25.182-22.038-25.182s3.145 31.473 5.249 49.302c2.104 17.83-7.354 51.407-7.354 51.407 0-12.58-7.353-15.748-7.353-15.748s2.104 7.354-8.394 40.908c-10.499 33.578-30.433 45.117-33.578 44.054-3.145-1.064 0-6.29 0-6.29s-5.25-4.186-12.58 7.353c-6.2 9.73-16.948 16.222-20.047 16.404 3.417-1.946 4.322-9.05 4.322-9.05s-7.354 4.186-40.908 9.435c-33.578 5.25-49.303-9.435-49.303-9.435 3.145-3.145 17.83 0 17.83 0 0-3.145-16.79-8.395-33.578-10.499-13.644-1.697-20.273-8.032-23.418-13.1-48.653-27.706-39.163-106.129-18.01-117.069-50.29-32.184-104.237 55.73-31.994 111.321-94.887-72.575.352-169.812 53.149-105.37zM77.314 94.432C57.109 77.598 58.693 55.447 58.693 55.447c-20.206 19.504-25.138 52.448-26.18 72.359 12.132-13.568 25.505-26.052 44.8-33.374z"/></svg>