<svg version="1.1" xmlns="http://www.w3.org/2000/svg" xmlns:xlink="http://www.w3.org/1999/xlink" x="0px" y="0px" width="512px" height="512px"><path d="M251.6943359,17.684021c30.0928955,0,59.3033752,5.5660515,86.9752502,16.5397797c16.1551514,2.7830315,37.6727295,8.1680756,55.6153259,18.3725052C354.0328369,23.9967384,304.8207397,7.2080641,251.6943207,7.2080641c-68.8742676,0-131.1643066,28.2601776-175.8963928,73.8067932c2.0816116,2.5341492,4.5931244,4.9777832,7.5797882,7.2403946C123.015213,49.3692131,175.3265076,19.9835472,251.6943359,17.684021z M198.8996277,341.1713867c12.6707153,0.2262878,32.9062347-0.022583,43.3595581-3.5070496c15.7252197-5.2492981,40.9082642-25.1830444,40.9082642-25.1830444c6.2901001-6.2901001,13.6436462-3.14505,19.9337158-3.14505c6.2901001,0,8.3943481-9.4351196,0-18.8928833c-8.3943481-9.4351501-37.7632141-18.8928833-59.8011475-4.1858521c-12.5283813,10.5354614-50.4908142,10.5354614-76.7934875-17.1280518C162.7437286,293.914856,171.6872559,325.1220703,198.8996277,341.1713867z M243.3226318,171.9044952c3.1450653-3.1450348,9.4351501-19.9337158,4.1858673-25.1829987c-5.2492981-5.2492981-38.8266144-2.1042633-49.3025665-4.1858673c-4.4121246-0.8824158-8.6432343-4.0048523-12.0598145-7.3082886c-6.4499054,24.2574768-0.6029053,43.9246368,14.3676758,62.9009705C208.0813904,189.4995117,230.0250244,180.8134918,243.3226318,171.9044952z M193.6580048,236.5249786c3.7333221-9.6840515,1.1086731-25.8844147,0.4977875-29.2783508c-41.8991241-52.9551849-13.3347168-104.4283829,18.7797699-133.8794556c-39.8674316-5.2492981-67.3017578,31.3712769-67.3017578,31.3712769c-2.8282776,3.122406-12.591507,14.2432175-13.473938,23.1805878c0,0,0.3394012-16.0646286,4.3442535-27.2872543C56.5835953,84.1758575,15.3181753,151.4367981,0,233.9003296c2.1042392-9.4351349,11.5393887-20.9745331,11.5393887-20.9745331C1.040818,228.6736603,3.145057,301.0550232,3.145057,301.0550232c0-11.5393982,6.2900925-25.1830139,6.2900925-25.1830139c4.0515051,90.0192566,82.4738998,199.9105225,206.6681061,224.5202026c-13.643631-4.2085266-16.7886658-10.4985962-16.7886658-10.4985962c44.0532837,17.8294678,71.3405609,14.6844177,71.3405609,14.6844177c-7.3535461-4.1858215-8.3943481-7.3535461-8.3943481-7.3535461c47.2209473,2.104248,110.1671448-14.6844177,124.851593-25.1830139c14.6844177-10.4985962,27.2872314-31.4731445,27.2872314-31.4731445c35.9047852-17.4836731,89.1021423-69.9317627,71.3405457-112.2713928c15.4305725-36.6655273,39.0738525-64.3048401,17.7615967-137.4995422c0,8.5301056-7.6929321,20.4767456-9.1862488,22.7167511c1.9589844-29.9721069,2.7335815-59.5670624-10.7474976-84.6221619c-14.6844482-32.5365448-36.7223511-48.2617798-36.7223511-48.2617798v7.3535233c-3.14505-10.4985657-32.513916-30.4322968-32.513916-30.4322968v10.4985657c52.4476318,48.2617874,57.6968994,81.8391037,57.6968994,81.8391037c-9.4351501-30.4322968-36.7223816-53.5110474-59.8011475-75.5263977c-23.0787964-22.0153427-71.3405457-33.577343-71.3405457-33.577343c51.4067993,29.3688698,76.5898132,75.5263977,76.5898132,75.5263977c-26.2238159-25.1830063-47.2209473-23.0787582-47.2209473-23.0787582c15.7478333,11.5393906,23.0787659,24.1195755,37.7632141,47.2209625c14.6844177,23.1013947,13.6436462,77.6306305,13.6436462,77.6306305c-7.3535461-17.829483-22.0379944-25.1829987-22.0379944-25.1829987s3.14505,31.4730988,5.2492981,49.3025665c2.104248,17.8294983-7.3535461,51.4067993-7.3535461,51.4067993c0-12.5801697-7.3535461-15.7478333-7.3535461-15.7478333s2.104248,7.3535461-8.3943481,40.9082642c-10.4985962,33.5773315-30.4322815,45.1166992-33.5773315,44.0533142c-3.14505-1.0634155,0-6.2901001,0-6.2901001s-5.2492981-4.1858521-12.5801697,7.3535461c-6.199585,9.7292786-16.9483337,16.222168-20.0468445,16.4040222c3.4165344-1.9458618,4.3215942-9.0504761,4.3215942-9.0504761s-7.3535461,4.1858215-40.9082336,9.4351196c-33.5773621,5.2492981-49.3025818-9.4351196-49.3025818-9.4351196c3.1450348-3.14505,17.8294678,0,17.8294678,0c0-3.14505-16.7886505-8.3943481-33.5773468-10.4985962c-13.6436157-1.696991-20.2731018-8.0323181-23.4181519-13.1006165c-48.6533356-27.7057495-39.1627197-106.1281586-18.0104828-117.0681305c-50.2900696-32.184021-104.2366867,55.7289886-31.993515,111.3210297C45.621521,269.3201599,140.860611,172.0830383,193.6580048,236.5249786z M77.3139038,94.4322433c-20.2052345-16.833931-18.6213913-38.9850121-18.6213913-38.9850121c-20.2052383,19.5038185-25.1377563,52.4476357-26.178566,72.3587189C44.6449623,114.2384872,58.0184708,101.7541656,77.3139038,94.4322433z"/></svg>