<svg version="1.1" xmlns="http://www.w3.org/2000/svg" xmlns:xlink="http://www.w3.org/1999/xlink" x="0px" y="0px" width="411px" height="512px"><path d="M402.0818481,457.5505981c5.3660889-9.1951904,5.6088257-13.2939758,5.6088257-60.0250854c0-39.5852966-0.7550354-52.1242371-4.0717468-60.0250854c-3.3167419-8.4401855-3.3167419-11.2445984-0.7550354-16.0983582c5.2902527-16.5609131,5.2902527-113.705368-4.3414612-120.5895081c-2.8044434-4.0987701-2.5617065-6.12117,0.5122986-12.5119629c4.7676086-6.9953308,5.9919128-71.0146637,0.5123901-124.9039764C367.8018188-24.4536057,13.1000643-18.4754868,0,65.6886444l5.0964737,120.3198242c4.0987597,7.9278412,4.0987597,9.1952209,0,19.9274902c-6.443531,15.7096863-2.9562948,79.974472,2.0493793,114.9537201c2.2920647,6.3908081,2.2920647,9.9502258,0.0000005,15.0737c-3.8290994,8.1705017-4.0987597,80.2221985-0.5123448,101.9294128c1.537035,10.2198792,4.8537893,18.1477661,9.707552,24.2688904C63.499279,527.3070679,358.0083618,531.4550781,402.0818481,457.5505981z M141.0293121,27.88307c-0.7550201,1.267374,13.5366516,1.537035,32.7091064,0.7550297c28.3676453-1.0246906,103.1967621,3.3167534,100.6620026,5.878479c-0.5122986,0.5123444-11.9996033,2.0493813-25.8059387,3.5864143c-14.048996,1.5370369-27.5856781,4.0987587-30.6596985,5.6088181c-5.0964508,2.804409-5.0964508,3.07407-0.7550354,6.3908234c4.3414307,3.07407,4.0717621,3.3167572-2.5616913,4.8537903c-20.9521637,4.3414459-34.4888153,9.7075539-39.3425751,15.8287163c-12.2692871,15.5860291-1.5370483,31.1720657,24.7812347,36.7808838c19.9274445,4.0987549,98.6126556,1.5370331,120.31987-3.8291016c24.0262146-6.1211624,36.2684937-13.0243073,36.2684937-20.6825027c0-10.4626083-15.3433533-18.1477585-52.3668823-25.8059311c-19.6847534-3.8290977-7.145813-4.6111069,17.3657227-0.7550278c24.2688904,3.8290977,43.9536743,11.2445831,50.3175049,19.4151306c4.611084,6.1211624,5.0964661,10.2198944,5.0964661,54.6589737c0,54.9286194,0.5122986,53.6342926-24.5116272,65.1485443c-36.2684937,17.1230621-95.2958984,23.513855-197.7376404,21.7071838c-19.4151306-0.5123444-20.9521637-0.7550201-15.5860291-3.8290863c5.3661346-3.0740814,3.5864105-3.5864258-17.8780975-4.8537903c-29.8777161-1.7797241-55.9533005-9.1952057-68.1956329-18.9027863c-14.8310013-11.7569427-24.2688942-32.9517822-25.5362949-57.975708c-1.267374-23.7565536,3.3167534-51.0995407,8.1705418-49.3198242c1.7797203,0.7550278,5.6088219-3.5864182,9.1952095-9.950264c10.2198982-19.4151306,32.4394379-32.7090988,68.9776077-41.9043045C135.6631317,25.3214092,143.0786133,24.5663662,141.0293121,27.88307z M374.253479,312.9887695c-47.9663696,53.1281128-305.0255127,43.8287964-338.4972839,2.8044128c-4.0874767-8.3311157-6.6993999-90.487915,0.7550278-99.0980377c5.878479-6.6335144,8.4536667-5.6222992,8.4536667,2.7909393c0,10.4625702,5.1099586,14.7905426,25.0374374,20.6690216c72.0516739,21.7071686,234.5185242,18.9027557,281.006958-4.8537903c9.4648438-4.8537903,10.7322693-6.3908234,10.7322693-14.2916718c0-9.70755,2.561676-11.2445984,8.6828918-4.8537903C377.983429,221.477417,373.3579712,234.6736145,374.253479,312.9887695z M37.8055191,449.1642761c-5.3661308-5.3661194-5.6088142-7.145813-5.6088142-51.6118469c0.9080353-49.5121765-1.691431-45.2174072,11.4872932-58.2453918c1.0400543,12.1137085,2.0110512,21.2602844,8.9255753,26.2913208h0.0269737c21.9768333,16.0983887,131.0520935,26.830658,204.8834686,20.4398193c40.6099854-3.5863953,75.611084-10.2199097,92.4645081-17.6354065c11.2445984-5.0964355,11.756958-5.878479,11.756958-15.5859985c0-7.1458435,1.0246887-10.462616,3.5863953-10.462616c8.6828918,0,9.9502258,6.9031677,9.4378967,53.9039612c-0.2427063,25.5362854-1.267395,47.7827454-1.7796936,49.5625C330.1860352,491.6441345,76.5734711,488.6704407,37.8055191,449.1642761z"/></svg>