<svg version="1.1" xmlns="http://www.w3.org/2000/svg" xmlns:xlink="http://www.w3.org/1999/xlink" x="0px" y="0px" width="512px" height="512px"><path d="M223.3583527,176.0024567l-7.4993134,1.0970764v122.0193634h19.8289795v-61.4517822l3.4221649-2.8654633c1.8666534-1.6537781,4.9613495-3.749649,6.8279724-4.7320862c4.8467102-2.4233551,13.9834442-2.4233551,17.7331085,0.1146088c5.730896,3.6350403,6.1730042,6.7133636,6.1730042,39.1994629v29.73526h20.9260254v-29.506012c0-31.9293976-0.8841858-38.5445099-5.9437866-46.0274506c-8.6946106-12.8863678-29.1785278-15.1951141-43.3912048-4.8467255c-2.5379791,1.7684021-4.8467102,3.3075562-5.1741943,3.3075562c-0.2292328,0-0.6549683-10.5776367-0.769577-23.4640045C235.164032,171.8270721,236.3593445,174.1358185,223.3583527,176.0024567z M479.2683105,188.8888245c-2.6362,0.4421082-5.1741943,1.4245453-5.6163025,2.2105103c-0.5567322,0.769577-1.5391541,5.6163025-2.1941528,10.9051208c-1.8666382,13.328476-1.9812622,13.4430847-5.6163025,13.4430847c-6.3858643,0-8.4817505,1.6537781-10.3483887,8.0396576c-0.9824219,3.3075562-1.7684021,7.3688049-1.7684021,7.3688049l15.4243774-0.0004883v23.6768799c0,13.0009918,0.5567322,26.100235,1.2116699,29.2931671c3.0783081,14.3109131,20.3693237,20.4839172,37.0053406,13.0992126L512,294.8288879l-4.0479126-12.6921387l-5.9893799,1.4595642c-5.1742249,1.0970459-6.0584106,1.0970459-8.5963745-0.7695923l-2.750824-2.0958862l-0.3274841-24.9867706l-0.229248-24.8885651h19.8289795v-16.5214081h-19.7143555l-0.3274841-13.0009766C489.5184326,186.6783295,489.8459167,187.1204376,479.2683105,188.8888245z M0.000001,228.6450195h51.758358v-16.5214081H0L0.000001,228.6450195z M70.4738922,228.6450195h16.5214081v-16.5214081H70.4738922V228.6450195z M141.7501221,266.4035034l-4.0771332,4.0771484c-5.0595703,5.0596008-6.5005035,11.0033875-3.9625092,16.8489075c0.884201,2.1941223,2.5379791,4.5191956,3.6350403,5.2888184c1.9812622,1.2116394,1.6537781,1.6537476-3.6350403,7.0571899c-6.3858795,6.3858643-7.8267899,10.3483887-6.6151199,18.6172791c1.0970688,6.8279724,6.713356,13.0992126,14.7530136,16.1939392c5.2888184,2.0958862,8.4817505,2.5379944,19.4851227,2.5379944c29.080307,0.114624,45.5853577-11.0197449,45.6999664-30.8323364c0-8.2688599-2.7508392-13.0010071-9.8080444-16.5214233c-6.0583954-2.9800415-9.7916718-3.6350403-29.0639343-4.8467102c-8.5963593-0.5567017-15.9646912-1.5391541-16.8488922-2.3087463c-0.884201-0.6549683-1.5391541-2.6362-1.5391541-4.289978c0-5.1741943,2.6362152-6.2712402,15.4243469-6.8279724c16.7342834-0.6549683,25.5435181-5.0596008,31.1598206-15.7518311c1.8666382-3.5204315,2.3087311-6.1730194,2.1941071-13.2138672c-0.1146088-4.8467255-0.3274841-10.0209198-0.5567169-11.5600739c-0.3274841-2.4233551,0.2128448-2.8654633,4.4046173-3.8479004l4.7320862-0.9988098l-0.3274841-6.5987396c-0.4421082-8.3671265-1.6537781-8.8092346-11.4454651-3.9625092c-6.3858795,3.0783081-7.1554565,3.3075409-9.4642029,1.7683868c-6.6151123-4.2899933-23.0219116-6.1730042-33.4849243-3.8479004C126.8689499,218.9036865,121.4673615,252.975235,141.7501221,266.4035034z M172.1239777,227.9654999c5.8291473,2.4233551,7.8267822,5.5098724,8.2525024,13.3366547c0.4421082,6.5987396,0.3274994,7.0408478-3.4057922,11.1179962c-3.6350403,3.9625092-4.1917572,4.1917572-11.3472137,4.6174774c-9.0384827,0.4421082-13.9834442-1.9812775-16.5214081-8.0396729C143.0436707,234.3432007,156.9124908,221.481369,172.1239777,227.9654999z M184.4700012,301.7469177c7.9781494,3.27948,5.6163025,13.1074219-4.4046173,18.2816162c-4.6338654,2.3087463-6.9425964,2.750824-15.4243622,2.750824c-11.6746979,0-16.4067993-1.9812622-18.7155304-7.5975647c-1.9812622-4.7320862-0.4421082-10.6758728,3.6350403-13.983429c2.8654633-2.1941223,3.7496643-2.3087463,17.0617523-1.6537781C174.7765656,299.8720703,182.2735596,300.8440552,184.4700012,301.7469177z M328.1850281,213.8838196c-18.2898254,4.8467255-28.7364502,20.2628784-28.7364502,42.2859497c0,11.8875427,2.1941223,19.9272461,7.8103943,28.0814819c14.098053,20.4839172,52.0858459,21.0406494,67.5101929,0.9988403c11.2326355-14.6547852,11.6746826-41.2953491,0.8842163-57.0471802C366.6149292,215.1036682,346.474823,209.0370941,328.1850281,213.8838196z M347.899353,228.6450195c9.3659668,2.6362305,14.4255371,12.3296661,14.4255371,27.5411377c0,4.6174927-0.7695923,10.9051208-1.6537781,13.8688354c-5.6163025,18.9447632-32.0440063,19.4851074-38.4298706,0.7695923c-2.3087463-6.7133484-2.3087463-22.5798035-0.114624-29.1785431C325.8762817,230.740921,336.5521545,225.3538666,347.899353,228.6450195z M410.7756653,213.7773895c-13.2138367,3.749649-20.0418091,12.0021667-20.0418091,24.0043488c0,13.4430847,5.6163025,19.4851074,23.2347717,25.0031738c12.2150574,3.8479004,16.1939392,6.0584106,17.8313599,10.2501221c1.8666382,4.4046326-0.4421082,8.4817505-5.6163025,10.3484192c-4.5192261,1.6537781-16.2922058,0.9988098-24.004364-1.4245605c-8.2688599-2.4233704-8.8092346-2.3087463-10.7904968,4.7321167c-1.7684021,5.9437866-1.7684021,6.2712402,0.2128601,7.7121887c7.1554871,5.1741943,30.1773987,7.0571899,41.082489,3.1929321c11.461853-3.9625549,18.7155457-13.5413513,18.8301697-24.5610962c0-12.8863831-5.501709-18.6172638-23.6768494-24.5610504c-4.1917725-1.4245453-9.5788269-3.4221649-11.7893066-4.5192413c-6.7133789-3.4221649-8.2688904-8.6946259-3.8479309-13.0009918c3.7496643-3.4221649,11.7893066-4.0771179,22.1376953-1.7683868c4.7321167,0.9988098,9.1367493,1.6537781,9.8080444,1.3263092c0.7695923-0.3274994,2.0958862-3.0783234,2.865448-6.2712708c1.440918-5.4034271,1.3262939-5.9437714-0.5567322-7.3847046C440.8384094,212.7785797,420.6819763,211.0265503,410.7756653,213.7773895z M0.000001,263.8656006h86.9953079v-16.5214233H0.0000039L0.000001,263.8656006z M0.000001,298.0218506h34.1398849v-15.4243469H0L0.000001,298.0218506z M52.855423,298.0218506h34.1398773v-15.4243469H52.8554192L52.855423,298.0218506z"/></svg>