<svg xmlns="http://www.w3.org/2000/svg" width="512" height="512"><path d="m223.358 176.002-7.499 1.098v122.019h19.829v-61.452l3.422-2.865c1.867-1.654 4.962-3.75 6.828-4.732 4.847-2.424 13.984-2.424 17.733.114 5.731 3.635 6.173 6.714 6.173 39.2v29.735h20.926v-29.506c0-31.93-.884-38.545-5.943-46.028-8.695-12.886-29.179-15.195-43.392-4.846-2.538 1.768-4.846 3.307-5.174 3.307-.23 0-.655-10.577-.77-23.464-.327-26.755.868-24.446-12.133-22.58zm255.91 12.887c-2.636.442-5.174 1.424-5.616 2.21-.557.77-1.54 5.617-2.194 10.905-1.867 13.329-1.981 13.444-5.616 13.444-6.386 0-8.482 1.653-10.349 8.04-.982 3.307-1.768 7.368-1.768 7.368h15.424v23.676c0 13.001.557 26.1 1.212 29.294 3.078 14.31 20.37 20.483 37.005 13.099l4.634-2.096-4.048-12.692-5.99 1.46c-5.174 1.096-6.058 1.096-8.596-.77l-2.75-2.096-.328-24.987-.23-24.889h19.83v-16.52h-19.715l-.327-13.002c-.328-14.655 0-14.213-10.578-12.444zM0 228.645h51.758v-16.521H0v16.521zm70.474 0h16.521v-16.521H70.474v16.521zm71.276 37.759-4.077 4.077c-5.06 5.06-6.5 11.003-3.963 16.849.885 2.194 2.538 4.519 3.636 5.288 1.98 1.212 1.653 1.654-3.636 7.058-6.385 6.385-7.826 10.348-6.615 18.617 1.097 6.828 6.714 13.1 14.753 16.194 5.29 2.096 8.482 2.538 19.485 2.538 29.08.114 45.586-11.02 45.7-30.833 0-8.268-2.75-13-9.808-16.521-6.058-2.98-9.791-3.635-29.064-4.847-8.596-.556-15.964-1.539-16.848-2.308-.885-.655-1.54-2.637-1.54-4.29 0-5.175 2.637-6.272 15.425-6.828 16.734-.655 25.543-5.06 31.16-15.752 1.866-3.52 2.308-6.173 2.194-13.214-.115-4.847-.328-10.021-.557-11.56-.327-2.424.213-2.866 4.405-3.848l4.732-.999-.328-6.599c-.442-8.367-1.654-8.809-11.445-3.962-6.386 3.078-7.156 3.307-9.464 1.768-6.616-4.29-23.022-6.173-33.485-3.848-25.541 5.52-30.943 39.591-10.66 53.02zm30.374-38.439c5.83 2.424 7.827 5.51 8.252 13.337.443 6.599.328 7.041-3.405 11.118-3.635 3.963-4.192 4.192-11.348 4.618-9.038.442-13.983-1.982-16.52-8.04-6.06-14.655 7.81-27.517 23.021-21.033zm12.346 73.782c7.978 3.28 5.616 13.107-4.405 18.282-4.633 2.308-6.942 2.75-15.424 2.75-11.675 0-16.407-1.98-18.716-7.597-1.98-4.732-.442-10.676 3.636-13.984 2.865-2.194 3.75-2.308 17.061-1.653 8.155.327 15.652 1.3 17.848 2.202zm143.715-87.863c-18.29 4.847-28.736 20.263-28.736 42.286 0 11.887 2.194 19.927 7.81 28.081 14.098 20.484 52.086 21.04 67.51 1 11.233-14.656 11.675-41.296.884-57.048-9.038-13.1-29.178-19.166-47.468-14.32zm19.714 14.761c9.366 2.636 14.426 12.33 14.426 27.541 0 4.618-.77 10.905-1.654 13.869-5.616 18.945-32.044 19.485-38.43.77-2.309-6.714-2.309-22.58-.114-29.179 3.75-10.905 14.425-16.292 25.772-13.001zm62.877-14.868c-13.214 3.75-20.042 12.003-20.042 24.005 0 13.443 5.616 19.485 23.235 25.003 12.215 3.848 16.194 6.058 17.831 10.25 1.867 4.405-.442 8.482-5.616 10.348-4.52 1.654-16.293 1-24.005-1.424-8.269-2.423-8.809-2.309-10.79 4.732-1.769 5.944-1.769 6.271.213 7.712 7.155 5.174 30.177 7.057 41.082 3.193 11.462-3.962 18.716-13.541 18.83-24.561 0-12.886-5.501-18.617-23.677-24.561-4.191-1.425-9.578-3.422-11.789-4.52-6.713-3.421-8.269-8.694-3.848-13 3.75-3.422 11.79-4.077 22.138-1.769 4.732 1 9.137 1.654 9.808 1.327.77-.328 2.096-3.079 2.865-6.272 1.441-5.403 1.327-5.943-.556-7.384-5.617-4.077-25.773-5.83-35.68-3.079zM0 263.866h86.995v-16.522H0v16.522zm0 34.156h34.14v-15.424H0v15.424zm52.855 0h34.14v-15.424h-34.14v15.424z"/></svg>