<svg version="1.1" xmlns="http://www.w3.org/2000/svg" xmlns:xlink="http://www.w3.org/1999/xlink" x="0px" y="0px" width="443px" height="512px"><style type="text/css">.st0{fill:#181816;}</style><path class="st0" d="M47.4311333,129.9908142c-21.0059128-12.1101379-21.0059185-42.5498734-0.0000076-54.6600189s47.4058647,3.109726,47.4058647,27.3300095S68.4370422,142.1009521,47.4311333,129.9908142z M252.7780762,417.2392273l-94.7607574-94.7803345v63.1803589c0,0-13.1730804,0-31.5803909,0c-27.8502274,0-31.5803909-31.5803833-31.5803909-31.5803833V155.865448c26.813652-15.7479858,40.4493408-50.5078278,25.3328476-81.9230042c-21.0103607-43.663063-81.8067474-48.2009468-109.1711121-8.146904c-21.7201633,31.7933426-9.4918633,72.8337784,20.6383171,90.2534714v197.9902954c0,95.0202026,94.7803421,94.7803345,94.7803421,94.7803345h31.5803909V512L252.7780762,417.2392273z M394.984436,382.0092468c21.0059204,12.1101685,21.0059204,42.5498962,0,54.6600342s-47.4058533-3.1097412-47.4058533-27.3300171C347.5785828,385.1189575,373.9785461,369.8991089,394.984436,382.0092468z M189.637558,94.7607498l94.7607574,94.7803726v-63.1803741c0,0,13.1730957,0.0000076,31.5803833,0.0000076c27.8502197,0.0000076,31.5803833,31.5804062,31.5803833,31.5804062l-0.0000305,198.1934509c-26.8136597,15.7479858-40.4493408,50.5078125-25.3328552,81.9230042c21.0103455,43.6630859,81.8067322,48.2009583,109.1711121,8.1469116c21.7201538-31.793335,9.4918823-72.8337708-20.6383057-90.253479l0.0000305-197.9902954c0.0000305-95.0202179-94.780304-94.7803726-94.780304-94.7803726l-31.5804138-0.0000076L284.3983459,0L189.637558,94.7607498z"/></svg>