<svg version="1.1" xmlns="http://www.w3.org/2000/svg" xmlns:xlink="http://www.w3.org/1999/xlink" x="0px" y="0px" width="366px" height="512px"><path d="M358.0456238,113.1510544c-25.381958-50.0378151-95.8727112-53.8150864-126.5787964-6.7828293c-24.0792084,36.8819885-9.6557617,83.5087128,24.7371826,103.3679047v9.6864777c0,0,0,73.1767273-73.1767273,73.1767273c-30.3323517,0-54.0993042,6.5054932-73.1767197,16.4632874V136.3267212c26.8189774-15.6923828,43.1784286-47.9251251,34.1915054-81.9461517C129.7085419,0.1192062,61.5569534-18.3548832,21.6636066,21.2070351C-13.6053371,56.1829605-3.6069827,113.5306549,36.6539345,136.515152v239.0011444C8.6471233,391.8735657-7.6792898,426.3327942,3.6122265,461.291626c17.2685471,53.4641724,86.292305,68.352356,123.9444885,26.7344055c26.8715515-29.7017822,23.504837-72.4246521-0.5859756-98.7638245c10.665657-13.0053711,27.9417191-23.506073,56.0565414-23.506073c145.1960144,0,146.3334961-146.3334656,146.3334961-146.3334656v-9.8414307C360.9838257,191.0990143,376.5888367,149.7069855,358.0456238,113.1510544z M54.9616394,41.4138451c24.3306503-14.0268803,54.9091339,3.6019135,54.9091339,31.6557426s-30.5784836,45.6826782-54.9091339,31.6557388C30.6309872,90.6984406,30.6309261,55.4407921,54.9616394,41.4138451z M54.9616394,470.5881653c-24.3306522-14.0269165-24.3307133-49.2845764,0-63.3114624c24.3306503-14.026947,54.9091339,3.6018982,54.9091339,31.6557312C109.8707733,466.9862061,79.2922897,484.6150513,54.9616394,470.5881653z M274.4721375,177.9014893c-24.3307037-14.0268707-24.3307037-49.2845306-0.000061-63.31147c24.330719-14.0268784,54.9092102,3.6019135,54.9092102,31.6557388S298.8027954,191.9283752,274.4721375,177.9014893z"/></svg>