<svg version="1.1" xmlns="http://www.w3.org/2000/svg" xmlns:xlink="http://www.w3.org/1999/xlink" x="0px" y="0px" width="439px" height="512px"><style type="text/css">.st0{fill:#181816;}</style><path class="st0" d="M407.2984924,232.2571716c-36.8570557-25.2144775-84.6809082-11.0101471-104.8698425,24.0627747l-9.6391296-0.2516479c-74.8951874,0-145.9488678-57.0020294-171.9520569-127.6147156c19.8106613-17.0702209,30.6251907-44.4158325,23.3633499-73.2459564C130.4908295,0.7779808,62.5476265-18.4815121,22.1965084,20.6237564c-35.8994637,34.7911491-26.219944,92.7731781,14.4223614,115.9349899v239.0924988c-32.9881477,19.149231-48.036972,63.1518555-26.6845131,99.9650269c28.1621246,48.5533447,98.7051315,48.5011597,126.6726837-0.09375c21.144577-36.739624,6.0667419-80.5746765-26.8022537-99.7617798V244.3113098c48.1296158,50.9136658,114.565773,84.9228516,182.9647522,84.9228516l9.592926-0.1734314c18.0612793,31.3014832,58.5931091,47.2076721,95.1793213,29.6317444C448.1914368,334.3605347,453.624939,263.9496765,407.2984924,232.2571716z M109.8245087,439.0328674c0,28.0648193-30.5905533,45.7006226-54.9308548,31.6682129c-24.3402405-14.0324707-24.3402405-49.3040161,0-63.3364868C79.2339554,393.3321533,109.8245087,410.9679565,109.8245087,439.0328674z M54.8936539,104.7518997c-24.3402405-14.0324249-24.3402405-49.3040161,0-63.3364983c24.3403015-14.0324211,54.9308548,3.6033745,54.9308548,31.6682777C109.8245087,101.1485214,79.2339554,118.784317,54.8936539,104.7518997z M347.6377869,324.32901c-24.340271-14.0324402-24.340271-49.3040161,0-63.3365173c24.3403015-14.0324097,54.9308777,3.6033936,54.9308777,31.6683044C402.5686646,320.7256165,371.9780884,338.3614197,347.6377869,324.32901z"/></svg>