<svg version="1.1" xmlns="http://www.w3.org/2000/svg" xmlns:xlink="http://www.w3.org/1999/xlink" x="0px" y="0px" width="410px" height="512px"><style type="text/css">.st0{fill:#181816;}</style><path class="st0" d="M102.5045242,384.6052246V161.5436401c32.7139969-18.9926147,45.7481766-63.7877197,21.9557495-98.0658569C94.6090164,20.4707031,28.973217,25.9829712,6.5993762,73.3760986c-16.0562744,34.0110474-1.2674561,71.4489136,27.6651611,88.2593994v222.8356934c-30.6092529,17.7225952-44.8076782,58.3770142-25.3543091,92.7542114c25.8111572,45.6123047,91.6747437,46.2646484,118.2699585,1.1713867C147.4282379,444.0654297,133.4533844,402.6499634,102.5045242,384.6052246z M51.2760124,72.8546143c22.7086143-13.0917358,51.2485313,3.3618164,51.2485313,29.5453491c0,26.1835938-28.539917,42.637146-51.2485313,29.5453491C28.5673943,118.8535767,28.5673332,85.9464111,51.2760124,72.8546143z M51.2760124,473.2653198c-22.7086182-13.0917358-22.7086792-45.9989014,0-59.0906982c22.7086143-13.0917358,51.2485313,3.3618164,51.2485313,29.5453491C102.5245438,469.9035645,73.9846268,486.3571167,51.2760124,473.2653198z M375.5645142,384.776062l0.0100098-214.1160889c0-102.6598511-102.3899536-102.3999634-102.3899536-102.3999634h-34.1399994V0L136.6445465,102.3999634l102.4000244,102.4000244V136.539978c0,0,14.2316284,0,34.1399994,0c30.102356,0,34.1399536,34.1400146,34.1399536,34.1400146v213.9620361c-30.6092529,17.7225952-44.8076782,58.3770142-25.3543091,92.7542114c25.8111572,45.6123047,91.6747437,46.2646484,118.2699585,1.1713867C420.4882202,444.2362671,406.5133667,402.8208008,375.5645142,384.776062z M324.3359985,473.4361572c-22.7086182-13.0917358-22.7086792-45.9989014,0-59.0906982c22.7086182-13.0917358,51.2485352,3.3618164,51.2485352,29.5453491C375.5845337,470.0744019,347.0446167,486.5279541,324.3359985,473.4361572z"/></svg>