<svg version="1.1" xmlns="http://www.w3.org/2000/svg" xmlns:xlink="http://www.w3.org/1999/xlink" x="0px" y="0px" width="512px" height="512px"><path d="M502.3431091,233.1959686L278.7944336,9.6607714c-12.8651733-12.875843-33.7451477-12.875843-46.6260223,0l-46.4176636,46.4226303l58.8816986,58.8850746c13.6876221-4.6222076,29.3779297-1.5224075,40.2842102,9.386734c10.9641113,10.9747925,14.0415039,26.7993927,9.3046265,40.5336304l56.7503357,56.7503204c13.7319946-4.731308,29.572876-1.6729584,40.536438,9.3102722c15.3285522,15.3223114,15.3285522,40.1521912,0,55.4801636c-15.33078,15.3336182-40.160614,15.3336182-55.4970093,0c-11.5259094-11.5343323-14.3763428-28.4667358-8.5389404-42.6678009l-52.9269104-52.9291534l-0.0056152,139.2798767c3.7391968,1.8488159,7.2637024,4.3178101,10.3770752,7.4199219c15.3251648,15.3200989,15.3251648,40.1471252,0,55.4919434c-15.3280029,15.3223572-40.1690521,15.3223572-55.4807434,0c-15.3251648-15.3448181-15.3251648-40.1718445,0-55.4919434c3.7886353-3.7824402,8.1687469-6.6435547,12.8460693-8.5608826V188.3990479c-4.6773224-1.9117126-9.0524139-4.7531738-12.8460693-8.5608673c-11.6084747-11.6000519-14.4033051-28.6369476-8.4513092-42.8925171l-58.0452271-58.0564499L9.658989,232.1617432c-12.8786516,12.8865204-12.8786516,33.766449,0,46.6422729l223.5487061,223.5352173c12.870224,12.8758545,33.7451172,12.8758545,46.6316223,0l222.5037842-222.4981079C515.2189331,266.9596558,515.2189331,246.0718079,502.3431091,233.1959686z"/></svg>