<svg xmlns="http://www.w3.org/2000/svg" width="512" height="512"><path d="M148.776 208.86c-3.6-13.125 1.273-42.844 8.804-60.96 17.053 1.815 38.03 11.436 63.162 28.806 22.506-4.65 45.84-4.357 69.855 0 22.864-15.05 44.252-25.698 63.117-28.807 7.224 18.127 13.033 50.99 8.906 60.961h.034c43.802 47.683 17.37 144.22-53.506 152.112-23.13 4.1-88.258 4.3-106.877 0-80.504-12.871-90.96-114.946-53.495-152.112zm106.928 142.383c30.667 0 54.397-3.659 70.1-11.022 15.656-7.386 23.62-22.578 23.62-45.474-.223-8.682-1.415-17.133-7.808-25.443-20.305-26.39-45.45-15.062-85.328-15.038-55.019-2.597-87.728-10.193-93.67 40.447 0 22.907 7.76 38.088 23.258 45.451 15.487 7.409 39.149 11.079 69.828 11.079zm-53.11-31.054c-12.018-9.557-12.018-33.578 0-43.134 12.018-9.557 27.122 2.454 27.122 21.567s-15.104 31.123-27.122 21.567zm115.25-21.567c0-19.113-15.104-31.124-27.122-21.567-12.018 9.556-12.018 33.577 0 43.134 12.018 9.556 27.122-2.454 27.122-21.567zM156.22 428.316c-132.443-76.354-132.443-268.278 0-344.632S455.113 103.29 455.113 256 288.661 504.671 156.22 428.316zM512 256C512 59.662 297.992-63.716 127.711 34.453s-170.281 344.925 0 443.094S512 452.338 512 256z"/></svg>