<svg version="1.1" xmlns="http://www.w3.org/2000/svg" xmlns:xlink="http://www.w3.org/1999/xlink" x="0px" y="0px" width="512px" height="512px"><path d="M41.5929184,161.7064209c-7.200779-26.2474213,2.5462227-85.6803589,17.6069679-121.9101181c34.1021538,3.6303024,76.0548248,22.8709106,126.3118439,57.6083755c45.0080109-9.299263,91.6724396-8.712883,139.6985931,0c45.7223511-30.0995712,88.4953918-51.3909836,126.2211304-57.6083755c14.4469299,36.2493057,26.0641785,101.9696732,17.8111877,121.9101181l0.0680542-0.0000305c87.5972595,95.3580627,34.7386169,288.4142151-107.0032043,304.1967163c-46.2566223,8.2009583-176.4987793,8.5982666-213.7340851,0C-12.4198036,440.1629639-33.3308296,236.0315399,41.5929184,161.7064209z M255.4291534,446.446991c61.3294525,0,108.7842865-7.3173523,140.1864166-22.0427856c31.3113403-14.7707825,47.2393494-45.151886,47.2393494-90.9390564c-0.4473572-17.3626709-2.8312073-34.2636414-15.616333-50.8806152c-40.6063232-52.7765045-90.8923645-30.1228943-170.6408997-30.0751343c-110.0273132-5.1925507-175.4401855-20.3827057-187.3236389,80.8876953c0,45.8098755,15.5195465,76.1683044,46.5132599,90.8937378C146.758316,439.1069946,194.0770569,446.446991,255.4291534,446.446991z M149.2192383,384.3441772c-24.0341415-19.1113281-24.0341415-67.1490479-0.0000153-86.260376s54.2399139,4.9075317,54.2399139,43.130188S173.2533722,403.4555054,149.2192383,384.3441772z M379.6992493,341.2139893c0-38.2226562-30.20578-62.2415161-54.2399292-43.130188c-24.0341187,19.1113281-24.0341187,67.1490479,0.0000305,86.260376C349.4934692,403.4555054,379.6992493,379.4366455,379.6992493,341.2139893z"/></svg>