<svg version="1.1" xmlns="http://www.w3.org/2000/svg" xmlns:xlink="http://www.w3.org/1999/xlink" x="0px" y="0px" width="512px" height="512px"><path d="M148.7758331,208.8599701c-3.6007233-13.1248932,1.2732239-42.8440247,8.8042755-60.9605255c17.052597,1.8153076,38.0308228,11.4364777,63.1615906,28.8067627c22.5060272-4.6500397,45.840332-4.3568268,69.8555603,0c22.8632507-15.0511322,44.2516785-25.6977997,63.1162415-28.8067627c7.2241211,18.1262665,13.0332642,50.9894104,8.9064026,60.9605255l0.0340271-0.0000153c43.8025513,47.6833191,17.3708801,144.2200623-53.5064087,152.11203c-23.1303711,4.1008301-88.257309,4.2994995-106.8766479,0C121.7670364,348.100769,111.310585,246.0258789,148.7758331,208.8599701z M255.7035522,351.243042c30.6674805,0,54.3970337-3.6589966,70.0995178-11.0223694c15.657074-7.3860474,23.6217957-22.5779724,23.6217957-45.4736328c-0.2236938-8.6820984-1.415741-17.1333313-7.8088989-25.4425659c-20.3049622-26.3906403-45.4502563-15.0628204-85.3280945-15.0389252c-55.0186005-2.5965118-87.7279663-10.192276-93.6702423,40.4474945c0,22.9069824,7.7604675,38.0875549,23.258728,45.4509277C201.3632507,347.5727234,225.0247498,351.243042,255.7035522,351.243042z M202.5938263,320.1888733c-12.018158-9.5565491-12.018158-33.5775452-0.0000153-43.1340942c12.018158-9.5565186,27.122406,2.45401,27.122406,21.5670471S214.611969,329.7453918,202.5938263,320.1888733z M317.8441772,298.6218262c0-19.1130371-15.104248-31.1235657-27.1223755-21.5670471c-12.018158,9.5565491-12.018158,33.5775452,0,43.1340942C302.7399292,329.7453918,317.8441772,317.7348633,317.8441772,298.6218262z M156.2185516,428.3162842c-132.4427185-76.3546753-132.442749-268.277832-0.0000458-344.6325684S455.1134949,103.2905884,455.1134949,256S288.6612549,504.6709595,156.2185516,428.3162842z M512,256C512,59.6616783,297.9924927-63.7160072,127.7110519,34.4531631s-170.2813873,344.9245605,0.0000534,443.093689S512,452.3383484,512,256z"/></svg>