<svg xmlns="http://www.w3.org/2000/svg" width="512" height="512"><path d="M324.451 256.104c0-52.513-57.199-85.512-102.711-59.255s-45.512 92.254 0 118.51c45.512 26.257 102.711-6.742 102.711-59.255z"/><path d="M505.361 232.79 401.055 51.983c-9.08-15.643-22.87-23.596-40.909-23.616l-208.974-.02c-18.982-.304-33.33 10.873-40.003 23.112L4.004 237.461c-6.645 15.32-4.187 28.16 1.328 40.165l103.2 178.815c10.896 20.265 26.043 26.769 39.66 27.2h213.545c14.703.52 31.883-9.567 38.976-22.972l104.729-181.453c8.838-15.361 8.677-31.044-.08-46.425zM355.497 63.989c7.546-4.381 17.03 1.125 17.03 9.888s-9.484 14.269-17.03 9.887c-7.546-4.38-7.546-15.394 0-19.775zm-210.464-.001c7.6-4.378 17.151 1.124 17.151 9.879 0 8.755-9.551 14.256-17.15 9.879-7.6-4.378-7.6-15.38 0-19.758zM39.751 266.019c-7.586-4.353-7.586-15.296 0-19.65 7.586-4.353 17.12 1.119 17.12 9.825 0 8.707-9.534 14.178-17.12 9.825zm105.162 182.296c-7.544-4.397-7.544-15.45 0-19.846 7.544-4.398 17.025 1.129 17.025 9.923s-9.48 14.32-17.025 9.923zm210.57-.187c-7.553-4.354-7.553-15.298 0-19.653 7.553-4.354 17.045 1.119 17.045 9.827s-9.492 14.18-17.045 9.826zm56.162-188.964c-4.248 6.926-77.023 133.13-77.023 133.13l-152.99.006c-4.853.123-4.504-.405-5.516-1.973l-77.51-134.303 76.886-133.015c1.288-2.235 2.738-2.94 5.194-2.92l151.053.02c3.487 0 4.168 2.014 4.55 2.698l75.396 130.438c1.329 2.255 1.228 3.845-.04 5.92zm49.024 6.803c-7.546-4.366-7.546-15.34 0-19.706s17.03 1.121 17.03 9.853-9.484 14.22-17.03 9.853z"/></svg>