<svg version="1.1" xmlns="http://www.w3.org/2000/svg" xmlns:xlink="http://www.w3.org/1999/xlink" x="0px" y="0px" width="512px" height="512px"><path d="M90.2596436,226.1998444L0,225.7466888l85.8929062,32.1532135c2.8046875,9.0639954,8.752739,13.999176,15.5513458,17.8171082c-2.2657471,1.1534729-6.8384705,2.9660645-8.1979218,5.4996338c-6.2411423,11.6377563,2.9454803,14.3360596,8.898262,23.6051025c6.7148895,12.1321106,8.1567307,20.1652527,24.0170593,13.3473816c5.4378204-2.3275757,11.9879303-3.1720581,16.1692963-4.469696L97.685112,383.8251648l157.7484741-61.8453979l158.5619965,61.6698608l-27.1891174-42.5756836c42.526886-5.9950562,48.026886-47.4950562,35.0368958-81.526123L512,225.6643829l-97.9426575,0.3501587C414.25,208.4122162,385.75,209.9122162,384.5612793,222.5952911c-7.6005859-14.0270996-18.1260681-9.9075317-22.5752258-3.0072632c-5.8703613-6.0145721-19.5885315-8.0331573-26.4682007-3.6252136c-5.0670471-2.3687439-10.9786377-2.3893585-16.1486816,3.7899933c-3.7487793-3.1308746-4.9023132-4.0165558-13.1002197-7.291626l-50.3410645-84.2863617l-52.9364014,88.3646545c-3.295639,1.2358704-3.645813,0.8857117-7.2710114,4.4285278c-8.7334747-10.0105438-19.135376-0.8857117-21.936676,4.7169037c-1.215271-12.0909119-3.2338409-12.1115265-5.9321747-14.8304291c1.5654449-10.5872803,6.7354889-27.8276672-5.1494598-40.206955C141.25,152.4122162,104.25,200.1622162,90.2596436,226.1998444z M256.1750793,145.291626l39.4447937,65.5834503c-7.1886597,0.4943542-14.2536621,4.3049469-19.5885315,11.9879303c-4.6139221-4.7581024-10.0105286-9.4956055-19.5679321-9.8663635c-11.5965729-1.9979858-17.7759247,3.151474-25.582489,12.0909271c-2.3275452-7.7653809-11.308197-9.598587-19.1147766-5.9527588L256.1750793,145.291626z M158.9224396,194.6336517c-0.8094177,30.5957947-22.8120575,57.8490143-38.3840256,47.9002686c-11.7613525-9.5779877,3.1720734-33.780426,12.5852737-42.3285217c-0.7003326,6.5295105,5.231842,10.6078796,0.4943542,16.3958588c-9.5161972,11.5965576-5.7673874,19.9798889-1.6684418,21.2775421c10.9374542,3.460434,21.4217377-26.1798248,21.4217377-46.963028c0-13.3267975-7.8065643-13.0796204-23.151947,2.9042969c-20.9685669,21.8130798-32.2973709,42.9464569-24.7379837,57.4061127c4.2019501,8.0743561,10.3401031,13.8623505,20.4536362,12.6676483c19.7327118-2.3687439,31.6382599-26.7565613,32.9359131-42.4109039l3.151474-0.4531555c0,2.7601013,3.7899933,16.1074829,6.7766876,24.8821716c3.9135742,14.9746246,20.5772095,45.0062408-29.2077179,56.7057648c-9.4131927,2.3893433-13.1208115,3.1720581-22.4104309,6.8178711c-4.5521088-9.4338074-5.6231995-12.4822998-14.8716278-21.5865173l20.7420044-6.7767029c31.3087006-10.8962097,40.7012939-20.1858521,39.6302032-33.4920502c0,0,0.3913574-6.8384705-3.9547882-12.5646667c-2.1833801,7.6417999-6.2411499,13.7593536-6.2411499,13.7593536c-9.3102112,14.5008545-27.6422806,23.4815063-43.9145584,17.7759094c-8.8982544-3.1308594-12.7294464-9.9487305-12.7294464-21.6688995c0-14.9746246,34.1717911-58.3536224,50.9178085-65.7070618C158.6031647,175.6527252,159.1659851,185.4281769,158.9224396,194.6336517z M297.607605,222.378952c5.540802,0.1028137,11.5862427,2.8322144,15.6852112,7.2401428c12.6676331,13.6769409,11.2875977,30.2375946,3.4810486,40.6395111c-9.2896423,12.3998718-32.6887512,6.900238-38.2089539-10.4225159c-2.5747375-8.0537567,2.0185852-27.9718323,10.1341248-34.6455383C291.150177,223.1719818,294.270752,222.3170471,297.607605,222.378952z M252.5292511,223.7899017c0.8238983,0.0206146,1.6478119,0.1441956,2.4923401,0.3707581c10.7108612,0.6385345,12.9972076,6.6530914,14.9540253,11.9467316c4.9228821,13.3267975,3.6870422,25.8296509-6.4265137,36.0667725c-15.1600037,15.3247681-32.8329315,8.5481262-32.7711334-12.1115112C231.0869446,245.3558197,240.2529755,223.4809418,252.5292511,223.7899017z M292.3757324,224.5932312c-8.1773071,6.1175537-9.2175293,21.8130951-1.7199097,27.6422729c2.9454956,2.7601318,4.5932922,4.6756897,13.0796204,5.4584045c5.8291931,0.5355225,15.0158081-5.3760071,15.4689636-11.2463837c0.2059631-2.6571198-0.2677917-7.0856476-6.6737061-14.2948914c-5.3554382-6.0351715-12.3381042-7.4358215-14.0888977-6.4059296c-5.6437988,3.3368378,0.4531555,5.9939728,2.6571045,8.197937c3.4604187,3.460434,4.3049622,4.9640656,2.6777039,5.9939728c-3.2132568,2.0391846-6.7766724,1.7508087-7.9507446,1.215271C293.6013184,240.1239777,286.1139832,235.9014282,292.3757324,224.5932312z M372.5733643,224.6549835c3.563446,5.5614166,4.5932922,6.7561188,8.5686646,20.57724c5.1494751,17.878891,11.6583862,24.8203888,17.4257812,21.5659332c15.7985229-8.9188843,3.1308899-31.514679-2.430542-42.1225586c3.5634155-0.0411835,2.8630981,0.1441803,6.0969543,0.1029968c2.5541382,10.0517273,8.6922913,38.6826782,8.6922913,38.6826782c8.197937,36.3963623,9.4338074,46.0773315-11.2670288,62.4114075c-9.5162048,7.4976196-23.5227051,7.9095764-35.5518494,7.2298279l-13.5739441-1.9979858c9.3514099-6.1381531,11.6171265-11.8849182,11.5553894-23.831665c27.2714844,11.4317932,41.7929382,2.8218994,47.6015625-11.2052307c2.8013-6.756073,1.8332214-15.6749268-0.8651123-31.3910828c0.1647949,12.7912598-0.1029663,15.1600037-1.7919922,21.4835205c-3.3986511,12.6882324-11.6789551,16.2310791-17.3227539,7.2504272c-2.1627808-3.4604187-7.3534241-14.95401-8.9600525-27.333313c-1.6065979-12.3792877-2.8218689-29.7638397-10.6902466-37.0348816C370.9255981,227.3326721,371.8112488,225.3965149,372.5733643,224.6549835z M345.9815369,224.8472443c5.5530701,1.2442932,12.1939087,4.3804932,15.7985535,11.1159668c4.9640503,9.3102112,8.2597046,14.2536774,7.9919434,30.8761444c-0.2883606,17.7347107-7.2710266,22.4928284-11.8643494,23.151947c-5.9527588,0.8651123-16.2516479,0.7209473-22.3692322-34.089386c-2.0392151-11.53479-5.7261963-22.5134277-9.6191711-26.1180267c1.9361877-2.3275604,2.0803833-2.0391846,3.5222168-4.3461609c1.9567871,2.1421814,3.645813,5.7467957,6.3441467,16.5812531c4.325531,17.240387,8.2597046,20.8038025,15.9015198,21.7718811c11.9261475,1.524231,16.6018372-16.6636353,6.7972717-29.7020569c-2.1627808-2.8630981-7.7859802-6.5501099-10.7520447-5.0258789c0.1647644,5.0258789,2.4099426,3.4398346,2.4511108,6.7766876c-0.5561523,3.9547882-1.1328735,4.6551056-2.4099426,6.8384705c-3.0278625-1.1946716-4.4903259-1.6684265-7.1474609-6.2205353C337.2892456,229.8456421,339.5042725,223.3958588,345.9815369,224.8472443z M247.8844604,226.4882507c-5.6026154,3.9547882-12.6573639,17.0549774-6.4780121,28.7957458c3.0484619,4.3667297,6.3235321,7.9301758,13.6151581,6.4059448c5.2112427-1.0916748,14.3154907-7.250412,15.5719604-15.9839172c1.0916748-7.477005-9.7427673-21.9366608-15.7573395-18.5586243c-6.9826508,3.8929901-2.7189026,6.6942902,1.5860443,10.8962555c3.9341736,3.8517914,1.1123047,6.1587372-1.6478271,7.291626c-5.5202026,2.2657471-8.5892792,0.0617981-9.9693451-4.3255463S244.6300049,232.8941803,247.8844604,226.4882507z M186.7398071,227.8682709c1.1946564,3.6664276,2.1627502,8.5480957,4.6551056,13.3061981c0.5973358,0.4943542,2.8012848,0.0205994,5.726181-3.3368378c1.8332062-2.121582,3.9341888-5.0670776,7.6006012-9.8663635c2.2245636,2.0391846,2.4305573,3.5428314,3.0484772,4.6551056c1.5448303,2.7601013,4.7992859,2.5541229,5.8085785,2.2657471c3.5840149-3.5428162,4.1607513-5.8497772,6.5501099-6.1587372c0.2265625,4.5933075,0.4325409,7.4564056-5.4996338,14.4184723c-3.4810181,4.0783691-8.8158722,4.1813507-10.6696625,3.6664124c-2.5747223-0.7209167-4.2431488-2.3069611-8.2803192-4.3667297c-5.4996338,0.8445129-4.0577698,6.7148895-3.0690918,11.658371c2.5747375,13.0384064,10.6902771,18.2290802,17.7553101,14.3978424c2.4717407-1.3388672,1.8950043-1.3182373,6.6531067-3.2544556c-0.8033142,8.2597046-1.2770691,9.8663635,0.2059784,19.1147766c-11.53479,6.4265137-20.9273834,5.314209-23.5021057-10.7932739c-1.936203-13.4915771-5.5614319-29.8874359-8.8570709-33.2036743c-3.1102753-3.1308746-4.3667297-4.1607513-4.3667297-4.1607513L186.7398071,227.8682709z M34.9750786,229.5985107l53.4513359,0.3707428c-2.7601013,6.7766724-3.7282028,11.5141907-4.1195602,18.2084808L34.9750786,229.5985107z M419.9689331,251.226181l-4.6550903-21.215744l61.7728577-0.2059937L419.9689331,251.226181z M184.5152283,282.2053528c7.8477478,17.693512,16.6224365,19.7326965,34.9132996,13.9859314c3.7693787-1.7302246,8.1155396-4.2843628,9.0424347-11.0610657c9.8045654,8.8158569,30.5465851,10.4636841,45.6859589-8.1361389c13.059021,15.2835999,42.6992798,16.7322998,54.0487061-3.6595459c2.2245483,9.1660461,5.3760376,13.6700745,5.3760376,13.6700745c4.3049316,7.4152527,9.7015991,11.617157,17.9201355,13.7387695c1.8125916,2.9042969,2.4511108,3.4810181,3.1720581,5.0464783c0.7827148,9.7633667,0.2265625,10.9580383-7.3534546,16.5194397c-4.4490967,4.3461609-4.6345215,10.5872803-0.0411987,16.395874c4.9228821,4.6756897,10.1135254,6.3647156,29.3312988,1.3800354l16.5400391,25.9532471l-137.181488-53.1011658L119.3643188,366.059082l35.7578125-56.1290588C174.875,302.4122314,180.5334473,291.2964172,184.5152283,282.2053528z M374.2211609,291.7833252l1.3800354,3.6046143l-4.552124,0.0205688C372.1407471,294.5228271,374.2211304,291.7832947,374.2211609,291.7833252z"/></svg>