<svg xmlns="http://www.w3.org/2000/svg" width="512" height="512"><path d="M90.26 226.2 0 225.747 85.893 257.9c2.805 9.064 8.753 14 15.551 17.817-2.265 1.153-6.838 2.966-8.198 5.5-6.24 11.637 2.946 14.336 8.899 23.605 6.714 12.132 8.156 20.165 24.017 13.347 5.437-2.327 11.988-3.172 16.169-4.47l-44.646 70.126 157.749-61.845 158.562 61.67-27.19-42.576c42.527-5.995 48.027-47.495 35.037-81.526L512 225.664l-97.943.35c.193-17.602-28.307-16.102-29.496-3.419-7.6-14.027-18.126-9.907-22.575-3.007-5.87-6.015-19.588-8.033-26.468-3.625-5.067-2.369-10.979-2.39-16.149 3.79-3.749-3.131-4.902-4.017-13.1-7.292l-50.341-84.286-52.937 88.364c-3.295 1.236-3.645.886-7.27 4.429-8.734-10.01-19.136-.886-21.937 4.717-1.215-12.091-3.234-12.112-5.932-14.83 1.565-10.588 6.735-27.828-5.15-40.207-21.452-18.236-58.452 29.514-72.442 55.552zm165.915-80.908 39.445 65.583c-7.189.494-14.254 4.305-19.589 11.988-4.614-4.758-10.01-9.496-19.568-9.866-11.596-1.998-17.776 3.151-25.582 12.09-2.328-7.765-11.308-9.598-19.115-5.952l44.41-73.843zm-97.253 49.342c-.809 30.595-22.812 57.849-38.384 47.9-11.76-9.578 3.172-33.78 12.586-42.329-.7 6.53 5.232 10.608.494 16.396-9.516 11.597-5.767 19.98-1.668 21.278 10.937 3.46 21.421-26.18 21.421-46.963 0-13.327-7.806-13.08-23.152 2.904-20.968 21.813-32.297 42.947-24.738 57.406 4.202 8.075 10.34 13.863 20.454 12.668 19.733-2.369 31.638-26.757 32.936-42.411l3.151-.453c0 2.76 3.79 16.107 6.777 24.882 3.914 14.975 20.577 45.006-29.208 56.706-9.413 2.389-13.12 3.172-22.41 6.818-4.552-9.434-5.623-12.483-14.872-21.587l20.742-6.777c31.309-10.896 40.702-20.185 39.63-33.492 0 0 .392-6.838-3.954-12.564-2.184 7.641-6.241 13.759-6.241 13.759-9.31 14.5-27.643 23.482-43.915 17.776-8.898-3.131-12.73-9.949-12.73-21.669 0-14.975 34.172-58.354 50.918-65.707 11.844-3.522 12.407 6.253 12.163 15.459zm138.686 27.745c5.54.103 11.586 2.832 15.685 7.24 12.667 13.677 11.287 30.238 3.48 40.64-9.289 12.4-32.688 6.9-38.208-10.423-2.575-8.054 2.018-27.972 10.134-34.645 2.451-2.019 5.572-2.874 8.909-2.812zm-45.079 1.41c.824.022 1.648.145 2.493.372 10.71.638 12.997 6.653 14.954 11.946 4.922 13.327 3.687 25.83-6.427 36.067-15.16 15.325-32.833 8.548-32.771-12.111.309-14.707 9.475-36.582 21.751-36.273zm39.847.804c-8.178 6.118-9.218 21.813-1.72 27.643 2.945 2.76 4.593 4.675 13.08 5.458 5.829.535 15.015-5.376 15.468-11.246.206-2.658-.267-7.086-6.673-14.295-5.356-6.036-12.338-7.436-14.09-6.406-5.643 3.337.454 5.994 2.658 8.198 3.46 3.46 4.305 4.964 2.678 5.994-3.214 2.039-6.777 1.75-7.951 1.215-2.225-1.03-9.712-5.253-3.45-16.56zm80.197.062c3.564 5.561 4.594 6.756 8.569 20.577 5.15 17.88 11.658 24.82 17.426 21.566 15.798-8.919 3.13-31.515-2.43-42.122 3.563-.042 2.862.144 6.096.103 2.554 10.051 8.693 38.682 8.693 38.682 8.197 36.397 9.433 46.078-11.268 62.412-9.516 7.497-23.522 7.91-35.551 7.23l-13.574-1.998c9.351-6.139 11.617-11.885 11.555-23.832 27.272 11.432 41.793 2.822 47.602-11.205 2.8-6.756 1.833-15.675-.865-31.391.164 12.79-.103 15.16-1.792 21.483-3.4 12.688-11.68 16.231-17.323 7.25-2.163-3.46-7.354-14.954-8.96-27.333-1.607-12.38-2.822-29.764-10.69-37.035.865-1.71 1.75-3.645 2.512-4.387zm-26.591.192c5.553 1.245 12.193 4.38 15.798 11.116 4.964 9.31 8.26 14.254 7.992 30.876-.288 17.735-7.271 22.493-11.864 23.152-5.953.865-16.252.721-22.37-34.09-2.039-11.534-5.726-22.513-9.619-26.117 1.936-2.328 2.08-2.04 3.522-4.346 1.957 2.142 3.646 5.747 6.345 16.581 4.325 17.24 8.26 20.804 15.901 21.772 11.926 1.524 16.602-16.664 6.797-29.702-2.162-2.863-7.786-6.55-10.752-5.026.165 5.026 2.41 3.44 2.452 6.777-.557 3.954-1.133 4.655-2.41 6.838-3.028-1.195-4.49-1.668-7.148-6.22-3.337-6.612-1.122-13.062 5.356-11.61zm-98.098 1.641c-5.602 3.955-12.657 17.055-6.478 28.796 3.049 4.367 6.324 7.93 13.616 6.406 5.21-1.092 14.315-7.25 15.572-15.984 1.091-7.477-9.743-21.937-15.758-18.559-6.982 3.893-2.719 6.695 1.586 10.897 3.934 3.851 1.113 6.158-1.648 7.291-5.52 2.266-8.589.062-9.969-4.325s-.175-8.116 3.08-14.522zm-61.144 1.38c1.194 3.667 2.163 8.548 4.655 13.306.597.495 2.801.021 5.726-3.336 1.833-2.122 3.934-5.067 7.6-9.867 2.225 2.04 2.431 3.543 3.05 4.655 1.544 2.76 4.798 2.554 5.808 2.266 3.584-3.543 4.16-5.85 6.55-6.159.226 4.594.432 7.457-5.5 14.419-3.48 4.078-8.816 4.181-10.67 3.666-2.574-.72-4.243-2.307-8.28-4.366-5.5.844-4.058 6.714-3.069 11.658 2.575 13.038 10.69 18.229 17.755 14.398 2.472-1.34 1.895-1.318 6.654-3.255-.804 8.26-1.277 9.867.206 19.115-11.535 6.427-20.928 5.314-23.503-10.793-1.936-13.492-5.561-29.888-8.857-33.204-3.11-3.13-4.366-4.16-4.366-4.16l6.24-8.343zm-151.765 1.73 53.451.371c-2.76 6.777-3.728 11.514-4.12 18.209l-49.33-18.58zm384.994 21.628-4.655-21.216 61.773-.206-57.118 21.422zm-235.454 30.98c7.848 17.693 16.623 19.732 34.914 13.985 3.769-1.73 8.115-4.284 9.042-11.06 9.805 8.815 30.547 10.463 45.686-8.137 13.059 15.284 42.7 16.732 54.049-3.66 2.224 9.167 5.376 13.67 5.376 13.67 4.305 7.416 9.701 11.618 17.92 13.74 1.812 2.904 2.45 3.48 3.172 5.046.783 9.763.226 10.958-7.354 16.52-4.449 4.345-4.634 10.587-.04 16.395 4.922 4.676 10.113 6.365 29.33 1.38l16.54 25.953-137.18-53.1-136.606 53.121 35.758-56.129c19.753-7.518 25.411-18.634 29.393-27.725zm189.706 9.577 1.38 3.605-4.552.02c1.092-.885 3.172-3.625 3.172-3.625z"/></svg>