<svg version="1.1" xmlns="http://www.w3.org/2000/svg" xmlns:xlink="http://www.w3.org/1999/xlink" x="0px" y="0px" width="230px" height="512px"><path d="M1.4211342,131.7251587c16.5108051,14.177597,146.8311615,18.325531,207.0898895,6.6756134c30.0238647-5.9615936,37.5204315-16.956543-40.3939514-23.3970566c-3.9535065,0-4.8608704-0.3078537-4.8608704-1.8147278c0-0.9073715,9.6245422-39.3893585,9.6245422-39.3893585c13.4281311-14.2019997,36.9173431-38.9406395,57.018158-61.5712128c1.0207977-4.5530286-11.0341949-14.2747974-14.5826416-11.8443613l-61.7818451,64.7145767l-12.1522064,47.3936234C53.3858185,111.8652039-10.4459038,120.1633224,1.4211342,131.7251587z M177.8712158,498.1062927l4.6664276-82.1165771l13.1567993-23.7048645c-54.1150208,15.7777405-107.6902924,15.2883911-164.0872345-0.291687l14.2910023,24.8067017l5.978878,81.5170288C66.3639603,516.4295044,162.9862518,516.7626953,177.8712158,498.1062927z M202.1243286,376.1376648c1.3791504-6.8392944,10.4374237-87.6489563,10.2429657-87.7623901c-0.1944122-0.1944275-3.4512177,2.2197876-7.1941071,5.3631592c-8.1014709,6.886261-13.1352844,9.6499634-19.1141968,9.7471924c-8.7914734,0.4974365-16.3674927-5.2475891-1.4473724-21.9966125c8.603775-10.6291504,10.0296173-12.6545105,10.0296173-14.7932739c-0.5500031-5.7348022-14.7454987,2.0938416-22.6678772,16.3163452c-3.4350433,5.3631592-12.3466492,25.7140808-16.802475,38.3847656c-3.4512177,9.8190002-6.6756287,14.3720093-10.0296173,14.3720093c-1.9281464,0-5.1687469-2.4304199-5.1687469-3.8563232c0-2.6410828,3.2406006-10.8397827,9.2194824-23.899353c3.856308-8.2958984,6.9834595-15.2955933,6.9834595-15.4899902c-5.6834717,3.2576294-11.180954,10.0878296-20.4642944,10.8397827c-3.8437347,0.3113403-7.9070587-2.4304504-7.9070587-4.6502686c0-1.8309326,0.1944275-1.9281311-6.1733322,1.6203003c-9.6245499,5.2659607-15.084938,3.3377991-15.084938-5.476593v-4.0507202c-8.3376923,9.9028931-20.2971878,16.2498169-27.7394485,10.4346924c-3.6393356-2.8436584-3.5484467-9.5273438,0.3078537-21.0638428c6.9834671-20.6587524,12.3466492-28.7602234,17.1103134-25.7140808c2.9327316,1.8309631,2.4304352,4.7636719-2.2198029,14.3720093c-8.0042648,16.5108032-8.506546,24.3044128-1.4096603,22.2790527c6.789032-1.9281311,14.8905106-12.5572815,20.5615463-26.7348633c1.5230789-3.9535217,3.4350357-7.9070435,4.3585968-8.9116058c2.2197876-2.5276642,5.5738068-1.8309479,6.6918182,1.4096527c0.7129364,2.1225891,0,4.9580994-3.9535141,14.6798706c-3.2406006,7.907074-4.9580994,13.578064-4.9580994,16.6080322c-0.0972214,4.3585815,0,4.553009,2.8355103,4.3585815c3.645668-0.3078613,9.5111237-4.1479797,10.3212585-6.886261c3.1433716-10.2240601,26.5242157-67.339447,28.3551636-69.3648224c2.0067139-3.7268829,7.8932495-1.3722687,8.3121185,1.717514c0.1003113,5.1963806-23.4567871,57.0507202-27.1237335,71.3901672c-2.7884216,10.3575439,26.0733337-12.8817749,26.8320618-19.6541443c3.8563232-11.7471313,6.6756287-15.0849457,10.8397827-12.8651428c3.0463562,1.3127441,0.8180389,5.8412781,1.5230713,8.0042419c5.6924133-3.528717,14.3181915-15.7485657,25.4224396-9.1060791c11.932785,7.1206055-11.3898315,30.1933594-14.9877167,36.553833c2.7868347,3.9593811,17.5705872-9.7402649,25.3251953-16.7214355c4.4273376-21.6243744,10.0626831-82.3398895,15.7978821-137.012146c-37.73349,14.4170227-176.2738495,16.9749451-227.8687439-0.2380524c0,3.3575134,12.533432,120.5053558,13.212081,122.5056c0.1944361,0.8101501,1.2152176-0.7129211,2.2198057-3.6456604c9.0088348-25.2117767,26.9292965-46.5834808,42.127655-50.1319122c7.3885536-1.717514,12.9623604,0.0971985,18.9412422,6.0760956c6.5783997,6.5783997,7.7936172,13.675293,2.7382965,16.3973846c-2.5276642,1.3124542-4.9580994-0.5022888-8.1986847-6.3839569c-6.9834671-12.4600677-19.9458313-5.8816681-33.928978,17.4181671c-14.7770824,24.4988556-18.6333847,51.655014-7.3885479,51.655014c4.1479473,0,14.1775799-7.9070435,21.161047-16.6080322c4.7636604-6.0760803,6.5783997-9.4138794,9.2194824-17.2237244c1.7175102-5.2659607,3.7428818-10.1268311,4.5530243-10.7263336c1.511734-1.3445435,6.8970108-3.7006073,7.3885574,4.2613525c0.1762695,2.5521545-0.0959015,5.5155792-1.3196411,8.7227936c-7.4900894,19.6302795-12.0504951,42.8279724-18.2211075,55.586731c-2.2198067,3.1433716-5.3631821,2.9327087-6.7890282-0.3078613c-1.0207825-2.1225891-0.712925-4.3585815,2.1225777-13.8697205c1.8309326-6.2705383,3.6456718-12.2494507,3.9535255-13.3674622c0.3078575-1.3124084-2.0253677,0.4050598-6.3839607,4.4558105c-10.1268425,9.4139099-20.0592499,13.3674316-25.9247246,10.2240601c-1.7175121-0.9073486-1.9281597-0.7129211-1.9281597,1.7175293c0,7.6964111,7.2913265,76.7695618,8.1986866,77.8713989c59.2336197,27.7698364,144.73349,12.2531738,167.5241852,3.9099121C201.5757446,384.1622009,202.1243286,376.1376648,202.1243286,376.1376648z"/></svg>