<svg version="1.1" xmlns="http://www.w3.org/2000/svg" xmlns:xlink="http://www.w3.org/1999/xlink" x="0px" y="0px" width="328px" height="512px"><path d="M222.5073547,214.4341583V512h78.2887878V355.8453369c0-151.6563263-0.6341248-156.1348724-14.7237549-177.2593536c-25.6030273-38.404541-91.513031-46.7275085-173.434845-22.392746l-29.447464,8.9570923V0H0v257.5C86,235.6666718,129.6666718,202.6666718,222.5073547,214.4341583z M193.2910767,97.3181305c-2.2910767,3.8485336-3.341156,5.1126862,6.4045563,5.1126862h72.3069611l52.4917908-84.9111023C330.2950134,5.7419634,328.4495544,1.2598196,318.4764709,0h-72.0768738C246.3995972,0,194.5791626,94.761795,193.2910767,97.3181305z M0,505.5992432l83.2098618-74.2328796L0,358.4017029V505.5992432z"/></svg>