<svg xmlns="http://www.w3.org/2000/svg" width="498" height="512"><path d="M274.474 33.46c-110.209 0-201.808 83.296-220.396 192.993 46.056-69.562 113.215-106.447 113.215-106.447-45.856 50.263-86.407 101.03-115.619 153.238C27.021 317.304 9.18 364.932 1.79 415.15-8.338 484 24.74 520.774 95.393 510.223c24.286-3.628 68.271-25.822 80.737-32.277 29.695 15.204 63.062 23.774 98.344 23.774 97.454 0 180.35-65.155 211.091-156.087h-121.16c-17.185 31.364-49.507 52.511-86.547 52.511-53.469 0-97.12-44.03-99.591-99.324h318.05c3.188-39.705 4.184-82.336-23.217-139.236C526.519 32.492 469.517-49.51 283.378 33.66l-8.904-.2zM96.751 493.171c-37.775 4.163-86.591-38.91-30.964-140.794 17.942 48.282 50.753 88.772 92.557 115.35-11.553 6.79-41.225 23.196-61.593 25.444zM179 229.258c6.322-51.22 48.149-90.82 98.857-90.82s92.534 39.577 98.856 90.82H179.001zM358.283 50.42c94.382-46.278 128.685 3.161 118.312 53.536-1.425 6.945-6.612 25.398-11.22 41.336-24.908-42.472-62.416-75.995-107.092-94.894v.022z"/></svg>