<svg version="1.1" xmlns="http://www.w3.org/2000/svg" xmlns:xlink="http://www.w3.org/1999/xlink" x="0px" y="0px" width="512px" height="512px"><path d="M443.8199768-0.0019714c-40.5471802,0-64.7303467,32.6689339-64.7303467,87.3748856v336.0607605c0,54.7039795,24.1456909,87.3728943,64.6632996,87.3728943s64.7303162-32.6689148,64.7303162-87.3728943V87.3729172C508.4753418,32.6669617,484.3001099-0.0019714,443.8199768-0.0019714z M330.4906311,259.1619873l0.0001526-252.0668182L65.4168854,7.0951252C30.9904346,8.4916716,3.5172689,36.8664627,3.5172689,71.6164017s27.4733047,63.0102921,61.8997536,64.4068375l135.6938171,0.4655151l0.1439972,122.6573944c0,68.2828674-55.562027,123.8251648-123.8448792,123.8251648h-9.2511292c-35.6434937,0-64.550827,28.8580017-64.550827,64.5015259c0,35.6434631,28.9073296,64.525177,64.550827,64.525177h9.2748032C216.8239594,511.9980164,330.4906311,398.5819092,330.4906311,259.1619873z M40.3315239,323.010437c-49.0863304-28.2988281-49.0863419-99.4299927-0.0000153-127.7288055s110.7773895,7.2667542,110.7773895,63.8643951S89.4178543,351.3092346,40.3315239,323.010437z"/></svg>