<svg xmlns="http://www.w3.org/2000/svg" width="512" height="512"><path d="M360.683 255.99c0 80.102-87.31 130.438-156.782 90.387-69.472-40.051-69.472-140.723 0-180.774s156.782 10.285 156.782 90.387zm-40.032 247.584C130.766 552.974-42.4 377.044 9.698 187.66 58.413 10.577 270.224-55.198 410.178 51.445c19.164-16.398 49.903-8.238 57.625 16.687 3.93 12.682.477 25.147-7.154 33.989 107.13 141.672 38.599 354.99-139.998 401.453zm133.608-395.602c-7.868 5.65-18.056 8.242-28.783 5.817-25.444-5.753-35.974-35.634-21.187-55.974C269.05-44.484 65.004 19.147 18.013 189.965-32.33 372.96 134.998 542.958 318.478 495.225c172.296-44.824 238.584-250.357 135.78-387.253z"/></svg>