<svg xmlns="http://www.w3.org/2000/svg" width="280" height="512"><path d="M100.76 484.942c3.266-5.701 40.196-100.475 81.996-210.69 70.335-185.164 86.83-201.208 96.6-211.235 5.987-6.246.866-12.492.866-14.125-16.677-27.457-86.948-54.766-120.014-47.788-4.068 1.089-4.899 4.355-4.899 16.846 0 15.758-2.721 25.527-18.995 66.783C131.702 96.68 1.374 451.565 1.374 451.565c-12.122 41.747 58.851 92.834 99.386 33.377zm121.103-467.55c27.399 11.448 41.542 25.255 30.14 29.61-10.859 4.068-59.449-13.294-72.227-26.072-4.899-4.9-5.157-6.503-2.435-10.056 4.613-5.157 22.532-2.67 44.522 6.518zm-45.066 34.48c9.77 10.314 29.595 17.677 51.311 18.479 10.859.544 19.54 1.089 19.54 1.633 0 .258-1.891 3.524-4.069 6.79-2.177 3.266-11.144 25.24-20.083 48.59-14.125 36.93-17.648 43.977-27.418 52.945-14.927 13.58-38.563 26.873-55.667 30.942-7.334 1.89-18.737 5.443-25.24 8.423-6.504 2.721-15.557 5.912-16.646 5.912 0 0 53.318-141.397 58.446-155.264 5.443-13.58 10.6-24.982 11.689-24.982 1.089 0 4.87 3.008 8.137 6.532zM154.02 279.924s22.003-56.21 23.35-58.646c2.721-5.157 3.266-13.036 1.088-13.036-.802 0-4.899 1.891-8.967 4.355-6.532 3.81-6.532 3.81.802-1.89 4.613-3.525 12.492-10.315 17.648-15.214 8.681-8.136 15.758-11.947 12.75-6.79v.029c-.803 1.089-26.072 66.783-55.925 145.799C96.434 462.137 89.1 479.527 80.676 487.12c-5.156 4.899-11.66 8.967-14.124 8.68-3.266 0-2.177-1.088 2.722-2.98 4.355-1.632 7.334-4.612 7.334-7.591 0-2.722 1.089-5.702 2.436-6.79 1.346-.803 3.523-5.444 4.612-10.056.802-4.9 2.722-10.572 3.81-13.036 0 0 49.164-127.606 52.172-135.771 3.266-8.137 6.79-16.016 8.136-17.39 3.555-7.025.45-10.665 6.246-22.262zM11.487 455.92c0-3.266 35.297-104.257 35.297-104.257 0-1.89 8.967-12.233 19.54-23.091 10.857-10.859 17.905-19.826 15.756-19.826s-7.878 3.81-12.749 8.68c-4.87 4.871-8.967 7.335-8.967 5.444 0-8.165 25.527-67.871 32.03-74.948 5.96-6.503 29.31-23.35 32.317-23.35.545 0 .803 1.09.803 2.722 0 1.347-1.92 2.722-4.384 2.722-5.157 0-12.75 17.648-12.75 29.051.259 4.9-.801 8.967-2.176 8.967-4.355 0-13.838 22.261-15.214 36.644-1.346 12.49-.802 14.668 3.81 17.39 7.335 3.81 9.226 12.205 4.356 18.995-4.069 5.988-15.471 7.592-18.45 2.98-4.069-6.533-7.049-2.178-5.444 7.592 1.346 9.225.83 10.858-4.87 13.293-4.355 2.177-8.424 7.879-11.403 16.302l-23.35 61.912c-2.98 7.334-6.246 19.568-7.048 26.616-1.346 11.144-.544 13.838 4.9 20.083l6.503 7.335c-13.53-6.513-26.768-24.684-28.507-41.256z"/></svg>