<svg version="1.1" xmlns="http://www.w3.org/2000/svg" xmlns:xlink="http://www.w3.org/1999/xlink" x="0px" y="0px" width="512px" height="512px"><path d="M455.1073608,31.107336L56.8813591,31.1073303C25.4463367,31.1073303,0,56.2824669,0,87.3333282V256.011322c0,124.1807861,101.8756943,224.8813477,227.5480194,224.8813477h56.9039459C410.1242981,480.8926697,512,380.1921082,512,256.011322V87.3333282C512,56.2824783,486.5197754,31.107336,455.1073608,31.107336z M255.9887085,396.5762634c-94.2598724,0-170.655365-75.5253906-170.655365-168.6779785v-84.3389893h85.3333359v84.3389893c0,46.5762939,38.1920776,84.3389893,85.3333435,84.3389893s85.31073-37.7626953,85.31073-84.3389893h85.333313C426.6440735,321.0508118,350.2485962,396.5762634,255.9887085,396.5762634z M425.2429504,199.7740021l-82.4858398-21.0734406l19.9096069-81.5367126l83.9095764,21.0847321L425.2429504,199.7740021z"/></svg>