<svg xmlns="http://www.w3.org/2000/svg" width="489" height="512"><path d="M435.319 339.394c25.176-33.27 31.742-74.506-7.042-99.992-2.752-1.706-5.95 1.567-3.605 4.272l1.97 2.069c22.834 26.095 12.788 47.094 4.045 60.66-19.467 30.202-51.176 35.131-74.234 26.283 41.113-5.322 48.164-45.766 44.256-67.585-5.935-33.128-7.468-66.52-.771-85.813 5.332-15.363 14.222-24.218 24.634-25.127 3.198-.28 3.39-5.172-.034-5.574-18.016-1.137-31.142 12.878-38.715 27.468-17.403 33.529-13.68 77.66-14.986 91.582-1.768 18.868-6.456 26.088-16.92 26.133-12.413.636-22.628-4.911-19.993-19.424 2.704-5.607 7.977-11.715 18.223-13.217 0 0 20.526-158.967-108.103-261.129-128.628 102.162-108.102 261.129-108.102 261.129 10.246 1.502 15.52 7.61 18.223 13.217 2.635 14.513-7.58 20.06-19.992 19.424-10.465-.045-15.153-7.265-16.921-26.133-1.305-13.922 2.417-58.053-14.986-91.582-7.573-14.59-20.7-28.605-38.715-27.468-3.424.401-3.232 5.295-.034 5.574 10.412.909 19.302 9.764 24.634 25.127 6.697 19.292 5.164 52.685-.77 85.813-3.91 21.82 3.142 62.263 44.255 67.585-23.058 8.848-54.767 3.919-74.234-26.284-8.743-13.565-18.79-34.564 4.046-60.66l1.97-2.068c2.344-2.705-.854-5.978-3.605-4.272-38.785 25.486-32.218 66.721-7.043 99.992-40.57 10.333-59.093 38.55-50.847 63.991 10.515 32.44 48.323 48.547 76.914 59.999 4.957 12.26 15.17 19.962 27.02 23.706 18.664 5.895 35.022-.954 49.009-7.553 15.196-7.17 40.504-7.905 54.247-.13 11.326 6.406 15.97 17.493 13.738 29.517-.363 3.374 4.421 4.314 5.474 1.085 4.082-12.522 3.65-30.718-15.987-43.622-16.944-11.134-43.744-15.461-78.566-4.239-28.09 4.37-40.348-17.375 2.103-39.182 19.016-6.493 64.386-34.176 108.17-34.176 43.783 0 89.153 27.683 108.17 34.176 42.45 21.807 30.193 43.553 2.102 39.183-34.822-11.223-61.622-6.896-78.566 4.238-19.636 12.904-20.069 31.1-15.987 43.622 1.053 3.229 5.837 2.289 5.474-1.085-2.232-12.024 2.412-23.11 13.738-29.518 13.743-7.774 39.051-7.04 54.248.131 13.986 6.6 30.344 13.448 49.008 7.553 11.85-3.744 22.063-11.447 27.02-23.706 28.591-11.452 66.4-27.56 76.914-59.999 8.247-25.44-10.276-53.658-50.847-63.99zM75.899 443.46c-18.68-11.28-50.808-36.342-44.656-51.866 4.288-10.82 27.003-17.617 48.52-13.608 19.254 3.588 23.337 9.796 33.417 12.807-23.224 15.865-35.64 34.182-37.28 52.667zm124.412-164.097c-6.882-3.968-6.882-13.941 0-17.909 6.882-3.967 15.532 1.02 15.532 8.954 0 7.936-8.65 12.922-15.532 8.955zm77.539 0c-6.894-3.968-6.894-13.941 0-17.909 6.893-3.967 15.556 1.02 15.556 8.954 0 7.936-8.663 12.922-15.556 8.955zm134.874 164.163c-2.29-22.774-18.739-40.217-37.28-52.7 8.037-2.268 13.367-7.282 22.238-10.091 17.698-5.605 41.948-6.46 56.494 6.354h-.034c17.032 16.13-26.761 48.177-41.418 56.437z"/></svg>