<svg xmlns="http://www.w3.org/2000/svg" width="436" height="512"><path d="M209.988 124.749c0 1.697-1.697 1.697-1.697 1.697h-1.697c-1.696 0-1.696-1.697-3.393-3.394 0 0-1.697-1.697-1.697-3.393 0-1.697 0-1.697 1.697-1.697l3.393 1.697c1.697 1.696 3.394 3.393 3.394 5.09zm-30.54-16.967c0-8.484-3.394-13.574-8.484-13.574 0 0 0 1.697-1.697 1.697v3.393h5.09c0 3.394 1.697 5.09 1.697 8.484h3.393zm59.383-8.484c3.394 0 5.09 3.394 6.787 8.484h3.394c-1.697-1.697-1.697-3.393-1.697-5.09s0-3.394-1.697-5.09c-1.696-1.697-3.393-3.394-5.09-3.394 0 0-1.697 1.697-3.393 1.697 0 1.697 1.696 1.697 1.696 3.393zm-50.9 27.148c-1.697 0-1.697 0-1.697-1.697s0-3.394 1.697-5.09c3.393 0 5.09-1.697 5.09-1.697 1.696 0 1.696 1.697 1.696 1.697 0 1.696-1.696 3.393-5.09 6.787h-1.696zm193.39 237.52c1.696 0 1.696-.698 1.696-2.229 0-3.726-1.696-8.134-6.787-13.058-5.09-5.09-13.573-8.317-23.753-9.664-1.697-.167-5.09-.5-6.787-.5-1.697-.166-5.09-.515-6.787-.848 5.09-15.785 6.787-29.692 6.787-41.901 0-16.967-3.393-28.844-10.18-39.024s-13.574-15.27-22.057-16.967c-1.697 1.696-1.697 1.696-1.697 3.393 8.484 3.394 16.967 10.18 22.057 20.36 5.09 11.877 6.787 22.058 6.787 33.934 0 9.499-1.697 23.588-8.484 41.57-6.786 2.71-13.573 8.982-18.663 18.83 0 1.53 0 2.378 1.696 2.378 0 0 1.697-1.53 3.394-4.408 3.393-2.878 5.09-5.772 8.483-8.65 5.09-2.877 8.484-4.408 13.574-4.408 8.483 0 16.967 1.181 22.057 3.56 6.787 2.212 10.18 4.574 11.877 7.302a125.641 125.641 0 0 0 5.09 7.12c0 2.196 1.697 3.21 1.697 3.21zm-161.153-247.7c1.697 0 3.393 1.696 5.09 1.696-1.697-1.697-1.697-5.09-1.697-8.483 0-6.787 0-10.18 3.394-15.27 6.782-7.01 14.319-6.98 22.057 1.696 1.696 5.09 3.393 8.484 3.393 13.574 0 8.483-3.393 13.573-10.18 15.27 0 0 1.697 1.697 3.393 1.697 3.394 0 5.09 1.696 8.484 3.393 1.696-10.18 3.393-16.967 3.393-25.45 0-10.18-1.697-16.967-5.09-22.057-9.13-9.488-22.452-8.3-32.237-1.697-9.228 11.286-4.294 24.646 0 35.63zm25.45 28.843c-22.057 15.27-39.024 22.057-52.597 22.057-11.877 0-23.754-5.09-33.934-13.573 1.697 3.393 3.393 6.786 5.09 8.483l10.18 10.18c6.787 6.787 15.27 10.18 23.754 10.18 11.877 0 25.45-6.786 42.417-18.663l15.27-10.18c3.394-3.394 6.787-6.787 6.787-11.877 0-1.697 0-3.394-1.697-3.394-1.696-3.393-10.18-8.483-27.147-13.573-15.27-6.787-27.147-10.18-33.934-10.18-5.09 0-13.573 3.393-25.45 10.18-10.18 6.787-16.967 13.573-16.967 20.36 0 0 1.697 1.697 3.394 5.09 10.18 8.484 20.36 13.574 30.54 13.574 13.574 0 30.54-6.787 52.598-23.754v3.394c1.696 0 1.696 1.696 1.696 1.696zm-71.477 34.317-10.18-8.484c0 5.09-1.697 11.877-5.09 18.664l-10.696 20.36c-4.758 11.877-7.286 18.664-7.802 23.754-.682 3.393-1.18 6.787-1.53 6.787-17.222 34.426-38.988 69.202-32.404 106.026-7.635-5.256-11.336-12.542-11.336-22.04 0-11.71 3.086-24.585 9.357-39.856 6.105-15.27 12.21-25.45 18.148-32.237-.333-1.696-4.242-3.393-4.242-3.393-4.924 5.09-10.862 16.967-17.982 33.934-7.119 15.27-10.862 29.343-10.862 39.706 0 7.635 1.863 14.255 5.257 20.01 3.726 5.606 12.725 13.74 26.98 24.087l17.982 11.71c19.163 16.635 29.343 28.162 29.343 34.95 0 3.559-1.697 7.119-6.787 11.028-3.393 4.075-7.968 6.105-11.877 6.105-.332 0-.515.332-.515 1.18 9.495 38.613 105.067 32.358 136.218-21.208 0-8.484 0-13.74-1.697-15.952v-6.272c0-11.028 1.697-19.345 5.09-24.768 4.824-8.337 12.598-10.773 22.057-4.242 1.697-13.058 1.697-24.435 1.697-34.616 0-15.436 0-28.161-3.394-40.038-1.696-10.18-5.09-18.664-8.483-25.45l-10.18-15.27c-3.393-5.09-5.09-10.181-8.484-15.271-1.696-6.787-3.393-11.877-3.393-20.36-5.09-8.484-8.484-16.967-13.574-25.45-3.393-8.484-6.787-16.968-10.18-23.755l-15.27 11.877c-26.41 19.877-56.45 21.754-66.171 8.484zM11.1 385.98c3.397-7.399 9.535-11.621 14.147-11.534H44.76l7.468-2.878c5.062-11.954 4.13-13.033 8.134-17.982-4.62-5.959-1.128-22.577 7.286-37.327 13.303-22.154 20.931-39.208 26.632-63.975 12.58-47.904 60.116-58.912 54.617-107.092-4.405-41.144-13.323-95.177 10.04-123.659C169.602 8.532 178.664.477 210.67.018c29.603-.424 61.664 6.31 77.216 40.179 16.272 35.437 7.875 97.023 23.754 123.859 28.019 53.918 49.503 60.774 64.474 101.785 16.446 36.842 15.402 72.88 8.483 96.695 9.551-.437 11.847 18.505 13.574 31.721 1.697 3.726 3.393 7.303 8.483 10.347 8.565 8.355 28.023 10.915 28.844 25.433-.178 12.364-8.26 16.681-16.967 20.36-21.192 8.787-37.167 19.996-45.81 28.196 0 0-30.54 25.8-35.631 28.694-22.181 11.776-49.983-.186-57.688-17.483-51.2-6.13-92.193-7.917-113.695 3.577-18.15 21.4-38.331 17.23-70.246 5.772-53.748-19.072-61.745-14.204-81.758-21.425-19.006-5.492-14.542-17.619-8.483-26.582 17.716-24.24-2.696-42.178 5.88-65.166zm48.397-16.524c-1.357 10.366-10.993 10.109-20.86 9.997-8.999 0-15.104 1.014-18.314 2.711-18.042 20.115 7.977 35.627-8.667 65.972-4.241 7.302-6.454 12.725-6.454 16.584 1.697 6.587 12.92 11.123 33.427 13.981 42.103 6.116 61.988 20.683 92.129 26.19 11.877 0 21.724-5.256 29.858-15.42 1.697-3.293 1.697-7.152 1.697-11.61 0-16.035-9.665-36.313-29.01-60.898-20.641-25.796-27.027-46.364-40.205-57.172-4.408-3.909-9.498-6.437-15.104-7.801-12.466 2.054-17.099 6.952-18.497 17.466zm225.128 117.97v.366c11.162 23.815 44.176 23.836 61.08 7.801 23.81-22.584 38.863-35.52 67.553-47.31 6.842-2.812 9.42-4.268 12.192-6.302 4.474-6.749 8.044-17.417-13.573-26.98-15.884-7.718-18.552-17.059-22.057-36.813-3.27-14.285-5.459-12.19-11.877-6.12-6.13 4.928-11.68 11.135-18.208 17.072-9.329 8.483-26.712 7.314-35.03 1.385-6.754-4.815-10.636-13.435-12.933-25.078-3.394-2.878-5.09-4.408-8.484-4.408-8.483 0-11.877 8.816-11.877 26.631v52.764c-5.384 20.371-1.629 23.067-6.786 46.992zm-120.45-359.284c1.698-1.696 3.394-1.696 5.091-3.393-6.787-3.393-8.483-8.484-8.483-16.967 0-5.09 0-8.484 3.393-11.877 1.697-3.393 5.09-5.09 8.483-5.09s5.09 1.697 8.484 5.09c1.697 5.09 3.393 10.18 3.393 15.27v3.394h1.697v-1.697c1.697 0 1.697-3.393 1.697-10.18 0-5.09 0-10.18-3.394-15.27-3.393-5.09-6.787-8.484-13.573-8.484-5.09 0-10.18 3.394-11.877 8.484-7.803 16.864-4 32.883 5.09 40.72z"/></svg>