<svg xmlns="http://www.w3.org/2000/svg" width="512" height="512"><path d="M339.1 205.476c1.064-2.908 3.605-3.661 5.668-3.777.598-.033 1.003.427 1.255.743 1.777 2.23 1.46 4.973.55 10.327-2.121 9.617-6.66 18.083-12.71 25.805-.361.451-.429 1.128-.632 1.693l-1.22-.858c1.423-11.492 2.168-23.118 7.09-33.933zm-119.632 6.785c1.117-3.767 3.728-5.639 6.067-5.788 1.331-.085 4.73 3.002 2.015 10.675-4.222 9.799-13.027 29.237-13.027 29.237l-1.557-.542c1.377-11.333 2.302-22.768 6.502-33.582zm-70.146 54.386c-.993 2.168-3.341 4.188-5.554 5.295-5.87 2.89-11.13-.926-10.317-7.36 1.106-8.534 5.892-14.765 13.207-18.987 4.967-2.867 7.699-.97 7.586 4.786l.903.316s-3.476 10.826-5.825 15.95zm311.399 41.44c-3.161-8.308-2.642-16.594 0-24.88v24.88zm26.29-36.405c-4.9 1.873-9.81 1.547-14.663-.372-3.477-1.378-5.058-3.793-4.651-7.518-.045-4.719 1.783-8.512 6.344-10.205 5.215-1.964 10.724-3.319 15.69.52 6.029 4.65 4.369 14.865-2.72 17.575zm-465.427 4.64c3.658-5.893 6.954-11.989 10.77-17.768 6.772-10.25 13.635-20.432 20.837-30.388 1.874-2.619 5.08-4.267 7.654-6.367.361.271.745.565 1.106.836 0 1.625.158 3.273-.023 4.899-.61 5.463-1.4 10.882-2.009 16.345-.903 7.902-1.896 15.826-2.46 23.75-.901 6.473 8.045 10.473 12.936 3.997 1.919-2.551 3.567-5.374 4.99-8.24 4.379-8.738 8.375-17.7 12.935-26.348 4.267-8.082 9.595-15.487 17.407-20.59 1.987-1.286 4.718-1.4 7.112-2.054.135 2.393.767 4.9.293 7.18-1.76 8.15-4.357 16.164-5.757 24.382-1.264 7.338-2.212 14.946-1.738 22.328.587 9.031 9.12 15.262 17.542 14.133 2.19-.293 4.47-.88 4.492-3.68.023-2.596-2.032-2.8-4.04-3.002l.022.067c-7.333-.61-11.783-9.616-9.844-20.5 2.752-14.551 7.5-30.265 8.15-39.847.512-7.535-4.199-11.13-11.672-9.933-13.991 1.853-26.603 22.472-38.425 47.14l-5.825 12.078-1.196-.271c1.423-13.658 4.782-30.996 5.373-37.906 1.839-11.245-7.926-18.309-17.361-7.992-12.476 12.344-23.474 30.297-30.682 41.992 0 0 4.99-19.664 6.209-27.295 1.151-7.202 1.422-14.517-1.603-21.515-2.168-5.035-5.802-8.196-11.356-8.58C7.934 202.47.06 208.027 0 212.679c-.049 3.79 1.723 4.449 5.08 3.274 1.49-.655 2.619-2.055 3.996-2.98 6.426-4.232 11.177 1.603 11.717 7.766.135 4.628.52 9.392-.406 13.862-2.213 10.724-5.216 21.312-7.699 31.991-.948 4.041-1.558 8.195-1.874 12.327 1.67 6.292 7.318 3.91 10.77-2.596zm354.78-37.432c4.312.195 7.867-3.32 7.98-7.88.068-3.544-1.986-6.208-4.921-6.344-4.02-.203-7.541 3.996-7.676 9.121-.09 3.184 1.501 4.962 4.616 5.103zm-188.515-2.845c3.996.052 6.717-2.754 6.604-6.705-.113-3.342-2.145-5.554-5.17-5.622-3.59-.067-6.05 2.913-6.006 7.292.023 3.364 1.502 4.995 4.572 5.035zm-5.271 8.827c-1.13 1.603-1.626 3.68-2.213 5.622-1.084 3.41-1.648 7.044-3.16 10.25-1.446 3.025-3.41 6.14-5.938 8.263-3.974 3.319-8.196 1.783-9.844-3.116-.745-2.235-1.174-4.673-1.174-6.998.023-4.538.678-9.054.655-13.592-.023-4.944-2.912-8.172-7.766-7.901-3.658.203-7.699 1.151-10.724 3.093-8.15 5.215-13.298 13.004-15.646 22.373-1.377 5.463-.632 10.792 4.154 14.675 4.696 3.815 10.047 3.883 15.172 1.377 3.319-1.626 6.14-4.312 9.46-6.728 2.393 3.319 5.824 6.073 10.904 5.825 4.899-.249 8.692-2.755 12.123-5.983 4.493 7.292 8.083 9.347 14.02 8.173 6.322-1.242 10.025-5.983 13.705-10.927 4.899 14.652 24.202 16.729 31.584-2.822 12.214 13.952 23.277 19.01 40.525 18.174 14.02-.678 25.15-7.586 35.016-16.955 3.342-3.16 6.367-6.66 9.55-10.002.768 2.032.88 3.545.768 5.035-.474 6.073-.994 12.146-1.513 18.22-1.19 6.865 6.869 6.68 8.037 1.647 2.435-8.206 5.475-16.528 9.505-25.037.677-1.4 2.867-2.077 4.357-3.07.836 1.512 1.987 2.912 2.416 4.515.858 3.206 1.039 6.615 2.01 9.798 2.513 8.473 9.931 9.14 18.919 2.416.931 9.392 8.516 14.81 19.731 7.744 3.093 4.673 6.096 4.492 8.512-.362 1.016-2.032 1.67-4.222 2.732-6.23 2.618-4.945 5.17-9.957 8.195-14.653 1.422-2.213 3.657-4.628 6.863-3.138 3.141 1.608 2.784 5.214 2.37 8.692-.609 4.244-1.444 8.489-1.67 12.778 1.236 6.473 4.69 3.757 7.067 2.032.903-.722 1.016-2.348 1.557-3.544 2.687-5.96 5.238-12.011 8.263-17.79.678-1.31 3.161-2.484 4.651-2.326 1.084.135 2.393 2.46 2.754 3.996.813 3.477.949 7.089 1.603 10.61 1.784 9.754 5.464 12.711 14.02 11.312-3.259 15.64-2.38 28.055 3.32 36.71 2.37 3.318 6.704 2.234 8.24-1.581 2.005-5.502 2.04-21.382 2.1-37.139l1.038-.135c14.399 4.554 27.029 3.166 41.45-8.376 4.357-3.634-.407-9.345-4.763-5.712l-4.403 3.364c.361-12.914-1.196-18.31-7.089-21.357-9.46-4.9-17.993-1.649-26.392 4.176-.18-1.941-.361-3.567-.451-5.192-.16-5.63-8.107-5.404-7.947.225 0 2.755.27 5.487.18 8.24-.18 4.877-.293 9.777-.993 14.585-.821 6.295-10.276 6.76-11.514-.113-.834-4.63-1.489-11.367-2.28-14.471-1.445-6.322-6.593-8.895-12.237-5.735-4 2.82-8.292 7.042-10.069 10.544-1.513-10.453-4.99-15.556-18.626-6.66.339-1.174.7-2.055.836-2.958.27-2.077 1.106-4.538-1.716-5.486s-4.245.993-5.148 3.206c-1.128 2.754-1.986 5.621-2.98 8.42-2.235 6.345-4.718 12.553-9.708 17.34-1.896 1.806-3.996 3.16-6.75 2.1-2.935-1.13-3.229-3.771-2.912-6.3.7-5.666 1.896-11.288 2.438-16.977.158-1.626-.858-4.245-2.122-4.944-2.28-1.242-3.951.632-4.854 2.844-.497 1.22-3.658 10.972-5.103 14.494-1.286 3.161-3.522 5.712-7.27 5.306-3.86-.43-3.86-3.996-4.582-6.84-.994-3.907-1.536-8.015-3.048-11.718-1.739-4.29-6.39-5.35-10.16-2.619-2.009 1.445-3.68 3.387-5.35 5.238-1.22 1.332-2.19 2.89-3.522 4.696-.79-3.996.293-6.547 2.596-9.053 6.592-7.18 12.056-15.15 15.533-24.315 3.048-8.083 4.538-16.39 2.46-24.925-1.444-5.938-6.93-7.97-11.965-4.447-2.258 1.58-4.29 3.905-5.644 6.321-1.92 3.409-3.725 7.089-4.47 10.86-2.19 10.972-3.816 22.08-5.712 33.12-.203 1.24-.497 2.686-1.287 3.544-7.902 8.692-16.255 16.864-26.505 22.847-9.324 5.441-19.19 7.608-29.936 5.306-15.759-3.364-26.054-16.233-24.609-30.953 1.897-19.145 18.716-38.944 37.364-43.956 7.609-2.055 14.63-1.694 20.635 4.244 1.92 1.896 4.358 2.957 6.615.587 2.258-2.348.61-4.673-1.083-6.276-2.213-2.1-4.741-4.087-7.473-5.328-5.735-2.62-11.853-2.461-17.926-1.152-31.607 6.863-45.763 36.845-47.162 58.564-.317 4.899-1.31 9.979-3.139 14.494-2.325 5.734-8.285 7.45-13.071 4.718-4.538-2.573-5.712-8.692-2.822-13.726 5.621-9.843 11.446-19.597 16.616-29.688 3.522-6.841 5.26-14.382 3.996-22.193-.61-3.703-2.37-6.908-6.322-7.947-3.928-1.039-7.314.655-9.414 3.725-2.529 3.703-4.854 7.699-6.366 11.898-4.651 12.778-5.983 26.257-7.248 39.712-.722 7.563-4.831 13.14-10.61 17.52-3.839 2.89-7.857.835-7.925-3.951-.068-3.545 1.942-17.317 1.942-20.635-.748-3.327-3.54-4.64-6.231-1.536z"/></svg>