<svg xmlns="http://www.w3.org/2000/svg" width="512" height="512"><path d="M377.652 385.731h75.715s16.159-8.772 19.39-44.32c4.617-49.862 12.927-67.406 39.243-76.177h-75.253c-8.252 1.375-14.12 5.535-18.375 14.584-1.038-5.961-2-11.4-2.4-13.2-15.236-83.101-26.778-137.58-41.09-140.811h-79.408c-11.542 2.77-23.237 44.164-40.318 137.877-13.982-73.875-27.227-134.885-40.476-137.877h-79.41c-11.54 2.77-21.697 36.472-39.24 130.193-1.325 6.183-2.1 12.552-3.376 18.75-5.03-6.34-10.083-9.516-17.4-9.516H0c20.314 5.078 32.78 31.855 39.704 74.33 7.849 46.167 16.159 44.32 17.544 46.167H132.5c12.004-2.77 22.161-36.472 39.243-129.73.923-6.465 3.496-19.84 3.496-19.84l1.582 9.22c15.236 83.102 26.778 137.58 41.09 140.812 1.02 0 5.399-.462 5.399-.462h69.392c12.004-2.77 22.161-36.472 39.243-129.73.923-6.465 3.273-18.69 3.273-18.69l1.344 7.609c15.235 83.102 26.777 137.58 41.089 140.811zm-323.96-11.063c-3.434-7.178-6.61-19.25-9.431-35.847-5.566-34.14-14.491-56.946-27.076-68.97h58.068c5.427 0 9.286 2.143 13.668 7.62a125.151 125.151 0 0 1 2.302 4.565c-9.026 45.882-18.237 85.743-27.556 99.007-1.636.038-3.284.064-4.94.07l-.121-.07c-.898-.515-2.569-1.475-4.914-6.375zm158.057-2.171c-3.087-6.355-6.22-15.5-9.578-27.96-6.426-23.843-12.963-57.204-20.8-99.952-.24-1.427-.975-5.69-1.71-9.955-.63-3.648-1.258-7.297-1.573-9.15a515.7 515.7 0 0 0 3.102-19.005c7.54-35.906 15.238-65.134 22.97-76.051h9.775c.814.43 3.393 2.433 7.25 11.43 3.327 7.765 6.796 18.758 10.604 33.607 7.163 27.932 14.56 66.197 21.058 100.918-8.98 48.47-18.869 90.787-28.778 104.605-2.227.339-4.156.532-5.516.58-1.045-.447-3.47-2.203-6.804-9.067zm159.74-.462c-3.087-6.354-6.22-15.5-9.578-27.96-6.426-23.843-12.963-57.203-20.8-99.952a269.284 269.284 0 0 0-.699-3.953c-.222-1.226-.445-2.451-.668-3.784a809.046 809.046 0 0 0-1.872-13.125c8.388-43.388 17.459-80.26 26.455-92.837h9.884c1.03.427 3.468 2.151 6.834 9.08 3.087 6.354 6.22 15.5 9.578 27.959 6.427 23.85 12.966 57.221 20.807 99.988l.016.085.018.084c.496 2.23 1.983 10.81 3.295 18.378.116.667.23 1.329.345 1.984-3.485 10.05-6.426 23.216-9.29 40.04-4.083 23.819-10.176 43.862-18.457 52.763-3.499.234-6.599.316-9.038.328-1.032-.43-3.468-2.159-6.83-9.078z"/></svg>