<svg version="1.1" xmlns="http://www.w3.org/2000/svg" xmlns:xlink="http://www.w3.org/1999/xlink" x="0px" y="0px" width="512px" height="512px"><path d="M377.651947,385.7312622h75.7150574c0,0,16.1586914-8.7718506,19.3904419-44.3209839c4.6167603-49.861145,12.9269409-67.4049072,39.2425537-76.1767578h-75.253418c-8.2512207,1.3751831-14.1192627,5.5352783-18.3742065,14.5847778c-1.038208-5.9614868-2.0012817-11.4000244-2.4011841-13.1997681c-15.2354126-83.1018677-26.7773438-137.5797729-41.0892944-140.8115234h-79.4083862c-11.5415039,2.7698364-23.2369995,44.1636353-40.3179932,137.8768921c-13.9811401-73.8748169-27.2264404-134.8851318-40.475647-137.8768921h-79.4083862c-11.5419312,2.7699585-21.6989136,36.4723511-39.2425537,130.1930542c-1.3248291,6.1825562-2.0997314,12.5518188-3.3762207,18.7507324c-5.0305786-6.3416138-10.0825195-9.5172729-17.399353-9.5172729H0c20.3137817,5.0784302,32.7790527,31.8557129,39.7042236,74.3300171c7.8484497,46.1671753,16.1584473,44.3209229,17.5437012,46.1676636l75.2532959-0.0002441c12.0037842-2.7698975,22.1607666-36.4723511,39.2425537-129.730896c0.9234619-6.463623,3.4963989-19.8389893,3.4963989-19.8389893l1.5821533,9.2203369c15.2354126,83.1018677,26.7773438,137.5797729,41.0892944,140.8115234c1.0209961,0,5.399231-0.461731,5.399231-0.461731l69.392395-0.0002441c12.0037842-2.7698975,22.1607666-36.4723511,39.2426147-129.730896c0.9234009-6.463623,3.2730713-18.6899414,3.2730713-18.6899414l1.34375,7.6096191C351.7980347,328.0216064,363.3399353,382.4995117,377.651947,385.7312622z M53.6921997,374.6676025c-3.4346924-7.1781006-6.6096191-19.2491455-9.4313354-35.8469849c-5.5661011-34.1387329-14.4908447-56.9457397-27.0762939-68.9703369h58.0687866c5.427063,0,9.2861328,2.1432495,13.6679688,7.6210938c0.8117676,1.524292,1.5707397,3.0460205,2.3012695,4.5650635c-9.0252686,45.882019-18.2366943,85.7423706-27.5559692,99.0066528c-1.6351929,0.0380859-3.2840576,0.0635986-4.9393311,0.0698242c-0.0412598-0.0238037-0.0817871-0.0470581-0.1213989-0.0698242C57.7081299,380.5276489,56.0371094,379.5681152,53.6921997,374.6676025z M211.7487183,372.496582c-3.0869141-6.3543091-6.2198486-15.4998779-9.5777588-27.9594727c-6.4259033-23.8435669-12.9634399-57.2039185-20.8009033-99.9522095c-0.2382812-1.427063-0.9735718-5.6907959-1.7089844-9.954895c-0.6292114-3.6482544-1.2584839-7.296875-1.5733032-9.1508179c1.2095337-6.6124878,2.2253418-12.9429321,3.1021729-19.0042114c7.5402222-35.9058228,15.2382202-65.133606,22.9701538-76.0511475h9.7750244c0.8141479,0.4310913,3.3931274,2.4330444,7.2490234,11.4298706c3.3280029,7.7649536,6.796875,18.7579956,10.6047974,33.6072998c7.1629639,27.9324341,14.5609131,66.1966553,21.0580444,100.918335c-8.979248,48.4695435-18.8687134,90.7867432-28.7775269,104.6044312c-2.227356,0.3392334-4.1561279,0.5320435-5.5161133,0.5802002C217.5079346,381.1167603,215.083313,379.3605957,211.7487183,372.496582z M371.4890747,372.0348511c-3.0869751-6.354248-6.2198486-15.4998169-9.5777588-27.9594116c-6.4259644-23.8436279-12.9634399-57.2038574-20.8009033-99.9521484c-0.232666-1.394165-0.46521-2.6738892-0.697937-3.9536743c-0.2228394-1.2255249-0.4457397-2.4509888-0.6685791-3.7839355c-0.5935669-4.4400024-1.2233276-8.8135986-1.871582-13.1242065c8.3880005-43.3883667,17.458374-80.2614136,26.4542236-92.8377075h9.8846436c1.0291138,0.427063,3.4678955,2.1515503,6.8336182,9.0795898c3.0869141,6.3543091,6.2198486,15.4998779,9.5777588,27.9594727c6.4278564,23.8508911,12.9668579,57.2211304,20.8074951,99.9882812l0.015564,0.0847778l0.0187378,0.0841675c0.4956055,2.2305908,1.9829712,10.809021,3.295105,18.3775635c0.1157227,0.6674194,0.2304688,1.3290405,0.3440552,1.9838867c-3.4849854,10.0498657-6.4256592,23.2160645-9.2893066,40.0401001c-4.083313,23.819397-10.1759033,43.8622437-18.4568481,52.7636108c-3.4992676,0.2341919-6.5993042,0.3157349-9.0386353,0.3276367C377.2873535,380.6831055,374.8505249,378.9542847,371.4890747,372.0348511z"/></svg>