<svg version="1.1" xmlns="http://www.w3.org/2000/svg" xmlns:xlink="http://www.w3.org/1999/xlink" x="0px" y="0px" width="512px" height="512px"><style type="text/css">.st0{fill-rule:evenodd;clip-rule:evenodd;}</style><path d="M411.0444946,307.8573608c0,0,3.6550293,2.5778809,6.4500732-0.4296875c2.7950439-3.0075378,0.6450195-6.0150757,0.6450195-6.0150757L303.757843,194.2148285L411.0444946,307.8573608z"/><path d="M419.4295959,293.0344238c0,0,3.6550598,2.5778809,6.4501038-0.4296875c2.7950439-3.0075378,0.6450195-6.0150757,0.6450195-6.0150757l-88.7963562-81.6335754L419.4295959,293.0344238z"/><path d="M395.5642395,316.0206909c0,0,3.6550598,2.5779114,6.4501038-0.4296265c2.7950439-3.0075684,0.6450195-6.0151367,0.6450195-6.0151367l-88.7963562-81.6335449L395.5642395,316.0206909z"/><path d="M423.5258179,275.7286377c0,0,2.5535583,1.8010254,4.5062866-0.3001709s0.4506226-4.2023926,0.4506226-4.2023926l-62.0367126-57.0325012L423.5258179,275.7286377z"/><path d="M378.8051147,316.1157532c0,0,2.5535889,1.8010254,4.5063171-0.3001709s0.4506226-4.2023926,0.4506226-4.2023926l-62.0367126-57.032486L378.8051147,316.1157532z"/><path d="M421.6497192,255.4871979c0,0,1.2631836,0.8439178,2.229126-0.1406555s0.2229004-1.9691315,0.2229004-1.9691315l-28.3225098-25.8646851L421.6497192,255.4871979z"/><path d="M361.8788147,310.9121094c0,0,1.2631836,0.8439026,2.229126-0.140686c0.9659424-0.9845581,0.2229004-1.9691162,0.2229004-1.9691162l-28.3225098-25.8646851L361.8788147,310.9121094z"/><path class="st0" d="M446.1714172,315.6633606h17.0666809v-24.3326721h12.7999878l16.4571533,24.3326721H512l-18.2857056-26.1576233c0,0,16.2377014-6.4177246,16.2377014-23.8257446c0-24.5759888-22.3329468-25.4479218-22.3329468-25.4479218l-41.4476318-0.0024414V315.6633606z M463.2380981,254.8316803v21.8993988h21.9428406c0,0,8.3870544-0.0009766,8.3870544-10.9506531c0-11.3654022-10.2156067-10.9487457-10.2156067-10.9487457H463.2380981z"/><path d="M257.2190552,315.6633606h57.2952271v-14.5996094h-40.2285767v-15.8162231h34.7428589v-14.5996094h-34.7428589v-15.8279266h40.2285767v-14.5879211h-57.2952271V315.6633606z"/><path d="M174.3238068,240.2320709v14.5996094h22.5523834v60.8316803h17.0666656v-60.8316803h22.5523834v-14.5996094H174.3238068z"/><path d="M96.3047638,240.2320709v75.4312897h57.2952423v-14.5996094h-40.2285767v-15.8162231h34.7428589v-14.5996094h-34.7428589v-15.8279266h40.2285767v-14.5879211H96.3047638z"/><path d="M0,240.2301788v75.4350739l17.0552425-0.0013428V268.212738l20.7238102,30.415863l20.7352333-30.415863v47.4525146h17.0666695v-75.4350739H58.514286l-20.7352333,31.0241547l-20.7238102-31.0241547H0z"/></svg>