<svg xmlns="http://www.w3.org/2000/svg" width="512" height="512"><path d="M411.044 307.857s3.656 2.578 6.45-.43c2.796-3.007.646-6.014.646-6.014L303.758 194.215l107.286 113.642zm8.386-14.823s3.655 2.578 6.45-.43c2.795-3.007.645-6.014.645-6.014l-88.797-81.634 81.702 88.078zm-23.866 22.986s3.655 2.579 6.45-.429c2.795-3.008.645-6.015.645-6.015l-88.796-81.634 81.701 88.079zm27.962-40.291s2.553 1.8 4.506-.3.45-4.203.45-4.203l-62.036-57.032 57.08 61.535zm-44.721 40.387s2.554 1.8 4.506-.3.451-4.203.451-4.203l-62.037-57.032 57.08 61.535zm42.845-60.629s1.263.844 2.229-.14.223-1.97.223-1.97l-28.323-25.864 25.87 27.974zm-59.771 55.425s1.263.844 2.229-.14c.966-.985.223-1.97.223-1.97l-28.323-25.864 25.87 27.974z"/><path fill-rule="evenodd" d="M446.171 315.663h17.067v-24.332h12.8l16.457 24.332H512l-18.286-26.157s16.238-6.418 16.238-23.826c0-24.576-22.333-25.448-22.333-25.448l-41.448-.002v75.433zm17.067-60.831v21.9h21.943s8.387-.002 8.387-10.952c0-11.365-10.216-10.948-10.216-10.948h-20.114z" clip-rule="evenodd"/><path d="M257.22 315.663h57.294v-14.6h-40.228v-15.815h34.743v-14.6h-34.743V254.82h40.228v-14.588H257.22v75.431zm-82.896-75.431v14.6h22.552v60.831h17.067v-60.831h22.552v-14.6h-62.171zm-78.019 0v75.431H153.6v-14.6h-40.229v-15.815h34.743v-14.6h-34.743V254.82H153.6v-14.588H96.305zM0 240.23v75.435l17.055-.001v-47.451l20.724 30.416 20.735-30.416v47.452h17.067V240.23H58.514L37.78 271.254 17.055 240.23H0z"/></svg>