<svg xmlns="http://www.w3.org/2000/svg" width="512" height="512"><path d="M153.855 281.107c-1.61 2.168-3.485 4.239-5.624 6.213-8.074 7.15-17.318 10.724-27.73 10.721-10.25-.003-18.904-3.525-25.961-10.569l-.667 10.86h-17.66l2.745-46.486c.314-5.112-4.475-9.258-9.487-9.258-5.013 0-10.122 4.146-10.435 9.258l-2.744 46.486h-18.57l2.744-46.486c.314-5.112-5.019-9.489-10.031-9.489-5.011 0-9.576 4.376-9.89 9.49l-2.744 46.485H0l4.448-70.907H18.06c3.646-1.885 8.319-2.955 12.58-2.955 7.906 0 15.925 3.67 20.251 9.43 5.034-5.76 11.731-9.43 19.638-9.43 10.038 0 19.559 5.913 23.886 14.512a46.848 46.848 0 0 1 3.539-3.632c8.073-7.15 17.276-10.724 27.606-10.72 10.414.002 19.165 3.58 26.252 10.734 1.861 1.97 3.447 4.04 4.757 6.208 1.61-2.174 3.486-4.248 5.624-6.222 8.073-7.15 17.276-10.724 27.606-10.72 10.414.002 19.165 3.58 26.252 10.734 6.911 7.316 10.02 15.996 9.328 26.041-.687 9.965-4.99 18.604-12.909 25.915-8.074 7.15-17.317 10.724-27.73 10.721-10.33-.003-19.04-3.581-26.128-10.736-1.86-1.97-3.446-4.036-4.757-6.198zm-15.1-34.046c-3.813-3.94-8.592-5.91-14.342-5.912-5.749-.002-10.843 1.967-15.28 5.904-4.36 4.018-6.73 8.8-7.113 14.344-.383 5.547 1.328 10.33 5.135 14.35 3.895 3.94 8.717 5.909 14.466 5.91s10.8-1.965 15.155-5.902c4.443-4.019 6.857-8.802 7.24-14.347.38-5.544-1.374-10.327-5.262-14.347zm64.238 0c-3.812-3.94-8.591-5.91-14.341-5.912-5.749-.002-10.843 1.967-15.28 5.904-4.36 4.018-6.73 8.8-7.113 14.344-.383 5.547 1.328 10.33 5.135 14.35 3.895 3.94 8.717 5.909 14.466 5.91 5.75.003 10.8-1.965 15.155-5.902 4.443-4.019 6.857-8.802 7.24-14.347.38-5.544-1.374-10.327-5.262-14.347zm115.3-22.681c10.214.105 18.807 3.934 25.792 10.984 1.874 1.984 3.469 4.068 4.784 6.253 1.618-2.19 3.504-4.279 5.657-6.267 8.073-7.15 17.276-10.724 27.607-10.72 10.413.002 19.164 3.58 26.251 10.734 6.912 7.316 10.02 15.996 9.328 26.041-.687 9.965-4.989 18.604-12.908 25.915-8.074 7.15-17.318 10.724-27.73 10.721-10.331-.003-19.041-3.581-26.129-10.736-1.874-1.984-3.468-4.064-4.783-6.243-1.619 2.184-3.505 4.27-5.658 6.258-8.074 7.15-17.318 10.724-27.73 10.721-10.33-.003-19.04-3.581-26.128-10.736-6.91-7.314-10.022-15.954-9.335-25.92.538-7.804 3.256-14.783 8.155-20.937h-28.508l-2 29.113c-.596 8.684 1.676 11.547 8.593 11.547 3.384 0 6.448.01 6.448.01l-.943 16.363s-6.74-.035-12.48-.035c-6.623 0-12.07-2.128-15.203-5.809-3.544-4.12-4.865-10.597-4.217-20.017l1.255-31.173h-9.418l1.104-16.072 88.195.005zm12.734 22.68c-3.812-3.939-8.592-5.91-14.341-5.91-5.75-.003-10.843 1.966-15.28 5.903-4.361 4.018-6.731 8.8-7.114 14.344-.382 5.547 1.329 10.33 5.136 14.35 3.895 3.94 8.717 5.909 14.466 5.91 5.749.003 10.8-1.965 15.155-5.902 4.443-4.019 6.856-8.802 7.239-14.347.382-5.544-1.373-10.327-5.261-14.347zm64.3 0c-3.813-3.939-8.592-5.91-14.342-5.91-5.749-.003-10.842 1.966-15.28 5.903-4.36 4.018-6.73 8.8-7.113 14.344-.383 5.547 1.328 10.33 5.135 14.35 3.895 3.94 8.717 5.909 14.466 5.91 5.75.003 10.8-1.965 15.156-5.902 4.442-4.019 6.856-8.802 7.238-14.347.382-5.544-1.373-10.327-5.26-14.347zm74.99 37.002-10.15 12.015c11.775 8.365 28.075 10.204 38.475-1.228 3.032-3.33 9.14-11.929 2.632-24.323-6.507-12.394-23.807-18.353-18.165-26.255 4.275-5.985 15.072-.585 19.3 3.642 0 0 7.11-6.777 9.591-9.72-11.47-14.34-36.05-15.799-44.524-.82-14.012 24.768 26.207 35.932 18.517 47.567-5.087 7.695-15.676-.878-15.676-.878zm-6.64-62.6c-.3-10.094-16.823-20.077-16.823-20.077l-2.887.694 5.415 15.926s-.15 4.317-4.453 5.562c-4.302 1.246-7.319-1.976-7.319-1.976l-4.221-15.994-2.991 1.231s-8.217 22.118-7.122 24.877c1.566 7.137 6.161 13.394 6.678 24.172.518 10.777-6.99 35.768-7.718 42.243-.727 6.475 4.97 11.62 10.587 11.765 5.617.146 11.078-4.628 11.243-9.829.165-5.201-.395-30.29.941-41.365 1.339-11.074 18.97-27.136 18.67-37.23zm-33.35 82.488c-3.636-2.096-3.636-7.363 0-9.459 3.634-2.095 8.202.538 8.202 4.73s-4.568 6.824-8.203 4.729z"/></svg>