<svg version="1.1" xmlns="http://www.w3.org/2000/svg" xmlns:xlink="http://www.w3.org/1999/xlink" x="0px" y="0px" width="512px" height="512px"><path d="M7.4204903,12.6081667c-12.6441936,13.0297575-9.6175127,27.6458931,12.8497219,61.016674c11.5636826,17.3227539,25.0394726,44.2971039,30.1839504,59.707756c5.1444702,16.0480347,15.4106598,37.8779144,22.4672394,48.7814484c12.8384094,17.9828796,12.8384094,21.8298492,4.4843369,54.5632935c-5.1444626,20.5323792-7.056572,46.2319641-4.4843369,62.2799988c3.8469772,26.9743347,25.6768341,66.1269836,39.152626,70.6112976c11.5636902,3.8469849,28.2490768-16.6853943,28.8864517-35.3056641c0-16.0480347,0.6373596-16.6853943,7.6939392-5.1444702c12.2010651,19.894989,50.7163086,62.2572327,53.9259338,59.0476074c1.2747345-1.2747192-7.0565796-17.9829102-19.2576294-36.5803833c-11.5636902-19.2576599-25.0394745-44.2970886-30.1611786-55.8608093c-7.0565796-19.2576599-9.6288147-20.5323792-17.9828796-11.5636597c-5.1444702,5.1444702-11.5636978,19.894989-13.4757919,33.3707581c-5.1444702,30.8213196-16.6853943,34.6683044-25.6768494,8.3540955s-8.9914551-71.2714539,0-102.0699921c6.4191971-21.1924896,5.7818375-26.9515839-5.1444702-43.0223694c-7.0565872-9.62883-17.9828949-32.7334137-23.76474-51.3536987c-5.7818451-17.9828949-19.257637-44.9344711-30.16119-59.0704041c-25.0394707-35.3056564-25.0394707-48.1440659,1.2747421-43.0223618c10.903553,1.9348698,27.6117058,9.6288128,37.8778954,16.6853886c9.6288223,7.0565796,26.314209,12.8384247,36.5803986,12.8384247c30.8213196,0,84.7472229,30.1839409,123.8998566,69.3365784c30.1839447,30.1611786,45.5718536,54.5632935,78.3280182,120.6902618c38.5152283,78.3052826,41.7248535,82.8123627,65.4895935,90.5063019c28.2490845,9.6288147,87.2967529,45.5718689,87.2967529,53.2885437c0,2.5722656-14.7733154,6.4191895-32.733429,7.6939392c-48.1440735,5.1444702-52.6511536,14.1131592-21.1924744,42.3622437c14.7732849,12.8383789,42.3849792,32.7333984,62.2799988,43.6596985L512,504.94104l-16.6853943-21.1924744c-9.6288147-11.5636902-29.5238342-29.5238342-44.9344482-39.1526184s-27.6116943-19.8950195-27.6116943-22.4672241c0-2.5722656,10.9035645-7.0565796,24.4021301-8.9914551c35.9430237-6.41922,46.209198-9.6288452,46.209198-16.0480347c0-9.6288147-64.8294373-58.4102478-95.6507568-71.9088135c-26.314209-12.2010498-29.5238342-17.34552-63.5547485-87.2967224c-30.1839294-64.1920929-42.3622131-82.1749878-80.8774719-120.6902542c-49.418808-49.4188232-83.4497375-70.6113129-127.1094589-77.0305176c-14.7732925-2.5722351-35.3056488-10.2661896-44.2971039-16.6853905C60.6977539,7.4295111,17.8723621,1.8375821,7.4204903,12.6081667z"/></svg>