<svg version="1.1" xmlns="http://www.w3.org/2000/svg" xmlns:xlink="http://www.w3.org/1999/xlink" x="0px" y="0px" width="327px" height="512px"><path d="M17.1863899,0c12.3513355,64.8399429,24.6203423,179.910965,21.5188217,205.854248c-2.4629707,17.295517-13.5919361,48.7850342-24.0823669,70.3862c-21.6193943,43.22052-20.9990921,45.7017517,13.5919466,63.5993347c12.3513355,6.1665039,14.2122478,11.7310181,12.3513355,33.3504028c-1.8426628,22.8417664,0,25.9432678,12.3513336,27.7859497c12.3513374,1.8426514,14.2122459,4.9441833,11.1107292,17.2955017c-3.7035751,12.9716492-1.2406006,16.0549011,14.1940002,21.6193848c14.2122498,4.9441833,18.5178833,11.1107178,21.6194,30.2671814c4.9441833,30.2488708,25.9432755,46.303833,53.7292099,40.7575378c9.8883667-1.8426514,37.0540009-14.8143005,59.8957825-27.7859497c22.8417664-13.5736694,53.1088867-26.5453186,67.302887-29.0083008c25.3229675-3.7035522,25.3229675-3.7035522,35.1931152-43.22052c18.5178528-72.2471313,10.4904175-105.5975342-12.9716492-57.4328003c-16.0549011,31.489502-59.2754669,67.302887-81.5151672,67.302887c-5.5462494,0-1.8426514-4.9441833,8.6477814-11.7310181c82.1354828-51.2480164,94.4685211-164.8729858,26.5453339-238.962738c-27.1656494-29.026535-39.516983-32.7301178-17.8975983-4.9441833c20.3787994,25.9250336,33.3504181,77.8115692,28.4062347,114.2270203c-4.3238831,32.1098328-23.4620514,61.1363831-48.7850342,74.7283325c-9.8701172,5.5462646-8.0274658,1.2406311,7.4071503-16.0549011c16.6752167-19.1381836,19.7584991-27.7859497,19.7584991-53.710968c0-52.4886017-33.9707184-109.3011017-129.0595703-215.5006714c-38.8966675-43.2205429-29.0265427-6.1665421,14.1940002,55.5718689c32.7301331,45.7017593,31.489502,48.1647415-4.9441833,10.4904251C96.101532,104.015007,47.4535522,43.2205467,17.1863899,0z"/></svg>