<svg xmlns="http://www.w3.org/2000/svg" width="512" height="512"><path d="M511.766 319.79c1.041-8.493-1.54-22.783-4.756-26.905-1.291-1.676-3.601-5.798-5.028-9.013-1.812-4.371-3.216-5.911-5.277-5.911-1.426 0-3.6-1.155-4.755-2.582-2.197-2.582-2.31-2.582-6.568-.25-2.446 1.292-5.14 3.489-5.798 4.893-.77 1.29-2.445 3.986-3.6 5.933-3.755 6.128-.65 5.378-4.756 16.102-1.291 3.352-2.695 8.38-3.216 10.939-1.155 6.318-3.737 8.764-9.534 8.764-6.953 0-7.972-1.155-7.859-8.493.385-25.5 0-35.669-1.925-42.1-3.465-12.094-.52-38.364 4.643-41.58.906-.634 11.074-1.042 22.397-1.155 18.933 0 21.107-.249 23.69-2.582 2.445-2.196 2.694-3.465 2.06-8.379-1.817-9.721-1.902-18.208-3.986-24.323-.634-1.155-5.797-1.427-19.816-.906-10.304.385-20.088 1.042-21.628 1.54-3.872 1.02-7.722-6.046-5.661-10.689.77-1.676 1.426-5.277 1.426-8.108 0-2.695.634-5.412 1.291-5.797 1.925-1.155 1.54-8.878-.634-11.709-1.042-1.29-1.925-3.465-1.925-4.642 0-3.216-2.31-4.122-13.52-5.277-27.176-2.695-27.086-2.729-31.072.736-4.121 3.601-4.303 5.243-2.49 26.237 1.041 12.365.135 15.83-4.122 15.83-6.432 0-20.994 10.417-22.783 16.487-1.291 3.985 1.811 13.135 5.14 15.332 6.502 3.37 16.352 1.531 18.797 5.933 1.54 3.08.385 22.534-2.31 38.364-1.811 9.92-1.811 12.093 0 21.628 1.156 5.91 2.061 12.999 2.061 15.83s.521 6.182 1.291 7.473c.634 1.291 1.54 7.474 1.812 13.77.77 15.966 2.695 22.012 9.013 27.425 8.108 7.088 10.033 7.587 25.614 7.722 7.972 0 15.83.136 17.642.136 13 .136 29.622-2.445 30.505-4.755 9.038-10.875 23.871-16.375 25.637-35.918zm-385.382-98.514c-2.831 0-5.526-3.352-5.526-6.817 0-1.676-1.291-4.122-2.695-5.548-2.446-2.197-5.028-2.446-20.337-2.582-9.648-.136-19.839-.634-22.67-1.155-11.459-1.925-16.872 5.027-15.309 19.703.385 4.755 1.427 10.032 2.061 11.708 1.02 2.967 1.427 3.08 11.074 2.31l10.033-.77c7.598 13.243-3.901 16.174.657 61.033 5.509 25.93 4.578 24.342-9.399 25.116-7.858 0-8.877.249-10.825 3.216-2.31 3.6-5.526 16.985-5.662 23.44 0 3.487.77 4.37 5.798 6.816 13.25 5.778 27.291-1.746 49.46 3.102 2.197 1.676 28.196 1.291 32.952-.52 5.526-2.061 8.38-6.047 8.38-11.46 0-2.83-.635-5.526-1.292-5.933-.77-.385-1.29-4.371-1.29-8.878 0-10.032-1.676-12.478-9.399-13.27-5.277-.635-6.047-1.156-6.047-3.602 0-1.676-.77-3.352-1.54-3.6-1.29-.522-1.29-1.02-.136-1.812 2.831-2.061 3.216-8.357 1.676-26.792-1.54-16.736-1.54-18.797.385-21.763 1.291-1.79 2.197-5.526 2.197-8.244 0-2.967.77-5.797 1.925-6.703 1.02-.906 1.925-2.31 1.925-3.216 0-4.892 18.797-5.526 27.674-.906 2.197 1.042 4.756 2.31 5.798 2.83s2.06 2.447 2.31 4.258c.25 1.812 1.29 3.986 2.31 4.756 2.06 1.812 2.582 18.412.634 23.553-1.427 3.6-1.925 25.229-.77 32.453 1.155 7.338-2.197 10.304-11.98 10.304-11.074 0-11.46 1.676-6.817 26.905 2.061 11.21 2.582 11.595 15.581 10.417s8.38-1.155 43.777 0l28.965 1.042 2.967-4.122c2.31-3.215 2.83-5.412 2.582-10.802l-.385-6.817 13.52 9.014c16.487 10.938 22.67 12.614 47.264 12.365 26.228.757 28.565-6.245 43.663-9.784 9.534-2.196 16.6-8.243 19.839-16.872 2.612-7.58 7.038-14.399 7.722-18.932 0-2.695-6.318-9.784-8.877-9.784-7.64-1.433-11.974-8.266-19.431-1.947-5.376 3.097-9.376 1.847-13.657 5.91-6.264 5.526-8.78 3.603-14.675 10.169-2.748 4.711-15.127 6.935-20.744 5.775-3.873-1.155-15.332-8.493-15.332-9.648 0-.52-2.446-3.487-5.277-6.431-5.027-5.141-5.277-5.798-4.507-11.324 1.042-8.107 2.446-9.262 10.69-9.262 3.872 0 8.764-.906 10.938-2.061 5.798-3.103 25.614-2.831 30.392.249 2.831 1.925 6.319 2.31 18.276 2.31 15.581.136 22.783-1.291 28.196-5.413 3.351-2.446 3.351-2.83 3.351-18.412.223-30.348-6.902-31.223-11.572-41.466-4.08-7.507-4.92-5.218-9.145-9.636-4.779-4.996-6.06-7.09-11.441-8.391-2.446-.385-8.108-2.446-12.479-4.643-16.736-7.971-20.654-8.832-28.104-6.522-19.046 2.19-32.551 8.13-42.848 13.883-3.103.905-23.1 19-25.954 23.62-1.924 3.08-3.08 9.014-5.933 29.487-.77 5.276-1.925 11.323-2.582 13.384-3.216 9.647.25 36.19 5.662 41.851 1.676 1.79 3.737 4.643 4.507 6.183 1.54 2.967 1.426 2.967-8.765 2.967h-10.168l-.136-15.332c0-8.493-.634-16.872-1.427-18.661-.77-2.197-.77-6.817.25-13.906 1.811-13.769 1.426-29.35-.906-35.148-1.02-2.445-1.925-6.318-1.925-8.628 0-8.764-8.244-25.115-12.864-25.614-3.494-.451-4.069-.83-6.703-1.041-1.155 0-4.756-2.446-7.972-5.141-8.108-6.953-12.75-8.38-22.919-6.568-13.27 2.31-21.107 5.028-24.843 8.38-1.812 1.811-4.371 3.215-5.526 3.215-5.735-.732-11.278 12.552-16.6 14.155zm170.078 34.106c-1.291-1.042-3.352-1.925-4.507-1.925-2.06 0-3.737-2.446-3.737-5.14 1.298-2.8 5.987-8.218 11.845-14.54 6.431-7.972 15.37-10.63 21.888-6.319 4.405 2.915 19.057 19.431 19.057 21.492.692 7.359-37.524 10.67-44.546 6.432zM1.894 332.245c-7.859 18.797 10.032 38.636 29.871 33.223 21.379-5.661 24.73-36.688 5.14-46.222-14.568-6.032-27.823-2.511-35.011 13z"/></svg>