<svg xmlns="http://www.w3.org/2000/svg" width="485" height="512"><path d="M468.376 83.287 275.037 6.595c-19.832-8.195-36.76-9.099-57.172-.753L6.489 87.944C1.478 89.86-.179 92.311.015 97.645l4.904 291.477c-.236 5.463 1.57 8.26 6.625 10.733L235.61 510.243c4.452 2.194 8.023 2.495 12.411-.022L468.473 401.47c4.065-1.98 6.625-3.894 6.754-9.142 1.312-46.59 7.787-264.568 8.798-284.96 1.075-21.703 4.807-15.97-15.649-24.08zM226.673 462.76c0 6.346-.828 7.733-7.11 4.593L42.174 379.7c-4.452-2.194-5.785-4.818-5.828-9.615L31.915 125.37l189.07 82.188c4.495 1.936 6.13 4.26 6.108 9.25l-.42 245.951zm11.948-281.55L57.353 102.04 241.87 30.964c2.947-1.14 5.442-.925 8.281.194l172.314 67.605c1.183.473 2.56.752 3.184 2.882L248.28 180.521c-3.183 1.42-6.001 2.301-9.636.688h-.022zm213.01-47.676-7.593 240.101c0 5.184-3.119 6.582-6.69 8.346l-179.325 88.125.215-250.76c0-6.818 2.172-9.85 8.475-12.626l176.486-78.338c8.561-3.807 8.69-3.882 8.432 5.152z"/></svg>