<svg version="1.1" xmlns="http://www.w3.org/2000/svg" xmlns:xlink="http://www.w3.org/1999/xlink" x="0px" y="0px" width="485px" height="512px"><path d="M468.3763428,83.2873688L275.0371094,6.5947733c-19.8319092-8.1951694-36.759964-9.0985699-57.1726074-0.7528338L6.4893856,87.9441986c-5.0117393,1.9143524-6.667984,4.3664627-6.474401,9.7008514l4.9041991,291.4769592c-0.2366095,5.4634399,1.5702019,8.2597046,6.6249676,10.7333069l224.0657959,110.3874207c4.4524841,2.1939697,8.0230713,2.4951172,12.4110565-0.0215149l220.4521484-108.752655c4.0653076-1.9788818,6.6249695-3.8932495,6.7539978-9.141571c1.3121033-46.5898743,7.786499-264.5684509,8.7974243-284.9595947C485.1000366,85.6641998,488.8320007,91.3965149,468.3763428,83.2873688z M226.6727142,462.7602539c0,6.3453369-0.8281403,7.7326965-7.1089478,4.5922852L42.1738701,379.7008057c-4.4524918-2.1939697-5.7860947-4.8182068-5.8291092-9.6148376l-4.4309902-244.7150269l189.0696564,82.1882858c4.4954987,1.9358826,6.1302338,4.2589111,6.1087494,9.2491455L226.6727142,462.7602539z M238.6213226,181.2099457l-181.2679596-79.170517l184.5159302-71.074234c2.9467926-1.1400089,5.4419403-0.9249191,8.2812042,0.1935825l172.3136444,67.6047516c1.1830444,0.4732208,2.5596313,0.7528381,3.1834412,2.8822861l-177.3684082,78.8758087c-3.1834412,1.419632-6.0012054,2.3015442-9.636322,0.6882935L238.6213226,181.2099457z M451.631134,133.5338898l-7.592865,240.1012421c0,5.1838074-3.118927,6.5819397-6.6895142,8.3457336L258.0229187,470.105835l0.2151184-250.7592621c0-6.8185577,2.1724548-9.8514099,8.474762-12.6261597l176.4865112-78.3380585C451.7601624,124.5751419,451.8892212,124.4998398,451.631134,133.5338898z"/></svg>