<svg xmlns="http://www.w3.org/2000/svg" width="512" height="512"><path d="m88.062 306.23-65.818-65.827v57.963c0 14.57-22.244 14.57-22.244 0V213.55c-.035-9.428 11.749-14.994 18.988-7.863l65.818 65.827V213.55c0-14.993 22.244-14.993 22.244 0v84.817c.398 6.703-8.663 16.249-18.988 7.864zm86.9-54.755 63.118-.14-28.64 57.974h-61.867l-29.89-52.69 29.751-54.082h64.38l17.17 40.075H206.6l-8.69-17.83h-37.268l-17.517 31.697 17.378 30.586h35.034l6.674-13.485-27.25.139c-15.147-1.596-15.147-21.186 0-22.244zm96.406-37.816v28.982h-22.244V213.66c.66-14.425 20.78-15.68 22.244 0zm120.326 84.92v-84.815c-.63-11.097-11.96-14.147-18.986-7.863l-65.82 65.824v-57.96c0-14.947-22.244-14.947-22.244 0v84.814c.116 8.994 10.917 15.152 18.985 7.864l65.82-65.825v57.961c0 14.822 22.245 14.822 22.245 0zm116.886-8.115-34.559-34.439 34.535-34.412c10.452-10.415-5.249-26.173-15.701-15.758l-34.59 34.47-34.59-34.47c-10.453-10.415-26.154 5.343-15.702 15.758l34.535 34.412-34.56 34.439c-10.406 10.372 5.295 26.126 15.702 15.753l34.615-34.491 34.614 34.491c10.407 10.373 26.108-5.38 15.701-15.753zm-237.212 7.658v-46.554h-22.244v46.554c0 14.563 22.244 14.563 22.244 0z"/></svg>