<svg xmlns="http://www.w3.org/2000/svg" width="455" height="512"><path d="m207.257 506.737-62.656-37.074c-9.34-5.218-4.772-7.086-1.685-8.162 12.466-4.324 15.004-5.32 28.303-12.892 1.4-.772 3.228-.488 4.69.365l48.119 28.567c1.766.975 4.202.975 5.827 0l187.623-108.278c1.747-.995 2.863-3.025 2.863-5.076V147.651c0-2.111-1.116-4.1-2.903-5.177L229.895 34.277c-1.746-1.015-4.04-1.015-5.786 0L36.607 142.515c-1.827 1.035-2.964 3.086-2.964 5.136v216.556c0 2.071 1.137 4.02 2.944 5.015l51.408 29.684c27.897 13.948 44.972-2.477 44.972-18.984V166.128c0-3.026 2.436-5.401 5.462-5.401h23.795c2.964 0 5.421 2.375 5.421 5.4v213.795c0 37.216-20.263 58.576-55.55 58.576-10.842 0-19.39 0-43.226-11.756l-49.195-28.323C7.533 391.394 0 378.257 0 364.187V147.651c0-14.07 7.533-27.186 19.674-34.19L207.318 5.04c11.877-6.721 27.653-6.721 39.43 0L434.37 113.46c12.162 7.024 19.714 20.14 19.714 34.19v216.536c0 14.07-7.552 27.146-19.714 34.232L246.747 506.737c-13.285 7.396-26.435 6.628-39.49 0zM365.522 226.49h-24.364a5.408 5.408 0 0 1-5.259-4.244c-5.847-25.988-20.06-34.292-58.595-34.292-43.165 0-48.18 15.024-48.18 26.293 0 13.664 5.928 17.643 64.179 25.338 57.662 7.614 85.071 18.415 85.071 58.92 0 40.892-34.049 64.302-93.497 64.302-82.127 0-99.304-37.704-99.304-69.316 0-3.005 2.396-5.4 5.4-5.4h24.263c2.7 0 4.975 1.948 5.38 4.588 3.655 24.689 14.558 37.175 64.24 37.175 39.511 0 56.343-8.954 56.343-29.907 0-12.1-4.751-21.054-66.19-27.084-51.327-5.076-83.101-16.426-83.101-57.48 0-37.865 31.917-60.443 85.416-60.443 60.118 0 89.843 20.852 93.619 65.641.317 2.692-2.104 5.935-5.42 5.909z"/></svg>