<svg xmlns="http://www.w3.org/2000/svg" width="512" height="512"><path d="M38.449 235.894 2.198 256.666c-1.27.62-2.198 2.198-2.198 3.777v55.723c.074 2.077 1.79 2.505 3.158 1.888l21.422-12.29c1.27-.96 2.198-2.198 2.198-3.776V275.86c0-1.579.96-2.848 2.198-3.777l9.132-5.356c1.993-.827 2.319-.807 4.396 0l9.132 5.356c1.27.62 2.198 2.198 2.198 3.777v26.128c0 1.578.96 2.848 2.198 3.776l21.423 12.29c1.38.559 3.152.217 3.157-1.888v-55.723c0-1.579-.96-3.157-2.198-3.777l-35.879-20.772c-1.67-.863-2.52-.82-4.086 0zm228.556 6.315-9.132-5.046c-1.27-.619-3.158-.619-4.396 0l-35.88 20.773c-1.269.619-2.197 2.198-2.197 3.776v41.576c0 1.579.96 2.848 2.198 3.777l35.879 20.772c1.27.619 3.158.619 4.396 0l35.88-20.772c1.268-.62 2.197-2.198 2.197-3.777V199.674c0-1.578-.96-3.157-2.198-3.776l-21.391-11.95c-1.492-.647-3.183-.04-3.158 1.889v55.103c.028.906-.76 1.993-2.198 1.27zm1.889 47.21c0 .31-.31.62-.62.96l-12.29 7.244c-.31.31-.619.31-.96 0l-12.29-7.244c-.309-.31-.618-.62-.618-.96v-14.178c0-.31.31-.62.619-.96l12.29-7.244c.31-.31.619-.31.96 0l12.29 7.244c.31.31.619.62.619.96v14.178zm131.908-14.797c1.27-.62 2.198-2.198 2.198-3.777v-10.061c0-1.58-.96-2.848-2.198-3.777l-35.57-20.463c-1.269-.619-3.157-.619-4.396 0l-35.879 20.772c-1.27.62-2.198 2.198-2.198 3.777v41.576c0 1.578.96 3.157 2.198 3.776l35.57 20.463c1.269.62 2.848.62 4.396 0l21.732-11.95c.619-.309 1.269-.959 1.269-1.888 0-.619-.31-1.578-.96-1.888l-36.22-20.772c-.619-.31-.96-1.27-.96-1.889v-12.97c0-.62.31-1.58.96-1.89l11.33-6.624c.62-.31 1.58-.31 2.199 0l11.33 6.625c.619.31.96 1.27.96 1.888v10.061c0 .62.309 1.58.96 1.889.65.31 1.578.31 2.197 0l21.082-12.878zm-255.025-38.418c1.27-.62 3.158-.62 4.396 0l35.91 20.772c1.27.62 2.198 2.198 2.198 3.777v41.575c0 1.579-.96 2.848-2.198 3.777l-35.879 20.772c-1.27.62-3.158.62-4.396 0l-35.91-20.772c-1.27-.62-2.198-2.198-2.198-3.777v-41.575c0-1.579.96-2.848 2.198-3.777l35.88-20.772zm321.459 90.023-11.33-6.625c-1.58-.96-.96-1.269-.31-1.579 2.198-.619 2.848-.96 5.046-2.197h.96l8.823 5.046c.31.31.619.31.96 0l33.99-19.534c.31-.31.62-.62.62-.96v-38.666c0-.31-.31-.619-.62-.96l-33.99-19.533c-.31-.31-.62-.31-.96 0l-33.991 19.534c-.31.31-.62.619-.62.96v39.036c0 .31.31.62.62.96l9.132 5.356c5.046 2.507 8.173-.31 8.173-3.468V264.87c0-.62.31-.96.96-.96h4.395c.62 0 .96.31.96.96v38.727c0 6.625-3.777 10.712-10.061 10.712-1.889 0-3.467 0-7.863-2.198l-8.823-5.046c-2.198-1.27-3.467-3.777-3.467-6.285v-39.068c0-2.507 1.269-5.046 3.467-6.284l33.99-19.534c2.199-1.27 5.047-1.27 7.245 0l33.99 19.534c2.199 1.27 3.468 3.777 3.468 6.284v39.037c0 2.508-1.27 5.046-3.467 6.285l-33.991 19.534c-3.374.816-5.178.92-7.306-.34zm28.357-50.708h-4.396c-.31 0-.96-.31-.96-.619-.96-4.736-3.467-6.284-10.711-6.284-7.863 0-8.823 2.848-8.823 4.736 0 2.508.96 3.158 11.64 4.737 10.402 1.269 15.417 3.467 15.417 10.71.03 7.245-5.944 11.64-16.655 11.64-14.798 0-17.955-6.934-17.955-12.599 0-.619.31-.96.96-.96h4.395c.62 0 .96.31.96.96.619 4.396 2.507 6.625 11.64 6.625 7.244 0 10.06-1.579 10.06-5.356 0-2.197-.959-3.776-11.949-5.046-9.132-.96-15.107-2.848-15.107-10.401 0-6.934 5.665-11.02 15.417-11.02 10.711 0 16.376 3.776 16.995 11.949.04.638-.273.943-.928.928zm-133.209-2.786h.96l6.934 4.087c.31 0 .31.31.31.619v7.863c0 .31-.31.619-.31.619l-6.934 4.086h-.96l-6.934-4.086c-.31 0-.31-.31-.31-.62v-7.862c0-.31.31-.62.31-.62l6.934-4.086z"/></svg>