<svg version="1.1" xmlns="http://www.w3.org/2000/svg" xmlns:xlink="http://www.w3.org/1999/xlink" x="0px" y="0px" width="512px" height="512px"><path d="M479.5105591,407.2559509c0,0-307.0828857,0.1000671-313.5321045-1.5010681c-30.9784698-7.7390747-48.224617-32.3461914-48.2913437-68.9065857c-0.0222473-11.6753235,0.8228302-17.27948,3.7361069-24.7961426c7.1386108-18.4136047,26.0859833-32.3127747,50.9710541-37.4277039c12.3869476-2.5352173,16.2120056-5.2705688,16.2120056-11.6085815c0-1.979248,1.4677429-7.8947296,3.2690887-13.1430511c8.1838379-23.7953796,23.3506165-43.654541,39.5626221-51.7716522c16.9681091-8.4951782,25.507782-10.4077148,46.0340881-10.296524c29.1326599,0.1556702,43.6767883,6.4714661,64.0029297,27.8206024l11.1860657,11.7420197l10.0074158-3.4692383c48.4803467-16.7679596,96.8049927,11.786499,100.6967468,59.5106964l1.0674744,13.0541077l9.5404053,3.4247437c27.2646179,9.7627563,40.0741272,30.2668457,37.7612915,60.4225159C509.9431763,379.5176697,502.727478,396.5682373,479.5105591,407.2559509z M104.7219543,377.8119812c1.8013458,3.558197,2.8243103,6.9162598,2.246109,7.4944458c-1.4677582,1.4677734-48.7916756,0.9785156-55.3520889-0.578186l0,0l-0.0222282-0.0222473c-18.0800514-4.2920837-37.2497978-20.2817078-46.2342186-38.5396423C0.2668661,335.8031311,0,334.2686462,0,315.9440002c0-17.4351501,0.4447732-20.2372131,4.4922171-28.8880615c8.5618973-18.2579346,24.9517975-31.4454651,45.5225792-36.6270752c4.3365479-1.0896912,8.4284668-2.8465576,9.0733833-3.8695374c0.6449165-1.0229645,1.3565559-6.6938324,1.6011848-12.5870819c1.4232788-36.5159302,25.3965721-68.6952972,58.8435631-79.0362854c18.0800476-5.5819092,40.7857361-4.2031097,60.4447479,3.6471405c6.2268219,2.4907379,5.5374146,3.0244446,18.7249756-14.2549896c7.8057709-10.2297974,23.550766-22.9503174,36.4491882-29.4217758c13.9214325-6.9829559,28.3987885-10.20755,45.7004852-10.1630783c48.3913879,0.1111984,90.0888977,30.3780518,105.5003052,76.5677795c4.9369812,14.7664795,4.670105,18.8806458-1.1341858,19.0140686c-10.9694519,1.3276367-19.6338196,4.1155548-27.6871338,6.093399C310,148.171463,222.6666718,161.5047913,188.0725403,215.0248871c-7.1163635,10.8079987-16.1897583,31.0007172-16.1897583,36.004425c0,3.5581818-2.8687744,5.337265-15.1667786,9.3624725C104.3992767,278.4528198,83.3333359,324.8381348,104.7219543,377.8119812z"/></svg>