<svg version="1.1" xmlns="http://www.w3.org/2000/svg" xmlns:xlink="http://www.w3.org/1999/xlink" x="0px" y="0px" width="512px" height="512px"><path d="M148.6860199,231.9589081l-82.216362,29.9102936c1.0554123,13.1715088,3.3350983,26.1952209,6.5224152,38.9656982l78.1002579-28.4327087C148.5593567,259.2095642,147.6517029,245.5947876,148.6860199,231.9589081z M512,141.0670929c-5.7414246-11.8206024-12.3694153-23.2612228-20.0527954-34.0263824l-82.195282,29.9102936c9.5620117,9.7941895,17.5831299,20.7915497,24.1477966,32.5487976L512,141.0670929z M457.7519836,119.4945374l-82.1952515,29.9102936c-101.3136597-95.3465347-250.7730103-29.2262802-261.0870972,95.0290527l-82.216362,29.9102936C22.159584,24.4419308,324.5220032-65.0959167,457.7519836,119.4945374z M78.1002655,298.987915L0,327.4311829c7.1767845,28.4749451,19.6306038,55.5356445,36.7282295,79.6200562l82.0263824-29.8469849C97.7097626,355.5683899,83.6939163,328.2016602,78.1002655,298.987915z M75.4828796,392.9299316l82.0263824-29.868103C245.6666718,451.8827515,405,405.8827515,418.8074036,267.9906006l82.0053406-29.8469849C517,475.216095,217.5,583.7160645,75.4828796,392.9299316z M439.0079041,167.6211853l-78.1002808,28.432724c14.5013123,25.9841614,21.3614502,55.9155731,19.1240234,86.0158234l82.0263672-29.8469543C459.7149963,222.7768555,451.8627625,194.0486298,439.0079041,167.6211853z"/></svg>