<svg version="1.1" xmlns="http://www.w3.org/2000/svg" xmlns:xlink="http://www.w3.org/1999/xlink" x="0px" y="0px" width="480px" height="512px"><path d="M318.7575684,115.3662872c-9.2013855-28.1308517-25.3506775-48.83815-45.5910034-59.1936798c-16.0823059-8.2281456-53.3298035-6.7732887-69.9868774,2.2435684c-24.1445618,13.0699997-39.8645172,40.4723892-48.4756165,82.4883347c-16.2245483,85.8140106-11.8344116,204.9293823,6.9553833,257.3482971c12.2848358,39.1405945,34.7546997,62.1447144,78.0774231,62.7788696c27.817627,0.4071655,47.6200562-8.0640869,62.2136536-29.3339539c9.0060425-12.2616882,17.5046387-30.2315063,23.7412415-58.3277893C339.4382019,285.4951172,340.2199097,189.0189819,318.7575684,115.3662872z M311.559082,395.7476501c-8.9255371,24.0980225-20.9875793,45.381134-43.256897,53.647644c-11.0411682,4.0985413-39.5694427,5.7284851-53.5283356,0.9301147c-12.2359772-4.2061157-21.4595032-11.2596436-30.0919037-23.1729126c-43.003418-55.9327393-38.2401733-238.4056091-15.7077026-309.2915039c6.0919952-17.1124878,17.506958-42.7097168,36.3993683-51.9366684c18.6246185-9.0961647,32.222168-7.4120636,47.4144135-6.4761124c19.0052185,1.1708565,31.0891724,10.3496017,43.010498,26.1306C336.1005249,139.0812378,337.4382629,315.6612244,311.559082,395.7476501z M240.1768036,0.0003638c-322.7308044-0.4999908-317.730896,514.4905396,0,511.9905701C560.5219116,511.9909363,561.4341431,0.333691,240.1768036,0.0003638z M292.5428162,457.2993774l0.0000305-0.0211487c-34.6397705,20.2096252-69.5401154,19.9151306-104.6897888,0c-66.4108276-35.618988-70.4107513-358.2796936,0-402.5652161c23.8439484-18.5099335,77.3440247-21.086422,104.6897888,0C363.4377747,99.9985199,356.4378967,423.9925537,292.5428162,457.2993774z"/></svg>