<svg xmlns="http://www.w3.org/2000/svg" width="512" height="512"><path d="M212.673 441.674c-2.64 5.302-13.767 1.604-25.94-2.628-12.175-4.233-53.5-21.186-77.324-48.197-23.825-27.01-36-63.032-34.953-97.439s10.581-48.72 26.488-70.974c15.883-22.233 59.847-55.069 73.614-63.557 13.767-8.488 32.313-22.778 41.301-34.429 9.011-11.65 13.767-21.185 13.244-37.069-.523-15.883 1.07-30.196.523-35.476-.523-5.302-.523-15.883 4.233-13.767 4.756 2.117 5.302 7.942 5.302 13.767s-1.593 29.65-3.186 52.953c-1.593 23.301-20.116 42.894-33.883 56.661-13.767 13.767-53.498 56.661-68.312 77.847-14.837 21.185-22.21 49.083-20.662 72.544 1.593 23.826 7.418 47.127 29.65 72.022 22.232 24.894 37.592 36.545 49.243 42.37 11.651 5.826 23.302 10.07 20.662 15.372zm19.502 25.452c-3.8 4.62-10.331 7.418-11.128 5.552s4.71-2.935 8.761-7.44c3.71-4.142 2.731-11.88 5.37-11.993 2.162-.09.797 9.239-3.003 13.881zm9.614-38.696c-7.41 9.54-37.58-23.29-53.487-42.36-15.906-19.068-31.767-57.73-32.313-87.904-.523-30.197 16.407-58.254 28.604-75.207 12.197-16.953 36.022-46.08 42.37-59.324 6.35-13.244 13.245-27.534 15.36-46.08 2.117-18.546 0-84.741 0-84.741s-.522-29.128 4.233-25.942c4.78 3.186 5.826 21.709 5.826 38.662s1.593 90.02-3.71 109.613c-5.301 19.593-17.476 41.302-30.72 60.37s-28.603 59.325-28.057 84.196c.523 24.895 14.837 65.673 25.941 82.626 11.173 16.998 30.122 40.724 25.953 46.091zm15.85 49.46c-2.185 0-1.366-6.6-1.366-14.746s-.75-14.769 1.365-14.769c1.935 0 1.366 6.6 1.366 14.769s.41 14.745-1.366 14.745zm34.542-5.462c-.796 1.866-7.327-.91-11.127-5.552-3.8-4.642-5.166-13.95-3.004-13.881 2.64.114 1.661 7.85 5.37 11.992 4.05 4.506 9.558 5.575 8.761 7.441zm33.906-30.88c-9.557 3.824-15.61 7.943-23.688.41-13.017-12.106-25.327-13.357-41.598-17.703-4.528-1.206-7.668-11.264-9.307-14.883-5.438-11.923-9.58-24.462-12.743-37.16-15.337-61.303-3.117-122.697 12.402-182.613 6.622-25.577 10.9-50.995 11.105-77.55.114-13.904-1.82-27.626-3.46-41.393-.705-5.848-3.435-20.343 3.687-9.216 2.868 4.483 8.124-1.866 8.58 3.3.363 3.982.818 32.631 2.434 42.735 3.891 24.439 34.02 39.571 52.588 51.177 42.53 26.578 100.158 61.767 108.248 116.28 10.576 71.265-26.002 132.901-108.248 166.617zM512 256C512 59.662 297.992-63.716 127.711 34.453s-170.281 344.925 0 443.094S512 452.338 512 256z"/></svg>