<svg xmlns="http://www.w3.org/2000/svg" width="469" height="512"><path d="M175.752 366.312c1.18-3.539 1.18-5.898 1.18-5.898s-3.539-192.26-4.718-215.85c0-5.898-1.18-9.437-3.539-12.975-10.616-1.18-31.847-2.36-31.847-2.36-12.323.301-21.995 6.021-21.231 20.053v14.154c15.334 1.18 25.95 1.18 25.95 1.18s16.512 3.538 17.692 21.23c1.18 18.873 1.18 125.029 1.18 125.029s1.179 17.692-22.411 21.23l-18.872 1.18v8.257c0 22.41 12.974 27.129 23.59 27.129 2.861.217 8.816-.671 33.026-2.36zm-96.72-29.488-29.488 2.359s-24.77 3.538-25.949-23.59c0-20.052-2.359-135.644-2.359-135.644s-1.18-21.231 24.77-20.052c8.256 0 18.872 1.18 31.847 2.36l-1.18-48.36c-17.693-2.36-33.026-3.54-43.642-4.719C-1.175 105.64.005 133.948.005 133.948S3.543 345.08 4.723 371.03c1.18 30.667 34.206 25.949 34.206 25.949l41.283-4.718c0-14.154 0-34.206-1.18-55.437zM445.86 73.793c-1.18-40.104-36.565-48.36-36.565-48.36S288.985 7.74 235.907.663s-49.54 44.822-49.54 44.822l12.975 419.905c1.18 55.437 53.078 46.001 53.078 46.001l181.645-30.667c33.026-7.077 34.206-48.36 34.206-48.36S447.04 117.434 445.86 73.793zM405.757 391.08l-135.644 14.154s-38.924 5.898-40.103-42.462l-8.257-237.082s-2.36-36.564 37.744-34.205L399.86 103.28s25.95 5.897 27.129 36.564l12.974 215.851s2.36 29.488-34.205 35.385zM227.65 130.41l37.744 3.539s22.41 4.718 23.59 29.488c1.18 27.128 7.077 173.388 7.077 173.388s2.36 24.77-29.488 29.488l-30.667 2.359c2.36 24.77 16.513 30.667 28.308 30.667l56.617-7.077-12.975-288.98-53.078-3.539c-20.404.383-27.601 12.425-27.128 30.667zm-37.745 241.8-42.462 3.539s-34.206 4.718-34.206-34.206c0-28.308-3.539-192.26-3.539-192.26s-2.359-30.668 33.027-28.309c10.615 1.18 24.77 2.36 40.103 3.539L180.47 56.1s-40.103-3.538-54.257-5.897C80.212 45.485 82.57 85.588 82.57 85.588s4.718 300.775 5.897 337.34c1.18 43.642 46.001 36.565 46.001 36.565l57.796-7.077-2.359-80.207z"/></svg>