<svg version="1.1" xmlns="http://www.w3.org/2000/svg" xmlns:xlink="http://www.w3.org/1999/xlink" x="0px" y="0px" width="512px" height="512px"><path d="M0,4.2682419V507.731781h512V4.2682285L0,4.2682419z M471.2705994,467.6905518H40.710804V44.3095245h430.5597839V467.6905518z M182.7428894,128.0930176c-26.6507721,0-59.011116,0.8554993-59.011116,0.8554993V335.440918h43.2587051v-66.3572998c0,0,7.5693359-0.0929565,15.7524109-0.4277649C285.5,268.75,292.25,122.75,182.7428894,128.0930176z M181.5898132,232.464386c-6.9741974,0.0743866-9.912674,0.2975616-14.6179352-0.1487885V161.011261c0,0,9.1687622-0.3161621,18.058548,0C233.0286407,163.3224792,230.1390991,233.6828461,181.5898132,232.464386z M346.8228149,238.7969513c-18.7095032-6.5680237-24.6143188-10.4055023-24.6143188-17.6586914c0-7.8669128,6.5464478-12.5907745,18.0771484-12.5907745c13.0743103,0,32.8624878,8.4434357,39.7250977,12.2374115v-34.7966614c-9.3361511-4.7238617-23.5263062-10.5263977-41.2872925-10.5263977c-37.697937,0-62.0053711,21.740921-62.0053711,50.7350464c-0.3161621,17.9469604,11.8282471,30.7794952,43.3144836,41.4918976c17.7609863,5.9885254,22.4290466,14.2645874,22.4290466,22.1500854s-5.9141235,12.9255371-20.2531128,12.9255371c-14.0227966,0-34.5920715-8.015686-43.3144836-13.353302v34.3503113c11.5307007,6.2860718,28.2315979,12.256012,43.3144836,12.7209473c43.9468079,1.3762512,66.0411377-21.4247742,66.0411377-50.1027222C387.9334717,263.6902161,375.7697449,248.958847,346.8228149,238.7969513z"/></svg>