<svg version="1.1" xmlns="http://www.w3.org/2000/svg" xmlns:xlink="http://www.w3.org/1999/xlink" x="0px" y="0px" width="512px" height="512px"><path d="M128.6110687,183.2014923H38.8153114L0,379.7449951h46.1030731l9.7094841-50.9464722H99.493927c41.2370148,2.4217224,87.3627319-31.5501709,87.3627319-89.7844543C186.8566589,205.0421753,167.4263763,185.6232147,128.6110687,183.2014923z M94.6278915,292.4048767H65.4994431l12.1312027-72.7871857h31.5501709c16.9746246,0,29.1284485,7.2877655,29.1284485,21.8406982C135.8875427,282.7180481,116.4685745,289.9831543,94.6278915,292.4048767z M291.1714172,183.2128296l-43.6813812-0.0113373l9.7095184-50.9465027h-46.1030884l-38.8153076,196.5435333h46.1030731l21.840683-109.1807861h36.3935852c16.9972534,0,16.9972534,7.2877655,14.5529175,19.4189758l-16.9746399,89.7844543h48.5248108l16.9746399-99.493927C344.5396729,205.0648346,329.9867249,185.6345367,291.1714172,183.2128296z M453.7543945,183.2014923h-89.7958069L325.14328,379.7449951h46.1030884l9.7095032-50.9464722h43.681366C465.8969116,331.2202454,512,297.2483521,512,239.0140686C512,205.0421753,492.5697021,185.6232147,453.7543945,183.2014923z M419.7711487,292.4048767h-29.128479l12.1311951-72.7871857h31.5501404c16.9972534,0,29.128479,7.2877655,29.128479,21.8406982C461.0307617,282.7180481,441.6117859,289.9831543,419.7711487,292.4048767z"/></svg>