<svg xmlns="http://www.w3.org/2000/svg" width="494" height="512"><path d="M146.753 366.326c-5.522-5.213-5.308-14.852.934-19.317 10.82-8.177 25.193-7.54 37.471-12.278 9.112-2.665 13.827-11.526 19.544-18.314-10.569-.797-20.91-3.485-30.432-8.155l-31.73 35.409c-39.788 54.919-76.83 30.764-111.254-71.719C-3.16 169.405-16.086 79.857 28.697 35.072 61.722 2.05 117.331-2.26 193.381 23.207 221.331 4.55 256.866 1.976 289.1 8.513c2.87.365 5.763 1.686 8.701 1.094 93.163-31.076 193.737 17.96 193.052 79.498-.6 53.983-23.256 136.622-74.67 217.061 31.078 13.092 62.595-9.42 75.08 3.69 13.27 19.848-44.363 57.67-102.437 46.22-11.205 75.455-7.826 114.342-33.03 136.218-38.552 28.97-104.601 33.64-114.077-39.271-3.417-30.228-3.553-60.706-3.462-91.094-32.218 28.434-78.061 17.086-91.503 4.397zM417.64 138.65c.182 20.57-6.857 40.638-4.761 61.252 2.004 21.846 6.697 44.192 1.139 65.9-1.572 7.7-5.604 14.533-8.36 21.777.205 1.048.615 3.143.82 4.168 43.194-64.366 86.587-187.881 61.64-229.635-32.8-39.536-81.159-55.31-144.123-43.348 51.29 23.648 94.32 85.86 93.645 119.886zm-64.807 40.888c7.082 34.141 26.88 63.462 42.3 94.146 11.504-23.144 4.753-49.365 2.655-73.736-1.7-19.728 4.066-38.906 4.68-58.474-38.041-4.724-56.17 6.555-49.635 38.064zM75.454 334.526c6.15 9.044 13.167 19.112 24.192 22.301 9.43 1.936 16.97-5.754 22.426-12.335 12.715-15.337 26.23-29.897 39.168-45.023-18.997-17.266-29.27-43.576-25.808-69.157 2.756-19.59 3.28-39.43 2.073-59.18-1.532-58.295 11.004-105.12 42.095-136.81C82.01 5.275 5.392 22 15.75 140.745c9.721 70.95 29.557 135.584 59.705 193.781zm76.902-174.555c.32 16.424 1.481 32.87.365 49.294-.478 14.51-4.466 29.041-1.48 43.587 5.24 25.533 27.653 48.394 54.578 48.12 3.94-12.915 8.52-25.648 14.168-37.949 16.196-31.868 13.577-69.316 5.126-102.96-7.902-27.794-48.682-16.285-72.757-.092zm71.526 159.476c-10.523 6.856-14.988 20.182-26.24 26.241-11.641 6.88-25.741 6.446-37.791 12.027 24.442 12.46 58.28 8.075 75.182-14.817 8.656-8.041.307-25.069-11.15-23.451zm248.565 2.55c-20.843 2.53-43.622 7.563-63.212-2.755-4.601-3.212-10.273-.501-14.26 2.437-5.034 4.67-4.692 12.096-4.738 18.36 11.071 3.804 23.007 3.394 34.488 2.027 17.357-1.89 34.988-7.676 47.722-20.068zM364.53 151.93c-4.077 3.348.33 8.36 3.839 9.932 8.496 4.988 20.136-1.982 20.41-11.686-7.677-3.576-17.301-3.212-24.249 1.754zm-150.387 15.49c3.622-2.05 7.46-7.677 3.27-11.07-5.969-4.853-14.648-5.787-21.914-3.828-2.346.82-4.807 2.415-4.328 5.285 1.685 9.75 14.75 15.672 22.972 9.613zm135.16-30.82c14.054-12.073 33.758-11.367 51.138-10.752-10.455-29.567-29.863-55.854-54.419-75.262-29.726-23.394-68.997-33.69-106.4-28.93-22.665 2.94-43.895 15.195-57.586 33.554-18.61 24.67-26.742 55.786-29.111 86.173 43.605-21.126 77.561-18.224 87.471 16.88 6.105 26.879 9.408 55.216 3.44 82.437-4.602 22.004-18.018 41.025-22.46 63.052 24.802.423 32.754 19.09 32.437 33.28-1.733 49.343-.15 92.111 5.399 127.016 6.222 24.767 26.1 34.234 41.184 32.864 35.891-3.26 54.984-14.065 61.298-49.903 16.259-102.459 11.005-120.472 18.292-130.843l.045.023c3.668-6.628 10.866-9.75 17.312-13.007-15.72-24.097-88.44-131.509-48.04-166.582z"/></svg>