<svg version="1.1" xmlns="http://www.w3.org/2000/svg" xmlns:xlink="http://www.w3.org/1999/xlink" x="0px" y="0px" width="494px" height="512px"><path d="M146.7527313,366.3258057c-5.5221863-5.2129211-5.3074951-14.8519287,0.9339447-19.3165894c10.8200226-8.1776428,25.1935883-7.5398254,37.4714508-12.2778625c9.1115875-2.6651611,13.826828-11.5261841,19.5443726-18.3143311c-10.569458-0.7972412-20.9111023-3.4851685-30.432724-8.1548767l-31.7292938,35.4086304c-39.7887955,54.9191284-76.8305283,30.7643738-111.2544327-71.7183533C-3.1595266,169.4051514-16.0862827,79.8565369,28.6973038,35.0729485c33.02425-33.02425,88.6338043-37.3339539,164.684021-11.8670998c27.9498138-18.6559849,63.4850311-21.2300205,95.7173004-14.6924458c2.8701477,0.364459,5.763092,1.6856422,8.7015991,1.0933876c93.1631165-31.0753632,193.736969,17.9606476,193.0519104,79.4986801c-0.6009216,53.9822998-23.2562256,136.6217804-74.6694946,217.0610046c31.0770569,13.0919189,62.5948486-9.4208069,75.0795593,3.6902161c13.2698059,19.8475952-44.3627014,57.6689148-102.4371338,46.2186279c-11.2048645,75.4554443-7.8264465,114.3428955-33.0295715,136.2183533c-38.5529785,28.969635-104.6014709,33.63974-114.0771484-39.2709961c-3.4168701-30.2277832-3.5535278-60.7060242-3.4624176-91.0932007C206.0384979,390.362854,160.1945953,379.0148621,146.7527313,366.3258057z M417.640564,138.6497955c0.1822205,20.5694275-6.8564453,40.6377258-4.7608032,61.2527008c2.0045471,21.845047,6.696991,44.1912384,1.1389465,65.8996277c-1.5717773,7.6992798-5.6036377,14.532959-8.3599243,21.7766724c0.2049866,1.0478821,0.6150208,3.1435242,0.8200378,4.1685791c43.1943054-64.3665314,86.5875244-187.8814697,61.6399536-229.6349792c-32.7996521-39.5367661-81.1583862-55.310215-144.1225891-43.3484192C375.2851562,42.4116707,418.3167725,104.6240234,417.640564,138.6497955z M352.8343201,179.5381165c7.0819092,34.1408844,26.8792114,63.4622345,42.3005676,94.1455383c11.5033875-23.1434174,4.7523193-49.3648529,2.6537781-73.7355804c-1.6987915-19.7279816,4.06604-38.9065247,4.6810913-58.4736633C364.4275208,136.7502594,346.2983093,148.0288086,352.8343201,179.5381165z M75.4545822,334.5263062c6.1503372,9.0432739,13.1662521,19.1116028,24.1912918,22.3006592c9.4304886,1.9362183,16.9698257-5.7535706,22.4259109-12.3348389c12.7148972-15.3369751,26.2300186-29.8974304,39.1684799-45.022644c-18.9976807-17.2664795-29.2710114-43.5762177-25.8085938-69.1570129c2.7562408-19.5899353,3.2801666-39.4304504,2.072876-59.1798248c-1.5311584-58.2961426,11.0045319-105.1199036,42.0955658-136.8106079C82.0088501,5.2753301,5.3919578,22.000246,15.7508392,140.7454681C25.4711342,211.6944885,45.3074837,276.3286438,75.4545822,334.5263062z M152.3564301,159.9709778c0.3189087,16.4236298,1.4806213,32.8700714,0.3644562,49.2937164c-0.4783478,14.5102234-4.4659424,29.041687-1.4806213,43.587616c5.2401886,25.5326385,27.6536865,48.3939362,54.5784607,48.1206207c3.9407501-12.9156799,8.5193329-25.6491394,14.1685181-37.9497986c16.1958771-31.8677979,13.5762939-69.3164673,5.1252747-102.9610291C217.2107391,132.2693329,176.4307861,143.777771,152.3564301,159.9709778z M223.8824615,319.4466248c-10.5239105,6.8564758-14.9885712,20.1821594-26.241394,26.241394c-11.6400757,6.8792725-25.7402649,6.4464417-37.7903595,12.0273132c24.441864,12.4601135,58.2800598,8.0751343,75.1820679-14.817749C243.688797,334.8566284,235.3403015,317.8293457,223.8824615,319.4466248z M472.4467773,321.9978943c-20.8427429,2.5284729-43.6217346,7.5625916-63.2117004-2.7562561c-4.6013489-3.2118225-10.2733154-0.5011292-14.259613,2.4373474c-5.0341797,4.6697083-4.6924744,12.0956421-4.7380371,18.3598633c11.0705872,3.8041077,23.0067749,3.3940735,34.4873657,2.0273438C442.0823669,340.1755371,459.7133179,334.389679,472.4467773,321.9978943z M364.531311,151.9299469c-4.0774536,3.3485107,0.3302917,8.3598938,3.8382568,9.9316406c8.4965515,4.9886017,20.1366272-1.9817657,20.4099731-11.6856384C381.1030273,146.5996704,371.4789124,146.9641418,364.531311,151.9299469z M214.144455,167.4196777c3.6218719-2.0501251,7.4600983-7.6765289,3.2687683-11.0706024c-5.9680939-4.8519287-14.6468811-5.7858429-21.9133759-3.8268738c-2.3462372,0.8200531-4.8063812,2.4145813-4.3280029,5.2847443C192.8574982,167.5563507,205.9212341,173.4788818,214.144455,167.4196777z M349.3035583,136.5997009c14.0545959-12.0728531,33.7584229-11.3667221,51.1387939-10.7516785c-10.4555359-29.5671387-29.8632812-55.8540726-54.4190063-75.2617798c-29.726593-23.394022-68.9975891-33.6901283-106.4006653-28.9293156c-22.6650848,2.9384937-43.8951111,15.1935902-57.5852814,33.5534515c-18.6104126,24.6696472-26.7425232,55.7857513-29.1115417,86.172905c43.6054993-21.125946,77.5613708-18.2240067,87.4713287,16.8792572c6.1047516,26.8791809,9.4076996,55.2162476,3.439621,82.4371338c-4.6013489,22.0044861-18.0181885,41.0249329-22.460083,63.0522461c24.8024292,0.4226685,32.7540588,19.0907898,32.4372711,33.2801208c-1.7334442,49.3424683-0.1509247,92.1112366,5.3986511,127.015625c6.2220764,24.7672119,26.1006165,34.2348022,41.1841736,32.8644409c35.8913574-3.2607727,54.9837646-14.0654602,61.2984924-49.9031372c16.2584839-102.4587402,11.0046082-120.4719849,18.2915955-130.8424988l0.0454712,0.0227661c3.6674194-6.6286621,10.8656006-9.7494202,17.3120422-13.0068054C381.6231384,279.0854797,308.9030762,171.6732635,349.3035583,136.5997009z"/></svg>