<svg xmlns="http://www.w3.org/2000/svg" width="497" height="512"><path d="M285.765.45C399.62-6.484 489.92 67.436 496.607 181.906c7.545 130.235-96.188 263.72-231.822 298.257-46.929 11.84-90.851 10.49-129.008-1.533-2.76-51.407 7.238-104.96 29.26-142.381 35.888-60.976 90.239-55.762 121.34 11.594 11.717 25.335 18.465 55.885 20.428 87.355 10.858-5.767 21.41-12.269 31.47-19.262C304.658 334.348 289.63 237.73 410.11 68.05c-35.028-28.033-88.89-41.65-156.123-33.002 9.938-11.594 20.49-23.189 31.778-34.599z"/><path d="M258.039 138.595c-9.754 20.49-5.828 37.36 8.71 37.666 14.478.245 34.17-16.195 43.923-36.745 9.754-20.49 5.89-37.36-8.65-37.666-14.538-.245-34.23 16.195-43.983 36.745zm-9.877-58.155C146.33 205.277 103.083 367.41 109.156 512 49.038 487.953 4.837 429.562.392 356.062-7.49 225.72 96.764 91.728 232.581 57.313c52.756-13.312 102.568-9.754 144.16 7.239-8.65 24.66-23.127 52.879-37.482 74.165-30.059 44.66-73.246 72.816-96.434 62.94-23.127-9.938-17.544-54.229 12.576-98.949 6.932-10.306 14.6-19.753 22.575-28.034a279.979 279.979 0 0 0-29.814 5.766z"/></svg>