<svg version="1.1" xmlns="http://www.w3.org/2000/svg" xmlns:xlink="http://www.w3.org/1999/xlink" x="0px" y="0px" width="512px" height="512px"><path d="M335.707489,478.6474609l142.8680115-142.8680115c46.5708618-48.1907654,42.5001221-113.904892,0.0467529-159.3635559L335.6841125,33.5713005c-44.3351746-44.3998032-114.5892334-44.040638-159.2465668,0L33.5227547,176.4158936c-47.0153847,49.0411072-42.3169289,115.2240295-0.0000114,159.3635559l145.1376038,145.0205994C227.8482819,526.9153442,299.1789551,517.0991821,335.707489,478.6474609z M341.8377991,335.3816223c-49.9996033-12.9399109-104.5187378-55.7573242-129.437561-118.6042938c68.2992249,26.9834747,145.8407898-14.2832794,155.5730896-92.0242004l81.144165,81.1441498c13.4304199,13.4304352,20.8358765,31.2597046,20.8358765,50.2120361c0,14.0154114-4.0595703,27.3990479-11.5937195,38.8406677c-4.5158386,6.177063-9.3871155,11.7415161-14.2610474,16.3902893C417.3950806,336.6574402,380.1806335,345.3047485,341.8377991,335.3816223z M62.9808044,205.8973236l54.8916245-54.9150391c-19.8707962,66.8621826-23.6480255,138.9728546-10.0377197,200.1696014l-44.8539047-44.8305054C33.0952797,275.1546936,37.0324593,232.633194,62.9808044,205.8973236z M156.8300323,166.0388794c18.7690125,126.2312012,121.5398407,215.4996643,216.8289642,215.1326294c0.2106018,0,0.3977661-0.0233765,0.5849304-0.0233765l-68.0178833,68.0178833c-79.1068115,69.8175049-159.4771729-43.333313-163.9495544-151.6656494C139.3751526,254.2141418,144.5928955,209.0911255,156.8300323,166.0388794z M220.5559845,174.3451691c-47.1261902-27.1687775-47.1262054-95.4594955-0.0000153-122.628273s106.3537903,6.9765739,106.3537903,61.3141327S267.6821899,201.5139465,220.5559845,174.3451691z"/></svg>