<svg xmlns="http://www.w3.org/2000/svg" width="512" height="512"><path d="M335.707 478.647 478.576 335.78c46.57-48.19 42.5-113.904.046-159.363L335.684 33.57c-44.335-44.4-114.59-44.04-159.246 0L33.523 176.416c-47.016 49.041-42.317 115.224 0 159.363L178.66 480.8c49.188 46.115 120.519 36.3 157.047-2.153zm6.13-143.265c-49.999-12.94-104.518-55.758-129.437-118.605 68.3 26.984 145.841-14.283 155.573-92.024l81.144 81.144c13.43 13.43 20.836 31.26 20.836 50.212 0 14.016-4.06 27.4-11.593 38.841-4.516 6.177-9.387 11.741-14.261 16.39-26.704 25.317-63.918 33.965-102.261 24.042zM62.982 205.897l54.891-54.915c-19.87 66.862-23.648 138.973-10.037 200.17l-44.854-44.83c-29.886-31.167-25.949-73.689 0-100.425zm93.849-39.858c18.769 126.231 121.54 215.5 216.829 215.133.21 0 .398-.024.585-.024l-68.018 68.018C227.12 518.984 146.75 405.833 142.277 297.5c-2.9-43.286 2.317-88.409 14.554-131.461zm63.726 8.306c-47.126-27.169-47.126-95.46 0-122.628S326.91 58.693 326.91 113.03s-59.228 88.483-106.354 61.314z"/></svg>