<svg xmlns="http://www.w3.org/2000/svg" width="401" height="512"><path d="M264.14 483.446c21.141-7.423 36.78-18.034 51.45-29.199 10.016-2.494 47.965-23.636 53.785-68.79 3.88-11.205 8.255-21.321 10.868-35.416 39.869-45.016 14.371-100.425-13.976-117.647l-3.623-6.454c.139-46.381-21.043-65.287-45.768-79.639 7.483-1.999 15.203-3.642 17.321-13.184 12.848-3.345 15.54-9.383 16.827-15.777 3.365-2.277 14.61-8.67 13.421-19.638 6.296-4.414 9.8-10.076 8.018-18.093 6.77-7.503 8.552-13.68 5.681-19.4 8.117-10.254 4.514-15.56 1.05-20.944 6.077-11.205.712-23.22-16.293-21.202-6.77-10.096-21.518-7.8-23.794-7.76-2.554-3.246-5.92-6.018-16.292-4.672C316.104-.446 308.6.584 300.84 3.573c-9.185-7.246-15.282-1.445-22.23.752-11.126-3.642-13.68 1.346-19.143 3.365-12.135-2.573-15.837 3.03-21.657 8.908l-6.77-.138c-18.312 10.789-27.418 32.762-30.644 44.066-3.227-11.304-12.294-33.277-30.625-44.066l-6.77.138c-5.82-5.899-9.522-11.481-21.657-8.908-5.463-2.039-8.017-7.007-19.142-3.365-9.97-4.2-15.54-6.807-22.231-.772-7.74-2.99-15.243-4.019-21.974 2.059-10.373-1.346-13.738 1.425-16.292 4.672-2.276-.04-17.024-2.336-23.795 7.76-17.004-2.02-22.389 9.997-16.292 21.201-3.464 5.384-7.067 10.69 1.05 20.944-2.87 5.701-1.09 11.897 5.681 19.4-1.782 8.017 1.722 13.68 8.017 18.094-1.187 10.986 10.077 17.36 13.422 19.637 1.287 6.394 3.979 12.432 16.827 15.778 2.118 9.541 9.838 11.184 17.321 13.184-24.705 14.371-45.907 33.277-45.768 79.658l-3.623 6.454C6.218 249.636-19.299 305.025 20.57 350.041c2.594 14.095 6.968 24.21 10.868 35.415 5.82 45.135 43.769 66.277 53.786 68.791 14.669 11.165 30.288 21.776 51.45 29.199 37.262 38.384 90.867 37.759 127.465 0zm76.49-258.99c-1.484 18.687-97.355-65.05-80.806-67.821 44.937-7.582 82.311 19.103 80.807 67.82zM235.357 29.268c.832 4.197 1.762 6.869 2.85 7.641 5.326-5.8 9.68-11.739 16.55-17.321.02 3.286-1.623 6.83 2.455 9.442 3.682-5.028 8.65-9.522 15.263-13.322-3.188 5.562-.555 7.265 1.167 9.561 5.048-4.395 9.839-8.829 19.143-12.273-2.534 3.147-6.097 6.216-2.316 9.818 5.187-3.286 10.413-6.572 22.746-8.928-2.772 3.148-8.533 6.296-5.048 9.443 6.512-2.534 13.738-4.375 21.716-5.424-3.82 3.187-7.008 6.315-3.88 8.79 6.968-2.178 16.589-5.108 25.992-2.594l-5.939 6.077c-.653.812 13.917.634 23.537.773-3.503 4.948-7.087 9.74-9.185 18.232.95.99 5.721.435 10.215 0-4.613 9.858-12.61 12.332-14.49 16.549 2.81 2.158 6.71 1.603 10.986.119-3.306 6.948-10.274 11.7-15.777 17.321 1.385 1.01 3.82 1.604 9.561.91-5.088 5.484-11.224 10.493-18.49 14.986 1.287 1.505 5.722 1.445 9.82 1.544-6.593 6.553-15.065 9.938-23.023 14.214 3.959 2.752 6.79 2.098 9.818 2.078-5.622 4.692-15.183 7.127-24.052 9.958 1.683 2.652 3.366 3.385 6.988 4.137-9.383 5.286-22.844 2.87-26.625 5.563.91 2.652 3.504 4.375 6.592 5.82-15.124.89-56.458-.554-64.376-32.327 15.48-17.262 43.709-37.513 92.288-62.555-37.79 12.847-71.899 29.951-100.425 53.508-33.554-15.856-10.412-55.844 5.94-71.74zm-35.128 114.589c23.795-.258 53.241 17.747 53.142 34.732-.099 14.985-20.686 27.12-52.954 26.882-31.594-.376-52.875-15.242-52.795-29.753.059-11.957 25.784-32.554 52.607-31.861zm-120.28-12.798c3.603-.753 5.276-1.505 6.978-4.158-8.868-2.83-18.43-5.265-24.052-9.957 3.029.04 5.86.673 9.819-2.079-7.938-4.275-16.43-7.68-23.003-14.213 4.098-.099 8.532-.04 9.819-1.544-7.265-4.514-13.402-9.522-18.49-14.986 5.741.693 8.176.1 9.562-.91C45.079 77.59 38.13 72.819 34.804 65.89c4.276 1.465 8.176 2.04 10.987-.118-1.86-4.217-9.878-6.691-14.47-16.55 4.493.436 9.264.99 10.214 0-2.078-8.492-5.662-13.283-9.185-18.232 9.62-.138 24.19.04 23.537-.772l-5.939-6.077c9.403-2.534 19.004.415 25.992 2.593 3.128-2.475-.059-5.602-3.88-8.79 7.978 1.07 15.204 2.89 21.717 5.425 3.484-3.148-2.257-6.295-5.048-9.443 12.333 2.336 17.559 5.622 22.745 8.928 3.761-3.603.218-6.671-2.316-9.819 9.304 3.445 14.095 7.899 19.143 12.274 1.702-2.316 4.355-4 1.168-9.562 6.612 3.801 11.58 8.295 15.262 13.323 4.078-2.613 2.435-6.157 2.455-9.443 6.87 5.583 11.224 11.521 16.55 17.322 1.068-.792 2.019-3.425 2.85-7.622 16.371 15.877 39.513 55.884 5.939 71.76C143.978 77.55 109.889 60.427 72.119 47.6c48.56 25.042 76.788 45.293 92.249 62.535-7.918 31.773-49.272 33.218-64.376 32.327 3.088-1.445 5.681-3.167 6.592-5.82-3.801-2.692-17.253-.297-26.636-5.582zm55.736 24.13c16.549 2.772-79.343 86.509-80.807 67.841-1.505-48.717 35.87-75.422 80.807-67.84zM35 341.767c-23.3-18.746-30.802-73.64 12.393-98.306 26.031-6.988 8.79 107.71-12.393 98.306zm90.834 98.248c-13.144 7.918-45.046 4.652-67.732-27.932-15.302-27.339-13.322-55.172-2.593-63.347 16.055-9.78 40.879 3.424 59.982 25.596 16.648 20.053 24.24 55.29 10.343 65.683zM100.02 320.408c-24.111-15.797-28.476-51.608-9.71-79.996s53.509-38.582 77.62-22.785 28.467 51.608 9.72 79.996-53.518 38.582-77.63 22.785zm100.277 175.47c-28.903 1.248-57.25-23.675-56.894-32.326-.435-12.67 35.197-22.567 58.438-21.973 23.379-1.03 54.755 7.542 54.815 18.885.395 11.006-28.447 35.91-56.36 35.415zm59.506-125.218c.168 29.634-25.754 54.092-57.903 54.23s-58.329-24.022-58.497-53.676c-.168-29.635 25.755-54.073 57.903-54.231 32.149-.158 58.329 24.042 58.497 53.677zM223.3 294.77c-18.746-28.387-14.411-64.198 9.72-79.995 24.131-15.798 58.873-5.603 77.62 22.765 18.747 28.387 14.412 64.198-9.72 79.995-24.131 15.797-58.873 5.603-77.62-22.765zm117.895 118.894c-25.555 34.085-58.645 35.91-71.196 26.29-13.144-12.393-3.297-51.039 14.906-71.979 20.398-23.464 42.64-38.463 58.002-26.586 10.334 10.294 15.938 48.735-1.712 72.275zm19.49-73.324c-21.182 9.423-38.444-105.275-12.393-98.306 43.195 24.665 35.692 79.56 12.392 98.306z"/></svg>