<svg xmlns="http://www.w3.org/2000/svg" width="512" height="512"><path d="M107.639 340.645c-36.088 136.083 35.823 194.511 148.684 86.921 106.773 104.52 186.437 58.151 148.684-85.417 157.238-44.794 127.293-139.563 0-170.795 38.086-152.063-49.306-186.02-149.192-86.921-98.87-99.1-187.26-67.14-148.176 85.417-137.464 39.208-149.449 126.1 0 170.795zm176.792 19.103c-9.044 12.052-18.595 23.108-28.127 33.655-9.552-10.547-19.084-21.603-28.128-33.655 19.9.608 38.815.694 56.255 0zm-103.466-27.13c-15.567-2.013-30.139-4.532-44.203-7.54 4.532-13.556 9.552-27.64 15.568-41.703 8.12 16.23 17.711 32.651 28.635 49.242zm-44.222-145.706c14.064-3.008 28.635-5.518 44.203-7.53-10.74 16.655-20.307 33.233-28.635 49.73-6.524-14.571-11.564-28.625-15.568-42.2zm165.307-11.027c17.305 25.716 32.608 52.388 46.214 79.87-12.556 25.826-28.121 52.494-46.214 79.87-31.063 1.667-61.57 1.733-91.453 0-17.556-25.734-33.043-52.323-46.215-79.87 12.683-26.305 28.264-52.949 46.215-79.87 29.152-1.935 59.637-1.935 91.453 0zm58.774 52.752c-9.058-17.494-18.55-34.185-28.635-49.743 15.567 2.011 30.139 4.531 44.203 7.54-4.513 14.063-9.552 28.12-15.568 42.203zm0 54.262c6.036 14.064 11.055 28.115 15.568 41.69-14.064 3.008-28.636 5.528-44.203 7.54 10.378-16.233 20.033-32.62 28.635-49.23zm-88.425 127.596c14.571-15.568 28.635-33.167 42.699-52.759 23.615-2.011 46.214-5.527 67.33-10.547 30.036 127.542-24.563 146.518-110.03 63.306zm126.123-91.434a527.596 527.596 0 0 0-24.611-63.306c10.04-21.603 18.585-42.698 24.602-63.306 56.274 16.076 90.66 40.7 89.92 63.306-1.1 33.486-55.994 53.118-89.91 63.306zm-15.606-154.739c-21.096-4.532-43.715-8.048-67.33-10.548-13.556-19.591-28.128-37.17-42.7-52.758 80.452-77.76 141.909-71.404 110.03 63.306zm-98.466-12.56c-17.862-.775-36.711-.69-56.254 0 9.043-12.051 18.595-23.107 28.127-33.655 9.552 10.548 19.084 22.111 28.127 33.655zm-44.222-50.746c-14.572 15.568-28.635 33.147-42.699 52.758-23.615 2.012-46.215 5.528-67.33 10.548-28.935-119.812 19.256-151.273 110.029-63.306zM114.134 319.071c-56.275-16.075-89.425-40.702-89.92-63.316-.552-25.242 39.67-49.043 89.91-63.286a527.591 527.591 0 0 0 24.611 63.306c-10.04 21.603-18.585 43.197-24.601 63.296zm16.085 28.118c21.095 4.531 43.714 8.047 67.33 10.547 13.556 19.592 28.127 37.171 42.699 52.759-88.796 83.878-139.733 62.238-110.03-63.306zm102.69-51c-31.078-17.916-31.078-62.951 0-80.868s70.137 4.6 70.137 40.434-39.059 58.352-70.137 40.435z"/></svg>