<svg version="1.1" xmlns="http://www.w3.org/2000/svg" xmlns:xlink="http://www.w3.org/1999/xlink" x="0px" y="0px" width="512px" height="512px"><path d="M312.3894958,401.1568298c1.3130188,1.2726135,3.5855408,5.6056213,0.8181152,11.1001282c-1.5554199,2.908844-3.2522583,4.928894-6.2217407,7.3327637c-3.6159058,2.8886719-10.6456299,6.2217407-20.3014221,0.0808105c-5.1914978-3.2724915-5.5349121-4.3834839-12.6858826-3.434082c-5.1107178,0.6463928-7.1509399-4.545105-5.3127136-8.8276062c1.858429-4.2824707,9.393219-7.7367554,18.8065796-2.2422485c4.2420959,2.4846497,10.8274231,7.7569885,16.5845337,3.0704956c2.4038696-1.8988342,3.8381042-3.1714478,7.1509705-7.009552C311.5016785,400.9423523,311.9552002,400.8690186,312.3894958,401.1568298z M285.4925842,119.9567719c4.2825012,1.2322235,9.2720032,2.0200424,14.5645142,2.141243c16.4431458,0.3434067,30.0351868-5.5727768,30.0784607-13.2312775c0.0462341-8.1832581-13.6621704-14.0108261-28.3855591-14.5388794c-11.5319214-0.4135895-26.8552856,2.3543167-35.084198,6.8829041c-0.8321838,0.4235458-0.447998,1.4692001,0.3434143,1.4746323c1.7432251-0.1808701,2.8717957-0.4769669,5.2117004-0.6666107c15.877533-1.5958481,29.2502136,1.050415,29.9168091,5.8783264c0.4848022,3.6562729-6.4439392,7.5347672-16.6451416,9.8982086C284.2968445,118.0185394,284.3170471,119.6940842,285.4925842,119.9567719z M229.5677185,134.9859009c-12.5040588,0-21.442749,1.6362305-29.199707,1.8382263c-7.756958,0.2019806-13.756485-5.4945221-16.5441589-8.9891891c-2.2826385-2.8482513-9.6356049-5.5753174-13.6352844,3.5956955c-4.0400848,9.2719879,3.4340668,19.2307892,9.6154022,20.5438385c0,0,10.3022156,19.1096039,18.0995789,10.7668152c5.5349121-5.8783264,8.6053772-9.0497894,38.1788025-11.1910248c14.0797119-1.0504303,15.5341187-4.3027039,15.0897217-7.756958C250.7074432,139.7128143,242.2333679,134.9859009,229.5677185,134.9859009z M73.9335709,357.1098022c9.7141266-4.9640808,22.9354477-3.1864929,29.2704163,7.5347595c3.7473526,6.34198,7.1307449,10.1607971,11.3728333,12.82724c3.6562729,2.3634644,8.6457901,4.2825012,15.7765427,3.9390869c3.3734589-0.1413879,8.463974-0.9494324,9.7567902-4.4642944c1.454422-4.0198975-0.3636017-7.0499878-5.292511-9.0699768c-6.9085388-2.8886719-8.7871933-7.1509705-12.4434662-13.6555176c-3.6966705-6.5247192-11.6556396-9.9992371-12.9080658-22.2608643c-1.2322235-12.1000671,8.2417679-27.3311768,26.9675751-22.4830933c13.5342865,3.5148926,22.2608643,20.2206421,25.5535431,25.9575806c12.8428192,13.1811523,15.0357361-10.4285278,25.7555389,3.2724609c3.1310577,4.848114,26.1595459,35.5325623,51.0868835,36.3405762c25.3313293,0.8080139,38.8454285-5.7167053,49.8748474-5.3329163c7.7367554,0.3029785,11.4940491,4.2016907,15.9179382,4.8885193c7.7771606,1.2524109,13.3121033-5.7975464,21.8972473-5.3531189c6.928772,0.303009,14.5039368,4.9693298,22.2810974,4.9693298s24.1193237-9.3730164,23.9172974-5.51474c-0.4040222,6.8479614-5.6561279,18.9277954-6.9287415,24.5233154c-0.9090271,3.8583069-0.1212158,13.2312927-2.4442749,20.7458496c-2.080658,7.6559753-9.2113647,17.3521729-11.0698242,20.1196289c-6.2621155,9.3730164-10.8274231,12.2212524-15.958374,22.0386658c-5.6965027,11.0294189-15.0896912,21.2306519-17.5541382,24.5233459c-3.1311035,4.2016907,17.7359619-0.1212158,25.129303-7.1711426c6.2823486-5.9389343,17.3117676-23.9172974,34.7447205-27.7554016c22.3872986-6.5922241,7.3641968-11.3009644,14.6251221-16.5845337c20.4317017-8.2514038,48.2640991-10.7011719,77.6504517-4.5047302C496.9102783,384.5622253,512,336.8487549,512,285.5800781c-0.0202026-141.342392-114.6273193-255.888916-255.9898987-255.888916C114.6071014,29.6911659,0,144.2174835,0,285.5598755c0,28.5836487,4.6864967,56.0966187,13.3524876,81.7713623C37.5,367.7445374,53.25,367.4945374,73.9335709,357.1098022z M376.212738,242.4723663c-1.0504456,1.8382263-0.2020264,3.7976837,2.1412659,2.6058502c16.0189209-8.2215576,19.614624-19.0894012,22.139679-27.5735779c43.4915161,9.7971954,69.2756348,32.4112854,63.7019958,63.0152283c-12.2654114,67.3475342-122.5085144,89.946228-229.7495575,57.5611572C65.3056946,287.0033264-24.333334,174.6611938,136.7366486,184.3153381c-6.7267456,13.7362976-6.2419281,29.8764343,23.1699066,47.8548279c35.9567566,20.4024353,96.719635,37.8353882,113.1425781,36.1183777c6.1207275-0.6060486,11.6354675-3.6562805,6.1207275-7.3327942c-5.51474-3.6764832-10.4031982-11.0294189-13.4736938-23.8768921c-1.7372437-7.1509552-3.6764526-17.1501617-42.2592773-24.4829254c-82.8621674-15.7967224-79.6502838-39.1888123-77.2060242-52.6827087c0,0,7.352951-33.0681,10.4436188-44.7035522c3.0502625-11.6354446,10.9486237-38.3202057,64.2979736-26.3211517c30.8258667,6.9489517,47.4507904-1.6968384,55.9551849-3.858284c23.0890808-5.9389267,48.6022339-1.8382416,62.7021179,12.6454697c14.5847168,15.0089188,34.6841431,61.3082886,44.3197632,95.931839C391,217.9945221,385.8333435,226.8278656,376.212738,242.4723663z"/></svg>