<svg version="1.1" xmlns="http://www.w3.org/2000/svg" xmlns:xlink="http://www.w3.org/1999/xlink" x="0px" y="0px" width="512px" height="512px"><path d="M405.4747925,157.3739319v-37.8480301c-0.045166-12.3000488-5.4165344-17.6940231-17.8519897-17.6940231H50.2855377c-12.119503,0-17.4231834,5.3262558-17.4231834,17.332901v112.5510712H55.40868V124.9424057h327.7003479v32.4315109L405.4747925,157.3739319z M511.9887085,385.3310242c-4.4912109,11.6229858-13.1012573,15.2453003-25.2658997,15.0873108l-123.4292603-0.203125c-15.0083313,0-21.8918152-6.8835449-21.8918152-22.0498047V194.5674438c0-15.2791443,6.7029724-22.0046844,21.8466797-22.0272369l124.6705933-0.1805573c12.1195068-0.112854,20.2668762,3.9495544,24.0809937,15.685379L511.9887085,385.3310242z M499.2259521,362.931427V188.9929504H353.6565857V362.931427H499.2259521z M11.9409666,410.1681213c-9.1178293-2.730835-12.0292206-8.8695679-11.938941-18.2582397c0.3610977-42.9711609,0.1354143-85.9649048,0.1579816-128.9360657c0-11.2393036,4.3332257-15.8208008,15.6853848-15.9110718c18.7998943-0.1805573,37.5997772-0.1579895,56.4222412,0c10.9007797,0.090271,15.5499573,4.8297577,15.5499573,15.5499573c0.0451355,43.8062134-0.090271,87.6124268,0.1128464,131.4186707c0.0451355,8.5761414-4.0624084,13.3156433-11.465004,16.1367493C54.9572716,410.1681213,33.4491119,410.1681213,11.9409666,410.1681213z M8.8490372,275.1609802v107.473053h70.2344055V275.1609497L8.8490372,275.1609802z M160.8505554,399.4930115h114.6048584l1.6926575-2.1214905c-14.4440613-7.2671814-18.9804077-19.7703247-19.0255737-34.349823h-77.3210449C177.1680603,384.3779297,177.3181152,384.2062073,160.8505554,399.4930115z M103.1419067,303.6429138v44.1673584h222.9355469v-44.1673584H103.1419067z M214.0651855,334.3006287c-6.6522827-3.8320312-6.6522827-13.4641724,0-17.2962036s15.0128174,0.9840088,15.0128174,8.6481323C229.0780029,333.3166199,220.7174683,338.1327209,214.0651855,334.3006287z M409.1545105,380.772522c0-6.7774963-7.3778381-11.036438-13.24823-7.6476746c-5.8703918,3.3887329-5.8703613,11.9066162,0,15.2953796C401.7766724,391.8089905,409.1545105,387.5500488,409.1545105,380.772522z M48.3675003,395.2505188c0-4.1541443-4.5280151-6.7645874-8.1308632-4.6875305c-3.6028481,2.0770874-3.6028481,7.2980042,0,9.3750916C43.8394852,402.0151367,48.3675003,399.4046936,48.3675003,395.2505188z M435.2090149,380.7715454c0-6.7775269-7.3297729-11.0364685-13.1619263-7.6477051c-5.8321228,3.3887634-5.8321228,11.9066467,0.0000305,15.2953796C427.8792419,391.8079834,435.2090149,387.5490417,435.2090149,380.7715454z M461.2869873,380.7655334c0-6.7817383-7.3297424-11.0433044-13.1618958-7.6524658c-5.8321228,3.3908691-5.8321228,11.9140625,0,15.3049316C453.9572449,391.8088379,461.2869873,387.5472717,461.2869873,380.7655334z"/></svg>