<svg xmlns="http://www.w3.org/2000/svg" width="512" height="512"><path d="M239.983 60.321c0-8.404 6.813-15.217 15.218-15.217s15.218 6.813 15.218 15.217c0 8.405-6.814 15.218-15.218 15.218s-15.218-6.813-15.218-15.218M58.44 198.105c.003-8.405 6.819-15.215 15.223-15.212 8.4.003 15.21 6.812 15.212 15.212-.003 8.405-6.819 15.215-15.223 15.212-8.4-.003-15.21-6.812-15.212-15.212m363.08.71c0-8.405 6.813-15.218 15.217-15.218 8.405 0 15.218 6.813 15.218 15.218 0 8.405-6.813 15.218-15.218 15.218-8.404 0-15.218-6.813-15.218-15.218m-319.027 20.849c7.002-3.11 10.165-11.316 7.056-18.332l-6.752-15.267h26.553V305.75h-53.57a187.359 187.359 0 0 1-6.067-71.52l32.781-14.567zm111.074 2.942v-35.278h63.232c3.265 0 23.061 3.775 23.061 18.577 0 12.29-15.183 16.696-27.669 16.696l-58.624.005zm-86.328 189.945c.004-8.405 6.82-15.216 15.224-15.212 8.4.003 15.209 6.812 15.212 15.212-.003 8.404-6.819 15.215-15.224 15.212-8.4-.003-15.209-6.812-15.212-15.212m225.482.71c0-8.405 6.814-15.218 15.218-15.218s15.218 6.813 15.218 15.218-6.813 15.218-15.218 15.218-15.218-6.814-15.218-15.218m4.706-34.51c-7.496-1.606-14.87 3.163-16.476 10.674l-7.639 35.646a187.36 187.36 0 0 1-156.247-.75l-7.634-35.645c-1.606-7.501-8.98-12.28-16.471-10.669l-31.469 6.757a187.358 187.358 0 0 1-16.27-19.18h153.118c1.734 0 2.89-.313 2.89-1.89v-54.163c0-1.576-1.156-1.89-2.89-1.89h-44.782v-34.333h48.435c4.421 0 23.64 1.263 29.785 25.828 1.924 7.555 6.15 32.13 9.038 39.999 2.88 8.823 14.601 26.45 27.092 26.45h79.056a187.357 187.357 0 0 1-17.352 20.085l-32.184-6.919zm85.025-143.008a187.362 187.362 0 0 1 .397 32.527h-19.223c-1.925 0-2.698 1.263-2.698 3.148v8.828c0 20.78-11.717 25.3-21.985 26.45-9.778 1.102-20.618-4.093-21.955-10.076-5.768-32.444-15.38-39.372-30.558-51.344 18.836-11.961 38.436-29.608 38.436-53.228 0-25.505-17.485-41.57-29.403-49.448-16.72-11.022-35.234-13.23-40.228-13.23H116.428A187.36 187.36 0 0 1 221.25 70.212l23.434 24.585c5.298 5.547 14.073 5.753 19.615.45l26.22-25.079a187.36 187.36 0 0 1 128.265 91.351l-17.95 40.542c-3.1 7.017.064 15.223 7.06 18.332l34.56 15.35zm44.768.656-.612-6.267 18.488-17.245c3.76-3.506 2.355-10.561-2.453-12.353l-23.635-8.838-1.85-6.101 14.742-20.477c3.007-4.162.245-10.806-4.818-11.638l-24.922-4.055-2.997-5.596 10.474-22.989c2.144-4.68-1.841-10.669-6.992-10.473l-25.295.881-3.995-4.847 5.812-24.638c1.175-5.004-3.903-10.087-8.907-8.912l-24.633 5.807-4.858-3.995.887-25.295c.196-5.121-5.798-9.122-10.469-6.997L368.204 52.85l-5.597-3.002-4.064-24.927c-.822-5.053-7.472-7.815-11.634-4.818l-20.49 14.743L320.326 33 311.49 9.36c-1.792-4.818-8.852-6.204-12.348-2.463l-17.245 18.504-6.268-.612-13.318-21.52c-2.693-4.358-9.905-4.358-12.588 0l-13.318 21.52-6.273.612-17.25-18.504c-3.496-3.74-10.556-2.355-12.348 2.463L191.695 33l-6.096 1.846-20.486-14.743c-4.162-3.007-10.817-.235-11.64 4.818l-4.063 24.927-5.597 3.002-22.983-10.48c-4.671-2.134-10.664 1.876-10.469 6.997l.882 25.295-4.857 3.995-24.634-5.807c-5.004-1.165-10.086 3.908-8.911 8.912l5.802 24.638-3.986 4.847-25.294-.88c-5.102-.148-9.122 5.792-6.997 10.472l10.478 22.989-3.002 5.596-24.922 4.055c-5.063.822-7.805 7.476-4.818 11.638l14.743 20.477-1.85 6.1-23.64 8.839c-4.799 1.792-6.204 8.847-2.454 12.353l18.494 17.245-.612 6.267-21.515 13.318c-4.357 2.693-4.357 9.906 0 12.589l21.515 13.318.612 6.267-18.494 17.25c-3.75 3.496-2.345 10.547 2.453 12.349l23.64 8.838 1.85 6.1-14.742 20.482c-2.997 4.172-.24 10.821 4.823 11.634l24.917 4.054 3.002 5.606-10.478 22.98c-2.135 4.67 1.895 10.678 6.997 10.472l25.284-.886 3.996 4.857-5.802 24.644c-1.175 4.994 3.907 10.067 8.911 8.891l24.634-5.802 4.857 3.986-.882 25.3c-.195 5.121 5.798 9.126 10.469 6.991l22.983-10.473 5.597 3.002 4.064 24.912c.823 5.073 7.477 7.815 11.639 4.828l20.476-14.753 6.101 1.856 8.838 23.63c1.792 4.798 8.853 6.213 12.349 2.453l17.25-18.494 6.272.627 13.318 21.515c2.683 4.338 9.895 4.348 12.588 0l13.318-21.515 6.268-.627 17.245 18.494c3.496 3.76 10.556 2.345 12.348-2.453l8.838-23.63 6.101-1.856 20.482 14.753c4.161 2.987 10.81.235 11.633-4.828l4.064-24.912 5.597-3.002 22.983 10.473c4.672 2.135 10.655-1.86 10.469-6.992l-.882-25.3 4.853-3.985 24.633 5.802c5.004 1.176 10.082-3.897 8.907-8.891l-5.802-24.644 3.985-4.857 25.295.886c5.102.206 9.136-5.802 6.992-10.473l-10.473-22.979 2.996-5.606 24.923-4.054c5.072-.813 7.824-7.462 4.818-11.634l-14.743-20.481 1.85-6.101 23.635-8.838c4.808-1.802 6.214-8.853 2.453-12.349l-18.488-17.25.612-6.267 21.514-13.318c4.358-2.683 4.363-9.896.005-12.589L487.22 236.4z"/></svg>