<svg xmlns="http://www.w3.org/2000/svg" width="461" height="512"><path d="M146.21 27.754c0 12.388 8.797 22.9 21.001 26.593-.312 1.858-.343 3.662-.081 5.409C70.636 87.308 0 176.128 0 281.459 0 408.791 103.209 512 230.54 512s230.542-103.209 230.542-230.54S357.862 50.917 230.55 50.917c-9.47 0-18.766.592-27.93 1.694a18.006 18.006 0 0 0-3.02-6.184c4.857-4.959 7.796-11.49 7.796-18.674-1.548-37.005-58.825-37.005-61.186 0zM170.8 7.12c21.93-5.53 38.533 18.186 23.618 34.635-9.713-4.928-18.045-2.994-24.9 6.286-21.082-6.49-22.298-34.975 1.282-40.92zm59.762 468.593c-107.29 0-194.253-86.963-194.253-194.254S123.27 87.206 230.56 87.206s194.254 86.963 194.254 194.253c0 107.27-86.963 194.254-194.254 194.254zM60.33 315.216l16.552-3.694c4.08-.918 5.447 5.164 1.367 6.082l-16.592 3.694c10.266 43.655 37.022 80.942 73.33 104.943l10.163-15.98c2.254-3.532 7.5-.185 5.245 3.347l-10.163 15.98c37.49 23.194 81.674 30.574 125.658 21.756l-3.653-16.368c-.934-4.154 5.148-5.522 6.082-1.367l3.633 16.327c43.043-10.531 79.8-37.145 103.515-73.085l-12.674-8.061c-3.598-2.282-.27-7.527 3.326-5.246l.02.041 12.675 8.062c21.925-36.07 30.409-78.853 21.919-124.21l-13.735 3.062c-4.25.941-5.597-5.14-1.347-6.082l13.755-3.062c-10.163-42.92-36.246-79.697-71.697-103.698l-8.96 14.082c-2.252 3.544-7.517.197-5.265-3.347l8.98-14.123c-40.376-24.113-81.91-30.83-124.393-23.307l3.572 16.062c.921 4.099-5.16 5.466-6.082 1.367l-3.592-16.143c-43.533 9.878-80.84 36.124-105.127 71.921l14.225 9.041c3.578 2.27.25 7.515-3.327 5.246l-14.286-9.082C60.568 226.028 52.22 267.753 60.33 315.216zm124.822-18.144-3.367 5.613-63.534-.164 59.533-27.715a52.958 52.958 0 0 1 6.103-18.94l-23.124-23.123 31.675 11.572a53.378 53.378 0 0 1 16-11.286V168.76l27.818 59.758c2.184.225 4.327.592 6.43 1.082l-4.654 4.367c-39.102-5.104-64.447 32.748-52.88 63.105zm60.941-.918L126.516 408.302l85.555-142.21 119.882-112.434-85.86 142.496zm32.492-14.674c0-7.409-1.674-14.43-4.674-20.695l3.123-5.204c.06.102 65.145 1.326 65.145 1.326l-58.451 26.103a53.051 53.051 0 0 1-4.123 19.164l23.624 24.359-31.053-11.889a53.515 53.515 0 0 1-14.31 12.507l-1.017 66.66-26.41-59.105c-4.57 0-9.02-.612-13.265-1.693l4.592-4.307c34.108 5.708 56.994-21.43 56.819-47.226zm-55.359 12.811c-9.886-5.7-9.886-20.025 0-25.725s22.31 1.464 22.31 12.863-12.424 18.562-22.31 12.862z"/></svg>