<svg version="1.1" xmlns="http://www.w3.org/2000/svg" xmlns:xlink="http://www.w3.org/1999/xlink" x="0px" y="0px" width="512px" height="512px"><path d="M167.9974823,289.5700073l-48.7422333,26.7665405c-28.142128-27.5727844-54.6928253-40.9770203-70.159256-61.8567047c-19.730278-26.6358643-13.4042358-61.6079407,30.2138443-96.1427155c94.9653702-72.3248672,187.2566223-75.0708466,209.6980896-46.8433228c20.6258545,25.9438477-14.9292908,82.2457428-75.260437,102.5019989c-36.9942322,12.5068665-72.298111,13.0076294-90.5353012-7.63591c-2.455574-3.4020233-6.2458038-0.3698578-4.9706879,2.8287354c12.024147,36.0092316,67.1942825,33.5922699,108.5704117,23.5944214c77.1335449-18.6380157,134.9737244-117.6169739,64.3246765-156.2498322C187.9220276,28.2143707,7.9140949,138.1900024,0.2365647,215.5491486c-4.373282,44.0653839,52.7444649,75.218277,100.4276428,111.0557404c-37.5383682,20.0550842-64.9966431,38.6474304-74.3478394,54.6121826c-9.4999084,15.0101929-12.8682089,31.0014343-5.7882404,48.0718689c13.3877144,30.1881104,60.0418358,16.0531921,77.3891144,3.7116699c27.5911407-19.629425,49.1894608-58.426178,30.7561722-103.5179443l28.1073151-16.1711121l0.4251251,0.3597107c-0.5068817,1.6677856-1.046463,3.3356018-1.5206451,5.0361023c-8.7613831,28.2661438-5.9714661,54.9603577,7.750351,74.6585083c5.8351898,8.3766174,18.6219788,9.2786255,25.9403839,2.8285217c7.4763794-6.5893555,13.4125214-22.8725281,22.8999634-43.1990967c-2.3887482,21.2643127-0.5803833,38.9735413,12.0833588,40.3051453c7.8851166,0.8291321,15.0551147-6.7127686,21.0437012-16.7434082c15.757431-26.3930969,30.5850677-59.0821838,45.3248749-94.1488342c2.929657,14.4800415,7.5043335,27.7844849,13.9310303,39.7655334c1.5860596,3.1720886,1.406189,5.2322998-0.801178,7.8811646l-27.3551941,33.6175842c-13.137085,15.3175659-8.5266724,23.2416687,9.091156,22.1392212c24.947113-2.2359924,55.6606445-18.4273376,48.5296631-51.734436c-2.6990356-12.4391174-6.0957031-14.2129211-3.3682861-17.4791565c10.5299988-15.0265808,20.6304932-33.3985596,28.9858398-49.70047c2.7142639,14.1109009,6.9208984,28.1335144,14.2297668,40.4621582c-17.578949,15.8038025-30.3903503,32.4214172-29.7096863,51.3420105c0.997406,7.488739,7.1289978,12.3449707,14.486908,10.6444702c19.4042358-2.941803,41.6712036-20.799469,44.3902893-34.6152954c1.5465393-7.8580933,1.0288391-15.5795288-3.2676086-27.4856567c78.6766663-26.3262939,125.7484741,32.5135193,87.8373718,58.3893127c-1.5354309,0.8808594-3.1037598,1.8188782-3.90271,2.8764343c-1.2114258,1.6036377-0.6677856,3.4677734,1.6298828,3.4513855c3.7324219-0.0266418,6.7042542-1.8468323,9.4277039-3.4523315c37.5165405-22.1161499,10.141449-83.4180603-50.1252441-84.3686218c-17.7690735-0.3430786-34.389801,3.0453186-50.8024597,10.5299988c-10.3661804-17.0908813-13.7880859-32.7814941-10.9060974-45.5374298c1.4388733-6.0007935,3.3356018-11.9035034,5.1015015-17.8388824c0.7984314-3.0346375,0.5397339-5.8245392-5.8536377-7.1944275c-7.1617126-1.0301056-14.2089844-0.4414825-21.1417847,1.5696869c-5.1376953,1.4091339-4.4534302,4.8030853-6.1479797,9.3854523c-4.0095825,20.6997375-19.1690674,43.9272461-33.3723145,68.5596008c-5.0430298-9.0296631-9.27005-19.8243103-8.3197937-33.7967224c0.4772644-7.0173035,3.5065002-16.1637268,5.8998413-23.6279144c1.1246338-3.1251678,0.0756836-5.1982117-5.8045959-6.8347015c-10.0462036-1.3807373-19.8663635,0.4561157-24.0067444,3.0040283c-3.2549438,2.003067-4.111145,13.7230835-8.4335327,23.3373413c-17.7939758,39.0704041-37.106781,86.0490723-45.259491,97.3373108c-4.9740753-2.9205933,4.3138885-35.401825,12.0506897-64.6680603c2.7169037-8.7506714-8.1908722-14.2045593-16.7434082-8.0119324c8.2675934-44.1554565-29.9574127-41.3177948-59.9099274-3.4500427C170.2539215,287.9676208,169.1584015,288.9323425,167.9974823,289.5700073 M113.3606415,362.7815247c-1.3675919,18.2305298-9.6061859,33.0043945-23.1120911,44.9569702c-34.8471603,27.9167175-55.1281128,9.8891907-37.5908737-20.2588501c7.3709793-15.5198364,32.0270615-31.3484802,58.2584839-47.2052612C112.9436874,347.7958069,113.9285812,355.2106628,113.3606415,362.7815247z M178.2004089,368.3490295c-10.0018616-23.9580994,3.3101196-69.2355347,26.472229-86.0388184c8.4694977-4.9799805,12.2050629-3.7089233,11.5519409,1.2345276c-0.9647064,5.8209534-2.1665039,11.6500549-3.8670044,17.2911377c-5.8863373,19.5230713-13.4241333,38.4574585-21.5832672,57.1139221C184.7546082,370.7098389,180.4548798,373.6817322,178.2004089,368.3490295z M286.378418,372.943634c8.4043884-9.8105774,16.79245-19.6047974,25.2131653-29.4480896C312.638031,354.4343567,294.0633545,376.2628784,286.378418,372.943634z M360.6221619,356.1497192c-1.3924866,0.3041382-1.9622192-0.6608582-1.1549683-4.6912537c3.401001-12.0179443,9.7047424-22.4243164,19.6243896-31.0649414C383.7027283,333.0071716,378.6447144,349.3985596,360.6221619,356.1497192z"/></svg>