<svg version="1.1" xmlns="http://www.w3.org/2000/svg" xmlns:xlink="http://www.w3.org/1999/xlink" x="0px" y="0px" width="512px" height="512px"><path d="M248.1342926,170.6000519c-4.5940247,5.0543365-7.7474365,0.6340942-11.0216522-0.7724609c-168.1121368-66.1609268-177.4454651,245.8390656-3.274231,177.0614471c3.666214-1.8215942,6.6406708-5.3494568,10.8141479-5.0727234c5.695282,15.5179443-2.236618,22.2047119-15.8638153,26.6549072c-65.5304718,21.3054504-127.6371002-7.7450867-139.5923462-76.8288574C72.4481735,194.8621979,139.7505035,117.5,242.9923706,150.3437347c0,0,5.1109314,1.3765259,7.0081329,2.1562653C252.081665,153.3553314,253.4290161,164.7747803,248.1342926,170.6000519z M414.9580078,326.2637634c-3.5048523,21.7666321-22.8734131,40.3627625-47.9373169,46.0811462c-18.2387695,4.1504211-36.3852844,3.8506775-54.4857178-0.8300476c-23.3806763-6.0411682-25.3405762-8.6697693-23.8879395-33.7106323c29.7669983,21.7734375,66.8356934,24.6420593,88.3534546,11.5291138c20.1825256-12.2992554,27.5026245-40.2816467,5.9993286-60.434845c-15.7860107-14.7949219-40.2215271-21.5965881-67.3289795-37.8610077c-58.2355042-35.7660065-21.2287598-135.2594299,84.1842346-101.9849701c13.9269714,4.7268524,8.6236572,15.4487762,9.6381836,26.6087799C321.5004883,127,281.0004883,207,332.4569092,238.0328674c17.132019,9.6843109,35.3477783,17.5009155,52.4105835,27.3005066C411.084259,280.413208,419.4542236,298.3406677,414.9580078,326.2637634z M511.375,256c0-196.3383179-213.7462463-319.7160034-383.8198547-221.5468445s-170.0735168,344.9245605,0.0000534,443.093689S511.375,452.3383484,511.375,256z"/></svg>