<svg version="1.1" xmlns="http://www.w3.org/2000/svg" xmlns:xlink="http://www.w3.org/1999/xlink" x="0px" y="0px" width="512px" height="512px"><path d="M83.3540573,234.2658081c-13.7885056-2.3508301-27.3465614-7.4062042-38.9424629-15.4080353c-73.0559692-59.906189-28.7995262-148.5448608,34.064373-159.449295c22.9205475-4.3173866,44.168396-0.203434,63.9017792,11.9123688c3.4810333,2.1473923,5.6058197,2.4638519,7.8888245-1.2658234l5.6510315-6.6230087l10.8951721,44.1684189c1.1528015,3.8879013-0.0226135,5.6284103-4.1365356,5.3571777l-45.3211975-3.2097626l8.5217438-10.669136c-37.3876038-25.091217-87.2042236,2.9306259-87.1614075,49.0735092c0.5424995,27.6674194,23.8699303,52.396286,51.4243279,54.7471161c3.5714417,0.2938538,4.8146744-1.5144806,6.1935196-4.1817627c19.529953-37.4776001,48.9378815-63.9695892,88.9471436-77.7580872c92.5637512-31.9169769,189.5706177,25.2008362,207.0309448,118.874939c8.7389526,46.8843842-0.8245544,89.0485992-32.5657654,131.0362091l72.1229248-0.0003052c4.8372803,0.0452271,6.2839355-1.6048584,6.0353088-6.2387085l-0.0678406-19.5525208L512,399.6453857l-74.1640625,54.6115112V435.60849c0-7.5045776,0-7.5271606-7.3011169-7.5271606H6.8888149c-6.8264389,0-6.8829503,0-6.8829503-6.8716736v-44.6656799c-0.1130231-4.8373108,1.3901536-5.9222717,6.0239921-5.8996887l227.7814789,0.0452271c38.9242554-0.1129761,69.6431885-16.2297363,89.964325-49.7742004c36.7076721-66.4154816-4.5551758-130.7756805-57.3026733-146.9243317c-54.8255615-16.7848511-128.4276581,17.5758057-129.9949188,99.0487823l26.039917-3.5262146l-41.9984055,81.1939392l-63.1106415-65.0320129l18.8518066-3.2775879c1.2884445-0.2712402,3.1871796-2.3508301,3.1419754-3.5488586C79.0184479,264.4050293,80.5285416,248.4385681,83.3540573,234.2658081z"/></svg>