<svg xmlns="http://www.w3.org/2000/svg" width="512" height="512"><path d="M10.713 190.29c-13.57-3.819-13.57-3.482-3.819 13.93l7.661 13.57H265.57l5.212-21.59c8.358-31.678 9.75-31.678 42.484-2.427l107.393 95.27-197.213 115.372 3.123-21.59c5.931-35.182 22.69-32.048-97.076-32.048H16.6v9.403c0 15.321 18.804 29.25 72.767 55.02l47.359 22.286c-7.539 6.741-15.821 12.735-26.802 16.018-41.428 8.357 33.766 15.659 145.198 14.266l90.539-1.034c98.139-38.128 147.93-103.836 161.89-163.98 15.963-104.924-3.316-207.3-187.659-229.11-32.111-4.605-57.969-6.443-94.357-29.587-.955 12.25 1.142 21.004 5.212 27.498 7.301 12.536 6.605 13.93-5.931 13.93-46.572 6.479-47.32 31.408-123.25 11.48-2.785-1.057-4.875 0-4.875 2.089 2.045 12.297 17.485 41.023 30.307 51.874-35.508-.131-83.372 51.721-116.285 39.36z"/></svg>