<svg xmlns="http://www.w3.org/2000/svg" width="512" height="512"><path d="M296.846 210.41c-62.743-21.047-79.165-40.398-79.165-68.198.204-30.86 24.56-46.697 66.975-43.842 27.555 2.442 56.558 10.425 87.276 24.968l31.88-77.533C397 40.5 371.342 27.747 348.594 21.448c-26.6-7.114-27.211-7.295-23.337-8.315C376.622.15 393.196-1.793 406.043 3.583c8.896 3.722 17.843 11.77 22.125 19.678L512 390.24c0 12.78-4.26 21.933-14.41 31.064-8.111 7.5-12.575 9.13-53.585 18.873l-24.356 5.687c42.003-70.171 26.018-185.532-122.803-235.455zM144.022 391.284l-39.99 77.941s31.856 16.245 52.565 22.725c10.762 3.444 20.913 6.707 22.521 7.115 1.632.612-7.907 3.648-21.32 6.888-42.21 10.354-62.104 5.89-73.274-16.45L39.051 302.966C-5.811 109.132-4.587 116.632 6.379 99.39c7.907-12.575 20.097-17.854 60.087-26.985l63.327-15.022c-32.941 38.528-37.33 93.077-25.376 127.266 14.631 41.843 53.728 77.245 95.354 97.557 66.356 32.382 136.847 43.62 114.817 109.712-10.655 31.963-77.314 39.24-170.566-.634z"/></svg>