<svg version="1.1" xmlns="http://www.w3.org/2000/svg" xmlns:xlink="http://www.w3.org/1999/xlink" x="0px" y="0px" width="512px" height="512px"><path d="M437.8413086,248.9347687l32.9406128,8.578476l-17.1381531-32.5832062c-3.6684265-6.0388031-2.9911804-9.8953552,1.6554871-14.9182892c8.6725769-9.3686066,16.6114197-19.4144592,24.8512573-29.1781311l-1.2039795-2.4268036c-10.1399231,2.6149445-20.5431824,4.4773712-30.3445129,8.0517426c-10.328064,3.7624969-16.8183289,2.3515625-21.5778809-8.4091492c-3.781311-8.522049-16.2915955-26.9770813-16.2915955-26.9770813s-5.2863159,23.4403381-6.2645569,33.862442c-0.9970398,10.8171692-5.2486572,16.7619019-16.3856506,19.0193939c-10.4785461,2.1258087-20.5244141,6.3962402-33.8812866,10.7230988l35.4050598,15.20047l-19.4896851,12.6043549c-1.5990295,0.978241-4.2328186,1.9564972-5.624939,1.2980652c-11.5884399-5.3991852-23.8730164-9.9141846-34.2010498-17.1945953c-9.7636719-6.8853607-7.280426-19.3956451,4.3080444-24.117569c13.7519226-5.5872955,28.0117798-10.0270386,42.2716064-14.1469727c6.5655518-1.9000549,9.3309937-5.1169891,10.1775513-11.8142242c3.114563-20.5943604,6.2813416-37.8450012,9.2933655-43.4944305c6.6031494-13.0182343,17.664856-13.9400406,25.9235535-1.9376831c6.1328735,8.9171143,11.9835205,18.1352081,16.8747864,27.7671967c4.0446777,7.938858,8.7666016,9.4062347,17.0252991,6.7160645c12.5102844-4.1011353,25.3027344-7.6943054,38.2457275-9.8953705c5.5120239-0.9406128,11.7013245,2.1634369,17.5896301,3.442688c-1.5802307,5.8694916-1.6743164,12.8300934-5.0229187,17.3827057c-8.8042603,11.983551-18.8312683,23.1016998-28.7831116,34.2010651c-4.1951599,4.6842957-5.1358032,8.4467926-1.7119141,14.2034149c6.2080994,10.4597168,12.3033447,21.1640167,16.7619324,32.432663c2.0693665,5.2486572,2.4267883,13.6954956-0.5079651,17.6648865c-2.9347534,3.9506226-11.2874756,6.2457581-16.7054749,5.4744568c-10.9300232-1.5614624-22.5749817-3.9318237-31.7930603-9.4815063c-5.1922302-3.1228638-6.1516724-13.2627869-9.0299988-20.2610016L437.8413086,248.9347687z M107.6073074,355.0182495l-4.9665146,34.3515625H81.4767761l10.0082397-77.6578369c4.1011276-25.6414185,25.4532623-46.3163147,50.1540375-48.743103c37.1546326-3.6308289,60.9900208,29.0652466,46.2410431,63.4356384C174.1846313,358.3292542,141.845993,370.1998901,107.6073074,355.0182495z M169.3686218,309.2005005c0.1381378-14.0716248-10.1022797-24.4279785-24.1928253-24.4467773c-16.9876556-0.0376282-31.9435654,14.8430176-31.8871231,31.7366333c0.0564423,13.8083496,10.64785,24.0987854,24.7948227,24.0423279C154.4315338,340.4762573,169.2068634,325.6802979,169.3686218,309.2005005z M0,335.1993713l22.4056416-11.9553528c2.1822491,3.5743713,3.8753662,6.8100891,6.0011806,9.7260437c6.0576134,8.2962952,15.6707878,9.3121948,24.0047073,2.7278137c7.7131081-6.0952148,8.1834221-11.9835205,0.8089409-20.8630066c-6.2645569-7.5437927-12.9806023-14.7489624-19.7530937-21.8789062c-10.2716064-10.835968-16.1222801-23.1205139-9.9141674-37.7754211c12.1117496-30.131958,55.9072037-39.0532532,73.0676193-6.1140289l-20.486763,15.5955048c-3.442688-3.6684265-6.0011826-8.7854156-9.5379257-9.6131592c-5.5308647-1.2792358-12.8865356-1.5426178-17.4015312,1.1851807c-6.6596146,4.0446777-2.5020561,10.0270386,1.5990601,14.5232239c6.3774223,7.0170288,12.6043549,14.222229,19.3768349,20.8254089c11.437973,11.1745911,16.3480301,24.2304382,11.2122345,39.6378784c-5.5684891,16.7054749-17.4203453,27.3344727-34.7466278,30.8900452C22.0670242,367.1523438,7.8636103,358.9595032,0,335.1993713z M272.4045105,359.5896912c1.9000549-14.5985107,4.0446777-28.557312,5.4367981-42.5914307c1.147583-11.6072998-0.6960754-22.6502075-11.6825562-29.4415283c-8.8982849-5.4932251-22.8571472-3.4802856-32.2821808,4.5526428c-9.3874054,7.9952698-14.2974854,18.0411377-10.9488525,30.683136c4.2704315,16.1222839,21.6531525,22.480896,37.7754364,13.9024353c2.9159546-1.5614624,5.6625671-3.4427185,9.3874207-5.7566223l-1.7307129,12.0023499c-2.069397,16.1223145-4.759552,18.643158-20.6937256,19.3768616c-34.4456329,1.6178894-55.8730316-26.1869507-45.620224-59.1652222c7.8824158-25.3215637,32.6772614-42.2151489,59.2404327-40.3338928c22.1799011,1.5802307,39.7507629,19.4708862,38.8477478,41.7072144c-0.7336731,18.1916504-3.781311,36.2704163-5.8883057,55.0452881L272.4045105,359.5896912z M390.4903564,287.8483276l37.8318787-41.4532471c5.3427429,13.7707214,6.7348633,25.3780212-6.2457581,34.9911804c-5.850708,4.3268738-10.2528076,10.6102295-15.5767212,16.2915955l44.4726868,62.5702515c0,0-18.1352234,0.5079651-26.262207-0.3009949c-2.5772705-0.2445679-5.3615417-3.5932007-7.1111145-6.1516724l-29.7236938-44.7924805c-2.1069946,14.7113342-4.8160095,26.4691162-5.2110596,38.3021545c-0.338623,10.7983398-4.5526123,14.4103699-14.6925354,12.8112793l-11.0241089-0.5455322l12.8301086-100.1575623c0.5079651-8.1081696,3.5932007-13.1687317,10.5161743-16.8559723c5.2863159-2.8218689,10.1963501-6.3586273,17.1005554-10.7419281L390.4903564,287.8483276z M312.7196045,293.1252136c3.2357788-18.9629517,14.0717163-28.0117493,33.4297791-28.0870056c3.3862305-0.0187988,12.6410522,0.3488159,12.6410522,0.3488159l-2.5199585,21.6245422l-9.349823-0.0003662c-8.6770325,0.1143799-11.7954407,3.3298035-12.7548523,11.0617065c-2.1446228,17.1005554-5.2674866,34.1257935-6.5655518,51.2827759c-0.6772461,8.9735413-3.724884,12.0588074-12.2845459,10.8171997l-11.3250732,0.0003967C307.2114868,333.4511719,310.5007019,305.7680969,312.7196045,293.1252136z"/></svg>