<svg xmlns="http://www.w3.org/2000/svg" width="229" height="512"><path d="M119.448 34.332C74.495 82.026 32.758 170.372 19.78 237.85c6.21 12.253 12.457 34.827 15.109 48.286-2.729-11.544-10.16-24.027-18.443-38.64l-8.008 25.07c10.316 18.856 16.588 51.185 16.588 51.185-2.772-11.789-10.328-24.233-19.606-40.633-4.635 17.14-6.489 28.7-4.812 31.52 10.764 22.019 18.49 67.896 19.724 82.113-1.34 42.028 1.91 85.761 11.854 115.25l3.294-1.795C-2.499 373.554 83.467 129.15 196.491 36.463 133.448 99.66 56.921 272.748 38.025 391.405c14.221-43.434 60.16-62.113 60.16-62.113s22.545-27.792 48.877-67.497c-27.069 5.936-47.726 11.298-66.61 20.612 0 0 41.461-25.247 77.024-36.687 48.917-77.044 102.213-186.515 48.542-234.406-25.125-23.315-58.076-8.116-86.57 23.018z"/></svg>