<svg xmlns="http://www.w3.org/2000/svg" width="401" height="512"><path d="M.02 512h332.947V300.063l-35.227 3.853-3.852 176.074H32.01V300.72H0L.02 512zm57.626-70.434h204.887v-38.424H57.646v38.424zm.993-75.735 203.676 22.2 4.17-38.185-203.676-22.2-4.17 38.185zm12.41-90.907 197.878 53.138 9.968-37.093L81.018 237.83l-9.969 37.093zm36.776-107.607 173.433 109.096 20.453-32.526-173.433-109.096-20.453 32.526zM200.34 63.861l116.225 168.747 31.632-21.783L231.973 42.078 200.34 63.86zM325.322 7.049l37.59 201.413 37.768-7.05L363.11 0l-37.788 7.05z"/></svg>