<svg version="1.1" xmlns="http://www.w3.org/2000/svg" xmlns:xlink="http://www.w3.org/1999/xlink" x="0px" y="0px" width="401px" height="512px"><path d="M0.0198558,512h332.9469604V300.0632629l-35.2268066,3.8523254l-3.8523254,176.0744934H32.0099297V300.7185974H0L0.0198558,512z M57.6456833,441.5662842h204.8873596v-38.4237976H57.6456642L57.6456833,441.5662842z M58.6385498,365.8306274l203.6761169,22.2004395l4.1700134-38.1855469L62.8085785,327.6450806L58.6385498,365.8306274z M71.0493317,274.9239807l197.8777618,53.138092l9.9683838-37.0933838l-197.8777771-53.138092L71.0493317,274.9239807z M107.8250122,167.3174133l173.4334717,109.0958862l20.4530029-32.5262299l-173.4334717-109.095871L107.8250122,167.3174133z M200.3400574,63.8609962L316.5646973,232.608139l31.6326599-21.783432L231.972702,42.0775604L200.3400574,63.8609962z M325.3217773,7.0493288l37.5898132,201.4123535l37.7685547-7.0493317L363.1101685,0L325.3217773,7.0493288z"/></svg>