<svg version="1.1" xmlns="http://www.w3.org/2000/svg" xmlns:xlink="http://www.w3.org/1999/xlink" x="0px" y="0px" width="512px" height="512px"><path d="M83.0357132,217.0498962c0.0645142,4.7219391-2.2841263,11.2422028-6.3646927,19.0531616c-1.0147705,1.1759338-3.0721664,0.1555786-3.1721191-1.9851379c4.0925446-14.6328735-3.080719-19.403595-7.8983231-20.4268799c-3.4678802-0.7365875-17.2591324-0.2059937-17.1511688,15.658493c0.2102318,12.7640228,12.9949417,23.5325775,19.0587082,36.8021698c5.2438507,11.4753418,5,26.3333435-8.3349152,36.2793274c-16.9494209,12.2008057-56.4984207,10.8873596-59.1650887-5.934906c-0.33568-3.9662476,9.833333-19.7610779,13.8754559-21.815979c1.4702253-1.2648621,3.5433407,1.20047,2.3944378,2.7832642c-6.7458086,7.0072937-5.7958784,17.0247192-0.4417267,23.1560974c4.9908047,5.715271,19.4303856,7.9448853,28.8270454-0.7056885c3.8474731-3.8270264,5.7507401-8.5340271,5.7507401-14.1005554c-0.5726204-9.8282166-2.4424973-16.5821533-18.0708351-39.3137665c-3.0478611-4.4331512-7.8778343-20.519165,5.3619003-30.7797546C50.4786682,205.8204346,82.2759857,206.6569061,83.0357132,217.0498962z M120.0369415,218.646225c-6.8967972,0.7981415-13.2410355,1.8623352-19.0531616,3.1721039c-4.0004425-0.4460144,1.6424408-6.1357574,9.6440048-8.9090271c3.915863-1.3572083,8.1621017-0.9058075,12.2128754-1.4054565c5.9799576-13.6437988,13.6523361-28.523941,21.8364487-41.7082214c3.7893372-5.4355774,24.7060089-12.8939056,23.432724-8.3293457c-9.4515839,14.5466919-17.9282684,31.3923492-25.8067017,49.6487427c8.4780426-0.4822845,18.5794373-0.5668793,29.7257843-0.3991089c2.954834,1.2131653,1.5832825,3.7022858-2.0363007,4.3693237c-9.4589691,0.006546-19.6024628,0.6085815-30.165802,1.5758209c-15.8186951,37.9906464-24.0774841,74.6515045-13.6502228,79.7970428c8.4981842,4.1936035,17.6916199-0.6043701,28.7535858-16.2728271c1.9688721-1.1640625,3.3999329,0.5195618,2.7832947,2.7832642c-21.5831146,36.3652649-57.7224579,33.5946045-57.548317,8.738678C102.2481689,270.0238647,108.4019318,245.946701,120.0369415,218.646225z M291.7404785,276.5014343c1.5272217-1.034668,3.3359985,0.4640503,2.7832642,2.7832947c-15.015625,23.1378174-39.640625,35.1065674-48.6459503,23.4327393C221.9121399,272.3175659,335.6747742,10.9850407,412.8334656,12.049283l0.0409546-0.0204544c17.5676575-0.0249195,19.3789673,19.2958336,10.7238159,34.9546738c-0.8434143,1.0145721-2.8634033-0.0878334-3.5813904-1.9851341c1.241272-14.7633266-29.008728-15.5133266-49.0552673,1.0027924c-44.6642761,29.3304367-103.9534607,142.317215-105.8259277,234.4705505C264.9251404,299.390625,280.0300903,294.1395569,291.7404785,276.5014343z M181.4327393,235.4891357c-1.9246216,1.1521606-3.3332672-1.0674591-2.7832947-2.7832947c11.7336731-18.9707947,38.0781097-36.1212006,48.6459351-23.4327393c9.9263763,11.9491272-6.287262,71.0452881-26.1955414,116.9385681c-25.3802795,64.4498901-60.9904175,116.4580994-105.0277405,158.21698c-24.4480515,20.5604248-55.4289284,23.0405579-50.9994583-6.7331238c0.654892-4.2362976,2.1897812-8.4726257,4.563755-12.7089539c1.0735474-0.9737854,2.9555092,0.2016296,3.5609627,1.9851379c-2.6728325,13.4395142,26.6391983,16.1695557,49.0347824-1.0027466c51.0259781-32.4839172,105.1602707-156.5569458,105.8054581-234.4500885C207.5952148,212.0830383,193.095932,218.6345673,181.4327393,235.4891357z M334.124054,224.5810699c-6.54422,4.1490479-12.0489197,8.164093-15.4717407,11.9107819c-1.9732056,1.1541595-3.3733521-2.0068054-2.3944397-3.1721344c9.6548767-9.8351288,23.7498169-18.7708588,43.2840271-26.6048431c3.355957,0.0330353,4.0448914,1.8414612,3.1721191,3.5814209c-22.0392456,27.0220795-39.0392456,84.6887512-21.038269,85.3606262c15.3660889,0.9114685,46.9990234-50.0052032,61.1502686-79.8350067c2.9779663-6.0442963,27.124054-10.6635437,22.2457275-3.9907227c-3.4802856,7.1538544-7.0485229,12.7740021-10.0636292,19.9038544c-10.625,25.125-18.7004395,66.4058228-5.4286194,67.0325928c4.5023499,0,9.5368347-3.9702454,15.0829163-11.9107971c1.8475342-1.0055542,3.7346802,0.4159546,3.1720886,2.3944397c-21.659729,31.7337646-47.3187866,23.7816162-46.4766541,1.5758362c0.5118713-13.4973755,2.3739319-26.8709106,7.142395-40.1119537c-10.0689392,18.2550201-20.6494751,32.7648773-31.7621155,43.4886932c-11.1126099,10.7238159-20.5266724,16.0856934-28.2011414,16.0856934l0.0205383,0.0614624c-17.2160645-0.0326538-18.1726685-12.940094-15.8827515-29.3659668C315.0985718,263.598999,323.2662659,241.5859375,334.124054,224.5810699z M512.0081177,217.0498962c0.0645142,4.7219391-2.2841187,11.2422028-6.3646851,19.0531616c-1.0147705,1.1759338-3.0721741,0.1555786-3.1721191-1.9851379c4.0925293-14.6328735-3.080719-19.403595-7.8983459-20.4268799c-3.467865-0.7365875-17.2591248-0.2059937-17.1511536,15.658493c0.2102356,12.7640228,12.9949341,23.5325775,19.0587158,36.8021698c5.2438354,11.4753418,5,26.3333435-8.3349304,36.2793274c-16.9494019,12.2008057-56.4984131,10.8873596-59.1650696-5.934906c-0.3356934-3.9662476,9.833313-19.7610779,13.8754578-21.815979c1.4702148-1.2648621,3.543335,1.20047,2.3944397,2.7832642c-6.7458191,7.0072937-5.7958984,17.0247192-0.4417419,23.1560974c4.9908142,5.715271,19.4303894,7.9448853,28.8270569-0.7056885c3.8474731-3.8270264,5.7507324-8.5340271,5.7507324-14.1005554c-0.5726318-9.8282166-2.4425049-16.5821533-18.0708313-39.3137665c-3.0478821-4.4331512-7.8778381-20.519165,5.361908-30.7797546C479.4510803,205.8204346,511.2483826,206.6569061,512.0081177,217.0498962z"/></svg>