<svg xmlns="http://www.w3.org/2000/svg" width="512" height="512"><path d="M83.036 217.05c.064 4.722-2.284 11.242-6.365 19.053-1.015 1.176-3.072.156-3.172-1.985 4.092-14.633-3.08-19.404-7.898-20.427-3.468-.737-17.26-.206-17.152 15.659.21 12.764 12.995 23.532 19.06 36.802 5.243 11.475 5 26.333-8.336 36.279-16.95 12.2-56.498 10.887-59.165-5.935-.336-3.966 9.833-19.761 13.876-21.816 1.47-1.265 3.543 1.2 2.394 2.783-6.746 7.008-5.796 17.025-.442 23.157 4.991 5.715 19.43 7.944 28.827-.706 3.848-3.827 5.751-8.534 5.751-14.1-.573-9.829-2.442-16.583-18.07-39.315-3.049-4.433-7.879-20.519 5.361-30.78 12.774-9.899 44.571-9.062 45.33 1.33zm37 1.596c-6.896.798-13.24 1.863-19.052 3.172-4-.446 1.642-6.135 9.644-8.909 3.916-1.357 8.162-.906 12.213-1.405 5.98-13.644 13.652-28.524 21.836-41.708 3.79-5.436 24.706-12.894 23.433-8.33-9.452 14.547-17.928 31.393-25.807 49.649 8.478-.482 18.58-.567 29.726-.4 2.955 1.214 1.583 3.703-2.036 4.37-9.46.007-19.603.609-30.166 1.576-15.819 37.99-24.078 74.652-13.65 79.797 8.498 4.194 17.691-.604 28.753-16.273 1.969-1.164 3.4.52 2.783 2.784-21.583 36.365-57.722 33.594-57.548 8.738 2.083-21.683 8.237-45.76 19.872-73.06zm171.704 57.855c1.528-1.034 3.336.464 2.784 2.784-15.016 23.138-39.64 35.106-48.646 23.432-23.966-30.4 89.797-291.732 166.955-290.668l.041-.02c17.568-.025 19.38 19.296 10.724 34.955-.843 1.014-2.863-.088-3.581-1.986 1.241-14.763-29.009-15.513-49.055 1.003-44.665 29.33-103.954 142.317-105.826 234.47-.21 18.92 14.894 13.669 26.604-3.97zM181.433 235.49c-1.925 1.152-3.334-1.067-2.784-2.783 11.734-18.971 38.079-36.121 48.646-23.433 9.927 11.95-6.287 71.045-26.195 116.939-25.38 64.45-60.99 116.458-105.028 158.217-24.448 20.56-55.429 23.04-51-6.733.656-4.237 2.19-8.473 4.564-12.71 1.074-.973 2.956.202 3.561 1.986-2.672 13.44 26.64 16.17 49.035-1.003 51.026-32.484 105.16-156.557 105.806-234.45-.443-19.436-14.942-12.884-26.605 3.97zm152.691-10.908c-6.544 4.15-12.049 8.164-15.472 11.91-1.973 1.155-3.373-2.006-2.394-3.171 9.655-9.835 23.75-18.771 43.284-26.605 3.356.033 4.045 1.841 3.172 3.581-22.04 27.022-39.04 84.689-21.038 85.36 15.366.912 46.999-50.004 61.15-79.834 2.978-6.044 27.124-10.664 22.246-3.99-3.48 7.153-7.049 12.773-10.064 19.903-10.625 25.125-18.7 66.406-5.429 67.033 4.503 0 9.537-3.97 15.083-11.911 1.848-1.006 3.735.416 3.173 2.394-21.66 31.734-47.32 23.782-46.477 1.576.512-13.497 2.374-26.87 7.142-40.112-10.069 18.255-20.65 32.765-31.762 43.489-11.112 10.724-20.527 16.086-28.201 16.086l.02.061c-17.216-.033-18.172-12.94-15.882-29.366 2.424-17.386 10.591-39.4 21.45-56.404zm177.884-7.531c.065 4.722-2.284 11.242-6.365 19.053-1.014 1.176-3.072.156-3.172-1.985 4.093-14.633-3.08-19.404-7.898-20.427-3.468-.737-17.26-.206-17.151 15.659.21 12.764 12.995 23.532 19.059 36.802 5.243 11.475 5 26.333-8.335 36.279-16.95 12.2-56.499 10.887-59.165-5.935-.336-3.966 9.833-19.761 13.875-21.816 1.47-1.265 3.543 1.2 2.394 2.783-6.745 7.008-5.795 17.025-.441 23.157 4.99 5.715 19.43 7.944 28.827-.706 3.847-3.827 5.75-8.534 5.75-14.1-.572-9.829-2.442-16.583-18.07-39.315-3.048-4.433-7.878-20.519 5.362-30.78 12.773-9.899 44.57-9.062 45.33 1.33z"/></svg>