<svg xmlns="http://www.w3.org/2000/svg" width="487" height="512"><path d="M262.068 161.08c-23.71-19.43-42.002-44.577-80.057-55.58-29.428-8.46-60.294-4.982-88.719 16.186-13.476 10.066-22.74 25.248-27.12 39.527-11.437 37.12 11.971 70.159 22.64 82.03l23.24 24.88c4.782 4.883 16.32 17.623 10.701 35.916-6.086 19.897-30.063 32.738-54.608 25.18-10.969-3.41-26.753-11.57-23.208-23.04 2.14-6.666 6.816-9.739 9.597-19.964 4.481-14.68-1.638-33.742-17.322-38.591-14.647-4.481-29.629-.936-35.447 17.924-6.588 21.436 3.645 60.294 58.555 77.248 64.34 19.764 118.748-15.282 126.473-60.929 4.882-28.592-8.06-49.893-31.736-77.214l-19.262-21.302c-11.704-11.705-15.683-31.568-3.611-46.85 10.2-12.909 24.746-18.393 48.522-11.94 34.745 9.398 50.228 33.542 76.045 52.971-12.177 41.57-21.857 83.253-27.823 125.102-18.493 96.878-32.571 150.049-69.222 180.614-7.39 5.25-17.925 13.109-33.843 13.677-11.827.014-16.333-11.572-3.143-19.162 4.882-2.675 12.306-7.122 11.805-21.268-.535-16.787-14.447-31.334-34.511-30.632-15.049.502-37.956 14.647-37.086 40.564.903 26.753 25.816 46.817 63.437 45.513 20.098-.669 65.009-8.862 109.251-61.43 51.499-60.295 65.879-129.417 76.747-180.013l12.072-66.78c6.721.802 13.911 1.337 21.736 1.537 64.106 1.372 96.176-31.869 96.678-56.013.3-14.613-9.598-29.026-23.476-28.692-9.932.3-22.405 6.889-25.381 20.633-2.91 13.477 20.399 25.649 2.14 37.454-12.942 8.393-36.183 14.312-68.888 9.497 15.868-83.051 28.26-172.305 89.855-173.725 4.147-.2 19.296.167 19.63 10.2.184 8.824-10.591 15.807-9.965 28.758.568 15.918 12.674 26.385 30.163 25.75 23.442-.77 30.164-23.576 29.796-35.314-.97-27.555-30.03-44.977-68.42-43.74h.067c-60.479 2.722-114.11 47.087-156.302 161.017z"/></svg>