<svg xmlns="http://www.w3.org/2000/svg" width="512" height="512"><path d="M151.258 129.554h79.339v254.131h-29.752v43.388h117.768v-48.346h-37.19V125.835h84.297v37.19h38.43v-75.62H107.87v75.62h43.388v-33.47zM497.415.63h-481.3C7.73.63 0 6.847 0 15.137v481.241c0 8.29 7.71 14.992 16.116 14.992h481.299c8.387 0 14.585-6.72 14.585-14.992V15.138C512 6.847 505.821.63 497.415.63zm-68.472 187.189h-88.016v-37.19h-34.711v203.304h37.19v97.934H176.05v-92.975h29.752V154.348H176.05v33.47H83.077V62.614h345.866V187.82z"/></svg>