<svg xmlns="http://www.w3.org/2000/svg" width="512" height="512"><path d="M490.4 512H21.6C9.67 512 0 502.33 0 490.4V21.6C0 9.67 9.67 0 21.6 0h468.8C502.33 0 512 9.67 512 21.6v468.8c0 11.93-9.67 21.6-21.6 21.6zM234.65 405.995V63.345c0-5.523-4.477-10-10-10H63.325c-5.523 0-10 4.477-10 10v342.65c0 5.523 4.477 10 10 10H224.65c5.523 0 10-4.477 10-10zm223.984-128.2V63.545c0-5.633-4.567-10.2-10.2-10.2H287.509c-5.633 0-10.2 4.567-10.2 10.2v214.25c0 5.633 4.567 10.2 10.2 10.2h160.925c5.633 0 10.2-4.567 10.2-10.2z"/></svg>