<svg version="1.1" xmlns="http://www.w3.org/2000/svg" xmlns:xlink="http://www.w3.org/1999/xlink" x="0px" y="0px" width="512px" height="512px"><path d="M490.3999939,512H21.6000004C9.6706495,512,0,502.3293457,0,490.3999939V21.6000004C0,9.6706495,9.6706495,0,21.6000004,0h468.7999878C502.3293457,0,512,9.6706495,512,21.6000004v468.7999878C512,502.3293457,502.3293457,512,490.3999939,512z M234.6497955,405.9949951V63.3450012c0-5.52285-4.4771576-10-10-10H63.3250008c-5.52285,0-10,4.47715-10,10v342.6499939c0,5.5228577,4.47715,10,10,10h161.3247986C230.1726379,415.9949951,234.6497955,411.5178528,234.6497955,405.9949951z M458.6337891,277.7950134V63.5449982c0-5.6333008-4.5666809-10.1999969-10.1999817-10.1999969H287.5090027c-5.6333008,0-10.2000122,4.5666962-10.2000122,10.1999969v214.2500153c0,5.6333008,4.5667114,10.1999817,10.2000122,10.1999817h160.9248047C454.0671082,287.9949951,458.6337891,283.4283142,458.6337891,277.7950134z"/></svg>