<svg xmlns="http://www.w3.org/2000/svg" width="512" height="512"><path d="M385.703 352.856c-7.595 2.247-13.663 3.016-21.6 3.016-65.011 0-160.524-227.194-160.524-302.828 0-27.865 6.618-37.145 15.923-45.107-79.59 9.28-175.103 38.464-205.606 75.61-6.618 9.28-10.6 23.884-10.6 42.444C3.297 244.07 129.314 512 218.209 512c41.126 0 110.446-67.636 167.495-159.144zM344.2 0c82.252 0 164.504 13.261 164.504 59.687 0 94.194-59.686 208.267-90.214 208.267-54.387 0-122.035-151.218-122.035-226.828C296.454 6.643 309.715 0 344.2 0z"/></svg>