<svg version="1.1" xmlns="http://www.w3.org/2000/svg" xmlns:xlink="http://www.w3.org/1999/xlink" x="0px" y="0px" width="512px" height="512px"><path d="M291.6229858,322.9906311c0.8175354,0.8175354,2.4429321,2.0438843,3.6692505,2.0438843h21.5872803c1.2263184,0,2.8419495-1.2263489,3.6595154-2.0438843l5.7033997-6.1121521c0.8175354-0.8175659,1.2263184-1.6351013,1.2263184-2.433197l6.1121521-20.7697144c0.408783-2.0438843,0-4.0682983-1.2263184-5.2946167l-4.4770813-3.6595154c-0.8175354-0.8175659-2.4331665-0.408783-3.6595154-0.408783h-19.543396c-1.1018372-0.8742676-2.2755737-1.9577026-3.6789551-0.8175354l-7.7473145,4.8858337c-0.8175354,0-1.2263184,2.0438538-1.6351013,2.8419495l-6.5209351,19.952179c-0.8175354,2.0438843-0.4087524,4.4770508,1.2263489,6.1121521L291.6229858,322.9906311z M312.8112488,337.6481628h-49.2867432c-2.0438538,0.4087524-3.6595154,2.0438538-4.0682678,4.0682678l-2.84198,10.1805115c-0.8175507,2.8419495,1.2263184,5.3129883,4.0682983,6.1305542h8.38797l-29.5664673,84.6956482c-0.8175507,2.84198,0.4087677,6.5209351,3.2507477,7.7473145l1.6350861,1.2263184h45.6272278c2.433197,0,4.4770508-2.0438843,5.2946167-4.4770813l2.8419495-9.771698c1.2263489-2.8614197-0.4087524-6.1121826-3.2507324-6.9297485l0,0l-0.0195007,0.0000305l-1.6350708,0.408783h-4.8858643l29.3345947-85.9403687C318.5833435,340.3328247,316.1915894,338.26828,312.8112488,337.6481628z M436.6235352,339.3936157c-1.1443787-1.4774475-2.4446716-2.1542053-4.0603027-2.1542053h-16.2926636l82.2808228-82.280838l-92.0525208-91.2349701l82.2808533-84.7140427V42.3559532l-11.4068298-14.6575489H310.7868042l-13.4506836,14.2487736v11.8155823L251.3001251,7.3374457l-31.3589935,30.5414333l-9.771698-10.1804752H45.6077499L32.5658379,42.7647362v38.2887154l12.2243614,11.8155823h12.2243652v106.3013153L0,256.184906l57.0145645,57.0340576v130.3412476l21.1785126,11.8156128h47.2428665l37.0623932-38.6975098l87.9842377,87.9842529l59.0584412-59.0584717c0.408783,1.6351013,1.6351013,2.0438843,3.6595154,2.84198l1.6351013-0.8175659h38.2886963c2.4526672,0,4.4770813-0.408783,4.8858337-2.433197l2.84198-8.1365662c0.8175659-2.84198-0.408783-5.2946167-3.2507324-6.1121521c-1.3695374,0.4512939-2.434906,0.5596924-3.2702026,0.408783l13.8594666-43.583374l9.3629456-9.3629456h20.3609314l-20.3609314,64.7618408c-0.8175659,2.84198,0.8175354,4.4770813,3.6595154,5.7033997l1.6351013-0.8175659h37.0623779c2.0438538,0,4.0682678-0.4087524,4.8858337-2.4331665l3.2507324-7.3385315c1.2263184-2.84198-0.408783-5.2946167-2.84198-6.5209351c-0.7013855-0.4707031-0.7052002,0.0791626-3.6789551,0l17.110199-52.9462585h24.8380127l-20.7697144,64.7618408c-0.8175659,2.84198,0.8175354,4.4770508,3.6595154,5.2946167l1.6351013-1.2263184h40.7413635c2.0438843,0,4.0682983-0.408783,4.8858643-2.433197l3.2507324-8.1365967c1.2263184-2.8419495-0.408783-5.2946167-3.2507324-6.1121521c-0.408783-0.408783-1.2263489,0.408783-2.0438843,0.408783h-2.84198l22.8136292-75.3511047c0.8175354-2.0438843,0.408783-4.4770813-0.4087524-5.7033997l0,0l-7.708374-10.2194824c-1.0690613-1.5454407-2.4331665-2.8419495-4.0682678-2.8419495h-29.3345642c-1.6351013,0-2.84198,1.6350708-4.0682983,2.4331665l-8.1560669,9.7717285h-12.6331482L436.6235352,339.3936157z M251.309845,15.0749912l46.0262756,46.0262756v19.1540909l13.8399963,16.7014313h6.5209351L199.5801697,211.0053864V96.9567871h13.4506836l10.9980316-17.1102142V43.6017418l-0.8175507-1.2263336L251.309845,15.0749912z M7.727807,256.184906l49.2867508-49.2867279v98.5734711L7.727807,256.184906z M166.1870575,412.2206421l237.8591461-244.4093018l87.1667175,87.57547l-82.2808838,82.2808533c-1.0578308-0.1230774-2.1533508,0.9315186-3.2507324,2.0438538l-8.5453491,9.771698h-11.8155823l-8.9541321-9.771698c-0.8175659-1.2263184-2.4526672-2.433197-4.0682983-2.433197h-35.8360596c-2.433197,0-4.4770508,1.6351013-5.2946167,4.0682983l-3.2507324,10.180481c-0.8175354,2.84198,0.408783,5.2946167,3.2507324,6.5209351h6.1121826l-26.0643921,76.9862061l-61.5110931,61.9198914L166.1870575,412.2206421z"/></svg>