<svg version="1.1" xmlns="http://www.w3.org/2000/svg" xmlns:xlink="http://www.w3.org/1999/xlink" x="0px" y="0px" width="512px" height="512px"><path d="M396.3414612,276.7928772C383.25,166.41008,454.5,124.16008,490.0074158,192.483017l19.920929-38.5489197l-5.4317627-34.3337708c-0.0505676-0.1515732-20.0090332,39.2601929-20.0090332,39.2601929C432.0661621,65.4230728,354.6666565,177.91008,396.3414612,276.7928772z M315.3956299,222.6520081c-0.1262817-0.1263275,49.1637573-85.3417358,49.1637573-85.3417358v-16.3963394H232.8329315c0,0-48.4815979,164.6706848-48.5826416,164.6706848s-48.5574188-164.6706848-48.5574188-164.6706848s-35.1674728,0.0252762-35.0158768,0.5052948c0.1010437,0.3031693,15.8657913,53.3070145,15.8657913,53.3070145S83.8006439,285.5593567,83.6995926,285.5593567S35.1422043,120.8886795,35.1422043,120.8886795H0c0.0757865,0.4042206,80.2384262,271.1079102,80.2384262,271.1079102h3.5622177c0,0,50.0984802-167.525528,50.1742859-167.525528c0.0757904,0,50.1742859,167.525528,50.1742859,167.525528h3.5116882l71.154892-237.658371h57.5398865l-46.9152527,81.0974121v16.143692c40.4345703-3.7942352,54.54953,14.1030884,59.466217,33.7593384c2.7196045,10.8724976,2.2820435,23.0167236,1.0158081,34.2765808c-11.5891113,58.4615173-57.4224548,43.6281738-72.0023804,6.2401733l-27.032486,11.166687C254.6655273,401.5370483,307.5,400.4100952,335.3794556,380.0466919C378.75,345.9100952,379.5,262.4100952,333.383606,231.2922974C327.2659302,227.5896301,321.2630615,224.6631012,315.3956299,222.6520081z M372.3912048,311.2781677l-0.0505066-0.050415C413,387.9100952,471.6666565,377.5767517,506.8208923,315.775238L512,342.1761169C467,424.2434082,397,396.9100952,372.3912048,311.2781677z"/></svg>