<svg version="1.1" xmlns="http://www.w3.org/2000/svg" xmlns:xlink="http://www.w3.org/1999/xlink" x="0px" y="0px" width="512px" height="512px"><path d="M112.324173,499.3824158l143.3520203-141.5764465l143.352005,141.5764465c45.4904785,29.6211853,104.2521362,2.0678406,111.4855042-47.5156555c0.686554-4.2851868,0.7812805-28.5283508,0.7812805-196.052536c0-211.7963867,0.2604065-195.531662-3.3855286-206.4931793c-10.2522278-33.1466522-48.2083435-58.7318802-90.9118958-45.7400703c-25.1428528,8.4519653-42.9937744,28.9545021-48.462677,55.7072258c-0.781311,3.9063683-0.8759766,13.1396065-1.0417175,105.1642609l-0.2131042,100.9501038l-33.2396545-33.1686401c-36.1043396-35.9859619-36.4121094-36.2463989-47.6340637-41.5732574c-19.2004395-9.1858978-42.2598572-9.1858978-61.4602509,0c-11.2219543,5.326889-11.5297394,5.5872955-47.634079,41.573288l-33.2396698,33.1686707l-0.2130737-100.950119c-0.2130737-111.6275482,0.0473328-103.2465973-3.551239-114.5632477C117.3802414-16.284338,26.5142994-16.7836018,3.442934,49.3210297c-3.6459427,10.9615097-2.6042511,402.4273071-2.6042511,402.4273071C6.7101851,495.4950867,61.8013191,532.2224731,112.324173,499.3824158z M57.3708916,96.8980713c-19.2071457-11.0650864-19.2071533-38.8780136-0.0000076-49.9431076s43.3464394,2.8413658,43.3464394,24.9715576S76.5780334,107.9631653,57.3708916,96.8980713z M57.432785,464.28125c-19.0693283-10.9691772-19.0693359-38.5409851-0.0000076-49.5101624s43.0354156,2.8167419,43.0354156,24.7550964C100.4681931,461.4645081,76.5021133,475.2504272,57.432785,464.28125z M425.0993958,96.7294388c-19.1872253-11.030632-19.1872253-38.7569389,0-49.787571c19.1871948-11.030632,43.3014526,2.8325195,43.3014526,24.8937874S444.2866211,107.7600632,425.0993958,96.7294388z M241.3824463,280.4174805c-19.0361176-10.9465942-19.0361328-38.4616394,0-49.4082184c19.0361023-10.9465942,42.9604492,2.8109283,42.9604492,24.7041016S260.4185791,291.3640442,241.3824463,280.4174805z M425.2004089,464.2814636c-19.0796204-10.9714966-19.0796204-38.5490723,0-49.5205688c19.0796204-10.9714661,43.0586548,2.8173523,43.0586548,24.7602844S444.2800293,475.2529297,425.2004089,464.2814636z"/></svg>