<svg version="1.1" xmlns="http://www.w3.org/2000/svg" xmlns:xlink="http://www.w3.org/1999/xlink" x="0px" y="0px" width="512px" height="512px"><path d="M144.3234558,486.2974854C21.4001446,425.5264587-33.3365135,283.4063416,22.4276352,152.2654114L144.3234558,486.2974854z M126.9130249,112.9675217c13.7474823-0.7687759,15.375473,19.4228439,1.6053925,21.0734482c0,0-13.8153229,1.6053772-29.2360153,2.4419708l93.0894394,276.8263245l55.9395752-167.728302l-39.8405609-109.0979919c-13.7700958-0.8366089-26.7940063-2.4419861-26.7940063-2.4419861c-13.7926941-0.8365936-12.1420898-21.8422012,1.6506042-21.0734406c45.598114,4.0468597,90.7539978,4.1298904,135.4398193,0c13.7248535-0.7687836,15.3528748,19.4228363,1.5827332,21.0734406c0,0-13.8153076,1.6053772-29.2133789,2.4419861l92.3658447,274.7234497l25.5052185-85.1529846c12.9560852-33.2381287,19.4680481-60.7331238,19.4680481-82.6431427l-0.0679016,0.0000153c-0.2297668-31.6859894-9.7740173-54.1779175-34.9344788-93.0622711c-20.4544678-31.6114883-13.7605591-76.3073425,34.9797974-82.5346375C284.7923279-56.1667595,113.2657547,7.8563347,42.3479462,115.9295731C56.8903847,117.0887146,91.7128525,115.0578308,126.9130249,112.9675217z M340.7450867,497.3995056l-80.3820496-218.7160645l-76.7190704,222.8539124C236.3154144,516.3115234,288.70047,515.8859863,340.7450867,497.3995056z M480.1304626,133.6791687c1.1305542,8.1625671,1.7749634,16.8903961,1.7749634,26.3191986c0,25.9121857-4.8613586,55.0577393-19.4680481,91.5518799l-78.0757141,225.6802521c75.9729309-44.2723083,127.0511169-126.5762634,127.0511169-220.8867188C511.4127808,211.8679657,500.0733643,170.1054688,480.1304626,133.6791687z"/></svg>