<svg xmlns="http://www.w3.org/2000/svg" width="512" height="512"><path d="M111.407 209.034c-12.584 31.582-27.072 67.21-40.112 93.793 5.958-1.481 11.672-1.033 15.433-.008 3.32-8.4 7.114-17.923 10.89-27.495 12.813-.375 25.633-.416 38.444.008 3.647 9.165 7.293 18.33 10.859 27.512 5.697-1.498 11.379-1.091 15.579-.033-9.393-17.549-28.22-63.457-40.218-93.769-3.89 1.368-7.049 1.278-10.875-.008zm22.091 59.778c-11.086.39-22.196.382-33.266-.008 6.788-17.208 13.218-33.812 16.62-43.58 5.178 14.44 10.867 29.002 16.646 43.588zm-39.61-72.223c-5.633 1.27-10.717 1.318-15.747 0-4.445 8.27-31.257 52.191-31.257 52.191s-23.1-37.735-31.256-52.191c-6.463 1.383-9.181 1.465-15.628 0 12.812 19.307 40.324 68.145 40.324 68.145l-.928 50.32c4.982-.928 9.986-.92 15.01 0l-.945-50.32s34.534-60.152 40.427-68.145zm210.575 11.232c-33.16 0-50.555 21.017-50.555 48.269 0 29.823 18.982 48.007 50.498 48.007 34.073 0 50.71-20.495 50.71-47.698 0-30.328-19.868-48.578-50.653-48.578zm.09 90.977c-22.107 0-35.082-15.831-35.082-42.546 0-30.214 16.431-42.562 34.602-42.75 20.266-.208 35.594 13.806 35.594 42.669 0 28.814-14.863 42.627-35.114 42.627zm182.963 1.636c-4.916 0-7.375 3.745-7.375 7.782 0 4.753 3.794 7.195 8.498 7.195 3.403 0 7.098-2.067 7.098-7.667 0-4.493-3.516-7.31-8.221-7.31zm17.126-102.543c-3.732-.307-8.286 2.133-8.286 7.749-2.23 28.228-4.534 56.53-8.344 83.456 2.312-.39 4.087.211 5.828.911 4.33-27.349 14.595-68.332 17.216-79.923.374-1.628.944-3.565.944-4.932 0-4.135-3.395-6.934-7.358-7.26zm-85.727 4.298c-33.014 0-58.247 18.754-58.247 53.607 0 28.717 16.784 53.999 58.524 53.999 35.342 0 58.41-19.421 58.41-53.494 0-32.119-21.521-54.112-58.687-54.112zm.09 101.933c-22.352 0-42.725-13.13-42.725-48.537 0-36.71 22.579-47.568 42.684-47.568 24.793 0 43.059 15.058 43.059 48.284 0 36.108-22.1 47.82-43.018 47.82zm-185.21-1.262c5.34-1.27 10.54-1.221 15.62 0-1.237-31.207-1.367-62.447 0-93.769-5.307 1.27-10.516 1.237-15.628 0 .765 14.57 1.14 29.156 1.188 43.759-17.467.407-34.919.44-52.354 0 .049-14.603.423-29.189 1.188-43.759-5.111 1.237-10.32 1.27-15.628 0 1.368 31.305 1.238 62.562 0 93.769 5.08-1.221 10.28-1.27 15.62 0-.765-14.554-1.131-29.091-1.18-43.612 17.452-.244 34.903-.26 52.354-.017-.049 14.538-.415 29.075-1.18 43.629z"/></svg>