<svg xmlns="http://www.w3.org/2000/svg" width="512" height="512"><path d="M228.175 102.978H0v31.506h67.655c26.274 20.543 126.703 145.955 130.894 158.48 1.676 11.71 3.216 80.86-1.722 86.07-9.875 10.442-54.926 7.678-65.775 8.448l-3.76 21.427c19.841.589 84.416-1.608 104.484-1.608 39.57 0 108.832-.181 118.617.566l1.2-22.468c-9.988-1.7-64.529-.204-72.071-1.926-1.676-10.894-3.51-83.668-1.835-91.21 7.543-21.722 122.14-110.271 134.71-113.646 2.831-.566 7.078-1.506 11.835-2.548h36.92l21.29-31.506H282.33l7.701 31.483h54.61L252.75 258.99c-18.754-25.889-62.718-79.864-93.363-124.53h68.788v-31.482zm217.46 247.653 30.646 2.446L512 215.14c-5.957-.204-60.158-5.323-67.18-6.682l.839 142.196-.023-.023zm-5.3 22.129.182 33.658 15.515 1.359 16.761 1.245 4.915-32.978-17.667-.86-19.705-2.424z"/></svg>