<svg version="1.1" xmlns="http://www.w3.org/2000/svg" xmlns:xlink="http://www.w3.org/1999/xlink" x="0px" y="0px" width="457px" height="512px"><style type="text/css">.st0{fill:#181816;}.st1{fill-rule:evenodd;clip-rule:evenodd;fill:#181816;}</style><path class="st0" d="M337.4841003,373.1217346c-76.9975586-19.1654968-109.7914124,19.8925781-109.7914124,19.8925781c-0.372879,39.0580444,53.0593262,109.0643005,118.6283875,117.5284424s107.5728455-22.8382568,107.5728455-22.8382568S414.4816284,392.2872314,337.4841003,373.1217346z"/><path class="st0" d="M117.9012756,373.1217346C40.9037323,392.2685852,1.4914364,487.7044983,1.4914364,487.7044983s42.0037384,31.3210754,107.5728302,22.8382568c65.5690918-8.4641418,119.001297-78.4703674,118.628418-117.5284424C227.692688,393.0143127,194.898819,353.9562378,117.9012756,373.1217346z"/><path class="st1" d="M34.2294083,86.3291702L62.9962921,252.647583H0l13.2648115,39.7851868h428.8464661l13.2555237-39.7851868h-62.9776306l28.7669067-166.3184204C352.1962585-35.2511063,60.8611069-22.114418,34.2294083,86.3291702z M243.1667633,233.1185608l-1.2864075-3.5142975c-0.2983093,0.1677856-0.6152496,0.3355713-0.9321594,0.484726L243.1667633,233.1185608z M252.6003723,225.5959167l-2.4609375-2.8151703c-0.2237091,0.2796631-0.4847107,0.5220184-0.7084503,0.78302L252.6003723,225.5959167z M258.6781311,215.1369324l-3.318512-1.7338562c-0.1118774,0.3355865-0.2423706,0.6711731-0.3542175,0.9881134L258.6781311,215.1369324z M260.5611267,203.2051239l-3.747345-0.4288025c0.0186462,0.3542328,0.0559387,0.7084503,0.0559387,1.0626831L260.5611267,203.2051239z M258.0256348,191.3851471l-3.6354828,0.9508057c0.1491394,0.3169403,0.2796478,0.6525269,0.410141,0.9694672L258.0256348,191.3851471z M208.6204224,230.8906708l2.5727844-2.7033081c-0.2982941-0.2050781-0.5592957-0.4288025-0.8389587-0.6338959L208.6204224,230.8906708z M231.6264648,236.7633514l0.0745697-3.747345c-0.3542175,0.0559387-0.6898193,0.1305084-1.0440369,0.1491547L231.6264648,236.7633514z M219.5641327,235.9803314l1.4355469-3.4676819c-0.3355865-0.0745697-0.6898041-0.1677856-1.0254059-0.2610016L219.5641327,235.9803314z M211.2025299,228.1873627c2.6473846,1.8270569,5.602356,3.1880341,8.79039,4.0642853l1.6406403-15.0266418L211.2025299,228.1873627z M239.493988,177.4398193c0.3169403,0.1491547,0.6338806,0.2982941,0.9508362,0.4660797l1.0813293-3.5981903L239.493988,177.4398193z M202.2070465,189.8936615c0.1677856-0.3169403,0.3542328-0.5965729,0.5406647-0.8948822l-3.4863281-1.4169159L202.2070465,189.8936615z M195.2157593,198.9543915l3.5608978,1.0999756c0.0559387-0.3542328,0.0932312-0.6898041,0.1678009-1.0440369L195.2157593,198.9543915z M195.5513306,211.0353851l3.7100677-0.2610168c-0.0745697-0.3355713-0.1677856-0.6711731-0.2423553-1.0253906L195.5513306,211.0353851z M251.3885345,181.2990417l-3.0388947,2.1999207c0.2423859,0.2423553,0.4660797,0.5220184,0.7084656,0.78302L251.3885345,181.2990417z M200.212204,222.1841736l3.3744659-1.5847015c-0.2050781-0.2982941-0.372879-0.5965881-0.5592957-0.8948975L200.212204,222.1841736z M230.6756439,233.1651764l-3.9151459-14.6165009l-5.7608185,13.963974C224.1832733,233.2238464,227.4021454,233.5175476,230.6756439,233.1651764z M229.8366852,171.3061371l-0.764389,3.6914062c0.3542023,0.0186462,0.7084503,0.0186462,1.0626526,0.0559235L229.8366852,171.3061371z M217.8302765,172.7416687l0.6152344,3.6914062c0.3355865-0.1118469,0.6711731-0.2237244,1.0067444-0.3169403L217.8302765,172.7416687z M207.1662292,178.4279327l1.9016266,3.2066803c0.2796631-0.2237244,0.5593109-0.4288025,0.8389587-0.6338806L207.1662292,178.4279327z M241.8803558,229.6229095c2.8524475-1.5846863,5.3879547-3.6541138,7.5506287-6.0591125l-12.6962128-8.1472015L241.8803558,229.6229095z M199.2800293,210.7743683c0.7457428,3.2066803,2.032135,6.2269135,3.747345,8.9302216l11.3352203-9.9929047L199.2800293,210.7743683z M199.0376587,209.7489777l14.2063293-5.2388153l-14.4486847-4.4557953C198.3420105,202.83638,198.3710022,206.2541809,199.0376587,209.7489777z M210.3356171,227.5534973l6.9353638-13.4046631l-13.6843109,6.4506378C205.432373,223.2841339,207.7255249,225.614563,210.3356171,227.5534973z M261.2882385,204.1186371c0,18.51297-15.0825806,33.5955505-33.5955505,33.5955505s-33.5955353-15.0639191-33.5955353-33.5955505C196.3851624,159.6374664,258.9091492,159.5543213,261.2882385,204.1186371z M202.2070618,189.8936615c-1.56604,2.796524-2.6660156,5.8726959-3.2626038,9.1352997l15.1198425,0.2423553L202.2070618,189.8936615z M231.7103424,233.016037c3.2812653-0.4474487,6.4040375-1.4541931,9.237854-2.9083862l-8.9115906-12.1928406L231.7103424,233.016037z M256.832428,202.766983c-0.1491089-3.3185425-0.8575897-6.4972534-2.032135-9.4615631l-12.9571991,7.73703L256.832428,202.766983z M256.8790283,203.8392639l-14.905426,2.5538788l13.3859863,7.0099487C256.3476868,210.4947205,256.8790283,207.0832214,256.8790283,203.8392639z M250.1394196,222.7900696c2.0694275-2.4795837,3.6914215-5.3227081,4.8659515-8.380249l-14.8029327-3.0016022L250.1394196,222.7900696z M254.3994598,192.3266602c-1.3236694-2.9829559-3.1414337-5.6955872-5.3413544-8.0633087l-9.2658081,11.8759003L254.3994598,192.3266602z M248.3496399,183.5082855c-2.2744904-2.2931519-4.9591675-4.1854553-7.8861847-5.6023712l-4.3625641,14.4486847L248.3496399,183.5082855z M209.0771942,181.6532593c-2.49823,2.0694275-4.6329193,4.5676575-6.3108368,7.3455353l14.0012665,5.686264L209.0771942,181.6532593z M219.4522552,176.1161499l6.5252228,13.6470337l3.0948181-14.7656403C225.7324524,174.7298737,222.5546265,175.2415771,219.4522552,176.1161499z M218.4455109,176.4330902c-3.1134491,1.0440369-5.9845581,2.5914459-8.5387115,4.5676575l10.999649,10.3471222L218.4455109,176.4330902z M239.493988,177.4211884c-2.9083862-1.2864075-6.0591431-2.1253662-9.3776703-2.3863678l1.155899,15.0452881L239.493988,177.4211884z M223.2457428,213.1225281c-5.9028168-3.4030304-5.9028168-11.9568176,0-15.359848c5.9028015-3.4030457,13.3213806,0.8738403,13.3213806,7.6799164S229.1485443,216.5255737,223.2457428,213.1225281z M207.4186401,239.1300964c-26.9099121-15.513855-26.9099121-54.509079-0.0000153-70.0229492s60.7299347,3.9837494,60.7299347,35.0114746S234.328537,254.6439514,207.4186401,239.1300964z M204.3634644,244.390213c-30.9651184-17.8446503-30.9651337-62.6985168-0.0000153-80.5431824s69.8816986,4.5822754,69.8816986,40.2715912S235.3285828,262.2348633,204.3634644,244.390213z"/></svg>