<svg version="1.1" xmlns="http://www.w3.org/2000/svg" xmlns:xlink="http://www.w3.org/1999/xlink" x="0px" y="0px" width="479px" height="512px"><path d="M415.0940857,0C356.9699097,2.1696646,286.3089905,75.1796875,310.48526,143.2712708c25.59552,67.5532227,41.9903259,115.6121216,45.4161377,190.995697c61.4357605-61.8109436,117.8633423-128.9074402,122.4147339-206.7706451C479.816925,64.3150406,449.9229126,17.7325172,415.0940857,0z M261.8227539,280.51474c-8.7276001,15.5954895-20.1795044,32.528656-35.1061554,51.0931702C195.3461914,371.1349487,163.7147827,435.9801941,173.4537811,512c129.5762787-14.3067322,170.0331573-111.5501099,173.5894623-164.9923706C322.6222839,310.1559448,278.3154602,287.4805298,261.8227539,280.51474z M0.5087091,47.2350731c-4.6003418,59.4781685,20.84021,147.912384,123.9726791,176.0527496c43.4259109,12.8548584,73.8501663,20.7831116,106.7866287,32.7407379c48.1567535,17.5041199,85.9546051,39.8369751,115.9057465,78.3852234c-5.5628052-66.3297424-32.8712158-142.3495483-76.5092163-201.6319427C208.4294281,48.1975594,100.6558609,7.5938401,0.5087091,47.2350731z"/></svg>