<svg xmlns="http://www.w3.org/2000/svg" width="479" height="512"><path d="M415.094 0C356.97 2.17 286.31 75.18 310.485 143.271c25.596 67.553 41.99 115.612 45.416 190.996 61.436-61.811 117.864-128.907 122.415-206.77C479.816 64.314 449.923 17.732 415.094 0zM261.823 280.515c-8.728 15.595-20.18 32.528-35.106 51.093-31.37 39.527-63.002 104.372-53.263 180.392 129.576-14.307 170.033-111.55 173.59-164.992-24.422-36.852-68.729-59.527-85.221-66.493zM.509 47.235c-4.6 59.478 20.84 147.912 123.972 176.053 43.426 12.855 73.85 20.783 106.787 32.74 48.157 17.505 85.955 39.838 115.906 78.386-5.563-66.33-32.871-142.35-76.51-201.632C208.43 48.198 100.657 7.594.51 47.235z"/></svg>