<svg version="1.1" xmlns="http://www.w3.org/2000/svg" xmlns:xlink="http://www.w3.org/1999/xlink" x="0px" y="0px" width="512px" height="512px"><path d="M240.8083344,204.3802948c0,0,0-67.7922211,67.7922211-67.7922211H512c0,0,0,67.7922211-67.7922058,67.7922211H240.8083344z M240.8083344,291.0137939c0,0,0-67.7922058,67.7922211-67.7922058H410.311676c0,0,0,67.7922058-67.7922058,67.7922058H240.8083344z M240.8083344,377.6473389c0,0,0-67.7922058,67.7922211-67.7922058h33.8960876c0,0,0,67.7922058-67.7922058,67.7922058H240.8083344z M218.0436707,324.7502441v54.0832214H0l140.4658356-191.5837097H19.8905869v-54.0832367h227.464325L107.5505753,324.7730408L218.0436707,324.7502441z"/></svg>