<svg xmlns="http://www.w3.org/2000/svg" width="20" height="20" viewBox="0 0 20 20"><path d="M10 3c-3.87 0-7 3.13-7 7s3.13 7 7 7 7-3.13 7-7-3.13-7-7-7zm-2.86 8.48a.486.486 0 0 1-.27-.59 3.129 3.129 0 0 0 0-1.78.49.49 0 0 1 .26-.59c.27-.13.6.01.69.3.12.37.17.75.18 1.15.01.41-.05.81-.17 1.21-.09.29-.42.43-.69.3zm2.22 1.05a.5.5 0 0 1-.22-.62c.24-.55.36-1.16.36-1.83 0-.69-.13-1.35-.38-1.99a.5.5 0 0 1 .25-.62c.27-.13.58 0 .69.28.29.74.44 1.52.44 2.33 0 .8-.15 1.54-.43 2.21-.12.28-.45.39-.71.24zm2.25.97c-.24-.12-.34-.41-.24-.66.42-.97.63-1.93.63-2.85 0-.92-.21-1.87-.62-2.82a.506.506 0 0 1 .23-.66c.25-.13.57-.02.68.24.47 1.08.71 2.17.71 3.24 0 1.06-.24 2.16-.71 3.27-.11.25-.43.36-.68.24z"/></svg>