<svg xmlns="http://www.w3.org/2000/svg" width="20" height="20" viewBox="0 0 20 20"><path d="M15.41 11.88 14 13.29l-1.41-1.41-.71.71L13.29 14l-1.41 1.41.71.71L14 14.71l1.41 1.41.71-.71L14.71 14l1.41-1.41zm-13.91.06 8-1.09c-.14.2-.27.41-.38.63l.29-.61-7.91 1.07v4.3l7.06-3.09.05-.25c.02-.08.03-.16.05-.23-.1.42-.16.87-.16 1.33v-.76l-.7.24-6.3 2.76v-4.3zm18 2.06zm-8.6-4.65L1.5 8.06v-4.3 4.3l9.54 1.3c-.29.18-.55.39-.8.62l.66-.63zm1.64-.76-5.1-2.23 5.25 2.3.03-.01c-.32.08-.64.18-.93.32l.75-.38z"/><path d="M1 3v5.5l8.82 1.2c-.22.21-.41.44-.59.68L1 11.5V17l7-3.06V14c0 3.31 2.69 6 6 6s6-2.69 6-6-2.69-6-6-6c-.43 0-.85.05-1.26.14L1 3zm9.94 5.85L2 7.63v-3.1l9.35 4.09c-.14.07-.28.15-.41.23zM14 19c-2.76 0-5-2.24-5-5s2.24-5 5-5 5 2.24 5 5-2.24 5-5 5zM2 15.47v-3.1l6.56-.89c-.19.42-.35.85-.44 1.31L2 15.47z"/></svg>