<svg xmlns="http://www.w3.org/2000/svg" width="20" height="20" viewBox="0 0 20 20"><path d="M17.5 3.75v.75h-1.75v-.75c0-.41-.34-.75-.75-.75s-.75.34-.75.75v.75H12.5v-.75c0-.41-.34-.75-.75-.75s-.75.34-.75.75v1.84c0 .27.11.52.29.71L13 8v1H7V8l1.71-1.71c.18-.18.29-.44.29-.7V3.75C9 3.34 8.66 3 8.25 3s-.75.34-.75.75v.75H5.75v-.75C5.75 3.34 5.41 3 5 3s-.75.34-.75.75v.75H2.5v-.75c0-.41-.34-.75-.75-.75S1 3.34 1 3.75v1.84c0 .27.11.52.29.71L3 8v4l-1.71 1.71c-.18.18-.29.44-.29.7V16c0 .55.45 1 1 1h6v-1.89c0-1 .68-1.92 1.66-2.08A2 2 0 0 1 12 15v2h6c.55 0 1-.45 1-1v-1.59c0-.27-.11-.52-.29-.71L17 12V8l1.71-1.71c.18-.18.29-.44.29-.7V3.75c0-.41-.34-.75-.75-.75s-.75.34-.75.75z"/></svg>