<svg xmlns="http://www.w3.org/2000/svg" width="20" height="20" viewBox="0 0 20 20"><path d="M8.4 16.5c-1.63 0-3.07-1.08-3.65-2.6h7.28c-.57 1.54-1.99 2.6-3.63 2.6z" opacity=".3"/><path d="M4.96 11s.31-.42.31-1.15c0-.77-.77-2.19-.77-2.79 0-.32.04-.64.31-1.06h.98c-.26.42-.31.74-.31 1.06 0 .59.77 2.02.77 2.79 0 .73-.31 1.15-.31 1.15h-.98zm3.36 0s.31-.42.31-1.15c0-.77-.77-2.19-.77-2.79 0-.32.04-.64.3-1.06h-.98c-.26.42-.3.74-.3 1.06 0 .59.77 2.02.77 2.79 0 .73-.31 1.15-.31 1.15h.98zm2.37 0s.31-.42.31-1.15c0-.77-.77-2.19-.77-2.79 0-.31.04-.64.31-1.06h-.98c-.27.42-.31.74-.31 1.06 0 .59.77 2.02.77 2.79 0 .73-.31 1.15-.31 1.15h.98zm4.81-9c-1.16 0-2.11.88-2.24 2l-.94 8.4H3.5c-.28 0-.53.24-.5.52C3.25 15.77 5.59 18 8.4 18c2.78 0 5.07-2.18 5.36-4.99l.99-8.84a.75.75 0 0 1 .75-.67c.41 0 .75.34.75.75S16.2 5.3 16.2 5.3l1.48.19s.07-.47.07-1.24C17.75 3.01 16.74 2 15.5 2zM8.4 16.5c-1.63 0-3.07-1.08-3.65-2.6h7.28c-.57 1.54-1.99 2.6-3.63 2.6z"/></svg>