<svg xmlns="http://www.w3.org/2000/svg" width="20" height="20" viewBox="0 0 20 20"><path d="M18.51 6.45c.39-.16.58-.63.39-1a9.991 9.991 0 0 0-4.35-4.35c-.38-.19-.84 0-1 .39l-.02.05c-.14.34.02.73.35.9 1.58.81 2.87 2.11 3.69 3.69.17.34.59.47.94.32zm-4.96 12.06c.16.39.63.58 1 .39 1.87-.96 3.4-2.48 4.35-4.35.19-.38 0-.84-.39-1-.35-.15-.78-.01-.95.33a8.593 8.593 0 0 1-3.69 3.69c-.34.17-.47.59-.32.94zM1.49 13.55c-.39.16-.58.63-.39 1 .96 1.87 2.48 3.4 4.35 4.35.38.19.84 0 1-.39.15-.35.01-.78-.33-.95a8.593 8.593 0 0 1-3.69-3.69c-.17-.34-.59-.47-.94-.32zM6.45 1.49c-.16-.39-.63-.58-1-.39A9.94 9.94 0 0 0 1.1 5.45c-.19.38 0 .84.39 1 .35.15.77.02.95-.32a8.593 8.593 0 0 1 3.69-3.69c.34-.18.47-.6.32-.95zM10 9a2.5 2.5 0 0 0 0-5 2.5 2.5 0 0 0 0 5zm0 1c-1.53 0-2.95.41-4.18 1.13-.51.3-.82.85-.82 1.44v.93c0 .28.22.5.5.5h9c.28 0 .5-.22.5-.5v-.93c0-.59-.31-1.14-.82-1.44A8.224 8.224 0 0 0 10 10z"/></svg>