<svg xmlns="http://www.w3.org/2000/svg" width="20" height="20" viewBox="0 0 20 20"><path d="m14.55 8.53-.83-2.49a2.256 2.256 0 0 0-2.13-1.54H8.41c-.97 0-1.83.62-2.13 1.54l-.55 1.63-1-1 .15-.15c.29-.29.29-.77 0-1.06s-.77-.29-1.06 0L2.47 6.82c-.29.29-.29.77 0 1.06.29.29.77.29 1.06 0l.14-.14.99.99C3.69 9.15 3 10.12 3 11.25c0 .98.51 1.83 1.28 2.32A2.25 2.25 0 0 0 6.5 15.5c.98 0 1.8-.63 2.11-1.5h2.78c.31.87 1.14 1.5 2.11 1.5 1.13 0 2.06-.84 2.22-1.93A2.74 2.74 0 0 0 17 11.25c0-1.41-1.08-2.57-2.45-2.72zM6.5 14c-.41 0-.75-.34-.75-.75s.34-.75.75-.75.75.34.75.75-.34.75-.75.75zm2.75-5.5H7.04l.66-1.99c.11-.3.39-.51.71-.51h.84v2.5zm1.5 0V6h.84c.32 0 .61.21.71.51l.66 1.99h-2.21zM13.5 14c-.41 0-.75-.34-.75-.75s.34-.75.75-.75.75.34.75.75-.34.75-.75.75z"/></svg>