<svg xmlns="http://www.w3.org/2000/svg" width="20" height="20" viewBox="0 0 20 20"><path d="M10 3.84c-.86.8-2.25 2.71-2.25 6.66 0 1.45.43 3.03.75 4h3c.32-.97.75-2.55.75-4 0-3.95-1.39-5.86-2.25-6.66zm0 6.66c-.83 0-1.5-.67-1.5-1.5s.67-1.5 1.5-1.5 1.5.67 1.5 1.5-.67 1.5-1.5 1.5zm-3.59 1.78-.91.7v2.59l1.52-.76c-.21-.67-.46-1.57-.61-2.53zm6.57 2.53 1.52.76v-2.59l-.91-.7c-.15.96-.4 1.86-.61 2.53z" opacity=".3"/><path d="m13.75 10.5 1.67 1.3c.37.28.58.72.58 1.18V18l-4-2H8l-4 2v-5.02c0-.46.21-.9.58-1.18l1.67-1.3C6.25 3.75 10 2 10 2s3.75 1.75 3.75 8.5zm-6 0c0 1.45.43 3.03.75 4h3c.32-.97.75-2.55.75-4 0-3.95-1.39-5.86-2.25-6.66-.86.8-2.25 2.71-2.25 6.66zM11.5 9c0-.82-.67-1.5-1.5-1.5-.82 0-1.5.68-1.5 1.5 0 .83.68 1.5 1.5 1.5.83 0 1.5-.67 1.5-1.5zm-5.09 3.28-.91.7v2.59l1.52-.76c-.21-.67-.46-1.57-.61-2.53zm6.57 2.53 1.52.76v-2.59l-.91-.7c-.15.96-.4 1.86-.61 2.53z"/></svg>