<svg xmlns="http://www.w3.org/2000/svg" width="20" height="20" viewBox="0 0 20 20"><path d="m16.41 9.87-3.01 3.01-1.24-1.24a.754.754 0 0 0-1.06 0c-.29.29-.29.77 0 1.06l1.59 1.59c.39.39 1.02.39 1.41 0l3.36-3.36c.29-.29.29-.77 0-1.06a.742.742 0 0 0-1.05 0zM11.25 5h-7.5c-.41 0-.75.34-.75.75s.34.75.75.75h7.5c.41 0 .75-.34.75-.75S11.66 5 11.25 5zm-7.5 7.75h4.5c.41 0 .75-.34.75-.75s-.34-.75-.75-.75h-4.5c-.41 0-.75.34-.75.75s.34.75.75.75zm7.5-4.63h-7.5c-.41 0-.75.34-.75.75s.34.75.75.75h7.5c.41 0 .75-.34.75-.75s-.34-.75-.75-.75z"/></svg>