<svg xmlns="http://www.w3.org/2000/svg" width="20" height="20" viewBox="0 0 20 20"><path d="M6.33 9.36c.17.2.14.5-.05.69l-2.1 2.1c-.2.2-.51.2-.71 0l-2.12-2.12c-.2-.21-.19-.55.04-.74.2-.17.5-.14.69.05l1.32 1.32C3.14 9.82 3 8.93 3 8c0-2.1.72-4.04 1.93-5.57.2-.25.59-.26.79.01.14.18.13.44-.01.62A7.973 7.973 0 0 0 4 8c0 .88.14 1.72.4 2.51l1.19-1.19c.21-.21.55-.19.74.04zm7.47-.42-1.3.58-1.92-4.34c-.28-.63-1.02-.92-1.65-.64a1.25 1.25 0 0 0-.65 1.65l3.54 8-2.61.25c-.33.03-.61.25-.73.56-.17.45.05.96.5 1.13l3.88 1.5c.37.14.78.13 1.15-.03l4.82-2.13c.67-.3 1.03-1.04.84-1.75l-.92-3.59c-.16-.64-.72-1.1-1.38-1.13l-3.12-.15c-.16 0-.31.03-.45.09z"/></svg>