<svg xmlns="http://www.w3.org/2000/svg" width="20" height="20" viewBox="0 0 20 20"><path d="M10.14 10.45c1.57-1.58 2.77-1.59 3.86-1.31v-2.3c0-.4-.24-.76-.6-.92l-4-1.75a1.01 1.01 0 0 0-.8 0l-4 1.75c-.36.16-.6.52-.6.92v2.62c0 3.03 2.13 5.86 5 6.55.35-.08.7-.2 1.02-.35-.6-.68-.98-1.56-1.02-2.52-.03-1.02.43-1.97 1.14-2.69z"/><path d="M13 10c-1.66 0-3 1.34-3 3s1.34 3 3 3 3-1.34 3-3-1.34-3-3-3zm0 1.03c.47 0 .84.38.84.84 0 .46-.38.84-.84.84s-.84-.38-.84-.84c0-.46.37-.84.84-.84zm0 4.03c-.7 0-1.31-.35-1.68-.87.04-.54 1.13-.81 1.68-.81s1.64.27 1.68.81c-.37.53-.98.87-1.68.87z"/></svg>