<?xml version="1.0" encoding="UTF-8" standalone="no"?>
<svg
   height="1000"
   width="1000"
   version="1.1"
   viewBox="0 0 1000 1000"
   id="svg7"
   sodipodi:docname="clock_08_50.svg"
   xmlns:inkscape="http://www.inkscape.org/namespaces/inkscape"
   xmlns:sodipodi="http://sodipodi.sourceforge.net/DTD/sodipodi-0.dtd"
   xmlns="http://www.w3.org/2000/svg"
   xmlns:svg="http://www.w3.org/2000/svg">
  <defs
     id="defs11" />
  <sodipodi:namedview
     id="namedview9"
     pagecolor="#ffffff"
     bordercolor="#000000"
     borderopacity="0.25"
     inkscape:showpageshadow="2"
     inkscape:pageopacity="0.0"
     inkscape:pagecheckerboard="0"
     inkscape:deskcolor="#d1d1d1" />
  <g
     id="container">
    <g
       transform="translate(500,500) rotate(270)"
       id="g4">
      <path
         id="clock_08_50"
         style="color:#000000;fill:#ffffff;stroke-linecap:round;stroke-linejoin:round;-inkscape-stroke:none"
         d="m 118.91602,-228.92969 a 30,30 0 0 0 -29.896489,14.74414 L 0,-60 -49.019531,-144.9043 A 30,30 0 0 0 -90,-155.88477 30,30 0 0 0 -100.98047,-114.9043 L -25.980469,15 a 30.003,30.003 0 0 0 51.960938,0 L 140.98047,-184.18555 A 30,30 0 0 0 130,-225.16602 30,30 0 0 0 118.91602,-228.92969 Z M 371,-371 h -30 -710 v 740 h 740 z m -60,60 v 620 h -620 v -620 z" />
    </g>
  </g>
</svg>
