<svg xmlns="http://www.w3.org/2000/svg" width="20" height="20" viewBox="0 0 20 20"><path d="m15.29 7.78-2.4 1.12L11 7.01v-.02l1.89-1.89 2.4 1.12c.25.12.55.01.66-.24a.49.49 0 0 0-.24-.66l-2.72-1.27a.489.489 0 0 0-.56.1L11 5.57V5.5c0-.28-.22-.5-.5-.5s-.5.22-.5.5v1H7.93a2.004 2.004 0 0 0-2.44-1.44c-.7.17-1.28.76-1.44 1.47-.23 1.02.32 1.94 1.16 2.31L6.5 14H6c-.55 0-1 .45-1 1s.45 1 1 1h6c.55 0 1-.45 1-1s-.45-1-1-1h-1.14l-3.3-5.77c.17-.21.3-.46.37-.73H10v1c0 .28.22.5.5.5s.5-.22.5-.5v-.07l1.43 1.43c.15.15.37.19.56.1l2.72-1.27c.25-.12.36-.41.24-.66a.486.486 0 0 0-.66-.25zM6 8c-.55 0-1-.45-1-1s.45-1 1-1 1 .45 1 1-.45 1-1 1z"/></svg>