<svg xmlns="http://www.w3.org/2000/svg" width="20" height="20" viewBox="0 0 20 20"><path d="M16.94 15.88c.35-.54.56-1.19.56-1.88 0-1.93-1.57-3.5-3.5-3.5s-3.5 1.57-3.5 3.5 1.57 3.5 3.5 3.5c.69 0 1.34-.21 1.88-.56L17.94 19 19 17.94l-2.06-2.06zM14 16c-1.1 0-2-.9-2-2 0-.31.07-.61.2-.87.32-.67 1.01-1.13 1.8-1.13 1.1 0 2 .9 2 2s-.9 2-2 2z"/><path d="M9 14c0-2.76 2.24-5 5-5 .53 0 1.02.1 1.5.26V4.5H14V7H6V4.5H4.5v11h4.76A4.68 4.68 0 0 1 9 14z" opacity=".3"/><path d="M9.26 15.5H4.5v-11H6V7h8V4.5h1.5v4.76c.55.17 1.05.43 1.5.77V4.5c0-.83-.67-1.5-1.5-1.5h-3.57c-.22-.86-1-1.5-1.93-1.5-.93 0-1.71.64-1.93 1.5H4.5C3.67 3 3 3.67 3 4.5v11c0 .83.67 1.5 1.5 1.5h5.53c-.34-.45-.6-.95-.77-1.5zM10 3a.749.749 0 1 1 .002 1.498A.749.749 0 0 1 10 3z"/></svg>