<svg xmlns="http://www.w3.org/2000/svg" width="1000" height="1000" viewBox="0 0 1000 1000"><path d="M-151.969-119.744A30 30 0 0 0-181.865-105a30 30 0 0 0 10.98 40.98L-111.96-30H-270a30 30 0 0 0-30 30 30 30 0 0 0 30 30H0a30.003 30.003 0 0 0 15-55.98l-155.885-90a30 30 0 0 0-11.084-3.764zM370 0c0-203.99-166.01-370-370-370S-370-203.99-370 0-203.99 370 0 370 370 203.99 370 0Zm-60 0c0 171.563-138.437 310-310 310S-310 171.563-310 0-171.563-310 0-310 310-171.563 310 0z" style="-inkscape-stroke:none" transform="rotate(-90 500 0)"/></svg>