<svg xmlns="http://www.w3.org/2000/svg" width="1000" height="1000" viewBox="0 0 1000 1000"><path d="M-138.916-263.57A30 30 0 0 0-150-259.81a30 30 0 0 0-10.98 40.983L-25.98 15A30.003 30.003 0 0 0 0 30h180a30 30 0 0 0 30-30 30 30 0 0 0-30-30H17.32l-126.34-218.826a30 30 0 0 0-29.896-14.744zM370 0c0-203.99-166.01-370-370-370S-370-203.99-370 0-203.99 370 0 370 370 203.99 370 0Zm-60 0c0 171.563-138.437 310-310 310S-310 171.563-310 0-171.563-310 0-310 310-171.563 310 0z" style="-inkscape-stroke:none" transform="rotate(-90 500 0)"/></svg>