<svg xmlns="http://www.w3.org/2000/svg" width="1000" height="1000"><path d="M2.615-29.88A30.003 30.003 0 0 0-25.98 15l90 155.885a30 30 0 0 0 40.98 10.98 30 30 0 0 0 10.98-40.98L81.96 81.96l136.866 79.02A30 30 0 0 0 259.81 150a30 30 0 0 0-10.983-40.98L15-25.98a30.003 30.003 0 0 0-12.385-3.9ZM370 0c0-203.99-166.01-370-370-370S-370-203.99-370 0-203.99 370 0 370 370 203.99 370 0Zm-60 0c0 171.563-138.437 310-310 310S-310 171.563-310 0-171.563-310 0-310 310-171.563 310 0z" style="-inkscape-stroke:none" transform="rotate(-90 500 0)" stroke-linecap="round" stroke-linejoin="round"/></svg>