<svg xmlns="http://www.w3.org/2000/svg" width="1000" height="1000"><path d="M-93.916-185.629A30 30 0 0 0-105-181.865a30 30 0 0 0-10.98 40.98L-34.64 0l-126.34 218.826A30 30 0 0 0-150 259.81a30 30 0 0 0 40.98-10.983L25.98 15a30.003 30.003 0 0 0 0-30l-90-155.885a30 30 0 0 0-29.896-14.744zM370 0c0-203.99-166.01-370-370-370S-370-203.99-370 0-203.99 370 0 370 370 203.99 370 0Zm-60 0c0 171.563-138.437 310-310 310S-310 171.563-310 0-171.563-310 0-310 310-171.563 310 0z" style="-inkscape-stroke:none" transform="rotate(-90 500 0)"/></svg>