<svg xmlns="http://www.w3.org/2000/svg" width="1000" height="1000"><path d="M-93.916-185.629A30 30 0 0 0-105-181.865a30 30 0 0 0-10.98 40.98l75 129.905-207.846 120A30 30 0 0 0-259.81 150a30 30 0 0 0 40.983 10.98L15 25.98A30.003 30.003 0 0 0 25.98-15l-90-155.885a30 30 0 0 0-29.896-14.744zM370 0c0-203.99-166.01-370-370-370S-370-203.99-370 0-203.99 370 0 370 370 203.99 370 0Zm-60 0c0 171.563-138.437 310-310 310S-310 171.563-310 0-171.563-310 0-310 310-171.563 310 0z" style="-inkscape-stroke:none" transform="rotate(-90 500 0)"/></svg>