<svg xmlns="http://www.w3.org/2000/svg" width="1000" height="1000" viewBox="0 0 1000 1000"><path d="M151.969-119.744a30 30 0 0 0-11.084 3.764L-15-25.98l-233.826 135A30 30 0 0 0-259.81 150a30 30 0 0 0 40.983 10.98L15 25.98l155.885-90a30 30 0 0 0 10.98-40.98 30 30 0 0 0-29.896-14.744ZM370 0c0-203.99-166.01-370-370-370S-370-203.99-370 0-203.99 370 0 370 370 203.99 370 0Zm-60 0c0 171.563-138.437 310-310 310S-310 171.563-310 0-171.563-310 0-310 310-171.563 310 0z" style="-inkscape-stroke:none" transform="rotate(-90 500 0)"/></svg>