<svg xmlns="http://www.w3.org/2000/svg" width="1000" height="1000"><path d="M229.912-164.744a30 30 0 0 0-11.086 3.764L-8.039-30H-180a30 30 0 0 0-30 30 30 30 0 0 0 30 30H0a30.003 30.003 0 0 0 15-4.02l233.826-135A30 30 0 0 0 259.81-150a30 30 0 0 0-29.897-14.744ZM370 0c0-203.99-166.01-370-370-370S-370-203.99-370 0-203.99 370 0 370 370 203.99 370 0Zm-60 0c0 171.563-138.437 310-310 310S-310 171.563-310 0-171.563-310 0-310 310-171.563 310 0z" style="-inkscape-stroke:none" transform="rotate(-90 500 0)" stroke-linecap="round" stroke-linejoin="round"/></svg>