<svg xmlns="http://www.w3.org/2000/svg" width="1000" height="1000"><path d="M138.916-263.57a30 30 0 0 0-29.896 14.744L0-60l-64.02-110.885a30 30 0 0 0-40.98-10.98 30 30 0 0 0-10.98 40.98L-25.98 15a30.003 30.003 0 0 0 51.96 0l135-233.826A30 30 0 0 0 150-259.81a30 30 0 0 0-11.084-3.761ZM370 0c0-203.99-166.01-370-370-370S-370-203.99-370 0-203.99 370 0 370 370 203.99 370 0Zm-60 0c0 171.563-138.437 310-310 310S-310 171.563-310 0-171.563-310 0-310 310-171.563 310 0z" style="-inkscape-stroke:none" transform="rotate(-90 500 0)" stroke-linecap="round" stroke-linejoin="round"/></svg>