<svg xmlns="http://www.w3.org/2000/svg" width="20" height="20" viewBox="0 0 20 20"><circle cx="7.5" cy="10.5" r="1"/><circle cx="12.5" cy="10.5" r="1"/><path d="M10 2c-.82 0-1.62.12-2.36.36A3.999 3.999 0 0 0 4 0C1.79 0 0 1.79 0 4c0 1.62.97 3.01 2.36 3.64C2.12 8.38 2 9.18 2 10c0 4.42 3.58 8 8 8s8-3.58 8-8-3.58-8-8-8zm5.41 4.43c-3.92.52-6.1-2.18-6.57-2.82 3.95-.71 6.13 2.15 6.57 2.82zm-8.3-2.24a6.567 6.567 0 0 1-3.22 3.63 6.498 6.498 0 0 1 3.22-3.63zM1.5 4A2.5 2.5 0 0 1 4 1.5c1 0 1.85.59 2.25 1.43a8.048 8.048 0 0 0-3.32 3.32C2.09 5.85 1.5 5 1.5 4zM10 16.5c-3.58 0-6.5-2.92-6.5-6.5 0-.14.03-.28.04-.42a8.023 8.023 0 0 0 4.75-4.29c2.28 2.44 5.34 3.04 7.84 2.55.24.68.38 1.4.38 2.16-.01 3.58-2.93 6.5-6.51 6.5z"/></svg>