<svg xmlns="http://www.w3.org/2000/svg" width="20" height="20" viewBox="0 0 20 20"><path d="M2.5 13.5h.71C3.6 12.62 4.48 12 5.5 12s1.9.62 2.29 1.5H10V11H2.5v2.5zm9 0h.71c.39-.88 1.26-1.5 2.29-1.5 1.02 0 1.9.62 2.29 1.5h.71V11h-6v2.5z" opacity=".3"/><path d="m18.84 8.68-1.43-2.85c-.25-.51-.77-.83-1.34-.83h-.57V3.5c0-.28-.22-.5-.5-.5h-1.5c-.28 0-.5.22-.5.5V5h-1.5c-.83 0-1.5.67-1.5 1.5v3H1v4c0 .83.67 1.5 1.5 1.5h.55a2.5 2.5 0 0 0 4.9 0h4.1a2.5 2.5 0 0 0 4.9 0H19V9.35c0-.23-.05-.46-.16-.67zM5.5 15.5c-.55 0-1-.45-1-1s.45-1 1-1 1 .45 1 1-.45 1-1 1zm4.5-2H7.79C7.4 12.62 6.52 12 5.5 12s-1.9.62-2.29 1.5H2.5V11H10v2.5zm4.5 2c-.55 0-1-.45-1-1s.45-1 1-1 1 .45 1 1-.45 1-1 1zm3-2h-.71c-.39-.88-1.27-1.5-2.29-1.5s-1.9.62-2.29 1.5h-.71V11h6v2.5zm0-4h-6v-3h4.57l1.43 2.85v.15z"/><path d="M9 7.5H8V6h1V5H1v1h1v1.5H1v1h8v-1zm-4.5 0H3V6h1.5v1.5zm2.5 0H5.5V6H7v1.5z"/></svg>