<svg xmlns="http://www.w3.org/2000/svg" width="20" height="20" viewBox="0 0 20 20"><path d="M3 3h5v1.5H3zM1 6.5h4V8H1zm2 9h4V17H3zm7.06-3.07c.79.24 1.63-.2 1.87-1 .24-.79-.2-1.63-1-1.87-.79-.24-1.63.2-1.87 1-.24.79.21 1.63 1 1.87zm-1.95-2.16c.16-.52.48-.96.89-1.27H2.8C1.81 9 1 9.81 1 10.8c0 .8.53 1.51 1.31 1.73l3.6 1.03c.4.11.83.06 1.18-.16l1.44-.87c-.48-.61-.67-1.45-.42-2.26z"/><path d="m17.77 15.32-1.82-3.27c-.2-.36-.54-.63-.95-.73l-2.02-.5c.02.3 0 .61-.1.92-.5 1.62-2.03 1.77-2.39 1.77-.25 0-.49-.04-.73-.11-.01 0-.01-.01-.02-.01v4.04h-.16C8.71 17.42 8 18.13 8 19h5c0-.87-.71-1.58-1.58-1.58h-.17V13.8l3.67 3.67a1.801 1.801 0 0 0 2.85-2.15zm-6.54-6.71c.63.19 1.13.62 1.43 1.16l3.32-5.54c.51-.85.24-1.96-.62-2.47a1.81 1.81 0 0 0-2.16.23l-2.74 2.56c-.29.28-.46.68-.46 1.09v2.91c.18-.03.64-.12 1.23.06z"/></svg>