<svg xmlns="http://www.w3.org/2000/svg" width="20" height="20" viewBox="0 0 20 20"><path d="m11.4 12.13 3.18 3.18a.996.996 0 1 0 1.41-1.41l-3.18-3.18-1.41 1.41z"/><path d="M15.19 8.78c.74-.31 1.3-.96 1.48-1.74.16-.72 0-1.4-.35-1.94l-2.08 2.08-.71-.71 2.08-2.08c-.54-.35-1.21-.51-1.93-.35-.78.17-1.43.74-1.74 1.47-.29.68-.24 1.32-.02 1.88L10.69 8.6 9.63 7.54l.35-.35c.2-.2.2-.51 0-.71L8.93 5.42 10.34 4c-.78-.78-2.05-.78-2.83 0L5.04 6.48c-.2.2-.2.51 0 .71l.71.71H3.53c-.22 0-.33.27-.18.43l2.68 2.68c.16.16.43.05.43-.18V8.6l.7.7c.2.2.51.2.71 0l.35-.35 1.06 1.06-3.89 3.89c-.39.39-.39 1.03 0 1.42.39.39 1.02.39 1.41 0l6.52-6.52c.55.22 1.19.26 1.87-.02z"/></svg>