<svg xmlns="http://www.w3.org/2000/svg" width="20" height="20" viewBox="0 0 20 20"><path d="M6 11.25c0-.41.34-.75.75-.75s.75.34.75.75-.34.75-.75.75-.75-.34-.75-.75zm4 .75c.41 0 .75-.34.75-.75s-.34-.75-.75-.75-.75.34-.75.75.34.75.75.75zm3.25 0c.41 0 .75-.34.75-.75s-.34-.75-.75-.75-.75.34-.75.75.34.75.75.75zm-6.5 3c.41 0 .75-.34.75-.75s-.34-.75-.75-.75-.75.34-.75.75.34.75.75.75zM10 15c.41 0 .75-.34.75-.75s-.34-.75-.75-.75-.75.34-.75.75.34.75.75.75zm3.25 0c.41 0 .75-.34.75-.75s-.34-.75-.75-.75-.75.34-.75.75.34.75.75.75zm0-13c.41 0 .75.34.75.75V4h1.5c.83 0 1.5.68 1.5 1.5v11c0 .83-.67 1.5-1.5 1.5h-11c-.83 0-1.5-.67-1.5-1.5v-11C3 4.68 3.67 4 4.5 4H6V2.75c0-.41.34-.75.75-.75s.75.34.75.75V4h5V2.75c0-.41.34-.75.75-.75zm2.25 7h-11v7.5h11V9z"/></svg>