<svg xmlns="http://www.w3.org/2000/svg" width="20" height="20" viewBox="0 0 20 20"><path d="M18.12 11.5c1.13-.87 1.87-2.22 1.87-3.75 0-2.62-2.13-4.75-4.75-4.75-.28 0-.55.04-.81.08C13.75 1.29 12.03 0 10 0S6.25 1.29 5.57 3.08C5.3 3.04 5.03 3 4.75 3 2.13 3 0 5.13 0 7.75c0 1.53.74 2.88 1.87 3.75C.74 12.37 0 13.72 0 15.25 0 17.87 2.13 20 4.75 20c1.24 0 2.36-.49 3.2-1.28.65.18 1.34.28 2.05.28.71 0 1.39-.1 2.05-.27.84.78 1.95 1.27 3.19 1.27 2.62 0 4.75-2.13 4.75-4.75 0-1.53-.74-2.88-1.87-3.75zm-2.88-7c1.79 0 3.25 1.46 3.25 3.25 0 .7-.24 1.34-.62 1.87a8.016 8.016 0 0 0-3.14-5.06v-.01c.17-.03.34-.05.51-.05zm.02 2.7c-.43.19-.89.3-1.37.3-1.73 0-3.14-1.3-3.35-2.97 1.94.16 3.64 1.18 4.72 2.67zM10 1.5c1.38 0 2.55.86 3.02 2.08-.01 0-.01.01-.02.01a7.955 7.955 0 0 0-6.01 0c-.01 0-.01-.01-.01-.01A3.246 3.246 0 0 1 10 1.5zM1.5 7.75c0-1.79 1.46-3.25 3.25-3.25.18 0 .35.02.52.05v.01c-1.63 1.2-2.78 3-3.14 5.07-.39-.53-.63-1.17-.63-1.88zM4.75 18.5c-1.79 0-3.25-1.46-3.25-3.25 0-.81.3-1.55.8-2.11.6 2.15 2.06 3.93 4 4.95-.47.25-.99.41-1.55.41zM3.5 11c0-3.26 2.41-5.96 5.55-6.42C9.29 7.05 11.36 9 13.89 9c.74 0 1.46-.17 2.11-.49.32.77.5 1.61.5 2.49 0 3.58-2.92 6.5-6.5 6.5S3.5 14.58 3.5 11zm11.74 7.5c-.56 0-1.08-.16-1.54-.41 1.94-1.01 3.4-2.8 4-4.94.49.57.79 1.3.79 2.1 0 1.79-1.46 3.25-3.25 3.25z"/><circle cx="7.5" cy="11.5" r="1"/><circle cx="12.5" cy="11.5" r="1"/></svg>