<svg xmlns="http://www.w3.org/2000/svg" width="20" height="20" viewBox="0 0 20 20"><path d="M10 6.5c0 .16-.03.32-.08.47l.44 1.2.94-.34-1.16-3.18-.94.34.09.23c.42.27.71.74.71 1.28z" opacity=".3"/><circle cx="8.5" cy="6.5" r=".5" opacity=".3"/><path d="M6 15c-.55 0-1 .45-1 1h10c0-.55-.45-1-1-1h-4v-2h3c.55 0 1-.45 1-1H8.47A2.508 2.508 0 0 1 6 9.5c0-.93.51-1.73 1.26-2.16a1.486 1.486 0 0 0 1.91.5l.59 1.62.93-.34.33.88.94-.34-.33-.88.95-.34-1.84-5.06-.94.33-.33-.88-.94.34.32.88-.93.34.24.65c-.61.15-1.07.66-1.14 1.3A3.495 3.495 0 0 0 5 9.5c0 1.76 1.31 3.2 3 3.45V15H6zm4.14-10.35 1.16 3.18-.94.34-.44-1.2c.05-.15.08-.31.08-.47 0-.54-.29-1.01-.72-1.27l-.08-.24.94-.34zM8.5 6c.28 0 .5.22.5.5s-.22.5-.5.5-.5-.22-.5-.5.22-.5.5-.5z"/></svg>