<svg xmlns="http://www.w3.org/2000/svg" width="20" height="20" viewBox="0 0 20 20"><path d="M7.08 10.92c.25-.25.3-.65.1-.94-.4-.56-.63-1.24-.63-1.98s.23-1.42.63-1.98c.2-.29.15-.69-.1-.94a.75.75 0 0 0-1.15.11c-.56.8-.88 1.77-.88 2.81s.32 2.01.88 2.81c.26.39.82.44 1.15.11z"/><path d="M4.9 2.91a.746.746 0 0 0-1.11.04C2.67 4.33 2 6.09 2 8s.67 3.67 1.79 5.05c.28.34.8.36 1.11.05.27-.27.29-.71.05-1.01C4.04 10.97 3.5 9.55 3.5 8s.54-2.97 1.45-4.09a.74.74 0 0 0-.05-1zm8.02 2.17c-.25.25-.3.65-.1.94.4.56.63 1.25.63 1.98 0 .74-.23 1.42-.63 1.98-.2.29-.15.69.1.94.33.33.89.28 1.15-.11.55-.8.88-1.77.88-2.81s-.32-2.01-.88-2.81a.75.75 0 0 0-1.15-.11z"/><path d="M15.1 2.9c-.28.28-.29.71-.05 1.01A6.454 6.454 0 0 1 16.5 8c0 1.55-.54 2.97-1.45 4.09a.753.753 0 0 0 1.16.96A7.991 7.991 0 0 0 18 8c0-1.91-.67-3.67-1.79-5.05a.754.754 0 0 0-1.11-.05zM12 8c0-1.26-1.16-2.24-2.47-1.95-.72.17-1.31.75-1.47 1.47-.2.82.12 1.57.69 2.03L6.3 17.07c-.15.46.2.93.68.93.31 0 .58-.2.68-.49l.33-1.01h3.6l.27.98c.09.31.37.52.69.52h.02c.47 0 .81-.45.69-.9L11.2 9.6c.48-.37.8-.94.8-1.6zm-3.53 7 1.46-4.5 1.24 4.5h-2.7z"/></svg>