<svg xmlns="http://www.w3.org/2000/svg" width="20" height="20" viewBox="0 0 20 20"><path d="M10 2c-4.42 0-8 3.58-8 8s3.58 8 8 8 8-3.58 8-8-3.58-8-8-8zm0 14.5c-3.58 0-6.5-2.92-6.5-6.5S6.42 3.5 10 3.5s6.5 2.92 6.5 6.5-2.92 6.5-6.5 6.5zm2-3-2.12 2.12-.71-.71.92-.91H10c-1.07 0-2.07-.42-2.83-1.17A4.004 4.004 0 0 1 6 10c0-.7.18-1.38.52-1.98l.74.74C7.09 9.15 7 9.57 7 10c0 .8.31 1.55.88 2.12.58.58 1.38.86 2.18.85l-.88-.88.71-.71L12 13.5zm2-3.5c0 .7-.18 1.38-.52 1.98l-.74-.74c.17-.39.26-.81.26-1.24 0-.8-.31-1.55-.88-2.12C11.55 7.31 10.8 7 10 7h-.08l.91.91-.71.71L8 6.5l2.12-2.12.71.71-.96.95c1.08-.03 2.17.35 2.95 1.13C13.58 7.93 14 8.93 14 10z"/></svg>