<svg xmlns="http://www.w3.org/2000/svg" width="20" height="20" viewBox="0 0 20 20"><path d="M10 8c1.66 0 3-1.34 3-3s-1.34-3-3-3-3 1.34-3 3 1.34 3 3 3zm0-4.5c.83 0 1.5.67 1.5 1.5s-.67 1.5-1.5 1.5S8.5 5.83 8.5 5s.67-1.5 1.5-1.5zm5.03 6.87C13.56 9.5 11.84 9 10 9s-3.56.5-5.03 1.37c-.61.36-.97 1.02-.97 1.72V18h1.5v-5.91c0-.18.09-.34.22-.42C7.02 10.9 8.5 10.5 10 10.5c.63 0 1.25.07 1.85.21l-1.29 2.79H8.73c-1.24 0-2.25 1.01-2.25 2.25S7.49 18 8.73 18h5.77c.83 0 1.5-.67 1.5-1.5v-4.41c0-.7-.36-1.36-.97-1.72zM9.18 16.5h-.45c-.41 0-.75-.34-.75-.75s.34-.75.75-.75h1.15l-.7 1.5zm5.32 0h-3.66l2.46-5.33c.34.14.67.31.98.49.14.08.22.25.22.42v4.42z"/></svg>