<svg xmlns="http://www.w3.org/2000/svg" width="20" height="20" viewBox="0 0 20 20"><path d="M10.5 4.5C8.65 4.5 7 5.81 6.59 7.62l-.06.28-1.73 2.6h1.7v3h3v2H12v-3.21l.68-.44A3.999 3.999 0 0 0 10.5 4.5zm-.25 7.5c-.35 0-.63-.28-.63-.63s.28-.62.63-.62.62.27.62.62c.01.35-.26.63-.62.63zm1.51-3.7c-.38.56-.74.73-.93 1.09-.08.14-.11.24-.11.71H9.8c0-.25-.04-.65.16-.99.24-.44.71-.7.98-1.08.29-.41.13-1.16-.68-1.16-.53 0-.79.4-.9.74l-.83-.36C8.76 6.58 9.36 6 10.25 6c.74 0 1.25.34 1.5.76.22.36.35 1.04.01 1.54z" opacity=".3"/><path d="M10.5 3a5.51 5.51 0 0 0-5.37 4.3L3.2 10.2c-.52.77.04 1.8.96 1.8h.83v1.5c0 .83.67 1.5 1.5 1.5H8v2h5.5v-3.89C15 12.12 16 10.43 16 8.5 16 5.46 13.54 3 10.5 3zm2.18 8.85-.68.44v3.21H9.5v-2H6.49v-3H4.8l1.74-2.6.06-.27C7 5.81 8.65 4.5 10.5 4.5a3.999 3.999 0 0 1 2.18 7.35z"/><path d="M10.25 10.75c-.35 0-.63.27-.63.62s.28.63.63.63c.36 0 .62-.28.62-.63.01-.35-.26-.62-.62-.62zm0-4.75c-.89 0-1.49.58-1.72 1.25l.82.34c.11-.34.37-.74.9-.74.81 0 .97.76.68 1.16-.26.39-.73.65-.97 1.09-.19.34-.16.74-.16.99h.91c0-.47.03-.56.11-.71.19-.36.56-.53.93-1.09.34-.5.21-1.18-.01-1.54-.25-.41-.76-.75-1.49-.75z"/></svg>