<svg xmlns="http://www.w3.org/2000/svg" width="20" height="20" viewBox="0 0 20 20"><path d="M13.16 9.25A3.258 3.258 0 0 0 10 6.75a3.25 3.25 0 0 0-3.16 2.5H3.55C3.92 6.02 6.67 3.5 10 3.5s6.08 2.52 6.46 5.75h-3.3z" opacity=".3"/><path d="M10 2c-4.42 0-8 3.58-8 8s3.58 8 8 8 8-3.58 8-8-3.58-8-8-8zm0 1.5c3.33 0 6.08 2.52 6.46 5.75h-3.29c-.34-1.43-1.63-2.5-3.16-2.5s-2.82 1.07-3.16 2.5H3.54C3.92 6.02 6.67 3.5 10 3.5zm1.75 6.5c0 .96-.79 1.75-1.75 1.75S8.25 10.96 8.25 10 9.04 8.25 10 8.25s1.75.79 1.75 1.75zM10 16.5c-3.33 0-6.08-2.52-6.46-5.75h3.29c.34 1.43 1.63 2.5 3.16 2.5s2.82-1.07 3.16-2.5h3.29A6.485 6.485 0 0 1 10 16.5z"/></svg>