<svg xmlns="http://www.w3.org/2000/svg" width="20" height="20" viewBox="0 0 20 20"><path d="M10 6c.41 0 .75.34.75.75v1.88l-1.5-1.5v-.38c0-.41.34-.75.75-.75zm-2.68-.8c.79-.45 1.71-.7 2.68-.7 1.64 0 3.11.74 4.12 1.88l-.76.76c-.32.32-.1.86.35.86h2.79c.28 0 .5-.22.5-.5V4.71c0-.45-.54-.67-.85-.35l-.96.96C13.9 3.9 12.06 3 10 3a7 7 0 0 0-3.77 1.1l1.09 1.1zM16.2 10c-.37 0-.69.27-.74.63-.08.74-.32 1.43-.66 2.05l1.09 1.09c.55-.86.92-1.85 1.05-2.92a.75.75 0 0 0-.74-.85zm.34 7.6c-.29.29-.77.29-1.06 0l-1.71-1.71a7.035 7.035 0 0 1-4.81 1.03c-3.01-.43-5.46-2.88-5.89-5.89-.25-1.77.16-3.45 1.03-4.8L2.4 4.52a.754.754 0 0 1 0-1.06c.29-.29.77-.29 1.06 0l13.08 13.08c.29.29.29.77 0 1.06zm-3.86-2.8L5.2 7.32c-.45.79-.7 1.71-.7 2.68 0 3.03 2.47 5.5 5.5 5.5.97 0 1.89-.25 2.68-.7z"/></svg>