<svg xmlns="http://www.w3.org/2000/svg" width="20" height="20" viewBox="0 0 20 20"><path d="M16.5 13.5H4.38l-.88.88V3.5h8.08c-.07-.38-.13-.84 0-1.5H3.5C2.67 2 2 2.67 2 3.5V18l3-3h11.5c.83 0 1.5-.67 1.5-1.5V5.85c-.44.35-.94.62-1.5.76v6.89z"/><path d="M5 6.5h9.15c-.8-.29-1.49-.81-1.96-1.5H5v1.5zm0 4h7V12H5zm0-2.75h10v1.5H5z"/><circle cx="15.5" cy="2.75" r="2.5"/><path d="m3.5 14.38.88-.88H16.5V6.61c-.32.08-.65.14-1 .14-.47 0-.92-.1-1.35-.25H5V5h7.2c-.3-.44-.52-.95-.62-1.5H3.5v10.88zM5 7.75h10v1.5H5v-1.5zm0 2.75h7V12H5v-1.5z" opacity=".3"/></svg>