<svg xmlns="http://www.w3.org/2000/svg" width="20" height="20" viewBox="0 0 20 20"><path d="M4.75 5.5c-.41 0-.75.34-.75.75v1.83L2.35 9.35a.75.75 0 0 0-.15 1.05c.25.33.72.39 1.05.14L4 9.97V16c0 .55.45 1 1 1h4.25v-3.75c0-.41.34-.75.75-.75s.75.34.75.75V17H15c.55 0 1-.45 1-1V9.97l.74.57a.749.749 0 1 0 .91-1.19L10.6 3.97c-.36-.27-.86-.27-1.21 0L5.5 6.94v-.69c0-.41-.34-.75-.75-.75zm.17-1c-.54 0-.91-.57-.68-1.05.31-.64.94-1.2 2-1.2.24-.01.52-.08.66-.34.14-.25.4-.41.68-.41.54 0 .91.57.68 1.05-.31.64-.94 1.2-2 1.2-.25.01-.53.08-.67.34a.76.76 0 0 1-.67.41z"/></svg>