<svg xmlns="http://www.w3.org/2000/svg" width="20" height="20" viewBox="0 0 20 20"><path d="M14.25 11.5H13v-3h1.25C15.77 8.5 17 7.27 17 5.75S15.77 3 14.25 3 11.5 4.23 11.5 5.75V7h-3V5.75C8.5 4.23 7.27 3 5.75 3S3 4.23 3 5.75 4.23 8.5 5.75 8.5H7v3H5.75C4.23 11.5 3 12.73 3 14.25S4.23 17 5.75 17s2.75-1.23 2.75-2.75V13h3v1.25c0 1.52 1.23 2.75 2.75 2.75S17 15.77 17 14.25s-1.23-2.75-2.75-2.75zM13 5.75A1.25 1.25 0 1 1 14.25 7H13V5.75zM5.75 7A1.25 1.25 0 1 1 7 5.75V7H5.75zM7 14.25A1.25 1.25 0 1 1 5.75 13H7v1.25zm1.5-2.75v-3h3v3h-3zm5.75 4c-.69 0-1.25-.56-1.25-1.25V13h1.25a1.25 1.25 0 0 1 0 2.5z"/></svg>